<?xml version="1.0" encoding="UTF-8"?><svg id="Layer_2" xmlns="http://www.w3.org/2000/svg" width="1000" height="1000" viewBox="0 0 1000 1000"><g><path d="M536.5884,732.2645c0,22.7502-18.4427,41.193-41.193,41.193H66.193c-22.7503,0-41.193-18.4428-41.193-41.193V145.8684h511.5884V732.2645Z" style="fill:#f4d13b;"/><path d="M66.193,69.4769H495.3954c22.7503,0,41.193,18.4428,41.193,41.193v35.3266H25v-35.3266c0-22.7502,18.4427-41.193,41.193-41.193Z" style="fill:#f953b2;"/><circle cx="275.6929" cy="280.0881" r="96.1961" style="fill:#6966ed;"/><path d="M275.6929,376.2842c-26.5631,0-50.6115-10.7664-68.0194-28.1736l9.0297-29.1855c5.1231-16.7496,20.5842-28.1886,38.0997-28.1886h36.0862c16.5007,0,31.2939,10.1712,37.2013,25.5784l14.0217,33.3582c-17.2671,16.4863-40.6605,26.6112-66.4191,26.6112Z" style="fill:#fff;"/><rect x="108.0785" y="425.8397" width="320.6537" height="70.6896" rx="16.7542" ry="16.7542" transform="translate(536.8106 922.369) rotate(-180)" style="fill:#fff;"/><rect x="108.0785" y="533.696" width="320.6537" height="70.6896" rx="16.7542" ry="16.7542" transform="translate(536.8106 1138.0815) rotate(-180)" style="fill:#fff;"/><g><circle cx="136.4986" cy="107.8296" r="8.4737" style="fill:#fff;"/><circle cx="106.7124" cy="107.8296" r="8.4737" style="fill:#fff;"/><circle cx="76.9263" cy="107.8296" r="8.4737" style="fill:#fff;"/></g><path d="M408.3269,677.3487c-2.5316,0-5.0633,0-7.5949,0-6.8279,0-13.6558,0-20.4837,0-10.123,0-20.246,0-30.369,0-12.3505,0-24.7009,0-37.0514,0-13.48,0-26.9601,0-40.4401,0-13.6995,0-27.3991,0-41.0986,0-12.6864,0-25.3729,0-38.0593,0-10.7592,0-21.5184,0-32.2777,0-7.7355,0-15.4709,0-23.2064,0-3.6542,0-7.315-.064-10.9688,0-.1597,.0028-.3198,0-.4795,0-3.6389,0-3.645,5.6553,0,5.6553,2.5316,0,5.0633,0,7.5949,0,6.8279,0,13.6558,0,20.4837,0,10.123,0,20.246,0,30.369,0,12.3505,0,24.7009,0,37.0514,0,13.48,0,26.9601,0,40.4401,0,13.6995,0,27.3991,0,41.0986,0,12.6864,0,25.3729,0,38.0593,0,10.7592,0,21.5184,0,32.2777,0,7.7355,0,15.4709,0,23.2064,0,3.6542,0,7.315,.064,10.9688,0,.1597-.0028,.3198,0,.4795,0,3.6389,0,3.645-5.6553,0-5.6553h0Z" style="fill:#6966ed;"/><path d="M352.2125,710.8716c-4.7803,0-9.5606,0-14.3409,0-11.4812,0-22.9624,0-34.4436,0-13.8925,0-27.785,0-41.6775,0-12.0142,0-24.0284,0-36.0427,0-5.8371,0-11.7038-.1726-17.5391,0-.0833,.0025-.1671,0-.2504,0-3.6389,0-3.645,5.6553,0,5.6553,4.7803,0,9.5606,0,14.3409,0,11.4812,0,22.9624,0,34.4436,0,13.8925,0,27.785,0,41.6775,0,12.0142,0,24.0284,0,36.0427,0,5.8371,0,11.7038,.1726,17.5391,0,.0833-.0025,.1671,0,.2504,0,3.6389,0,3.645-5.6553,0-5.6553h0Z" style="fill:#6966ed;"/><circle cx="272.8095" cy="250.9402" r="28.7587" style="fill:#fff;"/></g><circle cx="370.2123" cy="422.8095" r="24.3112" style="fill:#f953b2;"/><circle cx="171.5466" cy="459.7983" r="24.3112" style="fill:#f953b2;"/><circle cx="238.3651" cy="459.7983" r="24.3112" style="fill:#f953b2;"/><circle cx="305.1836" cy="459.7983" r="24.3112" style="fill:#f953b2;"/><g><path d="M646.0334,331.7978c.137,.1604,.1359,.1504-.0034-.03,.0595,.0818,.1139,.167,.1629,.2555-.0797-.2247-.0869-.2354-.0217-.032-.0207-.2543-.0272-.2729-.0196-.0557,.1146-.6411-.2153,.4522,.0328-.0787-.0877,.1878-.1985,.3598-.3159,.53,.2613-.3788-.1087,.1-.1781,.1706-.1338,.1361-.2746,.2651-.4197,.389-.0728,.062-.1467,.1227-.2217,.1821,.1924-.1474,.2049-.1586,.0375-.0335-.1587,.11-.3146,.2239-.4742,.3326-1.5225,1.0367-3.2034,2.0194-3.8911,3.8263-.3685,.9682-.2501,2.1522,.3391,3.0079,.7755,1.1262,2.0151,1.4061,3.2915,1.5362,1.9801,.2019,3.953-.2476,5.7334-1.104,.891-.4286,1.1973-1.7711,.6763-2.5792-.5897-.9147-1.6262-1.1347-2.5792-.6763-.0981,.0484-.1971,.0948-.297,.1393,.1992-.0821,.1976-.083-.0046-.0027-.2071,.0711-.4113,.1472-.6217,.209-.368,.1081-.7415,.187-1.1194,.2519,.4571-.0785-.2267,.0171-.3138,.0226-.1637,.0104-.3277,.0162-.4917,.0175-.2187,.0016-.4374-.0049-.6556-.0198-.1474-.01-.4909-.0507-.1511-.0022-.2048-.0293-.4013-.0786-.6029-.1212-.2032-.068-.1901-.0614,.0392,.0198,.1188,.076,.2108,.177,.276,.303-.221-.3372,.1049,.3676,.0021-.0252,.0324,.2857,.0465,.3223,.0421,.11-.0474,.2823-.0474,.3206,.0001,.1146,.0691-.1989,.0599-.1789-.0276,.0601,.0447-.0831,.0937-.1635,.1471-.2412l-.1233,.1547c.0608-.0734,.1241-.1445,.1899-.2133,.1317-.1388,.2728-.2686,.4174-.3938,.073-.063,.1471-.1247,.2222-.185-.1727,.1309-.2043,.1554-.0949,.0734,1.2123-.8637,2.6024-1.6108,3.5841-2.7505,.7113-.8259,1.2402-1.7683,1.3123-2.8754,.0749-1.15-.467-2.1211-1.212-2.9523-.6601-.7365-2.0029-.7223-2.6659,0-.7219,.7864-.7041,1.8804,0,2.6659h0Z"/><g><path d="M658.955,362.3179s8.4529-.6974,15.0699-5.5775c-2.484,5.909-9.2984,11.4829-11.8609,11.8803,2.2507-7.1827-3.0805-6.1699-3.2089-6.3028Z"/><path d="M658.955,365.1456c5.7798-.487,11.8121-2.548,16.497-5.9636-1.2896-1.2896-2.5792-2.5792-3.8688-3.8688-.6451,1.5046-1.5033,2.8868-2.4725,4.2025-.3173,.4307,.1736-.2022-.0446,.0569-.1218,.1446-.2372,.2949-.3581,.4403-.2646,.3182-.5361,.6305-.8138,.9372-.5408,.5971-1.1054,1.1724-1.692,1.7245-.5235,.4928-1.0643,.9674-1.6238,1.419-.0754,.0611-.1513,.1216-.2277,.1815-.166,.1306-.1004,.0801,.1966-.1514-.0644,.1076-.2709,.2023-.3695,.2739-.258,.1872-.5198,.3691-.7867,.5433-.46,.3002-.9353,.563-1.423,.8145-.5943,.3064,.5942-.1793,.0107-.0086-.1892,.0554-.3718,.1131-.5667,.1471,1.1595,1.1595,2.3189,2.3189,3.4784,3.4784,.9346-3.0587,1.1388-6.8661-1.837-8.8695-.9115-.6136-1.9207-.8444-2.9929-.9592-.2387-.0255-.4762-.0367-.7162-.0395-.0743-.0009-.15-.003-.2243,.0008-.0284,.0014-.0577-.0039-.0859-.0012,.262-.0248,1.0373,.171,1.3479,.3725-1.2434-.8067-3.1781-.2927-3.8688,1.0144-.7439,1.4081-.3126,3.0078,1.0144,3.8688,.6393,.4148,1.3674,.3764,2.0838,.4049,.1153,.0046,.2321,.0226,.3471,.0235,.3071,.0024-.8792-.1841-.2934-.0321,.1236,.0321,.2476,.064,.3712,.0961,.0721,.0187,.1516,.0686,.2243,.0801-.0577-.0091-.7088-.3937-.4169-.1667,.1133,.0881,.5774,.3948,.1028,.0266-.5184-.4021,.0016,.0912,.0974,.145-.0803-.0451-.4078-.6708-.248-.3036,.029,.0666,.0765,.1599,.123,.2177,.2134,.266-.1768-.6392-.1214-.2769,.0144,.0942,.0566,.1893,.0789,.2824,.183,.7649,.0028-.632,.0095,.1083,.0024,.2674-.0113,.5309-.0238,.7978-.024,.5128,.1062-.4798,.0198-.1166-.0385,.1619-.0576,.3298-.0922,.4929-.0951,.4494-.2187,.891-.3528,1.33-.2926,.9575,.0294,2.0534,.7272,2.7512,.7652,.7652,1.7296,.9052,2.7512,.7272,1.1269-.1963,2.2355-.823,3.1915-1.4337,1.403-.8961,2.719-1.963,3.9384-3.0946,2.611-2.4229,5.0091-5.3585,6.421-8.6515,.485-1.1311,.5551-2.5111-.4421-3.4266-.8625-.7917-2.3956-1.1938-3.4266-.4421-1.5743,1.1477-3.2663,2.0847-5.0407,2.884-.7035,.3169,.5417-.2114-.1652,.0708-.2075,.0829-.4148,.1661-.6235,.2459-.4042,.1547-.8115,.3014-1.2213,.4405-.7553,.2564-1.5195,.4868-2.2902,.6924-1.1774,.3141-2.3707,.5724-3.5741,.7647-.1995,.0319-.4029,.052-.6012,.09-.0215,.0041,.8805-.1083,.4677-.0632-.0676,.0074-.1349,.017-.2024,.0249-.1304,.0152-.2609,.0303-.3918,.0414-1.4701,.1239-2.9,1.2118-2.8277,2.8277,.0639,1.4256,1.2492,2.9607,2.8277,2.8277Z"/></g><g><path d="M694.3394,343.3456c3.5841,1.1495,8.0756,.9729,10.7582,.2689,5.7772-1.5162,11.4105-4.9262,13.9055-10.353,1.3396-2.9136,1.6827-6.1824,1.7721-9.388,.7676-27.5152-7.2956-64.365-40.1025-68.268-11.8656-1.4116-23.861,2.7159-33.9291,9.1516-7.2312,4.6223-13.779,10.5545-18.0959,17.9721-4.3169,7.4176-6.2472,16.4243-4.2228,24.7644,.7869,3.2418,2.2438,6.4626,4.8503,8.5446,4.2818,3.4203,10.4559,2.9465,15.7607,1.5713,6.9355-1.798,15.6205-6.3866,23.0299-5.2595,6.6484,1.0114,8.3082,7.9578,8.7499,13.7148-3.4658-7.4391,3.2861-19.4162,12.0388-13.3009,1.5552,1.0866,2.6386,2.7352,3.4128,4.4672,1.2163,2.721,1.7504,5.7956,1.1873,8.7223-.8735,4.5392-6.2434,8.5006-4.1419,13.4123,.8527,1.9931,2.758,3.2522,5.0268,3.9798Z"/><path d="M693.5877,346.0723c9.7992,2.9883,22.6526-1.3921,27.529-10.7158,2.4359-4.6575,2.5414-10.0078,2.5349-15.1462-.0048-3.8124-.181-7.6254-.543-11.4207-1.4772-15.4867-5.7906-31.9663-16.7916-43.533-5.4594-5.7401-12.5423-9.7938-20.2628-11.5751-11.1066-2.5626-22.421-.5319-32.6578,4.198-9.9301,4.5882-19.1956,11.6138-25.441,20.6684-6.3495,9.2055-9.5596,22.0348-5.2801,32.7666,2.1194,5.3148,6.2553,9.0987,12.0176,9.9182,5.288,.752,10.5413-.5624,15.5183-2.2683,4.9338-1.6911,10.0634-3.943,15.3632-3.9614,1.0406-.0036,2.0461,.0644,3.0454,.3653,.668,.2012,1.4937,.668,1.889,1.0236,1.338,1.2035,2.0105,2.605,2.5343,4.337,.2709,.8958,.4764,1.8109,.6376,2.7324,.1713,.979,.2118,1.41,.3074,2.6036,1.7564-.4757,3.5128-.9514,5.2693-1.4272,.1736,.3877-.1873-.5597-.2368-.7343-.1002-.3533-.1786-.7097-.2429-1.0712-.0824-.4633,.0344,.401-.0082-.069-.0208-.2302-.0375-.4602-.0455-.6912-.0146-.4184,.0013-.8337,.0229-1.2514,.0036-.0703,.056-.6465,.0191-.3177-.0443,.3956,.0867-.4996,.0774-.4509,.0699-.3643,.1556-.7259,.2565-1.0829,.1003-.3548,.2165-.7051,.3462-1.0502,.1996-.5307,.0814-.1948,.0309-.0836,.1121-.2468,.2333-.4905,.3622-.729,.1695-.3137,.3532-.6202,.5516-.9165,.0972-.1452,.1977-.2919,.304-.4311-.287,.3759-.0106,.0278,.0477-.0362,.2299-.2526,.461-.5015,.7133-.7324-.0166,.0152,.6155-.4997,.2935-.259-.2793,.2088,.2669-.1705,.3243-.204,.1286-.0749,.9624-.4909,.4172-.2663,.3458-.1425,.6979-.2154,1.0547-.3168,.415-.1179-.4506,.0205-.0146-.0083,.1686-.0111,.3364-.0226,.5055-.0243,.216-.0022,.4313,.0061,.6465,.0255-.4238-.0381-.027-.0025,.1801,.0499,1.4787,.3742,3.0005,1.2812,4.0074,2.8695,1.2038,1.8987,1.9383,4.1849,1.9782,6.4367,.0739,4.1653-3.1217,6.9323-4.385,10.872-.7645,2.3842-.5571,5.0552,.7108,7.2331,1.4013,2.4071,3.8461,3.8114,6.4133,4.6741,1.4474,.4864,3.0898-.5609,3.4784-1.975,.4243-1.5442-.5222-2.9901-1.975-3.4784-1.7443-.5862-3.2329-1.5138-3.4488-3.322,.038,.3183,.0985-1.0895,.0347-.7089,.0782-.4659,.2288-.9362,.4009-1.3742,.0689-.1753,.2838-.6138,.4719-.9703,.2908-.551,.6065-1.0885,.9233-1.6249,1.1312-1.9155,2.3546-3.9107,2.7462-6.1336,.5288-3.0017,.258-6.1067-.8035-8.9692-1.7984-4.8497-5.7243-9.1998-11.2517-9.2609-3.9686-.0438-7.3827,2.6186-9.2082,5.9969-2.222,4.1119-2.4914,8.9747-.5818,13.2401,1.138,2.5419,5.487,1.2897,5.2693-1.4272-.3221-4.0194-1.0149-8.3511-3.4314-11.7007-2.9346-4.0676-7.5481-5.3715-12.4037-4.9313-5.2522,.4761-10.1544,2.3829-15.1004,4.0782-4.249,1.4563-9.1011,3.0058-13.6263,2.0854-2.1216-.4315-3.9893-1.3786-5.364-3.0863-1.4228-1.7675-2.1694-4.0029-2.6638-6.1858-1.1391-5.0289-.6234-10.3022,.9224-15.185,3.0371-9.5937,10.3062-17.2584,18.4867-22.8152,8.7759-5.9613,19.1156-10.265,29.8668-10.1661,7.7802,.0715,15.2081,2.4015,21.5237,7.0752,.151,.1118,.3019,.2241,.4507,.3389-.325-.2506,.0467,.0407,.0931,.0779,.3287,.2639,.6536,.5322,.9739,.8062,.6748,.5775,1.3296,1.1782,1.9636,1.8002,1.2701,1.2462,2.457,2.577,3.5591,3.9737,.3497,.4432,.1511,.1956,.0763,.0972,.1427,.1875,.2834,.3765,.423,.5663,.2519,.3424,.4992,.6882,.7417,1.0373,.5418,.78,1.0604,1.5761,1.5567,2.3859,.9039,1.4748,1.7334,2.9949,2.4952,4.5478,.8904,1.8151,1.3801,2.9555,2.0467,4.7006,.6725,1.7604,1.2735,3.5479,1.8113,5.354,1.0608,3.5627,1.8761,7.1969,2.4934,10.8618,.5961,3.5392,.9638,6.8551,1.2098,10.7184,.2293,3.6002,.2987,7.2107,.2142,10.8171-.1112,4.7412-.8364,9.2834-4.3884,12.7047-2.9378,2.8298-7.3968,4.8906-11.344,5.238-2.4152,.2126-4.814,.0687-7.1384-.6402-3.4889-1.0639-4.9804,4.393-1.5034,5.4533Z"/></g><g><path d="M794.4156,541.2428c-.7493-6.7577-1.4985-13.5155-2.2478-20.2732-.1079-.9728-.2157-1.9456-.3236-2.9184-.1683-1.5177-1.1792-2.8277-2.8277-2.8277-1.3981,0-2.997,1.3-2.8277,2.8277,.7493,6.7577,1.4985,13.5155,2.2478,20.2732,.1079,.9728,.2157,1.9456,.3236,2.9184,.1683,1.5177,1.1792,2.8277,2.8277,2.8277,1.3981,0,2.997-1.3,2.8277-2.8277h0Z"/><path d="M805.6987,540.5356c-.7493-6.7577-1.4985-13.5155-2.2478-20.2732-.1079-.9728-.2157-1.9456-.3236-2.9184-.1683-1.5177-1.1792-2.8277-2.8277-2.8277-1.3981,0-2.997,1.3-2.8277,2.8277,.7493,6.7577,1.4985,13.5155,2.2478,20.2732,.1079,.9728,.2157,1.9456,.3236,2.9184,.1683,1.5177,1.1792,2.8277,2.8277,2.8277,1.3981,0,2.997-1.3,2.8277-2.8277h0Z"/><path d="M816.588,539.5225c-.7493-6.7577-1.4985-13.5155-2.2478-20.2732-.1079-.9728-.2157-1.9456-.3236-2.9184-.1683-1.5177-1.1792-2.8277-2.8277-2.8277-1.3981,0-2.997,1.3-2.8277,2.8277,.7493,6.7577,1.4985,13.5155,2.2478,20.2732,.1079,.9728,.2157,1.9456,.3236,2.9184,.1683,1.5177,1.1792,2.8277,2.8277,2.8277,1.3981,0,2.997-1.3,2.8277-2.8277h0Z"/><path d="M731.9968,749.3364c-.5399,21.6316,.2167,43.2783,2.0227,64.8386,1.7282,20.6314,4.0299,41.4156,8.0938,61.7285,1.0297,5.1469,1.6773,10.2426,1.8477,15.4905,.1651,5.0878-.0054,10.4383-2.4209,15.0471-2.4036,4.5859-6.4399,6.6441-11.312,7.7827-2.3295,.5444-5.1988,1.1785-7.4214-.0284-.9071-.4926-2.2197-1.6613-1.6821-2.8653,.5509-1.2339,1.3234-.6273,1.7306,.2722,1.5511,3.426-5.2961,6.9298-7.5497,8.1804-3.2677,1.8133-6.7319,3.2122-10.2994,4.3143-7.8967,2.4394-16.1631,3.4723-24.4104,3.5874-8.0121,.1118-16.0465-.6055-23.8846-2.2846-7.0082-1.5013-14.9166-3.3703-19.5303-9.3349-4.5842-5.9265-3.8262-13.5533,.2107-19.5346,2.7251-4.0377,6.9244-6.6734,9.9019-10.4894,2.4854-3.1853,3.928-7.0072,4.5533-10.9785,1.5062-9.5657-.3598-19.6235-1.0631-29.1934-.8027-10.9227-1.422-21.8592-1.8157-32.8044-.7872-21.8871-.6739-43.8161,.6791-65.679,1.3595-21.9694,3.973-43.8681,8.2083-65.4738,4.0128-20.4707,9.1682-41.0369,16.9147-60.4397,7.2499-18.1589,16.5198-35.8076,19.8241-55.2722,2.3889-14.0726,.4126-27.9321-5.4263-40.9167-10.876-24.1863-32.4819-42.6671-38.7378-69.0698-.7322-3.0902-2.5552-8.622-1.2247-11.6346,1.4731-3.3353,6.4017-2.2202,7.6661,.5684,3.0323,6.6872-4.7003,10.4376-9.7137,11.9424-12.0064,3.6038-24.9435,3.2139-37.3491,3.7317-21.54,.8991-43.1017-1.9371-63.6525-8.4592-20.2383-6.423-39.4612-15.6623-59.382-22.9633-17.9235-6.569-36.2696-11.9376-54.4694-17.6707-7.4476-2.346-15.3167-4.5306-23.1941-4.3898-7.855,.1405-14.2162,3.2548-19.5389,8.9994-2.8238,3.0475-5.2331,6.445-7.871,9.6481-1.1356,1.379-2.5556,3.5068-4.6748,2.929-2.5143-.6855-2.2641-3.2913-1.0135-4.9394,1.9832-2.6134-2.2152-5.6039-4.4411-3.4266-2.9593,2.8947-6.3517-.8975-3.9849-4.0113,1.9852-2.6117-2.2153-5.6038-4.4411-3.4266-2.9593,2.8947-6.3517-.8975-3.9849-4.0113,1.986-2.6126-2.2144-5.6011-4.4411-3.4266-2.1821,2.131-5.7511,.4126-4.7562-2.7133,.4361-1.3703,1.861-2.4688,2.7841-3.5397,1.2938-1.5008,2.5741-3.0131,3.8485-4.5304,4.6025-5.4802,9.1127-11.0389,13.8221-16.4285,3.9079-4.4724,7.7754-9.0718,12.8399-12.2743,4.4494-2.8135,9.3659-4.7355,14.4371-6.0956,23.9995-6.437,48.9247-.9323,71.8291,7.0247,27.0424,9.3945,53.3593,21.5407,81.7419,26.4997,13.6718,2.3887,27.0833,2.6801,40.819,.737,14.4778-2.0481,28.7783-5.198,42.9186-8.8931,6.7692-1.7689,13.8612-4.5255,20.9456-4.3216,2.7036,.0778,9.8903,.6914,11.1986,3.596,.2835,.6293,.1638,1.4802-.141,2.1017-.3814,.7779-.179,.1687,.1713,.3-.6335-.2373-.8396-1.5248-1.0184-2.1357-.0362-.1238-.1875-1.5632-.272-2.5123-.3337-3.7487-.6063-7.5026-.9959-11.2462-.3062-2.9427-.4242-6.225-1.4358-9.0346-1.3461-3.7389-4.5226-2.3995-7.6983-2.8344-7.6921-1.0534-13.0322-7.6586-16.0185-14.3407-3.2832-7.3462-4.5104-16.1568-2.88-24.07,2.0583-9.9903,9.8411-17.8091,19.1952-21.5001,10.907-4.3037,25.3984-3.219,31.6338,7.9528,2.7374,4.9045,3.8103,10.5899,4.9645,16.0263,1.0681,5.031,2.2302,10.0494,3.3775,15.0632,1.9591,8.5614,5.453,16.2361,12.8038,21.2449,2.892,1.9706,6.4706,2.8804,9.888,3.3721,7.7091,1.109,15.6017,.1705,23.1927-1.3298,13.7625-2.7201,27.0378-7.6808,39.9066-13.1701,21.4674-9.1571,42.0432-20.373,62.0997-32.2681,4.6058-2.7316,8.9315-5.2436,13.9854-7.0208,3.4124-1.2,6.8909-2.2173,10.4228-3.001,6.2491-1.3868,12.6616-1.9773,19.0546-1.5187,22.6053,1.6216,39.0048,18.2671,44.0748,39.7731,6.5967,27.9821-4.2224,57.528-20.0997,80.3908-11.1228,16.0164-25.4076,29.8154-41.0839,41.3403-9.2797,6.8222-19.2841,12.2032-28.9708,18.3581-9.4477,6.003-17.7923,14.7642-20.7952,25.7918-1.6116,5.9184-.9026,11.8782,.1543,17.8228,.4875,2.742,2.1855,7.1426,1.3092,9.8465-1.0995,3.3927-4.894,1.9723-5.4589-.8273-.6278-3.1116-5.7192-2.4295-5.5543,.7517,.2099,4.051-4.7949,4.6428-5.5971,.6497-.6253-3.1125-5.7191-2.4289-5.5543,.7517,.2099,4.051-4.7949,4.6428-5.5971,.6497-.6254-3.1132-5.7165-2.4285-5.5543,.7517,.1864,3.6545-4.3577,4.7761-5.5278,1.1492-.2042-.633-.1811-1.4411-.2636-2.0976-.4556-3.6252-.9112-7.2505-1.3668-10.8757-1.2304-9.7906-2.4608-19.5811-3.6912-29.3717-.3004-2.3904-.6008-4.7808-.9012-7.1712-.3171-2.5233-2.8166-3.6121-4.8271-1.9995-3.3577,2.6932-8.6262,9.1288-13.1603,6.0373l1.2995,1.6899c-2.639-11.8564,8.042-23.3121,15.8414-30.8783,5.5119-5.347,11.2808-10.4335,16.9243-15.6399,17.1281-15.8012,34.0811-32.0639,48.6675-50.2893,7.4529-9.3122,14.4003-19.1542,19.0473-30.194,1.4099-3.3494-4.0604-4.8125-5.4533-1.5034-5.0965,12.1076-13.4322,22.9059-21.8478,32.8686-9.3921,11.1187-19.601,21.5344-30.0747,31.6305-8.5211,8.214-17.2883,16.1598-25.9888,24.1813-8.5548,7.8872-17.4243,16.4752-21.5413,27.6113-1.4904,4.0315-2.1462,8.5694-1.2293,12.8119,.9225,4.2683,6.7349,5.0872,10.2996,3.8793,4.1278-1.3986,7.8716-5.5245,11.2148-8.2062-1.609-.6665-3.2181-1.333-4.8271-1.9995,2.0758,16.5179,3.8231,33.1112,6.2312,49.5834,.6612,4.5226,4.2474,8.1636,9.0228,7.8998,4.7407-.2619,8.04-4.5513,7.8072-9.1162-1.8514,.2506-3.7029,.5011-5.5543,.7517,2.0528,10.218,17.2442,8.2383,16.7058-2.1531l-5.5543,.7517c2.0528,10.218,17.2442,8.2383,16.7058-2.1531-1.8514,.2506-3.7029,.5011-5.5543,.7517,1.0754,5.3302,7.044,8.7535,12.0758,6.0754,5.837-3.1066,4.5899-9.3395,3.6045-14.7249-1.3483-7.3687-2.5498-14.3518,.3343-21.5253,2.3874-5.9381,6.6461-10.9504,11.5089-15.0289,4.7698-4.0006,10.348-6.7465,15.6659-9.916,5.3066-3.1628,10.4971-6.5214,15.542-10.0874,9.0548-6.4004,17.6775-13.4429,25.6028-21.2033,24.1389-23.6366,43.4314-55.7512,43.6061-90.4194,.1238-24.5618-11.0932-49.5865-34.9645-59.1367-12.3351-4.9349-26.158-4.6842-38.9082-1.5719-3.8792,.9469-7.6892,2.1662-11.4167,3.5961-5.9837,2.2954-11.245,5.7986-16.7632,9.0267-11.7757,6.8887-23.7282,13.4871-35.9326,19.5876-16.2272,8.1113-32.9913,15.5735-50.5112,20.4355-9.1052,2.5268-18.5869,4.5381-28.0792,3.937-.6985-.0442-1.3946-.1079-2.0905-.1824-.8101-.0867-.3499-.0387-.524-.0653-.3315-.0506-.6638-.0995-.9933-.1622-1.1122-.2115-2.2155-.4534-3.2978-.7892-.4365-.1354-.8641-.291-1.2947-.4433-.8817-.3119,.327,.2142-.5865-.2464-.5558-.2802-1.0882-.581-1.6285-.8883-.2111-.1201-.4008-.277-.6009-.4136-.2194-.1498,.6847,.5705,.096,.061-.1435-.1242-.2676-.2823-.4146-.3999-2.6586-2.126-4.7341-4.0507-6.3067-7.1483-2.5081-4.94-3.3686-10.5912-4.5539-15.9485-2.3898-10.8013-3.6786-24.0915-11.8608-32.3182-8.7319-8.7795-23.3412-9.0682-34.2553-4.7274-9.8743,3.9273-18.6567,11.8276-21.9025,22.1525-2.6522,8.4368-2.0516,18.0247,.6314,26.3734,2.5511,7.9384,7.3682,15.9565,14.9812,19.9233,1.6422,.8557,3.4099,1.5496,5.2179,1.9597,.861,.1953,5.8476,1.3359,6.4442,.5028l-1.3832-1.132c-.1127-.2992-.1308-.3389-.0545-.1192-.0571,.119,.2172,.6399,.2214,.7789,.0184,.6162,.2715,1.2974,.3743,1.9089,.316,1.8789,.5021,3.78,.6905,5.6751,.377,3.7927,.6269,7.5968,.9992,11.3897,.3523,3.5881,1.3029,7.8048,5.2692,8.9852,4.7413,1.411,7.6579-3.8469,7.3032-7.8984-.4051-4.6274-5.2015-6.822-9.1291-7.9496-5.4306-1.559-10.8711-1.4532-16.3825-.3266-7.6548,1.5647-15.1579,3.9928-22.7539,5.8326-15.1678,3.6739-30.9951,7.3555-46.6462,7.8721-30.7129,1.0138-60.5263-10.9952-88.7251-21.7199-25.5967-9.7351-52.1659-19.2328-79.9928-16.1329-10.96,1.2209-22.2643,4.0833-31.2885,10.6964-5.3498,3.9204-9.6141,9.1931-13.8986,14.2038-4.9098,5.742-9.6527,11.6243-14.5678,17.3618-3.5597,4.1553-7.7111,8.89-3.811,14.4045,3.1407,4.4408,9.3237,4.344,13.0081,.746-1.4804-1.1422-2.9607-2.2844-4.4411-3.4266-2.7115,3.5671-2.2118,8.662,1.2223,11.5796,3.5216,2.992,8.4549,2.4051,11.6447-.7151-1.4804-1.1422-2.9607-2.2844-4.4411-3.4266-2.7115,3.5671-2.2118,8.662,1.2223,11.5796,3.5216,2.992,8.4549,2.4051,11.6447-.7151-1.4804-1.1422-2.9607-2.2844-4.4411-3.4266-5.594,7.3718,3.312,16.9949,11.1738,12.2211,3.7129-2.2546,6.2693-7.091,8.9924-10.3839,2.9543-3.5724,6.2999-7.2195,10.7735-8.817,7.9945-2.8547,17.3871-.3129,25.2013,1.9656,8.6383,2.5188,17.1394,5.4978,25.768,8.0617,23.0493,6.8488,45.2188,15.6907,67.4726,24.7226,21.8765,8.8789,44.0853,15.5403,67.7423,17.2603,9.5859,.697,19.1189,.3651,28.7074,.0635,7.3094-.2299,14.6173-.5809,21.8634-1.6185,6.4316-.9209,13.5736-2.2817,18.8652-6.3119,5.8339-4.4432,7.6802-13.9601,1.6153-19.1203-6.0722-5.1663-15.7629-1.0597-16.0101,6.9032-.2403,7.7388,2.5576,16.1869,5.4878,23.2405,5.6793,13.6713,14.6956,25.4273,23.0103,37.5492,8.2913,12.0876,16.0301,25.0814,17.8138,39.913,2.413,20.0643-6.0081,39.6449-13.752,57.6648-4.31,10.0293-8.5547,20.049-11.8694,30.4607-3.6551,11.4807-6.759,23.135-9.3672,34.8971-5.1651,23.2923-8.4078,47.0068-10.1648,70.7927-1.8116,24.5243-2.0162,49.1504-1.0945,73.7185,.457,12.1823,1.1911,24.3536,2.1461,36.5068,.7473,9.5104,3.6539,21.9802-1.8324,30.6-2.8069,4.41-7.5578,7.2416-10.63,11.5016-2.3634,3.2772-3.9942,7.0765-4.5258,11.0902-1.0264,7.7494,2.464,15.1241,8.6037,19.8203,6.4805,4.9568,15.3082,6.7108,23.2011,7.9894,8.8332,1.431,17.833,1.9147,26.761,1.2387,8.697-.6585,17.3856-2.3172,25.4553-5.6947,6.273-2.6255,17.8027-7.9738,15.972-16.5346-.74-3.4606-3.8167-6.4636-7.5399-5.8547-3.9159,.6404-6.3583,4.955-5.404,8.7223,2.63,10.383,18.1988,6.9005,24.5311,2.6691,8.8361-5.9045,9.8983-17.0513,9.4471-26.7638-.5302-11.4143-3.5094-22.6419-5.1377-33.9372-3.3748-23.4103-5.6205-47.0016-6.5146-70.6392-.4497-11.8889-.5357-23.7879-.2388-35.6817,.0909-3.6406-5.5645-3.6388-5.6553,0h0Z"/></g><path d="M758.2181,422.5326c24.3553,22.1698,49.1842,44.7181,67.0314,72.6931,8.9878,14.0882,15.5011,29.4221,18.614,45.8772,2.9322,15.4998,2.8003,31.5566,.4958,47.1316-4.7957,32.4119-17.9141,63.0081-32.2355,92.2268-1.6029,3.2703-3.0229,7.1157-5.6245,9.7428-1.4438,1.4579-4.7595,3.0719-6.4725,1.0308-1.9295-2.299,1.6864-5.8331,3.2138-7.2483,2.9071-2.6936,6.2525-5.0045,9.4053-7.4008,13.7891-10.4807,28.013-20.3894,42.6212-29.6945,14.5202-9.2491,29.4202-17.9019,44.6507-25.9279,7.6214-4.0162,15.3063-8.2474,23.2417-11.6149,1.7136-.7272,3.7043-1.467,5.6005-1.2142,1.8143,.2419,3.2717,1.4798,4.5122,2.7293,2.7615,2.7816,5.2243,5.9392,7.6179,9.0372,9.8184,12.7077,17.7485,26.9745,23.3607,42.019,2.3368,6.2642,4.1848,12.6845,5.9943,19.1164,.6648,2.3632,1.288,4.7459,1.6786,7.1719,.1236,.7674,.2085,1.5922,.2389,2.6103,.015,.5022,.0125,1.0045-.0158,1.5063-.0436,.7729,.0172,.448-.1257,1.0909-.2495,1.1229-.2977,1.3435-.726,2.0783-.3535,.6064-.9555,1.2221-1.4006,1.5077-1.8788,1.2058-4.2815,1.5191-6.6782,1.5468-8.5144,.0986-16.5174-3.57-25.1117-2.368-14.5036,2.0284-25.1865,13.7713-35.3962,23.1922-23.1106,21.3254-52.9771,36.4431-84.2937,40.5689-15.3032,2.0161-31.5283,1.7959-46.1762-3.5188-14.3934-5.2223-25.2579-16.1043-32.3962-29.4459-16.6698-31.1564-13.4641-68.1283-5.3501-101.2301,2.0944-8.5445,4.4942-17.0099,6.9698-25.4506,1.0263-3.4994-4.4296-4.994-5.4533-1.5034-10.5227,35.8781-19.6192,73.8253-9.0844,110.8366,4.3791,15.3847,12.046,30.4895,24.3706,41.0209,12.6354,10.797,28.8989,15.2591,45.2537,15.9592,33.3262,1.4267,66.7759-10.6255,93.6845-29.8485,6.7044-4.7895,12.9721-10.0883,18.9771-15.7227,5.5348-5.1931,11.0355-10.5917,17.5383-14.5818,6.6042-4.0524,13.5828-5.7416,21.2784-4.4141,7.4406,1.2835,15.7629,3.8848,23.0879,.6877,10.4795-4.574,6.0838-18.0595,3.6926-26.2894-4.5428-15.6354-10.4153-30.5887-18.8804-44.5546-4.368-7.2065-9.3019-14.0728-14.7059-20.5383-2.648-3.1681-5.3685-6.6556-9.3371-8.1933-4.5214-1.7519-9.1849,.1539-13.2873,2.1022-16.2051,7.6961-32.0469,16.2001-47.5024,25.3042-15.6427,9.2143-30.8863,19.1061-45.673,29.6394-7.3351,5.2252-14.552,10.6135-21.6614,16.1417-3.1518,2.4508-6.4434,4.8822-8.4265,8.4473-1.8487,3.3235-2.1068,7.5379,.6945,10.4447,2.4752,2.5684,6.5454,3.1183,9.8272,1.9655,3.6818-1.2932,6.2074-4.4035,8.0505-7.7158,4.2195-7.5832,7.7489-15.667,11.338-23.5629,7.1202-15.6642,13.572-31.6882,18.3676-48.2284,9.3676-32.3086,11.881-67.0975-.1857-99.0734-12.3793-32.8041-37.5327-59.3131-62.6246-82.9645-6.1293-5.7774-12.3552-11.451-18.5838-17.1207-2.6865-2.4454-6.6973,1.5426-3.9989,3.9989h0Z"/><path d="M358.5023,410.0014c4.5746-5.0322,9.1491-10.0645,13.7237-15.0967,.6573-.7231,1.3146-1.4461,1.9719-2.1692,.9949-1.0945,1.162-2.9323,0-3.9989-1.0845-.9956-2.9363-1.1689-3.9989,0-4.5746,5.0322-9.1491,10.0645-13.7237,15.0967-.6573,.7231-1.3146,1.4461-1.9719,2.1692-.9949,1.0945-1.162,2.9323,0,3.9989,1.0845,.9956,2.9363,1.1689,3.9989,0h0Z"/><path d="M366.4945,417.9972c4.5746-5.0322,9.1491-10.0645,13.7237-15.0967,.6573-.7231,1.3146-1.4461,1.9719-2.1692,.9949-1.0945,1.162-2.9323,0-3.9989-1.0845-.9956-2.9363-1.1689-3.9989,0-4.5746,5.0322-9.1491,10.0645-13.7237,15.0967-.6573,.7231-1.3146,1.4461-1.9719,2.1692-.9949,1.0945-1.162,2.9323,0,3.9989,1.0845,.9956,2.9363,1.1689,3.9989,0h0Z"/><path d="M374.4558,425.4952c4.5746-5.0322,9.1491-10.0645,13.7237-15.0967,.6573-.7231,1.3146-1.4461,1.9719-2.1692,.9949-1.0945,1.162-2.9323,0-3.9989-1.0845-.9956-2.9363-1.1689-3.9989,0-4.5746,5.0322-9.1491,10.0645-13.7237,15.0967-.6573,.7231-1.3146,1.4461-1.9719,2.1692-.9949,1.0945-1.162,2.9323,0,3.9989,1.0845,.9956,2.9363,1.1689,3.9989,0h0Z"/><path d="M658.6189,347.2072c1.6732-.6793,3.1905-1.6315,4.4454-2.9445,1.2507-1.3085,2.1755-2.8501,2.7787-4.5529,.3297-.9308-.3729-2.104-1.3166-2.3189-1.056-.2405-1.9659,.3201-2.3189,1.3166-.0723,.2042-.1502,.4057-.2339,.6055l.19-.4503c-.2566,.5967-.565,1.1689-.9274,1.7082-.0863,.1284-.178,.2526-.2671,.379-.2067,.2933,.2963-.3648,.0692-.087-.0489,.0598-.0969,.1205-.1462,.18-.2074,.2498-.4263,.49-.6556,.7199-.2184,.2189-.4464,.4282-.6832,.627-.0711,.0597-.1432,.1178-.2154,.1761-.2394,.1936,.307-.2286,.1245-.0967-.1253,.0905-.2496,.1821-.3775,.269-.5503,.374-1.1355,.6911-1.7469,.9529l.4503-.19c-.057,.0241-.1142,.0476-.1716,.0706-.4734,.1922-.8584,.4081-1.1266,.8663-.2365,.4041-.3366,.9996-.19,1.4526,.1476,.4561,.4303,.8962,.8663,1.1266,.4182,.2209,.9932,.3765,1.4526,.19h0Z"/><path d="M385.8591,370.2334c-.6974,1.7137-1.3949,3.4275-2.0923,5.1412-.6894,1.694-1.5731,3.41-2.0605,5.1789-1.2544,4.5529,1.295,9.2061,5.6062,10.9091,4.191,1.6555,9.3047-.37,11.2669-4.4166,1.1867-2.4473,1.6278-4.2411,2.8373-6.5858,.4946-.9589,1.0553-1.8608,1.6421-2.7636,.4248-.6535-.3629,.3823,.1282-.1749,.1438-.1632,.2812-.3292,.4325-.4858,.1394-.1443,.2955-.2713,.4353-.414-.5061,.5167-.0593,.0539,.1563-.0691,1.3259-.7558,1.7793-2.561,1.0144-3.8688-.7799-1.3334-2.5373-1.7735-3.8688-1.0144-3.2018,1.8253-4.9301,5.8998-6.3054,9.1296-.434,1.0192-.854,2.0438-1.2477,3.0793,.0157-.0413-.3168,.7934-.1503,.4131,.159-.3633-.2041,.3734-.1915,.3514-.0841,.1464-.176,.2842-.2669,.4259,.3107-.4847-.2516,.2741-.3542,.374-.1173,.1142-.2402,.2221-.3648,.3281,.4138-.3523,.003-.0204-.1215,.0571-.1733,.1079-.3515,.2029-.5321,.2979-.4785,.2515-.1048,.0348,.0013,.0011-.2347,.0744-.4694,.1378-.7056,.2062-.498,.1442-.1144,.0367,.0216,.0214-.2478,.0279-.4984,.0382-.7476,.0349-.1477-.002-.8582-.114-.2603,.0047-.332-.0659-.6502-.1519-.9736-.2537-.5136-.1617-.1012-.0477,.0015,.006-.2125-.1112-.4161-.2319-.6251-.3488-.4342-.2427-.1034-.052-.0007,.0297-.1821-.145-.3545-.3042-.5177-.47-.1088-.1105-.2089-.2273-.3129-.3423,.4256,.471-.0799-.137-.161-.2727-.0985-.1649-.1751-.3431-.2736-.5071,.261,.4348,.0693,.2027,.0204,.0362-.1094-.3725-.2238-.737-.2811-1.1226,.1041,.7005,.0398-.4481,.046-.6551,.0212-.7125-.1891,.4848,.0452-.1997,.0798-.2332,.1272-.477,.2111-.7104,.551-1.5332,1.228-3.0304,1.8419-4.539,.7201-1.7694,1.4402-3.5388,2.1603-5.3083,.5591-1.3739-.6063-3.1666-1.975-3.4784-1.6413-.3738-2.8796,.5037-3.4784,1.975h0Z"/><g><path d="M688.8289,253.1354c-1.3239-11.0277,.8053-22.7334,7.3678-31.6943,6.5625-8.9608,17.8975-14.6832,28.8884-13.0823,12.2746,1.7878,21.7722,11.8448,27.8789,22.6416,3.4995,6.1872,6.275,12.8554,10.7582,18.3715,4.4833,5.5161,11.2401,9.8531,18.3092,9.1073-.4998,1.7537-.6345,3.5952-1.1322,5.3495-2.1398,7.5413-10.683,11.7727-18.5192,11.5629-4.9959-.1338-31.8453-6.3963-33.084-11.2132-.6843-2.6611,2.5704-5.7492,4.7859-4.124,.5434,.3986,.9158,.9858,1.2323,1.5808,4.2151,7.9217,.1788,17.6819-4.8593,25.1074-1.577,2.3243-3.302,4.627-5.6309,6.1972-2.3288,1.5703-5.3865,2.307-7.9967,1.2699"/><path d="M691.6566,253.1354c-1.095-9.4321,.2082-19.3018,5.1661-27.535,4.5307-7.5237,12.2938-13.166,21.067-14.4516,8.5263-1.2494,16.6049,2.5245,22.7034,8.2938,3.2046,3.0316,5.9337,6.4972,8.2815,10.2252,2.6652,4.232,4.7622,8.7815,7.18,13.1525,5.2358,9.4654,13.9925,19.5931,25.9768,18.4866-.9089-1.1931-1.8178-2.3862-2.7267-3.5794-.5781,2.1607-.7569,4.8678-1.6173,6.7157-.8104,1.7405-1.8224,2.9618-3.2972,4.2258-2.5724,2.2047-6.4482,3.5762-9.7828,3.8363-1.1758,.0917-2.3259,.0704-3.4947-.0464-.6934-.0693,.4802,.0805,.0078,.0034-.2205-.036-.4424-.0647-.6632-.0993-.5652-.0884-1.129-.1861-1.6917-.2889-2.8332-.5175-5.6451-1.158-8.4372-1.8628-3.1578-.7971-6.2965-1.6838-9.3852-2.7186-1.3818-.4629-2.7478-.9652-4.1026-1.5019-.1479-.0586-.2949-.12-.4418-.1811,.528,.2194,.1411,.0602,.0324,.0122-.3065-.1352-.6131-.2701-.9169-.4114-.556-.2587-1.1061-.5309-1.6432-.8272-.4399-.2427-.8649-.505-1.2843-.7812-.2922-.1925-.5079-.5716-.0455-.0149-.1322-.1591-.3496-.3166-.5064-.4536-.2021-.1767-.4765-.6596,.0549,.1233-.0771-.1135-.1661-.2272-.2187-.355l.2074,.4996-.0307-.0875c-.2305-.1306,.148,.0142-.0134,.0682,.01-.0034,.0476-.4162,.1475-.5896,.1522-.2642,.188-.2819,.5322-.582-.0833,.0727,.256,.0052,.1676-.0059-.1184-.0149-.4908-.0048-.458-.0657-.0163,.0302,.7925,1.4021,.8252,1.478,.846,1.9646,1.0856,4.0798,.9707,6.1982-.2743,5.0595-2.7298,9.911-5.4146,14.0995-2.3393,3.6494-6.1419,9.2109-11.226,7.3684-1.4359-.5204-3.0965,.5853-3.4784,1.975-.432,1.5722,.5339,2.9561,1.975,3.4784,6.3447,2.2994,12.0499-2.2398,15.6033-7.0385,3.3329-4.5009,6.1941-9.688,7.5001-15.1675,.7049-2.9576,.9177-5.9757,.4476-8.9837-.4151-2.6559-1.4426-5.8885-3.5453-7.6916-4.6504-3.9879-11.5065,2.268-9.2775,7.4754,1.0253,2.3953,3.7081,3.7728,5.9547,4.8092,3.3021,1.5234,6.7617,2.6932,10.2434,3.7292,3.5262,1.0492,7.096,1.9601,10.6912,2.7404,2.6854,.5828,5.4315,1.176,8.1773,1.3815,4.897,.3664,10.2744-1.1366,14.3392-3.8629,2.3346-1.5659,4.3903-3.5683,5.819-6.0051,1.6768-2.8598,1.8921-5.9622,2.7295-9.0918,.4383-1.638-.8552-3.7521-2.7267-3.5794-10.2431,.9457-17.0612-8.2873-21.4077-16.2583-2.4391-4.4731-4.5963-9.1027-7.3784-13.3813-2.6159-4.023-5.6583-7.8402-9.2063-11.0825-6.9894-6.387-16.1475-10.5908-25.7747-9.4878-9.919,1.1365-18.8059,6.6927-24.6297,14.7388-6.7836,9.3721-8.9491,21.6213-7.6333,32.9549,.1761,1.5168,1.1736,2.8277,2.8277,2.8277,1.3917,0,3.0049-1.3007,2.8277-2.8277h0Z"/></g></g><path d="M344.6094,467.3588c1.681-2.8017,3.3621-5.6034,5.0431-8.4052,.7618-1.2696,.325-3.1611-1.0144-3.8688-1.3684-.723-3.0556-.3409-3.8688,1.0144-1.681,2.8017-3.3621,5.6034-5.0431,8.4052-.7618,1.2696-.325,3.1611,1.0144,3.8688,1.3684,.723,3.0556,.3409,3.8688-1.0144h0Z" style="fill:#6966ed;"/><path d="M371.3807,466.6833c.2802,1.4009,.5603,2.8017,.8405,4.2026,.0875,.368,.2562,.6885,.5061,.9616,.1994,.3078,.4638,.5506,.7934,.7283,.3246,.2066,.675,.3185,1.0513,.3356,.3759,.0842,.7517,.0673,1.1276-.0505,.6842-.2214,1.3443-.6454,1.6899-1.2995l.2851-.6755c.1347-.5011,.1347-1.0023,0-1.5034-.2802-1.4009-.5603-2.8017-.8405-4.2026-.0875-.368-.2562-.6885-.5061-.9616-.1994-.3078-.4638-.5506-.7934-.7283-.3246-.2066-.675-.3185-1.0513-.3356-.3759-.0842-.7517-.0673-1.1276,.0505-.6842,.2214-1.3443,.6454-1.6899,1.2995l-.2851,.6755c-.1347,.5011-.1347,1.0023,0,1.5034h0Z" style="fill:#6966ed;"/><path d="M392.9318,452.2768c3.0964,1.938,6.1929,3.8759,9.2893,5.8139,1.2557,.7859,3.1702,.3077,3.8688-1.0144,.7342-1.3896,.3259-3.0299-1.0144-3.8688-3.0964-1.938-6.1929-3.8759-9.2893-5.8139-1.2557-.7859-3.1702-.3077-3.8688,1.0144-.7342,1.3896-.3259,3.0299,1.0144,3.8688h0Z" style="fill:#6966ed;"/><path d="M142.1939,586.4458c3.6389,0,3.645-5.6553,0-5.6553-3.6389,0-3.645,5.6553,0,5.6553h0Z" style="fill:#6966ed;"/><path d="M166.7003,586.4458c3.6389,0,3.645-5.6553,0-5.6553-3.6389,0-3.645,5.6553,0,5.6553h0Z" style="fill:#6966ed;"/><path d="M191.2067,586.4458c3.6389,0,3.645-5.6553,0-5.6553-3.6389,0-3.645,5.6553,0,5.6553h0Z" style="fill:#6966ed;"/><path d="M215.7131,586.4458c3.6389,0,3.645-5.6553,0-5.6553-3.6389,0-3.645,5.6553,0,5.6553h0Z" style="fill:#6966ed;"/><path d="M240.2195,586.4458c3.6389,0,3.645-5.6553,0-5.6553-3.6389,0-3.645,5.6553,0,5.6553h0Z" style="fill:#6966ed;"/><path d="M264.7259,586.4458c3.6389,0,3.645-5.6553,0-5.6553-3.6389,0-3.645,5.6553,0,5.6553h0Z" style="fill:#6966ed;"/><path d="M289.2323,586.4458c3.6389,0,3.645-5.6553,0-5.6553-3.6389,0-3.645,5.6553,0,5.6553h0Z" style="fill:#6966ed;"/><path d="M313.7387,586.4458c3.6389,0,3.645-5.6553,0-5.6553-3.6389,0-3.645,5.6553,0,5.6553h0Z" style="fill:#6966ed;"/><path d="M338.2451,586.4458c3.6389,0,3.645-5.6553,0-5.6553-3.6389,0-3.645,5.6553,0,5.6553h0Z" style="fill:#6966ed;"/><path d="M362.7515,586.4458c3.6389,0,3.645-5.6553,0-5.6553-3.6389,0-3.645,5.6553,0,5.6553h0Z" style="fill:#6966ed;"/><path d="M70.3097,579.2393c-.9712,9.9599-5.7779,19.3388-13.0747,26.1388-1.3467,1.255-.9484,3.5404,.5723,4.4411,11.7802,6.9769,18.922,21.3579,17.0741,34.8462-.3872,2.8262,2.4216,4.6288,4.7261,2.7512,4.9069-3.9981,10.5944-8.6889,17.2366-8.8962,5.6605-.1766,11.0705,3.1167,13.6718,8.2328,.9289,1.8269,3.9652,1.8637,4.8832,0,2.6858-5.4526,8.4435-8.4987,14.3635-7.8821,1.5212,.1584,2.8277-1.413,2.8277-2.8277,0-1.6607-1.3021-2.6688-2.8277-2.8277-7.7744-.8098-15.7994,3.6846-19.2467,10.683h4.8832c-3.3882-6.6636-10.7137-11.104-18.1917-11.0409-8.4339,.0712-15.3718,5.4861-21.5988,10.5598,1.5754,.9171,3.1507,1.8341,4.7261,2.7512,2.215-16.1673-5.5499-32.8682-19.673-41.2328,.1908,1.4804,.3815,2.9607,.5723,4.4411,8.4432-7.8685,13.6142-18.6841,14.7311-30.1378,.1484-1.5221-1.4059-2.8277-2.8277-2.8277-1.6526,0-2.6788,1.3012-2.8277,2.8277h0Z" style="fill:#f953b2;"/></svg>