<?xml version="1.0" encoding="UTF-8"?><svg id="Layer_2" xmlns="http://www.w3.org/2000/svg" width="1000" height="1000" viewBox="0 0 1000 1000"><path d="M953.6483,586.151c2.7091-35.7833-21.8673-68.9695-56.0479-78.575,4.55,5.9761,9.1,11.9523,13.6499,17.9284-1.3385-10.3869-3.7459-19.6759-8.6182-29.0477-3.948-7.5941-9.5117-14.7609-15.921-20.4427-14.4128-12.7767-32.9878-20.2428-52.3698-19.9686-18.8297,.2664-36.5674,7.5542-50.6035,19.9768-14.1666,12.5382-22.1828,30.196-24.4298,48.7313-2.7923,23.0336,6.3658,46.7296,22.9178,62.7797,1.2543-9.7337,2.5086-19.4674,3.7629-29.2011-16.689,11.4522-29.6388,28.7225-33.2158,48.9739-3.3341,18.8761-.5712,38.4093,9.6321,54.8768,9.7757,15.7774,24.8488,27.4662,42.4921,33.1599,18.7259,6.0431,38.8457,3.762,56.4766-4.4327,19.2626-8.953,33.5328-27.027,39.6658-47.1158-5.9761,4.55-11.9523,9.1-17.9284,13.6499,18.3321-1.9469,35.279-8.9952,48.4446-22.1995,13.2824-13.3213,20.3742-30.5484,22.0925-49.0937,.8999-9.7126-9.1942-19.0135-18.5926-18.5926-10.8425,.4856-17.6286,8.1882-18.5926,18.5926-.054,.5829-.4698,3.9881,.003,.4588,.4551-3.3976,.0227-.3646-.123,.4139-.2947,1.5746-.6527,3.138-1.0762,4.683-.418,1.525-.8992,3.0335-1.4416,4.5188-.2635,.7215-1.397,3.4692-.1026,.4018,1.2923-3.0624,.1224-.3504-.2105,.3417-1.34,2.7862-2.9073,5.4625-4.6753,7.9986-.4343,.623-2.1988,2.9426-.1881,.342,2.08-2.6903,.0918-.1686-.2779,.2666-.9903,1.1657-2.0292,2.2918-3.1091,3.3749-1.0788,1.0819-2.2007,2.1217-3.3613,3.1154-.4583,.3923-.9828,.7469-1.4112,1.1702,3.626-3.5824,2.1988-1.6645,.8326-.7024-2.3801,1.6759-4.8865,3.171-7.4908,4.4711-.6788,.3389-1.4316,.6024-2.0829,.9904,4.2083-2.5077,2.9462-1.2041,1.4521-.6298-1.447,.5562-2.9151,1.0536-4.4023,1.4912-1.4986,.441-3.0135,.8204-4.543,1.1379-.7703,.1599-1.5462,.2844-2.3182,.4337-3.2795,.634,4.738-.5479,1.1742-.1694-8.4711,.8997-15.3446,5.1866-17.9284,13.6499-.518,1.6967-1.1188,3.3494-1.7407,5.0096-.8542,2.2803,2.1352-4.4972,.5444-1.3714-.3595,.7064-.6896,1.4271-1.0558,2.1306-.8011,1.5391-1.6697,3.0418-2.6065,4.5024-.3391,.5287-.6876,1.052-1.0433,1.5695-.3557,.5166-.7196,1.0272-1.0919,1.532,1.8747-2.3844,2.3661-3.0189,1.4742-1.9035-2.1119,2.5236-4.3009,4.9288-6.768,7.1137-.4667,.4133-.9528,.8044-1.4187,1.2182-2.6833,2.3831,3.7447-2.6803,.8113-.6103-1.5319,1.081-3.0774,2.1302-4.6949,3.0815-1.3488,.7933-2.7283,1.5355-4.137,2.2169-.5399,.2612-1.183,.4884-1.7074,.7936,4.5594-2.6527,2.5161-1.0325,.943-.4525-3.3066,1.2192-6.6801,2.0127-10.1252,2.7141-3.5087,.7144,4.0799-.4094,1.5887-.1903-.8096,.0712-1.6159,.1657-2.4273,.222-1.6394,.1137-3.2836,.1558-4.9267,.1312-1.6605-.0248-3.3081-.1504-4.9613-.289-3.7146-.3116,4.7909,.8243,1.1466,.1561-.9325-.171-1.8621-.3358-2.7888-.5372-3.0608-.6652-5.8967-1.8898-8.8945-2.7082,5.0818,1.3874,2.619,1.1449,1.0743,.4168-.6881-.3244-1.3684-.6638-2.0431-1.0152-1.4767-.7691-2.9201-1.6005-4.3246-2.4948-.7968-.5073-5.3857-3.8611-2.5409-1.6713,2.7145,2.0896,.2743,.1717-.2158-.2472-.5696-.4868-1.1281-.9857-1.6783-1.4941-1.209-1.1173-2.3711-2.284-3.4811-3.4999-.4032-.4416-.7999-.8899-1.1892-1.3437-3.096-3.6087,1.9138,2.8335,.12,.2487-1.7164-2.4733-3.3457-4.9576-4.7304-7.6364-.8135-1.5738-2.2286-6.4289-.386-.485-.5374-1.7335-1.2792-3.4028-1.7973-5.1497-.4344-1.4646-.8105-2.9469-1.1267-4.4414-.1593-.7527-.3014-1.5084-.4303-2.2668-.2789-1.6416,.1161-3.5177,.2087,1.7246-.0616-3.4869-.4633-6.898-.2258-10.4043,.0579-.8555,.1593-1.7058,.232-2.5596,.1686-1.4792,.0645-.7083-.3122,2.3127,.1095-.6932,.2315-1.3841,.366-2.0728,.3984-2.0392,.9053-4.0594,1.5232-6.0432,.2037-.6539,.4182-1.3054,.6447-1.9519,.5351-1.5276,2.8089-5.2929,.0231-.2902,.9818-1.7631,1.7611-3.6298,2.7897-5.3768,.9535-1.6192,1.9523-3.7301,3.3123-5.0174-.111,.105-3.0291,3.6541-1.0674,1.3992,.8732-1.0037,1.7193-2.0231,2.6327-2.992,1.2515-1.3276,2.5661-2.5939,3.9366-3.7981,.6068-.5332,1.3563-1.0129,1.9007-1.6024-2.4668,1.8733-2.9309,2.2383-1.3923,1.0951,.5374-.3894,1.0812-.7694,1.6315-1.1402,4.9426-3.3917,8.0689-7.5726,8.8765-13.5828,.7697-5.7283-.8647-11.4982-5.1136-15.6183-1.2658-1.2274-2.4955-2.4865-3.6574-3.8134-1.1031-1.2599-2.0868-3.7314,.2405,.4846-.4134-.7488-1.0551-1.4364-1.5421-2.1463-2.1326-3.1091-3.4665-6.5365-5.385-9.7303,2.5591,4.2602,.8647,2.0268,.322,.4623-.2342-.6752-.4574-1.3553-.6669-2.0386-.5805-1.8934-1.06-3.8157-1.4417-5.7588-.1709-.8703-.212-1.8386-.4637-2.6829,1.3289,4.4574,.3723,2.8659,.2333,1.1238-.1625-2.0366-.219-4.0802-.1657-6.1228,.0463-1.7744,.3397-3.5446,.3805-5.3117-.1296,5.6051-.3999,2.8178-.096,1.1682,.1427-.7743,.3028-1.5447,.4768-2.3125,.3447-1.5205,.7503-3.025,1.2172-4.5126,.2313-.7371,.4755-1.4696,.7364-2.1968,.2077-.5789,.4245-1.1543,.6507-1.7262-.3904,.9144-.7808,1.8289-1.1712,2.7433,.8115-2.8834,2.9013-5.9323,4.5103-8.4164,.4096-.6323,.8298-1.2571,1.2638-1.873,.3695-.5243,2.2546-3.0073,.1615-.2883-2.0896,2.7145-.1717,.2743,.2472-.2158,.584-.6832,1.184-1.3529,1.799-2.0083,1.1265-1.2003,2.3045-2.3507,3.5286-3.451,.5563-.5001,1.1345-.9739,1.6955-1.4682,2.521-2.2218-3.2515,2.2659-1.2941,.9668,2.6411-1.7529,5.1689-3.5367,7.9964-4.9982,.8027-.4149,1.6227-.7888,2.4335-1.1865,3.0464-1.4945-3.7892,1.3609-1.5267,.6343,1.4415-.4629,2.8398-1.0548,4.2917-1.498,1.4606-.4459,2.9371-.833,4.4286-1.161,.7505-.1651,1.5033-.3168,2.2599-.4516,.608-.1083,1.2175-.2069,1.8286-.2955-1.0324,.1423-2.0648,.2845-3.0971,.4268,2.4129-1.098,7.3317-.4087,9.9238-.2544,.8133,.0484,1.6224,.1342,2.4346,.1937,3.6321,.2661-3.9853-.6794-1.5197-.2134,1.9139,.3617,3.8143,.7128,5.6987,1.2152,1.5423,.4112,3.0655,.8858,4.5683,1.4238,.7401,.265,1.4692,.613,2.2183,.8443-4.869-1.5032-2.8147-1.2061-1.4174-.5436,3.0981,1.4689,6.06,3.2135,8.8481,5.2093,1.2904,.9237,2.3151,2.4964-1.1746-.9446,.6523,.6432,1.4345,1.1827,2.1229,1.793,1.3841,1.2269,2.7081,2.5208,3.97,3.8731,.6303,.6755,1.2436,1.3671,1.8405,2.0722,1.0057,1.1882,2.1697,3.7534-.6105-.868,.9489,1.5772,2.1359,3.0234,3.0921,4.6063,.9591,1.5877,1.844,3.2221,2.645,4.8951,.2603,.5437,.4841,1.1592,.7778,1.6905-2.8465-5.1499-.72-1.6927-.1664-.0975,.6168,1.7772,1.1464,3.5846,1.5859,5.4137,.4053,1.6866,1.3846,8.3697,.5136,1.6111,.549,4.2601,1.2731,7.7463,3.992,11.2655,2.466,3.1919,5.6956,5.5495,9.6579,6.663,1.542,.4333,3.0704,.9031,4.5757,1.4521,.5314,.1938,3.5969,1.449,.4342,.113-3.0516-1.2891-.3157-.1077,.3727,.2233,2.8188,1.3555,5.5278,2.9425,8.0895,4.7371,.6183,.4332,2.9603,2.2126,.365,.2118-2.6826-2.0681-.1413-.063,.2877,.3034,1.1768,1.0052,2.312,2.0604,3.4047,3.1563,1.0914,1.0946,2.1376,2.2354,3.1383,3.4134,.4896,.5763,2.2979,2.8798,.2892,.287-2.0774-2.6817-.1277-.1055,.1961,.3599,1.7707,2.5449,3.3382,5.2329,4.6794,8.0281,.269,.5606,.5025,1.1413,.7807,1.6969-2.5382-5.0687-.9723-2.3259-.4759-.9658,.4844,1.3271,.918,2.6724,1.3032,4.0315,.4314,1.522,.7995,3.0604,1.1037,4.6128,.1518,.7749,.2175,1.589,.4125,2.3534-1.2942-5.0734-.4027-3.184-.2544-1.599,.321,3.4321,.3056,6.8679,.0456,10.3031-.736,9.721,9.0774,19.0188,18.5926,18.5926,10.7026-.4794,17.8042-8.1794,18.5926-18.5926Z" style="fill:#f953b2;"/><g><path d="M331.8807,215.4147c2.2163,6.6515,11.9604,.0607,6.5719-4.7697-3.6787-3.2977-7.9763,.5409-6.5719,4.7697Z"/><path d="M329.8886,215.9639c.4277,1.2583,1.0862,2.3864,2.1473,3.2062,.9244,.7142,2.0127,1.0859,3.1819,1.1246,1.9684,.0652,4.0686-.9537,5.3137-2.4652,.6796-.825,1.2628-1.7685,1.4576-2.8375,.2395-1.3146,.0756-2.5243-.486-3.7349-.5721-1.2333-1.6706-2.299-2.815-3.0029-1.3752-.8458-3.0882-1.1504-4.6545-.7168-1.5746,.4359-2.9755,1.5978-3.7109,3.0562-.8392,1.6643-1.0087,3.5893-.4341,5.3704,.3312,1.0268,1.4475,1.7968,2.5412,1.4429,1.0274-.3325,1.7981-1.4399,1.4429-2.5412-.1057-.3276-.183-.6594-.2304-1.0004l.0738,.5492c-.0527-.4354-.0535-.868,.0015-1.3032l-.0738,.5492c.059-.409,.1648-.8028,.3213-1.1854l-.2083,.4935c.1561-.3636,.3519-.7013,.5924-1.0156l-.323,.4181c.2223-.2801,.4719-.5295,.7545-.7489l-.4181,.323c.2614-.1951,.5396-.3571,.8394-.4856l-.4935,.2083c.28-.1133,.5668-.1927,.8654-.2388l-.5492,.0738c.3361-.0445,.6697-.0437,1.0059-.0001l-.5492-.0738c.3332,.0506,.6525,.141,.9649,.2671l-.4935-.2083c.4087,.1747,.783,.4023,1.1358,.6722l-.4181-.323c.3848,.3053,.7357,.647,1.0406,1.0324l-.323-.4181c.239,.3107,.4416,.6428,.5966,1.0032l-.2083-.4935c.1256,.3052,.2132,.6204,.258,.9475l-.0738-.5492c.0373,.3084,.0357,.6165-.0041,.9246l.0738-.5492c-.0488,.3379-.1415,.6637-.273,.9786l.2083-.4935c-.1514,.3496-.3458,.6749-.5763,.978l.323-.4181c-.2715,.3488-.5843,.6591-.9321,.9317l.4181-.323c-.3648,.2799-.7597,.513-1.1824,.6941l.4935-.2083c-.3816,.1587-.7774,.2716-1.1868,.329l.5492-.0738c-.3298,.042-.6601,.0467-.9905,.0072l.5492,.0738c-.2935-.0394-.5777-.1131-.8523-.224l.4935,.2083c-.2656-.1123-.5119-.256-.7413-.4305l.4181,.323c-.2458-.1936-.4616-.4157-.6535-.6627l.323,.4181c-.2431-.3232-.4365-.6747-.5949-1.0464l.2083,.4935c-.0574-.1398-.11-.2809-.1587-.424-.347-1.021-1.4361-1.8005-2.5412-1.4429-1.0138,.3281-1.8152,1.4457-1.4429,2.5412Z"/></g><g><path d="M295.3841,204.3969c2.2163,6.6515,11.9604,.0607,6.5719-4.7697-3.6787-3.2977-7.9763,.5409-6.5719,4.7697Z"/><path d="M293.3921,204.946c.4277,1.2583,1.0862,2.3864,2.1473,3.2062,.9244,.7142,2.0127,1.0859,3.1819,1.1246,1.9684,.0652,4.0686-.9537,5.3137-2.4652,.6796-.825,1.2628-1.7685,1.4576-2.8375,.2395-1.3146,.0756-2.5243-.486-3.7349-.5721-1.2333-1.6706-2.299-2.815-3.0029-1.3752-.8458-3.0882-1.1504-4.6545-.7168-1.5746,.4359-2.9755,1.5978-3.7109,3.0562-.8392,1.6643-1.0087,3.5893-.4341,5.3704,.3312,1.0268,1.4475,1.7968,2.5412,1.4429,1.0274-.3325,1.7981-1.4399,1.4429-2.5412-.1057-.3276-.183-.6594-.2304-1.0004l.0738,.5492c-.0527-.4354-.0535-.868,.0015-1.3032l-.0738,.5492c.059-.409,.1648-.8028,.3213-1.1854l-.2083,.4935c.1561-.3636,.3519-.7013,.5924-1.0156l-.323,.4181c.2223-.2801,.4719-.5295,.7545-.7489l-.4181,.323c.2614-.1951,.5396-.3571,.8394-.4856l-.4935,.2083c.28-.1133,.5668-.1927,.8654-.2388l-.5492,.0738c.3361-.0445,.6697-.0437,1.0059-.0001l-.5492-.0738c.3332,.0506,.6525,.141,.9649,.2671l-.4935-.2083c.4087,.1747,.783,.4023,1.1358,.6722l-.4181-.323c.3848,.3053,.7357,.647,1.0406,1.0324l-.323-.4181c.239,.3107,.4416,.6428,.5966,1.0032l-.2083-.4935c.1256,.3052,.2132,.6204,.258,.9475l-.0738-.5492c.0373,.3084,.0357,.6165-.0041,.9246l.0738-.5492c-.0488,.3379-.1415,.6637-.273,.9786l.2083-.4935c-.1514,.3496-.3458,.6749-.5763,.978l.323-.4181c-.2715,.3488-.5843,.6591-.9321,.9317l.4181-.323c-.3648,.2799-.7597,.513-1.1824,.6941l.4935-.2083c-.3816,.1587-.7774,.2716-1.1868,.329l.5492-.0738c-.3298,.042-.6601,.0467-.9905,.0072l.5492,.0738c-.2935-.0394-.5777-.1131-.8523-.224l.4935,.2083c-.2656-.1123-.5119-.256-.7413-.4305l.4181,.323c-.2458-.1936-.4616-.4157-.6535-.6627l.323,.4181c-.2431-.3232-.4365-.6747-.5949-1.0464l.2083,.4935c-.0574-.1398-.11-.2809-.1587-.424-.347-1.021-1.4361-1.8005-2.5412-1.4429-1.0138,.3281-1.8152,1.4457-1.4429,2.5412Z"/></g><path d="M522.2899,899.6198H246.658c-19.2194,0-35.5444-15.3053-38.3862-35.9884L127.6839,277.1002c-3.5075-25.528,14.6649-48.4777,38.3862-48.4777H441.7019c19.2194,0,35.5444,15.3053,38.3862,35.9884l80.588,586.5313c3.5075,25.528-14.6649,48.4777-38.3862,48.4777Z" style="fill:#ef8e3f;"/><path d="M566.4782,899.6198H290.8463c-19.2194,0-35.5444-15.3053-38.3862-35.9884L171.8722,277.1002c-3.5075-25.528,14.6649-48.4777,38.3862-48.4777H485.8902c19.2194,0,35.5444,15.3053,38.3862,35.9884l80.588,586.5313c3.5075,25.528-14.6649,48.4777-38.3862,48.4777Z" style="fill:#f4d13b;"/><g><path d="M332.803,586.6139c11.164,46.8401,58.1968,75.7557,105.0367,64.5668,46.9351-11.2116,75.5282-58.8534,64.3402-105.7941l-16.634-69.7903c-2.5744-10.8011-13.4173-17.4702-24.2184-14.8958l-130.456,31.0933c-10.8011,2.5744-17.4702,13.4173-14.8958,24.2184l16.8274,70.6017Z" style="fill:#fff;"/><path d="M461.4981,479.2743c-3.6433-15.286-7.2866-30.5721-10.93-45.8581-1.5379-6.4527-3.0455-12.9134-4.614-19.3588-3.5294-14.5028-11.7943-26.8298-23.6333-35.8367-13.1248-9.9851-29.9377-13.5694-46.1033-11.3767-16.2673,2.2065-30.6873,11.5695-40.5163,24.4891-9.9857,13.1255-13.5696,29.9367-11.3767,46.1033,.8083,5.9589,2.5703,11.873,3.9616,17.7103,4.108,17.2356,8.0275,34.5283,12.3264,51.7173,.0962,.3845,.1838,.7713,.2757,1.1568,1.3399,5.6217,7.5669,9.8292,13.309,8.1858,5.7608-1.6487,9.6219-7.2838,8.1858-13.309-3.4431-14.446-6.8862-28.892-10.3293-43.338-1.6518-6.9305-3.3037-13.861-4.9555-20.7915-.1123-.4711-.2278-.9416-.3369-1.4135-.2903-1.255-.5495-2.5148-.7542-3.7868-.0665-.4133-.4086-3.0135-.2309-1.4498,.171,1.5046-.0704-1.3484-.0886-1.8531-.0597-1.6466-.038-3.2967,.0623-4.9413,.0497-.8149,.1202-1.6292,.2098-2.4407,.044-.3984,.1336-.8111,.1502-1.2109,.0622-1.4998-.4225,1.8826-.0885,.4234,.7532-3.2901,1.5269-6.4966,2.7828-9.6431,.4207-1.054,.9834-1.9881,.116-.3564,.3746-.7047,.7007-1.4358,1.0761-2.141,.8127-1.5269,1.7041-3.0118,2.6669-4.4487,.445-.664,.9154-1.3079,1.3796-1.9582,.232-.3251,.4928-.6296,.7229-.9558-.0391,.0555-1.3536,1.5337-.5166,.6459,1.193-1.2653,2.297-2.5956,3.5499-3.8084,1.157-1.1199,2.3679-2.1857,3.626-3.1907,.3152-.2518,.6474-.4868,.9576-.7444,.9795-.8134-.6634,.4873-.6729,.5001,.4687-.6317,1.7128-1.1514,2.3816-1.5649,1.3976-.864,2.8363-1.6592,4.3113-2.3831,.7449-.3656,1.4982-.7126,2.2601-1.0411,.1169-.0504,1.136-.388,1.1543-.4829-.0525,.2722-2.1554,.7502-.4063,.1827,3.2722-1.0615,6.5311-1.8382,9.93-2.3667,2.1722-.3378-1.7932,.0689,.3874-.0443,.8299-.0431,1.658-.0942,2.4891-.1107,1.7802-.0354,3.5621,.0249,5.336,.1774,.8056,.0693,1.6231,.2346,2.4287,.2681,1.2386,.0514-.7622-.1568-.8214-.1618,.3919,.0328,.8076,.144,1.1921,.2261,1.709,.3653,3.4017,.7729,5.0716,1.2917,1.5344,.4766,3.0245,1.0526,4.5183,1.6408,1.9412,.7644-1.5102-.8087,.3349,.1612,.8253,.4338,1.6584,.8474,2.4714,1.3048,1.3918,.783,2.7461,1.6306,4.0587,2.5401,.6539,.4531,1.2715,.9771,1.9369,1.4102,1.0148,.6605-.5772-.4814-.6345-.5315,.4016,.3509,.8161,.6868,1.2162,1.0399,2.5402,2.2418,4.677,4.7546,6.8333,7.3512,.8134,.9795-.4873-.6634-.5001-.6729,.2547,.189,.5145,.7401,.6853,1.0088,.4378,.6891,.8851,1.37,1.3037,2.0714,.9143,1.5319,1.7473,3.1129,2.4939,4.7333,.1271,.276,.7718,2.2518,.9891,2.2938-.0748-.0144-.71-2.0536-.3237-.8031,.1242,.4022,.2795,.7971,.4106,1.1974,.4452,1.3586,.8229,2.7356,1.1636,4.1237,1.2588,5.1288,2.4491,10.2754,3.6734,15.4124,3.8965,16.3485,7.5993,32.7568,11.6924,49.0572,.0896,.3566,.1706,.7156,.2558,1.0733,1.3399,5.6217,7.5669,9.8292,13.309,8.1858,5.7608-1.6487,9.6219-7.2838,8.1858-13.309h0Z" style="fill:#fff;"/><path d="M429.1206,528.7503c-2.5898-10.866-13.498-17.5752-24.3641-14.9854-10.866,2.5898-17.5752,13.498-14.9854,24.3641,1.72,7.2164,7.1104,12.5954,13.7194,14.6386l.5564,33.857,34.2071-8.153-14.775-30.4681c4.9767-4.8046,7.3615-12.0367,5.6415-19.2532Z" style="fill:#6966ed;"/></g><g><rect x="458.3659" y="534.3033" width="387.3456" height="42.6941" rx="21.347" ry="21.347" transform="translate(82.4976 -84.2908) rotate(7.8945)" style="fill:#f953b2;"/><path d="M530.1318,548.653l-9.5492-1.3241-11.5955-1.6079-3.4104-.4729-21.1447-2.932-5.2019,37.5149c-.9402,6.7807,3.7944,13.0398,10.5751,13.98h0c6.7807,.9402,13.0398-3.7944,13.98-10.5751l.6148-4.4336c.444-3.202,3.3997-5.4378,6.6017-4.9938h0c3.202,.444,5.4378,3.3997,4.9938,6.6017l-.6148,4.4336c-.9402,6.7807,3.7944,13.0398,10.5751,13.98h0c6.7807,.9402,13.0398-3.7944,13.98-10.5751l5.2019-37.5149-15.0059-2.0808Z" style="fill:#f953b2;"/></g><g><path d="M520.2342,888.1375h-167.7758l-7.7998-56.7679c-1.9677-14.3214,8.2271-27.1964,21.535-27.1964h123.7431c10.7822,0,19.9408,8.5864,21.535,20.1898l8.7625,63.7745Z" style="fill:#ef8e3f;"/><path d="M252.4602,863.6314c2.8418,20.6831,19.1669,35.9884,38.3862,35.9884h275.6318c23.7214,0,41.8937-22.9499,38.3863-48.4778l-1.7997-13.0977H248.9445l3.5157,25.5871Z" style="fill:#ef8e3f;"/></g><path d="M160.8519,263.108c13.3964-6.9175,23.5358-18.9643,27.9768-33.3903,3.028-9.8358,4.1237-20.3318,6.8303-30.2956,5.6722-20.8815,14.0949-41.9656,28.1824-58.6696,15.4158-18.279,36.8414-28.1926,60.8546-27.0853,19.5321,.9006,39.4411,7.7759,51.7225,23.6914,21.4933,27.8533,15.8596,69.8573,4.3753,100.5708-4.8576,12.9913-11.5288,26.8321-21.9707,36.3003-1.8035,1.6354-3.6387,2.9958-5.8567,4.1486-1.3982,.7267-3.7365,1.4431-5.0599,1.4763-3.5535,.0891-7.5931-.6255-11.9206,.0703-5.8965,.9481-11.7149,3.2852-16.6893,6.5843-8.9031,5.9047-16.3378,16.3298-11.217,27.1661,6.4437,13.6359,24.0241,18.1444,37.7901,17.5116,7.7373-.3557,15.3573-1.9966,22.7322-4.3016,9.8259-3.0709,19.6692-6.0706,29.541-8.9916,19.6826-5.8239,39.2471-11.9303,58.7335-18.3812,75.893-25.124,152.4438-51.9697,232.7973-57.6951,38.1998-2.7218,76.7235-.4785,113.9198,8.9547,27.3233,6.9294,54.1558,17.1641,77.9204,32.4922,23.2034,14.9661,43.5564,35.5228,53.8733,61.523,12.3281,31.0688,9.9442,66.8638-5.1419,96.5516-12.6821,24.9569-33.3687,44.3307-58.4163,56.5599-7.9161,3.8649-15.8322,7.7298-23.7483,11.5948-7.4811,3.6525-15.1836,6.9311-21.6107,12.3449-11.3396,9.5516-17.9927,23.9052-18.2897,38.6898-.1043,5.1932-.0297,10.3956-.0427,15.5895-.0424,16.8882,.0331,33.7811-.1271,50.6686-.0372,3.9177-1.172,7.5563-4.2974,10.1644-6.1749,5.1528-15.7441,2.6976-18.8336-4.6732-1.2236-2.9194-4.7498-2.9238-5.9761,0-4.2193,10.0591-17.6887,9.3248-22.2262,.0869-.9942-2.0241-4.3569-2.0229-5.3514,0-5.5727,11.3351-23.004,8.5073-23.098-4.7273-.027-3.8025,.3396-7.6527,.5081-11.4501,.4964-11.1868,.9929-22.3735,1.4893-33.5603,.1785-4.023-5.866-3.9247-6.1975,0-1.2377,14.6539-1.9235,29.4636-3.7212,44.0575-.81,6.5758-5.9512,10.6402-12.37,10.8798-6.8887,.2572-13.6531,.536-20.0762-2.5291-5.4473-2.5994-9.9688-7.585-9.9946-13.9236-.0156-3.8264,.5633-7.7447,.8407-11.5592,.3074-4.2266,.0143-9.221,1.4052-13.29,2.6337-7.705,9.6672-9.2708,16.866-8.9345l-3.0988-3.0988c-.9785,10.9443-1.9569,21.8887-2.9354,32.833-.3554,3.9755,5.8316,3.9409,6.1975,0,2.6127-28.1367,5.2254-56.2733,7.8381-84.41,.3713-3.9987,.7426-7.9974,1.1139-11.996,.1744-1.878-2.1418-3.6887-3.9225-2.9881-4.7111,1.8536-9.4223,3.7071-14.1334,5.5607-5.6617,2.2275-11.3607,5.2144-17.5314,2.8185-10.1223-3.93-12.3032-17.7817-3.8235-24.6069,2.7866-2.2429,6.6287-3.5471,9.8491-5.0277,11.5794-5.3239,23.1588-10.6477,34.7383-15.9716,1.8433-.8475,3.6866-1.695,5.53-2.5425,.4952-.2277,2.4282-1.049,.8625-.418,1.8947-.7636,3.7893-1.5176,5.6602-2.3406,22.3637-9.8378,43.6846-24.8773,57.84-45.0127,9.3711-13.33,15.1406-29.4267,15.1394-45.8168-.0006-7.581-3.0793-14.5837-8.9047-19.4928-6.6833-5.6321-15.3226-8.4702-23.7904-10.0804-11.2715-2.1433-22.864-2.4084-34.2956-1.8445-28.4082,1.4014-56.7206,7.6113-83.6943,16.4561-26.2804,8.6175-52.6767,19.937-74.8788,36.6814-8.908,6.7182-17.274,14.376-23.4987,23.71-5.9475,8.9184-10.2995,20.6001-9.8991,31.4272,.2697,7.2931,3.6866,14.8028,11.3559,16.6417,6.6519,1.5949,13.755-1.4333,18.322-6.2692,17.705-18.7477-3.5291-44.0575-18.5892-55.9493-8.8441-6.9835-18.4762-12.843-28.4189-18.1178-3.5215-1.8682-6.6565,3.4795-3.128,5.3514,16.1846,8.5862,33.7539,19.0676,44.2282,34.6158,4.7444,7.0425,8.2772,16.2958,4.87,24.5404-2.2529,5.4516-7.5996,9.682-12.6443,10.0272-2.5275,.173-4.6029-.3629-6.1263-1.6385-2.1387-1.7908-3.1468-4.3143-3.5417-7.377-1.2726-9.8698,3.1028-21.0851,8.3564-29.2593,5.6422-8.7788,13.5593-16.101,21.8418-22.3513,21.2738-16.0539,46.3847-27.0413,71.5343-35.4396,26.0789-8.7086,53.3934-14.9488,80.8825-16.6813,11.0613-.6971,22.3599-.7582,33.3271,1.0382,7.9046,1.2948,16.4133,3.4522,22.8286,8.4292,5.5847,4.3326,7.8383,10.0485,7.6359,16.9997-.4627,15.8989-6.4237,30.9148-15.9249,43.5592-13.7771,18.3349-34.0548,31.945-54.966,40.9413-14.0079,6.0263-30.5919,13.8499-45.2952,20.6101-2.8168,1.2951-5.7939,2.4405-8.4857,3.9914-8.1236,4.6803-12.0925,14.6651-9.4355,23.6547,2.4609,8.3259,10.1746,14.2707,18.8153,14.6925,5.6197,.2743,10.782-2.3509,15.8798-4.3566,4.3854-1.7254,8.7709-3.4508,13.1563-5.1762-1.3075-.996-2.615-1.992-3.9225-2.9881-2.6127,28.1367-5.2254,56.2733-7.8381,84.41-.3713,3.9987-.7426,7.9974-1.1139,11.996h6.1975c.9785-10.9443,1.9569-21.8887,2.9354-32.833,.1541-1.7239-1.5469-3.0263-3.0988-3.0988-7.0503-.3293-13.6828,.7112-18.665,6.2583-4.0014,4.4552-4.8977,9.7064-5.3128,15.4134-.7857,10.8033-3.8436,23.0151,4.1083,31.9504,5.0226,5.6437,12.6936,8.2609,20.0129,9.0495,3.6229,.3903,7.2035,.0763,10.8155-.04,4.2136-.1357,8.0563-1.1643,11.4455-3.7636,8.3314-6.3897,7.4988-17.7744,8.2953-27.205,.8493-10.0554,1.6986-20.1109,2.5479-30.1663h-6.1975c-.4409,9.9347-.8817,19.8694-1.3226,29.8042-.4833,10.8913-3.0758,23.7785,7.8431,30.7086,9.1901,5.8329,21.4098,1.9521,26.129-7.647h-5.3514c3.2247,6.5652,10.0361,10.8249,17.4194,10.4134,7.4854-.4172,13.3084-5.2433,16.1344-11.9807h-5.9761c2.7995,6.6791,8.5324,11.4794,15.9433,11.9674,6.7537,.4447,13.3676-3.0709,16.8235-8.8833,3.391-5.7034,2.5445-12.8703,2.5605-19.2403,.0449-17.8952,.0898-35.7905,.1347-53.6857,.0272-10.8564,2.4303-21.0729,8.9921-29.9521,6.1863-8.3711,14.7436-12.8864,23.8031-17.3095,18.4874-9.0262,37.8632-17.0971,54.0209-30.0627,23.879-19.1616,40.693-46.8464,46.2092-77.0032,5.9259-32.3973-.9981-66.062-20.3873-92.7871-16.7747-23.1214-40.6872-40.075-66.2271-52.3304-27.5072-13.1994-57.3793-21.7923-87.5217-26.2657-80.2384-11.9082-161.2263,5.5619-237.7464,29.0418-39.9567,12.2606-79.2727,26.5321-119.2764,38.63-9.8547,2.9803-19.7412,5.8537-29.6042,8.8061-9.3284,2.7924-18.5864,6.2227-28.0924,8.359-14.3846,3.2327-35.7636,3.5318-44.3498-11.2168-6.3829-10.9639,7.0708-20.7985,16.0061-24.1226,5.4712-2.0354,10.4571-2.269,16.1795-1.8515,2.1883,.1597,4.4343-.1882,6.5049-.9027,11.8684-4.0956,19.9988-16.7975,25.6618-27.2517,8.3196-15.3584,13.784-32.4467,16.4724-49.6816,2.8022-17.9645,2.8654-36.9953-3.0578-54.3751-5.8381-17.1301-17.7401-31.3354-34.3553-38.8582-21.3578-9.6701-47.7218-10.4537-69.2168-.8992-40.7781,18.1259-56.4513,67.2498-63.9875,107.5999-2.9263,15.668-12.4768,28.7784-26.6687,36.1067-3.545,1.8306-.4139,7.1803,3.128,5.3514h0Z"/><path d="M501.615,440.5713c-2.2136,5.766-3.9426,11.8317-4.2528,18.0319-.2096,4.1898,.3573,8.5824,2.3985,12.3048,3.3819,6.1675,10.4709,8.4392,17.0745,6.7451,7.1023-1.822,12.6421-7.4846,15.1918-14.2285,3.4534-9.134,.5122-19.3191-4.4032-27.3095-3.8097-6.193-8.8404-11.6185-14.27-16.4185-7.7206-6.8253-16.3437-12.6114-25.2517-17.7613-2.6672-1.542-5.3684-3.024-8.0926-4.4627-1.4794-.7813-3.3696-.3759-4.2397,1.1117-.8187,1.3997-.3733,3.4554,1.1117,4.2397,9.2479,4.8842,18.757,10.571,26.7573,16.8288,3.2109,2.5116,6.3066,5.1762,9.2074,8.0418,1.2885,1.2728,2.5382,2.5852,3.7377,3.9424,.5188,.587,1.0282,1.1823,1.527,1.7864,.2685,.3251,.5326,.6536,.7959,.9829,.1037,.1296,.2053,.2609,.308,.3912-.4432-.5621,.0182,.0238,.114,.1519,1.7413,2.3248,3.336,4.7566,4.6653,7.342,.2754,.5356,.5393,1.0771,.7907,1.6244,.1355,.295,.2581,.5965,.3956,.8904-.3997-.8545,.0305,.0837,.122,.3166,.4405,1.1213,.825,2.265,1.1416,3.4274,.2798,1.0273,.4908,2.065,.6714,3.1136,.0183,.106,.0297,.2134,.0485,.3193,.1084,.6123-.0802-.8057-.026-.1901,.0184,.2093,.0482,.4178,.0685,.627,.052,.5366,.0873,1.0748,.1049,1.6137,.0312,.9568,.0067,1.9154-.0784,2.869-.019,.2128-.0475,.4249-.0661,.6376-.0589,.6728,.141-.8191,.0069-.0571-.0799,.4537-.1537,.9071-.2524,1.3573-.1861,.8492-.4239,1.687-.7133,2.5068-.0652,.1848-.133,.3687-.2034,.5516-.0389,.1009-.0817,.2005-.1191,.3018-.1457,.3941-.1814-.0239,.1388-.3229-.2369,.2213-.3877,.8556-.54,1.1569-.3568,.706-.7549,1.3911-1.1917,2.0507-.2144,.3237-.4483,.6324-.67,.9506-.346,.4966,.5252-.6245,.0761-.1-.1435,.1676-.2791,.3421-.4228,.5097-.5018,.5851-1.0372,1.1414-1.6033,1.6645-.2568,.2373-.5199,.4678-.7889,.6912-.0485,.0402-.3948,.3756-.45,.3625,.1294,.0306,.745-.539,.0771-.07-.6175,.4335-1.2427,.8485-1.9019,1.2166-.2904,.1621-.585,.3166-.8838,.4628-.1645,.0805-.3316,.1551-.4968,.2339-.6707,.3197,.3485-.1267,.1395-.0539-.6595,.2297-1.3,.4871-1.9761,.67-.3206,.0867-.6438,.1639-.9691,.2303-.1357,.0277-.2717,.0537-.4081,.0777-.4171,.0736-.9307-.0543,.1107-.0024-.6248-.0311-1.2843,.1202-1.9181,.113-.3147-.0036-.6292-.0182-.9428-.0447-.1459-.0123-.2952-.0405-.4414-.045-.2569-.0079,.9878,.1827,.1932,.0179-.6213-.1288-1.2315-.2646-1.8315-.476-.1365-.0481-.2701-.1082-.4075-.1529-.5228-.17,.7998,.3942,.2509,.1036-.286-.1514-.581-.2815-.8625-.4429-.2692-.1544-.525-.3265-.7837-.4973-.0298-.0197-.3546-.2654-.3581-.2617,.1301-.1378,.6972,.5974,.3549,.269-.0836-.0802-.181-.1473-.2668-.2257-.4854-.4436-.8979-.9277-1.342-1.4089-.1544-.1673,.5153,.7419,.1009,.1171-.0798-.1203-.165-.237-.2443-.3577-.2037-.31-.3929-.6296-.5685-.9564-.0713-.1328-.5707-.9242-.5048-1.0463-.0575,.1064,.3263,.8582,.0852,.183-.0832-.2332-.1717-.4638-.2495-.699-.2631-.7952-.4636-1.6105-.6135-2.4344-.0421-.2316-.0709-.466-.1143-.6972-.0889-.4739,.0867,.8462,.017,.1027-.0498-.531-.1014-1.0597-.1271-1.5927-.0519-1.0805-.0373-2.1637,.028-3.2433,.0328-.5424,.0787-1.084,.1358-1.6243,.0331-.3131,.0736-.625,.1106-.9377-.0979,.827-.0008,.0259,.0562-.3349,.4519-2.8631,1.1748-5.6798,2.0524-8.4404,.5031-1.5827,1.0618-3.1468,1.657-4.6972,.5999-1.5628-.663-3.3993-2.1643-3.8118-1.7476-.4802-3.2097,.5959-3.8118,2.1643h0Z"/><g><path d="M315.0819,280.7868c-5.6341,.349-11.3007,.1725-16.9022-.5266-19.9852-2.4941-38.4902-11.4932-56.5724-20.3623,6.555,12.0581,23.5431,25.4716,36.7103,29.3433,0,0,1.2635-3.7704,14.217-5.2815,12.9535-1.5111,22.5473-3.1729,22.5473-3.1729Z"/><path d="M315.0819,277.6881c-10.0491,.5956-19.9884-.5214-29.7077-3.105-9.3337-2.4811-18.3166-6.0951-27.0835-10.114-5.0808-2.3291-10.1016-4.7858-15.1194-7.2468-2.7341-1.3409-5.7956,1.4098-4.2397,4.2397,3.0761,5.5951,7.4589,10.5023,12.1558,14.7864,5.0196,4.5786,10.6017,8.6671,16.6055,11.8608,3.1253,1.6625,6.4061,3.1052,9.801,4.1201,1.6824,.5029,3.2697-.6099,3.8118-2.1643-.3881,1.1127-.3485,.7361-.0841,.3454-.1547,.2287-.5823,.618-.077,.1538,.0825-.0758,.1698-.1538,.2478-.2344,.4127-.4262,.0282,.0224-.1242,.0787,.7344-.2716,1.4887-.9024,2.2115-1.2526,.3796-.1839-.5399,.2097-.1253,.0506,.1106-.0425,.2193-.0904,.3307-.1308,.3219-.1168,.6418-.2378,.9667-.3465,.7628-.2553,1.5378-.4744,2.3185-.6679,4.1037-1.0172,8.3547-1.3186,12.5369-1.8674,3.8147-.5006,7.6252-1.0342,11.4279-1.619,1.6586-.2551,3.3171-.514,4.9707-.7999,1.6503-.2853,2.5767-2.3112,2.1643-3.8118-.4794-1.7444-2.1568-2.4504-3.8118-2.1643-5.0421,.8717-10.1148,1.5933-15.1881,2.2547-4.6888,.6113-9.476,.9271-14.0667,2.1124-2.3845,.6157-4.9111,1.4547-6.9155,2.9299-1.2004,.8835-2.2577,1.8863-2.7583,3.3216,1.2706-.7214,2.5412-1.4429,3.8118-2.1643-6.9611-2.0809-13.7472-6.2281-19.622-10.9285-6.018-4.815-11.5761-10.3329-15.2365-16.9907-1.4132,1.4132-2.8265,2.8265-4.2397,4.2397,18.2352,8.9435,36.8752,17.9746,57.229,20.6675,5.907,.7815,11.8616,.997,17.8096,.6444,1.6709-.099,3.0988-1.3533,3.0988-3.0988,0-1.601-1.4196-3.1983-3.0988-3.0988Z"/></g><path d="M717.0504,633.5886v-53.0233c0-3.9878-6.1975-3.9944-6.1975,0v53.0233c0,3.9878,6.1975,3.9944,6.1975,0h0Z"/><path d="M745.2836,633.9329v-53.0233c0-3.9878-6.1975-3.9944-6.1975,0v53.0233c0,3.9878,6.1975,3.9944,6.1975,0h0Z"/><path d="M403.9595,788.8251c96.875,8.2033,194.2206,11.3065,291.3973,7.7339,21.3867-.7863,43.0316-1.1886,64.2204-4.442,19.1324-2.9377,37.9501-9.0237,53.0878-21.4671,13.8226-11.3623,23.7433-27.2072,38.8358-37.0644,6.8706-4.4873,19.765-11.2706,25.4669-1.9031,2.3637,3.8833,2.9399,8.8584,3.4893,13.2677,.7788,6.2495,1.305,12.5324,1.6106,18.8226,1.2661,26.0595-1.4675,52.1099-6.3826,77.6859-2.4094,12.5378-5.3123,24.9766-8.4735,37.3447-2.465,9.6439-7.6442,27.3438-21.319,23.1366l2.1643,3.8118c.4503-2.0653,2.8754-1.8892,4.5728-1.4101,2.6617,.7512,4.3646,3.0234,5.4342,5.4661,1.8992,4.3373,1.7448,10.3371-1.7216,13.8854-4.7255,4.8372-13.5392,5.5552-19.8483,6.0908-16.692,1.417-33.4521-.311-50.1731,.8193-56.7394,3.8355-113.5934,5.9827-170.4576,6.6328-56.9511,.6511-113.9268-.2513-170.8181-2.9764-57.003-2.7304-113.9195-7.3366-170.5959-14.0286-26.4021-3.1174-52.7137-6.8553-79.027-10.636-19.9488-2.8663-39.9605-5.9225-59.3927-11.3867-18.9253-5.3216-37.4863-13.1056-52.9887-25.4111-17.8877-14.1989-30.1775-33.5548-38.1707-54.7823-9.3198-24.7505-13.1477-51.1865-15.2333-77.4292-2.2381-28.1605-2.2791-56.4652-.7754-84.6651,3.0692-57.5603,12.5095-114.5282,22.7525-171.1771,4.875-26.9612,9.3591-54.092,15.963-80.698,6.0768-24.4822,13.8213-49.9468,27.9807-71.0969,11.8019-17.6287,30.7632-31.7548,52.9995-27.6694,9.2048,1.6912,18.2812,6.7093,22.7073,15.264,4.0121,7.7545,2.4682,17.4423-1.8818,24.7118-4.187,6.9971-11.5909,12.2748-20.0295,10.7029l2.1643,3.8118c1.704-7.9197,9.5458-10.8071,16.9582-10.4189,9.0002,.4713,15.6684,5.7176,19.6982,13.5622,5.1349,9.9958,5.5597,21.7982,6.0487,32.7923,.4691,10.5457,1.1544,21.0684,2.2634,31.5677,4.5112,42.706,14.7842,84.8427,31.8364,124.3069,16.8022,38.8856,40.5327,75.0636,71.3903,104.2503,29.598,27.9954,75.5474,60.5948,117.2715,38.4096,9.2364-4.9111,17.4662-12.2942,22.6589-21.439,5.8703-10.3383,5.906-20.5084,4.6302-31.9817-.5922-5.3257-1.4399-12.3245,3.0402-16.3322,3.931-3.5165,9.854-2.2859,13.9669,.212,12.5779,7.6389,8.2505,25.0322,5.2634,36.6653-.7707,3.0016,2.9477,5.186,5.1792,3.0149,20.125-19.5793,40.2499-39.1586,60.3749-58.7378,5.9318-5.771,22.0504-23.843,29.4309-10.3276,5.88,10.7678-4.6214,21.0513-11.7546,27.8312l4.8669,3.7552c4.3193-5.7434,9.2296-12.4334,16.3106-14.8748,6.0849-2.098,14.8337-.3837,15.8787,7.0763,1.0702,7.6394-5.4101,14.1143-10.785,18.4963-5.6246,4.5855-11.4155,8.7501-15.2671,15.0447-1.6644,2.7201,1.5929,5.6871,4.2397,4.2397,8.3945-4.5905,13.4413-12.8819,21.2169-18.1671,6.9873-4.7493,21.2124-6.3612,20.487,5.8679-.5537,9.335-8.4215,15.3979-15.7264,19.8103-7.4873,4.5225-15.0715,8.8018-19.9232,16.3447-1.4572,2.2656,.9597,5.325,3.4995,4.5521,7.8979-2.4036,13.9903-7.6447,20.1699-12.8923,5.9838-5.0814,12.0689-9.7046,20.2593-9.7531,7.0258-.0416,14.1367,4.3328,11.4342,12.3384-2.7119,8.0335-11.7392,13.6177-18.0954,18.572-27.9528,21.7875-58.1415,40.7264-89.7719,56.6967-63.0731,31.8459-132.2186,51.8257-202.5264,58.7624-34.8558,3.4389-70.0308,3.7088-104.9262,.6657-17.7431-1.5473-35.4031-3.9659-52.9052-7.2671-10.1861-1.9213-20.2477-3.5365-29.6296-8.0347-8.5898-4.1184-16.855-8.9963-24.7082-14.3822-8.0181-5.4989-16.2431-11.7242-22.1269-19.5682-3.608-4.81-6.9484-11.434-2.0422-16.5273,11.154-11.5793,30.6374-4.9136,43.6593-.9447,9.5751,2.9183,18.9602,6.4214,28.5334,9.3455,9.9707,3.0455,20.1366,5.5221,30.2881,7.8836,20.6525,4.8042,41.5164,8.6649,62.4701,11.8948,42.2919,6.5191,84.9226,10.4457,127.5436,14.0654,10.5868,.8991,21.1751,1.7812,31.7619,2.6801,3.9738,.3374,3.9513-5.8621,0-6.1975-90.4988-7.6836-182.7302-13.5849-269.4417-42.584-16.137-5.3967-36.0561-13.2891-52.4437-5.2166-7.2245,3.5587-12.5072,10.0149-10.7409,18.4043,1.8068,8.5821,9.0475,15.7382,15.3691,21.306,8.2384,7.2561,17.4541,13.4466,26.9487,18.9286,6.9688,4.0237,14.3975,8.2396,22.1622,10.5354,7.3816,2.1825,15.2136,3.3691,22.7755,4.7664,9.2789,1.7146,18.6028,3.1734,27.957,4.4112,36.7676,4.8654,74.0052,6.0093,111.0093,3.5576,74.392-4.9288,147.7456-24.185,214.9035-56.5747,33.6067-16.2082,65.6227-35.7375,95.2833-58.381,10.2033-7.7894,33.442-22.3869,23.1226-38.1245-8.2023-12.509-26.5581-6.7245-35.9494,.6152-7.0027,5.4729-13.2546,12.3838-21.9909,15.0426l3.4995,4.5521c6.1344-9.5372,17.7392-12.8301,26.1216-19.855,6.9077-5.789,12.6059-16.2033,9.6082-25.346-3.2655-9.9597-14.6313-11.7257-23.3136-8.2791-11.0393,4.3823-16.7484,15.5664-26.9499,21.145l4.2397,4.2397c5.3099-8.6779,15.2162-12.819,21.3614-20.7542,5.1358-6.6317,8.1911-16.3285,2.6577-23.6789-4.6082-6.1214-13.2911-7.537-20.3209-5.4442-9.0662,2.699-15.1051,10.6544-20.5382,17.8788-2.176,2.8935,2.4103,6.09,4.8669,3.7552,8.601-8.1749,18.2294-18.8007,14.2688-31.6554-1.596-5.1798-5.3423-9.5701-10.7038-10.9907-6.0613-1.606-12.1669,1.0629-17.0176,4.5685-6.0877,4.3996-11.2427,10.1113-16.6107,15.3337-6.44,6.2654-12.88,12.5307-19.32,18.7961-12.4775,12.1392-24.9549,24.2783-37.4324,36.4175l5.1792,3.0149c2.8431-11.0727,5.7964-23.7107,.4739-34.5391-3.7593-7.648-12.7757-13.138-21.3582-12.2452-9.9264,1.0325-14.2405,10.2955-13.9815,19.374,.1599,5.6068,1.51,11.1243,1.461,16.7428-.0444,5.0911-1.2756,10.1608-3.4743,14.7489-9.7957,20.4412-33.3861,30.0598-55.0464,27.7371-25.1731-2.6994-47.5576-18.2128-66.3044-34.2188-34.1176-29.1295-60.1727-66.5636-78.4959-107.3476-18.6675-41.5504-29.4996-86.6314-33.6976-131.9169-1.0362-11.1776-1.3206-22.3785-2.1023-33.5692-.7508-10.7481-2.3638-22.0665-8.3729-31.278-8.3128-12.743-28.5321-18.9427-40.836-7.718-2.7251,2.4861-4.4728,5.7564-5.244,9.3408-.329,1.529,.4433,3.4913,2.1643,3.8118,18.4284,3.4328,32.4928-14.958,32.0525-32.1163-.5306-20.6818-21.7451-31.9339-40.3705-31.3849-23.3349,.6879-41.0259,17.3907-52.3949,36.4779-14.0276,23.5507-21.747,50.9421-27.7612,77.4825-6.6045,29.1455-11.5187,58.7252-16.7142,88.1472-5.332,30.1946-10.2595,60.4702-14.0142,90.9056-7.3767,59.7943-10.6301,121.2703-1.443,181.0634,4.1058,26.7222,11.5982,53.7692,26.387,76.6847,11.607,17.9853,27.908,32.2223,46.9197,41.9607,18.915,9.6888,39.6511,15.1787,60.439,19.1151,23.4025,4.4315,47.1352,7.4479,70.7262,10.6811,61.1585,8.3818,122.6475,14.2907,184.2678,17.9411,61.3281,3.633,122.7819,5.0675,184.2137,4.6821,61.5791-.3863,123.1592-2.5429,184.6028-6.6588,9.1026-.6097,17.9437-.8232,27.0559-.595,9.2408,.2315,18.5566,.4265,27.7575-.6294,7.1154-.8166,15.3453-2.1235,20.829-7.174,6.9031-6.3577,6.5976-18.1318,1.0835-25.2339-4.4674-5.754-17.1769-8.7399-19.2615,.8209-.3648,1.6734,.4911,3.2971,2.1643,3.8118,9.0051,2.7705,17.8115-2.4702,22.5631-10.0345,5.9148-9.416,7.5944-21.8905,10.0882-32.5423,5.4549-23.2995,9.6828-46.9664,11.1369-70.8796,.7533-12.3886,.7517-24.8294-.1669-37.2093-.68-9.1647-.7076-20.5217-5.5472-28.6959-10.854-18.3328-35.6137-.4537-45.8866,9.3218-14.1884,13.5013-25.4439,29.2898-43.4793,38.1189-19.2209,9.4094-41.2054,11.5327-62.2745,12.7614-51.0784,2.9787-102.3515,3.5988-153.5018,2.7728-57.8224-.9338-115.5966-4.0224-173.2175-8.9017-3.9739-.3365-3.9515,5.8629,0,6.1975Z"/><path d="M626.6527,716.174c40.6122,1.3323,81.258,1.6564,121.8847,.8461,20.314-.4051,40.6225-1.0925,60.9168-2.0753,17.0974-.828,34.3334-1.7586,51.0811-5.5418,15.9811-3.6101,31.178-10.1439,43.6078-20.9808,11.3538-9.899,20.2357-22.3426,31.9676-31.8328,5.507-4.4547,12.0042-8.3375,18.9973-9.8352,3.6024-.7715,7.3285-.4127,9.9487,2.3864,2.2206,2.3722,3.2043,5.7246,3.8919,8.8213,.919,4.1386,1.3023,8.4094,1.7161,12.6212,.4761,4.8459,.8098,9.7056,1.0105,14.5707,.4006,9.7103,.2586,19.4401-.3442,29.139-1.193,19.1945-4.2275,38.2142-8.2401,57.0088-2.024,9.4802-4.2891,18.9088-6.7078,28.2957-1.9335,7.5039-4.164,16.2676-11.3191,20.4947-2.9825,1.762-6.3299,2.416-9.6512,1.28,.7214,1.2706,1.4429,2.5412,2.1643,3.8118,.0549-.3432,.1065-.7074,.2465-1.0291-.1505,.3459,.3627-.2693,.0551,.0094,.3075-.2787,.0193-.1339,.5265-.3682,.0791-.0366,.2817-.1256,.6832-.2116,1.0652-.228,2.6379-.0624,3.9409,.4756,3.0566,1.262,4.8527,4.9976,5.511,8.206,.3798,1.8514,.3593,3.8438-.0621,5.6859-.214,.9355-.4952,1.8612-.9139,2.7261-.1787,.3692-.3782,.7329-.5938,1.0819-.0766,.1239-.5163,.7676-.3222,.5062,.2079-.2801-.2352,.2797-.3154,.3673-.1727,.1885-.3463,.3749-.5284,.5545-.2164,.2133-.4439,.4133-.6709,.6152-.0986,.0877-.2031,.1702-.306,.2528-.3651,.2933,.3743-.2717-.0145,.0035-1.0165,.7198-2.0971,1.3188-3.2247,1.8461-.1373,.0642-.2759,.1262-.4149,.1865,.0618-.0268,.3636-.1506,.0291-.014-.2918,.1191-.5866,.2309-.8824,.3395-.6645,.2439-1.3374,.4649-2.0156,.6675-1.4508,.4335-2.9267,.7818-4.4121,1.074-3.2128,.6321-6.2024,.951-9.5381,1.1852-7.0364,.4939-14.1023,.4214-21.1494,.2598-6.2587-.1436-12.5862-.5799-18.8414-.1573-3.9581,.2674-3.9879,6.4669,0,6.1975,6.2551-.4226,12.5827,.0137,18.8414,.1573,7.9136,.1815,15.8642,.2657,23.7542-.4721,6.7971-.6356,14.2937-1.6429,20.1836-5.3791,7.2194-4.5796,9.5649-14.0588,6.6279-21.9347-1.8557-4.9762-5.5264-9.4536-10.9825-10.4495-4.5641-.833-10.3379,.6652-11.1871,5.9702-.2778,1.7354,.4324,3.2195,2.1643,3.8118,8.2758,2.8305,16.8631-1.9882,21.6435-8.6591,5.2892-7.3808,6.9163-17.1226,9.0453-25.7586,4.7835-19.4043,8.7976-39.0085,11.2324-58.8551,2.4203-19.728,3.1649-39.6815,1.5351-59.5057-.4091-4.9764-.9164-9.964-1.6762-14.9003-.5792-3.7631-1.5048-7.5215-3.2818-10.9144-1.725-3.2937-4.3974-6.0242-7.8651-7.4387-4.4319-1.8078-9.3796-1.1797-13.8294,.2462-14.8923,4.772-25.7637,16.4835-36.0739,27.6395-5.242,5.672-10.5061,11.3715-16.4642,16.309-6.266,5.1926-13.4835,9.3267-21.025,12.3633-15.8566,6.3847-33.0088,8.6507-49.9479,9.8715-19.9348,1.4367-39.9553,2.0581-59.9307,2.6271-41.7649,1.1897-83.5625,1.1694-125.3289,.0553-5.049-.1347-10.0975-.2859-15.1456-.4515-3.9892-.1309-3.9845,6.0668,0,6.1975h0Z"/><path d="M554.1436,618.3709c-3.7024,4.0762-7.4047,8.1523-11.1071,12.2285-5.8703,6.463-11.7406,12.926-17.611,19.3891-1.3557,1.4925-2.7113,2.9851-4.067,4.4776-1.1248,1.2384-1.2234,3.1589,0,4.3823,1.1419,1.1419,3.2528,1.2436,4.3823,0,3.7024-4.0762,7.4047-8.1523,11.1071-12.2285,5.8703-6.463,11.7406-12.926,17.611-19.3891,1.3557-1.4925,2.7113-2.9851,4.067-4.4776,1.1248-1.2384,1.2234-3.1589,0-4.3823-1.1419-1.1419-3.2528-1.2436-4.3823,0h0Z"/><path d="M573.7673,640.7559c-4.0908,3.6862-8.1815,7.3724-12.2723,11.0586-6.4862,5.8447-12.9723,11.6895-19.4585,17.5342-1.4979,1.3497-2.9957,2.6995-4.4936,4.0492-1.2438,1.1208-1.1401,3.2422,0,4.3823,1.2367,1.2367,3.1354,1.1236,4.3823,0,4.0908-3.6862,8.1815-7.3724,12.2723-11.0586,6.4862-5.8447,12.9723-11.6895,19.4585-17.5342,1.4979-1.3497,2.9957-2.6995,4.4936-4.0492,1.2438-1.1208,1.1401-3.2422,0-4.3823-1.2367-1.2367-3.1354-1.1236-4.3823,0h0Z"/><path d="M594.1581,663.9555c-4.5108,3.1584-9.0216,6.3167-13.5324,9.4751l-21.4565,15.0234c-1.6517,1.1565-3.3033,2.3129-4.955,3.4694-1.3691,.9586-2.0057,2.7113-1.1117,4.2397,.7924,1.3548,2.8619,2.0764,4.2397,1.1117,4.5108-3.1584,9.0216-6.3167,13.5324-9.4751,7.1522-5.0078,14.3043-10.0156,21.4565-15.0234,1.6517-1.1565,3.3033-2.3129,4.955-3.4694,1.3691-.9586,2.0057-2.7113,1.1117-4.2397-.7924-1.3548-2.8619-2.0764-4.2397-1.1117h0Z"/><path d="M608.7488,448.7244c-1.1853-.9758-16.8403,14.141-18.4067,15.686-5.5069,5.4316-11.4373,10.9411-16.1883,17.0337,7.0301-14.7261,12.9426-29.9066,20.2512-44.528,4.7813,3.9361,9.5625,7.8721,14.3438,11.8082Z" style="fill:#f953b2;"/><path d="M537.1663,497.0201c2.7236-6.2611,4.9132-12.7113,6.4361-19.3701,.3606-1.5768-.4835-3.429-2.1643-3.8118-1.5778-.3594-3.4253,.4742-3.8118,2.1643-.7169,3.1345-1.5686,6.2363-2.5676,9.2928-.9492,2.9041-2.1511,6.085-3.2438,8.5968-.6448,1.4823-.487,3.395,1.1117,4.2397,1.3386,.7073,3.5493,.4754,4.2397-1.1117h0Z" style="fill:#f953b2;"/><path d="M284.73,532.8976c.5068,.1632,1.0105,.3351,1.5097,.5201,.2496,.0925,.4981,.1878,.7455,.286,.1237,.0491,.2471,.0989,.3702,.1494,.3088,.1281,.2461,.1013-.1882-.0804,.0134,.0714,.644,.2847,.7298,.324,.242,.1108,.4828,.2243,.7222,.3406,.4789,.2325,.9524,.4759,1.4202,.73,.9355,.5082,1.8479,1.0589,2.7333,1.6502,.4427,.2956,.8786,.6014,1.3073,.9169,.1072,.0789,.2139,.1584,.3201,.2385,.2631,.2004,.2124,.1604-.1522-.1199,.1125-.013,.5282,.4214,.6234,.4989,.657,.5352,1.3118,.9076,2.1912,.9076,.76,0,1.6679-.3376,2.1912-.9076,1.0404-1.1334,1.342-3.289,0-4.3823-3.8483-3.1352-8.1434-5.5241-12.8761-7.0482-1.5436-.4971-3.4511,.5806-3.8118,2.1643-.3864,1.6963,.5115,3.2796,2.1643,3.8118h0Z" style="fill:#f953b2;"/><path d="M310.347,577.2273c-8.4325,.4518-16.7948,2.1933-24.7067,5.1452,1.7591,5.5762,3.8213,11.0567,6.1745,16.4094,4.9277-8.2272,11.22-15.6348,18.5417-21.8285" style="fill:#f953b2;"/><path d="M330.7252,642.2674c2.0668-3.8384,4.1337-7.6769,6.2005-11.5153,.7682-1.4267,.403-3.4394-1.1117-4.2397-1.442-.7619-3.419-.4124-4.2397,1.1117-2.0668,3.8384-4.1337,7.6769-6.2005,11.5153-.7682,1.4267-.403,3.4394,1.1117,4.2397,1.442,.7619,3.419,.4124,4.2397-1.1117h0Z" style="fill:#f953b2;"/><path d="M298.6327,474.9749c2.1242,2.9108,4.2485,5.8215,6.3727,8.7323,.4901,.6716,1.0218,1.1955,1.8519,1.4241,.7418,.2043,1.7295,.112,2.3878-.3124,.6617-.4266,1.2441-1.0618,1.4241-1.8519,.1743-.7653,.1708-1.7257-.3124-2.3878-2.1242-2.9108-4.2485-5.8215-6.3727-8.7323-.4901-.6716-1.0218-1.1955-1.8519-1.4241-.7418-.2043-1.7295-.112-2.3878,.3124-.6617,.4266-1.2441,1.0618-1.4241,1.8519-.1743,.7653-.1708,1.7257,.3124,2.3878h0Z" style="fill:#f953b2;"/><path d="M591.9661,509.1147c1.4762-.296,2.9524-.5919,4.4285-.8879,.4033-.0959,.7545-.2808,1.0538-.5546,.3373-.2185,.6034-.5083,.7981-.8694,.2264-.3557,.349-.7397,.3677-1.1521,.0922-.4119,.0738-.8238-.0553-1.2357-.2426-.7498-.7073-1.4732-1.4241-1.8519l-.7402-.3124c-.5492-.1476-1.0984-.1476-1.6475,0-1.4762,.296-2.9524,.5919-4.4285,.8879-.4033,.0959-.7545,.2808-1.0538,.5546-.3373,.2185-.6034,.5083-.7981,.8694-.2264,.3557-.349,.7397-.3677,1.1521-.0922,.4119-.0738,.8238,.0553,1.2357,.2426,.7498,.7073,1.4732,1.4241,1.8519l.7402,.3124c.5492,.1476,1.0984,.1476,1.6475,0h0Z" style="fill:#f953b2;"/><g><path d="M421.3767,120.8729c-7.5481,12.6269-25.3733,17.9611-38.4707,11.2625,7.9862,10.8324,5.2155,28.0166-5.7706,35.7901-10.9861,7.7734-28.113,4.6682-35.6708-6.4674-.8611-1.2688-1.4789-3.2659-.1968-4.1072,2.6939,5.9855-.3954,13.4949-5.8635,17.1257-5.4681,3.6308-12.6252,3.9054-18.98,2.2623-6.3548-1.6431-12.1084-5.0026-17.7922-8.2855-4.9899-2.8821-14.0505-8.9092-20.1691-6.8444-5.2476,1.7709-12.0643,11.0081-15.433,15.2485-4.2123,5.3023-7.5221,11.4965-8.4709,18.2015-.1733,1.2244-.1449,2.7241,.9041,3.3789,6.9812-11.4834,7.1716-33.9146-6.1755-41.4736-6.9417-3.9313-16.4831-1.3444-21.407,4.9324-7.7748,9.9109-1.4033,18.7939-1.5594,29.4335-.1186,8.0847-6.4818,15.0158-13.8749,18.2899-7.393,3.2741-15.6999,3.6247-23.7799,3.925-1.9388-14.2266-7.4247-27.6886-11.2831-41.5185-3.8584-13.8299-6.0499-28.8048-1.3949-42.3873,4.6551-13.5825,17.8737-25.0642,32.1593-23.6235-1.3431-11.1836,9.4596-20.8577,20.6006-22.5182,12.391-1.8468,24.4639,3.5617,36.7587,3.5896,15.1584,.0344,29.7605-6.5174,43.1361-13.0002,18.6547-9.0414,39.5671-18.6991,59.3159-12.3959,5.4208,1.7301,10.6408,4.808,13.6773,9.6202,3.0365,4.8122,3.3929,11.5582-.1709,15.9941-3.5638,4.4359-11.2839,5.1746-14.881,.7656,5.5753-9.1194,15.8142-15.2103,26.4888-15.7578,24.5709-1.2603,40.978,27.3568,28.3033,48.5596Z"/><path d="M418.701,119.3089c-3.3821,5.5756-9.0439,9.6092-15.3024,11.4543-6.3123,1.8609-13.1814,1.5881-18.9285-1.3034-1.2404-.6241-2.7397-.5309-3.7552,.4845-.9052,.9052-1.2818,2.6566-.4845,3.7552,5.8325,8.0366,5.4277,19.074-.2969,27.154-2.674,3.7743-6.8873,6.5228-11.578,7.6607-2.3944,.5808-4.4947,.7432-7.2591,.5539-2.117-.145-4.4404-.6388-6.8289-1.5092-2.0679-.7535-5.0507-2.4677-6.7279-3.9279-1.0576-.9208-2.0543-1.9374-2.9155-3.0459,.3157,.4064-.3202-.4538-.2973-.4208-.2482-.3578-.4384-.7323-.6604-1.1036l.0679,.1321c-.0823-.3812-.1122-.4146-.0895-.1002,.001-.3856-.0125-.3969-.0404-.0338-.4998,.6884-.5482,.8496-.1452,.4835l-4.8669-.6272c-.1312-.3043,.0696,.2279,.0713,.234,.0617,.222,.1418,.4388,.202,.6616,.0264,.0977,.2669,1.2437,.2129,.8619,.0636,.4503,.0793,.9148,.08,1.3689,.0003,.2288-.005,.4586-.0171,.6872,.001-.0191-.0912,.9702-.033,.5487-.2788,2.0207-.8915,3.4547-1.9571,5.1115-2.0084,3.1224-5.4293,5.0538-9.3525,5.8536-9.202,1.8759-18.249-3.0794-26.0503-7.5687-3.277-1.8857-6.4822-3.9219-9.8927-5.5633-3.6508-1.7571-7.8196-3.4184-11.9545-2.9348-3.9463,.4616-7.0735,2.9389-9.837,5.6364-2.7575,2.6917-5.1816,5.7084-7.5587,8.7339-3.0935,3.9374-6.0983,7.8667-8.1432,12.4741-1.1371,2.5619-2.0714,5.2033-2.5861,7.9642-.5863,3.1456-.6401,6.0293,2.123,8.1295,1.3455,1.0227,3.4598,.187,4.2397-1.1117,4.4129-7.3483,5.8815-16.708,4.8045-25.1408-1.1556-9.0488-5.5855-18.1895-14.5382-21.7012-10.6977-4.1962-23.0376,2.9232-26.5303,13.3978-1.7737,5.3192-.6744,10.8948,.3588,16.2355,.947,4.8952,1.7468,9.9334-.43,14.2592-6.0328,11.9883-21.094,12.9446-33.1372,13.394,.996,.7583,1.992,1.5167,2.9881,2.275-2.5026-17.9973-10.5304-34.5945-13.8466-52.4035-1.5589-8.3721-2.0549-17.1762-.0798-25.5222,1.6591-7.0111,5.029-13.2121,10.2987-18.1706,5.5211-5.1951,12.5536-8.2167,20.121-7.5105,1.546,.1443,3.2682-1.542,3.0988-3.0988-.3208-2.947,.1345-5.5449,1.3294-7.9178,1.3577-2.6962,3.0914-4.6927,5.4913-6.6489,2.1074-1.7178,5.0218-3.2428,7.6668-4.0744,3.3213-1.0443,6.7709-1.2647,10.2352-1.1246,8.0015,.3236,15.7698,2.6501,23.7048,3.5672,8.0193,.9268,16.127-.1057,23.879-2.2515,15.4492-4.2765,29.1642-12.7909,43.9863-18.652,13.3947-5.2968,29.7494-9.4316,43.3812-2.7367,2.8316,1.3906,5.5258,3.2442,7.3891,5.738,1.9039,2.5481,2.7662,5.3944,2.5945,8.4588-.0598,1.0666-.4669,2.6843-1.0034,3.6839-.5871,1.0939-1.5032,2.1104-2.2217,2.5609-.3138,.1968-.6308,.3787-.9586,.5517-.4585,.242,.065,.0134-.422,.1919-.6441,.2361-1.3118,.4135-1.9887,.5251-.5212,.086,.4105-.0226-.1154,.0062-.157,.0086-.3135,.0232-.4708,.029-.3125,.0117-.6263,.0099-.9387-.0062-.155-.008-.8888-.1157-.4091-.0283-.403-.0735-.8024-.1678-1.1931-.2916-.1366-.0433-.803-.3316-.3928-.1354-.2752-.1316-.5359-.2858-.7982-.4405-.0584-.0344-.4855-.325-.1174-.0473-.1212-.0914-.2387-.1973-.3486-.302-.2654-.2528-.5122-.5121-.7501-.7915,.1615,1.2517,.323,2.5034,.4845,3.7552,3.6445-5.8802,9.4643-10.4594,15.9727-12.6611,3.4076-1.1528,6.5361-1.6753,10.0896-1.5944,.7342,.0167,1.468,.0604,2.1989,.1315,.1549,.0151,.3094,.0338,.4642,.0493,.5248,.0524-.4222-.0661,.0973,.0084,.4055,.0582,.8094,.1266,1.2119,.2025,1.4353,.2706,2.8501,.6503,4.2284,1.1337,.3287,.1153,.6541,.2388,.9792,.3636,.0686,.0263,.6403,.2594,.3186,.1246-.2895-.1213,.1593,.0708,.1756,.0783,.6727,.3092,1.3394,.6262,1.9919,.9766,1.2532,.6729,2.4584,1.4344,3.6061,2.2747,.1578,.1155,.3155,.232,.4706,.3514-.1046-.0805-.4034-.3249,.066,.0587,.2652,.2167,.5292,.4344,.7888,.6578,.556,.4787,1.0956,.9763,1.6178,1.4917,.4875,.4812,.9599,.9779,1.4164,1.4887,.2284,.2555,.4525,.5149,.673,.7772,.0945,.1125,.1885,.2254,.2815,.3392-.014-.0172,.4985,.6253,.3058,.3772-.0934-.1203,.3423,.4606,.4628,.6279,.2007,.2785,.3969,.5603,.589,.8448,.4119,.6102,.8046,1.2334,1.1764,1.8689,.3474,.5937,.6769,1.198,.988,1.8115,.1557,.307,.3065,.6165,.4528,.9281,.0837,.1781,.1642,.3577,.2464,.5364,.0414,.0901,.3021,.7002,.097,.2087,.55,1.3184,1.0088,2.6768,1.3847,4.0546,.1819,.6669,.3428,1.3393,.4832,2.0162,.0703,.3388,.1355,.6786,.195,1.0195,.0297,.1697,.1903,1.2254,.1121,.6438,.2183,1.6234,.2959,3.2707,.2562,4.9077-.0194,.8005-.0694,1.6001-.1504,2.3967-.0203,.2-.0432,.3996-.0666,.5992-.0601,.5134,.07-.4371-.0112,.0745-.0714,.4497-.1451,.8983-.2328,1.3452-.7045,3.59-1.7147,6.146-3.4959,9.1607-2.0334,3.4416,3.3218,6.5631,5.3514,3.128,6.9553-11.7718,6.1158-26.855-1.6008-38.0709-3.6932-5.3678-8.7298-9.8224-14.7354-12.4235-6.8875-2.9831-14.5126-3.519-21.7853-1.6437-9.0741,2.3399-17.09,8.2507-22.0221,16.2083-.7697,1.2419-.3996,2.7166,.4845,3.7552,4.6624,5.4768,13.7976,4.8023,18.6323-.0607,5.5527-5.5853,5.1022-15.1232,.7473-21.257-4.6607-6.5644-12.3893-10.0984-20.1287-11.5277-8.4997-1.5697-17.1753-.7276-25.4944,1.4401-16.6984,4.3511-31.3363,13.7074-47.3547,19.7921-7.9425,3.017-16.2863,5.2857-24.8334,5.3386-8.5501,.0529-16.8462-2.4837-25.2815-3.5321-7.9161-.9838-15.9578-.3507-22.9562,3.7566-5.9984,3.5204-11.2932,9.445-12.4635,16.4903-.2944,1.7724-.406,3.5252-.2114,5.3135l3.0988-3.0988c-15.8681-1.4808-29.7294,11.0623-34.9054,25.2155-6.566,17.954-1.2615,37.5857,4.271,55.039,3.2499,10.2523,6.6783,20.506,8.165,31.1974,.1786,1.2841,1.7627,2.3207,2.9881,2.275,11.8121-.4407,24.6828-1.2883,33.6455-9.9913,3.8781-3.7657,6.5153-8.6354,7.0362-14.0465,.506-5.256-1.0932-10.5062-1.9098-15.6498-.285-1.7954-.4739-4.8119-.142-6.5932,.4509-2.4199,1.4463-4.6,2.9924-6.5459,2.741-3.45,7.0295-5.4749,11.1155-5.6097,4.0665-.1342,7.3725,1.5217,10.0515,4.4036,.2897,.3116,.5626,.6361,.8367,.9612,.5901,.6998-.3125-.4827,.2071,.2729,.1075,.1563,.2206,.3086,.3278,.4652,.5945,.8682,1.1237,1.7806,1.5917,2.7228,.086,.1731,.1699,.3473,.2517,.5223,.0198,.0424,.4065,.9189,.157,.3269,.1901,.4511,.3615,.9109,.5238,1.3728,.3291,.9368,.6083,1.8911,.8425,2.8559,.6088,2.5082,.7634,3.8044,.8513,6.4185,.0396,1.18,.0262,2.3616-.0373,3.5405-.0302,.5621-.0717,1.1235-.1248,1.6838-.0288,.3046-.0655,.6082-.0966,.9125-.069,.6757,.0641-.349-.0487,.3839-.3457,2.2468-.8414,4.4643-1.5616,6.6223-.1498,.4489-.3087,.8949-.4772,1.3371-.0995,.2612-.2026,.5211-.3086,.7798,.2514-.6137-.0994,.2155-.1245,.2709-.4387,.9661-.9325,1.9039-1.4787,2.8135,1.4132-.3706,2.8265-.7411,4.2397-1.1117-.9644-.733,.6622,.5569,.5493,.5405,.0729,.0106-.0318,.1671,.0012-.2032,.0473-.5316,.0275-.6159,.1003-1.0522,.2079-1.2467,.5104-2.4798,.8759-3.6892,.639-2.1139,1.5103-4.1188,2.5632-6.0582,1.8533-3.4137,4.2321-6.4407,6.6384-9.4713,2.4177-3.0449,4.9157-6.0819,7.8127-8.6882,1.1714-1.0538,2.0197-1.7372,3.6485-2.5292,.4152-.2019-.471,.1487-.0446,.0266,.1799-.0515,.3557-.1184,.5367-.1679,.1904-.052,.3832-.0901,.5755-.1336,.4915-.1112-.4438,.025,.0657-.0128,.4105-.0305,.817-.0441,1.2286-.0311,.1601,.0051,1.3415,.1391,.9292,.0694,3.8569,.6519,7.0527,2.4056,10.4615,4.3616,3.6445,2.0913,7.2254,4.2906,10.9472,6.2459,8.4698,4.4498,18.5322,7.7931,28.0268,4.5799,4.7631-1.6119,8.911-4.7539,11.2734-9.2563,2.4148-4.6024,2.7898-9.7194,.7268-14.5063-.8741-2.0283-3.4987-1.709-4.8669-.6272-3.5196,2.7831-.7587,7.4571,1.3693,10.0614,1.9365,2.37,4.3879,4.3712,7.0198,5.923,5.3477,3.1531,11.8431,4.6496,18.0302,4.0688,6.3652-.5975,12.4161-3.1267,16.9224-7.7418,4.5179-4.627,7.132-10.737,7.9341-17.103,.8638-6.855-.6829-14.1642-4.7708-19.7969-1.4132,1.4132-2.8265,2.8265-4.2397,4.2397,11.6043,5.8384,25.8019,3.602,35.7925-4.4272,2.7507-2.2107,5.0886-4.9311,6.9179-7.9469,2.0739-3.419-3.2834-6.5373-5.3514-3.128Z"/></g><path d="M317.4172,211.0052c-1.5954,1.2558-2.7377,2.8719-2.938,4.9339-.195,2.0069,.5552,4.0344,1.5982,5.7183,1.9238,3.1062,4.864,5.3068,7.3155,7.9534,1.0093,1.0896,2.3438,2.5318,2.4288,4.1004,.1024,1.8891-1.7681,1.7399-3.1464,1.6723-3.969-.1946-7.7279-1.6515-10.9421-3.9523-2.1658-1.5503-4.2311,2.0317-2.0853,3.5676,3.5805,2.5629,7.7902,4.0687,12.1703,4.4573,2.025,.1796,4.2498,.2078,5.9593-1.0445,1.8133-1.3283,2.4302-3.6629,2.0444-5.8055-.713-3.9606-4.4255-6.8259-7.137-9.4768-1.3514-1.3212-2.669-2.7078-3.5237-4.4135-.3894-.7772-.7248-1.7469-.5548-2.6287,.1854-.9621,1.0056-1.5882,1.7324-2.1603,.8774-.6906,.7231-2.1984,0-2.9215-.8665-.8665-2.0418-.6924-2.9215,0h0Z"/><path d="M301.2644,185.3177c.5099-.0233,1.0194-.023,1.5289,.01,.2692,.0175,.5378,.0432,.8055,.0765-.1932-.0241-.2273-.0345-.0154,.0042,.1475,.0269,.2952,.0519,.4422,.0814,.4999,.1001,.9943,.2278,1.4803,.382,.2574,.0817,.5124,.1711,.7647,.2674,.0376,.0143,.3894,.1531,.1709,.0638-.2439-.0996,.2537,.1154,.248,.1128,.4628,.2147,.914,.4545,1.351,.7178,.2313,.1393,.4587,.285,.6816,.4374,.0991,.0677,.1961,.1382,.2945,.2069,.1492,.1042,.1721,.1229,.0132,.0014,.4274,.3269,.8315,.6913,1.2123,1.0712,.1698,.1694,.3351,.3432,.4956,.5214,.1004,.1114,.1985,.2248,.2949,.3397,.0512,.061,.314,.3902,.0705,.0741,.6571,.853,1.8064,1.3988,2.8265,.7411,.8425-.5432,1.4465-1.9108,.7411-2.8265-3.1783-4.1258-8.1448-6.6554-13.4064-6.4145-1.078,.0494-2.1174,.9149-2.0658,2.0658,.0482,1.0769,.9096,2.1188,2.0658,2.0658h0Z"/><path d="M334.3094,190.8281c.8799-.1763,2.1402-.1248,3.0515,.0873,1.2234,.2847,2.0327,.6247,3.091,1.2334,2.1188,1.2187,3.817,2.8675,5.6035,4.6374,.7926,.7852,2.13,.7915,2.9215,0,.7887-.7887,.7951-2.1338,0-2.9215-2.0748-2.0556-4.2559-4.1253-6.8517-5.5123-2.753-1.4709-5.8286-2.1267-8.9141-1.5084-1.0945,.2193-1.7234,1.5204-1.4429,2.5412,.3134,1.1403,1.4436,1.6628,2.5412,1.4429h0Z"/><g><path d="M300.651,251.7272c-1.1767,1.4992-3.1865,2.7593-4.9144,1.9551-1.8835-.8767-2.056-3.4895-1.6355-5.524,.5314-2.5709,1.9522-5.2704,4.3683-6.5772,6.9559-3.7621,4.1117,7.6869,2.1815,10.1462Z"/><path d="M299.1902,250.2664c-.2299,.2851-.4737,.5568-.7424,.8061-.0857,.0795-.4253,.3518-.1527,.1507-.1724,.1272-.3519,.245-.5374,.3522-.1043,.0602-.2161,.1087-.3191,.17-.1984,.1181,.0467-.0204,.0852-.0322-.167,.051-.3307,.1042-.4998,.1487-.3885,.1021,.2713-.0035-.1246,.005-.0408,.0009-.3305,.0066-.0615,.0139,.2746,.0074-.0948-.0387-.1423-.0405-.1886-.0072,.017,.0292,.0837,.0581-.0705-.0306-.1361-.0712-.204-.1066-.0666-.0347-.1248-.0855-.1914-.119,.0425,.0213,.2437,.255,.1314,.0938-.042-.0602-.3344-.4075-.1779-.1675,.1538,.2358-.1057-.2082-.1496-.285-.1838-.3216,.0747,.3037-.0193-.0619-.0449-.1748-.0945-.3482-.1375-.5238-.0188-.0767-.0257-.1556-.0434-.2324,.0041,.0176,.0327,.3923,.0232,.153-.0076-.1889-.0288-.3767-.032-.5661-.0055-.3273,.0157-.6521,.0427-.978,.0341-.4112-.0663,.3108,.0132-.0884,.0377-.1892,.0718-.3786,.1149-.5667,.0797-.3478,.1745-.692,.2842-1.0316,.0649-.2009,.1382-.3986,.21-.5971,.0091-.0252,.1207-.3059,.0323-.0903-.0878,.2143,.0622-.1339,.0791-.1701,.1543-.3307,.3247-.6537,.5123-.9668,.0937-.1563,.1914-.31,.2937-.4608,.0705-.1041,.4071-.5123,.1645-.2376,.2403-.2721,.4742-.5444,.74-.7929,.132-.1234,.2692-.2409,.4088-.3556-.0306,.0252-.2531,.1682-.0571,.0506,.1292-.0775,.2495-.1715,.3785-.2504,.259-.1584,.5301-.288,.7994-.4268,.3381-.1744-.3822,.1328-.0432,.0141,.1227-.043,.2433-.0908,.3675-.1297,.1886-.0591,.3881-.0827,.5751-.1408,.1128-.035-.5532,.0158-.2033,.0349,.084,.0046,.1962,.0117,.2791-.0001,.3012-.043-.6104-.0198-.2225-.0285,.0662-.0015,.1354,.06,.1987,.0566,.0979-.0052-.5196-.244-.2517-.1013,.3087,.1645-.1125-.0485-.1766-.1622,.0291,.0517,.1091,.0791,.1435,.13,.1866,.2763-.1408-.1742-.1527-.2183,.0279,.1034,.1645,.2941,.2277,.3846,.0577,.0826-.1824-.5422-.0968-.2234,.023,.0858,.0568,.1694,.0806,.2553,.0474,.1707,.0688,.3453,.109,.517,.0282,.1204-.0513-.5793-.0313-.2067,.0048,.0892,.0151,.1783,.0202,.2676,.0116,.2021,.0146,.4046,.0115,.607-.0068,.4347-.0833,.8641-.0973,1.2964,.0069-.2126,.0708-.4714,.0153-.1366-.0172,.1039-.0335,.2078-.0517,.3115-.0398,.2264-.0844,.452-.1332,.6767-.2064,.9517-.4838,1.8907-.8377,2.7982-.0345,.0885-.1917,.4621-.035,.0971,.1557-.3626,.0012-.0054-.0374,.0802-.0847,.1879-.1738,.3739-.2695,.5564-.1513,.2886-.3173,.5698-.5164,.8282-.6623,.8598-.1597,2.3505,.7411,2.8265,1.0953,.5787,2.1194,.1768,2.8265-.7411,.558-.7245,.9066-1.6204,1.2404-2.4612,.3774-.9507,.6696-1.9378,.8834-2.9378,.4492-2.101,.8104-4.7686-.3694-6.7126-1.6133-2.6584-4.9045-2.0519-7.1556-.6301-3.3024,2.0859-5.3719,6.414-5.1781,10.2986,.1182,2.3695,1.2238,4.7485,3.6589,5.4746,2.4782,.7389,5.0693-.7184,6.5973-2.6134,.6771-.8397,.882-2.1119,0-2.9215-.7522-.6905-2.1971-.8983-2.9215,0Z"/></g></svg>