<?xml version="1.0" encoding="UTF-8"?><svg id="Layer_2" xmlns="http://www.w3.org/2000/svg" width="1000" height="1000" viewBox="0 0 1000 1000"><polygon points="829.4087 805.3699 829.4087 738.4287 651.7117 738.4287 651.7117 671.4872 474.0147 671.4872 474.0147 604.546 296.3178 604.546 296.3178 537.6045 79.3683 537.6045 79.3683 595.4223 79.3683 604.546 79.3683 872.3113 790.1562 872.3113 812.4346 872.3113 971.5662 872.3113 971.5662 805.3699 829.4087 805.3699" style="fill:#f4d13b;"/><g><path d="M761.3842,198.2768c-1.1319,3.397-6.1083,.031-3.3563-2.436,1.8788-1.6842,4.0736,.2762,3.3563,2.436Z"/><path d="M759.8497,197.8537c-.0248,.0731-.0517,.1451-.081,.2165l.1604-.3801c-.0809,.1898-.1797,.3694-.3038,.5344l.2488-.3221c-.098,.1261-.2082,.2396-.3337,.3385l.3221-.2488c-.1172,.0892-.243,.1625-.3786,.2199l.3801-.1604c-.1403,.0566-.2854,.0942-.4353,.1144l.423-.0568c-.1687,.0201-.3374,.0178-.5058-.0037l.423,.0568c-.2091-.0293-.4113-.087-.6061-.168l.3801,.1604c-.2159-.0925-.4176-.2116-.6039-.3545l.3221,.2488c-.1776-.1392-.3374-.2977-.476-.4758l.2488,.3221c-.1177-.1548-.217-.3209-.2943-.4995l.1604,.3801c-.0672-.1608-.1145-.3272-.1394-.4998l.0568,.423c-.0203-.1574-.0211-.3147-.0021-.4722l-.0568,.423c.0229-.167,.0676-.328,.1318-.4839l-.1604,.3801c.0792-.1841,.1826-.3537,.3047-.5123l-.2488,.3221c.1557-.1968,.3349-.3714,.5315-.5273l-.3221,.2488c.1802-.1378,.3713-.2541,.58-.3433l-.3801,.1604c.1596-.0644,.3226-.1106,.4928-.1364l-.423,.0568c.1717-.0223,.3421-.0227,.5137,0l-.423-.0568c.1525,.0235,.2989,.0641,.442,.1219l-.3801-.1604c.1532,.0656,.2952,.1483,.4287,.248l-.3221-.2488c.1443,.1121,.2718,.2394,.3853,.3825l-.2488-.3221c.1228,.1605,.2228,.333,.3025,.5187l-.1604-.3801c.0799,.1954,.134,.3965,.1641,.6054l-.0568-.423c.0281,.2222,.0277,.4432,.0008,.6655l.0568-.423c-.0242,.1742-.0637,.3436-.1176,.5109-.1235,.3827-.0394,.8848,.1604,1.2262,.1932,.3301,.5717,.6449,.951,.7313,.8715,.1985,1.6838-.2628,1.9575-1.1114,.2649-.8213,.2772-1.7995-.0394-2.6089-.2035-.5203-.4338-.9239-.8074-1.3455-.0905-.1021-.1904-.1925-.2974-.2768-.2011-.1585-.3995-.3256-.6296-.4411-.8461-.4248-1.8514-.5616-2.7544-.2184-.5702,.2167-1.0309,.4975-1.4878,.9066-.2845,.2547-.53,.5636-.7379,.882-.7312,1.1201-.7163,2.6557,.0237,3.7682,.3649,.5485,.8148,.9943,1.3756,1.3436,.5649,.3519,1.1807,.5201,1.8354,.5852,.343,.0341,.6977-.0131,1.0318-.0867,.1645-.0362,.3137-.1021,.4689-.1676,.1565-.066,.3117-.1266,.4545-.2191,.7827-.507,1.2675-1.2488,1.564-2.1214,.1282-.3772,.0363-.8901-.1604-1.2262-.1932-.3301-.5717-.6449-.951-.7313-.4074-.0928-.8646-.0727-1.2262,.1604-.3602,.2322-.5925,.5428-.7313,.951Z"/></g><g><path d="M739.1058,194.0332c-1.1319,3.397-6.1083,.031-3.3563-2.436,1.8788-1.6842,4.0736,.2762,3.3563,2.436Z"/><path d="M737.5713,193.6102c-.0248,.0731-.0517,.1451-.081,.2165l.1604-.3801c-.0809,.1898-.1797,.3694-.3038,.5344l.2488-.3221c-.098,.1261-.2082,.2396-.3337,.3385l.3221-.2488c-.1172,.0892-.243,.1625-.3786,.2199l.3801-.1604c-.1403,.0566-.2854,.0942-.4353,.1144l.423-.0568c-.1687,.0201-.3374,.0178-.5058-.0037l.423,.0568c-.2091-.0293-.4113-.087-.6061-.168l.3801,.1604c-.2159-.0925-.4176-.2116-.6039-.3545l.3221,.2488c-.1776-.1392-.3374-.2977-.476-.4758l.2488,.3221c-.1177-.1548-.217-.3209-.2943-.4995l.1604,.3801c-.0672-.1608-.1145-.3272-.1394-.4998l.0568,.423c-.0203-.1574-.0211-.3147-.0021-.4722l-.0568,.423c.0229-.167,.0676-.328,.1318-.4839l-.1604,.3801c.0792-.1841,.1826-.3537,.3047-.5123l-.2488,.3221c.1557-.1968,.3349-.3714,.5315-.5273l-.3221,.2488c.1802-.1378,.3713-.2541,.58-.3433l-.3801,.1604c.1596-.0644,.3226-.1106,.4928-.1364l-.423,.0568c.1717-.0223,.3421-.0227,.5137,0l-.423-.0568c.1525,.0235,.2989,.0641,.442,.1219l-.3801-.1604c.1532,.0656,.2952,.1483,.4287,.248l-.3221-.2488c.1443,.1121,.2718,.2394,.3853,.3825l-.2488-.3221c.1228,.1605,.2228,.333,.3025,.5187l-.1604-.3801c.0799,.1954,.134,.3965,.1641,.6054l-.0568-.423c.0281,.2222,.0277,.4432,.0008,.6655l.0568-.423c-.0242,.1742-.0637,.3436-.1176,.5109-.1235,.3827-.0394,.8848,.1604,1.2262,.1932,.3301,.5717,.6449,.951,.7313,.8715,.1985,1.6838-.2628,1.9575-1.1114,.2649-.8213,.2772-1.7995-.0394-2.6089-.2035-.5203-.4338-.9239-.8074-1.3455-.0905-.1021-.1904-.1925-.2974-.2768-.2011-.1585-.3995-.3256-.6296-.4411-.8461-.4248-1.8514-.5616-2.7544-.2184-.5702,.2167-1.0309,.4975-1.4878,.9066-.2845,.2547-.53,.5636-.7379,.882-.7312,1.1201-.7163,2.6557,.0237,3.7682,.3649,.5485,.8148,.9943,1.3756,1.3436,.5649,.3519,1.1807,.5201,1.8354,.5852,.343,.0341,.6977-.0131,1.0318-.0867,.1645-.0362,.3137-.1021,.4689-.1676,.1565-.066,.3117-.1266,.4545-.2191,.7827-.507,1.2675-1.2488,1.564-2.1214,.1282-.3772,.0363-.8901-.1604-1.2262-.1932-.3301-.5717-.6449-.951-.7313-.4074-.0928-.8646-.0727-1.2262,.1604-.3602,.2322-.5925,.5428-.7313,.951Z"/></g><path d="M747.1975,195.6422c.2055,.9154,.1524,1.6335-.6022,2.2458-.7708,.6254-1.8029,.8974-2.7542,1.092-2.3184,.4742-4.7186,.334-7.0343,.8584-2.322,.5258-4.5962,1.9794-4.7762,4.5719-.1738,2.5039,2.3921,4.1747,4.3061,5.2414,2.3474,1.3083,4.9477,2.0289,7.6248,2.1905,.8588,.0519,1.5913-.7685,1.5913-1.5913,0-.9046-.73-1.5393-1.5913-1.5913-2.6323-.1589-5.1568-1.0651-7.3202-2.5678-.5831-.405-1.7223-1.0316-1.3446-1.8756,.4468-.9985,1.94-1.2415,2.8793-1.416,2.71-.5033,5.5432-.2359,8.1643-1.2202,1.326-.4979,2.5357-1.2397,3.3619-2.4155,.9176-1.3057,.9003-2.8714,.5642-4.3685-.4484-1.9976-3.5175-1.1522-3.0689,.8461h0Z"/><path d="M780.6757,434.7891c-12.3055,20.7641-18.6761,44.2779-22.119,68.0139-3.4072,23.4895-5.3086,47.4444-2.3094,71.0761,3.0403,23.9555,10.3582,47.1788,22.1444,68.2827,3.1459,5.6329,6.5629,11.1243,10.3684,16.3373,3.3419,4.578,7.1244,8.6417,10.983,12.7773,6.8038,7.2923,14.9804,20.0153,6.6697,29.3861-3.1661,3.57-8.5581,6.0609-13.3448,6.158-1.7555,.0356-3.873-.1707-5.1822-1.4824-.391-.3918-1.5878-2.2348-.6774-2.7626,1.2351-.7162,1.7538,2.2979,1.7957,2.7366,.5301,5.5511-2.9533,11.0207-6.63,14.8231-4.2252,4.3696-8.7781,8.4558-13.4433,12.3478-9.5527,7.9694-19.986,15.2732-31.1073,20.8938-4.6668,2.3585-11.3621,4.5719-15.6141,.1737-2.2766-2.3549-1.5762-5.4433-.9345-8.3248,.7214-3.2391,1.2902-6.4871,1.5768-9.7963,1.0969-12.6652-1.9836-24.7052-6.9894-36.2411-2.4521-5.6508-5.223-11.155-7.7762-16.7595-2.6689-5.8583-4.8488-11.8883-6.9441-17.9714-8.6529-25.121-15.2256-50.9706-19.4407-77.2071-8.1216-50.5528-7.183-102.6468,4.6083-152.5513,5.7435-24.3085,14.0095-48.0379,24.8883-70.5295,8.7553-18.1013,18.8472-35.9512,31.3634-51.7417,11.5728-14.6003,25.5745-27.6246,42.6771-35.4164,18.9381-8.6281,40.1374-9.1652,60.1994-4.5108,43.3322,10.053,80.2357,42.6212,101.5454,80.9111,11.1988,20.1223,18.5722,42.5007,21.2783,65.3848,1.4935,12.6294,1.4359,25.4497,1.901,38.1481,.7113,19.4187,1.5887,38.8325,2.3839,58.2479,.0479,1.1692,.1621,2.3427-.1947,3.4809-1.6242,5.181-8.8887,4.9093-10.6112-.0164-.7354-2.103-4.0129-2.4296-4.6034,0-1.5895,6.5395-10.8353,5.6987-11.0569-1.0529-.1104-3.3649,.0053-6.7544,.0079-10.1207,.0057-7.3758,.0115-14.7515,.0172-22.1273,.002-2.5936-4.307-3.3701-4.6887-.6346-1.5202,10.8943-3.0404,21.7885-4.5607,32.6828-.3727,2.6712-1.2456,5.2365-4.134,6.119-4.2163,1.2883-7.536-2.492-7.0853-6.4981,.6342-5.6372,1.8061-11.2658,2.704-16.866,.8925-5.5671,1.785-11.1342,2.6776-16.7012,.49-3.0561-3.4462-4.1224-4.6034-1.2691-2.7011,6.6598-5.4023,13.3196-8.1034,19.9795-1.4773,3.6423-2.9545,7.2846-4.4318,10.9269-.2543,.627-.4794,1.286-.787,1.8859-1.6914,3.2983-6.079,4.2243-8.8428,1.6409-2.613-2.4425-1.6362-5.4696-.5045-8.26,1.1784-2.9055,2.3569-5.811,3.5353-8.7165,3.5977-8.8704,7.1955-17.7408,10.7932-26.6112,2.4324-5.9973,4.8648-11.9945,7.2973-17.9918,.6998-1.7255-1.3351-3.4081-2.9363-2.9363-5.777,1.7024-11.5373,3.6889-17.3886,5.1125-6.5138,1.5848-12.0203-5.5698-8.5606-11.4251,1.7263-2.9217,5.8181-4.4728,8.664-6.0693,3.1795-1.7836,6.359-3.5673,9.5385-5.3509,.8701-.4881,1.4339-1.7196,1.097-2.6956-4.4926-13.014-11.502-25.5181-19.2502-36.828-15.2847-22.3106-36.3598-41.497-62.7633-49.2207-18.7266-5.478-38.5508-4.5304-57.2454,.5722-2.9603,.808-1.7037,5.4148,1.2691,4.6034,16.3066-4.4508,33.4915-5.7004,50.0431-1.8024,13.6131,3.206,26.3016,9.6784,37.2274,18.3721,17.5461,13.9616,30.9275,32.7847,40.6574,52.8547,2.2636,4.669,3.845,8.0435,5.4586,12.7177,.3657-.8985,.7313-1.7971,1.097-2.6956-3.2483,1.8222-6.4967,3.6445-9.745,5.4667-3.9127,2.1949-8.3626,4.0629-10.5038,8.2809-3.2268,6.3564-.4411,14.3011,6.1012,17.1661,4.4877,1.9652,8.636,.5357,13.0061-.7521,4.1889-1.2344,8.3778-2.4688,12.5668-3.7032l-2.9363-2.9363c-6.1281,15.1093-12.2563,30.2185-18.3844,45.3278-2.5157,6.2025-7.4203,14.0365-2.1752,20.1835,5.1747,6.0646,14.5724,3.9443,17.5324-3.0894,1.0185-2.4201,1.9746-4.8685,2.9614-7.3016,3.4388-8.4785,6.8776-16.9571,10.3164-25.4356-1.5345-.423-3.0689-.8461-4.6034-1.2691-1.8061,11.2652-3.7682,22.5164-5.4197,33.8051-.7174,4.9038,1.5209,9.8638,6.2804,11.7834,5.2413,2.114,11.3647-.5424,13.4342-5.7895,.7436-1.8854,.8495-4.0295,1.1274-6.0209,.5006-3.5876,1.0013-7.1752,1.5019-10.7629,.8937-6.4045,1.7874-12.809,2.6811-19.2135-1.5629-.2115-3.1258-.423-4.6887-.6346-.0051,6.5883-.0103,13.1766-.0154,19.7649-.0028,3.6515-.0057,7.303-.0085,10.9545-.0029,3.6859,.7317,7.1125,3.7504,9.6121,5.9692,4.9427,14.8951,1.5931,16.6828-5.7616h-4.6034c1.7019,4.8667,6.3159,8.0846,11.5511,7.2464,4.8309-.7735,8.4865-4.9518,8.691-9.8328,.1307-3.1204-.2297-6.3213-.3572-9.4366-.553-13.5024-1.1059-27.0048-1.6589-40.5072-.343-8.3752-.6393-16.75-.9224-25.1276-.2558-7.5687-.4539-15.1303-1.3111-22.6631-1.3752-12.0851-3.9264-24.0196-7.672-35.5932-14.6091-45.1411-47.368-85.3034-90.4194-106.0188-20.3955-9.8138-43.7935-15.4196-66.4592-12.4827-20.0554,2.5987-38.0705,12.1815-52.91,25.7069-15.1609,13.8183-26.9831,31.0367-37.1043,48.7628-12.4379,21.7833-22.575,44.8301-30.0842,68.7682-16.1026,51.3329-20.2674,105.99-14.1859,159.3466,3.2164,28.2196,9.1457,56.1079,17.5401,83.2383,4.0412,13.0609,8.5094,25.9178,14.3578,38.2866,5.8059,12.2789,11.6457,24.5215,12.0869,38.3574,.099,3.1047-.023,6.2219-.3901,9.3069-.4351,3.6555-1.6409,7.1927-1.9773,10.8513-.5202,5.6576,2.8532,10.1661,8.1346,11.9745,5.6451,1.9329,11.5355-.2218,16.5813-2.8113,5.9421-3.0495,11.6484-6.623,17.1474-10.406,5.2524-3.6134,10.3279-7.494,15.2055-11.599,4.9628-4.1768,10.1412-8.5397,14.3422-13.5021,3.5671-4.2135,6.16-9.3369,6.4469-14.9255,.2261-4.4043-2.6733-10.9759-8.2387-8.7542-5.0218,2.0046-3.6891,8.6445-.1429,11.3326,3.5599,2.6985,8.7042,2.5406,12.8044,1.3613,5.2249-1.5028,10.31-4.4131,13.3459-9.0352,3.071-4.6755,3.494-10.6198,2.3606-15.9752-2.5387-11.9952-13.2647-19.3084-20.2214-28.6296-7.8029-10.455-14.2546-22.0723-19.3965-34.0512-10.2037-23.7712-15.0529-49.8804-14.816-75.7097,.1164-12.6967,1.3843-25.4668,2.9786-38.0557,1.6106-12.7177,3.9727-25.3772,7.5876-37.6858,3.5381-12.0468,8.3602-23.6546,14.7667-34.4649,1.5699-2.6491-2.5554-5.0533-4.1222-2.4095h0Z"/><g><path d="M740.7266,236.9175s25.2946,6.5587,36.4339-.8674c-2.1218,7.4261-18.0349,14.3218-18.0349,14.3218,0,0-1.3011-7.6024-6.7506-9.1056-5.4495-1.5032-11.6483-4.3488-11.6483-4.3488Z"/><path d="M740.0921,239.2192c3.1042,.8022,6.288,1.3596,9.4594,1.8111,6.3759,.9078,12.8516,1.3574,19.2505,.4117,3.3416-.4939,6.7135-1.4683,9.5632-3.3309-1.1688-.8985-2.3376-1.7971-3.5065-2.6956-.2125,.7004-.5949,1.4407-1.2534,2.3298-.3742,.5053-1.4353,1.6168-2.1536,2.2734-1.7324,1.5838-3.6297,2.8843-5.6687,4.1387-2.5176,1.5489-5.1489,2.9741-7.8623,4.1534,1.1688,.4755,2.3376,.951,3.5065,1.4265-.619-3.5334-2.5388-7.2056-5.4562-9.3348-1.1427-.834-2.42-1.2705-3.7636-1.667-1.6728-.4936-3.3213-1.0685-4.9528-1.6842-1.8922-.7141-3.5392-1.3783-5.3233-2.195-1.1714-.5362-2.5698-.3337-3.2658,.8563-.6007,1.0271-.3214,2.7267,.8563,3.2658,1.7079,.7818,3.448,1.5007,5.1958,2.1878,1.4534,.5713,2.9195,1.1116,4.4022,1.6019,1.271,.4203,2.7073,.664,3.7561,1.292,.6773,.4056,1.3711,1.1048,1.765,1.6539,.301,.4195,.5672,.8658,.8109,1.3206,.117,.2182,.2243,.4402,.3332,.6625,.0065,.0133,.305,.7061,.1342,.2886,.395,.9658,.7241,1.9904,.9045,3.0206,.2938,1.6772,2.2399,1.977,3.5065,1.4265,2.971-1.2913,5.8513-2.8677,8.5827-4.6038,4.1937-2.6655,9.0359-6.1557,10.5492-11.1446,.5882-1.939-1.759-3.8378-3.5065-2.6956-4.6209,3.0202-10.6702,3.3411-16.2492,3.1927-5.3147-.1414-10.0205-.7871-15.1752-1.8493-1.0605-.2185-2.1216-.4456-3.1702-.7166-2.9764-.7692-4.2462,3.834-1.2691,4.6034Z"/></g><path d="M344.955,592.2897c3.1614,5.1254,10.4911,4.5904,14.2548,.4925,2.0978-2.284,3.3395-5.3209,3.8976-8.3443,.5728-3.1032,.3343-6.698-2.6367-8.5229-2.7196-1.6704-6.5783-.7139-7.4321,2.5827-.7385,2.8515,1.3071,5.8253,3.7867,7.0455,5.1234,2.5213,11.0177-.1698,14.2526-4.4318,4.7338-6.2369,2.7344-14.7444,.5104-21.5433-.9509-2.9071-5.5624-1.6627-4.6034,1.2691,1.4179,4.3347,2.9368,9.1661,1.9032,13.754-.7062,3.1347-2.8946,5.9387-6.0558,6.889-1.2466,.3748-2.526,.4416-3.7398-.1315-.6974-.3293-.9295-.7075-1.3462-1.3195-.241-.3539,.0327-.3572-.1809-.2097-.1485,.1025,.0818-.0413,.2218,.0626,.1931,.1433,.366,.1902,.5139,.3902,.4684,.6336,.3674,1.7646,.2734,2.4924-.2435,1.885-.8845,3.8297-1.8725,5.4534-.9273,1.524-2.3363,2.8259-4.1693,3.0343-1.285,.1461-2.7371-.2078-3.4553-1.3723-1.61-2.6102-5.7411-.2152-4.1222,2.4095h0Z"/><path d="M731.1601,716.8726c5.8777-2.5184,10.0764-10.0442,6.8703-16.1249-2.7471-5.2101-10.2336-7.1914-14.7469-3.131-1.2686,1.1413-.6938,3.6718,1.0533,3.9896,3.452,.6278,6.5813-.861,8.6194-3.6644,1.9671-2.7057,2.2163-6.2531,.9907-9.3218-2.7798-6.9603-10.0683-9.2624-16.7518-10.8056-2.9899-.6904-4.2662,3.9114-1.2691,4.6034,4.5125,1.0419,10.0756,2.1547,12.7692,6.3664,.9928,1.5524,1.6879,3.5484,.9659,5.3577-.6063,1.5193-2.2739,3.1849-4.0551,2.861,.3511,1.3299,.7022,2.6597,1.0533,3.9896,2.0564-1.85,6.1258-.4178,7.3136,2.2798,1.7131,3.8906-1.8157,8.0187-5.2222,9.4782-1.1852,.5078-1.4496,2.2516-.8563,3.2658,.7168,1.2256,2.076,1.3661,3.2658,.8563h0Z"/><path d="M486.8971,180.3621c2.7112,2.7843,5.4224,5.5686,8.1336,8.353,1.5804,1.623,3.1608,3.246,4.7411,4.869,1.3198,1.3554,2.5308,2.6979,2.6609,4.719,.1253,1.947-.7288,3.838-2.359,4.9429-1.7575,1.1912-3.7895,1.1653-5.6984,.3825-.8578-.3518-2.0022,.1772-2.509,.8554-.625,.8364-.5833,1.7243-.1866,2.6511,.9486,2.2162,.1885,4.9282-1.6577,6.4257-1.8256,1.4808-4.3208,1.5867-6.3408,.458-2.0717-1.1577-4.4763,1.1734-3.2658,3.2658,1.4167,2.449,.9581,5.5918-1.338,7.3607-2.1551,1.6603-5.2883,1.4556-7.2403-.4097-1.6632-1.5895-3.2396-3.2799-4.8545-4.9179-4.9864-5.0575-10.0018-10.088-14.9599-15.1734-1.5932-1.6341-2.2274-3.9914-1.3401-6.1607,1.2955-3.1671,5.0956-4.2976,8.0011-2.6735,2.0715,1.158,4.4765-1.1736,3.2658-3.2658-1.2218-2.1114-1.0966-4.7319,.5412-6.6017,1.749-1.9967,4.3854-2.2732,6.7415-1.3077,.8579,.3516,2.0021-.1771,2.509-.8554,.6249-.8363,.5833-1.7243,.1866-2.6511-1.0549-2.4642,.0123-4.8703,1.8099-6.5854,1.3497-1.2878,2.6582-2.6512,4.0728-3.8685,3.595-3.0937,11.1841-5.9277,14.9383-1.9237,2.1059,2.246,5.4767-1.1349,3.3757-3.3757-4.527-4.8282-11.9316-3.6208-17.2799-.9925-3.4855,1.7128-6.3483,4.587-9.0536,7.3296-3.1728,3.2167-3.7216,7.77-1.9853,11.8258l2.6956-3.5065c-3.9804-1.6312-8.8419-.4845-11.629,2.8136-2.8962,3.4273-3.2896,8.2296-1.045,12.1088,1.0886-1.0886,2.1772-2.1772,3.2658-3.2658-3.8112-2.1304-8.4361-1.7969-11.8378,.965-3.1558,2.5621-4.5087,7.0286-3.309,10.9182,1.0737,3.4811,4.2374,6.0074,6.718,8.5234,3.4939,3.5438,6.9878,7.0875,10.4817,10.6313,1.327,1.346,2.6541,2.6919,3.9811,4.0379,.9703,.9842,1.9003,1.9699,3.0801,2.722,3.9114,2.4933,9.1326,1.8828,12.519-1.2027,3.6082-3.2877,4.2123-8.7574,1.8113-12.908l-3.2658,3.2658c3.9351,2.1989,8.7092,1.7528,12.126-1.2045,3.563-3.0838,4.1892-8.0405,2.4042-12.2109-.8985,1.1688-1.7971,2.3376-2.6956,3.5065,4.6884,1.9226,10.4013-.0611,12.8345-4.5301,2.2513-4.1349,1.3462-9.1527-1.8397-12.5142-3.2611-3.4409-6.6177-6.7961-9.925-10.1926-1.3011-1.3362-2.6022-2.6724-3.9033-4.0086-2.1471-2.205-5.5213,1.1722-3.3757,3.3757h0Z"/><path d="M476.9525,192.3567c4.4141,4.3444,8.8282,8.6887,13.2423,13.0331,.6266,.6167,1.2532,1.2334,1.8797,1.85,.8909,.8769,2.4989,.9552,3.3757,0,.869-.9466,.9509-2.4399,0-3.3757-4.4141-4.3444-8.8282-8.6887-13.2423-13.0331-.6266-.6167-1.2532-1.2334-1.8797-1.85-.8909-.8769-2.4989-.9552-3.3757,0-.869,.9466-.9509,2.4399,0,3.3757h0Z"/><path d="M466.7234,203.1282c4.4141,4.3444,8.8282,8.6887,13.2423,13.0331,.6266,.6167,1.2532,1.2334,1.8797,1.85,.8909,.8769,2.4989,.9552,3.3757,0,.869-.9466,.9509-2.4399,0-3.3757-4.4141-4.3444-8.8282-8.6887-13.2423-13.0331-.6266-.6167-1.2532-1.2334-1.8797-1.85-.8909-.8769-2.4989-.9552-3.3757,0-.869,.9466-.9509,2.4399,0,3.3757h0Z"/><path d="M956.8563,483.7462c.1093,10.9329,.2185,21.8659,.3278,32.7988,.0155,1.5463,.0309,3.0927,.0464,4.639,.0307,3.0702,4.8047,3.0779,4.7739,0-.1093-10.9329-.2185-21.8659-.3278-32.7988-.0155-1.5463-.0309-3.0927-.0464-4.639-.0307-3.0702-4.8047-3.0779-4.7739,0h0Z"/><path d="M478.7887,225.9718c-.1699,1.9651,1.3586,4.4216,2.1516,6.0585,4.1141,8.4919,9.4531,16.4513,14.6574,24.295,9.9227,14.9551,20.115,29.4729,33.2716,41.798,12.8164,12.0064,27.3786,22.1585,42.8535,30.4329,16.5835,8.8671,34.341,15.762,52.8187,19.4203,13.3654,2.6461,27.8355,4.185,41.4663,2.7623,10.6092-1.1073,26.1021-5.7012,26.2371-18.9657,.0348-3.4185-1.6682-6.9957-5.1349-8.0634-3.37-1.0379-7.1139,.4751-9.4035,3.0181-2.867,3.1845-3.4283,7.6169-4.3741,11.619-.8585,3.6326-2.0095,7.2215-3.5643,10.6183-11.8697,25.9323-41.5084,33.4285-67.6966,33.7629-18.4853,.2361-36.7819,.9726-55.069,3.9247-18.4803,2.9833-36.6302,7.9356-53.8518,15.3112-31.371,13.4355-58.0855,35.4155-79.8795,61.4561s-38.9911,55.6302-53.7982,86.1025c-6.5003,13.3774-12.8002,31.213-28.4202,36.1695-7.7528,2.4601-17.5081,3.5871-20.7781,12.3722-2.0426,5.4876,1.1071,9.0123,5.2713,12.0717,8.8964,6.536,19.7169,10.825,29.7399,15.3465,8.8385,3.9871,18.1642,6.6802,27.7799,7.9418,4.7444,.6225,9.5586,.9378,14.3444,.7759,3.7643-.1273,7.7243-.6878,10.7844-3.0559,4.8626-3.7629,5.059-12.2323-1.2382-14.5844-1.466-.5476-3.0377,.8593-3.0215,2.3017,.1335,11.9258,10.8043,22.5414,22.8192,22.3872,11.549-.1482,18.6364-8.9374,20.5887-19.5977,1.0858-5.9289,.869-11.9291,1.2198-17.9198,.4453-7.6047,1.569-15.1531,3.7587-22.4607,4.0518-13.5222,11.6352-26.0688,20.7456-36.7791,18.9091-22.2297,44.6768-36.2156,72.1781-45.0081,28.9925-9.2693,59.2994-13.2347,89.257-18.0145,28.2616-4.5092,56.6765-10.0419,83.16-21.2227,26.1015-11.0195,48.6705-27.851,65.4118-50.8265,17.2215-23.6344,27.0676-51.1832,33.5538-79.4678,7.2617-31.6665,10.1234-64.3281,6.763-96.7033-1.4855-14.3122-4.0458-29.1514-11.9823-41.4539-6.8017-10.5434-17.5556-19.5986-29.5772-23.4774-5.701-1.8394-12.0258-2.3432-17.7836-.452-5.573,1.8305-10.3686,5.5429-14.2026,9.9161-7.9993,9.1245-12.4257,20.6054-13.9834,32.5322-.9794,7.4983-1.0227,16.101,3.9906,22.2849,3.3987,4.1923,8.5101,6.1141,13.487,7.7338,4.2869,1.3951,9.2198,2.6938,11.7715,6.2919,1.6087,2.2684,2.121,5.059,2.1798,7.7974,.02,.9305-.0024,1.8664-.0729,2.7946-.0527,.694,.0892-.151-.0919,.6224-.0853,.3644-.1825,.7202-.2869,1.0793-.0487,.1675-.1136,.3308-.1731,.4946-.1887,.5194,.1052-.204-.0663,.1673-1.4584,3.1575-4.0772,5.4778-7.0089,7.4353-4.2173,2.8159-8.9267,4.8299-13.719,6.4388-13.3751,4.4902-27.6673,6.1566-41.7233,6.3419-17.4945,.2306-35.0162-2.0235-51.8719-6.7183-18.577-5.1742-36.2879-13.4081-51.8751-24.8063-8.3007-6.0699-15.9278-13.0763-22.7288-20.7873-3.5851-4.0648-6.9307-8.3313-10.0233-12.7823-3.6184-5.2078-6.6855-10.7406-10.1004-16.0769-4.4868-7.0114-9.3284-14.0288-15.226-19.9405l-14.2387-14.2725c-5.7686-5.7823-11.5372-11.5646-17.3058-17.3469-2.8864-2.8932-5.6707-5.9661-8.7069-8.7046-4.5857-4.1359-11.7768-3.4884-15.4398,1.5323-3.0748,4.2145-2.279,9.7801,1.1968,13.4585,4.3639,4.6183,8.9919,9.0133,13.4792,13.5112,3.8335,3.8426,7.667,7.6852,11.5005,11.5278,2.1727,2.1779,5.5491-1.1971,3.3757-3.3757-8.2992-8.319-16.8111-16.4695-24.917-24.9762-3.6735-3.8551-.8574-10.6383,4.7915-9.5926,1.9639,.3636,3.1787,1.8097,4.5052,3.1394,4.3891,4.3995,8.7782,8.799,13.1672,13.1985,9.0277,9.0491,18.4454,17.8392,27.1429,27.2074,8.0545,8.6756,13.5839,19.2649,19.9701,29.1209,5.6859,8.7751,12.2826,16.9839,19.6807,24.3751,13.7592,13.7464,30.2483,24.6307,48.1015,32.2955,16.6097,7.1309,34.2114,11.6029,52.1633,13.6209,15.5668,1.7499,31.3819,1.6205,46.8753-.7604,11.3483-1.7439,23.2587-4.6381,33.1323-10.7341,3.432-2.119,6.7105-4.7324,8.9374-8.1416,2.5817-3.9524,2.7369-8.7586,1.9431-13.3044-.9492-5.4357-4.3896-9.5493-9.32-11.8805-4.4357-2.0973-9.4732-2.9933-13.764-5.1531-4.946-2.4896-7.6292-6.7193-8.2835-12.2765-1.2113-10.2883,1.771-21.7112,6.608-30.7323,5.5618-10.3726,14.9137-20.2148,27.6616-18.8432,12.2378,1.3167,23.8356,10.4283,30.9381,20.0587,8.5619,11.6093,11.4273,26.2438,12.9593,40.2934,1.7361,15.9208,2.018,31.9892,.9317,47.9656-1.0747,15.807-3.5067,31.4905-6.967,46.9464-3.2009,14.2975-7.0725,28.4933-12.5559,42.0979-10.2663,25.4712-26.1029,49.0761-47.8776,66.0853-21.9795,17.1692-48.6694,26.9624-75.5223,33.4811-28.1765,6.84-57.0258,10.0873-85.5283,15.2046-28.9858,5.2041-58.0975,12.4574-83.9835,26.9435-22.9465,12.8411-42.8539,32.4112-54.1784,56.3125-6.2987,13.2939-8.8607,27.4785-9.2252,42.1117-.2308,9.2627-.6586,22.1462-10.8504,26.2034-11.057,4.4016-23.8794-4.6599-24.011-16.4199-1.0072,.7672-2.0144,1.5345-3.0215,2.3017,3.011,1.1247,.7685,5.5379-.982,6.6257-3.3168,2.0612-7.9362,1.7311-11.671,1.6436-9.1949-.2152-18.3093-1.891-27.0228-4.8225-5.864-1.9728-11.3899-4.7158-16.9996-7.2941-5.0944-2.3415-10.179-4.737-15.059-7.5042-2.2048-1.2502-4.4268-2.5581-6.4295-4.1192-1.0829-.8441-2.82-2.2357-3.1087-3.3693-.8884-3.4886,3.1693-6.8606,5.7989-8.2585,4.0063-2.1298,8.715-2.5833,12.9679-4.0527,14.1951-4.9045,21.3276-19.0087,27.3566-31.7055,13.6041-28.6498,29.0379-56.6213,48.3651-81.8492,19.1417-24.9859,42.4085-47.152,70.1387-62.3464,31.1693-17.0787,66.7097-24.4834,101.9676-26.1908,14.5403-.7041,29.0713,.1295,43.4651-2.4991,12.1128-2.2121,24.0281-6.5709,33.7791-14.2386,10.2791-8.0829,16.9712-19.5973,19.8479-32.2848,.8117-3.5798,1.2757-8.8775,5.2317-10.4449,4.3886-1.7389,4.545,3.7856,3.4514,6.5201-1.8872,4.7186-6.4579,7.4882-11.0899,9.0086-10.2981,3.3804-21.7197,2.6397-32.3651,1.8021-18.5097-1.4565-36.691-6.4098-53.6855-13.827-30.0556-13.1177-58.3799-33.1522-77.5892-60.0461-7.96-11.1444-15.7301-22.5419-22.6675-34.3585-1.5414-2.6255-3.0472-5.282-4.3707-8.0254-.817-1.6935-.7894-1.5907-1.3554-3.2767-.0764-.2277-.106-.4641-.1662-.6947,.0383,.1468,.0339,.8036,.0673,.4168,.2646-3.0604-4.5109-3.0427-4.7739,0h0Z"/><path d="M528.3211,188.0405c-6.5148,3.8977-13.1018,7.6946-19.5522,11.6977-3.3832,2.0996-5.576,5.8028-5.4463,9.8359,.1282,3.9879,2.4562,7.8309,6.079,9.5918,2.7166,1.3204,5.6127,1.4578,8.4952,.642,1.8615-.5268,3.7229-1.0537,5.5844-1.5805,4.3793-1.2394,8.7585-2.4789,13.1378-3.7183,2.9514-.8353,1.6971-5.4429-1.2691-4.6034-3.4032,.9632-6.8063,1.9264-10.2095,2.8896l-6.6935,1.8944c-1.1846,.3353-2.4706,.8358-3.706,.8942-3.0357,.1434-5.7519-1.8902-6.4784-4.8441-.6635-2.6977,.6009-5.4474,2.9267-6.8857,3.077-1.9029,6.2128-3.717,9.3174-5.5744,3.4081-2.039,6.8161-4.0779,10.2242-6.1169,2.6338-1.5758,.236-5.7049-2.4095-4.1222h0Z"/><g><path d="M840.6352,214.0231c-.3705,.3674-.7476,.7283-1.1313,1.0825-9.3739,8.6533-23.1918,16.3526-26.9086,29.3942-1.1467-4.5814-3.5274-8.8094-6.9229-12.1004-1.301-1.2609-2.8146-2.5019-3.2403-4.2629-.974-4.0293,2.0631-9.4417,1.8616-13.8242-.1635-3.5558-2.3794-7.4697-5.7689-8.9212-6.4781-2.774-10.5239,5.8212-12.0127,10.7904,2.0706-6.9109,2.0102-14.4444-.1709-21.3211-1.638-5.1645-4.5643-10.0712-8.9868-13.2012-5.9078-4.1813-13.5995-4.6952-20.8372-4.6499-2.9086,.0182-5.8587,.0984-8.6789-.614s-5.5521-2.3465-6.8714-4.9387c-2.7615-5.4256,1.1947-13.0105,4.3776-17.5305,4.1275-5.8614,9.998-10.6466,15.8801-14.6749,19.1117-13.0885,42.9529-15.768,63.5586-4.403,15.9836,8.8157,28.0039,25.3805,29.3126,43.587,.9408,13.088-4.1675,26.3726-13.4606,35.5879Z"/><path d="M838.9473,212.3352c-10.1099,9.9364-24.3946,16.9806-28.6538,31.53h4.6034c-1.3217-5.112-4.0049-9.7665-7.8183-13.4238-.7604-.7293-1.7212-1.465-2.1747-2.444-.4084-.8816-.3191-1.9879-.1982-2.9246,.3006-2.3289,1.1377-4.5693,1.5842-6.8709,.9189-4.7376-.1374-9.8064-3.8997-13.1074-3.4658-3.0408-8.0626-3.487-11.7279-.569-3.3409,2.6598-5.2394,7.0353-6.4519,11.0214,1.5345,.423,3.0689,.8461,4.6034,1.2691,2.763-9.4415,1.984-20.16-2.8335-28.8248-2.2226-3.9975-5.4448-7.4913-9.493-9.6768-4.1128-2.2204-8.7336-3.1287-13.3528-3.4949-2.2776-.1805-4.5635-.2106-6.8472-.1958-2.4496,.0159-4.9626,.1161-7.3682-.4243-1.9028-.4275-3.7902-1.2317-5.0922-2.7364-1.1543-1.334-1.4763-3.0379-1.389-4.7564,.199-3.9183,2.36-7.7263,4.5038-10.9026,2.5954-3.8454,5.9625-7.1309,9.5341-10.0665,13.8189-11.3578,31.7743-18.0326,49.7458-14.9165,16.8905,2.9287,31.9069,13.8014,39.9602,28.938,3.8237,7.1869,5.9267,15.3249,5.6038,23.4849-.3457,8.7366-3.4786,17.2419-8.6445,24.2723-1.2622,1.7178-2.6881,3.3121-4.1939,4.8189-2.1744,2.1759,1.2003,5.5526,3.3757,3.3757,6.6037-6.6082,11.2818-15.147,13.2104-24.2969,1.8744-8.8929,1.1419-18.1545-1.9566-26.6902-6.1829-17.0322-20.4844-30.5478-37.5841-36.3422-18.2249-6.1757-38.4014-2.5766-54.389,7.755-8.1466,5.2645-16.0523,11.8178-20.7354,20.4678-2.108,3.8937-3.7356,8.3663-3.0279,12.8483,.76,4.8132,4.8302,8.0853,9.3634,9.2443,4.8972,1.252,10.1064,.5179,15.1027,.8377,4.5862,.2935,9.2538,1.1989,13.1668,3.7277,7.9438,5.1337,10.6637,16.057,10.0828,24.9492-.163,2.4949-.644,4.9377-1.3457,7.3354-.8654,2.9571,3.7108,4.2036,4.6034,1.2691,.8626-2.8359,2.0924-5.8467,4.1917-7.9925,.5366-.5485,.817-.79,1.4387-1.1397,.4224-.2376,.3165-.1855,.6204-.2794,.4635-.1433,.6516-.1636,.9095-.1645,1.3723-.0049,2.8695,.8962,3.9065,2.0942,2.7474,3.1742,2.0412,6.916,1.0863,10.6277-.532,2.0679-1.0986,4.1949-1.1132,6.3449-.0166,2.463,.8971,4.4969,2.5789,6.2701,1.7251,1.8189,3.5037,3.4214,4.8599,5.5589,1.3807,2.1761,2.3566,4.5067,3.0009,6.9985,.6,2.3205,3.9531,2.2215,4.6034,0,1.9072-6.5151,6.5507-11.5963,11.5215-16.0107,5.1833-4.6031,10.9545-8.5476,15.9046-13.4127,2.1947-2.157-1.1817-5.532-3.3757-3.3757Z"/></g><path d="M738.0425,187.6487c.3725,.0019,.7429,.0264,1.1125,.0731l-.423-.0568c.7923,.1075,1.5623,.3179,2.2993,.6282l-.3801-.1604c.3909,.1688,.7681,.3633,1.1319,.5845,.7121,.433,1.7806,.1798,2.1772-.5709,.4089-.7739,.1892-1.715-.5709-2.1772-1.602-.9742-3.4732-1.4934-5.3469-1.5031-.8325-.0043-1.6297,.735-1.5913,1.5913,.0388,.8659,.6991,1.5867,1.5913,1.5913h0Z"/><path d="M759.0237,190.0942c.1518-.0395,.3041-.0754,.4582-.1045,.0472-.0089,.2235-.0068,.2571-.0433-.0353,.0382-.3555,.0344-.1127,.0192,.3132-.0196,.6224-.0374,.9365-.0231,.1566,.0072,.3116,.024,.4676,.0378,.204,.018-.3555-.0614-.0614-.0058,.0684,.0129,.1371,.0241,.2054,.0377,.3245,.0646,.6444,.1523,.9567,.2614,.0658,.023,.1312,.0469,.1963,.0718,.1226,.0469,.2543,.1723-.042-.0212,.1264,.0825,.2891,.1343,.4231,.2046,.2773,.1455,.5447,.3093,.7998,.4908,.0385,.0274,.2327,.1755,.048,.0312-.1994-.1558,.0413,.0366,.0825,.0715,.1191,.1012,.2346,.2065,.3462,.3159s.2195,.2226,.3228,.34c.0459,.0522,.09,.106,.1352,.1588,.2375,.2778-.2098-.2865,.0056,.0093,.4886,.6711,1.4049,1.0688,2.1772,.5709,.665-.4287,1.0949-1.4575,.5709-2.1772-2.0431-2.8063-5.6233-4.1978-9.019-3.3149-.8057,.2095-1.3735,1.1478-1.1114,1.9575,.2687,.8302,1.0941,1.3359,1.9575,1.1114h0Z"/><path d="M748.195,219.1179c2.9012,.3326,5.9391-.4042,8.3944-1.9771,.7002-.4486,1.0497-1.4345,.5709-2.1772-.4515-.7003-1.4274-1.0512-2.1772-.5709-.2881,.1845-.5821,.3587-.885,.5178-.1324,.0695-.2663,.1363-.4013,.2005-.0707,.0336-.5044,.2291-.1468,.0743-.586,.2538-1.2078,.4428-1.8294,.5869-.2918,.0676-.5858,.1211-.8814,.1689-.1831,.0266-.1692,.0248,.0418-.0054-.0849,.01-.1699,.0191-.255,.0273-.1702,.0163-.3407,.0288-.5114,.0375-.6411,.0327-1.2821,.0079-1.9196-.0652-.83-.0952-1.6268,.7998-1.5913,1.5913,.0423,.9435,.7021,1.4894,1.5913,1.5913h0Z"/><path d="M189.4819,406.2897c6.7025,15.7853,12.8959,31.7867,18.5681,47.9707,5.3767,15.3409,11.1923,30.8756,14.4894,46.7274,2.9366-15.4262,5.8732-30.8523,8.8098-46.2785,.8036-4.2216,1.6102-8.4722,1.6262-12.7696,8.6534,1.2294,16.8098,4.9667,25.5017,6.4684,9.2853,1.6042,18.7421,2.2206,28.1567,1.8141-19.0366-27.3192-38.6451-65.6477-57.6817-92.9669" style="fill:#6966ed;"/><path d="M122.3496,387.7152c-15.6238,23.0292-31.2475,46.0584-46.8713,69.0876,16.0215,.7279,32.3251-2.7798,46.5578-10.017,5.1937,14.8869,8.6192,30.345,10.1938,46.0012,15.0877-32.4788,30.1754-64.9576,45.2631-97.4364" style="fill:#6966ed;"/><path d="M261.1002,355.5217c-2.8699,8.8746-16.3823,12.2233-21.5719,19.3903-5.3788,7.428-4.4373,21.263-11.6989,26.5454-7.3342,5.3352-20.2412,.1645-28.8606,2.9859-8.534,2.7935-15.8849,14.6205-25.0557,14.6314-8.8487,.0105-16.2238-11.6995-25.0985-14.5694-8.8746-2.8699-21.7096,2.3044-28.8766-2.8853-7.428-5.3788-6.462-19.2706-11.7444-26.5322-5.3352-7.3342-18.8258-10.7001-21.6473-19.3195-2.7935-8.534,6.0706-19.1978,6.0597-28.3687-.0105-8.8487-9.0034-19.4755-6.1334-28.3502,2.8699-8.8746,16.3823-12.2233,21.5719-19.3903,5.3788-7.428,4.4373-21.263,11.6989-26.5454,7.3342-5.3352,20.2412-.1645,28.8606-2.9859,8.534-2.7935,15.8849-14.6205,25.0557-14.6314,8.8487-.0105,16.2238,11.6995,25.0985,14.5694,8.8746,2.8699,21.7096-2.3044,28.8766,2.8853,7.428,5.3788,6.462,19.2706,11.7444,26.5322,5.3352,7.3342,18.8258,10.7001,21.6473,19.3195,2.7935,8.534-6.0706,19.1978-6.0597,28.3687,.0105,8.8487,9.0034,19.4755,6.1334,28.3502Z" style="fill:#f953b2;"/><circle cx="173.7864" cy="327.2856" r="55.1656" style="fill:#6966ed;"/><path d="M190.0704,344.79h-8.0621v-46.0438c0-4.1591-3.3716-7.5305-7.5305-7.5305h-5.1042c-1.9343,0-3.7944,.7444-5.1948,2.0785l-13.911,13.2548,10.5752,11.1711,5.7825-5.5266v32.5966h-8.8578c-4.922,0-8.9119,3.9899-8.9119,8.9118v10.184h50.1265v-10.184c0-4.9218-3.9899-8.9118-8.9119-8.9118Z" style="fill:#f4d13b;"/><g><path d="M320.5794,269.3964c-.8372-2.191-29.4646,7.8793-33.8908,7.4967,7.4921-6.5904,14.0245-13.7999,20.8091-21.1229,.42-.4533,.8844-.9318,1.4927-1.0407,.8234-.1474,1.5873,.4267,2.2087,.9867,4.1459,3.736,7.3895,8.4665,9.3803,13.6802Z" style="fill:#f4d13b;"/><path d="M322.6405,268.1916c-.911-1.9576-3.6626-1.5124-5.3334-1.2542-2.4103,.3725-4.7843,1.0057-7.1394,1.6283-5.9723,1.579-11.8788,3.4051-17.8703,4.9118-1.2222,.3074-2.4493,.6039-3.688,.838-.2451,.0463-.4917,.0846-.7369,.13-.6625,.1226,.4679-.0191-.1346,.0211-.3519,.0235-.6958,.0646-1.0492,.0394,.5626,1.3583,1.1252,2.7165,1.6878,4.0748,6.2943-5.5563,12.0546-11.6638,17.7529-17.8196,.6965-.7524,1.3923-1.5054,2.0885-2.2579,.3222-.3482,.6378-.7042,.9676-1.0453,.1678-.1864,.345-.3633,.5317-.5308-.6777-.0126-.8756,.0474-.5938,.1802-.0186,.152,1.392,1.2363,1.6042,1.4467,.6933,.6877,1.358,1.4044,1.992,2.1471,2.3491,2.7518,4.2476,5.9587,5.5581,9.3297,.4668,1.2008,1.6025,2.0337,2.9363,1.6672,1.1464-.315,2.1368-1.7281,1.6672-2.9363-1.6281-4.1882-3.8658-8.0157-6.7858-11.4363-1.2996-1.5224-2.8127-3.3134-4.5624-4.3403-2.4233-1.4223-4.5088-.2148-6.2072,1.6199-6.5554,7.0816-13.0816,14.206-20.3249,20.6-1.6687,1.473-.2226,3.9383,1.6878,4.0748,1.729,.1236,3.6035-.4186,5.2743-.8088,2.6525-.6194,5.2788-1.3515,7.9017-2.0843,5.4959-1.5355,10.9734-3.2387,16.5559-4.4386,.5404-.1162,1.0824-.2264,1.6271-.3208,.2472-.0428,.4951-.0803,.743-.1185-.7867,.1212-.0562,.0103,.1426-.0063,.288-.024,.7226,.0617,.9893-.0171-.1902,.0562-.6861-.1545-.2696-.0155-.3569-.1191-.9391-.4488-1.1346-.869,.5439,1.1688,2.2273,1.4638,3.2658,.8563,1.1985-.701,1.4023-2.0927,.8563-3.2658Z" style="fill:#f4d13b;"/></g><g><path d="M240.0197,202.2021c-.8786-.1028-8.479,14.0983-9.7867,15.9894-3.8194,5.523-5.3064,12.4898-8.0221,18.6169,.9005-11.3804,2.3285-22.5458,3.6599-33.8864,.0568-.4836,.145-1.0233,.5371-1.3121,.3088-.2274,.7225-.2329,1.1059-.2274,4.179,.0602,8.3549,.3339,12.5059,.8196Z" style="fill:#f4d13b;"/><path d="M240.0197,199.8152c-1.9249,.0888-2.9441,2.0547-3.8571,3.4976-1.2876,2.0348-2.4809,4.1302-3.6755,6.2203-1.1324,1.9813-2.2438,3.9751-3.3948,5.9457-1.3638,2.3349-2.8353,4.5459-3.9264,7.0392-1.8749,4.2845-3.1411,8.8042-5.016,13.0858,1.4827,.4016,2.9654,.8032,4.4481,1.2048,.6351-7.9567,1.5262-15.8888,2.464-23.8147,.2322-1.9628,.467-3.9253,.7006-5.8879,.1171-.9839,.234-1.9678,.3502-2.9518,.0312-.264,.224-.7935,.1302-1.0384,.1291-.4941-.114-.2761-.7291,.654,.2411,.0033,.4822,.0076,.7232,.0128,3.9387,.08,7.8693,.3567,11.7827,.8068,1.2827,.1475,2.387-1.2027,2.387-2.387,0-1.4129-1.1005-2.239-2.387-2.387-2.2359-.2572-4.4772-.462-6.7238-.5999-2.0185-.1239-4.1503-.3624-6.1707-.2137-2.6683,.1964-3.4165,2.0957-3.6994,4.4134-.2699,2.2114-.5249,4.4248-.7884,6.6369-1.061,8.9056-2.0998,17.8151-2.8135,26.7565-.1822,2.283,3.5019,3.3655,4.4481,1.2048,1.5907-3.6325,2.7921-7.4042,4.2145-11.1016,1.1136-2.8947,2.5704-5.4744,4.1842-8.107,2.2462-3.6643,4.2401-7.4825,6.4451-11.1723,.5431-.9089,1.0913-1.8166,1.6784-2.6979,.1186-.1781,.2417-.353,.3616-.5302,.1383-.2043,.5259-.5232,.0125-.0361,.0806-.0765,.1328-.1866,.2205-.2567,.0384-.0307,.0653-.0767,.1064-.1047-.3999,.2724-.6698,.5453-1.4755,.5825,3.0592-.1412,3.0765-4.9159,0-4.7739Z" style="fill:#f4d13b;"/></g><g><path d="M90.4449,215.0911c2.8754,9.3267,2.5856,23.9561,8.725,31.7571-6.778-8.6125-14.1803-15.9291-18.8457-25.9293,1.9798-2.869,4.6962-5.2252,7.8162-6.7798,.4942-.2462,1.0901-.4721,1.5769-.2116,.4145,.2217,.5892,.7144,.7276,1.1636Z" style="fill:#f4d13b;"/><path d="M88.1432,215.7257c1.6383,5.4064,2.155,11.0926,3.1717,16.6318,.9971,5.4321,2.3542,11.2369,5.7939,15.6955,1.2496-.9642,2.4993-1.9284,3.7489-2.8926-6.5119-8.2481-13.9382-15.8366-18.4725-25.4462v2.4095c.9264-1.3145,2.036-2.4883,3.2605-3.53,.5617-.4778,1.1563-.9032,1.7773-1.3012,.3388-.2171,.6832-.424,1.0341-.621,.1747-.0996,.3513-.1957,.5298-.2884,.4504-.1767,.4823-.228,.0958-.1539l-1.0533-.6139c.089-.0175,.127,.0193,.1138,.1103,.9701,2.8988,5.5823,1.6559,4.6034-1.2691-2.6195-7.8274-12.1122,1.893-14.4835,5.2576-.5116,.7259-.3482,1.6715,0,2.4095,4.7005,9.962,12.4674,17.8608,19.219,26.4124,1.6615,2.1045,5.4066-.7439,3.7489-2.8926-3.2877-4.2616-4.443-9.7305-5.3786-14.9175-.9779-5.4217-1.5032-10.9806-3.1058-16.2694-.8885-2.9323-5.4978-1.6826-4.6034,1.2691Z" style="fill:#f4d13b;"/></g><g><path d="M53.3068,341.1354c-9.5435,2.3577-18.9897,5.1088-28.3068,8.2438,1.7311,4.7396,3.4622,9.4792,5.1933,14.2189,.0705,.193,.1504,.3984,.3197,.5147,.3958,.2717,.9026-.1171,1.2212-.4763,6.4547-7.2751,12.2704-12.6322,18.7251-19.9073l2.8474-2.5938Z" style="fill:#f4d13b;"/><path d="M52.6723,338.8337c-9.5434,2.3646-18.9861,5.1146-28.3068,8.2438-1.1464,.3849-2.1301,1.6687-1.6672,2.9363,.8935,2.4463,1.7869,4.8925,2.6804,7.3388,.8931,2.4453,1.5967,5.1183,2.7535,7.4503,.6223,1.2545,1.9049,2.0249,3.3284,1.7024,1.3046-.2956,2.0933-1.3357,2.9414-2.2763,1.6686-1.8506,3.3752-3.6663,5.1-5.4645,3.3514-3.4941,6.7663-6.9273,10.0518-10.4843,1.7701-1.9164,3.516-3.7034,5.441-5.4569,2.2762-2.0734-1.1076-5.4418-3.3757-3.3757-3.0541,2.7821-5.7561,5.8398-8.613,8.8257-2.1243,2.2203-4.2784,4.4118-6.4092,6.6259-1.1141,1.1576-2.2221,2.3212-3.3171,3.4969-.5382,.5778-1.0735,1.1582-1.6052,1.742-.3259,.3579-.6506,.7169-.9738,1.0772-.1187,.1323-.9198,.8026-.5092,.6865h1.2691l-.313-.0907,1.0533,.6139c.2392,.187,.2255,.0608-.0409-.3788-.1117-.3058-.2234-.6116-.3351-.9173-.2234-.6116-.4467-1.2231-.6701-1.8347-.4188-1.1467-.8376-2.2934-1.2564-3.4401-.8656-2.3698-1.7311-4.7396-2.5967-7.1094l-1.6672,2.9363c9.3207-3.1293,18.7634-5.8793,28.3068-8.2438,2.9805-.7385,1.718-5.3435-1.2691-4.6034Z" style="fill:#f4d13b;"/></g><g><path d="M304.2717,385.5964c-3.334-7.7549-8.375-14.2372-13.2502-21.0683,4.8479,3.4638,12.524,4.7729,18.1328,6.978,.6459,.2539,1.3181,.5259,1.7737,1.0495,1.0126,1.1636,.5321,2.9651-.1226,4.3618-1.5479,3.3024-3.7882,6.2783-6.5338,8.679Z" style="fill:#f4d13b;"/><path d="M306.3328,384.3917c-3.3302-7.6678-8.4205-14.3095-13.2502-21.0683-1.0886,1.0886-2.1772,2.1772-3.2658,3.2658,4.8278,3.3813,10.8601,4.5441,16.3608,6.3771,.6432,.2143,1.2833,.4376,1.9173,.6779,.1941,.0736,.9199,.3186,.955,.357,.1755,.1918,.0434,.6711-.0846,1.0976-.1651,.5503-.4258,1.054-.6896,1.5631-1.4372,2.7733-3.3571,5.177-5.6919,7.2466-.9651,.8555-.8729,2.5027,0,3.3757,.9586,.9586,2.4081,.8577,3.3757,0,4.2274-3.7471,12.8129-14.423,4.1071-17.9692-5.874-2.3927-12.5538-3.1453-17.8403-6.848-1.9174-1.3429-4.6384,1.345-3.2658,3.2658,4.8296,6.7588,9.9199,13.4005,13.2502,21.0683,.5136,1.1826,2.2477,1.4518,3.2658,.8563,1.2212-.7143,1.372-2.0786,.8563-3.2658Z" style="fill:#f4d13b;"/></g><path d="M44.7981,287.4671c4.3066,1.4804,8.739,2.5526,13.2461,3.2042,1.2302,.1779,2.6255-.3027,2.9363-1.6672,.2574-1.13-.3456-2.7452-1.6672-2.9363-4.5071-.6516-8.9395-1.7238-13.2461-3.2042-1.1821-.4063-2.6622,.4641-2.9363,1.6672-.3023,1.3273,.4016,2.5012,1.6672,2.9363h0Z" style="fill:#f953b2;"/><path d="M157.5445,197.8191c.6341,3.8273,1.2368,7.6597,1.8709,11.487,.2047,1.2354,1.7986,2.0353,2.9363,1.6672,1.3362-.4324,1.8865-1.6125,1.6672-2.9363-.6341-3.8273-1.2368-7.6597-1.8709-11.487-.2047-1.2354-1.7986-2.0353-2.9363-1.6672-1.3362,.4324-1.8865,1.6125-1.6672,2.9363h0Z" style="fill:#f953b2;"/><path d="M270.8153,241.5178c1.5851-2.6506,3.155-5.3104,4.7327-7.9654,.2802-.4716,.5599-.9434,.8414-1.4142,.6415-1.0726,.2755-2.6678-.8563-3.2658-1.1537-.6096-2.581-.2887-3.2658,.8563-1.5851,2.6506-3.155,5.3104-4.7327,7.9654-.2802,.4716-.5599,.9434-.8414,1.4142-.6415,1.0726-.2755,2.6678,.8563,3.2658,1.1537,.6096,2.581,.2887,3.2658-.8563h0Z" style="fill:#f953b2;"/><path d="M300.6956,323.4611c3.828,1.0074,7.656,2.0147,11.484,3.0221,1.2061,.3174,2.6477-.4005,2.9363-1.6672,.2846-1.2496-.3751-2.5963-1.6672-2.9363-3.828-1.0074-7.656-2.0147-11.484-3.0221-1.2061-.3174-2.6477,.4005-2.9363,1.6672-.2846,1.2496,.3751,2.5963,1.6672,2.9363h0Z" style="fill:#f953b2;"/><path d="M66.3119,410.7083c1.9805-2.7726,3.9614-5.545,5.9421-8.3175,.3957-.5538,.7913-1.1076,1.1869-1.6615,.7281-1.0194,.2124-2.7012-.8563-3.2658-1.2312-.6505-2.4887-.2316-3.2658,.8563-1.9805,2.7726-3.9614,5.545-5.9421,8.3175-.3957,.5538-.7913,1.1076-1.1869,1.6615-.7281,1.0194-.2124,2.7012,.8563,3.2658,1.2312,.6505,2.4887,.2316,3.2658-.8563h0Z" style="fill:#f953b2;"/></svg>