<?xml version="1.0" encoding="UTF-8"?><svg id="Layer_2" xmlns="http://www.w3.org/2000/svg" width="1000" height="1000" viewBox="0 0 1000 1000"><g><rect x="42.99" y="277.2989" width="400.3326" height="309.8274" rx="41.706" ry="41.706" style="fill:#f4d13b;"/><path d="M406.563,586.5711c20.8358-3.328,36.7596-21.3764,36.7596-43.1495v-.1063l-63.2318-80.7544c-9.2097-11.7619-27.0127-11.7618-36.2224,0l-52.2679,66.7524c-9.2097,11.7619-27.0127,11.7619-36.2224,0l-82.7017-105.6199c-9.2097-11.7619-27.0127-11.7619-36.2224,0l-93.464,119.3646v.3636c0,21.4152,15.4067,39.2202,35.738,42.9671H246.9099l-.1429,.1825h159.796Z" style="fill:#f953b2;"/><circle cx="273.4439" cy="378.9139" r="36.091" style="fill:#fff;"/><path d="M288.2571,448.5804v10.5356c0,3.6969-2.997,6.6939-6.6939,6.6939h0c-3.613,0-6.574-2.8671-6.6904-6.4782l-1.4288-44.3268c-19.9325,0-36.091-16.1585-36.091-36.091s16.1585-36.091,36.091-36.091-11.0311,19.1033,13.2929,37.853c0,0,11.6553,5.5743,10.6418,40.0333v18.2289c0,5.1254-4.004,9.358-9.1215,9.6423h0Z" style="fill:#6966ed;"/><polyline points="253.2913 404.4932 253.2913 429.8307 262.9196 429.8307 262.9196 406.5202" style="fill:#6966ed;"/></g><path d="M865.0095,490.1339c-52.3313-2.3392-77.1222-55.494-38.7726-91.1781,8.5789-7.9826,19.5478-15,33.5613-19.6524,58.5028-19.4223,116.602-4.8213,115.1761,27.2167-1.4259,32.038-60.2205,22.8513-36.2116,55.5055,22.5294,30.642-30.1114,30.059-73.7531,28.1082Z" style="fill:#f953b2;"/><ellipse cx="877.6783" cy="466.0633" rx="13.6823" ry="10.3884" style="fill:#fff;"/><ellipse cx="850.3137" cy="437.6853" rx="13.6823" ry="10.3884" style="fill:#fff;"/><ellipse cx="872.6108" cy="406.2668" rx="13.6823" ry="10.3884" style="fill:#fff;"/><ellipse cx="920.2453" cy="406.2668" rx="13.6823" ry="10.3884" style="fill:#6966ed;"/><path d="M677.1138,354.3341c.078,.3473,.1474,.6925,.0365,1.036-.0489,.1514-.2024,.3589-.4697,.5758-.5311,.4312-1.4282,.688-2.1759,.8409-1.9295,.3947-3.9275,.278-5.8558,.7146-2.054,.4651-4.018,1.7816-4.1704,4.0613-.1464,2.1898,2.0333,3.6542,3.7158,4.592,1.9963,1.1127,4.2045,1.7222,6.481,1.8597,.8578,.0518,1.5896-.7677,1.5896-1.5896,0-.9036-.7292-1.5376-1.5896-1.5896-2.1442-.1295-4.1972-.8769-5.9601-2.1014-.3379-.2347-.6701-.5435-.951-.7839-.175-.1498-.1439-.2793-.0733-.415,.3774-.7257,1.4082-.9028,2.2386-1.057,2.2569-.4191,4.6121-.1981,6.7964-1.0158,1.1696-.4379,2.233-1.0918,2.957-2.1325,.8002-1.1504,.7919-2.5242,.4964-3.8407-.1881-.8379-1.1561-1.3298-1.9553-1.1102-.8622,.2369-1.2989,1.1149-1.1102,1.9553h0Z"/><g><path d="M353.3641,419.8735s11.5262-12.7302-1.222-24.8693c-12.7482-12.1391-30.598-10.0194-30.6051-22.7785-6.6988,14.1832,2.9992,51.9306,21.7395,50.8889,14.3382-.5443,10.0876-3.2411,10.0876-3.2411Z" style="fill:#6966ed;"/><path d="M361.3437,417.3031l58.4575,97.8543c1.5294,2.5601,.7696,5.8708-1.723,7.5078h0c-2.4927,1.6371-5.8326,1.019-7.5744-1.4017l-66.5745-92.5234c-1.8817-2.6151-1.2051-6.271,1.4877-8.0396l7.9578-5.2263c2.6929-1.7686,6.3167-.9369,7.9689,1.8289Z" style="fill:#fff;"/></g><path d="M934.9746,459.6787c-8.5234,.1244-17.0468,.2488-25.5702,.3732-1.2237,.0179-2.4474,.0357-3.6711,.0536-3.0658,.0447-3.0748,4.8135,0,4.7687,8.5234-.1244,17.0468-.2488,25.5702-.3732,1.2237-.0179,2.4474-.0357,3.6711-.0536,3.0658-.0447,3.0748-4.8135,0-4.7687h0Z"/><path d="M935.8584,473.8201c-8.5234,.1244-17.0468,.2488-25.5702,.3732-1.2237,.0179-2.4474,.0357-3.6711,.0536-3.0658,.0447-3.0748,4.8135,0,4.7687,8.5234-.1244,17.0468-.2488,25.5702-.3732,1.2237-.0179,2.4474-.0357,3.6711-.0536,3.0658-.0447,3.0748-4.8135,0-4.7687h0Z"/><path d="M936.3004,487.5196c-8.5234,.1244-17.0468,.2488-25.5702,.3732-1.2237,.0179-2.4474,.0357-3.6711,.0536-3.0658,.0447-3.0748,4.8135,0,4.7687,8.5234-.1244,17.0468-.2488,25.5702-.3732,1.2237-.0179,2.4474-.0357,3.6711-.0536,3.0658-.0447,3.0748-4.8135,0-4.7687h0Z"/><path d="M390.0719,465.1448c-7.5031,4.0456-15.0063,8.0912-22.5094,12.1367-1.0772,.5808-2.1545,1.1617-3.2317,1.7425-2.7022,1.457-.2971,5.5755,2.4068,4.1176,7.5031-4.0456,15.0063-8.0912,22.5094-12.1367,1.0772-.5808,2.1545-1.1617,3.2317-1.7425,2.7022-1.457,.2971-5.5755-2.4068-4.1176h0Z"/><path d="M397.385,477.2807c-7.5031,4.0456-15.0063,8.0912-22.5094,12.1367-1.0772,.5808-2.1545,1.1617-3.2317,1.7425-2.7022,1.457-.2971,5.5755,2.4068,4.1176,7.5031-4.0456,15.0063-8.0912,22.5094-12.1367,1.0772-.5808,2.1545-1.1617,3.2317-1.7425,2.7022-1.457,.2971-5.5755-2.4068-4.1176h0Z"/><path d="M404.102,489.2287c-7.5031,4.0456-15.0063,8.0912-22.5094,12.1367-1.0772,.5808-2.1545,1.1617-3.2317,1.7425-2.7022,1.457-.2971,5.5755,2.4068,4.1176,7.5031-4.0456,15.0063-8.0912,22.5094-12.1367,1.0772-.5808,2.1545-1.1617,3.2317-1.7425,2.7022-1.457,.2971-5.5755-2.4068-4.1176h0Z"/><g><path d="M673.669,404.3379s11.2637,3.0166,22.0907-.2314c-5.9548,6.4962-17.3589,10.5507-20.8598,9.8768,6.2434-8.2528-1.1262-9.4139-1.2309-9.6454Z"/><path d="M673.0351,406.6371c7.4543,1.9794,15.9804,1.9279,23.3584-.2314-.7733-1.3284-1.5466-2.6568-2.3198-3.9851-2.9262,3.1471-6.6879,5.417-10.5983,7.1369-1.4777,.6499-3.2928,1.2817-4.9759,1.7004-.3937,.0979-.7897,.1866-1.1883,.2619-.1675,.0317-.3363,.0564-.5037,.0883-.6253,.1191,.4814-.0129-.1174,.0137-.2793,.0124-.5559,.0481-.8362,.0497-.1352,.0008-.3081-.0275-.4416-.0105-.431,.055,.5475,.0969,.1214,.0231,.475,1.1675,.95,2.3351,1.425,3.5026,2.06-2.7712,4.0644-6.7868,1.888-10.0723-.6459-.9751-1.5719-1.7523-2.6138-2.2758-.4459-.2241-.914-.4077-1.3813-.5825-.1067-.0399-.2158-.0828-.325-.1155-.0304-.0091-.083-.0459-.1148-.0423,.2428-.0273,.8398,.427,.9431,.5537-.8144-.9987-2.5263-.8456-3.372,0-.9875,.9875-.8164,2.3708,0,3.372,.4179,.5124,1.2321,.7193,1.846,.9234,.3814,.1268-.5332-.289-.0531-.0157,.1509,.0859,.3102,.1565,.46,.2453,.1607,.0952,.3086,.2071,.4654,.3076-.447-.2862-.2001-.1028,.0555,.1009,.346,.2757-.1449-.361,.0499,.0511,.1476,.3122,.1942,.6076,.1081,.1437,.0209,.1127,.0554,.2738,.1044,.3726,.1164,.2349-.0142-.427-.0113-.1456,.0028,.2766,.0158,.5444-.0112,.8218,.052-.5335-.1161,.3708-.1654,.5292-.0922,.296-.1933,.5338-.2478,.6481-.4714,.9887-1.0908,1.8968-1.7425,2.7736-.8696,1.1699,.0062,3.2569,1.425,3.5026,3.7183,.644,7.7224-.942,11.0785-2.3752,4.4581-1.9038,8.7808-4.5438,12.1011-8.1148,1.5737-1.6926,.0419-4.6764-2.3198-3.9851-4.7038,1.3767-9.6024,1.6551-14.4716,1.2486-2.1658-.1808-4.1012-.4196-6.3514-1.0171-2.9691-.7884-4.2357,3.8102-1.2677,4.5983Z"/></g><g><path d="M737.7398,395.6354c.5105,6.1114,6.4629,4.6809,9.3387,1.9366,8.7869-8.3853,29.5354-60.3916,9.3997-64.2838-2.206-.4264-4.7472,.0241-6.1699,1.7629-1.423,1.7392-1.03,4.8699,1.0638,5.6858,2.8314-4.6331,3.1072-10.7242,.706-15.5941-3.7057-7.5157-17.609-12.8847-24.8864-16.5745-10.0897-5.1156-21.2679-8.0779-32.5442-8.8441-4.0894-.2779-8.7045-.0829-11.5335,2.8832-.5316,.5573-.9996,1.3565-.6931,2.0631,.1621,.3737,.5123,.6326,.8767,.8147,2.4724,1.2357,5.6527-.7207,6.461-3.3638,.8082-2.6432-.2002-5.5316-1.7379-7.8284-3.1618-4.7226-8.6757-7.782-14.3561-7.9653-5.6803-.1834-11.3801,2.514-14.8399,7.0228-2.2896,2.9838-3.5927,6.6303-4.2666,10.3304-1.0736,5.8941-1.5665,11.496,.8712,17.0587,2.5124,5.7332,6.7282,10.7024,11.8935,14.2231,7.533,5.1346,16.9192,7.2553,26.0136,6.6228,3.7168-.2585,7.4186-.9559,11.1399-.7752,2.6313,.1278,5.4446,.7327,7.6657,2.2164,2.2417,1.4974,2.2186,3.2443,2.5659,5.7863,.7688,5.6266,.3877,11.4079-1.113,16.8849-1.0364-11.2352,13.2557-23.6063,21.7487-11.6331,1.509,2.1274,2.1469,4.7635,2.3458,7.3641,.3127,4.0866-.422,8.3147-2.509,11.842-2.087,3.5273-5.6006,6.2834-9.6289,7.0388,1.0834,3.5662,2.1667,7.1323,3.2501,10.6985,.6609,2.1756,1.4262,4.5037,3.2568,5.8523,1.8306,1.3486,5.0466,.9582,5.6815-1.2251Z"/><path d="M735.3555,395.6354c.2527,2.4559,1.1334,4.902,3.5045,6.041,1.8983,.9118,4.101,.747,6.0268,.0041,2.9567-1.1406,4.9082-3.3245,6.6658-5.8571,3.8358-5.527,6.5954-11.8839,9.0283-18.125,2.8496-7.3103,5.1657-14.9309,6.2358-22.7195,.8397-6.1111,1.357-13.6522-2.3083-19.0288-1.9993-2.9327-5.03-4.7362-8.5588-5.1288-3.2096-.3571-6.9007,.9356-8.2849,4.0545-1.2253,2.7611-.4429,6.5862,2.5038,7.9199,1.1799,.534,2.5497,.3458,3.2622-.8554,2.472-4.1673,3.2273-9.1565,2.1846-13.8826-.8617-3.9061-3.0822-7.1263-6.0974-9.6889-5.8977-5.0124-13.1671-7.9547-20.0455-11.3235-9.2387-4.5248-18.7474-7.7485-28.9754-9.1093-4.5217-.6016-9.5207-1.3055-13.9835,.0165-2.2047,.6531-4.5588,1.9232-5.8291,3.9129-1.5935,2.496-.2734,5.2583,2.4318,6.1039,4.7977,1.4996,9.0725-2.9125,9.3038-7.4565,.2401-4.7175-3.0383-9.2382-6.5783-12.029-7.5975-5.9895-18.1904-5.9209-25.7235,.1555-3.7351,3.0128-6.09,7.3679-7.3129,11.9557-1.2939,4.854-1.9307,10.2025-1.2231,15.1934,1.3445,9.4825,8.6087,17.8739,16.6688,22.5783,8.7507,5.1074,18.7882,6.334,28.7177,5.2561,4.3705-.4745,10.2704-1.4068,14.0684,1.5252,1.1868,.9162,1.1623,2.6375,1.3478,4.1345,.3299,2.6614,.4108,5.3532,.2331,8.0293-.1745,2.6293-.6408,5.2083-1.3224,7.7525,1.5612,.2113,3.1223,.4226,4.6835,.6339-.4861-6.057,3.8967-12.9552,9.9603-14.0708,.9802-.1803,2.4984-.0446,3.5687,.4206,1.5264,.6634,2.822,1.8733,3.7766,3.2205,2.6503,3.7406,2.5731,9.279,1.2855,13.5045-1.3915,4.5663-4.901,8.272-9.6526,9.2379-1.2402,.2521-2.0203,1.7645-1.6653,2.933,.8714,2.8684,1.7428,5.7369,2.6142,8.6053,.7556,2.4873,1.3772,5.2108,2.9467,7.336,1.4206,1.9235,3.5048,3.2466,5.968,3.1361,2.4388-.1095,4.4416-1.4265,5.2578-3.7517,.4265-1.2151-.4847-2.6086-1.6653-2.933-1.3156-.3615-2.505,.4458-2.933,1.6653,.112-.3191-.1762,.1383-.0201,.0292-.3083,.2155-.0593,.0895-.4323,.1828-.388,.0971-.8238,.084-1.2837-.1231-.9816-.4421-1.6909-2.0008-2.0728-3.0739-1.4388-4.0422-2.534-8.2356-3.7811-12.3408-.5551,.9777-1.1102,1.9553-1.6653,2.933,11.9222-2.4235,17.0752-17.6226,12.2353-27.9722-2.0082-4.2943-6.3014-7.6966-11.1325-7.8479-4.1812-.131-8.1815,2.1688-10.9436,5.1714-3.3724,3.6661-5.5381,8.7027-5.1339,13.7378,.2063,2.5703,3.9507,3.3692,4.6835,.6339,1.2779-4.7697,1.8232-9.7637,1.4869-14.6946-.2646-3.8793-.4186-8.1369-3.883-10.5614-3.6768-2.573-8.5706-2.8879-12.8992-2.575-4.6973,.3395-9.2751,1.0464-13.9994,.6632-8.1916-.6645-16.3007-3.8988-22.2215-9.6785-2.8888-2.82-5.3276-6.2126-6.8898-9.9493-1.6862-4.0331-1.6631-8.4858-1.0434-12.7446,.6103-4.1944,1.596-8.4495,4.1884-11.9035,2.2844-3.0437,5.7423-5.0833,9.4367-5.8754,3.5646-.7643,7.3392-.1061,10.5133,1.655,3.1706,1.7592,6.4388,4.9026,7.0187,8.649,.223,1.4403-.1221,2.865-1.3693,3.7113-.3874,.2629-.9492,.5116-1.3858,.4692-.1087-.0105-.2359-.0927-.3457-.0709l-.1339-.0758c-.47-.3031-.3628,.0588,.3217,1.0857,.2103-.0635,.5553-.5912,.732-.7307,2.8966-2.288,7.3946-1.7692,10.8047-1.4752,9.0939,.7839,18.1736,3.0742,26.4983,6.8333,3.1893,1.4402,6.3174,3.0382,9.4767,4.5453,3.1887,1.5212,6.3626,3.0935,9.3821,4.9332,2.6662,1.6246,5.3909,3.4841,7.3201,5.984,1.9722,2.5555,2.7507,6.3368,2.3104,9.6459-.2538,1.9076-.9219,3.7132-1.8996,5.3614,1.0874-.2851,2.1748-.5703,3.2622-.8554-.579-.2621-.7406-.4535-.7261-1.1682,.0132-.6492,.31-1.1168,.9914-1.5126,1.3676-.7944,3.0349-.4815,4.4538-.0234,.1346,.0434,.2656,.0972,.3978,.1472-.0618-.0234-.4853-.2286-.1097-.0436,.245,.1206,.4886,.2382,.7254,.3748,.2088,.1205,.4033,.2629,.6095,.3864,.1297,.0776,.4292,.3368-.0358-.0417,.122,.0993,.2493,.197,.3638,.3052,.3687,.3485,.7098,.704,1.0386,1.0908,.2223,.2615-.3232-.4855-.0322-.0352,.0587,.0908,.1272,.1746,.1845,.2664,.1749,.2798,.3522,.5546,.5108,.8445,.1077,.197,.2035,.3997,.3055,.5996,.3085,.6043-.0675-.2639,.1666,.3822,.2053,.5667,.3946,1.1346,.5462,1.7186,.1604,.618,.2784,1.2428,.3882,1.8712,.0227,.1298,.0405,.261,.0594,.3913-.0736-.5071-.0192-.1439-.0071-.0368,.0461,.4092,.0869,.8184,.1171,1.2291,.1047,1.4245,.106,2.8558,.0408,4.2822-.0339,.7418-.0867,1.4826-.1547,2.2221-.0331,.3599-.0702,.7195-.1105,1.0787-.0226,.202-.0468,.4038-.0711,.6057-.0004,.0031-.1004,.7629-.043,.3444-.9361,6.8257-2.8961,13.5257-5.2606,19.9829-2.1175,5.7826-4.5147,11.3166-7.7585,16.7676-.6567,1.1034-1.3463,2.1895-2.0992,3.2302-.1477,.2042-.2991,.4056-.4509,.6067,.4501-.5962-.1265,.1481-.2382,.2806-.2873,.341-.5855,.6748-.906,.9851-.6024,.5832-.7956,.7014-1.6448,1.1529-.34,.1808-.3538,.1991-.8911,.3626-.1902,.0578-.3827,.1008-.5746,.151-.114,.0266-.2288,.0494-.3444,.0682,.2155-.0267,.2371-.0325,.0647-.0173-.187,.0106-.3715,.0142-.5588,.0129-.6594-.0046,.4058,.1104-.2235-.0255,.0041,.0009-.6239-.2181-.3141-.082,.3615,.1588-.493-.3469-.2011-.1206,.2541,.1969-.2464-.2695-.2397-.2601,.2426,.3378-.1493-.2991-.1543-.3122,.1005,.262-.0565-.1683-.06-.179-.0986-.2961-.1737-.6166-.2055-.9254-.1318-1.2809-1.0015-2.3843-2.3843-2.3843-1.187,0-2.517,1.0954-2.3843,2.3843Z"/></g><path d="M351.0283,474.8777c7.1271-3.7096,14.2542-7.4192,21.3812-11.1288,3.8065-1.9813,7.613-3.9625,11.4195-5.9438,1.0785-.5614,2.0771-1.1708,3.3396-1.2449,5.231-.3072,6.6665,6.2231,2.437,8.7479-2.6912,1.6065-.338,5.3509,2.4068,4.1176,5.5406-2.4895,9.2127,5.3278,4.0967,8.3774-2.6923,1.6048-.3378,5.3508,2.4068,4.1176,5.5406-2.4895,9.2127,5.3278,4.0967,8.3774-2.6929,1.6052-.3379,5.3487,2.4068,4.1176,2.6584-1.1924,6.006,.1978,6.5867,3.1947,.4457,2.3-.9282,4.2049-2.7846,5.336-1.2359,.753-2.598,1.3522-3.8808,2.0199-5.8884,3.0649-11.7769,6.1298-17.6653,9.1947-5.1724,2.6922-10.3447,5.3844-15.5171,8.0765-5.4882,2.8566-11.2462,1.6892-14.3305-3.9862-5.8243-10.7175-11.4644-21.5392-17.1956-32.3068-1.8766-3.5258-5.2228-8.019-5.232-12.1726-.0144-6.4639,5.6352-8.7203,10.4306-11.2163,11.266-5.8639,22.532-11.7277,33.7979-17.5916,1.6237-.8452,1.4736-3.2345,0-4.1176-1.9856-1.1899-3.9713-2.3799-5.9569-3.5698-2.0545-1.2312-4.7303-2.3661-6.3918-4.1466-4.0589-4.3495-.143-11.2666,5.6163-10.334,2.6968,.4367,5.4509,1.6611,8.0632,2.4665,2.8544,.88,5.7096,1.7577,8.557,2.6601,11.3551,3.5987,22.5496,7.6818,32.9356,13.5847,10.7802,6.127,21.1203,13.2328,31.0945,20.5854,19.0223,14.0223,36.6653,30.0416,51.8474,48.1795,7.3692,8.8039,14.1226,18.1254,20.1099,27.9238,3.0053,4.9181,5.8201,9.9534,8.4158,15.0998,.6901,1.3682,6.866,12.5038,2.5976,12.6238-3.0971,.087,1.8411-11.3812,2.5481-12.9503,3.7635-8.3526,8.4893-16.367,13.2547-24.1746,13.1357-21.5214,29.6866-40.7876,47.2561-58.7906,8.3686-8.5751,16.8263-17.4005,26.4174-24.6307,6.4587-4.8689,13.29-8.8621,21.1809-10.6541,5.06-1.1491,10.2299-2.0799,15.2283-3.4785,10.2527-2.8688,14.9451-11.9913,16.2275-21.9224,.2155-1.6687,.5117-3.7838-.3925-5.3275-.8841-1.5093-2.5142-1.6415-4.0343-2.1335-3.1266-1.012-6.0409-2.6869-8.4654-4.9081-4.881-4.4718-7.6593-10.6568-9.0525-17.0394-3.0247-13.8568-.1219-29.7909,7.6483-41.6576,10.5891-16.1719,33.2154-21.6147,51.0305-15.9179,10.6923,3.4191,19.9204,10.8343,22.4781,22.1472,2.4981,11.0492-.5652,22.5785-1.6542,33.6128-.6338,6.4229-.5855,12.9003-2.0755,19.2131-1.17,4.9574-2.4201,9.8843-.9534,14.9338,1.4787,5.0909,4.8359,9.6424,8.8052,13.089,4.3942,3.8155,9.3172,5.7293,14.5492,8.0572,5.5649,2.476,9.9267,6.8027,14.3437,10.8803,4.3979,4.06,8.5985,8.295,12.4209,12.9076,7.7884,9.3984,13.7562,20.1731,17.6468,31.739,3.8451,11.4306,5.802,23.4143,6.3433,35.4451,.5214,11.5888,.2113,23.4532-3.0831,34.6552-.786,2.6725-1.7401,5.2981-2.9173,7.8238-1.1386,2.4431-2.5635,5.924-4.5981,7.7795-.3317,.3025-1.0246,.5397-1.2634,.7761-.1476,.1462,.6431-.0648,.1313,.0274,.1476-.0266,.1093-.0182,.135,.1255-.1105-.6161-.3308-.4576-.4975-1.3609-.7107-3.8515,.1593-8.6519,.8816-12.674,4.2165-23.4791,12.3641-46.4924,20.4134-68.9018,3.5697-9.9382,7.3533-19.8705,12.9019-28.9015,4.7634-7.7531,10.9037-13.904,17.5453-20.0163,5.325-4.9007,10.7773-9.8293,17.0049-13.5696,2.5307-1.5199,5.5232-3.2266,8.5569-3.3235,4.2623-.1362,6.1162,4.7947,4.5385,8.3413-1.7967,4.0389-4.7445,7.7987-7.0573,11.5624-.9536,1.5518,.2819,3.5878,2.0588,3.5878,19.7351,0,39.4702,0,59.2052,0,1.1088,0,2.2508-.0794,3.3577,0,6.0046,.4306,6.5977,8.9503,.3031,9.3176-3.0652,.1788-3.0717,4.5915,0,4.7687,6.0043,.3464,6.0043,8.9712,0,9.3175-3.0657,.1769-3.0712,4.5915,0,4.7687,6.0043,.3464,6.0043,8.9712,0,9.3175-3.0662,.1769-3.0707,4.5895,0,4.7687,3.8627,.2253,6.229,4.6766,3.3904,7.7049-2.752,2.9359-8.9408,1.5824-12.5502,1.522-9.2232-.1542-18.5247-.5336-27.7357,.1478-10.5657,.7816-20.511,4.917-25.812,14.5409-4.912,8.9179-5.5166,19.6708-6.028,29.62-.7949,15.4652-2.0578,30.7133-5.3287,45.8907-6.2744,29.1136-17.4031,61.1069-40.0533,81.6691-9.5629,8.6814-23.0746,17.336-36.5699,15.8243-12.0457-1.3494-20.8344-10.8857-25.7453-21.3374-3.6243-7.7135-5.091-16.295-6.5037-24.635-1.7079-10.0821-2.7604-20.2717-3.1887-30.4881-.2105-5.0213-.2689-10.0491-.1745-15.0739,.0436-2.3191,.1197-4.6377,.2284-6.9547,.1178-2.5106-.1825-5.7501,.6948-8.1336,.7563-2.0546,2.9932-3.0344,4.7397-4.0742,2.3437-1.3953,4.6914-2.7842,7.037-4.1763,4.3563-2.5853,8.7125-5.1706,13.0688-7.7559,2.637-1.565,.241-5.689-2.4068-4.1176-4.1887,2.4859-8.3774,4.9717-12.5661,7.4576-3.814,2.2635-8.177,4.2684-11.5707,7.1441-3.1552,2.6736-3.3409,6.303-3.5778,10.1817-.2945,4.8235-.4467,9.6556-.4584,14.488-.0461,19.0028,1.7948,38.4917,6.4251,56.9583,3.1051,12.3837,10.0518,24.9138,21.4959,31.3368,12.454,6.9897,26.2106,3.8727,38.0485-2.8015,27.953-15.7599,42.4341-47.2479,51.1957-76.7378,5.3445-17.9887,8.5158-36.6107,9.5286-55.3465,.6075-11.239,.1112-23.5363,4.6304-34.0887,2.0239-4.7258,5.3038-8.6896,9.8411-11.1711,6.7645-3.6996,14.782-3.6777,22.2799-3.7722,4.9751-.0627,9.9505,.0226,14.9248,.1111,4.5153,.0803,9.4794,.721,13.9491,.0218,6.7052-1.0489,10.4521-8.7746,6.6143-14.5288-1.7957-2.6924-4.6631-4.0099-7.8226-4.1943v4.7687c5.106-.2946,9.4274-4.0888,9.4274-9.4274,0-5.3391-4.3209-9.1329-9.4274-9.4274v4.7687c5.106-.2946,9.4274-4.0888,9.4274-9.4274,0-5.3391-4.3209-9.1329-9.4274-9.4274v4.7687c4.8365-.2821,9.0477-3.6755,9.3928-8.7249,.3354-4.9076-3.3786-9.2472-8.1843-9.9982-3.2378-.506-6.7514-.1318-10.0086-.1318-14.0932,0-28.1864,0-42.2795,0-3.9288,0-7.8576,0-11.7864,0l2.0588,3.5878c1.4151-2.303,2.8303-4.6059,4.2454-6.9089,1.4707-2.3934,3.2729-4.8003,3.8328-7.6048,.8772-4.3936-1.027-9.3856-5.0684-11.5652-2.6681-1.439-5.9182-1.1367-8.7097-.2572-7.6115,2.3982-14.2147,8.1212-20.1119,13.2869-6.3131,5.5301-12.7066,11.1575-17.8579,17.8087-10.7515,13.8822-16.3501,30.8844-21.9946,47.3009-4.5608,13.2646-8.8655,26.6378-12.5387,40.1775-1.8685,6.8875-3.6237,13.8421-4.7577,20.8935-.7063,4.3919-1.729,9.6622-.3242,14.0298,.5239,1.6287,1.571,3.1504,3.2695,3.6918,4.9268,1.5703,8.1142-4.5951,9.977-8.0441,5.8249-10.7848,7.7743-23.1699,8.1259-35.2907,.7449-25.676-4.2764-52.3041-18.8065-73.8849-7.1361-10.599-16.259-20.0591-26.1538-28.1211-2.2954-1.8702-4.6729-3.6301-7.3479-4.9218-2.7967-1.3505-5.7902-2.2597-8.5529-3.6824-5.6753-2.9227-11.0236-7.928-13.2231-14.0405-2.1977-6.1074,.6843-12.1944,1.5536-18.2697,.9464-6.6149,.975-13.3238,1.824-19.9541,1.5276-11.9285,4.0317-24.6402-.8359-36.1487-8.9494-21.1588-37.791-26.1934-57.4291-19.1855-8.7286,3.1148-16.5302,8.3641-21.9532,15.9304-4.542,6.3371-7.4635,13.8985-9.0283,21.5044-2.9709,14.4405-1.7937,32.1036,8.9375,43.2787,2.4632,2.5651,5.4267,4.6649,8.6721,6.1172,.829,.371,1.6753,.7118,2.5327,1.0109,.4224,.1473,1.0253,.4669,1.468,.4674,.8235,.001,.4679,.6705,.2088-.4759,.6172,2.731-.8398,6.7504-1.6232,9.3338-1.624,5.3559-5.8756,9.5463-11.2735,11.0565-2.1341,.5971-4.3341,1.0045-6.4935,1.4949-6.4854,1.4728-12.8448,2.5202-18.8435,5.4819-11.3757,5.6164-20.8104,14.4063-29.7912,23.2024-19.2767,18.88-37.7175,39.0008-52.6879,61.5249-6.3971,9.6249-12.3941,19.7419-17.4132,30.1603-2.4364,5.0574-6.4179,12.4501-4.9276,18.2533,.7638,2.9742,3.3987,4.2942,6.3214,3.8323,4.3485-.6872,5.7943-4.5389,5.2539-8.5401-.7411-5.487-4.2941-10.8802-6.8653-15.6797-2.8801-5.3759-5.9949-10.6255-9.3171-15.7397-13.5964-20.93-30.5571-39.5794-49.3998-55.8959-10.1486-8.7881-20.8521-16.9394-31.9396-24.5054-10.9647-7.4823-22.1566-14.6434-34.4294-19.7957-5.8384-2.451-11.8146-4.5409-17.8401-6.4802-6.0943-1.9615-12.3426-4.3974-18.5981-5.758-10.4038-2.2628-17.6318,10.5999-10.2559,18.3043,1.8677,1.9509,4.5612,3.2168,6.8509,4.589,2.1543,1.291,4.3086,2.582,6.4629,3.8731v-4.1176c-11.266,5.8639-22.532,11.7277-33.7979,17.5916-5.761,2.9985-11.4649,5.8572-12.601,13.1012-.9322,5.9439,2.5843,10.974,5.2403,15.964,5.9723,11.2207,11.6177,22.6954,17.9471,33.7187,4.4283,7.7124,13.1124,9.0068,20.5548,5.1331,5.9719-3.1083,11.9438-6.2167,17.9157-9.325,6.2532-3.2548,12.5793-6.3995,18.771-9.7702,3.6927-2.0103,6.1059-5.8384,5.4753-10.141-.9727-6.6376-8.0077-9.3807-13.7146-6.8209,.8023,1.3725,1.6046,2.7451,2.4068,4.1176,4.3695-2.6046,6.3863-8.1147,3.8511-12.7615-2.5797-4.7282-8.0681-5.9599-12.7615-3.8511,.8023,1.3725,1.6046,2.7451,2.4068,4.1176,4.3695-2.6046,6.3863-8.1147,3.8511-12.7615-2.5797-4.7282-8.0681-5.9599-12.7615-3.8511,.8023,1.3725,1.6046,2.7451,2.4068,4.1176,5.986-3.5734,6.8154-12.4674,.482-16.2531-3.8292-2.2889-7.6829-1.2492-11.3149,.6412-8.203,4.2696-16.406,8.5392-24.609,12.8089-2.6497,1.3792-5.2994,2.7583-7.9492,4.1375-2.7232,1.4174-.3147,5.5342,2.4068,4.1176h0Z"/><path d="M683.6906,382.2895c1.4616-.7176,2.901-1.7967,3.6539-3.2788,.8139-1.602,.9418-3.6908-.1508-5.2055-.4956-.6871-1.3827-1.0514-2.1748-.5703-.2594,.1576-.525,.3037-.7978,.4369-.0712,.0347-.1427,.0687-.2146,.1019-.0086,.004-.3596,.1612-.1426,.0663,.1945-.085-.0583,.0225-.0946,.0369-.0773,.0306-.1549,.0604-.2328,.0895-.6639,.2479-1.3472,.4444-2.04,.5928-.3302,.0707-.6881,.1688-1.0264,.1823,.1284-.0051,.2261-.027,.0383-.0081-.085,.0085-.1699,.0183-.2551,.0262-.1683,.0156-.3369,.0281-.5057,.0369-.3474,.0182-.6957,.0215-1.0433,.0062-.157-.0069-.3137-.0176-.4701-.0327-.0464-.0045-.3124-.0318-.0735-.0048,.2623,.0297-.0971-.0185-.1216-.0227-.8164-.1405-1.7519,.2168-1.9553,1.1102-.1757,.7712,.2339,1.8046,1.1102,1.9553,3.14,.5402,6.7053-.1734,9.4295-1.828-.7249-.1901-1.4499-.3802-2.1748-.5703,.0976,.1354,.1771,.2747,.2603,.4188,.1674,.2899-.0381-.229,.0207,.0747,.0201,.1039,.2095,.5758,.0634,.1798,.0381,.1034,.0185,.2599,.0182,.3719-.0003,.0833-.0034,.1665-.0094,.2496-.0178,.1828-.014,.1665,.0116-.049,.0133,.1073-.0524,.262-.0813,.3688-.0217,.0802-.2196,.5791-.0512,.2124-.0613,.1335-.1281,.2633-.2026,.3899-.076,.1292-.1602,.2517-.2456,.3747,.2125-.3059-.0593,.0611-.1153,.1224-.2033,.2224-.4275,.4157-.654,.6131-.0887,.0715-.0664,.0544,.0669-.0511-.0694,.0512-.1396,.1011-.2107,.1499-.1246,.0856-.2519,.1673-.381,.246-.2765,.1685-.562,.32-.8526,.4627-.7482,.3673-1.0121,1.4894-.5703,2.1748,.4942,.7666,1.3746,.9631,2.1748,.5703h0Z"/><path d="M393.0417,523.9512c11.6186,9.9261,20.8775,22.1346,29.2235,34.8531,8.3318,12.6969,15.8152,25.9436,24.4308,38.4553,8.2039,11.914,17.4814,23.3237,28.7015,32.5359,11.0724,9.091,24.0961,16.0078,38.3834,18.1616,14.8607,2.2403,29.9271-.3249,43.6711-6.2192,10.9899-4.7132,20.8667-11.6012,29.3227-20.0238,7.4086-7.3794,14.276-15.3839,20.3732-23.88,3.1109-4.3349,6.0277-8.8437,8.41-13.6245,2.0682-4.1504,3.7919-8.5217,4.3181-13.1563,.4517-3.9784-.384-7.7994-3.1413-10.7851-3.6519-3.9544-8.6159-6.8033-13.1199-9.6629-2.4104-1.5303-4.8345-3.0427-7.19-4.6571-1.8468-1.2656-3.2388-2.2172-4.8151-3.8659-5.4009-5.649-9.987-12.1297-13.7314-18.9799-1.8284-3.3449-3.4496-6.799-4.8326-10.3512-.4669-1.1993-1.6002-2.0316-2.933-1.6653-1.1446,.3146-2.1351,1.7264-1.6653,2.933,2.8374,7.2881,6.4919,14.2208,10.9992,20.6166,3.7034,5.2551,7.7446,10.5037,12.9797,14.3096,4.5267,3.2909,9.4081,6.0654,14.0448,9.1942,2.1081,1.4225,3.993,2.734,5.8214,4.4339,.342,.3179,.6762,.6449,.9953,.9859,.1726,.1844,.3354,.3762,.5034,.5645,.3629,.407-.0495-.1264,.24,.3089,.2168,.326,.4081,.6544,.5922,.9996-.1896-.3555-.0724-.2097,.0153,.0559,.0734,.2221,.1507,.4418,.2152,.6669,.0984,.3436,.168,.6914,.2436,1.0402,.0255,.1177,.0404,.2382,.0605,.357-.0022-.0131-.0536-.4599-.024-.1804,.0228,.2156,.0453,.4309,.0602,.6472,.0603,.8753,.037,1.7553-.0444,2.6284-.0157,.1682-.0861,.7563-.0221,.2852-.0283,.2085-.0614,.4164-.0963,.6239-.0841,.499-.1849,.9953-.2989,1.4883-.2335,1.0095-.5243,2.0054-.8542,2.9874-1.4558,4.3332-3.7733,8.569-6.325,12.6651-5.5858,8.9664-12.371,17.1989-19.5711,24.9088-6.965,7.4583-14.4279,14.0639-23.3186,19.1945-12.3696,7.1382-26.5417,11.405-40.8835,11.2278-14.0571-.1736-27.3541-5.0699-38.8708-12.9864-11.5013-7.9059-21.0995-18.4562-29.3887-29.605-8.8383-11.8874-16.2745-24.7268-24.1475-37.2532-7.9798-12.6963-16.4488-25.2477-26.9198-36.05-2.5612-2.6422-5.2417-5.1643-8.0395-7.5545-.9785-.8359-2.4112-.9608-3.372,0-.8564,.8564-.9834,2.5318,0,3.372h0Z"/><path d="M644.4459,438.5136c-7.3732,18.3254-11.1331,37.8205-14.2195,57.255-3.2351,20.3707-6.3819,40.7639-9.4042,61.1674-3.148,21.2528-6.0679,42.5402-8.6975,63.8636-2.6301,21.3272-4.9662,42.6914-6.9392,64.0897-1.9611,21.2698-3.5643,42.5733-4.7398,63.9012-.1497,2.7154-.2918,5.4313-.4279,8.1475-.1537,3.0673,4.6153,3.0592,4.7687,0,1.0691-21.329,2.5664-42.6352,4.4349-63.9089,1.8708-21.3007,4.1094-42.5684,6.6481-63.7995,2.538-21.225,5.3781-42.4129,8.4559-63.5661,2.9849-20.5147,6.2623-40.9847,9.3891-61.4779,2.9579-19.3861,6.2013-38.8927,12.7117-57.4567,.8192-2.3359,1.6942-4.651,2.6181-6.9474,.4842-1.2034-.5283-2.6077-1.6653-2.933-1.3559-.388-2.4545,.476-2.933,1.6653h0Z"/><path d="M759.3991,436.5903c-10.3489,15.1781-18.6063,31.8436-24.4809,49.2483-2.9484,8.7353-5.2744,17.6928-6.7875,26.7902-.7568,4.5503-1.3286,9.1365-1.6635,13.7376-.3312,4.5515-.6517,9.2509,.0359,13.7812,.3378,2.2255,1.0025,4.6877,2.4473,6.4611,1.3523,1.6599,3.7847,2.8944,5.8544,1.7627,2.062-1.1275,2.1056-3.4133,2.2617-5.4735,.1065-1.4058,.2105-2.8118,.2966-4.219,.353-5.771,.5273-11.7884-.9592-17.4285-1.4102-5.3504-4.781-9.9796-10.3097-11.4942-3.4621-.9484-6.8711-.475-10.3717-.1096-4.6343,.4837-9.2977,.6846-13.9564,.6094-18.4273-.2972-36.7958-4.9986-53.0522-13.6948-2.0233-1.0824-4.0113-2.228-5.9683-3.4259-2.6246-1.6064-5.0231,2.5163-2.4068,4.1176,15.1317,9.2617,32.2321,15.004,49.8433,17.0168,8.6887,.993,17.4882,1.0336,26.182,.0766,1.7964-.1978,3.5776-.4667,5.3901-.4211,1.3767,.0346,2.1906,.1399,3.5409,.5672,.3009,.0952,.6026,.1987,.8937,.3211-.3696-.1555,.2722,.1418,.3679,.1913,.4282,.2217,1.1863,.7014,1.3422,.8201-.1399-.1065,.3332,.283,.4253,.3664,.213,.1928,.4183,.3944,.6156,.6032,.5732,.6067,.4326,.4364,.8405,1.0415,.2885,.428,.5505,.8741,.7892,1.3316,.3345,.6411,.4469,.9136,.5917,1.3089,.4298,1.1737,.7588,2.3773,1.0038,3.6029,.2775,1.3882,.3573,2.0615,.4724,3.4506,.115,1.3882,.1669,2.7811,.1777,4.1738,.0216,2.775-.1191,5.5488-.3076,8.3165-.0911,1.3374-.1585,2.6835-.2962,4.0169-.0505,.4888-.3944,.8791,.3739,.3405-1.147,.8041,.5333-.4238,.532-.35,.0006-.0341-.0699-.0074-.077-.0302-.0537-.1743-.5765-.6249-.7031-.8474-.2462-.433-.4159-.9119-.5701-1.3832-1.3179-4.0278-.9166-8.5475-.6991-12.7157,.2172-4.1627,.6253-8.3191,1.235-12.4427,1.272-8.6032,3.2878-17.0912,5.8781-25.3907,5.1744-16.5792,12.6337-32.4612,21.9619-47.1073,1.0971-1.7226,2.2233-3.4263,3.3738-5.1136,1.7333-2.5421-2.397-4.9303-4.1176-2.4068h0Z"/><path d="M685.0015,350.4193c.0384-.033,.2915-.2355,.0984-.0877-.1774,.1357,.0276-.016,.0632-.0406,.1369-.0948,.2781-.1835,.423-.2655,.1452-.0821,.2962-.1507,.4448-.226,.1917-.0971-.2765,.1003-.073,.0311,.0875-.0298,.1732-.0653,.2609-.0947,.3182-.1067,.6418-.1784,.971-.2406,.2433-.046-.0584-.0214-.0912,.0111,.0383-.0381,.2281-.0213,.2779-.0246,.1671-.0113,.3346-.0164,.5021-.0148,.1488,.0014,.2977,.0079,.4461,.0196,.0253,.002,.3894,.0214,.1215,.0073-.2354-.0124,.0113,.0037,.0644,.013,.329,.0576,.6532,.141,.9687,.2505,.0691,.024,.2052,.0446,.2602,.0968-.0548-.052-.2694-.1264-.0742-.0281,.1488,.075,.298,.1472,.4424,.2306,.1445,.0835,.2822,.1761,.4208,.2687,.1848,.1235-.0265,.0197-.055-.0478,.0218,.0516,.2108,.1789,.2544,.2178,.6199,.5538,1.6449,.6569,2.248,0,.5555-.6051,.6622-1.6563,0-2.248-2.8702-2.5643-7.313-2.5772-10.2223-.076-.6328,.544-.6001,1.6971,0,2.248,.6739,.6186,1.573,.5803,2.248,0h0Z"/><path d="M666.2458,347.3577c.0614-.0302,.1233-.0592,.185-.0889,.1944-.0936-.0236,.0284-.097,.0397,.1433-.022,.2945-.109,.4345-.152,.2627-.0807,.5285-.1281,.796-.1866,.2077-.0454-.3304,.0322-.1185,.0142,.085-.0072,.1697-.0181,.2548-.0244,.1362-.0101,.2729-.0159,.4095-.0174,.1367-.0015,.2735,.0014,.41,.0085,.0683,.0036,.1365,.0083,.2047,.0139,.0599,.005,.3644,.0446,.0946,.0053-.2525-.0368-.0093,.0005,.0424,.0094,.0674,.0115,.1346,.0241,.2016,.0378,.134,.0273,.2671,.0588,.3991,.0944,.1319,.0356,.2627,.0754,.3921,.1194,.0809,.0275,.1603,.0585,.2408,.087,.2008,.071-.0313,0-.0959-.0429,.2221,.1476,.4941,.2387,.7242,.3797,.1312,.0804,.254,.1719,.3825,.256,.1723,.1127-.2329-.1975-.0781-.0613,.0641,.0564,.1312,.1097,.1955,.166,.6257,.5468,1.6406,.6616,2.248,0,.5503-.5994,.6686-1.6636,0-2.248-2.4415-2.1339-5.922-2.5856-8.8302-1.1549-.7479,.3679-1.0124,1.489-.5703,2.1748,.4939,.7661,1.3749,.9638,2.1748,.5703h0Z"/><path d="M687.8995,352.7967c-1.0642-.0855-2.1739,.5242-2.672,1.4692-.5034,.9551-.511,2.0731,.0007,3.0274,.1236,.2306,.2943,.4463,.4764,.6327,.1886,.1931,.4118,.3653,.648,.4961,.5427,.3005,1.208,.4685,1.8287,.4393,.3004-.0142,.6249-.0468,.9108-.1525,.4486-.1658,.7103-.3156,1.0758-.6228,.0602-.0506,.1125-.1077,.1617-.1689,.1244-.1547,.2668-.3122,.3545-.4939,.1998-.414,.2966-.7413,.3166-1.2057,.0098-.2274-.036-.4611-.0746-.6829-.0188-.108-.0519-.2117-.0919-.3135-.0894-.2278-.1814-.4629-.3108-.673-.1396-.2267-.3114-.4371-.4791-.642-.2307-.2819-.5303-.5293-.8391-.7175-.4194-.2554-.8275-.342-1.3056-.3921-.3801-.0398-.8645,.2061-1.124,.4656-.2757,.2757-.4833,.728-.4656,1.124,.0184,.4111,.1535,.8375,.4656,1.124l.3217,.2485c.2479,.1438,.5154,.2161,.8023,.217l.0297,.0031-.4226-.0568c.1053,.0142,.2051,.0425,.3033,.0832l-.3797-.1602c.1113,.0497,.2134,.1123,.311,.1853l-.3217-.2485c.1669,.1308,.3094,.2845,.4395,.4515l-.2485-.3217c.1181,.1566,.2231,.3192,.3033,.4985l-.1602-.3797c.0566,.1344,.0975,.2717,.1169,.4163l-.0568-.4226c.0103,.0957,.0109,.1902,0,.2859l.0568-.4226c-.0128,.089-.035,.1743-.068,.258l.1602-.3797c-.0346,.0805-.0775,.1549-.1296,.2252l.2485-.3217c-.0611,.0778-.1303,.1455-.2085,.206l.3217-.2485c-.0837,.0615-.1726,.1116-.2678,.1531l.3797-.1602c-.125,.0511-.2537,.0847-.3872,.1046l.4226-.0568c-.1748,.0224-.3485,.0202-.5233-.0014l.4226,.0568c-.1783-.0253-.3525-.0668-.5191-.1356l.3797,.1602c-.1141-.0496-.2209-.1105-.3206-.185l.3217,.2485c-.0983-.0764-.185-.163-.2612-.2614l.2485,.3217c-.0714-.0959-.1299-.1983-.1768-.3083l.1602,.3797c-.0506-.1246-.0842-.2533-.1022-.3865l.0568,.4226c-.0157-.1325-.0155-.2646,.0004-.3971l-.0568,.4226c.0189-.1391,.0547-.2736,.1083-.4033l-.1602,.3797c.0488-.1125,.1094-.2173,.184-.3147l-.2485,.3217c.0662-.0833,.1403-.1576,.2238-.2235l-.3217,.2485c.0872-.066,.1805-.1199,.2812-.1626l-.3797,.1602c.0999-.0399,.2024-.0672,.3087-.0835l-.4226,.0568c.118-.0157,.2354-.0174,.354-.0079,.3866,.0311,.858-.1996,1.124-.4656,.2757-.2757,.4833-.728,.4656-1.124-.0184-.4111-.1535-.8375-.4656-1.124l-.3217-.2485c-.2479-.1438-.5154-.2161-.8023-.217Z"/><path d="M666.7054,350.6773c-1.0642-.0855-2.1739,.5242-2.672,1.4692-.5034,.9551-.511,2.0731,.0007,3.0274,.1236,.2306,.2943,.4463,.4764,.6327,.1886,.1931,.4118,.3653,.648,.4961,.5427,.3005,1.208,.4685,1.8287,.4393,.3004-.0142,.6249-.0468,.9108-.1525,.4486-.1658,.7103-.3156,1.0758-.6228,.0602-.0506,.1125-.1077,.1617-.1689,.1244-.1547,.2668-.3122,.3545-.4939,.1998-.414,.2966-.7413,.3166-1.2057,.0098-.2274-.036-.4611-.0746-.6829-.0188-.108-.0519-.2117-.0919-.3135-.0894-.2278-.1814-.4629-.3108-.673-.1396-.2267-.3114-.4371-.4791-.642-.2307-.2819-.5303-.5293-.8391-.7175-.4194-.2554-.8275-.342-1.3056-.3921-.3801-.0398-.8645,.2061-1.124,.4656-.2757,.2757-.4833,.728-.4656,1.124,.0184,.4111,.1535,.8375,.4656,1.124l.3217,.2485c.2479,.1438,.5154,.2161,.8023,.217l.0297,.0031-.4226-.0568c.1053,.0142,.2051,.0425,.3033,.0832l-.3797-.1602c.1113,.0497,.2134,.1123,.311,.1853l-.3217-.2485c.1669,.1308,.3094,.2845,.4395,.4515l-.2485-.3217c.1181,.1566,.2231,.3192,.3033,.4985l-.1602-.3797c.0566,.1344,.0975,.2717,.1169,.4163l-.0568-.4226c.0103,.0957,.0109,.1902,0,.2859l.0568-.4226c-.0128,.089-.035,.1743-.068,.258l.1602-.3797c-.0346,.0805-.0775,.1549-.1296,.2252l.2485-.3217c-.0611,.0778-.1303,.1455-.2085,.206l.3217-.2485c-.0837,.0615-.1726,.1116-.2678,.1531l.3797-.1602c-.125,.0511-.2537,.0847-.3872,.1046l.4226-.0568c-.1748,.0224-.3485,.0202-.5233-.0014l.4226,.0568c-.1783-.0253-.3525-.0668-.5191-.1356l.3797,.1602c-.1141-.0496-.2209-.1105-.3206-.185l.3217,.2485c-.0983-.0764-.185-.163-.2612-.2614l.2485,.3217c-.0714-.0959-.1299-.1983-.1768-.3083l.1602,.3797c-.0506-.1246-.0842-.2533-.1022-.3865l.0568,.4226c-.0157-.1325-.0155-.2646,.0004-.3971l-.0568,.4226c.0189-.1391,.0547-.2736,.1083-.4033l-.1602,.3797c.0488-.1125,.1094-.2173,.184-.3147l-.2485,.3217c.0662-.0833,.1403-.1576,.2238-.2235l-.3217,.2485c.0872-.066,.1805-.1199,.2812-.1626l-.3797,.1602c.0999-.0399,.2024-.0672,.3087-.0835l-.4226,.0568c.118-.0157,.2354-.0174,.354-.0079,.3866,.0311,.858-.1996,1.124-.4656,.2757-.2757,.4833-.728,.4656-1.124-.0184-.4111-.1535-.8375-.4656-1.124l-.3217-.2485c-.2479-.1438-.5154-.2161-.8023-.217Z"/><path d="M684.3036,381.5861c.4354-.92,.6825-1.8193,.7873-2.8306,.0895-.8634-.0051-1.7604-.2173-2.5995-.5109,.6707-1.0219,1.3414-1.5328,2.0121,.7325,.0475,1.4915-.0471,2.1946-.2555,.7965-.236,1.3781-1.1274,1.1102-1.9553-.261-.8066-1.1014-1.3633-1.9553-1.1102-.2615,.0775-.5258,.1344-.7959,.1715l.4226-.0568c-.3251,.0392-.6493,.0484-.9762,.0272-1.0595-.0687-1.7715,1.0683-1.5328,2.0121,.0567,.2243,.1016,.4503,.135,.6793l-.0568-.4226c.0749,.5622,.0752,1.1264,.0029,1.6888l.0568-.4226c-.0756,.5359-.2154,1.0557-.4213,1.5562l.1602-.3797c-.0403,.0945-.0823,.188-.1263,.2809-.1862,.3934-.2796,.7915-.1602,1.2248,.1015,.3687,.3866,.7683,.7305,.95,.3689,.1949,.8158,.2926,1.2248,.1602,.3743-.1211,.7751-.3611,.95-.7305h0Z"/><path d="M469.5301,278.3467c3.8933-3.1789,7.7867-6.3579,11.68-9.5368,.9702-.7922,.8837-2.5607,0-3.372-1.0307-.9462-2.3369-.8451-3.372,0-3.8933,3.1789-7.7867,6.3579-11.68,9.5368-.9702,.7922-.8837,2.5607,0,3.372,1.0307,.9462,2.3369,.8451,3.372,0h0Z" style="fill:#6966ed;"/><path d="M436.2411,243.0621c-.2438,2.1943-.4876,4.3886-.7314,6.5829-.0631,.5677,.3117,1.2993,.6984,1.686,.4135,.4135,1.092,.725,1.686,.6984,.6166-.0276,1.2562-.2302,1.686-.6984,.4538-.4943,.6246-1.0223,.6984-1.686,.2438-2.1943,.4876-4.3886,.7314-6.5829,.0631-.5677-.3117-1.2993-.6984-1.686-.4135-.4135-1.092-.725-1.686-.6984-.6166,.0276-1.2562,.2302-1.686,.6984-.4538,.4943-.6246,1.0223-.6984,1.686h0Z" style="fill:#6966ed;"/><path d="M479.6834,314.1163c1.7067,.2438,3.4134,.4876,5.1201,.7314,.3169,.0994,.6339,.1136,.9508,.0426,.3173-.0144,.6128-.1087,.8865-.2829,.4946-.2894,.9663-.8565,1.0957-1.425,.139-.6104,.1089-1.2955-.2404-1.8373-.3117-.4835-.8277-1.0104-1.425-1.0957-1.7067-.2438-3.4134-.4876-5.1201-.7314-.3169-.0994-.6339-.1136-.9508-.0426-.3173,.0144-.6128,.1087-.8865,.2829-.4946,.2894-.9663,.8565-1.0957,1.425-.139,.6104-.1089,1.2955,.2404,1.8373,.3117,.4835,.8277,1.0104,1.425,1.0957h0Z" style="fill:#6966ed;"/><path d="M37.2542,260.2532c3.8772,6.55,8.7102,12.5615,15.0594,16.858v-4.1176c-6.636,3.3391-12.2002,8.6015-15.9713,14.9958h4.1176c-3.785-5.7606-7.9881-11.6188-14.2565-14.867v4.1176c3.9355-2.8574,7.8233-5.8737,10.8347-9.7199,1.2038-1.5375,2.401-3.1009,3.4115-4.7747,.9312-1.5425,1.7006-3.1301,.9221-4.899-.5188-1.1788-2.2414-1.4525-3.2622-.8554-1.2156,.711-1.3762,2.0789-.8554,3.2622-.1123-.255-.2257-1.8931-.2924-1.0717-.0228,.2803-.0971,.2088,.025-.0405-.056,.1142-.1083,.2308-.1696,.3424-.3369,.6139-.6957,1.2106-1.0828,1.7944-.8933,1.3474-1.7872,2.5335-2.6729,3.6326-2.5896,3.2136-5.9419,5.7992-9.265,8.212-1.3477,.9785-1.7284,3.222,0,4.1176,5.5499,2.8759,9.1953,8.0569,12.5457,13.1562,.9712,1.4782,3.1729,1.6018,4.1176,0,3.3829-5.736,8.3166-10.2941,14.2605-13.285,1.7054-.8581,1.3809-3.1831,0-4.1176-5.6568-3.828-9.9022-9.3248-13.3487-15.1472-1.562-2.6389-5.6859-.2427-4.1176,2.4068Z" style="fill:#6966ed;"/><path d="M70.1805,301.8158c2.9532,4.9825,6.6288,9.5217,11.4536,12.7956v-4.1176c-5.0424,2.5446-9.2619,6.5489-12.134,11.4061h4.1176c-2.8839-4.3874-6.0864-8.8277-10.8545-11.31v4.1176c2.9743-2.1622,5.9256-4.4338,8.2031-7.3425,.9178-1.1721,1.8355-2.3605,2.6102-3.6341,.6186-1.0169,1.4707-2.5307,.9619-3.7524-.4947-1.1879-1.5796-2.0373-2.933-1.6653-1.1216,.3082-2.1635,1.7368-1.6653,2.933,.0611,.1466,.0588-1.0685-.0263-.7329-.071,.28,.2693-.4422-.0667,.1312-.2435,.4156-.4774,.8328-.742,1.2361-.6889,1.0503-1.3438,1.9118-1.9154,2.6232-1.913,2.3809-4.3747,4.2987-6.8334,6.086-1.3492,.9808-1.7266,3.2187,0,4.1176,4.0492,2.1081,6.6952,5.8741,9.1437,9.5993,.9724,1.4793,3.1712,1.6005,4.1176,0,2.4823-4.198,6.0738-7.5005,10.4233-9.6954,1.7054-.8606,1.3804-3.1809,0-4.1176-4.1325-2.8042-7.2212-6.8304-9.7429-11.0849-1.5635-2.6379-5.6875-.2418-4.1176,2.4068Z" style="fill:#6966ed;"/></svg>