<?xml version="1.0" encoding="UTF-8"?><svg id="Layer_2" xmlns="http://www.w3.org/2000/svg" width="1000" height="1000" viewBox="0 0 1000 1000"><path d="M247.4477,696.8894s-74.2192-3.5258-130.0757,44.0125c5.7048-1.4636,27.9912,4.2777,27.9912,4.2777l-62.8825,35.1925,44.7023-7.6101-102.183,67.9596,127.5955-36.3605-31.8656,31.2104,62.43-32.8547-12.1341,32.4623s84.3495-55.4331,108.2838-94.3138" style="fill:#f953b2;"/><g><g><path d="M566.0559,648.7367l-21.8307,43.6283c-30.1356,69.1686-93.2635,122.4186-168.6781,141.8297-67.7357,17.4346-148.5258,32.5627-211.0234,13.475,83.8424-36.6397,223.5072-120.0974,223.5072-120.0974" style="fill:#6966ed;"/><path d="M486.1257,499.9827l-48.4303-5.8749c-74.3119-13.0457-153.5585,10.2066-211.3683,62.3812-51.9234,46.862-109.1285,105.883-127.7051,168.5345,76.8282-49.6936,223.5072-120.0974,223.5072-120.0974" style="fill:#6966ed;"/></g><path d="M876.4225,496.0004l98.5775-162.8539-190.2103-7.6791c-61.4904-2.4825-122.0283,15.7922-171.8743,51.884l-347.359,251.5111c-9.5936,6.9464-12.5696,19.9182-6.9633,30.3518h0s-17.55,9.4302-17.55,9.4302c-10.3337,5.5526-14.2095,18.431-8.6569,28.7647l28.9921,53.9558c5.5526,10.3337,18.431,14.2095,28.7646,8.6569l17.5501-9.4302h0c5.6063,10.4337,18.0659,15.1114,29.1535,10.9452l401.449-150.847c57.6079-21.6465,106.2592-62.0427,138.127-114.6895Z" style="fill:#f4d13b;"/><path d="M458.912,579.1882l-328.7256,204.5782,354.4203-155.8815c14.736-6.4812,20.8203-24.1471,13.2005-38.3279h0c-7.5416-14.0354-25.3677-18.7875-38.8952-10.3689Z" style="fill:#6966ed;"/><circle cx="713.9219" cy="473.4321" r="60.0995" style="fill:#fff;"/></g><path d="M358.0737,205.3312c-.3702,1.6492-.3873,3.373,.6216,4.8119,.9094,1.297,2.2419,2.1146,3.7035,2.6631,2.8542,1.0711,5.9382,.7805,8.8889,1.3285,.9777,.1816,2.6449,.4401,3.0917,1.5084,.3668,.877-.8244,1.517-1.438,1.9432-2.345,1.6288-5.0799,2.6135-7.9335,2.7858-.9731,.0588-1.8048,.7874-1.8048,1.8048,0,.9316,.8269,1.8639,1.8048,1.8048,2.6139-.1578,5.1164-.8019,7.4733-1.9452,1.1176-.5422,2.1565-1.2099,3.1388-1.9681,1.0576-.8164,2.0661-1.7864,2.3613-3.1476,.6296-2.9035-1.7381-5.1-4.267-5.9093-2.439-.7806-5.0473-.6742-7.5603-1.0043-1.2447-.1635-2.5493-.4451-3.6269-1.1143-1.0339-.6421-1.2333-1.4412-.9727-2.6022,.5079-2.2626-2.9713-3.2288-3.4807-.9596h0Z"/><path d="M627.6428,187.5649c8.9708-8.9921,18.085-17.861,26.9212-26.9851,2.9613-3.0578,4.4953-7.133,3.3601-11.3791-1.5932-5.9592-7.9481-9.6571-13.916-8.0616-4.5402,1.2138-8.0672,5.9105-11.2582,9.1091-11.3826,11.4097-22.7653,22.8193-34.1479,34.229-3.6928,3.7015-7.0389,7.2499-10.2628,11.4071-8.5272,10.9956-14.8421,23.3806-23.0652,34.5673-24.7349,33.6499-62.4341,54.9291-102.9577,63.2527-17.3806,3.57-35.2726,4.8498-52.9825,3.6971-13.7442-.8946-27.8047-3.1684-40.6157-8.4093-4.3025-1.7601-8.8393-4.0828-12.281-6.9443-2.8444-2.3649-4.7972-4.7206-5.5896-7.7836-1.0146-3.9218-.1085-10.8639,3.8128-14.2615,3.6905-3.1975,8.9144-4.184,13.4011-5.7534,5.3454-1.8698,10.4355-4.4644,13.6238-9.3392,4.5808-7.0038,4.0878-16.2207,2.9388-24.1228-3.2782-22.546-19.7569-51.1812-46.47-45.3254-12.8343,2.8134-24.4867,11.7947-32.4853,21.9651-9.1963,11.6933-13.2025,26.2807-15.2616,40.7846-2.0482,14.4263-4.4116,29.8392-2.395,44.3712,.6391,4.606,1.7771,14.8798,8.2994,14.7324,5.6929-.1287,7.6833-7.5863,4.6139-11.5434-3.672-4.7339-11.1462-5.2108-16.6421-5.7503-6.4349-.6317-12.9094-.3882-19.3111,.4684-13.5475,1.8127-26.5573,6.3924-38.7993,12.3818-24.3579,11.917-46.5771,29.5645-64.2232,50.1208-19.4069,22.6074-33.5257,49.6501-41.1748,78.4383-3.7994,14.2994-6.0077,29.0571-6.4976,43.8464-.2314,6.9848-.4646,13.9695-.7007,20.9542-.3598,10.6453-.8376,21.2866-1.2734,31.929-.5116,12.4932-1.6,25.1092-1.5404,37.6147,.0267,5.605,3.768,10.5487,9.4055,11.5396,5.8377,1.0261,10.9111-2.5752,12.8473-7.9467h-5.221c2.2878,9.0299,13.9981,12.1686,19.992,4.6353,2.9273-3.6791,2.4683-8.1225,2.4648-12.5033-.0077-9.9331-.0155-19.8661-.0232-29.7992-1.7726,.2399-3.5452,.4798-5.3177,.7197,1.7173,12.3065,2.8303,24.8621,5.1718,37.0625,1.0177,5.3028,5.6917,9.3309,11.1437,9.3394,6.1053,.0095,11.1783-5.0868,11.3564-11.1548,.0648-2.2065-.5236-4.5524-.8714-6.7219-.6257-3.9028-1.2514-7.8056-1.8771-11.7084-1.123-7.0046-2.246-14.0092-3.369-21.0138-1.7403,.4798-3.4807,.9596-5.221,1.4394,3.2554,8.0263,6.5107,16.0526,9.7661,24.0789,1.4991,3.696,2.9662,7.4069,4.4978,11.0896,2.3218,5.5826,7.8261,9.1764,13.9685,7.4286,6.4653-1.8397,9.676-8.9073,7.4332-15.0704-.8647-2.3762-1.9072-4.7023-2.8574-7.0451-4.1048-10.1205-8.2095-20.2411-12.3143-30.3616-3.0415-7.499-6.083-14.9981-9.1246-22.4971-1.1101,1.1101-2.2201,2.2201-3.3302,3.3302,5.3363,1.5725,10.6726,3.145,16.009,4.7176,2.6604,.784,5.2059,1.5217,8.0335,1.1844,4.8706-.581,9.0921-3.776,10.998-8.2891,1.9257-4.5602,1.2173-9.8954-1.8442-13.7869-1.7966-2.2836-4.1593-3.5669-6.624-4.9495-3.0129-1.6901-6.0257-3.3803-9.0386-5.0704-1.2381-.6945-2.4762-1.3891-3.7143-2.0836-1.3051-.7321-1.2688-1.232-.4604,.2183,.3686,.6612,.0106,.7589,.3102-.2502,.2616-.8812,.5924-1.7309,.9608-2.5721,1.1859-2.7083,2.6333-5.3148,4.0798-7.8899,3.6168-6.4387,7.5388-12.7079,11.5285-18.9206,3.2777-5.104,6.6085-10.1784,10.0567-15.1692,.4667-.6755,.9406-1.3457,1.4127-2.0174,.1577-.2244,.3203-.4462,.4849-.6655,.117-.1558,.3311-.4227-.214,.2767,.5706-.7322,1.1776-1.4387,1.7741-2.1496,4.0671-4.8472,8.4155-9.4607,13.0662-13.7526,10.7634-9.933,23.5312-18.4107,37.4352-23.2348,6.7926-2.3567,13.2853-3.1552,20.4097-2.3645,6.5419,.726,11.7998,.0019,17.123-4.1302,1.1777-.9142,.905-2.8734,0-3.8286-2.6411-2.7875-6.7557-2.9038-9.9787-1.0039-3.8467,2.2676-5.0353,6.8286-4.8701,11.0331,.2119,5.3908,1.5067,10.8874,2.5773,16.1592,1.0755,5.2964,2.3287,10.5567,3.7652,15.7669,5.7775,20.9551,14.5579,41.0556,25.8557,59.6195,10.9335,17.9653,23.7639,35.4494,38.6034,50.3913,15.0794,15.1833,32.6443,26.2478,52.8438,33.2925,20.4368,7.1275,41.9003,10.785,63.2064,14.2158,18.3204,2.9501,37.5235,3.9605,55.2457,9.7471,19.4902,6.3638,33.0582,20.7801,43.1812,38.1754,11.1265,19.1196,17.4628,41.2742,17.906,63.4072,.4495,22.4443-4.7303,45.0786-11.2044,66.4365-2.563,8.4554-5.1974,17.8272-3.153,26.6781,1.8574,8.0415,8.1987,13.1031,15.1819,16.7799,7.6694,4.0381,15.9687,6.6893,24.0962,9.6209,7.8247,2.8224,15.5617,5.6883,23.6062,7.8566,17.4062,4.6915,37.6648,8.6267,55.4076,3.4636,8.345-2.4284,16.11-7.8302,19.3807-16.1555,3.749-9.543-1.1868-18.0571-6.9543-25.4646-6.5496-8.412-11.5503-17.0024-13.4037-27.6489-1.7577-10.0964-.7186-20.5507,1.1305-30.5541,3.7016-20.0248,10.7609-39.4358,11.442-59.9473,.7067-21.2813-1.4384-42.7914-7.0433-63.3585-5.5888-20.5079-14.7396-40.0903-27.7406-56.9573-12.3493-16.0215-27.9321-29.3533-45.3096-39.6587-17.9063-10.6189-37.6976-18.1622-58.0214-22.5913-22.5569-4.9157-45.7213-6.2818-68.2551-11.3187-11.3593-2.5391-22.4656-6.0622-32.9463-11.1615-3.1206-1.5183-5.8688,3.1494-2.7328,4.6752,39.9476,19.4363,86.03,15.3428,127.4248,30.1705,37.7891,13.5361,70.7509,39.0948,89.4738,75.0186,9.5955,18.411,15.4287,38.7398,18.0897,59.2935,2.6078,20.1428,2.6518,40.5236-1.7502,60.3968-4.2014,18.9677-10.7005,38.0456-9.9978,57.7096,.3348,9.3679,2.4994,18.586,6.8937,26.8976,2.3044,4.3586,5.2781,8.2053,8.3016,12.0756,2.8425,3.6385,5.9268,7.5592,6.9842,12.1547,2.2587,9.8167-6.3009,17.8538-14.8413,20.7154-8.2014,2.7479-17.1085,2.8631-25.6515,2.2073-17.4834-1.3421-34.2678-6.4814-50.6231-12.5211-7.8705-2.9064-15.9424-5.364-23.4395-9.1858-7.3842-3.7642-13.5146-8.6432-13.9571-17.5184-.4454-8.9322,2.872-17.7406,5.457-26.1454,3.0805-10.0161,5.0739-20.4348,6.8444-30.7538,3.729-21.7337,3.6263-43.45-2.2681-64.7993-5.3828-19.4962-15.0506-38.4786-28.8092-53.4167-11.9195-12.9413-27.6174-19.8501-44.6434-23.2009-18.5726-3.6552-37.527-5.4709-56.184-8.7261-20.4438-3.567-41.2087-7.8555-60.2782-16.2873-18.851-8.3352-34.4442-21.5112-47.8907-36.9708-27.5656-31.6926-48.3407-69.3813-57.3078-110.5638-1.081-4.9648-2.0584-9.9744-2.7767-15.0058-.3483-2.4402-.7467-5.3145,.3913-7.6075,.8455-1.7037,3.2788-3.3315,4.9131-1.6065v-3.8286c-4.9679,3.8563-10.2774,2.7646-16.0682,2.2435-6.0961-.5485-12.177,.5846-17.9622,2.4816-11.5364,3.7829-22.4021,10.0585-31.9832,17.4529-12.7078,9.8075-22.8589,21.5657-31.6392,34.8472-7.3546,11.1249-15.3688,22.5292-20.6712,34.8204-1.3501,3.1295-2.759,6.7505,.7565,8.8895,4.9984,3.0414,10.2529,5.6861,15.3281,8.5987,4.205,2.4132,6.5634,7.2997,3.8887,11.8592-2.3704,4.0409-6.685,4.6215-10.8022,3.4313-5.7972-1.6758-11.5776-3.4117-17.366-5.1175-1.816-.5351-4.1239,1.3732-3.3302,3.3302,6.1125,15.0707,12.225,30.1414,18.3375,45.2121l4.4435,10.9556c.6983,1.7217,1.8163,3.7163,2.0754,5.5853,1.0161,7.3295-8.779,8.8757-11.5872,2.7477-1.5041-3.2822-2.7279-6.7258-4.0847-10.0709-3.3706-8.3104-6.7412-16.6209-10.1119-24.9313-1.3099-3.2297-5.7779-2.0339-5.221,1.4394,1.8752,11.6963,3.7503,23.3926,5.6255,35.0889,.4772,2.9766,.3066,6.1188-2.6737,7.8654-4.3109,2.5263-8.3055-.9951-8.9814-5.2121-.9853-6.1472-1.7226-12.3447-2.583-18.5105-.8332-5.9712-1.6665-11.9424-2.4997-17.9135-.4286-3.0715-5.3201-2.2537-5.3177,.7197,.0061,7.8577,.0122,15.7154,.0183,23.573,.0029,3.7597,.1338,7.5442,.0088,11.3021-.2406,7.2337-9.9874,8.6067-11.8253,1.3527-.6974-2.7527-4.362-2.3831-5.221,0-2.3832,6.6115-11.5245,4.5477-11.6164-2.1755-.016-1.1684,.0964-2.3529,.1442-3.5199,.2655-6.482,.5309-12.9639,.7964-19.4459,.5564-13.5865,1.125-27.1725,1.6692-40.7595,.4803-11.9921,.4524-24.0561,1.439-36.0202,2.3396-28.3716,11.2249-56.1894,25.4806-80.8101,13.4149-23.1685,31.7185-43.1445,53.1571-59.1308,20.7144-15.4464,45.4191-28.7604,71.6283-30.7525,6.2225-.4729,12.5378-.3005,18.6877,.7999,2.0693,.3702,7.4957,.9972,7.9164,3.7411,.0638,.416-.1126,1.2332-.39,1.5066-.8554,.8431-.9047,.0032-1.2999-.8886-.8331-1.8798-1.2597-4.1147-1.6531-6.1264-2.7027-13.819-.1633-28.8336,1.6-42.6405,1.8058-14.1394,5.2361-28.7275,14.0167-40.2819,7.5289-9.9073,19.09-18.8809,31.5937-21.0167,25.0767-4.2836,38.3978,28.021,38.9874,48.1736,.1799,6.1474-.8066,12.8375-5.9846,16.8225-3.7214,2.864-8.5028,3.9667-12.8654,5.4439-4.8055,1.6272-9.6015,3.7223-12.6287,7.9924-3.2189,4.5406-4.0908,11.2736-2.8962,16.6442,1.7385,7.8159,9.6222,13.0155,16.3038,16.3269,11.0392,5.4709,23.3307,8.2086,35.4746,9.8201,15.764,2.0919,31.7981,2.0651,47.5897,.2689,36.9988-4.2083,73.0731-18.1602,101.2916-42.8171,7.7993-6.815,14.8889-14.4001,21.2185-22.5958,7.623-9.8705,13.3704-20.8921,20.53-31.0704,7.765-11.0389,17.2794-19.9514,26.7747-29.4693,9.1789-9.2007,18.1496-18.6821,27.5703-27.6358,3.1765-3.019,8.5274-2.8379,10.1928,1.8124,1.1977,3.3443-.8025,5.64-2.9485,7.7911-5.0962,5.1083-10.1925,10.2167-15.2887,15.325-3.4904,3.4987-6.9809,6.9975-10.4713,10.4962-2.464,2.4698,1.3633,6.2997,3.8286,3.8286h0Z"/><g><path d="M368.53,251.2104s-27.5398,7.1409-39.6677-.9444c2.3101,8.0853,19.6357,15.5931,19.6357,15.5931,0,0,1.4166-8.2772,7.3498-9.9138,5.9332-1.6366,12.6822-4.7348,12.6822-4.7348Z"/><path d="M367.8103,248.5999c-3.1656,.8183-6.4083,1.3959-9.6399,1.876-1.3862,.2059-2.4718,.3445-4.2018,.5174-1.6297,.1629-3.2636,.2844-4.9,.3543-1.6792,.0717-3.3612,.0898-5.0411,.0351-.8103-.0264-1.6201-.0695-2.4284-.1327-.4001-.0313-.7998-.0674-1.199-.1089-.3945-.0411-.8846-.1008-.9046-.1036-1.744-.2452-3.4784-.6138-5.1558-1.1538-1.5263-.4914-2.5608-.9404-4.1111-1.9553-1.9783-1.2951-4.643,.8513-3.9769,3.0573,1.6522,5.4716,6.9683,9.3002,11.5662,12.2184,2.9648,1.8817,6.09,3.5918,9.3137,4.9926,1.4361,.624,3.6443,.2846,3.9769-1.6179,.1953-1.1169,.5591-2.2157,.976-3.2667-.2235,.5636,.0395-.0912,.0973-.2104,.1255-.2591,.249-.5183,.3841-.7725,.2632-.4953,.5554-.9701,.871-1.4334,.3304-.485-.1271,.1172,.2237-.2966,.2035-.2401,.4163-.4713,.6408-.6918,.5014-.4924,.3771-.425,1.0713-.8376,.5959-.3541,.6284-.3415,1.1947-.5139,.934-.2844,1.8719-.5465,2.7996-.8527,1.6612-.5483,3.3033-1.154,4.9307-1.7953,1.883-.742,3.7582-1.5171,5.5987-2.3598,1.3294-.6087,1.6569-2.5317,.9712-3.704-.7987-1.3655-2.3696-1.5822-3.704-.9712-1.9639,.8992-3.5036,1.523-5.7374,2.3668-1.6821,.6354-3.3808,1.2311-5.1028,1.7496-1.5426,.4645-3.0509,.9093-4.3734,1.8659-3.2384,2.3426-5.3784,6.3716-6.0625,10.2842,1.3256-.5393,2.6513-1.0786,3.9769-1.6179-2.9652-1.2884-5.8404-2.8467-8.5907-4.5406-2.3595-1.4532-4.2874-2.7828-6.1978-4.5424-.4734-.4361-.9327-.888-1.3701-1.3602-.181-.1955-.3586-.3942-.5316-.5969-.1131-.1324-.2242-.2664-.3333-.402,.1585,.2106,.1443,.1904-.0424-.0607-.3096-.4297-.5989-.8733-.8526-1.3385-.1299-.2382-.2549-.4803-.3622-.7297,.2556,.5942-.0762-.289-.1109-.4041l-3.9769,3.0573c5.7387,3.7568,13.2223,4.3451,19.897,4.2115,6.0884-.1219,12.1873-.948,18.1501-2.1617,1.2401-.2524,2.4811-.5156,3.7067-.8325,3.371-.8714,1.942-6.0951-1.4394-5.221Z"/></g><path d="M641.1375,185.8831c-3.4234,3.5157-6.8468,7.0314-10.2702,10.5471-1.5496,1.5914-3.1057,3.1768-4.649,4.7744-2.9831,3.0879-4.3663,7.5259-3.0788,11.7149,1.9025,6.19,8.9918,9.6459,15.0184,7.1635l-3.0573-3.9769c-1.9663,4.5634-1.2845,9.9892,2.5908,13.3885,3.7445,3.2845,9.0428,3.8003,13.3774,1.3659-1.2347-1.2347-2.4693-2.4693-3.704-3.704-2.4134,4.1584-2.0625,9.3098,.9537,13.0619,2.8207,3.5089,7.7616,5.0288,12.0706,3.686,3.8309-1.1938,6.5041-4.6251,9.2289-7.3888,3.7733-3.8271,7.5466-7.6543,11.3199-11.4814,1.4577-1.4785,2.9155-2.9571,4.3732-4.4356,.9771-.991,1.9789-1.9461,2.779-3.0948,2.9893-4.2917,2.4141-10.172-.9964-14.0278-3.5586-4.0232-9.5775-4.725-14.1647-2.1478,1.2347,1.2347,2.4693,2.4693,3.704,3.704,2.4828-4.2769,2.0241-9.5877-1.1868-13.3533-3.0576-3.5857-8.3899-4.8416-12.7345-3.0528l3.0573,3.9769c1.6084-3.7321,1.5696-8.0642-.8929-11.4542-1.2653-1.7418-2.9553-3.1457-4.5055-4.6248-4.2496-4.0548-9.3165-6.9-15.2723-7.4104-3.7812-.324-7.6913,.7576-10.3319,3.5831-2.3774,2.5439,1.4433,6.3809,3.8286,3.8286,.7482-.8006,1.5431-1.353,2.3887-1.6166,1.2862-.401,1.9425-.4772,3.3259-.4297,2.2828,.0784,4.9025,.8863,7.013,1.9672,3.2484,1.6637,5.5939,4.1851,8.3193,6.8642,1.7199,1.6907,2.4183,4.3174,1.4519,6.5599-.4409,1.0232-.5313,2.074,.2117,3.0067,.6105,.7665,1.8479,1.381,2.8456,.9702,2.5355-1.0439,5.3098-.7471,7.2174,1.3773,1.7969,2.0012,1.8962,4.8238,.5894,7.075-1.3738,2.3665,1.3551,5.0236,3.704,3.704,2.5604-1.4385,5.8503-.9753,7.7413,1.455,1.7945,2.3062,1.6487,5.589-.3711,7.7363-1.7249,1.8337-3.5374,3.5918-5.3048,5.3843-5.4266,5.5041-10.7875,11.0829-16.2844,16.5168-1.8519,1.8306-4.4646,2.4316-6.7736,1.3761-3.3557-1.534-4.4049-5.5227-2.6291-8.5825,1.3736-2.3668-1.3549-5.0233-3.704-3.704-2.1728,1.2203-4.8343,1.1297-6.816-.5193-1.9564-1.6279-2.7519-4.4883-1.7442-6.8271,.4409-1.0232,.5314-2.0739-.2117-3.0067-.6104-.7664-1.848-1.3811-2.8456-.9702-3.6547,1.5054-7.9605-.2274-8.6005-4.3704-.3387-2.1929,.7119-4.2087,2.3571-5.8983,3.6202-3.7178,7.2404-7.4356,10.8606-11.1535,1.2101-1.2427,2.4202-2.4854,3.6302-3.7281,2.4324-2.498-1.3924-6.3305-3.8286-3.8286h0Z"/><path d="M651.9647,198.9424c-4.8059,4.73-9.6118,9.4599-14.4177,14.1899-.6822,.6714-1.3644,1.3428-2.0466,2.0142-1.0109,.995-1.0716,2.8449,0,3.8286,1.0878,.9986,2.7499,1.0617,3.8286,0,4.8059-4.73,9.6118-9.4599,14.4177-14.1899l2.0466-2.0142c1.0109-.995,1.0716-2.8449,0-3.8286-1.0878-.9986-2.7499-1.0617-3.8286,0h0Z"/><path d="M663.1018,210.67c-4.8059,4.73-9.6118,9.4599-14.4177,14.1899-.6822,.6714-1.3644,1.3428-2.0466,2.0142-1.0109,.995-1.0716,2.8449,0,3.8286,1.0878,.9986,2.7499,1.0617,3.8286,0,4.8059-4.73,9.6118-9.4599,14.4177-14.1899,.6822-.6714,1.3644-1.3428,2.0466-2.0142,1.0109-.995,1.0716-2.8449,0-3.8286-1.0878-.9986-2.7499-1.0617-3.8286,0h0Z"/><path d="M127.9105,519.9476c-.1189,11.8977-.2378,23.7955-.3567,35.6932-.0169,1.6892-.0338,3.3784-.0506,5.0676-.0348,3.4851,5.3796,3.4879,5.4144,0,.1189-11.8977,.2378-23.7955,.3567-35.6932,.0169-1.6892,.0338-3.3784,.0506-5.0676,.0348-3.4851-5.3796-3.4879-5.4144,0h0Z"/><path d="M648.4114,239.2931c.0382,.4327,.0225-.351,.079-.495-.0914,.2328-.0996,.5159-.1792,.7571-.1644,.4977-.3384,.9874-.5248,1.4775-.3235,.8503,.1355-.2606-.2077,.4912-.2034,.4455-.4043,.8917-.6152,1.3338-3.7066,7.7706-8.4749,15.0797-13.1571,22.2822-9.4211,14.4924-18.9999,29.083-30.9664,41.6273-12.2217,12.8118-26.2746,23.7765-41.373,32.9948-29.506,18.0149-62.6688,29.4268-97.3718,30.4795-6.0787,.1844-12.2565,.0885-18.2589-.9768-5.258-.9332-10.9299-2.5219-14.9274-6.2626-1.8941-1.7725-3.36-3.9868-4.01-6.5162-.8384-3.2624,.6138-7.3183,4.5789-5.2753,3.8379,1.9775,4.2851,7.3214,5.1312,11.0601,.822,3.6323,1.8893,7.2099,3.2733,10.6689,4.7905,11.973,13.2518,22.1811,25.0992,27.6511,14.8413,6.8523,31.2469,5.1823,47.1402,5.5031,20.2205,.4082,40.4925,1.6608,60.4342,5.1693,17.9879,3.1648,35.5546,8.2656,52.4311,15.2491,32.0003,13.2417,61.1548,32.868,87.3825,55.3266,13.2871,11.3777,25.9004,23.5298,37.9542,36.2027,12.0744,12.6946,23.3136,26.1653,35.5784,38.6795,6.1441,6.269,12.564,12.2929,19.4808,17.7067,6.8096,5.3299,14.0705,9.6984,21.5913,13.9335,7.4879,4.2167,15.6595,8.3242,24.506,7.7673,9.2465-.5821,17.8266-5.453,27.1721-5.1509,3.453,.1116,7.0429,.9494,9.9126,2.9481,3.5022,2.4393,4.8309,6.3756,4.9249,10.5098,.206,9.0568-2.3591,18.5174-5.3837,26.9787-3.0473,8.5247-7.2526,16.6011-12.0616,24.2578-4.6183,7.3532-8.3763,15.1152-12.4009,22.7962-4.0063,7.6461-8.4975,14.9643-14.597,21.1343,.878-.2321,1.756-.4641,2.634-.6962-35.9354-11.0436-74.2659-14.3725-108.8825-29.6761-9.5403-4.2177-18.6513-9.3799-26.9178-15.7592-2.7564-2.1272-5.4553,2.5742-2.7328,4.6752,30.5026,23.5392,70.2646,29.8952,106.8627,38.177,10.1522,2.2974,20.2777,4.7453,30.231,7.8041,.9118,.2802,1.9717-.0263,2.634-.6962,6.4149-6.4891,11.2306-14.1845,15.4436-22.2301,4.2187-8.0565,8.267-16.0881,13.0479-23.834,4.9219-7.9745,9.1378-16.4144,12.2282-25.2708,3.0215-8.6589,5.5404-18.421,5.3093-27.6606-.2168-8.6676-5.0284-15.3907-13.4185-17.8327-8.9245-2.5976-17.7473,.4106-26.3891,2.6385-4.8479,1.2498-9.554,2.0409-14.5095,.917-4.2996-.9752-8.2844-2.8699-12.1429-4.956-7.9492-4.2978-15.7733-8.816-22.9268-14.3639-14.5254-11.2651-26.7934-25.1429-39.0085-38.7874-12.0375-13.4461-24.398-26.5735-37.5368-38.9555-26.1967-24.6879-55.208-46.8512-87.446-63.0725-15.9664-8.0338-32.701-14.6199-49.9759-19.2403-20.15-5.3895-40.9504-8.0412-61.7425-9.2722-10.5307-.6235-21.0797-.8853-31.6275-.9671-8.3217-.0645-16.6939,.3767-24.8714-1.4654-13.0114-2.931-23.6657-10.869-29.9197-22.6854-1.6955-3.2036-3.0303-6.5675-4.0938-10.0305-1.241-4.041-1.7237-8.3324-3.1744-12.2984-1.417-3.8738-3.9659-7.1662-8.0357-8.4183-3.6927-1.136-7.7575,.2161-9.6734,3.6571-3.2782,5.8877,.3101,13.5511,4.8377,17.6858,4.4234,4.0395,10.2916,6.1556,16.0842,7.2984,12.5583,2.4775,25.9311,1.572,38.5596,.034,19.8726-2.4203,39.0894-8.303,57.2757-16.6023,33.0257-15.0712,63.2678-37.6831,84.2167-67.582,8.3832-11.9648,16.7237-24.0521,24.0447-36.7073,2.2527-3.8941,4.9766-8.1494,6.1377-12.5575,.1308-.4967,.3029-1.0716,.2581-1.5786-.3039-3.4439-5.7212-3.4759-5.4144,0h0Z"/><path d="M597.1105,202.5767c6.9472,4.1564,13.8945,8.3128,20.8417,12.4692,1.9456,1.164,3.4044,2.908,3.7075,5.149,.447,3.3047-1.6714,6.442-4.6404,7.3617-1.8345,.5683-3.3806,.2174-5.2442-.31-2.1403-.6058-4.2807-1.2115-6.421-1.8173-4.3964-1.2443-8.7928-2.4886-13.1893-3.7329-3.3585-.9505-4.7921,4.2721-1.4394,5.221,4.0838,1.1558,8.1676,2.3116,12.2513,3.4675,2.367,.6699,4.734,1.3398,7.1009,2.0098,2.3484,.6647,4.6209,1.1115,7.0879,.6859,4.5414-.7834,8.3466-4.3557,9.5327-8.7895,1.2218-4.5675-.3719-9.6307-4.0749-12.5923-1.2225-.9777-2.6085-1.729-3.9486-2.5307-2.226-1.3318-4.452-2.6635-6.678-3.9953-4.0512-2.4237-8.1023-4.8475-12.1535-7.2712-2.9975-1.7933-5.7232,2.8861-2.7328,4.6752h0Z"/><g><path d="M272.2496,221.0453c-1.9132,6.4005-.0858,13.3354,2.6426,19.4331,1.9403,4.3365,4.3365,8.4688,7.1363,12.3068,1.4537,1.9927,3.2937,4.0624,5.7511,4.2751,4.1283,.3573,12.6291-11.5263,13.568-15.4103,1.0605-4.3869-2.2462-10.2797-2.0268-15.0512,.178-3.8714,2.5905-8.1328,6.2809-9.713,7.0531-3.0203,11.458,6.3379,13.079,11.7482-2.2543-7.5243-2.1886-15.7265,.1861-23.2136,1.7834-5.6229,4.9695-10.9651,9.7845-14.373,10.0521-7.1144,30.9025,.3336,36.1745-11.9985,6.4072-14.9874-6.0936-28.84-19.8612-32.484-7.3101-1.9348-14.9857-1.8882-22.5421-1.6014-2.3233,.0882-4.7389,.2228-6.7776,1.3406-2.0386,1.1178-3.5679,3.5233-2.9151,5.7548,.4543,1.5528,1.823,2.6628,3.2412,3.4414,3.4738,1.9069,7.7012,2.3931,11.5172,1.3245,.5372-.1504,1.1693-.4634,1.1698-1.0212,.0005-.661-.8462-.9209-1.504-.9864-7.9136-.7877-15.675-2.2137-23.4909-.9258-8.8987,1.4663-17.3231-.0028-25.3294,5.5096-2.3169,1.5952-4.4965,3.7191-5.1061,6.4652-.6199,2.7926,.6613,5.9073,3.0668,7.4554,2.4055,1.5481,5.7711,1.4239,8.056-.2972-1.8009-3.0199-6.2771-2.4178-9.6498-1.4236-3.2402,.9552-6.4804,1.9104-9.7206,2.8656-7.8868,2.325-17.0258,5.9099-18.8994,13.916-1.1699,4.9989,1.2441,10.4688,5.3797,13.5109,4.1356,3.0421,9.6979,3.7898,14.6941,2.6084,3.2892-.7778,6.9182-3.2744,6.3901-6.6128-5.6104,1.1569-11.4124,2.5146-15.8983,6.077-4.4859,3.5625-7.2315,9.9802-4.8392,15.1852,1.7403,3.7862,5.9043,6.1335,10.0676,6.311,2.2594,.0963,9.678,.4828,11.507-.8494,1.3277-.967,2.1511-2.4662,2.8653-3.9454,.1881-.3895,.3761-.8033,.3456-1.2347-.0777-1.1002-1.5975-1.5966-2.5696-1.0755s-1.4576,1.6315-1.7735,2.6883Z"/><path d="M269.639,220.3256c-2.7936,9.7855,1.5678,20.1211,6.5103,28.4543,1.22,2.0569,2.5406,4.0664,3.9895,5.9699,1.3287,1.7456,2.832,3.4036,4.8722,4.3132,3.3337,1.4862,6.1098,.1471,8.6985-2.0361,2.4662-2.0799,4.5153-4.7032,6.3586-7.3335,1.4998-2.1401,3.0672-4.5148,3.8144-7.0467,2.1581-7.313-5.5214-15.5091,.7332-21.8346,.5741-.5806,1.3309-1.1438,2.0021-1.4361,.4002-.1742,.8653-.2948,1.2945-.3647,.4634-.0755-.3446,.0132,.108,.0027,.2234-.0052,.4451-.0075,.6683,.0058-.4403-.0263,.462,.1126,.6794,.1727,.0645,.0178,.5573,.2153,.2797,.0938-.2749-.1203,.3241,.179,.377,.2092,.696,.3965,.8858,.5565,1.5728,1.2695,2.1673,2.2493,3.5413,5.5236,4.4724,8.5886,1.0096,3.3234,6.2058,1.9195,5.221-1.4394-2.7931-9.5269-1.92-20.5324,3.5611-28.98,1.2242-1.8868,2.7222-3.5955,4.4678-5.0192,.5874-.4791,1.2171-.9032,1.8786-1.2735,.299-.1674,.6046-.3175,.9115-.4694,.1026-.0508,.6155-.2727,.1842-.0926,.2017-.0842,.4069-.1606,.612-.2359,3.2894-1.2071,6.0934-1.4477,9.4032-1.7005,6.5414-.4997,14.2473-.1855,19.9365-3.9891,6.8852-4.6033,8.3259-14.6609,5.9481-22.0979-2.6247-8.2094-9.4638-14.7651-17.2374-18.2012-4.7016-2.0782-9.7088-3.0371-14.8148-3.4715-2.8299-.2408-5.6727-.2972-8.5116-.2656-2.7463,.0306-5.5421,.0226-8.271,.3592-2.6613,.3283-5.3553,1.1387-7.2285,3.1735-1.7661,1.9184-2.7136,4.5469-2.0116,7.128,1.4131,5.1953,8.4548,7.2801,13.176,7.3095,2.3188,.0144,5.7423-.194,7.3046-2.1649,.9071-1.1443,.98-2.7212,.2129-3.9592-.8005-1.2919-2.2489-1.6873-3.6587-1.8541-5.6408-.6671-11.3491-1.4768-17.0389-1.4418-2.825,.0174-5.5588,.4259-8.3515,.7885-2.406,.3124-4.8335,.4347-7.2518,.6121-5.0653,.3716-10.0602,1.039-14.6671,3.3071-4.4421,2.187-8.9512,5.9513-9.4401,11.1941-.471,5.051,3.3242,9.7403,8.3027,10.4221,2.4398,.3341,4.9854-.1956,7.0096-1.6301,1.1514-.8159,1.8217-2.3877,.9712-3.704-4.1083-6.3588-12.8726-2.6189-18.4931-.962-6.0484,1.783-12.5045,3.428-17.6806,7.2008-5.2587,3.8331-8.4276,9.6461-7.0884,16.2538,1.3796,6.8068,7.2553,11.9123,13.9507,13.1715,3.8899,.7316,8.128,.565,11.7964-1.0108,3.3131-1.4233,6.5421-4.5023,6.0789-8.4224-.2139-1.8102-1.5513-2.9988-3.4269-2.6105-6.3481,1.314-13.0239,2.977-17.9298,7.4893-4.2452,3.9047-6.9636,10.3901-5.0948,16.0927,1.928,5.8833,7.6453,9.0764,13.5792,9.331,2.1078,.0904,4.2213,.1561,6.33,.0567,2.2633-.1067,4.7502-.2567,6.5864-1.721,2.4778-1.9758,5.6017-6.8542,2.9134-9.7142-1.3292-1.4141-3.5845-1.735-5.2994-.9027-1.7775,.8627-2.696,2.6018-3.2709,4.4155-1.0554,3.3293,4.1702,4.7542,5.221,1.4394,.0135-.0425,.4745-1.0273,.465-1.054,.0187,.0526-.5103,.1472-.7342,.0668-.4833-.1736-.5045-.5727-.5836-.9768-.1691-.8637-.1429-.399-.3508,.0117-.2852,.5633-.5816,1.1384-.9511,1.6518-.2324,.323-.4948,.6176-.8,.8766-.3125,.2653,.2691-.0295-.0241,.0371-.286,.065-.5669,.1587-.8542,.2235-.1609,.0363-.3268,.0615-.4891,.0887,.4036-.0677-.0396,.0071-.2162,.025-2.9567,.2993-6.2361,.395-9.1929-.0155-3.594-.4989-7.0723-3.0852-7.4621-6.8203-.4002-3.8353,1.904-7.7064,4.8937-9.9995,4.1967-3.2188,9.6419-4.3331,14.7037-5.3808-1.1423-.8702-2.2846-1.7403-3.4269-2.6105,.1163,.9843,.0516,1.2973-.6116,2.0002-.6731,.7134-1.5649,1.2443-2.4678,1.6014-2.2549,.8916-4.9764,1.0352-7.3585,.7116-4.9314-.6701-9.2997-3.8489-10.5878-8.7815-2.6353-10.0914,10.0461-14.3266,17.5826-16.5483,3.4167-1.0072,6.8283-2.1778,10.2946-2.9994,1.2427-.2946,2.2805-.4763,3.5862-.3476,.7364,.0726,1.4091,.3566,1.7379,.8655l.9712-3.704c-2.738,1.9404-6.6231,.7978-7.1698-2.6953-.6173-3.9443,4.3097-6.8497,7.3429-8.2169,3.9364-1.7743,8.3366-2.0824,12.5826-2.3783,4.8768-.3399,9.7242-1.3075,14.6141-1.3151,2.8778-.0045,5.7499,.2312,8.6098,.5329,1.443,.1522,2.884,.3223,4.3255,.4881,.8041,.0925,1.6082,.1843,2.4129,.2712,.2902,.0313,.6905,.1287,.9675,.1021,.959-.092-.243,1.07-.6222-.9521v-1.4394c.1647-.8615,1.219-.9263,.3107-.7611-.4177,.076-.8245,.1981-1.2468,.2546-.6693,.0895-1.3539,.1054-2.0282,.092-1.5467-.0307-3.0976-.3377-4.5353-.9189-1.997-.8072-4.4392-2.3291-2.4618-4.4088,1.9927-2.0958,6.0888-1.6761,8.7012-1.7509,3.6277-.1038,7.264-.1135,10.8845,.1688,5.9916,.467,11.8183,1.8586,16.9238,5.1114,4.17,2.6568,7.8639,6.5202,9.7975,11.0331,1.9528,4.5576,2.0143,10.0929-.2492,14.5137-.5455,1.0653-.7902,1.3815-1.4069,2.0161-.8537,.8783-.8866,.8843-1.9498,1.493-1.4439,.8267-3.2255,1.3652-5.3193,1.7646-1.1249,.2146-1.7509,.2944-2.6191,.3898-1.1623,.1277-2.328,.2215-3.4942,.3045-2.2705,.1616-4.5446,.2775-6.8111,.4923-4.3903,.4162-9.0629,1.0915-12.8394,3.5473-5.9612,3.8764-9.7589,10.4417-11.7115,17.1422-2.2504,7.7224-2.1824,16.0771,.0777,23.786l5.221-1.4394c-1.7817-5.8647-5.4017-13.6145-12.3409-14.2852-4.0731-.3937-7.7981,2.3422-9.9475,5.5824-2.4407,3.6793-2.7537,7.9192-1.8601,12.1389,.6661,3.1452,2.4681,7.1125,1.4206,10.1573-.062,.1803-.3685,.8319-.0659,.197-.1048,.2199-.2037,.4423-.3116,.6608-.3013,.6097-.632,1.2048-.9777,1.7904-.7665,1.2985-1.6108,2.5519-2.5058,3.765-.7648,1.0367-1.7344,2.2127-2.7821,3.3248-.4699,.4987-.9549,.9838-1.4616,1.4451-.2511,.2285-.5082,.4483-.7685,.6662-.3267,.2736,.3117-.2243-.0181,.0195-.1522,.1125-.3055,.2233-.4628,.3287-.2341,.1569-.4806,.2902-.7187,.4397-.0827,.0519-.179,.0831-.2612,.135-.3106,.1959,.4763-.1424,.1388-.0519-.0964,.0258-.8674,.2532-.358,.1438,.4405-.0945-.1024-.0039-.2298-.0396-1.6175-.4537-2.7361-1.9697-3.6839-3.2857-3.1403-4.3604-5.8963-9.1504-7.7909-14.189-1.8138-4.8238-2.8904-10.031-1.4454-15.0925,.9583-3.3566-4.2646-4.7895-5.221-1.4394Z"/></g><path d="M366.2546,189.9885c-2.0523,.0106-4.1032,.5792-5.8579,1.6463-.8064,.4904-1.182,1.6402-.6475,2.4693,.5222,.8099,1.6062,1.1723,2.4693,.6475,.3961-.2409,.8067-.4526,1.2324-.6364l-.4311,.1819c.8024-.3377,1.6407-.5669,2.5034-.6839l-.4798,.0645c.4024-.0508,.8056-.0775,1.2113-.0796,.9439-.0049,1.8486-.8266,1.8048-1.8048-.0436-.9737-.7931-1.8101-1.8048-1.8048h0Z"/><path d="M347.2434,194.1516c-1.8289-.7885-3.7084-1.0085-5.6714-.6458-1.7671,.3265-3.4507,1.2374-4.7157,2.5087-.6668,.6701-.7195,1.8919,0,2.5524,.719,.66,1.8408,.7151,2.5524,0,.127-.1276,.2566-.2517,.3923-.37,.0601-.0524,.1233-.1015,.1832-.154,.1783-.1564-.2788,.1941-.081,.0635,.2841-.1875,.5596-.3781,.8608-.5385,.1588-.0846,.3219-.1582,.4843-.2351,.2167-.1026-.3272,.1191-.0992,.0445,.0757-.0248,.1496-.0565,.2248-.0829,.3395-.1192,.6871-.2144,1.0398-.2852,.0784-.0157,.157-.0303,.2359-.0436,.057-.0096,.3387-.0532,.0567-.0113-.2809,.0418-.0006,.0041,.058-.0012,.0995-.009,.1991-.0163,.2989-.0214,.3389-.0171,.6788-.012,1.0169,.0164,.0795,.0067,.1586,.0168,.238,.0238,.2432,.0216-.3629-.0675-.1246-.0142,.175,.0391,.3523,.0652,.5268,.108,.1548,.038,.3085,.0813,.4603,.1298,.1234,.0395,.7241,.2812,.2408,.0728,.4636,.1999,.8822,.322,1.3907,.1819,.4186-.1153,.8723-.439,1.0786-.8294,.4107-.7773,.2782-2.0703-.6475-2.4693h0Z"/><path d="M360.3987,228.2935c-.6942,.0796-1.392,.1065-2.09,.071-.1859-.0095-.3715-.0231-.5568-.0408-.0926-.0089-.1852-.0188-.2776-.0297,.2489,.0355,.2705,.0383,.0648,.0084-.3216-.0542-.6418-.1102-.9596-.1839-.6747-.1564-1.358-.3572-1.9917-.639,.4035,.1794,.0106-.0013-.0795-.0436-.1685-.079-.3352-.1618-.5-.2483-.3299-.1732-.6499-.3628-.9636-.5637-.7964-.5102-2.0267-.1902-2.4693,.6475-.4726,.8945-.2025,1.9248,.6475,2.4693,2.6827,1.7185,6.006,2.5258,9.176,2.1624,.9347-.1072,1.8519-.7533,1.8048-1.8048-.0397-.8856-.8003-1.92-1.8048-1.8048h0Z"/><path d="M344.5062,206.0871c.0614-.0529,.1239-.1041,.1879-.1539l-.3653,.2822c.2757-.2079,.5733-.3777,.8912-.5123l-.4311,.1819c.3392-.1377,.6902-.2313,1.0528-.2818l-.4798,.0645c.3631-.0452,.7261-.0458,1.089,.0008l-.4798-.0645c.2613,.0376,.5157,.0985,.7652,.1847,.4258,.1471,1.0114,.04,1.3907-.1819,.3744-.2191,.7314-.6484,.8294-1.0786,.1052-.462,.0825-.9806-.1819-1.3907-.2641-.4096-.6157-.6695-1.0786-.8294-.984-.3399-2.0415-.3404-3.0537-.1467-1.0084,.1929-1.9181,.7103-2.6885,1.3734-.3349,.2883-.5286,.8483-.5286,1.2762,0,.4427,.1966,.9714,.5286,1.2762,.344,.3157,.7955,.5501,1.2762,.5286,.4986-.0223,.8972-.2024,1.2762-.5286h0Z"/><path d="M365.013,202.6867c.3733-.2168,.7587-.4097,1.1558-.579l-.4311,.1819c.688-.2885,1.4033-.5016,2.1373-.6356,.4225-.0771,.8692-.4715,1.0786-.8294,.2264-.3869,.3223-.957,.1819-1.3907-.1413-.4367-.412-.858-.8294-1.0786l-.4311-.1819c-.3199-.086-.6397-.086-.9596,0-1.3041,.238-2.5792,.7315-3.7242,1.3965-.3917,.2275-.7093,.6424-.8294,1.0786-.119,.432-.0653,1.0073,.1819,1.3907,.2485,.3854,.6184,.7246,1.0786,.8294,.4748,.1081,.9619,.0671,1.3907-.1819h0Z"/><path d="M670.9044,726.6529c-2.0272,4.3966-3.969,9.6126-1.7911,14.3255,.981,2.1228,2.7795,3.6676,5.1994,3.7026,2.5924,.0375,4.7902-1.9977,4.0532-4.6948-.4111-1.5042-1.8895-2.1494-3.3302-1.8908-6.3273,1.1355-10.9359,7.5036-10.8825,13.7896,.0577,6.7879,5.5952,11.7054,12.0609,12.496,3.6166,.4422,7.0427-.5856,9.8974-2.8056,1.1552-.8983,.9434-2.8852,0-3.8286-1.1403-1.1403-2.6704-.9007-3.8286,0-1.7266,1.3427-4.3985,1.6085-6.5475,1.0896-2.4377-.5886-4.5337-1.9514-5.6078-4.257-.9471-2.0331-.6524-4.755,.4958-6.8773,1.283-2.3716,3.2236-3.9141,5.8516-4.3857-1.1101-.6303-2.2201-1.2606-3.3302-1.8908-.1164-.9839,.1845-1.6353,.9027-1.9544,.4249-.2071,.4703-.2573,.1362-.1506-.0131,.0486,.4634-.227,.0053-.0579,.257,.0358,.288,.0302,.093-.0168-.1842-.0564-.1656-.0453,.0557,.0334,.0055-.0504,.2035,.5563-.0315-.0653-.367-.9711-.7486-1.6573-.7506-2.7248-.0046-2.4615,1.0092-4.9024,2.0241-7.1035,.6118-1.3269,.376-2.916-.9712-3.704-1.1677-.683-3.0889-.3627-3.704,.9712h0Z"/><path d="M809.4085,604.2832c5.77,4.5257,14.3076,5.0939,20.2794,.5314-1.0936-1.4173-2.1871-2.8346-3.2807-4.2519-1.9162,2.3549-2.4518,5.3305-1.4128,8.2148,1.1192,3.1067,3.453,5.2535,6.5168,6.3943,6.8238,2.541,13.6286-1.565,20.5067-.9828,1.4588,.1235,2.7072-1.3327,2.7072-2.7072,0-1.5673-1.2443-2.5834-2.7072-2.7072-5.6633-.4794-11.0441,2.3184-16.676,1.7503-1.8802-.1897-3.7288-.9338-4.6722-2.3818-.3839-.5892-.7309-1.5143-.7799-1.9391-.0611-.5306-.0216-.8467,.0483-1.11,.063-.2374,.1938-.5751,.2976-.7027,.8506-1.0454,1.1076-2.4298,.2117-3.5546-.7558-.9488-2.406-1.5273-3.4923-.6973-3.8832,2.9669-9.7313,3.4422-13.718,.3152-1.1493-.9015-2.7074-1.1212-3.8286,0-.9377,.9377-1.1569,2.9212,0,3.8286h0Z"/></svg>