<?xml version="1.0" encoding="UTF-8"?><svg id="Layer_2" xmlns="http://www.w3.org/2000/svg" width="1000" height="1000" viewBox="0 0 1000 1000"><g><g><rect x="25" y="559.74" width="109.4108" height="109.4108" style="fill:#f4d13b;"/><rect x="134.4108" y="559.74" width="109.4108" height="109.4108" style="fill:#f953b2;"/><rect x="243.8215" y="559.74" width="109.4108" height="109.4108" style="fill:#f4d13b;"/><rect x="25" y="669.1507" width="109.4108" height="109.4108" style="fill:#f953b2;"/><rect x="134.4108" y="669.1507" width="109.4108" height="109.4108" style="fill:#f4d13b;"/><rect x="243.8215" y="669.1507" width="109.4108" height="109.4108" style="fill:#f953b2;"/><rect x="25" y="778.5615" width="109.4108" height="109.4108" style="fill:#f4d13b;"/><rect x="134.4108" y="778.5615" width="109.4108" height="109.4108" style="fill:#f953b2;"/><rect x="243.8215" y="778.5615" width="109.4108" height="109.4108" style="fill:#f4d13b;"/><rect x="353.2323" y="559.74" width="109.4108" height="109.4108" style="fill:#f953b2;"/><rect x="353.2323" y="669.1507" width="109.4108" height="109.4108" style="fill:#f4d13b;"/><rect x="353.2323" y="778.5615" width="109.4108" height="109.4108" style="fill:#f953b2;"/></g><g><path d="M683.6551,455.5019l66.4392-32.8088c31.2548-15.4342,52.8743-45.3039,57.7704-79.8162l21.2425-149.7358c3.6769-35.9377-21.7511-68.3385-57.5327-73.3095l-50.6088-7.0308c-14.7403-2.0478-32.2818,.0237-48.3294,5.6128-31.9424,11.1251-46.9941,47.6603-32.1869,78.0713l29.5258,60.6398" style="fill:#f953b2;"/><path d="M736.2998,199.5358l7.2756-52.3698h0c-23.7812-3.3038-45.7379,13.2964-49.0417,37.0776l-1.2378,8.9124-21.8277,3.5306-126.6082,43.1651c-5.3771-6.453-13.081-11.0012-22.0563-12.2483-19.1373-2.6585-36.8064,10.7001-39.4649,29.8374-2.6525,19.0934,10.639,36.7238,29.7059,39.4452l-.0005,.0018,101.2417,14.065-62.5267,10.4603c-58.8745,12.4406-69.1029,53.5749-44.5237,101.1241l50.4789,97.6527-11.4392-1.5892c-7.5621-1.0505-14.5443,4.2282-15.595,11.7905l-3.357,24.165,185.8207,25.8152,3.357-24.1652c1.0507-7.5621-4.2282-14.5443-11.7907-15.595l-.1787-.0248,31.6697-227.9625c16.318-10.0242,28.1983-26.9866,31.0394-47.4362,3.7372-26.9009-9.216-52.2584-30.9409-65.6521Z" style="fill:#f4d13b;"/><path d="M495.9319,556.9078h236.0384v58.109c0,6.0928-4.9466,11.0395-11.0395,11.0395h-213.9595c-6.0928,0-11.0395-4.9466-11.0395-11.0395v-58.109h0Z" transform="translate(87.23 -78.8551) rotate(7.9092)" style="fill:#6966ed;"/></g><path d="M718.5677,520.1838c-15.7773,33.497-30.0182,67.7143-42.621,102.5308-6.3595,17.5687-12.4456,35.2752-17.7561,53.1918-5.3877,18.177-9.9876,36.5757-15.3089,54.7717-5.2706,18.0227-9.5628,36.2494-14.4436,54.3741-4.4157,16.3978-9.7625,32.7185-20.426,46.2352-2.3374,2.9628-4.9005,5.747-7.654,8.3271-1.7132,1.6053-3.4075,3.2102-4.6464,5.23-1.6994,2.7705-2.3312,6.0629-1.3177,9.1936,2.3126,7.1443,10.8477,11.0436,17.1969,13.6896,9.293,3.8729,19.1812,6.3667,29.0519,8.2556,10.5335,2.0158,27.6413,5.4478,31.6534-8.0152,.5304-1.7798-.9051-3.2905-2.598-3.4105-2.84-.2013-5.3762,1.5546-6.2713,4.2874-1.0394,3.1734,.5984,6.3992,2.6479,8.7525,4.5588,5.2343,12.719,9.2098,19.4834,10.4473,8.3677,1.5309,15.1931-3.8363,19.6541-10.3705,5.3225-7.7961,8.2456-17.2791,10.6162-26.3232,2.4636-9.3989,4.1802-18.966,5.9042-28.5214,2.034-11.274,5.0598-22.2802,7.9887-33.353,4.6828-17.7033,9.5625-35.3555,14.7472-52.9187,10.1245-34.2965,21.9245-67.7611,35.8066-100.7189,6.9834-16.5795,14.2119-33.0545,21.211-49.6273,2.1243-5.0302,5.5242-11.4222,2.9414-16.9556-2.6644-5.7083-9.4127-4.4084-12.8967-.2957-9.4698,11.1787-7.8236,28.9025-5.1132,42.1359,3.313,16.1752,8.4801,32.1422,13.9219,47.7105,10.9487,31.323,24.7923,62.0425,42.0099,90.4399,14.4573,23.8448,32.7202,46.3017,40.897,73.3678,2.088,6.9114,3.503,14.0239,4.0484,21.227,.5434,7.1773-.7845,14.6578,.4041,21.7423,2.1818,13.0052,18.0552,14.4428,28.4472,11.1387,20.3999-6.4861,34.2295-29.5443,37.2863-49.761,.7423-4.9094,.8433-9.7714,.0482-14.6792-.3351-2.0684-3.1857-2.4996-4.5031-1.1889-5.4758,5.4478-.1512,13.3275,6.162,14.7573,6.7152,1.5208,12.7808-2.4007,16.7967-7.5025,8.1398-10.3409,6.2795-24.8377,2.8168-36.6098-3.7011-12.5824-9.7237-24.4737-16.3271-35.7594-9.8205-16.7839-18.9227-33.8219-26.3804-51.807-15.8364-38.191-25.4804-78.9896-28.1922-120.2515-1.456-22.1536-1.2967-44.4511-1.6697-66.6428-.3782-22.5021-.8209-45.007-1.8649-67.4898-1.0503-22.6192-2.7165-45.218-5.4685-67.6976-.8458-6.9089-1.6746-13.7701-3.2357-20.5525-1.2827-5.5731-2.5919-11.2225-2.894-16.951-.1323-2.5091-.6245-10.4958,3.8397-9.8586,4.3926,.6269,4.312,10.485,4.4349,13.6056,.7337,18.6247-1.3053,37.2814-4.6353,55.5829-5.0211,27.5959-17.6512,63.8671-50.5966,66.1948-24.1029,1.703-47.6076-12.4356-66.4075-25.9795-13.5752-9.7799-26.2858-20.8963-37.9075-32.9329-4.6493-4.8153-9.4524-9.4881-14.1855-14.2212-3.3796-3.3796-6.6046-6.7366-11.9183-5.9798-7.6647,1.0915-10.8342,9.485-7.2868,15.9039,1.8259,3.304,3.9721,6.4641,5.9488,9.6809,.7755-1.3514,1.5509-2.7027,2.3264-4.0541-9.3902,0-18.7804,0-28.1705,0-9.3513,0-18.8281-.4554-28.1705,0-4.676,.2279-8.8706,3.5979-9.1943,8.4531-.3593,5.3909,3.8757,9.2277,8.9841,9.6067v-5.3885c-11.6091,.8518-11.612,17.2078,0,18.0598v-5.3885c-11.6091,.8518-11.612,17.2078,0,18.0598v-5.3885c-4.5653,.3387-8.5733,3.3837-8.9757,8.1973-.3897,4.6622,2.9922,8.8325,7.5469,9.6986,4.4006,.8368,9.4216,.1639,13.8627,.1639,6.5782,0,13.1564,0,19.7345,0,7.9403,0,14.4493,2.3177,19.4285,8.8761,18.3216,24.1323,40.8298,46.1616,67.8885,60.2635,16.6585,8.6818,35.101,14.0737,53.9767,14.0505,20.2565-.0249,40.6891-6.2163,57.8326-16.9593,27.8051-17.4241,45.4569-47.0456,54.3394-78.0408,9.4123-32.8438,10.0374-68.6432,1.8187-101.8032-3.9009-15.739-9.9483-31.1152-18.5916-44.8711-4.1015-6.5277-8.8054-12.7158-14.101-18.3224-6.6061-6.994-15.8102-12.0525-16.3588-22.708-.345-6.7015,1.0886-13.814,1.7187-20.4877,.5949-6.3003,1.5202-12.5475,2.185-18.8372,1.2384-11.7166-.4765-23.2875-10.2653-30.9471-16.1804-12.6609-43.3801-10.4204-56.5399,5.7274-9.5385,11.7043-12.8595,29.7377-8.353,44.131,2.1194,6.769,6.301,13.0481,12.6909,16.4307,.8843,.4681,3.7653,2.2317,4.7924,1.9392,1.529-.4354-2.4276,2.0268-.306-.9307,.0248-.0346,.0388,.5255,.0033,.6209-.2322,.6252-.162,1.6316-.2832,2.3024-.6356,3.5155-1.6814,7.0516-2.9548,10.3881-1.617,4.2367-5.9151,4.2158-9.9296,4.5482-5.7463,.4758-11.387,1.7208-16.8357,3.5985-11.1278,3.8348-21.6074,9.9254-30.3612,17.8024-8.9665,8.0684-16.3341,17.9996-27.1123,23.8661-11.4935,6.2559-25.2258,5.6998-37.2881,1.4325-12.0617-4.2671-22.2458-12.4979-31.0208-21.611-8.5101-8.838-18.5346-18.6323-20.7189-31.1745-1.0549-6.0571-.3496-12.383-.6614-18.4976-.4735-9.2858-11.8354-14.226-18.2771-6.7952-3.3954,3.9168-3.7203,10.8289-4.8036,15.699l4.5031-1.1889c-6.7422-6.5359-13.4844-13.0719-20.2266-19.6078-6.7191-6.5136-13.2246-13.3966-20.2266-19.6078-3.4905-3.0963-8.8699-3.6374-12.4857-.3894-4.0036,3.5964-3.7022,9.3203-.2952,13.1514,1.2701-1.2701,2.5402-2.5402,3.8102-3.8102-3.757-3.1428-9.1475-3.5481-12.7691,.1392-3.5952,3.6604-3.1083,9.1234,.1392,12.7691,1.2701-1.2701,2.5402-2.5402,3.8102-3.8102-3.757-3.1428-9.1475-3.5481-12.7691,.1392-3.5952,3.6604-3.1083,9.1234,.1392,12.7691,1.2701-1.2701,2.5402-2.5402,3.8102-3.8102-3.5073-2.9291-8.4918-3.5929-12.1506-.4209-3.5471,3.0751-4.0385,8.4317-1.3651,12.2394,1.8227,2.5962,4.6389,4.7281,6.8939,6.9141,9.6398,9.3449,19.2795,18.6897,28.9193,28.0346,1.4587,1.4141,2.9174,2.8282,4.3761,4.2423,.2421,.2347,.7656,.9706,1.099,1.0654,.7499,.2131-.4656-.8795-.4619-.8852-.5892,.9157,2.0617,6.6113,2.3786,7.533,4.5116,13.1217,10.3223,25.8884,17.4837,37.7773,10.4736,17.3878,24.2862,33.4298,42.402,43.0994,3.0583,1.6324,5.7834-3.0175,2.7197-4.6528-27.3702-14.6093-44.6687-43.779-55.3548-71.9751-1.3742-3.6258-2.6567-7.2905-3.7856-11.0005-.48-1.5776-.7523-2.758-1.877-4.0025-6.8671-7.5978-14.8698-14.4149-22.221-21.5412-4.6319-4.4902-9.2639-8.9805-13.8958-13.4707-1.1581-1.1226-2.3872-2.205-3.4897-3.3829-3.2112-3.4307,.3805-9.2194,4.519-5.7632,2.6447,2.2087,6.145-1.1892,3.8102-3.8102-3.0892-3.468,1.3792-8.3246,5.0095-5.2878,2.6436,2.2114,6.1443-1.1899,3.8102-3.8102-3.0892-3.468,1.3792-8.3246,5.0095-5.2878,2.6442,2.2119,6.1418-1.1884,3.8102-3.8102-3.3221-3.7357,1.5368-7.941,5.2337-5.0704,.6287,.4882,1.179,1.1429,1.7495,1.696,2.9878,2.8964,5.9756,5.7927,8.9633,8.6891,7.9366,7.6938,15.8731,15.3875,23.8097,23.0813,1.9524,1.8927,3.9048,3.7854,5.8572,5.678,1.393,1.3504,4.0514,.842,4.5031-1.1889,.5587-2.512,1.1174-5.024,1.6762-7.5359,.6896-3.1003,1.0652-6.9842,4.8558-7.7597,7.9643-1.6294,6.0675,11.6168,6.1357,16.0049,.1464,9.4273,2.3805,18.2475,8.2921,25.7907,7.2081,9.1975,15.1609,18.2303,24.1632,25.7108,17.3478,14.4154,42.1356,23.3702,63.6812,12.7251,10.2031-5.0411,17.8925-13.7693,25.7874-21.7105,8.4218-8.471,18.5409-15.1789,29.7393-19.4067,5.296-1.9994,10.8519-3.522,16.4955-4.0902,4.4172-.4447,9.2732-.2797,12.8814-3.2997,2.2784-1.907,3.0939-4.5737,4.0048-7.3106,1.0974-3.2975,2.0678-6.6921,2.5317-10.1428,.2999-2.2309,.5029-5.0263-1.7729-6.3035-1.4786-.8298-3.3458-1.0141-4.8914-1.7931-1.5626-.7875-2.9992-1.7734-4.2756-2.9699-5.116-4.7956-7.3295-11.9754-7.8079-18.8072-1.105-15.7794,5.298-32.4065,20.2644-39.3004,10.3299-4.7582,23.119-4.7259,33.2129,.6361,5.1216,2.7207,9.5692,6.8007,11.5585,12.3654,2.0353,5.6933,1.6979,11.8998,1.0435,17.8092-.6504,5.8733-1.502,11.7075-2.0578,17.5936-.6269,6.6387-1.782,13.4576-1.8041,20.1274-.0161,4.8416,1.442,9.7736,4.1322,13.8023,2.5538,3.8245,6.2396,6.3612,9.5404,9.4661,10.8653,10.2203,19.2591,22.7754,25.5495,36.2525,13.7243,29.4044,17.7429,63.2312,14.4658,95.3192-3.205,31.3829-14.0121,63.4675-35.061,87.4662-23.9778,27.3379-61.7915,41.3198-97.7173,34.1096-32.9459-6.6122-61.0625-28.1128-83.2883-52.4599-4.0732-4.4619-7.9836-9.0734-11.7195-13.8214-4.9936-6.3466-9.6364-12.2634-17.9689-14.2604-4.7247-1.1323-9.8629-.7188-14.6847-.7188-6.6459,0-13.2918,0-19.9376,0-1.8744,0-3.7765,.0959-5.6489,0-4.7356-.2427-5.9666-6.8885-.6526-7.2828,3.4618-.2569,3.47-5.1339,0-5.3885-4.6755-.3431-4.6887-6.9387,0-7.2828,3.4627-.2541,3.4692-5.134,0-5.3885-4.6755-.3431-4.6887-6.9387,0-7.2828,3.4636-.2541,3.4683-5.1312,0-5.3885-5.0093-.3717-4.3133-6.7941,.3124-7.2828,.7928-.0838,1.6407,0,2.4367,0,4.1612,0,8.3224,0,12.4837,0,11.0536,0,22.1073,0,33.1609,0,2.7192,0,5.4384,0,8.1576,0,2.0079,0,3.4039-2.3006,2.3264-4.0541-1.9732-3.2111-4.2697-6.3685-5.9767-9.7264-2.2355-4.3975,1.834-10.0923,6.7202-7.1827,1.2512,.745,2.2946,2.0788,3.3072,3.0914,4.8937,4.8937,9.8555,9.7288,14.6737,14.6966,11.0616,11.405,23.0087,21.9535,35.7389,31.4643,18.8307,14.0686,41.2314,27.7545,65.2848,29.3012,11.7093,.753,23.2909-2.2556,32.7284-9.3307,12.9461-9.7054,20.5512-24.6771,25.3368-39.7994,5.8667-18.5386,8.6745-38.6312,9.7045-57.9976,.3527-6.6315,.4685-13.3993,.2066-20.046-.2067-5.2474-.5065-11.9694-4.1063-16.1708-2.9862-3.4852-8.5061-3.7998-11.7944-.4949-3.393,3.4101-3.4088,9.1435-3.1088,13.5992,.3752,5.571,1.5345,11.0809,2.7711,16.5135,1.5321,6.7311,2.4759,13.4439,3.3164,20.3095,5.4357,44.3999,6.5541,89.1527,7.3106,133.8324,.3696,21.825,.2507,43.7367,1.5387,65.5316,1.2043,20.3791,4.0558,40.6768,8.4842,60.6047,8.8025,39.6109,23.9111,77.8696,44.6635,112.7439,6.3648,10.696,12.3866,21.6659,16.5102,33.449,3.9432,11.2676,8.0399,27.271-.7554,37.3985-2.0437,2.3532-4.831,4.7701-8.0411,5.1224-2.4121,.2647-9.9124-2.3592-6.3844-5.8692-1.501-.3963-3.0021-.7926-4.5031-1.1889,1.5143,9.3466-.9877,19.3045-4.7327,27.8426-4.038,9.206-10.0414,17.9601-18.0544,24.1446-7.404,5.7145-17.6613,9.3081-26.8598,5.8941-7.7832-2.8887-5.7491-12.1736-5.6688-18.7178,.08-6.5149-.4762-13.0282-1.5981-19.4452-4.272-24.435-17.6843-45.627-31.0337-66.0413-15.6528-23.9366-29.5222-48.6272-41.0026-74.8578-6.163-14.0813-11.656-28.4593-16.4847-43.0518-4.6725-14.1208-9.3323-28.6071-11.8959-43.2845-1.1937-6.8346-1.7659-14.0301-.5104-20.8996,.5956-3.2587,1.5659-6.4723,3.0724-9.43,.8933-1.754,5.1507-8.1972,6.2761-3.4875,.5309,2.2215-.3655,4.7892-1.1644,6.8417-1.5253,3.9184-3.2696,7.7641-4.9183,11.6321-3.1373,7.3603-6.3067,14.7069-9.4662,22.0578-12.4545,28.9765-24.7361,58.0578-34.4414,88.0938-10.065,31.1494-18.9189,62.6774-27.1975,94.3443-2.3465,8.9756-4.5924,17.8526-6.2349,26.9764-1.5275,8.4848-3.0757,16.972-5.1618,25.341-2.1027,8.4355-4.6013,17.0505-8.9796,24.6213-3.2486,5.6173-8.3906,11.6507-15.5889,10.4615-3.4909-.5767-6.9657-2.2816-10.0747-3.9319-1.4672-.7788-2.9281-1.6349-4.2294-2.6724-.7353-.5862-1.4403-1.2357-2.0635-1.9409-.1705-.1929-3.5011-4.4666-.5733-4.2591-.866-1.1368-1.732-2.2737-2.598-3.4105-3.0088,10.0963-19.77,5.3453-27.5038,3.7604-8.3888-1.7191-16.7716-3.8778-24.7483-7.0227-4.8842-1.9256-14.4665-5.4897-15.5153-11.5991-.4814-2.8041,1.6628-5.2299,3.5169-7.0345,5.2446-5.1046,10.0079-10.3679,14.0142-16.5261,8.5113-13.0828,13.1333-27.9646,17.1166-42.9242,4.5403-17.0513,8.5204-34.2022,13.5241-51.1308,5.0538-17.098,9.4218-34.3884,14.3622-51.5185,4.8208-16.7152,10.3513-33.2256,16.1422-49.6275,13.2064-37.4055,28.3086-74.123,45.2114-110.0093,1.4693-3.1195-3.1746-5.8581-4.6528-2.7197h0Z"/><path d="M655.3417,420.652c7.6679,.1119,15.3358,.2238,23.0037,.3357,1.1001,.0161,2.2003,.0321,3.3004,.0482,3.4687,.0506,3.4701-5.3379,0-5.3885-7.6679-.1119-15.3358-.2238-23.0037-.3357-1.1001-.0161-2.2003-.0321-3.3004-.0482-3.4687-.0506-3.4701,5.3379,0,5.3885h0Z"/><path d="M654.5467,433.373c7.6679,.1119,15.3358,.2238,23.0037,.3357,1.1001,.0161,2.2003,.0321,3.3004,.0482,3.4687,.0506,3.4701-5.3379,0-5.3885-7.6679-.1119-15.3358-.2238-23.0037-.3357-1.1001-.0161-2.2003-.0321-3.3004-.0482-3.4687-.0506-3.4701,5.3379,0,5.3885h0Z"/><path d="M654.1491,445.6964c7.6679,.1119,15.3358,.2238,23.0037,.3357,1.1001,.0161,2.2003,.0321,3.3004,.0482,3.4687,.0506,3.4701-5.3379,0-5.3885-7.6679-.1119-15.3358-.2238-23.0037-.3357-1.1001-.0161-2.2003-.0321-3.3004-.0482-3.4687-.0506-3.4701,5.3379,0,5.3885h0Z"/><path d="M590.7719,230.39c5.4265,5.4164,10.8531,10.8327,16.2796,16.2491,.7799,.7784,1.5598,1.5568,2.3396,2.3353,2.4574,2.4528,6.2689-1.3562,3.8102-3.8102-5.4265-5.4164-10.8531-10.8327-16.2796-16.2491-.7799-.7784-1.5598-1.5568-2.3396-2.3353-2.4574-2.4528-6.2689,1.3562-3.8102,3.8102h0Z"/><path d="M581.3467,238.9703c5.4265,5.4164,10.8531,10.8327,16.2796,16.2491,.7799,.7784,1.5598,1.5568,2.3396,2.3353,2.4574,2.4528,6.2689-1.3562,3.8102-3.8102-5.4265-5.4164-10.8531-10.8327-16.2796-16.2491-.7799-.7784-1.5598-1.5568-2.3396-2.3353-2.4574-2.4528-6.2689,1.3562-3.8102,3.8102h0Z"/><path d="M572.4837,247.5419c5.4265,5.4164,10.8531,10.8327,16.2796,16.2491,.7799,.7784,1.5598,1.5568,2.3396,2.3353,2.4574,2.4528,6.2689-1.3562,3.8102-3.8102-5.4265-5.4164-10.8531-10.8327-16.2796-16.2491-.7799-.7784-1.5598-1.5568-2.3396-2.3353-2.4574-2.4528-6.2689,1.3562-3.8102,3.8102h0Z"/><g><path d="M840.8544,254.387s9.2368,2.4738,18.1154-.1898c-4.8833,5.3272-14.2352,8.6521-17.1061,8.0995,5.1199-6.7677-.9236-7.7199-1.0094-7.9097Z"/><path d="M840.1382,256.985c2.0918,.5554,4.2945,.8202,6.4445,1.0002,4.3777,.3666,8.8781,.0467,13.1034-1.19-.8738-1.501-1.7476-3.0021-2.6214-4.5031-.6164,.6629-1.2737,1.2826-1.9708,1.8601-.0447,.037-.5552,.4457-.3196,.262s-.2889,.2141-.336,.2484c-.379,.276-.7653,.5419-1.1577,.7987-1.513,.9899-3.111,1.8247-4.7574,2.5679-.4639,.2094,.1586-.0597-.1258,.0556-.1806,.0732-.3611,.1468-.5427,.2176-.3855,.1504-.7739,.2932-1.1652,.4278-.6812,.2344-1.3711,.445-2.0703,.6189-.3228,.0803-.6476,.153-.9745,.2148-.1374,.026-.2758,.0462-.4131,.0724-.5689,.1086,.6467-.0356,.1002-.0152-.229,.0086-.4559,.0394-.6857,.0408-.1149,.0007-.2481-.019-.3621-.0086-.4298,.0394,.7209,.119,.296,.0454l1.6102,3.9579c1.8613-2.5039,3.4715-6.0699,1.5483-9.0057-.5938-.9064-1.4428-1.6439-2.4085-2.1314-.4223-.2132-.8663-.3865-1.3092-.5522-.087-.0326-.177-.0694-.2665-.0947-.0318-.009-.062-.0277-.0941-.0347,.3661,.0799,.875,.3688,1.0995,.6441-.9203-1.1285-2.8547-.9556-3.8102,0-1.1158,1.1158-.9226,2.6789,0,3.8102,.4286,.5255,1.2129,.7383,1.8399,.9472,.3773,.1258-.6897-.3531-.2201-.0874,.124,.0701,.2544,.1284,.3773,.2012,.0903,.0535,.2912,.2488,.3817,.2522-.0611-.0023-.5004-.4696-.2989-.2211,.0529,.0652,.1304,.1361,.1948,.1883,.3526,.2855-.2762-.5286-.0746-.1076,.0383,.0801,.091,.1794,.1448,.2515,.2088,.2797-.1725-.2479-.1306-.3102-.0229,.0341,.079,.2612,.0857,.3056,.0452,.3007-.0077-.6357-.0357-.3159-.0064,.0737,.0195,.6786-.0092,.6739-.0551-.0089,.1479-.6515,.0131-.2145-.0459,.1489-.0759,.3029-.1224,.4521-.0404,.1297-.0883,.256-.1339,.3838-.1231,.3452,.2123-.3723,.0052-.0289-.4672,.7745-.8853,1.5431-1.4289,2.2745-.9826,1.3219,.0071,3.6802,1.6102,3.9579,3.2727,.5668,6.6945-.7556,9.6544-2.0223,3.7102-1.5878,7.3093-3.7977,10.0731-6.7701,1.7783-1.9126,.0473-5.2842-2.6214-4.5031-3.8129,1.1159-7.6322,1.3347-11.671,.9975-.3703-.0309-.7402-.0669-1.1095-.1077-.1925-.0213-.3847-.0455-.5771-.0676-.5366-.0617,.2828,.0525-.0379-.0049-.5672-.1015-1.139-.1751-1.7055-.2825-.5296-.1004-1.0607-.2065-1.582-.3449-1.4055-.3732-2.9264,.4701-3.3142,1.8818-.3841,1.3978,.47,2.9394,1.8818,3.3142Z"/></g><g><path d="M893.3957,247.2505c.566,6.7756,7.4025,1.975,9.656-.6051,3.0817-3.5283,3.004-6.8904,3.9802-11.1132,3.8025-16.4486,12.2124-30.6028,14.6631-47.5511,.3172-2.1937,.5727-4.4514,.0615-6.6081-.5968-2.5178-2.1856-4.677-3.8646-6.6459-14.434-16.9264-45.3626-29.0018-67.0764-22.1196-2.5171,.7978-5.0284,1.8546-6.9326,3.6838-1.6756,1.6096-2.7769,3.7164-3.7441,5.829-3.5448,7.7428-9.7227,24.0843-6.3965,32.6517,2.6379,6.7945,14.7361,8.9554,21.8104,9.4486,4.0843,.2848,14.4652-3.3448,16.9375-.648,1.2939,1.4114,1.7591,3.3841,2.0183,5.2813,.6304,4.6141,.3179,9.355-.9127,13.8464-.8499-9.2134,10.8703-19.3584,17.835-9.5397,1.2375,1.7446,1.7605,3.9063,1.9237,6.039,.2564,3.3512-.3461,6.8185-2.0575,9.7111-1.7115,2.8926-4.5927,5.1527-7.8962,5.7721,.8884,2.9244,1.7768,5.8489,2.6652,8.7733,.542,1.7841,1.1696,3.6932,2.6707,4.7992,1.5012,1.1059,4.1385,.7857,4.6591-1.0047Z"/><path d="M890.7014,247.2505c.2271,2.22,.8882,4.4618,3.0065,5.5806,1.8885,.9974,4.0402,.5342,5.8878-.2937,3.6399-1.631,6.6415-4.7999,8.146-8.4662,.9274-2.26,1.2172-4.6669,1.7164-7.0408,.5832-2.7731,1.3641-5.51,2.2105-8.2131,1.7107-5.4633,3.7961-10.7972,5.7996-16.157,1.9799-5.2965,3.8806-10.6344,5.2597-16.1237,.7475-2.9753,1.326-5.9852,1.728-9.0264,.4306-3.2581,.3663-6.3821-1.034-9.4133-1.9401-4.1998-5.6845-7.7994-9.124-10.8165-3.5357-3.1015-7.3973-5.8475-11.4544-8.2235-8.3448-4.887-17.6429-8.4417-27.1838-10.0826-9.0405-1.5548-18.8702-1.6631-27.5356,1.7281-2.7628,1.0812-5.3549,2.5505-7.2396,4.8961-1.5978,1.9885-2.6842,4.2483-3.7034,6.5705-1.7587,4.007-3.3328,8.101-4.5907,12.2939-1.3456,4.4852-2.4126,9.1902-2.4904,13.8914-.0682,4.1184,.7528,8.3512,3.7774,11.3477,2.9829,2.9552,7.1802,4.5551,11.1735,5.5834,2.1754,.5602,4.3875,.9361,6.6129,1.2302,1.6912,.2235,3.4388,.4963,5.1481,.3876,1.974-.1254,3.9373-.5168,5.8819-.8618,2.04-.3619,3.5756-.6667,5.492-.7572,.4392-.0207,.875-.0184,1.3143-.0092,.1609,.0034,.3242,.0175,.4848,.0319-.6384-.0571,.0517,.0053,.17,.0379,.122,.0337,.2761,.0886,.3967,.1057,.487,.0691-.0654,.0499-.1132-.06l.1584,.0855c.2442,.1593,.201,.1205-.1296-.1167,.1157,.1729,.2552,.2932,.3784,.4821,1.3118,2.0118,1.2662,5.1235,1.2838,7.4219,.0228,2.9656-.3681,5.8573-1.1317,8.7206l5.2923,.7162c-.2031-2.6131,.5189-4.8162,2.0962-7.0669,1.2814-1.8284,3.1742-3.1908,5.2868-3.7105,.6534-.1607,1.7288-.1169,2.5762,.2135,.9813,.3826,2.039,1.2735,2.8402,2.3567,2.1,2.8392,1.9851,7.2058,1.0202,10.4418-1.0614,3.5599-3.738,6.3873-7.4253,7.1497-1.4003,.2895-2.284,1.9901-1.8818,3.3142,.7481,2.4627,1.4963,4.9254,2.2444,7.388,.6717,2.2112,1.2736,4.5066,2.7549,6.3348,2.7859,3.4384,8.5646,3.3241,10.1918-1.155,.4969-1.3678-.5585-2.9506-1.8818-3.3142-1.4989-.4119-2.8156,.509-3.3142,1.8818,.1743-.4799,.6993-.3985,.0547-.3236-.0174,.002-.3488-.0387-.2748,.007-.7871-.4861-1.2386-1.4251-1.572-2.3999-1.1091-3.2436-2.0106-6.5714-3.007-9.8513-.6273,1.1047-1.2545,2.2095-1.8818,3.3142,10.2363-2.1166,14.6654-15.1022,10.4845-24.0038-1.7725-3.7738-5.568-6.7058-9.8067-6.8217-3.6329-.0994-7.1339,1.8907-9.5228,4.5182-2.8596,3.1453-4.7047,7.4268-4.3705,11.7269,.1036,1.3324,.9448,2.4806,2.3361,2.6461,1.3055,.1553,2.604-.6097,2.9561-1.9299,1.4653-5.4943,1.991-11.8075,.5124-17.3643-.5559-2.089-1.687-4.3977-3.7158-5.3923-1.6044-.7865-3.4708-.8571-5.2238-.7391-2.0267,.1364-4.0419,.4893-6.0402,.8421-.9075,.1602-1.814,.3263-2.7234,.4757-.1908,.0314-.3817,.0623-.5728,.0919,.0691-.0107-.8472,.1221-.4662,.0713-.0046,.0006-.8507,.0935-1.152,.1129-3.4798,.224-6.627-.5007-10.0145-1.3458-1.7969-.4483-3.7384-1.0489-5.2235-1.7463-1.6657-.7821-2.9846-1.5862-4.0758-2.7231-.1236-.1288-.2425-.2612-.3603-.3951-.55-.625,.1319,.2157-.1458-.1815-.2244-.321-.4233-.654-.6052-1.0004-.2418-.4604-.0941-.1816-.0466-.0668-.0845-.204-.153-.4155-.221-.6255-.155-.479-.2794-.9675-.3792-1.4609-.1633-.8073-.185-1.0903-.2304-2.0534-.0474-1.0051-.0263-2.013,.0398-3.0168,.2752-4.1794,1.4098-8.4676,2.7151-12.5451,1.1809-3.689,2.5727-7.2839,4.0469-10.5362,.9649-2.1288,1.9973-4.3331,3.7821-5.9039,1.7668-1.5549,4.1435-2.3471,6.3654-2.9892,3.9435-1.1397,7.7026-1.5776,11.8026-1.5908,8.7552-.028,17.4291,2.0441,25.546,5.2909,7.9678,3.1871,15.6166,7.7352,21.9194,13.5835,1.4243,1.3216,2.7838,2.7144,4.0544,4.1847,1.5311,1.7717,3.0926,3.7845,3.4751,6.1599,.4199,2.6076-.2264,5.463-.7179,8.0221-.512,2.6662-1.1675,5.3032-1.923,7.9105-2.9868,10.3077-7.5178,20.0859-10.5919,30.3649-.7765,2.5964-1.4819,5.2221-1.9863,7.886-.3858,2.0376-.6413,4.2229-1.6133,6.0826-.7709,1.475-1.8605,2.6702-3.1687,3.6858,.376-.292-.4253,.2897-.5572,.3768-.3111,.2053-.6291,.4008-.9565,.579-.143,.0778-.2887,.1486-.4325,.2245-.668,.3527,.3024-.0943-.1131,.0584-.3792,.1393-.76,.2557-1.159,.3233,.0894-.0151,.5941-.0484,.1168-.0439-.5149,.0048,.1051-.0058,.1514,.0467-.0345-.0391-.3183-.0315-.3529-.0952l.3127,.1226c-.198-.1272-.208-.1282-.0301-.003-.0104-.007,.1586,.1686,.163,.1663-.0676,.036-.1932-.5883-.0393,.0205-.0784-.3103-.2558-.904-.2687-1.0302-.1481-1.4475-1.1323-2.6943-2.6943-2.6943-1.342,0-2.8433,1.2377-2.6943,2.6943Z"/></g><path d="M339.6003,510.6635c1.4413,2.4022,2.8826,4.8044,4.3239,7.2066,.725,1.2084,2.4535,1.7613,3.6862,.9666,1.215-.7833,1.7425-2.3931,.9666-3.6862-1.4413-2.4022-2.8826-4.8044-4.3239-7.2066-.725-1.2084-2.4535-1.7613-3.6862-.9666-1.215,.7833-1.7425,2.3931-.9666,3.6862h0Z" style="fill:#6966ed;"/><path d="M388.3334,499.9396c-.4804,3.3631-.9609,6.7261-1.4413,10.0892-.1069,.748-.1264,1.3959,.2716,2.0761,.327,.5589,.9679,1.0919,1.6102,1.2382,.6897,.1571,1.4639,.1231,2.0761-.2716,.5464-.3522,1.1418-.9353,1.2382-1.6102,.4804-3.3631,.9609-6.7261,1.4413-10.0892,.1069-.748,.1264-1.3959-.2716-2.0761-.327-.5589-.9679-1.0919-1.6102-1.2382-.6897-.1571-1.4639-.1231-2.0761,.2716-.5464,.3522-1.1418,.9353-1.2382,1.6102h0Z" style="fill:#6966ed;"/><path d="M423.1966,506.5025c-.9609,1.4413-1.9218,2.8826-2.8826,4.3239-.1969,.3093-.3035,.6432-.3197,1.0017-.0802,.3581-.0642,.7162,.0481,1.0744,.1721,.625,.6553,1.3022,1.2382,1.6102,.6253,.3304,1.3828,.496,2.0761,.2716,.6905-.2235,1.2054-.631,1.6102-1.2382,.9609-1.4413,1.9218-2.8826,2.8826-4.3239,.1969-.3093,.3035-.6432,.3197-1.0017,.0802-.3581,.0642-.7162-.0481-1.0744-.1721-.625-.6553-1.3022-1.2382-1.6102-.6253-.3304-1.3828-.496-2.0761-.2716-.6905,.2235-1.2054,.631-1.6102,1.2382h0Z" style="fill:#6966ed;"/><path d="M475.9754,217.7464c12.2107-7.352,26.9301-10.5396,41.0849-8.5866,1.4396,.1986,2.893-.3488,3.3142-1.8818,.3458-1.2585-.431-3.1141-1.8818-3.3142-15.6362-2.1574-31.6839,.9695-45.237,9.1298-2.9674,1.7867-.2616,6.4478,2.7197,4.6528h0Z" style="fill:#6966ed;"/><path d="M496.8726,186.1643c1.9218,.4804,3.8435,.9609,5.7653,1.4413,.6881,.172,1.4586,.0898,2.0761-.2716,.5589-.327,1.0919-.9679,1.2382-1.6102,.1571-.6897,.1231-1.4639-.2716-2.0761-.3756-.5825-.9212-1.0659-1.6102-1.2382-1.9218-.4804-3.8435-.9609-5.7653-1.4413-.6881-.172-1.4586-.0898-2.0761,.2716-.5589,.327-1.0919,.9679-1.2382,1.6102-.1571,.6897-.1231,1.4639,.2716,2.0761,.3756,.5825,.9212,1.0659,1.6102,1.2382h0Z" style="fill:#6966ed;"/></g><path d="M834.966,217.5314c.0457,.2124,.0448,.2036-.0026-.0263-.0101,.2104-.0049,.1941,.0157-.0489-.0612,.1924-.0496,.1837,.035-.026-.043,.0875-.0915,.1718-.1454,.253,.1956-.3322-.1415,.1281-.2239,.2074-.1561,.132-.162,.137-.0177,.015-.0909,.0621-.1839,.1207-.2792,.176-.1445,.0841-.2938,.1627-.447,.2298,.3212-.1407-.2946,.0853-.3604,.1033-.068,.0185-.7253,.1467-.3351,.0888-.235,.0348-.4739,.0518-.7102,.0746-2.1437,.2062-4.3279,.4755-5.6956,2.3444-1.2565,1.7169-1.0701,4.1588-.0265,5.9324,1.1231,1.9087,3.1357,3.0049,5.1028,3.8511,.8904,.383,1.9259,.2645,2.4575-.6444,.4429-.7572,.2516-2.0721-.6444-2.4575-.9003-.3873-1.7989-.7969-2.613-1.348-.5813-.3935-1.0272-.8508-1.3632-1.5166,.1449,.287-.0998-.299-.1204-.3757-.0243-.0905-.0983-.5158-.0606-.1938-.0261-.2234-.0229-.4477-.0115-.6718-.0193,.3796,.0654-.2345,.0946-.3292-.0885,.2872,.0427-.0653,.0955-.1628,.1151-.1718,.1217-.1834,.0198-.0346,.0775-.0849,.1596-.165,.2465-.2404-.25,.2132,.1283-.0608,.1879-.1006,.1894-.0912,.1987-.1013,.0279-.0303,.1059-.0409,.2131-.078,.3217-.1111,.1936-.0598,.3907-.1067,.5892-.1471,.0666-.0136,.6506-.1066,.3135-.0614,.4175-.0561,.8385-.0858,1.2576-.1273,1.086-.1075,2.0453-.2779,3.0398-.7399,1.8937-.8797,3.183-2.7088,2.7159-4.8369-.208-.9478-1.3096-1.5018-2.2095-1.2545-.9778,.2687-1.4632,1.2589-1.2545,2.2095h0Z"/><path d="M844.9598,238.7704c1.1934-.0719,2.3697-.4095,3.3812-1.0589,.9936-.6379,1.8567-1.5089,2.4144-2.5557,.2246-.4216,.3098-.9165,.1811-1.3841-.1147-.4166-.4369-.8681-.8254-1.0734-.8327-.4399-1.9857-.2411-2.4575,.6444-.1297,.2434-.2776,.4742-.4437,.6944l.2809-.3635c-.2731,.3526-.5868,.6664-.9374,.9421l.3635-.2809c-.3711,.2846-.7728,.5197-1.203,.703l.4291-.1811c-.4123,.1698-.8397,.288-1.2814,.35l.4775-.0642c-.1262,.016-.2523,.0279-.3793,.0355-.4775,.0288-.9248,.1808-1.2701,.5261-.3115,.3115-.5461,.8227-.5261,1.2701,.0208,.4645,.1734,.9463,.5261,1.2701,.3391,.3113,.7949,.5547,1.2701,.5261h0Z"/></svg>