<?xml version="1.0" encoding="UTF-8"?><svg id="Layer_2" xmlns="http://www.w3.org/2000/svg" width="1000" height="1000" viewBox="0 0 1000 1000"><path d="M128.3293,211.3903c-.2873,1.2796-.282,2.6106,.4832,3.7333,.6996,1.0265,1.7309,1.6658,2.8769,2.0919,.9877,.3672,2.049,.4996,3.092,.6025,.5058,.0499,1.0131,.0821,1.5195,.1245,.2534,.0212,.506,.0472,.759,.0723,.2365,.0285,.2519,.0298,.0463,.0038,.125,.0188,.2497,.0396,.374,.0625,.2405,.0447,.4802,.0963,.716,.1615,.091,.0251,.7201,.2795,.3166,.0836,.0925,.0449,.6265,.4132,.3007,.1322,.0846,.0714,.1636,.1485,.237,.2314-.1328-.176-.1396-.1704-.0205,.0169-.0805-.2137-.0874-.2143-.0208-.0018-.0229-.2495-.0323-.2603-.028-.0323l.0103-.1974c.094-.2073,.086-.2135-.0239-.0188,.1339-.1736,.126-.1772-.0238-.0107-.0817,.0793-.1663,.1555-.2538,.2283-.1675,.135-.1754,.1429-.0235,.0237-.097,.0723-.1952,.1429-.2945,.2119-.3974,.276-.8131,.5256-1.2431,.7472-.2148,.1107-.4332,.2164-.6555,.3114,.3628-.1551-.3128,.1093-.3789,.132-.4576,.1571-.9254,.2847-1.3995,.3814-.0755,.0154-.8095,.1272-.3762,.0748-.2404,.0291-.4814,.0473-.723,.0619-1.0176,.0614-2.0018,.8541-1.9526,1.9526,.045,1.0052,.8607,2.0185,1.9526,1.9526,1.8498-.1117,3.5935-.5646,5.2606-1.3733,.7596-.3685,1.4565-.8276,2.1234-1.3428,.817-.6312,1.5939-1.3997,1.8166-2.454,.4923-2.3303-1.2421-4.1395-3.3223-4.8052-.8674-.2776-1.7957-.3792-2.6982-.4683-.4114-.0406-.8237-.0698-1.2358-.1022-.1899-.0149-.3797-.03-.5694-.0472-.1261-.0115-.2519-.025-.3779-.037-.1472-.014-.2537-.0281-.0439,.0004-.4644-.0631-.9273-.158-1.376-.2937-.09-.0272-.1786-.0578-.2682-.0862-.1569-.0498-.2242-.0902-.0333-.001-.1714-.0801-.3389-.1669-.4997-.2667-.0515-.032-.3217-.2369-.1322-.0802,.1792,.1481-.0743-.0808-.1033-.1102-.0555-.0562-.1098-.1138-.1603-.1747,.1031,.1244,.1646,.1763,.042,.0073,.0354,.0488,.0612,.2985,.0461,.1045-.0128-.164-.0034,.2205-.0268-.1264-.0006-.0096,.0051-.3304-.0075-.1255-.012,.1956,.0647-.3098,.0654-.3127,.2232-.9943-.3018-2.16-1.3638-2.4019-.9908-.2257-2.1626,.2979-2.4019,1.3638h0Z"/><rect x="361.8882" y="102.8293" width="516.1334" height="380.1033" style="fill:#f4d13b;"/><rect x="355.3795" y="78.7474" width="534.3576" height="24.0819" rx="12.0409" ry="12.0409" style="fill:#6966ed;"/><rect x="355.3795" y="482.9326" width="534.3576" height="24.0819" rx="12.0409" ry="12.0409" style="fill:#6966ed;"/><path d="M472.1348,275.8097c3.8805-6.2967,7.7611-12.5935,11.6416-18.8902,6.1903-10.0446,12.3806-20.0893,18.5709-30.1339,1.4277-2.3167,2.8554-4.6333,4.2831-6.95l-3.3076,1.346c4.906,1.6841,9.812,3.3683,14.7179,5.0524,7.8256,2.6864,15.6513,5.3728,23.4769,8.0592,1.8043,.6194,3.6086,1.2388,5.4129,1.8582,1.3228,.4541,2.5604-.3368,3.3076-1.346,5.6719-7.6608,11.3438-15.3215,17.0158-22.9823,8.9745-12.1214,17.9491-24.2429,26.9236-36.3643,2.059-2.781,4.118-5.562,6.177-8.343-1.3358,.3502-2.6715,.7005-4.0073,1.0507,4.9011,2.3408,9.8021,4.6816,14.7032,7.0224,7.8235,3.7366,15.6469,7.4731,23.4704,11.2097,1.8114,.8651,3.6228,1.7303,5.4342,2.5954,1.128,.5387,2.6433,.5587,3.5493-.458,1.9325-2.1687,3.8649-4.3373,5.7974-6.506,4.6707-5.2416,9.3414-10.4831,14.0121-15.7247,5.6272-6.315,11.2544-12.6299,16.8816-18.9449,4.8906-5.4883,9.7812-10.9766,14.6718-16.465,2.3684-2.6579,4.7953-5.2746,7.1103-7.9794,.034-.0397,.0696-.0781,.1044-.1171,1.0519-1.1805,1.1638-2.9782,0-4.1421-1.0707-1.0707-3.0855-1.1857-4.1421,0-1.9325,2.1687-3.8649,4.3373-5.7974,6.506-4.6707,5.2416-9.3414,10.4831-14.0121,15.7247-5.6272,6.315-11.2544,12.6299-16.8816,18.9449-4.8906,5.4883-9.7812,10.9766-14.6718,16.465-1.6048,1.801-3.2096,3.6019-4.8144,5.4029-.7557,.848-1.6123,1.668-2.2959,2.5765-.0311,.0414-.0699,.0784-.1044,.1171,1.1831-.1527,2.3662-.3053,3.5493-.458-4.9011-2.3408-9.8021-4.6816-14.7032-7.0224-7.8235-3.7366-15.6469-7.4731-23.4704-11.2097-1.8114-.8651-3.6228-1.7303-5.4342-2.5954-1.5499-.7403-2.997-.3137-4.0073,1.0507-5.6719,7.6608-11.3438,15.3215-17.0158,22.9823-8.9745,12.1214-17.9491,24.2429-26.9236,36.3643-2.059,2.781-4.118,5.562-6.177,8.343l3.3076-1.346c-4.906-1.6841-9.812-3.3683-14.7179-5.0524-7.8256-2.6864-15.6513-5.3728-23.4769-8.0592-1.8043-.6194-3.6086-1.2388-5.4129-1.8582-1.2378-.4249-2.6563,.2891-3.3076,1.346-3.8805,6.2967-7.7611,12.5935-11.6416,18.8902-6.1903,10.0446-12.3806,20.0893-18.5709,30.1339-1.4277,2.3167-2.8554,4.6333-4.2831,6.95-1.9833,3.2182,3.0816,6.1636,5.058,2.9565h0Z" style="fill:#6966ed;"/><g><rect x="641.1079" y="207.6181" width="38.4008" height="217.3879" style="fill:#fff;"/><rect x="478.3924" y="284.4198" width="38.4008" height="140.5862" style="fill:#fff;"/><rect x="559.7501" y="245.368" width="38.4008" height="179.6379" style="fill:#fff;"/><rect x="459.5174" y="284.4198" width="38.4008" height="140.5862" style="fill:#f953b2;"/><rect x="540.8752" y="245.368" width="38.4008" height="179.6379" style="fill:#f953b2;"/><rect x="622.2329" y="207.6181" width="38.4008" height="217.3879" style="fill:#f953b2;"/><rect x="722.4656" y="151.6439" width="38.4008" height="273.362" style="fill:#fff;"/><rect x="703.5906" y="151.6439" width="38.4008" height="273.362" style="fill:#f953b2;"/></g><path d="M359.9157,404.9653c7.322-11.2579,14.6401-22.5184,21.9575-33.7794,9.0304-13.8972,18.0593-27.7954,27.0879-41.6938,9.6105-14.7942,19.2205-29.5887,28.8309-44.383,9.1631-14.1058,18.3265-28.2115,27.4913-42.3162,7.5868-11.6761,15.1742-23.3518,22.7651-35.0252,.7701-1.1843,1.5403-2.3686,2.3105-3.5528,.8627-1.3264,.2682-3.2358-1.0507-4.0073-1.4235-.8326-3.1425-.2789-4.0073,1.0507-7.322,11.2579-14.6401,22.5184-21.9575,33.7794-9.0304,13.8972-18.0593,27.7954-27.0879,41.6938-9.6105,14.7942-19.2205,29.5887-28.8309,44.383-9.1631,14.1058-18.3265,28.2115-27.4913,42.3162-7.5868,11.6761-15.1742,23.3518-22.7651,35.0252-.7701,1.1843-1.5403,2.3686-2.3105,3.5528-.8627,1.3264-.2682,3.2358,1.0507,4.0073,1.4235,.8326,3.1425,.2789,4.0073-1.0507h0Z" style="fill:#fff;"/><path d="M327.1998,421.8943c-7.9858,.1165-15.9715,.2331-23.9573,.3496-1.1242,.0164-2.2484,.0328-3.3726,.0492-3.766,.055-3.777,5.9129,0,5.8578,7.9858-.1165,15.9715-.2331,23.9573-.3496,1.1242-.0164,2.2484-.0328,3.3726-.0492,3.766-.055,3.777-5.9129,0-5.8578h0Z"/><path d="M328.0259,435.1113c-7.9858,.1165-15.9715,.2331-23.9573,.3496-1.1242,.0164-2.2484,.0328-3.3726,.0492-3.766,.055-3.777,5.9129,0,5.8578,7.9858-.1165,15.9715-.2331,23.9573-.3496,1.1242-.0164,2.2484-.0328,3.3726-.0492,3.766-.055,3.777-5.9129,0-5.8578h0Z"/><path d="M328.4389,447.9153c-7.9858,.1165-15.9715,.2331-23.9573,.3496-1.1242,.0164-2.2484,.0328-3.3726,.0492-3.766,.055-3.777,5.9129,0,5.8578,7.9858-.1165,15.9715-.2331,23.9573-.3496,1.1242-.0164,2.2484-.0328,3.3726-.0492,3.766-.055,3.777-5.9129,0-5.8578h0Z"/><path d="M375.2276,337.9299c7.0074,3.7783,14.0148,7.5566,21.0222,11.3349,1.0121,.5457,2.0241,1.0914,3.0362,1.6371,3.3182,1.7891,6.2795-3.2663,2.9565-5.058-7.0074-3.7783-14.0148-7.5566-21.0222-11.3349-1.0121-.5457-2.0241-1.0914-3.0362-1.6371-3.3182-1.7891-6.2795,3.2663-2.9565,5.058h0Z"/><path d="M368.3926,349.2725c7.0074,3.7783,14.0148,7.5566,21.0222,11.3349,1.0121,.5457,2.0241,1.0914,3.0362,1.6371,3.3182,1.7891,6.2795-3.2663,2.9565-5.058-7.0074-3.7783-14.0148-7.5566-21.0222-11.3349-1.0121-.5457-2.0241-1.0914-3.0362-1.6371-3.3182-1.7891-6.2795,3.2663-2.9565,5.058h0Z"/><path d="M362.1146,360.4394c7.0074,3.7783,14.0148,7.5566,21.0222,11.3349,1.0121,.5457,2.0241,1.0914,3.0362,1.6371,3.3182,1.7891,6.2795-3.2663,2.9565-5.058-7.0074-3.7783-14.0148-7.5566-21.0222-11.3349-1.0121-.5457-2.0241-1.0914-3.0362-1.6371-3.3182-1.7891-6.2795,3.2663-2.9565,5.058h0Z"/><g><path d="M134.4532,254.874s-9.597,2.5703-18.8218-.1972c5.0737,5.5349,14.7903,8.9895,17.7731,8.4153-5.3195-7.0316,.9596-8.0209,1.0487-8.2181Z"/><path d="M133.6746,252.0498c-.5165,.1372-1.0425,.243-1.5671,.3437-.5784,.111-1.1594,.203-1.7414,.2929-.7103,.1097,.4444-.046,.0032,.0011-.1976,.0211-.3946,.049-.5921,.0714-.4246,.0481-.8499,.09-1.2756,.1255-4.2475,.3546-8.1284,.1282-12.0916-1.0318-2.8981-.8482-4.7846,2.8142-2.8496,4.8953,2.8758,3.0929,6.6275,5.4075,10.4921,7.0543,3.1161,1.3279,6.6874,2.7106,10.1307,2.1142,1.7427-.3018,2.8186-2.8655,1.7504-4.3025-.5373-.7228-.9983-1.4651-1.4314-2.2526-.1577-.2866-.0876-.1914,.0044,.0527-.0506-.1343-.103-.2677-.1479-.4041-.0568-.1726-.1955-1.0157-.1666-.5274,.0306,.5172,.0196-.2646,.0117-.4095-.0225-.4134,.0147,.3145-.0503,.356,.0293-.0187,.0633-.2698,.0839-.3217,.1094-.2768-.3414,.5661-.1555,.3471,.0543-.064,.1115-.1858,.1448-.267,.2163-.5272-.3853,.3444-.0656,.0881,.1144-.0918,.5428-.4456,.0761-.1068-.4806,.3488,.0177,.0006,.1419-.0748,.1281-.0777,.2633-.1406,.3934-.214,.5404-.3051-.5627,.1995-.2538,.0974,.6823-.2255,1.5413-.4625,2.0058-1.0321,.9989-1.2249,1.1982-2.9439,0-4.1421-1.0315-1.0315-3.1374-1.232-4.1421,0,.3129-.3836,.5192-.4099,.8769-.5666,.6304-.276,.3713-.14,.2472-.1079-.0898,.0232-.18,.0626-.2669,.0946-.4673,.1722-.934,.3585-1.3809,.5776-1.0485,.514-1.9433,1.3133-2.5917,2.282-2.051,3.0644-.3361,6.8714,1.6087,9.4877,.5835-1.4342,1.1669-2.8683,1.7504-4.3025-.4069,.0705,.7902,.0159,.342-.0518-.0975-.0147-.2126,.0084-.3113,.0089-.2608,.0014-.5176-.0319-.7774-.0423-.5008-.0201,.5872,.1106,.2213,.033-.1397-.0296-.2834-.0455-.4241-.0711-.3371-.0615-.672-.1354-1.0049-.2165-.7222-.176-1.4349-.3901-2.1385-.6292-.4053-.1377-.8075-.2845-1.2068-.4386-.188-.0726-.3749-.1479-.5621-.2226-.7597-.3032,.5448,.2502-.2131-.0913-1.6703-.7526-3.2933-1.5974-4.8316-2.5952-.4089-.2652-.8115-.54-1.2068-.8251-.1787-.129-.3566-.2593-.5318-.3931,.4768,.3643-.1946-.1646-.2307-.1944-.7247-.5994-1.4073-1.244-2.0476-1.9327-.9499,1.6318-1.8998,3.2635-2.8496,4.8953,4.4015,1.2882,9.0887,1.6206,13.6489,1.241,2.2447-.1868,4.5462-.4639,6.7302-1.0438,1.4807-.3932,2.5297-2.1072,2.0456-3.6029-.4924-1.5216-2.016-2.467-3.6029-2.0456Z"/></g><g><path d="M79.8631,247.4593c-.4349,5.2071-5.5066,3.9882-7.9568,1.65-7.4867-7.1445-25.165-51.4553-8.0088-54.7716,1.8795-.3633,4.0447,.0205,5.257,1.5021s.8776,4.1493-.9064,4.8445c-2.4124-3.9475-2.6474-9.1373-.6015-13.2866,3.1574-6.4036,15.0033-10.9781,21.2039-14.1219,8.5967-4.3586,18.1208-6.8826,27.7286-7.5355,3.4843-.2368,7.4165-.0706,9.8268,2.4565,.4529,.4749,.8516,1.1558,.5905,1.7579-.1381,.3184-.4365,.539-.7469,.6942-2.1065,1.0529-4.8163-.614-5.5049-2.8661-.6886-2.252,.1706-4.7131,1.4807-6.67,2.6939-4.0238,7.392-6.6304,12.2318-6.7867,4.8398-.1562,9.6962,2.142,12.644,5.9836,1.9508,2.5423,3.061,5.6492,3.6353,8.8018,.9147,5.022,1.3347,9.7949-.7423,14.5345-2.1407,4.8849-5.7326,9.1187-10.1336,12.1185-6.4183,4.3748-14.4156,6.1817-22.1643,5.6428-3.1668-.2202-6.3208-.8145-9.4915-.6605-2.2419,.1089-4.6389,.6243-6.5314,1.8884-1.91,1.2758-1.8903,2.7643-2.1862,4.9301-.655,4.7941-.3303,9.7198,.9483,14.3864,.883-9.5727-11.2942-20.1132-18.5305-9.9117-1.2857,1.8126-1.8292,4.0586-1.9987,6.2744-.2664,3.4819,.3596,7.0843,2.1378,10.0897s4.7718,5.3536,8.2041,5.9972c-.923,3.0385-1.8461,6.0769-2.7691,9.1154-.5631,1.8536-1.2152,3.8373-2.7749,4.9863-1.5597,1.1491-4.2999,.8164-4.8408-1.0438Z"/><path d="M76.9342,247.4593c.0176-.1655-.1727,.5503-.2126,.7554,.0797-.4097,.0604-.1526-.041,.0012,.2954-.4481,.1516-.1513,.0292-.0442-.4265,.3732,.026-.0316,.0853-.0517-.5121,.1729,.088,.061,.1273-.0211-.0183,.0383-.3427,.1021-.4108,.1143,.9835-.1769-.1039,.0526-.0948-.0267,.001-.0086-.5209-.0153-.0659,.0166,.4119,.0288-.0793-.0135-.1864-.0408-.3149-.0803-.6165-.1691-.9229-.2781-.408-.1452,.4014,.217,.0239-.0001-.1422-.0818-.2924-.1506-.435-.2327-.1646-.0947-.9727-.7102-.5036-.3017-.5998-.5224-1.0971-1.1125-1.6007-1.725,.5955,.7243-.1116-.1684-.3105-.4535-.2765-.3965-.543-.7999-.8026-1.2077-1.2265-1.9269-2.3046-3.9482-3.31-5.9979-.6047-1.2327-1.1801-2.4797-1.7309-3.7374-.1352-.3088-.2682-.6186-.4012-.9284-.0433-.1007-.2152-.5176-.0031-.0072-.0659-.1586-.1321-.3172-.1976-.476-.2654-.6436-.5245-1.2898-.7775-1.9384-2.143-5.4943-3.9143-11.183-4.9471-16.9963-.1175-.6611-.2214-1.3241-.3192-1.9883-.0508-.3451,.0164,.1329,.0207,.1663-.0211-.1619-.0423-.324-.0613-.4862-.0469-.3999-.0922-.8-.1304-1.2008-.12-1.2579-.1894-2.5215-.1831-3.7854,.0028-.5732,.021-1.1463,.0586-1.7184,.0181-.2757,.0405-.5511,.068-.826,.0101-.1011,.0248-.2025,.0322-.3039,.0508-.6965-.1269,.6615,.0004-.0143,.1924-1.0205,.4132-1.9981,.7355-2.9865,.2613-.8014-.1139,.1519,.0636-.1841,.1308-.2477,.2416-.5049,.3786-.7499,.1204-.2152,.2566-.4188,.3847-.6291,.4167-.6844-.1902,.128,.0694-.1155,.3368-.3159,.6853-.6712,1.0053-1.0048,.3078-.3209-.1659,.1375-.2174,.1675,.1371-.0799,.2581-.1877,.3961-.2673,.2104-.1214,.4213-.2387,.6339-.3561,.7136-.3943-.2303,.0278,.1401-.0659,.2785-.0704,.548-.1827,.8278-.2538,.627-.1593,1.2599-.2033,1.8481-.0581,.3359,.0829,.5047,.1361,.7183,.3047,.237,.187,.1828,.0402,.235,.3768-.0748-.4821-.0151-.0121-.0069,.0822-.0152,.3238-.0176,.3837-.007,.1798,.0191-.2003-.0057-.1463-.0744,.1621,.0504-.0255,.1358-.292,.21-.3421-.5076,.3431,.3379-.1257-.3029,.1705,1.3358,.3502,2.6715,.7005,4.0073,1.0507-1.5744-2.6678-2.0113-5.8268-1.1578-8.8156,.1735-.6075,.3809-1.1926,.6772-1.7509,.1481-.279,.3108-.5499,.4842-.8139,.0764-.1162,.5614-.7582,.2915-.4244,.8299-1.0262,1.8189-1.9383,2.8537-2.7536,4.1503-3.2701,9.9219-5.6986,14.9378-8.1207,3.1245-1.5087,6.2116-2.9878,9.4975-4.1237,3.6325-1.2557,7.3662-2.2172,11.1512-2.884,3.4432-.6066,7.0635-1.1185,10.5657-.8834,1.1942,.0802,2.6094,.3877,3.6239,1.0785,.1134,.0773,.4518,.5142,.6329,.5534-.033-.0072,.4764-2.2453,.4924-2.185-.0144-.0545,.2294-.0442,.2291-.0455,.0088,.0365-.5026-.0475-.2218,.0195,.2754,.0658-.2199-.0607-.2176-.06-.3002-.1013-.2527-.0707-.4117-.1992,.0866,.07-.5343-.5481-.3714-.3356-.0791-.1032-.3502-.7099-.265-.4579-.2102-.6218-.1662-1.2621-.0066-1.8881,.3758-1.4738,1.2486-2.774,2.284-3.8667,2.0104-2.1217,4.8132-3.6003,7.6581-3.9308,3.0706-.3567,6.0898,.5101,8.6577,2.2635,2.6305,1.7961,4.2494,4.6568,5.127,7.6582,1.0142,3.4685,1.5688,7.3867,1.1691,10.9938-.377,3.403-2.0697,6.5786-4.0986,9.2848-4.0993,5.4676-10.2871,8.8984-16.8931,10.3243-3.5216,.7601-7.1373,.8758-10.72,.5592-4.0622-.359-8.0758-1.0167-12.1227-.1145-3.4723,.7741-6.9544,2.8115-7.6871,6.5417-.7433,3.7841-.9117,7.781-.4847,11.6092,.2371,2.1262,.6074,4.2246,1.1592,6.2917,.3726,1.3959,1.8021,2.3102,3.2136,2.098,1.5054-.2264,2.423-1.3847,2.5396-2.8766,.605-7.7396-5.5438-16.1747-13.4629-16.9594-4.3588-.4319-8.1176,2.1238-10.5254,5.5694-2.96,4.2357-3.0553,10.5851-1.5793,15.3763,1.675,5.4374,5.9691,10.1122,11.6728,11.2877l-2.0456-3.6029c-1.0285,3.3856-1.9722,6.8118-3.1007,10.1654-.2894,.86-.835,2.0211-1.3397,2.3472-.8123,.5248,.4558-.32-.3963,.1268,.3321-.1741-.2851-.0767,.0931,.0233l-.28-.0629c-.337-.1035-.3601-.1132-.0693-.0292,.0567,.1546,.2848,.2898,.3566,.4874-.5398-1.486-1.9906-2.4887-3.6029-2.0456-1.4337,.394-2.5884,2.1089-2.0456,3.6029,.8534,2.349,2.8024,3.7195,5.2967,3.8499,2.4335,.1272,4.5235-1.1991,5.9098-3.1096,1.2863-1.7729,1.8452-3.9832,2.4731-6.0501,.7846-2.5827,1.5692-5.1654,2.3538-7.7481,.438-1.4418-.5225-3.289-2.0456-3.6029-3.2962-.6793-5.9181-2.9989-7.2198-6.1367-1.2953-3.1225-1.5646-7.3395-.2038-10.4887,.3163-.7319,.7856-1.431,1.2921-1.9985,.5488-.6149,1.0446-1.0713,1.4934-1.3398,.2941-.176,.5859-.3538,.898-.497-.4445,.204,.3411-.1061,.4772-.1445,.1742-.0491,.9852-.201,.4127-.1291,.3509-.0441,.7093-.0526,1.0626-.042,.1771,.0053,.3536,.0188,.5301,.0341-.0482-.0042-.462-.0769-.1191-.0116,.3082,.0587,.6134,.1276,.9146,.2159,.1801,.0528,.8382,.2909,.6757,.2229-.1281-.0536,.5694,.2879,.7726,.4028,1.2377,.7001,1.8065,1.1971,2.858,2.4094,.1305,.1504,.2614,.3032,.3834,.4604-.1875-.2418,.0199,.0372,.0845,.1293,.2316,.3302,.4519,.6683,.6575,1.0154,.2059,.3477,.3982,.704,.5754,1.0672,.088,.1804,.1769,.3646,.2545,.5502-.1201-.2871,.0024,.0289,.0424,.1431,.6259,1.787,.7869,2.6059,.638,4.5118l5.7531-.7786c-1.17-4.3832-1.4437-8.874-.8739-13.3756,.1114-.8798,.1001-1.0673,.3302-1.9807,.1143-.4536-.1345,.0419,.1364-.3394,.1781-.2506,.1244-.1823,.4687-.4209,1.3939-.9659,3.2195-1.2981,4.8836-1.3808,4.591-.2283,9.128,.9108,13.7318,.7204,4.271-.1766,8.5691-.9806,12.549-2.5581,7.7623-3.0767,14.5176-8.807,17.956-16.5313,1.9228-4.3195,2.266-8.827,1.6616-13.4794-.5676-4.3698-1.5163-8.8228-4.1031-12.4907-4.8001-6.8063-13.8798-9.8387-21.696-6.642-3.8217,1.563-7.3006,4.3179-9.2531,8.019-2.1598,4.0937-2.0863,9.4052,2.1608,12.1059,1.7285,1.0991,3.967,1.4084,5.8755,.6328,2.8217-1.1468,3.749-4.2586,1.8791-6.7228-2.5089-3.3063-7.0261-4.0815-10.9251-3.988-8.9311,.2142-17.9614,2.4438-26.1585,5.9205-3.2117,1.3622-6.3217,2.9691-9.4721,4.4675-3.0759,1.463-6.146,2.9703-9.0263,4.7962-2.8814,1.8266-5.6598,3.9727-7.5862,6.8285-2.2823,3.3834-2.829,7.7631-2.1868,11.717,.3259,2.0064,1.076,3.9431,2.1076,5.6912,.8599,1.457,2.5628,1.7185,4.0073,1.0507,2.4699-1.1418,3.4859-4.1933,2.9008-6.7257-.6339-2.7434-3.0759-4.6084-5.7814-5.0491-3.2694-.5326-6.7194,.5798-9.0878,2.8969-4.0058,3.919-4.3475,10.3242-3.9028,15.5636,.5823,6.8602,2.4143,13.5932,4.7531,20.0478,2.0971,5.7873,4.5593,11.5996,7.8506,16.8211,1.4443,2.2914,3.1003,4.6598,5.5219,6.003,1.9193,1.0646,4.3486,1.6841,6.4989,.9766,2.8479-.9371,4.0151-3.4979,4.3123-6.2881,.1678-1.5753-1.4662-2.9289-2.9289-2.9289-1.7231,0-2.7606,1.3491-2.9289,2.9289Z"/></g><path d="M181.7627,362.2034c10.5067,22.4467,16.6924,46.5913,27.7695,68.8098,11.0446,22.1535,20.9131,44.8856,29.5479,68.0847,8.0259,21.5631,16.2854,42.9233,25.2911,64.1027,8.9777,21.1138,18.0884,42.1928,25.8057,63.8101,15.9457,44.6662,25.0482,92.1932,15.7944,139.3852-2.2663,11.5578-5.2305,23.4186-10.3704,34.0634-4.6828,9.6981-10.7157,18.6967-14.9201,28.6328-4.1771,9.8717-5.8753,20.6206-6.7115,31.2568-.4361,5.5473-.558,11.1232-.298,16.6825,.2619,5.5998,1.2948,11.0102,1.9504,16.5572,.7214,6.1041-1.3891,11.046-7.2834,13.4007-5.4615,2.1818-11.5372,.915-16.9528-.7697-10.7547-3.3456-21.0383-8.5295-30.1871-15.0918-4.6779-3.3554-8.9779-7.1809-12.9361-11.3575-3.119-3.2911-6.9174-7.4834-7.7299-12.1431-.4871-2.794,.2267-6.0782,.9067-8.7853,.1676-.6671,.5939-1.4593,.6318-2.1363,.0679-1.2134,2.1235-.7025-1.5932-.8622-3.1918-.1372-1.1213,.5573-2.5729,2.6924-.794,1.1679-2.2189,1.9726-3.5865,2.1753-5.2438,.7773-9.4988-5.2203-11.5011-9.2732-1.9702-3.9881-2.7251-8.4122-2.5438-12.837,.3863-9.4278,4.5973-18.4326,8.9818-26.6093,4.377-8.1628,9.549-15.8943,13.6926-24.1818,4.9219-9.8442,8.3217-20.4083,10.2837-31.2305,4.0258-22.2068,2.5152-45.1743-2.7915-67.0334-2.8579-11.7718-6.7176-23.2656-10.5973-34.7311-3.7759-11.1585-6.8812-22.6329-11.0866-33.6312-4.0445-10.5775-9.2425-20.6463-14.3751-30.7234-2.6782-5.2584-5.3375-10.5285-7.7968-15.8937-1.1328-2.4714-2.7482-5.1725-3.3061-7.8421-.2349-1.124-.3762-3.4,1.4518-2.7501,1.6518,.5872,1.6987,3.4871,1.5461,4.8204-.2984,2.6079-1.4861,5.0944-2.2588,7.5849-.8736,2.8156-1.5461,5.6934-2.0583,8.5959-.9752,5.5263-1.4214,11.1354-1.5406,16.7419-.2452,11.5329,.8289,23.035,1.1507,34.555,.7077,25.3351-.4256,50.8326-.7201,76.1756l-.907,78.0471c-.1449,12.4676-.0942,24.9542-.6601,37.4115-.5437,11.9699-1.4843,23.922-1.7456,35.9041-.1313,6.02-.0964,12.0486,.2764,18.06,.3564,5.746,1.3961,11.3461,2.0093,17.0512,.5541,5.1551-.0359,10.7977-4.3803,14.2135-3.888,3.057-9.2578,3.8617-14.0262,4.4521-5.3605,.6638-11.5905,1.6558-16.5474-1.0801-4.1133-2.2703-6.6809-8.6518-1.1806-11.031-1.4342-.5835-2.8683-1.1669-4.3025-1.7504,2.9352,10.4141-10.2626,14.4157-18.0052,14.5874-9.2578,.2052-18.7113-1.659-27.8721-2.8097-9.4483-1.1868-19.9737-2.4034-28.5018-6.9478-3.0796-1.641-6.2709-3.9815-7.0723-7.5839-.9765-4.3896,2.2736-8.2824,5.04-11.2693,5.9454-6.4194,11.4222-12.1574,14.8993-20.3646,3.5706-8.4277,5.0139-17.314,6.1287-26.3385,2.6262-21.2594,4.9246-42.6714,4.3852-64.125-1.1081-44.0698-1.7047-88.0544-1.1456-132.1416,.5557-43.8154,2.1619-87.5512,4.1067-131.3222,1.91-42.9882,2.8566-86.0079,14.3026-127.7788,1.178-4.299,7.3326-20.0898-1.8323-20.3384-3.4758-.0943-6.6738,3.6166-8.4067,6.2104-1.8841,2.82-2.7611,6.1318-2.9263,9.4945-.3631,7.3891,2.2427,15.113,3.6786,22.3038,1.5756,7.8901,3.5939,15.7115,6.3565,23.2741,5.2776,14.448,13.343,28.3269,26.1998,37.2556,9.1093,6.3262,20.1347,9.0707,31.1553,8.593,23.2554-1.0082,45.1741-13.4493,63.7333-26.5737,14.4904-10.2471,28.1123-21.8911,40.5516-34.5525,2.8293-2.8798,5.6608-5.753,8.5162-8.6084,3.4226-3.4226,6.7872-6.9175,10.2744-10.2744,1.4394-1.3856,2.8781-2.6417,5.0977-2.3933,4.4568,.4986,5.2104,5.1402,3.3721,8.3871-1.8665,3.2967-3.9792,6.4757-5.963,9.704-1.1713,1.9062,.3463,4.4071,2.529,4.4071,18.2001,0,36.4001,0,54.6002,0,1.211,0,2.4882-.1207,3.6942,0,4.6443,.4648,5.659,6.922,.462,7.3076-3.7633,.2792-3.7722,5.581,0,5.8578,4.6917,.3442,4.7038,6.9625,0,7.3076-3.7643,.2762-3.7713,5.581,0,5.8578,4.6917,.3442,4.7038,6.9625,0,7.3076-3.7652,.2763-3.7703,5.578,0,5.8578,5.3849,.3996,4.0374,7.0749-.7909,7.3076-2.1541,.1038-4.3392,0-6.4954,0-7.114,0-14.228,0-21.342,0-5.7569,0-11.5565-.3687-17.0481,1.7342-7.744,2.9654-11.9244,9.2788-16.8571,15.4463-20.2812,25.3582-45.8131,48.6464-76.2698,60.8921-18.3463,7.3765-38.392,10.3169-57.983,6.9861-19.2232-3.2683-37.8794-11.6472-52.7336-24.3383-25.7914-22.0356-40.1497-54.7378-46.0989-87.5746-6.1615-34.0083-3.7951-70.2951,8.2722-102.7795,5.5685-14.99,13.47-29.3491,24.0605-41.39,2.6464-3.0088,5.4546-5.8764,8.4208-8.5707,3.747-3.4035,7.5247-6.2344,9.9167-10.8531,2.6997-5.2127,3.2465-10.6592,2.702-16.4258-.6779-7.1789-1.3131-14.3634-2.0338-21.5381-1.1951-11.897-5.6239-26.6819,2.2619-37.2271,7.2101-9.6415,21.1653-12.9183,32.569-11.2656,9.7726,1.4163,19.3461,6.3702,24.7995,14.7829,4.3747,6.7487,6.6955,14.8773,7.1292,22.8754,.4118,7.5946-.7258,15.7668-5.0992,22.1757-1.9399,2.8428-4.553,5.191-7.6593,6.6946-2.8714,1.3899-6.2761,1.2436-6.879,4.981-.511,3.1677,.6652,6.8392,1.4955,9.8595,.835,3.0376,1.6736,6.4627,3.2392,9.2265,2.3005,4.0609,7.0399,5.2518,11.3446,5.6868,6.8871,.6959,13.2518,1.5106,19.4922,4.7647,11.6144,6.0564,20.2141,16.409,27.9372,26.7195,7.4756,9.9802,14.4682,20.3189,22.2716,30.0528,13.6062,16.9724,33.7191,38.4617,57.5191,28.373,10.6581-4.5179,19.2561-13.0382,27.334-21.0836,9.4481-9.4101,19.0506-18.6749,29.5073-26.9727,10.7351-8.5186,22.3373-16.4588,35.5553-20.4759,6.2155-1.889,12.5949-3.1602,18.9006-4.6992,4.2994-1.0493,15.8857-6.4257,16.2257,1.9709,.146,3.6069-3.3166,5.1291-5.9155,6.6866-2.2934,1.3744-4.5868,2.7488-6.8803,4.1231-1.8101,1.0848-1.9946,4.0198,0,5.058,9.0988,4.7359,18.1976,9.4718,27.2964,14.2076,3.1792,1.6548,6.5573,3.1357,9.607,5.0263,6.1188,3.7932,3.829,9.5862,1.208,14.5106-5.5693,10.4635-11.1386,20.927-16.7078,31.3905-2.5825,4.8521-6.2819,9.2672-12.497,6.5112-3.5439-1.5715-6.9458-3.6153-10.383-5.4043-6.4391-3.3515-12.8783-6.7031-19.3174-10.0546-1.8962-.987-3.8434-1.9127-5.7026-2.9682-.6892-.3912-1.3226-.7336-1.8432-1.3755-2.4054-2.9656,.6518-7.1644,4.2349-5.6247,3.3757,1.4505,6.2565-3.0204,2.9565-5.058-3.909-2.4136-1.2904-8.5204,3.1219-6.6202,3.3758,1.4538,6.2553-3.0212,2.9565-5.058-3.909-2.4136-1.2904-8.5204,3.1219-6.6202,3.3762,1.454,6.2535-3.0186,2.9565-5.058-4.1764-2.5834-1.1667-8.0701,3.3243-6.5149,.6525,.226,1.2943,.6737,1.9043,.9912,3.6256,1.8871,7.2511,3.7742,10.8767,5.6612,6.4144,3.3387,12.8289,6.6774,19.2433,10.016,3.3399,1.7384,6.3053-3.315,2.9565-5.058-8.7594-4.5592-17.5188-9.1184-26.2781-13.6776-3.6045-1.8761-7.4414-4.5961-11.6856-4.0266-9.2672,1.2435-10.822,13.0124-3.2979,17.6666,.9855-1.686,1.971-3.372,2.9565-5.058-4.7599-2.05-10.2497-.9609-12.8856,3.8506-2.5802,4.7098-.5131,10.1912,3.8506,12.8856,.9855-1.686,1.971-3.372,2.9565-5.058-4.7599-2.05-10.2497-.9609-12.8856,3.8506-2.5802,4.7098-.5131,10.1912,3.8506,12.8856,.9855-1.686,1.971-3.372,2.9565-5.058-4.6281-1.9887-9.974-1.0763-12.6888,3.5349-2.538,4.3108-1.0578,10.0071,3.0296,12.7972,3.8982,2.6609,8.5555,4.5323,12.7303,6.7053,6.5677,3.4184,13.1354,6.8369,19.7031,10.2553,5.4677,2.8459,10.825,5.4857,17.027,2.5018,5.1766-2.4905,7.2672-7.8466,9.8058-12.6161,3.5336-6.6389,7.0672-13.2778,10.6008-19.9167,2.1737-4.0838,4.6371-8.1207,6.522-12.3511,3.427-7.6916-.5844-15.2476-7.5892-18.8935-11.6786-6.0786-23.3572-12.1573-35.0358-18.2359v5.058c4.9073-2.9408,12.3958-5.8173,14.7711-11.3975,1.9609-4.6065,.5442-10.0532-3.5318-13.0297-5.1513-3.7617-10.5492-1.2851-16.0483,.152-13.5676,3.5457-27.176,5.8369-39.4443,13.0459-11.9042,6.9951-22.8035,15.6506-33.0359,24.8865-10.0737,9.0926-19.1191,19.3801-29.5894,28.0195-9.1128,7.5193-20.2043,13.3307-32.1225,9.1042-12.5387-4.4465-22.7338-16.4544-30.9092-26.4791-8.5944-10.5385-16.0881-21.911-24.3359-32.7135-7.8248-10.2485-16.5997-20.3456-28.2086-26.3989-5.8098-3.0294-12.0383-4.6683-18.5472-5.2572-2.9379-.2658-6.5607-.027-9.0303-1.9048-1.2348-.9389-1.563-2.0587-2.0738-3.487-1.2744-3.5632-2.5357-7.3877-2.9997-11.1588-.0755-.6132,.0036-1.2879-.1047-1.8847-.0005-.003-.7338,1.1513-.7516,1.1416,.1283,.0701,1.1971-.3594,1.434-.4406,1.9274-.6612,3.8111-1.5249,5.5236-2.6312,6.581-4.2512,10.606-11.3447,12.3593-18.8535,3.6181-15.4949-.3669-35.1485-12.2153-46.3515-16.2259-15.342-47.628-16.042-61.7052,2.7099-8.1105,10.8038-5.3342,24.7315-3.7908,37.1014,.8943,7.1679,1.4206,14.393,2.0996,21.5842,.654,6.9258,1.168,13.2683-2.9823,19.2961-2.8033,4.0714-7.3426,6.932-10.8525,10.4068-2.8602,2.8317-5.5587,5.8261-8.0943,8.9515-5.3555,6.6012-10.0391,13.717-14.0296,21.2214-16.8965,31.7747-22.5324,69.3397-19.5442,104.9577,2.9615,35.2996,14.5578,71.1763,38.074,98.2465,26.4875,30.4904,68.5941,45.4512,108.3022,37.1819,36.2244-7.5439,67.2143-31.8953,91.2063-59.1138,4.2223-4.7901,8.2592-9.7393,12.1254-14.8208,5.2185-6.8587,11.4723-10.1223,20.0828-10.1223h20.5898c4.8196,0,10.2967,.74,15.0736-.1749,4.7923-.9179,8.3382-5.2974,7.9363-10.2018-.4165-5.0825-4.6406-8.2893-9.4552-8.6465v5.8578c12.2284-.8972,12.2314-18.1257,0-19.0231v5.8578c12.2284-.8972,12.2314-18.1257,0-19.0231v5.8578c9.9718-.7399,13.2782-14.4331,3.3306-18.3164-3.1814-1.242-7.2617-.7067-10.6023-.7067-13.3499,0-26.6999,0-40.0498,0-3.8117,0-7.6233,0-11.435,0,.843,1.469,1.686,2.9381,2.529,4.4071,2.0278-3.3,4.1971-6.5476,6.0969-9.922,3.2852-5.835,1.5612-13.4474-4.9469-16.1379-5.2388-2.1658-9.7427,.1494-13.4136,3.8203-3.5647,3.5647-7.1293,7.1293-10.694,10.694-7.834,7.834-15.5619,15.7176-23.9037,23.0299-30.1025,26.3875-88.8025,68.7087-123.0026,25.6889-10.0865-12.6877-15.1463-28.8621-18.4314-44.5053-.7565-3.6024-1.3803-7.2268-2.1879-10.8187-.8758-3.895-1.9215-7.8916-1.6894-11.9209,.1156-2.006,.5825-3.954,1.5988-5.7026,.3896-.6703,.8364-1.2732,1.3478-1.8627,.0567-.0653,2.2057-2.1194,1.6257-2.1808,.4449,.0471-3.3129,14.2627-3.6307,15.4339-11.275,41.5473-11.9139,84.7125-13.826,127.432-1.9922,44.5096-3.5744,88.9862-4.1113,133.5415-.2689,22.3137-.4102,44.6294-.2215,66.9443,.1855,21.9334,1.2297,43.8493,1.4647,65.7752,.2296,21.4259-2.0958,42.8714-4.8781,64.0889-1.2253,9.3441-3.4961,18.8256-8.4525,26.9433-4.3474,7.1202-12.0421,11.801-15.7068,19.3287-8.9102,18.3028,17.3479,25.0702,29.7927,27.1753,9.4984,1.6067,19.1616,2.6985,28.7378,3.7433,8.2111,.8959,17.0808,1.0261,24.4979-3.1612,6.419-3.6238,10.5175-11.0014,8.4522-18.3289-.5614-1.9917-2.5906-2.4909-4.3025-1.7504-4.0345,1.7451-6.2512,6.0883-6.084,10.3932,.1873,4.8223,3.5861,8.8547,7.7268,11.0108,5.575,2.903,11.9581,2.4394,17.9967,1.7448,4.911-.5649,9.8454-1.2449,14.3959-3.2799,11.2508-5.0313,11.7551-16.1877,10.1038-26.8905-2.0254-13.1274-1.7313-26.5459-1.1148-39.7722,.6298-13.5106,1.6242-26.9882,1.7815-40.5178,.1695-14.5882,.3391-29.1764,.5086-43.7647,.3334-28.6903,.6669-57.3806,1.0003-86.0708,.1671-14.3818,.6081-28.7913,.4574-43.1733-.1363-13.0181-1.5488-26.0033-1.2134-39.03,.1634-6.3457,.7402-12.6858,2.2153-18.871,1.2747-5.345,4.5182-10.9718,3.5284-16.5943-.7973-4.5286-4.7127-8.5687-9.5855-7.4209-4.9336,1.1621-6.0435,6.3224-4.657,10.583,3.8386,11.7955,10.7249,22.905,16.2563,33.9599,6.027,12.0454,10.5207,24.2158,14.6142,37.0184,8.1433,25.4685,18.1838,50.4799,20.4315,77.3736,2.0871,24.9727-1.4566,50.5519-13.8054,72.6293-9.3383,16.6952-23.8574,35.6107-20.4031,55.9499,1.4949,8.8018,7.8564,20.0881,17.785,20.8939,4.6226,.3752,9.2651-2.3129,11.0712-6.6289,1.1486-2.7448,1.1651-8.8102-3.0583-8.9463-5.7714-.186-6.3127,12.6589-6.0411,16.3583,.7131,9.7147,10.6198,18.3729,17.5366,24.1275,9.448,7.8606,20.2387,13.9188,31.7079,18.2937,10.2164,3.8971,22.9975,7.2188,32.228-.7356,4.2088-3.6269,5.8771-8.7452,5.4918-14.2073-.4363-6.185-1.8497-12.2216-2.1058-18.4487-.5104-12.4121,.5007-25.3133,3.822-37.3175,3.2804-11.8564,10.4254-22.1195,15.9834-32.9582,5.8127-11.3354,9.3367-23.7138,11.9087-36.1516,5.4458-26.3344,5.5913-53.4372,1.5884-79.9796-7.6572-50.7737-30.0108-97.5169-49.5856-144.4784-10.1632-24.3824-18.5108-49.4465-28.6881-73.8176-10.6138-25.4166-23.8753-49.5946-33.2259-75.5238-4.4888-12.4473-8.8662-24.9314-14.4819-36.9289-1.5968-3.4115-6.6482-.4407-5.058,2.9565h0Z"/><circle cx="488.8062" cy="201.1094" r="6.1832" style="fill:#fff;"/><path d="M669.7458,893.6264l-20.2699-11.7028c-16.4553-9.5005-26.5922-27.058-26.5922-46.059V507.0145h-18.875v328.9298c0,19.0009-10.1369,36.5585-26.5922,46.059l-20.1319,11.6231h112.4612Z" style="fill:#f4d13b;"/><rect x="822.0475" y="218.0318" width="152.9525" height="123.6637" rx="21.0638" ry="21.0638" style="fill:#6966ed;"/><path d="M879.6487,251.2258h66.0625c3.7692,0,3.7754-5.8578,0-5.8578h-66.0625c-3.7692,0-3.7754,5.8578,0,5.8578h0Z" style="fill:#fff;"/><path d="M845.4785,271.4025h87.8888c4.048,0,8.1258,.1437,12.172,0,.0571-.002,.1147,0,.1718,0,3.7692,0,3.7754-5.8578,0-5.8578h-87.8888c-4.048,0-8.1258-.1437-12.172,0-.0571,.002-.1147,0-.1718,0-3.7692,0-3.7754,5.8578,0,5.8578h0Z" style="fill:#fff;"/><path d="M845.4785,291.5792h87.8888c4.048,0,8.1258,.1437,12.172,0,.0571-.002,.1147,0,.1718,0,3.7692,0,3.7754-5.8578,0-5.8578h-87.8888c-4.048,0-8.1258-.1437-12.172,0-.0571,.002-.1147,0-.1718,0-3.7692,0-3.7754,5.8578,0,5.8578h0Z" style="fill:#fff;"/><path d="M845.4785,311.7559h76.4763c3.7692,0,3.7754-5.8578,0-5.8578h-76.4763c-3.7692,0-3.7754,5.8578,0,5.8578h0Z" style="fill:#fff;"/><path d="M822.0475,271.4025h-26.5443c-1.9077,0-4.904-.5074-6.4439,.859-2.9696,2.635-5.7035,5.5978-8.5359,8.3778-5.4386,5.3379-10.8773,10.6758-16.3159,16.0137-3.4312,3.3676-6.8624,6.7353-10.2936,10.1029-2.6948,2.6449,1.4482,6.786,4.1421,4.1421,3.9593-3.886,7.9186-7.772,11.8779-11.6579,6.3095-6.1927,12.619-12.3853,18.9285-18.578,1.4467-1.4199,2.8934-2.8398,4.3401-4.2598-.6903,.2859-1.3807,.5719-2.071,.8578h30.9159c3.7692,0,3.7754-5.8578,0-5.8578h0Z" style="fill:#6966ed;"/><g><path d="M405.6108,148.6066c0-8.4533,4.5536-15.8395,11.3389-19.8506-3.5307-2.1982-7.6968-3.4719-12.1621-3.4719-12.7292,0-23.0482,10.319-23.0482,23.0482s10.319,23.0482,23.0482,23.0482c4.2758,0,8.277-1.1686,11.7092-3.1975-6.5343-4.0682-10.8861-11.3124-10.8861-19.5762Z" style="fill:#fff;"/><path d="M428.6589,125.5584c-4.2758,0-8.277,1.1686-11.7092,3.1975,6.5343,4.0682,10.8861,11.3124,10.8861,19.5762,0,8.4533-4.5536,15.8395-11.3389,19.8506,3.5307,2.1982,7.6968,3.4719,12.1621,3.4719,12.7292,0,23.0482-10.319,23.0482-23.0482s-10.319-23.0482-23.0482-23.0482Z" style="fill:#f953b2;"/><path d="M427.8358,148.3322c0-8.2638-4.3518-15.508-10.8861-19.5762-6.7854,4.0112-11.3389,11.3973-11.3389,19.8506,0,8.2638,4.3518,15.508,10.8861,19.5762,6.7854-4.0112,11.3389-11.3973,11.3389-19.8506Z" style="fill:#6966ed;"/></g><path d="M122.5572,235.1241c2.9549,.8546,6.0306,.9623,9.0516,.4313,1.0085-.1773,1.6671-1.4645,1.3638-2.4019-.3511-1.0849-1.3213-1.5537-2.4019-1.3638-.1723,.0303-.3455,.0554-.5179,.0851-.148,.0216-.0988,.0155,.1478-.0184-.0992,.0126-.1984,.0243-.2978,.0352-.2981,.0326-.5971,.0573-.8965,.0746-.6486,.0374-1.2996,.0385-1.9483,.0033-.2995-.0162-.5985-.0399-.8968-.0713-.0994-.0105-.1987-.0218-.298-.034,.2464,.0346,.2956,.0412,.1475,.02-.1728-.0274-.3459-.0524-.5182-.0826-.6405-.1122-1.2726-.2625-1.8972-.4431-.9807-.2837-2.1698,.3447-2.4019,1.3638-.2376,1.0431,.3134,2.0981,1.3638,2.4019h0Z"/><path d="M315.6602,297.5631c8.7286-12.29,13.0959-27.5953,12.2138-42.6407-1.2358,.9414-2.4717,1.8828-3.7075,2.8243,8.4456,3.203,17.3461,6.2565,26.4765,4.4045,7.3568-1.4922,13.6578-6.111,18.8878-11.3028,3.0217-2.9996,5.7657-6.262,8.465-9.5499-1.6318-.4308-3.2635-.8616-4.8953-1.2924,.993,7.1038,2.0983,14.5974,6.1435,20.7105,3.6818,5.5639,9.4973,9.7924,16.3384,9.9809,3.7708,.1039,3.7681-5.7539,0-5.8578-4.9591-.1367-9.3271-3.7282-11.8775-8.0326-3.263-5.5071-4.0853-12.1305-4.9558-18.3583-.296-2.1173-3.5863-2.8868-4.8953-1.2924-4.3449,5.2923-8.8585,10.7788-14.5111,14.7359-2.6487,1.8542-5.4773,3.358-8.5919,4.213-3.6619,1.0052-7.5079,.987-11.2265,.2907-4.7491-.8893-9.2971-2.5899-13.8005-4.2978-1.7325-.657-3.8119,1.0431-3.7075,2.8243,.8284,14.1312-3.2192,28.1456-11.4141,39.6842-.9164,1.2904-.229,3.2587,1.0507,4.0073,1.4687,.859,3.0887,.2426,4.0073-1.0507h0Z" style="fill:#f953b2;"/><path d="M933.1002,435.108c6.8602,1.6238,13.9595,2.1802,20.9827,1.5478,1.5755-.1419,2.9289-1.2446,2.9289-2.9289,0-1.4743-1.3442-3.0716-2.9289-2.9289-6.5479,.5896-13.0611,.168-19.4255-1.3385-1.5381-.3641-3.1732,.4817-3.6029,2.0456-.4083,1.486,.5,3.237,2.0456,3.6029h0Z" style="fill:#f953b2;"/><path d="M937.4328,489.3536c5.7405,5.3261,11.481,10.6523,17.2216,15.9784,1.1234,1.0423,3.0447,1.1955,4.1421,0,1.0402-1.1331,1.1996-3.029,0-4.1421-5.7405-5.3261-11.481-10.6523-17.2216-15.9784-1.1234-1.0423-3.0447-1.1955-4.1421,0-1.0402,1.1331-1.1996,3.029,0,4.1421h0Z" style="fill:#f953b2;"/><path d="M937.5437,399.0292c2.8863-.9621,5.7726-1.9242,8.6589-2.8863,.7231-.241,1.3583-.676,1.7504-1.346,.3674-.6278,.523-1.553,.2953-2.2569-.4675-1.4446-2.0466-2.5644-3.6029-2.0456-2.8863,.9621-5.7726,1.9242-8.6589,2.8863-.7231,.241-1.3583,.676-1.7504,1.346-.3674,.6278-.523,1.553-.2953,2.2569,.4675,1.4446,2.0466,2.5644,3.6029,2.0456h0Z" style="fill:#f953b2;"/></svg>