<?xml version="1.0" encoding="UTF-8"?><svg id="Layer_2" xmlns="http://www.w3.org/2000/svg" width="1000" height="1000" viewBox="0 0 1000 1000"><path d="M660.6367,125.7792l-71.0093-80.6611L63.3031,130.2715c-12.4539,2.0149-24.49,6.0708-35.6234,12.0043l-2.6797,1.4282,635.6367-17.9247Z" style="fill:#f4d13b;"/><polygon points="646.8485 178.1745 660.6367 125.7792 25 143.7039 646.8485 178.1745" style="fill:#6966ed;"/><path d="M692.0049,154.3898L25.3447,143.3592h0c6.0648,10.0246,15.5359,17.5308,26.6808,21.1453l568.7684,184.4654,71.2109-194.5802Z" style="fill:#f953b2;"/><path d="M691.6602,154.7345l108.2375,107.7296L47.7884,155.9602c-8.8112-1.2477-16.89-5.5927-22.7884-12.2563h0s666.6602,11.0306,666.6602,11.0306Z" style="fill:#f4d13b;"/><path d="M590.9582,486.7588c-11.174-6.1739-20.9146-14.338-28.9271-24.3207-7.0287-8.7569-12.8905-19.5917-16.8448-29.9663-3.9288-10.3078-6.6008-21.0729-8.3033-31.9637-.1019-.6517-.2002-1.3039-.2951-1.9566-.0435-.2994-.0864-.5988-.1285-.8984-.0218-.1549-.1434-1.0412-.0749-.5318-.1715-1.276-.3274-2.5542-.4721-3.8334-.2803-2.4773-.5136-4.9599-.7021-7.4459-.3439-4.5342-.5393-9.0797-.5943-13.6266-.0841-6.9556,.1485-13.9199,.746-20.8509,.1719-1.9944,.3738-3.9867,.6215-5.9732,.0394-.3157,.0876-.631,.122-.9472-.0893,.8202-.0901,.6503-.006,.0634,.0284-.1984,.0601-.3963,.0882-.5947,.3131-2.2085-1.2491-3.347-2.4032-4.9845-1.0253-1.4548-1.9163-3.0033-2.6772-4.6119-1.4151-2.9918-2.2762-6.2695-2.833-9.5232-.9274-5.4197-.7686-11.3294-.1198-16.9312,.0706-.6097,.0022-.0475,.022-.1889,.0381-.2716,.0767-.543,.1176-.8142,.0679-.4504,.1404-.9002,.2177-1.3491,.1152-.6683,.2402-1.3351,.3804-1.9987,.1991-.9423,.3809-1.7344,.1892-2.7318-.4562-2.3746-1.0527-4.7311-1.5778-7.0911-2.1528-9.6756-4.3057-19.3512-6.4585-29.0269-.7855-3.5305-1.5711-7.0609-2.3566-10.5914-.14-.6291-.3132-1.2601-.4218-1.8957-.4196-2.4556,1.0273-4.8137,3.4843-5.4399,2.7129-.6915,5.1289,1.1845,5.7188,3.8018,.6559,2.9099,5.2123,2.9002,5.8763,0,.4808-2.1003,1.9824-3.7679,4.2289-3.9663,2.3178-.2047,4.0279,1.293,4.9086,3.2951,1.1462,2.6055,4.8037,1.4863,5.5691-.7279,.753-2.1784,3.0224-3.5071,5.2802-3.0896,2.3602,.4364,3.4122,2.3184,3.898,4.4748,.292,1.2961,1.6469,2.237,2.9381,2.237,1.4302,0,2.4491-.9715,2.9381-2.237,.9026-2.3359,3.6925-3.4863,5.9863-2.6086,1.6236,.6212,2.5529,1.9616,2.9587,3.603,.5135,2.077,.9458,4.1776,1.4182,6.2643,1.7941,7.9245,3.5882,15.8491,5.3823,23.7736,.4726,2.0877,.9453,4.1754,1.4179,6.2631,.4965,2.1931,3.5784,3.0019,5.0927,1.3445,2.0224-2.2136,4.0448-4.4272,6.0671-6.6408,.7369-.8066,1.474-1.8138,2.3414-2.491,1.648-1.2867,3.395-.9337,4.7825,.2818,.674,.5904,1.1985,1.3173,1.5367,2.1513,.4089,1.0083,.4353,1.7543,.2642,2.5284-.5276,2.3862-2.0452,4.5176-3.4887,6.5489-1.5464,2.1761-3.2424,4.2591-4.638,6.5388-1.3836,2.2601-2.1888,4.7324-2.6965,7.3227-2.3974,12.2308,.0131,24.9419,1.0118,37.1983,1.0233,12.5592,2.9183,25.2107,7.5383,37.0002,4.7847,12.2096,12.3059,22.8185,21.6254,31.999,4.7415,4.6708,10.0819,8.9834,16.1978,11.7096,5.3336,2.3774,11.0403,3.5245,16.8819,3.4175,11.154-.2042,22.3853-4.3339,31.3032-10.9766,4.5436-3.3843,8.5744-7.3621,11.7176-12.0962,1.5979-2.4067,2.7272-5.0551,4.2154-7.5238,2.0151-3.3428,3.1734-6.9055,4.4729-10.5616,.1825-.5134,.6869-1.2672,.6964-1.7771,.0109-.5853,.1422-.0263,.0282-.2118l-1.2608,.0089-.0086-.002c-1.0259-.9199,.312-.8291-.5505-.6589-.0241,.0048-1.1453,.3334-1.5583,.4062-2.4923,.4387-5.2265,.3124-7.7444,.1152-5.3574-.4195-10.2582-3.1535-12.9757-7.6547-2.4528-4.0627-3.2736-8.9572-3.4903-13.6681-.1168-2.5384-.0665-5.0824,.0748-7.6188,.1355-2.4317,.6995-5.0266,.5375-7.4504-.1241-1.8554-1.2828-3.1219-2.8984-3.8742-.7247-.3375-1.4474-.673-2.0989-1.1445-.1907-.138-.3075-.2298-.515-.4075l-.352-.3248c-.4726-.5557-.4812-.4315-.0258,.3728-.1387,.5126-.2773,1.0252-.416,1.5379,.2752-.6485,1.0151-1.0775,1.534-1.5675,.6734-.6359,1.3191-1.3011,1.9383-1.9899,1.2936-1.4391,2.4846-2.9829,3.5926-4.5684,2.1033-3.0099,3.858-6.2435,5.5642-9.4893,3.3001-6.2781,6.4672-12.8208,11.6549-17.7944,5.2554-5.0385,12.1543-8.1995,19.3666-9.1098,7.2912-.9202,14.5761,.4145,21.4164,2.9476,5.7928,2.1452,12.342,5.5602,15.3964,11.2117,.0801,.1482,.1493,.3049,.2326,.451,.3078,.5398-.2156-.6935-.0307-.0891,.0881,.2881,.2065,.5673,.2934,.8567,.1097,.3654,.2005,.7362,.2789,1.1095,.0409,.1948,.0705,.3919,.1109,.5866,.1807,.8713-.0204-.3489,.0356,.2128,.1777,1.7828,.1877,3.566,.0839,5.3543-.1379,2.3756-.3785,4.1647-.658,5.9752-.3687,2.3881-.8121,4.7642-1.28,7.1346-.9551,4.8381-2.0234,9.6536-2.9256,14.5022-.8437,4.5343-1.6145,9.1416-1.7527,13.7601-.1106,3.6951,.1773,7.715,2.0427,10.9974,1.8771,3.303,5.2179,4.9701,8.9223,5.2099,2.7589,.1786,5.2816-.5548,7.9823,.5044,3.1374,1.2304,5.6609,3.759,7.769,6.3116,17.6457,21.3662,18.269,51.4696,13.173,77.382-5.4566,27.7464-16.8812,54.0533-29.5989,79.1655-1.3503,2.6663-2.7202,5.3227-4.1032,7.9723-1.8128,3.4728,3.4445,6.5574,5.2619,3.0757,13.5544-25.9663,26.0605-53.0085,32.8096-81.633,6.618-28.0682,7.5718-59.7211-9.0821-84.6477-4.3811-6.5573-10.1342-13.545-18.5433-14.3611-1.466-.1423-2.8694,.0958-4.3261,.1505-.4473,.0168-.8956,.0149-1.3424-.0141-.209-.0135-.4166-.0348-.6247-.0573,.9394,.1017,.037-.0033-.1644-.059-.3582-.0991-.7084-.2035-1.0622-.3172-.6071-.1953,.6235,.3441,.0825,.0278-.1476-.0863-.3044-.1569-.452-.2441-.1453-.0858-.2811-.1861-.4252-.2731-.52-.314,.5212,.4928,.0904,.0684-.2781-.274-.5478-.5436-.8128-.8309,.6633,.7191-.0552-.1048-.2049-.3561-.1661-.2789-.2991-.5712-.4475-.859-.1902-.3688,.2561,.7437,.0602,.1405-.0577-.1775-.1297-.351-.1885-.5284-.1435-.4325-.261-.8734-.361-1.3179-.0908-.404-.1581-.8112-.2258-1.2194,.1539,.9273-.0441-.4688-.0636-.7104-.0823-1.0232-.1018-2.051-.0837-3.0771,.0396-2.2341,.2564-4.4656,.5533-6.6791-.0912,.6799,.0405-.2703,.0498-.3329,.0432-.2894,.0851-.5789,.1293-.8681,.0899-.5878,.1846-1.1749,.2827-1.7614,.2187-1.3064,.456-2.6097,.7038-3.9109,1.8569-9.7505,4.6701-19.5957,4.9651-29.5665,.1217-4.1127-.3866-8.245-2.7592-11.7105-4.2764-6.2465-11.2271-10.041-18.1714-12.6126-15.2339-5.6414-32.5932-4.4601-45.2485,6.403-6.0229,5.1699-9.8064,12.2001-13.4296,19.1287-1.7719,3.3883-3.5535,6.784-5.6897,9.9611-.9642,1.434-2.0002,2.803-3.1559,4.0887-1.3213,1.4699-3.287,2.7243-4.2764,4.4402-1.3214,2.2918-.1933,4.5633,1.5978,6.1495,.7866,.6966,1.6464,1.3473,2.5593,1.8698,.5449,.3118,1.6521,.6678,1.9194,.9978l-.7836-1.3445c.2851,.8165-.1582,2.39-.2366,3.3059-.1121,1.3086-.2084,2.6186-.2789,3.9301-.1436,2.6695-.1855,5.3479-.0347,8.0181,.3019,5.3464,1.2933,10.7878,3.9231,15.5154,2.8961,5.2062,7.8376,8.9616,13.586,10.4938,3.1506,.8398,6.4748,.9959,9.7226,.9306,2.9626-.0596,6.6126-.2514,8.9263-2.3556,2.865-2.6056,2.5835-7.3844-1.0401-9.1262-1.7151-.8244-3.6769-.5895-5.1573,.5973-1.4655,1.1748-2.089,2.931-2.7164,4.6411-.6559,1.7878-1.2022,3.6141-1.876,5.3957-.6353,1.6799-1.5406,3.1821-2.4608,4.7167-1.4923,2.4887-2.6121,5.1443-4.2624,7.5465-6.1644,8.9728-16.3612,15.1663-26.7425,17.9811-5.1652,1.4005-10.585,1.9817-15.9164,1.3354-6.0755-.7365-11.7608-3.5011-16.7056-7.1387-5.3351-3.9247-10.0062-8.932-14.2439-13.9953-4.1414-4.9483-7.6401-10.4368-10.4431-16.247-5.4384-11.2734-7.8961-23.7666-9.138-36.1451-.6287-6.2663-1.1995-12.5486-1.7539-18.8222-.5617-6.3568-1.0484-12.9185-.1594-19.2688,.1908-1.3632,.4699-2.7206,.8342-4.048,.3891-1.418,.5458-1.8625,1.2609-3.0935,1.3637-2.3476,3.0945-4.4668,4.6755-6.6672,3.3545-4.6687,6.2578-10.0949,3.3932-15.7521-2.7604-5.4512-9.7705-8.0078-14.9183-4.1863-2.6834,1.992-4.8276,4.9318-7.0671,7.3831-.7447,.8151-1.4894,1.6302-2.2341,2.4454,1.6976,.4482,3.3951,.8964,5.0927,1.3445-1.4194-6.2696-2.8388-12.5391-4.2582-18.8087-.9573-4.2284-1.9146-8.4569-2.8719-12.6853-.5153-2.2762-.8519-4.745-1.8112-6.8888-1.6923-3.7814-5.6098-6.2867-9.7517-6.291-4.7565-.0049-8.5575,3.0685-10.2229,7.3784h5.8763c-1.0177-4.5175-4.2581-8.1594-8.9729-8.8673-5.3799-.8077-10.2079,2.4197-11.9578,7.4821,1.8564-.2426,3.7127-.4852,5.5691-.7279-1.8498-4.2048-6.4401-6.7593-10.9796-6.2177-4.5444,.5422-8.2717,3.8697-9.2962,8.3445h5.8763c-1.0665-4.7318-5.2494-8.1448-10.0621-8.3992-4.9629-.2623-9.6511,3.2682-10.8555,8.0687-.8769,3.4952,.4278,7.3024,1.1902,10.7289,2.4964,11.2198,4.9929,22.4397,7.4893,33.6595,.7092,3.1875,1.4184,6.375,2.1277,9.5624v-1.62c-.8691,3.4623-1.2847,7.0937-1.5341,10.6454-.5008,7.1304,.0147,14.5624,2.3278,21.3631,1.5502,4.5576,3.8732,8.7189,7.0662,12.3292-.2612-.9882-.5224-1.9764-.7836-2.9645-.6149,3.8618-.9671,7.7781-1.2502,11.6757-.6701,9.2263-.7352,18.5026-.218,27.7383,.699,12.4818,2.4489,24.962,5.5961,37.0688,3.4974,13.4541,8.7824,26.5795,16.303,38.3033,8.2359,12.839,19.1174,23.8259,32.046,31.9486,1.6685,1.0483,3.3689,2.0435,5.0935,2.9964,3.4352,1.898,6.5129-3.3629,3.0757-5.2619h0Z"/><path d="M697.4557,420.5462c-5.0103,13.1753-18.5479,18.2958-30.7553,22.8267-12.1304,4.5023-25.1381,9.2336-32.7022,20.4301-10.8725,16.0939-2.6296,37.1925-12.4386,53.6582-9.6677,16.2286-29.1578,23.0491-46.9643,25.2954-39.4596,4.9778-77.8632-12.234-104.3507-41.0179-26.8909-29.2222-41.5947-67.3413-49.5343-105.7349-5.1413-24.8622-7.6573-50.1599-9.7883-75.4291-1.1036-13.0863-2.1443-26.178-3.2099-39.2674-.5394-6.6253-1.1285-13.2486-1.6183-19.8777-.1737-2.3513-.5452-5.031,.2509-7.2957,.3715-1.0569,3.8833-5.0684,4.8713-2.2362,.3985,1.1421,1.5758,2.4058,2.9381,2.237,13.7919-1.7095,29.9776-5.9726,41.2448,4.6573,8.3078,7.8378,11.8521,20.0917,7.676,30.8797-1.0066,2.6002,2.3362,4.6445,4.476,3.441,6.9475-3.9077,13.895-7.8153,20.8425-11.723l-4.476-3.441c-17.9439,67.105-3.6323,142.6443,40.0465,197.0777,10.4966,13.0811,22.8691,24.7528,36.9793,33.8686,14.9566,9.6625,31.7783,15.7908,49.1271,19.5293,17.768,3.8287,35.9166,5.4446,53.9705,7.2768,9.8079,.9954,19.6175,2.0362,29.3591,3.5651,7.8525,1.2324,15.9531,2.5933,23.2399,5.9152,7.0654,3.2209,13.1805,8.4027,15.3044,16.1356,2.0989,7.6417-.6424,15.49-4.5979,22.0304-9.5352,15.7665-25.9343,26.1879-40.6761,36.5388-31.8608,22.3711-65.165,42.5703-98.3731,62.8518-61.7587,37.7186-123.9143,76.4123-174.6785,128.6375-23.5886,24.2675-44.5563,51.3297-60.5053,81.2448-4.0653,7.6252-7.7765,15.4301-11.1599,23.3809-3.4186,8.0335-6.6421,16.3078-11.6975,23.4919-4.7699,6.7784-11.6469,12.3818-19.967,13.941-7.1539,1.3406-14.4673-1.0198-17.8026-7.7987-2.5082-5.0979-2.6346-12.2691,2.4952-15.7849l-3.6924-4.7855c-15.3582,12.1709-36.858,7.9095-52.7412-.7025-8.8163-4.7803-16.865-10.839-24.8161-16.9128-7.4033-5.6553-15.7676-11.9558-19.2524-20.9479-3.0052-7.7546-2.0386-17.7176,5.8458-22.1122,7.4416-4.1478,16.9653-2.9264,25.1259-4.2038,16.2891-2.5498,29.4833-13.3334,39.8969-25.5313,11.0997-13.0016,19.999-27.7314,29.9743-41.5763,10.5295-14.614,21.6744-28.7796,33.3936-42.458,23.7501-27.7207,49.8446-53.4889,78.2002-76.4932,56.1517-45.555,122.4493-80.746,194.3893-92.3051,26.0549-4.1864,56.2044-5.1834,79.3282,9.6887,11.2002,7.2034,18.6769,18.2715,21.412,31.2858,3.1869,15.1636-.1867,30.8276,2.0616,46.0998,2.2516,15.2951,12.9051,27.5025,29.3691,26.6462,9.2188-.4795,18.0271-4.3206,25.9673-8.7925,8.7212-4.9119,17.1018-10.5268,25.1921-16.4114,16.0113-11.6461,30.4943-24.884,44.1549-39.1836,11.4416-11.9768,24.9895-26.8969,42.3004-29.3954,4.1438-.5981,8.7548-.4383,12.7362,.9538,1.8762,.656,4.2351,1.7689,5.1729,3.6794,.9792,1.9948,.1081,4.9329-2.425,4.7219l2.9381,3.857c2.0164-10.2071,22.2634-1.3515,27.3945,.674,12.091,4.7728,23.5894,11.4151,33.7645,19.5059,5.0468,4.013,9.8663,8.3753,14.2582,13.1,4.1528,4.4676,9.7882,11.6034,6.2642,17.9662-2.5078,4.5281-8.4594,6.2576-13.0667,7.6401-6.0145,1.8047-11.9689,3.6597-17.7999,6.0085-23.476,9.4563-44.3665,23.889-64.1674,39.4536-17.4595,13.7241-33.8146,29.0141-51.9836,41.808-26.0155,18.319-55.676,32.0882-86.6416,39.5116-27.8104,6.6669-59.1382,8.6412-85.8956-3.2054-29.1109-12.8885-44.9095-40.5626-50.4821-70.9479-.8954-4.8822-1.5296-9.7984-1.9889-14.7398-.36-3.872-6.4574-3.9096-6.0939,0,3.1799,34.2046,16.1821,68.7502,47.2365,86.7472,27.199,15.7627,60.6417,15.777,90.6617,9.8161,33.5171-6.6553,65.9346-21.0356,94.0474-40.3663,19.132-13.1554,36.2142-29.1289,54.4166-43.5007,21.7375-17.1631,45.1312-33.2106,71.6084-42.0536,9.6049-3.2079,23.9533-5.1299,26.9059-16.8104,3.1706-12.5427-10.2077-23.8312-18.4988-31.0211-10.2847-8.9187-21.832-16.3755-34.2467-21.9681-9.6336-4.3397-22.1197-10.41-32.9688-7.6138-4.2601,1.098-7.7237,3.9413-8.5998,8.3758-.4062,2.0564,.8707,3.6847,2.9381,3.857,8.2438,.6867,11.1332-9.8455,6.6175-15.4105-5.1208-6.3107-15.1613-7.0779-22.6424-6.0651-18.1097,2.4518-32.3361,16.8322-44.408,29.3792-14.5653,15.1385-29.6739,29.3407-46.8134,41.5715-8.7765,6.263-17.9244,12.492-27.6115,17.2694-8.897,4.3878-20.2881,8.1642-29.7617,3.2688-15.1896-7.8491-12.6841-29.1841-12.4768-43.4043,.2179-14.9528-1.1992-29.98-10.0253-42.5866-16.1501-23.0677-47.1385-28.8889-73.5363-28.0933-16.8611,.5082-33.7795,3.6887-50.158,7.5532-18.6155,4.3923-36.8537,10.3348-54.5573,17.5654-35.3723,14.4468-68.5677,33.8229-99.2432,56.5506-30.942,22.9252-59.4136,49.1063-85.2932,77.6061-12.8244,14.1228-25.0012,28.8246-36.5494,44.0078-11.2547,14.7973-21.2145,30.487-32.3026,45.3907-10.3023,13.8477-23.1544,27.8967-40.6659,31.8696-8.7748,1.9908-18.1838,.6891-26.6898,3.9791-7.7917,3.0137-12.7088,9.6316-13.5307,17.9157-1.9582,19.7389,16.9762,32.2706,30.8321,42.482,15.704,11.5733,33.8834,22.1728,54.1355,20.4696,8.7593-.7367,16.7972-3.6804,23.7035-9.1534,2.6944-2.1352-.8446-6.7373-3.6924-4.7855-10.5964,7.2624-8.5947,23.3731,.7694,30.8711,12.6801,10.1532,31.0741,1.7172,40.0679-9.2291,5.6255-6.8468,9.2788-14.9084,12.717-23.0042,3.4751-8.1828,7.0767-16.2827,11.1593-24.1845,8.0841-15.6462,17.5646-30.5525,28.0921-44.6649,44.186-59.2328,105.2264-103.0123,167.1419-141.9763,34.1841-21.5124,69.0496-41.9297,102.9909-63.8301,17.0515-11.0024,33.8693-22.3793,50.2016-34.4279,13.2042-9.741,27.1301-21.6316,32.2212-37.8585,4.8452-15.4429-3.3165-29.8367-17.5514-36.3649-15.7463-7.2213-34.5471-8.1217-51.541-9.8887-37.8265-3.933-76.7744-6.8686-108.8169-29.5487-29.4572-20.8502-50.4872-53.0765-62.9321-86.5581-12.6886-34.1373-16.9891-71.4121-12.0773-107.5213,1.2315-9.0533,3.0857-18.0095,5.4454-26.834,.693-2.5916-2.1612-4.743-4.476-3.441-6.9475,3.9077-13.895,7.8153-20.8425,11.723l4.476,3.441c4.8042-12.4106,.6816-26.8531-8.5374-36.1216-12.7594-12.8278-30.0489-9.1387-46.2597-7.1294l2.9381,2.237c-2.6658-7.6409-12.8979-6.0182-15.9415,.4482-2.1092,4.4812-1.2257,9.7861-.8397,14.5264,.5187,6.3711,1.0373,12.7421,1.556,19.1132,2.0236,24.857,3.7462,49.7696,6.7763,74.5301,5.4055,44.171,15.7258,88.8229,40.8818,126.2565,23.2028,34.5273,58.4134,59.9958,100.571,64.0046,19.6372,1.8673,41.85-.7089,58.9495-11.1872,7.9034-4.8431,14.9471-11.5739,19.1383-19.9253,4.6189-9.2038,4.8085-19.3115,5.3724-29.3753,.538-9.6028,2.1597-19.0341,9.2898-26.027,5.1225-5.0239,11.8356-8.1319,18.4315-10.732,12.9244-5.0948,27.896-8.8892,36.8696-20.3325,2.2518-2.8715,3.8903-6.0074,5.1847-9.4113,1.3953-3.6692-4.4936-5.2558-5.8763-1.62h0Z"/><path d="M442.5245,254.4889c1.7585,7.7294,3.5187,15.4585,5.2488,23.1943,.2675,1.1961,.5995,2.3995,.7903,3.6113,.2562,1.6269,2.2896,2.529,3.7481,2.1281,1.7341-.4765,2.3851-2.1164,2.1281-3.7481-.4966-3.1531-1.39-6.2883-2.0925-9.3996-1.065-4.717-2.1348-9.4329-3.2061-14.1485-.2467-1.0858-.4934-2.1717-.7405-3.2575-.3652-1.6051-2.2129-2.55-3.7481-2.1281-1.6491,.4532-2.4944,2.1382-2.1281,3.7481h0Z"/><path d="M427.5862,253.4383c1.7585,7.7294,3.5187,15.4585,5.2488,23.1943,.2675,1.1961,.5995,2.3995,.7903,3.6113,.2562,1.6269,2.2896,2.529,3.7481,2.1281,1.7341-.4765,2.3851-2.1164,2.1281-3.7481-.4966-3.1531-1.39-6.2883-2.0925-9.3996-1.065-4.717-2.1348-9.4329-3.2061-14.1485-.2467-1.0858-.4934-2.1717-.7405-3.2575-.3652-1.6051-2.2129-2.55-3.7481-2.1281-1.6491,.4532-2.4944,2.1382-2.1281,3.7481h0Z"/><path d="M412.9013,255.1144c1.7585,7.7294,3.5187,15.4585,5.2488,23.1943,.2675,1.1961,.5995,2.3995,.7903,3.6113,.2562,1.6269,2.2896,2.529,3.7481,2.1281,1.7341-.4765,2.3851-2.1164,2.1281-3.7481-.4966-3.1531-1.39-6.2883-2.0925-9.3996-1.065-4.717-2.1348-9.4329-3.2061-14.1485-.2467-1.0858-.4934-2.1717-.7405-3.2575-.3652-1.6051-2.2129-2.55-3.7481-2.1281-1.6491,.4532-2.4944,2.1382-2.1281,3.7481h0Z"/><path d="M557.0534,249.6153c1.7585,7.7294,3.5187,15.4585,5.2488,23.1943,.2675,1.1961,.5995,2.3995,.7903,3.6113,.2562,1.6269,2.2896,2.529,3.7481,2.1281,1.7341-.4765,2.3851-2.1164,2.1281-3.7481-.4966-3.1531-1.39-6.2883-2.0925-9.3996-1.065-4.717-2.1348-9.4329-3.2061-14.1485-.2467-1.0858-.4934-2.1717-.7405-3.2575-.3652-1.6051-2.2129-2.55-3.7481-2.1281-1.6491,.4532-2.4944,2.1382-2.1281,3.7481h0Z"/><path d="M542.1151,248.5648c1.7585,7.7294,3.5187,15.4585,5.2488,23.1943,.2675,1.1961,.5995,2.3995,.7903,3.6113,.2562,1.6269,2.2896,2.529,3.7481,2.1281,1.7341-.4765,2.3851-2.1164,2.1281-3.7481-.4966-3.1531-1.39-6.2883-2.0925-9.3996-1.065-4.717-2.1348-9.4329-3.2061-14.1485-.2467-1.0858-.4934-2.1717-.7405-3.2575-.3652-1.6051-2.2129-2.55-3.7481-2.1281-1.6491,.4532-2.4944,2.1382-2.1281,3.7481h0Z"/><path d="M527.4302,250.2408c1.7585,7.7294,3.5187,15.4585,5.2488,23.1943,.2675,1.1961,.5995,2.3995,.7903,3.6113,.2562,1.6269,2.2896,2.529,3.7481,2.1281,1.7341-.4765,2.3851-2.1164,2.1281-3.7481-.4966-3.1531-1.39-6.2883-2.0925-9.3996-1.065-4.717-2.1348-9.4329-3.2061-14.1485-.2467-1.0858-.4934-2.1717-.7405-3.2575-.3652-1.6051-2.2129-2.55-3.7481-2.1281-1.6491,.4532-2.4944,2.1382-2.1281,3.7481h0Z"/><path d="M550.8396,300.2471c8.1495-8.3191,19.8443-12.171,31.2898-10.683,1.6347,.2125,3.047-1.5525,3.047-3.047,0-1.823-1.4074-2.8338-3.047-3.047-12.9528-1.684-26.4809,3.1601-35.5989,12.4679-2.7466,2.8037,1.5589,7.1164,4.3091,4.3091h0Z"/><g><path d="M808.7265,346.3586c-6.8504-4.6685-12.8241-10.4549-17.3939-17.4647-6.8507-10.5087-10.094-22.9983-16.5673-33.7435-8.4271-13.9883-22.1734-19.0869-37.6701-20.493-13.7046-1.2435-27.088,4.2768-39.2893,10.64-8.845,4.6127-13.7193,15.2674-4.6297,22.6411,5.3555,4.3445,13.9788,3.9009,18.8602-.9703-1.731-.5746-3.7058,.4651-4.6293,2.0378-.9235,1.5728-.9679,3.5249-.6238,5.316,.6049,3.148,2.5238,5.8917,5.0431,7.8249,2.9593,2.2709,5.207,1.996,8.5822,2.4944,6.2863,.9283,4.1225,15.2663,4.0449,20.2166-.1374-5.714,2.4726-11.4328,6.8792-15.0731,2.6784-2.2126,6.2408-3.6952,9.6257-2.9128,4.0457,.9351,6.8599,5.0437,7.1078,9.1887s-1.6807,8.1868-4.4161,11.3114c-2.999,3.4255-3.9323,7.4447-3.2597,12.0235,4.4684,30.407,28.2161,57.1422,56.0696,68.6444,26.8023,11.0681,57.6312,10.1355,85.1601,1.0233,14.5059-4.8015,28.6879-12.2434,39.5461-23.1543,8.561-8.6025,15.3099-18.2155,16.1734-30.7228,.2937-4.2532-1.2358-8.8907-4.8297-11.184-3.5946-2.2939-9.2828-1.1512-10.8209,2.8259,4.3824-4.7688,5.8134-12.0486,3.5622-18.1214-2.2512-6.0728-8.0816-10.6607-14.5136-11.4206-7.9689-.9415-15.5045,3.5319-22.0112,8.2278-1.2736,4.0507,4.6556,7.3844,8.3763,5.3383,3.7207-2.0461,4.955-6.8405,4.8548-11.0856-.1677-7.1067-3.3085-14.3377-9.1346-18.4107-5.8261-4.073-14.393-4.3228-19.8293,.2576-2.0618,1.7372-3.5833,4.0149-5.076,6.2601-16.729,25.1607-28.8543,39.1593-59.1911,18.4851Z"/><path d="M810.2644,343.7276c-5.6709-3.8889-10.8462-8.6694-14.8636-14.2709-4.3337-6.0425-7.296-12.8879-10.2076-19.6903-2.8563-6.6731-5.6646-13.5974-10.0126-19.4684-3.7345-5.0426-8.4501-9.2351-13.9985-12.1953-5.3804-2.8706-11.286-4.6425-17.2869-5.6293-7.4367-1.2228-14.7276-1.3364-22.1312,.2324-7.765,1.6453-15.1686,4.7834-22.2511,8.3059-3.049,1.5165-6.0019,3.0593-8.4897,5.4326-2.2133,2.1114-3.9484,4.7089-4.9629,7.5976-2.2476,6.3995,.6152,12.8282,5.8486,16.7407,5.2242,3.9056,12.6236,4.0938,18.3437,1.205,1.4474-.731,2.7771-1.7379,3.9385-2.865,1.6493-1.6007,.845-4.4963-1.3445-5.0927-2.6126-.7116-5.4348,.2133-7.2008,2.2588-1.927,2.2319-2.334,5.1715-1.9299,8.0071,.6762,4.745,3.9643,9.403,8.2777,11.5655,2.1974,1.1017,4.4642,1.3642,6.8741,1.6334,.3287,.0367,.6481,.0596,.9288,.1188,.4022,.0848,.69,.3247,.1776-.0056,.0427,.0275,.2863,.1163,.3247,.1786,.3062,.4964-.2299-.4679-.0981-.0888,.0606,.1743,.6395,.8589,.2209,.1659,.1582,.2619,.3159,.5198,.469,.7849,.0541,.0937,.2409,.521,.0695,.1233-.2012-.4669,.0725,.2169,.0856,.2581,.2198,.693,.3967,1.3909,.5211,2.1078,.0293,.1688,.055,.3382,.0809,.5076-.018-.1182-.0624-.6243-.0087-.0277,.0323,.3586,.0715,.716,.0972,1.0752,.0598,.8327,.0856,1.6677,.0909,2.5024,.0207,3.2299-.357,6.4376-.4205,9.6627h6.0939c-.0664-5.0512,2.2722-10.477,6.6652-13.4059,2.0851-1.3901,4.6268-2.3371,6.9951-1.3335,1.6444,.6969,3.0907,2.6722,3.6204,4.6395,.6021,2.2363,.0688,5.0215-1.1459,7.3094-1.4057,2.6476-3.7114,4.6377-4.9435,7.389-2.5513,5.6971-1.3156,11.8377,.1203,17.6681,5.3661,21.7891,19.8715,40.74,38.0444,53.5577,20.3775,14.3726,45.8683,19.8453,70.5256,18.198,13.0199-.8698,25.9564-3.563,38.2356-7.9789,11.952-4.2982,23.3358-10.269,33.0393-18.5281,8.843-7.5267,16.9845-17.1904,20.2418-28.5298,1.6273-5.6649,2.4412-12.0498-.3233-17.4888-2.5654-5.0472-8.4425-7.9092-13.9236-5.9688-2.8161,.9969-4.7558,2.8952-5.901,5.6323-1.1911,2.8465,3.159,5.1187,5.0927,2.9645,5.8518-6.5191,7.2784-16.3511,2.9892-24.0955-4.2565-7.6852-12.953-11.7092-21.5464-10.5066-4.5159,.632-8.7726,2.5482-12.6592,4.8765-1.0016,.6-1.9838,1.2324-2.9516,1.8854-1.0111,.6823-2.239,1.352-3.1038,2.2168-1.6125,1.6125-1.1896,4.5607-.2837,6.4058,1.5936,3.2458,5.6953,5.097,9.1931,4.6828,4.3882-.5198,7.3538-4.1566,8.6491-8.1573,2.5394-7.8432-.2031-17.2882-5.2913-23.4936-5.2206-6.3668-14.4542-9.3932-22.3351-6.5798-4.4458,1.5871-7.5098,4.7053-10.1447,8.5256-2.2292,3.2322-4.3582,6.5292-6.6446,9.7227-3.5578,4.9693-7.4745,9.9327-12.477,13.9683-.4054,.327,.2509-.1748-.3312,.2488-.2468,.1796-.4933,.3594-.7439,.5337-.5971,.4153-1.2085,.8099-1.8346,1.1801-.541,.3198-1.0927,.6217-1.6552,.9021-.2967,.1479-.6015,.279-.8985,.4258-.0505,.0249-.434,.1904-.09,.0434,.3934-.1682-.2446,.0972-.3217,.1264-1.2324,.4662-2.4907,.8453-3.7847,1.0987-.2854,.0559-.5727,.0991-.8589,.1502-.4542,.0811,.5252-.0569,.0643-.0063-.1674,.0184-.3346,.0383-.5022,.0547-.6816,.0667-1.3661,.1019-2.0509,.1073-.663,.0052-1.3261-.0167-1.9875-.0647-.3634-.0264-.7247-.0663-1.0873-.1018-.1148-.0112-.5946-.0833-.0184,.0013-.1864-.0274-.3727-.056-.5586-.0867-1.5793-.2608-3.1358-.6518-4.6609-1.1363-3.5061-1.1138-6.6146-2.6472-9.9285-4.5654-1.9546-1.1314-3.856-2.3499-5.7246-3.6175-1.3624-.9242-3.3776-.2596-4.1688,1.0931-.8792,1.5032-.2725,3.2425,1.0931,4.1688,8.0514,5.462,17.6404,10.7487,27.6899,10.3892,8.101-.2898,15.0063-4.535,20.5819-10.1692,3.2092-3.243,6.0254-6.8686,8.7088-10.5505,1.5039-2.0634,2.9574-4.1631,4.3884-6.2775,1.547-2.2858,2.956-4.7477,4.7828-6.8241,3.2274-3.6685,7.822-4.9554,12.3873-3.9753,4.8671,1.0449,8.6127,4.3743,10.9001,8.8679,1.192,2.3417,1.9911,5.2625,2.2014,7.7929,.1188,1.4286,.1485,2.8976-.0525,4.3208-.0925,.6549-.6099,2.5116-.929,3.1266-.541,1.0426-1.1695,1.8701-1.9866,2.3589-.6397,.3827-1.2086,.5161-1.8676,.3341-.1796-.0496-.379-.1081-.5633-.1472-.338-.1251-.3671-.1246-.0873,.0016-.1755-.0784-.3474-.1638-.5158-.2564-.1671-.092-.325-.1956-.4875-.2955-.292-.204-.3086-.2155-.0499-.0344-.1373-.1209-.2685-.2482-.3935-.3818-.107-.0999-.2977-.4451-.0243-.0113-.0977-.1453-.1865-.2958-.2664-.4516,.111,.2949,.1314,.3383,.0614,.1302-.1181-.1667-.0811-.7339-.0626-.0767-.0111-.1766-.0091-.353,.0059-.5292-.0458,.3598-.0278,.3574,.0542-.0071-.4668,.607-.9335,1.214-1.4003,1.821,3.2947-2.3688,6.748-4.713,10.5237-6.2499,3.5411-1.4414,7.6055-2.16,11.0829-1.3209,6.3407,1.53,11.2321,7.1689,11.3828,13.7097,.0865,3.7569-1.157,7.5356-3.7191,10.3899,1.6976,.9882,3.3951,1.9764,5.0927,2.9645-.2226,.5321,.2227-.3049,.2399-.3308-.2722,.4117,.0631-.0815,.1633-.1794,.1739-.17,.3408-.3457,.5334-.4959-.4657,.3629,.3256-.1674,.3534-.1829,.6432-.3605,1.5455-.5568,2.2248-.57,1.6133-.0315,3.1198,.5924,4.2593,2.0563,1.4893,1.9133,1.9753,4.218,1.9235,6.5389-.0585,2.6226-.5771,5.2202-1.3022,7.7491-3.023,10.5436-11.0031,19.455-19.3225,26.3862-9.154,7.6266-20.0757,13.1045-31.2944,16.9763-11.8521,4.0903-24.2633,6.6428-36.7903,7.3062-23.6957,1.255-47.4701-4.2468-66.7465-18.2329-16.8634-12.2353-30.0823-30.4612-34.6019-50.9612-1.1139-5.0527-1.9407-9.9844,1.5378-14.1714,3.974-4.7835,6.8198-11.1917,4.5221-17.413-2.2256-6.0259-8.0913-9.7103-14.4895-8.0728-6.0519,1.5488-10.6429,6.7885-12.8956,12.4078-1.0665,2.6604-1.5728,5.5446-1.5351,8.4092,.0516,3.9228,6.0166,3.9248,6.0939,0,.1096-5.5637,1.1378-11.3081-.3745-16.7814-.7775-2.8137-2.5296-5.5299-5.5175-6.2962-1.9206-.4925-3.7179-.3635-5.3224-.77-1.6411-.4157-3.1277-1.5303-4.3901-2.9667-1.2407-1.4116-2.1222-3.2707-2.2472-5.193-.0584-.8978,.0531-1.948,.5546-2.5534-.0265,.032,.5474-.3953,.3396-.3088,.1929-.0803,.4481-.1539,.6488-.181-.2187,.0295-.5532-.0614,.0347,.0988-.4482-1.6976-.8964-3.3951-1.3445-5.0927-3.4194,3.3186-9.0536,4.0302-13.1711,1.8195-1.2866-.6908-2.0677-1.3336-3.0997-2.4564-.6486-.7058-1.4908-2.0477-1.7238-2.6767-.816-2.2025-.7176-3.8274,.1549-6.128,.0874-.2305,.3041-.6856,.6266-1.2555,.2638-.4662,.5527-.9179,.8616-1.3555,.1918-.2717,.541-.7006,.9763-1.171,.5353-.5785,1.1077-1.1226,1.7099-1.631,.745-.6289,1.7612-1.2885,2.8167-1.8653,1.7012-.9298,3.4517-1.782,5.1971-2.625,6.3881-3.0857,13.0531-5.6979,20.0357-7.0664,6.3239-1.2394,12.8262-.977,18.8979,.0992,2.7851,.4936,5.5437,1.1525,8.2335,2.0305,2.6583,.8677,4.6789,1.7134,7.1594,3.0764,4.7311,2.5997,8.7997,6.1155,11.9089,10.5218,3.9059,5.5352,6.5538,11.9106,9.2065,18.1072,3.0535,7.1328,6.1208,14.3315,10.7143,20.6381,4.6244,6.349,10.3327,11.6779,16.802,16.1143,1.3578,.9311,3.3806,.2546,4.1688-1.0931,.8826-1.509,.2678-3.2356-1.0931-4.1688Z"/></g><path d="M898.7638,677.3608c-.9665,.1162-1.5869-.1288-2.1254-1.002-.5713-.9263-.6211-1.6019-.1987-2.7187,.9247-2.445,3.6107-4.0745,6.1433-4.4825,.9211-.1484,2.2904-.0617,3.2008,.3517,.4314,.1959,.8219,.499,1.1828,.8723-.374-.3867,.1117,.1693,.1755,.2789,.0897,.1544,.3151,.7708,.1559,.2838,.0877,.2682,.1527,.5376,.2243,.8097,.0648,.3603,.0684,.3681,.0108,.0236,.0122,.1398,.0187,.2799,.0193,.4202-.0073,.1442-.0957,1.1071,.0174,.4376-.0459,.2714-.1317,.531-.1905,.7987-.1405,.64,.2445-.2797-.1054,.2607-.062,.0957-.5343,.712-.116,.246-.1447,.1612-.5793,.5149-.1542,.2182-.1446,.1004-.2952,.1908-.4518,.2712,.3199-.1222,.3092-.1257-.0323-.0104,1.2857,.9794,2.5713,1.9588,3.857,2.9381,.0354-4.5939,3.4042-9.021,8.0527-10.104,1.99-.4637,4.6254-.1145,6.5117,.8355,2.3138,1.1653,3.8817,2.6623,5.0247,4.9513,.735,1.4719,2.8153,1.8848,4.1688,1.0931,1.4988-.8767,1.8309-2.6914,1.0931-4.1688-3.298-6.6048-11.2575-10.2467-18.4183-8.5873-7.2029,1.6691-12.4704,8.6825-12.5266,15.9803-.0148,1.9228,1.9668,3.5343,3.857,2.9381,3.4838-1.0988,5.5018-4.3754,5.5093-7.9582,.0078-3.7034-2.1152-6.9493-5.5141-8.4052-7.4063-3.1724-17.5616,2.3622-18.0201,10.6568-.2527,4.5719,3.8432,9.4434,8.649,8.8654,1.6336-.1965,3.047-1.2598,3.047-3.047,0-1.4942-1.4021-3.2448-3.047-3.047h0Z"/><path d="M236.5775,870.7719c3.731,5.9647,11.4528,8.6434,18.1667,6.7011,6.9504-2.0108,11.209-8.9898,10.5264-16.0993-.3812-3.9706-1.9802-7.8091-5.045-10.459-1.6188-1.3997-3.5461-1.0141-4.7855,.6167-2.31,3.0395-1.7347,7.4663,.4119,10.4225,2.6049,3.5873,6.7896,5.0742,11.1052,4.0136,4.1475-1.0193,7.7037-4.2718,9.5873-8.0379,2.1717-4.3421,2.6691-9.1458,3.089-13.9153,.1445-1.6414-1.5038-3.047-3.047-3.047-1.7684,0-2.9021,1.4008-3.047,3.047-.4995,5.6742-1.252,13.1624-7.0175,15.6988-1.0151,.4466-2.2304,.6437-3.1436,.478-.1207-.0219-.8502-.2331-.6465-.1561,.2,.0756-.4731-.2527-.5843-.3122-.1311-.0763-.2587-.1582-.3827-.2458,.1706,.142,.1762,.1451,.0167,.0092-.2347-.1971-.4449-.4167-.6561-.6379-.2972-.3112-.3761-.4458-.7329-1.1302-.0921-.1932-.0925-.179-.0013,.0425-.055-.1386-.1042-.2791-.1476-.4217-.0286-.1008-.233-.9047-.1792-.5955,.0534,.3066-.0201-.494-.0251-.6013-.0007-.1429,.0059-.2856,.0198-.4279-.0421,.2928-.0405,.3291,.0047,.1089,.0294-.1393,.0668-.2765,.112-.4116-.1196,.2379-.1306,.2596-.0331,.0652,.1523-.3136,.3487-.593,.559-.8697l-4.7855,.6167c.3226,.279,.6349,.5658,.9273,.8768,.4132,.4396,.3003,.299,.5211,.6096,.2437,.3427,.4652,.7023,.6688,1.0701,.0554,.1001,.5285,1.089,.3672,.7007,.677,1.6292,.8324,2.6923,.8402,4.1696,.0151,2.8391-.9365,5.5243-3.2224,7.4711-1.7759,1.5125-5.0909,2.2017-7.3331,1.7829-1.7132-.32-2.6565-.6291-3.9633-1.4095-1.2301-.7346-2.1588-1.6414-2.8828-2.7988-2.0751-3.3175-7.3498-.262-5.2619,3.0757h0Z"/><path d="M690.9367,322.5597c.8025-.0258,1.6017,.0144,2.3978,.1189l-.54-.0726c.7942,.1114,1.578,.2826,2.3434,.5226,.3625,.1137,.7181,.2449,1.0715,.3841,.4058,.1598-.3094-.1427-.0776-.0321,.0951,.0453,.1925,.0862,.2879,.131,.1909,.0896,.3793,.1843,.5663,.2817,.9419,.4902,2.2497,.2735,2.7792-.7287,.4934-.9339,.2777-2.2554-.7287-2.7792-2.4931-1.2976-5.2844-1.9787-8.0998-1.8882-1.0609,.0341-2.0815,.9099-2.0313,2.0313,.048,1.0714,.8936,2.0679,2.0313,2.0313h0Z"/><path d="M691.1423,331.0405c.144-.0235,.2882-.0452,.4327-.0651l-.54,.0726c1.2753-.1683,2.5638-.1705,3.8397-.0063l-.54-.0726c.0868,.0117,.1734,.0239,.26,.0367,.27,.0847,.54,.0967,.81,.0363,.2703-.0123,.5221-.0926,.7552-.2411,.4214-.2466,.8232-.7297,.9335-1.214,.1184-.52,.0928-1.1037-.2048-1.5652-.2663-.4131-.7046-.8585-1.214-.9335-.9328-.1373-1.8638-.2405-2.8076-.2329-.9409,.0075-1.8769,.1165-2.8048,.2677-.4716,.0768-.9829,.5386-1.214,.9335-.2548,.4354-.3627,1.0771-.2048,1.5652,.1591,.4915,.4637,.9657,.9335,1.214l.4852,.2048c.36,.0967,.72,.0967,1.08,0h0Z"/><path d="M687.0755,357.9624c1.7975,.0893,3.5638-.381,5.251-.9528,.8083-.274,1.6135-.5574,2.42-.8368,.4214-.146,.8429-.2919,1.2643-.4379,.1849-.064,.3687-.1335,.5559-.1907l.1709-.0514c.2378-.0534,.2307-.0572-.0213-.0115-.3054-.1214-.6833-.1686-.8695-.4962-.2222-.3908-.0377-.1019,.0053,.0638,.036,.1386,.0926,.3124,.0901,.4581,.0089-.5085-.0133-.0297-.0067,.0959,.0185,.3496-.0062,.6892-.028,1.0374-.0167,.154-.0102,.1061,.0196-.1437-.0127,.079-.0273,.1577-.0436,.236-.0368,.1832-.0805,.3648-.1319,.5445-.0441,.1542-.1013,.304-.1479,.4571-.1233,.405,.1644-.3063-.0404,.1065-.1426,.2874-.2914,.5693-.4665,.8387-.0998,.1537-.2724,.3786-.0562,.1075-.0996,.1249-.2035,.2465-.3119,.3639-.2543,.2754-.5321,.5221-.8279,.7518-.8433,.6551-.7395,2.1939,0,2.8727,.8943,.821,1.9729,.6989,2.8727,0,1.4401-1.1186,2.4804-2.8149,2.9379-4.5728,.4638-1.7819,.5712-4.3368-.7525-5.799-1.7262-1.9068-4.3927-.46-6.362,.2221-.959,.3322-1.9154,.6817-2.8953,.9485-.4522,.1231-.9102,.2296-1.3735,.3019,.3943-.0615-.3755,.0268-.4523,.0302-.2673,.0118-.5331,.0066-.8001-.0067-1.0629-.0528-2.0788,.9721-2.0313,2.0313,.0513,1.1457,.8927,1.9747,2.0313,2.0313h0Z"/><path d="M692.5969,357.5028c.2062,.1325,.4065,.2731,.6012,.422l-.4111-.3176c.5656,.4392,1.0723,.9452,1.5128,1.5098l-.3176-.4111c.2866,.3728,.5418,.7666,.7643,1.1808,.335,.6238,1.0585,1.0061,1.754,1.0061,.3667-.0011,.7084-.0936,1.0252-.2773,.3052-.1806,.5482-.4235,.7287-.7287,.4351-.6084,.7532-1.3275,.949-2.0472,.1974-.7254,.2897-1.5128,.2223-2.2637-.0492-.5489-.1935-1.0349-.595-1.4364-.3523-.3523-.9304-.6176-1.4364-.595-.5253,.0235-1.0702,.1961-1.4364,.595-.3457,.3766-.6425,.9063-.595,1.4364,.0322,.3583,.0252,.7159-.0191,1.0729l.0726-.54c-.0605,.4407-.1767,.8675-.3478,1.2782l.2048-.4852c-.1427,.3302-.3178,.642-.5271,.9347h3.508c-.842-1.5678-2.1144-2.8824-3.607-3.8414-.4324-.2778-1.0782-.3389-1.5652-.2048-.4712,.1298-.9818,.4941-1.214,.9335-.2491,.4714-.3739,1.0425-.2048,1.5652,.167,.516,.473,.9181,.9335,1.214h0Z"/><path d="M33.6101,198.6131c22.267,10.127,44.5401,20.2405,66.8194,30.3401,22.1758,10.0527,44.3577,20.0917,66.5457,30.1172,22.2917,10.0723,44.5897,20.1309,66.8938,30.1757s44.6145,20.0759,66.931,30.0932c22.2127,9.9707,44.4315,19.9279,66.6565,29.8713,2.8041,1.2546,5.6083,2.5089,8.4125,3.763,1.5011,.6713,3.2753,.4346,4.1688-1.0931,.761-1.301,.4166-3.4937-1.0931-4.1688-22.3303-9.9866-44.6545-19.9868-66.9725-30.0008-22.2142-9.9674-44.4223-19.9485-66.6242-29.9432-22.3057-10.0414-44.6052-20.0965-66.8985-30.1654-22.2933-10.0689-44.5804-20.1515-66.8613-30.2478-22.1772-10.0494-44.3483-20.1123-66.5132-30.1889-2.7965-1.2713-5.5929-2.5429-8.3892-3.8147-1.4969-.6808-3.2789-.4283-4.1688,1.0931-.7652,1.3083-.4121,3.4843,1.0931,4.1688h0Z" style="fill:#6966ed;"/><path d="M80.4005,262.9735c18.1161,12.8505,36.2321,25.7011,54.3482,38.5516,18.1161,12.8505,36.2321,25.7011,54.3482,38.5516,10.1776,7.2194,20.3551,14.4388,30.5327,21.6582,1.343,.9526,3.3898,.2388,4.1688-1.0931,.8933-1.5272,.253-3.214-1.0931-4.1688-18.1161-12.8505-36.2321-25.7011-54.3482-38.5516-18.1161-12.8505-36.2321-25.7011-54.3482-38.5516-10.1776-7.2194-20.3551-14.4388-30.5327-21.6582-1.343-.9526-3.3898-.2388-4.1688,1.0931-.8933,1.5272-.253,3.214,1.0931,4.1688h0Z" style="fill:#6966ed;"/><path d="M734.4675,104.3288c3.8282-2.7345,7.6565-5.4689,11.4847-8.2034,.6609-.4721,1.1777-1.0126,1.4003-1.821,.2008-.7294,.1102-1.7006-.3072-2.3479-.8275-1.2835-2.7817-2.0839-4.1688-1.0931-3.8282,2.7345-7.6565,5.4689-11.4847,8.2034-.6609,.4721-1.1777,1.0126-1.4003,1.821-.2008,.7294-.1102,1.7006,.3072,2.3479,.8275,1.2835,2.7817,2.0839,4.1688,1.0931h0Z" style="fill:#6966ed;"/><path d="M750.977,144.1209c3.2813,0,6.5627,0,9.844,0,1.5938,0,3.1207-1.4015,3.047-3.047-.0739-1.6509-1.3388-3.047-3.047-3.047-3.2813,0-6.5627,0-9.844,0-1.5938,0-3.1207,1.4015-3.047,3.047,.0739,1.6509,1.3388,3.047,3.047,3.047h0Z" style="fill:#6966ed;"/><path d="M702.0655,56.5791c-2.1841,7.1106-4.3681,14.2213-6.5522,21.3319-.483,1.5726,.5749,3.3214,2.1281,3.7481,1.6303,.448,3.2632-.5494,3.7481-2.1281,2.1841-7.1106,4.3681-14.2213,6.5522-21.3319,.483-1.5726-.5749-3.3214-2.1281-3.7481-1.6303-.448-3.2632,.5494-3.7481,2.1281h0Z" style="fill:#6966ed;"/></svg>