<?xml version="1.0" encoding="UTF-8"?><svg id="Layer_2" xmlns="http://www.w3.org/2000/svg" width="1000" height="1000" viewBox="0 0 1000 1000"><g><g><path d="M432.7644,146.5835l-10.0071,109.3573c-.7704,8.4189,4.9428,16.0596,13.2359,17.7014h0c8.2931,1.6418,16.4866-3.2457,18.982-11.323l32.4148-104.9211c2.8922-9.3616-2.9572-19.1677-12.5689-21.0705l-22.4078-4.4362c-9.6116-1.9029-18.7562,4.9348-19.649,14.6922Z" style="fill:#f4d13b;"/><circle cx="428.5226" cy="311.3774" r="23.2595" style="fill:#f4d13b;"/></g><g><polygon points="351.9193 748.4679 446.4148 596.6158 540.9103 748.4679 351.9193 748.4679" style="fill:#f4d13b;"/><path d="M436.5951,644.9996l4.3341,58.706h10.165l4.3341-58.706c.4041-5.4738-3.9279-10.1374-9.4166-10.1374h0c-5.4887,0-9.8207,4.6637-9.4166,10.1374Z" style="fill:#fff;"/><circle cx="446.0117" cy="722.1205" r="10.4823" style="fill:#fff;"/></g><rect x="265.2868" y="574.0964" width="40.1508" height="248.161" transform="translate(-107.1794 54.1322) rotate(-9.131)" style="fill:#f953b2;"/><path d="M294.3794,627.2129l-8.8868-54.73-39.642,6.3716,3.7664,21.7276s37.3964,3.3997,44.7624,26.6308Z" style="fill:#6966ed;"/><path d="M591.7956,318.2188c1.1341,1.5193,1.7916,2.977,.9002,4.8029-.7488,1.5339-2.1026,2.7569-3.476,3.7325-2.8745,2.0421-6.1792,3.3714-9.0888,5.358-2.7342,1.8668-5.5212,4.5491-5.1369,8.1655,.4354,4.0976,4.5377,5.1699,8.0015,5.6669,4.5735,.6562,9.2375,.1804,13.5693-1.4378,2.0311-.7588,1.1518-4.0462-.9038-3.2782-4.5379,1.6953-9.4755,2.1227-14.2032,.9759-1.8648-.4523-3.7217-1.3028-2.9343-3.5697,.6247-1.7988,2.4438-3.0369,3.975-4.0172,3.4617-2.2162,7.3576-3.7314,10.4429-6.5145,1.6146-1.4564,3.0381-3.3429,3.472-5.5152,.4497-2.2519-.3476-4.2971-1.6822-6.085-1.2936-1.733-4.2462-.04-2.9355,1.7159h0Z"/><path d="M440.2654,556.9155l-25.5249-158.8069c-6.0416-37.5885-41.4107-63.1623-78.9993-57.1208h-.0001c-.0798,.0129-.1585,.0284-.2382,.0414-37.4577,6.1529-62.9113,41.4492-56.8825,78.9578l25.5249,158.8069,67.8213-10.9009h0l68.2989-10.9776Z" style="fill:#f953b2;"/><g><rect x="332.3441" y="449.8755" width="144.4861" height="91.7912" transform="translate(-66.4988 62.6917) rotate(-8.1899)" style="fill:#f4d13b;"/><path d="M325.256,462.8366c2.588,1.2402,5.176,2.4804,7.764,3.7206,6.2153,2.9784,12.4305,5.9568,18.6458,8.9352,7.5198,3.6035,15.0395,7.2071,22.5593,10.8106,6.5014,3.1155,13.0028,6.231,19.5042,9.3466,3.1588,1.5137,6.2996,3.0751,9.4801,4.5429,.0448,.0207,.0889,.0426,.1334,.0639,1.0887,.5217,2.1832,.405,3.0899-.3987,6.9435-6.1549,13.887-12.3099,20.8304-18.4648,11.0755-9.8176,22.1509-19.6353,33.2264-29.4529,2.5533-2.2633,5.1065-4.5266,7.6598-6.7899,1.031-.9139,.9325-2.6734,0-3.6059-1.024-1.024-2.5723-.9162-3.6059,0-6.9435,6.1549-13.887,12.3099-20.8304,18.4648-11.0755,9.8176-22.1509,19.6353-33.2264,29.4529-2.5533,2.2633-5.1065,4.5266-7.6598,6.7899,1.03-.1329,2.0599-.2658,3.0899-.3987-2.588-1.2402-5.176-2.4804-7.764-3.7206-6.2153-2.9784-12.4305-5.9568-18.6458-8.9352-7.5198-3.6035-15.0395-7.2071-22.5593-10.8106l-19.5042-9.3466c-3.1588-1.5137-6.2996-3.075-9.4801-4.5429-.0448-.0207-.0889-.0426-.1334-.0639-1.2411-.5948-2.7536-.3418-3.4885,.9147-.6516,1.1141-.3324,2.8909,.9147,3.4885h0Z" style="fill:#f953b2;"/><path d="M341.4219,553.293c5.4049-6.9385,10.8097-13.877,16.2146-20.8154,8.6135-11.0576,17.227-22.1152,25.8406-33.1727,1.9754-2.5359,3.9508-5.0718,5.9261-7.6076,.8454-1.0852,1.0582-2.5477,0-3.6059-.8806-.8806-2.7549-1.0925-3.6059,0-5.4049,6.9385-10.8097,13.877-16.2146,20.8154-8.6135,11.0576-17.227,22.1152-25.8406,33.1727-1.9754,2.5359-3.9508,5.0718-5.9261,7.6076-.8454,1.0852-1.0582,2.5477,0,3.6059,.8806,.8806,2.7549,1.0925,3.6059,0h0Z" style="fill:#f953b2;"/><path d="M480.0986,526.1374c-6.6879-4.8427-13.3759-9.6854-20.0638-14.528-10.6638-7.7216-21.3276-15.4431-31.9914-23.1647-2.453-1.7762-4.9059-3.5523-7.3589-5.3285-1.1161-.8081-2.8414-.1917-3.4885,.9147-.753,1.2874-.2039,2.6785,.9147,3.4885,6.6879,4.8427,13.3759,9.6854,20.0638,14.528,10.6638,7.7216,21.3276,15.4431,31.9914,23.1647,2.453,1.7762,4.9059,3.5523,7.3589,5.3285,1.1161,.8081,2.8414,.1917,3.4885-.9147,.753-1.2874,.2039-2.6785-.9147-3.4885h0Z" style="fill:#f953b2;"/></g><g><rect x="279.0826" y="384.7151" width="144.4861" height="91.7912" transform="translate(-57.7596 54.4397) rotate(-8.1899)" style="fill:#6966ed;"/><path d="M271.9944,397.6762c2.588,1.2402,5.176,2.4804,7.764,3.7206,6.2153,2.9784,12.4305,5.9568,18.6458,8.9352l22.5593,10.8106c6.5014,3.1155,13.0028,6.231,19.5042,9.3466,3.1588,1.5137,6.2996,3.0751,9.4801,4.5429,.0448,.0207,.0889,.0426,.1334,.0639,1.0852,.52,2.187,.4079,3.0899-.3987,2.1484-1.9193,4.2969-3.8387,6.4453-5.758,5.161-4.6107,10.322-9.2213,15.483-13.832,6.247-5.5809,12.494-11.1618,18.741-16.7426l16.2196-14.49c2.6249-2.345,5.4262-4.5865,7.9185-7.0742,.0372-.0372,.0791-.0706,.1183-.1057,2.4525-2.191-1.1641-5.7873-3.6059-3.6059-2.1484,1.9193-4.2969,3.8387-6.4453,5.758-5.161,4.6107-10.322,9.2213-15.483,13.832-6.247,5.5809-12.494,11.1618-18.741,16.7426l-16.2196,14.49c-1.786,1.5956-3.5721,3.1912-5.3581,4.7868-.8427,.7529-1.7828,1.466-2.5604,2.2874-.0359,.038-.0793,.0708-.1183,.1057,1.03-.1329,2.0599-.2658,3.0899-.3987-2.588-1.2402-5.176-2.4804-7.764-3.7206-6.2153-2.9784-12.4305-5.9568-18.6458-8.9352-7.5198-3.6035-15.0395-7.2071-22.5593-10.8106-6.5014-3.1155-13.0028-6.231-19.5042-9.3466-3.1588-1.5137-6.2996-3.075-9.4801-4.5429-.0448-.0207-.0889-.0426-.1334-.0639-1.2411-.5948-2.7536-.3418-3.4885,.9147-.6516,1.1141-.3324,2.8909,.9147,3.4885h0Z" style="fill:#f4d13b;"/><path d="M288.1604,488.1325c5.4049-6.9385,10.8097-13.877,16.2146-20.8154,8.6135-11.0576,17.227-22.1152,25.8406-33.1727,1.9754-2.5359,3.9508-5.0718,5.9261-7.6076,.8454-1.0852,1.0582-2.5477,0-3.6059-.8806-.8806-2.7549-1.0925-3.6059,0-5.4049,6.9385-10.8097,13.877-16.2146,20.8154-8.6135,11.0576-17.227,22.1152-25.8406,33.1727-1.9754,2.5359-3.9508,5.0718-5.9261,7.6076-.8454,1.0852-1.0582,2.5477,0,3.6059,.8806,.8806,2.7549,1.0925,3.6059,0h0Z" style="fill:#f4d13b;"/><path d="M430.8033,463.8101c-7.1787-5.1936-14.3573-10.3872-21.536-15.5808-11.3489-8.2107-22.6979-16.4214-34.0468-24.6321-2.5992-1.8805-5.1984-3.7609-7.7976-5.6414-1.1164-.8077-2.8412-.1921-3.4885,.9147-.7528,1.287-.2043,2.679,.9147,3.4885,7.1787,5.1936,14.3573,10.3872,21.536,15.5808,11.3489,8.2107,22.6979,16.4214,34.0468,24.6321,2.5992,1.8805,5.1984,3.7609,7.7976,5.6414,1.1164,.8077,2.8412,.1921,3.4885-.9147,.7528-1.287,.2043-2.679-.9147-3.4885h0Z" style="fill:#f4d13b;"/></g><g><rect x="248.4855" y="462.3411" width="144.4861" height="91.7912" transform="translate(-69.8513 51.4888) rotate(-8.2804)" style="fill:#fff;"/><path d="M241.3419,475.4255c2.59,1.2361,5.1799,2.4722,7.7699,3.7083,6.22,2.9686,12.4399,5.9372,18.6599,8.9058,7.5254,3.5917,15.0509,7.1833,22.5763,10.775,6.5063,3.1053,13.0126,6.2105,19.5189,9.3158,3.1613,1.5088,6.3051,3.0636,9.4873,4.528,.0448,.0206,.089,.0425,.1335,.0637,1.0868,.5187,2.1855,.4084,3.0899-.3987,2.147-1.916,4.294-3.8321,6.4411-5.7481,5.19-4.6316,10.3799-9.2632,15.5699-13.8947l18.76-16.7417c5.4366-4.8517,10.8732-9.7034,16.3098-14.5551,2.6231-2.3409,5.4233-4.5783,7.9137-7.0623,.0372-.0371,.079-.0705,.1182-.1055,2.4536-2.1897-1.163-5.7859-3.6059-3.6059-2.147,1.916-4.294,3.8321-6.4411,5.7481-5.19,4.6316-10.3799,9.2632-15.5699,13.8947-6.2533,5.5806-12.5067,11.1611-18.76,16.7417-5.4366,4.8517-10.8732,9.7034-16.3098,14.5551-1.7851,1.593-3.5702,3.1861-5.3552,4.7791-.8418,.7512-1.7814,1.4635-2.5585,2.2832-.0359,.0379-.0792,.0707-.1182,.1055,1.03-.1329,2.0599-.2658,3.0899-.3987-2.59-1.2361-5.1799-2.4722-7.7699-3.7083l-18.6599-8.9058c-7.5254-3.5917-15.0509-7.1833-22.5763-10.775-6.5063-3.1053-13.0126-6.2105-19.5189-9.3158-3.1613-1.5088-6.3051-3.0635-9.4873-4.528-.0448-.0206-.089-.0425-.1335-.0637-1.2421-.5928-2.7528-.3431-3.4885,.9147-.6507,1.1126-.3334,2.8928,.9147,3.4885h0Z" style="fill:#6966ed;"/><path d="M257.6513,565.8611c5.3939-6.947,10.7878-13.894,16.1817-20.841,8.5961-11.0712,17.1921-22.1423,25.7882-33.2135,1.9714-2.539,3.9427-5.078,5.9141-7.617,.8436-1.0866,1.0593-2.5466,0-3.6059-.8794-.8794-2.7565-1.0939-3.6059,0-5.3939,6.947-10.7878,13.894-16.1817,20.841-8.5961,11.0712-17.1921,22.1423-25.7882,33.2135-1.9714,2.539-3.9427,5.078-5.9141,7.617-.8436,1.0866-1.0593,2.5466,0,3.6059,.8794,.8794,2.7565,1.0939,3.6059,0h0Z" style="fill:#6966ed;"/><path d="M400.2063,540.8693c-7.1665-5.122-14.3331-10.2441-21.4996-15.3661-11.3455-8.1089-22.6911-16.2177-34.0366-24.3266-2.6202-1.8727-5.2405-3.7455-7.8607-5.6182-1.121-.8012-2.8384-.1969-3.4885,.9147-.7495,1.2814-.2089,2.6855,.9147,3.4885,7.1665,5.122,14.3331,10.2441,21.4996,15.3661,11.3455,8.1089,22.6911,16.2177,34.0366,24.3266,2.6202,1.8727,5.2405,3.7455,7.8607,5.6182,1.121,.8012,2.8384,.1969,3.4885-.9147,.7495-1.2814,.2089-2.6855-.9147-3.4885h0Z" style="fill:#6966ed;"/></g><path d="M335.5029,341.0292l-.0005-.003-173.6128,27.9047h-.0001c-37.5885,6.0416-63.1624,41.4107-57.1208,78.9993l25.5249,158.8069,136.1201-21.8785,37.7316-6.0646-25.5249-158.8069c-6.0287-37.5086,19.4249-72.8049,56.8825-78.9578Z" style="fill:#f4d13b;"/><path d="M233.35,481.882c-3.392-7.7392-10.1757-12.8335-17.7779-14.4134l-70.1909-143.7915h0c-5.7427-11.7643-19.9348-16.6458-31.6991-10.9031l-88.6821,43.2896,24.1912,49.5577,82.5961-40.3188,56.3976,115.535c-3.2881,6.6759-3.5685,14.7446-.0515,21.9497,6.0502,12.3943,21.0238,17.5197,33.4057,11.4156,11.8651-5.8494,17.1211-20.2047,11.8107-32.3207Z" style="fill:#6966ed;"/><path d="M353.1911,576.5052c5.6361,29.613,10.1776,59.527,18.6361,88.5152,4.1481,14.2161,9.3097,28.1005,15.5715,41.5228,5.4905,11.7688,11.8232,23.1941,19.4848,33.698,7.7387,10.6094,16.7743,20.2143,27.4056,27.9682,10.9484,7.9852,23.5427,13.5209,36.7999,16.3119,13.6097,2.8653,27.7138,2.969,41.3859,.4603,9.8252-1.8028,18.4363-7.0254,27.0213-11.8795,4.5655-2.5814,9.153-5.1539,13.9468-7.2931,4.0281-1.7976,8.6857-3.3981,12.8285-3.7146,4.1707-.3186,7.8563,.4253,11.346,2.7787,3.2976,2.2238,5.8331,5.4101,7.5657,8.9313,.1035,.2103,.2019,.4228,.2997,.6358,.3088,.6728-.1076-.2815,.0579,.1283,.1528,.3785,.2944,.7614,.4229,1.1488,.2447,.7383,.4435,1.4919,.5895,2.2559,.0384,.201,.0715,.4026,.1043,.6046,.1102,.6769-.0472-.5563,.0121,.1205,.0287,.3281,.0586,.6554,.0729,.9847,.032,.7377-.0018,1.4683-.0562,2.2039-.0116,.1561-.0325,.3118-.051,.4672,.0845-.7103,.0081-.0748-.0184,.0599-.0593,.3023-.1131,.6046-.1827,.905-.1649,.7116-.3884,1.4005-.6325,2.0883-.0401,.1131-.0874,.2239-.1303,.3359-.2223,.5806,.2411-.5092-.0235,.0517-.1271,.2694-.2507,.5394-.3864,.8047-.3223,.6301-.6823,1.2409-1.0753,1.8295-.1624,.2432-.3344,.479-.5035,.7174-.4192,.5911,.2292-.2331-.2437,.3081-.454,.5196-.9008,1.0369-1.3934,1.5214-.4016,.3951-.8243,.7639-1.2515,1.1307-.1262,.1083-.2585,.2097-.3883,.3136,.5579-.4469,.1097-.0823-.0094,.0005-.2673,.1861-.5295,.3782-.8019,.5571-.4641,.3048-.9415,.5892-1.4318,.8499-.2498,.1328-.5045,.2543-.7581,.3795-.7882,.389,.2442-.0551-.3572,.1575-.4999,.1767-.9925,.3569-1.5065,.4911-.2234,.0583-.4485,.1065-.6739,.1561-.1289,.0284-.2743,.0333-.3996,.0729-.4306,.1362,.6297-.0409,.1517-.0185-.4695,.022-.9273,.0513-1.3981,.0506-.2591-.0004-.9164-.1792-.0476,.0238-.2292-.0536-.4647-.078-.6937-.1364-.224-.0571-.4369-.1424-.6578-.2072-.2482-.0728,.5731,.3496-.0086-.0226-.1529-.0978-.3201-.2044-.481-.2896-.4678-.2477,.3735,.4341-.1008-.0951-.1527-.1704-.3147-.3404-.4717-.5071,.5616,.5965,.1158,.1668-.0159-.0702-.1009-.1817-.1942-.3711-.2988-.5503-.2458-.4209,.1994,.6024,.0503,.1278-.0477-.1518-.1085-.2996-.156-.4518-.079-.2532-.1343-.5101-.1971-.7673-.03-.1229-.0412-.2498-.0688-.373-.0786-.3503,.0528,.683,.0163,.1311-.0468-.7055-.0849-1.3957-.0481-2.1039,.0171-.3287,.0487-.6557,.0805-.9832,.0672-.6931-.0941,.5539,.0184-.1548,.0229-.1441,.0454-.2881,.0702-.4319,.1632-.9486,.3864-1.8865,.6473-2.8127,.5674-2.014,1.3159-3.9789,2.1651-5.8817,2.9844-6.6868,5.9391-13.3862,8.6233-20.2007,5.2536-13.3375,9.4595-27.1341,10.972-41.4356,1.5425-14.5851-.1112-29.4288-5.0353-43.2575-4.9427-13.8809-13.3645-26.0958-19.3872-39.4783-5.3922-11.9815-9.0919-24.823-10.8261-37.8501-3.3586-25.2291,.7499-51.4615,12.8056-73.9701,2.9386-5.4865,6.3218-10.7228,10.0907-15.6749,.8346-1.0966,.1719-2.853-.9147-3.4885-1.3103-.7664-2.6519-.1846-3.4885,.9147-15.8878,20.8755-24.2701,46.7361-24.7014,72.8959-.2209,13.399,1.6204,26.8642,5.2866,39.7489,1.9035,6.6898,4.3209,13.2229,7.1544,19.5736,2.9932,6.7087,6.5911,13.1095,10.0858,19.5635,3.5212,6.5028,6.9146,13.0958,9.3212,20.105,2.4638,7.1757,4.12,14.6395,4.755,22.2036,1.2034,14.3355-1.093,28.5852-5.2378,42.2927-2.1152,6.9951-4.6751,13.8488-7.4498,20.6069-2.584,6.2938-5.6866,12.4078-8.0765,18.775-1.9092,5.0864-4.0078,13.1516,.8813,17.3352,3.9008,3.3379,9.5975,1.9789,13.6085-.4139,4.8277-2.88,8.6855-7.7765,9.902-13.3112,1.6446-7.4819-1.5895-14.6088-6.6128-20.0581-3.2316-3.5056-7.3914-6.1858-12.1231-7.0763-4.6589-.8769-9.4166-.28-13.9309,1.0554-10.1106,2.9909-19.1457,8.888-28.3035,13.9386-4.2073,2.3204-8.457,4.5944-12.936,6.1273-5.6075,1.9191-11.7376,2.5842-17.6223,2.9762-13.8036,.9195-27.7364-.9071-40.7446-5.6583-12.5022-4.5664-23.6861-12.0664-33.231-21.2865-9.4496-9.128-17.2593-19.7806-23.9116-31.0794-6.9204-11.7542-12.7353-24.2096-17.5997-36.9467-10.9455-28.6602-16.6569-58.8832-22.1377-88.9621-1.3596-7.4617-2.7125-14.9247-4.1306-22.3755-.2576-1.3535-1.8857-2.1246-3.1365-1.7808-1.4175,.3896-2.0392,1.7791-1.7808,3.1365h0Z"/><path d="M370.3054,332.2912c-1.0467,9.9787-1.465,20.2398-3.177,30.1234-2.1671,12.5113-20.1582,14.2288-23.7067,1.6312-1.3585-4.823-.8829-10.6132-1.1658-15.5585-.3392-5.9313-.6784-11.8625-1.0176-17.7938-.1038-1.8149-2.1255-3.3279-3.8367-2.2016-24.5268,16.1437-49.0535,32.2874-73.5803,48.4311-1.2286,.8087-2.4364,1.6776-3.6983,2.4343-8.3665,5.0165-18.099-2.2169-14.942-11.7588,.6853-2.0713-1.9118-4.0865-3.7456-2.8795-3.8105,2.5081-7.5905,5.0703-11.4347,7.5264-8.6398,5.5201-19.0492-2.1-15.1738-12.0367,.8086-2.0733-1.9747-4.0451-3.7456-2.8795-1.9794,1.3029-3.9205,2.7028-5.9539,3.9189-5.2083,3.1148-12.1506,1.8859-14.7757-4.0079-2.5278-5.6752,.7658-10.4119,5.332-13.4175,8.8515-5.8261,17.7029-11.6522,26.5544-17.4783,11.661-7.6754,23.322-15.3507,34.983-23.0261,7.472-4.9181,14.7123-9.8336,22.6878-13.9128,30.2035-15.4479,65.2373-23.7875,98.3574-13.0325,23.2113,7.5374,42.6112,23.4903,57.5876,42.4366,9.1252,11.5441,16.953,24.4219,22.7591,37.9604,.3115,.7262-.1651-.4016,.161,.3843,.0866,.2088,.1697,.4191,.2559,.6282,.6013,1.4584,1.2127,2.913,1.7975,4.3783,5.0139,12.5627,8.762,25.5941,11.727,38.7818,6.0241,26.7936,8.743,54.1652,13.0221,81.2582,4.4135,27.9438,9.4667,55.8823,10.9646,84.1793,.3608,6.8165,.5104,13.6457,.3776,20.471-.058,2.9825,.2498,6.5487-.477,9.4667-.4988,2.0026-1.8107,3.1462-4.1365,2.4936-1.9116-.5364-2.6653-3.924-2.8482-5.5874-.5753-5.2319,.4099-10.9631,.949-16.1724,.593-5.7305,1.3755-11.4388,2.3348-17.1193,3.7736-22.3466,9.7461-45.4283,21.8103-64.8487,5.1911-8.3563,11.1648-16.2818,18.6564-22.7195,6.665-5.7274,14.4629-9.9359,22.5259-13.3429,7.4347-3.1415,15.3003-5.2424,22.6491-8.556,5.9387-2.6778,11.6611-6.0052,16.9697-9.7759,7.8068-5.5452,22.0318-17.9555,10.7645-27.35-4.348-3.6253-10.4182-5.3274-15.393-7.9848-5.0569-2.7013-9.9103-5.8336-14.1319-9.7329-10.3985-9.6049-14.9714-22.7387-14.6248-36.7504,.268-10.833,3.0267-21.5021,6.6392-31.6643,4.3111-12.1276,9.9225-23.8334,17.5932-34.2107,12.1222-16.3994,29.4038-29.2321,49.51-33.6382,36.8978-8.0858,75.5679,13.4703,88.5646,48.8275,9.4338,25.6645,8.3249,54.1083,4.3567,80.7182-1.0146,6.8041-2.206,13.5804-3.448,20.3463-.822,4.478-2.7102,9.8267,.1018,13.9547,3.998,5.8692,13.3316,7.354,19.7442,8.5184,8.4508,1.5345,16.994,2.8463,25.4699,4.2323,13.5153,2.21,27.2586,3.2209,40.5325,6.7475,23.1464,6.1495,44.1621,19.5719,61.1779,36.2149,18.0488,17.6534,31.9117,39.2805,43.61,61.5251,12.366,23.5143,22.1723,48.2589,31.1654,73.2267,17.2773,47.9669,36.7139,101.8624,17.4128,152.246-8.5231,22.2486-24.5261,39.4155-46.019,49.6097-19.9439,9.4595-43.899,14.9667-65.9684,11.8172-22.7381-3.2449-44.149-16.5016-60.34-32.3115-17.334-16.9259-30.1998-38.1659-40.0712-60.1535-10.1341-22.5729-17.1161-46.4697-22.7515-70.5193-5.2794-22.5307-7.1726-46.649-19.3088-66.8515-8.0123-13.3376-19.16-23.1689-31.5869-32.1654-10.7433-7.7777-21.4867-15.5554-32.23-23.3331-3.0021-2.1734-6.7454-4.2712-8.7634-7.4717-2.8964-4.5936-2.5877-10.7118,.8864-14.9291,3.8645-4.6913,9.9916-5.6171,15.4216-3.4226,2.501,1.0108,4.0911-2.5707,2.4808-4.2616-10.3972-10.9176,2.9134-27.4222,15.81-19.8379,2.435,1.432,5.3162-2.0548,3.0899-4.0046-9.6846-8.4817-2.9635-24.787,10.2669-22.57,2.8833,.4832,4.3553-2.9247,1.9647-4.6603-6.8414-4.9669-13.6682-9.9537-20.4978-14.9369-6.6226-4.8322-17.359-9.7102-17.5246-19.1057-.1676-9.5108,10.2077-15.9021,18.6543-11.5864,1.5883,.8115,3.043,2.0186,4.481,3.0666,16.0269,11.6805,32.0537,23.361,48.0806,35.0415,7.2942,5.3161,14.5885,10.6322,21.8827,15.9483,1.4335,1.0447,2.916,2.0465,4.3115,3.1423-.9828-.7718,.2734,.2784,.6802,.6591,9.7466,9.12,19.0869,18.6246,28.0529,28.517,41.1326,45.3827,75.9917,97.6339,98.8903,154.5759,20.8358,51.8125,38.2389,119.5624-5.1467,165.1353-17.1793,18.0454-40.3623,29.0639-64.1094,35.6153-28.3842,7.8307-58.2009,9.785-87.5273,8.6843-7.8077-.293-15.6029-.8272-23.3822-1.5501-3.2662-.3035-3.2455,4.7979,0,5.0995,31.7091,2.9466,64.0076,2.7078,95.3539-3.3694,25.9035-5.022,51.6315-14.3461,72.4302-30.9588,19.4111-15.5044,32.5422-37.2785,37.1944-61.6867,6.2568-32.827-1.4887-66.2465-12.085-97.313-21.4719-62.9517-57.7773-120.5499-101.4376-170.4544-10.5605-12.0708-21.5759-23.8287-33.352-34.7293-7.5042-6.9462-16.4962-12.4733-24.7371-18.4793-17.1966-12.533-34.3932-25.0661-51.5899-37.5991-1.1712-.8536-2.3224-1.7481-3.5196-2.5651-6.7247-4.5889-15.7674-4.3189-22.0069,1.0505-5.4479,4.6882-7.6057,12.5136-5.2601,19.3235,2.8768,8.352,12.3724,13.0378,19.0927,17.9413,6.8295,4.9832,13.6564,9.97,20.4978,14.9369,.6549-1.5534,1.3098-3.1069,1.9647-4.6603-8.1961-1.3734-16.3814,2.2412-19.9586,9.9964-3.3759,7.3189-1.2507,15.8588,4.7302,21.0968,1.03-1.3349,2.0599-2.6697,3.0899-4.0046-7.6799-4.5164-17.6391-3.1963-23.333,3.8897-5.8264,7.2509-4.9585,17.3402,1.3433,23.9574l2.4808-4.2616c-9.7791-3.9521-21.116,1.2949-24.0793,11.5372-2.23,7.7078,1.1647,15.2259,7.3915,19.8323,9.9509,7.3614,20.0576,14.5209,30.0837,21.7794,11.832,8.5658,23.6655,16.6969,32.461,28.6645,7.268,9.8892,12.4438,21.1995,15.1597,33.1674,2.7827,12.262,4.881,24.6758,7.7039,36.9359,11.1577,48.4593,28.2599,99.8494,64.7218,135.453,16.6371,16.2454,38.5596,29.8732,61.8518,33.5164,22.4645,3.5137,46.3215-1.5763,66.9544-10.5541,21.9206-9.5382,39.2558-25.7257,49.2206-47.5831,10.3357-22.6708,12.7316-48.0531,9.9106-72.619-3.3182-28.8953-12.9227-56.5548-22.6166-83.8203-9.1933-25.8575-19.1198-51.5473-31.6397-76.0019-22.8405-44.6135-55.8638-87.131-105.5842-102.5893-13.8252-4.2983-28.3283-5.4101-42.5679-7.6096-9.1867-1.419-18.4595-2.9088-27.6087-4.5701-4.261-.7737-8.7249-1.6364-12.679-3.4678-1.3167-.6098-2.9543-1.3863-3.8718-2.5626-1.9969-2.56-.4046-6.522,.1321-9.4373,2.5548-13.8775,4.9239-27.8252,6.0272-41.9048,1.9637-25.0583,.0754-52.8041-12.5708-75.1213-9.2813-16.3791-24.1676-29.0733-41.6325-36.0004-17.3959-6.8997-37.1422-7.6576-54.9488-1.8224-20.4629,6.7057-37.3786,21.6595-48.941,39.5736-7.1378,11.0589-12.4218,23.4498-16.2752,36.0129-3.0053,9.7981-5.0515,20.125-4.7514,30.4162,.4222,14.479,6.1153,27.9324,17.0402,37.5723,4.4642,3.9392,9.4896,7.194,14.7482,9.9648,2.4684,1.3006,4.9895,2.4978,7.5337,3.6421,2.817,1.267,6.3198,2.4339,8.1264,5.1167,3.3002,4.9009-3.3913,10.838-6.6803,13.7001-5.5355,4.8171-11.9973,8.6884-18.5317,11.9887-6.9732,3.522-14.5868,5.5493-21.831,8.4392-8.4837,3.3843-16.7255,7.3497-24.0237,12.8993-16.6244,12.641-27.6821,31.8887-34.7531,51.2135-8.172,22.3335-12.5329,46.3422-14.0361,70.0412-.3227,5.0871-.4787,10.6744,3.3449,14.5936,3.2864,3.3685,8.8654,3.6169,11.8823-.2402,3.1923-4.0814,2.2818-11.2236,2.3492-16.0257,.1028-7.3237-.12-14.6508-.5708-21.9605-1.8023-29.2246-7.177-58.0695-11.6622-86.9596-4.4273-28.5172-7.2522-57.3181-14.3571-85.3545-4.9004-19.3372-11.7601-38.2121-21.92-55.4183-11.5787-19.6091-26.7757-37.5031-45.7012-50.3558-25.3411-17.2096-55.881-22.4926-85.7924-16.5203-18.5214,3.6981-37.4394,11.0054-53.5144,20.9524-7.8667,4.8678-15.4859,10.193-23.2125,15.2787-12.5158,8.238-25.0316,16.476-37.5474,24.714-4.2774,2.8154-8.5548,5.6308-12.8322,8.4462-2.9215,1.923-5.9518,3.6621-7.971,6.6292-5.2869,7.769-1.8775,18.9235,6.9441,22.2771,7.6557,2.9104,13.6507-1.3793,19.7497-5.3937l-3.7456-2.8795c-4.417,11.3255,5.4982,22.6702,17.3001,20.1229,6.0548-1.3069,11.7338-6.5193,16.7996-9.8536l-3.7456-2.8795c-4.5726,13.8203,10.4189,24.849,22.5204,17.4603,4.3627-2.6637,8.5647-5.6374,12.8338-8.4473,16.9665-11.1675,33.933-22.335,50.8995-33.5025,4.486-2.9527,8.972-5.9055,13.458-8.8582l-3.8367-2.2016c.3538,6.1857,.7075,12.3714,1.0613,18.5571,.3452,6.0358-.2577,13.551,2.4487,19.1244,4.8781,10.0457,18.4502,12.7403,26.7983,5.3279,5.8601-5.2033,5.9423-12.6631,6.6948-19.8372,.7543-7.1915,1.5087-14.3831,2.263-21.5746,.342-3.2603-4.7601-3.2362-5.0995,0h0Z"/><path d="M243.8213,369.0562c4.8527-3.5118,9.7053-7.0236,14.558-10.5354,7.7313-5.595,15.4626-11.19,23.1939-16.7851,1.7702-1.2811,3.5404-2.5621,5.3106-3.8432,1.114-.8062,1.658-2.2178,.9147-3.4885-.6434-1.1-2.3669-1.7264-3.4885-.9147-4.8527,3.5118-9.7053,7.0236-14.558,10.5354-7.7313,5.595-15.4626,11.19-23.1939,16.7851-1.7702,1.2811-3.5404,2.5621-5.3106,3.8432-1.114,.8062-1.658,2.2178-.9147,3.4885,.6434,1.1,2.3669,1.7264,3.4885,.9147h0Z"/><path d="M214.924,361.6902c4.8527-3.5118,9.7053-7.0236,14.558-10.5354l23.1939-16.7851c1.7702-1.2811,3.5404-2.5621,5.3106-3.8432,1.114-.8062,1.658-2.2178,.9147-3.4885-.6434-1.1-2.3669-1.7264-3.4885-.9147-4.8527,3.5118-9.7053,7.0236-14.558,10.5354-7.7313,5.595-15.4626,11.19-23.1939,16.7851-1.7702,1.2811-3.5404,2.5621-5.3106,3.8432-1.114,.8062-1.658,2.2178-.9147,3.4885,.6434,1.1,2.3669,1.7264,3.4885,.9147h0Z"/><path d="M684.9049,465.3803c4.2709,2.9323,8.5419,5.8646,12.8128,8.7968,6.8127,4.6773,13.6253,9.3547,20.438,14.032,1.5707,1.0784,3.1415,2.1568,4.7122,3.2353,1.1358,.7798,2.8292,.2126,3.4885-.9147,.7389-1.2633,.2237-2.707-.9147-3.4885-4.2709-2.9323-8.5419-5.8646-12.8128-8.7968-6.8127-4.6773-13.6253-9.3547-20.438-14.032-1.5707-1.0784-3.1415-2.1568-4.7122-3.2353-1.1358-.7798-2.8292-.2126-3.4885,.9147-.7389,1.2633-.2237,2.707,.9147,3.4885h0Z"/><path d="M670.7396,491.4444c4.2709,2.9323,8.5419,5.8646,12.8128,8.7968,6.8127,4.6773,13.6253,9.3547,20.438,14.032,1.5707,1.0784,3.1415,2.1568,4.7122,3.2353,1.1358,.7798,2.8292,.2126,3.4885-.9147,.7389-1.2633,.2237-2.707-.9147-3.4885-4.2709-2.9323-8.5419-5.8646-12.8128-8.7968-6.8127-4.6773-13.6253-9.3547-20.438-14.032-1.5707-1.0784-3.1415-2.1568-4.7122-3.2353-1.1358-.7798-2.8292-.2126-3.4885,.9147-.7389,1.2633-.2237,2.707,.9147,3.4885h0Z"/><path d="M651.4748,514.6755c4.2709,2.9323,8.5419,5.8646,12.8128,8.7968,6.8127,4.6773,13.6253,9.3547,20.438,14.032,1.5707,1.0784,3.1415,2.1568,4.7122,3.2353,1.1358,.7798,2.8292,.2126,3.4885-.9147,.7389-1.2633,.2237-2.707-.9147-3.4885-4.2709-2.9323-8.5419-5.8646-12.8128-8.7968-6.8127-4.6773-13.6253-9.3547-20.438-14.032-1.5707-1.0784-3.1415-2.1568-4.7122-3.2353-1.1358-.7798-2.8292-.2126-3.4885,.9147-.7389,1.2633-.2237,2.707,.9147,3.4885h0Z"/><g><path d="M605.959,285.7132c6.0955,6.8569,14.7773,13.064,23.7455,11.1295,8.6359-1.8629,12.8982-9.771,17.6838-16.2694,2.0208,3.6026,1.7776,7.3227,3.1219,11.0552,1.8213,5.0574,6.321,9.4037,10.1421,13.0041,3.5016,3.2993,7.3549,6.4726,11.9833,7.7857s10.2114,.3258,13.1207-3.506c-.1707,14.8566-.7216,29.7088-1.6518,44.5373-.1976-6.908,2.3504-13.5824,5.1841-19.8855,2.9389-6.5372,6.8773-13.4974,13.6813-15.7505,7.3071-2.4197,15.742,2.0035,19.2959,8.8312,3.5539,6.8275,2.8349,15.2915-.3336,22.3062-2.0318,4.4981-4.9817,8.4864-8.2713,12.1391-1.3391,1.4869-5.1923,4.0138-5.7793,5.8301-.3565,1.1034,.7925,4.4543,.984,5.7805,1.4211,9.84,9.7758,11.7933,19.068,10.0819-5.2238,.9621,.4061,18.79,3.5457,21.0469,7.2529,5.2137,19.7377,.2553,25.4431-4.9452,7.8313-7.1383,11.611-17.5931,14.8168-27.6929,10.4299-32.8595,15.8381-64.5295,.5054-97.1221-12.7893-27.1862-37.3672-48.5725-66.06-57.4818-15.7268-4.8833-32.3549-6.1279-48.8217-6.275-16.4276-.1467-33.4999,.9368-47.9556,8.7421-11.1253,6.0071-24.9033,20.6043-23.0613,34.5755,1.3839,10.4962,12.6516,24.2524,19.6129,32.0833Z"/><path d="M604.156,287.5162c5.2469,5.8573,12.0344,11.1404,20.0658,12.1012,7.3725,.8819,13.8721-2.9344,18.481-8.4107,2.4957-2.9653,4.5988-6.2253,6.8871-9.3465h-4.4033c.9927,1.8499,1.3759,3.8918,1.7593,5.9371,.4033,2.1514,.9072,4.2113,1.8041,6.2168,1.6738,3.7426,4.4997,6.9299,7.3756,9.7987,5.5189,5.5052,12.0753,11.6383,20.3713,11.7049,4.1219,.0331,8.4508-1.4983,11.0623-4.8024-1.4509-.601-2.9018-1.202-4.3527-1.8029-.175,14.8572-.7258,29.7079-1.6518,44.5373h5.0995c-.1138-5.738,1.6742-11.2586,3.9054-16.484,1.8339-4.295,3.839-8.8104,6.9656-12.3398,2.7897-3.1491,6.4006-5.206,10.7016-4.8915,4.0006,.2925,7.8517,2.6853,10.3054,5.791,6.4135,8.1176,3.3218,19.8003-1.8576,27.6288-1.4487,2.1897-3.0817,4.3107-4.8931,6.2147-1.3272,1.395-2.959,2.4682-4.3165,3.8349-1.6711,1.6826-2.407,3.3464-2.0478,5.7119,.2804,1.8464,.7934,3.6818,1.1732,5.5114,.9108,4.3876,3.6708,8.1633,7.8231,9.9555,4.4904,1.9381,9.4795,1.706,14.1979,.8587l-1.3557-4.9174c-5.2154,1.1294-4.1228,8.5608-3.345,12.2742,.5392,2.5742,1.3483,5.0874,2.3677,7.5104,.7805,1.8553,1.6612,3.8934,3.1428,5.3119,2.3701,2.2691,6.1305,3.0993,9.3003,3.1679,3.5718,.0774,7.1887-.7826,10.4825-2.121,7.0787-2.8762,12.4408-7.8203,16.4595-14.2909,4.2611-6.8609,6.7875-14.6769,9.1735-22.3406,2.7051-8.6886,5.1021-17.4872,6.8081-26.4304,3.3342-17.478,3.8788-35.5012-.6728-52.8206-4.1402-15.7541-12.1606-30.349-22.7799-42.6577-9.7669-11.3208-21.87-20.7387-35.2777-27.3628-15.7288-7.7708-32.9226-11.1555-50.3369-12.28-8.916-.5758-17.909-.746-26.8368-.3508-8.6323,.3821-17.3414,1.416-25.6268,3.9516-14.49,4.4344-28.2061,14.3957-34.2184,28.7048-1.4086,3.3524-2.2914,6.957-2.266,10.611,.0234,3.3759,.8845,6.6546,2.1742,9.7547,2.9025,6.977,7.3422,13.1875,12.0253,19.0708,2.0358,2.5575,4.1566,5.0458,6.3266,7.4901,.9146,1.0302,2.6729,.933,3.6059,0,1.0234-1.0234,.917-2.573,0-3.6059-4.4003-4.9565-8.6245-10.0954-12.2474-15.6546-3.3209-5.0957-6.7949-11.0724-6.7848-17.2287,.0108-6.53,3.4428-12.7498,7.5031-17.6664,4.2057-5.0927,9.3626-9.4589,15.2314-12.5126,14.4597-7.5239,31.3655-8.1763,47.3241-7.9703,17.18,.2218,34.5609,1.7296,50.848,7.5467,13.0585,4.664,25.1729,12.0539,35.4376,21.3616,10.3693,9.4025,18.9026,20.7352,24.8881,33.399,7.257,15.3538,10.0676,32.2191,9.0468,49.1177-1.0122,16.756-5.416,33.2143-10.66,49.0938-2.2836,6.915-4.9673,13.9961-9.5527,19.7528-4.014,5.0394-9.3608,8.5086-15.7361,9.9046-2.7295,.5977-5.7789,.7205-8.3295-.307-.7096-.2859-1.3215-.7175-1.9644-1.119,.6592,.4117,.0837-.0076-.1835-.3033,.5051,.5589-.1537-.2652-.2999-.5066-.2587-.427-.4936-.8684-.716-1.3153-.2183-.4388-.4226-.8846-.6165-1.3347-.1613-.3744,.1341,.3307-.0218-.0565-.046-.1141-.0929-.2279-.1375-.3426-.1217-.3135-.2426-.6273-.3579-.9433-.4219-1.1564-.7925-2.332-1.1112-3.5209-.6588-2.4576-1.0143-4.0592-.9684-6.3838,.0041-.2048,.0163-.4089,.0269-.6134,.0067-.1297,.0225-.26,.0353-.3891-.0007,.0071-.0863,.4995-.0262,.2163,.0768-.362,.1802-.7065,.2786-1.0618-.143,.5161-.1877,.1584,.0373,.009,.0903-.0599-.4343,.402-.0173,.0381,.3257-.2843-.4623,.3165-.0985,.0882,.314-.1971-.5991,.1675,.0217,.0331,1.3464-.2916,2.1312-1.8617,1.7808-3.1365-.3926-1.4285-1.7763-2.0251-3.1365-1.7808-2.0254,.3637-4.0984,.5416-6.1762,.4318-1.4532-.0768-3.4155-.4533-4.5938-.9966-.3687-.17-.7276-.3628-1.075-.5727-.1918-.1159-.3802-.2366-.5645-.3641-.4199-.2907-.2191-.1571-.1274-.0847-.6379-.5038-1.3304-1.2656-1.6216-1.7016-1.1166-1.6719-1.4348-3.3885-1.8471-5.4218-.1748-.8621-.4249-1.7083-.6234-2.5651-.0736-.3175-.2294-1.0425-.2415-1.1435,.0363,.3022-.0307-.4757-.022-.4195-.0959-.6221-.0901,.3759-.1063,.3215-.1019-.3415,1.1429-1.3246,1.527-1.6735,.821-.7455,1.6909-1.4341,2.5295-2.1592,1.9703-1.7035,3.5869-3.8678,5.1411-5.9447,1.6445-2.1977,3.1195-4.5287,4.3113-7.0038,4.6081-9.5701,5.1896-22.1997-2.6832-30.2889-3.3587-3.4511-7.8827-5.6775-12.6854-6.0903-4.9546-.4258-9.6983,1.6974-13.2346,5.0775-3.9655,3.7904-6.4661,8.8608-8.638,13.8179-2.7667,6.3145-5.1087,12.9176-4.97,19.9069,.0656,3.3041,4.8961,3.2576,5.0995,0,.9261-14.8293,1.4769-29.6801,1.6518-44.5373,.024-2.0339-2.9351-3.5966-4.3527-1.8029-4.1826,5.292-11.4923,3.3356-16.2751,.0761-2.9051-1.9799-5.4646-4.5026-7.9467-6.9786-2.4968-2.4906-4.9164-5.1743-6.4133-8.4054-.8419-1.8174-1.1665-3.8337-1.5348-5.7871-.4438-2.3541-1.0535-4.6035-2.1935-6.728-.9842-1.8341-3.3386-1.4522-4.4033,0-3.3165,4.5237-6.2871,9.865-11.1076,12.9864-5.5125,3.5696-11.8523,2.6474-17.2775-.6035-3.432-2.0565-6.3795-4.7894-9.0396-7.759-2.1943-2.4496-5.7909,1.1667-3.6059,3.6059Z"/></g><g><path d="M624.1561,213.4052s-39.3879,3.8637-67.1519,38.9936-49.2953,2.8331-64.5938,25.4976c-15.9545,23.6363,27.764,39.6629,27.764,39.6629,0,0-24.3643,6.2327-16.4318,27.1974,7.9326,20.9647,44.7624,22.6645,53.8282,10.7656,2.2664-19.2648,22.1146-81.9799,66.5853-95.3848,22.6478-14.9108,0-46.7323,0-46.7323Z"/><path d="M624.1561,210.8555c-9.6985,.9598-19.3517,4.3193-28.1886,8.2543-8.9708,3.9947-17.3575,9.1939-24.9586,15.4093-4.3244,3.5361-8.3636,7.4197-12.0656,11.603-4.1966,4.7423-7.8626,9.837-12.7986,13.8812-6.7403,5.5225-14.3405,7.7366-22.6995,7.4665-6.6892-.2161-13.4857-1.8497-20.1412-.4429-7.5281,1.5913-13.3362,7.9975-15.8667,15.0563-2.3778,6.6327-.4738,13.5503,3.6957,18.9941,4.106,5.361,9.7133,9.4461,15.5152,12.8073,3.9081,2.264,8.0034,4.2373,12.2083,5.8877,.2127,.0835,.4255,.1668,.64,.2456v-4.9174c-5.3647,1.3811-10.8477,4.4633-14.5951,8.5355-3.2984,3.5842-5.26,8.1315-5.2958,13.032-.0416,5.699,2.1747,11.374,5.68,15.8096,6.4938,8.2173,17.356,11.9657,27.4786,12.8156,4.9133,.4125,9.9784,.1068,14.7622-1.1262,3.9904-1.0286,8.0803-2.8081,10.9765-5.8275,.9483-.9886,1.527-1.9289,1.6805-3.3274,.0487-.4434-.0897,.5985-.0203,.1485,.0246-.1593,.0451-.3193,.0685-.4787,.0527-.3581,.1086-.7156,.1672-1.0728,.2545-1.5508,.5592-3.0933,.895-4.6284,.836-3.8215,1.8653-7.6008,3.0194-11.338,3.0112-9.7509,6.6255-18.6444,11.2841-27.6394,5.1452-9.9345,11.2555-19.3024,18.8177-27.4296,7.4987-8.0589,16.5005-14.9101,26.7232-18.7311,1.376-.5143,3.0224-.7969,4.3048-1.5037,1.4398-.7935,2.7921-2.0014,3.983-3.1268,2.0598-1.9465,3.8217-4.2999,5.0102-6.8777,2.3148-5.0207,2.7014-10.4749,1.9445-15.8978-1.1416-8.1798-4.7266-16.1343-9.1734-23.0457-.2759-.4288-.5543-.8571-.8496-1.2728-.7963-1.1212-2.2252-1.6536-3.4885-.9147-1.1084,.6483-1.7162,2.36-.9147,3.4885,1.5257,2.1482,2.8338,4.4761,4.0428,6.8126,1.308,2.5278,2.1338,4.3673,3.0317,6.8144,1.0178,2.774,1.8272,5.634,2.2982,8.5535,.1301,.8066,.1267,.7785,.2113,1.6944,.0733,.7932,.1181,1.5893,.1302,2.3858,.0107,.7065-.0039,1.4136-.0473,2.1189-.0216,.3522-.0503,.704-.0865,1.055-.0181,.1753-.037,.351-.0598,.5258,.0564-.4315-.0539,.3162-.063,.3693-.5311,3.1212-1.4714,5.423-3.2593,7.9776-.7692,1.0991-2.0737,2.4312-3.2712,3.4472-.5034,.4271-1.1917,1.056-1.6918,1.3202-.7132,.3768-1.6585,.5301-2.4236,.8011-3.2841,1.1632-6.4875,2.5866-9.5501,4.2474-12.0625,6.5413-21.8516,16.6057-29.7546,27.6955-7.5895,10.6499-13.5062,22.4507-18.1996,34.6358-3.4181,8.8742-6.3683,18.1278-7.8508,27.5441-.1482,.9412-.2775,1.8858-.3901,2.8319l.7468-1.8029c-.3853,.4975-.8028,.9647-1.2575,1.4001-.2235,.2141-.4574,.4148-.691,.6175-.1186,.1029-.2429,.2-.3664,.2969,.5149-.4035-.0651,.0393-.1786,.1148-.5828,.3878-1.166,.7622-1.7822,1.096-.3038,.1646-.6119,.3211-.9233,.4707-.1268,.0609-.255,.1185-.3819,.179-.1291,.059-.2588,.1169-.3889,.1736,.2802-.1161,.2845-.1183,.013-.0066-1.4781,.592-3.0025,1.056-4.5546,1.4102-.7838,.1789-1.5739,.3304-2.3678,.4572-.2026,.0324-.4055,.0627-.6086,.0922-.4706,.0682,.6094-.0705-.1838,.0235-.4999,.0592-1.0003,.1126-1.5019,.1555-1.8091,.1549-3.6278,.1961-5.4423,.1345-.8859-.0301-1.771-.0848-2.6539-.1639-1.1289-.1011-1.6575-.1675-2.5212-.3036-1.867-.2943-3.7172-.699-5.534-1.2207-.9049-.2598-1.8014-.5489-2.687-.8684-1.0437-.3765-1.5449-.5794-2.3566-.9497-3.4563-1.577-6.2398-3.3782-8.7485-5.9481-2.4774-2.5379-4.2069-5.5752-5.1877-9.0246-1.0377-3.6496-1.0566-6.7455,.2109-10.2179,.043-.1178,.2479-.5786,.0459-.1247,.0761-.1709,.1549-.3405,.2366-.5088,.1776-.366,.3688-.7252,.573-1.0771,.1832-.3156,.3768-.6251,.5798-.9283,.0805-.1203,.1627-.2397,.2462-.3581,.0598-.0848,.6174-.8069,.249-.3464,.9201-1.1501,1.9687-2.1919,3.1033-3.1299,.1052-.087,.2117-.1722,.3177-.2581,.3246-.2634-.2779,.1887,.2873-.2174,.3226-.2318,.6446-.4636,.9744-.6852,.6066-.4075,1.229-.7913,1.8636-1.1534,1.1424-.6519,2.3241-1.2145,3.5266-1.7449-.79,.3485,.115-.0424,.2976-.1142,.2331-.0917,.4671-.1809,.7021-.2674,.3821-.1406,.7667-.2748,1.1541-.4002,.3377-.1094,.6774-.2169,1.0213-.3055,2.5971-.6686,2.2383-4.0951,0-4.9174-.2242-.0823-.4466-.1696-.6689-.2569-.2362-.0929-.4716-.1876-.7066-.2834-.1459-.0595-.2912-.1201-.437-.1799-.7016-.288,.4632,.2037-.0892-.037-2.044-.8908-4.0645-1.8259-6.0464-2.8489-2.5914-1.3377-5.1226-2.7974-7.5529-4.4103-.6542-.4342-1.301-.8797-1.9389-1.3374-.3372-.242-.672-.4872-1.004-.7363-.121-.0908-.2417-.1821-.3621-.2738-.373-.2842,.1867,.156-.2913-.2291-1.266-1.02-2.4992-2.0751-3.6582-3.2166-.5309-.5229-1.0473-1.0607-1.5452-1.6152-.2463-.2742-.4881-.5525-.7248-.8351-.1411-.1685-.2793-.3392-.4179-.5097-.4578-.5633,.2958,.405-.1375-.1736-.9172-1.2246-1.741-2.5193-2.4083-3.8976-.076-.1569-.1485-.3154-.222-.4735-.2947-.6332,.1851,.4911-.0697-.1572-.1264-.3216-.248-.6448-.3578-.9726-.2406-.718-.435-1.4518-.5757-2.196-.0257-.1356-.0477-.2716-.0716-.4075-.1207-.687,.0469,.5516-.0201-.1445-.0334-.3471-.0629-.6932-.0769-1.0417-.0313-.7831,.0028-1.5657,.0874-2.3445-.0662,.61,.0797-.4594,.1139-.6309,.074-.3716,.1612-.7406,.2603-1.1063,.1127-.4158,.2417-.8268,.3844-1.2332,.0667-.1898,.1372-.378,.2089-.566,.1499-.3931-.062,.0926,.1766-.4185,.7709-1.6504,1.9246-3.5335,2.8942-4.7475,.5512-.6901,1.1433-1.3496,1.7733-1.9686,.2932-.2881,.5951-.5676,.9061-.8365,.1803-.1559,.3631-.3092,.5498-.4573-.3392,.2692,.1293-.0943,.2243-.1612,.6056-.4264,1.2312-.8202,1.887-1.1652,.1995-.105,1.0138-.4902,.8527-.4205-.3564,.1543,.2783-.1086,.2807-.1095,.196-.0729,.3921-.1452,.5901-.2122,.7206-.2438,1.4578-.4371,2.2036-.586,.3392-.0678,.6803-.1246,1.0223-.1761-.6389,.0963,.5766-.0567,.7751-.0729,1.5002-.1228,3.0085-.1095,4.5108-.0357,3.3244,.1632,6.6273,.6117,9.9476,.8336,8.1395,.5438,16.1062-.7226,23.1905-4.9594,4.9592-2.9659,9.2464-6.9994,12.9564-11.4004,3.7657-4.4671,7.4047-8.9276,11.6575-12.9566,7.1668-6.7895,15.3153-12.4702,24.0943-16.9768,6.5357-3.355,13.1037-5.931,20.3158-7.9199,2.3028-.6351,4.628-1.1929,6.9726-1.6508,.8246-.1611,1.6517-.3099,2.4815-.4419,.2744-.0437,.5492-.0837,.8239-.1251,.8471-.1277-.524,.0544,.0414-.0066,.1681-.0181,.3355-.0422,.5037-.0588,1.3703-.1356,2.5498-1.0748,2.5498-2.5498,0-1.2737-1.171-2.6862-2.5498-2.5498Z"/></g><circle cx="815.946" cy="281.2961" r="70.8265" style="stroke:#000; stroke-miterlimit:10; stroke-width:1.6998px;"/><path d="M597.2089,354.2127c-.232,1.6712-.6483,4.4022,.7345,5.6886,1.0113,.9408,2.458,.6104,3.5491,.027,1.9757-1.0564,3.3789-2.8908,5.0883-4.2861-.3819,.3117,.1527-.0799,.3297-.1852,.3713-.221,.7554-.4292,1.1513-.6032,.8492-.3733,1.7911-.6381,2.7106-.7643,1.4706-.2019,3.1147-.1078,4.4401,.6136,.9468,.5153,2.1563,1.4289,2.0098,2.6511-.1505,1.2556-1.6258,2.0974-2.5488,2.7529-1.5094,1.0719-2.7853,2.2049-3.4657,3.9768-.6361,1.6563-.4736,3.6072,.9362,4.818,1.6518,1.4186,4.0671-.9755,2.4039-2.4039-.7204-.6187-.0151-1.7328,.5013-2.338,.9222-1.0808,2.3169-1.7335,3.384-2.663,2.4802-2.1604,2.8897-5.5095,.6825-8.0252-2.2465-2.5606-5.8639-3.1647-9.0798-2.684-2.7753,.4148-5.0848,1.6771-7.0849,3.5814-.8322,.7924-1.6863,1.6539-2.6158,2.2806-.2275,.1534-.4622,.3068-.7117,.4224-.2526,.117,.1797-.1226-.0312,.0084-.2425,.1507-.1904-.1142-.0075,.0231,.1786,.1341,1.4351-.2003,.8959,.5305,.0618-.0838-.0484-.5789-.0536-.6869-.0291-.6051-.0233-1.2303,.06-1.8309,.1261-.9081-.2206-1.8254-1.1872-2.091-.7946-.2183-1.964,.272-2.091,1.1872h0Z"/><g><path d="M617.0198,358.5582c1.014-1.4525,1.1162-3.3329-.341-4.5585-1.0214-.859-2.3935-1.1514-3.7123-1.3565-2.1391-.3327-4.6622-.3772-6.0795,1.2591,2.1623,.9394,4.1695-.0635,5.9262,2.112,1.0649,1.3187,1.5208,3.0241,1.78,4.6992,.9152-.5899,1.8033-1.2624,2.4266-2.1553Z"/><path d="M618.4875,359.4161c.9136-1.3531,1.3022-3.162,.6976-4.7186-.7176-1.8476-2.4245-2.9163-4.282-3.4006-2.9536-.77-6.9667-1.0942-9.2182,1.4034-.4118,.4568-.6047,1.0452-.4372,1.6539,.1726,.6269,.6195,.9511,1.1872,1.1872,.8848,.368,1.8347,.4689,2.7809,.5649,.1972,.02,.3942,.044,.5915,.0631,.2418,.0234-.2975-.0672-.0638-.006,.1039,.0272,.214,.0371,.3194,.0602,.1896,.0415,.3767,.125,.5653,.1602,.2091,.039-.2242-.1276-.0362-.0167,.0992,.0585,.2051,.1045,.3039,.1647,.082,.05,.1623,.1036,.2401,.1599-.1436-.1038-.0868-.0717,.0111,.0258,.0987,.0984,.1979,.1934,.2912,.297,.0217,.0241,.2212,.2695,.1423,.1642-.0973-.13,.139,.2094,.1591,.2407,.0605,.0942,.1188,.1901,.1747,.2872,.1258,.2186,.2402,.4443,.3425,.6748,.0689,.1553-.0405-.1322,.0519,.1413,.0362,.1071,.0762,.2128,.1118,.3202,.0804,.2424,.1508,.4881,.2145,.7354,.1347,.5232,.2342,1.0537,.3188,1.5871,.1695,1.0682,1.6508,1.5665,2.4971,1.0159,1.1782-.7666,2.21-1.6216,3.0365-2.7651,.5227-.7231,.1482-1.9252-.6098-2.3257-.8806-.4653-1.7678-.162-2.3257,.6098-.0464,.0642-.1637,.1968-.0483,.063-.0745,.0864-.1502,.1718-.2286,.2546-.177,.1868-.3658,.3623-.5614,.5293-.0225,.0192-.2593,.2136-.1628,.1378,.0964-.0757-.1491,.1083-.1733,.1256-.2103,.1508-.4255,.294-.6424,.4351l2.4971,1.0159c-.3889-2.451-1.2759-5.011-3.3803-6.5054-.9033-.6415-1.9681-.8577-3.0446-.9864-.219-.0262-.4385-.0473-.658-.0698-.1114-.0114-.2226-.024-.334-.0351-.4368-.0438,.2323,.0458-.0213-.0013-.5023-.0932-.9815-.2033-1.4553-.4003l.7501,2.8411c.0958-.1062,.1969-.2044,.2978-.3053,.2953-.2954-.2569,.1419,.0943-.0758,.1179-.0731,.2331-.1459,.3563-.2103,.0921-.0482,.4425-.1428,.1007-.0526,.2742-.0724,.5353-.1712,.8152-.2269,.0463-.0092,.4413-.0667,.2012-.0379-.2304,.0276,.2319-.0164,.2828-.0196,.5693-.0363,1.1412-.0152,1.7088,.038,.1476,.0139,.2946,.0333,.442,.0482-.4057-.041,.0739,.0121,.1266,.0202,.3322,.0513,.6639,.1082,.9928,.1777,.3286,.0695,.6554,.1513,.9749,.2553,.0353,.0115,.4339,.1524,.2648,.0872-.1254-.0484,.2637,.1277,.3208,.1585,.1455,.0784,.2852,.1646,.4224,.2566,.1392,.0933-.0862-.1101,.1044,.0877,.1047,.1087,.2163,.2095,.311,.3277-.2257-.2817,.0074,.0597,.0529,.1269,.1998,.2947-.0295-.2208,.0425,.0955,.0296,.13,.0643,.2609,.0948,.391-.0919-.3922-.017-.0307-.0175,.0819-.0005,.1004-.0727,.4847,.0137,.0881-.0294,.1352-.0533,.2702-.0913,.4037-.0236,.0829-.1708,.4754-.0207,.1233-.114,.2673-.2659,.5167-.428,.7569-.4988,.7388-.1658,1.9159,.6098,2.3257,.8589,.4538,1.7933,.1786,2.3257-.6098Z"/></g><path d="M607.0459,308.275c5.071-3.2583,11.7317-3.4321,16.9389-.3738,1.8906,1.1104,3.6033-1.827,1.7159-2.9355-6.2066-3.6453-14.3055-3.5234-20.3707,.3738-1.8348,1.1789-.132,4.1229,1.7159,2.9355h0Z"/><path d="M578.5494,305.44c.1178-.0202,.2359-.0389,.3541-.056-.1558,.0212-.1286,.019,.0815-.0065,.2381-.0212,.4755-.0448,.7143-.0583,.4174-.0237,.8359-.0292,1.2537-.0171,.4768,.0138,.9561,.0461,1.4289,.1107-.2827-.0386,.231,.0413,.2571,.0459,.2355,.0412,.4699,.0879,.7032,.1403,1.8113,.4064,3.1067,.9691,4.6641,2.0182,.7393,.498,1.9156,.1664,2.3257-.6098,.4534-.8582,.1792-1.7942-.6098-2.3257-3.5423-2.386-7.8885-3.2097-12.0766-2.5198-.8799,.1449-1.4492,1.2814-1.1872,2.091,.3081,.9522,1.1482,1.3426,2.091,1.1872h0Z"/><g><path d="M618.5246,315.2509c-1.6648-3.6474-5.7941-3.4514-6.6736,.6091-.7653,3.5332,3.5905,7.9163,6.3991,4.0804,.9699-1.3247,.9563-3.1956,.2744-4.6896Z"/><path d="M619.9924,314.3929c-.884-1.8999-2.7625-3.4801-4.9441-3.4351-2.3116,.0476-4.0012,1.7716-4.6821,3.8746-.7212,2.2274-.0454,4.5606,1.4154,6.3207,.6759,.8143,1.5938,1.4336,2.5968,1.7664,1.1235,.3727,2.3289,.2169,3.3737-.3043,1.3092-.653,2.3072-2.0213,2.715-3.4011,.4792-1.6212,.1987-3.3069-.4748-4.8212-.1621-.3644-.6487-.6801-1.0159-.7812-.4069-.112-.9487-.0615-1.3098,.1714-.363,.234-.6825,.5824-.7812,1.0159-.1077,.473-.0244,.8696,.1714,1.3098-.0124-.0278-.1498-.3899-.0514-.1217,.0178,.0484,.0364,.0965,.0537,.1451,.0404,.1137,.0774,.2285,.1101,.3447,.0328,.1163,.0616,.2337,.0867,.3519,.0107,.0507,.0196,.1017,.0303,.1524,.0636,.3038-.0264-.3091-.0082-.0935,.0188,.2231,.0362,.4446,.032,.6689-.0025,.1306-.0355,.2799-.025,.4089,.0009,.0114,.0646-.3826,.027-.1992-.017,.083-.0289,.1668-.0472,.2497-.0218,.0989-.047,.1973-.0759,.2944-.0182,.0613-.1703,.44-.0495,.178,.1243-.2695-.0534,.1035-.0856,.1634-.0644,.12-.1388,.2327-.2121,.3472-.1604,.2505,.2277-.2674-.0086,.0134-.0706,.0839-.1437,.1657-.2202,.2442-.0724,.0743-.1494,.143-.2249,.2141-.2607,.2455,.3117-.199,.0161-.0091-.1411,.0907-.2947,.1615-.4353,.2507,.3971-.2518,.2742-.1074,.1006-.0507-.0902,.0295-.1813,.0497-.273,.0732-.336,.086,.3937-.025,.1443-.0151-.0798,.0032-.1587,.0097-.2387,.0092-.0485-.0003-.192-.0332-.2376-.0121,.0008-.0004,.4809,.0833,.2496,.0335-.0445-.0096-.0895-.0165-.1339-.0264-.0825-.0183-.3927-.164-.461-.1416-.0062,.002,.3677,.169,.245,.1029-.0412-.0222-.0853-.0398-.1272-.0609-.085-.0428-.1682-.089-.2496-.1381-.0723-.0436-.1432-.0895-.2126-.1376-.2669-.1851,.0742,.1012,.1087,.0901-.0621,.0199-.3688-.3291-.4162-.3774-.0623-.0635-.1229-.1286-.1817-.1953-.0527-.0598-.2543-.314-.0634-.0654,.1984,.2584-.0095-.0171-.0516-.0779-.0594-.0858-.1162-.1733-.1706-.2623-.0957-.1568-.1836-.3184-.2631-.4839-.0171-.0355-.0321-.0723-.05-.1074-.0916-.1802,.1471,.3783,.0781,.1882-.036-.0991-.0757-.1964-.1092-.2965-.0542-.162-.1007-.3266-.1383-.4932-.0202-.0895-.0334-.1804-.0529-.2699-.0442-.2018,.044,.4249,.0277,.2191-.0041-.0519-.0112-.1037-.0154-.1557-.0147-.1814-.0185-.3636-.0102-.5454,.0019-.042-.0062-.2588,.0213-.2715,.021-.0097-.0714,.4144-.0339,.2592,.0152-.0628,.0227-.1281,.0362-.1914,.0442-.2086,.1007-.4154,.1679-.6178,.0317-.0955,.0723-.1884,.1033-.2839,.0568-.1746-.0938,.2485-.0904,.2131,.0056-.0581,.0617-.1333,.0871-.1842,.0755-.1513,.159-.2986,.2517-.44,.0384-.0586,.2419-.331,.0395-.0696-.2025,.2616,.0206-.0168,.0744-.0753,.1094-.1188,.2363-.2159,.3495-.3296,.1066-.107-.2156,.1966-.2123,.1639,.0009-.0091,.0908-.0651,.1078-.0753,.0742-.0444,.1455-.0927,.2214-.1344,.0649-.0357,.1358-.0627,.1996-.0997,.1079-.0627-.2558,.1212-.2607,.11,0,0,.1028-.0387,.1179-.0429,.15-.0424,.3022-.0727,.4522-.1127,.1172-.0313-.298,.0402-.2984,.0398,.0158,.0148,.1332-.0111,.1545-.0122,.0829-.0044,.1658-.0051,.2487-.0023,.0872,.003,.414,.042,.055-.0066-.3621-.0491-.0248,.0014,.0548,.0196,.0837,.0191,.1665,.0418,.2483,.0678,.0789,.025,.3912,.151,.0736,.0168-.3207-.1355,.0017,.0072,.0696,.0431,.081,.0428,.1602,.0888,.2376,.1378,.0796,.0502,.1539,.1074,.2323,.1593,.1155,.0764-.2084-.1489-.202-.1555,.0029-.003,.1311,.1118,.1392,.1191,.1528,.1363,.2873,.2859,.4247,.437,.2298,.2527-.2127-.3162-.0192-.0272,.0619,.0925,.1263,.1831,.1853,.2777,.1325,.2127,.2481,.4342,.3537,.6613,.3763,.8086,1.6039,1.0752,2.3257,.6098,.8329-.537,1.0123-1.4608,.6098-2.3257Z"/></g><g><path d="M583.9613,315.8175c-1.6648-3.6474-5.7941-3.4514-6.6736,.6091-.7653,3.5332,3.5905,7.9163,6.3991,4.0804,.9699-1.3247,.9563-3.1956,.2744-4.6896Z"/><path d="M585.429,314.9595c-.884-1.8999-2.7625-3.4801-4.9441-3.4351-2.3116,.0476-4.0012,1.7716-4.6821,3.8746-.7212,2.2274-.0454,4.5606,1.4154,6.3207,.6759,.8143,1.5938,1.4336,2.5968,1.7664,1.1235,.3727,2.3289,.2169,3.3737-.3043,1.3092-.653,2.3072-2.0213,2.715-3.4011,.4792-1.6212,.1987-3.3069-.4748-4.8212-.1621-.3644-.6487-.6801-1.0159-.7812-.4069-.112-.9487-.0615-1.3098,.1714-.363,.234-.6825,.5824-.7812,1.0159-.1077,.473-.0244,.8696,.1714,1.3098-.0124-.0278-.1498-.3899-.0514-.1217,.0178,.0484,.0364,.0965,.0537,.1451,.0404,.1137,.0774,.2285,.1101,.3447,.0328,.1163,.0616,.2337,.0867,.3519,.0107,.0507,.0196,.1017,.0303,.1524,.0636,.3038-.0264-.3091-.0082-.0935,.0188,.2231,.0362,.4446,.032,.6689-.0025,.1306-.0355,.2799-.025,.4089,.0009,.0114,.0646-.3826,.027-.1992-.017,.083-.0289,.1668-.0472,.2497-.0218,.0989-.047,.1973-.0759,.2944-.0182,.0613-.1703,.44-.0495,.178,.1243-.2695-.0534,.1035-.0856,.1634-.0644,.12-.1388,.2327-.2121,.3472-.1604,.2505,.2277-.2674-.0086,.0134-.0706,.0839-.1437,.1657-.2202,.2442-.0724,.0743-.1494,.143-.2249,.2141-.2607,.2455,.3117-.199,.0161-.0091-.1411,.0907-.2947,.1615-.4353,.2507,.3971-.2518,.2742-.1074,.1006-.0507-.0902,.0295-.1813,.0497-.273,.0732-.336,.086,.3937-.025,.1443-.0151-.0798,.0032-.1587,.0097-.2387,.0092-.0485-.0003-.192-.0332-.2376-.0121,.0008-.0004,.4809,.0833,.2496,.0335-.0445-.0096-.0895-.0165-.1339-.0264-.0825-.0183-.3927-.164-.461-.1416-.0062,.002,.3677,.169,.245,.1029-.0412-.0222-.0853-.0398-.1272-.0609-.085-.0428-.1682-.089-.2496-.1381-.0723-.0436-.1432-.0895-.2126-.1376-.2669-.1851,.0742,.1012,.1087,.0901-.0621,.0199-.3688-.3291-.4162-.3774-.0623-.0635-.1229-.1286-.1817-.1953-.0527-.0598-.2543-.314-.0634-.0654,.1984,.2584-.0095-.0171-.0516-.0779-.0594-.0858-.1162-.1733-.1706-.2623-.0957-.1568-.1836-.3184-.2631-.4839-.0171-.0355-.0321-.0723-.05-.1074-.0916-.1802,.1471,.3783,.0781,.1882-.036-.0991-.0757-.1964-.1092-.2965-.0542-.162-.1007-.3266-.1383-.4932-.0202-.0895-.0334-.1804-.0529-.2699-.0442-.2018,.044,.4249,.0277,.2191-.0041-.0519-.0112-.1037-.0154-.1557-.0147-.1814-.0185-.3636-.0102-.5454,.0019-.042-.0062-.2588,.0213-.2715,.021-.0097-.0714,.4144-.0339,.2592,.0152-.0628,.0227-.1281,.0362-.1914,.0442-.2086,.1007-.4154,.1679-.6178,.0317-.0955,.0723-.1884,.1033-.2839,.0568-.1746-.0938,.2485-.0904,.2131,.0056-.0581,.0617-.1333,.0871-.1842,.0755-.1513,.159-.2986,.2517-.44,.0384-.0586,.2419-.331,.0395-.0696-.2025,.2616,.0206-.0168,.0744-.0753,.1094-.1188,.2363-.2159,.3495-.3296,.1066-.107-.2156,.1966-.2123,.1639,.0009-.0091,.0908-.0651,.1078-.0753,.0742-.0444,.1455-.0927,.2214-.1344,.0649-.0357,.1358-.0627,.1996-.0997,.1079-.0627-.2558,.1212-.2607,.11,0,0,.1028-.0387,.1179-.0429,.15-.0424,.3022-.0727,.4522-.1127,.1172-.0313-.298,.0402-.2984,.0398,.0158,.0148,.1332-.0111,.1545-.0122,.0829-.0044,.1658-.0051,.2487-.0023,.0872,.003,.414,.042,.055-.0066-.3621-.0491-.0248,.0014,.0548,.0196,.0837,.0191,.1665,.0418,.2483,.0678,.0789,.025,.3912,.151,.0736,.0168-.3207-.1355,.0017,.0072,.0696,.0431,.081,.0428,.1602,.0888,.2376,.1378,.0796,.0502,.1539,.1074,.2323,.1593,.1155,.0764-.2084-.1489-.202-.1555,.0029-.003,.1311,.1118,.1392,.1191,.1528,.1363,.2873,.2859,.4247,.437,.2298,.2527-.2127-.3162-.0192-.0272,.0619,.0925,.1263,.1831,.1853,.2777,.1325,.2127,.2481,.4342,.3537,.6613,.3763,.8086,1.6039,1.0752,2.3257,.6098,.8329-.537,1.0123-1.4608,.6098-2.3257Z"/></g></g><path d="M94.3982,625.4165c1.9043-1.2695,3.8085-2.539,5.7128-3.8085,.554-.3693,.9912-.8682,1.1718-1.5238,.1681-.6103,.0922-1.4231-.257-1.9647-.351-.5444-.8737-1.0237-1.5238-1.1718-.6467-.1473-1.3944-.1232-1.9647,.257-1.9043,1.2695-3.8085,2.539-5.7128,3.8085-.554,.3693-.9912,.8682-1.1718,1.5238-.1681,.6103-.0922,1.4231,.257,1.9647,.351,.5444,.8737,1.0237,1.5238,1.1718,.6467,.1473,1.3944,.1232,1.9647-.257h0Z" style="fill:#f953b2;"/><path d="M125.0235,653.3898l3.7563-12.3935c.3868-1.2763-.4618-2.8361-1.7808-3.1365-1.3764-.3135-2.7223,.4141-3.1365,1.7808-1.2521,4.1312-2.5042,8.2623-3.7563,12.3935-.3868,1.2763,.4618,2.8361,1.7808,3.1365,1.3764,.3135,2.7223-.4141,3.1365-1.7808h0Z" style="fill:#f953b2;"/><path d="M167.6748,651.444c-1.5869-3.4911-3.1738-6.9823-4.7606-10.4734-.5537-1.2182-2.4129-1.6082-3.4885-.9147-1.2578,.8109-1.5071,2.1854-.9147,3.4885l4.7606,10.4734c.5537,1.2182,2.4129,1.6082,3.4885,.9147,1.2578-.8109,1.5071-2.1854,.9147-3.4885h0Z" style="fill:#f953b2;"/></svg>