<?xml version="1.0" encoding="UTF-8"?><svg id="Layer_2" xmlns="http://www.w3.org/2000/svg" width="1000" height="1000" viewBox="0 0 1000 1000"><g><path d="M780.9574,381.9262h-16.7391c-4.6934,0-8.4981,3.8048-8.4981,8.4981v12.0362c-7.5967-8.5243-18.6536-13.8978-30.9702-13.8978-22.9076,0-41.4779,18.5703-41.4779,41.4779s18.5703,41.4779,41.4779,41.4779c12.3166,0,23.3735-5.3735,30.9702-13.8978v2.6345c0,4.6933,3.8047,8.4981,8.4981,8.4981h16.7391c4.6934,0,8.4981-3.8048,8.4981-8.4981v-69.8309c0-4.6933-3.8047-8.4981-8.4981-8.4981Z" style="fill:#f953b2;"/><path d="M742.779,425.0632V251.2209c0-2.3468,.0591-4.7024,0-7.0487-.0026-.1017,0-.2037,0-.3055,0-3.2027-4.9773-3.208-4.9773,0v173.8423c0,2.3468-.0591,4.7024,0,7.0487,.0026,.1017,0,.2037,0,.3055,0,3.2027,4.9773,3.208,4.9773,0h0Z" style="fill:#f4d13b;"/><path d="M659.9555,425.4483c.6874-1.6665,1.3749-3.3329,2.0623-4.9994,1.8547-4.4963,3.7095-8.9925,5.5642-13.4888,2.7433-6.6503,5.4866-13.3005,8.2299-19.9508,3.3301-8.0729,6.6603-16.1458,9.9904-24.2187,3.6051-8.7395,7.2102-17.479,10.8153-26.2185,3.6165-8.7672,7.233-17.5343,10.8496-26.3015,3.3034-8.0081,6.6068-16.0162,9.9102-24.0243,2.7241-6.6038,5.4482-13.2075,8.1723-19.8113,1.8336-4.445,3.6672-8.8901,5.5008-13.3351,.4889-1.1852,.9778-2.3705,1.4668-3.5557,.1235-.2993,.2469-.5987,.3704-.898,.0281-.0682,.0553-.1368,.0844-.2045,.0064-.0148,.012-.0299,.0184-.0447-.2628,.6064,.2727-.5254,.3826-.7245,3.056-5.539,10.6007-6.8391,15.1527-2.3256,1.271,1.2602,2.0593,2.7931,2.6409,4.4512,1.0224,2.9145,2.0449,5.829,3.0673,8.7435,1.9445,5.5429,3.889,11.0857,5.8335,16.6286,2.6215,7.4727,5.243,14.9454,7.8645,22.4181,3.0153,8.5953,6.0307,17.1907,9.046,25.786,3.1735,9.046,6.3469,18.092,9.5204,27.138,3.0436,8.6759,6.0872,17.3519,9.1309,26.0278,2.6783,7.6345,5.3566,15.2691,8.0349,22.9036,2.0364,5.8047,4.0728,11.6095,6.1091,17.4142,1.129,3.2181,2.2579,6.4363,3.3869,9.6544,.1471,.4193,.2942,.8387,.4413,1.258,.4447,1.2677,1.7016,2.1119,3.0614,1.7382,1.2297-.3379,2.1852-1.7872,1.7382-3.0614-.6133-1.7483-1.2267-3.4967-1.84-5.245-1.6511-4.7066-3.3023-9.4132-4.9534-14.1198-2.4343-6.9391-4.8687-13.8783-7.303-20.8174-2.9293-8.3502-5.8587-16.7004-8.788-25.0506-3.1808-9.0669-6.3615-18.1338-9.5423-27.2007-3.1507-8.9811-6.3013-17.9621-9.452-26.9432-2.8395-8.0942-5.6791-16.1884-8.5186-24.2826-2.2841-6.5108-4.5681-13.0216-6.8522-19.5323-1.4417-4.1095-2.8834-8.2191-4.325-12.3286-.3274-.9334-.6534-1.8673-.9823-2.8002-1.1856-3.3623-3.1713-6.233-6.1818-8.2167-6.1872-4.0768-14.689-2.524-19.2263,3.2506-1.1448,1.457-1.9002,3.077-2.5977,4.768-1.2178,2.9521-2.4355,5.9042-3.6533,8.8563-2.2906,5.5528-4.5812,11.1057-6.8718,16.6585-3.0454,7.3826-6.0907,14.7652-9.1361,22.1478-3.5081,8.5042-7.0161,17.0085-10.5242,25.5127-3.6866,8.9372-7.3733,17.8743-11.0599,26.8115-3.5472,8.599-7.0943,17.1981-10.6415,25.7971-3.092,7.4956-6.184,14.9912-9.276,22.4869-2.3608,5.7231-4.7217,11.4463-7.0825,17.1694-1.3085,3.1721-2.617,6.3441-3.9255,9.5162-.1705,.4134-.3411,.8268-.5116,1.2403-.5128,1.2431,.555,2.7363,1.7382,3.0614,1.4294,.3928,2.5467-.4905,3.0614-1.7382h0Z" style="fill:#f4d13b;"/><path d="M657.4858,425.0632c-6.4184,0-11.3253,5.8164-10.1396,12.1244,6.8397,36.388,43.9665,64.195,88.741,64.195s81.9013-27.807,88.741-64.195c1.1857-6.308-3.7211-12.1244-10.1396-12.1244h-157.2029Z" style="fill:#f4d13b;"/><path d="M155.139,408.4721h-2.7842v-16.427c0-5.1818-4.2007-9.3825-9.3826-9.3825h-42.6221c-5.1819,0-9.3826,4.2007-9.3826,9.3825v16.427h-17.1632c-5.1819,0-9.3826,4.2007-9.3826,9.3828v53.6826c0,5.182,4.2007,9.3828,9.3826,9.3828h81.3348c5.1819,0,9.3826-4.2007,9.3826-9.3828v-53.6826c0-5.182-4.2007-9.3828-9.3826-9.3828Z" style="fill:#f953b2;"/><path d="M120.6104,436.6771v-37.4923c0-7.9508,0-15.9017,0-23.8525v-52.2595c0-8.199,0-16.398,0-24.597,0-6.8971,0-13.7942,0-20.6914v-14.9496c0-2.3468,.0591-4.7024,0-7.0487-.0026-.1017,0-.2037,0-.3055,0-3.2027-4.9773-3.208-4.9773,0v173.8423c0,2.3468-.0591,4.7024,0,7.0487,.0026,.1017,0,.2037,0,.3055,0,3.2027,4.9773,3.208,4.9773,0h0Z" style="fill:#f4d13b;"/><path d="M37.7868,437.0621c.6874-1.6665,1.3749-3.3329,2.0623-4.9994,1.8547-4.4963,3.7095-8.9925,5.5642-13.4888,2.7433-6.6503,5.4866-13.3005,8.2299-19.9508,3.3301-8.0729,6.6603-16.1458,9.9904-24.2187,3.6051-8.7395,7.2102-17.479,10.8153-26.2185,3.6165-8.7672,7.233-17.5343,10.8496-26.3015,3.3034-8.0081,6.6068-16.0162,9.9102-24.0243,2.7241-6.6038,5.4482-13.2075,8.1723-19.8113,1.8336-4.445,3.6672-8.8901,5.5008-13.3351,.4889-1.1852,.9778-2.3705,1.4668-3.5557,.1235-.2993,.2469-.5987,.3704-.898,.0281-.0682,.0553-.1368,.0844-.2045,.0064-.0148,.012-.0299,.0184-.0447-.2628,.6064,.2727-.5254,.3826-.7245,3.056-5.539,10.6007-6.8391,15.1527-2.3256,1.271,1.2602,2.0593,2.7931,2.6409,4.4512,1.0224,2.9145,2.0449,5.829,3.0673,8.7435,1.9445,5.5429,3.889,11.0857,5.8335,16.6286,2.6215,7.4727,5.243,14.9454,7.8645,22.4181,3.0153,8.5953,6.0307,17.1907,9.046,25.786,3.1735,9.046,6.3469,18.092,9.5204,27.138,3.0436,8.6759,6.0872,17.3519,9.1309,26.0278,2.6783,7.6345,5.3566,15.2691,8.0349,22.9036,2.0364,5.8047,4.0728,11.6095,6.1091,17.4142,1.129,3.2181,2.2579,6.4363,3.3869,9.6544,.1471,.4193,.2942,.8387,.4413,1.258,.4447,1.2677,1.7016,2.1119,3.0614,1.7382,1.2297-.3379,2.1852-1.7872,1.7382-3.0614-.6133-1.7483-1.2267-3.4967-1.84-5.245-1.6511-4.7066-3.3023-9.4132-4.9534-14.1198-2.4343-6.9391-4.8687-13.8783-7.303-20.8174-2.9293-8.3502-5.8587-16.7004-8.788-25.0506-3.1808-9.0669-6.3615-18.1338-9.5423-27.2007-3.1507-8.9811-6.3013-17.9621-9.452-26.9432-2.8395-8.0942-5.6791-16.1884-8.5186-24.2826l-6.8522-19.5323-4.325-12.3286c-.3274-.9334-.6534-1.8673-.9823-2.8002-1.1856-3.3623-3.1713-6.233-6.1818-8.2167-6.1872-4.0768-14.689-2.524-19.2263,3.2506-1.1448,1.457-1.9002,3.077-2.5977,4.768-1.2178,2.9521-2.4355,5.9042-3.6533,8.8563-2.2906,5.5528-4.5812,11.1057-6.8718,16.6585-3.0454,7.3826-6.0907,14.7652-9.1361,22.1478-3.5081,8.5042-7.0161,17.0085-10.5242,25.5127-3.6866,8.9372-7.3733,17.8743-11.0599,26.8115-3.5472,8.599-7.0943,17.1981-10.6415,25.7971-3.092,7.4956-6.184,14.9912-9.276,22.4869-2.3608,5.7231-4.7217,11.4463-7.0825,17.1694-1.3085,3.1721-2.617,6.3441-3.9255,9.5162-.1705,.4134-.3411,.8268-.5116,1.2403-.5128,1.2431,.555,2.7363,1.7382,3.0614,1.4294,.3928,2.5467-.4905,3.0614-1.7382h0Z" style="fill:#f4d13b;"/><path d="M92.5545,621.6341c48.5229,27.0368,100.3971,47.7125,153.8608,62.6689,53.7488,15.0362,108.9956,24.384,164.5359,29.5495,56.5266,5.2572,113.4088,6.162,170.1218,4.0706,56.8157-2.0952,113.8236-6.4579,169.923-15.9215,56.1003-9.4638,111.5668-24.6251,162.8722-49.5607,6.4382-3.1291,12.7951-6.4182,19.0813-9.8421,2.8138-1.5327,.3045-5.832-2.5122-4.2978-49.9466,27.205-104.5956,44.3228-160.267,55.1787-55.8062,10.8823-112.6912,15.8436-169.4247,18.6209-55.7102,2.7273-111.6061,2.6904-167.2521-1.3594-55.5227-4.0408-110.8201-12.1225-164.8418-25.6896-53.8484-13.5237-106.3769-32.5466-155.7129-58.0989-6.0078-3.1116-11.9621-6.3235-17.8722-9.6165-2.8009-1.5606-5.3137,2.7368-2.5122,4.2978h0Z" style="fill:#f953b2;"/><path d="M499.6438,393.4136c6.8028,29.4386,20.0369,56.8505,27.8123,86.0014,8.1326,30.4899,12.4878,61.7917,16.8103,92.9986,2.1556,15.5626,4.3127,31.1287,6.9593,46.617,1.3142,7.6908,2.7035,15.3808,4.3594,23.0063,1.2665,5.8321,2.8858,12.0729,6.9089,16.6703,4.8711,5.5664,15.6149,7.8981,17.1388,15.9039,1.0369,5.4474-1.2545,10.6046-5.8963,13.4911-4.884,3.0371-10.3793,5.4302-15.5093,8.023-6.1185,3.0925-12.4253,5.7851-19.1851,7.1003-5.0308,.9788-13.2228,3.057-17.803-.1404-1.4192-.9908-2.7158-2.3459-3.9268-3.5715-.4975-.5035-2.9876-3.4785-2.9277-3.4965-2.2385,.6734,.5143,1.9209,.5401,1.9562,.4332,.5915,.9484,.5678,1.3574,1.3368,.8932,1.6796-.074,3.7186-1.1972,4.9906-2.5032,2.8347-6.9247,3.4526-10.4807,3.8349-3.3016,.355-7.3353,.7463-10.5633-.2098-3.5711-1.0577-5.2412-5.1056-6.6018-8.2754-2.5372-5.9111-3.7838-12.3766-4.4784-18.7433-1.3763-12.6147-1.4719-25.6052-1.6521-38.2877-.4498-31.6623-4.6073-62.8587-9.6727-94.0606-1.288-7.9339-2.4332-15.8899-3.6615-23.8331-1.1403-7.3744-3.1231-14.3185-4.8682-21.549-1.3132-5.4412-1.8444-10.6439,.7268-15.7689,.3866-.7706,1.6253-3.2604,2.5345-3.2126,2.1323,.1123,3.4217,6.8973,3.7466,8.4195,1.5417,7.2231,.8926,14.9132,.4827,22.2274-.4112,7.3371-1.0739,14.6602-1.9838,21.9523-1.8398,14.744-4.7475,29.365-8.6022,43.7131-3.8127,14.1917-8.5703,28.1395-14.2671,41.6861-2.915,6.9316-6.0873,13.7575-9.4866,20.4647-3.089,6.0949-6.2317,12.0874-8.131,18.6875-1.7595,6.1145-2.502,12.5004-2.4471,18.8546,.0549,6.3546,1.1291,12.6183,1.3968,18.9558,.2752,6.5154-.8622,12.7442-5.5907,17.5556-4.2429,4.3173-10.0479,5.3716-15.8861,4.9639-5.7542-.4018-11.3663-2.1154-16.8339-3.857-5.7755-1.8397-12.6028-3.0638-17.4203-6.9134-1.2337-.9859-1.4901-1.3525-2.5084-3.0547-1.0361-1.732-2.0049-3.5103-2.8851-5.3265-.5034-1.0385-.9231-3.4675-1.6552-4.264l-.0113-.0301c.033-.9275-.255-.4605-.8639,1.401,.1454,.3543,1.4268,.2955,1.642,.6587,.2849,.4806-.1983,2.1559-.4349,2.5992-1.2793,2.3975-4.709,1.2791-6.672,.4729-3.6394-1.4948-6.9308-4.1152-9.4637-7.0988-3.0658-3.6112-4.3395-7.3958-3.4568-12.1129,1.3713-7.3281,5.4424-14.292,8.779-20.8743,6.7634-13.3427,14.157-26.3773,19.8802-40.2217,5.2145-12.6138,8.109-25.9185,9.5593-39.4643,3.063-28.6095-.5159-57.0616-5.827-85.1719-2.9174-15.4411-6.1258-30.8598-7.9-46.487-1.7685-15.5777-1.718-31.1249-.0044-46.7056,.8755-7.9604,2.2614-15.8253,3.4619-23.7377,1.1363-7.4892,1.6872-15.0446,2.2326-22.5947,.5623-7.7845,1.2744-15.5197,2.3274-23.2545,.5265-3.8673,1.053-7.7345,1.5795-11.6018,.2062-1.5149,.3121-3.0738,.6364-4.5678,.1668-.7683,.7674-1.7411,.4901-2.5051-.3326-.9164-.6475,.2391-1.149,.8131-6.2531,7.157-16.8778,9.2156-25.833,10.4527-10.0382,1.3868-20.1992,1.4472-30.2531,2.6606-5.7202,.6904-11.3403,1.9982-17.027,2.9108-7.8535,1.2602-15.7649,2.153-23.7023,2.6684-15.6581,1.0167-31.4676,.5866-47.0016-1.6964-30.3356-4.4583-59.4945-15.3245-89.3479-22.08-7.0746-1.6009-14.1916-3.0232-21.3548-4.1686-2.0018-.3201-4.007-.6175-6.0153-.8942-1.5803-.2177-3.5974-.1286-4.9737-.9229-3.2351-1.8669-1.6256-6.9207,2.0155-6.7672,2.7677,.1166,3.4329-4.32,.6616-4.8885-4.2712-.8761-3.6099-7.3804,.8128-7.2016,2.7666,.1119,3.4344-4.3197,.6616-4.8885-4.2712-.8761-3.6099-7.3804,.8128-7.2016,2.7655,.1118,3.4361-4.3243,.6616-4.8885-3.2175-.6542-4.1909-5.3156-.996-6.9028,.9362-.4651,1.911-.2734,2.8861-.1675,2.8163,.3058,5.6266,.6862,8.4386,1.0291,5.4066,.6593,10.8131,1.3187,16.2197,1.978,1.6454,.2007,2.7832-1.7467,2.3998-3.1503-1.0673-3.9067-3.2024-10.7507,3.2176-11.2848,3.2156-.2675,5.5139,2.7419,7.8049,4.5774,2.2214,1.7798,4.5243,3.4542,6.9084,5.0092,10.2265,6.6704,21.7535,11.3518,33.4403,14.7646,12.3937,3.6192,25.2295,5.8222,38.1042,6.7416,12.4483,.8889,24.5439,.0389,36.8799-1.6066,16.3083-2.1753,32.7091-4.0285,48.7359-7.8596,16.4837-3.9404,32.7471-9.3234,48.985-14.1757,8.0782-2.414,16.4266-4.564,24.2754-7.657,4.7078-1.8552,8.791-4.8956,11.4999-9.2137,5.6022-8.9301,4.6085-20.5531,4.7052-30.623,.0306-3.1902,.1199-6.3529-.0006-9.5427-.1772-4.6891,1.0968-8.571,3.4707-12.5895,4.2665-7.2223,9.2757-12.5542,17.8155-14.1156,12.5106-2.2873,25.3623,3.3367,32.2851,13.9041,4.9794,7.6009,7.6676,17.3679,6.0272,26.4229-.737,4.0678-2.3742,8.0018-5.15,11.1052-3.5419,3.9599-7.8401,5.2616-12.6911,6.8901-4.9277,1.6543-9.0228,6.9042-6.1647,12.065,2.6962,4.8686,8.904,6.4261,13.982,7.1174,5.416,.7373,10.8575,.5464,16.3049,.6568,7.2195,.1462,14.4526,.7298,21.5265,2.2235,12.8229,2.7076,24.517,8.7191,36.914,12.7729,11.5329,3.7713,23.3849,6.5724,35.3707,8.4525,24.6845,3.8719,50.1671,4.0825,74.6804-1.108,11.9161-2.5231,23.5747-6.4101,34.4653-11.8903,5.1831-2.6082,10.1771-5.5926,14.9032-8.9602,2.2966-1.6365,4.534-3.3623,6.7027-5.1647,2.5938-2.1557,5.348-5.8759,9.1576-4.6402,5.3243,1.727,3.1641,7.2707,2.1314,11.0509-.3834,1.4035,.7544,3.3509,2.3998,3.1503,5.4066-.6593,10.8131-1.3187,16.2197-1.978,2.767-.3374,5.5322-.7067,8.3029-1.0126,.8489-.0937,1.6182-.2493,2.4646-.007,3.6768,1.0528,3.0591,6.3494-.4388,7.0607-2.7466,.5585-2.1328,5.0014,.6616,4.8885,4.3856-.1773,5.1215,6.3179,.8128,7.2016-2.745,.563-2.1339,5.0015,.6616,4.8885,4.3856-.1773,5.1215,6.3179,.8128,7.2016-2.7435,.5627-2.135,5.0063,.6616,4.8885,2.867-.1208,4.8696,3.1604,3.2109,5.6994-1.5359,2.351-6.8179,2.0695-9.3512,2.4487-6.7976,1.0175-13.554,2.2948-20.272,3.7446-12.443,2.6853-24.8863,5.7315-37.1862,9.0133-5.7842,1.5433-11.5043,3.3321-17.0105,5.6956-5.1108,2.1938-9.8822,5.0173-15.109,6.962-10.2488,3.8131-21.1302,5.8581-31.9886,6.9182-22.9455,2.2401-46.7785,1.0676-69.1951-4.4029-12.9991-3.1723-25.4598-7.7667-37.833-12.8054-4.8599-1.979-10.4855-2.9913-15.0678-5.5118-2.3669-1.3019-4.5823-3.5637-5.2243-6.2656-.2635-1.1089-.3769-3.9466,1.3092-4.3572,1.0017-.2439,.518,.243,.4848,1.1931-.0364,1.0421-.1316,2.0702-.3015,3.0995-.5461,3.3087-1.5219,6.5288-1.9977,9.8522-.5216,3.6437-.3244,7.3535-.2409,11.0222,.1773,7.7838,.6216,15.5607,1.3344,23.3138,1.3772,14.9806,3.7542,29.8586,7.0696,44.5313,.7057,3.1231,5.5056,1.8013,4.7996-1.3232-3.5362-15.65-5.9933-31.5179-7.26-47.5143-.6508-8.2176-1.0494-16.478-1.0493-24.7228,0-6.7668,3.6596-13.7992,2.5086-20.5268-.9554-5.5845-7.576-5.0047-10.3042-1.0126-3.4368,5.0293-.5297,11.5977,3.6824,15.1571,4.2537,3.5945,9.9466,4.3262,14.9942,6.2661,7.3692,2.832,14.5806,6.0226,22.0542,8.5881,26.4367,9.0752,54.1285,12.561,82.0125,11.0225,12.7892-.7057,25.7114-2.4733,37.9196-6.4609,5.7365-1.8737,10.992-4.4934,16.3984-7.1238,6.6623-3.2414,13.8157-5.368,20.9681-7.2242,16.4067-4.2578,32.9489-8.4563,49.6594-11.3346,4.2833-.7378,8.7391-1.024,12.9807-1.9234,2.811-.596,5.1292-2.4315,6.1564-5.1603,2.1278-5.6526-1.9828-12.0954-8.1516-11.8354,.2205,1.6295,.4411,3.259,.6616,4.8885,9.7924-2.0085,7.8312-17.3815-2.136-16.9785,.2205,1.6295,.4411,3.259,.6616,4.8885,9.7924-2.0085,7.8312-17.3815-2.136-16.9785,.2205,1.6295,.4411,3.259,.6616,4.8885,6.4262-1.3067,8.6579-9.5543,4.3118-14.2946-2.8559-3.1149-6.3117-2.7005-10.0168-2.2487-7.3889,.9011-14.7778,1.8022-22.1666,2.7033,.7999,1.0501,1.5999,2.1002,2.3998,3.1503,1.1358-4.1575,2.6666-8.3284,.3332-12.4212-2.9815-5.2295-9.881-6.6675-14.7837-3.2615-2.3168,1.6095-4.3012,3.7611-6.5054,5.5314-2.545,2.044-5.2032,3.9475-7.934,5.735-5.108,3.3436-10.4921,6.2592-16.0564,8.7684-23.539,10.6147-50.0581,13.8017-75.666,12.7069-25.1489-1.0751-50.3582-6.3221-73.6877-15.8305-6.9186-2.8198-13.796-5.5762-21.0822-7.3182-7.0499-1.6856-14.2815-2.5025-21.5152-2.8214-5.8888-.2596-11.8095,.0629-17.683-.5039-2.7685-.2672-5.6745-.7099-8.2362-1.8464-3.3423-1.4828-5.7891-5.0021-1.6898-7.352,2.3036-1.3205,5.3332-1.6201,7.7852-2.7441,2.2251-1.02,4.2678-2.3373,6.1251-3.9328,3.4105-2.9298,5.847-6.8143,7.3376-11.0328,3.0657-8.676,1.9058-18.6446-1.5237-27.0271-4.0575-9.9175-11.379-17.9532-21.4886-21.8504-6.5859-2.5388-13.8965-3.1232-20.8097-1.7249-7.501,1.5171-12.8762,5.5831-17.2701,11.723-2.0419,2.8533-3.9129,5.846-5.2831,9.0836-1.7591,4.1564-1.9662,7.8832-1.7885,12.3422,.2423,6.0813,.0107,12.3205-.1762,18.4078-.1614,5.2576-.5541,10.8522-2.9038,15.6556-2.7977,5.7193-7.8179,8.2848-13.6395,10.1751-16.9866,5.5158-34.1893,10.3288-51.3087,15.4079-16.5701,4.9161-33.0956,8.3982-50.2263,10.7236-14.2551,1.935-28.4709,4.2766-42.8976,4.0029-13.1299-.2491-26.2322-1.9947-38.9817-5.1358-12.7488-3.141-25.304-7.681-36.5628-14.5132-2.3982-1.4553-4.7406-3.0131-6.9821-4.7009-2.3995-1.8067-4.512-4.2499-7.1066-5.7582-5.1491-2.9932-11.8709-.8649-14.3774,4.5128-1.8238,3.9131-.3602,7.7998,.6989,11.6765,.7999-1.0501,1.5999-2.1002,2.3998-3.1503-7.3889-.9011-14.7778-1.8022-22.1666-2.7033-3.5346-.4311-6.8892-.8992-9.7351,1.9274-4.6858,4.6538-2.5686,13.2742,4.0302,14.6159,.2205-1.6295,.4411-3.259,.6616-4.8885-9.9609-.4027-11.9347,14.9687-2.136,16.9785,.2205-1.6295,.4411-3.259,.6616-4.8885-9.9609-.4027-11.9347,14.9687-2.136,16.9785,.2205-1.6295,.4411-3.259,.6616-4.8885-6.1648-.2598-10.2877,6.182-8.1516,11.8354,.9668,2.5586,3.1133,4.4063,5.7458,5.0761,4.3666,1.111,9.1857,1.2757,13.6458,2.0471,17.0418,2.9476,33.7762,7.3716,50.4426,11.9388,17.1355,4.6957,34.2955,9.9278,51.8288,12.9402,17.1359,2.9442,34.5942,3.7632,51.9426,2.7228,8.7909-.5272,17.5548-1.5254,26.2493-2.9226,6.314-1.0146,12.5357-2.4674,18.9084-3.0753,11.7547-1.1213,23.66-1.2093,35.2498-3.6898,5.1634-1.1051,10.3627-2.7262,14.9113-5.4648,3.0542-1.8388,9.5602-6.2706,8.8665-10.4725-.3933-2.3822-2.9504-3.9268-5.2624-3.672-3.0418,.3352-4.4787,3.2353-5.0243,5.9196-1.722,8.4711-2.5484,17.4001-3.4806,25.9958-.93,8.5757-1.3178,17.1976-2.1028,25.786-.8379,9.167-2.6053,18.1873-3.8422,27.302-2.3889,17.6048-3.0676,35.1854-1.1861,52.8736,3.622,34.0509,13.586,67.094,14.898,101.4398,.621,16.2572-.1667,32.729-3.6307,48.6603-3.5337,16.2519-10.7196,31.0372-18.3718,45.6966-4.0595,7.7768-8.2049,15.5137-11.9415,23.4535-2.9452,6.2582-6.548,13.5034-5.385,20.6327,1.3833,8.4793,9.8698,16.0102,17.7548,18.5521,3.3013,1.0643,7.3615,1.2251,9.9882-1.418,2.8809-2.8989,3.472-8.3959-.0117-10.9229-3.6002-2.6115-9.3192-1.9683-8.1419,3.4164,.8703,3.9805,3.2866,7.951,5.4116,11.3802,2.8543,4.6062,7.8782,6.9105,12.8698,8.568,6.1283,2.035,12.3463,4.1347,18.6322,5.6259,12.7767,3.031,27.0597,1.7247,33.2682-11.6297,2.7376-5.8884,2.6354-12.4053,2.054-18.7338-.7039-7.6617-1.555-15.2554-.6833-22.9481,.9038-7.9764,3.701-15.4864,7.3664-22.5806,3.7305-7.2202,7.2765-14.52,10.5017-21.9815,13.2339-30.6165,21.7848-63.1161,25.3288-96.2825,.9022-8.4432,1.5185-16.9397,1.697-25.4305,.1564-7.4379-.0196-16.3122-4.1979-22.7997-2.3896-3.7103-6.4865-4.7739-9.7639-1.4721-3.2008,3.2246-4.902,8.6386-5.0653,13.0896-.2908,7.9249,3.2577,15.541,4.8452,23.166,1.8283,8.7818,2.7941,17.7949,4.1704,26.6571,2.8263,18.1995,5.9365,36.3024,7.794,54.6395,1.7512,17.2878,2.2419,34.5784,2.9327,51.9232,.5845,14.6753-.1791,29.809,3.8576,44.0906,1.5618,5.5256,4.0264,13.3574,9.1973,16.5678,3.1415,1.9505,7.2366,1.9829,10.8116,1.9079,3.7958-.0797,7.8123-.4419,11.4444-1.6088,5.7277-1.8402,11.8432-7.6887,8.939-14.2397-1.503-3.3902-9.2028-7.8373-11.2346-2.531-1.321,3.4497,3.2885,7.316,5.4402,9.3347,3.8739,3.6343,7.5176,5.2933,13.0513,5.2155,7.7883-.1096,15.9046-1.9154,23.1122-4.7955,6.6986-2.6767,12.9124-6.2898,19.3841-9.4386,4.9905-2.4281,10.0696-5.0142,12.4826-10.3265,2.1937-4.8294,2.3981-11.1602-.3068-15.8395-2.2501-3.8926-6.2032-6.2537-9.9055-8.5702-5.0759-3.176-8.4633-6.3862-10.5149-12.1938-2.897-8.2008-4.0305-17.2376-5.5494-25.7737-1.5948-8.9625-3.0095-17.9561-4.338-26.9615-2.5938-17.5817-4.8555-35.2107-7.4916-52.7862-2.6453-17.6366-5.6714-35.2303-9.7487-52.5981-4.0594-17.2918-9.6527-33.9967-15.7208-50.6717-5.6857-15.624-11.3866-31.2705-15.1361-47.4959-.7209-3.1197-5.5211-1.7992-4.7996,1.3232Z"/><g><path d="M455.439,236.6299c-7.6756,1.9189-9.0651,1.4247-12.3352,1.3-3.2701-.1247-6.6085-1.033-9.112-3.1405,4.0674,3.5634,8.0149,9.1323,15.6905,10.2836,0,0-4.2216-7.2918,5.7567-8.4431Z"/><path d="M454.7774,234.2302c-3.4864,.8647-5.8792,1.4815-9.2937,1.3374-3.3744-.1424-6.9874-.3003-9.7321-2.5378-1.0409-.8486-2.5013-1.0182-3.5195,0-.9066,.9066-1.0113,2.6259,0,3.5195,2.2885,2.0222,4.3164,4.3204,6.7135,6.2227,2.9679,2.3552,6.3011,4.0983,10.0751,4.7009,2.0591,.3288,3.974-1.6265,2.8105-3.6559-.0501-.0874-.0958-.1778-.1393-.2686-.0206-.0429-.1033-.2973-.1427-.3128,.2036,.0802,.2472,.6937,.0541,.0903-.1088-.3401-.1991-.6777-.2838-1.0244-.1668-.6831-.0204,.3837-.017-.087,.0016-.2194-.0136-.441-.0133-.6611,.0001-.1085,.0361-.2321,.0254-.338,.0133,.132-.1576,.5353-.0243,.2528,.0918-.1945,.1359-.4729,.2008-.6803-.2159,.6898,.0538,.0183,.1695-.2012,.197-.3737-.2531,.2354-.0391,.06,.0941-.0772,.2276-.2134,.3004-.3045,.2702-.3385-.2387,.1401-.0027-.0146,.1388-.091,.2727-.1854,.4156-.2706,.1213-.0723,.2468-.1367,.371-.2038,.6082-.3284-.4437,.1408,.2537-.1193,.7914-.2952,1.6409-.5108,2.4795-.6152,1.3335-.1659,2.4887-1.025,2.4887-2.4887,0-1.216-1.1457-2.6558-2.4887-2.4887-3.9692,.4939-8.4223,2.0879-9.04,6.6073-.2581,1.8883,.1842,3.9232,1.1344,5.5806,.9368-1.2186,1.8737-2.4372,2.8105-3.6559-3.152-.5033-6.0118-1.8783-8.3185-3.7757-2.2155-1.8224-4.1269-3.9707-6.2738-5.8679l-3.5195,3.5195c6.647,5.4188,16.1175,4.4029,23.8685,2.4805,3.1073-.7707,1.791-5.572-1.3232-4.7996Z"/></g><path d="M134.5307,297.4856c-6.0811-.7416-12.1621-1.4832-18.2432-2.2248-.8634-.1053-1.7268-.2106-2.5902-.3159-1.3364-.163-2.4887,1.2605-2.4887,2.4887,0,1.4805,1.1484,2.3252,2.4887,2.4887,6.0811,.7416,12.1621,1.4832,18.2432,2.2248,.8634,.1053,1.7268,.2106,2.5902,.3159,1.3364,.163,2.4887-1.2605,2.4887-2.4887,0-1.4805-1.1484-2.3252-2.4887-2.4887h0Z"/><path d="M136.7564,285.511c-6.0811-.7416-12.1621-1.4832-18.2432-2.2248-.8634-.1053-1.7268-.2106-2.5902-.3159-1.3364-.163-2.4887,1.2605-2.4887,2.4887,0,1.4805,1.1484,2.3252,2.4887,2.4887,6.0811,.7416,12.1621,1.4832,18.2432,2.2248,.8634,.1053,1.7268,.2106,2.5902,.3159,1.3364,.163,2.4887-1.2605,2.4887-2.4887,0-1.4805-1.1484-2.3252-2.4887-2.4887h0Z"/><path d="M137.1427,272.9295c-6.0811-.7416-12.1621-1.4832-18.2432-2.2248-.8634-.1053-1.7268-.2106-2.5902-.3159-1.3364-.163-2.4887,1.2605-2.4887,2.4887,0,1.4805,1.1484,2.3252,2.4887,2.4887,6.0811,.7416,12.1621,1.4832,18.2432,2.2248,.8634,.1053,1.7268,.2106,2.5902,.3159,1.3364,.163,2.4887-1.2605,2.4887-2.4887,0-1.4805-1.1484-2.3252-2.4887-2.4887h0Z"/><path d="M415.549,664.3582c-2.807,.6634-5.0443,2.748-6.1768,5.3636-1.2795,2.955-1.0225,6.1253,.3153,9.0169,1.2493,2.7004,3.6862,5.4125,6.5027,6.5025,3.2518,1.2585,6.6408-.5736,7.056-4.0627,.118-.9918-.8513-2.2223-1.8271-2.3998-3.0537-.5555-5.6131,.8249-7.3278,3.3399-1.5807,2.3185-1.963,5.1566-1.5817,7.8823,.7924,5.6648,4.8466,10.426,10.212,12.3005,1.2689,.4433,2.7224-.5045,3.0614-1.7382,.3769-1.3716-.4647-2.6165-1.7382-3.0614-3.214-1.1229-5.6241-4.0031-6.4473-7.2705-.3617-1.4358-.444-3.0123,.1231-4.4101,.2835-.6988,.7466-1.4554,1.3611-1.9137,.3762-.2806,.7178-.3832,1.0143-.3293l-1.8271-2.3998c.0792-.6653,.167-.3524-.3977-.5955-.6744-.2903-1.2631-.8394-1.7764-1.3442-1.0963-1.0779-1.9842-2.3847-2.3921-3.8795-.6963-2.5511,.4196-5.5518,3.1695-6.2017,3.116-.7364,1.7968-5.5369-1.3232-4.7996h0Z"/><path d="M555.8786,648.3809c-.1322-1.9995-1.4591-3.5203-3.4568-3.8566-2.1166-.3563-4.0226,.6178-5.0783,2.4817-.9654,1.7043-1.0296,3.8374-1.0718,5.7455-.046,2.0745,.1383,4.237,.8999,6.1828,1.3566,3.466,4.6352,6.5652,8.6034,6.1385,2.1279-.2288,4.1295-1.5518,4.5618-3.7568,.4402-2.2455-.7309-4.1537-2.7983-4.9761-.8039-.3198-1.8413,.0681-2.4213,.64-3.3795,3.3325-2.3569,8.8993,.8694,11.9631,3.999,3.7976,10.0398,3.0994,14.9293,1.8593,3.1029-.7869,1.788-5.5886-1.3232-4.7996-3.0092,.7632-7.2612,1.6435-9.8294-.342-.9044-.6993-1.4363-1.6739-1.7166-2.8056-.0113-.0457-.0911-.5144-.0666-.3081,.0248,.2079-.0079-.262-.0078-.3069,.0005-.1687-.0003-.3358,.0118-.5044,.0294-.4089-.0778,.3172,.0167-.0772,.0385-.1606,.0782-.319,.1314-.4755,.1313-.3858-.1393,.2821,.0421-.0845,.2059-.416,.054-.1966,.4622-.5991-.8071,.2133-1.6142,.4267-2.4213,.64-.4255-.1692-.7246-.3614-.7366-.8176-.0013-.0515,.1921-.3603,.214-.2973,.08,.23-1.2906,.0103-1.3523-.0131-1.4454-.5484-2.3351-2.0442-2.7284-3.4676-.5139-1.86-.4959-4.1253-.2442-5.9376,.0315-.2271,.122-.7036,.2388-1.004,.0261-.067,.1945-.2077,.1829-.3342,.0055,.0605-.1269,.0743-.1256,.1011,.0008,.0156-.3228,.1235,.0534-.0052-.1265,.0433-.2624,.0456-.3866-.0081,.5412,.2338-.008-.0426-.0301-.0956-.1809-.4339-.343-.0261-.3994-.8793,.0887,1.3413,1.0803,2.4887,2.4887,2.4887,1.2784,0,2.5778-1.1405,2.4887-2.4887h0Z"/><g><path d="M422.7752,198.1889c-2.5283,.6641-4.5667,2.9088-4.9847,5.4892-.3544,2.1876,.3811,4.4213,1.4547,6.3599,1.9134,3.4553,5.6691,6.0763,5.0229,10.4579-.3667,2.4863-2.0936,4.7285-4.404,5.7177-2.0847,.8926-5.1528,.293-5.6191-1.9262-.0851,1.5795-1.2993,2.9874-2.8057,3.4699-1.5064,.4826-3.2186,.1008-4.4951-.8333-.7927-.5801-1.4506-1.393-1.6746-2.3493-.2361-1.0082,.0232-2.0559,.1902-3.0778,1.0666-6.5242-1.6554-12.9889-3.9572-19.186s-4.2158-13.1839-1.6412-19.2728c.6756-1.5978,1.6811-3.1058,3.122-4.0719s3.3636-1.3136,4.9483-.6077c-.6689-1.22-1.7272-2.2178-2.2374-3.5122s-.1592-3.1274,1.1794-3.507c1.5802-.448,2.8025,1.3595,3.4506,2.8687,.0332-1.9069,.4894-3.8052,1.3262-5.5189,.2393-.4902,.5351-.9913,1.0181-1.2447,1.0318-.5414,2.3365,.4178,2.5959,1.5538s-.1866,2.3013-.6245,3.3811c10.6639-9.2154,23.9601-15.0851,37.7242-18.117,5.6336-1.2409,11.5936-2.0114,17.1056-.31,2.1865,.6749,4.4206,1.9043,5.2726,4.0281,.852,2.1238-.544,5.1157-2.8314,5.0555,2.8016-.9908,6.1829,.2415,7.8047,2.7316,1.6218,2.49,1.428,5.9846-.349,8.3664s-4.9742,3.5629-7.9012,3.0503c3.1032,.5992,5.6771,3.3203,6.1029,6.4521,.1717,1.263-.0111,2.642-.8283,3.6202-.5908,.7072-1.4494,1.1351-2.3156,1.4495-5.5648,2.0199-9.1438-1.5878-14.3165-1.5874-6.1857,.0004-12.3911,1.296-18.0715,3.7389-1.7878,.7689-3.6612,1.7881-4.4303,3.5758-.3983,.9258-.4508,1.9611-.4337,2.9689,.088,5.178,1.6998,10.9697-1.395,15.1219,1.0489-1.4073-3.5763-8.7204-4.4085-9.9852-1.9543-2.9702-4.7279-5.3654-8.5938-4.35Z"/><path d="M422.1136,195.7891c-3.7661,1.105-6.5575,4.3868-6.8684,8.327-.3067,3.8879,1.7374,7.3111,4.0072,10.2692,1.6305,2.1249,3.4727,4.4824,2.0755,7.2222-.5814,1.1401-1.6854,2.2342-2.9833,2.4792-.3239,.0611-.9362,.0537-1.3757-.1124-.2288-.0865-.247-.0617-.324-.3485-.7723-2.8757-4.6092-2.0005-4.8885,.6616-.0905,.8625-1.2385,1.2765-1.9892,1.1847-1.5378-.188-2.2243-1.2175-2.0213-2.6537,.2892-2.0464,.5361-4.0164,.3665-6.0873-.1741-2.1255-.578-4.2289-1.1489-6.2821-2.0677-7.4367-6.6112-14.8356-5.7567-22.8096,.306-2.8552,2.197-8.3847,6.0634-6.8812,2.0997,.8165,3.829-1.9122,2.8105-3.6559-.45-.7703-1.0103-1.4557-1.5085-2.1929-.0334-.0494-.8687-1.6369-.6006-1.5655,.2145,.0571-.9731,.7883-.9012,.3419,.0057-.0357,.5038,.607,.4681,.5556,.2606,.3756,.4502,.8075,.6369,1.2226,1.0755,2.3911,4.5595,1.0083,4.6376-1.2561,.0576-1.6707,.595-3.0126,1.1378-4.5562l.1712-.2836c-.3341,.4102-.7532,.5078-1.2571,.2926,.0124-.0101,.0087-.0097-.0001-.0011-.0593,.0575-.0883,.5191-.1084,.6008-.1233,.5004-.3255,.9798-.5161,1.4571-.4019,1.0065,.269,2.2989,1.1437,2.8105,1.0021,.5862,2.1708,.3367,3.0158-.3891,6.7736-5.818,14.6905-10.3034,23.0321-13.4552,4.2267-1.597,8.5688-2.8843,12.9749-3.8832,4.5199-1.0247,9.3591-1.8824,13.9821-1.0369,1.8943,.3464,4.4248,.8752,5.6817,2.5058,.4809,.6239,.5288,1.0094,.3616,1.5609-.0351,.1158-.2527,.539-.2747,.5657-.185,.2249-.1343,.1475-.2465,.151,.2205,1.6295,.4411,3.259,.6616,4.8885,2.87-.921,5.7553,1.1416,5.7626,4.1848,.0077,3.2062-3.055,5.6387-6.2081,5.1639-1.3274-.1999-2.6754,.3334-3.0614,1.7382-.3422,1.2455,.4196,2.7718,1.7382,3.0614,1.7901,.3931,3.3443,1.554,4.0313,3.3002,.2333,.593,.3948,1.3688,.2902,2.0075-.1697,1.0358-1.0635,1.3445-1.9794,1.6162-1.9486,.578-3.797,.2327-5.7003-.3371-2.1164-.6335-4.1674-1.3162-6.3861-1.4994-2.6183-.2162-5.3457,.1222-7.9348,.4951-2.6945,.3881-5.3516,1.0016-7.9389,1.85-2.3101,.7574-4.8424,1.5898-6.852,2.9933-2.2815,1.5934-3.5032,3.727-3.6411,6.5252-.2362,4.7917,1.9628,10.4724-1.0641,14.7332,1.4326,.8374,2.8652,1.6748,4.2978,2.5122,1.1225-1.8126,.108-4.1044-.661-5.837-.8079-1.8204-1.8155-3.5565-2.8569-5.2517-1.0654-1.7342-2.208-3.4819-3.7735-4.8078-2.4511-2.0759-5.3812-2.8348-8.5214-2.0945-3.1164,.7346-1.7971,5.5351,1.3232,4.7996,3.3249-.7838,5.2917,2.3484,6.79,4.8046,.8362,1.3708,1.6392,2.7672,2.3429,4.2113,.3694,.7579,.4394,.8416,.7114,1.7077,.0834,.2655,.1021,.6,.2123,.8481-.1408-.317-.0898-.5291,.1352-.8923-.7078,1.1428-.2459,2.7389,.8928,3.405,1.2481,.73,2.6243,.2061,3.405-.8928,3.1066-4.373,2.1077-9.8235,1.8007-14.8085-.0665-1.0804-.2856-2.4431,.1285-3.4737,.3654-.9092,1.2766-1.4235,2.0986-1.8599,2.3576-1.2518,5.0249-2.0525,7.6015-2.7078,2.72-.6918,5.4863-1.1215,8.2893-1.2653,2.4836-.1274,4.5703,.1484,6.9371,.8881,2.2242,.6952,4.5232,1.3929,6.8841,1.2345,2.7268-.183,5.9089-1.1422,7.4492-3.58,3.3624-5.3215-1.5815-12.2358-6.9884-13.4232-.4411,1.5999-.8821,3.1997-1.3232,4.7996,6.2788,.9454,12.5114-3.248,12.5087-9.9635-.0025-6.1523-6.1052-10.8962-12.0631-8.9844-2.5839,.8292-2.2503,4.9791,.6616,4.8885,2.5424-.0791,4.5475-1.8212,5.28-4.2255,.7544-2.4762-.0769-5.0249-1.8644-6.8335-3.8526-3.898-10.6114-4.2899-15.7305-3.8597-5.5894,.4697-11.1449,1.8645-16.4829,3.547-5.1778,1.632-10.2421,3.6945-15.0601,6.1991-5.4367,2.8264-10.5247,6.2753-15.1728,10.2676,1.3865,.8071,2.773,1.6142,4.1595,2.4213,.7312-1.8312,1.1946-3.9114,.2072-5.748-.8825-1.6414-2.7713-2.7877-4.658-2.4026-3.7271,.7607-4.645,6.1728-4.7533,9.3179,1.5459-.4187,3.0917-.8374,4.6376-1.2561-.6665-1.4816-1.6727-2.9398-3.1597-3.6872-1.726-.8675-3.817-.4895-5.108,.9496-1.1981,1.3355-1.4606,3.3157-1.0071,5.0086,.4515,1.6852,1.728,2.9254,2.5844,4.3916,.9368-1.2186,1.8737-2.4372,2.8105-3.6559-5.3481-2.0797-9.8222,2.6277-11.4487,7.2348-1.7182,4.8668-.9936,10.2687,.3996,15.1174,1.4389,5.0079,3.7456,9.7275,4.9688,14.8035,.5709,2.3694,.8686,4.8098,.6051,7.2451-.1361,1.258-.5076,2.5058-.4098,3.7807,.106,1.3819,.6478,2.6015,1.5413,3.6536,1.816,2.1384,4.9436,3.1533,7.6611,2.4146,2.7835-.7566,4.5307-3.1346,4.823-5.9211-1.6295,.2205-3.259,.4411-4.8885,.6616,1.1166,4.1575,6.1837,4.9834,9.6009,3.2638,3.6929-1.8583,5.8781-6.0855,5.2473-10.156-.561-3.6205-3.3564-5.9714-5.1311-8.9806-.9321-1.5806-1.7417-3.5812-1.2188-5.4309,.4238-1.4993,1.6183-2.6238,3.0932-3.0565,3.067-.8999,1.7618-5.7047-1.3232-4.7996Z"/></g><path d="M461.5057,202.0428c-.6886,1.5466-.577,3.2427,.4046,4.6529,.9275,1.3324,2.1909,2.1835,3.7253,2.6779,.2915,.0939,.5811,.1945,.8725,.2882,.3629,.1167-.1869-.1201,.1136,.0463,.1564,.0865,.3142,.1638,.4591,.27-.2268-.1663-.0508-.0262,.0474,.091-.1252-.1629-.1375-.1649-.0368-.0059l-.0597-.1426c.045,.1884,.0519,.1736,.0206-.0441,.0074,.0901,.0084,.1802,.0029,.2705-.0024-.2784-.001-.0778-.0433,.0984-.0765,.3185,.1236-.1286-.0617,.1183-.0477,.0824-.0993,.1622-.1551,.2395,.1132-.1477,.1078-.1505-.0162-.0086-.054,.044-.3707,.2753-.1215,.1164-.1431,.0912-.2857,.1729-.4362,.2514-.18,.0851-.2023,.0955-.0669,.0311-.0792,.0296-.1591,.0569-.2399,.0819-.1891,.0608-.3806,.1125-.5739,.1581-.3881,.0916-.7816,.1582-1.1747,.2242-.8583,.1441-1.4151,1.2489-1.1588,2.0409,.3001,.9273,1.1212,1.3132,2.0409,1.1588,1.7754-.298,3.5367-.8253,4.6122-2.3795,1.0866-1.5703,.9159-3.7595-.633-4.9562-.6304-.4871-1.3501-.7745-2.1054-1.0188-.3117-.1008-.6228-.2008-.9317-.3101-.111-.0425-.0891-.0341,.0656,.0253-.0874-.042-.1735-.0867-.2581-.1341-.1497-.0837-.2927-.1768-.4336-.2744-.0948-.0682-.0806-.0561,.0428,.0364-.0758-.0624-.1497-.1271-.2218-.1939-.1249-.1159-.2312-.2547-.3568-.3682-.0758-.09-.0654-.0721,.0312,.0538-.0572-.0768-.1118-.1555-.1638-.2359-.09-.1394-.1591-.2882-.2422-.4309-.0518-.1093-.0416-.0834,.0307,.0777-.0317-.0855-.0597-.1722-.0842-.2601-.0242-.0869-.0445-.1747-.0609-.2633,.022,.198,.0282,.2343,.0187,.109,.0173-.0742,.0524-.5899-.0291-.1582,.0156-.0828,.1963-.6049,.0421-.2586,.3521-.7909,.2562-1.8202-.5952-2.27-.7224-.3817-1.8931-.2513-2.27,.5952h0Z"/><path d="M449.4807,198.7391c.2506-.1599,.5091-.2987,.7766-.428,.2026-.0979-.0092,.0273-.0909,.0364,.0652-.0073,.1449-.0559,.2072-.0782,.139-.0498,.2799-.0948,.422-.135,.2862-.0809,.5803-.1133,.8674-.1838-.0846,.0208-.3372,.0358-.1104,.0199,.0739-.0052,.1475-.0127,.2214-.0173,.1663-.0103,.333-.0143,.4996-.0125,.1481,.0016,.2961,.0079,.4438,.0191,.0737,.0056,.1474,.0156,.2212,.0203,.225,.0143-.3321-.0588-.1109-.0155,.2914,.0571,.5796,.1106,.8649,.1953,.1417,.0421,.2818,.0888,.4203,.1404,.0464,.0173,.2867,.1149,.0589,.0193-.2277-.0956,.0099,.0077,.0547,.0291,.2845,.1353,.5555,.2933,.8172,.4683,.7232,.4836,1.8687,.1642,2.27-.5952,.4414-.8354,.1766-1.7539-.5952-2.27-2.6109-1.7461-6.2699-1.7641-8.9126-.0777-.7309,.4664-1.0939,1.4965-.5952,2.27,.4714,.7312,1.4874,1.0946,2.27,.5952h0Z"/><path d="M467.1787,198.4847c.3401-.209,.6936-.3917,1.0605-.5488l-.3963,.1673c.6351-.2656,1.2975-.4483,1.979-.5452l-.4411,.0593c.2416-.0322,.4838-.054,.7273-.0652,.4375-.0202,.8585-.1713,1.1732-.4859,.2878-.2878,.5045-.7599,.4859-1.1732-.0192-.4291-.1602-.8741-.4859-1.1732-.3159-.29-.7315-.5063-1.1732-.4859-1.6226,.0748-3.2166,.5331-4.6041,1.3858-.3605,.2215-.6492,.5803-.7625,.9915-.1094,.3971-.06,.926,.1673,1.2784,.2284,.3543,.5685,.6661,.9915,.7625,.4302,.098,.8933,.0694,1.2784-.1673h0Z"/><path d="M145.5214,263.4579c-4.3816,8.7078-3.9822,19.4243,1.2899,27.6743,1.7197,2.6911,6.0294,.1976,4.2978-2.5122-4.2892-6.712-4.8896-15.4962-1.2899-22.65,1.4361-2.854-2.8562-5.3771-4.2978-2.5122h0Z"/><path d="M728.0905,295.7854c6.0811-.7416,12.1621-1.4832,18.2432-2.2248,.8634-.1053,1.7268-.2106,2.5902-.3159,1.334-.1627,2.4887-1.0274,2.4887-2.4887,0-1.2187-1.1454-2.6525-2.4887-2.4887-6.0811,.7416-12.1621,1.4832-18.2432,2.2248-.8634,.1053-1.7268,.2106-2.5902,.3159-1.334,.1627-2.4887,1.0274-2.4887,2.4887,0,1.2187,1.1454,2.6525,2.4887,2.4887h0Z"/><path d="M725.8648,283.8108c6.0811-.7416,12.1621-1.4832,18.2432-2.2248,.8634-.1053,1.7268-.2106,2.5902-.3159,1.334-.1627,2.4887-1.0274,2.4887-2.4887,0-1.2187-1.1454-2.6525-2.4887-2.4887-6.0811,.7416-12.1621,1.4832-18.2432,2.2248-.8634,.1053-1.7268,.2106-2.5902,.3159-1.334,.1627-2.4887,1.0274-2.4887,2.4887,0,1.2187,1.1454,2.6525,2.4887,2.4887h0Z"/><path d="M725.4785,271.2293c6.0811-.7416,12.1621-1.4832,18.2432-2.2248,.8634-.1053,1.7268-.2106,2.5902-.3159,1.334-.1627,2.4887-1.0274,2.4887-2.4887,0-1.2187-1.1454-2.6525-2.4887-2.4887-6.0811,.7416-12.1621,1.4832-18.2432,2.2248-.8634,.1053-1.7268,.2106-2.5902,.3159-1.334,.1627-2.4887,1.0274-2.4887,2.4887,0,1.2187,1.1454,2.6525,2.4887,2.4887h0Z"/><path d="M712.802,259.2925c3.5996,7.1538,2.9993,15.938-1.2899,22.65-1.7299,2.7071,2.5762,5.2062,4.2978,2.5122,5.2722-8.2502,5.6716-18.9665,1.2899-27.6743-1.44-2.8619-5.7353-.3447-4.2978,2.5122h0Z"/><g><path d="M451.1046,218.7685c-1.9531,2.8774,3.3627,4.3494,4.1995,1.0631,.486-1.9086-.9135-2.5433-2.2891-2.2639-.7448,.1513-1.4826,.5706-1.9104,1.2008Z"/><path d="M449.672,217.9311c-.3981,.5951-.6496,1.3186-.6546,2.0388-.0054,.7944,.3061,1.4834,.798,2.0868,.7277,.8926,2.015,1.3362,3.1409,1.3073,1.4058-.036,2.6867-.7179,3.447-1.9098,.1972-.3092,.3407-.6623,.4515-1.01,.1409-.4422,.2201-.9369,.2058-1.4002-.0336-1.0896-.5311-2.0585-1.4494-2.6585-.8608-.5625-1.9103-.604-2.8917-.4437-1.2478,.2038-2.333,.9678-3.0476,1.9894-.235,.336-.2724,.8966-.1673,1.2784,.106,.3848,.4035,.8019,.7625,.9915,.385,.2034,.8515,.3054,1.2784,.1673,.4301-.1392,.7323-.3918,.9915-.7625,.0245-.036,.0499-.0713,.0763-.106l-.2594,.3358c.1501-.1913,.3209-.3574,.5131-.506l-.3358,.2594c.2155-.1591,.4454-.289,.6913-.3948l-.3963,.1673c.266-.1083,.5397-.1852,.8238-.2273l-.4411,.0593c.2519-.0333,.5036-.0386,.7559-.0074l-.4411-.0593c.1761,.0252,.3463,.0675,.5118,.133l-.3963-.1673c.13,.0551,.2509,.1224,.3644,.2065l-.3358-.2594c.0988,.0776,.1858,.1643,.2632,.2632l-.2594-.3358c.0685,.0935,.1245,.1916,.171,.2977l-.1673-.3963c.0533,.1325,.0881,.2679,.1092,.409l-.0593-.4411c.0249,.2042,.0196,.406-.0052,.6099l.0593-.4411c-.0393,.2741-.1073,.5413-.2132,.7972l.1673-.3963c-.084,.1944-.1882,.3765-.3162,.5453l.2594-.3358c-.1208,.1539-.2575,.291-.4116,.4115l.3358-.2594c-.159,.1204-.3302,.2196-.5131,.2989l.3963-.1673c-.2129,.0887-.4343,.1481-.6626,.1809l.4411-.0593c-.2481,.0324-.4972,.0327-.7455,.0019l.4411,.0593c-.2402-.0326-.4739-.0936-.6981-.1859l.3963,.1673c-.1832-.0782-.3554-.1758-.5135-.2972l.3358,.2594c-.1179-.0934-.2239-.1974-.317-.3155l.2594,.3358c-.0771-.1016-.1419-.2095-.1938-.3261l.1673,.3963c-.0504-.1195-.0849-.2425-.1041-.3708l.0593,.4411c-.0177-.1375-.0171-.274-.0007-.4116l-.0593,.4411c.0251-.1804,.076-.3525,.1457-.5205l-.1673,.3963c.0743-.1708,.1654-.3314,.2689-.4861,.2308-.345,.2747-.8882,.1673-1.2784-.106-.3848-.4035-.8019-.7625-.9915-.8355-.4414-1.7537-.1765-2.27,.5952Z"/></g><polygon points="100.0926 842.6917 164.7981 764.569 211.2534 824.029 282.0424 757.1907 324.6264 814.0467 367.2103 776.2874 398.7336 807.9705 444.6358 767.6071 504.364 831.4073 548.6071 786.2697 591.7441 821.425 632.1159 765.871 675.253 824.029 715.6248 774.5513 736.0872 802.3283 769.8226 747.2084 810.1944 809.7065 860.521 747.2084 903.105 807.9705 931.863 768.9091 975 847.0319 100.0926 842.6917" style="fill:#f953b2;"/><path d="M35.3171,436.6771c-6.4184,0-11.3253,5.8164-10.1396,12.1244,6.8397,36.388,43.9665,64.195,88.741,64.195s81.9013-27.807,88.741-64.195c1.1857-6.308-3.7211-12.1244-10.1396-12.1244H35.3171Z" style="fill:#f4d13b;"/><path d="M64.4216,436.6771v34.8603c0,5.182,4.2007,9.3828,9.3826,9.3828h81.3348c5.1819,0,9.3826-4.2007,9.3826-9.3828v-34.8603H64.4216Z" style="fill:#6966ed;"/><path d="M683.5797,425.0632c-.1954,1.6332-.3077,3.2918-.3077,4.9773,0,22.9076,18.5703,41.4779,41.4779,41.4779,12.3166,0,23.3735-5.3735,30.9702-13.8978v2.6345c0,4.6933,3.8047,8.4981,8.4981,8.4981h16.7391c4.6934,0,8.4981-3.8048,8.4981-8.4981v-35.192h-105.8757Z" style="fill:#6966ed;"/></g><path d="M72.7731,527.0121c13.7635,8.7258,30.1511,13.1256,46.4345,12.4614,3.1917-.1302,3.2083-5.1082,0-4.9773-15.4687,.631-30.8467-3.4921-43.9224-11.7818-2.7132-1.7201-5.2131,2.5854-2.5122,4.2978h0Z" style="fill:#6966ed;"/><path d="M50.3435,531.8428c2.7957,2.7957,5.5913,5.5913,8.387,8.387,.9218,.9218,2.6103,.9905,3.5195,0,.912-.9935,.9837-2.5358,0-3.5195-2.7957-2.7957-5.5913-5.5913-8.387-8.387-.9218-.9218-2.6103-.9905-3.5195,0-.912,.9935-.9837,2.5358,0,3.5195h0Z" style="fill:#6966ed;"/><path d="M852.9083,415.1468c3.9114-1.127,7.8228-2.2541,11.7342-3.3811,1.25-.3602,2.1555-1.7718,1.7382-3.0614-.4112-1.2708-1.7213-2.1243-3.0614-1.7382-3.9114,1.127-7.8228,2.2541-11.7342,3.3811-1.25,.3602-2.1555,1.7718-1.7382,3.0614,.4112,1.2708,1.7213,2.1243,3.0614,1.7382h0Z" style="fill:#6966ed;"/><path d="M850.8152,441.8876c3.387,2.1866,6.7741,4.3732,10.1611,6.5598,1.0958,.7074,2.7962,.2595,3.405-.8928,.6536-1.237,.2767-2.6499-.8928-3.405-3.387-2.1866-6.7741-4.3732-10.1611-6.5598-1.0958-.7074-2.7962-.2595-3.405,.8928-.6536,1.237-.2767,2.6499,.8928,3.405h0Z" style="fill:#6966ed;"/><path d="M840.5637,382.5542c2.2365-2.7957,4.4731-5.5913,6.7096-8.387,.4275-.5344,.7289-1.0475,.7289-1.7598,0-.6104-.2711-1.3395-.7289-1.7598-.9029-.8289-2.651-1.0856-3.5195,0-2.2365,2.7957-4.4731,5.5913-6.7096,8.387-.4275,.5344-.7289,1.0475-.7289,1.7598,0,.6104,.2711,1.3395,.7289,1.7598,.9029,.8289,2.651,1.0856,3.5195,0h0Z" style="fill:#6966ed;"/></svg>