<?xml version="1.0" encoding="UTF-8"?><svg id="Layer_2" xmlns="http://www.w3.org/2000/svg" width="1000" height="1000" viewBox="0 0 1000 1000"><g><rect x="629.4991" y="111.9905" width="258.4095" height="377.437" style="fill:#f953b2;"/><polygon points="853.2582 195.5323 853.2582 518.7573 594.8487 518.7573 594.8487 141.3203 806.5245 141.3203 853.2582 195.5323" style="fill:#f4d13b;"/><g><path d="M636.3348,327.9324h143.789c10.1927,0,20.3855,0,30.5782,0h3.0428c3.402,0,3.4076-5.2871,0-5.2871h-66.2987c-13.306,0-26.6119,0-39.9179,0h-71.1935c-3.402,0-3.4076,5.2871,0,5.2871h0Z" style="fill:#fff;"/><path d="M636.3348,354.3677h106.2166c12.5241,0,25.0483,0,37.5724,0h33.621c3.402,0,3.4076-5.2871,0-5.2871-9.7806,0-19.5612,0-29.3418,0h-114.4473c-10.1927,0-20.3855,0-30.5782,0h-3.0428c-3.402,0-3.4076,5.2871,0,5.2871h0Z" style="fill:#fff;"/><path d="M636.3348,380.803h66.2987c13.306,0,26.6119,0,39.9179,0h71.1935c3.402,0,3.4076-5.2871,0-5.2871h-29.3418c-12.319,0-24.638,0-36.957,0h-111.1113c-3.402,0-3.4076,5.2871,0,5.2871h0Z" style="fill:#fff;"/><path d="M636.3348,407.2382c9.7806,0,19.5612,0,29.3418,0h148.0683c3.402,0,3.4076-5.2871,0-5.2871h-66.2987c-13.306,0-26.6119,0-39.9179,0h-71.1935c-3.402,0-3.4076,5.2871,0,5.2871h0Z" style="fill:#fff;"/><path d="M636.3348,433.6735h143.789c10.1927,0,20.3855,0,30.5782,0h3.0428c3.402,0,3.4076-5.2871,0-5.2871-9.7806,0-19.5612,0-29.3418,0h-76.8748c-12.5241,0-25.0483,0-37.5724,0h-33.621c-3.402,0-3.4076,5.2871,0,5.2871h0Z" style="fill:#fff;"/><path d="M711.5284,460.1088c25.9098,0,51.8196,0,77.7294,0h24.487c3.402,0,3.4076-5.2871,0-5.2871-25.9098,0-51.8196,0-77.7294,0h-24.487c-3.402,0-3.4076,5.2871,0,5.2871h0Z" style="fill:#fff;"/></g><circle cx="587.7722" cy="254.1474" r="83.418" style="fill:#6966ed;"/><circle cx="587.7722" cy="254.1474" r="59.0388" style="fill:#fff;"/><path d="M574.6524,335.5093h25.8478v95.167c0,7.1329-5.791,12.9239-12.9239,12.9239h0c-7.1329,0-12.9239-5.791-12.9239-12.9239v-95.167h0Z" style="fill:#6966ed;"/><path d="M592.1537,365.4065c-.1985-5.3164-1.6045-11.7255,3.1942-15.5,2.2013-1.7314,4.7954-2.1767,7.5049-2.1767h17.0501c1.7463,0,3.6168-.1577,5.3528,.097,4.0253,.5905,7.5887,3.6186,8.2921,7.7063,.3625,2.1067,.1087,4.4431,.1087,6.5672,0,2.854,.0443,5.7118,0,8.5655-.0691,4.4558-3.8425,7.5184-8.1396,7.6046-3.4013,.0683-3.407,5.2187,0,5.2871,4.1712,.0837,8.1396,3.0959,8.1396,7.5166s-3.9684,7.4329-8.1396,7.5166c-3.4013,.0683-3.407,5.2187,0,5.2871,4.1712,.0837,8.1396,3.0959,8.1396,7.5166s-3.9684,7.4329-8.1396,7.5166c-3.4013,.0683-3.4071,5.219,0,5.2871,3.7061,.0741,7.3036,2.4067,8.0222,6.217,.6817,3.6143-1.6826,6.9842-5.0268,8.2303-1.5858,.5909-3.1806,.5845-4.8326,.6132l-6.1039,.106c-8.7067,.1512-17.4141,.3516-26.1214,.4526-1.5517,.018-3.1054,.2419-4.5759,.7528-3.5423,1.2309-6.3939,3.588-8.5783,6.6077-3.4887,4.8228-4.7918,10.973-5.3577,16.7859-1.0245,10.5234,.5347,21.297,2.5987,31.5996,3.5693,17.817,9.3354,35.1841,15.7001,52.1747,2.8068,7.4929,5.8962,14.7983,7.5564,22.6541,1.279,6.052,1.8424,12.1607,1.7371,18.4103-.207,12.2825-3.1667,24.5988-8.5872,35.665-5.5901,11.4126-13.6205,21.4543-23.4907,29.4579-10.545,8.5508-23.1218,14.4289-36.2935,17.5839-15.6488,3.7483-32.0849,3.6127-47.8668,.741-9.135-1.6623-18.5938-3.8976-27.0919-7.6919-7.8451-3.5027-15.4765-7.5032-22.7354-12.1042-12.1351-7.6917-23.1444-17.1428-32.1077-28.4021-7.6776-9.6443-13.692-20.6944-17.8126-32.1692-3.9377-10.9653-6.3545-22.6416-7.5138-33.9387-1.1499-11.2054-1.2471-22.4956-.765-33.742,.4423-10.3159,1.3877-20.5983,2.3642-30.8747,.8164-8.5913,1.7238-17.2049,1.8878-25.8397,.1184-6.2381,.0156-12.988-2.2724-18.8837-.948-2.4429-2.2244-4.7245-4.1051-6.579-2.425-2.3913-6.166,1.3448-3.7385,3.7385,.1927,.19,.3806,.3845,.5614,.5859,.121,.1348,.698,.8449,.3921,.4518-.3151-.405,.2234,.3175,.3152,.4531,.1692,.2501,.3302,.5057,.4839,.7657,.2968,.5021,.5526,1.0222,.8057,1.5471,.065,.1348,.1203,.2742,.1822,.4104,.0442,.0973-.2263-.6068-.0431-.0904,.1111,.3133,.237,.6212,.3453,.9358,.4493,1.3049,.7812,2.6485,1.038,4.0037,.0665,.3509,.1276,.7028,.1842,1.0554,.0289,.1798,.0533,.3605,.0831,.5402,.1091,.6585-.0307-.2846,.014,.0835,.0925,.7623,.1775,1.5247,.242,2.29,.6539,7.7579,.0172,15.617-.6373,23.3526-.8319,9.8317-1.8995,19.6417-2.6363,29.4817-.8303,11.089-1.2807,22.2192-.8759,33.3375,.4313,11.8468,1.8215,23.7135,4.6565,35.236,2.9716,12.0777,7.5969,23.7986,13.9863,34.4833,7.0676,11.8188,16.2534,22.3164,26.8401,31.1049,6.1155,5.0768,12.6483,9.6414,19.4829,13.6958,3.6647,2.1739,7.4135,4.2051,11.2269,6.1057,4.2088,2.0976,8.5147,4.266,12.9733,5.7755,17.0869,5.7847,35.266,9.0618,53.3432,8.1164,14.9934-.7842,29.804-4.48,43.1351-11.4539,11.9877-6.2711,22.4697-15.1525,30.6951-25.8811,7.8452-10.2326,13.4813-22.2086,16.3539-34.7807,2.9036-12.7078,3.0175-25.9685,.2711-38.7138-1.7298-8.0271-4.9453-15.5066-7.8038-23.174-3.5923-9.6354-6.9334-19.3709-9.8372-29.2372-3.8994-13.2494-7.2569-26.8853-8.0799-40.5013-.2634-4.3569-.2098-8.7036,.2629-13.0432,.0808-.7416-.0304,.1672,.028-.2349,.0265-.1828,.0523-.3658,.0801-.5484,.0674-.4428,.1409-.8847,.2214-1.3254,.1459-.7991,.3136-1.5944,.5078-2.3832,.343-1.3932,.7744-2.7576,1.2914-4.0957,.0486-.1259,.1022-.2499,.1517-.3754,.1381-.3505-.2892,.6101-.007,.0249,.1292-.268,.2458-.5421,.3763-.8097,.2546-.5221,.5281-1.035,.8228-1.5356,.2724-.4627,.5622-.9153,.8714-1.3544,.1411-.2003,.2911-.3938,.4346-.5922-.4862,.672-.1091,.1427,.1241-.1326,.5674-.6697,1.1887-1.2801,1.8501-1.8559,.1486-.1294,.3089-.2447,.4588-.3724-.5292,.4509-.3391,.2451,.0206,.0019,.3088-.2087,.6166-.4161,.938-.6054,.2987-.176,.604-.3407,.9154-.4932,.1322-.0647,.2688-.1213,.3999-.1878,.6056-.3069-.6085,.2021-.1207,.0499,.54-.1685,1.0578-.3839,1.6088-.5231,.3023-.0764,1.0778-.0724,1.3102-.2555-.4426,.3487-.7832,.0577-.1348,.0322,.141-.0055,.2818-.0201,.423-.0251,5.4239-.193,10.8664-.1776,16.2933-.2718,5.2711-.0915,10.5422-.183,15.8133-.2745,1.5094-.0262,3.0075-.0174,4.5053-.2416,4.2166-.6311,8.2629-3.3353,10.1257-7.2301,1.8835-3.9381,1.6338-8.7244-.8999-12.3349-2.6032-3.7095-6.7597-5.7492-11.26-5.8391v5.2871c7.0429-.1413,13.4135-5.4743,13.4266-12.8036,.0132-7.329-6.4038-12.6627-13.4266-12.8036v5.2871c7.0429-.1413,13.4135-5.4743,13.4266-12.8036,.0132-7.329-6.4038-12.6627-13.4266-12.8036v5.2871c5.5382-.1111,10.6429-3.2719,12.6469-8.5349,1.0708-2.8123,.7798-5.981,.7798-8.9368,0-2.9601,.0181-5.9208,0-8.8808-.0287-4.6936-2.193-8.9385-5.961-11.7356-5.3939-4.0041-12.6232-3.0267-18.9501-3.0267h-9.8282c-2.9705,0-5.8293,.0952-8.6271,1.285-5.2716,2.2418-9.0513,7.4409-9.0251,13.2535,.0126,2.8056,.2099,5.6213,.3145,8.4253,.1266,3.3918,5.4143,3.4083,5.2871,0h0Z"/><path d="M578.2504,365.4065c-.2895-6.164-3.7408-12.3066-8.1481-16.4541-7.8161-7.3554-17.5612-9.174-27.6199-5.9725-16.8155,5.3522-32.3053,18.2529-42.419,32.4516-15.9397,22.3777-17.6593,50.4868-19.8489,76.9555-1.431,17.2981-2.3846,34.6356-2.8583,51.9863-.4379,16.039-1.4157,32.586,.816,48.5271,.9098,6.4987,2.279,13.5266,5.7497,19.2072,1.9318,3.162,5.0097,6.6199,9.0004,6.7907,11.5072,.4923,9.2357-19.4644,7.4827-25.8766-1.8455-6.7503-5.0672-13.0146-7.6245-19.5016-2.9001-7.3566-4.3114-15.0631-5.5265-22.8512-2.5387-16.2718-2.4469-32.4583-2.59-48.866-.2566-29.4174-2.3734-59.6655-14.28-86.9583-6.2217-14.2617-14.8538-27.6895-24.6768-39.7271-5.0065-6.1352-10.294-12.0356-15.3161-18.1582-2.6545-3.2362-5.2286-6.533-7.6714-9.9324-1.5227-2.1189-3.0214-4.6575-5.8098-5.18-4.2218-.7911-7.5987,3.7914-4.7811,7.294,2.3598,2.9335,7.2347,3.3088,10.6865,3.6475,11.6395,1.1424,23.5942-2.5336,33.0582-9.3049,5.4941-3.931,10.1718-8.7536,14.1484-14.2027,2.0668-2.8321,4.0316-5.7631,5.842-8.7654,.9509-1.5771,1.6916-3.4725,2.7523-4.9587,1.3666-1.9147,3.9102-1.6491,6.0093-2.2654,6.8083-1.9991,3.0225-9.6854,1.8819-14.5853-1.9331-8.3045,.1617-16.0076,.7349-24.3202,.5667-8.2187-.0934-16.6169-1.2051-24.7628-.9829-7.2014-2.0817-14.7813-5.0542-21.47-4.9579-11.1562-15.1205-18.8632-26.0084-23.7576-23.5579-10.5901-50.9995-9.7919-73.9733,1.9927-11.5459,5.9225-21.7268,14.5619-29.4378,24.997-6.7138,9.0857-10.0385,19.3663-11.8636,30.3903-3.2596,19.6887-2.8195,42.0672-15.4445,58.7062-3.3768,4.4505-7.6168,8.2152-12.3423,11.1784-4.0172,2.5191-8.2327,4.5102-12.0652,7.3401-8.0244,5.9252-15.1054,13.0658-21.7839,20.4445-12.0569,13.3209-22.9971,27.7121-33.223,42.4758-4.0139,5.7951-7.3049,11.9713-10.4949,18.2642-6.6967,13.2106-12.4152,26.926-17.204,40.9395-9.752,28.5376-15.6218,58.3585-18.1301,88.3934-2.5049,29.9936-1.7359,60.4371,2.8319,90.2015,4.4493,28.9923,13.015,58.731,29.3298,83.4199,13.0414,19.7353,34.5766,31.462,56.7281,38.18,24.4431,7.4131,50.6638,9.724,76.1132,9.1846,31.2218-.6618,62.1737-5.9987,92.7331-12.0793,6.9733-1.3875,16.6211-2.9383,21.5147-8.6649,5.9466-6.9588-2.8913-14.7632-9.5781-16.1423-10.9852-2.2656-22.4732,2.2047-32.8984,5.1662-15.8039,4.4893-31.9301,7.82-48.1948,10.1211-32.7375,4.6318-66.0323,4.986-98.9668,2.4841-16.8968-1.2836-33.6557-3.4033-50.3292-6.4289-16.8303-3.054-33.5614-6.7771-50.4844-9.3028-11.0458-1.6485-21.9966-.4752-31.5901,5.577-10.5672,6.6665-18.1069,17.0423-25.6336,26.7699-18.1078,23.4025-36.0195,47.2986-49.3009,73.8539-6.4719,12.9402-11.8324,26.4958-15.3168,40.5541-2.6213,10.5757-8.0556,28.4784,2.4333,36.5601,10.868,8.3738,28.0092-.6824,38.0416-6.2525,13.7217-7.6184,26.7558-15.6328,42.1124-19.6462,15.8977-4.1549,31.1804-3.4019,46.8254,1.367,7.2604,2.2131,14.3632,4.9012,21.5673,7.2848,7.3846,2.4433,14.943,4.25,22.4141,6.3998,15.8452,4.5593,31.4914,9.8302,47.5212,13.7318,15.6586,3.8113,31.6478,5.7292,47.6882,7.0668,32.4406,2.705,65.1465,2.2412,97.4939-1.4204s64.3499-10.4452,95.3298-20.4895c27.5915-8.9457,54.73-20.3176,79.0273-36.3138,23.5705-15.5178,44.1886-35.7954,59.2991-59.703,14.2716-22.5802,21.4248-48.6789,16.4344-75.2696-4.0521-21.5911-15.9316-41.9681-34.2515-54.4697-16.5469-11.2917-36.8675-14.4086-56.5111-12.6104-3.3604,.3076-3.3926,5.5976,0,5.2871,19.1681-1.7547,38.6759,1.2037,54.6749,12.4664,10.5934,7.4574,18.7115,18.0098,24.2627,29.6391,2.8674,6.0071,4.8803,12.2843,6.264,18.7807,5.4357,25.5196-1.2775,50.7206-14.8404,72.5537-14.1954,22.8513-33.7636,42.4614-56.0327,57.4503-22.7634,15.3216-48.0963,26.4238-74.0179,35.1972-57.8932,19.5944-119.4372,27.7567-180.4486,24.7257-15.3212-.7611-30.762-2.0006-45.9101-4.4765-14.9755-2.4477-29.5724-6.6986-44.0713-11.093-14.2483-4.3185-28.7954-7.8751-42.9206-12.551-13.3472-4.4184-26.4864-9.8551-40.5749-11.4093-13.9691-1.5411-28.4193,1.3041-41.4769,6.2233-13.3156,5.0164-24.8526,13.0123-37.4918,19.3515-6.2829,3.1512-13.7336,6.4086-20.921,6.0286-8.0481-.4255-10.4861-6.9982-10.1487-14.1152,.6322-13.3358,5.1043-27.1367,9.8423-39.5169,10.0329-26.2155,25.7058-49.9272,42.2957-72.4019,8.0573-10.9154,16.1184-22.0356,25.0192-32.2836,6.835-7.8696,14.8442-15.0658,25.2721-17.45,5.8099-1.3283,11.7663-.9977,17.6081-.0815,7.7706,1.2187,15.5054,2.6709,23.2297,4.1511,15.4461,2.9597,30.8664,6.1139,46.4495,8.2852,30.1325,4.1986,60.834,5.6981,91.227,4.3307,30.5524-1.3746,61.0657-5.8733,90.4593-14.4186,9.0575-2.6332,20.7276-7.3926,30.1331-4.0695,2.3535,.8315,7.0955,3.9468,5.114,6.9362-1.6684,2.5171-6.019,3.7228-8.6864,4.5759-8.7083,2.7849-18.0449,4.0835-27.0027,5.7391-15.9158,2.9415-31.9137,5.4996-48.0271,7.0803-26.5533,2.6047-53.583,2.4717-79.9018-2.2645-21.8526-3.9325-44.4317-11.0868-61.5649-25.7671-9.3862-8.0425-15.8827-18.0938-21.465-29.0271-6.4429-12.6188-11.2768-26.0015-14.9091-39.6841-7.2792-27.4197-9.9069-56.0352-9.9068-84.3473,.0001-28.4617,3.0246-56.9306,9.334-84.6919,6.2507-27.5027,15.7149-54.3431,28.9029-79.3016,5.9249-11.213,13.2645-21.2939,20.9316-31.387,11.5587-15.216,24.0207-30.8823,39.2227-42.6413,7.4159-5.7363,16.1701-9.1123,22.857-15.8764,6.7896-6.8681,11.2102-15.5776,13.9203-24.7781,5.3042-18.0071,4.0645-37.3974,10.1735-55.1823,8.0119-23.3247,32.2149-39.8868,55.588-44.7949,11.9919-2.5182,24.5598-2.2182,36.4094,.9066,11.3127,2.9832,22.9746,8.3426,30.7161,17.3883,4.1658,4.8676,6.404,10.4705,7.7787,16.6607,1.7967,8.0903,2.8875,16.3199,3.2236,24.6011,.3193,7.8701-.6897,15.3028-1.5164,23.0965-.7656,7.2168,1.3189,13.146,2.5584,20.1282,.2194,1.2361,.3354,1.1037-.5058,1.7269-.641,.4749-1.9938,.4326-2.7929,.6135-1.1278,.2552-2.2549,.4874-3.2498,1.1044-2.5665,1.5918-3.6814,5.2966-5.1804,7.7826-3.5526,5.8917-7.5465,11.6132-12.521,16.3961-8.6901,8.3553-20.7118,13.9503-32.9262,13.4627-1.9501-.0778-3.9149-.2229-5.8323-.6008-.8359-.1648-1.7174-.3301-2.5142-.6422-1.1745-.46-2.0223-1.5407-.8864,1.1403,1.1637,2.7467,4.0621,5.5593,5.8968,7.9194,2.4416,3.1408,4.9707,6.2114,7.5346,9.2529,9.7314,11.5445,19.3184,22.8524,27.0204,35.9055,7.3071,12.384,12.7784,25.4053,16.1779,39.389,3.3466,13.7661,4.8824,27.8963,5.5911,42.0249,.7116,14.1857,.1764,28.3736,.6642,42.5566,.5064,14.7243,1.8047,30.6479,6.2125,44.7788,3.9084,12.5298,13.0025,24.9809,10.5538,38.6996-.6074,3.403-2.1201,7.3428-5.6383,4.0518-4.241-3.9672-5.5997-10.8607-6.6415-16.2912-2.8183-14.69-1.8043-30.2267-1.4996-45.0994,.3311-16.165,1.0786-32.3213,2.2408-48.4478,1.0934-15.1719,2.0497-30.5674,4.7111-45.5605,2.006-11.3012,5.3394-22.3919,11.1163-32.367,8.5614-14.7831,22.2271-26.9719,37.7397-34.1523,9.1693-4.2442,18.3948-5.4339,26.7468,1.2693,4.1172,3.3044,7.6967,9.1513,7.9185,13.8736,.1591,3.3876,5.4471,3.407,5.2871,0h0Z"/><path d="M613.3062,362.7629h-17.3317c-9.2132,0-18.4263,0-27.6395,0h-6.3641c-3.402,0-3.4076,5.2871,0,5.2871h51.3352c3.402,0,3.4076-5.2871,0-5.2871h0Z"/><path d="M223.6507,661.5443c-10.5715-.2026-21.095-1.3226-31.3192-4.0892-6.725-1.8197-13.1504-4.454-19.7375-6.6855-3.5674-1.2086-7.1919-2.0802-10.8782-2.8509-6.6489-1.3902-13.434-2.2535-20.1588-.8568-11.0233,2.2894-20.0091,9.9758-27.4704,18.0048-4.2203,4.5414-8.1431,9.3549-12.1333,14.0966-4.4871,5.3321-8.9741,10.6641-13.4612,15.9962-9.081,10.7911-18.1619,21.5821-27.2429,32.3732-5.689,6.7603-11.7384,13.131-17.6664,19.6772-6.2926,6.9489-12.6293,14.2441-17.0901,22.5427-1.914,3.5608-3.4713,7.3548-3.9784,11.387-.5822,4.6301,.8915,8.9391,4.5945,11.905,4.1996,3.3636,9.4159,4.6947,14.674,5.231,6.855,.6992,13.7659,.2626,20.5933-.5234,3.4626-.3987,6.9148-.8847,10.3661-1.3703,1.4151-.1991,2.1897-2.0026,1.8463-3.2519-.4184-1.5224-1.8324-2.0461-3.2519-1.8463-6.6737,.939-13.3689,1.8547-20.1151,2.027-5.5299,.1412-11.4019,.0555-16.6285-1.9736-1.9245-.7471-3.7554-1.8302-5.1338-3.2984-1.1159-1.1886-1.7725-2.7101-1.8122-4.3451-.0188-.7732,.0257-1.5502,.1233-2.3173-.0722,.5675,.1044-.5553,.1397-.7313,.0986-.4915,.2155-.9795,.3468-1.4633,.523-1.9274,1.0989-3.3406,1.8698-4.9375,3.8013-7.8742,9.5523-14.7084,15.316-21.2016,5.2623-5.9285,10.9144-11.5156,16.0194-17.582,8.8139-10.4737,17.6278-20.9474,26.4416-31.421,8.5602-10.1722,17.017-20.4432,25.7036-30.5078,6.7438-7.8135,14.3983-16.124,24.2785-19.8817,5.4169-2.0602,11.0402-2.424,16.7629-1.6507,4.6758,.6319,9.4011,1.6521,13.9211,3.0241,6.1487,1.8663,12.0677,4.4134,18.2049,6.3217,9.0415,2.8114,18.3988,4.401,27.8354,5.0859,3.0093,.2184,6.0241,.3423,9.0406,.4001,3.4035,.0652,3.4035-5.2218,0-5.2871h0Z"/><path d="M163.7354,727.929c-7.5512,20.5229-15.1176,41.1002-24.8879,60.696-8.7564,17.5623-19.3137,34.3578-32.7067,48.7744-7.3439,7.9052-15.4889,15.0514-24.4742,21.0384-1.1868,.7907-1.6992,2.3332-.9484,3.6168,.6892,1.1784,2.4234,1.7436,3.6168,.9484,16.4998-10.9938,30.2056-25.5709,41.5083-41.7803,12.2404-17.554,21.4941-36.9499,29.5706-56.7094,4.7491-11.619,9.0858-23.4003,13.4195-35.1787,.4931-1.3401-.552-2.8962-1.8463-3.2519-1.4753-.4054-2.757,.5014-3.2519,1.8463h0Z"/><path d="M587.906,383.5575h37.432c3.402,0,3.4076-5.2871,0-5.2871h-37.432c-3.402,0-3.4076,5.2871,0,5.2871h0Z"/><path d="M588.1733,403.8777h37.432c3.402,0,3.4076-5.2871,0-5.2871h-37.432c-3.402,0-3.4076,5.2871,0,5.2871h0Z"/><path d="M585.9328,424.1979h37.432c3.402,0,3.4076-5.2871,0-5.2871h-37.432c-3.402,0-3.4076,5.2871,0,5.2871h0Z"/><g><path d="M270.869,421.8654c23.6011,22.9355,60.3714,20.7937,85.9294,1.5886,9.5912-7.2072,17.1546-16.6547,24.0253-26.3951,6.4521-9.147,13.4968-18.4075,17.113-29.107,4.508-13.3385,4.9721-27.6735,4.8755-41.7528-.162-23.6063-1.7816-47.2024-4.8463-70.6094-.6242-4.7673-1.3082-9.6088-.5743-14.3604s3.1218-9.4958,7.3012-11.8725c2.5828-1.4687,5.6336-1.9237,8.6047-1.8843,11.9073,.1578,16.2769,9.2074,17.595,20.0353,.85,6.9822,1.115,14.0354,.7913,21.0617,1.5503-8.6711,3.223-17.4324,6.9461-25.4155,3.723-7.9831,9.7601-15.2273,17.8831-18.6345,8.5677-3.5937,15.6537-.8633,24.2171,.3362,8.157,1.1425,16.8758-.3285,23.5549-5.1483,6.6791-4.8198,10.941-13.242,9.7211-21.3878-.6313-4.2155-3.8317-8.8491-8.0422-8.1856,6.4279-6.2065,4.5465-16.951-3.1888-21.0045-6.8053-3.5662-10.7276,.7608-17.2377,1.6457-8.2161,1.1168-17.134-6.2308-23.6187-10.4289-8.3159-5.3835-16.4976-11.1562-25.7425-14.8704-20.5911-8.2725-44.7416-5.0427-64.1426,5.7292-17.7618,9.8618-37.6955,28.6134-44.1751,48.3369-3.5663,10.8555-7.1563,21.5262-9.8299,32.7107-2.6247,10.9797-5.3532,22.1455-11.1597,31.9521-5.5144,9.3133-13.5128,16.9008-21.9112,23.7282-17.4618,14.1954-37.1222,25.6943-53.3897,41.2439-13.6481,13.0458-33.6113,38.4191-26.53,58.7703,6.1672,17.7242,25.2669,32.8556,43.9851,33.1765,14.1954,.2433,28.4031-7.4237,35.4999-19.7202,1.3926-2.413,2.4483-5.668,.6519-7.7976-.9739-1.1546-2.5333-1.6113-4.0178-1.8901-6.4632-1.2136-14.0853,.3938-17.5712,5.97-4.8373,7.7378,.7388,17.82,7.2831,24.1797Z"/><path d="M268.9998,423.7346c7.6214,7.3488,17.0105,12.6658,27.2718,15.309,9.9225,2.556,20.3516,2.6305,30.3878,.6961,10.3047-1.9861,20.2485-6.2081,28.8935-12.1485,10.2127-7.0176,18.2993-16.4114,25.5329-26.3734,7.2798-10.0257,15.0945-20.2427,19.2253-32.0548,4.4426-12.704,5.1477-26.434,5.1553-39.7779,.0081-14.0842-.5533-28.1754-1.6078-42.2193-.5333-7.1028-1.1984-14.1956-1.9949-21.2737-.7825-6.9534-2.3132-14.0708-2.1362-21.085,.1308-5.182,1.9375-11.15,6.9949-13.5308,4.0989-1.9296,9.9398-1.632,13.835,.702,3.3383,2.0003,5.2517,5.5705,6.3568,9.1919,1.6789,5.5016,1.9796,11.4422,2.1816,17.1531,.1208,3.4153,.0936,6.8323-.0554,10.2461-.1278,2.9256,4.6615,3.6683,5.1926,.7028,1.7912-10.002,3.6952-20.3546,9.0169-29.1759,4.5495-7.5413,12.051-14.3457,21.2746-14.7039,4.8726-.1892,9.6166,1.1054,14.3941,1.8478,4.8827,.7587,9.7337,.8329,14.5988-.124,9.251-1.8196,17.5308-7.6939,21.2935-16.4737,1.9259-4.4939,2.8124-9.8929,1.3751-14.6661-1.3354-4.4347-5.1035-9.0919-10.222-8.486l1.8693,4.5128c6.6466-6.6204,5.9507-17.8946-1.4658-23.665-4.2286-3.2901-9.2036-3.8915-14.2146-2.2355-2.2475,.7427-4.4723,1.7238-6.8346,2.0506-2.3062,.319-4.5878-.184-6.7531-.9573-4.7944-1.7122-9.0123-4.8804-13.187-7.7155-4.8816-3.3152-9.8414-6.5654-14.888-9.6239-10.1211-6.1339-20.8709-10.3143-32.7141-11.3972-11.1757-1.0219-22.6437,.6142-33.2255,4.2887-10.3546,3.5957-19.7473,9.1786-28.3591,15.9071-8.6234,6.7376-16.4182,14.6793-22.5905,23.7371-2.9563,4.3383-5.4626,8.9648-7.3639,13.8617-2.2399,5.7691-3.9836,11.7903-5.8285,17.6958-1.8993,6.0797-3.6357,12.2026-5.1196,18.3973-1.3833,5.7746-2.8046,11.5508-4.7114,17.1792-1.8836,5.56-4.3033,10.9129-7.5421,15.8216-3.1486,4.772-6.9895,9.0412-11.1138,12.9868-17.3181,16.568-38.6472,28.2511-56.7051,43.9507-7.4456,6.4732-14.2124,13.6449-20.0869,21.5783-5.8079,7.8434-10.9557,16.707-13.1559,26.3018-1.0523,4.5889-1.3572,9.2803-.6177,13.9382,.7468,4.7039,2.7949,9.2449,5.2234,13.3107,5.264,8.8129,13.1664,16.2153,22.2765,20.9399,9.1042,4.7215,19.2672,6.5702,29.3771,4.5317,10.0964-2.0357,19.4577-7.7694,25.7344-15.9418,2.8511-3.7122,6.6678-9.4141,3.8582-14.1462-2.6625-4.4844-9.7893-4.4768-14.313-3.8256-4.8169,.6933-9.389,3.0516-12.0925,7.2001-2.8275,4.3388-2.8183,9.8572-1.0901,14.6047,1.7976,4.9382,4.9428,9.2901,8.67,12.9574,2.4275,2.3885,6.1687-1.3473,3.7385-3.7385-5.4471-5.3597-12.7139-16.3312-5.1169-22.9964,3.1373-2.7525,7.8223-3.3577,11.8269-2.8924,1.437,.167,3.9345,.3712,4.033,2.2121,.1121,2.0935-1.482,4.2648-2.589,5.9043-5.1469,7.6225-13.3929,12.95-22.259,15.1573-8.8988,2.2154-18.1082,.8781-26.2831-3.1732-8.3489-4.1374-15.6392-10.5896-20.6075-18.4869-2.3186-3.6855-4.2705-7.7256-5.113-12.0227-.783-3.9936-.4624-8.1836,.442-12.1272,2.0377-8.8848,6.7643-16.9932,12.0813-24.3009,5.2197-7.1739,11.3348-13.6887,17.9376-19.6019,16.7482-14.9991,36.3802-26.3036,53.4209-40.9407,8.2633-7.0978,15.8345-15.2312,20.7403-25.0492,5.1307-10.268,7.4049-21.4398,10.2581-32.4647,1.499-5.7923,3.2364-11.5194,5.0592-17.217,1.667-5.2107,3.1429-10.5981,5.2923-15.6345,3.9095-9.1606,10.1674-17.2424,17.1411-24.2734,14.2612-14.3785,32.5121-25.4569,52.8608-28.043,10.3099-1.3103,20.8662-.4944,30.7146,2.8993,10.5098,3.6217,19.8738,10.2477,29.0501,16.3713,7.8311,5.2259,16.4691,12.0584,26.4929,9.6506,4.0329-.9687,8.012-3.6118,12.2286-2.0475,3.5,1.2985,5.9784,4.4318,6.6829,8.0601,.6646,3.4229-.4909,6.8479-2.9379,9.2853-1.4834,1.4775-.5012,4.7934,1.8693,4.5128,3.4186-.4047,5.1931,3.6014,5.5135,6.4652,.4406,3.937-.5698,7.9197-2.511,11.3405-4.3091,7.5934-12.6537,11.5273-21.1677,11.951-9.5023,.4729-18.6703-3.9504-28.1696-1.7928-8.7106,1.9785-15.7825,8.5097-20.4448,15.8777-5.9358,9.3805-8.1219,20.4838-10.0496,31.2476,1.7309,.2343,3.4618,.4685,5.1926,.7028,.3068-7.0256,.0759-14.0806-.7913-21.0617-.5784-4.6559-1.5749-9.3421-3.9371-13.454-2.2633-3.9398-5.7822-6.9325-10.1331-8.3051-5.2444-1.6545-12.0137-1.3516-16.7001,1.6886-11.9119,7.7277-7.8671,24.1101-6.5031,35.7257,1.6732,14.2494,2.8116,28.5614,3.4141,42.896,.58,13.7998,1.0938,27.8126-.2469,41.5825-.6474,6.6494-1.8923,13.2726-4.0423,19.6078-2.0036,5.9039-5.1338,11.3528-8.5409,16.5482-3.4341,5.2365-7.1005,10.3477-10.7986,15.4006-3.6578,4.9978-7.5619,9.8284-11.9043,14.2512-7.784,7.9282-17.1093,14.2324-27.5722,18.051-19.2178,7.0138-41.2357,5.6726-58.0559-6.5902-2.0455-1.4913-3.9562-3.1578-5.7775-4.9139-2.4502-2.3625-6.1935,1.3713-3.7385,3.7385Z"/></g><path d="M466.2995,234.7594c.4176-.1712,.8459-.3091,1.2873-.4047,.1096-.0237,.2215-.0384,.3307-.0634,.2456-.056-.4358,.0388-.0017-.0019,.2238-.021,.4474-.0383,.6723-.0433,.2024-.0045,.4049-.0011,.6071,.0094,.1124,.0058,.2248,.0137,.3369,.0241,.0573,.0053,.4368,.0671,.1685,.0167-.2703-.0508,.1119,.0234,.1664,.0337,.1109,.0211,.2213,.0446,.3313,.0699,.2201,.0508,.438,.1102,.6535,.178,.1941,.0611,.3848,.1307,.5749,.2031,.4072,.1549-.2078-.1085,.0151,.0082,.0997,.0522,.2044,.0958,.3049,.1468,.4029,.2047,.7827,.4439,1.1511,.7049,.2703,.1915-.1398-.1298,.0158,.014,.0822,.0759,.1721,.1447,.2554,.2196,.1669,.1501,.3274,.3074,.4805,.4715,.0613,.0657,.1214,.1325,.1803,.2003,.0055,.0063,.2778,.3365,.118,.1351-.1574-.1984,.074,.1063,.1027,.1479,.077,.1116,.1497,.2259,.2213,.3411,.4866,.7824,1.596,1.1578,2.4112,.6322,.7843-.5056,1.1531-1.5737,.6322-2.4112-2.4059-3.8683-7.6715-5.7856-11.9527-4.0308-.8497,.3483-1.5484,1.1866-1.2309,2.1679,.2651,.8192,1.2545,1.6053,2.1679,1.2309h0Z"/><g><path d="M470.5474,243.4134c-3.2406,.0197-3.4185,6.3937,.2049,5.6444,2.6967-.5577,2.9321-5.6634-.2049-5.6444Z"/><path d="M470.5474,241.651c-1.0053,.0163-1.903,.3796-2.658,1.0346-.6251,.5422-1.0309,1.2989-1.2983,2.0699-.4806,1.3857-.3803,3.1961,.4642,4.4282,.5223,.762,1.2688,1.3784,2.1893,1.5846,1.0173,.2278,2.0867,.0847,3.0054-.4096,1.5654-.8422,2.4128-2.7639,2.3473-4.4902-.0416-1.0946-.389-2.1026-1.0976-2.9418-.7223-.8555-1.853-1.2711-2.9522-1.2756-.922-.0038-1.8049,.8133-1.7624,1.7624,.0429,.9581,.7743,1.7583,1.7624,1.7624,.1319,.0005,.2617,.0087,.3924,.0261l-.4685-.063c.1862,.029,.365,.0769,.5396,.1483l-.421-.1777c.1601,.07,.3079,.1567,.4468,.2627l-.3567-.2756c.1327,.1063,.2501,.2253,.3559,.3584l-.2756-.3567c.1328,.1745,.2388,.3627,.3242,.5646l-.1777-.421c.097,.2411,.1609,.4906,.1983,.7477l-.063-.4685c.0436,.3341,.0412,.6691-.0024,1.0031l.063-.4685c-.046,.3191-.1285,.6288-.2508,.9272l.1777-.421c-.1109,.2598-.2496,.5035-.422,.7275l.2756-.3567c-.132,.1654-.2787,.3143-.4444,.4461l.3567-.2756c-.1559,.1189-.3217,.2178-.501,.2972l.421-.1777c-.2096,.0873-.4252,.1407-.6497,.1728l.4685-.063c-.2148,.0266-.4283,.0312-.6433,.0053l.4685,.063c-.1746-.0249-.3422-.0691-.5053-.1365l.421,.1777c-.1391-.0613-.2679-.1366-.3895-.2278l.3567,.2756c-.1398-.1096-.262-.2348-.3706-.3753l.2756,.3567c-.1172-.1578-.2127-.3268-.2917-.5067l.1777,.421c-.1147-.2726-.1871-.5574-.2268-.8501l.063,.4685c-.0415-.3373-.039-.6757,.0034-1.0127l-.063,.4685c.0465-.3377,.1322-.6662,.2622-.9814l-.1777,.421c.1065-.2489,.2385-.483,.4025-.6985l-.2756,.3567c.1267-.161,.2678-.3061,.4277-.4343l-.3567,.2756c.1506-.1161,.3113-.2125,.4853-.2892l-.421,.1777c.1834-.0763,.3723-.127,.5689-.1548l-.4685,.063c.0967-.0116,.193-.0179,.2904-.0195,.9213-.0149,1.8055-.7999,1.7624-1.7624-.0422-.9421-.7747-1.7783-1.7624-1.7624Z"/></g><g><path d="M455.8009,281.71c.3334,4.0411,8.4057,4.7183,6.2715-1.102-1.3854-3.7778-6.6124-3.0299-6.2715,1.102Z"/><path d="M454.0386,281.71c.1014,1.1167,.4845,2.0636,1.2048,2.924,.5,.5972,1.1754,1.0772,1.8872,1.3892,1.604,.7031,3.5972,.9047,5.1484-.0707,.8529-.5363,1.481-1.35,1.7519-2.3249,.289-1.0399,.1649-2.1864-.1604-3.2013-.4116-1.2839-1.1211-2.3596-2.2219-3.1462-.839-.5996-1.9466-.9277-2.9778-.8874-1.2353,.0482-2.4814,.5319-3.3297,1.4539-.9603,1.0437-1.4075,2.4539-1.3025,3.8635,.0683,.9172,.7616,1.8072,1.7624,1.7624,.8962-.0401,1.8357-.7778,1.7624-1.7624-.0234-.3145-.0189-.6267,.0221-.9395l-.063,.4685c.0258-.1724,.0604-.3428,.1101-.51,.0237-.0795,.0545-.1563,.0799-.2352,.0825-.2563-.2376,.4745-.0563,.1458,.0753-.1365,.1557-.2652,.2398-.3963,.1404-.219-.3493,.3979-.0999,.1368,.0512-.0536,.1001-.1088,.1535-.1604,.0529-.051,.1099-.0969,.164-.1464,.1898-.1737-.4405,.3006-.1383,.1123,.1237-.077,.2488-.1451,.3765-.215,.2274-.1245-.511,.1862-.1715,.0725,.0687-.023,.1364-.0476,.206-.0678,.1397-.0405,.2818-.0697,.4255-.0915l-.4685,.063c.2935-.0394,.5864-.0403,.8802-.0039l-.4685-.063c.1863,.0263,.3699,.0653,.5496,.1213,.0821,.0256,.1615,.0579,.2426,.0863,.1836,.0645-.4533-.2112-.2355-.097,.043,.0225,.0874,.0426,.1304,.0652,.0783,.0412,.1549,.0854,.2297,.1326,.0502,.0317,.0981,.0693,.149,.0997,.1759,.1051-.2087-.1581-.2115-.1669,.0171,.0546,.1899,.161,.2326,.2014,.0764,.0723,.1497,.148,.2194,.2267,.0285,.0321,.0553,.0657,.0837,.0979,.1816,.2056-.2271-.3199-.1353-.1754,.0603,.0949,.1278,.1843,.1861,.2807,.0603,.0998,.1159,.2022,.1675,.3068,.0156,.0317,.0526,.1483,.0764,.1631-.0125-.0078-.1701-.4354-.0931-.2164,.154,.4383,.2877,.8751,.3509,1.3368l-.063-.4685c.0382,.3105,.0459,.6213,.0065,.9321l.063-.4685c-.0205,.1418-.049,.2819-.0912,.419-.0177,.0574-.0419,.1128-.0595,.17,.1803-.5867,.1635-.3661,.0779-.2033-.0297,.0564-.0631,.11-.096,.1645-.0144,.0238-.0325,.0453-.0467,.0692-.105,.1769,.2826-.3313,.1882-.2415-.0881,.0839-.1661,.1794-.2554,.2632-.212,.1989,.2317-.168,.1972-.1497-.0529,.028-.1016,.0698-.1532,.101-.0528,.0319-.1068,.0616-.1618,.0894-.0245,.0124-.0502,.0231-.0744,.0361-.2075,.1116,.3049-.1238,.2873-.1198-.2525,.0583-.4847,.155-.7457,.1913l.4685-.063c-.3461,.0437-.6935,.0392-1.0394-.0042l.4685,.063c-.3861-.0526-.7491-.16-1.1137-.2939-.1749-.0642,.5012,.2284,.2462,.1027-.0497-.0245-.1006-.0467-.1502-.0716-.0849-.0425-.1685-.0877-.2505-.1357-.0818-.0479-.162-.0984-.2403-.1517-.0391-.0266-.0768-.055-.1158-.0818-.1936-.1331,.3927,.321,.2073,.1605-.1424-.1234-.2822-.246-.4089-.386-.1289-.1425-.2882-.4452,.0682,.104-.0509-.0784-.1079-.1523-.1569-.2323-.049-.08-.0944-.1622-.1359-.2464-.1849-.3757,.1515,.4337,.048,.116-.066-.2028-.1196-.4032-.1495-.6148l.063,.4685c-.0062-.0502-.0116-.1002-.0162-.1506-.0433-.4765-.1675-.8975-.5162-1.2462-.3057-.3057-.8072-.5358-1.2462-.5162-.8834,.0396-1.8516,.7791-1.7624,1.7624Z"/></g><path d="M677.4563,244.9104c25.1324,0,50.2648,0,75.3972,0h23.2945c3.402,0,3.4076-5.2871,0-5.2871h-98.6917c-3.402,0-3.4076,5.2871,0,5.2871h0Z" style="fill:#fff;"/><path d="M673.6996,275.0619h54.1172c18.6676,0,37.3351,0,56.0027,0h29.9254c3.402,0,3.4076-5.2871,0-5.2871-18.0391,0-36.0781,0-54.1172,0h-85.928c-3.402,0-3.4076,5.2871,0,5.2871h0Z" style="fill:#fff;"/><path d="M673.6996,301.4971h54.1172c18.6676,0,37.3351,0,56.0027,0h29.9254c3.402,0,3.4076-5.2871,0-5.2871h-54.1172c-18.6676,0-37.3351,0-56.0027,0h-29.9254c-3.402,0-3.4076,5.2871,0,5.2871h0Z" style="fill:#fff;"/><polygon points="853.104 195.6961 806.108 195.6961 806.108 151.0498 806.108 141.0632 853.104 195.6961" style="fill:#fff;"/><rect x="629.8728" y="482.3719" width="41.1215" height="18.211" style="fill:#fff;"/><path d="M899.2861,337.406c-.3444,.52-.9418,1.2024-1.6919,1.8338-.1659,.1396-.318,.2518-.7464,.5281-.5264,.3396-1.0761,.6425-1.6403,.9143-.5282,.2545-.307,.1616-.8681,.3729-.4267,.1607-.859,.3067-1.295,.44-1.0419,.3187-2.1057,.564-3.1782,.7545-.1608,.0286-1.2736,.1993-.8717,.1457-.4664,.0622-.9349,.1107-1.4034,.1531-.9043,.0818-1.8114,.1323-2.7191,.155-1.262,.0316-2.5266,.0126-3.7865-.068-3.2139-.2056-6.4594-.0768-9.6792-.0768h-21.1805c-2.695,0-5.3899,0-8.0849,0-1.7929,0-3.5632-.0603-5.3349,.3022-6.1282,1.2538-10.754,7.2797-10.0641,13.5443,.7113,6.4583,6.0617,11.3032,12.5569,11.4138v-5.2871c-6.8588,.1181-12.6418,5.6713-12.6302,12.6302s5.7528,12.5117,12.6302,12.6302v-5.2871c-6.8588,.1181-12.6418,5.6713-12.6302,12.6302s5.7528,12.5117,12.6302,12.6302v-5.2871c-5.9135,.1019-11.3117,4.2783-12.3881,10.2067-1.105,6.0864,2.2443,12.0618,8.0272,14.2679,2.0177,.7697,4.1007,.7857,6.2135,.7857h45.9902c12.093,0,23.9237-2.7459,34.5597-8.5852,2.9833-1.6379,.3187-6.2052-2.6685-4.5652-9.5137,5.2232-20.2185,7.8558-31.0555,7.8634-4.4009,.0031-8.8018,0-13.2027,0-11.6692,0-23.3387,.0246-35.0079,0-3.2225-.0068-6.1738-1.6238-7.3314-4.7005-1.8212-4.8407,1.7988-9.8985,6.8635-9.9857,3.4014-.0586,3.4071-5.2284,0-5.2871-4.0215-.0693-7.3376-3.2764-7.3431-7.3431-.0056-4.0715,3.3294-7.274,7.3431-7.3431,3.4014-.0586,3.4071-5.2284,0-5.2871-4.0215-.0693-7.3376-3.2764-7.3431-7.3431-.0056-4.0715,3.3294-7.274,7.3431-7.3431,3.4014-.0586,3.4072-5.229,0-5.2871-4.2231-.0719-7.5716-3.5765-7.3294-7.8463,.2192-3.8662,3.8196-6.7845,7.6094-6.84,4.0768-.0596,8.1588,0,12.2359,0h20.4146c2.9681,0,5.9525-.1042,8.9149,.0804,7.9018,.4924,17.9635-.6889,22.707-7.8516,.7886-1.1908,.2349-2.9248-.9484-3.6168-1.2931-.7563-2.8264-.2452-3.6168,.9484h0Z"/><path d="M602.8374,530.7357c25.4847,14.3144,52.6338,25.7634,80.902,33.2824,24.9838,6.6454,50.8391,10.2286,76.7011,10.2843,23.466,.0506,46.9915-2.8007,69.7162-8.6792,20.8297-5.3883,41.0639-13.34,59.8362-23.8727,16.9245-9.4959,32.7627-21.1581,46.4219-34.9713,12.198-12.3354,22.7917-26.5111,30.2048-42.2395,6.7998-14.4271,10.949-30.1298,11.0232-46.1353,.1012-21.8128-2.3787-44.8407-12.2252-64.6149-6.0887-12.2277-15.5219-22.8536-27.8606-28.9787-4.9048-2.4348-10.1311-4.2042-15.5054-5.2496-5.5545-1.0805-10.7244-2.7863-15.5463-5.8088-4.5237-2.8356-8.4325-6.5877-11.5249-10.9347-1.6011-2.2506-3.1929-4.5079-4.7893-6.7619-1.9509-2.7544-6.5376-.1163-4.5652,2.6685,4.8194,6.8044,9.3866,13.4616,16.3311,18.3439,4.8816,3.432,10.531,5.8931,16.3658,7.1422,2.7381,.5862,5.4666,1.077,8.1553,1.8795,10.9471,3.2676,20.7491,10.0701,27.7946,19.5631,11.0842,14.9346,15.4905,33.921,17.1905,52.1323,.9682,10.3719,1.4568,21.0028,.2349,31.377-.8874,7.5346-2.7599,14.9723-5.2858,22.1188-5.475,15.4904-14.3459,29.7349-24.9657,42.2118-11.9919,14.089-26.2462,26.163-41.7488,36.2217-17.2155,11.17-35.9458,19.9233-55.4462,26.2843-21.4868,7.009-43.8624,11.1683-66.4177,12.5179-24.7247,1.4795-49.6097-.3488-73.889-5.2149-27.3517-5.4818-53.8965-14.6998-78.9623-26.9104-6.5931-3.2117-13.0828-6.6297-19.4767-10.2211-2.9701-1.6683-5.6384,2.897-2.6685,4.5652h0Z"/><path d="M839.2989,367.8191h38.7717c3.402,0,3.4076-5.2871,0-5.2871h-38.7717c-3.402,0-3.4076,5.2871,0,5.2871h0Z"/><path d="M839.5926,387.7924h38.7717c3.402,0,3.4076-5.2871,0-5.2871h-38.7717c-3.402,0-3.4076,5.2871,0,5.2871h0Z"/><path d="M839.8864,407.7657h38.7717c3.402,0,3.4076-5.2871,0-5.2871h-38.7717c-3.402,0-3.4076,5.2871,0,5.2871h0Z"/><path d="M641.5229,254.2729c.0331-.0358,.066-.07,.0989-.1058h-.1899c-3.4294-3.9619-53.3456-59.4725-108.2811,0h-.2073s.0342,.0409,.0989,.1164c-.0331,.0357-.066,.07-.0989,.1058h.1899c3.4295,3.962,53.3457,59.4724,108.2811,0h.2073s-.0342-.041-.0989-.1164Z" style="fill:#f953b2;"/><circle cx="587.2826" cy="254.2782" r="25.6694" style="fill:#f4d13b;"/></g><path d="M661.0005,180.3875c2.301-2.301,4.602-4.602,6.9031-6.9031,.9791-.9791,1.0521-2.7727,0-3.7385-1.0553-.9687-2.6936-1.0449-3.7385,0-2.301,2.301-4.602,4.602-6.9031,6.9031-.9791,.9791-1.0521,2.7727,0,3.7385,1.0553,.9687,2.6936,1.0449,3.7385,0h0Z" style="fill:#f953b2;"/><path d="M668.8134,203.9784c4.894,1.4625,10.1139,.9467,14.7091-1.2202,1.2543-.5915,1.6748-2.49,.9484-3.6168-.8319-1.2903-2.2752-1.581-3.6168-.9484-.1059,.0499-.9741,.4051-.3769,.1772-.206,.0786-.4102,.1601-.6179,.2345-.4838,.1734-.9758,.3246-1.4732,.4541s-1.0008,.2374-1.5077,.3232c-.1449,.0245-.29,.0473-.4354,.0682,.3024-.0398,.3545-.048,.1562-.0247-.2563,.0191-.5115,.0523-.7682,.0701-1.031,.0712-2.0526,.0336-3.0809-.0542-.7296-.0623,.551,.1022-.171-.0196-.2898-.0489-.579-.098-.8668-.1582-.5037-.1053-1.0006-.2361-1.4935-.3834-1.3247-.3959-2.9395,.4751-3.2519,1.8463-.324,1.4225,.4278,2.8279,1.8463,3.2519h0Z" style="fill:#f953b2;"/><path d="M633.3298,157.824c.3889,3.8345,.7778,7.669,1.1667,11.5035,.0729,.7187,.2462,1.3412,.7743,1.8693,.4585,.4585,1.2108,.8038,1.8693,.7743,1.3127-.0588,2.793-1.1702,2.6435-2.6435-.3889-3.8345-.7778-7.669-1.1667-11.5035-.0729-.7187-.2462-1.3412-.7743-1.8693-.4585-.4585-1.2108-.8038-1.8693-.7743-1.3127,.0588-2.793,1.1702-2.6435,2.6435h0Z" style="fill:#f953b2;"/><path d="M492.1072,302.3084c3.8578,10.6566,11.0823,19.7865,20.6117,25.9357,2.8674,1.8503,5.5209-2.7245,2.6685-4.5652-8.3138-5.3648-14.8113-13.4652-18.1819-22.776-.4857-1.3418-1.7977-2.246-3.2519-1.8463-1.2953,.356-2.3347,1.9029-1.8463,3.2519h0Z" style="fill:#f953b2;"/><path d="M869.4744,591.7707c8.835-2.2284,17.7223-5.699,25.4104-10.6425,3.4538-2.2208,6.8167-5.6638,5.9691-10.1324-.738-3.8906-4.6497-6.425-8.4458-6.5146-4.8137-.1137-8.7342,3.7328-10.7357,7.772-.5439,1.0977-.4292,2.295,.4134,3.2035,5.8849,6.3456,15.4825,5.1161,22.738,2.142,8.4475-3.4627,16.2621-8.9634,23.048-15.0146,3.9713-3.5414,7.6154-7.4317,10.9087-11.6102,.8829-1.1202,1.0932-2.6453,0-3.7385-.9176-.9176-2.8499-1.1275-3.7385,0-5.3152,6.7441-11.5623,12.7738-18.5944,17.7116-3.5258,2.4757-7.2317,4.7244-11.0879,6.6485-3.0533,1.5236-6.4778,2.7531-9.8773,3.0812-3.6568,.3529-7.101-.2012-9.6581-2.9585,.1378,1.0678,.2756,2.1357,.4134,3.2035,.7831-1.5804,1.7735-3.1117,3.2389-4.142,1.3736-.9658,2.7145-1.2733,4.1372-.7727,1.0829,.3811,2.0273,1.3225,2.0942,2.1639,.1155,1.453-1.2401,2.7507-2.389,3.6385-1.6405,1.2677-3.5635,2.2409-5.3843,3.217-2.1132,1.1328-4.2724,2.1789-6.4697,3.1384-4.3197,1.8863-8.8283,3.3557-13.396,4.5078-3.2971,.8316-1.9001,5.932,1.4055,5.0982h0Z" style="fill:#f953b2;"/></svg>