<?xml version="1.0" encoding="UTF-8"?><svg id="Layer_2" xmlns="http://www.w3.org/2000/svg" width="1000" height="1000" viewBox="0 0 1000 1000"><g><path d="M811.2467,415.6493c.1965,2.0754-.0179,3.9496-1.8014,5.2533-1.5843,1.1581-3.659,1.6136-5.5757,1.8015-4.4901,.4403-8.9923-.4522-13.4852-.0642-3.8092,.3289-8.3292,1.8322-9.1328,6.1317-.7639,4.0871,3.2542,7.2392,6.1436,9.4063,3.7211,2.791,8.0988,4.6911,12.6651,5.5573,2.0044,.3802,2.8632-2.6908,.8473-3.0732-3.7866-.7183-7.358-2.1426-10.5654-4.287-1.5927-1.0648-3.068-2.3008-4.3955-3.6828-1.2107-1.2604-2.1947-2.7261-1.1199-4.4052,2.0894-3.2641,7.7749-2.6329,11.0541-2.4785,4.0999,.193,8.434,.5957,12.3868-.7912,1.7636-.6188,3.4522-1.5708,4.6337-3.0486,1.4557-1.8207,1.7469-4.0553,1.5326-6.3194-.1916-2.0242-3.3806-2.0442-3.1871,0h0Z"/><path d="M209.639,357.9104v100.233c0,28.762,14.862,55.4822,39.2978,70.6529l74.4384,46.2146c18.2927,11.3569,29.4184,31.3597,29.4184,52.8911v78.3065c0,.3223-.0065,.6431-.0195,.9623-.6545,16.1423-18.9904,25.2011-32.5347,16.3946l-61.7104-40.1243v114.1827h119.3502c24.1291,0,43.6896-19.5605,43.6896-43.6896v-24.3809h-.1557v-101.6512c0-21.5314,11.1257-41.5343,29.4184-52.8912l74.4386-46.2146c24.4356-15.1707,39.2976-41.8909,39.2976-70.6529v-100.233H209.639Z" style="fill:#f4d13b;"/><ellipse cx="387.1034" cy="359.2564" rx="177.8207" ry="62.0056" style="fill:#f953b2;"/><polygon points="530.4345 231.3843 580.3655 276.0035 521.9356 331.2464 483.1593 270.6917 530.4345 231.3843" style="fill:#6966ed;"/><polygon points="341.0683 309.9979 356.3053 243.3359 460.5838 246.1928 479.6301 309.9979 392.3229 345.0571 341.0683 309.9979" style="fill:#6966ed;"/><path d="M253.8964,679.9812c-4.2751-2.3426-9.1813-3.6766-14.4-3.6766h-2.0085c-16.575,0-30.0118,13.4367-30.0118,30.0117v91.3074h30.8085v-91.3074c0-11.3563,6.3088-21.2374,15.6118-26.3351Z" style="fill:#6966ed;"/><path d="M253.8964,679.9812c-9.3029,5.0977-15.6118,14.9788-15.6118,26.3351v63.0037c0,7.6192-2.8272,14.9673-7.9343,20.6215l-6.9388,7.6823h46.0966v-91.3074c0-11.3563-6.3088-21.2374-15.6118-26.3351Z"/><path d="M364.9639,211.763c.5231,7.1101,1.0462,14.2202,1.5693,21.3303,.732,9.9498,1.464,19.8995,2.196,29.8493,.0704,.9571,.1365,1.9147,.2113,2.8715,.2284,2.925,1.1829,5.5709,3.0554,7.8495,5.626,6.846,16.6748,5.8486,21.2336-1.6365,2.1751-3.5713,1.8691-7.3198,1.6125-11.2389-.3125-4.773-.6249-9.546-.9374-14.3189-.5925-9.0511-1.1851-18.1021-1.7776-27.1532l-.0329-.5019h-4.7806c.9804,8.774,1.9607,17.548,2.9411,26.3219,.5942,5.318,1.1884,10.6359,1.7826,15.9539,.1434,1.2832,.2808,2.5672,.4302,3.8497,.3638,3.1243,1.5845,6.0208,3.8633,8.2443,3.9234,3.8281,9.8551,4.7623,14.8026,2.4648,4.7937-2.226,7.7572-7.4087,7.4245-12.652l-4.6952,.6354c.5954,4.4059,3.4436,8.3571,7.5344,10.1706,4.6407,2.0573,10.0244,1.3224,13.9168-1.9531,3.2771-2.7577,5.0097-7.1571,4.4965-11.4058-.1147-.9496-.2536-1.897-.3804-2.845-1.5067-11.2699-3.0135-22.5398-4.5202-33.8096-.4729-3.537-.9458-7.0739-1.4186-10.6109l-4.6952,.6354c1.4717,6.7979,2.9434,13.5958,4.4151,20.3937,1.801,8.3188,3.6019,16.6375,5.4029,24.9563,.345,1.5935,.7748,3.1384,1.5758,4.581,1.8714,3.3702,5.3651,5.8617,9.1762,6.4709,8.3131,1.3287,16.2226-5.6094,15.2526-14.1792-.2751-2.4305-.8693-4.8466-1.3302-7.245-.9127-4.7494-1.8254-9.4987-2.738-14.2481-1.5595-8.1152-2.9042-16.307-4.6845-24.377-.0321-.1453-.0563-.2928-.0844-.4391-.2438-1.2685-1.7662-1.9922-2.9404-1.6695-1.3271,.3647-1.9139,1.6683-1.6695,2.9404,1.2681,6.5987,2.5361,13.1975,3.8042,19.7962l4.675,24.3276c.2131,1.1087,.365,2.2,.2061,3.3403-.4443,3.1882-2.7872,5.9294-5.8768,6.8314-3.0416,.8879-6.2899-.0068-8.4655-2.3057-1.2694-1.3414-1.832-2.9652-2.2118-4.73-1.6249-7.5507-3.2685-15.0974-4.9027-22.646s-3.0569-15.175-4.9081-22.6711c-.0325-.1315-.0574-.2653-.0861-.3977-.5593-2.5832-5.0557-2.0604-4.6952,.6354,1.1032,8.2517,2.2065,16.5035,3.3097,24.7552,.7288,5.4513,1.4576,10.9025,2.1864,16.3538,.2191,1.6385,.4381,3.277,.6572,4.9154,.1797,1.3443,.3955,2.6981,.1672,4.0521-.7131,4.2283-4.5979,7.2348-8.8588,6.9392-4.3025-.2984-7.1497-3.7626-7.6997-7.8328-.3592-2.6576-4.865-2.0398-4.6952,.6354,.2299,3.6239-1.6485,7.1524-5.115,8.5446-3.4565,1.3882-7.602,.3072-9.8362-2.7146-.4119-.557-.7721-1.1991-1.034-1.8399-.1937-.4739-.3284-.9844-.4378-1.4838-.0558-.2547-.1508-.8158-.0712-.2509-.0352-.2497-.0561-.5023-.0841-.7528l-.4676-4.1848c-1.201-10.7487-2.402-21.4975-3.6031-32.2462-.3447-3.0848-.6894-6.1696-1.034-9.2543-.1433-1.2828-.996-2.3903-2.3903-2.3903-1.2285,0-2.4751,1.0954-2.3903,2.3903,.4846,7.4028,.9693,14.8056,1.4539,22.2083,.5108,7.8018,1.094,15.6026,1.5325,23.4088,.1603,2.8545-.8575,5.5992-3.1572,7.3973-2.7174,2.1248-6.5499,2.2954-9.4753,.5137-2.2479-1.3691-3.6799-3.7518-3.934-6.3597-.0704-.7226-.1067-1.4502-.16-2.1742-.6808-9.2542-1.3616-18.5083-2.0425-27.7625-.585-7.9518-1.1086-15.9109-1.7552-23.8579-.0115-.1415-.0208-.2833-.0313-.4249-.0947-1.2876-1.0308-2.3903-2.3903-2.3903-1.2202,0-2.4855,1.0959-2.3903,2.3903h0Z"/><path d="M530.6144,288.2347c3.5766-4.0534,7.1532-8.1068,10.7298-12.1602,5.6734-6.4297,11.3468-12.8594,17.0202-19.289,1.3143-1.4895,2.6286-2.979,3.9429-4.4685,2.0288-2.2992-1.3399-5.6929-3.3804-3.3804-3.5766,4.0534-7.1532,8.1068-10.7298,12.1602-5.6734,6.4297-11.3468,12.8594-17.0202,19.289-1.3143,1.4895-2.6286,2.979-3.9429,4.4685-2.0288,2.2992,1.3399,5.6929,3.3804,3.3804h0Z"/><g><path d="M387.1034,421.262c40.5801,0,77.9775-4.7433,107.903-12.722l-36.2814-41.1732-91.375,53.5124c6.487,.25,13.0753,.3828,19.7534,.3828Z" style="fill:#6966ed;"/><path d="M282.9039,370.0227l-2.6455,38.8002c26.9844,7.0838,59.939,11.5474,95.7622,12.3158l10.9949-39.43-38.9101-23.2266-65.2015,11.5406Z" style="fill:#6966ed;"/><path d="M261.1255,345.0571l-33.4644,5.843,7.7576,40.7275c18.8191,10.699,46.6859,19.2519,79.8873,24.3678v-21.5385l-47.8063-4.7806-6.3742-44.6192Z" style="fill:#6966ed;"/><path d="M533.6216,363.6485l-32.4021,.5312-6.3742-19.6537-20.1849,.5312,4.7806,56.8364c.6836,3.7331,1.8785,6.9065,3.465,9.6089,22.7891-5.0915,42.0249-11.9468,56.129-20.0127l-5.4135-27.8412Z" style="fill:#6966ed;"/></g><path d="M418.7993,264.9512c-.653-5.4676-1.3059-10.9352-1.9589-16.4028-1.0353-8.6692-2.0706-17.3385-3.1059-26.0077-.2391-2.002-.4782-4.004-.7173-6.006-.1531-1.2816-.989-2.3903-2.3903-2.3903-1.1731,0-2.5444,1.0999-2.3903,2.3903,.653,5.4676,1.3059,10.9352,1.9589,16.4028,1.0353,8.6692,2.0706,17.3385,3.1059,26.0077,.2391,2.002,.4782,4.004,.7173,6.006,.1531,1.2816,.989,2.3903,2.3903,2.3903,1.1731,0,2.5444-1.0999,2.3903-2.3903h0Z"/><path d="M460.9279,238.2906c2.8449-4.5495,6.1851-9.0723,8.1214-14.1036,3.2198-8.3661,1.5715-16.2678-.654-24.5581-4.4346-16.52-17.0499-29.75-34.1498-33.1028-4.254-.8341-8.2311-.7667-12.514-.6875l-18.2338,.337c-11.7749,.2176-23.5779-.234-34.7619,4.1593-8.5855,3.3726-16.3615,8.7184-22.4139,15.7018-5.1081,5.8939-8.4841,12.6486-11.4847,19.7767-5.1256,12.176-9.2015,24.7759-12.3846,37.5942-9.4554,38.0765-11.2865,77.8415-8.36,116.8584,3.0487,40.6458,12.3869,80.1232,28.9448,117.4246,15.9558,35.9449,38.0231,69.2245,65.0503,97.803,28.0194,29.6276,61.4732,54.0336,98.5962,70.9816,39.5653,18.063,82.1396,27.3528,125.4542,29.8988,10.8017,.6349,22.0442,1.0418,32.7072-1.1097,4.0151-.8101,9.0608-2.1837,11.3981-5.8894,2.447-3.8797,.4734-9.7422-3.4893-11.8094-9.8252-5.1253-15.1724,8.0441-18.2483,14.6128-5.1319,10.9596-10.4986,21.8091-16.0948,32.539-11.1923,21.4599-23.3019,42.4412-36.2852,62.8674-6.3872,10.0488-12.9916,19.9574-19.7895,29.7329-1.7605,2.5316,2.3817,4.924,4.1279,2.4129,26.1914-37.6636,49.3643-77.4029,69.1633-118.7881,2.2924-4.7918,4.2825-9.8273,6.8642-14.47,1.6993-3.0558,6.8797-7.9959,9.4992-2.9775,1.5808,3.0285-.6586,4.6899-3.4822,5.8003-9.4177,3.7036-21.0762,2.9338-30.9888,2.5594-38.2643-1.4455-76.379-8.7556-112.1075-22.6264-37.122-14.4117-71.1195-36.0709-100.1203-63.3302-27.2125-25.5784-49.9869-55.7429-67.4773-88.7252-17.544-33.0832-29.7196-69.0365-35.5159-106.0472-6.1888-39.5168-6.7151-80.8449-.4866-120.3944,2.3003-14.6065,5.5931-29.0709,10.0875-43.1623,3.6968-11.5908,7.7633-24.3533,14.8355-34.3682,9.6354-13.6445,25.5236-21.6175,42.1156-21.9741,9.8518-.2117,19.7052-.3642,29.5576-.5462,3.1499-.0582,6.3296-.2503,9.4799-.1752,8.4988,.2027,17.1733,4.0459,23.4923,9.6204,6.0246,5.3148,10.069,12.1701,12.1677,19.8912,2.1659,7.9682,4.0939,15.5676,.5954,23.5754-1.8895,4.325-4.8487,8.2951-7.344,12.2853-1.6359,2.616,2.4986,5.0185,4.1279,2.4129h0Z"/><path d="M800.6843,502.6132c-10.3225-6.947-19.0431-16.0844-24.5599-27.3068-5.2226-10.624-7.1214-22.5564-6.4355-34.3175,1.621-27.7931,16.5599-53.1014,34.0605-73.9548,10.1406-12.0833,21.4251-23.1445,33.0078-33.8319l-1.6902,.7001c6.9353-.5367,13.963-.4298,20.9037-.1219,14.5339,.6448,29.1699,2.6388,43.0241,7.2046,14.0786,4.6397,28.057,12.5197,35.5092,25.8353,11.1613,19.9429,3.0889,43.0014-3.2483,63.0565-4.5128,14.2813-9.6008,28.3622-14.9741,42.34-3.6707,9.5489-7.5972,19.0482-10.6045,28.8347-2.1433,6.9747-3.8112,14.3321-3.3118,21.6747,.498,7.3231,3.1349,14.1793,6.9341,20.4108,3.7601,6.1674,8.4638,11.408,11.3626,18.0987,3.1223,7.2065,5.0074,14.9727,6.3727,22.6842,3.7848,21.377,3.3933,43.5411,1.1881,65.065-2.7948,27.2779-9.0504,54.2385-18.1346,80.0984-10.2091,29.0623-24.2236,56.8296-41.9529,82.0378-4.6056,6.5485-9.4692,12.9064-14.5736,19.0737-1.9476,2.3532,1.4163,5.7535,3.3804,3.3804,24.5469-29.6579,43.4246-63.6507,56.5385-99.8105,11.4349-31.53,18.6555-64.8024,20.6144-98.3092,.7917-13.5414,.7089-27.1772-.7452-40.6726-1.1438-10.6157-3.012-21.3058-6.7064-31.358-1.4372-3.9105-3.1335-7.7641-5.3152-11.321-2.487-4.0545-5.6521-7.6355-8.109-11.7233-4.4823-7.4574-6.7802-15.4997-5.9716-24.2184,.9447-10.1866,4.9915-20.0931,8.597-29.5665,5.9814-15.7158,12.1059-31.3588,17.3939-47.3285,8.2062-24.7823,19.7759-55.0593,2.8157-78.9329-11.3019-15.9088-30.7119-23.6034-49.1642-27.5423-15.1632-3.2368-30.8603-4.3722-46.3479-3.9263-1.5782,.0454-3.1616,.0907-4.7367,.2062-.2411,.0177-.4924,.0118-.7315,.0493-1.6999,.2662-2.8113,1.7269-4.0274,2.8581-1.8595,1.7297-3.7091,3.4703-5.5455,5.2245-14.8707,14.2051-29.0482,29.4168-40.2484,46.738-19.8419,30.6857-30.5006,72.9171-6.6064,104.5449,5.4427,7.2044,12.1477,13.222,19.6252,18.2544,2.5593,1.7224,4.9548-2.4173,2.4129-4.1279h0Z"/><path d="M526.4795,226.0423c.3644-2.7886,.7288-5.5772,1.0932-8.3657,.4567-3.4951,.6387-6.35,1.7362-9.5253,1.8601-5.3817,5.899-9.7689,10.9665-12.2997,6.1675-3.0802,12.298-6.6489,18.8791-8.775,2.4622-.7954,4.9965-1.0741,7.433-1.8986,1.5384-.5206,3.1097-.9462,4.6919-1.3108,1.1476-.2645,2.3033-.4942,3.4642-.6921,.6597-.1124,1.3213-.2104,1.9836-.3062,.3929-.0568-.6575,.0806-.0562,.0078,.1574-.0191,.3146-.0401,.472-.0594,.4038-.0493,.8081-.0949,1.2128-.1368,3.2953-.3411,6.6157-.4374,9.9254-.2945,1.9156,.0827,3.823,.255,5.7259,.4877,.585,.0716-.4259-.0644,.2764,.0369,.223,.0322,.4461,.064,.6689,.0976,.5369,.0811,1.0728,.1685,1.6077,.2621,1.0431,.1827,2.0819,.3893,3.1156,.6194,2.1852,.4865,4.3468,1.0783,6.4758,1.7703,1.0924,.3551,2.1762,.7365,3.2504,1.1433,1.3507,.5116,2.0517,.8026,3.0225,1.2301,10.9199,4.8086,20.0449,11.8446,28.1601,20.4549,11.6324,12.342,20.392,27.1853,27.4524,42.5271,10.6522,23.1468,17.037,47.6916,22.7181,72.4367,6.7339,29.3307,13.86,58.7581,24.8503,86.8345,4.7766,12.2028,10.2581,24.0927,17.1616,35.2495,6.4392,10.4064,13.9524,20.1777,22.4202,29.0152,8.5365,8.9092,18.0735,16.8661,28.3305,23.7228,11.4135,7.6297,23.7686,13.9113,37.2129,17.0205,6.688,1.5467,13.5617,2.3161,20.4265,2.1767,3.0722-.0624,3.0826-4.8432,0-4.7806-27.317,.5546-52.3577-14.1194-72.2972-31.6576-18.6018-16.3616-33.1728-36.7879-43.34-59.338-12.4391-27.5889-20.1225-57.1143-27.1035-86.4676-3.4234-14.3945-6.4107-28.8933-10.4594-43.1314-3.3197-11.6742-7.1865-23.206-11.8371-34.4205-7.0221-16.9332-15.7611-33.3126-27.5785-47.4144-8.1174-9.6866-17.8428-18.2481-29.0833-24.131-8.4214-4.4074-17.5487-7.2299-27.0035-8.2174-6.6329-.6928-13.3562-.4006-19.912,.8178-2.9176,.5422-5.6386,1.4819-8.4706,2.2888-.5664,.1614-1.1854,.194-1.7664,.3032-3.4169,.6424-6.6825,1.8654-9.8621,3.2458-3.2293,1.402-6.3494,3.0363-9.4836,4.6351-2.8327,1.445-5.8356,2.663-8.4301,4.5246-4.8832,3.5037-8.5185,8.5151-10.1941,14.3039-.9266,3.2012-1.1546,6.6702-1.5854,9.9673-.3503,2.6809-.7006,5.3617-1.0509,8.0426-.1687,1.291,1.2196,2.3781,2.3903,2.3903,1.4297,.0149,2.2237-1.1153,2.3903-2.3903h0Z"/><path d="M418.7972,270.6969c-4.4329,35.5332-2.8536,71.8422,4.5294,106.8791,7.3869,35.0554,20.801,69.1628,40.9528,98.8819,10.0889,14.8787,21.8438,28.6392,35.1806,40.7038,15.668,14.1735,33.5763,26.4009,53.417,33.9061,19.6133,7.4192,40.6822,9.389,61.4963,7.9551,20.7643-1.4305,41.1735-5.8088,61.5723-9.715,20.6389-3.9522,41.6296-7.7175,62.7288-7.0145,10.3411,.3445,20.6426,1.7523,30.6149,4.5468,5.0603,1.418,10.0379,3.1747,14.821,5.356,3.9855,1.8176,8.0814,3.7593,11.3939,6.6753,5.3977,4.7516,9.7262,12.1989,7.587,19.5695-1.1205,3.8608-4.0453,7.3661-7.5426,9.3208-3.3991,1.8999-7.4229,2.3566-11.2541,2.3947-4.3472,.0432-8.6782-.4898-12.9811-1.0511-4.2926-.56-8.6084-.9461-12.8924-1.5654-10.0614-1.4545-19.9822-3.9391-29.4468-7.6691-36.561-14.409-62.5962-47.0601-80.9878-80.5693-20.3078-37.0006-34.1438-77.6544-43.8202-118.637-4.9917-21.1413-8.8342-42.5603-11.586-64.1071-.6954-5.4454-1.3226-10.8994-1.8834-16.3603-.5321-5.1817-1.7934-10.2908-1.8528-15.5066-.054-4.7398,.6113-9.7779,2.6055-14.134,.1929-.4213,.9153-1.309,.9573-1.5351l-.0568,.0256c-.3852-.421-.5157-.3336-.3917,.2624-.2287,.43-.1904,1.0529-.4196,1.517-.5059,1.0243-1.4922,1.8213-2.1753,2.735-.7459,.9977-1.3746,2.0624-1.9999,3.1375-5.7282,9.8496-11.2679,19.812-17.175,29.5566-2.3184,3.8246-4.4486,8.1202-9.5225,8.2077-3.8665,.0667-7.2781-2.5684-8.2404-6.3058-1.0868-4.2213,1.8186-7.6907,3.912-11.0346,2.9542-4.7189,5.9084-9.4377,8.8626-14.1566,1.6939-2.7058,3.3878-5.4115,5.0817-8.1173,1.42-2.2682-1.937-4.9525-3.7542-2.8966-3.8839,4.3938-7.7677,8.7877-11.6516,13.1815-2.4587,2.7816-4.9175,5.5632-7.3762,8.3448-1.6612,1.8793-3.2316,4.0499-5.661,4.9605-2.9205,1.0947-6.2577,.4579-8.5579-1.6492-2.7419-2.5118-3.2649-6.2377-1.963-9.608,.8267-2.1401-1.833-3.494-3.5114-2.6994-7.4672,3.5353-15.1497-5.2049-10.5402-12.1034,1.2549-1.8781,3.0072-3.5164,4.4966-5.2014,6.4958-7.3488,12.9915-14.6975,19.4873-22.0463,1.8084-2.0459,3.6168-4.0917,5.4252-6.1376,1.6811-1.9019-.5788-5.4535-2.8966-3.7542-6.0269,4.4187-12.0538,8.8374-18.0807,13.2561-4.0663,2.9812-8.1325,5.9624-12.1988,8.9437-2.0196,1.4807-3.9982,3.1726-6.1593,4.4513-6.8649,4.0619-15.1455-3.4129-11.78-10.6599,1.1422-2.4595,3.4787-3.8332,5.5759-5.3741,7.7382-5.6855,15.4763-11.3711,23.2145-17.0566,6.2674-4.6049,12.5348-9.2098,18.8021-13.8147,2.4535-1.8027,.0714-5.9532-2.4129-4.1279-13.9501,10.2497-27.9002,20.4993-41.8503,30.749-2.3957,1.7602-5.008,3.3995-6.6966,5.9023-4.8959,7.2563-.951,17.5447,7.4318,19.8514,4.8541,1.3356,9.0278-.4703,12.8376-3.2634,3.6617-2.6846,7.3233-5.3691,10.985-8.0537,7.5815-5.5585,15.163-11.1169,22.7445-16.6754-.9655-1.2514-1.9311-2.5028-2.8966-3.7542-5.427,6.1396-10.8539,12.2792-16.2809,18.4188-3.2906,3.7227-6.5812,7.4454-9.8718,11.1681-2.5452,2.8794-5.193,5.5924-5.852,9.583-.7583,4.592,.9436,9.3343,4.5614,12.299,4.1368,3.39,9.6102,3.7805,14.3676,1.5282l-3.5114-2.6994c-2.6692,6.9099,1.0356,14.75,8.019,17.1608,5.11,1.7641,10.6454-.0241,14.174-3.9739,5.1665-5.7831,10.2725-11.6214,15.4084-17.4317,1.8661-2.1112,3.7323-4.2224,5.5984-6.3336-1.2514-.9655-2.5028-1.9311-3.7542-2.8966-4.8925,7.815-9.785,15.6301-14.6775,23.4451-2.72,4.3447-5.1692,8.6307-3.5268,14.0268,2.6915,8.8425,13.7536,12.1739,20.8863,6.3187,1.8854-1.5477,3.0749-3.6297,4.3351-5.6811,1.5348-2.4985,3.0386-5.0159,4.5249-7.5435,3.088-5.2514,6.1099-10.5418,9.1477-15.8223,1.3096-2.2763,2.6155-4.5548,3.93-6.8283,.6638-1.1482,1.2972-2.3266,2.0407-3.4262,.7698-1.1386,1.8451-2.033,2.5711-3.1985,1.1291-1.8127,1.8264-4.5011,1.0897-6.5791-.8307-2.3429-3.4561-3.4371-5.7302-2.5709-3.5316,1.345-4.7236,6.4415-5.5358,9.7055-1.3459,5.4087-1.4979,11.2232-.6562,16.7229,.4018,2.6254,.9599,5.1835,1.2248,7.8313,.2954,2.9532,.6139,5.9042,.9502,8.853,.6218,5.4522,1.3132,10.8962,2.0649,16.332,6.1984,44.8218,16.9491,89.1927,33.5922,131.3168,14.813,37.4922,34.0531,75.2682,64.1793,102.8446,15.3302,14.0326,33.2878,24.819,53.3876,30.3884,9.8153,2.7196,19.769,3.7984,29.8305,5.114,8.4032,1.0987,17.7254,2.6139,25.8324-.6933,7.663-3.1261,13.2713-11.0761,12.7816-19.4654-.4854-8.316-5.7946-15.5878-12.3922-20.3147-4.127-2.9568-8.9882-5.0309-13.6645-6.9468-4.8559-1.9895-9.8629-3.6034-14.9532-4.8751-10.4517-2.6111-21.2612-3.8217-32.0241-3.952-43.607-.5279-85.3484,15.9336-128.8118,17.1909-22.2934,.6449-44.3359-3.3552-64.3391-13.4452-18.906-9.5365-35.7704-22.8453-50.3844-38.1039-25.6364-26.7671-43.9478-59.9479-55.4162-95.0581-11.6506-35.6681-16.5562-73.4906-15.0191-110.9576,.3616-8.8153,1.0935-17.6123,2.1857-26.367,.1612-1.2919-1.2142-2.3781-2.3903-2.3903-1.4238-.0148-2.2312,1.1145-2.3903,2.3903h0Z"/><polygon points="193.6654 766.284 223.9428 782.7507 213.3191 743.4432 244.6588 713.1659 210.132 713.1659 203.2267 682.3574 183.573 719.0089 140.0161 724.8519 177.1988 743.4432 158.0763 774.2518 193.6654 766.284" style="fill:#f4d13b;"/><polygon points="120.1066 578.2301 158.6074 531.5018 139.9374 584.3996 171.6666 589.2472 138.6153 614.3661 145.6663 650.5022 120.5473 614.3661 75.2119 627.6457 107.7675 591.0099 82.6485 540.7719 120.1066 578.2301" style="fill:#f4d13b;"/><polygon points="76.2743 694.5745 101.771 684.4821 93.2721 701.4799 104.4269 716.8842 84.242 710.51 75.7431 734.9443 70.4313 710.51 52.9023 709.4476 68.8378 697.2304 64.5883 680.2326 76.2743 694.5745" style="fill:#f4d13b;"/><circle cx="179.0579" cy="650.7521" r="8.7645" style="fill:#f953b2;"/><circle cx="35.1077" cy="615.6941" r="5.5774" style="fill:#f953b2;"/><circle cx="127.5333" cy="783.0163" r="5.5774" style="fill:#f953b2;"/><path d="M24.3646,714.292l14.5291,4.3392c1.1979,.3577,2.6579-.4294,2.9404-1.6695,.2929-1.286-.3868-2.5573-1.6695-2.9404l-14.5291-4.3392c-1.1979-.3577-2.6579,.4294-2.9404,1.6695-.2929,1.286,.3868,2.5573,1.6695,2.9404h0Z" style="fill:#f953b2;"/><path d="M132.3902,671.9532c-2.657,3.107-5.314,6.2141-7.971,9.3211-.8119,.9494-1.0019,2.4607,0,3.3804,.893,.8197,2.5126,1.0148,3.3804,0,2.657-3.107,5.314-6.2141,7.971-9.3211,.8119-.9494,1.0019-2.4607,0-3.3804-.893-.8197-2.5126-1.0148-3.3804,0h0Z" style="fill:#f953b2;"/><path d="M69.1945,506.774c2.1954,3.0054,4.3907,6.0107,6.5861,9.0161,.3784,.518,.7879,.9221,1.4285,1.0985,.5722,.1576,1.3341,.0864,1.8419-.241,.9975-.6431,1.6463-2.1906,.8575-3.2704-2.1954-3.0054-4.3907-6.0107-6.5861-9.0161-.3784-.518-.7879-.9221-1.4285-1.0985-.5722-.1576-1.3341-.0864-1.8419,.241-.9975,.6431-1.6463,2.1906-.8575,3.2704h0Z" style="fill:#f953b2;"/><path d="M57.8965,792.4106c1.1166-.7444,2.2333-1.4888,3.3499-2.2333,.5194-.3462,.9292-.8139,1.0985-1.4285,.0996-.3177,.1138-.6354,.0427-.9532-.0144-.3181-.109-.6143-.2837-.8887-.3291-.5104-.819-.9597-1.4285-1.0985-.6062-.1381-1.3072-.1155-1.8419,.241-1.1166,.7444-2.2333,1.4888-3.3499,2.2333-.5194,.3462-.9292,.8139-1.0985,1.4285-.0996,.3177-.1138,.6354-.0427,.9532,.0144,.3181,.109,.6143,.2837,.8887,.3291,.5104,.819,.9597,1.4285,1.0985,.6062,.1381,1.3072,.1155,1.8419-.241h0Z" style="fill:#f953b2;"/><path d="M189.8676,802.6341c2.9603,4.478,5.9206,8.9561,8.8808,13.4341,.6886,1.0416,2.144,1.5837,3.2704,.8575,1.0391-.6699,1.595-2.1548,.8575-3.2704-2.9603-4.478-5.9206-8.9561-8.8808-13.4341-.6886-1.0416-2.144-1.5837-3.2704-.8575-1.0391,.6699-1.595,2.1548-.8575,3.2704h0Z" style="fill:#f953b2;"/><path d="M235.8493,746.7839c4.8539,.9353,9.8657,.1787,14.1777-2.2668,1.0883-.6172,1.5508-2.1951,.8575-3.2704-.709-1.0998-2.1061-1.5179-3.2704-.8575-.4556,.2584-.9189,.5006-1.3948,.7195-.0949,.0441-.1903,.0871-.2862,.129,.2504-.1035,.2476-.1032-.0084,.001-.2612,.0986-.5209,.1998-.7852,.2904-.9243,.3168-1.8739,.5589-2.8371,.7228-.1376,.0234-.2755,.0452-.4136,.0655,.2552-.0329,.294-.0387,.1165-.0173-.2433,.0217-.4856,.0522-.7293,.0708-.487,.0372-.9756,.0546-1.464,.0521s-.9766-.0251-1.4631-.068c-.1043-.0092-.984-.1285-.4037-.0375-.276-.0433-.5507-.0905-.825-.1434-1.2239-.2358-2.6383,.3433-2.9404,1.6695-.2689,1.1808,.3566,2.6874,1.6695,2.9404h0Z" style="fill:#f953b2;"/><g><path d="M898.4248,519.4828c1.522,.4737,3.2502,.5902,5.2027,.2515,5.298-.919,9.6893-4.5303,13.6102-8.21,15.2927-14.3517,27.6388-32.0591,35.0461-51.7252,3.4029-9.0346,6.1931-19.1043,8.0153-28.4982,.6171-3.1811,.8382-27.5217-5.2019-27.0723,6.7526-.5024,13.6166,.5579,19.9029,3.0744-2.6721-8.6875-11.6354-15.0003-20.7152-14.5897,2.2848-7.1832,7.361-13.4385,13.9199-17.1532-7.5237-3.1836-17.2933,1.0788-20.0768,8.7595,.1115-13.0453-6.8438-25.3604-15.8127-34.4222-18.041-18.2277-45.7914-29.2593-71.6184-28.4589-2.8522,.0884-5.8787,.3871-8.1461,2.1197s-3.2819,5.3812-1.3527,7.4838c1.8617,2.029,5.5694,1.3832,7.1483-.8728,1.5789-2.2561,1.2607-5.4516-.1716-7.8035-1.4323-2.3519-3.7834-3.9933-6.204-5.3062-12.733-6.9065-23.9939-11.9789-38.7227-10.3877-12.6371,1.3652-24.9118,6.3449-34.7569,14.414-8.4685,6.9408-15.4271,16.8571-15.3387,27.8063,.0884,10.9491,9.538,21.9957,20.4199,20.7803,7.2246-.8069,8.7209,8.624,12.4795,13.3131,4.6333,5.7805,11.2397,10.3618,18.6875,11.364,6.5971,.8878,14.0302-4.1087,13.8977-10.7639,2.8376,8.0681,7.346,16.1792,14.9695,20.0559,7.6235,3.8767,18.7875,1.4676,21.7293-6.5631-.4482,5.8689,6.0585,9.4865,9.4888,14.2695,5.0964,7.1062,3.1889,16.862,1.0659,25.3452-2.6483,10.5824-5.2967,21.1649-7.945,31.7473,3.368-7.268,6.9859-14.8495,13.4349-19.6011,6.449-4.7517,16.6385-5.4542,21.8011,.6717,13.6886,16.2449-12.2633,31.5998-14.1821,46.1497-1.0517,7.9748,1.1083,21.2334,9.4254,23.8222Z"/><path d="M897.7894,521.7878c5.9273,1.7192,11.9283-1.076,16.5608-4.6397,4.6801-3.6004,8.8586-7.9495,12.8206-12.3121,7.9478-8.7515,14.8911-18.4648,20.4327-28.9126,5.8589-11.046,10.0161-22.9152,13.0195-35.0345,.9754-3.9362,2.0878-7.9501,2.2852-12.0194,.1495-3.0827,.0972-6.1827-.0791-9.263-.22-3.845-.5637-7.8238-1.6842-11.5256-.8441-2.7887-2.588-6.4076-6.0476-6.2427v4.7806c6.6076-.4567,13.106,.5599,19.2674,2.9891,1.7033,.6715,3.4556-1.3212,2.9404-2.9404-3.0947-9.7251-12.7737-16.7085-23.0202-16.3445,.7683,1.0086,1.5366,2.0172,2.3049,3.0258,2.1591-6.636,6.7812-12.2509,12.8214-15.7247,1.9482-1.1204,1.2315-3.6328-.571-4.3689-8.9307-3.6472-19.6894,1.5953-23.0172,10.429,1.5651,.2118,3.1302,.4236,4.6952,.6354,.0401-14.0198-7.3116-26.9964-17.057-36.657-9.3812-9.2996-20.8029-16.3734-33.0278-21.2862-12.1853-4.897-25.4211-7.5832-38.5732-7.3562-3.3321,.0575-6.9273,.2248-9.8483,2.017-2.8307,1.7368-4.6296,5.0184-4.1128,8.3612,.4928,3.1881,3.3308,5.3764,6.5261,5.2478,3.3041-.133,6.0889-2.3415,7.0178-5.5043,.97-3.3027-.1603-6.822-2.2457-9.4318-2.1787-2.7266-5.3182-4.3579-8.3434-5.9612-6.1163-3.2416-12.45-6.2675-19.1682-8.0357-13.7555-3.6203-28.4621-1.0556-41.1704,4.9598-12.0035,5.6817-23.4607,15.3153-28.0201,28.1334-2.0792,5.8455-2.4324,12.428-.149,18.2665,2.1834,5.5825,6.2656,10.703,11.7904,13.2638,2.6272,1.2178,5.4884,1.9255,8.3984,1.8054,1.2256-.0506,2.1501-.223,3.102,.0514,.7783,.2244,1.2988,.6216,2.0333,1.4045,1.3398,1.428,2.4214,3.7002,3.4078,5.6526,1.149,2.2743,2.3662,4.384,4.0312,6.3276,4.2358,4.9447,9.9356,8.9267,16.2907,10.5496,5.9672,1.5238,12.542,.2374,16.6461-4.6546,1.8814-2.2426,2.9843-4.9404,2.9811-7.8874-1.5651,.2118-3.1302,.4236-4.6952,.6354,2.7277,7.6882,6.7402,15.3003,13.6235,20.0288,5.8668,4.0303,13.5937,4.7305,20.0549,1.6999,3.5617-1.6706,6.232-4.5734,7.6304-8.2359-1.5651-.2118-3.1302-.4236-4.6952-.6354-.2417,4.4256,2.6053,7.8849,5.5304,10.8592,1.3886,1.412,2.8773,2.7727,4.0874,4.3472,1.3473,1.753,2.2033,3.7747,2.6791,5.9236,.9856,4.4514,.2761,9.1885-.6585,13.5854-1.1617,5.4651-2.6514,10.8701-4.0077,16.2893-1.6452,6.5739-3.2904,13.1479-4.9355,19.7218-.6304,2.519,3.188,4.3886,4.3689,1.8419,3.9558-8.5309,8.7159-19.0966,18.7155-21.6449,3.7681-.9603,8.2456-.7347,11.376,1.8084,1.5234,1.2376,2.6954,2.9777,3.5446,4.731,.2942,.6075,.5749,1.3951,.7749,2.1775,.2429,.9501,.2944,1.3105,.3299,2.2256,.0705,1.8184-.1313,2.9906-.6718,4.7745-.5282,1.7435-1.1677,3.1155-2.0727,4.7715-1.8737,3.4286-4.2006,6.5874-6.4889,9.7453-2.2778,3.1434-4.607,6.2988-6.3856,9.7611-1.6979,3.305-2.6055,6.6545-2.7454,10.3691-.3218,8.5438,2.1615,20.3959,11.4033,23.4218,2.9306,.9595,4.1865-3.6553,1.2709-4.6099-3.1676-1.0371-5.2364-4.3017-6.3652-7.634-1.2822-3.7851-1.7228-7.7567-1.5022-11.7422,.1837-3.3188,1.3161-6.2365,3.1361-9.3255,2.0158-3.4214,4.4347-6.587,6.7477-9.8081,4.5024-6.2701,9.4369-13.5409,8.2575-21.6572-.5978-4.1142-2.983-8.2873-6.23-10.8844-3.8598-3.0872-8.8631-3.863-13.6538-3.1352-12.4935,1.898-18.7691,13.8921-23.5687,24.2427,1.4563,.614,2.9126,1.2279,4.3689,1.8419,2.8713-11.4734,5.9443-22.9173,8.5956-34.4434,1.0918-4.7463,1.9876-9.7347,1.4813-14.6176-.5098-4.9169-2.4087-9.0942-5.7771-12.7097-2.6662-2.8618-7.0594-5.9192-6.8242-10.2268,.0641-1.1737-.9578-2.215-2.0726-2.3476-1.2496-.1487-2.1865,.5697-2.6227,1.7122-1.8446,4.8311-7.5086,6.8111-12.3645,6.6038-6.1887-.2642-11.2618-4.5472-14.5989-9.5439-2.1836-3.2695-3.814-6.856-5.1256-10.5527-.8704-2.4532-4.6983-2.1864-4.6952,.6354,.005,4.5498-4.3209,7.7613-8.5106,8.3902-2.6872,.4034-5.5732-.4369-8.0457-1.4227-2.5175-1.0037-4.921-2.4866-7.0042-4.2153-2.0088-1.6669-4.1398-3.7827-5.3954-5.7102-1.1557-1.774-2.0206-3.7192-3.0035-5.5896-2.0551-3.9106-4.9942-7.7846-9.8411-7.8046-1.1546-.0048-2.2861,.1832-3.447,.1107-1.1843-.074-2.3469-.3585-3.4664-.7471-2.2345-.7757-4.2434-2.1725-5.9202-3.8221-3.4935-3.4371-5.8347-8.2573-6.0516-13.1839-.5146-11.6913,7.882-21.9738,16.818-28.5194,10.0923-7.3925,22.7113-12.048,35.2747-12.2936,12.1468-.2374,23.8658,4.8196,34.1412,10.9294,2.2938,1.3639,4.7337,3.2936,5.1578,6.1084,.2889,1.918-.5842,3.8807-2.5274,4.0497-1.8996,.1652-2.2613-1.7769-1.3365-3.3523,1.315-2.24,4.4544-2.5361,6.7892-2.6523,11.7723-.5859,23.6884,1.5592,34.78,5.4346,10.9544,3.8275,21.3886,9.5586,30.2751,17.0443,9.1315,7.6921,16.9625,17.4929,19.8,29.3044,.6857,2.8544,1.013,5.7399,1.0046,8.6754-.0081,2.8337,3.7805,3.0637,4.6952,.6354,2.4895-6.6086,10.7918-9.6811,17.1364-7.09l-.571-4.3689c-7.1278,4.0993-12.4777,10.7728-15.0184,18.5818-.4713,1.4486,.7994,3.0792,2.3049,3.0258,8.0889-.2873,15.9415,5.0767,18.4103,12.8348,.9801-.9801,1.9602-1.9602,2.9404-2.9404-6.5036-2.564-13.5647-3.6419-20.5383-3.1598-3.0422,.2103-3.0939,4.9281,0,4.7806,.1191-.0057,.2338-.0004,.3526,.0022-.0016,0-.6638-.1001-.2974-.0266,.5876,.1178-.5007-.2114,.0626,.0375,.2161,.0955-.3467-.4157,.0486,.0585,.4523,.5426-.1267-.3419,.1986,.2244,.131,.2281,.2769,.445,.3997,.6787,.0665,.1265,.3589,.7713,.2448,.5001-.1161-.276,.169,.4623,.2136,.5914,.1327,.3844,.2505,.774,.359,1.1658,.8834,3.1903,1.1051,5.6989,1.3218,8.9883,.199,3.0196,.2627,6.0547,.1641,9.0796-.0306,.9394-.1074,1.8711-.1739,2.8077-.0413,.5819,.1315-.5966,.0149-.1272-.1316,.53-.211,1.0779-.32,1.613-.3197,1.5702-.6612,3.1359-1.0233,4.6968-2.6335,11.3529-6.2178,22.5761-11.3716,33.0484-4.8263,9.8068-10.8684,19.0225-17.9051,27.3844-4.0034,4.7574-8.3047,9.2951-12.9064,13.479-3.9997,3.6365-9.6423,8.0324-15.4196,6.3568-2.9605-.8587-4.2246,3.7531-1.2709,4.6099Z"/></g><path d="M803.7489,453.043c-.0986,.7645-.6303,1.2083-1.1255,1.7296-.631,.6642-1.0266,1.5098-.8326,2.4373,.2192,1.0478,.9836,1.7681,1.9421,2.1708,1.9509,.8196,4.3245,.5724,6.3691,.3045,2.8618-.3749,5.5857-1.2977,8.1161-2.695,.7521-.4154,1.4821-.8706,2.1869-1.3619,.3627-.2528,.71-.5335,1.0884-.7628,.1483-.0899,.3585-.1635,.4918-.2667,.2207-.1708-.0209-.1412-.0382-.057-.0542,.2631,.0906,.7133,.089,1.0019-.0026,.4494-.0567,.8842-.1548,1.3222-.1948,.8691-.5122,1.7032-.9226,2.4923-1.5266,2.936-4.3091,5.5358-7.7348,5.8385-2.0271,.1791-2.046,3.3679,0,3.1871,3.4977-.309,6.6024-2.122,8.7862-4.8532,1.1531-1.4421,2.0599-3.0394,2.6533-4.7923,.5976-1.7652,.95-4.1705,.0192-5.89-1.0891-2.0119-3.4632-1.6325-5.071-.5554-1.6231,1.0874-3.1954,2.1669-5.0079,2.9321-2.3611,.9968-4.5709,1.4099-6.9515,1.4883-.642,.0211-1.306,.0333-1.9431-.0618-.0007,0-.4702-.1043-.6361-.1553-.0681-.0209-.2638-.0948-.2621-.1071,.0258-.1863,.1255,.3433,.0748,.1044,.1829,.8608-.1802,.5248,.1877,.3443,.2398-.1177,.4442-.4408,.6132-.6479,.7614-.9333,1.0974-1.968,1.2494-3.1468,.1103-.855-.8113-1.5935-1.5935-1.5935-.9527,0-1.483,.736-1.5935,1.5935h0Z"/><g><path d="M818.6088,459.2935c.5981,1.1302,.8556,3.219,.3714,4.3785,1.6905-1.3894,4.735-4.8799,4.4362-7.3177-.5597-4.5661-4.4545-.915-6.1115,.506-.4935,.4233-.9517,.7044-1.6145,.7343,1.2239,.8773,2.0826,.1205,2.9185,1.6989Z"/><path d="M817.2328,460.0978c.0344,.0671,.0632,.1414,.1006,.2068,.0918,.1607-.1163-.3365-.0319-.0635,.0517,.1671,.111,.3306,.156,.5,.0473,.1778,.0869,.3576,.1201,.5386,.01,.0543,.0564,.381,.0239,.1226-.0336-.2665,.0085,.1033,.0105,.1259,.0312,.3489,.0381,.7007,.0113,1.0501-.0237,.3089-.0482,.0075,.016-.0614-.0263,.0282-.0351,.1965-.0459,.2446-.0372,.1671-.087,.3277-.1499,.4869-.2466,.6235,.1594,1.4969,.7323,1.7996,.6698,.3539,1.362,.2222,1.9311-.2492,1.2208-1.0113,2.2771-2.2462,3.1819-3.5433,.9355-1.341,1.8409-3.0496,1.736-4.7372-.1002-1.6122-.8002-3.5594-2.5948-3.9072-1.4021-.2718-2.7467,.3941-3.8624,1.1864-.6105,.4335-1.1937,.9071-1.7621,1.3941-.2097,.1797-.4214,.3582-.6276,.5419-.2983,.2659,.2787-.1646-.0448,.0399-.0927,.0586-.1898,.1145-.2803,.1757-.283,.1912,.3185-.0612-.0175,.0106-.071,.0224-.143,.041-.2159,.0557,.2335-.0245,.2571-.0293,.0708-.0143-.6785,.0475-1.3747,.4589-1.5366,1.1699-.1658,.7277,.1259,1.3821,.7323,1.7996,.5573,.3837,1.188,.5679,1.8384,.7133,.1092,.0244,.2171,.0624,.3263,.0846,.2004,.0408-.1439-.0453-.1711-.0796,.025,.0316,.1353,.0815,.1706,.0923,.1232,.038-.2112-.2122-.1217-.1005,.046,.0574,.1119,.1096,.1647,.1625,.1739,.1742-.071-.051-.054-.07,.0015-.0017,.1886,.3158,.1935,.3246,.4024,.7309,1.4697,1.0298,2.1803,.5717,.7407-.4775,1.0022-1.3983,.5717-2.1803-.4765-.8654-1.1709-1.5095-2.1224-1.8049-.2461-.0764-.5028-.1121-.7524-.175-.0681-.0172-.1359-.0353-.2029-.0563-.0594-.0186-.3067-.1209-.0633-.0134,.2518,.1112-.0201-.0163-.0731-.0457-.0956-.053-.1861-.1133-.2761-.1753l-.8043,2.9695c1.1403-.0798,1.9763-.5439,2.8282-1.2759,.3677-.3159,.7317-.636,1.1074-.9425,.1004-.0819,.202-.1623,.3034-.243,.2295-.1824-.2707,.2007-.104,.0806,.0535-.0386,.1054-.0795,.1585-.1187,.2318-.1709,.4687-.3353,.7132-.4875,.2123-.1321,.4312-.2483,.6535-.3622,.3479-.1784-.3638,.1168,.0047-.0028,.1245-.0404,.2468-.0836,.3748-.1127,.0401-.0091,.0821-.0146,.1218-.0248,.2564-.0663-.4446,.0149-.1857,.0283,.0357,.0018,.0813-.0007,.1158-.0032,.1774-.0128,.2386,.1118-.1992-.0395,.0713,.0246,.1927,.0659,.2653,.0696,.0191,.001-.4218-.1836-.2306-.0915,.2764,.1332-.1668-.177-.1118-.1038,.0439,.0584,.1318,.1551,.1922,.1975-.2948-.2073-.1832-.284-.0958-.0996,.0182,.0384,.0455,.0922,.0701,.1289,.1621,.2423-.1269-.3811-.0343-.0863,.0175,.0557,.0385,.1103,.0558,.1661,.0589,.1898,.0978,.3829,.1363,.5774,.072,.3637-.0114-.3116,.0013-.0068,.0023,.0553,.0083,.1101,.0102,.1655,.0045,.1365-.0314,.2916-.0152,.4256-.044-.3624,.0431-.2699,.0055-.0727-.0114,.0597-.0241,.1192-.0379,.1784-.0429,.1842-.097,.3657-.159,.5444-.0264,.0762-.0637,.1523-.085,.2299-.0588,.2139,.1712-.3679,.0254-.0569-.0731,.1559-.1451,.3116-.2244,.4646-.181,.349-.3832,.687-.5993,1.0153-.1204,.1829-.2452,.3629-.3737,.5402-.0429,.0592-.0868,.1176-.1299,.1766-.1907,.2608,.2043-.2546-.0507,.0669-.2533,.3193-.5178,.6298-.7919,.9314-.484,.5325-.9977,1.0407-1.5522,1.5l2.6634,1.5504c.3265-.8256,.3627-1.8045,.2714-2.6802-.1073-1.0287-.3291-2-.8034-2.9262-.3807-.7433-1.4847-1.0201-2.1803-.5717-.7584,.489-.9789,1.3852-.5717,2.1803Z"/></g><path d="M828.2948,415.3352c4.2831-.4958,9.3427,.1365,11.6679,4.1954,1.0193,1.7794,3.7742,.1758,2.752-1.6086-2.8935-5.0509-9.0248-6.3984-14.4199-5.7739-.8548,.0989-1.5935,.6616-1.5935,1.5935,0,.7846,.733,1.6932,1.5935,1.5935h0Z"/><path d="M791.9591,399.9198c5.015-.6469,10.101,1.0074,13.6774,4.6071,1.4476,1.4571,3.7015-.7963,2.2536-2.2536-4.1088-4.1356-10.1316-6.2887-15.931-5.5406-.8534,.1101-1.5935,.6536-1.5935,1.5935,0,.7755,.734,1.7044,1.5935,1.5935h0Z"/><g><path d="M827.3829,424.4343c-.9287,3.9412,3.5977,7.3442,6.0236,3.1133,.2472-.4312,.4437-.8962,.5301-1.3856,.6883-3.9015-5.5394-6.0316-6.5536-1.7276Z"/><path d="M825.8463,424.0107c-.4768,2.1083,.0993,4.5466,1.8389,5.9438,.8554,.687,1.8699,1.1609,2.991,1.1356,1.1733-.0265,2.2651-.5519,3.0856-1.3801,1.6899-1.7056,2.411-4.3703,1.1828-6.5306-.9099-1.6003-2.6501-2.5671-4.4559-2.7047-.9253-.0705-1.9477,.1742-2.7184,.6972-.9887,.6708-1.6409,1.682-1.924,2.8388-.1978,.8083,.2574,1.7654,1.113,1.9602,.822,.1872,1.7483-.2468,1.9602-1.113,.0407-.1663,.0944-.3259,.1469-.4885,.0659-.2038-.1857,.3935-.0273,.069,.0378-.0774,.0785-.1534,.1224-.2275,.0371-.0626,.0791-.1219,.1178-.1833,.1641-.26-.2369,.265-.0842,.1076,.108-.1113,.2142-.219,.3277-.3248,.1587-.148-.3719,.2502-.121,.0979,.0552-.0335,.108-.0705,.1641-.1028,.0557-.032,.1136-.0592,.1701-.0895,.2541-.1363-.3987,.1406-.1288,.0548,.1308-.0416,.2596-.0834,.3943-.1115,.0776-.0161,.3415-.0532,.005-.0078-.3349,.0452-.0507,.0097,.0357,.005,.1301-.0071,.2604-.0064,.3904,.0015,.065,.0039,.1314,.0161,.1963,.0172-.5436-.0092-.2914-.0434-.1154-.008,.1311,.0263,.2608,.0595,.3885,.0991,.0644,.0199,.1274,.0434,.1914,.0644,.3199,.105-.2872-.1375-.1122-.0517,.2658,.1305,.5073,.2768,.7545,.4391,.1595,.1048-.3426-.2913-.0937-.0677,.0435,.0391,.0879,.0769,.1305,.1169,.1142,.107,.2158,.2234,.3202,.3395,.1584,.1761-.2482-.3514-.089-.1144,.038,.0566,.0776,.112,.1139,.1699,.0199,.0318,.2289,.4105,.2208,.4137-.0145,.0057-.1787-.4657-.0626-.1332,.023,.0657,.0439,.1322,.0625,.1993,.0188,.0678,.0351,.1363,.0493,.2052,.0081,.0395,.0116,.081,.0222,.1197,.039,.1422-.0328-.4603-.0288-.2099,.0024,.1482,.018,.2942,.0121,.4429-.003,.0765-.0137,.1525-.0172,.2288-.0078,.1678,.026-.3052,.035-.2575,.0117,.062-.0317,.1737-.0458,.2354-.03,.1311-.072,.2566-.1105,.385-.0823,.2744,.0234-.0189,.0351-.0604-.0189,.0669-.0676,.1486-.097,.2082-.1167,.2365-.2509,.4649-.3991,.683-.0267,.0393-.0545,.0776-.0814,.1168-.1488,.2169,.0612-.0889,.0827-.1042-.0759,.054-.1348,.1605-.1997,.2302-.0659,.0707-.1339,.1394-.2048,.2051-.039,.0362-.0801,.0698-.1192,.1058-.1898,.1753,.266-.1811,.1107-.0834-.1439,.0906-.2823,.1815-.4333,.2609-.2746,.1444,.3349-.1137,.0973-.0408-.0846,.0259-.1676,.055-.2537,.076-.2105,.0512-.3173-.036,.1058-.0005-.0703-.0059-.1513,.0131-.222,.0147-.0739,.0017-.1471-.0021-.2209-.0045-.0314-.001-.0628-.0072-.0941-.008-.1853-.0051,.4407,.0842,.2056,.0256-.1443-.036-.2848-.0717-.4269-.1163-.0146-.0046-.1029-.029-.1191-.0457-.0182-.0188,.4071,.2068,.2048,.0821-.0731-.0451-.1543-.079-.2285-.1228-.0756-.0446-.1473-.0946-.2208-.1425-.1951-.1269,.3251,.2717,.0589,.0449-.1473-.1256-.2846-.2629-.4111-.4094-.0303-.0351-.0582-.0725-.0891-.1068-.1083-.1203,.2493,.3549,.1008,.1267-.0517-.0795-.107-.1562-.1567-.2372-.1018-.166-.1777-.3421-.2687-.5133,.244,.4595,.0628,.1466,.0141,.0009-.0318-.0951-.0603-.1912-.0855-.2882-.0255-.0984-.0477-.1975-.0664-.2973-.0095-.0504-.0155-.1016-.0258-.1518-.0347-.1699,.0374,.4473,.0241,.1535-.0097-.213-.0231-.4227-.0121-.6362,.0038-.0738,.0496-.5076,.0118-.1965-.0372,.3067,.0304-.1204,.0489-.2021,.1835-.8112-.2472-1.7631-1.113-1.9602-.8097-.1844-1.7636,.2434-1.9602,1.113Z"/></g><g><path d="M791.2626,411.686c-.9287,3.9412,3.5977,7.3442,6.0236,3.1133,.2472-.4312,.4437-.8962,.5301-1.3856,.6883-3.9015-5.5394-6.0316-6.5536-1.7276Z"/><path d="M789.726,411.2624c-.4768,2.1083,.0993,4.5466,1.8389,5.9438,.8554,.687,1.8699,1.1609,2.991,1.1356,1.1733-.0265,2.2651-.5519,3.0856-1.3801,1.6899-1.7056,2.411-4.3703,1.1828-6.5306-.9099-1.6003-2.6501-2.5671-4.4559-2.7047-.9253-.0705-1.9477,.1742-2.7184,.6972-.9887,.6708-1.6409,1.682-1.924,2.8388-.1978,.8083,.2574,1.7654,1.113,1.9602,.822,.1872,1.7483-.2468,1.9602-1.113,.0407-.1663,.0944-.3259,.1469-.4885,.0659-.2038-.1857,.3935-.0273,.069,.0378-.0774,.0785-.1534,.1224-.2275,.0371-.0626,.0791-.1219,.1178-.1833,.1641-.26-.2369,.265-.0842,.1076,.108-.1113,.2142-.219,.3277-.3248,.1587-.148-.3719,.2502-.121,.0979,.0552-.0335,.108-.0705,.1641-.1028,.0557-.032,.1136-.0592,.1701-.0895,.2541-.1363-.3987,.1406-.1288,.0548,.1308-.0416,.2596-.0834,.3943-.1115,.0776-.0161,.3415-.0532,.005-.0078-.3349,.0452-.0507,.0097,.0357,.005,.1301-.0071,.2604-.0064,.3904,.0015,.065,.0039,.1314,.0161,.1963,.0172-.5436-.0092-.2914-.0434-.1154-.008,.1311,.0263,.2608,.0595,.3885,.0991,.0644,.0199,.1274,.0434,.1914,.0644,.3199,.105-.2872-.1375-.1122-.0517,.2658,.1305,.5073,.2768,.7545,.4391,.1595,.1048-.3426-.2913-.0937-.0677,.0435,.0391,.0879,.0769,.1305,.1169,.1142,.107,.2158,.2234,.3202,.3395,.1584,.1761-.2482-.3514-.089-.1144,.038,.0566,.0776,.112,.1139,.1699,.0199,.0318,.2289,.4105,.2208,.4137-.0145,.0057-.1787-.4657-.0626-.1332,.023,.0657,.0439,.1322,.0625,.1993,.0188,.0678,.0351,.1363,.0493,.2052,.0081,.0395,.0116,.081,.0222,.1197,.039,.1422-.0328-.4603-.0288-.2099,.0024,.1482,.018,.2942,.0121,.4429-.003,.0765-.0137,.1525-.0172,.2288-.0078,.1678,.026-.3052,.035-.2575,.0117,.062-.0317,.1737-.0458,.2354-.03,.1311-.072,.2566-.1105,.385-.0823,.2744,.0234-.0189,.0351-.0604-.0189,.0669-.0676,.1486-.097,.2082-.1167,.2365-.2509,.4649-.3991,.683-.0267,.0393-.0545,.0776-.0814,.1168-.1488,.2169,.0612-.0889,.0827-.1042-.0759,.054-.1348,.1605-.1997,.2302-.0659,.0707-.1339,.1394-.2048,.2051-.039,.0362-.0801,.0698-.1192,.1058-.1898,.1753,.266-.1811,.1107-.0834-.1439,.0906-.2823,.1815-.4333,.2609-.2746,.1444,.3349-.1137,.0973-.0408-.0846,.0259-.1676,.055-.2537,.076-.2105,.0512-.3173-.036,.1058-.0005-.0703-.0059-.1513,.0131-.222,.0147-.0739,.0017-.1471-.0021-.2209-.0045-.0314-.001-.0628-.0072-.0941-.008-.1853-.0051,.4407,.0842,.2056,.0256-.1443-.036-.2848-.0717-.4269-.1163-.0146-.0046-.1029-.029-.1191-.0457-.0182-.0188,.4071,.2068,.2048,.0821-.0731-.0451-.1543-.079-.2285-.1228-.0756-.0446-.1473-.0946-.2208-.1425-.1951-.1269,.3251,.2717,.0589,.0449-.1473-.1256-.2846-.2629-.4111-.4094-.0303-.0351-.0582-.0725-.0891-.1068-.1083-.1203,.2493,.3549,.1008,.1267-.0517-.0795-.107-.1562-.1567-.2372-.1018-.166-.1777-.3421-.2687-.5133,.244,.4595,.0628,.1466,.0141,.0009-.0318-.0951-.0603-.1912-.0855-.2882-.0255-.0984-.0477-.1975-.0664-.2973-.0095-.0504-.0155-.1016-.0258-.1518-.0347-.1699,.0374,.4473,.0241,.1535-.0097-.213-.0231-.4227-.0121-.6362,.0038-.0738,.0496-.5076,.0118-.1965-.0372,.3067,.0304-.1204,.0489-.2021,.1835-.8112-.2472-1.7631-1.113-1.9602-.8097-.1844-1.7636,.2434-1.9602,1.113Z"/></g></g><path d="M281.8647,260.9683c-2.1115-15.9585,.9845-32.4134,8.7772-46.5051,2.2064-3.9899,4.763-7.784,7.6762-11.2921,.8241-.9924,.9721-2.4083,0-3.3804-.8484-.8484-2.5517-.9979-3.3804,0-10.9701,13.21-17.4274,29.7815-18.3978,46.9236-.2694,4.758-.0809,9.5303,.5441,14.254,.1693,1.2795,.9774,2.3903,2.3903,2.3903,1.1599,0,2.5609-1.1014,2.3903-2.3903h0Z" style="fill:#f953b2;"/><path d="M662.1281,200.6372c8.6657,9.8281,15.8161,20.9117,21.2872,32.8152,.5391,1.173,2.2342,1.4636,3.2704,.8575,1.2043-.7044,1.3987-2.093,.8575-3.2704-5.6427-12.2768-13.1003-23.6498-22.0347-33.7827-2.0387-2.3122-5.4091,1.0795-3.3804,3.3804h0Z" style="fill:#f953b2;"/><path d="M702.0552,225.1497c3.0761,0,3.0812-4.7806,0-4.7806-3.0761,0-3.0812,4.7806,0,4.7806h0Z" style="fill:#f953b2;"/></svg>