<?xml version="1.0" encoding="UTF-8"?><svg id="Layer_2" xmlns="http://www.w3.org/2000/svg" width="1000" height="1000" viewBox="0 0 1000 1000"><path d="M531.317,423.7202v-8.1789c0-4.5171-3.6618-8.1789-8.1789-8.1789h-30.6708c-4.5171,0-8.1789,3.6618-8.1789,8.1789h0c0,4.5171-3.6618,8.1789-8.1789,8.1789h-96.7834c-4.5171,0-8.1789,3.6618-8.1789,8.1789v161.5328h160.3118v-169.7117h-.1421Z" style="fill:#6966ed;"/><path d="M519.0487,444.849v-8.1789c0-4.5171-3.6618-8.1789-8.1789-8.1789h-30.6708c-4.5171,0-8.1789,3.6618-8.1789,8.1789h0c0,4.5171-3.6618,8.1789-8.1789,8.1789h-96.7834c-4.5171,0-8.1789,3.6618-8.1789,8.1789v161.5328h160.3118v-169.7117h-.1421Z" style="fill:#fff;"/><path d="M497.9199,450.9831v-8.1789c0-4.5171-3.6618-8.1789-8.1789-8.1789h-30.6708c-4.5171,0-8.1789,3.6618-8.1789,8.1789h0c0,4.5171-3.6618,8.1789-8.1789,8.1789h-96.7834c-4.5171,0-8.1789,3.6618-8.1789,8.1789v161.5328h160.3118v-169.7117h-.1421Z" style="fill:#6966ed;"/><path d="M420.9022,423.7202v-8.1789c0-4.5171-3.6618-8.1789-8.1789-8.1789h-30.6708c-4.5171,0-8.1789,3.6618-8.1789,8.1789h0c0,4.5171-3.6618,8.1789-8.1789,8.1789h-96.7834c-4.5171,0-8.1789,3.6618-8.1789,8.1789v161.5328h160.3118v-169.7117h-.1421Z" style="fill:#6966ed;"/><path d="M408.6339,444.849v-8.1789c0-4.5171-3.6618-8.1789-8.1789-8.1789h-30.6708c-4.5171,0-8.1789,3.6618-8.1789,8.1789h0c0,4.5171-3.6618,8.1789-8.1789,8.1789h-96.7834c-4.5171,0-8.1789,3.6618-8.1789,8.1789v161.5328h160.3118v-169.7117h-.1421Z" style="fill:#fff;"/><path d="M387.5051,450.9831v-8.1789c0-4.5171-3.6618-8.1789-8.1789-8.1789h-30.6708c-4.5171,0-8.1789,3.6618-8.1789,8.1789h0c0,4.5171-3.6618,8.1789-8.1789,8.1789h-96.7834c-4.5171,0-8.1789,3.6618-8.1789,8.1789v161.5328h160.3118v-169.7117h-.1421Z" style="fill:#6966ed;"/><path d="M737.4553,347.6102c.1189,.4267,.1837,.7737,.1524,1.0776-.0178,.1736-.0052,.0949,.0273,.0112-.0377,.0971-.1008,.1881-.1522,.2781-.1065,.1866-.0251,.0634,.0096,.0178-.0867,.1142-.1976,.2098-.2957,.3135-.2293,.2423-.1829,.1709-.0903,.098-.0856,.0674-.1816,.1256-.2733,.1841-.1847,.1177-.3754,.2241-.5714,.3217-.4064,.2023-.8445,.3321-1.3525,.4655-2.1678,.5693-4.2901,.5375-6.5209,1.1171-2.3973,.6229-4.6869,2.0892-5.0057,4.7414-.3327,2.7684,2.1966,4.4984,4.3683,5.6013,2.435,1.2366,5.1043,1.8949,7.8361,1.9212,1.105,.0106,2.0447-.9474,2.0447-2.0447,0-1.1175-.9359-2.034-2.0447-2.0447-2.5069-.0241-4.9253-.7268-7.0845-2.1152-.4146-.2666-.8773-.5789-1.0366-.8017-.2563-.3587-.0314-.1607-.0384-.0235-.018,.351,.186-.4849,.0683-.2508,.0995-.198,.1401-.2448,.4046-.4383-.112,.103-.0673,.0821,.1342-.0629,.1291-.0758,.2613-.1458,.3965-.2102-.1453,.0526-.0997,.035,.1368-.0527,.1414-.0506,.284-.0977,.4277-.1411,.3178-.0974,.6405-.1787,.9648-.2509,2.5521-.568,5.2743-.5343,7.8136-1.6303,1.2663-.5466,2.4385-1.3756,3.185-2.5601,.8887-1.41,.8744-3.0487,.4398-4.6085-.7054-2.5316-4.652-1.4563-3.9434,1.0871h0Z"/><rect x="164.6307" y="479.32" width="180.5214" height="227.9346" style="fill:#f953b2;"/><polygon points="290.7218 538.2245 136.0047 538.2245 164.6307 479.32 319.3478 479.32 290.7218 538.2245" style="fill:#f4d13b;"/><rect x="319.4498" y="478.999" width="276.6179" height="227.9346" style="fill:#f4d13b;"/><polygon points="626.0569 538.2245 349.439 538.2245 319.4498 478.999 596.0677 478.999 626.0569 538.2245" style="fill:#f953b2;"/><path d="M468.5271,652.0966c11.2152,.1637,22.4303,.3274,33.6455,.491,1.5979,.0233,3.1958,.0466,4.7936,.07,3.9487,.0576,3.9502-6.0765,0-6.1342-11.2152-.1637-22.4303-.3274-33.6455-.491-1.5979-.0233-3.1958-.0466-4.7936-.07-3.9487-.0576-3.9502,6.0765,0,6.1342h0Z"/><path d="M467.3653,670.6862c11.2152,.1637,22.4303,.3274,33.6455,.491,1.5979,.0233,3.1958,.0466,4.7936,.07,3.9487,.0576,3.9502-6.0765,0-6.1342-11.2152-.1637-22.4303-.3274-33.6455-.491-1.5979-.0233-3.1958-.0466-4.7936-.07-3.9487-.0576-3.9502,6.0765,0,6.1342h0Z"/><path d="M466.7843,688.6948c11.2152,.1637,22.4303,.3274,33.6455,.491,1.5979,.0233,3.1958,.0466,4.7936,.07,3.9487,.0576,3.9502-6.0765,0-6.1342-11.2152-.1637-22.4303-.3274-33.6455-.491-1.5979-.0233-3.1958-.0466-4.7936-.07-3.9487-.0576-3.9502,6.0765,0,6.1342h0Z"/><path d="M343.6284,607.9464c11.2152,.1637,22.4303,.3274,33.6455,.491,1.5979,.0233,3.1958,.0466,4.7936,.07,3.9487,.0576,3.9502-6.0765,0-6.1342-11.2152-.1637-22.4303-.3274-33.6455-.491-1.5979-.0233-3.1958-.0466-4.7936-.07-3.9487-.0576-3.9502,6.0765,0,6.1342h0Z"/><path d="M342.4666,626.5359c11.2152,.1637,22.4303,.3274,33.6455,.491,1.5979,.0233,3.1958,.0466,4.7936,.07,3.9487,.0576,3.9502-6.0765,0-6.1342-11.2152-.1637-22.4303-.3274-33.6455-.491-1.5979-.0233-3.1958-.0466-4.7936-.07-3.9487-.0576-3.9502,6.0765,0,6.1342h0Z"/><path d="M341.8856,644.5446c11.2152,.1637,22.4303,.3274,33.6455,.491,1.5979,.0233,3.1958,.0466,4.7936,.07,3.9487,.0576,3.9502-6.0765,0-6.1342-11.2152-.1637-22.4303-.3274-33.6455-.491-1.5979-.0233-3.1958-.0466-4.7936-.07-3.9487-.0576-3.9502,6.0765,0,6.1342h0Z"/><g><path d="M739.623,409.9981s13.498,3.615,26.4727-.2774c-7.1361,7.7848-20.8023,12.6436-24.9977,11.836,7.4819-9.8898-1.3497-11.2813-1.475-11.5587Z"/><path d="M738.8076,412.9556c2.9822,.7923,6.1211,1.1744,9.1869,1.4303,6.3248,.528,12.8112,.0818,18.9165-1.7077-.9947-1.7088-1.9894-3.4175-2.9841-5.1263-3.4952,3.7619-7.872,6.4088-12.6751,8.527-.4613,.2034-.5864,.2541-1.2341,.5056-.5337,.2072-1.0712,.4045-1.6125,.5912-1.0307,.3556-2.0755,.6736-3.1345,.9338-.4459,.1095-.8943,.2089-1.3455,.2941-.2256,.0426-.4601,.064-.6829,.1176-.39,.0938,.6423-.0413,.0689-.0112-.38,.0199-.7564,.0678-1.1381,.0671-.1589-.0003-.3418-.0379-.4961-.0152-.5184,.0762,.7537,.1276,.2362,.0375l1.833,4.5055c2.5177-3.384,4.9198-8.2919,2.2555-12.2922-.7946-1.1931-1.9299-2.1676-3.2154-2.7997-.5527-.2718-1.1274-.5024-1.7046-.7171-.1217-.0453-.2452-.094-.3697-.1311-.0462-.0138-.1063-.0508-.1544-.0572,.3838,.0507,1.02,.454,1.234,.7219-1.0344-1.2955-3.2582-1.0793-4.3375,0-1.2799,1.2799-1.037,3.0388,0,4.3375,.469,.5874,1.5724,.9926,2.3229,1.1677-.4529-.1056-.5994-.2987-.0868-.025,.1755,.0937,.3536,.1803,.5248,.2824,.1212,.0723,.7498,.4833,.277,.1569-.4699-.3244,.1819,.2076,.3,.3036,.4257,.3459-.3117-.5637,.0452,.0533,.0491,.0848,.0958,.2077,.1599,.2803,.2715,.3072-.0739-.3547-.0799-.1936-.004,.1062,.0765,.3157,.1204,.423,.1493,.3652-.0395-.0974-.0225-.2618-.0348,.3352,.0138,.697-.0122,1.0381,.0577-.7569-.0819,.2147-.1704,.5054-.0683,.2242-.1442,.4463-.2299,.6645,.1249-.3181,.0097-.0212-.0634,.1223-.5985,1.1756-1.3024,2.2663-2.0899,3.3248-1.1203,1.5057,.0095,4.1879,1.833,4.5055,4.5198,.7873,9.3757-1.128,13.4548-2.8751,5.3504-2.2916,10.5414-5.4601,14.5269-9.7497,2.0226-2.1769,.0548-6.017-2.9841-5.1263-5.6191,1.647-11.4692,1.9741-17.2858,1.4886-.5651-.0472-1.1295-.1022-1.6931-.1651-.264-.0295-.5277-.0621-.7915-.0934-.9732-.1153,.3075,.0472-.223-.0294-.8657-.1251-1.729-.2654-2.5883-.4291-.7566-.1441-1.5154-.2964-2.2602-.4942-3.8191-1.0146-5.4485,4.9008-1.6307,5.915Z"/></g><g><path d="M811.7823,393.4323c-.5755,7.3267,6.7407,6.7833,10.6714,4.0925,4.7057-3.2213,8.5284-8.0946,11.5164-12.8822,4.3784-7.0156,10.5711-14.8195,13.5148-22.524,3.9282-10.2815,4.7548-23.2685,4.0229-34.1414-.9243-13.7308-5.6914-27.4883-15.0079-37.6172-12.5059-13.5965-31.6901-19.206-50.1441-20.0505-13.7001-.627-28.2558,1.3458-39.0646,9.7871-13.0505,10.192-12.9564,32.6291,2.9112,40.9386,7.1869,3.7602,15.3247-6.8584,17.9879-2.7178,2.5955,4.0353,7.4857,6.4755,12.2707,6.1229,4.3327-.3192,8.113-4.0094,11.4478,1.0776,1.534,2.3401,1.7407,5.2947,1.6682,8.0919-.1765,6.8031-1.7428,13.5672-4.5746,19.7554,.9422-13.4881,20.2331-25.362,27.9675-9.5621,1.3743,2.8073,1.62,6.0482,1.3535,9.1624-.4188,4.8936-2.1036,9.7526-5.2526,13.5218-3.149,3.7692-7.8364,6.3508-12.7466,6.4669,.5932,4.4269,1.1863,8.8537,1.7795,13.2806,.3619,2.7006,.8178,5.6018,2.7226,7.5501,1.9049,1.9483,5.7839,2.1071,6.9561-.3527Z"/><path d="M808.7152,393.4323c-.1825,2.9136,.7081,5.8163,3.1564,7.5636,1.9689,1.4051,4.4329,1.5997,6.7558,1.2495,5.8152-.8768,10.4371-5.8277,13.8943-10.23,2.2623-2.8808,4.1483-5.9869,6.1723-9.032,1.9812-2.9808,4.0323-5.9153,5.9528-8.9362,3.856-6.0653,6.7141-12.4198,8.2292-19.4639,1.4998-6.9729,2.0473-14.1714,1.9232-21.2947-.1197-6.8754-.9005-13.7608-2.7471-20.3973-3.6695-13.1882-11.3143-24.792-22.597-32.6481-10.6942-7.4464-23.6237-11.0799-36.453-12.4872-13.2863-1.4574-27.4712-.7587-39.7102,5.0567-5.3776,2.5552-10.3024,6.1532-13.6669,11.12-2.8564,4.2168-4.4142,9.2491-4.7583,14.3095-.6979,10.2638,4.5769,21.0101,14.054,25.5738,5.0485,2.4311,10.0102,.1687,14.5863-2.1832,.4462-.2293,.8925-.459,1.3455-.6746,.2107-.1003,.4231-.1962,.6355-.2928-.7333,.3332-.0828,.034,.0717-.015,.368-.1168,.7323-.2057,1.1049-.3018-.804,.2075-.4561,.0566-.1532,.0621,.3283,.0244,.2079,.0079-.3612-.0495,.3014,.0911,.1957,.0387-.317-.1573,.498,.275-.5493-.5374-.1299-.1188,.4663,.4655-.6023-.8813,.0427,.0873,.4818,.7236,1.0379,1.4192,1.6276,2.0583,1.0839,1.1749,2.3937,2.1984,3.772,3.0033,2.8536,1.6662,6.3253,2.5661,9.6314,2.244,1.3298-.1295,2.5973-.4393,3.8694-.8306,.5791-.1781,1.1556-.3666,1.7421-.5195,.2809-.0732,.5628-.1328,.8464-.1937,.3664-.063,.3714-.0637,.015-.0021,.1814-.0138,.3629-.0187,.5448-.0147,.6474-.0422-.3388-.2345,.2534,.0423,.6828,.3192-.2883-.4076,.3089,.1409,.7382,.6781-.3754-.4802,.3941,.3364,.3447,.3657,.1999,.1825,.5093,.6288,.893,1.2885,1.1612,2.8936,1.2351,4.4285,.1656,3.4377-.224,6.9382-.9241,10.3006-.7156,3.4368-1.7704,6.8219-3.2174,10.0222,1.9051,.516,3.8103,1.032,5.7154,1.548,.0213-.2696,.0436-.5389,.0783-.8071-.095,.7344,.0418-.1549,.0609-.2527,.0864-.4433,.1918-.883,.3144-1.3177,.1231-.4363,.2639-.8677,.4207-1.293,.0267-.0724,.3729-.9034,.0995-.2801,.1284-.2927,.2647-.5818,.4078-.8677,.4309-.8614,.9261-1.6902,1.4763-2.4807,.1575-.2263,.3188-.4503,.486-.6695-.326,.4273-.0341,.0478,.0323-.0291,.3904-.4521,.7748-.905,1.1912-1.334,.3497-.3603,.7117-.7084,1.0861-1.043,.1693-.1513,.3449-.2953,.5153-.4452,.1088-.0957,.5819-.4701,.1204-.1129,.8415-.6513,1.7501-1.2277,2.6911-1.7236,.3842-.2025,.7757-.3917,1.1741-.5647-.6393,.2777,.5135-.1755,.7038-.2375,.4387-.143,.8837-.266,1.3339-.3671,.2019-.0453,.4084-.075,.6092-.1233,.3529-.056,.3251-.0559-.0834,.0003,.1623-.0196,.3249-.036,.4878-.0492,.406-.0211,.8085-.0461,1.2158-.0377,.2154,.0045,1.4323,.1434,.629,.0128,.479,.0778,.952,.1769,1.4176,.3146,.1562,.0462,.3092,.1009,.4646,.1493,.1547,.0538,.308,.1112,.46,.1722-.3526-.1501-.37-.1525-.0524-.0073,.3715,.2066,.7459,.3917,1.1044,.6227,.2191,.1412,.4353,.2893,.6426,.4474-.4517-.3444-.0745-.0519,.0052,.0246,.9483,.9104,1.4896,1.4707,2.0044,2.2512,3.155,4.7833,2.5724,11.0782,.522,16.212-2.2418,5.6129-7.3677,10.1369-13.364,10.3578-1.4891,.0549-3.2944,1.3707-3.0671,3.0671,.4723,3.5251,.9447,7.0502,1.417,10.5753,.434,3.2389,.6511,6.5728,2.0318,9.5802,1.1641,2.5357,3.3856,4.5545,6.1803,5.0501,2.9223,.5183,6.0732-.431,7.5445-3.1796,.7815-1.46,.3664-3.3385-1.1003-4.1963-1.3919-.8141-3.4119-.365-4.1963,1.1003-.1995,.3728,.0324,.1885,.0153,.0807l-.1902,.1948,.1948-.1471c.0018,.0845-.445,.2204-.0008,.0499-.1727,.0663-.3571,.1083-.5371,.149,.6413-.1451-.7463-.0716-.5063-.0297,.2603,.0454-.8425-.305-.6476-.2096-.0112-.0055-.4471-.3382-.3614-.2552-.2972-.2878-.4515-.4937-.6624-.8538-.4668-.7968-.7254-1.7455-.9337-2.7191-.4799-2.2435-.6885-4.5566-.9929-6.8281-.3735-2.7873-.747-5.5746-1.1204-8.3618l-3.0671,3.0671c7.4527-.2746,14.0673-4.8195,17.6386-11.2754,3.609-6.5241,4.9685-15.3792,1.7457-22.2981-2.3456-5.0356-6.8703-8.7684-12.4928-9.2145-4.9447-.3923-9.7358,1.9383-13.4193,5.0619-4.452,3.7753-7.401,9.242-7.8612,15.07-.2329,2.9492,4.4705,4.3013,5.7154,1.548,3.0379-6.719,4.8126-13.9146,4.9933-21.3035,.0858-3.5081-.3257-7.2469-2.4549-10.1599-2.0569-2.8142-4.8701-4.0526-8.3063-3.4784-1.0822,.1808-2.1167,.5354-3.1639,.8523-1.5096,.4568-1.9405,.6022-3.3629,.5817-2.4057-.0347-5.0285-1.045-6.863-2.7328-1.8554-1.7071-2.7277-4.1407-5.6746-4.3658-1.953-.1492-3.794,.724-5.4997,1.5686-.9494,.4701-1.8815,.9743-2.8329,1.4406-.418,.2049-.8393,.4022-1.2647,.5913,.6022-.2677-.2462,.096-.3056,.1186-.3484,.1326-.7004,.2559-1.0569,.3648-.4436,.1356-.8899,.228-1.3402,.3353-.8286,.1976,.5804,.0142-.2664,.0365-.2722,.0072-.541,.0298-.8139,.0244-.1074-.0021-.9799-.1051-.2695,.0118-.2735-.045-.5444-.1059-.8108-.1826-.1809-.0521-.3629-.1108-.5381-.1787,.5384,.2088-.5318-.2991-.6395-.3593-2.1907-1.2236-3.4348-2.1999-5.1456-4.0894-.9098-1.0048-1.0585-1.2006-1.8267-2.4137-.6194-.9781-1.1624-2.0038-1.6278-3.0638,.2564,.5841-.1102-.2883-.1276-.3337-.0684-.1793-.1346-.3595-.1987-.5404-.1921-.5425-.3645-1.0919-.5175-1.6466s-.2863-1.1148-.4003-1.6788c-.038-.188-.0738-.3766-.1075-.5654-.0207-.116-.181-1.2769-.1029-.6084-.1228-1.0506-.1879-2.1064-.1855-3.1644,.0013-.5776,.0216-1.1552,.0608-1.7315,.0196-.2884,.0439-.5764,.073-.864,.0194-.1918,.0408-.3834,.0644-.5747-.0468,.3374-.0433,.3227,.0104-.0441,.1818-1.0482,.3901-2.0853,.6797-3.11,.1314-.4649,.2756-.9263,.4325-1.3832,.0942-.2743,.193-.5471,.2963-.8181,.0689-.1808,.1399-.3607,.2128-.5399-.1229,.2862-.1119,.2635,.0329-.0682,.4507-.9693,.9302-1.9167,1.4876-2.83,.3041-.4983,.6258-.9858,.9646-1.4611,.0173-.0243,.5944-.7921,.2231-.316,.1805-.2315,.368-.4578,.5581-.6814,3.5147-4.1326,8.5141-6.9534,13.7041-8.835,5.9137-2.144,12.146-3.1258,18.4115-3.3767,12.135-.4858,24.4226,1.1691,35.7853,5.5855,11.226,4.3632,20.8998,12.0202,26.8888,22.6211,6.2653,11.09,8.1543,23.8154,7.8178,36.4001-.1758,6.5761-.9556,13.1579-2.8152,19.4831-1.9056,6.4816-5.4659,12.109-9.2087,17.6735-1.8615,2.7676-3.7323,5.5247-5.5185,8.3418-1.687,2.6605-3.539,5.1977-5.7081,7.4883-1.0797,1.1401-2.2273,2.2462-3.469,3.2102-.4497,.3491-.9178,.6845-1.403,.9826-.1995,.1225-.4029,.2385-.61,.3476-.1406,.0741-1.0913,.4639-.3557,.1897-.3795,.1415-.7576,.2762-1.1486,.3834-.2333,.064-.469,.1114-.7041,.1675-.175,.0418-.9238,.0772-.1256,.033-.4259,.0235-.8419,.0304-1.2681,.0297-.2441-.0004-.6678-.1604,.0416,.0207-.2759-.0704-.5574-.1512-.8342-.2154,.7162,.1661,.1953,.0589-.0319-.0351-.2574-.1064-.5352-.5249-.0568-.0023-.118-.1289-.2509-.2478-.3707-.3762-.3015-.323,.4098,.6152,.0349-.0032-.3726-.6146,.1129,.607-.0752-.1317-.0648-.2544-.1399-.5003-.1924-.7583,.1393,.6848-.0028-.2561-.0052-.3495-.0083-.3323,.009-.6623,.0297-.9937,.1037-1.655-1.4839-3.0671-3.0671-3.0671-1.7466,0-2.9631,1.4072-3.0671,3.0671Z"/></g><g><path d="M851.9971,334.7749c-.8476,10.515,.1561,40.584,8.9241,46.4497,5.0617,3.3863,11.5738,3.3638,17.6628,3.4727,15.4785,.2768,31.3721,2.317,44.9106,9.8251,13.5384,7.5081,24.3392,21.4072,24.6079,36.8859,.0829,4.7743-.919,9.7704-3.9533,13.4575-2.3284,2.8294-5.6807,4.6702-9.1754,5.7723-6.7687,2.1346-14.3322,1.632-20.759-1.3794-3.0585-1.4331-6.0119-5.7188-3.2536-7.6681,.7-.4947,1.5917-.6209,2.4477-.6658,9.4322-.4946,17.9354,7.863,19.1783,17.226,1.2429,9.363-3.7681,18.8405-11.2449,24.6119-7.4768,5.7714-17.0612,8.2391-26.4906,8.7845-10.3265,.5973-12.1115,3.8419-21.0443-1.3735,0,0-14.313-23.8551-46.347-48.3917-17.7209-16.3578-28.6261-29.3076-17.7209-53.1627"/><path d="M848.9301,334.7749c-.5848,7.4122-.2413,14.9815,.5486,22.3634,.4687,4.3803,1.1044,8.7707,2.2005,13.0423,.8934,3.4814,2.0764,7.1527,4.1671,10.1171,2.7449,3.8919,7.0828,5.8725,11.7035,6.6902,6.0878,1.0774,12.352,.6888,18.502,1.0609,12.0682,.7302,24.3711,2.9382,35.1259,8.7026,9.1763,4.9184,16.973,12.5799,21.1398,22.2183,1.9855,4.5926,2.9932,9.7278,2.6644,14.837-.1581,2.4567-.7242,5.0271-1.9348,7.2229-1.2717,2.3065-3.1797,3.9846-5.4807,5.2282-5.0156,2.7107-11.2822,3.2558-16.7944,2.007-1.4094-.3193-2.8053-.7366-4.1464-1.2766-1.1814-.4757-1.9035-.8805-2.6731-1.6692-.4405-.4514-.4278-.4474-.7437-.9698-.4722-.7807,.3252,.2794-.1998-.3896-.4346-.554,.0319,.1779-.071-.1506-.0776-.2477-.2847,.409-.0055-.0946l-.1007,.2543c-.2222,.2506-.2035,.2439,.056-.0202-.0278-.0046-.0696,.1477-.1236,.1437,.3091,.023,.4273-.0913,.8213-.1078,4.5583-.1912,8.6777,2.0193,11.8001,5.5442,3.1959,3.608,4.6345,8.2931,4.2573,13.2316-.817,10.6987-9.8236,19.1769-19.6564,22.7332-2.7502,.9947-5.5934,1.7212-8.4715,2.2332-2.8379,.5048-5.6892,.624-8.552,.8986-2.5006,.2399-4.9639,.6873-7.4371,1.1112-.4308,.0738-.8621,.1455-1.295,.2054,.7834-.1083-.504,.0385-.6682,.0493-.4053,.0268-.8117,.0391-1.2179,.031-.2463-.0049-.4925-.0169-.7381-.0365-.1739-.0139-.907-.1537-.1926-.0144-2.4201-.4719-3.9071-1.2048-6.0586-2.4461l1.1003,1.1003c-1.5129-2.5174-3.2658-4.908-5.0205-7.2588-4.7927-6.4209-10.0116-12.5168-15.5529-18.3025-3.8085-3.9765-7.7683-7.8079-11.8593-11.4931-2.2421-2.0197-4.5237-3.9954-6.8425-5.9264-2.5709-2.141-5.3531-4.0919-7.8477-6.3055-3.7722-3.3472-7.4015-6.9552-10.7429-10.7323-2.8147-3.1817-5.2409-6.3748-7.2409-10.3566-.9772-1.9455-1.613-3.5953-2.2009-6.0223-.5727-2.3645-.7382-3.8494-.6986-6.4948,.0409-2.7279,.3333-4.5992,1.0011-7.2571,.7171-2.8539,1.7232-5.6305,2.9371-8.309,.6833-1.5077,.4325-3.2998-1.1003-4.1963-1.3153-.7693-3.5093-.4157-4.1963,1.1003-3.4998,7.7225-5.6451,15.9262-4.3273,24.4229,1.1159,7.1946,4.9666,13.5441,9.4937,19.1042,2.5264,3.1029,5.3157,5.9839,8.1823,8.7717,1.5429,1.5006,3.0863,3.0229,4.7035,4.4437,1.99,1.7483,4.1951,3.2872,6.2464,4.9682,7.2199,5.9165,14.0946,12.2588,20.5344,19.0171,2.5731,2.7004,5.0767,5.4674,7.4993,8.3037,1.02,1.1942,2.0256,2.4007,3.0155,3.6201,.4377,.5392,.8724,1.081,1.3038,1.6253,.2052,.259,.4097,.5185,.6134,.7786,.1259,.1607,.7608,.9816,.3225,.4116,2.0937,2.7222,4.1318,5.499,5.9846,8.3923,.1447,.226,.2795,.4604,.4297,.6826,.7277,1.0761,1.8452,1.6268,2.9768,2.2007,3.1638,1.6047,6.5317,2.6198,10.1052,2.2587,3.7865-.3826,7.0535-1.2255,10.6766-1.4586,4.7213-.3038,9.4472-.9654,13.9946-2.3006,9.0819-2.6668,17.3635-7.9339,22.4457-16.0641,4.7815-7.6493,6.1314-17.2989,2.1512-25.5644-3.5731-7.4202-11.5685-13.3011-20.0343-12.8274-2.5671,.1436-5.0751,1.1087-6.1467,3.6162-.8801,2.0594-.3603,4.41,.8198,6.2483,2.6244,4.0882,7.5499,5.8197,12.1228,6.677,9.4833,1.7779,21.1085-.3774,27.0797-8.6118,5.2908-7.2962,4.6029-17.9527,1.8414-26.0835-2.7592-8.1241-7.922-15.3528-14.3701-20.971-7.0701-6.1602-15.5528-10.3425-24.5272-12.9502-9.5405-2.7722-19.5487-3.8118-29.4518-4.1011-4.3878-.1282-8.8975,.0925-13.1752-.9361-.8982-.216-1.8226-.4727-2.672-.823-.4902-.2022-.967-.4541-1.4292-.7133-.384-.2154-.8241-.6527-1.2394-.7784,.116,.0351,.415,.3988-.0527-.0688-.171-.171-.3495-.3319-.5156-.5083-.1724-.1831-.3253-.3829-.4954-.5674-.27-.2927,.3505,.4919,.121,.1579-.0946-.1377-.1961-.2708-.2905-.4088-.7087-1.0356-1.2688-2.1569-1.7779-3.301,.2808,.6311-.0747-.1951-.1509-.3925-.1208-.313-.2367-.628-.3484-.9445-.2477-.702-.4738-1.4116-.6836-2.1258-.9147-3.1136-1.53-6.3129-2.0036-9.5208-.0289-.1959-.1673-1.1794-.1029-.7026-.0549-.407-.1057-.8147-.1552-1.2224-.1055-.8686-.2009-1.7385-.2876-2.6092-.1667-1.6742-.3006-3.3517-.4058-5.0309-.1967-3.139-.2968-6.2851-.2906-9.4303,.0045-2.328,.0599-4.6592,.243-6.9806,.1304-1.6534-1.503-3.0671-3.0671-3.0671-1.7681,0-2.9363,1.4089-3.0671,3.0671h0Z"/></g><path d="M557.0727,790.0373c-8.2855,3.0559-17.5088,1.5753-24.1626-4.3465-.4511,1.7088-.9023,3.4175-1.3534,5.1263,2.6173-.8869,4.7749-.6179,7.0992,.9261l-1.4095-3.4637c-2.6109,8.9802-13.1875,11.9998-21.287,13.8743-12.0668,2.7927-24.2614,5.1188-36.4494,7.3129-25.4731,4.5857-51.1209,8.1541-76.853,10.9239-50.601,5.4468-101.4851,7.8712-152.3552,8.803-31.2751,.5729-65.087-4.2414-89.7169-25.2499-5.0142-4.2769-9.5221-8.9807-12.8511-14.2603-1.1971-1.8985-1.6645-2.7109-3.9585-3.8946-4.8807-2.5185-10.089-4.6118-15.6899-4.1825-5.1529,.3949-10.0683,2.4916-14.201,5.5416-16.0069,11.8134-19.136,33.1814-19.5486,51.7288-.4017,18.0572-1.3898,36.3928,.9315,54.3558,1.0767,8.3319,2.8552,16.7148,6.7127,24.2449,1.8406,3.593,4.2849,7.6303,8.1856,9.2041,3.8266,1.5438,8.2634,.0534,10.6442-3.2801,5.432-7.6057-4.1561-17.1291-11.9401-12.5268-6.2265,3.6814-7.4031,12.8001-7.8958,19.3536-.9531,12.6787,1.6432,30.4858,14.7713,36.3224,3.8236,1.6999,7.8581,1.7199,11.9718,1.8882,6.6318,.2712,13.2634,.5443,19.8952,.8159,13.2336,.542,26.4675,1.0784,39.7025,1.5834,52.2229,1.9927,104.4536,2.5833,156.6913,3.9393,51.0435,1.325,102.0819,3.2099,153.1488,3.2872,50.9765,.0772,102.0388-1.6526,152.692-7.662,24.9369-2.9584,49.7602-6.9228,74.3162-12.1917,19.2832-4.1375,38.248-8.9403,55.8908-17.9871,30.0908-15.4298,53.345-41.7522,61.0427-75.0992,11.0569-47.8994-9.5591-95.8133-14.8371-143.0733-2.8912-25.8884-3.3773-51.9536-4.2469-77.965-.4385-13.1179-.9761-26.2363-1.9746-39.3252-.7785-10.2039-1.0671-21.1822-3.5247-31.1417-1.1196-4.5373-2.5949-8.974-3.6255-13.5392-.893-3.9557-2.4916-9.8333-1.0026-13.4978,.0028-.007-.2823-.1121,.128,.0333,.8529,.3023,1.9259,.6652,2.7411,1.2721,4.4151,3.2868,5.541,12.2134,6.0412,17.2727,1.1586,11.7195-.9733,23.6187-2.7529,35.1691-5.6272,36.5241-15.1489,81.5558-49.2491,102.3871-23.3063,14.2374-51.6343,9.2886-75.5783-.5838-25.8375-10.6531-49.2812-27.1896-70.6839-44.961-12.2739-10.1914-24.0184-21.0212-35.0958-32.5021-5.2238-5.4141-10.6316-10.6602-15.9515-15.98-2.9097-2.9097-5.7411-5.9349-8.7465-8.7465-6.2082-5.8078-16.2263-5.6517-21.5509,1.3479-7.8381,10.3037,2.6014,21.9315,7.9752,30.6767,.8828-1.5384,1.7656-3.0767,2.6483-4.6151-13.3525,0-26.7049,0-40.0574,0-14.0123,0-28.1317-.5143-42.1363,0-6.0259,.2213-11.5173,4.2088-12.5854,10.3496-1.3337,7.6675,4.7582,13.8996,12.1388,14.3015v-6.1342c-6.6789,.3597-12.3256,5.3662-12.3256,12.3256s5.6473,11.9659,12.3256,12.3256v-6.1342c-6.6789,.3597-12.3256,5.3662-12.3256,12.3256s5.6473,11.9659,12.3256,12.3256v-6.1342c-7.1245,.388-12.9648,6.0871-12.2484,13.4862,.6271,6.4764,6.3563,10.9136,12.6122,11.1649,7.0646,.2839,14.1986,0,21.2677,0,8.955,0,17.91,0,26.8651,0,3.9317,0,7.7611,.1999,11.5627,1.383,7.1133,2.2137,12.2309,6.9203,16.6312,12.7324,26.5319,35.0439,59.5875,66.9689,98.8626,87.302,24.3323,12.5971,51.2653,20.3434,78.7971,20.1464,29.8524-.2136,59.1672-9.7448,84.5031-25.3086,41.9566-25.7739,72.5329-67.5572,89.4618-113.3632,17.511-47.3813,20.6932-100.7648,5.3668-149.1765-7.9203-25.018-20.7362-48.2907-37.6872-68.3242-8.9593-10.5885-19.0427-20.2097-29.9585-28.7627-6.519-5.108-13.0411-9.493-16.3283-17.4647-3.6314-8.8064-1.7184-18.2258-.8536-27.3847,.9504-10.0647,1.7674-20.1445,3.1272-30.1639,1.1696-8.6181,2.4467-17.3668,1.5951-26.0769-1.7065-17.4547-12.9221-29.8169-28.9888-35.9989-26.7526-10.2937-60.4934-.1323-73.9122,25.8657-9.9101,19.2-12.6109,46.624-.2376,65.4137,2.7261,4.1397,6.1836,7.7284,10.3315,10.4573,2.226,1.4645,4.6556,2.6186,7.1582,3.5273,.3582,.1301,3.367,1.3394,3.6329,1.0895l-1.3965-1.2556c.0856,.3361,.1066,.4217,.0628,.257-.1338,.1523,.0003,1.2202-.0075,1.4085-.2097,5.0622-2.0451,10.3255-3.6168,15.098-.5882,1.786-1.1151,3.7541-2.0068,5.4178-1.5415,2.876-4.7433,3.9742-7.8139,4.4983-3.7593,.6416-7.6179,.6207-11.3997,1.1261-5.0378,.6733-9.9753,1.8134-14.7221,3.6522-7.9499,3.0795-15.1324,7.6674-21.6941,13.0744-13.6284,11.23-24.088,25.8439-34.3921,40.0347-19.9822,27.5195-39.9219,56.6605-70.6343,73.1678-17.0991,9.1904-36.3558,13.8314-55.6492,15.1033-9.5302,.6283-19.102,.4956-28.6226-.2314-8.8994-.6795-17.3589-1.9845-25.3062-6.2902-9.3811-5.0825-16.5541-13.5773-24.0158-21.039-3.6971-3.6971-7.8627-6.4087-13.3715-5.8415-7.3417,.7559-12.9662,7.1854-12.7842,14.5613,.1151,4.6651,2.6888,8.2601,5.0234,12.0594,1.9599,3.1896,3.9199,6.3791,5.8798,9.5687,.8828-1.5384,1.7656-3.0767,2.6483-4.6151-13.3525,0-26.7049,0-40.0574,0-14.0123,0-28.1317-.5143-42.1363,0-6.0259,.2213-11.5173,4.2088-12.5854,10.3496-1.3337,7.6675,4.7582,13.8996,12.1389,14.3015v-6.1342c-6.6789,.3597-12.3256,5.3662-12.3256,12.3256s5.6473,11.9659,12.3256,12.3256v-6.1342c-6.6789,.3597-12.3256,5.3662-12.3256,12.3256s5.6473,11.9659,12.3256,12.3256v-6.1342c-6.7565,.3679-12.41,5.4634-12.3239,12.4989,.0775,6.3425,5.4505,11.5572,11.6387,12.0987,4.2499,.3719,8.6417,.0535,12.9001,.0535,18.3755,0,36.7509,0,55.1264,0,5.0997,0,10.1994,0,15.299,0,3.947,0,3.9536-6.1342,0-6.1342-26.0261,0-52.0521,0-78.0782,0-1.38,0-2.7982,.0944-4.1762,0-7.9792-.5467-8.7403-11.9278-.3859-12.3828,3.9433-.2147,3.9515-5.9214,0-6.1342-7.9674-.4291-7.9832-11.9529,0-12.3828,3.9439-.2124,3.9509-5.9214,0-6.1342-7.9674-.4291-7.9832-11.9529,0-12.3828,3.9445-.2124,3.9503-5.919,0-6.1342-8.2605-.4499-7.6709-11.7855,.3071-12.3828,.8769-.0657,1.7849,0,2.6633,0,5.865,0,11.7301,0,17.5951,0h49.6236c4.1504,0,8.3007,0,12.4511,0,2.2857,0,3.875-2.6189,2.6483-4.6151-1.9599-3.1896-3.9199-6.3791-5.8798-9.5687-2.4718-4.0226-5.8573-8.3155-3.2323-13.228,2.0067-3.7554,6.6724-5.228,10.5096-3.5346,1.5868,.7003,2.6888,1.885,3.8827,3.0788,3.3209,3.3209,6.6417,6.6417,9.9626,9.9626,9.4093,9.4093,20.2566,16.4401,33.6721,18.4379,17.5096,2.6075,35.8606,2.3426,53.3443-.2583,17.6701-2.6286,34.9302-8.3894,50.2083-17.729,14.0246-8.5734,26.1203-19.8963,36.8142-32.3075,10.61-12.3138,19.979-25.624,29.5102-38.7704,9.9908-13.7802,20.0954-27.8955,33.1777-38.9543,6.9159-5.8462,14.8351-10.8111,23.5139-13.5404,4.202-1.3215,8.5421-2.1609,12.9255-2.5731,3.8763-.3645,7.8812-.3521,11.6604-1.3942,10.6306-2.9315,12.8442-14.5229,14.8983-23.9922,.7033-3.2421,2.3127-8.8149-.2928-11.6424-1.3477-1.4625-3.72-1.606-5.5064-2.2646-2.4316-.8965-4.7626-2.1627-6.8459-3.7063-8.1762-6.0578-12.1915-16.1748-13.599-25.9614-3.0628-21.2958,4.2969-47.0134,23.2709-58.8808,13.6336-8.5272,30.8959-10.8754,46.3175-6.3276,7.8642,2.3191,15.4773,6.4646,20.9621,12.6514,5.9784,6.7434,8,15.5456,8.0486,24.3586,.0478,8.6724-1.4963,17.2425-2.5587,25.8211-1.2039,9.7212-1.9222,19.5179-2.843,29.2694-.8024,8.4977-1.7169,16.5311,1.4819,24.6817,2.8003,7.1351,7.6155,12.4732,13.7042,16.9796,21.4543,15.8787,39.7914,35.9188,53.2224,59.0093,24.8951,42.7995,31.724,94.1615,23.0776,142.5856-8.4775,47.4785-31.1311,93.0259-65.9859,126.6387-38.9407,37.5531-93.7247,57.9943-147.4711,45.6457-47.2766-10.8622-87.5333-42.3593-119.4227-77.7814-5.7822-6.4228-11.3426-13.0493-16.646-19.8732-2.8566-3.6757-5.4496-7.6354-8.9336-10.7594-5.5378-4.9656-12.4543-8.1513-19.8351-9.0734-6.5786-.8218-13.466-.3004-20.0735-.3004-9.5536,0-19.1073,0-28.6609,0-2.0957,0-4.2422,.136-6.3345,0-8.0025-.5202-8.8278-11.9257-.4338-12.3828,3.9433-.2147,3.9515-5.9214,0-6.1342-7.9674-.4291-7.9832-11.9529,0-12.3828,3.9439-.2124,3.9509-5.9214,0-6.1342-7.9674-.4291-7.9832-11.9529,0-12.3828,3.9445-.2124,3.9503-5.919,0-6.1342-8.2605-.4499-7.6708-11.7856,.3071-12.3828,.8769-.0657,1.7849,0,2.6633,0,5.865,0,11.7301,0,17.5951,0,16.5412,0,33.0824,0,49.6236,0,4.1504,0,8.3007,0,12.4511,0,2.2857,0,3.875-2.6189,2.6483-4.6151-2.5036-4.0743-5.0073-8.1487-7.5109-12.223-1.5213-2.4757-2.9066-4.8225-2.452-7.9056,.7782-5.2784,6.4954-8.3497,11.3604-6.2026,3.4056,1.503,6.3073,5.5034,8.8641,8.0602,4.368,4.368,8.7359,8.7359,13.1039,13.1039,7.7978,7.7978,15.4596,15.6977,23.5938,23.1569,18.6797,17.1299,38.7551,33.0391,60.4994,46.1153,22.5543,13.5633,48.7482,25.4987,75.6285,24.8197,12.6373-.3192,25.0718-3.7902,35.7337-10.6567,15.4833-9.9715,26.4362-25.4463,33.8811-42.0517,7.626-17.0093,12.0442-35.1535,15.215-53.462,1.9825-11.4474,4.0322-23.0876,4.6939-34.7001,.5679-9.966,.1376-22.9084-6.0647-31.2987-2.702-3.6552-9.4712-7.4777-13.4686-3.4052-3.1424,3.2014-2.355,8.8991-1.7949,12.8833,.7494,5.3302,2.1321,10.5525,3.5988,15.7236,1.8751,6.6109,2.6043,13.2421,3.3209,20.0985,5.2704,50.4263,1.971,101.4678,10.2796,151.6223,7.3056,44.1006,24.658,89.8952,8.3223,134.0882-11.7004,31.653-39.1183,53.6568-70.0567,65.2337-20.4141,7.6388-42.3836,11.5301-63.7696,15.354-24.6355,4.405-49.475,7.587-74.3973,9.8333-49.446,4.4566-99.1438,5.2724-148.7625,4.7235-50.1088-.5543-100.1871-2.5085-150.2839-3.625-50.9677-1.1359-101.8983-2.0587-152.8438-4.0846-13.0028-.5171-26.0048-1.0543-39.0069-1.5873-8.257-.3385-15.8042,.1238-20.5556-7.6915-3.5616-5.8582-4.6077-13.1166-4.6413-19.8649-.019-3.8258,.5978-20.7891,7.1234-19.0414,2.6754,.7166,2.8474,4.2633,.1591,5.1087-2.6856,.8445-4.523-2.4056-5.6914-4.3458-2.0555-3.4131-3.4827-7.1284-4.5816-10.9475-2.5475-8.8536-3.388-18.12-3.7466-27.2933-.3473-8.8858-.1578-17.7785,.0454-26.6652,.2001-8.7493,.0415-17.5344,1.0966-26.2378,1.1646-9.6071,3.7839-19.6134,9.88-27.3347,3.2353-4.0978,7.4688-7.6591,12.4384-9.4075,6.3192-2.2232,11.2122-.1293,17.0111,2.3205,1.3918,.588,.1311-.52,.9795,.4052,.4369,.4765,.7387,1.2337,1.0932,1.7781,1.4605,2.2428,3.1142,4.3727,4.8483,6.4091,15.3444,18.02,38.5056,28.1956,61.319,32.6128,21.3956,4.1427,43.1253,3.1052,64.7815,2.4971,24.9561-.7008,49.9026-1.8176,74.8106-3.5283,49.39-3.392,98.6956-9.0987,147.2964-18.6356,10.2517-2.0117,21.1114-3.482,30.8994-7.2607,7.4277-2.8675,14.1329-7.4683,16.4544-15.453,.3965-1.3637-.2812-2.7142-1.4095-3.4637-3.5675-2.3698-7.7661-2.9202-11.826-1.5445-2.0493,.6944-3.181,3.4997-1.3534,5.1263,8.2054,7.3027,19.7537,9.7514,30.1308,5.9241,3.6725-1.3545,2.0847-7.2854-1.6307-5.915h0Z"/><path d="M97.7738,903.8953c-7.8546-3.1331-16.3073-1.8986-24.4546-3.3834-4.2793-.7799-8.1227-2.5285-10.6771-6.1831-2.7975-4.0024-4.0372-9.152-5.0827-13.8504-2.3283-10.4629-2.4867-21.4794-.4044-31.9983,1.1953-6.0383,4.7978-21.1268,13.8691-18.6158l-1.833-1.4095c1.4518,2.6236-1.2331,5.6138-3.8762,5.8099-4.3462,.3226-7.4628-4.1214-8.6524-7.7157-1.2465-3.7666-1.2657-7.8392-1.4193-11.7627-.1578-4.0329-.2628-8.0683-.2807-12.1044-.0668-15.0306,1.0832-30.2172,5.7296-44.5969,4.5958-14.2234,12.8381-27.5268,24.2734-37.2614,10.1284-8.6221,25.2777-13.6017,35.2427-2.0206,3.7541,4.3629,6.1461,9.7555,9.1707,14.6108,3.3895,5.4409,7.6676,9.9518,12.7475,13.8479,11.2946,8.6626,24.9648,14.7734,38.3088,19.5496,31.3724,11.2292,66.0276,13.0212,99.0532,14.1847,36.7657,1.2952,73.5237-.8869,110.2401-2.5495,35.1917-1.5935,70.6273-1.3656,105.3335-8.202,30.2111-5.951,59.8037-17.4596,83.7194-37.2356,11.933-9.8674,21.915-21.8185,29.8611-35.0923,7.576-12.6556,12.795-26.404,18.8121-39.8187,2.8066-6.2573,5.6046-12.5721,7.6417-19.1301,2.1579-6.9468,2.6788-13.6294,1.9837-20.8717-.7924-8.2573-1.8516-16.2947-.4322-24.5561,1.2845-7.4761,3.9042-14.6696,7.5735-21.2996,7.6318-13.7899,19.4665-24.5447,33.076-32.295,10.0371-5.7159,22.3893-8.6618,30.3431-17.5038,3.6721-4.0822,6.4524-8.8981,9.1782-13.6337,1.9728-3.4274-3.3257-6.5202-5.2967-3.096-3.1274,5.4332-6.2811,11.1796-11.1628,15.2604-5.2824,4.4157-12.0576,6.6434-18.1957,9.5432-16.4594,7.7759-31.2962,19.3962-41.053,34.9269-4.6764,7.4439-8.1957,15.7566-9.9803,24.3765-1.9802,9.5643-1.1085,18.6573-.1843,28.2773,.8218,8.5534-.415,15.9098-3.3633,23.921-2.8851,7.8397-6.6006,15.329-9.893,22.9977-7.4675,17.3935-15.3581,34.2255-27.8703,48.6736-11.816,13.6442-26.52,24.426-42.5412,32.6325-35.7237,18.2985-76.369,22.8973-115.9352,24.4446-21.7481,.8505-43.4905,1.6419-65.2332,2.6486-21.8591,1.0121-43.7339,1.906-65.6207,1.8367-20.6089-.0653-41.232-1.1044-61.7533-3.0084-20.0033-1.856-40.0491-5.0739-58.9258-12.1743-8.0428-3.0253-15.9709-6.6343-23.4641-10.8447-7.1589-4.0226-14.3974-8.809-19.3696-15.4748-8.1275-10.8958-12.0937-25.3446-27.4915-27.7435-17.0558-2.6572-31.8087,11.3381-41.1734,23.8916-10.6898,14.3298-16.1385,31.4635-18.2653,49.0586-1.0829,8.9587-1.3239,18.0003-1.1846,27.0164,.1331,8.6177-.7689,19.404,4.0237,27.0066,3.8182,6.0569,12.2672,10.124,18.5852,5.2057,5.2171-4.0613,6.6214-14.7361-2.157-14.774-7.6441-.033-12.8848,7.3913-15.4194,13.7607-3.503,8.8028-4.5336,19.1354-4.2825,28.5392,.2506,9.3861,1.7989,19.3939,5.7076,27.9967,3.5049,7.7141,9.9671,11.835,18.2018,13.0088,7.5564,1.0771,15.4026,.2149,22.6223,3.0947,3.6666,1.4626,5.259-4.4678,1.6307-5.915h0Z"/><rect x="176.2175" y="667.7234" width="36.8049" height="17.7209" style="fill:#fff;"/><path d="M524.8351,114.0104c1.1249-5.0989,1.7229-10.3955,1.7229-15.8325,0-40.4151-32.7628-73.1779-73.1779-73.1779-28.7003,0-53.5371,16.5249-65.5269,40.5766-11.7485-8.0381-25.958-12.7428-41.2678-12.7428-34.0747,0-62.7087,23.2896-70.855,54.8188h-13.0444c-32.6985,0-59.2057,26.5073-59.2057,59.2056h0c0,32.6984,26.5071,59.2057,59.2057,59.2057h235.4356c32.6985,0,59.2057-26.5073,59.2057-59.2056h0c0-23.0866-13.2151-43.0845-32.4922-52.848Z" style="fill:#f4d13b;"/><rect x="302.3085" y="176.9908" width="162.2144" height="19.084" rx="9.542" ry="9.542" style="fill:#fff;"/><polygon points="424.9996 274.7136 424.9996 176.9908 341.8318 176.9908 341.8318 274.7136 302.1381 274.7136 383.4157 354.8813 464.6933 274.7136 424.9996 274.7136" style="fill:#6966ed;"/><path d="M354.7896,452.0055h16.3578c1.6043,0,3.1413-1.4107,3.0671-3.0671-.0744-1.6617-1.3476-3.0671-3.0671-3.0671h-16.3578c-1.6043,0-3.1413,1.4107-3.0671,3.0671,.0744,1.6617,1.3476,3.0671,3.0671,3.0671h0Z" style="fill:#f4d13b;"/><path d="M464.5229,452.3463h16.3578c1.6043,0,3.1413-1.4107,3.0671-3.0671-.0744-1.6617-1.3476-3.0671-3.0671-3.0671h-16.3578c-1.6043,0-3.1413,1.4107-3.0671,3.0671,.0744,1.6617,1.3476,3.0671,3.0671,3.0671h0Z" style="fill:#f4d13b;"/><path d="M744.0558,374.6782c4.1297,2.5945,10.2285,1.6801,13.2739-2.1916,.6598-.8388,.8797-2.0841,0-2.8917-.7363-.676-2.1855-.8978-2.8917,0-.2976,.3784-.6242,.7301-.9875,1.0466-.0579,.0505-.1479,.1593-.2201,.1845,.3402-.1185,.1738-.1258,.0125-.0175-.1994,.1339-.397,.2663-.605,.3867-.1868,.1081-.3779,.2089-.5726,.3019-.0649,.0312-.1303,.0614-.1963,.0904-.1395,.0619-.0874,.04,.1565-.0658-.0672-.0061-.2046,.0785-.27,.102-.4534,.1627-.9206,.2875-1.3944,.3737-.0902,.0164-.1992,.0172-.2854,.0471,.4202-.1455,.2193-.0295,.0411-.0135-.2399,.0216-.4804,.0334-.7213,.0351-.2405,.0017-.4808-.0065-.7206-.025-.1112-.0086-.2499-.0442-.3584-.035,.117-.0099,.3898,.0671,.1165,.0104-.4737-.0983-.9257-.2207-1.3854-.3714-.2535-.0831-.0253,.0228,.0887,.0452-.102-.02-.2304-.1049-.3258-.1522-.2378-.1179-.4662-.2499-.6909-.391-.9071-.5699-2.293-.2214-2.7976,.7335-.5317,1.0063-.2347,2.1893,.7335,2.7976h0Z"/><path d="M751.9815,337.8049c-.5215,.4121,.044-.0133,.1885-.0996,.1659-.099,.398-.1663,.5462-.285-.1008,.0807-.4499,.1656-.1261,.0582,.0885-.0294,.1755-.0626,.2646-.0906,.1781-.056,.3589-.1034,.5415-.1424,.0992-.0212,.2367-.0262,.3311-.0612-.1195,.0443-.5032,.0495-.1529,.0245,.2067-.0147,.4122-.0287,.6196-.0283,.1885,.0004,.3771,.0089,.5649,.0252,.2108,.0183,.413,.1361-.0938-.0187,.0882,.027,.1884,.0315,.279,.0494,.3912,.0771,.7656,.1964,1.14,.3312,.3307,.119-.3435-.1696-.125-.0515,.0823,.0445,.1699,.0803,.2533,.1232,.1832,.0944,.3616,.1978,.5346,.3098,.0785,.0508,.1539,.106,.2318,.1576,.3393,.2249-.3609-.3191-.06-.0455,.1382,.1256,.2794,.246,.4101,.3799,.1296,.1328,.2378,.2921,.3701,.4203-.3682-.3568-.1616-.2098-.0556-.049,.0625,.0947,.1207,.1919,.1779,.2899,.5394,.9239,1.8697,1.3317,2.7976,.7335,.9312-.6004,1.3107-1.8089,.7335-2.7976-1.142-1.9563-3.2054-3.3645-5.4327-3.7664-1.2178-.2198-2.3963-.2292-3.6108,.0302-1.2117,.2588-2.2585,.852-3.2193,1.6112-.8432,.6662-.749,2.2041,0,2.8917,.8947,.8213,1.9921,.7108,2.8917,0h0Z"/><path d="M731.5048,331.3082c.3972-.1492,.8039-.2522,1.2237-.3132l-.5436,.073c.55-.0704,1.0998-.0656,1.6492,.0082l-.5436-.073c.3868,.0581,.7673,.1461,1.138,.2717,.0926,.0314,.1834,.0671,.2753,.1004,.3505,.1269-.442-.2085-.1293-.0527,.1897,.0945,.3779,.1873,.5604,.2958,.1681,.1,.3267,.2105,.487,.3223,.1766,.1231-.4337-.3533-.1081-.0794,.0744,.0626,.1471,.1269,.2183,.1932,.1423,.1326,.2776,.2722,.4053,.419,.0538,.0618,.2894,.3589,.0551,.0574-.2432-.313,.023,.0458,.0666,.1111,.5931,.8881,1.831,1.3567,2.7976,.7335,.8853-.5707,1.3689-1.8462,.7335-2.7976-1.9752-2.9578-5.9642-4.493-9.3725-3.2131-.5102,.1916-.9382,.4548-1.222,.9397-.2565,.4383-.3651,1.0842-.2061,1.5756,.3159,.9761,1.4432,1.8307,2.5152,1.4281h0Z"/><path d="M750.0842,342.5547c-.3021,.4635-.4771,1.083-.4672,1.6362,.0096,.5402,.1559,1.1102,.4472,1.5694,.3072,.4843,.6523,.817,1.1293,1.1317,.221,.1458,.501,.2445,.735,.3353,.0889,.0345,.1791,.0585,.2732,.0737,.1651,.0266,.4517,.0792,.6666,.0828,.1351,.0023,.2755-.0266,.4059-.0441,.408-.0548,.587-.1058,.9941-.3119,.233-.118,.4493-.2878,.6277-.4774,.1806-.1919,.3675-.4146,.481-.6595,.1207-.2604,.2588-.5423,.306-.8331,.0395-.2433,.0882-.4955,.0924-.7448,.0006-.0339-.0004-.0678-.0027-.1016-.0149-.2138-.049-.4319-.0842-.6428-.0511-.3062-.1907-.6041-.3369-.8734-.1102-.2029-.2916-.4069-.422-.5719-.0427-.0541-.0876-.1056-.138-.1528-.181-.1692-.3802-.3234-.5895-.4557-.2001-.1265-.4632-.2183-.6644-.2966-.0666-.0259-.1348-.0465-.2054-.0584-.2089-.0352-.4275-.071-.6393-.0841-.0353-.0022-.0707-.0022-.1059-.0001-.2084,.0124-.4253,.0463-.6302,.0826-.0388,.0069-.077,.0154-.1146,.0271-.1924,.06-.3804,.1518-.5638,.2336-.0379,.0169-.0749,.0347-.1106,.056-.1048,.0626-.2023,.1479-.2962,.2205-.0957,.0739-.2035,.1481-.293,.2338-.035,.0335-.0671,.0695-.0981,.1068-.1378,.1662-.2752,.3392-.3964,.5185-.1494,.2347-.2303,.4881-.2426,.7602-.0609,.2718-.0487,.5436,.0365,.8154,.0633,.2661,.1853,.4979,.366,.6954,.1442,.2226,.3354,.3981,.5737,.5266l.4884,.2061c.3624,.0974,.7248,.0974,1.0871,0l.4884-.2061c.3073-.1818,.5518-.4263,.7335-.7335,.0195-.0289,.0398-.0572,.0609-.0849l-.3197,.4138c.0593-.0746,.1248-.1417,.1998-.2005l-.4138,.3197c.0625-.0467,.1284-.0856,.2-.1167l-.4884,.2061c.0677-.0275,.1369-.0466,.2092-.0575l-.5436,.073c.0771-.0099,.1536-.01,.2309-.0011l-.5436-.073c.0906,.0124,.1773,.0366,.2617,.0716l-.4884-.2061c.0858,.0374,.1654,.0843,.2404,.1403l-.4138-.3197c.087,.0673,.1638,.1445,.2311,.2314l-.3197-.4138c.0634,.0848,.1156,.1753,.157,.2728l-.2061-.4884c.0381,.0944,.0645,.1913,.0792,.292l-.073-.5436c.0144,.1133,.0125,.2248-.0024,.3379l.073-.5436c-.0175,.122-.0461,.2413-.0926,.3556l.2061-.4884c-.0336,.0791-.075,.1534-.1273,.2216l.3197-.4138c-.0387,.0486-.0817,.0924-.1303,.1313l.4138-.3197c-.05,.0385-.1035,.0703-.1613,.0957l.4884-.2061c-.0656,.0274-.1334,.0455-.2038,.0555l.5436-.073c-.0858,.0108-.1715,.0093-.2572-.0022l.5436,.073c-.1035-.0152-.2035-.0444-.3-.0847l.4884,.2061c-.1087-.0468-.2103-.1068-.3044-.1786l.4138,.3197c-.0904-.0705-.1718-.1506-.2428-.2408l.3197,.4138c-.0633-.0824-.1164-.1711-.1573-.2667l.2061,.4884c-.0339-.0824-.0577-.1674-.0704-.2556l.073,.5436c-.011-.0859-.011-.1717,0-.2576l-.073,.5436c.0134-.0924,.039-.1813,.0753-.2673l-.2061,.4884c.0294-.0668,.0644-.1302,.1042-.1914,.1494-.2347,.2303-.4881,.2426-.7602,.0609-.2718,.0487-.5436-.0365-.8154-.0633-.2661-.1853-.4979-.366-.6954-.1442-.2226-.3354-.3981-.5737-.5266l-.4884-.2061c-.3624-.0974-.7248-.0974-1.0871,0l-.4884,.2061c-.3073,.1818-.5518,.4263-.7335,.7335Z"/><path d="M727.5923,337.7837c-.3021,.4635-.4771,1.083-.4672,1.6362,.0096,.5402,.1559,1.1102,.4472,1.5694,.3072,.4843,.6523,.817,1.1293,1.1317,.221,.1458,.501,.2445,.735,.3353,.0889,.0345,.1791,.0585,.2732,.0737,.1651,.0266,.4517,.0792,.6666,.0828,.1351,.0023,.2755-.0266,.4059-.0441,.408-.0548,.587-.1058,.9941-.3119,.233-.118,.4493-.2878,.6277-.4774,.1806-.1919,.3675-.4146,.481-.6595,.1207-.2604,.2588-.5423,.306-.8331,.0395-.2433,.0882-.4955,.0924-.7448,.0006-.0339-.0004-.0678-.0027-.1016-.0149-.2138-.049-.4319-.0842-.6428-.0511-.3062-.1907-.6041-.3369-.8734-.1102-.2029-.2916-.4069-.422-.5719-.0427-.0541-.0876-.1056-.138-.1528-.181-.1692-.3802-.3234-.5895-.4557-.2001-.1265-.4632-.2183-.6644-.2966-.0666-.0259-.1348-.0465-.2054-.0584-.2089-.0352-.4275-.071-.6393-.0841-.0353-.0022-.0707-.0022-.1059-.0001-.2084,.0124-.4253,.0463-.6302,.0826-.0388,.0069-.077,.0154-.1146,.0271-.1924,.06-.3804,.1518-.5638,.2336-.0379,.0169-.0749,.0347-.1106,.056-.1048,.0626-.2023,.1479-.2962,.2205-.0957,.0739-.2035,.1481-.293,.2338-.035,.0335-.0671,.0695-.0981,.1068-.1378,.1662-.2752,.3392-.3964,.5185-.1494,.2347-.2303,.4881-.2426,.7602-.0609,.2718-.0487,.5436,.0365,.8154,.0633,.2661,.1853,.4979,.366,.6954,.1442,.2226,.3354,.3981,.5737,.5266l.4884,.2061c.3624,.0974,.7248,.0974,1.0871,0l.4884-.2061c.3073-.1818,.5518-.4263,.7335-.7335,.0195-.0289,.0398-.0572,.0609-.0849l-.3197,.4138c.0593-.0746,.1248-.1417,.1998-.2005l-.4138,.3197c.0625-.0467,.1284-.0856,.2-.1167l-.4884,.2061c.0677-.0275,.1369-.0466,.2092-.0575l-.5436,.073c.0771-.0099,.1536-.01,.2309-.0011l-.5436-.073c.0906,.0124,.1773,.0366,.2617,.0716l-.4884-.2061c.0858,.0374,.1654,.0843,.2404,.1403l-.4138-.3197c.087,.0673,.1638,.1445,.2311,.2314l-.3197-.4138c.0634,.0848,.1156,.1753,.157,.2728l-.2061-.4884c.0381,.0944,.0645,.1913,.0792,.292l-.073-.5436c.0144,.1133,.0125,.2248-.0024,.3379l.073-.5436c-.0175,.122-.0461,.2413-.0926,.3556l.2061-.4884c-.0336,.0791-.075,.1534-.1273,.2216l.3197-.4138c-.0387,.0486-.0817,.0924-.1303,.1313l.4138-.3197c-.05,.0385-.1035,.0703-.1613,.0957l.4884-.2061c-.0656,.0274-.1334,.0455-.2038,.0555l.5436-.073c-.0858,.0108-.1715,.0093-.2572-.0022l.5436,.073c-.1035-.0152-.2035-.0444-.3-.0847l.4884,.2061c-.1087-.0468-.2103-.1068-.3044-.1786l.4138,.3197c-.0904-.0705-.1718-.1506-.2428-.2408l.3197,.4138c-.0633-.0824-.1164-.1711-.1573-.2667l.2061,.4884c-.0339-.0824-.0577-.1674-.0704-.2556l.073,.5436c-.011-.0859-.011-.1717,0-.2576l-.073,.5436c.0134-.0924,.039-.1813,.0753-.2673l-.2061,.4884c.0294-.0668,.0644-.1302,.1042-.1914,.1494-.2347,.2303-.4881,.2426-.7602,.0609-.2718,.0487-.5436-.0365-.8154-.0633-.2661-.1853-.4979-.366-.6954-.1442-.2226-.3354-.3981-.5737-.5266l-.4884-.2061c-.3624-.0974-.7248-.0974-1.0871,0l-.4884,.2061c-.3073,.1818-.5518,.4263-.7335,.7335Z"/><path d="M326.8671,183.8662c1.0019,18.7857,1.3739,37.6014,1.1153,56.412-.0543,3.9486,6.0798,3.9505,6.1342,0,.2586-18.8106-.1134-37.6263-1.1153-56.412-.0882-1.6545-1.3465-3.0671-3.0671-3.0671-1.5925,0-3.1557,1.4047-3.0671,3.0671h0Z" style="fill:#6966ed;"/><path d="M158.0037,428.3273c3.6292,1.3197,7.2585,2.6395,10.8877,3.9592,1.5102,.5492,3.4252-.6159,3.7729-2.1422,.3939-1.7293-.5252-3.1849-2.1422-3.7729-3.6292-1.3197-7.2585-2.6395-10.8877-3.9592-1.5102-.5492-3.4252,.6159-3.7729,2.1422-.3939,1.7293,.5252,3.1849,2.1422,3.7729h0Z" style="fill:#6966ed;"/><path d="M186.2795,391.6438c1.749,4.5811,3.4979,9.1623,5.2469,13.7434,.5704,1.4941,2.0916,2.6863,3.7729,2.1422,1.4571-.4715,2.7548-2.1681,2.1422-3.7729-1.749-4.5811-3.4979-9.1623-5.2469-13.7434-.5704-1.4941-2.0916-2.6863-3.7729-2.1422-1.4571,.4715-2.7548,2.1681-2.1422,3.7729h0Z" style="fill:#6966ed;"/><path d="M161.614,472.8681c4.949-1.9796,9.898-3.9592,14.8469-5.9388,1.4843-.5937,2.6918-2.0744,2.1422-3.7729-.4649-1.4366-2.1779-2.7802-3.7729-2.1422-4.949,1.9796-9.898,3.9592-14.8469,5.9388-1.4843,.5937-2.6918,2.0744-2.1422,3.7729,.4649,1.4366,2.1779,2.7802,3.7729,2.1422h0Z" style="fill:#6966ed;"/><path d="M540.4662,390.0866c11.6955,5.3547,20.1158,16.1535,22.9067,28.6191,.7832,3.4984,1.0399,6.8688,.831,10.6031-.0926,1.6556,1.4759,3.0671,3.0671,3.0671,1.7377,0,2.9742-1.4066,3.0671-3.0671,.7962-14.2331-5.6746-28.6668-16.4935-37.8815-3.1239-2.6608-6.5488-4.928-10.2824-6.6373-1.5051-.6891-3.3021-.4286-4.1963,1.1003-.772,1.3198-.4129,3.5035,1.1003,4.1963h0Z" style="fill:#f953b2;"/><path d="M580.4837,417.277c.3299,1.9796,.6599,3.9592,.9898,5.9388,.1189,.7132,.811,1.4827,1.4095,1.833,.6574,.3847,1.6263,.5477,2.3634,.3092,.7421-.2402,1.4582-.7001,1.833-1.4095l.3092-.7327c.1461-.5436,.1461-1.0871,0-1.6307-.3299-1.9796-.6599-3.9592-.9898-5.9388-.1189-.7132-.811-1.4827-1.4095-1.833-.6574-.3847-1.6263-.5477-2.3634-.3092-.7421,.2402-1.4582,.7001-1.833,1.4095l-.3092,.7327c-.1461,.5436-.1461,1.0871,0,1.6307h0Z" style="fill:#f953b2;"/></svg>