<?xml version="1.0" encoding="UTF-8"?><svg id="Layer_2" xmlns="http://www.w3.org/2000/svg" width="1000" height="1000" viewBox="0 0 1000 1000"><g><g><path d="M310.514,499.1022l-27.4861-152.2307c-1.1341-6.2814-6.6019-10.8504-12.9849-10.8504H120.8228c-6.6437,0-12.4685-4.4392-14.2301-10.8451l-1.8675-6.791c-1.7616-6.4059-7.5864-10.8451-14.2301-10.8451H39.7626c-9.2005,0-16.1584,8.3266-14.5236,17.3807l31.1447,172.494h.1319l1.7646,9.7725c1.9557,10.8307,11.3836,18.7087,22.3895,18.7087h207.4553c14.1832,0,24.9092-12.836,22.389-26.7936Z" style="fill:#6966ed;"/><path d="M85.1543,507.4064l-15.2307-148.0233c-.7471-7.2611,4.9501-13.5746,12.2496-13.5746h217.2827c6.0499,0,11.2037,4.3947,12.1596,10.3687l14.0987,88.1166-226.3252,72.4241c-6.6251,2.12-13.5226-2.3919-14.2346-9.3114Z" style="fill:#fff;"/><path d="M97.2283,515.2031l-14.9458-147.3966c-.7356-7.255,4.9592-13.5565,12.2514-13.5565h217.303c6.0499,0,11.2037,4.3947,12.1596,10.3687l14.0987,88.1166-240.8668,62.4678Z" style="fill:#f4d13b;"/><path d="M80.9093,525.8958h239.7906c11.649,0,21.4161-8.799,22.6277-20.3848l13.2226-126.4414c.8144-7.7877-5.2931-14.5672-13.1233-14.5672H122.5649c-6.7429,0-12.4009,5.0839-13.1197,11.7883l-12.926,120.5724c-1.2161,11.3436-6.818,21.7625-15.6099,29.0327h0Z" style="fill:#6966ed;"/><path d="M83.0204,330.6136H48.4056c-2.0659,0-3.8667-1.406-4.3678-3.4102h0c-.7104-2.8415,1.4388-5.5941,4.3678-5.5941h34.6148c2.0659,0,3.8667,1.406,4.3678,3.4102h0c.7104,2.8415-1.4388,5.5941-4.3678,5.5941Z" style="fill:#f4d13b;"/></g><g><path d="M397.181,537.3708l-27.4861-152.2307c-1.1341-6.2814-6.6019-10.8504-12.9849-10.8504H207.4899c-6.6437,0-12.4685-4.4392-14.2301-10.8451l-1.8675-6.791c-1.7616-6.4059-7.5864-10.8451-14.2301-10.8451h-50.7324c-9.2005,0-16.1584,8.3266-14.5236,17.3807l31.1447,172.494h.1319l1.7646,9.7725c1.9557,10.8307,11.3836,18.7087,22.3895,18.7087h207.4553c14.1832,0,24.9092-12.836,22.389-26.7936Z" style="fill:#f953b2;"/><path d="M171.8214,545.6749l-15.2307-148.0233c-.7471-7.2611,4.9501-13.5746,12.2496-13.5746h217.2827c6.0499,0,11.2037,4.3947,12.1596,10.3687l14.0987,88.1166-226.3252,72.4241c-6.6251,2.12-13.5226-2.3919-14.2346-9.3114Z" style="fill:#fff;"/><path d="M183.8953,553.4717l-14.9458-147.3966c-.7356-7.255,4.9592-13.5565,12.2514-13.5565h217.303c6.0499,0,11.2037,4.3947,12.1596,10.3687l14.0987,88.1166-240.8668,62.4678Z" style="fill:#6966ed;"/><path d="M167.5763,564.1644h239.7906c11.649,0,21.4161-8.799,22.6277-20.3848l13.2226-126.4414c.8144-7.7877-5.2931-14.5672-13.1233-14.5672H209.232c-6.7429,0-12.4009,5.0839-13.1197,11.7883l-12.926,120.5724c-1.2161,11.3436-6.818,21.7625-15.6099,29.0327h0Z" style="fill:#f953b2;"/><path d="M169.6875,368.8822h-34.6148c-2.0659,0-3.8667-1.406-4.3678-3.4102h0c-.7104-2.8415,1.4388-5.5941,4.3678-5.5941h34.6148c2.0659,0,3.8667,1.406,4.3678,3.4102h0c.7104,2.8415-1.4388,5.5941-4.3678,5.5941Z" style="fill:#6966ed;"/></g><g><path d="M519.8655,575.0766l-27.4861-152.2307c-1.1341-6.2814-6.6019-10.8504-12.9849-10.8504h-149.2202c-6.6437,0-12.4685-4.4392-14.2301-10.8451l-1.8675-6.791c-1.7616-6.4059-7.5864-10.8451-14.2301-10.8451h-50.7324c-9.2005,0-16.1584,8.3266-14.5236,17.3807l31.1447,172.494h.1319l1.7646,9.7725c1.9557,10.8307,11.3836,18.7087,22.3895,18.7087h207.4553c14.1832,0,24.9092-12.836,22.389-26.7936Z" style="fill:#f4d13b;"/><path d="M294.5059,583.3807l-15.2307-148.0233c-.7471-7.2611,4.9501-13.5746,12.2496-13.5746h217.2827c6.0499,0,11.2037,4.3947,12.1596,10.3687l14.0987,88.1166-226.3252,72.4241c-6.6251,2.12-13.5226-2.3919-14.2346-9.3114Z" style="fill:#fff;"/><path d="M306.5798,591.1775l-14.9458-147.3966c-.7356-7.255,4.9592-13.5565,12.2514-13.5565h217.303c6.0499,0,11.2037,4.3947,12.1596,10.3687l14.0987,88.1166-240.8668,62.4678Z" style="fill:#f953b2;"/><path d="M290.2608,601.8701h239.7906c11.649,0,21.4161-8.799,22.6277-20.3848l13.2226-126.4414c.8144-7.7877-5.2931-14.5672-13.1233-14.5672h-220.862c-6.7429,0-12.4009,5.0839-13.1197,11.7883l-12.926,120.5724c-1.2161,11.3436-6.818,21.7625-15.6099,29.0327h0Z" style="fill:#f4d13b;"/><path d="M292.372,406.5879h-34.6148c-2.0659,0-3.8667-1.406-4.3678-3.4102h0c-.7104-2.8415,1.4388-5.5941,4.3678-5.5941h34.6148c2.0659,0,3.8667,1.406,4.3678,3.4102h0c.7104,2.8415-1.4388,5.5941-4.3678,5.5941Z" style="fill:#f953b2;"/></g><path d="M837.9518,781.9473c10.666-5.8377,21.7596-11.0368,33.5386-14.1964,10.9059-2.9254,22.874-4.3186,33.8299-.9,10.0163,3.1254,18.5638,9.5122,27.4597,14.8575,8.5407,5.1318,18.8196,10.7617,29.1211,8.3966,15.8418-3.637,16.5724-23.8363,15.0207-36.7472-2.1258-17.6879-5.5546-35.4284-11.5105-52.2514-5.9395-16.7765-18.1758-44.3719-40.3114-40.8395-1.2663,.2021-2.2178,1.9395-1.7688,3.1152,1.9477,5.0999,7.331,6.8635,12.3849,5.371,5.9305-1.7514,8.9974-7.238,8.6087-13.2702-.767-11.9024-11.3481-22.6285-20.7473-28.9305-19.1874-12.8649-44.1861-13.8765-66.4851-12.3301-11.9941,.8318-23.9137,2.5417-35.7714,4.4894-12.6557,2.0787-25.3327,4.1414-37.9122,6.6411-32.9737,6.5523-65.3253,15.8241-97.4733,25.5754-64.4443,19.5476-129.0748,41.3911-196.6291,46.8437-4.2119,.34-8.431,.6342-12.6525,.8271-2.8626,.1308-6.4807,.1799-8.9042-1.6408-5.5056-4.136,11.4602-10.8273,14.209-11.6632,7.2637-2.2088,14.8668-2.8906,22.4166-3.2608,8.8592-.4344,17.7325-.6486,26.5968-.9556,37.3177-1.2924,74.6361-2.5649,111.9554-3.8082,37.7033-1.256,75.4077-2.4821,113.1133-3.6683,13.1319-.4131,26.6072-.7177,39.3008,3.2192,10.6059,3.2894,22.4961,11.4862,22.2434,23.8822-.1063,5.2122-2.4552,10.681-8.083,11.5459-1.2904,.1983-2.1856,1.9373-1.7688,3.1152,4.5567,12.8791,7.6292,26.3554,9.7551,39.8356,2.5062,15.8919,3.7833,32.5712,1.1967,48.5375-2.1258,13.1222-7.3071,27.0794-19.6428,33.759-21.1836,11.4706-43.613-4.2583-62.5802-12.9549-25.1078-11.5122-52.3039-10.9893-78.9797-6.0101-28.4784,5.3157-56.518,12.6307-85.173,17.0851-50.8543,7.9052-106.042,7.8912-152.1902-17.8918-19.9674-11.1558-37.3376-27.0561-48.4173-47.2116-9.6846-17.6175-14.2433-37.9133-12.4053-57.9725,1.8526-20.2188,10.5683-39.4529,24.3547-54.3287,17.5738-18.9625,41.9452-30.4375,66.269-38.0616,55.7411-17.4718,114.9063-18.5125,172.8023-17.9288,29.525,.2977,59.0582,1.0167,88.5816,.215,28.2156-.7662,56.7752-2.5859,84.4661-8.3383,24.6058-5.1116,48.6411-14.1572,68.0778-30.4675,15.6315-13.1171,27.4304-30.1831,34.8269-49.1546,14.9042-38.2283,11.9547-82.1141-.3971-120.603-2.9736-9.2659-6.563-18.328-10.7029-27.1342-1.3857-2.9477-5.7536-.3794-4.3734,2.5564,17.4954,37.2156,25.5669,81.0567,17.1118,121.6954-4.1615,20.0021-12.6011,39.172-25.8182,54.865-16.1443,19.1686-37.9374,31.5895-61.7558,38.753-26.7432,8.0432-55.0588,10.5992-82.8327,12.0386-29.873,1.5482-59.7995,1.1131-89.6959,.7201-59.2276-.7785-119.2176-1.1805-176.9921,13.7334-25.6133,6.6118-50.9506,16.3563-71.7996,33.0085-16.4098,13.1066-28.6555,31.1134-34.1646,51.4297-11.2176,41.3671,6.2832,84.8777,38.5939,111.6852,39.1073,32.4465,92.259,40.7659,141.5963,37.4322,29.6267-2.0018,58.808-7.8426,87.7828-14.0899,27.6473-5.9611,56.1502-13.8354,84.6233-9.1002,13.5794,2.2583,25.4635,8.0444,37.6547,14.1322,10.6978,5.3421,22.0174,10.7028,34.2047,10.9623,15.7255,.3349,29.3173-8.305,36.0925-22.3637,6.7256-13.9559,7.7472-30.2513,7.1291-45.4988-.6508-16.0562-3.2962-32.0928-7.2394-47.6577-1.4542-5.7401-3.0995-11.4392-5.0751-17.0229l-1.7688,3.1152c11.8674-1.8238,13.9354-17.3382,9.682-26.4221-5.2479-11.2076-16.7392-17.2946-28.3158-19.9776-13.7838-3.1947-27.9861-2.4552-42.0037-2.0127-19.0461,.6012-38.0919,1.2125-57.1374,1.8326-37.7084,1.2276-75.4157,2.4897-113.1222,3.7761-19.0476,.6499-38.095,1.306-57.1422,1.967-15.6561,.5434-32.616-.2138-47.3455,5.9835-5.2406,2.2049-14.3804,6.4676-13.958,13.3484,.3548,5.7793,7.2336,7.7649,11.9953,8.0664,3.8236,.2421,7.7828-.2705,11.5973-.5398,4.204-.2967,8.4034-.6576,12.5967-1.0786,8.5731-.8608,17.122-1.9715,25.6367-3.2889,33.4321-5.1725,66.2383-13.6813,98.6769-23.1656,32.9129-9.6229,65.5217-20.2631,98.5174-29.6064,16.4996-4.6722,33.0958-9.0205,49.8368-12.7448,14.4483-3.2142,29.0044-5.7188,43.5892-8.2089,23.2959-3.9774,47.1264-7.8798,70.8225-5.696,11.3564,1.0466,22.8454,3.7076,32.8081,9.4258,4.9434,2.8373,9.397,6.401,13.1924,10.658,4.3899,4.9238,9.6965,12.0737,8.3481,19.051-.5614,2.9049-2.4548,4.9006-5.3531,5.5267-1.9942,.4308-4.7144,.2089-5.5548-1.9918l-1.7688,3.1152c9.7936-1.5629,17.5888,6.4188,22.6398,13.7868,4.7893,6.9863,8.3046,14.7942,11.1651,22.7413,5.7228,15.8993,9.1767,32.69,11.3255,49.4266,1.4244,11.094,2.9813,32.4585-12.444,34.3734-10.254,1.2729-20.512-6.0257-28.7514-11.209-8.0326-5.0533-16.1672-10.2998-25.4259-12.8013-11.3195-3.0583-23.6389-1.6041-34.8115,1.3981-12.1815,3.2733-23.7157,8.6686-34.7485,14.707-2.8601,1.5654-.3071,5.9407,2.5564,4.3734h0Z"/><g><path d="M804.9607,275.1962c-7.0191,2.2067-14.2523,3.7318-21.5649,4.5469-4.8945,.5455-9.9659,.7554-14.6293-.8278-10.3095-3.5001-16.1058-15.5774-14.5441-26.3522,.4442-3.065,1.3775-6.0556,1.6207-9.1431,.5095-6.4673-2.9097-12.9954-9.0626-15.4693-9.9119-3.9853-18.6579,3.4218-19.0092,13.2117-.2105,5.8642-.1043,11.7398,.3179,17.5926-3.4497-1.0117-5.4928-4.5099-6.866-7.8323-2.8168-6.8151-1.8365-18.2871-6.2779-24.05-5.431-7.0471-18.6216-3.0681-26.2348-3.9242-4.9298-.5543-10.1945-1.8961-13.2939-5.7696-3.0631-3.8283-3.2525-9.2257-2.4288-14.0589,2.5646-15.0479,14.6444-24.5409,27.5761-31.3126,17.4732-9.1499,36.6082-16.1685,56.3318-16.0687,19.7237,.0999,40.1349,8.2574,51.4288,24.4277,11.9408,17.0965,11.9838,39.515,11.6126,60.3653-.0596,3.3494-.101,6.8,1.1247,9.9177,.938,2.3859,2.5781,4.4595,3.3989,6.8882,3.2709,9.6787-12.8435,15.766-19.4999,17.8587Z"/><path d="M804.2875,272.7542c-5.5754,1.7399-11.2708,3.0721-17.0456,3.9511-5.357,.8154-11.163,1.5836-16.4802,.1672-7.8932-2.1026-12.9426-9.6835-14.0458-17.4886-.27-1.9105-.2864-3.8876-.0858-5.8071,.269-2.5743,1.0402-5.0831,1.4359-7.6413,.7308-4.7251,.161-9.515-2.4293-13.6284-4.8151-7.6465-15.6846-10.6553-23.2241-5.1029-3.985,2.9347-6.4046,7.3525-7.0233,12.2373-.3771,2.9769-.2762,6.0592-.2486,9.0547,.0315,3.4234,.1749,6.8439,.4161,10.2588l3.2057-2.442c-2.4975-.8026-3.9101-3.4285-4.9197-5.6691-1.0066-2.2339-1.4765-4.6797-1.8689-7.0846-.8916-5.4643-1.1307-11.3375-3.7913-16.3204-5.4419-10.192-18.6371-6.3921-27.879-6.7114-4.9329-.1704-11.172-1.5597-13.7643-6.2146-2.7338-4.9089-1.3372-11.6247,.5288-16.5887,3.9139-10.4115,13.4296-17.5207,22.8418-22.6936,22.901-12.5865,50.5372-21.5805,76.5096-13.889,11.0483,3.2719,21.4491,9.4952,28.5502,18.7004,7.6279,9.888,10.7623,22.3803,11.8811,34.6168,.5922,6.4768,.6924,12.988,.6436,19.488-.0245,3.2635-.1778,6.536-.1009,9.7988,.0912,3.8664,.9277,7.2828,2.8049,10.6631,.692,1.2461,1.4867,2.4841,1.9025,3.8582,.0757,.2503,.138,.5027,.1935,.7582,.1681,.7736-.0035-.455,.0472,.314,.0159,.2417,.0116,.4808,.0173,.7225,.0013,.0558-.0719,.8131,.005,.2663-.2575,1.8297-1.1073,3.007-2.412,4.3165-2.7785,2.7889-7.1274,4.9312-10.6676,6.3389-1.6426,.6531-3.3113,1.2387-4.9968,1.7709-3.0972,.978-1.7743,5.8695,1.3465,4.884,4.2184-1.332,8.416-2.9715,12.2476-5.1981,3.8887-2.2598,8.0618-5.5014,9.2251-10.0791,.6587-2.5922,.1601-5.0994-.9309-7.4894-.7113-1.5582-1.656-2.9926-2.4068-4.5303-.7929-1.624-1.1352-3.428-1.2521-5.2202-.2329-3.5697,.0088-7.1856,.0391-10.7605,.0282-3.3216,.0184-6.6441-.0735-9.9647-.373-13.4774-2.0821-27.302-8.324-39.4424-5.8361-11.351-15.7013-20.08-27.2807-25.2916-11.9233-5.3664-25.084-7.2779-38.0763-6.1065-15.0561,1.3574-29.473,6.3175-43.041,12.8172-11.138,5.3356-22.4309,11.7288-29.544,22.1681-6.5047,9.5463-10.6231,27.3181,1.8648,34.0366,5.0778,2.7319,11.0438,3.2331,16.6999,2.9148,2.7292-.1536,5.4574-.3866,8.193-.3699,2.3611,.0144,4.9036,.2077,6.8745,1.0172,2.1269,.8736,3.3425,2.2373,4.3062,4.3489,1.0977,2.4052,1.5726,5.3091,1.987,7.9694,.8959,5.7513,1.3505,11.5588,4.331,16.709,1.6009,2.7663,3.8519,5.0371,6.9429,6.0303,1.4914,.4793,3.3194-.8325,3.2057-2.442-.4075-5.7701-.5425-11.5666-.3263-17.3482,.1356-3.6267,1.5343-7.0315,4.2281-9.4429,5.6516-5.059,14.7849-2.1118,17.7599,4.7986,1.9012,4.4162,.6819,8.802-.1871,13.2959-.8528,4.4099-.8588,8.8216,.2469,13.1931,2.0489,8.1006,7.6957,15.3647,15.7502,18.1058,6.0442,2.0569,12.642,1.3261,18.8328,.4727,6.3426-.8743,12.5965-2.2846,18.7078-4.1918,3.1013-.9678,1.7775-5.8589-1.3465-4.884Z"/></g><path d="M402.4873,378.7248c-8.2323-.6068-6.999-10.1356-5.2916-15.9667,2.5347-8.6564,8.5856-16.0301,14.7695-22.4095,7.664-7.9063,17.0576-13.3676,28.0155-15.081,11.1641-1.7457,22.9214-.437,33.8324,2.2,23.9032,5.7769,45.7832,18.5174,65.3533,33.0959,18.8808,14.0651,35.6449,30.4798,51.2379,48.0616,15.4269,17.3944,32.5102,34.7549,41.5646,56.5648,4.5172,10.8809,6.6321,22.7212,5.3054,34.4782-.2732,2.4207-1.011,5.0019-2.6678,6.8598-1.4111,1.5823-3.2932,1.732-4.4655-.2154-1.2443-2.0671-1.2494-4.7751-1.3989-7.1091-.1515-2.3661-.2756-4.734-.373-7.103-.8116-19.7509,.1573-39.6595,3.4553-59.1626,3.3161-19.6098,8.9241-39.0485,18.1709-56.722,8.8892-16.99,21.2596-32.2534,37.281-42.9824,8.8061-5.8972,18.4171-10.2494,28.5349-13.3561,14.3313-4.4004,29.519-7.4657,44.535-7.6582,7.4467-.0955,14.8913,.2413,22.3381,.1256,3.2561-.0506,3.2659-5.1157,0-5.065-8.1865,.1272-16.3728-.2956-24.5586-.0831-7.9801,.2071-15.8048,1.401-23.6327,2.9058-13.274,2.5518-26.4656,6.1557-38.5884,12.2414-18.528,9.3012-33.6643,24.0752-44.6666,41.5389-11.2099,17.7932-18.2769,38.0402-22.5676,58.5472-4.3507,20.7941-6.0031,42.1577-5.5611,63.3811,.104,4.9947,.3068,9.9939,.6732,14.9768,.3849,5.2338,2.2764,12.3587,8.8855,12.0915,5.9827-.2419,8.9431-7.2485,9.5696-12.3039,.7833-6.3207,.5763-12.717-.3748-19.0058-3.7708-24.9322-20.4111-45.5083-36.5784-63.8464-7.8919-8.9515-15.7234-18.0084-24.0096-26.5988-8.7772-9.0994-18.0631-17.7175-27.8269-25.7501-20.112-16.546-42.5189-31.2228-67.3336-39.6075-22.0009-7.4339-49.564-10.8459-69.4377,3.7564-4.7034,3.4558-8.8491,7.5502-12.5771,12.0317-3.181,3.824-6.5442,7.8731-8.8094,12.3287-3.4693,6.8239-6.5553,16.6743-2.8649,23.9909,1.9608,3.8876,5.8997,5.6088,10.0616,5.9156,3.2517,.2397,3.2365-4.8264,0-5.065h0Z"/><path d="M417.7794,357.6606c-6.0996,8.4278-12.1992,16.8557-18.2989,25.2835-4.0854,5.6448-8.1708,11.2896-12.2562,16.9344-1.2921,1.7853-2.5842,3.5706-3.8764,5.3559-.7644,1.0561-1.6202,2.1127-2.2013,3.2817-2.9618,5.9585-.9886,13.2546,4.6471,16.8388,5.8619,3.728,13.2858,1.8238,17.3707-3.4982-1.4578-.8521-2.9156-1.7043-4.3734-2.5564-3.7003,5.1892-2.9575,12.7442,1.8481,17.0025,5.2162,4.6222,13.151,4.3454,18.0226-.6463-1.3258-1.023-2.6516-2.0459-3.9775-3.0689-3.6903,6.4147-1.3393,15.0768,5.5302,18.2464,5.8793,2.7127,12.3666,.7555,16.1912-4.3217,4.431-5.8822,8.8044-11.8087,13.2063-17.7127,1.7-2.28,3.3999-4.5601,5.0999-6.8401l-4.3734-2.5564c-3.0702,4.2441-6.1404,8.4883-9.2107,12.7324-2.0845,2.8815-4.1689,5.763-6.2534,8.6444-.9871,1.3645-2.2212,2.7287-2.9403,4.2667-2.5011,5.3493,.2847,11.6578,3.847,15.8088,3.6715,4.2783,9.5207,6.3617,14.9405,4.2834,2.6843-1.0293,4.8125-2.8107,6.4111-5.1891,.9168-1.3641,1.76-2.7772,2.7132-4.1169,1.4973-2.1045,3.3298-4.1018,5.5329-5.4793,1.657-1.036,3.5929-1.7033,5.2772-1.7979,4.0357-.2265,7.774,1.6068,11.2372,4.0697,4.1021,2.9172,7.5954,6.7364,10.764,10.6193,3.1042,3.8041,5.828,7.8769,8.4923,11.9948,3.7607,5.8128,7.5931,11.5802,11.5561,17.2573,15.3189,21.9449,32.8041,42.9516,54.2486,59.1764,20.4759,15.492,44.9813,26.561,70.8414,28.136,3.1524,.192,6.3107,.23,9.4671,.1291,3.2513-.1039,3.2656-5.1693,0-5.065-25.2298,.8062-49.5683-8.3226-70.298-22.2529-21.7144-14.592-39.5297-34.6229-54.8629-55.6381-3.8633-5.2948-7.5887-10.689-11.2251-16.1418-3.2497-4.8729-6.3121-9.8803-9.6948-14.6628-2.988-4.2246-6.2108-8.3248-9.8483-12.0125-3.3282-3.3742-7.1121-6.592-11.4392-8.6052-4.1262-1.9198-8.7776-2.7907-13.2071-1.3666-5.2848,1.6992-9.15,5.8912-12.1173,10.4115-.6932,1.0561-1.3213,2.1819-2.0787,3.1933-1.3529,1.8065-3.5677,2.9875-5.8185,3.087-4.8843,.216-8.6529-4.1527-10.0749-8.4715-.6338-1.9249-.8931-4.0202,.1563-5.6303,.2621-.4021,.5662-.7827,.8474-1.1714,1.6292-2.2521,3.2584-4.5042,4.8876-6.7563,3.8253-5.2879,7.6506-10.5758,11.4759-15.8637,.249-.3442,.498-.6884,.747-1.0326,.8021-1.1089,.1908-2.8219-.9085-3.4649-1.292-.7557-2.6448-.1914-3.4649,.9085-3.6395,4.8814-7.2789,9.7627-10.9184,14.6441-2.0788,2.7882-4.1576,5.5763-6.2364,8.3645-1.6956,2.2742-3.5063,4.2712-6.56,4.5922-6.426,.6756-10.7239-6.3705-7.566-11.8599,1.4207-2.4695-1.9412-5.1553-3.9775-3.0689-2.9923,3.066-7.9429,3.4286-11.129,.3991-3.033-2.8839-3.1525-7.2997-.7867-10.6175,.7945-1.1142,.1964-2.8186-.9085-3.4649-1.3053-.7635-2.6294-.18-3.4649,.9085-2.7059,3.5254-8.1441,3.9017-11.3946,.952-3.172-2.8783-3.3023-7.3776-.9048-10.7624,1.8268-2.5792,3.7072-5.1222,5.5602-7.6825,7.8994-10.9146,15.7989-21.8293,23.6983-32.7439,2.1342-2.9488,4.2684-5.8977,6.4026-8.8465,.8024-1.1087,.1906-2.822-.9085-3.4649-1.2784-.7478-2.6606-.2027-3.4649,.9085h0Z"/><path d="M710.2221,807.5413c-2.1456-5.0763,.9538-11.6834,6.3186-13.0525,5.2669-1.3441,11.2072,2.0202,11.7218,7.6809,.2868,3.1553-.8365,6.215-3.2857,8.2916,1.4109,.3725,2.8218,.745,4.2327,1.1175-.8202-2.1313,.0558-4.3198,1.9926-5.7835,2.1859-1.652,5.0104-1.4287,7.3505-.1603,6.2898,3.4092,7.5642,11.1519,8.6966,17.5549,.2384,1.3477,1.8852,2.1068,3.1152,1.7688,1.4216-.3907,2.0078-1.7636,1.7688-3.1152-1.5244-8.6194-4.1403-18.3317-13.3262-21.5958-3.9325-1.3974-8.1872-.6407-11.3351,2.0841-2.9368,2.542-4.5906,6.8408-3.1464,10.5936,.7098,1.8445,2.6987,2.4181,4.2327,1.1175,6.3955-5.4226,6.4141-16.3758-.194-21.6202-6.8533-5.439-17.3641-3.8886-21.7659,3.8594-2.432,4.2808-2.652,9.315-.7497,13.8157,.5326,1.2601,2.393,1.5355,3.4649,.9085,1.3048-.7632,1.4432-2.1998,.9085-3.4649h0Z"/><path d="M419.3211,435.1651c5.8618-7.7129,11.7236-15.4258,17.5854-23.1387,.829-1.0908,1.658-2.1816,2.4871-3.2724,.8282-1.0898,.1713-2.8333-.9085-3.4649-1.3007-.7608-2.6347-.1839-3.4649,.9085-5.8618,7.7129-11.7236,15.4258-17.5854,23.1387-.829,1.0908-1.658,2.1816-2.4871,3.2724-.8282,1.0898-.1713,2.8333,.9085,3.4649,1.3007,.7608,2.6347,.1839,3.4649-.9085h0Z"/><path d="M402.418,423.016c5.8618-7.7129,11.7236-15.4258,17.5854-23.1387,.829-1.0908,1.658-2.1816,2.4871-3.2724,.8282-1.0898,.1713-2.8333-.9085-3.4649-1.3007-.7608-2.6347-.1839-3.4649,.9085-5.8618,7.7129-11.7236,15.4258-17.5854,23.1387-.829,1.0908-1.658,2.1816-2.4871,3.2724-.8282,1.0898-.1713,2.8333,.9085,3.4649,1.3007,.7608,2.6347,.1839,3.4649-.9085h0Z"/><path d="M545.6864,328.9652c11.0545-13.5751,28.8223-18.8848,45.8458-17.7191,18.27,1.251,36.2307,8.8589,50.9035,19.6128,13.5586,9.9373,24.817,22.6225,36.1941,34.89,13.5445,14.6045,27.7563,28.5979,41.7305,42.7891,14.8125,15.0426,29.6241,30.086,44.4375,45.1277,13.5281,13.7366,27.1314,27.5045,42.3426,39.405,14.5653,11.3952,30.5859,21.0678,48.2397,26.8351,15.3114,5.0021,31.9696,6.7044,47.9929,4.8745,7.2439-.8273,14.5293-2.4381,20.9718-5.9747,6.7881-3.7262,11.3921-9.8182,15.3253-16.3461,9.2528-15.3571,13.493-33.2887,12.9618-51.1426-.5854-19.6745-6.142-38.7454-13.2637-56.9612-6.6849-17.0985-14.6822-33.7881-25.1067-48.9449-10.0481-14.6096-22.2823-27.6829-36.9277-37.7601-7.1865-4.9449-14.8938-9.0775-23.006-12.2879-7.1013-2.8104-14.5711-4.3157-21.7751-6.7976-5.5799-1.9223-11.1561-4.4604-15.5715-8.4597-4.799-4.3468-7.6846-10.0534-9.0728-16.3316-2.0934-9.4674-.5833-19.2481-1.7953-28.8104-.9535-7.5223-3.4489-14.7744-7.2238-21.349-7.5369-13.1265-19.9471-23.4202-34.325-28.1961-13.6474-4.5333-28.889-3.554-42.3159,1.2792-13.6528,4.9145-26.0417,13.8068-33.9974,26.0631-4.4281,6.8218-7.0489,14.4648-8.1795,22.4982-1.2894,9.1615-1.0355,18.4188-1.5335,27.6351-.1135,2.1002-.2654,4.199-.4924,6.2902-.2248,2.0714-1.0789,4.6173-.4488,6.6662,.4701,1.5286,1.7315,2.6077,3.2224,3.09,1.4073,.4552,3.1058,.198,4.4029,.9356l-1.1638-1.5135c4.0782,10.4235,8.8542,21.1128,18.1347,27.9363,9.8245,7.2235,22.5079,9.8525,34.4683,8.221,1.3656-.1863,2.0838-1.9201,1.7688-3.1152-.3864-1.4659-1.7665-1.9528-3.1152-1.7688-9.2196,1.2576-18.8693-.6865-26.914-5.342-7.686-4.448-12.4903-11.536-16.1684-19.4452-.8432-1.8131-1.6242-3.6526-2.3704-5.5075-.9078-2.2564-1.4173-3.9341-3.9617-4.6294-.8484-.2318-1.7382-.2504-2.6007-.399-.2411-.0415-.4746-.0879-.7163-.1361-.9043-.1806-.1509,.1579-.144-.0498,.0775-2.3166,.6709-4.702,.8733-7.0244,.8432-9.6746,.3825-19.4228,1.472-29.0808,.9391-8.3242,3.4954-16.1607,8.1367-23.1569,4.0715-6.1373,9.4926-11.4052,15.5695-15.5447,12.1732-8.2922,27.1188-12.661,41.8568-11.5901,15.4746,1.1244,29.7195,9.2747,39.3493,21.3173,4.89,6.1151,8.5064,13.3038,10.3739,20.9107,2.3469,9.5592,.9492,19.3826,1.9901,29.0761,.7734,7.2024,2.8291,14.319,7.258,20.1557,3.8833,5.1177,9.1648,8.8571,14.974,11.5118,6.3858,2.9181,13.1145,4.5549,19.8253,6.5068,8.8114,2.5629,17.1926,6.3954,25.0249,11.1637,32.4245,19.7401,52.3327,53.7572,65.7211,88.3072,7.4126,19.1289,13.1164,39.2752,12.7352,59.9624-.3323,18.0332-6.1886,36.7118-17.5603,50.8866-9.3348,11.6358-26.4028,12.9787-40.2398,12.8073-18.2844-.2265-35.7017-4.892-51.9397-13.2642-17.6701-9.1105-33.1613-21.7267-47.572-35.3041-15.2935-14.4092-29.789-29.6862-44.529-44.6551-15.3001-15.5377-30.6002-31.0754-45.9003-46.6131-6.6433-6.7465-13.2154-13.5403-19.6461-20.4902-5.9444-6.4244-11.8775-12.8681-18.1635-18.9629-12.8792-12.4876-27.2353-22.7881-44.1667-29.0057-17.8337-6.549-37.9285-8.7539-55.8272-1.243-7.6951,3.2291-14.6614,8.0925-19.9498,14.5867-2.0412,2.5066,1.5215,6.1111,3.5815,3.5815h0Z"/><path d="M692.9649,244.9496c.1384-.0758,.2813-.1414,.4217-.2131,.1934-.0989-.3192,.1177-.1137,.048,.066-.0224,.1306-.0496,.1964-.0726,.2965-.1037,.601-.1836,.91-.2403,.0577-.0106,.3076-.044,.0343-.011-.3033,.0365,.0494-.0033,.0879-.0067,.1393-.0126,.2791-.0206,.419-.0242,.3172-.008,.6289,.042,.9437,.0441-.0719-.0005-.3684-.0593-.1367-.0156,.0688,.013,.138,.0243,.2067,.038,.1545,.0309,.3078,.0677,.4596,.1097,.1517,.042,.302,.0892,.4502,.1422,.0625,.0223,.1314,.0613,.1963,.0737-.0719-.0137-.3202-.147-.1138-.0476,.2841,.1369,.561,.2797,.8251,.4531,.0584,.0383,.115,.079,.173,.1179,.202,.1353-.0747-.023-.0902-.0756,.0265,.0897,.3178,.2715,.3958,.3447,.6441,.6048,1.7575,.6864,2.3876,0,.6026-.6565,.6877-1.7419,0-2.3876-2.4977-2.345-6.3506-2.8397-9.3571-1.1926-.7754,.4248-1.0903,1.5582-.6057,2.3099,.5068,.786,1.4805,1.0601,2.3099,.6057h0Z"/><g><path d="M694.5239,252.5796c-2.0972,2.5322,1.7984,5.0246,3.2403,2.3686,1.2452-2.2938-1.4118-4.5763-3.2403-2.3686Z"/><path d="M693.33,251.3858c-.2532,.3098-.5143,.6286-.68,.9965-.1012,.2247-.207,.4532-.2774,.6904-.0729,.2455-.0986,.5116-.1276,.7623-.0403,.3478,.0111,.7008,.0763,1.0427,.0613,.3214,.2024,.6368,.3525,.9233,.6227,1.1889,1.9313,1.9125,3.2462,1.9719,.3297,.0149,.675-.0341,.9931-.1142,.3271-.0823,.6555-.2206,.9403-.4022,.6433-.4101,1.1841-1.0074,1.4904-1.7092,.1051-.2407,.2171-.4835,.2858-.7382,.0729-.2703,.1077-.5647,.1321-.8388,.0345-.3869-.0181-.789-.1034-1.1651-.0274-.1207-.0662-.2375-.1123-.3522-.094-.2337-.1855-.4763-.3177-.6926-.186-.3045-.4203-.6148-.6976-.8456-.4291-.3573-.8059-.5893-1.3398-.7692-.3659-.1234-.7844-.1809-1.1696-.143-.5782,.0569-1.0598,.1773-1.5756,.4598-.4185,.2292-.8081,.5578-1.1157,.9235-.2943,.3499-.4945,.7219-.4945,1.1938,0,.4141,.1839,.9087,.4945,1.1938,.3218,.2954,.7442,.5146,1.1938,.4945,.425-.019,.909-.1558,1.1938-.4945,.1465-.1742,.3063-.333,.4865-.4723l-.3417,.264c.1465-.1092,.3014-.202,.4688-.2755l-.4033,.1702c.1519-.0631,.3078-.1079,.4706-.1325l-.4488,.0603c.1529-.0198,.3048-.021,.4579-.003l-.4488-.0603c.1599,.0221,.3132,.0641,.4624,.1258l-.4033-.1702c.1478,.0645,.2847,.1455,.413,.2431l-.3417-.264c.138,.1088,.2596,.2324,.3673,.3712l-.264-.3417c.1082,.1446,.1969,.2993,.2678,.4653l-.1702-.4033c.0707,.1739,.119,.3528,.1462,.5385l-.0603-.4488c.0253,.1972,.0256,.3933,.0025,.5907l.0603-.4488c-.0309,.2295-.0925,.4501-.1807,.6641l.1702-.4033c-.0945,.2189-.212,.4253-.3566,.6149l.264-.3417c-.1161,.1475-.2463,.2801-.3946,.3953l.3417-.264c-.128,.096-.2643,.1758-.4114,.2389l.4033-.1702c-.1497,.0613-.3041,.103-.4643,.1257l.4488-.0603c-.1668,.0209-.3336,.0207-.5004,.0007l.4488,.0603c-.1957-.0263-.3847-.0789-.5667-.1554l.4033,.1702c-.1723-.0752-.3333-.17-.4828-.2839l.3417,.264c-.1479-.1159-.28-.2477-.3951-.3963l.264,.3417c-.1012-.1346-.1856-.2788-.252-.4335l.1702,.4033c-.0614-.1492-.104-.3031-.1276-.4628l.0603,.4488c-.022-.168-.0219-.3355-.0011-.5036l-.0603,.4488c.0258-.1838,.0755-.3606,.1451-.5326l-.1702,.4033c.0939-.222,.2176-.4266,.3626-.6188l-.264,.3417c.0272-.0351,.0548-.0697,.0828-.104,.1646-.1529,.281-.334,.3491-.5433,.1057-.2012,.1542-.418,.1454-.6505,0-.4141-.1839-.9087-.4945-1.1938-.3218-.2954-.7442-.5146-1.1938-.4945-.4212,.0189-.9153,.1538-1.1938,.4945Z"/></g><path d="M706.3246,274.2278c-.0063,.1282-.0136,.2561-.0246,.384-.007,.0814-.0171,.5144,.0017,.0598-.0094,.2277-.0777,.4689-.1275,.691-.1074,.4793-.2574,.9439-.4313,1.4028-.1527,.4031,.1567-.3214-.0294,.0676-.0552,.1155-.1081,.2319-.1656,.3463-.1053,.2099-.2181,.4159-.3378,.6179-.1197,.2022-.2461,.4004-.3795,.5939-.0728,.1055-.1515,.2071-.2241,.3127,.2339-.3406-.0065,.0061-.0525,.062-.2989,.3627-.623,.7051-.9687,1.0236-.1888,.1739-.386,.3361-.5842,.4989,.3244-.2664-.0125,.0036-.0678,.0429-.1042,.0741-.2099,.1461-.317,.216-.3941,.2574-.806,.4737-1.2284,.6799-.3862,.1886,.3352-.1224-.0667,.0304-.1196,.0455-.2388,.0911-.3598,.133-.2425,.084-.4884,.1552-.7368,.2194-.8551,.2211-1.4569,1.2186-1.1792,2.0768,.2853,.8818,1.1604,1.4161,2.0768,1.1792,4.7962-1.24,8.336-5.7197,8.5789-10.6381,.0436-.8834-.8077-1.7278-1.6883-1.6883-.952,.0426-1.6416,.7419-1.6883,1.6883h0Z"/><path d="M362.2139,322.6228c2.2902,2.7176,4.5804,5.4353,6.8707,8.1529,.3971,.4712,1.1969,.7417,1.7907,.7417,.6211,0,1.3631-.2759,1.7907-.7417,.443-.4826,.772-1.1163,.7417-1.7907-.0315-.7034-.2883-1.2526-.7417-1.7907-2.2902-2.7176-4.5804-5.4353-6.8707-8.1529-.3971-.4712-1.1969-.7417-1.7907-.7417-.6211,0-1.3631,.2759-1.7907,.7417-.443,.4826-.772,1.1163-.7417,1.7907,.0315,.7034,.2883,1.2526,.7417,1.7907h0Z" style="fill:#6966ed;"/><path d="M423.7434,290.6738c-.3344,3.0095-.6688,6.019-1.0032,9.0284-.067,.603,.331,1.38,.7417,1.7907,.4392,.4392,1.1599,.77,1.7907,.7417,.655-.0293,1.3343-.2445,1.7907-.7417,.482-.525,.6634-1.0858,.7417-1.7907,.3344-3.0095,.6688-6.019,1.0032-9.0284,.067-.603-.331-1.38-.7417-1.7907-.4392-.4392-1.1599-.77-1.7907-.7417-.655,.0293-1.3343,.2445-1.7907,.7417-.482,.525-.6634,1.0858-.7417,1.7907h0Z" style="fill:#6966ed;"/><path d="M476.6143,299.9772c.6688-1.3375,1.3375-2.6751,2.0063-4.0126,.306-.612,.4415-1.2753,.2553-1.9514-.1618-.5874-.616-1.224-1.1638-1.5135-.5877-.3105-1.2997-.4662-1.9514-.2553-.6044,.1956-1.2198,.5764-1.5135,1.1638-.6688,1.3375-1.3375,2.6751-2.0063,4.0126-.306,.612-.4415,1.2753-.2553,1.9514,.1618,.5874,.616,1.224,1.1638,1.5135,.5877,.3105,1.2997,.4662,1.9514,.2553,.6044-.1956,1.2198-.5764,1.5135-1.1638h0Z" style="fill:#6966ed;"/><path d="M220.3298,619.2184c4.0102-1.6778,8.0203-3.3557,12.0305-5.0335,.6374-.2667,1.1497-.5422,1.5135-1.1638,.3177-.5428,.4522-1.3428,.2553-1.9514-.3784-1.1694-1.8066-2.3163-3.1152-1.7688-4.0102,1.6778-8.0203,3.3557-12.0305,5.0335-.6374,.2667-1.1497,.5422-1.5135,1.1638-.3177,.5428-.4522,1.3428-.2553,1.9514,.3784,1.1694,1.8066,2.3163,3.1152,1.7688h0Z" style="fill:#f953b2;"/><path d="M261.0854,648.4487c.9703-4.3544,1.9405-8.7087,2.9108-13.0631,.2874-1.29-.39-2.8012-1.7688-3.1152-1.2832-.2923-2.8071,.3859-3.1152,1.7688-.9703,4.3544-1.9405,8.7087-2.9108,13.0631-.2874,1.29,.39,2.8012,1.7688,3.1152,1.2832,.2923,2.8071-.3859,3.1152-1.7688h0Z" style="fill:#f953b2;"/><path d="M303.4134,639.7736c0-1.3375,0-2.6751,0-4.0126,0-.6493-.2825-1.3315-.7417-1.7907-.4392-.4392-1.1599-.77-1.7907-.7417-.655,.0293-1.3343,.2445-1.7907,.7417-.4548,.4955-.7417,1.1046-.7417,1.7907,0,1.3375,0,2.6751,0,4.0126,0,.6493,.2825,1.3315,.7417,1.7907,.4392,.4392,1.1599,.77,1.7907,.7417,.655-.0293,1.3343-.2445,1.7907-.7417,.4548-.4955,.7417-1.1046,.7417-1.7907h0Z" style="fill:#f953b2;"/><path d="M881.6333,745.3448c1.9348-4.8718,4.5966-11.3283,10.4619-12.1546,5.1608-.7271,10.2121,2.9771,10.3666,8.2842,.0859,2.9519-1.0635,5.7228-3.3459,7.6572h3.5815c.1661,.1921,.2293-.5085,.2797-.6312,.2492-.6066,.6903-1.1327,1.13-1.5927,.8031-.8402,1.797-1.5282,2.8324-1.9807,2.5305-1.1058,5.4563-1.1512,8.022-.1762,5.4981,2.0894,8.0293,8.9023,6.9904,14.4003-.2537,1.3426,.374,2.732,1.7688,3.1152,1.236,.3396,2.86-.418,3.1152-1.7688,1.3153-6.9606-1.0141-14.4631-6.854-18.724-5.3355-3.8929-13.1437-3.5909-18.2733,.4909-3.0566,2.4322-5.5842,6.9904-2.5927,10.4486,.9463,1.0939,2.5998,.832,3.5815,0,5.868-4.9734,6.4834-14.6763,1.1828-20.2709-5.4959-5.8007-14.9805-5.6923-20.5302-.1101-3.201,3.2198-4.9541,7.5205-6.6007,11.6663-.505,1.2716,.5525,2.7811,1.7688,3.1152,1.4405,.3958,2.6084-.4925,3.1152-1.7688h0Z"/></g><path d="M69.4845,545.1341c6.6241,2.3015,13.6417,4.711,20.7643,4.0693,6.2039-.5589,12.0371-3.1475,15.7403-8.2914,.7515-1.0438,.2456-2.9209-.9085-3.4649-2.2865-1.0777-4.7036-.681-6.5868,1.0169-1.9102,1.7223-2.5162,4.1954-2.0816,6.6737,.4318,2.4625,1.949,4.5634,3.4722,6.472,1.3584,1.702,2.8657,3.2802,4.4959,4.7236,6.7222,5.9523,15.063,9.6202,23.545,12.3079,4.7709,1.5118,9.6304,2.7205,14.4954,3.8856,3.1681,.7587,4.52-4.124,1.3465-4.884-14.0284-3.3595-29.6616-7.1646-39.4619-18.5993-1.2023-1.4027-2.665-3.0947-2.9693-4.9771-.1056-.6535-.0089-1.2298,.3911-1.6895,.2222-.2553,.4807-.3846,.7309-.5228-.2114,.1168,.3278,.0898,.0662-.0335-.3028-1.155-.6057-2.3099-.9085-3.4649-2.8017,3.8917-7.8584,5.6574-12.4888,5.8575-6.3151,.2729-12.4195-1.9213-18.2959-3.9631-1.2919-.4489-2.7699,.5118-3.1152,1.7688-.383,1.3939,.4721,2.6647,1.7688,3.1152h0Z" style="fill:#f953b2;"/></svg>