<?xml version="1.0" encoding="UTF-8"?><svg id="Layer_2" xmlns="http://www.w3.org/2000/svg" width="1000" height="1000" viewBox="0 0 1000 1000"><g><g><path d="M356.598,680.0303l-94.4177,70.4851c-8.0349,5.9982-19.5211,.7083-20.1859-9.2965l-7.8116-117.5663c-.7474-11.2486,1.3315-22.5054,6.0473-32.7451L440.7281,155.5582l137.3203,63.2422-200.498,435.3493c-4.7158,10.2397-11.9187,19.1367-20.9525,25.8806Z" style="fill:#f4d13b;"/><path d="M565.7514,245.5015l-137.3203-63.2422,27.9125-60.6075c17.4638-37.9199,62.3612-54.5029,100.2812-37.039h.0001c37.9199,17.4639,54.5029,62.3613,37.039,100.2812l-27.9125,60.6075Z" style="fill:#6966ed;"/><path d="M375.5783,658.0834c2.4524-12.7654-3.9775-26.0327-16.3139-31.7142-8.8313-4.0672-18.6474-3.302-26.4888,1.1851-1.6873-8.8755-7.4866-16.8323-16.3178-20.8995-8.8313-4.0672-18.6474-3.302-26.4888,1.1851-1.6873-8.8755-7.4866-16.8323-16.3178-20.8995-12.8487-5.9174-27.7848-1.6154-35.6804,9.5191-3.102,8.6903-4.4025,17.9438-3.7878,27.1931l7.8116,117.5663c.6647,10.0049,12.1509,15.2948,20.1859,9.2965l94.4177-70.4851c7.8559-5.8645,14.325-13.3589,18.9803-21.9469Z" style="fill:#f953b2;"/><path d="M239.8574,709.0546l2.1371,32.1643c.6647,10.0049,12.1509,15.2948,20.1859,9.2965l25.8312-19.2836-48.1542-22.1772Z"/></g><path d="M585.1916,279.041c-2.137,3.7865-6.3623,5.4821-10.4777,3.8428-1.4314-.5702-2.8188-1.3053-4.2163-1.9525-6.3269-2.9298-12.6538-5.8596-18.9806-8.7894-6.1978-2.87-12.3955-5.74-18.5933-8.61-1.2393-.5739-2.4725-1.1645-3.7192-1.7222-4.9176-2.2-10.3143-2.3165-15.1904,.1078-12.4657,6.1978-11.9856,24.4266,.254,30.4979l3.5411-6.058c-8.4465-3.6366-18.6562-.8217-22.7638,7.8544-3.9928,8.4335-.5227,18.6085,7.8544,22.7638l3.5411-6.058c-8.4465-3.6366-18.6562-.8217-22.7638,7.8544-3.9928,8.4335-.5227,18.6085,7.8544,22.7638l3.5411-6.058c-10.0285-4.3177-22.1444,.8816-24.1899,12.1599-1.4858,8.1924,3.025,15.5628,10.3751,18.965,10.1628,4.7042,20.3343,9.39,30.4886,14.1126,18.4912,8.5999,33.2507,24.106,40.1454,43.4043,2.2373,6.2623,3.7407,12.8049,5.7235,19.1552,1.9271,6.1718,3.9989,12.2983,6.1803,18.3848,10.454,29.1683,23.206,57.6157,38.1131,84.7798,15.2668,27.8197,32.9852,55.0056,55.2874,77.7416,18.2282,18.5828,41.1322,35.416,67.826,37.8987,29.1447,2.7107,54.5611-14.6437,73.0652-35.5724,14.9672-16.9284,27.209-36.2751,35.4228-57.3416,9.3793-24.0555,13.7753-49.8301,15.6042-75.4976,3.3687-47.2791-3.127-94.6209-16.1415-140.0758-12.7513-44.5357-31.2483-87.1505-50.3609-129.2582-19.3389-42.6064-39.4674-84.9339-55.5372-128.9229-3.9168-10.7217-7.5847-21.5327-10.9552-32.4386-.5981-1.9351-2.3943-2.7927-4.3152-2.4501-17.0868,3.0479-34.1736,6.0958-51.2603,9.1437-20.1541,3.595-40.3081,7.1901-60.4622,10.7851-6.726,1.1998-5.9695,9.8435-5.8935,15.1708,.1864,13.0708,1.774,26.164,3.3766,39.1228,1.1584,9.3675,2.0889,18.9245,4.2564,28.1285,4.133,17.5504,10.6516,36.4331,24.6838,48.6012,8.2269,7.1341,18.4338,11.3032,29.3839,11.3909,6.8065,.0545,18.8353-1.2059,17.9193,9.3029-.385,4.4163-4.4996,7.3556-8.0826,9.2811-4.3105,2.3165-9.1284,3.6412-13.9426,4.4081-10.1393,1.6151-20.7726,.6203-30.7324-1.6389-4.6609-1.0573-9.2392-2.4368-13.7027-4.1454-4.2203-1.6154-6.0462,5.1648-1.8651,6.7653,18.4611,7.0666,41.6661,10.2683,60.3436,2.2966,8.7714-3.7437,17.1757-11.1885,14.4602-21.6881-2.4607-9.5141-11.2142-11.7647-19.939-11.6728-5.8763,.0619-11.4077-.115-17.0074-2.1543-4.3205-1.5735-8.406-4.099-11.8742-7.1064-7.0087-6.0774-11.9298-14.0931-15.608-22.5311-4.9213-11.2902-7.7081-23.3391-9.4482-35.482-1.8057-12.6012-3.3419-25.2912-4.3867-37.9976-.4814-5.8549-.9066-11.7467-.8226-17.6254,.0147-1.0258,.0458-2.0521,.1159-3.0757,.0334-.4885,.0768-.9756,.1277-1.4626,.0197-.1883,.1055-.6973-.0256,.1466,.0366-.2357,.0631-.4812,.1177-.7138,.0715-.305,.1558-.6208,.2116-.9279,.1397-.7697,.463-.4414-.0366-.0552,.7922-.6126-1.0175,.7467-1.1591,.6762,.7988,.3978,3.7673-.672,4.6022-.8209l11.5594-2.0619c11.8998-2.1227,23.7997-4.2454,35.6995-6.368,20.0407-3.5748,40.0814-7.1497,60.1221-10.7245l1.134-.2023-4.3152-2.4501c13.5382,43.8053,32.0073,85.847,50.9864,127.515,18.7676,41.2034,38.1337,82.2286,53.4692,124.8749,15.3201,42.6038,26.4105,86.9054,28.7256,132.2564,1.2378,24.2472,.2441,48.8037-3.74,72.7716-4.0733,24.5045-11.4617,48.6792-24.306,70.0717-9.6486,16.07-21.5661,31.4319-35.9131,43.5864-9.9391,8.4203-21.522,15.158-34.3224,18.0045-23.4092,5.2056-46.574-4.8257-65.0643-19.3228-23.3294-18.2911-41.5571-42.7594-57.1779-67.7112-16.571-26.4697-30.569-54.6194-42.3918-83.5096-5.1033-12.4704-9.8123-25.1106-13.9577-37.9327-1.7499-5.4125-3.3906-10.8594-4.8935-16.3457-2.7295-9.9637-7.0163-19.4457-13.1282-27.804-6.2463-8.542-13.9793-15.8626-22.9271-21.5285-4.7471-3.006-9.8335-5.2949-14.9161-7.6476l-18.6636-8.639c-3.9357-1.8218-9.552-3.4767-11.9754-7.3076-5.1013-8.0644,3.4932-18.4568,12.3733-14.6335,4.0435,1.7409,7.6621-4.0138,3.5411-6.058-4.8858-2.4236-7.5538-7.9141-5.3374-13.1648,2.111-5.0009,8.1619-7.4913,13.1648-5.3374,4.0435,1.7409,7.6621-4.0138,3.5411-6.058-4.8858-2.4236-7.5538-7.9141-5.3374-13.1648,2.111-5.0009,8.1619-7.4913,13.1648-5.3374,4.0435,1.7409,7.6621-4.0138,3.5411-6.058-4.4831-2.2238-7.139-6.9409-5.745-11.9365,1.2764-4.5743,5.7228-7.7018,10.4679-7.318,3.8106,.3083,7.7842,2.9193,11.161,4.483,11.8574,5.4908,23.7148,10.9817,35.5722,16.4725,2.0481,.9484,4.051,1.9284,6.3126,2.2771,6.3765,.9832,12.5227-2.1738,15.6718-7.7535,2.2221-3.9372-3.8364-7.4774-6.058-3.5411h0Z"/><path d="M554.5283,303.4464c-4.444-2.0688-8.888-4.1376-13.3319-6.2065-7.043-3.2788-14.086-6.5575-21.1291-9.8363-1.6294-.7585-3.2588-1.5171-4.8882-2.2756-1.7165-.7991-3.7809-.483-4.7995,1.2585-.8878,1.5179-.4669,3.9963,1.2585,4.7995,4.444,2.0688,8.888,4.1376,13.3319,6.2065,7.043,3.2788,14.086,6.5575,21.1291,9.8363,1.6294,.7585,3.2588,1.5171,4.8882,2.2756,1.7165,.7991,3.7809,.483,4.7995-1.2585,.8878-1.5179,.4669-3.9963-1.2585-4.7995h0Z"/><path d="M543.3295,328.177c-4.444-2.0688-8.888-4.1376-13.3319-6.2065-7.043-3.2788-14.086-6.5575-21.1291-9.8363-1.6294-.7585-3.2588-1.5171-4.8882-2.2756-1.7165-.7991-3.7809-.483-4.7995,1.2585-.8878,1.5179-.4669,3.9963,1.2585,4.7995,4.444,2.0688,8.888,4.1376,13.3319,6.2065,7.043,3.2788,14.086,6.5575,21.1291,9.8363,1.6294,.7585,3.2588,1.5171,4.8882,2.2756,1.7165,.7991,3.7809,.483,4.7995-1.2585,.8878-1.5179,.4669-3.9963-1.2585-4.7995h0Z"/><path d="M532.1308,352.9077c-4.444-2.0688-8.888-4.1376-13.3319-6.2065-7.043-3.2788-14.086-6.5575-21.1291-9.8363-1.6294-.7585-3.2588-1.5171-4.8882-2.2756-1.7165-.7991-3.7809-.483-4.7995,1.2585-.8878,1.5179-.4669,3.9963,1.2585,4.7995,4.444,2.0688,8.888,4.1376,13.3319,6.2065,7.043,3.2788,14.086,6.5575,21.1291,9.8363,1.6294,.7585,3.2588,1.5171,4.8882,2.2756,1.7165,.7991,3.7809,.483,4.7995-1.2585,.8878-1.5179,.4669-3.9963-1.2585-4.7995h0Z"/><path d="M310.3549,332.9766c5.2543,8.1716,13.6708,13.1189,23.3198,13.9433,3.0653,.2619,6.1369,.465,9.2046,.6975,12.6697,.96,25.3394,1.9201,38.0091,2.8801,4.671,.3539,9.342,.7079,14.0131,1.0618,4.437,.3362,8.6332,1.3926,10.7917,5.84,3.5056,7.2229-2.508,14.6722-10.0422,14.342-3.9132-.1715-7.825-.4652-11.7349-.6977-11.3656-.6758-22.7313-1.3515-34.0969-2.0273-1.7216-.1024-3.2514,1.412-3.4453,3.0417-.2219,1.8651,.8484,3.1668,2.5127,3.8489,7.4617,3.0581,14.9235,6.1161,22.3852,9.1742l13.1004,5.369c.8934,.3661,1.8043,.7055,2.6855,1.1006,1.8615,.8346,4.6103,3.2918,5.5885,6.1193,1.3269,3.8351,.1472,8.1483-2.9391,10.7871-3.064,2.6198-7.0563,2.9121-10.715,1.5068-3.6747-1.4114-6.3477,4.8214-2.7031,6.4116,5.1584,2.2508,8.1646,7.789,5.9414,13.2668-2.2183,5.4658-8.2459,7.3809-13.5014,5.3637-3.6749-1.4105-6.3481,4.8222-2.7031,6.4116,6.542,2.8527,9.155,11.2881,3.6641,16.6122-3.6147,3.5049-8.3336,3.2021-12.6506,1.4341-8.7282-3.5746-17.4563-7.1492-26.1845-10.7238-8.0499-3.2968-16.2962-7.6368-25.1529-7.8907-15.3293-.4393-29.5816,9.8432-34.1088,24.4606-2.4034,7.76-1.7877,16.4773-.7098,24.4186,1.0358,7.6306,3.1278,14.9717,6.2098,22.0259,5.9612,13.6441,15.8073,25.3041,27.0348,34.9403,11.8293,10.1527,25.1523,18.4049,38.7862,25.8884,16.1832,8.8827,32.7766,17.0066,49.9036,23.9108,38.4574,15.5027,79.3143,24.9823,120.6664,28.0325,39.7263,2.9303,81.1271,.5852,118.792-13.291,34.857-12.8417,66.0629-36.3212,83.7494-69.5114,4.5694-8.5749,8.3944-17.7415,10.1923-27.3225,1.8648-9.9375,1.6718-19.9823-.0323-29.9256-1.698-9.9078-4.8751-19.4944-8.4152-28.8786-3.6899-9.7812-7.6357-19.4814-11.5811-29.1621-15.9167-39.0541-34.7424-77.1528-57.1199-112.929-7.7019-12.3134-15.997-24.0527-26.3045-34.3625-12.6999-12.7028-27.6225-23.2634-43.8559-30.955-5.1969-2.4623-10.547-4.5556-15.8865-6.6811-1.7608-.7009-3.8525,.7664-4.3152,2.4501-.5486,1.9965,.6828,3.6117,2.4501,4.3152,13.6307,5.4259,26.6044,11.7393,38.5437,20.3615,14.1195,10.1967,26.48,22.9706,36.2475,37.3858,8.6697,12.795,16.4265,26.2811,23.9316,39.7769,10.2616,18.4525,19.728,37.3462,28.4145,56.5898,8.4883,18.8044,16.4164,37.9765,23.554,57.3361,6.7108,18.2022,11.4834,37.4872,6.7429,56.7888-4.3277,17.6208-14.6839,34.0504-26.7476,47.4045-12.0429,13.331-26.5166,24.1069-42.4937,32.2741-34.8671,17.8234-74.9,22.9571-113.6324,22.3229-40.5805-.6644-80.9585-7.8004-119.4026-20.7807-19.0305-6.4255-37.4746-14.3415-55.3342-23.5231-13.5114-6.9462-26.932-14.1973-39.4193-22.8851-11.8025-8.2113-22.9568-17.9307-31.0832-29.8943-8.3907-12.3526-13.0153-26.6371-13.3921-41.5735-.1894-7.5066,.8011-14.5319,5.3601-20.728,3.9443-5.3607,9.8518-9.1008,16.3093-10.5987,9.3287-2.1638,17.4428,1.7367,25.8076,5.1625,9.3231,3.8182,18.6461,7.6364,27.9692,11.4547,3.2626,1.3362,6.3395,2.7127,9.9745,2.7293,7.9232,.0362,15.2415-5.5889,16.8227-13.4352,1.5679-7.7802-2.4316-15.8849-9.7631-19.0819-.901,2.1372-1.8021,4.2744-2.7031,6.4116,8.5344,3.2756,18.3029-1.015,21.791-9.4206,3.4806-8.3875-.4765-18.3906-8.8248-22.0332-.901,2.1372-1.8021,4.2744-2.7031,6.4116,9.0741,3.4852,19.3331-1.6045,22.3158-10.7867,2.8547-8.7881-2.3264-17.7545-10.5199-21.157-9.1142-3.7849-18.2644-7.4854-27.3961-11.2278-3.5917-1.472-7.1833-2.944-10.775-4.4159l-.9326,6.8906c10.2803,.6112,20.5606,1.2224,30.8409,1.8337,4.7614,.2831,9.5229,.5662,14.2843,.8493,7.9749,.4742,15.2853-3.9665,17.9034-11.6642,3.5398-10.4078-4.1425-21.1827-14.7739-22.2634-2.6842-.2728-5.3881-.4122-8.0779-.616-13.0274-.9871-26.0547-1.9743-39.0821-2.9614l-15.6676-1.1872c-7.7193-.5849-14.5465-3.9207-18.8333-10.5876-2.4341-3.7856-8.5096-.2717-6.058,3.5411h0Z"/><path d="M332.0493,427.4452c11.3412,4.6619,22.6823,9.3237,34.0235,13.9856,1.5775,.6484,3.155,1.2969,4.7326,1.9453,1.7531,.7206,3.8565-.7808,4.3152-2.4501,.5531-2.013-.6905-3.5919-2.4501-4.3152-11.3412-4.6619-22.6823-9.3237-34.0235-13.9856-1.5775-.6484-3.155-1.2969-4.7326-1.9453-1.7531-.7206-3.8565,.7808-4.3152,2.4501-.5531,2.013,.6905,3.5919,2.4501,4.3152h0Z"/><path d="M342.3148,402.248c11.3412,4.6619,22.6823,9.3237,34.0235,13.9856,1.5775,.6484,3.155,1.2969,4.7326,1.9453,1.7531,.7206,3.8565-.7808,4.3152-2.4501,.5531-2.013-.6905-3.5919-2.4501-4.3152-11.3412-4.6619-22.6823-9.3237-34.0235-13.9856-1.5775-.6484-3.155-1.2969-4.7326-1.9453-1.7531-.7206-3.8565,.7808-4.3152,2.4501-.5531,2.013,.6905,3.5919,2.4501,4.3152h0Z"/><g><path d="M657.3516,147.1953c-2.6397,7.9225-14.2458,.0723-7.8276-5.6811,4.3816-3.9278,9.5004,.6442,7.8276,5.6811Z"/><path d="M655.0965,146.5736c-.0579,.1704-.1206,.3385-.189,.505l.2358-.5587c-.1288,.3023-.2752,.5963-.4505,.8745-.1383,.2194-.5139,.5881,.0627-.0436-.0961,.1053-.1816,.2197-.2805,.3229-.095,.0992-.1958,.1907-.2979,.2823-.3361,.3014,.575-.4015,.1061-.0862-.2114,.1422-.4363,.2604-.6707,.3595l.5587-.2358c-.3271,.1321-.6657,.2198-1.0152,.2668l.6217-.0835c-.3934,.047-.7868,.0415-1.1797-.0086l.6217,.0835c-.4877-.0684-.9591-.2029-1.4136-.3918l.5587,.2358c-.3409-.1461-.6689-.3191-.9796-.5217-.0734-.0479-.1459-.0973-.2174-.1481-.0357-.0254-.0705-.0523-.1064-.0774-.2674-.187,.4516,.3657,.291,.2249-.1404-.123-.2855-.2387-.4206-.368-.1263-.1209-.2476-.2471-.3631-.3783-.0648-.0736-.1245-.1514-.1887-.2253-.1529-.1762,.3762,.512,.2466,.3185-.024-.0359-.0513-.0699-.0763-.1052-.2177-.3075-.4016-.636-.5514-.9817l.2358,.5587c-.1566-.3751-.2671-.7632-.3252-1.1656l.0835,.6217c-.0474-.367-.0493-.7339-.0049-1.1012l-.0835,.6217c.0535-.3896,.1577-.765,.3073-1.1285l-.2358,.5587c.1196-.2781,.2613-.5449,.4269-.7985,.1314-.2014,.5334-.632-.0299,.0112,.1143-.1305,.2224-.2656,.3414-.3922,.126-.134,.2573-.263,.3927-.3874,.0855-.0785,.1751-.1521,.2615-.2295,.3097-.2773-.4501,.3105-.0892,.0663,.3726-.2521,.7455-.4788,1.1604-.6562l-.5587,.2358c.3721-.1502,.7524-.2578,1.1493-.3181l-.6217,.0835c.4004-.052,.7977-.0529,1.1981,.0001l-.6217-.0835c.3556,.0549,.6972,.1495,1.0307,.2844l-.5587-.2358c.2733,.1171,.5351,.2556,.7818,.4219,.429,.2893-.4424-.3793-.0456-.04,.1145,.0979,.2244,.2013,.3294,.3094,.0863,.0889,.1966,.29,.3025,.3415-.0114-.0055-.3642-.4996-.1979-.254,.0433,.064,.0889,.1262,.1313,.1907,.1814,.2762,.3333,.5681,.4636,.8716l-.2358-.5587c.1863,.4557,.3124,.9247,.3827,1.4119l-.0835-.6217c.0655,.5183,.0645,1.0336,.0018,1.5522l.0835-.6217c-.0564,.4062-.1485,.8013-.2744,1.1915-.3757,1.1648,.4386,2.6047,1.6334,2.8768,1.2807,.2917,2.4745-.3862,2.8768-1.6334,1.1011-3.4134-.1656-7.6699-3.5063-9.3469-1.6571-.8319-3.61-1.0419-5.366-.371-1.7976,.6868-3.3178,1.9283-4.3703,3.5405-1.4535,2.2266-1.4139,5.194,.0553,7.4026,1.4397,2.1642,3.7184,3.5583,6.3033,3.8185,1.3108,.1319,2.7585-.1983,3.8671-.9165,1.5084-.9772,2.4462-2.4483,3.0168-4.1272,.394-1.1594-.4518-2.6077-1.6334-2.8768-1.2968-.2954-2.4549,.3921-2.8768,1.6334Z"/></g><g><path d="M625.5553,158.8132c-2.6397,7.9225-14.2458,.0723-7.8276-5.6811,4.3816-3.9278,9.5004,.6442,7.8276,5.6811Z"/><path d="M623.3002,158.1915c-.0579,.1704-.1206,.3385-.189,.505l.2358-.5587c-.1288,.3023-.2752,.5963-.4505,.8745-.1383,.2194-.5139,.5881,.0627-.0436-.0961,.1053-.1816,.2197-.2805,.3229-.095,.0992-.1958,.1907-.2979,.2823-.3361,.3014,.575-.4015,.1061-.0862-.2114,.1422-.4363,.2604-.6707,.3595l.5587-.2358c-.3271,.1321-.6657,.2198-1.0152,.2668l.6217-.0835c-.3934,.047-.7868,.0415-1.1797-.0086l.6217,.0835c-.4877-.0684-.9591-.2029-1.4136-.3918l.5587,.2358c-.3409-.1461-.6689-.3191-.9796-.5217-.0734-.0479-.1459-.0973-.2174-.1481-.0357-.0254-.0705-.0523-.1064-.0774-.2674-.187,.4516,.3657,.291,.2249-.1404-.123-.2855-.2387-.4206-.368-.1263-.1209-.2476-.2471-.3631-.3783-.0648-.0736-.1245-.1514-.1887-.2253-.1529-.1762,.3762,.512,.2466,.3185-.024-.0359-.0513-.0699-.0763-.1052-.2177-.3075-.4016-.636-.5514-.9817l.2358,.5587c-.1566-.3751-.2671-.7632-.3252-1.1656l.0835,.6217c-.0474-.367-.0493-.7339-.0049-1.1012l-.0835,.6217c.0535-.3896,.1577-.765,.3073-1.1285l-.2358,.5587c.1196-.2781,.2613-.5449,.4269-.7985,.1314-.2014,.5334-.632-.0299,.0112,.1143-.1305,.2224-.2656,.3414-.3922,.126-.134,.2573-.263,.3927-.3874,.0855-.0785,.1751-.1521,.2615-.2295,.3097-.2773-.4501,.3105-.0892,.0663,.3726-.2521,.7455-.4788,1.1604-.6562l-.5587,.2358c.3721-.1502,.7524-.2578,1.1493-.3181l-.6217,.0835c.4004-.052,.7977-.0529,1.1981,.0001l-.6217-.0835c.3556,.0549,.6972,.1495,1.0307,.2844l-.5587-.2358c.2733,.1171,.5351,.2556,.7818,.4219,.429,.2893-.4424-.3793-.0456-.04,.1145,.0979,.2244,.2013,.3294,.3094,.0863,.0889,.1966,.29,.3025,.3415-.0114-.0055-.3642-.4996-.1979-.254,.0433,.064,.0889,.1262,.1313,.1907,.1814,.2762,.3333,.5681,.4636,.8716l-.2358-.5587c.1863,.4557,.3124,.9247,.3827,1.4119l-.0835-.6217c.0655,.5183,.0645,1.0336,.0018,1.5522l.0835-.6217c-.0564,.4062-.1485,.8013-.2744,1.1915-.3757,1.1648,.4386,2.6047,1.6334,2.8768,1.2807,.2917,2.4745-.3862,2.8768-1.6334,1.1011-3.4134-.1656-7.6699-3.5063-9.3469-1.6571-.8319-3.61-1.0419-5.366-.371-1.7976,.6868-3.3178,1.9283-4.3703,3.5405-1.4535,2.2266-1.4139,5.194,.0553,7.4026,1.4397,2.1642,3.7184,3.5583,6.3033,3.8185,1.3108,.1319,2.7585-.1983,3.8671-.9165,1.5084-.9772,2.4462-2.4483,3.0168-4.1272,.394-1.1594-.4518-2.6077-1.6334-2.8768-1.2968-.2954-2.4549,.3921-2.8768,1.6334Z"/></g><path d="M633.4082,151.5816c1.6906,.7201,2.5357,1.6168,2.2584,3.5338-.2632,1.8198-1.1867,3.5015-2.0984,5.0669-2.073,3.5591-5.1659,7.5629-4.3714,11.9391,.3692,2.0333,1.8261,3.953,3.8497,4.5628,2.1211,.6392,4.4113-.1259,6.3845-.9148,3.8051-1.5212,7.1992-3.9332,9.7964-7.1137,.7982-.9775,.9563-2.3511,0-3.3073-.8241-.8241-2.5044-.9832-3.3073,0-2.2421,2.7456-5.1148,4.9766-8.4684,6.1933-.9396,.3409-2.9331,1.3715-3.5395,.1174-.6782-1.4027,.3891-3.3403,1.0312-4.5749,1.7002-3.269,4.0533-6.218,5.0278-9.8314,1.0962-4.0644-.1799-7.9967-4.2024-9.71-1.161-.4945-2.5059-.3471-3.1997,.839-.5748,.9827-.3295,2.702,.839,3.1997h0Z"/><path d="M360.4641,701.8082c18.6457,23.2281,46.4974,38.0179,73.4817,49.354,34.8453,14.6385,71.765,24.1724,108.7856,31.4292,39.361,7.7156,79.2754,12.7515,119.2728,15.653,34.3729,2.4935,68.9906,3.5641,103.4256,1.7353,19.7967-1.0514,44.4417-2.4407,56.6316-20.7023,5.811-8.7055,6.7961-20.5146,.0551-28.9897-6.028-7.5787-16.0371-10.0019-25.2584-10.6885-12.8331-.9555-26.0114,.941-38.797,1.9153-15.3338,1.1686-30.6601,2.4331-45.9817,3.7503-30.0789,2.5859-60.1399,5.3743-90.2118,8.0384-60.3491,5.3466-120.7454,10.0324-181.3152,11.9024-58.8739,1.8176-117.9935,2.2303-176.6174-4.2969-29.2171-3.253-57.8527-8.7509-86.4371-15.5169-16.8869-3.9972-37.1897-7.1243-53.248,1.3588-18.4821,9.7636-22.4442,35.2547-8.8196,50.8385,2.8923,3.3082,6.845,6.201,11.3028,3.9509,3.5429-1.7882,5.4332-6.1161,5.0426-9.958-1.0569-10.3946-14.4512-10.417-21.9863-8.4757-14.596,3.7606-25.7737,14.9986-33.9285,27.1705-9.6421,14.3917-15.973,31.0276-20.5988,47.6393-4.4929,16.1343-7.4501,32.8253-8.5163,49.5469-.9907,15.5368-2.1706,39.82,17.8038,43.0292,11.8093,1.8974,24.6332-2.9332,35.8477-6.0102,13.7341-3.7683,27.4161-7.8196,41.406-10.5549,29.4933-5.7666,59.4038-3.0486,88.826,1.7568,58.159,9.4989,115.9335,21.0051,174.314,29.1993,57.7468,8.1053,115.9676,13.7856,174.332,13.6214,57.0799-.1606,114.4348-5.9445,169.7798-20.262,46.9132-12.1362,92.9991-31.1588,131.0849-61.6271,30.376-24.3005,53.9146-55.4703,65.3916-92.8339,9.3852-30.5537,11.2077-64.2748,2.4348-95.1946-8.439-29.7428-27.5071-55.9-55.4021-70.011-15.3372-7.7585-32.1727-11.6219-49.2539-12.8144-4.506-.3146-4.4864,6.7027,0,7.0159,31.2776,2.1836,61.2578,15.149,80.1751,40.874,17.5248,23.8315,24.056,54.0229,22.987,83.2101-1.1315,30.8942-10.6539,61.6834-27.4568,87.655-23.7357,36.6874-61.2279,63.3057-100.2641,81.6656-45.4133,21.3592-95.3796,32.9454-144.9612,39.3639-54.1637,7.0117-109.0171,7.2748-163.4501,3.6194-55.3673-3.7182-110.3728-11.4654-165.0896-20.5378-27.5089-4.5612-54.9597-9.4628-82.4057-14.3859-27.0691-4.8555-54.3056-10.1856-81.8916-10.6602-27.3874-.4712-53.1197,6.0263-79.3067,13.2762-6.4822,1.7946-12.9742,3.5628-19.5177,5.122-5.238,1.2481-10.766,2.4714-16.1698,1.6551-11.1382-1.6825-12.2383-13.1431-12.4986-22.4118-.4031-14.3545,1.4046-28.8183,4.1727-42.8782,3.2327-16.4203,7.9242-32.7798,15.0409-47.9617,6.2153-13.2589,14.5365-26.9358,27.0456-35.1264,5.5099-3.6077,12.8899-6.9693,19.646-6.2519,2.1879,.2323,5.6124,1.2389,5.4662,3.9784-.1922,3.6029-2.6437,1.6281-4.026,.1003-3.6384-4.0213-5.8631-9.3493-6.4515-14.7253-1.0674-9.7532,3.3065-19.4316,11.7322-24.5816,7.4134-4.5312,16.4604-5.436,24.9706-5.1951,8.6078,.2437,17.1209,1.7719,25.4745,3.7907,13.0953,3.1646,26.2012,6.1548,39.4582,8.5762,54.4644,9.9482,109.9427,12.6513,165.22,12.4179,56.7332-.2396,113.4353-2.9116,170.0007-7.1753,56.7969-4.2812,113.4793-9.9162,170.2333-14.7082,14.1882-1.198,28.381-2.3434,42.5804-3.4017,11.5648-.8619,23.5561-2.6007,35.1476-1.2526,9.3319,1.0854,20.0905,5.4338,20.68,16.2809,.6589,12.1234-10.2895,20.9242-20.6014,24.7516-15.8579,5.8859-34.4821,5.3628-51.2431,5.7632-15.9738,.3816-31.9601,.2123-47.9278-.3423-36.7374-1.276-73.4463-4.5189-109.833-9.7438-36.9788-5.3099-73.81-12.5724-109.6295-23.2732-30.5631-9.1305-61.2881-20.6681-87.799-38.7316-10.195-6.9464-19.6517-15.0427-27.3929-24.6863-2.8263-3.5209-7.7623,1.4712-4.961,4.961h0Z"/><path d="M432.7479,169.6606c4.5938,2.1139,9.1875,4.2279,13.7813,6.3418,11.0273,5.0745,22.0546,10.149,33.0818,15.2235,13.2932,6.1172,26.5865,12.2345,39.8797,18.3517,11.4867,5.2859,22.9735,10.5719,34.4602,15.8578,5.5836,2.5694,11.1523,5.1743,16.7519,7.7088,.0792,.0358,.1579,.0727,.2369,.109,1.7199,.7915,3.778,.4881,4.7995-1.2585,.8844-1.5121,.4707-4.0038-1.2585-4.7995-4.5938-2.1139-9.1875-4.2279-13.7813-6.3418-11.0273-5.0745-22.0546-10.149-33.0818-15.2235-13.2932-6.1172-26.5865-12.2345-39.8797-18.3517-11.4867-5.2859-22.9735-10.5719-34.4602-15.8578-5.5836-2.5694-11.1523-5.1743-16.7519-7.7088-.0792-.0358-.1579-.0727-.2369-.109-1.7199-.7915-3.778-.4881-4.7995,1.2585-.8844,1.5121-.4707,4.0038,1.2585,4.7995h0Z" style="fill:#fff;"/><g><path d="M657.0929,219.2179c13.4523-1.2229,30.4386-5.5756,39.7541-14.5864,.7094-.6862,2.2055-1.1895,2.3789-.2178,.0561,.3147-.2522,.5768-.2769,.8955-.8877,11.4628-15.0428,26.9612-21.0662,32.8642,0,0-1.2229-18.9555-6.1147-18.9555h-14.6752Z"/><path d="M657.0929,222.7258c7.8934-.7318,15.7768-2.2004,23.2749-4.8099,3.7706-1.3122,7.49-2.891,10.9559-4.8814,1.5421-.8856,3.0285-1.8616,4.4463-2.9351,.8767-.6639,1.7428-1.3432,2.5669-2.072,.3345-.2958,.6445-.635,.9906-.9156-.3454,.2477-.3443,.2657,.0032,.0541-.8229,.493-1.7109,.3259-2.6638-.5013-.3007-.516-.6014-1.032-.9021-1.5479l.0785,.2294v-1.8651c.3272-.5051,.2666-.3079-.1816,.5916-.1431,.3967-.2166,.8088-.2205,1.2364-.0142,.1833-.0316,.3662-.0522,.5488,.0683-.471,.0718-.5039,.0105-.0986-.1435,.7674-.2977,1.5264-.5079,2.2791-.2214,.7925-.4838,1.5734-.7754,2.3427-.0446,.1176-.5393,1.308-.2523,.6492-.1753,.4024-.357,.8018-.5453,1.1983-1.5726,3.3111-3.5551,6.4218-5.6924,9.3939-3.3518,4.6612-7.7351,9.6618-12.2237,14.0703,1.9961,.8268,3.9923,1.6537,5.9884,2.4805-.2869-4.3976-.8619-8.8753-1.9567-13.1461-.6757-2.6361-1.6054-5.5915-3.5952-7.5528-2.5202-2.484-6.4367-1.7646-9.6628-1.7646h-9.0832c-1.8957,0-3.5079,1.6123-3.5079,3.5079,0,1.9025,1.6054,3.5079,3.5079,3.5079h12.1473c.7573,0,1.5182,.0217,2.2751,0,.982-.0282-.6208-.1813-.1948-.0614,.4536,.1276-.5313-.2452-.4905-.2253,.1142,.0557,.2307,.1184,.3338,.1931-.3849-.279-.6275-.4886-.1834-.0928,.5532,.4931-.2644-.4686-.0581-.102,.2514,.4468,.5161,.8783,.7536,1.3346,.3782,.7265-.1942-.5806,.0065-.0033,.0938,.2697,.2041,.534,.298,.804,.226,.6493,.4212,1.3094,.5983,1.9736,.3451,1.2939,.6192,2.6063,.8553,3.9241,.1128,.6297,.2162,1.261,.3121,1.8934,.0461,.3041,.0892,.6085,.1329,.9129,.1143,.7965-.0815-.6821,.0338,.2652,.1873,1.5396,.3611,3.0832,.4622,4.6313,.194,2.973,3.7251,4.7035,5.9884,2.4805,3.5559-3.4925,6.9033-7.2115,10-11.1167,3.9837-5.0235,7.6377-10.3043,10.1025-16.2513,.4962-1.1973,.9366-2.4177,1.2696-3.6711,.1622-.6103,.2996-1.2273,.4053-1.8499,.0656-.3866,.1161-.7753,.1679-1.164,.0288-.2164,.0907-.508,.0961-.7429,.0191-.8309-.088,.652-.1912,.6274,.4151,.0992,.4512-2.5878,.4576-2.538-.0907-.7081-.3494-1.3078-.769-1.8886-.7525-1.0415-1.993-1.6816-3.2887-1.6901-2.0684-.0135-3.5369,1.1631-4.9849,2.4721-.5069,.4582-1.0301,.8974-1.5636,1.3241,.3908-.3127-.4183,.3115-.5352,.3965-.3322,.2411-.6681,.477-1.0078,.7074-1.2941,.8777-2.6397,1.6791-4.0183,2.4166-2.9596,1.5832-5.2258,2.5166-8.3658,3.5913-3.5418,1.2122-7.1704,2.1666-10.8371,2.9169-1.7914,.3666-3.593,.6839-5.4016,.953-.1833,.0273-.3668,.0539-.5503,.0802-.0617,.0088-.7293,.1014-.4458,.0634,.3352-.0449-.2586,.0326-.2595,.0327-.3,.0367-.5998,.0746-.8999,.11-.8824,.104-1.7661,.195-2.6507,.2771-1.8864,.1749-3.5079,1.4871-3.5079,3.5079,0,1.7618,1.6103,3.6839,3.5079,3.5079Z"/></g><path d="M659.668,180.5796c1.7969-1.3784,3.6185-2.7744,5.1066-4.4952,.7032-.8132,1.3818-1.6871,1.8718-2.6484,.2813-.5518,.4785-1.1449,.7729-1.6896,.0138-.0255,.1818-.3097,.1841-.3079,.0761,.0597-.4558,.4163-.0655,.1132,.2478-.1924-.4099,.1173-.0785,.0647,.0383-.0061,.1503-.0726,.1808-.0968,.1605-.1271-.3761,.0863-.137,.0673,.1909-.0152,.42-.1093,.6118-.1523,.3984-.0894-.1992,.0003,.2681-.0297,.2359-.0151,.4702-.0306,.7066-.0349,.3614-.0067,.0875-.0358-.1361-.1414-.2837-.1339,.1263,.0421,.0616,.0748-.2989,.1511,.1437-.5632-.0458,.0276-.0061,.0189-.1288-.3809-.0622-.0757,.022,.1007,.0447,.2063,.0719,.3057-.1032-.3769-.0047,.0245,.0014,.2094,.0098,.2971,.0017,.5954-.016,.892-.0076,.1264-.0175,.2525-.0287,.3786,.0006-.0071-.0527,.4007-.0205,.1897,.0324-.2117-.0387,.1948-.037,.1867-.0334,.1646-.0649,.3293-.1025,.493-.1227,.534-.2805,1.0594-.4649,1.5752-.0428,.1198-.0883,.2385-.1323,.3579-.0184,.0498-.1458,.3652-.0554,.1506-.1331,.3158-.283,.6259-.4353,.9327-.2694,.5427-.5609,1.0744-.8662,1.5977-.6552,1.1232-1.3761,2.206-2.1026,3.2839-.9312,1.3816,.1039,2.9087,1.3976,3.4354,2.5467,1.0369,5.5399,1.0653,8.1173,.116,1.1447-.4216,2.0451-1.6046,1.6334-2.8768-.3633-1.1227-1.6477-2.0861-2.8768-1.6334-.4941,.182-.9891,.3163-1.5024,.4317-.4487,.1009,.0141,.0329-.4115,.0586-.3046,.0184-.6072,.0333-.9125,.0281-.2608-.0044-.5219-.0168-.7812-.0458-.1649-.0162-.1731-.0173-.0246-.0036-.1287-.0215-.2567-.0467-.3839-.0754-.5555-.1201-1.0885-.2956-1.6144-.5098,.4659,1.1451,.9318,2.2903,1.3976,3.4354,1.5185-2.253,2.9519-4.5355,3.9309-7.0822,.9426-2.4521,1.4918-5.5501,.359-8.0228-1.2985-2.8346-5.1806-2.816-7.6373-1.6431-1.6717,.7981-2.0846,2.3127-2.8823,3.8072-.142,.2661-.299,.523-.4668,.7737-.0662,.099-.1348,.1961-.203,.2937-.432,.6177,.1249-.1388-.1531,.1988-.4512,.5478-.9414,1.0624-1.4533,1.5536-.4879,.4682-.9962,.915-1.5151,1.3483-.2859,.2388-.5756,.4731-.8674,.7047-.0953,.0757-.191,.1509-.2867,.2262-.6173,.4858,.3311-.2518-.2756,.2137-1.0005,.7675-1.5333,2.0126-.839,3.1997,.576,.9848,2.1913,1.6125,3.1997,.839h0Z"/><g><path d="M715.629,145.4609c.9757-2.5339,1.2956-5.3899,1.1539-8.1183-.3411-6.5668-3.1808-13.1509-8.3493-17.2162-7.004-5.5089-19.1779-5.4063-22.9886,3.975-.5501,1.3543-.6037,2.8533-.5973,4.315,.0248,5.7205,.859,11.4369,2.4699,16.926,.503,1.7137,.9919,3.8203-.2768,5.0775-1.0649,1.0552-2.9192,.8614-4.1319-.02s-1.9373-2.2667-2.6197-3.6015c-4.1954-8.207-7.5988-16.674-14.1593-23.2461-1.4163-1.4188-3.0427-2.7315-4.9826-3.2368-1.595-.4155-3.2784-.2535-4.9127-.0398-19.3296,2.5267-37.4671,11.8287-56.9339,12.8581-2.3306-9.1532-4.7946-16.9525-8.2222-25.7626-3.7229-9.5689-6.2153-19.6172-7.3763-29.8196-.9136-8.0281-.6154-17.1726,5.2013-22.7808,5.3608-5.1686,14.1869-5.5274,20.8279-2.1585,6.641,3.3689,11.2888,9.8008,14.1718,16.6667-3.7091,1.0014-7.6099-1.8582-9.0067-5.4372-1.3968-3.579-.8778-7.6016-.0556-11.3545,1.0885-4.9685,2.7159-9.9139,5.6786-14.0482,6.1398-8.5678,18.0947-12.4471,28.0954-9.1167,10.0006,3.3303,17.2429,13.6026,17.0201,24.1408-5.6605-4.8684-2.8183-14.3536,2.0746-19.993,6.3726-7.3448,18.4917-11.9233,25.5051-5.1874,3.3775,3.244,4.6477,8.2856,6.4555,12.4433,2.2775,5.2381,3.7797,10.5179,3.7706,16.2815-1.7151-2.4146-1.8867-5.8312-.4221-8.4054,1.4646-2.5743,4.4891-4.1725,7.4411-3.9319,3.5688,.2908,6.4937,2.9616,8.6061,5.8528,3.6519,4.9985,5.7269,10.955,7.5317,16.8765,4.9415,16.2128,8.2264,32.871,11.0015,49.5742,2.56,15.4088,5.8676,30.2677,5.1809,45.9483-.0366,.8351-.0908,1.707-.5153,2.4271-1.1371,1.929-3.9921,1.6279-6.1219,.9365-9.1944-2.9844-17.5192-8.5975-23.733-16.0023,1.4652-1.3258,2.5138-2.9899,3.2195-4.8225Z"/><path d="M719.0117,146.3935c2.3984-6.4981,1.3611-14.0157-1.4826-20.1922-2.4901-5.4086-6.8937-9.7266-12.4395-11.8936-4.8124-1.8804-10.3343-1.8733-15.0624,.2271-2.3891,1.0613-4.3726,2.7687-5.9305,4.8507-1.9939,2.6647-2.7629,5.7264-2.7571,9.031,.007,3.9618,.4301,7.9408,1.1554,11.8336,.3202,1.7184,.7126,3.4232,1.1785,5.108,.1826,.6604,.3922,1.3146,.5474,1.9824,.0079,.0339,.1346,1.1755,.1063,.5316,.0154,.2371,.014,.4741-.0042,.711-.0275-.1741,.008-.3338,.1064-.4789,.124-.2284,.3726-.2563,.5131-.4313l.2598-.0429c-.3859-.0103-.4603-.0142-.2232-.0115,.0127-.1412,.8356,.4905-.0094-.0566,.4729,.3062-.3778-.3588-.4056-.3893,.3656,.4011-.3465-.502-.339-.49-.2008-.3203-.3825-.6523-.5604-.9857-.3851-.7214-.7477-1.4553-1.1132-2.1867-1.4473-2.8953-2.8323-5.8221-4.3347-8.6897-3.0826-5.8834-6.9038-12.2624-12.4471-16.1429-3.3392-2.3376-7.0524-2.2581-10.9137-1.725-3.4161,.4716-6.7994,1.1405-10.1537,1.938-15.1054,3.5912-29.8946,9.8644-45.4018,10.7353,1.1275,.8585,2.2551,1.7169,3.3826,2.5754-2.2158-8.6723-4.9058-17.1902-8.1355-25.539-3.2875-8.4983-5.6664-17.3203-6.9823-26.3406-.5264-3.6085-.8719-7.3249-.7055-10.9979,.0928-2.0484,.179-2.9213,.6739-4.9285,.2025-.8212,.4699-1.6133,.7373-2.4144-.0008,.0024,.2085-.5462,.0869-.2453-.1371,.3391,.1496-.3322,.1801-.3973,.2015-.429,.4193-.8497,.6548-1.261,.8695-1.5188,1.5093-2.3063,2.9929-3.5425-.3296,.2746,.4352-.3077,.5763-.4004,.3448-.2267,.6986-.4397,1.0609-.6373,.2071-.1129,.4208-.2119,.6281-.3239,.0011-.0006,.5259-.2491,.225-.115-.3385,.1509,.3314-.1294,.4009-.1551,.2772-.1026,.5568-.1984,.8391-.2862,.7956-.2474,1.6076-.4289,2.4285-.5687-.524,.0892,.3363-.0368,.4928-.0501,.5395-.0458,1.0809-.068,1.6222-.0692,.4227-.0009,.8454,.0106,1.2673,.0364,.1812,.0111,.3621,.0252,.543,.041,.0769,.0067,.8204,.0875,.4364,.0387,.363,.0462,1.6912,.3226,2.383,.5149,3.5655,.9912,6.6946,3.172,9.3979,6.1021,1.3825,1.4985,2.2532,2.6827,3.3913,4.5283,1.1537,1.8709,2.1367,3.8372,2.9957,5.8592,.6988-1.7177,1.3976-3.4354,2.0965-5.1532-.9543,.2265,.5013,.1166-.4621,.0754-.074-.0032-1.1436-.1399-.4485,.0008-.341-.069-.6822-.1612-1.0078-.2846,.6037,.2287-.423-.2395-.4432-.2513-1.0245-.598-1.7752-1.4215-2.393-2.7036,.2901,.6022-.2343-.6844-.226-.6574-.1282-.4191-.2319-.8453-.3157-1.2755-.1169-.5997-.1431-1.3561-.1382-2.1274,.0111-1.734,.2432-3.1513,.5939-4.8189,.7174-3.4106,1.6726-6.89,3.1874-9.9205,.7003-1.401,1.5073-2.7519,2.4402-4.011-.3737,.5043,.3348-.4069,.3308-.4022,.228-.2706,.4623-.5359,.7025-.7958,.5598-.6057,1.1519-1.1814,1.7717-1.7255,3.7725-3.3116,9.2909-5.3164,14.3951-5.355,.707-.0054,1.4143,.0191,2.1192,.0744,.3519,.0276,.7047,.0598,1.0548,.106-.7124-.0941,.4339,.083,.4648,.0887,1.4053,.2586,2.7603,.662,4.0988,1.1563,1.0594,.3913-.5342-.2872,.4808,.205,.322,.1561,.6458,.3067,.9638,.4713,.6348,.3286,1.2546,.6863,1.8575,1.0704,1.3661,.8704,1.9432,1.323,3.2167,2.5485,2.3148,2.2274,3.7611,4.3327,5.2035,7.4485,.3497,.7553,1.0202,2.8368,1.3213,4.2499,.0746,.3499,.1335,.7019,.2001,1.0533,.0646,.4279,.0736,.4708,.0272,.1289,.0285,.2368,.0534,.4739,.0747,.7114,.0746,.8342,.0971,1.6692,.0862,2.5064,1.9961-.8268,3.9923-1.6537,5.9884-2.4805-.4019-.3586-.8001-.7337-1.1279-1.1636,.4527,.5936-.1196-.2488-.1601-.3178-.1047-.1784-.1929-.362-.2925-.5425-.4435-.8029,.1153,.5909-.1131-.2973-.0509-.198-.1238-.392-.1762-.5902-.0796-.3007-.1392-.604-.1958-.9096,.1162,.6266,.001-.0652-.0134-.3186-.0303-.5361-.024-1.0747,.0119-1.6103-.0026,.0389,.1083-1.0247,.0407-.5169-.0683,.5133,.1075-.5678,.0987-.5231,.2435-1.232,.6105-2.46,1.1067-3.6146-.2094,.4873,.0338-.0532,.0697-.1238,.1592-.313,.3052-.6319,.4689-.9428,.2718-.5164,.5632-1.0226,.8732-1.517,.3066-.489,.6323-.9655,.9739-1.4307-.0886,.1207-.3643,.4343,.0775-.0982,.252-.3038,.5066-.6041,.7717-.8965,1.7613-1.9428,2.987-2.9302,5.0892-4.2058,.9996-.6065,2.0432-1.1633,3.1228-1.6143-.6214,.2596,.4364-.1533,.4528-.1593,.2158-.0784,.433-.1535,.651-.2254,.6458-.213,1.3023-.3958,1.9659-.5443,.2726-.061,.5466-.1127,.821-.1646,.1693-.032,.8923-.1165,.2144-.0429,.5402-.0586,1.082-.0966,1.6255-.1033,.5352-.0066,1.0652,.0272,1.5987,.0657,.6947,.0501,.1512,.0266,.0085-.0006,.4127,.0786,.8222,.1592,1.2278,.2703,.2015,.0552,.4022,.1156,.6005,.1812,.0878,.029,1.0276,.4233,.3322,.1041,.4819,.2212,.9491,.4726,1.3964,.7575,.1817,.1157,.3601,.2374,.5353,.3627-.4973-.3559,.0757,.0677,.1909,.1722,.4976,.452,.9773,.9261,1.3969,1.4528-.3437-.4315,.3829,.5591,.3486,.5075,.1401,.211,.2757,.4254,.4069,.642,.331,.5461,.6329,1.1095,.916,1.6818,.6145,1.2423,.9127,2.031,1.4567,3.4404,1.1563,2.9956,2.4791,5.8546,3.4359,8.9202,1.0489,3.3606,1.5912,6.4844,1.6095,9.9407,2.179-.5902,4.358-1.1804,6.5369-1.7705-1.1375-1.696-1.2931-3.4202-.3266-5.0227,.4221-.6999,.8895-1.07,1.8087-1.6047,.053-.0308,.6023-.2614,.1748-.0972,.2276-.0874,.4682-.1596,.7045-.2222-.0782,.0208,1.0641-.1836,.6213-.1369-.1576,.0166,.8126,.0052,1.0072,.0249-.4281-.0432,.7023,.1873,.9168,.2459,.3154,.0861,.6071,.2252,1.2105,.5889,.9743,.5873,1.6201,1.1816,2.5301,2.1835,.7545,.8306,1.205,1.4508,1.9213,2.5504,.8013,1.23,1.5199,2.5135,2.173,3.8277,2.4968,5.0235,4.0342,10.6513,5.5689,16.1,1.6836,5.9777,3.1625,12.0121,4.4908,18.0783,2.6525,12.1145,4.6185,24.3556,6.7472,36.5688,1.0077,5.7815,1.9887,11.573,2.6102,17.4109,.319,2.9961,.5514,6.0021,.6621,9.0133,.0557,1.517,.0806,3.035,.071,4.553-.0045,.7236-.0168,1.4472-.0372,2.1705-.0127,.4491-.1732,1.8528-.0837,1.9801,.1864,.2652-.3366,.1923,.174-.0888l.2596-.1683c-.3478,.1931-.3349,.2024,.0386,.0279-.024-.0401-.5293,.139,.0225,.0582-.3255,.0476-.6517,.0148-.9779,.0177-1.0095,.0092,.3476,.0927-.2368-.0219-.3294-.0646-.6544-.1407-.9778-.2306-.6805-.1892-1.3488-.4304-2.013-.6699-2.5747-.9282-4.9564-2.0563-7.4835-3.5142-5.075-2.9278-9.3149-6.5165-13.1561-11.0567v4.961c1.91-1.7912,3.1587-3.9638,4.1216-6.3705,.704-1.7596-.7686-3.8532-2.4501-4.3152-1.9991-.5493-3.6086,.684-4.3152,2.4501,.1544-.3859-.2441,.5089-.2855,.5889-.2085,.4032-.4375,.7945-.6871,1.1736-.2255,.3424-.2744,.3977-.3876,.5299-.2985,.3487-.6227,.6685-.9572,.9821-1.4642,1.3731-1.1928,3.5511,0,4.961,3.8816,4.5878,8.5517,8.5296,13.6965,11.6353,2.7107,1.6364,5.5702,2.9938,8.5115,4.1615,2.4935,.9899,5.182,1.9999,7.9112,1.6926,1.6329-.1839,3.1464-.7355,4.3272-1.9315,1.5186-1.5381,1.8339-3.579,1.9222-5.642,.1472-3.4368,.0928-6.8825-.1038-10.3161-.3982-6.9539-1.3882-13.8661-2.5267-20.7328-2.2596-13.628-4.5033-27.2931-7.4251-40.7971-1.4497-6.7002-3.0785-13.3631-4.9607-19.9554-1.81-6.3393-3.7039-12.8124-6.9361-18.598-3.4233-6.1276-9.1143-12.3582-16.8391-10.8765-7.7472,1.486-11.431,10.909-7.0946,17.3745,1.8714,2.7903,6.5563,1.8717,6.5369-1.7705-.0196-3.6993-.5755-7.4119-1.6065-10.9644-1.0086-3.475-2.3766-6.3531-3.5512-9.402-1.1171-2.8998-2.2213-5.8864-4.0591-8.4204-1.9735-2.721-4.4946-4.716-7.6628-5.858-5.4989-1.9821-11.7859-.4187-16.7644,2.2431-5.1991,2.7797-9.6996,7.2287-12.1447,12.6262-2.7458,6.0612-3.4454,13.8587,1.9947,18.7115,2.239,1.9972,5.9471,.6673,5.9884-2.4805,.1963-14.9684-12.1045-28.294-27.1246-28.8205-7.2205-.2531-14.3409,2.3591-19.8787,6.937-6.2996,5.2077-9.3706,13.2508-10.9082,21.0647-.9416,4.7852-1.3123,10.287,1.4639,14.5809,2.6283,4.065,7.2869,6.5886,12.1404,5.4364,2.4322-.5774,2.9361-3.1767,2.0965-5.1532-3.2237-7.5883-8.6932-14.9509-16.409-18.3879-7.7085-3.4337-17.2235-2.987-23.7044,2.804-6.3247,5.6514-7.4483,14.8588-6.8823,22.8537,.6779,9.5777,2.7956,19.1712,5.8514,28.2605,1.747,5.1962,3.8641,10.2574,5.5974,15.4606,1.709,5.1299,3.1944,10.3288,4.5328,15.5669,.3627,1.4196,1.8784,2.6599,3.3826,2.5754,13.8934-.7803,27.0033-5.4487,40.2889-9.1651,3.1815-.89,6.3806-1.7216,9.6102-2.419,3.2088-.6929,6.516-1.5024,9.7306-1.4921,2.6178,.0084,4.2823,1.8889,6.1787,4.0166,2.0005,2.2446,3.6708,4.7675,5.2382,7.4774,1.5779,2.728,2.9774,5.554,4.3659,8.3815s2.5969,5.9847,4.6486,8.4106c2.4654,2.915,7.2401,3.954,10.1594,1.0488,2.7938-2.7803,1.6784-6.5627,.7924-9.8674-.9074-3.3848-1.5277-6.8355-1.7882-10.3304-.1279-1.7152-.2109-3.4461-.163-5.1662,.018-.6459,.0385-1.1862,.1912-1.674,.0117-.0374,.5225-1.3262,.1777-.5829,.1323-.2851,.2748-.5662,.4277-.8408,.1487-.2671,.3071-.5289,.4754-.7841,.0636-.0964,.6667-.8651,.1548-.2486,.3084-.3714,.6319-.7278,.9817-1.061,.2063-.1966,.4224-.3796,.6388-.5647-.5582,.4775-.0891,.064,.0786-.0426,.5157-.3279,1.0367-.618,1.5714-.9125,.798-.4394-.673,.2084,.1893-.089,.1769-.061,.3505-.129,.5283-.1882,.535-.1781,1.0811-.3222,1.6336-.4346,.1857-.0378,.3721-.067,.5581-.1023,.9242-.175-.7442,.0225,.1992-.0166,.5761-.0239,1.1466-.0699,1.7243-.0598,.2897,.0051,.5792,.0177,.8682,.0374,.1726,.0118,1.4177,.1825,.5141,.0343,.578,.0948,1.1516,.204,1.7198,.3477s1.1297,.3147,1.6815,.5124c.1131,.0405,1.0196,.4063,.251,.0766,.3577,.1534,.7097,.3212,1.0559,.4991,2.3789,1.2227,4.1688,2.8644,5.593,4.9463,3.5646,5.2106,4.9299,12.0178,2.6702,18.1399-.6561,1.7776,.7338,3.8436,2.4501,4.3152,1.9592,.5383,3.6567-.6661,4.3152-2.4501Z"/></g><path d="M614.021,147.3485c.6338-.4455,1.2905-.8561,1.9728-1.2234,.3636-.1957,.7336-.3797,1.1091-.5515,.0939-.043,.1881-.0852,.2827-.1266,.233-.1006,.1893-.0824-.1309,.0544,.0623-.09,.3977-.158,.5044-.1983,.7245-.2733,1.4653-.5029,2.2175-.6868,.3761-.092,.7548-.1726,1.1358-.2415,.2033-.0367,.4073-.0677,.6112-.1001,.2581-.0366,.2044-.0294-.1613,.0217,.1025-.0125,.2051-.0241,.3078-.0349,.6384-.0697,1.1831-.2145,1.6537-.685,.4056-.4056,.7111-1.0711,.685-1.6537-.0517-1.1532-1.0362-2.4809-2.3386-2.3386-3.6583,.3995-7.1847,1.5992-10.2097,3.7256-.5076,.3568-.9051,.7817-1.0747,1.3976-.1542,.5598-.0846,1.3052,.2358,1.8021,.6394,.9917,2.1294,1.5914,3.1997,.839h0Z"/><path d="M641.8814,134.5144c.7639-.5719,1.5704-1.081,2.4214-1.5136,.2124-.108,.4272-.2113,.6441-.31,.1287-.0585,.5847-.3305,.0983-.046,.3909-.2287,.9163-.3452,1.3475-.4775,.4557-.1398,.9174-.2602,1.3835-.36,.1748-.0374,.3501-.0721,.526-.1041,.1261-.0229,.9133-.1884,.2615-.0518,.9098-.1906,1.931-.148,2.8537-.1042,1.2237,.0581,2.3933-1.1172,2.3386-2.3386-.059-1.3168-1.0276-2.2764-2.3386-2.3386-4.1963-.1993-8.529,1.0847-11.8966,3.6057-.5062,.3789-.9002,.7639-1.0747,1.3976-.1542,.5598-.0846,1.3052,.2358,1.8021,.6226,.9657,2.1523,1.6231,3.1997,.839h0Z"/><g><path d="M664.6963,173.7603c1.3744-.2594,2.7084,.8528,3.1936,2.1646,.4852,1.3119,.3334,2.7621,.175,4.1518,1.0783-1.207,1.9043-2.6383,2.4098-4.1757,.3156-.9599,.5022-2.0275,.1275-2.9659s-1.4838-1.6361-2.4191-1.2538c-.621,.629-1.9118-.231-1.5704-1.0463"/><path d="M665.318,176.0154c-.4011,.0436-.4759,.0588-.2245,.0457l.1311,.0034c-.4043-.0664-.4824-.0759-.2344-.0285l.1265,.0325c.4289,.0688-.4221-.2535-.0697-.0415,.0629,.0378,.2679,.2071,.3441,.2067-.29-.2339-.3412-.2718-.1535-.1138l.1005,.0929c.0651,.0625,.1939,.2729,.2807,.3023-.2205-.2946-.2603-.3415-.1195-.1407l.0736,.1165c.0393,.0648,.3285,.5925,.1276,.2094-.1934-.3688,.0334,.144,.0606,.2439,.0439,.1608,.0703,.3243,.1075,.4863,.03,.1788,.0211,.1087-.0266-.2102,.0088,.0829,.0157,.166,.0205,.2492,.0112,.1672,.0164,.3345,.0172,.5021,.0033,.7045-.0742,1.406-.1534,2.105-.1026,.9049,.6729,1.8145,1.4376,2.1372,.8157,.3442,1.9379,.2166,2.5547-.4836,.9914-1.1254,1.8403-2.3606,2.4342-3.7402,.7206-1.6739,1.2589-3.4475,.8281-5.2787-.3833-1.6293-1.7831-3.0911-3.4563-3.3826-.5924-.1032-1.1358-.1214-1.7264,.0238-.2694,.0662-.5519,.1806-.7956,.3093-.5774,.4466-.631,.4877-.1607,.1232l.3793-.1651c.286-.0818,.5717-.0808,.857,.0028l-.0972-.0247c.3953,.1854,.4886,.222,.2797,.11l.3068,.2447c-.1669-.1642-.1127-.0815,.1627,.248-.0832-.1453-.0735-.1102,.0292,.1051,.1023,.1918,.1474,.3991,.1354,.6218-.0914,.4548-.1004,.5644-.0272,.3289,.3939-1.1594-.4517-2.6076-1.6334-2.8768-1.2967-.2953-2.4551,.392-2.8768,1.6334-.4738,1.3948,.2759,2.9727,1.4997,3.705,1.3167,.7879,2.8391,.6226,3.9795-.3833l-1.032,.6014c.0768-.0314,.1558-.0559,.2369-.0736-.4218,.0411-.5084,.0582-.2596,.0512-.4192-.0719-.5062-.0823-.2611-.031,.2308,.0731,.1607,.037-.2101-.1082,.0759,.0363,.1493,.0769,.2204,.1218,.1989,.1364,.1427,.0914-.1686-.135,.0638,.0572,.1242,.1177,.1813,.1815-.226-.3107-.2708-.3663-.1343-.1667,.284,.5592-.0943-.3804,.0421,.0976,.1282,.4495,.0294-.4716,.0154,.0337-.0053,.1896,.0557,.4935-.0247,.6703,.0476-.3411,.0479-.3807,.001-.1186-.0235,.1113-.0498,.222-.0788,.3319-.0963,.3677-.1974,.9368-.4242,1.2472,.122-.2846,.1475-.3469,.0765-.1868-.0327,.074-.0665,.1475-.1012,.2206-.0921,.1951-.1898,.3877-.2925,.5774-.2055,.3795-.4316,.7479-.6771,1.1028-.0614,.0887-.124,.1766-.1878,.2636-.1518,.2028-.1283,.1735,.0707-.0878-.0743,.1726-.2937,.3538-.4177,.4945,1.3308,.5512,2.6615,1.1024,3.9923,1.6537,.2255-1.9895,.2856-4.0923-.7574-5.8869-.5004-.8611-1.2531-1.643-2.1214-2.138-1.097-.6254-2.2235-.7392-3.4502-.5466-.5415,.085-1.1332,.6229-1.3976,1.0747-.2933,.5013-.4176,1.2401-.2358,1.8021,.1831,.5659,.5338,1.1118,1.0747,1.3976,.5907,.3121,1.1461,.3387,1.8021,.2358h0Z"/></g><path d="M79.9982,791.6861c-20.0163-29.7198-29.0895-66.301-26.2451-101.9558,2.2692-28.4446,13.3404-55.4384,29.5667-78.7483,14.9748-21.5121,36.729-42.5609,63.7848-46.3582,13.4189-1.8833,29.0394,.6452,39.5017,9.7469,5.6024,4.8738,9.9604,11.4822,10.9797,18.9532,.2013,1.4754,.6046,3.8483-.2815,5.1811-.8314,1.2505-2.3166,.9318-3.56,.4983-3.5566-1.2399-6.0802-4.2079-8.5018-6.9371-21.6023-24.3465-32.3913-55.8993-33.2585-88.1962-.8663-32.2643,7.1239-64.5897,20.2977-93.9068,7.9576-17.7089,18.6068-34.125,30.0324-49.7751,13.9368-19.0899,29.6221-37.5036,48.131-52.3241,7.9071-6.3314,16.7714-12.2135,26.2042-15.7568,8.254-3.1004,16.8091-4.4397,25.0353-2.2867,4.2829,1.1209,8.0114,2.9679,11.719,5.685,5.0624,3.71,8.9705,8.8887,13.1808,13.5442,4.5424,5.0229,9.2503,9.9656,14.4436,14.3265,2.4379,2.0472,5.0139,4.1528,7.898,5.5517,1.1233,.5449,2.3723,1.1037,3.6535,1.1199,4.5161,.0571,4.5187-6.9588,0-7.0159,.9091,.0115,.8367,.3832,.2726-.0179-.0766-.0545-.2817-.1103-.3784-.1314-.6384-.1394,.6833,.3318,.3058,.1328-.4209-.2219-.8549-.4149-1.2713-.6479-3.569-1.9967-5.9331-4.1874-9.057-7.0892-6.2054-5.764-11.6414-12.1954-17.3066-18.4699-3.5333-3.9133-7.6695-7.4062-12.2852-9.9782-18.7687-10.4586-40.1956-2.7656-56.7745,8.263-20.6418,13.7313-37.6928,32.7144-52.7788,52.1927-12.3629,15.9624-24.2034,32.8824-33.2461,50.9886-14.8357,29.7055-24.2356,62.9375-25.0943,96.2215-.873,33.8361,8.1192,67.7339,28.9307,94.7811,4.9059,6.3759,10.8337,15.0305,19.2298,16.8299,3.9533,.8472,8.1355-.405,10.2363-4.0609,2.1705-3.7773,1.5051-8.6919,.5705-12.7411-3.8108-16.5107-18.9611-27.3354-34.802-30.7156-29.2005-6.2309-56.4408,8.7523-76.1068,29.3942-19.6969,20.6744-34.703,47.4179-41.9072,75.0732-9.2913,35.6673-5.2018,74.6879,9.6293,108.2631,3.6856,8.3435,8.0988,16.3423,13.1939,23.9074,2.509,3.7253,8.5896,.2178,6.058-3.5411h0Z"/></g><path d="M201.1897,657.6856c3.1273,18.5771,7.0199,37.0229,11.6833,55.2752,1.3266,5.1923,2.7172,10.3679,4.1654,15.5276,1.2183,4.3405,7.9895,2.4964,6.7653-1.8651-5.0911-18.1375-9.4338-36.4825-12.9969-54.9812-1.0136-5.2623-1.9623-10.5369-2.8519-15.8216-.3147-1.8696-2.6222-2.9153-4.3152-2.4501-1.9811,.5444-2.7657,2.4401-2.4501,4.3152h0Z" style="fill:#6966ed;"/><path d="M171.9768,701.9304c2.4465,6.9428,6.8075,12.7969,12.6629,17.2326,.6759,.512,1.9274,.5672,2.7031,.3536,.8137-.2241,1.6955-.8532,2.0965-1.6121,.4301-.8141,.6458-1.8004,.3536-2.7031-.2997-.926-.8425-1.5135-1.6121-2.0965-.52-.3939,.3693,.3041,.035,.0265-.1562-.1297-.317-.2542-.4735-.3836-.2818-.233-.5593-.471-.8329-.7136-.5471-.4852-1.0775-.9891-1.5901-1.5106-.5412-.5504-1.0628-1.1201-1.5633-1.7078-.2372-.2785-.4631-.5659-.6969-.8472-.2771-.3335,.412,.5606,.0261,.0354-.1203-.1637-.2428-.3258-.3619-.4904-.8818-1.2173-1.6802-2.4956-2.3848-3.8234-.3427-.6459-.6639-1.3033-.9619-1.9711-.0182-.0408-.3389-.7734-.1126-.2525,.2258,.5198-.0821-.2155-.0988-.2583-.1483-.3783-.2878-.7599-.4229-1.1431-.6084-1.7265-2.4246-3.0619-4.3152-2.4501-1.7049,.5517-3.103,2.4622-2.4501,4.3152h0Z" style="fill:#6966ed;"/><path d="M303.3589,751.7456c17.7835-7.901,36.2065-14.3452,55.0079-19.3567,4.3585-1.1617,2.5095-7.9313-1.8651-6.7653-19.399,5.1708-38.3385,11.9133-56.6839,20.0639-1.7316,.7693-2.1393,3.2936-1.2585,4.7995,1.0434,1.7839,3.0614,2.0307,4.7995,1.2585h0Z" style="fill:#6966ed;"/><path d="M490.5973,31.792c2.0582,6.0673,4.1165,12.1346,6.1747,18.2019,.5883,1.7341,2.4392,3.0572,4.3152,2.4501,1.7223-.5574,3.0813-2.4546,2.4501-4.3152-2.0582-6.0673-4.1165-12.1346-6.1747-18.2019-.5883-1.7341-2.4392-3.0572-4.3152-2.4501-1.7223,.5574-3.0813,2.4546-2.4501,4.3152h0Z" style="fill:#f953b2;"/><path d="M446.5978,58.8262c4.6916,6.2412,10.8472,10.9121,18.1476,13.699,1.718,.6558,3.9222-.7246,4.3152-2.4501,.4561-2.0024-.6106-3.613-2.4501-4.3152-.2007-.0766-.4012-.1538-.6007-.2334-.0799-.0315-.1596-.0636-.2391-.0964-.2408-.0987-.1597-.0636,.2433,.1053-.1159-.1994-.8395-.3723-1.0582-.4747-.7392-.3461-1.4666-.7174-2.1803-1.1133-1.4303-.7933-2.7912-1.6913-4.109-2.6585-.4324-.3174-.0018,.0914,.0955,.0789-.0701,.009-.4256-.3378-.5042-.4014-.3004-.2434-.5971-.4915-.8896-.7444-.6174-.5339-1.2167-1.0889-1.7965-1.6635s-1.1399-1.1688-1.6792-1.7815c-.2838-.3225-.5616-.6503-.8334-.983-.1087-.1331-.2156-.2677-.3232-.4016-.5528-.6878,.4501,.598-.0801-.1073-.5706-.7591-1.1441-1.3499-2.0965-1.6121-.8397-.2312-1.9578-.1268-2.7031,.3536-1.446,.9322-2.4378,3.2307-1.2585,4.7995h0Z" style="fill:#f953b2;"/><path d="M544.5847,36.5702c-1.095,2.7375-2.19,5.4751-3.2851,8.2126-.3162,.7904-.0572,2.001,.3536,2.7031,.4258,.7277,1.2602,1.4216,2.0965,1.6121,.898,.2045,1.906,.1603,2.7031-.3536l.71-.5485c.4348-.4377,.7355-.9537,.9021-1.5479,1.095-2.7375,2.19-5.4751,3.2851-8.2126,.3162-.7904,.0572-2.001-.3536-2.7031-.4258-.7277-1.2602-1.4216-2.0965-1.6121-.898-.2045-1.906-.1603-2.7031,.3536l-.71,.5485c-.4348,.4377-.7355,.9537-.9021,1.5479h0Z" style="fill:#f953b2;"/></svg>