<?xml version="1.0" encoding="UTF-8"?><svg id="Layer_2" xmlns="http://www.w3.org/2000/svg" width="1000" height="1000" viewBox="0 0 1000 1000"><g><path d="M520.6104,306.2126c-58.1101-37.333-109.8953-94.8241-168.0055-132.1572l2.9428,79.9899-81.595-33.4406,40.1287,70.6265-88.5507,22.7396,41.1988,44.9441-67.4162,20.3319,30.4978,31.5679-48.6895,42.8039,246.9252,53.2374,105.4534-73.6833-12.8899-126.9602Z" style="fill:#f4d13b;"/><g><path d="M560.1674,417.7706l-142.4997,82.304-33.7317-110.5319c-1.3455-4.409,.5282-9.1634,4.52-11.469l124.8904-72.1334c5.5189-3.1876,12.5682-.4094,14.4284,5.6864l32.3925,106.1438Z" style="fill:#f953b2;"/><path d="M556.5476,445.6867l-192.6962,111.2961c-6.1148,3.5317-13.89,.0097-15.2678-6.916l-.3594-1.8066c-.8616-4.3313,1.1311-8.7303,4.9552-10.939l206.9879-119.5506,3.0615,12.0928c1.5634,6.1752-1.1653,12.6374-6.6813,15.8233Z" style="fill:#f953b2;"/><path d="M486.5926,392.5563c1.5575-2.7612,3.0949-5.9408,3.4253-8.2204-7.5753-1.0985-9.8817,5.3266-10.6848,8.7152-.1433,.0373-.2868,.0701-.4298,.1109-.0498,.0142-.0979,.0315-.1476,.0463-2.4727-2.4557-7.8185-6.6858-13.6691-1.7595,1.4653,1.7403,4.3938,3.6049,7.1442,5.1187-6.0113,4.7286-8.9003,12.7833-6.6722,20.593,2.942,10.312,13.6864,16.2866,23.9984,13.3446,10.312-2.942,16.2866-13.6864,13.3446-23.9984-2.2062-7.7329-8.8001-13.0268-16.309-13.9503Z" style="fill:#6966ed;"/></g><path d="M375.9709,393.4344c-8.3921,4.8131-16.7842,9.6263-25.1764,14.4394-10.9743,6.2941-21.9485,12.5881-32.9228,18.8822-1.2166,.6978-2.4324,1.5214-3.8106,1.8462-6.0897,1.4352-10.5071-5.8439-6.3917-10.5791,1.8773-2.1601,.0572-5.1967-2.7192-4.6712-6.0287,1.1412-10.0959-6.096-6.0977-10.7018,1.8756-2.1606,.0584-5.197-2.7192-4.6712-7.1578,1.3549-10.5096-8.3004-4.4669-12.0109,3.0607-1.8794,.3118-6.6233-2.8212-4.8265-7.8985,4.53-15.797,9.06-23.6955,13.5901-3.0493,1.7489-6.6304,4.6572-10.3462,3.6833-3.7411-.9806-5.8498-5.0821-4.3342-8.6928,.6383-1.5206,1.8142-2.5171,3.1673-3.3684,16.0661-10.1086,32.0533-20.3447,48.0793-30.5167,6.1079-3.8768,12.2159-7.7536,18.3238-11.6304,.9365-.5944,1.7646-2.009,1.2844-3.1562-1.2384-2.9584-2.4768-5.9169-3.7153-8.8753-1.3835-3.3051-3.4879-6.9482-3.0085-10.6395,.7928-6.1038,7.0269-9.8929,12.8608-7.9438,3.2327,1.0801,5.5373,4.2411,7.8062,6.6361,2.5343,2.6751,5.0687,5.3503,7.603,8.0254,.7604,.8026,2.4401,1.1663,3.3868,.437,4.1273-3.1794,8.3532-6.2356,12.585-9.2733,10.9192-7.8382,22.0347-15.4044,33.3042-22.7294,15.7074-10.2095,31.727-19.9468,48.0852-29.0791,18.394-10.2689,37.2276-19.7963,56.5997-28.0871,18.8913-8.0851,38.4027-15.0145,58.4606-19.5756,17.9003-4.0704,36.5188-6.268,54.8318-4.0261,7.8618,.9624,16.1064,3.0025,23.5688,6.1475,8.7445,3.6853,16.8759,9.4454,24.0581,15.8864,18.2463,16.3632,30.2659,38.4147,31.7516,63.0787,1.3321,22.1145-5.0302,44.1712-15.6409,63.4371-9.5093,17.2661-22.6862,33.4772-39.262,44.4003-3.4368,2.2648-7.0344,4.2819-10.7974,5.9527-3.2812,1.4569-.4407,6.2748,2.8212,4.8265,17.7728-7.8912,32.2707-22.7983,43.3509-38.4509,13.0522-18.4384,22.0942-40.0621,24.6305-62.5838,2.6703-23.7115-3.0866-47.7531-17.1333-67.1544-12.6642-17.4917-30.518-31.9757-51.4616-37.9883-17.5802-5.047-36.2399-4.7783-54.2084-2.2528-20.3466,2.8598-40.2013,8.8017-59.3874,16.0429-20.2264,7.6338-39.8627,16.803-58.9967,26.848-17.6741,9.2785-34.9405,19.3289-51.8498,29.9342-13.0918,8.211-25.9761,16.7563-38.625,25.6348-6.3043,4.4251-12.5688,8.916-18.7042,13.5736-.2678,.2033-.5356,.4065-.8019,.6117,1.1289,.1457,2.2579,.2913,3.3868,.437-2.4911-2.6295-4.9823-5.2591-7.4734-7.8886-3.1081-3.2808-5.9342-6.745-10.4023-8.2104-6.8935-2.2609-14.8517,.9765-18.1995,7.4112-1.6993,3.2661-2.1982,6.9874-1.4221,10.5871,.3408,1.5808,1.0536,3.0657,1.6754,4.551,1.6445,3.9284,3.2889,7.8569,4.9334,11.7853,.4281-1.0521,.8563-2.1041,1.2844-3.1562-15.8437,10.0562-31.6874,20.1124-47.531,30.1687-6.3409,4.0247-12.6614,8.0839-19.0237,12.0747-6.3576,3.9878-8.4487,12.402-3.3927,18.4067,2.9451,3.4977,7.8502,4.8783,12.2427,3.8292,1.7569-.4196,3.28-1.3322,4.8238-2.2176,9.1096-5.2246,18.2191-10.4492,27.3287-15.6738l-2.8212-4.8265c-4.8964,3.0066-7.3824,9.051-5.3187,14.5628,2.1864,5.8396,8.0793,8.8028,14.0928,7.6645-.9064-1.5571-1.8128-3.1141-2.7192-4.6712-3.5231,4.0585-4.4154,9.8621-1.5201,14.5628,2.7856,4.5226,7.9419,6.4495,13.0561,5.4814-.9064-1.5571-1.8128-3.1141-2.7192-4.6712-4.2169,4.8519-4.4616,12.2696,.3304,16.8954,3.9776,3.8397,9.9527,4.3048,14.7157,1.7232,3.1809-1.7241,6.2863-3.6054,9.4246-5.4053,13.2719-7.6118,26.5438-15.2236,39.8156-22.8354,3.5962-2.0626,7.1925-4.1251,10.7887-6.1877,3.1198-1.7893,.3076-6.6209-2.8212-4.8265h0Z"/><path d="M225.2557,383.5704c17.5755,1.5213,36.0535-2.6151,49.9511-13.8637,12.2054-9.879,18.1453-24.3765,18.7829-39.819,1.1047-26.7566-12.3585-54.9365-35.2309-69.3202-12.6007-7.9242-27.6016-10.8368-42.3047-8.9317-17.0909,2.2145-36.4651,9.6217-46.4761,24.3254-11.6831,17.1597-11.2546,39.8203-8.3508,59.4966,1.5632,10.5926,3.923,21.0247,7.0224,31.2708,3.3109,10.9449,7.2657,21.9139,8.4968,33.3475,2.5915,24.0695-11.1116,43.1299-27.7816,58.8952-16.5201,15.6236-34.536,29.5997-51.0916,45.2032-31.4582,29.649-58.8812,66.2857-63.1761,110.6656-3.7693,38.9491,13.6249,79.1911,45.7754,101.8367,34.4832,24.2887,82.1399,22.6784,115.5031-2.7052,34.1534-25.9849,50.0094-67.4031,66.868-105.2903,9.2192-20.7187,19.1634-43.3948,34.778-60.2105,7.439-8.0113,17.8407-13.034,27.7076-6.0318,6.6679,4.7319,11.0664,13.9721,20.7469,10.3295,7.6345-2.8727,9.7867-12.3025,5.1421-18.6367l-4.3895,3.3868c10.4689,10.8286,27.5844-3.1147,18.5734-15.3662l-4.3895,3.3868c5.3131,5.4796,14.4053,5.4834,18.9412-1.0692,3.5789-5.1702,2.1976-11.1833-1.5515-15.7467-5.8167-7.08-11.8297-14.0067-17.7421-21.0072l-3.3868,4.3895c6.3481,4.0038,12.6961,8.0076,19.0442,12.0114,6.7067,4.23,14.791,10.3821,22.2134,3.3798,4.3657-4.1186,5.0479-10.9522,1.583-15.8392-1.5438-2.1774-3.7388-3.445-5.9384-4.8252-7.3635-4.6207-14.7271-9.2414-22.0906-13.8621-6.1067-3.832-12.2133-7.664-18.32-11.496v4.8265c4.4586-2.5509,10.2334-4.7705,12.6309-9.6238,3.5537-7.1939-1.0789-15.9969-8.9752-17.223-4.7592-.739-10.3183,1.5429-14.8698,2.6754-4.8146,1.1979-9.6307,2.3902-14.4439,3.5938-30.0492,7.5143-59.6797,18.1836-86.7377,33.3775-26.9598,15.1388-53.2571,36.0296-66.2367,64.8687-14.8844,33.0716-6.6345,69.5803,6.5528,101.8581,16.0178,39.2057,43.8269,73.7657,81.8445,93.4133,40.6145,20.9897,87.1889,20.2194,129.2241,3.7728,44.9179-17.5744,83.2945-47.8019,123.2179-74.1561,20.7723-13.7122,42.1598-26.943,65.2004-36.5307,19.6715-8.1858,41.1785-14.3776,62.4475-8.9425,9.6283,2.4604,18.5182,7.3424,25.0515,14.9273,7.4083,8.6006,11.1178,19.6979,13.323,30.6602,5.1014,25.3593,4.004,52.0317,.8295,77.5581-1.6066,12.919-4.5485,25.6405-6.1041,38.5518-1.211,10.0509-.6623,20.918,5.8699,29.158,10.9401,13.8004,32.7472,15.6106,47.7247,8.1084,8.3538-4.1844,15.106-11.2039,18.7581-19.8081,.7269-1.7126,.2017-3.4731-1.6703-4.1056-3.556-1.2015-6.9213-.7732-10.0946,1.2096-1.4001,.8748-1.6106,2.3947-1.0026,3.8238,8.5299,20.0522,36.5417,24.3472,55.8944,25.15,15.974,.6626,35.7926-.1002,49.6024-9.2269,5.2245-3.4528,9.2508-8.5433,9.4247-15.0228,.2266-8.4428-5.5565-16.1252-10.9553-22.0324-4.6701-5.1098-9.9469-9.3812-13.7439-15.2611-3.6512-5.6542-6.1438-11.9187-7.8173-18.4213-3.3896-13.1709-3.5407-26.9201-3.689-40.4367-.6881-62.7277-8.9441-128.341-46.3372-180.7188-16.7703-23.4907-38.8084-43.1846-65.2708-55.0673-27.6812-12.4299-58.4753-16.4968-88.6043-14.3693-31.6736,2.2365-62.2179,11.2477-91.1248,24.1412-15.4582,6.8949-30.4217,14.8572-45.0096,23.4304-10.5946,6.2263-22.1078,10.5643-32.7474,16.6855-9.3756,5.394-19.0339,13.2635-19.4629,25.0243-.3895,10.6802,9.2839,15.6441,18.5208,11.5805,13.5291-5.9518,22.4958-21.0779,31.7924-31.8792,10.137-11.7776,21.0659-22.8863,32.8257-33.0494,49.0019-42.3484,116.5152-67.8239,180.9083-49.4186,64.3773,18.4008,111.7009,70.6638,153.7345,119.7741,11.4479,13.3752,22.7199,26.8995,34.1228,40.3129,5.6976,6.7021,11.4184,13.3864,17.2273,19.9925,4.7169,5.3643,9.7405,10.8586,16.2817,14.0048,14.8524,7.1437,32.0663,1.6531,47.7405,3.4101,14.9854,1.6798,13.1826,17.1737,8.2326,27.1491-5.0248,10.1262-12.5172,17.9477-20.0163,26.2257-10.1569,11.2117-20.4319,24.3969-33.8096,31.9384-5.3022,2.989-11.6114,4.3425-17.1897,1.5957-1.9659-.968-3.9365-2.0672-5.6969-3.3786-.4591-.342-1.5047-1.5878-1.9762-1.7009-.004-.001-.4086-.5051-.3919-.5087-4.11,.8826,.2149,2.2976,.3456,2.4716,1.7481,2.3269,3.4393,2.724,3.0549,6.1279-.2805,2.4838-1.6297,4.8978-2.9047,6.9917-2.6264,4.3129-6.058,8.1426-9.6705,11.652-2.6508,2.5752-5.8963,5.7415-9.8512,5.7638-3.9485,.0222-7.8477-3.1268-11.0601-5.084-7.7334-4.7116-15.4668-9.4232-23.2002-14.1349-3.0801-1.8766-5.892,2.9555-2.8212,4.8265,7.9912,4.8687,15.9824,9.7374,23.9736,14.606,5.832,3.5532,11.6193,7.0921,18.5241,4.1617,4.9147-2.0858,8.9272-6.4779,12.4281-10.4063,3.3797-3.7923,6.6206-7.944,8.6193-12.6483,1.616-3.8036,2.4385-8.2896,.3534-12.0992-1.9093-3.4884-6.5901-7.025-10.6815-5.2083-8.8832,3.9444,6.1433,12.5068,9.2663,13.9374,11.4859,5.2615,23.2047-2.2525,31.8521-9.5271,11.6784-9.8245,21.4652-21.8256,31.806-32.9947,10.8195-11.686,29.1768-38.1466,11.2219-51.5177-5.8466-4.354-12.6574-4.0414-19.609-3.9148-8.443,.1537-17.0878,.8404-25.5079,.0314-9.3337-.8968-16.1386-5.6344-22.3537-12.3629-5.7864-6.2644-11.2637-12.837-16.8005-19.3214-23.2755-27.2593-45.9078-55.0943-70.3977-81.2902-43.1273-46.1316-98.1516-88.6295-163.9473-90.4317-64.8346-1.7759-124.0874,32.0471-167.6479,77.9622-10.8752,11.463-19.8964,24.8666-31.3568,35.7194-3.796,3.5947-12.7463,11.9257-18.3244,6.8434-4.6385-4.2261-.9404-12.7418,2.1941-16.676,7.5601-9.4889,20.9111-14.1422,31.548-19.1325,13.6029-6.3819,26.2256-14.7225,39.6112-21.5673,57.4052-29.3545,126.8311-46.0493,188.9031-20.7383,58.5574,23.8778,91.9495,83.1841,104.5815,142.5132,7.0629,33.1725,7.7535,66.6001,8.6846,100.3345,.3649,13.2198,1.3872,26.8272,6.0422,39.3229,2.1485,5.7674,5.0064,11.2211,8.7608,16.1083,4.131,5.3773,9.4762,9.574,13.8248,14.7581,4.4742,5.3337,9.9315,13.4745,6.1381,20.5767-3.2793,6.1398-11.2579,8.947-17.5212,10.6861-16.8021,4.6652-36.095,4.7663-53.0955,1.0414-12.6331-2.768-27.1266-7.2078-32.6212-20.1246l-1.0026,3.8238c1.9277-1.2045,3.6684-1.3622,5.7875-.6462l-1.6703-4.1056c-7.8848,18.5761-30.6644,26.8131-48.7619,17.7839-9.4562-4.7179-13.589-13.5076-13.7223-23.8289-.1617-12.5213,3.5473-25.1716,5.3483-37.5149,3.4771-23.8309,5.1436-48.0504,2.6828-72.0694-1.9613-19.1435-6.1347-40.0691-20.9795-53.6433-30.9308-28.2835-77.6303-10.4206-109.4912,5.9602-40.6188,20.8835-76.4663,49.6291-115.1049,73.7431-37.8644,23.6308-80.3231,43.071-126.0165,39.2858-42.8429-3.549-81.4747-28.0901-106.9367-62.1266-11.8889-15.8925-21.1341-33.7084-27.7851-52.3883-6.0557-17.0079-11.2404-35.5036-11.0455-53.6942,.3275-30.5599,17.359-56.5049,40.0922-75.7033,23.5997-19.9303,52.3813-33.5548,81.3475-43.7309,12.1155-4.2563,24.4368-7.8683,36.8956-10.9712,5.2824-1.3156,10.5654-2.6288,15.8481-3.9432,5.15-1.2814,14.9288-4.6986,15.4259,4.1117,.3176,5.6276-7.0634,8.1764-11.0989,10.4853-1.8698,1.0698-1.7488,3.7291,0,4.8265,11.0103,6.9091,22.0205,13.8181,33.0308,20.7272,3.5661,2.2378,10.9265,5.1873,12.4177,9.5417,2.322,6.7808-5.2487,10.0542-10.3522,7.0737-2.59-1.5126-5.0896-3.2101-7.6263-4.81-6.1064-3.8514-12.2128-7.7027-18.3191-11.5541-2.8321-1.7862-5.3367,2.0807-3.3868,4.3895,4.2268,5.0047,8.4537,10.0094,12.6805,15.0141,1.7969,2.1276,3.8079,4.1861,5.4409,6.4421,4.9981,6.9051-3.6995,14.8197-9.864,8.462-2.1465-2.2137-6.3102,.7754-4.3895,3.3868,5.1363,6.9833-3.5946,15.0054-9.7945,8.5925-2.1447-2.2184-6.3053,.774-4.3895,3.3868,3.4942,4.7653,.652,12.4005-6.1095,10.8448-4.108-.9452-7.2712-6.4227-10.5312-8.9854-6.3803-5.0156-14.2017-6.9741-21.9941-4.1874-8.107,2.8993-14.1019,9.3789-19.1807,16.0667-6.5075,8.569-12.117,17.7986-17.1741,27.2859-19.3018,36.2104-30.727,76.8921-56.5559,109.4203-11.9369,15.0329-26.9479,28.052-45.0249,35.0327-19.0443,7.3542-40.4827,8.0482-60.036,2.2849-37.1014-10.9357-62.8498-45.2729-68.7413-82.7157-6.4855-41.2184,12.8252-81.8522,39.5455-112.1831,14.673-16.6557,31.4871-31.3336,48.2707-45.7984,14.8446-12.7937,30.7633-25.1626,41.9708-41.4679,5.3567-7.7932,9.5643-16.6035,11.102-25.9894,1.6269-9.9307,.4062-19.937-1.947-29.6469-2.5392-10.4773-6.3217-20.6029-9.0093-31.0398-2.4732-9.6046-4.3177-19.5012-5.2662-29.3744-1.8384-19.1356-.1633-42.1269,15.6723-55.3951,7.0171-5.8794,16.5953-9.497,25.3317-11.9027,7.3862-2.0339,15.0306-2.9701,22.6859-2.432,27.4478,1.9293,48.2325,24.0235,55.6166,49.4387,3.4118,11.7432,4.2692,24.5508,1.0895,36.447-4.5641,17.0758-18.9927,28.5833-35.5727,33.1786-8.3797,2.3225-17.0352,2.8948-25.6783,2.1466-3.5832-.3102-3.5624,5.2812,0,5.5896h0Z"/><g><path d="M249.5776,321.6106c-1.2471,6.2649,9.4397,5.4449,7.3541-.81-1.4238-4.2701-6.5575-3.171-7.3541,.81Z"/><path d="M247.781,321.1153c-.2523,1.311-.2034,2.5594,.3498,3.7847,.3942,.8732,1.1206,1.6111,1.9435,2.092,1.5887,.9284,3.7164,1.0482,5.4142,.3525,1.0774-.4414,1.9513-1.0669,2.6478-2.0085,.6186-.8363,.914-1.9018,.9288-2.9345,.0379-2.6384-1.6902-5.5653-4.4228-6.0753-3.1946-.5962-6.2058,1.6543-6.8614,4.7891-.199,.9514,.2782,2.0589,1.3013,2.292,.9333,.2126,2.0786-.2811,2.292-1.3013,.0531-.2537,.1207-.5034,.2109-.7466,.0111-.03,.0422-.143,.0607-.1553,.0153-.0102-.2204,.4711-.0879,.2195,.0627-.119,.1204-.2398,.1887-.3559,.0534-.0907,.11-.1795,.1696-.2662,.257-.3733-.2751,.3066-.0333,.0389,.1608-.178,.3208-.351,.5043-.5066,.3087-.2618-.3166,.207-.0862,.0658,.0929-.0569,.1804-.122,.2743-.1778,.093-.0552,.1886-.1036,.2842-.1538,.3676-.1931-.4504,.1527-.0535,.0215,.1783-.0589,.3555-.1079,.5381-.1511,.421-.0996-.4658,.0315-.1193,.0111,.1147-.0068,.228-.016,.343-.0155,.1032,.0004,.205,.0116,.3078,.015,.2728,.0091-.5437-.1127-.1566-.0166,.1003,.0249,.2007,.0455,.3,.0755,.0441,.0133,.0873,.0295,.1314,.0428,.3316,.1002-.3609-.1756-.1866-.0846,.1797,.0939,.3492,.1989,.5251,.2983,.2105,.1189-.1954-.1467-.2013-.1598,.0105,.0233,.0892,.0737,.114,.0954,.0957,.0836,.1867,.1726,.2729,.266,.0443,.048,.084,.1013,.1292,.1481,.1478,.1527-.2576-.3684-.1429-.1864,.0668,.106,.1431,.2055,.2078,.3132,.0601,.0999,.1161,.2023,.1683,.3065,.0271,.054,.0514,.1091,.078,.1633,.1547,.3143-.1558-.4408-.0448-.0983,.0707,.2179,.1464,.4317,.2004,.6548,.0252,.1041,.0441,.2089,.0659,.3137,.0847,.4077-.0372-.5025-.0133-.0935,.0105,.1797,.02,.3571,.0116,.5372-.004,.0858-.0278,.1843-.0222,.2691,.0019,.0291,.0972-.5521,.0412-.3219-.0135,.0555-.0208,.1129-.0334,.1687-.0327,.1458-.0821,.2843-.1265,.4264-.0744,.2382,.253-.5275,.071-.1719-.0405,.0791-.0804,.1578-.1257,.2342-.0404,.0682-.0849,.133-.128,.1993-.1878,.2891,.2994-.3543,.1334-.1687-.1106,.1236-.2183,.2461-.3412,.3581-.0495,.0451-.1422,.0982-.1785,.1523-.0158,.0235,.4344-.3155,.2525-.1961-.029,.0191-.0568,.041-.0853,.0607-.1298,.0897-.2652,.1714-.4046,.2452-.0703,.0372-.1427,.0694-.2135,.1054-.2873,.146,.5152-.1963,.1756-.0745-.1513,.0543-.3021,.1064-.4575,.148-.156,.0418-.3135,.0719-.4722,.1012-.354,.0655,.4394-.0433,.2291-.0307-.0892,.0053-.1781,.0166-.2675,.0212-.1514,.0078-.3031,.0086-.4546,.0022-.0798-.0034-.1595-.0087-.239-.0161-.4344-.0406,.3938,.069,.1804,.0262-.303-.0607-.5849-.1429-.8771-.2418-.1929-.0652,.5105,.2338,.2801,.1172-.0379-.0192-.0771-.0361-.1151-.0552-.0758-.0379-.1502-.0784-.2231-.1217-.0727-.0432-.1409-.0923-.2124-.1372-.2608-.1637,.4314,.368,.138,.1062-.1271-.1134-.2399-.2338-.3553-.3586-.2086-.2255,.3193,.4668,.1073,.1317-.0464-.0734-.0931-.1457-.1349-.2219-.0452-.0826-.1923-.4181-.0333-.0402,.1603,.381,.0187,.0338-.0106-.0591-.0284-.09-.0527-.1811-.0732-.2732-.0205-.0923-.0789-.4896-.0218-.0718,.0575,.4207,.0091,.0091,.0052-.091-.0042-.1084-.0039-.2168,.0002-.3253,.0043-.1145,.0179-.2276,.0255-.3417,.015-.2258-.0876,.55-.0332,.2464,.0132-.0733,.0253-.1467,.0394-.2199,.1836-.9541-.2674-2.0565-1.3013-2.292-.9202-.2096-2.095,.2779-2.292,1.3013Z"/></g><g><path d="M276.3301,315.7251c-1.2471,6.2649,9.4397,5.4449,7.3541-.81-1.4238-4.2701-6.5575-3.171-7.3541,.81Z"/><path d="M274.5334,315.2298c-.2523,1.311-.2034,2.5594,.3498,3.7847,.3942,.8732,1.1206,1.6111,1.9435,2.092,1.5887,.9284,3.7164,1.0482,5.4142,.3525,1.0774-.4414,1.9513-1.0669,2.6478-2.0085,.6186-.8363,.914-1.9018,.9288-2.9345,.0379-2.6384-1.6902-5.5653-4.4228-6.0753-3.1946-.5962-6.2058,1.6543-6.8614,4.7891-.199,.9514,.2782,2.0589,1.3013,2.292,.9333,.2126,2.0786-.2811,2.292-1.3013,.0531-.2537,.1207-.5034,.2109-.7466,.0111-.03,.0422-.143,.0607-.1553,.0153-.0102-.2204,.4711-.0879,.2195,.0627-.119,.1204-.2398,.1887-.3559,.0534-.0907,.11-.1795,.1696-.2662,.257-.3733-.2751,.3066-.0333,.0389,.1608-.178,.3208-.351,.5043-.5066,.3087-.2618-.3166,.207-.0862,.0658,.0929-.0569,.1804-.122,.2743-.1778,.093-.0552,.1886-.1036,.2842-.1538,.3676-.1931-.4504,.1527-.0535,.0215,.1783-.0589,.3555-.1079,.5381-.1511,.421-.0996-.4658,.0315-.1193,.0111,.1147-.0068,.228-.016,.343-.0155,.1032,.0004,.205,.0116,.3078,.015,.2728,.0091-.5437-.1127-.1566-.0166,.1003,.0249,.2007,.0455,.3,.0755,.0441,.0133,.0873,.0295,.1314,.0428,.3316,.1002-.3609-.1756-.1866-.0846,.1797,.0939,.3492,.1989,.5251,.2983,.2105,.1189-.1954-.1467-.2013-.1598,.0105,.0233,.0892,.0737,.114,.0954,.0957,.0836,.1867,.1726,.2729,.266,.0443,.048,.084,.1013,.1292,.1481,.1478,.1527-.2576-.3684-.1429-.1864,.0668,.106,.1431,.2055,.2078,.3132,.0601,.0999,.1161,.2023,.1683,.3065,.0271,.054,.0514,.1091,.078,.1633,.1547,.3143-.1558-.4408-.0448-.0983,.0707,.2179,.1464,.4317,.2004,.6548,.0252,.1041,.0441,.2089,.0659,.3137,.0847,.4077-.0372-.5025-.0133-.0935,.0105,.1797,.02,.3571,.0116,.5372-.004,.0858-.0278,.1843-.0222,.2691,.0019,.0291,.0972-.5521,.0412-.3219-.0135,.0555-.0208,.1129-.0334,.1687-.0327,.1458-.0821,.2843-.1265,.4264-.0744,.2382,.253-.5275,.071-.1719-.0405,.0791-.0804,.1578-.1257,.2342-.0404,.0682-.0849,.133-.128,.1993-.1878,.2891,.2994-.3543,.1334-.1687-.1106,.1236-.2183,.2461-.3412,.3581-.0495,.0451-.1422,.0982-.1785,.1523-.0158,.0235,.4344-.3155,.2525-.1961-.029,.0191-.0568,.041-.0853,.0607-.1298,.0897-.2652,.1714-.4046,.2452-.0703,.0372-.1427,.0694-.2135,.1054-.2873,.146,.5152-.1963,.1756-.0745-.1513,.0543-.3021,.1064-.4575,.148-.156,.0418-.3135,.0719-.4722,.1012-.354,.0655,.4394-.0433,.2291-.0307-.0892,.0053-.1781,.0166-.2675,.0212-.1514,.0078-.3031,.0086-.4546,.0022-.0798-.0034-.1595-.0087-.239-.0161-.4344-.0406,.3938,.069,.1804,.0262-.303-.0607-.5849-.1429-.8771-.2418-.1929-.0652,.5105,.2338,.2801,.1172-.0379-.0192-.0771-.0361-.1151-.0552-.0758-.0379-.1502-.0784-.2231-.1217-.0727-.0432-.1409-.0923-.2124-.1372-.2608-.1637,.4314,.368,.138,.1062-.1271-.1134-.2399-.2338-.3553-.3586-.2086-.2255,.3193,.4668,.1073,.1317-.0464-.0734-.0931-.1457-.1349-.2219-.0452-.0826-.1923-.4181-.0333-.0402,.1603,.381,.0187,.0338-.0106-.0591-.0284-.09-.0527-.1811-.0732-.2732-.0205-.0923-.0789-.4896-.0218-.0718,.0575,.4207,.0091,.0091,.0052-.091-.0042-.1084-.0039-.2168,.0002-.3253,.0043-.1145,.0179-.2276,.0255-.3417,.015-.2258-.0876,.55-.0332,.2464,.0132-.0733,.0253-.1467,.0394-.2199,.1836-.9541-.2674-2.0565-1.3013-2.292-.9202-.2096-2.095,.2779-2.292,1.3013Z"/></g><path d="M269.0779,320.6777c-1.1464,1.2582-2.0201,2.7431-1.8754,4.5058,.133,1.6197,.9068,3.0381,1.9307,4.2685,1.8273,2.1959,4.4089,3.5029,6.6418,5.216,.8895,.6824,2.071,1.568,2.3828,2.6963,.3272,1.1839-.6709,1.3174-1.6376,1.4461-2.9915,.3984-6.1113-.1327-8.8147-1.4605-.9028-.4434-2.0156-.2439-2.5492,.6684-.4802,.8209-.2385,2.1038,.6684,2.5492,3.206,1.5746,6.7999,2.3555,10.3734,2.004,1.642-.1615,3.4446-.4135,4.614-1.7093,1.157-1.2821,1.3992-3.1783,.8417-4.7801-1.0713-3.0782-4.3029-4.8464-6.831-6.5983-1.1318-.7843-2.2876-1.6424-3.1216-2.7547-.9195-1.2264-1.0255-2.2784,.0116-3.4165,1.6123-1.7695-1.0156-4.4122-2.635-2.635h0Z"/><path d="M345.3258,503.4128c4.585,6.2969,9.1701,12.5939,13.7551,18.8908,.6511,.8942,1.3022,1.7884,1.9533,2.6826,.8872,1.2184,2.4282,1.8189,3.8238,1.0026,1.2027-.7035,1.896-2.5969,1.0026-3.8238-4.585-6.2969-9.1701-12.5939-13.7551-18.8908-.6511-.8942-1.3022-1.7884-1.9533-2.6826-.8872-1.2184-2.4282-1.8189-3.8238-1.0026-1.2027,.7035-1.896,2.5969-1.0026,3.8238h0Z"/><path d="M331.2386,514.6215c4.4291,6.3976,8.8582,12.7952,13.2873,19.1928,.6343,.9162,1.2686,1.8324,1.9029,2.7486,.8581,1.2394,2.4502,1.8061,3.8238,1.0026,1.2274-.7179,1.866-2.5767,1.0026-3.8238-4.4291-6.3976-8.8582-12.7952-13.2873-19.1928-.6343-.9162-1.2686-1.8324-1.9029-2.7486-.8581-1.2394-2.4502-1.8061-3.8238-1.0026-1.2274,.7179-1.866,2.5767-1.0026,3.8238h0Z"/><g><path d="M225.5486,380.8516s9.3393,10.2109,20.3312,16.5595c-2.3267-4.1333-3.6916-11.2498,9.4941-17.6447,9.5409-6.2447,10.8206-7.4752,10.8206-7.4752,0,0-24.9783,12.8701-40.6459,8.5604Z"/><path d="M223.5724,382.8278c6.0197,6.5681,13.2051,12.5172,20.8969,16.9965,2.4505,1.427,5.1705-1.4006,3.8238-3.8238-.185-.3329-.3358-.6842-.519-1.0168-.1886-.3423,.1967,.5703-.0464-.1192-.0777-.2203-.1578-.4392-.2262-.6628-.1237-.4044-.1908-.8171-.2952-1.2251-.0985-.3849,.0187,.5761-.0147-.1779-.0113-.254-.0265-.5067-.0231-.7613,.003-.228,.0321-.4553,.0364-.6826,.0075-.3903-.1033,.5354-.0236,.147,.0205-.0999,.0311-.202,.0542-.3014,.0636-.2737,.1233-.5453,.2043-.8147,.0581-.1931,.3356-.9148,.1013-.37,.2217-.5154,.4959-1.0105,.7994-1.4819,.0604-.0939,.6004-.8373,.3411-.5086,.2373-.3008,.4946-.5874,.7574-.8658,2.7062-2.867,6.4105-4.3512,9.6516-6.4975,2.3131-1.5318,4.6256-3.0711,6.8726-4.6991,.744-.539,1.5408-1.0615,2.2075-1.6953,2.3765-2.2594-.6394-5.8024-3.3868-4.3895-.8311,.4274-1.6791,.8237-2.5279,1.2144-.9385,.432-1.8842,.8478-2.8336,1.2554-.6201,.2662,.2566-.1018-.393,.1646-.3008,.1233-.6009,.2479-.9022,.37-.6847,.2775-1.3721,.5485-2.062,.8127-6.0977,2.3354-12.8829,4.3921-19.0862,5.021-1.8883,.1915-3.7905,.2739-5.6876,.1922-1.9211-.0828-3.0526-.2304-4.9998-.7516-3.4787-.9311-4.9628,4.4593-1.4859,5.3899,7.091,1.8981,14.7411,.8172,21.745-.9417,6.0651-1.5232,11.9565-3.7289,17.6557-6.29,1.1427-.5135,2.2843-1.0373,3.3988-1.6105l-3.3868-4.3895c-.0888,.0844-.1899,.1821-.2935,.2457-.5577,.342,.5916-.4363,.0231-.0181-.2688,.1977-.5356,.3979-.8058,.5937-2.4825,1.7989-5.0427,3.493-7.6014,5.1807-3.5815,2.3623-7.557,4.0134-10.4483,7.3234-1.9906,2.2789-3.3227,4.9582-3.4998,8.0088-.1455,2.5061,.6695,5.0052,1.874,7.1725,1.2746-1.2746,2.5492-2.5492,3.8238-3.8238-7.3058-4.2546-14.0511-9.8874-19.7656-16.1225-2.4358-2.6577-6.3803,1.3035-3.9524,3.9524Z"/></g><g><line x1="286.5363" y1="385.8329" x2="307.9283" y2="372.2912"/><path d="M287.9469,388.2461c6.2538-3.9588,12.5075-7.9175,18.7613-11.8763,.8769-.5551,1.7539-1.1102,2.6308-1.6654,1.2741-.8065,1.7838-2.4884,1.0026-3.8238-.7429-1.2701-2.5433-1.8133-3.8238-1.0026-6.2538,3.9588-12.5075,7.9175-18.7613,11.8763-.8769,.5551-1.7539,1.1102-2.6308,1.6654-1.2741,.8065-1.7838,2.4884-1.0026,3.8238,.7429,1.2701,2.5433,1.8133,3.8238,1.0026h0Z"/></g><g><line x1="295.6321" y1="401.8843" x2="317.0242" y2="388.3427"/><path d="M297.0427,404.2976c6.2538-3.9588,12.5075-7.9175,18.7613-11.8763,.8769-.5551,1.7539-1.1102,2.6308-1.6654,1.2741-.8065,1.7838-2.4884,1.0026-3.8238-.7429-1.2701-2.5433-1.8133-3.8238-1.0026-6.2538,3.9588-12.5075,7.9175-18.7613,11.8763-.8769,.5551-1.7539,1.1102-2.6308,1.6654-1.2741,.8065-1.7838,2.4884-1.0026,3.8238,.7429,1.2701,2.5433,1.8133,3.8238,1.0026h0Z"/></g><g><line x1="303.6578" y1="417.4008" x2="325.0499" y2="403.8591"/><path d="M305.0684,419.814c6.2538-3.9588,12.5075-7.9175,18.7613-11.8763,.8769-.5551,1.7539-1.1102,2.6308-1.6654,1.2741-.8065,1.7838-2.4884,1.0026-3.8238-.7429-1.2701-2.5433-1.8133-3.8238-1.0026-6.2538,3.9588-12.5075,7.9175-18.7613,11.8763-.8769,.5551-1.7539,1.1102-2.6308,1.6654-1.2741,.8065-1.7838,2.4884-1.0026,3.8238,.7429,1.2701,2.5433,1.8133,3.8238,1.0026h0Z"/></g><g><path d="M189.439,364.4947c2.9022-5.2415,3.5388-11.41,3.8406-17.3938-6.403-.6543-11.584-5.8419-14.2612-11.6951-1.1591-2.5341-1.9638-5.331-1.5937-8.0929,.6677-4.9831,5.3247-8.9021,10.3216-9.4574s10.0374,1.8616,13.3972,5.6017,5.1872,8.6552,5.9862,13.6189c3.9952-4.5346,3.251-11.507,1.3504-17.2439-1.9006-5.7369-4.7565-11.4539-4.2315-17.4747,.101-1.1581,.3416-2.3384,.9827-3.3081,3.0877-4.6708,7.4395-.5636,10.6775,.7136,3.913,1.5435,8.6627-1.1819,11.2663-4.158,3.155-3.6063,4.4736-8.5677,4.3222-13.3569-.0324-1.0254-.1438-2.0982-.7131-2.9517s-1.7298-1.3934-2.6562-.9528c-1.0477,.4983-1.2743,1.8965-1.1359,3.0483,.6325,5.2638,5.8163,8.9322,11.0016,10.0372,4.5511,.9698,9.4633,.456,13.5614-1.7483,4.0981-2.2043,7.2974-6.1513,8.2787-10.6999,.6761-3.1342,.1935-6.7026-2.0343-9.0084-.7211-.7464-1.6803-1.3606-2.7173-1.3202-1.0371,.0404-2.0645,.9612-1.9146,1.9882,.0536,.3671,.2414,.6994,.4353,1.0157,3.6151,5.8964,10.83,9.3677,17.6934,8.5129,22.3304-2.7812,14.7519-28.9383,2.6207-38.8657-8.1815-6.6952-18.6927-9.8754-29.1191-11.6225-19.2113-3.2191-39.7236-1.8826-56.9442,7.2216-18.2999,9.6747-31.6093,27.7894-36.6997,47.854-8.5427,33.6733-.181,76.1741,23.8361,102.1563,2.7338-4.6288,3.2687-9.0354,.1243-13.635,6.0907,.1064,11.4106-3.5204,14.3246-8.7833Z"/><path d="M191.8522,365.9053c3.1331-5.7923,3.8865-12.3265,4.2222-18.8044,.0846-1.6324-1.3586-2.6283-2.7948-2.7948-3.5964-.4168-6.8395-2.8871-9.0947-5.7206-2.3189-2.9136-4.6977-7.3754-3.9466-11.2178,.6617-3.385,3.7033-5.8772,7.0397-6.6147,3.7086-.8198,7.9655,.9227,10.7744,3.5453,3.781,3.5303,5.5497,8.5291,6.3824,13.5209,.3369,2.0197,3.3784,2.7531,4.6712,1.2333,2.9983-3.525,4.0401-8.0213,3.6178-12.5797-.4519-4.8776-2.2703-9.2647-3.8612-13.846-.7976-2.297-1.5937-4.6988-1.8074-7.1343-.1704-1.9414-.3262-4.1743,1.1398-5.6393,.1149-.1148,.0838-.0904,.3638-.1658,.5859-.1577,.2076-.0218,.0936-.0176,.183-.0067,.3837-.0023,.5674,.0205-.3671-.0455,.5082,.1666,.6955,.2285,.303,.1001,.5914,.2312,1.0617,.4672,1.7017,.8539,3.3555,1.9787,5.2421,2.384,4.684,1.0061,9.5767-1.5488,12.697-4.9265,3.3293-3.604,4.9727-8.3583,5.3275-13.1931,.1811-2.4679,.1769-5.3315-1.4831-7.3298-1.7724-2.1335-5.0355-2.626-7.1015-.5987-3.4954,3.43-.5186,9.5511,2.2497,12.388,6.5761,6.739,18.4679,7.2909,26.1941,2.3122,3.879-2.4996,6.9209-6.3214,8.1958-10.7849,1.2523-4.3842,.6658-9.8903-2.9551-13.0404-2.1633-1.8821-5.4318-2.4899-7.6346-.2917-2.2104,2.2058-1.206,4.9617,.4206,7.1349,2.745,3.6673,6.5624,6.3501,10.939,7.7164,6.7443,2.1054,15.3234,.6331,20.4754-4.415,8.7488-8.5725,4.3143-23.3489-1.8618-32.0234-10.4218-14.6376-30.3713-18.803-47.228-20.0984-19.1903-1.4747-39.3372,2.0969-55.2955,13.3421-14.4307,10.1687-24.9774,25.3921-29.945,42.2957-4.7864,16.2868-5.129,33.8791-2.4967,50.5663,2.6543,16.8269,8.7262,33.4423,18.5525,47.4292,2.3699,3.3734,4.9524,6.6031,7.7443,9.6367,1.2228,1.3287,3.5186,.9428,4.3895-.5656,1.4606-2.5299,2.5414-5.2896,2.648-8.239,.1063-2.939-.9201-5.791-2.5237-8.2172-.8044,1.4018-1.6088,2.8036-2.4132,4.2054,7.0688,.0354,13.3029-4.1051,16.7378-10.1675,1.7758-3.1341-3.0513-5.9542-4.8265-2.8212-2.5051,4.4213-6.8256,7.4246-11.9114,7.3991-2.0331-.0102-3.5978,2.4132-2.4132,4.2054,1.0992,1.663,1.8333,3.3786,1.7606,5.396-.0701,1.9452-.9284,3.7611-1.8849,5.4179,1.4632-.1885,2.9263-.3771,4.3895-.5656-10.1628-11.0428-17.1573-24.7346-21.3748-39.0718-4.3195-14.6839-5.8391-30.1877-4.3519-45.4267,1.4741-15.1046,6.3707-29.71,15.609-41.9423,9.7251-12.8769,23.5912-21.7041,39.2664-25.3867,8.5591-2.0108,17.4031-2.5458,26.1677-2.0454,8.6362,.4931,17.3809,1.8799,25.5791,4.6969,6.6268,2.277,13.1925,5.7555,17.7622,11.1867,.1848,.2196,.3648,.443,.5453,.6662,.4005,.495-.055-.1008,.3191,.4192,.3917,.5445,.7807,1.0889,1.1485,1.6501,.721,1.1002,1.3823,2.2397,1.9813,3.4108,.2715,.5307,.5301,1.0681,.7754,1.6114,.07,.155,.1385,.3107,.2066,.4666-.0456-.1044-.1907-.4696,.0153,.0365,.1277,.3137,.2521,.6287,.3712,.9458,.4555,1.2125,.8435,2.451,1.1504,3.7095,.1453,.5957,.2726,1.1957,.3795,1.7995,.0492,.2781,.0925,.5569,.1341,.8362,.0642,.4302-.0481-.4598-.0069-.0292,.0189,.1976,.0436,.3945,.0616,.5922,.1055,1.1553,.1286,2.3203,.0453,3.4778-.0216,.3004-.0534,.5991-.086,.8984,.0631-.5793-.0068,.0138-.0492,.249-.1038,.5761-.2376,1.1466-.4049,1.7076-.0723,.2425-.1502,.4834-.2352,.7218-.0508,.1424-.4188,.9687-.1184,.3333-.2457,.5196-.4994,1.0303-.8009,1.5205-.132,.2146-.2773,.4198-.4149,.6306-.3747,.5743,.1625-.161-.1545,.2124-.3832,.4514-.7833,.8834-1.2206,1.2832-.224,.2047-.4552,.4023-.6934,.5903,.4302-.3396-.1288,.0791-.2829,.183-.5406,.3647-1.1063,.6909-1.6903,.9811-.1219,.0606-.8277,.3845-.3881,.1978-.329,.1398-.6663,.2629-1.0041,.3795-.7198,.2484-1.4547,.4528-2.1972,.6207-1.6819,.3802-2.9935,.5328-4.8492,.421-3.3175-.1998-6.7411-1.6298-9.2569-3.8524-.6894-.609-1.347-1.2702-1.9257-1.9863-.1989-.2461-.3838-.501-.561-.7636-.1112-.1648-.2536-.4708-.4009-.6224l-.1871-.3223c.2372,.5655,.1745,1.0009-.1879,1.3062-.1627,.1312-.4851,.2469-.4924,.2011-.0021-.0129,.9134,.7769,.9239,.7897,.4688,.5732,.7689,1.2634,.9668,1.9713,.897,3.2095-.3602,6.78-2.3893,9.3358-2.4122,3.0383-5.9963,4.9147-9.8205,5.4359-3.6625,.4991-7.5826-.1249-10.7512-2.0547-1.352-.8234-2.5758-1.9098-3.3711-3.221-.4004-.6601-.606-1.1355-.7906-1.8404-.1014-.3869-.1556-.7607-.1622-.9378-.0019-.0507,.037-.4714,.0099-.4915,.0689,.0514-.0614,.2019-.1076,.219-.1018,.0376-.6056,.2359-.7198,.3136,.149-.1013-.2998,.0183-.3193,.0427-.1151,.1443,.0217,.2734,.0294,.4577,.0393,.9351,.0841,1.859,.0324,2.7987-.1066,1.9389-.5244,3.8934-1.2579,5.6948-1.2833,3.1517-3.8796,6.1005-7.2048,7.1396-.7883,.2463-1.5206,.4019-2.3558,.3129-.8251-.0879-1.0513-.253-1.7037-.585-1.5696-.7989-3.0771-1.7174-4.7561-2.2832-4.2585-1.435-8.3809,1.0949-9.5563,5.3622-1.2386,4.4966,.0182,9.5061,1.4785,13.789,1.3523,3.9663,3.1307,7.8597,3.7291,12.0396,.4574,3.1948,.2654,6.836-1.899,9.3805l4.6712,1.2333c-.9433-5.6547-3.1791-11.2868-7.2492-15.4315-4.0058-4.0792-9.8072-6.5414-15.5487-5.7469-5.2258,.7231-9.8504,4.2932-11.732,9.2369-2.0633,5.421,.3465,11.7478,3.4991,16.2532,3.4738,4.9646,8.3784,8.543,14.4858,9.2508-.9316-.9316-1.8632-1.8632-2.7948-2.7948-.283,5.4597-.8134,11.092-3.4591,15.9832-1.7116,3.1644,3.1126,5.9897,4.8265,2.8212Z"/></g><g><path d="M164.9484,294.8606c2.5367-3.8307,3.1623-8.8631,1.6406-13.1983-1.5216-4.3352-5.1552-7.8726-9.5296-9.2775-6.5472-2.1027-13.6382,.4974-19.7413,3.666-2.188,1.136-4.6869,3.125-4.0047,5.4941,.2591,.9,1.3081,1.6869,2.1093,1.2019,.5471-.3312,.6796-1.0638,.6687-1.7032-.2765-16.2593-32.1975-4.4486-38.1856,.9382-14.5714,13.1081-12.6375,38.5917,1.1969,51.5538,1.278,1.1974,3.1464,2.3392,4.6644,1.4659,1.0452-.6013,1.4253-2.0094,1.1114-3.1737-.3139-1.1643-1.1823-2.1038-2.1458-2.8306-10.9594-8.2652-32.5064,3.9242-41.0517,11.2444-9.476,8.1174-15.7729,20.3026-15.3511,32.7731,.3146,9.2991,6.8728,27.244,18.6768,26.8146,3.4604-.1259,6.832-3.9347,5.163-6.9686-4.2916,3.4646-6.3968,9.1718-6.3016,14.6865s2.1832,10.8427,5.0619,15.5474c8.3634,13.6686,23.9225,22.6389,39.942,23.0278,8.9447,.2172,19.1204-3.1015,22.4864-11.3915,1.0106-2.4889,1.2256-5.5635-.4356-7.6746-1.6612-2.111-5.5933-2.254-6.7268,.1814-.7448,1.6001-.0488,3.5063,.9305,4.9746,2.908,4.3601,8.1757,6.7494,13.4017,7.1432s10.4353-.9864,15.3246-2.8736c11.7387-4.5309,22.9672-13.0582,26.1406-25.2343,2.1646-8.3056,.3088-17.0791-1.7714-25.4062-3.5713-14.296-7.7993-28.4253-12.5573-42.3713"/><path d="M167.3616,296.2711c4.1315-6.4385,3.6242-14.857-1.123-20.8013-4.8364-6.056-12.6732-7.6228-19.9594-5.9229-3.7474,.8743-7.4998,2.4503-10.8442,4.3483-3.0221,1.7151-6.0406,4.9455-4.7025,8.6868,.7283,2.0361,2.9632,3.5784,5.1582,2.9758,2.1136-.5802,3.0475-2.7092,2.9895-4.7394-.0569-1.9909-.5403-4.1008-1.6652-5.773-4.8088-7.1489-15.7188-5.3057-22.7542-3.4678-4.1595,1.0866-8.231,2.5948-12.11,4.4475-3.3407,1.5956-6.2665,3.5179-8.7338,6.3161-7.9014,8.9607-10.0718,21.5517-7.5889,33.0254,1.2028,5.5581,3.5696,10.9796,7.0086,15.5202,1.8427,2.433,4.053,5.2884,6.8976,6.5714,1.9997,.9019,4.3825,.891,6.0776-.6638,1.4754-1.3533,2.0189-3.4525,1.63-5.3869-.6164-3.066-3.5047-5.1984-6.2148-6.3828-2.5328-1.107-5.2488-1.5963-8.0119-1.5887-5.8924,.0163-11.6417,1.9586-16.9609,4.3405-10.7688,4.8223-20.701,12.2043-26.7845,22.4717-3.6198,6.1093-5.8455,13.0729-6.1264,20.1848-.1985,5.0255,.8137,10.0825,2.553,14.7852,1.8228,4.9283,4.4379,9.9633,8.5046,13.4186,4.1908,3.5607,10.7162,5.7984,15.528,2.0612,2.8865-2.2419,4.1134-5.8838,2.4539-9.2479-.8622-1.7478-3.1096-1.6269-4.3895-.5656-7.9293,6.5748-8.5279,18.126-4.9238,27.1173,3.4884,8.7027,9.7639,16.0485,17.3704,21.4486,7.4007,5.2539,16.1816,8.465,25.2119,9.2923,8.2063,.7518,17.3623-.8383,23.6267-6.5615,3.1391-2.8679,5.6623-7.2569,5.4526-11.6207-.1237-2.5739-1.1451-5.1137-3.3187-6.6134-1.7345-1.1968-4.0642-1.6115-6.1049-1.0546-2.4059,.6565-4.0875,2.6543-4.356,5.1215-.3038,2.7916,1.1629,5.3015,2.8918,7.3669,2.8844,3.4457,7.3132,5.6396,11.6923,6.4117,5.311,.9364,10.7117,.1247,15.8024-1.5253,4.45-1.4424,8.7973-3.3786,12.8003-5.8035,7.6508-4.6346,14.2514-11.1998,17.4586-19.6754,3.8709-10.2299,1.2355-21.3829-1.3544-31.5738-2.7919-10.9858-5.9686-21.8725-9.4723-32.6521-.8509-2.618-1.7225-5.2292-2.6103-7.835-.4866-1.4282-1.9204-2.369-3.4379-1.952-1.3914,.3824-2.4409,2.0029-1.952,3.4379,3.2378,9.5033,6.2368,19.0877,8.947,28.755,1.3518,4.822,2.639,9.6635,3.8362,14.5264,1.1204,4.551,2.1484,9.1571,2.3672,13.853,.2005,4.3039-.2856,8.6399-1.9812,12.6338-1.4012,3.3005-3.5129,6.2767-5.9921,8.8501-5.249,5.4485-12.0955,9.3086-19.2139,11.7511-7.3886,2.5352-16.9477,3.65-22.6955-2.8732-.5278-.5991-1.0313-1.2924-1.3354-2.0357-.1168-.2854-.1611-.605-.2233-.8938-.0633-.2935-.1939,1.2129,.0653-.425-.0119,.0752-.2138,.3216-.0235,.0677,.1668-.2225,.0328-.0385-.0497,.0118,.4432-.2701,.1935-.1129,.0602-.0713,.1761-.0548,.3497-.112,.5322-.144-.1382,.0242-.46,.0263,.0982,.0177,.3938-.006,.8442,.0772,1.3145,.4502-.2365-.1876,.1247,.1993,.1581,.2478,.1961,.2844,.294,.5494,.3833,.8737,.2051,.7455,.1695,1.5622,.018,2.3228-.317,1.5908-1.0899,3.0986-2.0515,4.3424-3.9835,5.1525-11.4412,6.9202-17.801,6.8618-7.4925-.0687-14.9317-2.22-21.4492-5.8799-6.6182-3.7165-12.3648-8.9963-16.3917-15.4498-4.1711-6.6847-6.9477-15.4724-2.9321-22.8929,.9066-1.6753,2.0704-3.0612,3.5359-4.2762-1.4632-.1885-2.9263-.3771-4.3895-.5656-.0067-.0137,.0621,.4381,.0884,.2735-.0767,.4787-.1215,.5807-.369,.9408-.3316,.4824-.99,1.0789-1.5655,1.3191-.8235,.3438-1.4366,.2678-2.3846,.1858-.5006-.0433,.6445,.1333-.1698-.0255-.1709-.0333-.3411-.0659-.5109-.105-.4654-.107-.9138-.2526-1.3651-.407-.1225-.0419-.6342-.2727-.171-.0617-.1575-.0718-.3139-.1468-.4684-.2249-.3893-.1968-.7685-.414-1.1367-.6479-.9027-.5734-.8483-.5397-1.6607-1.286-.651-.598-1.2577-1.2432-1.8252-1.9207-.3944-.4708-.9216-1.189-1.4479-2.0014-2.1127-3.2612-3.3409-6.2581-4.3739-9.935-.4668-1.6616-.8334-3.3495-1.0872-5.0567,.089,.5984-.0496-.4357-.0662-.5995-.0351-.3468-.0647-.6942-.0862-1.0422-.0707-1.1451-.0676-2.2963-.016-3.4421,.4434-9.8436,5.3392-19.1851,12.311-25.9981,.795-.7769,1.6177-1.5256,2.4678-2.2418,.2744-.2312,.5518-.459,.8316-.6837,.163-.1309,.3269-.2604,.4914-.3894,.152-.1187,.1335-.1047-.0554,.0421,.105-.0803,.2103-.1602,.3159-.2396,1.5141-1.1269,3.0639-2.2004,4.6595-3.209,3.4031-2.1511,7.1845-4.1868,10.7813-5.6203,1.9556-.7794,3.9556-1.4554,5.9971-1.9722,2.0391-.5163,3.4944-.7795,5.4328-.8712,.8808-.0417,1.7644-.0366,2.6439,.0287,.2381,.0177,.4757,.0397,.7129,.0667,.5323,.0607-.6447-.1206,.2377,.0372,.4572,.0818,.9117,.1738,1.3612,.2911,1.4778,.3856,2.8268,.9229,3.9898,1.9595,.36,.3208,.7264,.6637,.8946,1.1315-.1022-.2842-.0424,.4976-.0075,.1285,.0004-.0042,.223-.1635,.1956-.1877-.1396-.1229-.7292-.4301-.9952-.6423-1.4293-1.14-2.8879-2.9001-3.8333-4.1868-2.4406-3.3215-4.1712-6.8099-5.3327-10.6292-2.3369-7.6846-2.3158-16.0056,.8336-23.5328,.6024-1.4398,1.7093-3.4576,2.7474-4.9774,1.0343-1.5142,2.3381-3.0023,3.8147-4.3576,.1716-.1575,.4522-.3456,.6062-.5305,.2432-.292-.5763,.403-.0423,.0364,.4205-.2887,.8371-.5785,1.2713-.8471,1.0418-.6445,2.1263-1.2199,3.2258-1.7589,.583-.2858,1.1716-.5603,1.7643-.8252,.3107-.1389,.6228-.2748,.9357-.4089-.5638,.2415,.5679-.2309,.7392-.2994,1.4477-.5785,2.9155-1.1071,4.3995-1.5846,1.5704-.5053,3.1595-.9541,4.7654-1.3324,.7346-.173,1.4728-.3313,2.2143-.4721,.3656-.0694,.7319-.1345,1.099-.1951,.202-.0333,.4044-.0643,.6067-.096,.1414-.0221,.8686-.1111,.2201-.0335,1.4554-.1742,2.9167-.2875,4.3836-.2605,.6434,.0118,1.2786,.076,1.9195,.1197,.5132,.035-.0472-.0073-.132-.0214,.1984,.0328,.3972,.0618,.595,.0987,.32,.0597,.6384,.1291,.9535,.211,.274,.0713,.5457,.1513,.814,.2418,.2102,.0709,.9871,.4477,.2667,.0822,.5258,.2667,1.0125,.5492,1.5079,.8681-.6842-.4404,.0307,.0434,.2093,.2184,.161,.1578,.3005,.3355,.4579,.4958-.561-.5713,.0266,.0539,.1561,.2696,.1518,.2528,.2779,.5167,.4036,.7829-.3583-.7585,.0343,.1876,.0873,.38,.0696,.2527,.1058,.5135,.1727,.766,.1716,.6478-.0042-.613,.0116,.0786,.0033,.1432,.0248,.2893,.032,.4321,.0065,.129-.0103,.3149,.0159,.4465,.1547,.7773-.0244-.3972,.4407-.5938l1.4106-.3816c.4805-.0531,.6909,.5405,.849,.8106-.0111-.3615-.005-.4321,.0181-.2121-.0971,.1591-.0557,.0834,.1239-.2271,.4953-.5128,.9807-1.0253,1.6432-1.4379,1.8466-1.15,3.9215-2.0634,5.9553-2.8268,4.0743-1.5293,8.5162-2.4608,12.7555-1.0358,3.2318,1.0863,5.9973,3.7638,7.2732,6.9165,1.5241,3.7663,.9347,8.0196-1.2309,11.3945-1.9484,3.0364,2.8877,5.8425,4.8265,2.8212h0Z"/></g><path d="M247.8026,352.9351c2.8665,.8932,5.7331,1.7864,8.5996,2.6795,.9307,.29,2.0736-.3427,2.292-1.3013,.2305-1.0122-.3048-1.9814-1.3013-2.292-2.8665-.8932-5.7331-1.7864-8.5996-2.6795-.9307-.29-2.0736,.3427-2.292,1.3013-.2305,1.0122,.3048,1.9814,1.3013,2.292h0Z"/><path d="M243.6597,307.8057c.3049-.3361,.6267-.6546,.9721-.9491,.1013-.0864,.2039-.1713,.3087-.2534-.139,.1088-.135,.1008,.0061,.0035,.1755-.1211,.3501-.2425,.5306-.3562,.3835-.2413,.7828-.4576,1.1934-.649,.1468-.0684,.3148-.1344,.0683-.0361,.0991-.0395,.1984-.0788,.2984-.1161,.2251-.0839,.4529-.1602,.6829-.2294,.4343-.1307,.8766-.2354,1.3237-.3119,.1051-.018,.2106-.0349,.3162-.0496-.17,.0237-.2179,.0251-.0188,.0095,.2393-.0187,.4779-.0384,.7179-.0458,.4538-.014,.9042,.0084,1.3564,.0449,.1998,.0161,.1495,.0179-.0196-.0084,.1053,.0163,.2106,.0325,.3155,.0513,.2628,.047,.5226,.1065,.7812,.1724,.9431,.2405,2.0656-.3074,2.292-1.3013,.2207-.9691-.2909-2.0343-1.3013-2.292-4.4276-1.1289-9.375,.2822-12.4586,3.6817-.6548,.7218-.7662,1.9316,0,2.635,.7139,.6554,1.9356,.771,2.635,0h0Z"/><path d="M275.228,308.1792c.7271-.254,1.4652-.4725,2.2155-.647,.3213-.0747,.6444-.1418,.9689-.2012,.2164-.0396,.4337-.0727,.6508-.1086,.41-.0678-.2934,.028,.1586-.0215,1.4807-.1622,2.9607-.1878,4.4447-.0508,.9733,.0899,1.9054-.9211,1.8632-1.8632-.0487-1.0863-.8205-1.7669-1.8632-1.8632-3.1679-.2924-6.426,.113-9.429,1.1621-.918,.3207-1.6257,1.2896-1.3013,2.292,.2937,.9077,1.3068,1.6455,2.292,1.3013h0Z"/></g><path d="M428.8241,192.6582c10.0922,13.0073,20.7446,25.58,31.3756,38.1468,11.4527,13.5381,22.9885,27.007,34.3179,40.6489,5.6945,6.8569,11.3444,13.7543,16.8087,20.7968,.9261,1.1936,2.9794,.9731,3.9524,0,1.1781-1.1781,.9285-2.7557,0-3.9524-10.1931-13.1371-20.9557-25.8321-31.6941-38.5232-11.4725-13.5588-23.0267-27.0497-34.3693-40.7179-5.5687-6.7105-11.0929-13.4612-16.4388-20.3512-.9261-1.1936-2.9794-.9731-3.9524,0-1.1781,1.1781-.9285,2.7557,0,3.9524h0Z" style="fill:#f953b2;"/><path d="M511.0884,262.3264c2.6561,7.7018,5.3122,15.4036,7.9684,23.1055,.4919,1.4264,1.9165,2.3701,3.4379,1.952,1.3871-.3812,2.4463-2.0046,1.952-3.4379-2.6561-7.7018-5.3122-15.4036-7.9684-23.1055-.4919-1.4264-1.9165-2.3701-3.4379-1.952-1.3871,.3812-2.4463,2.0046-1.952,3.4379h0Z" style="fill:#f953b2;"/><path d="M53.1107,759.2975c1.8033-2.705,3.6067-5.41,5.41-8.115,.8129-1.2193,.278-3.1472-1.0026-3.8238-1.4056-.7426-2.9563-.2986-3.8238,1.0026-1.8033,2.705-3.6067,5.41-5.41,8.115-.8129,1.2193-.278,3.1472,1.0026,3.8238,1.4056,.7426,2.9563,.2986,3.8238-1.0026h0Z" style="fill:#6966ed;"/><path d="M88.4779,757.8869c-.7195,7.4861,.902,15.0767,4.4385,21.6981,.7108,1.3308,2.5569,1.7437,3.8238,1.0026,1.3464-.7875,1.7162-2.4878,1.0026-3.8238-3.1111-5.8249-4.3062-12.3136-3.6754-18.877,.1446-1.5046-1.388-2.7948-2.7948-2.7948-1.6318,0-2.6498,1.2859-2.7948,2.7948h0Z" style="fill:#6966ed;"/><path d="M25.743,734.8844c2.705-.4508,5.41-.9017,8.115-1.3525,.6498-.1083,1.3511-.739,1.6703-1.2844,.3506-.5991,.4991-1.4819,.2817-2.1536-.2188-.6763-.6379-1.3287-1.2844-1.6703-.7028-.3713-1.3726-.4119-2.1536-.2817-2.705,.4508-5.41,.9017-8.115,1.3525-.6498,.1083-1.3511,.739-1.6703,1.2844-.3506,.5991-.4991,1.4819-.2817,2.1536,.2188,.6763,.6379,1.3287,1.2844,1.6703,.7028,.3713,1.3726,.4119,2.1536,.2817h0Z" style="fill:#6966ed;"/></svg>