<?xml version="1.0" encoding="UTF-8"?><svg id="Layer_2" xmlns="http://www.w3.org/2000/svg" width="1000" height="1000" viewBox="0 0 1000 1000"><g><g><rect x="646.7715" y="143.238" width="206.9645" height="206.9645" transform="translate(46.6541 -112.0263) rotate(8.8124)" style="fill:#f4d13b;"/><rect x="500.8942" y="118.8268" width="183.7968" height="206.9645" transform="translate(41.0555 -88.1915) rotate(8.8124)" style="fill:#f953b2;"/></g><path d="M759.868,113.0597h25.227v235.648c0,6.3325-5.1412,11.4737-11.4737,11.4737h-2.2796c-6.3325,0-11.4737-5.1412-11.4737-11.4737V113.0597h0Z" transform="translate(45.3692 -115.5508) rotate(8.8124)" style="fill:#6966ed;"/><path d="M594.5211,87.4259h25.227v235.648c0,6.3325-5.1412,11.4737-11.4737,11.4737h-2.2796c-6.3325,0-11.4737-5.1412-11.4737-11.4737V87.4259h0Z" transform="translate(39.4902 -90.5223) rotate(8.8124)" style="fill:#6966ed;"/><g><rect x="501.4129" y="89.5693" width="201.6697" height="35.0089" transform="translate(23.5131 -91.0003) rotate(8.8124)" style="fill:#f953b2;"/><rect x="676.3645" y="117.5015" width="212.1128" height="35.0089" transform="translate(29.9192 -118.2731) rotate(8.8124)" style="fill:#f4d13b;"/></g><path d="M579.8293,85.8847l1.149-7.4113c1.2821-8.27,9.0256-13.9348,17.2956-12.6527l205.5849,31.8718c8.27,1.2821,13.9348,9.0256,12.6527,17.2956l-1.149,7.4113-235.5332-36.5147Z" style="fill:#6966ed;"/><rect x="788.0105" y="116.1803" width="25.227" height="39.1276" transform="translate(30.2472 -121.0531) rotate(8.8124)" style="fill:#6966ed;"/><rect x="600.9803" y="91.3283" width="25.227" height="35.0089" transform="translate(23.9165 -92.7178) rotate(8.8124)" style="fill:#6966ed;"/><g><path d="M705.0671,104.1515c.1655,.1667,.4045,.4057,.732,.7315-.0544-.0568-.1088-.1132-.163-.169-.1889-.1883-.3773-.3771-.569-.5625Z" style="fill:#6966ed;"/><path d="M791.1737,57.7164c-9.5021-13.2617-27.027-16.9525-42.3608-16.8403-15.9918,.1172-31.3724,5.5642-44.4852,14.4148-4.0059-5.4375-8.9687-10.2822-13.8699-14.2856-9.8235-8.0237-22.4954-14.9543-35.3797-15.8608-6.8002-.4784-13.8712,.136-20.0423,3.2754-7.3716,3.7502-13.1488,9.3696-17.0796,16.6673-6.1656,11.4467-2.8235,25.1692,4.9091,34.9148,5.1355,6.4723,11.4695,11.6636,18.5268,15.8704,2.5708,1.5324,6.9428,1.2755,9.5995,.2277,2.7626-1.0895,5.6284-3.6192,6.7426-6.4273,2.5248-6.3627,.1319-11.9797-5.0374-15.5903,.8638,.5484,1.6935,1.0621,.5104,.2647-.8337-.5618-1.6635-1.1262-2.474-1.7216-2.3596-1.7332-4.5346-3.6512-6.6349-5.6806-.1447-.1618-.289-.3241-.4296-.4895-.6346-.7469-1.2434-1.516-1.8191-2.3091-.4326-.5962-.8285-1.2125-1.2258-1.8301-.1182-.2316-.238-.4627-.3419-.6986-.2779-.6313-.493-1.2785-.7195-1.9244-.0476-.2736-.0944-.5476-.1247-.8244-.0276-.251-.0296-.5152-.0399-.7765,.017-.2042,.0374-.4251,.0615-.646,.0373-.0816,.0777-.1712,.1243-.2776,.2087-.476,.4111-.9523,.6437-1.4173,.2222-.332,.4377-.6717,.6769-.981,.393-.5083,.8048-1.0005,1.2315-1.4807,.1353-.1521,.4641-.4857,.7347-.7616,.0236-.0199,.0473-.0397,.0662-.0551,.5082-.4141,1.0325-.8086,1.5739-1.1783,.1087-.0742,.3128-.2007,.5313-.3339,.1043-.051,.1981-.0958,.2659-.126,.1642-.0727,1.3936-.5438,2.2968-.8654,.5112-.0916,1.0257-.1688,1.5414-.2292,.5369-.0632,1.0762-.1094,1.6159-.1404,.1575-.009,.4412-.0144,.7275-.0186,.0282,.0018,.0577,.0039,.081,.0057,.5596,.044,1.1175,.1028,1.6742,.1746,1.2298,.1583,2.451,.381,3.6594,.6586,.3278,.0752,.6533,.1585,.9786,.2428,1.1647,.4221,2.3307,.8261,3.4757,1.304,2.3805,.9938,4.6903,2.1553,6.9232,3.4462,.0175,.0102,.0348,.021,.0523,.0313,.3215,.2037,.646,.4038,.9602,.6136,1.1368,.7593,2.2511,1.5522,3.3425,2.3754,2.3251,1.7532,4.5462,3.6449,6.6433,5.6653,.3923,.378,.7747,.7655,1.1594,1.151,.0117,.0135,.0211,.0244,.0334,.0384,.9,1.0295,1.7944,2.059,2.6388,3.1356,.8092,1.0315,1.5835,2.0901,2.314,3.1788,.3519,.5245,.6947,1.0553,1.025,1.5937,.0326,.0531,.0765,.1271,.1254,.21,.129,.2491,.2595,.503,.3269,.6446,.2453,.5151,.4779,1.0364,.6956,1.5638,.4419,1.0712,.8126,2.164,1.1204,3.2808,1.1211,4.067,5.6601,7.0703,9.6056,7.682,.6964,.108,1.3677,.1489,2.0207,.1416-.2173,.381-.4172,.7687-.576,1.1689-1.9894,5.0134-.9807,11.2246,3.4736,14.6591,.6426,.4955,1.242,1.0409,1.8247,1.6044-.6993-.7039-.1012-.1289,.569,.5625,.3953,.3939,.7883,.7898,1.1841,1.1813-.4112-.4065-.7457-.7384-1.0211-1.0123,.2471,.2577,.4901,.5177,.6682,.7229,.6408,.7379,1.2635,1.4917,1.8692,2.2588,1.5307,1.9386,2.9517,3.9636,4.2663,6.0547,.7186,1.1433,3.1249,5.722,.7542,1.1206,.753,1.4616,1.5269,2.9052,2.2213,4.397,1.4216,3.0542,2.6452,6.1997,3.6735,9.4076,.3052,.9523,.5933,1.9102,.8644,2.8728,.0728,.2584,.1693,.6538,.2585,1.034,.3854,1.7542,.765,3.5054,1.0609,5.2805,.7614,4.5693,1.176,9.1941,1.2841,13.8244,.0307,1.3132-.0181,2.6295,.019,3.9414-.1248-4.4205-.0349,.3083-.0994,1.4623-.1754,3.1373-.4791,6.2671-.8963,9.3814-.9423,7.0338-2.479,13.9676-4.4148,20.7919-.8021,2.8276,.585,6.9292,2.2378,9.1883,1.7895,2.4462,5.0168,4.5796,8.0795,4.9149,3.1798,.3481,6.6158-.1814,9.1884-2.2378,2.7314-2.1831,3.9678-4.7409,4.9148-8.0795,6.3137-22.2578,7.6709-45.6472,1.5017-68.0664-1.2659-4.6004-2.9351-9.1858-4.9824-13.6144,.3554,.0177,.7107,.0375,1.0663,.0521,8.1818,.3351,16.4279,.2721,24.4512-1.5408,12.4287-2.8081,24.4035-8.7071,30.3213-20.6058,4.7469-9.5447,3.1773-21.1995-2.9328-29.7273Zm-151.3036-1.8075c-.0339,.012-.1567,.3174-.2885,.6861,.0726-.3688,.1662-.6428,.2885-.6861Zm8.0568-6.052c.3765-.1295,.6441-.2118,.6505-.1865,.007,.0277-.2902,.104-.6505,.1865Zm124.3639,26.4005s0,.0001,0,.0001c-.0172,.0103-.0343,.0272-.0515,.0407,.0184-.017,.0358-.0313,.0515-.0409Zm-62.3554,5.7852c.2208-.1988,.5415-.4644,.7647-.7091,.0265-.0232,.0531-.0463,.0795-.0695-.8474,1.3293-1.2524,1.2726-.8442,.7786Zm10.19,49.5734c.0759,.3469,.1521,.6933,.2282,1.0397-.0628-.2849-.1383-.6287-.2282-1.0397Zm.2511,1.1435c.2296,.9796,.4075,1.8464,0,0h0Zm46.9796-51.7836c-.0019,.0011-.0042,.0023-.0061,.0035-.1664,.0849-.3324,.1704-.5006,.25-2.1005,.9944-4.2845,1.7368-6.507,2.3982-.7668,.159-1.5324,.3188-2.304,.4553-1.6593,.2934-3.3305,.5187-5.0068,.6884-1.8331,.1855-3.6724,.305-5.5137,.3684-1.0365,.0357-2.0737,.0534-3.1107,.0554-.2219,.0003-.4438-.0015-.6658-.003-10.4161-.5249-20.6467-2.1022-30.8087-4.4433-.4409-.1015-.8929-.1548-1.3485-.1865,.3883-.3382,.7782-.6744,1.1763-1.0023,1.6865-1.3889,3.4363-2.6995,5.2431-3.9278,1.5288-1.0394,3.1404-1.9336,4.7014-2.9144,.2539-.1317,.5077-.2637,.7634-.392,1.0303-.5171,2.0737-1.0085,3.1273-1.4761,3.3155-1.4714,6.7243-2.628,10.2018-3.635,.2144-.0545,.4287-.1134,.6365-.159,.9428-.2069,1.8898-.3944,2.8402-.5627,1.8593-.3294,3.7311-.5867,5.6109-.7643,1.7194-.1626,3.4445-.262,5.1714-.2908,.0999-.0017,.2137-.0008,.3343,.0016-.2049-.0143-.4313-.0306-.6843-.049,.963,.0702,1.9299,.0812,2.8935,.1572,2.9577,.2333,5.9023,.6923,8.7788,1.4244,.5242,.1881,1.0544,.3607,1.5746,.5611,1.3425,.5173,2.6577,1.1093,3.926,1.7891,.0437,.0234,.0864,.049,.1298,.0732,.2566,.1744,.5125,.35,.7614,.5368,.5179,.3886,1.0222,.7955,1.5069,1.2248,.0116,.0102,.0271,.0248,.0403,.0368,.3274,.3938,.7981,.9514,.9883,1.2208,.0675,.0956,.13,.1945,.1945,.2919,.1659,.3442,.3365,.6876,.4711,1.0431,.0374,.0988,.0697,.1992,.1038,.2991,.0607,.3568,.1159,.7146,.1487,1.0781-.0398,.336-.0848,.6712-.1425,1.0058-.1746,.4184-.3647,.8286-.5642,1.2351-.0132,.0195-.027,.0419-.0396,.0586-.3853,.512-.8055,.9893-1.2335,1.462-.163,.1402-.3255,.2813-.4947,.414-.7662,.6013-1.5672,1.1577-2.3934,1.6733Zm3.9023-3.0768c-.3645,.7419-.2598,.5007,0,0h0Z" style="fill:#6966ed;"/><path d="M751.3907,65.4396c2.9204,.2057,1.1404,.0239,0,0h0Z" style="fill:#6966ed;"/></g></g><g><path d="M589.5036,451.637s15.3303,17.0023,33.4186,13.6719c-4.8986,6.9996-17.2022,10.7264-17.2022,10.7264,0,0,.3889-10.2114-4.8217-12.6993s-11.3947-11.699-11.3947-11.699Z"/><path d="M587.249,453.8917c2.0672,2.2856,4.5196,4.2563,6.9742,6.1017,4.942,3.7155,10.643,6.7261,16.7034,8.0923,4.2603,.9604,8.5467,1.0575,12.8434,.2979-1.2003-1.5614-2.4006-3.1227-3.6009-4.6841-.558,.7792,.2067-.2303-.1435,.2023-.1614,.1993-.3281,.3943-.499,.5856-.347,.3883-.7122,.7606-1.09,1.1189-.423,.4011-.8645,.7807-1.3149,1.1505-.0626,.0514-.6068,.4649-.2396,.1902-.2142,.1603-.4316,.3163-.6503,.4704-1.7315,1.2193-3.5834,2.2642-5.4867,3.1897-.4192,.2038-.8413,.4017-1.2659,.5939-.2177,.0986-1.3485,.5845-.6532,.2945-.6609,.2756-1.3265,.5399-1.9977,.7895-.646,.2402-1.2963,.4747-1.9558,.6756l4.0363,3.0747c.1348-3.7908-.5181-7.9775-2.3359-11.3315-.6-1.1071-1.4054-2.1594-2.373-2.9668-1.0718-.8944-2.33-1.4287-3.4686-2.221-.1213-.0844-.2408-.1721-.3587-.2612,.1128,.0852,.4038,.3426-.0718-.0658-.2376-.204-.4792-.4029-.7134-.6109-.5619-.4989-1.1027-1.0215-1.6286-1.5582-.9963-1.0168-1.938-2.0868-2.8429-3.1853-.2153-.2614-.4286-.5245-.6397-.7893-.1467-.184-.7254-.9361-.3224-.406-.3345-.4401-.6666-.882-.9917-1.3292-.3075-.4232-.6128-.8486-.905-1.2826-.9606-1.4268-2.8092-2.0526-4.3626-1.1439-1.4157,.828-2.1101,2.9276-1.1439,4.3626,2.3221,3.4489,5.0106,6.8295,8.0912,9.6287,1.0851,.986,2.2505,1.9367,3.5053,2.7001,.4834,.2941,.9954,.5345,1.4859,.8152,.1067,.0611,.2065,.1356,.3072,.206-.0358-.0251-.4042-.3618-.1685-.1109,.1964,.2091,.4051,.4107,.6032,.6191-.4804-.5054,.0547,.087,.1686,.2668,.1371,.2164,.2639,.4387,.3831,.6654,.0557,.1059,.373,.7768,.2261,.4415-.1308-.2988,.2087,.5805,.2557,.7234,.352,1.0682,.5062,2.153,.7477,3.2445,.0806,.3641-.0304-.238-.0323-.2568,.0156,.1522,.038,.3037,.0533,.456,.0252,.2512,.0506,.5022,.0709,.7539,.0369,.4569,.063,.9146,.0774,1.3727,.0132,.4206,.0213,.8428,.0064,1.2635-.0725,2.0391,2.1004,3.6645,4.0363,3.0747,7.114-2.1675,14.7037-6.0417,19.1078-12.1918,.7272-1.0155,.4757-2.6312-.2493-3.5414-.8485-1.0652-2.036-1.3753-3.3516-1.1427-1.1848,.2095-2.955,.3463-4.5186,.3118-.8117-.0179-1.6173-.0833-2.4252-.1601,.0104,.001-.5489-.0663-.2576-.0278,.3317,.0439-.36-.0567-.4219-.0668-.3911-.0637-.781-.1347-1.1693-.2135-3.1385-.6371-5.7932-1.6265-8.2998-2.8821-2.4223-1.2134-4.7303-2.6507-6.9178-4.2475-.2429-.1773-.4823-.3592-.7243-.5378-.4574-.3377,.3315,.2709-.2342-.1802-.4482-.3575-.895-.7163-1.3342-1.0849-.6868-.5765-1.36-1.1696-2.0168-1.7801-.6857-.6375-1.3682-1.2879-1.9967-1.9828-1.1556-1.2777-3.3347-1.1747-4.5094,0-1.2708,1.2708-1.1586,3.2284,0,4.5094Z"/></g><path d="M699.6154,233.4851c.1,7.8156,.1999,15.6311,.2999,23.4467,.0144,1.1288,.0289,2.2576,.0433,3.3863,.0524,4.1005,6.4298,4.1118,6.3772,0-.1-7.8156-.1999-15.6311-.2999-23.4467-.0144-1.1288-.0289-2.2576-.0433-3.3863-.0524-4.1005-6.4298-4.1118-6.3772,0h0Z"/><path d="M713.125,233.3122c.1,7.8156,.1999,15.6311,.2999,23.4467,.0144,1.1288,.0289,2.2576,.0433,3.3863,.0524,4.1005,6.4298,4.1118,6.3772,0-.1-7.8156-.1999-15.6311-.2999-23.4467-.0144-1.1288-.0289-2.2576-.0433-3.3863-.0524-4.1005-6.4298-4.1118-6.3772,0h0Z"/><path d="M726.6346,233.1393c.1,7.8156,.1999,15.6311,.2999,23.4467,.0144,1.1288,.0289,2.2576,.0433,3.3863,.0524,4.1005,6.4298,4.1118,6.3772,0-.1-7.8156-.1999-15.6311-.2999-23.4467-.0144-1.1288-.0289-2.2576-.0433-3.3863-.0524-4.1005-6.4298-4.1118-6.3772,0h0Z"/><path d="M606.276,215.6382c-2.6872,7.0681-5.3743,14.1362-8.0615,21.2043-.3819,1.0045-.7638,2.009-1.1457,3.0135-.6121,1.61,.6784,3.4968,2.2271,3.9224,1.7939,.4929,3.308-.6112,3.9224-2.2271,2.6872-7.0681,5.3743-14.1362,8.0615-21.2043,.3819-1.0045,.7638-2.009,1.1457-3.0135,.6121-1.61-.6784-3.4968-2.2271-3.9224-1.7939-.4929-3.308,.6112-3.9224,2.2271h0Z"/><path d="M618.8761,220.5144c-2.6872,7.0681-5.3743,14.1362-8.0615,21.2043-.3819,1.0045-.7638,2.009-1.1457,3.0135-.6121,1.61,.6784,3.4968,2.2271,3.9224,1.7939,.4929,3.308-.6112,3.9224-2.2271,2.6872-7.0681,5.3743-14.1362,8.0615-21.2043,.3819-1.0045,.7638-2.009,1.1457-3.0135,.6121-1.61-.6784-3.4968-2.2271-3.9224-1.7939-.4929-3.308,.6112-3.9224,2.2271h0Z"/><path d="M631.4762,225.3907c-2.6872,7.0681-5.3743,14.1362-8.0615,21.2043-.3819,1.0045-.7638,2.009-1.1457,3.0135-.6121,1.61,.6784,3.4968,2.2271,3.9224,1.7939,.4929,3.308-.6112,3.9224-2.2271,2.6872-7.0681,5.3743-14.1362,8.0615-21.2043,.3819-1.0045,.7638-2.009,1.1457-3.0135,.6121-1.61-.6784-3.4968-2.2271-3.9224-1.7939-.4929-3.308,.6112-3.9224,2.2271h0Z"/><path d="M601.9553,266.9503c9.0145-1.1782,18.1476,.4459,26.0979,4.8908,3.586,2.0049,6.8052-3.5014,3.2187-5.5065-8.8541-4.9502-19.2407-7.0784-29.3166-5.7615-1.7072,.2231-3.1886,1.3058-3.1886,3.1886,0,1.5495,1.4689,3.4134,3.1886,3.1886h0Z"/><g><path d="M628.4115,417.4039c2.1063,7.5984,2.6161,15.6355,1.4866,23.4391-.1452,1.0029-.2776,2.1513,.3897,2.9139,.5883-3.3723,1.3956-6.7952,3.2785-9.6541,1.8829-2.8589,5.0434-5.0828,8.4659-5.008,3.924,.0857,7.2972,3.1911,8.7786,6.8258,2.9748,7.2987-5.1559,12.434-3.7567,18.9063,1.8268,8.4503,15.0537,5.1414,18.3082-.5055,2.6902-4.6679,1.9673-10.7904-.889-15.3586,9.7861,.4013,18.9317-6.6696,21.9158-15.8252,.9027-2.7696,2.4568-9.1369,1.5321-12.0027-.5778-1.7906-8.165-9.2209-9.9421-6.0814,3.7112-6.5559,4.7591-14.9113,1.4306-21.6695-1.8195-3.6943-5.1184-6.7683-8.9449-8.3041-3.3162-1.331-9.0478,.8041-11.3378-.3561-4.888-2.4763-6.1513-13.5753-12.2186-17.4126-8.9262-5.6453-22.0006-3.2971-28.4044,5.1016-5.9871-4.2935-14.8485-4.0104-20.5493,.6565-5.7008,4.6669-7.7282,13.298-4.7015,20.015-5.9421-1.1413-9.9821,7.3244-7.152,12.6724,1.5112,2.8557,16.1427,13.3564,18.9495,7.8414-2.5415,4.9938,.0652,11.6448,4.9513,14.3876,4.8862,2.7428,11.2695,1.9094,15.9253-1.2085"/><path d="M625.3368,418.2515c1.1961,4.3863,1.866,8.8469,1.9482,13.3946,.0414,2.2862-.0532,4.5747-.2859,6.8495-.2367,2.3143-.9317,4.7961,.5353,6.8707,.748,1.0578,1.833,1.7244,3.1771,1.5223,1.1516-.1732,2.4307-1.0413,2.6509-2.284,.6222-3.5108,1.438-7.4915,3.8919-10.0407,1.1411-1.1854,2.359-1.9746,3.9412-2.2459,.169-.029,.2577-.033,.647-.0341,.0486-.0001,.7954,.0298,.4711-.0013-.2699-.0259,.2849,.0497,.2711,.0467,.9961,.2169,1.2466,.3323,1.9865,.782,1.1457,.6964,2.0727,1.7383,2.777,2.9681,.4262,.7443,.5372,1.0027,.7267,1.671,.0459,.162,.2154,1.0341,.1945,.8462-.0407-.3662,.0069,.271,.0073,.3513,.001,.2029-.0041,.4063-.0031,.609,.0008,.1503-.0176,.3017-.0284,.4514,.0412-.5676,.0177-.085-.0096,.0411-.0738,.3412-.1451,.6796-.2397,1.0162-.0811,.2884-.1732,.5733-.2725,.856-.0666,.1894-.1399,.376-.2104,.5638-.1807,.4814,.1803-.397-.0287,.0753-.5939,1.3418-1.2989,2.6299-1.9216,3.958-1.4007,2.9875-2.3545,6.114-1.5218,9.4186,.6739,2.6745,2.5078,4.9874,5.0274,6.1316,4.8892,2.2202,11.2146,.8062,15.4167-2.3133,7.0621-5.2429,7.0432-15.3373,2.7417-22.4023-.9178,1.5993-1.8355,3.1986-2.7533,4.798,10.0261,.3172,19.7568-6.1451,23.8339-15.2437,1.8175-4.0561,3.0114-8.779,3.0832-13.2327,.0285-1.7672-.2003-3.5794-1.236-5.0536-.9895-1.4083-2.1933-2.6738-3.4897-3.8015-3.0055-2.6147-8.4929-6.0711-11.4388-1.3758,1.8355,1.0729,3.671,2.1458,5.5065,3.2187,4.2307-7.6101,5.3781-17.121,1.3432-25.0604-1.8417-3.6239-4.9857-6.7616-8.593-8.6295-1.8546-.9603-3.6841-1.5104-5.7821-1.5349-1.7216-.0202-3.427,.2586-5.1391,.393-.6937,.0545-1.379,.0726-2.0737,.0375,.6776,.0342,.2777,.0662,.1088,.0014-.2624-.1007-.3256-.2042,.1399,.1006-.244-.1598-.5013-.2937-.7429-.4603,.509,.3511,.117,.0704-.1272-.1742-.1981-.1983-.3766-.4124-.562-.6223,.4217,.4775-.0399-.0618-.1811-.2696-.2263-.333-.4388-.6751-.6424-1.0224-1.5111-2.5773-2.5806-5.3865-4.0163-8.0046-1.5888-2.8973-3.6321-5.523-6.5221-7.2087-3.1979-1.8653-6.8175-2.8532-10.4963-3.1115-7.8805-.5534-16.3033,2.7619-21.1969,9.0612,1.288-.1662,2.576-.3324,3.864-.4986-5.7254-4.003-13.4096-4.4477-19.751-1.7281-6.1696,2.6459-10.4863,8.641-11.4225,15.2506-.5669,4.0024-.0578,7.8073,1.56,11.5117l3.6009-4.6841c-4.4531-.7457-8.4812,1.4863-10.5323,5.4945-1.8416,3.5989-2.335,8.4497-.1243,12.0268,1.4099,2.2814,3.9066,4.0152,6.0431,5.5313,2.6795,1.9015,5.6139,3.584,8.7456,4.6161,3.3681,1.11,7.6587,1.052,9.5711-2.4707-1.8355-1.0729-3.671-2.1458-5.5065-3.2187-3.073,6.3329-.6964,13.7973,4.8342,17.9177,5.9053,4.3996,14.4939,3.482,20.405-.376,1.4406-.9402,2.0437-2.8243,1.1439-4.3626-.8379-1.4326-2.9143-2.0892-4.3626-1.1439-4.0689,2.6556-9.3316,3.5096-13.4214,.7674-1.3711-.9193-2.6788-2.7677-3.1898-4.3198-.1737-.5276-.3096-1.0686-.4059-1.6156,.0856,.4861-.0201-.2037-.0251-.3016-.014-.2743-.0282-.5479-.0252-.8228,.0036-.324,.0147-.6614,.0587-.9828-.0615,.4497,.0377-.1159,.0811-.2833,.0692-.2666,.1363-.5299,.2225-.7922,.1908-.5805-.1018,.138,.1911-.4658,.7514-1.5485,.4223-3.4465-1.1439-4.3626-1.4541-.8505-3.5383-.3745-4.3626,1.1439-.3677,.6773,.3038-.2691,.0401,.0148-.4327,.4658,.1975-.1193,.1164-.0669-.5428,.3509,.6106-.2614,.1353-.0307-.815,.3955,.0506-.1286,.048,.053-.0015,.1042-1.7024-.0699-1.0474,.0148,.5349,.0692-.2278-.0527-.3817-.0869-.2843-.0632-.566-.1386-.8452-.2214-.2948-.0875-.5867-.1853-.8761-.2894-.1177-.0424-.9144-.3509-.5191-.1914,.3904,.1576-.4154-.1867-.5342-.242-.3502-.163-.6965-.3342-1.0399-.5111-1.1725-.6038-2.3075-1.28-3.4098-2.0035-.5015-.3291-.9959-.6689-1.483-1.0189-.2344-.1684-.4633-.3446-.698-.5124-.4724-.3377-.0049-.0008,.0757,.0626-.1511-.1189-.3022-.2379-.4519-.3586-.7613-.6142-1.5094-1.256-2.1829-1.9669-.1205-.1271-.2333-.2611-.3529-.3887-.4481-.4779,.1845,.3935,.1177,.155-.0313-.112-.1632-.2845-.2189-.3812-.1787-.3098,.004,.0467,.0281,.1063-.0896-.2211-.1622-.4508-.2281-.68-.0927-.3226-.167-.6505-.2205-.9819,.1088,.674-.0022-.4384-.0028-.5941-.0014-.3406,.0214-.6787,.0499-1.018,.0424-.5053-.1027,.4756,.009-.0192,.0537-.2376,.0955-.4759,.1562-.7124,.0966-.3758,.219-.7426,.3502-1.1075-.2011,.5593,.1842-.3725,.2766-.5409,.0905-.165,.186-.3283,.2861-.4878,.0405-.0646,.4722-.6856,.23-.3624-.2111,.2817,.0644-.0749,.0953-.1071,.1569-.1639,.3038-.3338,.4673-.4914,.1287-.1241,.2614-.2428,.3979-.3583,.3233-.2734-.581,.2913,.0998-.0456,.2219-.1098,1.0284-.4366,.4041-.2464,.2639-.0804,1.1035-.2433,.4228-.1749,.2473-.0249,1.4303,.0683,.794-.0382,2.8876,.4835,4.7491-2.0551,3.6009-4.6841,.0921,.2245,.0665,.1544-.0767-.2103-.0808-.2185-.1567-.4387-.2277-.6606-.1241-.3879-.2318-.7804-.3257-1.1766-.2286-.9649-.2405-1.0454-.2965-1.9093-.0569-.8781-.0167-1.7421,.027-2.6189,.0199-.3988,.1495-1.1371,.3399-1.914,.7213-2.9427,2.1322-5.4194,4.494-7.4362,4.6317-3.955,11.8902-3.9236,16.954-.3831,1.0313,.721,3.0571,.5402,3.864-.4986,1.9717-2.5381,3.8561-4.0397,6.7177-5.4174,.1174-.0565,.9639-.4266,.6179-.2869,.311-.1256,.6258-.2429,.9423-.3538,.7927-.2779,1.6008-.5115,2.4189-.7015,.3821-.0887,.7663-.1684,1.1524-.2377,.1237-.0222,.9288-.1419,.4822-.0856,.7771-.0981,1.5621-.1485,2.3451-.1628,2.8258-.0516,5.7728,.5098,8.1067,1.6588,.6462,.3181,1.2663,.6782,1.8757,1.0614,.1198,.0754,.2355,.158,.3507,.2401-.1142-.0815-.4123-.3771,.023,.0308,.245,.2296,.4949,.4503,.7292,.6914,.2375,.2444,.4573,.5031,.6811,.7597,.3725,.4272-.0936-.1794,.2254,.2973,.4257,.6361,.846,1.2675,1.2273,1.9323,1.4035,2.4468,2.449,5.0741,3.7724,7.562,1.2007,2.2572,2.8073,4.7188,5.1875,5.8648,2.9555,1.4229,6.2931,.3969,9.4064,.3022,.3933-.012,.7851-.0049,1.178,.0084,.1619,.0055,.3264,.016,.4874,.0344-.1673-.0191-.4849-.1342,.08,.03,.746,.2169,1.1222,.3721,1.8408,.7666,1.4864,.8161,2.6425,1.7369,3.7946,2.9866,5.4245,5.884,4.5267,15.1354,.8243,21.7953-2.0006,3.5987,3.3263,6.6936,5.5065,3.2187,.2691-.4288-.1946,.2542-.2117,.2719-.2476,.2562-.579,.425-.919,.5215,.3174-.0901-.8256-.0419-.0946,.0279-1.0387-.0991-.2554,.0267,.0301,.0759,.2005,.0346,.4649,.2848-.1904-.0945,.1582,.0916,.3331,.1598,.4948,.2459,.5766,.3067,1.1083,.6775,1.64,1.0547,.3804,.2699-.3939-.3237-.0295-.0241,.1348,.1108,.2709,.2199,.4044,.3322,.2993,.2516,.5923,.5107,.879,.7767,.4796,.4449,.9434,.9079,1.3838,1.3918,.1935,.2126,.3703,.4434,.5675,.6519,.3274,.3462-.3375-.5893,.1006,.146,.0679,.114,.1822,.3813,.2803,.4682,.2039,.1807-.1734-.8584-.1888-.4154-.0049,.14,.0753,.3276,.1116,.4674,.1154,.4437-.0272-.5533-.0099-.0623,.005,.1414,.0206,.2831,.0265,.4247,.0214,.5146,.0058,1.031-.027,1.5447-.1001,1.5676-.4147,3.1523-.8768,5.0249-.1752,.7098-.3651,1.4163-.5761,2.1163-.2446,.8118-.5812,1.7614-.7995,2.2427-1.5452,3.4057-3.9515,6.3471-6.79,8.3421-3.5766,2.5137-7.253,3.7136-11.4644,3.5804-2.4067-.0761-3.988,2.77-2.7533,4.798,1.6729,2.7476,2.568,6.1081,1.983,9.0793-.1245,.6322-.3695,1.5584-.5578,2.0137-.1609,.3891-.3714,.775-.5893,1.1356-.0912,.151-.575,.7975-.2942,.4584,.3085-.3726-.2612,.2707-.3294,.3414-.1583,.164-.3233,.322-.4923,.475-.0934,.0846-.7453,.6065-.4028,.3496,.3146-.2359-.3469,.2325-.4663,.3105-.4878,.3186-.9966,.606-1.5188,.8642-.2283,.1128-.4596,.2195-.6928,.3217,.6304-.2763-.2163,.0685-.4338,.1432-.526,.1807-1.0614,.3338-1.6035,.4579-.29,.0663-.5818,.116-.8734,.1734-.0727,.0143-.4977,.0669-.0749,.0148,.4915-.0605-.299,.0203-.3214,.0215-.5285,.0287-1.0535,.0452-1.5825,.0121-.2793-.0174-.949-.2351-.2057-.0062-.2525-.0778-.5279-.103-.7845-.1724-.254-.0687-.4989-.1596-.7483-.2421,.4907,.1623,.2791,.141-.0396-.0468-.0842-.0496-.8051-.4929-.41-.223,.3535,.2414-.2799-.2732-.4149-.4017-.0805-.0766-.1463-.1668-.2223-.2475,.0173,.0184,.3316,.4959,.1584,.1955-.1333-.2313-.2708-.4772-.4145-.7026-.2655-.4167,.1019,.4479-.0911-.2766-.0829-.3111-.1702-.6172-.2255-.9352,.1087,.6246,.008-.274,.0092-.4511,.0012-.1811,.1089-1.0937-.0035-.4223,.1104-.659,.2913-1.3037,.5144-1.933,.0487-.1373,.1036-.2724,.1529-.4095,.1711-.4753-.1871,.4134,.0163-.0543,.119-.2736,.245-.544,.3726-.8136,.3239-.6845,.6702-1.3582,1.0075-2.0362,.6829-1.3728,1.3478-2.7748,1.8288-4.2327,2.2905-6.9431-2.0914-15.0722-9.1806-17.0283-4.44-1.2251-9.1078,.6028-12.1753,3.8903-3.253,3.4863-4.5882,8.1289-5.4008,12.7141,1.9427-.2539,3.8853-.5078,5.828-.7617-.2846-.4753-.306-.3944-.0642,.2425-.014-.259-.0087-.5177,.0156-.7759,.0017-.0232,.1213-.9449,.16-1.2396,.1436-1.0948,.2658-2.1914,.3506-3.2924,.1758-2.2799,.2137-4.57,.116-6.8545-.1974-4.6131-.9184-9.2176-2.1329-13.6713-1.0784-3.9548-7.2324-2.2761-6.1494,1.6953h0Z"/></g><path d="M597.1345,734.2498c15.1574,32.0719,54.1348,36.8417,85.6544,34.1028,17.7493-1.5423,35.3164-5.2307,52.3634-10.3611,7.2442-2.1802,14.4122-4.6332,21.4407-7.434,8.54-3.403,16.705-7.7348,25.64-10.0743,6.3841-1.6715,13.5946-2.6414,19.9424-.2874,4.9193,1.8242,8.4734,5.8668,11.3254,10.1142,4.254,6.3353,7.8225,13.041,12.3316,19.2164,7.7826,10.6585,15.3707,21.4957,21.8916,32.9837,3.4582,6.0923,6.7109,12.3868,8.9856,19.0279,1.6328,4.7669,3.3438,10.486,1.9749,15.5295-1.251,4.6091-5.4315,6.4804-9.8799,7.0438-3.9928,.5057-8.3186,.2415-12.2623-.4937-6.6533-1.2404-12.7334-4.4493-19.6006-4.6817-13.6815-.4632-26.8639,8.3314-38.4282,14.6001-12.5868,6.8229-25.1338,13.8434-38.5568,18.9177-22.4541,8.4883-46.2017,13.6043-70.2178,14.3911-46.1176,1.5109-91.7346-13.4428-127.4781-42.7613-38.2151-31.3459-64.3587-76.4445-74.5721-124.6436-5.1649-24.3742-6.2356-49.8012-2.4699-74.4607,1.8436-12.073,4.8029-23.9777,8.8869-35.4889,4.3723-12.3238,10.8356-23.9065,17.8728-34.9077,4.2143-6.5882,8.8426-13.3545,14.8904-18.42,1.4597-1.2226,3.4535-2.5854,4.9625-3.1838,.6408-.2541,1.8517-.5795,2.146-.6192-.1474,.0199,2.0444,.0483,1.3185-.0561,2.5423,.3656,4.0684,1.8795,5.3943,4.0686,7.5062,12.3932-5.6741,23.2655-13.9615,30.9685-36.6085,34.0268-86.4586,47.2828-133.2268,60.8417-26.5914,7.7093-52.6306,17.2625-77.2916,29.9212-23.7805,12.2067-45.8085,27.4834-66.7136,44.086-39.7251,31.5492-74.0149,69.2367-102.8539,110.9156-3.6446,5.2672-7.2046,10.5929-10.6847,15.9702-3.483,5.3818-6.5883,11.284-10.9011,16.0622-9.3617,10.372-23.1074,6.9079-34.9839,11.556-4.6962,1.838-9.2007,4.7518-11.6812,9.2867-2.9639,5.4186-2.3129,11.77-.3369,17.4016,3.6009,10.2626,10.1594,19.462,17.4006,27.4687,15.6285,17.2807,36.1108,30.6445,57.5558,39.5363,20.51,8.5041,48.1547,13.9301,64.1168-5.8163,7.7116-9.5399,13.4151-20.9667,19.8498-31.3858,6.4032-10.3681,12.9482-20.6557,19.9327-30.6441,13.7982-19.7324,29.5497-38.0853,48.2713-53.3203,20.828-16.9492,44.8179-29.5707,70.1947-38.2031,25.1881-8.5681,51.3938-13.5193,77.4792-18.4578,13.3233-2.5224,26.7894-4.7423,39.8969-8.253,12.4536-3.3356,24.5766-7.8427,36.2833-13.2339,23.4394-10.7943,45.0511-25.3208,64.6751-42.0247,38.9796-33.1795,71.4388-74.858,97.3092-118.8655,26.0796-44.3634,45.676-92.5701,58.3402-142.4355,11.5845-45.6141,15.9225-91.9626,18.2254-138.8342,.5636-11.4714,1.0645-22.9482,1.4262-34.428-.5264,.9178-1.0528,1.8355-1.5793,2.7533,6.3098-3.8203,16.7102-7.7158,17.5037-16.1377,.5842-6.2004-3.9521-11.8723-10.1405-12.6453-4.1013-.5123-8.0235,1.5867-11.759,3.0043l4.0363,3.0747c-.3545-11.0644-.7089-22.1288-1.0634-33.1932-.1256-3.9204,.4407-8.9805-1.0943-12.6973-4.169-10.095-18.3006-6.5172-18.7573,3.829h6.3772c-.5976-5.2877-4.3199-9.6672-9.9881-9.5659-5.5847,.0998-9.3096,4.7051-9.5659,9.9881h6.3772c-.5976-5.2877-4.3199-9.6672-9.9881-9.5659-5.5847,.0998-9.3096,4.7051-9.5659,9.9881h6.3772c-.8969-8.423-11.1169-13.1893-17.1417-6.0897-2.7662,3.2597-2.3948,7.0546-2.2697,10.9597,.3724,11.6231,.7447,23.2462,1.1171,34.8693,1.0385,32.4148,.709,64.9748-2.818,97.2454-2.4499,22.416-6.6887,44.8019-14.2948,66.077-2.4479,6.8471-5.0539,13.822-8.7077,20.1329-2.3222,4.0109-4.7985,7.9348-7.2183,11.887-6.9352,11.327-13.8077,22.7259-19.8336,34.5696-2.7889,5.4816-5.4355,11.0826-7.5065,16.8802-1.469,4.1124-2.9083,8.7108-2.5574,13.1351,.3202,4.0382,2.6739,7.7391,7.0004,8.2113,4.7945,.5233,7.557-2.9579,8.8961-7.0985,1.8472-5.7115,3.3953-11.5385,4.8148-17.3693,5.5702-22.881,8.0495-46.3169,10.1481-69.7275,1.5196-16.9517,4.3055-40.6351-12.7348-51.1702-11.5836-7.1615-27.0095-3.6882-37.5843,3.6844-6.3294,4.4128-11.0232,10.1327-14.6359,16.9104-4.8082,9.0205-9.3365,20.4638-7.1393,30.8664,1.5447,7.3135,7.4058,11.5474,12.6199,16.2642,2.6726,2.4177,5.1526,5.1236,5.7634,8.8101,.7621,4.5998-1.2162,9.8309-3.5083,13.7594-4.3678,7.486-12.2659,13.0287-20.9879,13.8378-9.8127,.9102-18.4055-4.4776-24.4225-11.8661-14.7139-18.0675-14.2985-41.8427-11.0837-63.6795,3.6728-24.948,9.6386-49.4189,14.9481-74.0459,5.3656-24.8876,11.5272-49.3081,19.8738-73.389,7.0862-20.4445,14.7608-40.6957,22.1804-61.0207,.3344-.9162,.5889-1.945,1.0285-2.8175,2.0673-4.1024,7.6441-2.0666,6.3866,2.4096-.9483,3.3754,4.2844,5.818,5.828,2.457,1.9625-4.2731,7.8821-2.7364,6.5562,2.0638-.9319,3.3735,4.2817,5.8239,5.828,2.457,1.9625-4.2731,7.8821-2.7364,6.5562,2.0638-.9313,3.3714,4.2962,5.831,5.828,2.457,2.074-4.5684,7.7077-2.5901,6.4628,2.3196-.226,.8915-.6467,1.7715-.9617,2.6345-1.6507,4.5218-3.3014,9.0436-4.952,13.5653-2.8562,7.8242-5.7125,15.6484-8.5687,23.4726-.7325,2.0065,1.1501,3.999,3.0747,4.0363,4.0412,.0782,10.9619-1.1213,11.7384,4.4044,1.2622,8.9823-12.483,7.5916-17.4295,11.0054-7.1557,4.9385-10.891,15.616-13.4625,23.5208-3.4828,10.706-5.0319,21.8588-6.3813,32.9981-.4925,4.0652,5.8891,4.0296,6.3772,0,1.5081-12.4489,3.4241-24.9583,8.0765-36.6787,1.8612-4.6886,4.6795-11.7157,9.0384-14.6404,3.7404-2.5097,8.9053-1.7739,12.9145-3.8345,6.6622-3.4241,9.6589-12.2787,5.0163-18.5829-3.7948-5.1529-10.22-4.4597-15.888-4.5693,1.0249,1.3454,2.0498,2.6908,3.0747,4.0363,3.7591-10.2974,7.5181-20.5948,11.2772-30.8922,1.2992-3.559,3.634-7.8037,3.7474-11.6863,.3099-10.6119-14.2826-13.9718-18.6609-4.3276,1.9427,.819,3.8853,1.638,5.828,2.457,3.2056-11.6049-13.1096-18.0881-18.2121-6.9778,1.9427,.819,3.8853,1.638,5.828,2.457,3.2056-11.6049-13.1096-18.0881-18.2121-6.9778,1.9427,.819,3.8853,1.638,5.828,2.457,2.2802-8.1162-6.0091-16.0572-13.901-11.6575-3.5512,1.9797-4.6598,5.5161-5.9468,9.0416-3.892,10.6614-7.7839,21.3229-11.6759,31.9843-3.316,9.0838-6.6987,18.1479-9.8865,27.2778-8.2205,23.5441-14.5472,47.4389-19.7234,71.8166-5.1284,24.1525-10.9918,48.1123-14.8902,72.5114-3.3705,21.0955-5.3038,43.038,4.5421,62.7639,7.9343,15.8959,23.7018,29.5429,42.5054,24.284,7.7621-2.1708,14.4922-7.2207,19.0602-13.8177,4.7439-6.8509,7.9177-16.6476,4.2467-24.6072-2.9207-6.3327-9.2017-9.6081-13.6801-14.6264-6.8121-7.6334-3.04-19.5097,.6778-27.7705,6.0614-13.4679,17.0891-25.2006,32.73-26.1002,6.2328-.3585,12.407,1.388,16.7954,5.9915,6.4675,6.7845,7.2793,17.217,7.0958,26.0876-.2449,11.8365-1.7552,23.7583-3.0034,35.5248-1.2154,11.4575-2.7263,22.8839-4.8806,34.2057-1.0799,5.6755-2.3149,11.3216-3.7229,16.9249-.697,2.774-1.4358,5.5377-2.2163,8.2893-.6243,2.2008-1.3168,7.855-3.2435,9.0887-1.5772,1.0099-1.9476-.1219-2.1758-1.2692-.1793-.9014-.0465-2.9397,.1955-4.3081,1.99-11.2534,8.4299-22.0897,13.8802-31.9498,5.9746-10.8086,12.4761-21.3059,18.9082-31.8445,7.2165-11.8237,12.1894-24.7256,16.1656-37.9837,12.5645-41.8944,14.1304-86.3971,14.3055-129.8346,.0809-20.086-1.0736-40.2098-1.7168-60.2838-.0299-.9346-.1594-1.926-.0916-2.86,.3099-4.2734,6.2746-5.6237,6.7871-.8105,.4278,4.0179,6.1744,4.179,6.3772,0,.2094-4.3162,6.2969-4.8692,6.7995-.4221,.4526,4.0051,6.1739,4.1896,6.3772,0,.2094-4.3162,6.2969-4.8692,6.7995-.4221,.4522,4.001,6.1921,4.193,6.3772,0,.2067-4.6813,6.0781-4.5067,6.8106-.0766,.1668,1.0085,.0684,2.136,.1011,3.1549,.1537,4.7967,.3073,9.5934,.461,14.3902,.2626,8.1977,.5253,16.3954,.7879,24.5931,.0608,1.8963,2.0157,3.8415,4.0363,3.0747,2.5887-.9824,5.822-2.8925,8.6478-2.8952,2.9723-.0028,5.37,2.592,5.2276,5.527-.106,2.1854-1.4943,3.5981-3.2246,4.7287-2.8299,1.8491-5.8007,3.512-8.6925,5.2628-1.9747,1.1956-3.7421,1.929-4.0622,4.4554-.5691,4.4914-.3254,9.2405-.507,13.7599-.3835,9.5426-.823,19.0831-1.3293,28.62-1.2136,22.861-2.6372,45.764-5.7586,68.4561-3.6421,26.4775-9.2294,52.6893-16.6686,78.3593-14.8828,51.3553-37.2403,100.548-66.6348,145.2347-29.3375,44.5998-65.9082,86.9221-110.6265,116.6489-22.4104,14.8975-47.0014,26.6269-73.1549,33.1987-27.0087,6.7867-54.7922,10.2533-81.8944,16.7097-26.6717,6.3539-52.8118,15.2475-76.5914,29.0834-22.2761,12.9611-42.0299,29.8125-58.7419,49.4008-16.1294,18.9055-29.5297,39.9098-42.4792,61.0611-3.3948,5.5449-6.7474,11.1156-10.1402,16.6617-3.461,5.6576-7.1787,11.4216-12.8778,15.0679-11.0344,7.0598-25.4263,5.3903-37.3935,1.9578-22.8106-6.5427-44.7477-19.9524-61.803-36.3323-8.4193-8.0858-16.0417-17.4109-20.7477-28.1811-2.869-6.5661-4.316-14.3522,2.1851-19.1899,4.805-3.5756,11.0648-4.3545,16.8287-5.0261,6.1871-.721,12.5342-1.4474,18.0491-4.5803,5.5337-3.1436,9.4956-8.3298,12.9152-13.5662,7.3467-11.2502,14.5396-22.555,22.3668-33.4858,15.306-21.375,32.1298-41.6598,50.5046-60.4689,38.1044-39.0049,82.8115-72.9991,133.0325-94.718,48.9195-21.1561,102.835-28.6307,150.222-53.6366,10.9996-5.8044,21.4751-12.5568,31.1661-20.3593,4.8873-3.9349,9.5537-8.1466,13.9433-12.6307,4.1963-4.2867,9.0486-8.8266,11.3027-14.4998,3.8094-9.5879-.7761-26.976-13.6377-26.2631-4.6754,.2591-8.7957,3.063-12.2134,6.0414-6.2063,5.4085-11.0684,12.4682-15.4728,19.3536-7.1169,11.1258-13.6016,22.8398-18.1008,35.2736-4.3649,12.0629-7.4942,24.5619-9.3918,37.2477-7.5377,50.3917,3.761,102.7737,29.5079,146.5703,24.6656,41.9573,62.7304,75.6043,108.8862,91.8269,45.52,15.9991,95.7228,13.8471,140.8485-2.4128,13.6321-4.912,26.4288-11.5493,39.1383-18.4521,6.427-3.4906,12.8384-7.0249,19.3953-10.2683,6.9745-3.45,14.7508-6.823,22.717-5.618,6.459,.977,12.3642,3.97,18.9041,4.741,3.9642,.4673,7.9554,.6063,11.9148,.0244,5.5034-.8088,10.8246-3.3588,13.4062-8.5331,5.5173-11.0584-1.7798-25.8055-6.7908-35.6555-6.5393-12.8542-14.7271-24.8415-23.17-36.5053-3.7603-5.1948-7.3929-10.333-10.6529-15.876-5.3363-9.0735-11.4467-18.3542-22.5004-20.5768-12.8616-2.5861-25.943,2.4844-37.4636,7.7336-6.2725,2.858-12.6952,5.3487-19.2123,7.5915-16.7638,5.7691-34.1442,10.1182-51.7259,12.4695-17.8071,2.3814-36.5996,2.9817-54.069-1.824-15.4523-4.2508-28.5154-13.3701-35.4718-28.0894-1.7525-3.7082-7.2523-.4752-5.5065,3.2187h0Z"/><path d="M134.1734,853.5892c.4147,4.6197-.3887,9.0855-2.3947,13.1035-2.0768,4.1598-5.0505,7.5629-8.9151,9.9598,1.288,.1662,2.576,.3324,3.864,.4986-.2126-.2665-.219-.6963-.1175-1.1178-1.5614,.6352-3.1227,1.2704-4.6841,1.9056,1.7023,1.0238,2.769,2.6346,3.3089,4.6617,.0845,.3173,.1438,.6364,.2168,.956,.1459,.6387,.0173-.2598,.0674,.4545,.0425,.6065,.0704,1.2075,.047,1.8159-.0106,.276-.0313,.5506-.0544,.8257-.0593,.7074,.0774-.1718-.0749,.4616-.1549,.6441-.3227,1.2729-.515,1.9069-.1847,.6089,.1374-.1972-.1962,.4937-.1354,.2805-.2744,.5586-.4234,.8323-.325,.5971-.685,1.1793-1.0845,1.7297-.6359,.876-1.7874,2.037-2.793,2.8886-1.822,1.5432-4.5648,3.0242-6.7545,3.8798-1.603,.6263-2.7173,2.1386-2.2271,3.9224,.4202,1.5291,2.3094,2.8572,3.9224,2.2271,6.8413-2.673,13.4479-7.2978,15.8108-14.5896,2.1003-6.4813-.0355-14.3668-6.0316-17.9729-1.7219-1.0356-4.2043-.0874-4.6841,1.9056-.6572,2.7299,.0346,5.1631,1.7576,7.3225,.8498,1.065,2.7632,1.1814,3.864,.4986,9.5754-5.939,15.4812-17.2875,14.4683-28.5699-.154-1.7152-1.3553-3.1886-3.1886-3.1886-1.6054,0-3.3435,1.4634-3.1886,3.1886h0Z"/><path d="M770.0656,841.3464c1.3236-4.664,4.5363-8.5279,8.966-10.7164,2.0051-.9906,4.7894-1.5828,6.2964-.3149,.3607,.3035,.4969,.454,.7245,1.0097-.0611-.1493-.0972,.5354-.0273,.2311-.1083,.4713-.1047,.2232-.3621,.6176,.2285-.35-.3942,.2747,.0133,.0306l-.3139,.0827c.3067-.0591,.261-.0855-.1372-.0791,.7516,.3113,1.5031,.6226,2.2547,.9339,.1723,.1893-.0242,.3721,.0745,.137,.1398-.333-.1318,.4438-.0253-.3113-.0482,.3415-.0016-.0706,.0284-.19,.0133-.0528,.2238-.716,.1858-.6298,.3492-.7913,.876-1.3593,1.6456-2.0563,1.3922-1.2607,3.3869-2.0759,5.3818-2.6716,2.2765-.6798,4.6337-1.1602,6.9782-1.5377,2.1484-.3459,4.3417-.4309,6.1522,.7316,1.4494,.9307,3.5192,.2981,4.3626-1.1439,.9023-1.5427,.3091-3.4296-1.1439-4.3626-2.7428-1.7612-6.0495-2.0257-9.2122-1.6361-2.7892,.3436-5.5925,.886-8.2995,1.6447-5.2172,1.4622-11.3943,4.7287-12.319,10.6593-.2545,1.6322-.0803,3.2574,.7624,4.7088,1.1571,1.993,3.1998,2.4642,5.3202,1.8697,3.4404-.9644,5.479-4.7344,4.8974-8.1399-.5365-3.1416-3.1115-5.5272-6.0386-6.5249-3.4034-1.16-7.1332-.1445-10.2486,1.3536-5.8751,2.8251-10.2974,8.3781-12.0657,14.6089-1.1224,3.955,5.029,5.6433,6.1494,1.6953h0Z"/><path d="M444.7898,227.5882c2.732,6.1053,1.5047,13.5307-1.5818,19.5127-3.4442,6.6754-9.1697,11.7724-15.3545,15.9874-3.7092,2.5278-7.5871,4.7937-11.4648,7.0499-1.6119,.9379-2.2859,3.7058-.6453,5.008,14.0043,11.1155,20.7936,29.1079,18.8226,46.7134-.1012,.9037-.2521,1.907-.4875,3.1424-.2408,1.264-.5286,2.5191-.8641,3.7612-.6417,2.376-1.5474,4.9228-2.4175,6.8432-.5392,1.19-.6127,2.4592,.2493,3.5414,.7319,.9189,2.1606,1.6032,3.3516,1.1427,2.0483-.7919,4.1537-1.4177,6.3066-1.8539,2.0774-.4209,3.3192-.567,5.6443-.6542,2.1832-.0819,4.3725,.008,6.5428,.2577,.2174,.025,.4351,.0503,.6519,.0799-.4954-.0677,.0532,.0113,.1283,.0239,.5407,.0904,1.0818,.175,1.6205,.2771,1.0784,.2045,2.1495,.4479,3.2107,.7288,8.0239,2.1235,15.245,6.3563,20.9009,12.5334,1.7079,1.8653,2.6909,3.149,4.0533,5.3347,.6071,.9738,1.1712,1.9743,1.6894,2.9982,.2724,.5382,.5306,1.0831,.7786,1.633,.1211,.2683,.3108,.7284,.5573,1.3767,.6117,1.6088,2.1494,2.7143,3.9224,2.2271,1.5412-.4236,2.8423-2.3042,2.2271-3.9224-6.8197-17.937-25.3035-29.7795-44.3195-29.953-5.3013-.0484-10.6614,.8504-15.6098,2.7636,1.2003,1.5614,2.4006,3.1227,3.6009,4.6841,8.1152-17.9097,6.0141-39.6319-4.8937-55.95-3.0836-4.6131-6.8077-8.7862-11.157-12.2383-.2151,1.6693-.4302,3.3386-.6453,5.008,7.4538-4.3369,15.0101-8.7887,21.2052-14.8683,6.1595-6.0446,10.5514-13.7146,11.6281-22.3494,.6035-4.8396-.157-9.6166-2.1443-14.0576-.7035-1.572-2.991-1.9462-4.3626-1.1439-1.6184,.9466-1.8501,2.7846-1.1439,4.3626h0Z" style="fill:#f4d13b;"/><path d="M916.5927,105.6687c5.9912-2.9919,11.9823-5.9837,17.9735-8.9756,1.4955-.7468,2.0347-2.981,1.1439-4.3626-.9862-1.5297-2.763-1.9427-4.3626-1.1439-5.9912,2.9919-11.9823,5.9837-17.9735,8.9756-1.4955,.7468-2.0347,2.981-1.1439,4.3626,.9862,1.5297,2.763,1.9427,4.3626,1.1439h0Z" style="fill:#f953b2;"/><path d="M924.0529,148.9081c4.9433,2.1092,9.8867,4.2184,14.83,6.3275,.8222,.3508,1.5555,.5697,2.457,.3214,.7396-.2037,1.5412-.7756,1.9056-1.4654,.723-1.3685,.4942-3.6637-1.1439-4.3626-4.9433-2.1092-9.8867-4.2184-14.83-6.3275-.8222-.3508-1.5555-.5697-2.457-.3214-.7396,.2037-1.5412,.7756-1.9056,1.4654-.723,1.3685-.4942,3.6637,1.1439,4.3626h0Z" style="fill:#f953b2;"/><path d="M878.9471,73.4965c-.0008,5.8556-.0314,11.7111-.0321,17.5667-.0002,1.6679,1.4668,3.2657,3.1886,3.1886,1.7278-.0774,3.1884-1.401,3.1886-3.1886,.0008-5.8556,.0314-11.7111,.0321-17.5667,.0002-1.6679-1.4668-3.2657-3.1886-3.1886-1.7278,.0774-3.1884,1.401-3.1886,3.1886h0Z" style="fill:#f953b2;"/></svg>