<?xml version="1.0" encoding="UTF-8"?><svg id="Layer_2" xmlns="http://www.w3.org/2000/svg" width="1000" height="1000" viewBox="0 0 1000 1000"><path d="M545.1357,203.8059l-7.5072-2.4092c-4.2135-1.3522-7.4623-4.7362-8.6415-9.0014l-5.5203-19.9669c-1.497-5.4147-2.2241-11.0819-1.4791-16.6501,.0909-.6793,.0155-1.3951-.2575-2.0921-.7881-2.0119-3.0494-3.0286-5.132-2.4528l-14.2398,3.9369c-2.0835,.576-3.5019,2.611-3.1438,4.7427,.1223,.7278,.419,1.3726,.8367,1.9043,3.4763,4.4247,5.8011,9.6429,7.3005,15.0664l5.5203,19.9668c1.1792,4.2652,.1302,8.8374-2.7903,12.162l-5.2035,5.9234c-2.0661,2.352-2.8083,5.5866-1.974,8.604l23.0691,83.4409c1.3668,4.9436,6.4824,7.8433,11.426,6.4765l30.4425-8.4165c4.9436-1.3668,7.8433-6.4824,6.4765-11.426l-23.0691-83.4408c-.8342-3.0174-3.1326-5.4115-6.1134-6.3681Z" style="fill:#f4d13b;"/><polygon points="125.9646 483.7848 318.904 725.544 389.3013 682.0088 475.9085 451.365 125.9646 483.7848" style="fill:#f953b2;"/><polygon points="25 483.3216 107.1599 725.544 318.7199 725.544 400.8798 483.3216 25 483.3216" style="fill:#f4d13b;"/><polygon points="399.0273 485.1742 27.5888 485.1742 104.2385 451.5965 475.677 451.5965 399.0273 485.1742" style="fill:#6966ed;"/><path d="M391.4871,510.8604l40.3033-98.0737c2.6171-5.4585,8.1337-8.9315,14.1872-8.9315h73.1751c6.1341,0,11.1068,4.9727,11.1068,11.1068h0c0,6.1649-5.0208,11.1503-11.1856,11.1066l-57.013-.4043c-6.2982-.0447-12.0162,3.671-14.5337,9.4445l-37.0913,90.7993" style="fill:#f953b2;"/><path d="M438.8592,480.7652l40.3033-98.0737c2.6171-5.4585,8.1337-8.9315,14.1872-8.9315h73.1751c6.1341,0,11.1068,4.9727,11.1068,11.1068h0c0,6.1649-5.0208,11.1503-11.1856,11.1066l-57.013-.4043c-6.2982-.0447-12.0162,3.671-14.5337,9.4445l-37.0913,90.7993" style="fill:#f953b2;"/><path d="M454.9713,391.6326c-5.4059,2.7352-7.5907-6.7084-7.9261-10.4909-.3381-3.8134,.2803-7.8851,1.0052-11.622,.8222-4.2381,2.171-8.3483,4.4483-12.0365,4.9082-7.9489,14.0607-13.1819,22.4974-16.6549,8.6758-3.5714,17.9961-5.3197,27.3472-5.6927,19.2711-.7686,38.3567,3.7197,56.7561,8.9934,16.2006,4.6435,32.2302,9.8447,48.4662,14.3744,29.6352,8.2681,59.8633,15.3834,90.6299,17.5898,29.3765,2.1068,60.6214-.3928,86.7022-15.2286,13.0855-7.4435,24.1874-17.8954,32.6403-30.3341,3.9641-5.8334,7.4664-12.1075,10.2272-18.6034,2.5537-6.0087,5.3071-13.7831,2.2451-20.1096-1.4554-3.007-4.2265-4.8545-7.334-5.8491-3.0357-.9716-4.3354,3.7976-1.3136,4.7648,6.6688,2.1345,5.2545,9.598,3.5536,14.8497-2.0924,6.4605-5.4747,12.6258-9.0203,18.3934-7.8702,12.8027-18.5587,23.6741-31.4541,31.4292-12.3776,7.4437-26.2839,11.8827-40.4845,14.2309-15.0879,2.4949-30.5381,2.6073-45.7618,1.5156-15.683-1.1247-31.2387-3.6158-46.6212-6.8283-14.8467-3.1007-29.5393-6.894-44.14-10.9892-16.4057-4.6015-32.5992-9.9092-48.9962-14.5316-18.698-5.2711-38.2437-9.6363-57.7929-8.5265-9.4108,.5342-18.7677,2.3766-27.4888,6.0047-8.7434,3.6375-17.7282,8.8123-23.453,16.539-5.4574,7.3657-7.1716,16.7274-7.6388,25.6935-.2967,5.6952,1.5008,13.3696,6.2582,16.9796,2.7952,2.1211,6.1173,1.9366,9.1424,.4061,2.8381-1.4359,.3396-5.7003-2.494-4.2666h0Z"/><path d="M455.8592,375.4323c-.5553,7.2187-1.1105,14.4374-1.6658,21.6561-.3505,4.5568-.701,9.1136-1.0515,13.6704-.2362,3.0701-.7941,6.2148,.7286,9.0771,4.1143,7.7336,16.0909,5.59,17.266-3.0729-1.6177-.2189-3.2353-.4379-4.853-.6568-.1864,4.6765,2.9733,8.8386,7.6329,9.659,4.8759,.8585,9.3422-2.3434,10.5615-7.032-1.6177-.2189-3.2353-.4379-4.853-.6568,.3391,5.9569,5.8205,10.523,11.812,8.7869,4.4078-1.2772,6.3296-5.1318,6.7168-9.3764,.5732-6.2852,1.1465-12.5704,1.7197-18.8556h-4.9413c-.2788,3.6352-.5576,7.2705-.8364,10.9057-.172,2.2423-.344,4.4847-.5159,6.727-.1119,1.459-.3116,2.8421,.1244,4.2786,2.0078,6.6152,11.8857,9.6818,17.1459,5.2374,2.5358-2.1425,3.2324-5.0108,3.3224-8.1916,.0573-2.0256,.214-4.0301,1.2147-5.841,1.9853-3.5928,6.4646-4.4101,10.2246-4.4858,5.2288-.1053,10.4308,1.0153,15.4415,2.4127,12.5183,3.4913,24.138,9.4771,35.8901,14.9,16.9557,7.824,34.1282,15.3795,52.2531,20.083,18.1087,4.6994,36.9592,7.1329,55.6388,7.8266,37.3696,1.3879,75.1882-4.8375,109.8395-19.0103,5.9335-2.4269,11.654-5.1667,17.8786-6.7908,5.0566-1.3194,10.2502-2.1061,15.4825-2.1084,8.6749-.0038,18.7915,2.4237,22.5255,11.2061,2.3027,5.4157,1.7925,11.7908,.5172,17.3865-1.768,7.7574-5.8841,14.7192-10.5623,21.0657-4.9708,6.7433-10.7393,12.8599-16.3533,19.0614-6.0356,6.6673-11.7001,13.6541-17.6177,20.4254-26.3509,30.1525-54.9962,58.1717-82.9557,86.8054-27.183,27.8385-53.7144,56.4186-76.9066,87.7213-22.2768,30.0672-41.4558,62.9491-52.5487,98.8604-2.9332,9.4958-5.2927,19.1686-7.0222,28.9561-1.4752,8.3482-1.8717,16.8849-3.4982,25.1925-1.4366,7.3376-4.7362,13.0203-11.7505,16.1717-6.4794,2.9112-14.5664,4.1813-21.4332,1.9546-3.4972-1.134-6.8869-3.605-8.2868-7.1117-.6511-1.6308-.7671-3.5413,.3408-4.9886,.928-1.2123,2.5889-2.1396,4.0607-1.3606l-.5-3.8803c-16.8925,17.9284-43.8848,10.5484-63.6871,2.7009-5.3402-2.1163-10.7187-4.1968-15.9879-6.4847-4.3532-1.8902-8.8078-4.0685-12.2794-7.3699-8.1835-7.7824-5.5983-19.2601,2.0206-26.4451,11.0984-10.4664,30.1976-6.6756,39.7887-19.4336,2.7992-3.7235,3.3962-8.0165,4.4981-12.3686,.7003-2.766,1.5562-5.4931,2.4559-8.1999,6.3953-19.2407,14.9192-37.8399,23.8624-56.0071,13.4193-27.2597,28.5631-53.703,45.3947-79.0004,18.9543-28.4878,40.1433-55.6259,64.3179-79.8877,23.787-23.8729,50.6981-45.1388,81.2035-59.7626,13.9986-6.7107,28.8169-12.1202,43.8724-15.9162,13.5095-3.4062,28.2695-5.8633,42.1055-2.9612,12.3586,2.5922,22.125,10.2325,26.4442,22.2774,3.0032,8.375,3.4953,17.2715,3.2922,26.0907-.2685,11.6576-1.527,23.27-3.3528,34.7807-7.0786,44.6275-22.629,89.3863-14.15,134.9759,2.232,12.0008,6.1235,23.6369,11.3703,34.6525,4.6117,9.6823,10.3361,19.604,19.8837,25.1468,6.8906,4.0003,14.5931,6.8341,20.9857,11.6572,5.9004,4.4517,8.1789,10.5949,6.8579,17.8759-.846,4.6631-2.2689,9.7116-5.713,13.1348-3.1009,3.0821-7.8875,5.2001-12.1301,3.2102l1.1354,2.7901c.3486-1.4627,.6971-2.9254,1.0457-4.3881l-4.5157,.5902c4.6653,6.897,2.2849,16.7363-.0551,24.0411-2.6061,8.1354-6.5013,16.3881-11.8538,23.0988-6.9051,8.6575-18.3067,14.4926-29.5091,13.4441-5.2019-.4869-9.7976-2.9387-12.0457-7.7895-1.8988-4.0971-2.0292-8.852-2.2377-13.282-.2213-4.7022-.3377-9.5164-1.5989-14.0828-1.4302-5.1782-4.6871-9.4474-8.3701-13.2652-4.206-4.3599-8.9484-8.1743-13.3015-12.3847-4.1903-4.0529-8.1893-8.3032-11.9865-12.7264-15.1407-17.6367-27.0685-38.1322-35.0187-59.9703-8.907-24.4662-12.8498-50.608-10.845-76.5979,.2446-3.1712-4.6979-3.1554-4.9413,0-3.7846,49.0645,13.3691,98.6565,44.375,136.5588,3.8544,4.7117,7.9317,9.2416,12.2201,13.5621,4.4823,4.5159,9.3475,8.5975,13.9359,12.9967,4.2317,4.0572,8.1154,8.4633,9.4579,14.2956,1.1078,4.8131,.9713,9.8152,1.2999,14.7169,.3137,4.6788,.9288,9.5134,3.258,13.6695,2.7443,4.8967,7.6828,7.9954,13.1653,8.9039,12.286,2.0359,24.9106-3.3382,33.4491-12.0864,7.0128-7.185,11.7298-17.1461,14.9151-26.5449,2.9907-8.8246,5.6063-20.6947-.0464-29.0513-1.1268-1.6659-3.9939-1.5994-4.5157,.5902-.3486,1.4627-.6971,2.9254-1.0457,4.3881-.235,.9861,.1364,2.3215,1.1354,2.7901,9.475,4.4441,19.4927-2.5407,22.8798-11.5053,2.9454-7.7953,4.5116-17.2098-.3459-24.595-4.2043-6.3921-11.46-9.9616-18.071-13.3268-4.0445-2.0588-8.3579-3.959-12.0427-6.6316-4.6346-3.3615-8.0981-8.1062-10.9705-12.9929-12.4086-21.1095-17.9415-45.7652-17.7972-70.1073,.1388-23.4182,5.0163-46.4346,9.7693-69.2605,4.8951-23.5082,9.707-47.1928,10.2618-71.2812,.3572-15.5083-1.8627-32.9118-14.1408-43.8213-10.083-8.959-24.0548-11.1719-37.1151-10.5925-15.6696,.6952-31.1233,4.8572-45.8616,10.0092-32.5419,11.3755-61.6571,29.4739-87.6701,51.9773-26.9063,23.2762-50.2901,50.459-71.1505,79.2094-19.2283,26.5011-36.3575,54.5337-51.5747,83.5168-11.1209,21.1812-21.451,42.9324-29.7929,65.3726-2.2003,5.9188-4.4181,11.9486-5.7648,18.1319-.4748,2.18-.7707,4.3825-1.7318,6.4266-1.5389,3.2734-4.1823,5.6479-7.317,7.3628-6.7673,3.7023-14.6967,4.6348-21.8912,7.2309-8.8411,3.1902-16.2868,9.5445-19.2704,18.6984-3.3448,10.262,1.6879,19.6153,10.2883,25.2523,4.229,2.7718,8.9576,4.6967,13.6319,6.5725,5.9569,2.3905,11.8764,4.8866,17.8992,7.1085,11.2135,4.1368,23.1439,7.2953,35.1935,6.1772,10.2907-.9549,20.3269-4.7379,27.5188-12.3708,1.0475-1.1117,.949-3.1134-.5-3.8803-3.1844-1.6854-6.8282-.9744-9.438,1.4714-2.8917,2.71-3.5138,6.7988-2.2222,10.4581,2.6345,7.4642,10.4218,11.0747,17.8081,11.7065,7.3242,.6265,15.2351-1.2122,21.6186-4.8389,6.5911-3.7446,10.0472-10.3245,11.5103-17.5597,1.7595-8.7009,2.142-17.658,3.7201-26.4049,1.7913-9.9288,4.2358-19.7383,7.2676-29.3604,5.8848-18.6765,14.039-36.5624,23.6444-53.608,19.2239-34.1144,44.0229-64.8561,70.2851-93.7666,27.6168-30.4016,57.2049-58.9203,85.5932-88.5862,14.243-14.884,28.1899-30.0615,41.402-45.8728,10.6593-12.7563,23.5977-24.2344,31.2588-39.2119,5.4367-10.6289,8.9444-26.0909,1.1339-36.5283-6.1757-8.2528-17.2462-10.2979-26.9703-9.8644-5.5046,.2454-11.0043,1.2158-16.2933,2.7484-6.8923,1.9972-13.3147,5.2703-19.9875,7.8641-18.0082,6.9999-36.8233,11.8868-55.9365,14.6856-19.1814,2.8088-38.7035,3.4292-58.0345,2.0415-19.2913-1.3848-38.6217-4.6567-57.0167-10.7118-18.588-6.1186-36.1496-14.8139-53.918-22.917-9.9669-4.5453-20.2519-8.8469-31.1615-10.4762-9.2435-1.3805-21.7372-.6142-23.7389,10.7655-.3928,2.2334,.2092,5.2908-.9904,7.2712-2.0535,3.39-6.8714,2.0266-9.1638-.3671-1.2631-1.3189-1.0365-2.3941-.9119-4.0186,.1799-2.3456,.3598-4.6912,.5397-7.0368,.2788-3.6352,.5576-7.2705,.8364-10.9057,.2442-3.184-4.6553-3.1353-4.9413,0-.4495,4.9287-.8991,9.8575-1.3486,14.7862-.1545,1.6941-.1621,3.4871-.471,5.1621-.9336,5.0622-8.2527,4.6557-8.5464-.5032-.1532-2.6912-4.1229-3.4645-4.853-.6568-1.3829,5.3177-8.7046,4.1124-8.4884-1.3134,.1084-2.7215-4.4741-3.45-4.853-.6568-.8161,6.0164-8.8813,5.3122-8.5917-.7497,.1123-2.3515,.3619-4.7047,.5424-7.0517,.6538-8.4992,1.3075-16.9984,1.9613-25.4976,.1723-2.2394,.3445-4.4787,.5168-6.7181,.2439-3.1712-4.6985-3.1555-4.9413,0h0Z"/><path d="M484.7195,417.9986c.6292-6.2612,1.2584-12.5224,1.8876-18.7836,.0906-.9013,.1811-1.8026,.2717-2.7039,.1336-1.3296-1.2312-2.4706-2.4706-2.4706-1.4471,0-2.3366,1.1373-2.4706,2.4706-.6292,6.2612-1.2584,12.5224-1.8876,18.7836-.0906,.9013-.1811,1.8026-.2717,2.7039-.1336,1.3296,1.2312,2.4706,2.4706,2.4706,1.4471,0,2.3366-1.1373,2.4706-2.4706h0Z"/><path d="M471.2046,417.0037c.6292-6.2612,1.2584-12.5224,1.8876-18.7836,.0906-.9013,.1811-1.8026,.2717-2.7039,.1336-1.3296-1.2312-2.4706-2.4706-2.4706-1.4471,0-2.3366,1.1373-2.4706,2.4706-.6292,6.2612-1.2584,12.5224-1.8876,18.7836-.0906,.9013-.1811,1.8026-.2717,2.7039-.1336,1.3296,1.2312,2.4706,2.4706,2.4706,1.4471,0,2.3366-1.1373,2.4706-2.4706h0Z"/><path d="M555.5505,220.4236c-1.706-.9707-2.4653-2.1971-1.9998-4.0659,.532-2.1362,1.9102-4.0488,3.3564-5.6677,3.7884-4.2406,9.1951-6.8964,14.4429-8.8867,6.661-2.5262,13.6129-3.183,20.4943-1.1133,6.0976,1.8339,11.9018,4.9097,17.1359,8.5041,20.6904,14.2088,31.3243,37.7346,39.8794,60.4448,7.745,20.5597,17.0641,42.8445,36.5357,54.9484,11.3465,7.0532,26.2144,10.6011,39.3514,7.4068,12.8382-3.1217,22.4717-12.817,30.27-22.9553,8.5898-11.1674,15.4074-23.9201,26.3096-33.1216,5.5462-4.6811,12.1605-6.2249,18.9682-8.1499,3.2278-.9127,6.8197-1.9058,9.672-3.7199,2.4238-1.5416,4.0546-3.9304,5.8769-6.0853,.3623-.4284,.7306-.8529,1.1242-1.2531,.3027-.3079,.9971-.6963,1.234-1.0437,.1531-.2245,1.435-.5416-.5029-.6552-.3495-.0205-1.3018,.4978-1.695,.5688-2.5274,.4563-5.4288,.3457-7.9728,.0194-4.4287-.568-8.4177-2.686-11.1996-6.2007-5.6893-7.1877-6.3098-17.7023-5.8614-26.4762,.0682-1.3351,.3534-2.7796,.0002-4.0887-.1983-.7349-.588-1.413-1.1273-1.9545-.5014-.5034-1.3628-.7675-1.7992-1.2859-.3028-.3596-.3292-.1956-.0984-.7781,.2356-.5945,.9159-1.0631,1.392-1.4337,1.3296-1.0352,2.5962-1.9578,3.6449-3.2964,2.1072-2.6898,3.5168-5.9652,5.2608-8.8988,1.8918-3.1822,3.8237-6.3013,6.173-9.1724,3.9693-4.8508,9.0645-10.1304,15.3266-11.7521,5.6934-1.4744,11.9985-1.0108,17.7348-.0088,9.7164,1.6973,23.8009,6.3576,24.9294,17.9031,1.1392,11.6558-4.9494,22.6655-6.0491,34.0974-.5545,5.7641,.2922,11.5911,3.0699,16.7167,2.494,4.6022,6.3126,8.3427,10.1694,11.8067,4.748,4.2645,9.8224,8.0607,13.0134,13.7132,3.5715,6.3265,5.6341,13.6003,6.9771,20.7026,5.7664,30.495-4.7419,61.1621-19.0981,87.7285-3.5743,6.6143-7.4123,13.0814-11.3702,19.4723-1.679,2.7111,2.5937,5.1952,4.2666,2.494,16.9545-27.3765,32.0653-57.4292,32.682-90.3152,.1504-8.022-.6057-16.0942-2.3878-23.9215-1.6651-7.3137-4.1265-14.9407-8.374-21.1948-6.5465-9.6395-19.3571-14.7708-23.0884-26.4213-1.7957-5.607-1.0957-11.4841,.257-17.1004,1.4888-6.1812,3.4253-12.2662,4.3805-18.566,.8771-5.7839,1.1592-12.1664-1.9379-17.3869-3.3122-5.583-9.2927-9.0325-15.1467-11.3939-5.6344-2.2727-11.6594-3.4852-17.7048-3.9572-6.1529-.4805-13.0678-.291-18.5743,2.8291-6.5086,3.688-11.8325,9.5196-16.0324,15.6302-2.1727,3.1611-4.1924,6.5329-5.9722,9.9304-.7451,1.4224-1.451,2.9354-2.4847,4.1764-1.1622,1.3953-2.8171,2.1909-4.0695,3.4822-2.5337,2.6123-2.9191,6.7305,.2808,8.9595,.2211,.154,.4514,.2945,.6821,.4334,.4599,.2771,.3768,.3791,.3065,.1667,.1498,.4527-.0905,1.2944-.1205,1.77-.0821,1.2999-.1315,2.6018-.1455,3.9043-.056,5.1963,.4059,10.4918,1.7643,15.5202,1.2956,4.7958,3.5087,9.5069,7.0687,13.0441,3.8584,3.8336,8.9729,5.7842,14.3449,6.1647,2.9393,.2082,6.187,.3196,9.046-.4886,3.2028-.9053,5.9173-4.3633,3.7623-7.6047-2.162-3.2519-5.8957-1.7909-8.1646,.3855-2.0901,2.005-3.521,4.6923-5.8035,6.502-2.5525,2.0239-6.4078,2.8563-9.4886,3.7121-3.4042,.9456-6.8572,1.7481-10.1566,3.0317-7.2851,2.8343-13.0301,8.009-18.0886,13.8554-9.4601,10.9335-16.1769,23.9806-26.2585,34.4097-4.5255,4.6815-9.7672,8.8907-15.8731,11.3085-7.4877,2.965-15.6744,2.9901-23.4649,1.2803-11.7646-2.582-21.8881-8.9248-29.7058-18.0354-7.558-8.8079-12.7803-19.4929-17.1746-30.1546-4.8441-11.7529-8.7645-23.8403-14.4918-35.2211-5.866-11.6564-13.2888-22.7735-22.9381-31.6471-4.8227-4.435-10.1915-8.3211-15.9992-11.3634-6.4535-3.3806-13.4941-6.1241-20.8715-6.1559-7.5337-.0324-14.7007,2.6807-21.2549,6.1937-4.8318,2.5898-9.1706,5.9508-11.9109,10.8163-2.7136,4.8181-2.3674,10.2968,2.78,13.2255,2.768,1.575,5.2606-2.6925,2.494-4.2666h0Z"/><path d="M614.5424,344.1933c-10.1594-14.0986-18.568-29.3067-24.0305-45.8359-3.0909-9.3528-8.442-24.1519-21.1199-20.9758-3.8797,.9719-7.6221,3.5082-11.1206,5.3891-1.9684,1.0583-3.9369,2.1165-5.9053,3.1747-1.3387,.7197-2.6421,1.6158-4.2052,1.4767-2.7587-.2456-4.0237-2.8822-4.291-5.1854-.1527-1.3156-.0593-2.7624,.424-3.7216,.2529-.5018,.4451-.7358,.8119-.9517,2.4587-1.447,5.0264-2.7349,7.532-4.0982,7.0484-3.835,14.0968-7.6701,21.1451-11.5051l.4692-.2553c2.7954-1.521,.307-5.7768-2.494-4.2666-5.0296,2.7117-10.0591,5.4235-15.0887,8.1352-1.7245,.9298-3.4352,1.8855-5.1613,2.8118-1.5583,.8362-3.4418,1.7776-4.8613,2.3641-.9691,.4004-1.9565,.7615-2.9596,1.0674-.5344,.163-1.0738,.3104-1.6184,.4351-.2649,.0606-.5309,.1164-.7981,.1657,.0052-.001-.7978,.1206-.3877,.0702-.5786,.0711-1.1666,.1013-1.7494,.0797-.1588-.0059-.3178-.0152-.4762-.029-.3001-.0309-.3113-.0318-.0338-.0027-.1487-.0264-.2963-.0578-.443-.0939-.2128-.0646-.4267-.1156-.6356-.1937,.4938,.1846-.1891-.118-.2906-.169-.1084-.0545-.4861-.3427-.1194-.0494-.2286-.1829-.4444-.3997-.6276-.628,.3439,.4288-.2228-.4103-.2002-.3666-.1743-.3382-.1567-.2982-.2613-.6606-.1476-.5113-.1702-1.1011-.0838-1.6161,.1889-1.1266,.8495-2.1985,1.7776-2.8612,.9995-.7138,1.5348-1.8933,1.0109-3.0852-.4586-1.0432-1.7424-1.8649-2.9146-1.4305-2.2473,.8328-4.8097,.1339-5.8057-2.2185-.8855-2.0913,.0482-4.3595,1.9796-5.4741,2.7709-1.599,.3249-5.7086-2.494-4.2666-2.6755,1.3686-6.016-.412-6.2606-3.466-.1594-1.9903,1.0332-3.4178,2.6902-4.362,3.1514-1.7958,6.3054-3.5871,9.4581-5.3806,4.542-2.5839,9.084-5.1678,13.626-7.7517,2.1613-1.2295,4.2956-2.6216,6.535-3.705,3.8255-1.8509,7.8501-3.3643,11.757-5.0387-1.2098-.4922-2.4196-.9844-3.6294-1.4765,1.1616,3.4754,2.6616,6.8686,4.2614,10.1603,3.0325,6.2399,6.7628,12.3967,11.7374,17.2887,2.8584,2.811,6.1735,5.1305,9.9854,6.4333,3.0156,1.0306,4.3104-3.7405,1.3136-4.7648-2.6081-.8914-5.2656-2.7385-7.4033-4.7737-2.4502-2.3328-4.3573-4.7686-6.1921-7.5322-1.7791-2.6797-3.36-5.4892-4.7924-8.3681-.6239-1.2539-1.2193-2.5219-1.7874-3.802-.1132-.2551-.2253-.5106-.3363-.7666-.0571-.1318-.3778-.8844-.2635-.6128,.1248,.2964-.1623-.3921-.1955-.473-.1082-.263-.2152-.5265-.321-.7905-.4382-1.0936-.8681-2.1945-1.2417-3.3123-.5524-1.6528-2.1214-2.1228-3.6294-1.4765-3.843,1.647-7.7356,3.208-11.5385,4.9451-2.3923,1.0927-4.6523,2.6033-6.9362,3.9026-7.7566,4.4127-15.5679,8.7416-23.2747,13.2408-4.1613,2.4293-5.8962,7.5023-3.912,11.9314,2.2146,4.9433,8.1712,6.6077,12.8438,4.2175-.8313-1.4222-1.6626-2.8444-2.494-4.2666-4.1622,2.4019-5.8661,7.5254-3.8933,11.9208,1.9343,4.3098,7.1083,6.4407,11.527,4.8033-.6346-1.5052-1.2692-3.0105-1.9038-4.5157-2.6022,1.8582-4.4369,4.8071-4.2641,8.101,.1457,2.7758,1.6069,5.551,4.1592,6.819,4.4999,2.2356,9.9269,.231,14.1962-1.6171,5.7852-2.5043,11.3142-5.8955,16.858-8.8845,2.6857-1.448,5.3713-2.896,8.057-4.344-.8313-1.4222-1.6626-2.8444-2.494-4.2666-6.3918,3.4778-12.7836,6.9556-19.1755,10.4334-3.1165,1.6957-6.233,3.3914-9.3496,5.0871-4.5998,2.5028-5.2298,8.5065-3.4791,13.0585,1.4048,3.6526,4.5787,6.2202,8.569,6.3556,2.2873,.0776,4.1939-.9012,6.1334-1.9438,3.8239-2.0556,7.648-4.1111,11.4715-6.1675,1.5898-.8551,3.1423-1.7261,4.9168-2.1483,2.2168-.5274,4.0259-.1665,5.9715,1.0919,.3037,.1964,.3435,.2419,.3558,.2519,.2185,.1776,.4303,.3632,.6366,.5548,.4852,.4506,.9375,.9366,1.3621,1.4445,.3111,.3722,.4718,.5901,.8548,1.1548,.4015,.592,.776,1.2022,1.1296,1.8239,1.403,2.4673,2.2974,4.6809,3.2481,7.3131,1.0835,2.9999,2.0058,6.0545,3.0956,9.0523,1.5613,4.2949,3.343,8.514,5.2951,12.6455,3.9037,8.2615,8.5296,16.1743,13.641,23.7441,1.2511,1.8528,2.5338,3.6838,3.8408,5.4975,.779,1.081,2.1506,1.6056,3.3803,.8863,1.0678-.6245,1.6706-2.2919,.8863-3.3803h0Z"/><path d="M537.9856,265.9785c9.0203-4.7584,18.0406-9.5168,27.0609-14.2753,1.2642-.6669,2.5284-1.3338,3.7927-2.0007,2.8137-1.4843,.3194-5.7507-2.494-4.2666-9.0203,4.7584-18.0406,9.5168-27.0609,14.2753-1.2642,.6669-2.5284,1.3338-3.7927,2.0007-2.8137,1.4843-.3194,5.7507,2.494,4.2666h0Z"/><path d="M531.7799,253.5671c8.9-4.587,17.8-9.174,26.7-13.761,1.2402-.6392,2.4805-1.2784,3.7207-1.9176,2.8275-1.4573,.3309-5.7226-2.494-4.2666-8.9,4.587-17.8,9.174-26.7,13.761-1.2402,.6392-2.4805,1.2784-3.7207,1.9176-2.8275,1.4573-.3309,5.7226,2.494,4.2666h0Z"/><g><path d="M904.7727,225.6927c.6382-3.5709,.8933-7.0771,.745-10.308-.4441-9.6724-3.927-19.0102-8.7138-27.4267-4.5977-8.0841-10.5202-15.5546-18.1097-20.9296-10.2259-7.242-19.8936-6.8153-31.5755-7.8736-12.1301-1.0986-23.9758,3.7877-34.7755,9.4198-7.8302,4.0835-12.1453,13.5158-4.0986,20.0435,4.7411,3.8461,12.375,3.4533,16.6964-.859-1.5324-.5087-3.2806,.4117-4.0982,1.804-.8176,1.3923-.8569,3.1205-.5522,4.7061,.5355,2.7869,2.2343,5.2158,4.4645,6.9271,2.6198,2.0103,4.6096,1.767,7.5976,2.2083,5.5651,.8218,3.6496,13.5148,3.5808,17.8972-.1216-5.0585,2.189-10.1212,6.09-13.3437,2.3711-1.9587,5.5248-3.2712,8.5213-2.5786,3.5815,.8278,6.0729,4.4651,6.2924,8.1345,.2195,3.6694-1.4878,7.2476-3.9096,10.0138-12.6973,14.5035,2.6376,31.8629,18.0599,34.7194,18.6763,3.4591,30.7018-15.3029,33.7852-32.5544Z"/><path d="M907.1551,226.3495c1.2436-7.1469,1.048-14.2522-.683-21.3051-1.6435-6.6961-4.4907-13.1079-7.9501-19.0558-6.3487-10.9155-15.4533-21.3539-27.5982-25.7913-5.5837-2.0402-11.5688-2.576-17.4546-3.016-3.1523-.2357-6.3269-.6223-9.4885-.6513-3.4887-.032-6.9938,.3988-10.4031,1.1234-6.8605,1.4582-13.4017,4.2319-19.6585,7.3477-5.0998,2.5397-9.7117,5.6961-11.7249,11.2893-2.1856,6.0723,.9939,12.6009,6.5159,15.6046,5.7592,3.1327,13.2613,2.1718,17.978-2.389,1.3326-1.2886,.6905-3.6591-1.0902-4.1294-2.2112-.584-4.5778,.1591-6.098,1.8744-1.5488,1.7475-2.0363,4.1436-1.7751,6.4173,.4983,4.3368,3.262,8.5026,7.1597,10.5519,1.8202,.9571,3.7307,1.2254,5.7471,1.445,.3532,.0385,.7138,.0611,1.0643,.1216,.1996,.0345,.8256,.2487,.326,.0196,.1826,.0837,.6996,.4877,.269,.1092,.1448,.1273,.553,.6129,.2473,.1968,.16,.2178,.2825,.4522,.4173,.6852,.0462,.0798,.2023,.4242,.0156-.0103,.0432,.1006,.0828,.2059,.1172,.3098,.213,.6428,.3829,1.2885,.5009,1.956,.0221,.125,.0422,.2504,.0612,.376,.0642,.4248-.0352-.3208,.0137,.1155,.0347,.3096,.0634,.6197,.0863,.9304,.0576,.7789,.0808,1.5601,.0848,2.3409,.0146,2.8364-.3154,5.6536-.3724,8.4859h4.9413c-.0586-4.9839,2.4396-10.0893,6.865-12.5873,1.994-1.1256,4.4547-1.5523,6.4189-.1453,1.6717,1.1976,2.6535,3.3221,2.695,5.352,.1139,5.5681-4.8803,8.8637-6.9549,13.5782-1.9187,4.3604-2.1974,9.2146-.6677,13.7463,3.1045,9.1971,11.802,16.0999,20.9324,18.7553,4.5208,1.3148,9.3775,1.5278,13.9485,.3331,4.3037-1.1248,8.1905-3.4721,11.4628-6.4514,7.7005-7.0112,12.2143-17.436,14.0509-27.5332,.2385-1.3114-.3586-2.6636-1.7256-3.0392-1.1987-.3294-2.7991,.4059-3.0392,1.7256-1.5868,8.7238-5.1392,17.5819-11.401,24.0173-2.8527,2.9318-6.2955,5.2803-10.2092,6.3933-4.1911,1.1919-8.5907,.8564-12.7559-.5153-7.8608-2.5887-16.1615-9.4868-17.2394-18.0479-.6019-4.7809,1.4914-8.6082,4.4157-12.2364,3.6613-4.5426,5.5321-10.6889,2.731-16.1499-1.3435-2.6193-3.8246-4.8247-6.7299-5.5-3.2754-.7614-6.7346,.2173-9.4594,2.0972-5.2564,3.6265-8.3541,9.8443-8.2793,16.2075,.0374,3.1813,4.8771,3.182,4.9413,0,.0973-4.8296,.9418-9.7532-.252-14.5226-.6109-2.4403-2.0335-4.8528-4.5746-5.6244-1.4483-.4398-3.026-.3418-4.5049-.6483-1.6673-.3455-2.9748-1.2387-4.1326-2.4706-1.2201-1.2982-2.1185-2.9854-2.3182-4.7722-.1119-1.0013,.097-3.5357,1.6624-3.1223l-1.0902-4.1294c-3.0967,2.9944-8.1963,3.68-11.99,1.6164-3.8345-2.0858-5.6972-6.116-4.2451-10.0244,1.6798-4.5213,6.1773-6.734,10.2688-8.7387,5.6382-2.7625,11.5043-5.138,17.6634-6.4471,2.8466-.605,5.7304-.9406,8.6425-.9482,2.9815-.0078,5.9645,.3595,8.9358,.5786,5.1595,.3804,10.3376,.7744,15.3107,2.2997,10.8213,3.3191,19.1043,12.3047,24.9651,21.6357,7.3189,11.6524,12.0564,25.1937,9.645,39.052-.2285,1.3131,.3517,2.6617,1.7256,3.0392,1.1907,.3272,2.8092-.4039,3.0392-1.7256Z"/></g><path d="M796.8046,232.7517c1.5786,.0785,3.1268-.3359,4.6084-.8381,.7156-.2425,1.4284-.4935,2.1424-.7408,.3731-.1292,.7462-.2584,1.1193-.3877,.1637-.0567,.3264-.1182,.4921-.1689l.1513-.0455c.1973-.0444,.2044-.0496,.0213-.0156-.2319-.1201-.458-.1364-.6393-.3644-.0632-.1796-.0752-.2117-.0359-.0963,.0221,.0619,.0407,.1249,.0559,.1889,.0346,.1333,.0581,.2696,.0798,.4055-.0607-.3806-.0051,.0378-.0005,.1251,.0164,.3095-.0053,.6102-.0248,.9184-.0133,.1229-.0093,.0939,.0119-.087-.0113,.07-.0241,.1396-.0386,.209-.0326,.1622-.0713,.323-.1168,.482-.0391,.1365-.0894,.2691-.131,.4047-.1016,.3315,.1167-.2087-.051,.1304-.1259,.2546-.258,.504-.413,.7425-.0577,.0888-.25,.3517-.0734,.1258-.087,.1113-.1803,.2183-.2761,.3222-.2251,.2438-.4711,.4622-.7329,.6656-.6838,.5312-.5996,1.7789,0,2.3293,.7251,.6657,1.5997,.5667,2.3293,0,1.2561-.9757,2.1628-2.4477,2.562-3.9815,.3966-1.5237,.5025-3.7312-.6273-4.9866-1.4701-1.6334-3.8085-.3451-5.485,.2355-.849,.2941-1.6956,.6035-2.5631,.8397-.3995,.1088-.8059,.2064-1.2159,.2672,.1459-.0173,.1165-.0148-.0883,.0077-.1172,.011-.2347,.0191-.3523,.0244-.2366,.0104-.4719,.0058-.7083-.0059-.8618-.0428-1.6856,.7882-1.6471,1.6471,.0416,.929,.7238,1.6012,1.6471,1.6471h0Z"/><path d="M801.7688,232.3655c.1826,.1173,.3598,.2418,.5322,.3736l-.3334-.2575c.5007,.3888,.9493,.8368,1.3393,1.3366l-.2575-.3334c.2537,.33,.4796,.6786,.6766,1.0454,.2717,.5058,.8582,.8158,1.4222,.8158,.2973-.0009,.5744-.0759,.8313-.2249,.2475-.1464,.4445-.3434,.5909-.5909,.3778-.5283,.6548-1.151,.8249-1.7762,.1713-.6298,.2499-1.3121,.1914-1.9638-.0399-.445-.1569-.8392-.4824-1.1647-.2857-.2857-.7544-.5008-1.1647-.4824-.426,.0191-.8678,.159-1.1647,.4824-.2803,.3053-.521,.7348-.4824,1.1647,.0285,.3172,.0223,.6338-.0169,.9498l.0588-.4379c-.0536,.3901-.1564,.768-.3079,1.1315l.166-.3935c-.1263,.2924-.2814,.5684-.4666,.8274h2.8444c-.7332-1.3653-1.8389-2.5112-3.139-3.3464-.3506-.2253-.8743-.2748-1.2692-.166-.3821,.1052-.7961,.4006-.9844,.7569-.4318,.8172-.1842,1.7556,.5909,2.2535h0Z"/><g><path d="M897.0463,184.8179c12.8023-3.6283,27.2071-1.0851,37.993,6.7077,14.7501,10.6569,18.9311,26.5297,17.2398,43.6692-1.7815,18.0529,19.3388,22.6022,22.3648,39.8177,1.1041,6.2814-.5422,12.6976-2.4282,18.79-2.6206,8.4655-8.2178,18.4342-18.0136,20.0669-8.2267,1.3712-22.3695-8.798-16.3668-17.9544,1.9317-2.9466,6.5886-3.9714,9.1375-1.5389,3.2352,3.0874,1.0211,8.9257-2.7909,11.2638-8.1531,5.0006-19.3767-.9834-23.6304-9.5499s-3.6692-18.6111-3.5964-28.1753c.0729-9.5642-.7661-19.928-7.0402-27.1471-3.9918-4.593-9.8551-7.3537-15.8859-8.1655"/><path d="M897.7031,187.2003c11.7285-3.2628,24.6264-1.2074,34.7645,5.5398,9.2773,6.1744,15.1445,15.7372,17.0091,26.6571,.9355,5.4785,.6614,10.9314,.2775,16.4404-.3154,4.5265,.8639,9.0118,3.2067,12.8819,4.425,7.3096,12.0801,12.2132,16.4048,19.3367,2.7499,4.5295,3.6291,9.6745,2.9087,15.0734-.4678,3.5054-1.4676,6.9561-2.5359,10.3191-.746,2.3483-1.664,4.6274-2.8191,6.8054-2.2573,4.2565-5.4742,8.4156-10.052,10.312-.5241,.2171-1.071,.3901-1.6172,.5428-.3346,.0935-.6724,.1757-1.0123,.2474,.008-.0017-1.1211,.182-.5121,.1083-.8949,.1083-2.1809,.03-2.6788-.0599-2.1908-.3958-4.0114-1.1427-5.8779-2.2738-1.7201-1.0424-3.4697-2.505-4.569-4.0209-1.22-1.6823-1.7157-3.0611-1.7317-4.8521-.0046-.5136,.2517-1.563,.5674-2.1773,.476-.9263,.9993-1.6076,1.9351-2.0944,1.522-.7917,3.5597-.7962,4.3987,.8459,.3084,.6037,.367,1.4296,.2223,2.1874-.2042,1.0691-.6943,2.0932-1.3646,2.9496-1.3463,1.7203-3.5833,2.6853-5.6256,2.9495-4.7907,.6197-9.622-1.9559-12.9183-5.3121-4.1379-4.213-5.7843-10.1915-6.3655-15.9305-.6644-6.5608-.1473-13.1509-.3254-19.7268-.1682-6.2126-.9459-12.4917-3.4703-18.2223-2.4812-5.6324-6.9068-10.2145-12.4742-12.8539-2.7859-1.3208-5.7096-2.2207-8.7624-2.6533-1.3194-.187-2.6538,.3232-3.0392,1.7256-.3181,1.1578,.396,2.8508,1.7256,3.0392,6.2907,.8915,12.4245,3.8113,16.0683,9.1901,3.6087,5.3269,4.6652,11.8707,4.9533,18.177,.6088,13.3248-2.2343,29.1155,7.4866,39.9924,3.827,4.282,9.3989,7.3705,15.2075,7.5795,5.9662,.2146,12.0791-3.2348,13.5978-9.2836,.7331-2.9198,.1433-6.17-2.1962-8.2164-2.2213-1.943-5.4357-2.3374-8.1702-1.342-5.4207,1.9733-7.6777,8.3532-5.5858,13.5421,2.0093,4.9841,6.5881,8.5375,11.4625,10.5013,5.0406,2.0308,10.2984,1.5417,14.984-1.2232,5.0593-2.9854,8.66-8.0384,11.0623-13.2997,2.8259-6.1892,4.8868-13.2417,5.1978-20.0509,.2687-5.8833-1.4027-11.5742-4.7317-16.4152-2.6875-3.9082-6.0991-7.1902-9.4003-10.5648-1.4671-1.4997-3.2527-3.4027-4.346-4.8167-.6519-.8431-1.2563-1.7276-1.8033-2.6423-.5609-.9377-1.1004-2.0035-1.3842-2.7492-1.8697-4.9119-.6594-9.9553-.6726-15.2666-.0307-12.274-3.8124-24.3557-12.479-33.2903-9.3866-9.6769-23.0238-14.8209-36.4598-13.9998-3.3016,.2018-6.5872,.7429-9.7736,1.6293-3.0593,.8511-1.7599,5.6198,1.3136,4.7648h0Z"/></g><path d="M317.1688,725.2689c-2.1537,7.2066-4.3074,14.4131-6.461,21.6197-3.7481,12.5416-7.4961,25.0831-11.2442,37.6247-1.2443,4.1635-2.4885,8.3269-3.7328,12.4904-1.3176,4.4089-2.9272,8.6169-5.8006,12.3052-5.7391,7.3667-14.6543,11.6768-23.9717,11.7243-1.3153,.0067-2.6309,0-3.9462,0H129.3632c-2.0156,0-4.0313-.0032-6.047,0-.9762,.0016-1.9872-.382-1.9302-1.5811,.055-1.1557,1.9062-1.9014,2.7407-2.4236,9.2087-5.7629,18.4003-11.5541,27.6265-17.2888,2.8923-1.7978,5.9788-2.4423,9.3097-2.4423h165.0783c5.1238,0,10.0876-.9216,14.7782-3.0302,8.9825-4.038,15.227-11.7737,18.2912-20.998,2.0268-6.1015,4.2298-12.1502,6.3435-18.2219,4.3376-12.46,8.6752-24.9199,13.0129-37.3799,3.5373-10.1611,7.0747-20.3222,10.612-30.4834,.5557-1.5963,1.1114-3.1926,1.6671-4.7888,.6984-2.0062-2.4828-2.8685-3.1765-.8757-2.1387,6.1435-4.2774,12.287-6.4161,18.4305-4.3708,12.5554-8.7417,25.1107-13.1125,37.6661-3.5283,10.135-7.0565,20.2701-10.5848,30.4051-.7571,2.1747-1.4437,4.3974-2.2586,6.5501-3.4086,9.0044-11.2456,15.9487-20.5237,18.4176-5.5186,1.4685-11.5435,1.0144-17.2146,1.0144H175.6764c-5.1833,0-10.3669-.018-15.5502,0-2.5997,.009-5.1218,.4954-7.5083,1.539-1.5615,.6829-2.9755,1.6335-4.4157,2.5348-5.1326,3.212-10.2652,6.424-15.3978,9.636-4.0654,2.5442-8.1652,5.0411-12.1995,7.6345-2.7382,1.7602-3.4862,5.6242-.7993,7.8713,1.0487,.8771,2.3054,1.1084,3.6173,1.1084H252.9497c5.1312,0,10.3734,.3008,15.4977-.0967,9.7928-.7596,18.7878-5.7767,24.6299-13.6601,2.8425-3.8357,4.4806-8.1756,5.83-12.6912,3.0955-10.358,6.191-20.7159,9.2864-31.0739,3.4649-11.5942,6.9299-23.1884,10.3948-34.7826,.5856-1.9594,1.1711-3.9188,1.7567-5.8783,.6083-2.0355-2.57-2.9052-3.1765-.8757h0Z" style="fill:#6966ed;"/><circle cx="271.3849" cy="843.8584" r="13.6543" style="fill:#6966ed;"/><circle cx="151.004" cy="843.8584" r="13.6543" style="fill:#6966ed;"/><circle cx="323.7729" cy="816.5498" r="13.6543" style="fill:#6966ed;"/><circle cx="203.392" cy="816.5498" r="13.6543" style="fill:#6966ed;"/><path d="M108.8881,551.21c11.441,17.6277,23.1765,35.0639,35.2066,52.2949,12.0301,17.231,24.3524,34.2578,36.9596,51.0711,7.125,9.5022,14.3434,18.9341,21.645,28.3013,.821,1.0533,2.6323,.8617,3.494,0,1.0398-1.0398,.8232-2.438,0-3.494-12.8393-16.4713-25.3957-33.163-37.6692-50.0601-12.2563-16.8736-24.2284-33.9537-35.9098-51.2303-6.5792-9.7305-13.0649-19.5241-19.4597-29.3768-1.725-2.6579-6.0047-.1839-4.2666,2.494h0Z" style="fill:#fff;"/><path d="M156.6291,550.6532c12.491,15.8266,24.6756,31.8939,36.5478,48.1898,11.9492,16.4016,23.5826,33.0333,34.8915,49.8828,6.3419,9.449,12.5802,18.9672,18.7179,28.5501,1.7099,2.6696,5.9885,.1944,4.2666-2.494-10.9878-17.1554-22.3021-34.1011-33.9424-50.8206-11.6403-16.7194-23.6039-33.2135-35.8814-49.4707-6.9371-9.1857-13.9745-18.2957-21.1059-27.3314-.8273-1.0483-2.6283-.8657-3.494,0-1.0352,1.0352-.8295,2.443,0,3.494h0Z" style="fill:#fff;"/><path d="M138.2233,634.3254c7.7045-5.3841,15.5558-10.5616,23.3966-15.744,11.5708-7.6479,23.1871-15.2268,34.8217-22.7771,12.9891-8.4294,26.0042-16.8186,39.0443-25.1689,12.0132-7.6926,24.0459-15.3553,36.1207-22.951,8.5211-5.3602,17.047-10.7206,25.6848-15.8915,.696-.4167,1.3931-.8314,2.0918-1.2436,2.7369-1.6147,.2537-5.8877-2.494-4.2666-8.0953,4.776-16.0573,9.7821-24.0195,14.7752-11.7503,7.3688-23.4551,14.8102-35.1411,22.2804-13.0467,8.3399-26.0672,16.7208-39.0628,25.1401-11.9723,7.7563-23.9256,15.5426-35.8368,23.3925-8.4058,5.5397-16.8132,11.084-25.1004,16.8003-.6677,.4606-1.3343,.9229-1.9992,1.3876-1.0923,.7633-1.5987,2.1624-.8863,3.3803,.6323,1.081,2.2811,1.6545,3.3803,.8863h0Z" style="fill:#fff;"/><path d="M156.1032,664.1249c8.4036-5.3215,16.7801-10.6858,25.1519-16.0571,10.9784-7.0437,21.9439-14.1075,32.9026-21.1819,11.8435-7.6456,23.6784-15.3043,35.5049-22.976,11.1025-7.202,22.1979-14.4149,33.2807-21.6471,8.7436-5.7057,17.4821-11.4196,26.1939-17.1737,.836-.5522,1.6717-1.1049,2.507-1.658,2.6395-1.748,.1676-6.0292-2.494-4.2666-8.2931,5.4921-16.616,10.9391-24.9436,16.3788-10.9204,7.1333-21.8545,14.2457-32.7955,21.3473-11.8244,7.675-23.6575,15.3365-35.4989,22.9853-11.1164,7.1805-22.2397,14.3503-33.375,21.5014-8.785,5.6418-17.5751,11.2759-26.3896,16.8716-.8459,.537-1.692,1.0735-2.5385,1.6095-2.6795,1.6968-.2032,5.9746,2.494,4.2666h0Z" style="fill:#fff;"/><path d="M365.2571,510.9645c3.9684,.0189,7.9368,.0377,11.9052,.0566l-2.4706-2.4706c-.7014,6.5663-2.6845,13.0023-5.7315,18.8551-.6159,1.1832-.3045,2.6838,.8863,3.3803,1.1105,.6495,2.7619,.3015,3.3803-.8863,3.4764-6.6777,5.6071-13.8689,6.4061-21.349,.1425-1.3344-1.2476-2.4648-2.4706-2.4706-3.9684-.0189-7.9368-.0377-11.9052-.0566-3.1801-.0151-3.184,4.9261,0,4.9413h0Z" style="fill:#fff;"/><path d="M52.7871,533.3974c-.2375-.4118-.4619-.8303-.667-1.2592-.0301-.0629-.332-.7458-.2078-.4483,.1243,.2978-.151-.397-.1749-.4621-.3159-.8603-.564-1.7452-.7432-2.6439-.0465-.2332-.085-.4674-.1256-.7016-.1161-.6701,.045,.5265-.0204-.1505-.0458-.4735-.0861-.9458-.1005-1.4215-.0143-.4748-.0096-.9503,.0152-1.4247,.0106-.2033,.0247-.4065,.0423-.6093,.0103-.1186,.1228-1.0034,.0306-.3543-1.0131,.5752-2.0261,1.1504-3.0392,1.7256,3.2531,1.345,7.1215,.9556,10.1481-.7832,1.1211-.6441,1.6057-2.2646,.8863-3.3803-.7296-1.1316-2.1808-1.5755-3.3803-.8863-.2602,.1495-.5726,.3728-.8641,.4463,.5662-.1428-.025,.0005-.1326,.038-.1224,.0426-.2459,.0827-.37,.1201-.3105,.0935-.6261,.1707-.9446,.2313-.0956,.0185-.1915,.0351-.2877,.0497-.1862,.0291-.1281,.0211,.1744-.024-.134,.0542-.3441,.0308-.4852,.0384-.3242,.0177-.6487,.0187-.973,.003-.1622-.0079-.3233-.0223-.4852-.0356-.4826-.0397,.2837,.0696-.0176-.0052-.6696-.1661-1.3136-.3118-1.9549-.5769-1.1293-.4669-2.8675,.5166-3.0392,1.7256-.6543,4.6091,.11,9.2257,2.4494,13.2828,.6458,1.12,2.2633,1.6065,3.3803,.8863,1.1302-.7286,1.5774-2.1819,.8863-3.3803h0Z" style="fill:#fff;"/><path d="M285.866,564.4117c9.779,12.7829,19.5579,25.5658,29.3369,38.3487,.8094,1.058,2.1273,1.6192,3.3803,.8863,1.0416-.6092,1.7021-2.3139,.8863-3.3803-9.779-12.7829-19.5579-25.5658-29.3369-38.3487-.8094-1.058-2.1273-1.6192-3.3803-.8863-1.0416,.6092-1.7021,2.3139-.8863,3.3803h0Z" style="fill:#fff;"/><path d="M303.9805,597.0433c5.9454-5.549,11.8907-11.098,17.8361-16.647,.9757-.9107,.9206-2.5734,0-3.494-.9728-.9728-2.5156-.9132-3.494,0-5.9454,5.549-11.8907,11.098-17.8361,16.647-.9757,.9107-.9206,2.5734,0,3.494,.9728,.9728,2.5156,.9132,3.494,0h0Z" style="fill:#fff;"/><path d="M803.6906,203.3325c.0737-.0349,.1479-.0686,.2228-.1011-.2059,.0864-.2238,.096-.0536,.0287,.1547-.051,.3064-.1094,.4625-.1567,.3132-.0949,.6302-.1575,.9502-.2231,.1857-.0287,.1606-.0268-.0753,.006,.0809-.0099,.1618-.0185,.243-.026,.1623-.0149,.325-.0247,.4879-.0297,.3056-.0094,.6116-.0012,.9163,.0237,.1193,.0098,.5445-.019,.1087,.0043,.1488-.008,.3358,.0563,.4812,.0872,.3187,.0677,.6333,.1547,.9414,.2608,.0813,.028,.605,.198,.1754,.055,.151,.0503,.3,.1363,.4413,.2088,.2904,.149,.5683,.3183,.838,.502,.714,.4863,1.8576,.1585,2.2535-.5909,.4411-.8349,.1711-1.7345-.5909-2.2535-2.7901-1.9004-6.4439-2.0411-9.4649-.6399-.784,.3636-1.0414,1.5547-.5909,2.2535,.5208,.8078,1.4149,.9799,2.2535,.5909h0Z"/><path d="M804.3403,208.3465c-.2544,.2017-.4578,.4729-.6349,.7415-.1738,.2636-.2972,.5706-.389,.8707-.1914,.6257-.1798,1.3058-.0371,1.939,.069,.3062,.2007,.6095,.3462,.8844,.1452,.2743,.3459,.5334,.5639,.7527,.5024,.5055,1.1596,.823,1.861,.9172,.3822,.0514,.6955,.0439,1.0849-.043,.068-.0152,.1323-.0383,.1969-.064,.1882-.075,.3895-.1447,.5614-.2566,.4648-.3028,.8804-.7235,1.1206-1.2292,.268-.5644,.4088-1.0864,.4419-1.7142,.0237-.4481-.0363-.9302-.1937-1.3516-.1725-.4619-.3418-.762-.6542-1.1385-.0691-.0833-.1422-.1604-.2255-.2302-.2028-.1698-.4172-.352-.6582-.4691-.2243-.109-.4728-.2276-.7229-.2798-.2561-.0534-.5359-.1029-.8005-.0838-.5357,.0386-1.0888,.1696-1.5274,.4969-.1919,.1035-.346,.2449-.4621,.4242-.1456,.1591-.2439,.3458-.2948,.5601-.1086,.3943-.0596,.9193,.166,1.2692,.2267,.3517,.5644,.6613,.9844,.7569,.404,.092,.9216,.0935,1.2692-.166,.0928-.0693,.1885-.1264,.2941-.174l-.3935,.166c.1016-.0413,.2031-.0702,.3114-.0881l-.4379,.0588c.1219-.0157,.2411-.0157,.3631-.0008l-.4379-.0588c.1232,.0194,.2399,.0527,.3552,.0999l-.3935-.166c.1183,.0529,.2271,.1174,.3312,.1945l-.3334-.2575c.1046,.0824,.2002,.1729,.2835,.2768l-.2575-.3334c.0845,.1101,.1526,.2288,.2081,.356l-.166-.3935c.0709,.1704,.1162,.3478,.1413,.5306l-.0588-.4379c.0258,.2089,.0247,.4183-.001,.6272l.0588-.4379c-.0279,.2056-.0791,.4057-.1571,.5981l.166-.3935c-.0651,.1543-.1463,.2996-.2484,.4326l.2575-.3334c-.0701,.088-.1475,.1675-.2352,.2382l.3334-.2575c-.08,.0616-.1647,.1131-.2568,.1545l.3935-.166c-.0951,.0399-.1924,.0667-.2945,.0813l.4379-.0588c-.1108,.013-.2199,.0109-.3304-.0037l.4379,.0588c-.1383-.0216-.2701-.0616-.3994-.1149l.3935,.166c-.126-.0552-.2428-.1231-.3528-.2057l.3334,.2575c-.1143-.09-.2151-.1916-.3049-.306l.2575,.3334c-.0943-.1254-.1715-.2596-.2341-.4034l.166,.3935c-.0698-.1688-.1167-.3428-.1428-.5236l.0588,.4379c-.0231-.1822-.0242-.3635-.0029-.5459l-.0588,.4379c.0245-.1818,.0704-.3568,.1405-.5264l-.166,.3935c.0637-.1462,.1431-.2818,.2405-.4081l-.2575,.3334c.0867-.1076,.1832-.2033,.2915-.2891,.3084-.2445,.4824-.7907,.4824-1.1647,0-.404-.1794-.8865-.4824-1.1647-.3139-.2881-.726-.5021-1.1647-.4824l-.4379,.0588c-.279,.0783-.5213,.2195-.7268,.4236Z"/><path d="M124.2537,411.4299c1.1344,2.5524,2.2688,5.1049,3.4033,7.6573,.2354,.5296,.9429,.9885,1.4765,1.1354,.5914,.1629,1.3789,.0893,1.9038-.2491,.5275-.3401,.9919-.8466,1.1354-1.4765,.1566-.6876,.0353-1.2639-.2491-1.9038-1.1344-2.5524-2.2688-5.1049-3.4033-7.6573-.2354-.5296-.9429-.9885-1.4765-1.1354-.5914-.1629-1.3789-.0893-1.9038,.2491-.5275,.3401-.9919,.8466-1.1354,1.4765-.1566,.6876-.0353,1.2639,.2491,1.9038h0Z" style="fill:#f953b2;"/><path d="M169.9486,402.7196c-.8391,3.8409-1.181,7.792-.9391,11.7174,.0793,1.2875,1.0795,2.5329,2.4706,2.4706,1.2705-.0569,2.5558-1.0891,2.4706-2.4706-.1119-1.8168-.1072-3.6381,.0275-5.4536,.0343-.4625,.0766-.9244,.1272-1.3854,.0232-.2116,.0363-.4287,.0752-.6377-.0821,.4411-.001,.0041,.0281-.1914,.1363-.9178,.3067-1.8294,.5047-2.7358,.2752-1.2595-.3768-2.732-1.7256-3.0392-1.2474-.2841-2.7442,.3753-3.0392,1.7256h0Z" style="fill:#f953b2;"/><path d="M76.383,432.9848l5.1049,.8508c.3284,.103,.6568,.1177,.9852,.0441,.3288-.0149,.635-.1126,.9186-.2932,.5125-.2999,1.0013-.8875,1.1354-1.4765,.1441-.6325,.1129-1.3424-.2491-1.9038-.3279-.5086-.8539-1.0316-1.4765-1.1354l-5.1049-.8508c-.3284-.103-.6568-.1177-.9852-.0441-.3288,.0149-.635,.1126-.9186,.2932-.5125,.2999-1.0013,.8875-1.1354,1.4765-.1441,.6325-.1129,1.3424,.2491,1.9038,.3279,.5086,.8539,1.0316,1.4765,1.1354h0Z" style="fill:#f953b2;"/><path d="M332.9747,428.856c6.0726-2.2917,12.468-3.5156,18.9637-3.4957,2.8804,.0088,5.8168,.1628,8.63,.821,2.3139,.5414,4.8842,1.4801,6.3606,3.4654,1.0769,1.4482,1.5283,3.5444,.9203,5.1611-.1291,.3432-.7974,1.6432-1.4425,1.5659-.472-.0566-.5834-1.0426-.5455-1.4338,.247-2.5456,3.3143-3.6675,5.3829-4.2127,3.0695-.8091,6.2519-1.3074,9.4074-1.6273,7.5056-.7608,15.1017-.425,22.4997,1.0538,1.3072,.2613,2.6679-.3744,3.0392-1.7256,.3343-1.2168-.4108-2.7764-1.7256-3.0392-8.2206-1.6433-16.6611-2.0754-24.9935-1.1011-3.953,.4622-8.1976,.9479-11.9087,2.4618-3.4983,1.427-6.6169,4.4071-6.6423,8.432-.0246,3.8999,3.638,7.3309,7.5273,5.6908,3.1586-1.332,4.8191-4.8898,4.5791-8.1997-.2486-3.4285-1.9308-6.3514-4.6651-8.4004-2.895-2.1695-6.4826-3.0016-10.0059-3.4508-8.9522-1.1413-18.267,.0892-26.6946,3.2697-1.2477,.4709-2.1025,1.6677-1.7256,3.0392,.3289,1.1967,1.7843,2.1992,3.0392,1.7256h0Z" style="fill:#f953b2;"/><path d="M469.2198,147.3266c.8508,.8508,1.7016,1.7016,2.5524,2.5524,.2238,.2409,.4888,.4112,.7951,.5108,.2944,.1547,.6117,.2256,.9519,.2128,.3402,.0128,.6575-.0581,.9519-.2128,.3063-.0996,.5713-.2699,.7951-.5108,.4322-.4708,.7531-1.089,.7236-1.747l-.0883-.6568c-.1174-.4185-.3292-.7819-.6354-1.0902-.8508-.8508-1.7016-1.7016-2.5524-2.5524-.2238-.2409-.4888-.4112-.7951-.5108-.2944-.1547-.6117-.2256-.9519-.2128-.3402-.0128-.6575,.0581-.9519,.2128-.3063,.0996-.5713,.2699-.7951,.5108-.4322,.4708-.7531,1.089-.7236,1.747l.0883,.6568c.1174,.4185,.3292,.7819,.6354,1.0902h0Z" style="fill:#6966ed;"/><path d="M465.0111,177.8288c4.5546-.4142,9.0541-1.2708,13.419-2.6407,1.2314-.3864,2.1466-1.7382,1.7256-3.0392-.4003-1.237-1.7186-2.14-3.0392-1.7256-2.0359,.6389-4.1017,1.1765-6.1934,1.5992-1.0258,.2073-2.0569,.3878-3.092,.5412-.095,.0141-.907,.1246-.4195,.0614-.2395,.031-.4792,.0607-.719,.0889-.5597,.0657-1.1203,.1224-1.6815,.1735-1.2835,.1167-2.5341,1.0527-2.4706,2.4706,.0555,1.2383,1.0923,2.596,2.4706,2.4706h0Z" style="fill:#6966ed;"/><path d="M494.0206,137.0715v7.6573c0,1.2923,1.1364,2.5304,2.4706,2.4706,1.3386-.06,2.4706-1.0856,2.4706-2.4706v-7.6573c0-1.2923-1.1364-2.5304-2.4706-2.4706-1.3386,.06-2.4706,1.0856-2.4706,2.4706h0Z" style="fill:#6966ed;"/></svg>