<?xml version="1.0" encoding="UTF-8"?><svg id="Layer_2" xmlns="http://www.w3.org/2000/svg" width="1000" height="1000" viewBox="0 0 1000 1000"><path d="M961.4121,277.9674l-246.835,78.4037c-6.761,2.1475-14.155,.4499-19.3021-4.4317l-70.566-66.926c-4.8553-4.6048-7.0071-11.3795-5.699-17.942l19.012-95.3792c1.3867-6.957,6.4458-12.6102,13.2068-14.7577l246.835-78.4037c10.2536-3.2569,21.206,2.415,24.4629,12.6686l51.554,162.3052c3.2569,10.2536-2.415,21.206-12.6686,24.4629Z" style="fill:#f4d13b;"/><g><path d="M851.8638,160.2413c2.7937-5.3946,.7166-12.991-4.9653-15.632-5.6989-2.6489-12.6506-.7914-15.6317,4.9652-7.337,14.1681-14.6741,28.3358-22.0114,42.5037-11.6774,22.5489-23.3547,45.0977-35.0319,67.6465-2.6575,5.1312-5.3149,10.2626-7.9724,15.3941-2.7937,5.3946-.7164,12.9909,4.9653,15.632,5.6991,2.6489,12.6506,.7914,15.632-4.9653,7.3371-14.1678,14.6741-28.3358,22.0111-42.5036,11.6774-22.5489,23.3547-45.0977,35.0322-67.6463,2.6574-5.1315,5.3146-10.2628,7.972-15.3943Z" style="fill:#6966ed;"/><path d="M872.1136,216.538c-13.4865-4.1214-27.8988,2.4718-34.9511,14.2423-.2314,.3564-.4483,.7281-.6422,1.1218-.186,.3417-.3495,.6936-.4935,1.0526-5.2605,11.7062-2.9666,24.7436,5.6517,34.2667,7.9872,8.8252,22.1279,11.9002,33.0957,7.3342,12.0016-4.9965,20.277-16.7269,19.5871-29.979-.6868-13.1917-9.7322-24.2136-22.2477-28.0386Z" style="fill:#6966ed;"/><path d="M765.1062,217.7618c12.0016-4.9965,20.277-16.7269,19.5871-29.979-.6868-13.1917-9.7322-24.2136-22.2477-28.0386-13.4865-4.1214-27.8986,2.4717-34.9511,14.2423-.2314,.3564-.4483,.7281-.6422,1.1218-.186,.3417-.3495,.6936-.4935,1.0526-5.2602,11.7061-2.9666,24.7436,5.6519,34.2666,7.9869,8.8253,22.1276,11.9003,33.0955,7.3343Z" style="fill:#6966ed;"/></g><circle cx="652.6395" cy="266.2656" r="10.8291" style="fill:#fff;"/><path d="M643.3088,261.5572c-10.1639-2.3988-19.6229,6.7501-25.4517,13.9084-5.7417,7.0513-10.8007,15.3641-18.9173,19.9595-5.2716,2.9846-11.7197,4.1341-17.6619,4.8783-6.989,.8752-14.0592,.9403-21.0918,.7906-14.8444-.3159-29.6868-1.4667-44.4012-3.4539-14.5993-1.9716-28.9886-4.9628-43.3626-8.1492-14.2839-3.1665-28.6151-6.2888-43.1965-7.7283-23.99-2.3684-50.1779,.508-70.3421,14.787-20.8274,14.7486-30.5714,39.6344-33.6136,64.2097-1.6566,13.3819-1.0653,27.2753,3.0126,40.1943,3.7483,11.8749,10.5068,22.6945,19.5027,31.3048,9.3093,8.9103,20.5613,14.9378,33.2491,17.3391,6.3856,1.2085,12.8974,1.6613,19.3902,1.6034,6.2878-.0561,13.0272-.3373,18.0956-4.5279,4.6555-3.8492,5.9972-10.2022,2.9136-15.4739-3.2575-5.5689-9.7772-7.7355-15.9329-7.6282-11.857,.2066-23.55,7.1357-28.1434,18.2686-4.5272,10.9724-1.2068,22.7493,7.5773,30.4268,7.2417,6.3294,16.65,9.9853,23.2208,17.0938,3.5867,3.8803,6.5054,9.6884,3.7444,14.8049-2.671,4.9498-7.7573,8.6111-12.893,10.6721-11.6483,4.6745-24.4791,2.4439-35.6584-2.4778-11.7313-5.1647-23.2573-12.4355-32.2999-21.5699-4.5976-4.6443-8.4057-10.0055-12.6924-14.9291-4.3477-4.9936-8.9641-9.8303-14.2123-13.8901-9.0992-7.0387-20.8885-9.3504-32.1528-7.8249-11.2305,1.5209-21.2691,6.8353-29.4176,14.6239-15.3892,14.7094-25.9919,38.9423-17.1587,59.754,9.4528,22.2716,37.4096,35.9564,60.7316,28.8651,10.9884-3.3411,20.431-11.7967,23.8871-22.8984,3.4136-10.9654-.4262-22.4209-7.7842-30.829-7.5249-8.5989-18.5294-13.9582-29.9285-14.5947-11.6112-.6483-22.9612,4.3752-28.3711,15.0313-5.1269,10.0988-5.8991,23.6445-.1445,33.6624,6.3122,10.9886,20.095,14.1103,31.9111,13.0709,12.4404-1.0943,24.1431-6.86,31.8052-16.8448,3.6169-4.7133,5.7813-9.9569,7.5831-15.5694,1.4835-4.6211,2.9745-9.8573,1.572-14.6854-1.6833-5.795-7.2336-8.6476-12.789-9.7515-6.1877-1.2296-13.0123-2.0863-19.2703-1.0095-12.5147,2.1532-19.0636,15.7564-19.4752,27.3782-.4078,11.516,5.5283,22.4627,16.3407,26.9884,4.8427,2.027,10.2928,2.6445,15.421,1.3843,5.4161-1.3311,9.7206-4.9339,13.3284-9.0369,3.4635-3.9389,6.5441-8.5893,11.0057-11.4932,2.4557-1.5983,5.5392-2.7813,8.496-2.081,2.1586,.5112,4.3788,2.265,4.6098,4.608,.3598,3.6486,6.1134,3.6859,5.7499,0-.5377-5.4527-4.7528-9.634-10.1692-10.3913-5.8423-.8168-11.3035,2.1044-15.4793,5.9561-7.1137,6.5615-11.8961,17.282-22.9219,17.3513-10.1234,.0636-18.2005-7.4209-20.1729-17.1005-1.066-5.231-.3724-10.7811,1.5403-15.7355,1.9523-5.0571,5.5101-10.1133,10.9176-11.742,5.513-1.6605,11.9631-.6691,17.5305,.2828,4.5854,.784,9.8225,2.456,10.1163,7.8566,.2385,4.3837-1.5771,8.8172-2.9405,12.9052-1.7709,5.3098-4.8168,10.1524-8.7822,14.0978-8.201,8.1597-20.0037,11.7851-31.415,10.9318-5.4765-.4095-11.4412-1.8577-15.6802-5.5416-3.8533-3.3487-5.9206-8.1578-6.7003-13.1289-1.5687-10.0021,1.6271-22.5261,10.6633-28.1184,8.6368-5.3451,20.3346-4.3225,29.188-.0351,8.9596,4.3388,16.7546,12.258,19.1325,22.1325,2.4175,10.0392-2.3197,20.112-10.2753,26.2794-18.2909,14.1796-47.0837,4.7811-59.6046-12.7607-5.9396-8.3214-8.2475-18.2631-6.5041-28.3538,1.7188-9.9485,6.4321-19.3686,12.8491-27.1196,6.4329-7.7702,14.5459-14.1574,24.2948-17.1133,9.7967-2.9705,20.9212-2.7911,30.1165,2.0301,5.0672,2.6568,9.2712,6.6831,13.2213,10.762,4.3275,4.4686,8.3182,9.2529,12.1931,14.115,7.4941,9.4034,16.966,16.7113,27.2752,22.8065,10.5848,6.2581,22.2885,11.5493,34.7566,12.0773,10.5505,.4468,21.7645-2.8571,29.3204-10.483,4.3459-4.3862,7.0681-9.8019,5.8654-16.0615-.9143-4.7583-3.857-9.0695-7.2687-12.4132-6.5051-6.3756-15.1114-9.9215-21.9641-15.8346-3.4412-2.9693-6.3123-6.5281-7.5073-10.9881-1.3917-5.194-.5635-10.9258,2.0384-15.6102,2.5844-4.6528,6.87-8.2049,11.7403-10.2852,4.8955-2.0911,11.2899-3.2071,16.3825-1.1911,4.7596,1.8842,7.597,7.4594,3.4943,11.5161-4.1096,4.0636-11.0104,3.6575-16.3435,3.6452-11.8669-.0275-23.9863-1.8649-34.4665-7.7253-9.971-5.5757-18.3914-14.2181-24.2499-23.978-6.2671-10.4407-9.3979-22.4032-10.003-34.5175-.6103-12.2183,1.042-24.5513,4.3954-36.3002,3.1415-11.0066,8.0273-21.7641,15.4297-30.5833,14.5837-17.3749,37.1946-24.6081,59.2599-25.5103,26.2929-1.0751,51.914,6.3839,77.4188,11.6379,26.7721,5.5151,54.4888,8.8784,81.8593,8.3988,6.5102-.1141,13.0385-.6248,19.4339-1.886,5.246-1.0345,10.526-2.4973,15.0765-5.3916,7.5309-4.79,12.5119-12.23,17.9733-19.0816,2.5345-3.1797,5.2242-6.3236,8.4164-8.8673,3.1865-2.5391,8.0115-5.5468,12.2354-4.5499,3.5985,.8493,5.1342-4.6936,1.5286-5.5445h0Z" style="fill:#f953b2;"/><path d="M152.4552,288.3946c.3399,2.304,2.2475,3.5795,4.4757,3.6477,1.9385,.0593,3.7151-.7626,5.5722-1.161,.1944-.0417,.3922-.0859,.5901-.1089-.3073,.0356,.4174-.0011,.4904,.0014,.2192,.0124,.2662,.0165,.1409,.0121-.1241-.0083-.0799,.0091,.1323,.0523-.1713-.0791-.1649-.0687,.019,.0312-.1439-.1196-.1669-.1326-.0691-.039,.0948,.0991,.0788,.0764-.0478-.0682-.059-.1125-.0806-.232-.065-.3585,.059-.1854,.0567-.1635-.0069,.0657l.0465-.0916c-.1475,.3922-.4377,.752-.6726,1.0965-.1327,.1789-.1402,.1919-.0226,.0387-.0741,.0929-.1499,.1844-.2273,.2746-.1161,.1353-.2357,.2676-.3588,.3966-.2876,.3016-.5944,.5815-.9145,.8481-.4352,.3625,.2894-.1857-.1791,.1326-.1968,.1337-.3924,.2677-.5959,.3912-.3562,.2161-.7257,.4058-1.1045,.5788-.915,.4178-1.2096,1.8127-.6876,2.6223,.6088,.9443,1.6436,1.1345,2.6223,.6876,1.8246-.8332,3.3635-2.1553,4.5655-3.7495,.6691-.8875,1.3468-1.948,1.368-3.097,.0242-1.3131-.7303-2.4833-1.8583-3.1225-2.0879-1.1831-4.5967-.1732-6.7021,.4095-.4461,.1234-.9002,.2439-1.3592,.3077,.3211-.0446-.4047,.017-.4766,.0175-.1131,.0008-.7846-.1119-.3486-.0023-.1631-.041-.3191-.0765-.4795-.1286,.2045,.092,.2096,.0885,.0152-.0108-.1822-.1188-.1809-.1149,.0039,.0115-.1454-.1549-.1482-.1551-.0085-.0007-.1035-.1978-.1089-.204-.0163-.0186-.0679-.2257-.1107-.4528-.1451-.6856-.1468-.9952-1.4563-1.6304-2.3577-1.3387-1.0872,.3518-1.496,1.2911-1.3387,2.3577h0Z"/><path d="M284.6094,479.2258c-6.8859,1.6991-13.7719,3.3982-20.6578,5.0973-.9679,.2388-1.9358,.4777-2.9037,.7165-3.5907,.886-2.0698,6.4324,1.5286,5.5445,6.8859-1.6991,13.7719-3.3982,20.6578-5.0973,.9679-.2388,1.9358-.4777,2.9037-.7165,3.5907-.886,2.0698-6.4324-1.5286-5.5445h0Z"/><path d="M287.9687,490.4937c-6.8859,1.6991-13.7719,3.3982-20.6578,5.0973-.9679,.2388-1.9358,.4777-2.9037,.7165-3.5907,.886-2.0698,6.4324,1.5286,5.5445,6.8859-1.6991,13.7719-3.3982,20.6578-5.0973,.9679-.2388,1.9358-.4777,2.9037-.7165,3.5907-.886,2.0698-6.4324-1.5286-5.5445h0Z"/><path d="M290.888,501.487c-6.8859,1.6991-13.7719,3.3982-20.6578,5.0973-.9679,.2388-1.9358,.4777-2.9037,.7165-3.5907,.886-2.0698,6.4324,1.5286,5.5445,6.8859-1.6991,13.7719-3.3982,20.6578-5.0973,.9679-.2388,1.9358-.4777,2.9037-.7165,3.5907-.886,2.0698-6.4324-1.5286-5.5445h0Z"/><path d="M326.0363,359.8875c7.0712-.0631,14.1424-.1262,21.2135-.1893,1.0179-.0091,2.0358-.0182,3.0537-.0272,3.6981-.033,3.7071-5.783,0-5.7499-7.0712,.0631-14.1424,.1262-21.2135,.1893-1.0179,.0091-2.0358,.0182-3.0537,.0272-3.6981,.033-3.7071,5.783,0,5.7499h0Z"/><path d="M325.579,371.6367c7.0712-.0631,14.1424-.1262,21.2135-.1893,1.0179-.0091,2.0358-.0182,3.0537-.0272,3.6981-.033,3.7071-5.783,0-5.7499-7.0712,.0631-14.1424,.1262-21.2135,.1893-1.0179,.0091-2.0358,.0182-3.0537,.0272-3.6981,.033-3.7071,5.783,0,5.7499h0Z"/><path d="M325.4797,383.0106c7.0712-.0631,14.1424-.1262,21.2135-.1893,1.0179-.0091,2.0358-.0182,3.0537-.0272,3.6981-.033,3.7071-5.783,0-5.7499-7.0712,.0631-14.1424,.1262-21.2135,.1893-1.0179,.0091-2.0358,.0182-3.0537,.0272-3.6981,.033-3.7071,5.783,0,5.7499h0Z"/><g><path d="M164.9056,322.1463s-7.7874,4.1437-16.3211,3.5957c5.4965,3.7727,14.593,4.8167,17.0583,3.7232-6.0086-5.0182-.7749-7.1304-.7373-7.3188Z"/><path d="M163.4545,319.6638c-.4203,.2225-.8551,.4198-1.2897,.6122-.1055,.0467-.2117,.0919-.3172,.1384-.4388,.1936,.5308-.2097,.1891-.0805-.2716,.1027-.5388,.2181-.8099,.3223-.675,.2595-1.3573,.5-2.0459,.7211-1.6142,.5182-3.2639,.9324-4.9357,1.2162-.2762,.0469-.553,.0904-.8303,.1302,.3143-.045,.1128-.0144-.0839,.0068-.531,.0573-1.062,.1074-1.5953,.1389-1.0505,.062-2.1008,.0582-3.1512-.0025-1.2033-.0695-2.5051,.9378-2.7723,2.1107-.2973,1.3051,.2221,2.5041,1.3212,3.2467,3.0892,2.0872,6.8134,3.3438,10.4652,3.9965,1.6664,.2979,3.3716,.5214,5.0673,.5291,1.2223,.0056,2.6022-.0335,3.7412-.5127,.9596-.4037,1.7152-.9447,2.008-2.008,.2554-.9273,.0236-2.1479-.7394-2.7972-.5951-.5065-1.1507-1.0388-1.6622-1.6298,.4301,.497-.1232-.197-.1972-.3218-.0657-.1102-.1273-.2226-.1847-.3373-.1338-.2859-.1057-.2172,.0845,.2062-.0354-.0998-.0663-.2011-.0926-.3037-.0649-.305-.0568-.1938,.0243,.3335,.0191-.0337,.0137-.4883-.0043-.529-.0876,.5562-.1014,.6899-.0412,.401,.0189-.0766,.0413-.1521,.0673-.2266,.0696,.4601-.3427,.6183-.047,.1741,.358-.5378-.4558,.4294-.1302,.1442,.1016-.089,.1865-.2041,.2853-.2977,.0878-.0833,.2168-.1585,.291-.2523-.465,.588-.5402,.3865-.2394,.1963,.5858-.3705,1.2296-.7549,1.5587-1.3919,.6898-1.335,.3898-3.1826-1.0314-3.9335-1.3184-.6965-3.1964-.3952-3.9335,1.0314,.1506-.2914,1.4679-1.3108,.6838-.7906-.3948,.2619-.7774,.5479-1.1402,.852-.8281,.6941-1.4452,1.6127-1.801,2.6309-1.1085,3.1723,1.1597,6.1663,3.4442,8.1106l1.2686-4.8052c-.1776,.0747-.3585,.1336-.5451,.1814-.1539,.0395-.8641,.1483-.3074,.0775,.5466-.0696,.0803-.0101-.0459-.0022-.1554,.0098-.3102,.0244-.4658,.0324-.2825,.0145-.5656,.0195-.8485,.0182-.6776-.0031-1.3548-.0445-2.029-.1104-.1745-.017-.3485-.0386-.523-.0561-.5583-.0561,.3828,.0678,.0109,.0037-.4073-.0702-.8165-.1265-1.2231-.202-1.6107-.2992-3.2013-.7214-4.743-1.2761-.1917-.069-.3828-.1397-.5729-.2131-.0713-.0275-.823-.3421-.2162-.0783-.3696-.1607-.7363-.3278-1.0973-.5069-.7745-.3842-1.5205-.8173-2.2368-1.3013-.4837,1.7858-.9674,3.5716-1.4511,5.3574,5.9875,.346,12.4605-1.1757,17.7721-3.9882,1.331-.7048,1.8484-2.6663,1.0314-3.9335-.8728-1.3537-2.5098-1.7853-3.9335-1.0314Z"/></g><g><path d="M116.3131,327.0118c-1.8802,9.3113-20.4428-5.825-24.271-9.0894-9.8445-8.3944-15.643-21.66-15.1382-34.5797,.7607-19.4686,13.8779-37.1101,30.8533-46.6726,11.4694-6.4609,25.6352-9.6505,37.8901-4.8436,14.54,5.7031,23.815,25.4174,12.1079,38.1058-4.6767,5.0687-11.2331,8.232-18.0439,9.3164-2.7835,.4432-5.6307,.5602-8.3427,1.3279-1.9175,.5428-3.8879,1.4683-5.272,2.9405-1.3969,1.4858-1.0821,2.7694-.9047,4.7022,.3927,4.2781,1.6592,8.4741,3.6991,12.255-1.1516-8.4574-13.7946-15.1387-18.0129-4.8661-.7495,1.8253-.7702,3.8769-.4734,5.8276,.4663,3.0653,1.7286,6.0563,3.8682,8.3002,2.1396,2.244,5.1991,3.6762,8.2969,3.5462-.1905,2.8131-.3809,5.6262-.5714,8.4393-.1161,1.7147-.283,3.5593-1.3997,4.8652-1.127,1.318-2.9145,1.2523-4.2855,.4251Z"/><path d="M113.5408,326.2475c-.0601,.2752-.1472,.5323-.2248,.8016-.0737,.2559-.0422-.5555,.0521-.1566,.0076,.0323-.1577,.2633-.1601,.2666-.2301,.3161,.4601-.4966-.023-.0252-.3766,.3675,.4771-.3776,.1924-.1501-.0819,.0655-.5817,.3356-.0917,.0832,.4911-.253-.2411,.0229-.347,.0711-.321,.1462,.6602,.0391-.0059-.017-.18-.0152-.5793-.068-.7537-.025-.3299,.0814,.7128,.1581,.143,.0222-.183-.0437-.3715-.0687-.5553-.1101-.5675-.1277-1.1242-.3015-1.6712-.4983-.1309-.0471-1.1292-.4479-.4574-.1624-.3616-.1537-.7187-.3183-1.0729-.4883-1.3739-.6593-2.6998-1.4177-3.9947-2.22-1.3368-.8283-2.6412-1.7086-3.9224-2.6203-.6115-.4352-1.2177-.8781-1.819-1.3273-.2856-.2134-.5691-.4296-.8536-.6445-.072-.0544-.4651-.356-.1635-.124,.3131,.2408-.2599-.2025-.3223-.2513-2.1749-1.7011-4.3225-3.4545-6.2447-5.4415-6.3167-6.5293-10.458-15.3979-11.314-24.4552-.8427-8.917,1.3432-17.86,5.5765-25.7367,4.2084-7.8305,10.2969-14.6918,17.4939-19.9053,7.8381-5.6779,17.1969-9.9279,26.9426-10.6378,4.9571-.3611,9.8823,.193,14.547,1.9528,1.4214,.5362,3.2602,1.5174,4.7805,2.5475,1.4328,.9708,2.8412,2.1935,4.181,3.6149,1.3562,1.4388,2.2201,2.5725,3.2514,4.2583,1.0476,1.7124,1.7587,3.1991,2.3287,4.8958,.5805,1.7281,.9808,3.5898,1.0902,4.9961,.0714,.9178,.0857,1.8404,.038,2.7598-.0578,1.1137-.0605,1.1847-.2882,2.2779-.8197,3.9352-2.8226,7.0428-5.8766,9.8104-3.4473,3.124-7.7664,5.1992-12.2634,6.3039-5.2158,1.2813-11.0946,.7557-15.6993,3.9416-2.2982,1.59-3.9601,3.7082-3.8714,6.6169,.079,2.5881,.5255,5.258,1.1866,7.7572,.7067,2.6717,1.7657,5.2574,3.0597,7.6968,.664,1.2517,2.3376,1.7269,3.5901,1.1763,1.4109-.6202,1.8843-1.9299,1.6646-3.3916-.9635-6.4115-7.3721-12.2723-13.9491-12.1871-3.6388,.0472-6.7872,2.0865-8.6097,5.1923-2.6504,4.5164-1.9617,10.0378,.1255,14.6292,2.3511,5.1718,7.568,8.9295,13.3397,8.8128l-2.875-2.875c-.1994,2.9452-.3693,5.8941-.5995,8.837-.0646,.8252-.1652,1.6641-.5287,2.4063-.1244,.2539-.3977,.3332-.0192,.2033-.3145,.1079-.4584-.0202-.7832-.1994-3.2423-1.7887-6.1464,3.1751-2.9021,4.9649,3.8906,2.1464,8.1,.365,9.427-3.8512,.5911-1.8782,.5868-3.9583,.7187-5.9074,.1457-2.1512,.2913-4.3024,.437-6.4536,.1036-1.5299-1.4011-2.9048-2.875-2.875-3.4004,.0688-6.2173-1.9813-7.83-4.883-1.4657-2.6371-2.4086-6.5429-.9686-9.3612,.1399-.2739,.2908-.543,.4545-.8035,.1028-.1636,.2104-.3297,.3257-.4854-.0353,.0477-.2261,.2751-.0182,.0314,.2029-.2378,.4223-.453,.6436-.6733,.0232-.0231,.3452-.3063,.0982-.1037-.2377,.195,.1596-.1132,.2103-.1441,.2418-.1474,.4889-.2791,.7333-.4207,.4311-.2497-.2951,.0302,.1884-.063,.2594-.05,.535-.1342,.792-.2015,.3202-.0839-.1517,.012-.1872,.0154,.1948-.0185,.3892-.0329,.5849-.0386,.2371-.0069,.472,.0046,.7088,.0123,.7088,.0229-.1837-.0957,.3064,.0316,.5601,.1455,1.1128,.27,1.6585,.4697,.4523,.1655-.2489-.1488,.3572,.1663,.2284,.1188,.4565,.2361,.6795,.3651,.2627,.1519,.52,.313,.7711,.4834,.1085,.0736,.2148,.1502,.3216,.2262,.3865,.2754-.4858-.4231,.1465,.1164,.5063,.432,.987,.8885,1.4293,1.3867,.0885,.0997,.1751,.2008,.2616,.3022,.3337,.3914-.0569-.0976,.1221,.1543,.1797,.2529,.3543,.5088,.5168,.7732,.1847,.3006,.3569,.6094,.5143,.9252,.0588,.1181,.1148,.2374,.1698,.3573,.1959,.4273-.2019-.6114,.0579,.165,.2229,.666,.3964,1.332,.5009,2.0274l5.2547-2.2153c-1.3142-2.4775-2.2551-5.0919-2.8405-7.8362-.2622-1.2291-.4209-2.4585-.5399-3.7083-.0418-.4386-.0957-.8803-.0866-1.3217,.0079-.3841-.0766-.2235,.2231-.6071,1.4774-1.8911,4.5579-2.4353,6.7531-2.7881,2.7966-.4495,5.6194-.6252,8.3789-1.3045,9.5832-2.3591,19.1336-9.0295,21.8655-18.9291,2.3499-8.5152-.6604-17.4531-6.0248-24.1617-6.1413-7.6801-15.5087-11.4781-25.2076-11.7195-10.8867-.271-21.7535,3.6585-30.8236,9.4905-8.3716,5.3829-15.6133,12.5877-20.8413,21.071-5.159,8.3714-8.3163,18.1911-8.2296,28.074,.0916,10.4377,3.9186,20.6293,10.3631,28.7881,4.161,5.2678,9.7606,9.5277,15.3122,13.2466,2.7895,1.8686,5.721,3.5966,8.8917,4.737,2.7491,.9888,6.0906,1.3644,8.4671-.6743,1.0744-.9216,1.7513-2.2307,2.0511-3.604,.3308-1.5157-.4543-3.1096-2.008-3.5366-1.4373-.3949-3.204,.4842-3.5366,2.008Z"/></g><path d="M310.9958,538.8174c.5859,6.4556,1.538,13.0871,4.7836,18.8116,2.785,4.912,7.112,8.6375,11.3331,12.2755,14.1332,12.1807,26.8602,25.5823,37.1763,41.1939,20.7949,31.4698,32.0991,70.2374,26.724,107.9723-4.6119,32.3773-20.5934,62.9546-44.2683,85.4724-25.535,24.2871-60.1257,36.7571-94.408,42.4262-31.5254,5.2132-64.0503,5.0465-93.8043,18.157-13.7887,6.0757-26.0846,15.1444-35.0186,27.3622-1.8631,2.548-4.5901,8.4164-8.3483,8.2383-3.6708-.174-4.6173-5.8628-5.0672-8.665-1.6738-10.4269-2.0979-21.2044-1.9974-31.7493,.1038-10.8946,.9936-21.7916,2.7406-32.5469,1.4786-9.1031,3.0514-18.8611,7.3811-27.1166,6.7179-12.8091,20.7861-16.9286,34.0897-19.3717,14.525-2.6675,29.3401-3.1685,44.0262-4.4139,13.5589-1.1498,26.9283-3.6077,39.917-7.725,13.624-4.3188,27.2043-10.7992,36.8907-21.6022,12.1191-13.5161,15.0196-30.7684,13.4417-48.407-1.5951-17.8311-5.3472-35.5269-11.7838-52.2513-3.0479-7.9194-6.6332-15.6281-10.6795-23.0858-4.1937-7.7293-9.4168-14.8346-13.6608-22.5058-3.07-5.5491-5.4066-13.0127,1.3387-16.7181-1.3112-.3438-2.6223-.6876-3.9335-1.0314,7.7249,14.7263,10.1557,32.1995,12.419,48.4692,2.5677,18.4579,5.1116,37.0122,7.1422,55.5338,2.4659,22.4914,3.6203,45.1264,3.4378,67.7521-.1847,22.9086-1.3124,45.7767-.3935,68.6881,.4119,10.2681,1.4004,20.4933,1.9872,30.7505,.3805,6.6503,.7445,13.4018,2.6048,19.8364,2.2019,7.6156,6.3429,14.4068,10.9528,20.7855,3.5721,4.9428,9.2716,14.6628,3.1753,19.8748-3.5832,3.0635-9.1328,3.7193-13.6431,4.0634-6.3551,.4848-12.7635,.1525-19.1043-.3824-5.5226-.4658-11.0189-1.1651-16.5284-1.7561-6.9644-.7471-13.9774-.7383-20.8779-2.0797-9.1157-1.772-17.7669-5.6949-23.2327-13.495-4.8118-6.8668-6.921-15.2309-8.0634-23.4292-1.2908-9.2631-1.3787-18.6705-1.8933-27.9956-.6279-11.3807-1.4594-22.7502-2.4931-34.1012-4.0813-44.817-11.278-89.3583-21.5511-133.1728-5.1883-22.128-11.0224-44.1068-16.3755-66.1965-5.4348-22.4266-10.7226-44.8885-15.9992-67.3527-5.2853-22.5012-10.5594-45.0052-15.9575-67.4797-1.429-5.9493-3.0076-20.5629-12.5824-18.1114-7.9447,2.0342-6.1947,12.381-5.1956,18.3264,1.1934,7.1022,3.367,14.7013,7.6549,20.5971,5.0194,6.9018,13.0899,8.6952,21.2185,9.0041,19.1101,.7263,38.9332-2.1787,56.962-8.5729,7.2565-2.5736,14.4624-5.7997,21.2906-9.3616,4.4492-2.3209,8.5086-4.8331,11.195-9.1363,2.7039-4.3313,5.4078-8.6626,8.1117-12.9939,.796-1.275,1.516-2.7122,2.437-3.9037,2.7787-3.595,8.3989-1.6236,7.7467,3.0994-.4998,3.619-2.4211,7.3816-3.5813,10.8401-.7305,2.1775,1.5213,4.0027,3.5366,3.5366,15.7438-3.6418,31.4875-7.2837,47.2313-10.9255,1.0412-.2409,2.1322-.6208,3.1957-.7392,3.8598-.4297,5.5249,4.5021,1.5055,5.7516-3.612,1.1228-2.0581,6.1016,1.5286,5.5445,3.8484-.5977,4.6874,4.7339,1.1058,5.844-3.6132,1.1199-2.0575,6.1015,1.5286,5.5445,3.8484-.5977,4.6874,4.7339,1.1058,5.844-3.6144,1.1203-2.0568,6.0984,1.5286,5.5445,4.2357-.6543,4.2737,4.7765,.7102,5.9355-1.2082,.393-2.5214,.5833-3.7586,.8694-5.2362,1.2112-10.4723,2.4225-15.7085,3.6337-3.7505,.8676-7.5536,1.6154-11.2734,2.6078-2.5397,.6775-4.744,1.997-6.8636,3.5235-3.5768,2.576-6.9517,5.1926-10.7492,7.4608-17.025,10.1686-34.8531,18.9982-53.0181,26.9379-16.5003,7.2121-33.5625,13.478-51.2195,17.1809-17.1023,3.5866-35.1279,4.6521-52.1759,.194-16.5487-4.3275-31.8333-13.9802-42.0546-27.8062-18.9119-25.5814-20.2244-60.5033-13.0529-90.4562,8.0091-33.4513,26.9347-64.1768,52.6543-86.9084,6.6441-5.8722,13.7343-11.2128,21.1758-16.033,5.8157-3.7671,12.2749-6.8524,15.1326-13.5842,4.9059-11.5565-2.9618-24.6769-7.2925-35.1402-2.3728-5.7328-4.7918-11.908-4.6701-18.2114,.1652-8.5591,6.6451-15.2456,13.8462-19.0385,8.2054-4.3219,18.1994-5.1269,27.0138-2.2927,7.4812,2.4055,13.1786,7.7618,17.1443,14.4393,3.8847,6.541,6.1907,14.229,5.8145,21.8749-.1687,3.4291-.8552,7.7381-3.1004,10.4657-2.2025,2.6757-5.5484,4.2496-7.3167,7.318-4.3125,7.4834,3.0974,14.815,9.7892,16.9172,8.3546,2.6245,17.4632,1.3914,26.0307,.8995,8.7804-.5042,16.7708,.3031,24.9032,3.842,8.086,3.5187,15.4528,8.647,22.0925,14.4074,6.9392,6.0203,13.2336,12.7904,18.9318,19.9902,2.6474,3.345,5.1511,6.8051,7.5238,10.35,2.3412,3.4979,6.0196,7.9506,6.6078,12.1644,.2634,1.8872-.7094,5.0785-3.2238,3.5669-2.2453-1.3498-1.8636-5.1109-1.5977-7.2717,.6169-5.0135,2.3516-9.9538,4.3869-14.5511,4.0017-9.039,9.0434-17.8775,14.0947-26.3703,5.3122-8.9314,12.1396-16.8548,19.1694-24.4645,3.2896-3.5609,6.6508-7.0546,10.0007-10.5586,1.5189-1.5888,3.1679-3.0965,5.5231-2.3348,2.2665,.733,3.3854,3.2082,2.7005,5.4312-1.0748,3.4886-3.881,6.8825-5.7114,10.0245-1.0776,1.8498,.2859,4.3777,2.4825,4.326,9.1049-.2142,18.2099-.4283,27.3148-.6425,3.1764-.0747,6.4483-.3893,9.6246-.206,6.2067,.3582,6.7452,5.7785,6.8136,10.5593,.1505,10.5233,.3011,21.0465,.4516,31.5698,.0678,4.7393-.8555,9.5969-6.7218,10.0756-3.4338,.2802-6.9471,.1634-10.39,.2444l-19.3304,.4547c-1.8965,.0446-3.8094,.1656-5.7065,.1342-.6575-.0109-1.2388-.0029-1.8773-.2673-2.9257-1.2116-2.2778-5.3433,.8717-5.6516,3.638-.3561,3.7551-5.5631,0-5.7499-3.7667-.1875-4.1347-5.5615-.2749-5.9361,3.6393-.3532,3.754-5.5631,0-5.7499-3.7667-.1875-4.1347-5.5615-.2749-5.9361,3.64-.3533,3.7533-5.5601,0-5.7499-4.0413-.2044-3.8451-5.3217-.0723-5.9409,.6071-.0996,1.2928-.0304,1.9056-.0448,3.628-.0853,7.256-.1707,10.884-.256,6.4188-.151,12.8375-.3019,19.2563-.4529,3.694-.0869,3.7077-5.8371,0-5.7499-8.7653,.2062-17.5306,.4123-26.2959,.6185-3.7355,.0879-7.9035-.3736-11.0457,2.0286-6.8138,5.2091-2.63,15.1428,5.368,15.5475v-5.7499c-4.7151,.4577-8.643,3.8521-8.5806,8.8554,.0617,4.946,4.1504,8.3464,8.8554,8.5806v-5.7499c-4.7151,.4577-8.643,3.8521-8.5806,8.8554,.0617,4.946,4.1504,8.3464,8.8554,8.5806v-5.7499c-4.5935,.4497-8.4712,3.6423-8.5628,8.5256-.0863,4.6025,3.6486,8.4654,8.179,8.8635,4.1843,.3677,8.5838-.1395,12.7728-.238,6.5721-.1546,13.1443-.3092,19.7164-.4637,5.5596-.1308,10.9204-.4412,14.4971-5.5051,2.9789-4.2176,2.3172-9.3347,2.2477-14.1958-.0955-6.6768-.191-13.3537-.2865-20.0305-.0587-4.1026,.1482-8.3075-.2182-12.3994-.6813-7.609-7.1746-11.8202-14.3365-11.6518-11.6865,.2749-23.373,.5497-35.0594,.8246,.8275,1.442,1.655,2.884,2.4825,4.326,2.2318-3.8311,5.7835-8.1702,6.5432-12.6204,1.5449-9.0502-9.3259-15.2114-16.3094-9.2474-3.9691,3.3897-7.4472,7.6757-10.9997,11.4984-3.9178,4.2158-7.7516,8.5151-11.3467,13.0111-6.8425,8.557-12.0045,17.9122-17.2944,27.4632-5.1385,9.2775-10.2772,19.1229-11.4716,29.8165-.503,4.5036,.2573,9.6491,4.4456,12.2366,3.5041,2.1648,7.8707,1.2609,10.224-2.1064,5.518-7.8956-3.4209-18.2668-7.8701-24.5969-5.6208-7.9971-11.884-15.58-18.832-22.4606-12.8445-12.7199-29.7314-25.2146-48.4901-26.0399-9.9071-.4358-19.9989,2.0123-29.8498,.338-4.0425-.6871-9.9395-2.4463-10.3573-7.4015-.3032-3.5958,5.5408-6.3864,7.5022-8.9432,4.8019-6.2593,4.7287-15.8671,3.323-23.2335-1.5661-8.2071-5.4789-16.1079-11.0453-22.3359-12.3925-13.8653-34.5914-15.3721-49.8337-5.3044-7.3342,4.8443-13.0767,12.2178-13.6385,21.224-.4383,7.0268,2.07,13.9857,4.6939,20.3795,4.2044,10.2451,14.7784,26.9497,4.1534,36.5254-3.4238,3.0857-7.9072,5.1559-11.7285,7.7191-3.9314,2.6371-7.7529,5.4289-11.4829,8.3434-7.5889,5.9297-14.704,12.4663-21.2208,19.5586-12.959,14.1033-23.5435,30.3278-31.2726,47.8489-13.9528,31.6296-19.8537,69.3924-7.6261,102.5758,6.0008,16.285,16.5,30.3429,30.9292,40.0889,16.0496,10.8404,35.3544,15.2462,54.5577,14.7253,19.824-.5378,39.3264-5.6825,57.8608-12.459,18.7862-6.8685,37.1147-15.3496,54.8212-24.6358,9.8646-5.1735,19.793-10.469,28.6761-17.2116,2.2597-1.7152,4.5418-3.4691,7.3322-4.1542,1.7535-.4305,3.5199-.8142,5.2789-1.2211,5.8769-1.3594,11.7537-2.7189,17.6306-4.0783,3.5228-.8149,8.3845-1.186,11.2635-3.6001,3.085-2.5869,4.1616-6.9477,2.3387-10.5898-1.9057-3.8075-5.8396-5.1931-9.8574-4.5724,.5095,1.8482,1.019,3.6964,1.5286,5.5445,4.4945-1.3931,7.5851-5.7674,6.3851-10.548-1.2224-4.87-5.8608-7.1131-10.548-6.3851l1.5286,5.5445c4.4945-1.3931,7.5851-5.7674,6.3851-10.548-1.2224-4.87-5.8608-7.1131-10.548-6.3851,.5095,1.8482,1.019,3.6964,1.5286,5.5445,8.8558-2.7529,8.5412-15.7562-1.0706-17.0256-3.0241-.3994-6.4654,.8728-9.3826,1.5476-11.5482,2.6713-23.0964,5.3427-34.6446,8.014-3.2972,.7627-6.5945,1.5254-9.8917,2.2881,1.1789,1.1789,2.3577,2.3577,3.5366,3.5366,1.2688-3.7821,3.1514-7.7415,3.7091-11.7043,1.1088-7.8783-7.2467-14.0899-14.4185-10.3576-3.8145,1.9851-5.9411,6.8564-8.1252,10.3551-2.3759,3.8059-4.5382,7.9208-7.2005,11.5341-1.4867,2.0179-3.899,3.3244-6.0398,4.5377-3.2171,1.8235-6.5778,3.3888-9.9461,4.9093-8.0644,3.6405-16.2143,6.7231-24.8146,8.8695-9.7578,2.4353-19.7493,3.933-29.7913,4.4754-4.7018,.254-9.4384,.3292-14.1425,.0843-4.5849-.2388-9.7198-.9379-13.3109-4.0746-5.2893-4.62-7.372-13.0034-8.6544-19.6001-.6018-3.0956-1.4432-6.9248-.9833-10.0931,.3534-2.4343,2.378-3.7444,3.8626-1.3273,1.2514,2.0375,1.5908,4.6388,2.1419,6.9236,5.4212,22.4748,10.7071,44.982,15.9928,67.489,10.5799,45.0503,21.9146,89.9072,32.6847,134.9074,10.6017,44.2965,18.0613,89.3412,22.252,134.6962,1.0293,11.1395,1.8635,22.2969,2.502,33.4656,.5492,9.6062,.6637,19.2777,1.8589,28.8346,2.1047,16.8296,8.3942,33.2642,25.0435,40.3403,8.5336,3.6268,17.9234,4.4954,27.0917,4.9892,4.7924,.2582,9.5495,.9048,14.3176,1.4309,11.7953,1.3016,24.7106,2.909,36.3495-.2348,4.4511-1.2023,9.0247-3.4772,11.2783-7.7101,3.8855-7.298,.0694-16.3967-4.2855-22.5391-4.6463-6.5534-9.1006-13.1887-11.2344-21.0292-1.8341-6.7395-1.972-13.779-2.3805-20.7092-.6319-10.7206-1.6416-21.396-1.9682-32.1368-.3438-11.3093-.2907-22.6262-.0869-33.9376,.4168-23.1415,1.0108-46.1758-.369-69.3035-1.2481-20.9198-4.2353-41.5402-6.805-62.3136-2.1426-17.3205-3.9208-34.8148-8.1732-51.7788-1.8573-7.4091-4.2407-14.7421-7.7979-21.5233-.7348-1.4007-2.6213-1.7522-3.9335-1.0314-16.2621,8.9333-1.1885,27.6822,4.9609,37.8576,9.3543,15.4788,16.7809,31.987,21.3829,49.5034,2.417,9.1996,4.1121,18.5878,5.1739,28.0383,1.1661,10.3791,1.7077,21.1626-1.4905,31.2514-4.7606,15.0172-16.7222,25.5043-30.6038,32.0896-12.9688,6.1523-27.7819,9.8939-41.9916,11.7434-14.597,1.8999-29.3626,2.145-43.9767,3.924-13.1939,1.6061-27.9946,3.7982-38.9945,11.8808-14.6951,10.7977-17.1236,31.8556-19.2523,48.6077-1.3796,10.8571-1.955,21.8161-1.7157,32.758,.1197,5.4706,.4425,10.9373,.969,16.3839,.4354,4.5038,.6719,9.3216,2.0173,13.6702,2.1993,7.1088,9.0669,12.2161,15.9207,6.9301,3.1627-2.4393,5.1108-6.0699,7.4558-9.225,2.3897-3.2151,5.0959-6.2031,7.9988-8.9615,23.1893-22.0345,57.5942-26.617,88.0269-29.9144,18.3784-1.9913,36.6294-4.194,54.4721-9.2315,17.4121-4.9159,34.9127-11.671,50.1829-21.4842,28.0475-18.0243,49.263-45.8834,60.3162-77.2402,12.3119-34.9276,10.2663-73.1256-3.4374-107.3532-7.315-18.2706-17.5911-35.1912-30.2356-50.2628-6.2476-7.4468-13.0739-14.3847-20.3695-20.8061-4.5716-4.0238-9.8697-7.7875-13.4962-12.7488-3.8505-5.2677-4.8919-11.849-5.468-18.1966-.3318-3.6552-6.0849-3.6901-5.7499,0h0Z"/><path d="M153.911,305.9396c2.4384,.7732,5.2665,.3945,7.4062-1.0113,.8368-.5498,1.2688-1.7208,.6876-2.6223-.5384-.8352-1.7261-1.2764-2.6223-.6876-.3514,.2309-.7192,.4279-1.1053,.5942l.4578-.1932c-.5685,.2354-1.1581,.3961-1.767,.4843l.5095-.0685c-.6422,.0842-1.2858,.0851-1.9279-.0005l.5095,.0685c-.3838-.0567-.7592-.1427-1.1291-.26-.956-.3031-2.1339,.356-2.3577,1.3387-.2381,1.0454,.315,2.0331,1.3387,2.3577h0Z"/><path d="M342.1123,392.7748c-10.3571,18.5027-18.3384,38.3609-23.6084,58.9017-1.4859,5.7916-2.751,11.6375-3.8069,17.5226-.2739,1.5266,.4148,3.0988,2.008,3.5366,1.3919,.3825,3.2609-.4716,3.5366-2.008,3.671-20.4603,9.9384-40.4682,18.7484-59.3013,2.5014-5.3473,5.2038-10.5983,8.0872-15.7495,1.8094-3.2325-3.1553-6.1349-4.9649-2.9021h0Z"/><path d="M661.6612,384.8934c8.2399,5.3557,14.3253,13.6781,17.0122,23.1213,.678,2.383,3.9873,2.8196,5.2547,.6868,2.9019-4.8835,8.4403-7.9485,13.9817-8.3851,6.5385-.5152,13.0409,1.9918,18.1147,6.0376,1.7581,1.4019,4.0019,.8875,4.8052-1.2686,3.1684-8.5044,10.8567-14.9601,19.6578-16.9708,1.5141-.3459,2.4064-2.087,2.008-3.5366-.4273-1.5549-2.0179-2.355-3.5366-2.008-10.8573,2.4804-19.8068,10.6073-23.6738,20.9867l4.8052-1.2686c-6.3149-5.0354-14.3308-8.477-22.5524-7.6892-7.5262,.7212-14.6554,4.6049-18.5747,11.2005,1.7516,.2289,3.5032,.4578,5.2547,.6868-3.1025-10.9035-10.1578-20.3849-19.6547-26.5577-3.1117-2.0225-5.9968,2.9535-2.9021,4.9649h0Z" style="fill:#f953b2;"/><path d="M588.3077,128.1481c3.3472,3.8655,6.6944,7.731,10.0417,11.5965,.9879,1.1408,3.0669,1.0881,4.0658,0,1.1158-1.2155,1.0537-2.8489,0-4.0658-3.3472-3.8655-6.6944-7.731-10.0417-11.5965-.9879-1.1408-3.0669-1.0881-4.0658,0-1.1158,1.2155-1.0537,2.8489,0,4.0658h0Z" style="fill:#6966ed;"/><path d="M570.1174,174.0606c4.9221,2.4233,10.3879,3.6275,15.8786,3.2961,1.4984-.0905,2.9474-1.2576,2.875-2.875-.0663-1.48-1.2672-2.972-2.875-2.875-1.1964,.0722-2.3944,.0778-3.5908,.0018-.5976-.038-1.1943-.0944-1.7883-.1706,.6631,.085-.2488-.0448-.3782-.0667-.2953-.0498-.5898-.104-.8834-.1631-1.1742-.2363-2.334-.546-3.469-.9286-.5677-.1914-1.1282-.4019-1.6834-.6269,.4689,.1901-.1052-.048-.2561-.1163-.3119-.1412-.6202-.2894-.9273-.4406-1.3474-.6633-3.173-.408-3.9335,1.0314-.6848,1.296-.4091,3.2243,1.0314,3.9335h0Z" style="fill:#6966ed;"/><path d="M635.7927,112.4197v13.7092c0,1.5038,1.3224,2.9445,2.875,2.875,1.5577-.0698,2.875-1.2632,2.875-2.875v-13.7092c0-1.5038-1.3224-2.9445-2.875-2.875-1.5577,.0698-2.875,1.2632-2.875,2.875h0Z" style="fill:#6966ed;"/></svg>