<?xml version="1.0" encoding="UTF-8"?><svg id="Layer_2" xmlns="http://www.w3.org/2000/svg" width="1000" height="1000" viewBox="0 0 1000 1000"><g><g><path d="M490.6387,371.2495l78.2203-141.9808,75.8618,22.5551-12.0557,161.6528c-.9082,12.1776-12.8345,20.4014-24.5394,16.9213l-106.1785-31.5689c-11.705-3.4801-17.201-16.8839-11.3085-27.5795Z" style="fill:#f953b2;"/><path d="M644.8797,234.4626l-2.446-.7272c-2.143-.6371-3.3637-2.8909-2.7265-5.0339h0c3.7956-12.7661-3.4764-26.192-16.2425-29.9876l-7.7861-2.315c-12.7661-3.7956-26.1919,3.4764-29.9875,16.2425h0c-.6371,2.143-2.8909,3.3637-5.0339,2.7266l-2.446-.7272c-5.1064-1.5182-10.4768,1.3906-11.995,6.497h0c-1.5182,5.1064,1.3906,10.4768,6.497,11.995l66.6686,19.8218c5.1064,1.5182,10.4768-1.3906,11.995-6.497h0c1.5182-5.1064-1.3906-10.4768-6.497-11.995Z" style="fill:#f953b2;"/><path d="M733.2562,320.8803c.4752-13.5176-2.7534-24.6029-7.2113-24.7596-2.0169-.0709-3.9392,2.1081-5.4838,5.7674-3.2069,7.5973-9.8496,13.2072-17.9038,14.977l-115.1741,25.3075,24.5546,39.9183,86.9536-39.3192c7.7592-3.5086,16.5841-2.5056,23.8976,1.8564,.4609,.2749,.9403,.4268,1.4349,.4442,4.458,.1567,8.4571-10.6744,8.9323-24.192Z" style="fill:#f953b2;"/></g><path d="M308.6299,219.2749c-.5968,.9149-.895,2.0106-.5739,3.0853,.2556,.8554,.8119,1.6105,1.4889,2.1817,1.2304,1.0381,2.7131,1.5488,4.1078,2.3068,.1746,.0949,.3471,.194,.5153,.2998,.0486,.0306,.5117,.3688,.2893,.1857,.1169,.0963,.2219,.2032,.3308,.3081,.1227,.14,.1326,.1494,.0297,.0283,.055,.0833,.104,.1701,.147,.2602-.0734-.1667-.0826-.1623-.0277,.0132-.0208-.1941-.0276-.1974-.0203-.01,.0351-.1956,.0305-.2028-.0138-.0214,.0178-.0933,.0609-.1727,.1293-.238,.1504-.0951,.1485-.0932-.0058,.0056l-.1231,.0676c.1659-.0619,.1621-.0605-.0114,.0041-.0974,.0342-.1955,.0663-.2942,.0964-1.5736,.4847-3.0579,.4615-4.6332-.0187-.7968-.2429-1.7716,.2894-1.959,1.1123-.1961,.8608,.259,1.6989,1.1123,1.959,1.5014,.4577,3.0816,.5785,4.6344,.3698,1.6531-.2221,3.5751-.6969,4.1974-2.4484,.6166-1.7355-.5672-3.3256-1.9251-4.261-1.0499-.7233-2.2706-1.1363-3.3834-1.7458-.3213-.176-.6459-.3652-.9347-.5922,.2064,.1622-.1249-.1227-.1832-.1792-.0655-.0634-.3335-.3825-.1738-.1613-.0418-.0579-.081-.1175-.1185-.1782-.0158-.0255-.1632-.2823-.0825-.1222,.0784,.1556-.0121-.0448-.0213-.0693-.1163-.3088-.0449,.1062-.0215-.0523,.026-.1764-.0253,.0311-.0288,.0561,.0139-.1016,.0488-.2114,.0859-.3068-.0152,.0389-.0803,.1687,.0074,.0159,.0672-.1171,.1358-.2307,.2098-.344,.4561-.6992,.1636-1.7906-.5713-2.1789-.7946-.4198-1.6921-.1749-2.1789,.5713h0Z"/><path d="M555.4844,413.6722c-6.0506-3.9207-12.1011-7.8414-18.1517-11.7621-.8613-.5581-1.7225-1.1162-2.5838-1.6743-2.5879-1.6769-4.9854,2.4574-2.4114,4.1254,6.0506,3.9207,12.1011,7.8414,18.1517,11.7621,.8613,.5581,1.7225,1.1162,2.5838,1.6743,2.5879,1.6769,4.9854-2.4574,2.4114-4.1254h0Z"/><path d="M549.4621,424.0183c-6.0506-3.9207-12.1011-7.8414-18.1517-11.7621-.8613-.5581-1.7225-1.1162-2.5838-1.6743-2.5879-1.6769-4.9854,2.4574-2.4114,4.1254,6.0506,3.9207,12.1011,7.8414,18.1517,11.7621,.8613,.5581,1.7225,1.1162,2.5838,1.6743,2.5879,1.6769,4.9854-2.4574,2.4114-4.1254h0Z"/><path d="M543.3372,433.8465c-6.0506-3.9207-12.1011-7.8414-18.1517-11.7621-.8613-.5581-1.7225-1.1162-2.5838-1.6743-2.5879-1.6769-4.9854,2.4574-2.4114,4.1254,6.0506,3.9207,12.1011,7.8414,18.1517,11.7621,.8613,.5581,1.7225,1.1162,2.5838,1.6743,2.5879,1.6769,4.9854-2.4574,2.4114-4.1254h0Z"/><g><path d="M303.0092,255.2826s-8.9589,.6321-16.6705-3.409c3.5518,5.784,11.5817,10.5195,14.3277,10.5224-3.5129-7.1545,2.2298-6.9537,2.3428-7.1134Z"/><path d="M303.0092,252.8938c-1.7344,.119-3.5041,.011-5.2293-.1666-.1806-.0186-.361-.0382-.5413-.0593-.0336-.0039-.7549-.0996-.2674-.0309-.3951-.0557-.7893-.1174-1.1824-.1857-.9282-.1613-1.8503-.3577-2.7627-.5929-1.9714-.5081-3.749-1.1528-5.4817-2.0475-.9495-.4903-2.1177-.4036-2.8949,.3735-.7338,.7338-.9324,1.999-.3735,2.8949,2.0921,3.3533,5.0788,6.0708,8.323,8.2861,1.2791,.8734,2.6248,1.6705,4.0433,2.2966,1.2824,.566,2.6003,1.0947,4.024,1.1228,1.93,.0381,2.8172-2.0274,2.0627-3.5945-.2371-.4926-.2105-.4015-.3815-.8685-.1243-.3394-.2349-.6847-.3213-1.0358-.0306-.1242-.0509-.2515-.083-.3751-.1354-.5222-.0202,.2945-.002,.0303,.0146-.211,.0166-.5477-.0109-.7579-.028-.2143-.1566,.5435-.0224,.1739,.0264-.0726,.0445-.1629,.0596-.2388,.1142-.5731-.246,.4244,.0252-.0472,.2612-.4541-.3929,.3023-.0028,0,.0563-.0436,.1384-.1095,.1775-.1655,.0859-.1228-.4993,.2942-.2194,.1726,.117-.0508,.2514-.1372,.3575-.2083,.3134-.2101-.6276,.1933-.0863,.0369,.2363-.0683,.4672-.1408,.709-.1891,.694-.1389,1.1778-.2339,1.7701-.7461,.9764-.8443,.8657-2.5126,0-3.3783-.9683-.9683-2.3995-.8464-3.3783,0,.844-.7298,1.3982-.6618,.6439-.5362-.2491,.0415-.4968,.0876-.74,.1565-.9727,.2756-1.8928,.7616-2.6123,1.4792-2.4686,2.4625-1.3158,6.1921-.0079,8.9087,.6876-1.1982,1.3751-2.3963,2.0627-3.5945-.0982-.0019-.1939-.0091-.2918-.0159,.1142,.008,.6436,.1321,.2525,.0275-.2268-.0606-.457-.1035-.6827-.1711-.2361-.0708-.4668-.1557-.6988-.2385-.1135-.0405-.6251-.2669-.0347-.004-.1324-.0589-.2653-.1164-.397-.1768-1.3302-.6105-2.5953-1.3643-3.8034-2.1883-.3152-.2149-.6264-.4357-.9336-.6619-.0044-.0033-.5862-.4429-.2621-.192-.156-.1207-.3096-.2446-.4627-.369-.6513-.5289-1.2823-1.0832-1.8866-1.6653-.632-.6088-1.2361-1.2469-1.8011-1.9185-.1266-.1505-.251-.3027-.3732-.4569-.1503-.1897,.1098,.1626-.1226-.1669-.2647-.3755-.5239-.7517-.7672-1.1417l-3.2684,3.2684c3.8259,1.9755,7.9544,3.0366,12.215,3.5217,1.8652,.2124,3.7835,.3423,5.6612,.2135,1.2873-.0884,2.3888-1.0347,2.3888-2.3888,0-1.2245-1.0949-2.4776-2.3888-2.3888Z"/></g><g><path d="M264.7357,244.8353c-.6849,1.0775-1.4302,2.0876-2.1801,3.0008-16.6037,20.2193-44.9682,25.6469-66.8734,39.9536-19.4794,12.7224-33.9316,32.6007-54.7424,43.0035-6.4972,3.2478-13.6851,5.5144-20.9347,5.0623-12.43-.7752-24.0185-10.8284-25.3707-23.2089-1.3522-12.3806,8.8076-25.1948,21.2548-25.6145,1.1352-.0383,2.3378,.0348,3.2862,.6598,2.8292,1.8645,.9475,6.5274-1.9628,8.2624-4.2357,2.5251-9.779,2.173-14.1718-.0677-4.3928-2.2407-7.7485-6.1374-10.2617-10.3802-5.0057-8.4506-6.9493-19.1932-3.0798-28.2208,2.0598-4.8056,5.6-8.8342,9.4614-12.3591,12.2003-11.1371,27.921-17.8756,44.0486-21.4508,16.1276-3.5753,32.7592-4.1586,49.2781-4.2427,7.8537-.04,16.2378-.1219,22.7645-4.4906,13.3416-8.9302,13.4191-29.5612,19.512-42.9142,5.371-11.7709,15.8557-21.2629,28.3213-24.7286,12.1908-3.3893,25.4099-1.0023,36.984,4.1108,8.3128,3.6724,16.1214,8.8259,21.8346,15.8933s9.1847,16.1826,8.4098,25.2374c-.3012,3.5195-1.307,7.1252-3.6994,9.7241-3.9301,4.2695-10.4681,4.7686-16.2416,4.184-7.5482-.7642-17.3771-4.1671-24.9499-1.7936-6.795,2.1297-7.4129,9.6672-6.9475,15.7635,2.4285-8.344-6.5677-19.791-14.7427-11.9806-1.4525,1.3878-2.3208,3.2877-2.8519,5.2251-.8347,3.0444-.8981,6.3491,.1636,9.322,1.7788,4.9805,6.559,6.588,6.8181,12.3685,.1493,3.3296-1.2659,6.7541-3.1266,9.6812Z"/><path d="M262.673,243.6296c-5.8223,8.9911-15.4779,15.3238-24.7396,20.2968-9.6574,5.1855-19.8579,9.2526-29.6844,14.0927-4.8414,2.3846-9.6009,4.9568-14.1098,7.9293-4.8892,3.2233-9.4825,6.8882-13.9144,10.7097-8.8246,7.6093-17.0188,15.9806-26.2951,23.0584-9.4113,7.1807-20.974,14.2654-33.2452,13.7838-9.6135-.3773-19.1241-6.9567-22.4669-16.0654-3.3709-9.1852,.4547-19.7508,8.6555-25.0363,1.9327-1.2456,4.0103-2.1473,6.2597-2.6378,1.1498-.2507,2.3407-.3891,3.5196-.344,.4661,.0178,.9239,.0599,1.3173,.3379-.0862-.0609,.2417,.3644,.1174,.1633-.1347-.2178,.1183,.4026,.1231,.4428,.0476,.3975-.3092,1.3815-.7148,2.0262-.6179,.982-1.491,1.6005-2.5433,2.0627-2.3388,1.0275-5.0506,1.1006-7.5109,.5169-5.6319-1.3362-9.7537-5.8538-12.5994-10.6658-2.9157-4.9305-4.739-10.5932-4.7995-16.3469-.0614-5.8356,1.907-11.2451,5.5335-15.8046,3.7849-4.7586,8.6572-8.7465,13.681-12.129,21.7387-14.6363,48.5085-17.7389,74.0815-18.2854,11.9091-.2545,25.7205,1.4482,35.531-6.7491,7.4698-6.2415,10.4098-16.2195,12.8212-25.2673,1.2255-4.5983,2.332-9.2461,3.9504-13.7274,1.6842-4.6634,4.2281-9.129,7.4463-12.9625,7.0971-8.454,17.1191-14.1002,28.1997-14.9736,12.4285-.9797,25.0915,3.0192,35.6624,9.4003,10.1826,6.1466,18.6297,15.5954,20.7019,27.6178,.879,5.0995,.7785,11.9935-3.2418,15.8278-3.6981,3.527-9.6661,3.4431-14.398,2.9212-5.9173-.6526-11.6686-2.4045-17.6511-2.5713-5.3248-.1484-11.0217,1.0272-14.0298,5.8421-2.3977,3.8379-2.5643,8.7465-2.2443,13.1263,.1896,2.5948,3.9461,3.3543,4.6923,.635,2.1725-7.9165-3.9566-19.195-13.2143-17.4039-5.4824,1.0607-8.685,6.4511-9.4476,11.5892-.4491,3.0261-.2954,6.1548,.8723,9.0123,.8749,2.1409,2.2832,3.8805,3.7699,5.6267,1.2723,1.4943,2.4693,3.051,2.6912,5.1046,.3412,3.158-1.153,6.2471-2.7772,8.8467-1.6338,2.6151,2.4981,5.0161,4.1254,2.4114,2.6167-4.1883,4.6052-9.6123,2.7524-14.4922-1.3348-3.5157-4.613-5.6682-6.0713-9.0568-1.7226-4.0027-1.0106-10.1918,2.5007-13.0673,1.2783-1.0469,2.6108-1.5482,4.1119-1.3742,.9435,.1094,2.2868,.8387,3.1967,1.7113,2.5822,2.4762,3.8071,6.4545,2.8829,9.8223,1.5641,.2117,3.1282,.4234,4.6923,.635-.2973-4.068-.4259-9.4398,2.916-12.2417,1.8598-1.5593,4.616-1.8881,6.9757-1.9518,3.0233-.0817,6.0263,.3386,8.996,.8605,5.8644,1.0305,11.7834,2.4714,17.7748,1.7522,2.9392-.3528,5.9112-1.1382,8.375-2.8447,2.713-1.8792,4.5588-4.5118,5.6501-7.6101,2.0916-5.9381,1.4765-12.9345-.3781-18.8461-1.9683-6.274-5.5015-11.9627-10.0305-16.7083-8.8549-9.2782-21.4507-15.4733-33.9041-18.1403-12.6478-2.7086-25.9546-1.3325-36.9436,5.8154-9.5455,6.2089-16.4061,15.5753-19.9247,26.3514-3.0663,9.3908-4.3259,19.6405-9.3608,28.2861-2.4856,4.2682-6.0596,7.9245-10.7396,9.726-5.7992,2.2323-12.1468,2.1439-18.2638,2.1791-27.6015,.1588-56.5603,2.0128-80.9131,16.3712-5.4573,3.2176-10.6312,7.0452-15.1666,11.4767-4.6803,4.573-8.6226,10.0931-9.9938,16.5941-1.2993,6.16-.609,12.6474,1.5455,18.5363,2.1483,5.8718,5.5989,11.654,10.5351,15.5969,4.8717,3.8914,11.5878,5.9892,17.681,3.8416,2.7872-.9824,5.2025-2.7017,6.4484-5.4554,1.1381-2.5153,1.2171-5.6808-1.0339-7.6283-2.4067-2.0823-6.0169-1.6763-8.9135-1.0955-2.5659,.5145-5.0744,1.5503-7.302,2.9178-4.5817,2.8128-8.2937,7.1031-10.4637,12.0173-2.2838,5.1718-2.9337,10.8518-1.5387,16.3611,1.3256,5.2352,4.3707,10.0273,8.3254,13.6748,4.0841,3.7668,9.2034,6.5383,14.6661,7.6424,6.4922,1.3122,13.2355,.3185,19.4181-1.8967,23.8864-8.5586,39.1291-30.4418,59.4125-44.485,18.9202-13.0994,42.2298-18.3812,60.3341-32.8042,4.4509-3.5458,8.6467-7.6766,11.7512-12.4708,1.6762-2.5884-2.4582-4.986-4.1254-2.4114Z"/></g><path d="M283.6637,673.1862c4.5675,25.428,7.3834,51.1396,8.8338,76.9289,.6801,12.0926,1.061,24.2017,1.1663,36.3128s-1.1742,24.3275,.2427,36.385c1.1346,9.6551,4.1321,20.5662,13.8483,24.8972,6.9226,3.0857,22.6563,4.5197,24.1801-5.9671,.5285-3.6376-2.1-7.6214-5.916-7.9378-3.7945-.3146-6.6265,3.1056-6.8259,6.6853-.4948,8.8857,12.0988,12.5182,18.8227,14.1895,18.6624,4.6387,39.404,1.839,57.3437-4.4673,8.4268-2.9622,17.5978-6.7288,23.5691-13.6459,6.4164-7.4326,5.8187-15.9358,.1679-23.5807-2.7926-3.778-6.2325-7.1533-8.4889-11.304-2.7165-4.997-4.3486-10.683-5.7176-16.1758-2.7366-10.9804-4.3419-22.2694-6.3644-33.3971-4.1889-23.0475-8.3423-46.1059-13.147-69.035-9.505-45.3596-21.7845-90.3302-41.3993-132.4586-5.052-10.8507-10.5769-21.4775-16.5753-31.8353-5.8683-10.1333-12.0833-20.0858-17.264-30.5999-4.7416-9.623-8.7828-19.866-9.8077-30.6294-.8045-8.4487,.1373-16.8847,2.3875-25.0498,4.3818-15.9,12.9937-30.1492,19.7223-45.092,3.3302-7.3957,6.292-14.9958,8.1203-22.9142,.9396-4.0695,1.5849-8.2202,1.8944-12.386,.3118-4.1965,.7706-9.2288-.5766-13.2796-2.4727-7.4351-13.3025-7.8327-17.2795-1.5164-4.2149,6.6941-.177,15.0917,6.4618,18.172,6.6834,3.101,14.6914,3.1793,21.9126,2.9669,7.7164-.2269,15.3784-1.1817,23.0345-2.1086,22.4303-2.7157,43.9382-7.4986,64.663-16.7473,22.5276-10.0531,42.8629-24.3369,64.3787-36.2829,10.9903-6.102,22.1806-11.8435,33.5468-17.213,8.5734-4.0501,16.944-8.5173,25.5333-12.525,7.9823-3.7245,17.9816-8.0719,26.9718-5.8738,5.1042,1.248,9.2733,4.792,13.0622,8.256,3.2058,2.9309,6.746,7.6792,11.0936,8.8816,8.5829,2.3738,13.9778-8.2369,7.8202-14.1945l-2.8949,3.7518c8.4692,6.0667,17.9406-5.7208,10.5147-12.8939-.965,1.2506-1.9299,2.5012-2.8949,3.7518,8.4692,6.0667,17.9406-5.7208,10.5147-12.8939l-2.8949,3.7518c8.1072,5.7973,17.7101-5.0409,10.9881-12.4166-1.9349-2.1231-4.4838-3.8626-6.6525-5.7498-2.6239-2.2832-5.2251-4.5925-7.8298-6.8975-4.8866-4.3242-9.7827-8.6421-14.8541-12.7499-8.106-6.5659-16.6038-10.7352-26.9921-12.3273-9.87-1.5126-19.9045-1.1035-29.7466,.4196-23.9005,3.6986-45.466,15.3913-66.2457,27.1625-22.8084,12.9205-45.8574,26.5137-71.1543,33.9867-25.9481,7.6653-53.5579,5.5169-80.1431,2.8051-11.0226-1.1243-22.0423-3.3632-32.4878,1.4719-3.0595,1.4162-6.7176,3.6412-7.5491,7.1771-.7515,3.1959,1.0288,7.4361,4.194,8.6454,4.3054,1.645,7.1374-2.9462,7.4753-6.6003,.2025-2.1898-.1024-4.4373-.2548-6.6248-.2452-3.5206-.5013-7.0417-.648-10.5681-.0276-.664,.4198-7.0227,.1002-7.2511,.2284,.1632-2.3736,1.2882,.131,.9689,.8608-.1098,1.7174-.2455,2.562-.4473,1.6244-.388,3.2128-.9885,4.7079-1.7324,2.9542-1.4698,5.554-3.6528,7.6552-6.1845,4.602-5.5449,7.0476-12.5977,8.017-19.6653,2.1845-15.9251-2.8771-31.8618-16.9906-40.5957-16.5842-10.2629-43.7941-8.3951-50.9435,12.4628-1.7056,4.9761-2.165,10.3211-2.4904,15.5392-.3153,5.0566-.73,10.1061-1.0244,15.1633-.2913,5.0038-.5396,10.0812-2.0662,14.893-1.6648,5.2477-5.1317,8.704-9.6876,11.6285-9.3005,5.9701-20.2387,8.6697-29.728,14.2869-10.0696,5.9607-17.9021,15.2344-24.6079,24.665-23.3604,32.8526-29.8999,75.6498-17.121,113.9937,6.2442,18.7362,17.0539,35.7518,31.8635,48.8754,15.6324,13.8527,34.7372,23.1501,54.9234,28.2335,44.3713,11.1739,90.8562,3.0004,133.5206-11.1926,25.2272-8.3923,49.6459-19.0039,73.82-30.018,5.9294-2.7015,11.8217-5.4858,17.7561-8.1755,5.8801-2.6651,12.1155-5.2248,18.6087-5.8114,6.519-.5889,12.3191,1.0754,17.7745,4.5928,4.5547,2.9366,8.7558,7.6082,13.7736,9.6813,8.8887,3.6722,15.9339-8.2726,8.3457-14.206l-2.8949,3.7518c8.9398,5.0749,17.7587-7.2065,9.5118-13.644-.965,1.2506-1.9299,2.5012-2.8949,3.7518,8.9398,5.0749,17.7587-7.2065,9.5118-13.644-.965,1.2506-1.9299,2.5012-2.8949,3.7518,7.8553,4.4507,16.6381-4.6422,11.0007-12.1161-1.7711-2.3481-5.0405-3.9538-7.4361-5.5562-10.0308-6.7097-20.0616-13.4194-30.0925-20.1291-2.864-1.9157-5.728-3.8315-8.592-5.7472v4.1254c4.7746-2.1911,11.8669-4.0207,14.3569-9.084,.8379-1.7037,1.2717-3.9138,.8083-5.7857-.5212-2.1055-2.9792-3.3891-4.8131-4.3283-4.1199-2.11-8.79-2.8983-13.3864-2.9134-23.463-.0769-44.4517,14.0424-64.4522,24.4527-46.7266,24.3213-102.9294,44.4076-155.2995,26.8702-13.0387-4.3663-26.2889-11.372-34.3918-22.8602-7.778-11.0274-9.7197-25.9664-1.4401-37.2953,1.8163-2.4852-2.3274-4.8715-4.1254-2.4114-6.4619,8.8417-7.6339,20.7211-4.2036,31.0009,3.4041,10.2015,10.7431,18.5459,19.4163,24.6893,20.4822,14.5079,47.9427,19.1595,72.5573,18.1933,26.7994-1.052,52.7677-8.7353,77.3775-19.0193,11.9134-4.9784,23.7338-10.3527,35.1354-16.4191,11.2564-5.9892,22.2644-12.6528,34.273-17.0711,10.2322-3.7646,23.1079-7.6973,33.8721-4.0314,2.8293,.9635,6.3852,2.4375,3.7663,5.765-.9783,1.243-2.375,1.7686-3.7591,2.4037-2.7011,1.2396-5.4023,2.4792-8.1034,3.7187-1.7472,.8018-1.3491,3.223,0,4.1254,13.6751,9.1474,27.3502,18.2948,41.0253,27.4422,.9108,.6092,1.9275,1.1617,2.7758,1.8567,3.6279,2.9725,.4086,8.4167-3.8585,5.999-2.265-1.2833-5.1007,2.03-2.8949,3.7518,3.7829,2.9529,.7126,8.6578-3.7221,6.1403-2.2649-1.2857-5.0999,2.0306-2.8949,3.7518,3.7829,2.9529,.7126,8.6578-3.7221,6.1403-2.265-1.2858-5.0986,2.0287-2.8949,3.7518,2.0649,1.6146,2.8664,4.7126,.1728,6.2888-2.5811,1.5104-5.2256-1.0275-7.1541-2.4478-4.2512-3.131-8.339-6.5913-13.0772-8.984-9.7657-4.9316-20.6004-3.3952-30.464,.4047-10.815,4.1664-21.2171,9.5708-31.7802,14.3319-11.4306,5.1521-22.9226,10.1722-34.5542,14.8553-40.6829,16.3799-84.1257,29.5854-128.4469,27.5245-38.0609-1.7697-77.1562-15.8133-100.7139-47.1701-21.9608-29.2313-27.8755-68.9198-18.1576-103.8609,5.2922-19.0285,15.6128-37.1396,29.4604-51.2576,7.7323-7.8833,16.7031-12.3594,26.7531-16.584,8.2479-3.4671,17.9304-7.2777,23.3416-14.8112,5.1211-7.1295,5.1869-16.5265,5.7079-24.9282,.5755-9.2804,.1629-19.7792,3.5718-28.5468,8.0408-20.6807,38.1381-16.241,50.6383-2.9245,9.1977,9.7983,9.9355,26.1277,5.6766,38.2809-2.0301,5.7932-5.7338,11.4203-11.4063,14.1589-1.3316,.6429-2.7493,1.0981-4.1986,1.3907-1.3473,.272-3.079,.0149-4.2267,.8625-1.4677,1.0839-1.4561,3.2766-1.5203,4.9213-.2332,5.9708,.4666,12.007,.8627,17.9587,.0681,1.0227,.6259,7.3825-1.2237,6.491-1.6553-.7978-.7903-3.2995,.0349-4.1905,1.3578-1.4661,3.497-2.4118,5.3144-3.1543,9.9898-4.0814,21.3619-1.1682,31.7051-.1593,12.409,1.2104,24.8671,2.0105,37.3378,2.0864,11.6988,.0713,23.1187-.6627,34.5191-3.4336,11.1104-2.7004,21.833-6.7613,32.2373-11.4688,21.8757-9.8978,42.1619-22.7169,63.3723-33.882,18.75-9.8701,38.6928-17.8534,60.0902-18.7985,9.3412-.4126,18.9605,.3585,27.7516,3.7409,9.8583,3.793,17.7892,11.8969,25.5795,18.7679,4.2933,3.7867,8.5579,7.6065,12.9074,11.3289,1.8329,1.5687,4.8973,3.2804,4.7387,6.0405-.1931,3.3613-3.7729,3.8611-6.0596,2.2259-2.2287-1.5937-4.8153,1.8968-2.8949,3.7518,3.5867,3.4646-.7304,8.2516-4.725,5.3902-2.2275-1.5956-4.8151,1.897-2.8949,3.7518,3.5867,3.4646-.7304,8.2516-4.725,5.3902-2.2282-1.5961-4.813,1.896-2.8949,3.7518,1.8254,1.7661,2.0061,4.8498-.6178,6.0244-2.6328,1.1785-4.7208-1.1562-6.5052-2.7819-3.398-3.0958-6.6364-6.3733-10.3198-9.1397-6.519-4.896-13.5603-6.4953-21.5664-5.197-8.3628,1.3562-16.2774,5.1006-23.793,8.8607-7.8269,3.9158-15.6566,7.7535-23.55,11.5352-20.3772,9.7627-39.8839,20.9587-59.2146,32.6273-19.0796,11.517-38.4505,22.0301-59.9413,28.3322-16.7896,4.9235-34.2155,7.2189-51.6078,8.7872-7.3175,.6598-14.8949,1.1653-22.1983,.0909-5.8745-.8642-15.207-4.183-12.2818-12.1552,1.2841-3.4998,7.0372-5.0004,9.0329-1.2235,1.7251,3.2648,.7944,9.1859,.5067,12.7563-.6032,7.4859-2.4846,14.8174-5.0143,21.8718-5.0726,14.1456-12.8006,27.1235-18.7438,40.8914-5.8278,13.5005-9.7993,27.8623-8.2868,42.6893,1.9829,19.4381,12.2192,36.9217,21.9446,53.4354,10.9036,18.5142,20.9196,37.3634,29.1998,57.2125,8.0133,19.2093,14.647,38.9764,20.3064,58.9995,11.3981,40.3272,18.852,81.6202,26.3359,122.811,1.8598,10.2364,3.4869,20.5419,5.6211,30.7248,1.9121,9.123,4.2991,19.1096,9.9706,26.7053,4.7704,6.3888,13.3002,13.6255,8.6175,22.3318-4.1337,7.6855-13.526,11.6637-21.2892,14.5857-16.4821,6.2037-35.3907,9.3108-52.8733,6.1614-4.1253-.7432-8.228-1.846-12.0848-3.5032-1.9421-.8344-4.1357-1.7732-5.6687-3.2603-.7839-.7604-1.6315-1.77-1.7285-2.9121-.114-1.3422,.9005-3.4766,2.5143-2.2932,2.7328,2.0039-1.3152,5.1593-3.1013,5.6818-2.5117,.7346-5.4469,.4567-8.0142,.1384-5.5512-.6882-9.9179-3.3279-12.752-8.206-5.3422-9.1951-4.8691-21.7153-4.395-31.9749,.495-10.7135,.2769-21.4646-.0068-32.1826-.6016-22.7263-2.1931-45.437-4.9981-68-1.3534-10.886-2.9878-21.7341-4.9272-32.5311-.5427-3.0214-5.1479-1.7412-4.607,1.2701h0Z"/><path d="M204.7216,330.8366c-23.3397,28.8873-47.0027,58.3149-61.2802,92.9534-6.9379,16.832-10.6412,34.8801-10.5868,53.1011,.0523,17.5379,3.4814,34.9543,9.0892,51.532,5.7698,17.0568,13.7299,33.3206,22.7274,48.8906,4.534,7.846,9.3434,15.5307,14.3244,23.1,4.8826,7.4198,9.7194,15.0454,15.1994,22.0416,2.4829,3.1699,5.6828,6.0015,9.8339,6.4644,3.2978,.3678,6.9479-.8064,8.8147-3.6938,5.2219-8.0768-5.7602-14.4978-11.4458-17.6632-16.9677-9.4463-34.3508-18.1463-52.0803-26.0708-17.7106-7.916-35.7589-15.0784-54.0871-21.4354-9.1114-3.1603-18.3365-6.5311-27.695-8.8869-4.3134-1.0858-8.836-1.2046-12.5128,1.6405-3.4024,2.6328-5.5571,6.7876-7.711,10.4247-9.4343,15.9303-16.3193,33.417-20.3217,51.4913-1.6989,7.672-2.7101,15.4389-3.6893,23.2275-.6314,5.022-1.35,10.5125,.1442,15.4551,1.5556,5.1456,5.6941,7.973,10.9605,8.3626,8.7802,.6496,16.5268-4.2721,24.8343-6.1144,17.2831-3.8329,32.5656,10.1925,45.9382,18.8623,29.7181,19.267,66.1692,30.0967,101.6834,27.6626,16.6846-1.1435,33.8648-4.8264,48.0402-14.0968,14.3593-9.3907,23.6917-24.1161,28.5945-40.3543,10.8424-35.9099,1.6381-73.6012-12.3736-107.1963-3.5605-8.5368-7.3985-16.952-11.3216-25.3272-1.3032-2.7821-5.4232-.3592-4.1254,2.4114,15.0036,32.0302,29.3654,65.9294,27.6373,102.0386-.7876,16.4569-4.6374,33.2586-13.7654,47.1797-9.0191,13.755-23.0615,22.3122-38.7116,26.6402-32.2573,8.9206-67.9989,3.5337-98.2947-9.6884-7.812-3.4094-15.3804-7.3846-22.6084-11.9029-7.0999-4.4382-13.7587-9.5548-20.9755-13.8096-6.902-4.0692-14.4872-7.4257-22.6004-7.7931-8.9576-.4057-16.482,4.1088-24.9581,6.0477-4.2407,.9701-10.337,1.6497-12.6925-2.5985-2.05-3.6972-1.3796-9.0011-.9411-13.1129,1.6793-15.7464,4.6869-31.2397,10.0769-46.1636,3.0243-8.3737,6.7115-16.4971,11.0124-24.2925,2.0368-3.6916,4.1258-7.4575,6.5874-10.8869,1.0755-1.4983,2.4086-3.0078,4.1806-3.6717,2.0278-.7597,4.2949-.3986,6.3356,.0968,8.812,2.1391,17.5001,5.3527,26.0701,8.2951,8.8078,3.0241,17.5518,6.2339,26.225,9.6248,17.3663,6.7896,34.4377,14.3269,51.1648,22.5664,8.2521,4.0648,16.4198,8.301,24.496,12.7051,2.7354,1.4917,19.8998,9.1274,14.4772,14.258-2.3632,2.236-6.0907,.7336-8.135-1.1049-2.9423-2.646-5.0443-6.2731-7.2834-9.4974-4.9839-7.1768-9.8597-14.4298-14.5476-21.8038-9.3025-14.6329-17.8989-29.77-24.8914-45.653-13.5346-30.7426-20.2436-64.7651-12.5841-97.9607,4.0309-17.4695,11.7391-33.8735,20.7838-49.2749,8.9062-15.1654,19.2807-29.4184,30.0959-43.2669,5.3498-6.8502,10.8087-13.6141,16.2709-20.3746,1.9153-2.3705-1.4448-5.7714-3.3783-3.3783h0Z"/><path d="M628.5983,252.6705c-5.6081-4.5373-11.2162-9.0746-16.8243-13.6119-.7948-.643-1.5896-1.2861-2.3843-1.9291-1.0021-.8108-2.3986-.9797-3.3783,0-.8385,.8385-1.0081,2.5627,0,3.3783,5.6081,4.5373,11.2162,9.0746,16.8243,13.6119,.7948,.643,1.5896,1.2861,2.3843,1.9291,1.0021,.8108,2.3986,.9797,3.3783,0,.8385-.8385,1.0081-2.5627,0-3.3783h0Z"/><path d="M621.5221,262.3265c-5.6081-4.5373-11.2162-9.0746-16.8243-13.6119-.7948-.643-1.5896-1.2861-2.3843-1.9291-1.0021-.8108-2.3986-.9797-3.3783,0-.8385,.8385-1.0081,2.5627,0,3.3783,5.6081,4.5373,11.2162,9.0746,16.8243,13.6119,.7948,.643,1.5896,1.2861,2.3843,1.9291,1.0021,.8108,2.3986,.9797,3.3783,0,.8385-.8385,1.0081-2.5627,0-3.3783h0Z"/><path d="M614.3982,271.4566c-5.6081-4.5373-11.2162-9.0746-16.8243-13.6119-.7948-.643-1.5896-1.2861-2.3843-1.9291-1.0021-.8108-2.3986-.9797-3.3783,0-.8385,.8385-1.0081,2.5627,0,3.3783,5.6081,4.5373,11.2162,9.0746,16.8243,13.6119,.7948,.643,1.5896,1.2861,2.3843,1.9291,1.0021,.8108,2.3986,.9797,3.3783,0,.8385-.8385,1.0081-2.5627,0-3.3783h0Z"/><path d="M301.5811,235.8951c-.3696-.0879-.7345-.1921-1.0932-.3176-.1708-.0597-.3383-.1265-.507-.1918-.1861-.0721,.3009,.1364,.0315,.0114-.0984-.0457-.1971-.0902-.2948-.1375-.3253-.1577-.6429-.3314-.9513-.5201-.1542-.0944-.3063-.1924-.4557-.2942-.0897-.0611-.1785-.1234-.2665-.187-.0423-.0306-.2931-.225-.0995-.0705,.1996,.1592-.0784-.0641-.0944-.0771-.0701-.0571-.1394-.1152-.2081-.1741-.1374-.1176-.2718-.2386-.4033-.3627-.2761-.2606-.5388-.5352-.7869-.8227-.059-.0684-.1171-.1377-.1744-.2075-.1387-.1692-.0771-.1202,.0134,.0249-.0947-.1517-.2167-.2912-.318-.4389-.2252-.3283-.4301-.6689-.6187-1.0194-.3953-.7345-1.4736-1.0261-2.1789-.5713-.7459,.4809-.9942,1.3932-.5713,2.1789,1.6671,3.0979,4.7076,5.435,8.1303,6.2487,.8089,.1923,1.7634-.2534,1.959-1.1123,.1861-.8169-.2454-1.7529-1.1123-1.959h0Z"/><path d="M585.3046,221.9941c1.8678,3.1211,3.7801,6.2196,5.6048,9.366,1.1971,2.0642,.7018,4.6652-1.432,5.9144-1.0968,.6421-2.6393,.7524-3.7038,.3148-1.7053-.7011-2.2329-2.0884-3.1781-3.6863-1.242-2.0997-2.5895-4.1363-4.1305-6.0301-1.3217-1.6243-2.839-3.0689-4.8185-3.8285-1.2048-.4624-2.6205,.511-2.9385,1.6685-.3701,1.3471,.4593,2.4745,1.6685,2.9385-.556-.2134,.0365,.0356,.1311,.0903,.1553,.0899,.3038,.1895,.4505,.2925,.3441,.2415-.411-.3709,.1587,.1315,.1904,.1679,.3773,.3387,.5587,.5164,.6842,.6706,1.3104,1.4071,1.8817,2.1753,1.339,1.8005,2.5123,3.7266,3.6195,5.676,1.2076,2.1261,2.8186,3.7136,5.1353,4.5794,1.9995,.7473,4.3189,.6838,6.2912-.1097,4.2027-1.6908,6.6096-6.2937,5.4332-10.7144-.5512-2.0713-1.9903-3.9925-3.0779-5.8099-1.1761-1.9654-2.3523-3.9308-3.5284-5.8962-1.5773-2.6357-5.7096-.236-4.1254,2.4114h0Z"/><path d="M925.9265,840.9651c-15.4488-4.0798-20.0751-24.4621-21.6133-41.1553-9.8687-107.1021-11.4127-215.5078-32.9799-320.689-7.5331-36.7384-17.7927-73.6288-37.8627-104.7092-20.07-31.0803-70.4719-55.8975-105.9959-59.5478v20.4221s46.8586,15.6384,35.1798,184.4551c-8.4871,122.6818-40.5238,211.7091-54.1404,269.4418-6.47,27.4322,13.0902,54.0376,39.9314,54.3255,61.3249,.6578,177.4808-2.5432,177.4808-2.5432Z" style="fill:#6966ed;"/><path d="M739.2972,782.1384s.2514-8.3604,8.4936-18.4342c9.5553-11.6787,14.8639-8.4936,32.9128-21.2341-2.6543,45.6533-41.4065,39.6682-41.4065,39.6682Z" style="fill:#f4d13b;"/><path d="M735.5812,745.5096s-.2514-8.3604-8.4936-18.4342c-9.5553-11.6787-14.8639-8.4936-32.9128-21.2341,2.6543,45.6533,41.4065,39.6682,41.4065,39.6682Z" style="fill:#f4d13b;"/><path d="M735.3158,695.2243v126.3827c0,5.8119-.1822,11.6571,0,17.467,.0026,.0834,0,.1672,0,.2507,0,3.0742,4.7777,3.0793,4.7777,0v-126.3827c0-5.8119,.1822-11.6571,0-17.467-.0026-.0834,0-.1672,0-.2507,0-3.0742-4.7777-3.0793-4.7777,0h0Z" style="fill:#f953b2;"/><path d="M868.2942,681.8501s.4216-14.0194,14.2428-30.912c16.0232-19.5839,24.925-14.2428,55.191-35.6071-4.4509,76.5552-69.4338,66.519-69.4338,66.519Z" style="fill:#f4d13b;"/><path d="M863.782,750.3575s-.3949-13.1301-13.3394-28.9512c-15.0068-18.3417-23.344-13.3394-51.6902-33.3485,4.1686,71.6993,65.0296,62.2997,65.0296,62.2997Z" style="fill:#f4d13b;"/><path d="M863.782,625.7378s-.2678-8.9061-9.0481-19.6376c-10.1791-12.4411-15.8342-9.0481-35.0614-22.6202,2.8275,48.6335,44.1095,42.2578,44.1095,42.2578Z" style="fill:#f4d13b;"/><path d="M864.3128,556.6719v271.1791c0,3.6621-.0669,7.3314,0,10.9931,.0029,.1601,0,.3205,0,.4806,0,3.0742,4.7777,3.0793,4.7777,0v-271.1791c0-3.6621,.0669-7.3314,0-10.9931-.0029-.1601,0-.3205,0-.4806,0-3.0742-4.7777-3.0793-4.7777,0h0Z" style="fill:#f953b2;"/><path d="M942.2365,445.9121c4.1136-12.2161,1.3113-26.2485-8.4215-35.9813h0c-9.7327-9.7326-23.7651-12.535-35.9812-8.4214-5.7294-11.5469-17.6333-19.4877-31.3974-19.4877h0c-13.7641,0-25.668,7.9407-31.3974,19.4877-12.2161-4.1136-26.2485-1.3112-35.9812,8.4214h0c-9.7327,9.7328-12.5351,23.7652-8.4215,35.9813-11.5469,5.7295-19.4877,17.6333-19.4877,31.3975h0c0,13.7642,7.9408,25.668,19.4877,31.3975-4.1136,12.2161-1.3113,26.2484,8.4215,35.9812h0c9.7327,9.7328,23.7651,12.5352,35.9812,8.4216,5.7294,11.5469,17.6333,19.4877,31.3974,19.4877h0c13.7641,0,25.668-7.9407,31.3974-19.4877,12.2161,4.1136,26.2485,1.3112,35.9812-8.4214h0c9.7327-9.7329,12.5351-23.7652,8.4215-35.9813,11.5469-5.7295,19.4877-17.6333,19.4877-31.3975h0c0-13.7642-7.9408-25.668-19.4877-31.3975Z" style="fill:#f4d13b;"/><circle cx="866.4362" cy="477.3096" r="42.999" style="fill:#f953b2;"/><path d="M792.84,603.0325c2.9849-8.8643,.9515-19.0466-6.1108-26.109h0c-7.0623-7.0623-17.2446-9.0958-26.1089-6.1108-4.1574-8.3788-12.7952-14.1408-22.7828-14.1408h0c-9.9876,0-18.6254,5.762-22.7828,14.1408-8.8644-2.9849-19.0466-.9514-26.1089,6.1108h0c-7.0623,7.0624-9.0958,17.2447-6.1108,26.109-8.3787,4.1575-14.1408,12.7952-14.1408,22.7829h0c0,9.9877,5.7621,18.6254,14.1408,22.7829-2.9849,8.8643-.9515,19.0465,6.1108,26.1089h0c7.0623,7.0624,17.2446,9.0958,26.1089,6.1109,4.1574,8.3788,12.7952,14.1408,22.7828,14.1408h0c9.9876,0,18.6254-5.762,22.7828-14.1408,8.8644,2.9849,19.0466,.9514,26.1089-6.1108h0c7.0623-7.0624,9.0958-17.2447,6.1108-26.109,8.3787-4.1575,14.1408-12.7952,14.1408-22.7829h0c0-9.9877-5.7621-18.6254-14.1408-22.7829Z" style="fill:#f4d13b;"/><circle cx="737.8373" cy="625.8154" r="31.2012" style="fill:#f953b2;"/><path d="M750.7105,825.5485c-11.2259-22.8139-31.5888-24.8764-43.401-23.8835,.9142,22.4978,18.4154,41.5997,41.1361,41.8433,11.3209,.1216,24.5115,.1113,38.494,.0141-4.2047-8.8507-15.3624-25.9996-36.2291-17.9739Z" style="fill:#f953b2;"/><path d="M835.1159,843.5974s2.6543-35.7058,31.5857-26.0674c9.5553-15.9283,34.7708-31.4342,50.6964-1.5099,19.6415-15.2555,44.0607,27.5773,44.0607,27.5773h-126.3428Z" style="fill:#f953b2;"/><path d="M676.1314,527.6621c-.2325-4.4195,1.5148-8.6241,5.0817-11.3237,2.8012-2.1201,6.5992-3.3116,9.7624-2.2226,1.1898,.4096,2.3159,1.4139,2.8243,2.5924,.7768,1.8008,.6881,4.0338,.1886,5.9184-.5041,1.9018-1.876,3.7424-3.1205,5.3293-1.8227,2.3241-3.859,4.4835-5.9246,6.5911-4.2149,4.3008-8.8695,8.218-12.8987,12.6948l2.5012,.3223c-3.6434-5.3659-8.4882-9.8897-11.5268-15.6691-1.3994-2.6618-2.4118-5.7792-1.997-8.8214,.4094-3.0016,2.5191-5.5762,5.771-4.5215,4.0087,1.3002,5.2185,5.9282,6.2101,9.5333,.5429,1.9738,3.6166,1.1358,3.0713-.8467-1.1124-4.0445-2.4896-8.4067-6.2471-10.7589-3.3505-2.0974-7.7406-1.784-10.1675,1.5197-2.2238,3.0271-2.2451,7.1815-1.3246,10.681,.9931,3.7761,3.1353,7.1562,5.458,10.2465,2.6028,3.4628,5.5667,6.6577,8.0023,10.2447,.5442,.8015,1.7726,1.1318,2.5012,.3223,3.8851-4.3166,8.3652-8.1044,12.4455-12.2343,2.3235-2.3517,4.5995-4.7664,6.6321-7.3773,1.5043-1.9324,3.0957-4.0736,3.7058-6.4907,1.0945-4.336,.2955-9.736-4.114-11.8748-3.9282-1.9054-8.7403-.8515-12.3141,1.3615-5.1075,3.1627-8.021,8.7907-7.7057,14.7836,.1073,2.0392,3.293,2.0518,3.1851,0Z" style="fill:#f953b2;"/><path d="M894.8892,349.5803c.0682-2.8249,2.0626-5.449,4.8169-6.1781,2.7143-.7185,5.8077,.7383,7.1542,3.1609,1.7481,3.1449,.4017,7.0787-1.2183,9.977-1.6494,2.9509-3.9571,5.4119-6.3229,7.797-2.6994,2.7214-5.4243,5.4017-7.5957,8.5805l2.5012-.3223c-4.2015-5.3415-9.0758-10.2209-12.3583-16.2282-1.5925-2.9144-2.7603-6.1273-2.8298-9.4782-.0655-3.1614,1.6156-6.9773,5.4116-6.2599,4.3893,.8295,6.0538,5.6885,7.3127,9.3747,.6587,1.9288,3.7364,1.1006,3.0713-.8467-1.4244-4.1708-3.1712-8.824-7.43-10.85-3.9651-1.8863-8.494-.6853-10.5019,3.3665-1.783,3.5979-1.1106,8.1125,.1755,11.7663,1.3689,3.8889,3.6077,7.3902,6.092,10.6538,2.8082,3.6891,5.9396,7.1114,8.8047,10.7539,.6812,.8661,1.9875,.4297,2.5012-.3223,4.6692-6.8355,12.1484-11.3058,15.2718-19.25,1.5268-3.8835,1.6365-8.4534-1.1733-11.7864-2.3053-2.7345-6.2375-4.0654-9.7128-3.1578-4.134,1.0796-7.0536,5.039-7.1553,9.2494-.0495,2.0504,3.1356,2.0495,3.1851,0Z" style="fill:#f953b2;"/><path d="M961.8823,418.2444c.7234-.476,1.4694-.9152,2.2409-1.3088,.8208-.4188,1.3918-.6664,2.1564-.947,.8125-.2982,1.6419-.5507,2.4827-.7558,.3924-.0957,.7873-.181,1.1842-.2558,.2268-.0427,.4543-.082,.6823-.1179,.114-.0179,.2281-.035,.3424-.0511-.1374,.0185-.1069,.0151,.0916-.0099,.8239-.1005,1.6343-.6604,1.5926-1.5926-.0348-.7763-.7069-1.7006-1.5926-1.5926-3.8497,.4696-7.5392,1.7433-10.7881,3.8811-.695,.4573-1.0545,1.4295-.5713,2.1789,.4471,.6935,1.4346,1.0611,2.1789,.5713h0Z" style="fill:#f953b2;"/><path d="M967.0709,435.3798h7.9291c.833,0,1.6311-.7325,1.5926-1.5926-.0386-.8628-.6997-1.5926-1.5926-1.5926h-7.9291c-.833,0-1.6311,.7325-1.5926,1.5926,.0386,.8628,.6997,1.5926,1.5926,1.5926h0Z" style="fill:#f953b2;"/><path d="M951.5819,400.0869c-.0183,.2102-.0417,.4197-.0624,.6296-.0243,.1936-.0253,.2094-.0029,.0474-.0108,.0783-.0222,.1566-.0342,.2348-.059,.391-.1292,.7803-.211,1.1672-.1528,.7222-.3443,1.4362-.5738,2.1378-.1148,.3508-.239,.6985-.3726,1.0426-.0196,.0505-.2463,.5973-.1398,.3512-.0628,.1452-.1274,.2896-.1937,.4332-.3314,.7188-.7066,1.4151-1.1172,2.0916-.4327,.713-.1804,1.7817,.5713,2.1789,.7739,.4089,1.717,.1897,2.1789-.5713,1.7994-2.9646,2.8418-6.2942,3.1424-9.7428,.0725-.8322-.7843-1.6288-1.5926-1.5926-.9248,.0414-1.5149,.7011-1.5926,1.5926h0Z" style="fill:#f953b2;"/><path d="M643.6304,643.0998c2.3148-1.6489,4.6295-3.2978,6.9443-4.9468,.6768-.4821,1.0664-1.4111,.5713-2.1789-.433-.6716-1.4533-1.0882-2.1789-.5713-2.3148,1.6489-4.6295,3.2978-6.9443,4.9468-.6768,.4821-1.0664,1.4111-.5713,2.1789,.433,.6716,1.4533,1.0882,2.1789,.5713h0Z" style="fill:#f953b2;"/><path d="M654.9983,669.8124c1.3215-1.3215,2.643-2.643,3.9645-3.9645,.5899-.5899,.6338-1.6704,0-2.2522-.6357-.5836-1.6227-.6295-2.2522,0-1.3215,1.3215-2.643,2.643-3.9645,3.9645-.5899,.5899-.6338,1.6704,0,2.2522,.6357,.5836,1.6227,.6295,2.2522,0h0Z" style="fill:#f953b2;"/><path d="M644.1482,612.5755c.9911,.6608,1.9823,1.3215,2.9734,1.9823,.3319,.2212,.852,.2639,1.2272,.1605,.3694-.1017,.7697-.3874,.9518-.7319,.1953-.3696,.2932-.8173,.1605-1.2272-.1321-.4081-.373-.7125-.7319-.9518-.9911-.6608-1.9823-1.3215-2.9734-1.9823-.3319-.2212-.852-.2639-1.2272-.1605-.3694,.1017-.7697,.3874-.9518,.7319-.1953,.3696-.2932,.8173-.1605,1.2272,.1321,.4081,.373,.7125,.7319,.9518h0Z" style="fill:#f953b2;"/></g><path d="M743.9868,310.517c11.4056-.5932,22.8378-.3793,34.2132,.6403,1.2867,.1153,2.3888-1.1805,2.3888-2.3888,0-1.3881-1.0984-2.2732-2.3888-2.3888-11.3754-1.0196-22.8076-1.2335-34.2132-.6403-3.059,.1591-3.0779,4.9378,0,4.7777h0Z" style="fill:#6966ed;"/><path d="M734.8466,364.6197c2.7328,4.6426,4.5556,9.4052,5.6523,14.7515,.2515,1.2262,1.7675,2.0474,2.9385,1.6685,1.2988-.4203,1.9379-1.6249,1.6685-2.9385-1.1459-5.5858-3.2418-10.9794-6.1339-15.8927-.654-1.111-2.1526-1.5096-3.2684-.857-1.1142,.6517-1.5139,2.1525-.857,3.2684h0Z" style="fill:#6966ed;"/></svg>