<?xml version="1.0" encoding="UTF-8"?><svg id="Layer_2" xmlns="http://www.w3.org/2000/svg" width="1000" height="1000" viewBox="0 0 1000 1000"><path d="M327.2079,187.4828h242.73V462.5351c0,28.5695-23.1948,51.7643-51.7643,51.7643h-139.2014c-28.5695,0-51.7643-23.1948-51.7643-51.7643V187.4828h0Z" transform="translate(1006.2474 235.3854) rotate(130.2644)" style="fill:#f4d13b;"/><path d="M675.271,366.591l-37.803-32.019c-7.9882-6.766-53.3946,33.7128-101.4182,90.4116-48.0236,56.6988-80.4789,108.1471-72.4907,114.913l37.803,32.019,173.909-205.3246Z" style="fill:#f4d13b;"/><path d="M588.4396,478.4348c1.9647,4.4672,3.7073,9.0302,5.2337,13.6646,3.0194-3.4614,6.0578-6.9953,9.107-10.5954,48.0238-56.6988,80.479-108.1472,72.4909-114.913-7.9881-6.766-53.3947,33.7127-101.4182,90.4116-.1176,.1387-.2335,.2769-.3508,.4157,6.4073,5.3645,11.5529,13.3222,14.9375,21.0166Z" style="fill:#f953b2;"/><rect x="462.0795" y="173.7391" width="28.5895" height="234.882" rx="13.2011" ry="13.2011" transform="translate(1006.4534 115.8678) rotate(130.2644)" style="fill:#fff;"/><rect x="421.1385" y="222.076" width="28.5895" height="234.882" rx="13.2011" ry="13.2011" transform="translate(975.9358 226.6864) rotate(130.2644)" style="fill:#fff;"/><rect x="380.1974" y="270.4128" width="28.5895" height="234.882" rx="13.2011" ry="13.2011" transform="translate(945.4182 337.505) rotate(130.2644)" style="fill:#fff;"/><path d="M228.5703,125.5191c-.6554,1.3003-1.0136,2.7121-.4815,4.1259,.4696,1.2477,1.3639,2.1705,2.4409,2.9266,1.7848,1.2529,3.9885,1.6912,5.9829,2.49,.13,.0525,.1259,.0501-.0124-.0072,.1237,.0544,.2464,.111,.3682,.1697,.2447,.1184,.4864,.2444,.7185,.386,.1175,.071,.2322,.1461,.3443,.2253-.1359-.1069-.1132-.0827,.0681,.0727,.0986,.0931,.1913,.1917,.2782,.2959-.1131-.1279-.1077-.0993,.016,.0861-.0756-.1922-.0769-.1756-.004,.0498-.0146-.2256-.0168-.2178-.0067,.0233,.2267-.312-.2409,.1564,.0325-.1338,.1284-.1531,.1115-.1455-.0508,.023,.157-.1206,.1371-.1151-.0597,.0165-.2416,.1147-.4699,.2511-.7187,.3528,.1367-.063,.0902-.0475-.1394,.0465-.1393,.0517-.2794,.1008-.4205,.1475-.282,.0933-.5674,.1765-.8554,.2496-.216,.0548-.4334,.1039-.652,.1472-.0847,.0168-.8026,.1229-.5661,.0966-.5903,.0655-1.1864,.0869-1.78,.0677-.2971-.0096-.5931-.0316-.889-.0605-.2527-.028-.2952-.033-.1277-.0151-.1467-.0233-.293-.0493-.4388-.078-1.0313-.193-2.2204,.2851-2.4756,1.4056-.2254,.9894,.2991,2.2685,1.4056,2.4756,2.1285,.3984,4.2629,.3919,6.377-.105,2.0072-.4717,4.5654-1.3694,5.2231-3.5557,.6908-2.2962-.8686-4.3992-2.7964-5.4623-1.6438-.9064-3.4837-1.3502-5.2221-2.027-.2165-.0843-.0259-.0076,.0148,.01-.123-.053-.245-.1091-.3658-.167-.2411-.1155-.4786-.2397-.709-.3754-.2019-.119-.4016-.2451-.5899-.3848-.1933-.1435-.0065-.013,.0234,.014-.0966-.0871-.1937-.1732-.2851-.2659-.0684-.0693-.1346-.141-.1977-.215-.2015-.2363,.1202,.2104-.0304-.0568-.0468-.083-.0985-.1627-.1421-.2478,.0938,.183,.0352,.1039-.0004-.0452-.1004-.4209-.0037-.0917-.0071-.0252,.0049-.0974,.0523-.312,.005-.1101,.0248-.1058,.0584-.2109,.0947-.3132,.1248-.3517-.1898,.3662,.1062-.2211,.4733-.939,.2794-2.2244-.722-2.7535-.9148-.4833-2.2476-.2817-2.7535,.722h0Z"/><path d="M434.7406,442.58c-3.7961-9.051-7.5922-18.1019-11.3883-27.1529-.5384-1.2838-1.0769-2.5676-1.6153-3.8514-.6301-1.5023-1.9971-2.5801-3.7134-2.1084-1.4169,.3894-2.743,2.2004-2.1084,3.7134,3.7961,9.051,7.5922,18.1019,11.3883,27.1529,.5384,1.2838,1.0769,2.5676,1.6153,3.8514,.6301,1.5023,1.9971,2.5801,3.7134,2.1084,1.4169-.3894,2.743-2.2004,2.1084-3.7134h0Z"/><path d="M420.0374,449.5912c-3.7961-9.051-7.5922-18.1019-11.3883-27.1529-.5384-1.2838-1.0769-2.5676-1.6153-3.8514-.6301-1.5023-1.9971-2.5801-3.7134-2.1084-1.4169,.3894-2.743,2.2004-2.1084,3.7134,3.7961,9.051,7.5922,18.1019,11.3883,27.1529,.5384,1.2838,1.0769,2.5676,1.6153,3.8514,.6301,1.5023,1.9971,2.5801,3.7134,2.1084,1.4169-.3894,2.743-2.2004,2.1084-3.7134h0Z"/><path d="M405.6158,455.9415c-3.7961-9.051-7.5922-18.1019-11.3883-27.1529-.5384-1.2838-1.0769-2.5676-1.6153-3.8514-.6301-1.5023-1.9971-2.5801-3.7134-2.1084-1.4169,.3894-2.743,2.2004-2.1084,3.7134,3.7961,9.051,7.5922,18.1019,11.3883,27.1529,.5384,1.2838,1.0769,2.5676,1.6153,3.8514,.6301,1.5023,1.9971,2.5801,3.7134,2.1084,1.4169-.3894,2.743-2.2004,2.1084-3.7134h0Z"/><g><path d="M226.1602,175.1976s-12.0199,2.2069-23.0583-2.0943c5.6761,7.2858,17.2498,12.4778,20.9636,12.0674-5.8303-9.1451,1.966-9.7401,2.0947-9.9731Z"/><path d="M225.3577,172.2866c-.1625,.0295-.3261,.0526-.4891,.0791-.774,.1257,.5788-.0643-.0022,.0025-.2839,.0327-.5673,.0682-.8514,.0981-1.7415,.1838-3.4935,.2722-5.2445,.2782-5.1353,.0176-10.0196-.6995-14.866-2.5522-1.2305-.4704-2.7815,.3142-3.4091,1.3873-.7299,1.2479-.3702,2.593,.472,3.6582,3.1518,3.9863,7.4941,7.1112,11.9656,9.4641,2.0283,1.0673,4.1561,2.0168,6.343,2.7099,1.5009,.4757,3.2055,.9223,4.7895,.7775,2.1593-.1975,3.9173-2.4492,2.6066-4.5424-.3036-.4849-.5982-.9744-.8661-1.4801-.1319-.2489-.2556-.5014-.3776-.7552-.0704-.1464-.1722-.4354-.0542-.122-.1552-.4124-.2927-.8322-.3908-1.2621-.0346-.1516-.0601-.3045-.09-.4571,.0634,.3232,.0256,.4876,.0337,.0657,.003-.1556,.0125-.327,.0044-.481-.0218-.4198,.0174,.151-.0428,.275,.0671-.1381,.3441-.8769,.0826-.4048-.3296,.5951,.1564-.2776,.2042-.2817,.1486-.0128-.5737,.5733-.1624,.2334,.0737-.0609,.1873-.1656,.2427-.2382,.1666-.2186-.656,.3859-.0331,.0361,.163-.0916,.3329-.1814,.4923-.2783,.5618-.3413-.6462,.2045-.1322,.0477,.1493-.0455,.2947-.1064,.4437-.1537,.8084-.2567,1.6497-.4033,2.2681-1.0586,1.1187-1.1855,1.1764-3.0928,0-4.2692-1.13-1.13-3.1463-1.1899-4.2692,0,.2067-.2191,.9727-.7236,1.2209-.7257-.0378,.0003-.0777,.0272-.1153,.0326-.1082,.0157-.2218,.0571-.3267,.0871-.3337,.0955-.6597,.2019-.9835,.3272-1.2544,.4855-2.4238,1.1438-3.3025,2.1877-2.9907,3.5531-1.2395,8.2411,.9404,11.7223,.8689-1.5141,1.7377-3.0282,2.6066-4.5424-.2607,.0238-.515,.0146-.776,.0122-.1356-.0012-.271-.0346-.406-.0348,.8322,.001,.3649,.058,.0873-.0005-.7459-.1574-1.4785-.3416-2.2046-.5757-.4402-.1419-.8763-.2963-1.3088-.4602-.2087-.0791-.4161-.1615-.6233-.2442-.1914-.0764-.5654-.2431-.1754-.0715-1.002-.4411-1.9871-.9176-2.9526-1.4338-4.1294-2.2078-7.5503-4.6825-10.4695-8.3747-.979,1.6818-1.9581,3.3637-2.9371,5.0455,7.6406,2.9209,16.6061,3.5567,24.6633,2.0943,1.6052-.2913,2.5127-2.2421,2.1084-3.7134-.4641-1.6889-2.1036-2.4006-3.7134-2.1084Z"/></g><g><path d="M159.9565,160.7334c2.0824,10.1231-13.9283-1.8032-15.3871-3.4232-6.8694-7.6285-12.811-16.0845-17.3644-25.298-9.0662-18.3449-12.3999-39.6428-5.9287-59.3724,5.4869-16.7286,18.2331-31.1471,34.5675-37.7151,15.9743-6.4232,34.2111-5.1902,50.6345-.0223,11.7958,3.7117,23.1333,9.5024,31.9259,18.1976s14.8628,20.498,15.1814,32.8598c.1238,4.805-.6922,9.8327-3.5352,13.7084-4.6705,6.3669-13.4366,8.0284-21.3324,8.1093-10.323,.1057-24.1283-3.0128-34.011,1.3399-8.8677,3.9056-8.5657,14.1918-7.0163,22.3657,2.0249-11.6502-11.8684-25.7726-21.7449-13.9767-1.7549,2.0959-2.6422,4.7963-3.0682,7.4965-.6693,4.2429-.2564,8.7216,1.6281,12.5815,1.8845,3.86,5.3239,7.0338,9.4688,8.1607-1.4308,3.6347-2.8616,7.2693-4.2924,10.904-.8729,2.2173-1.8676,4.5853-3.8931,5.8407-2.0255,1.2554-5.3525,.5778-5.8326-1.7563Z"/><path d="M157.0456,161.5359c.0324,.1669,.0916,.9605,.0413,.1375,.0125,.2049,.0361,.4072,.0371,.6129,.0009,.1796-.0236,.3587-.0236,.5373,.0003-.8009,.0754-.4967-.0128-.1985-.1572,.5313,.3409-.6976,.0884-.239-.2453,.4456,.5252-.5857,.1681-.2435,.6088-.5835,.4994-.3511,.2264-.212,.8698-.4433,.4521-.1754,.1379-.1194,1.1202-.1997,.1384-.1039-.1799-.0854,.9613-.0558,.0599-.0041-.3382-.1107-.3651-.0978-.7175-.2272-1.0743-.3499-.1588-.0546-.7957-.3363-.0318,.0004-.2594-.1143-.5179-.23-.7737-.3521-1.6934-.808-3.3029-1.7945-4.8568-2.8429-.6255-.422-1.2424-.8568-1.8492-1.3052-.1482-.1095-.2937-.2229-.4428-.3311-.521-.3777,.5461,.4452,.071,.0567-.2607-.2132-.5283-.4177-.7857-.6351-1.826-1.5424-3.3049-3.5796-4.8058-5.4254-2.2762-2.7992-4.4027-5.7183-6.3867-8.7316-3.9238-5.9596-7.3134-12.3117-9.8409-18.9905-5.0312-13.2947-7.0605-27.9393-4.168-41.9652,2.5203-12.2208,8.5782-23.3831,17.6525-31.9794,9.4641-8.9655,21.6596-14.1073,34.7113-15.0167,14.0738-.9806,28.5896,2.157,41.3987,7.9628,12.2688,5.5609,23.295,14.0732,29.6549,26.1647,2.9307,5.5718,4.7453,11.7925,4.9041,18.0851,.0796,3.1558-.2075,6.4351-1.4783,9.363-1.1169,2.5735-2.9444,4.571-5.1963,5.9615-4.8648,3.0037-10.8767,3.559-16.6196,3.4696-6.5522-.102-13.064-1.0562-19.6238-.9736-6.3157,.0795-13.4785,.9637-18.4053,5.3005-4.2776,3.7653-5.5475,9.7476-5.4062,15.2131,.0693,2.6812,.4498,5.3584,.9424,7.9917,.5323,2.8454,5.3489,2.918,5.8218,0,.7808-4.8172-.2787-9.7097-2.9009-13.834-2.4011-3.7765-6.1523-7.1735-10.6493-8.1017-5.0914-1.0509-9.9554,1.0986-13.2401,5.0219-4.1799,4.9925-4.9846,12.3531-3.715,18.5617,1.3934,6.814,6.303,12.7735,13.0758,14.7225l-2.1084-3.7134c-1.5999,4.0642-3.0213,8.4043-4.8801,12.2888-.3094,.6466-.7306,1.4503-1.1276,1.9246-.2783,.3324-.4822,.5124-.7905,.7272-.5172,.3604,.2838-.1507-.3341,.1509-.3583,.074-.3779,.0883-.0588,.0429-.1943,.0155-.3888,.0193-.5835,.0112-.3681-.0252-.3864-.0276-.055-.0071l-.2747-.073c-.3396-.1144-.3554-.1202-.0474-.0174-.2957-.1885-.3092-.1889-.0406-.0014-.2384-.2511-.2449-.2548-.0196-.0113,.1118,.3153,.117,.2995,.0156-.0471-.9803-3.7564-6.8054-2.1637-5.8218,1.605,.7053,2.7027,3.1252,4.3057,5.8105,4.5497,2.6062,.2368,5.058-.9461,6.7067-2.9437,1.8109-2.1941,2.7168-4.8941,3.7457-7.5077,1.1923-3.0289,2.3847-6.0578,3.577-9.0866,.6029-1.5315-.6726-3.3002-2.1084-3.7134-3.9628-1.1404-7.034-4.4518-8.3176-8.4357-1.3706-4.2538-1.3321-9.7294,.9332-13.6927,1.0003-1.7501,2.3858-3.0235,3.9632-3.8749-.0589,.0318,.8188-.3984,.4418-.2332-.3039,.1331,.2422-.0903,.3107-.1132,.4014-.1339,.8046-.2247,1.2117-.3332,.118-.0315,.5924-.0836,.0049-.0179,.1781-.0199,.3579-.0339,.537-.0429,.4464-.0224,.8884,.0001,1.3337,.0302-.6509-.0439,.4382,.0903,.6415,.1407,.3939,.0976,.772,.2285,1.1559,.3575,.105,.0353,.5195,.2327,.033,.0075,.1661,.0769,.3313,.1555,.4943,.2387,.413,.2108,.8141,.4452,1.2022,.6987,.1577,.103,.3116,.2105,.466,.3181,.7391,.5155-.236-.2081,.1813,.1351,.3354,.2759,.6601,.5642,.9722,.8662,.2814,.2722,.5529,.5546,.8146,.8458,.1322,.1471,.2596,.2975,.3884,.4473,.429,.4991-.0941-.1596,.2642,.3285,.5956,.8113,1.1223,1.6749,1.5771,2.5726,.1145,.226,.2231,.4545,.3288,.6847,.125,.2723-.072-.2131,.1098,.2589,.182,.4724,.3466,.9513,.4889,1.4372,.1564,.5339,.2779,1.0727,.3892,1.6174,.0147,.0718,.1188,.6879,.0668,.3423-.0394-.2624,.0523,.532,.0604,.6438,.0359,.4975,.0485,.9959,.0335,1.4946-.006,.1989-.0211,.3972-.0301,.5958-.0096,.1487-.0225,.2972-.0386,.4454,.0481-.3095,.043-.2818-.0153,.0829h5.8218c-.1135-.6069-.2213-1.2148-.317-1.8249-.0265-.1692-.1391-.9541-.125-.8436,.0371,.2894-.0255-.2267-.0255-.2266-.0238-.2104-.0481-.4208-.0698-.6314-.1413-1.371-.2181-2.7504-.1969-4.129,.0097-.6285,.0393-1.257,.0938-1.8832,.0112-.1291,.0917-.8856,.0327-.4309,.0526-.4051,.127-.8088,.2094-1.2088,.1219-.5918,.2718-1.1785,.4552-1.7543,.0906-.2844,.1892-.5665,.2962-.8452,.0039-.0103,.1942-.4575,.0751-.1879-.1168,.2643,.2333-.462,.2239-.4437,1.131-2.2023,2.5123-3.5051,4.9602-4.5392,2.8658-1.2107,6.1073-1.6823,9.2081-1.8437,13.2787-.6912,27.4509,3.7428,39.9873-2.5391,14.0288-7.0297,12.763-25.5909,7.5807-37.9748-5.716-13.6593-16.755-24.0771-29.7567-30.8467-13.4034-6.9788-28.8628-11.0761-44.0056-10.9897-14.7023,.0839-28.8073,4.6669-40.2321,13.9948-10.3393,8.4416-17.8805,20.2507-21.4737,33.0823-4.1507,14.8226-3.1489,30.7549,1.5394,45.3254,2.387,7.4183,5.6936,14.5551,9.7201,21.2237,1.9975,3.3082,4.1744,6.507,6.5039,9.5901,2.2561,2.9857,4.573,6.0489,7.189,8.7333,2.2265,2.2846,5.2472,4.1524,8.0092,5.7085,3.0682,1.7286,8.0926,4.2258,11.1716,1.1751,1.7323-1.7165,1.6424-4.2279,1.2123-6.4401-.3113-1.6012-2.2281-2.5166-3.7134-2.1084-1.6734,.4599-2.4206,2.1076-2.1084,3.7134Z"/></g><path d="M290.7357,933.5997c7,6.7655,15.79,12.2124,25.7358,12.7649,8.0816,.4489,16.5826-3.1934,21.2234-9.9333,5.9771-8.6806,2.6272-20.244,.2144-29.5692-2.7894-10.7809-6.5145-21.2907-9.4157-32.0399-1.4194-5.259-2.9994-10.7334-3.1817-16.2053-.1703-5.1138,.848-10.1259,2.5409-14.9334,3.3759-9.5867,9.4528-18.0944,15.7314-25.9809,12.9-16.2035,27.7619-30.768,39.973-47.5329,24.8863-34.167,33.6586-78.108,32.9461-119.7592-.7388-43.1906-12.6347-85.4529-30.6601-124.4939-9.2229-19.9758-20.0703-39.1899-32.5448-57.3175-5.6911-8.27-11.7635-16.1846-18.1751-23.9045-5.9548-7.1699-11.9431-14.4341-16.2027-22.7779-2.0849-4.0839-3.5901-8.3751-4.5139-12.8662-.7823-3.8031-6.6032-2.1936-5.8218,1.605,3.716,18.0653,16.97,31.4953,28.0944,45.3979,13.1348,16.4152,24.3631,34.6361,34.1905,53.1916,19.6575,37.1161,34.0701,77.7202,38.3184,119.6729,2.096,20.6983,1.6892,41.6346-1.4355,62.2096-3.065,20.1817-8.6222,40.1919-18.245,58.2757-9.5547,17.9558-23.2833,32.9253-36.6516,48.067-12.8074,14.5064-27.7451,30.3832-32.3505,49.7635-2.376,9.9987-.4655,19.4571,2.1663,29.1936,2.9052,10.7481,6.6216,21.2602,9.4157,32.0399,2.2608,8.7223,5.9933,20.2189-1.7391,27.2539-6.5903,5.9959-16.3325,5.5283-23.9149,1.8534-4.2749-2.0718-8.0255-4.9548-11.4285-8.2438-2.7949-2.7013-7.0693,1.5628-4.2692,4.2692h0Z"/><path d="M492.1778,351.6021c10.338-.9034,20.9709-1.4084,31.2381,.4299,11.2044,2.0061,19.5338,7.0755,26.177,16.3624,3.0772,4.3018,5.7747,8.8583,8.792,13.2007,2.5218,3.6292,5.3577,6.6935,10.0497,7.0622,9.4258,.7408,14.7264-9.6427,9.9349-17.2893-1.5804,1.2194-3.1608,2.4388-4.7412,3.6582,9.02,10.5567,25.1315-1.5539,17.7899-13.2488-1.5804,1.2194-3.1608,2.4388-4.7412,3.6582,9.02,10.5567,25.1315-1.5539,17.7899-13.2488-1.5804,1.2194-3.1608,2.4388-4.7412,3.6582,8.0533,9.4097,23.2525,.6924,18.8852-11.0353-1.3651-3.6657-4.6021-6.9849-6.8777-10.081-9.6121-13.078-19.2243-26.1561-28.8364-39.2341-2.7279-3.7115-5.4557-7.4229-8.1836-11.1344-.8689,1.5141-1.7377,3.0282-2.6066,4.5424,5.8657-.4869,13.1046,.0442,18.6486-2.1504,3.8013-1.5048,8.4645-6.0122,8.1364-10.5386-.2398-3.3078-4.5314-7.282-6.7758-9.482-12.1336-11.8938-29.9441-15.255-46.3217-15.7404-38.5341-1.142-75.637,11.4662-113.011,18.7882-12.0565,2.362-24.4215,3.6216-36.6733,4.3633-15.4515,.9354-31.6916,.8532-46.6961-3.3856-20.9383-5.9152-36.5448-21.2423-51.5903-36.1248-14.5589-14.4012-29.8638-28.8868-49.8871-35.0745-5.4218-1.6755-11.471-2.4733-16.1278-5.9688-3.7377-2.8057-4.6472-6.9465-5.3471-11.3499-.1572-.9889-.3176-2.0183-.306-3.0254,.006-.5163,.4015-2.55-.379-1.2887-.6083,.9831-.502,.2983,.3683,.3249,.4795,.0147,1.2414-.2554,1.7373-.3806,1.1151-.2815,2.2094-.6352,3.2836-1.0455,3.7078-1.4165,7.0756-3.5308,9.9776-6.2389,12.5632-11.7237,14.6688-31.5652,11.9178-47.6228-3.4634-20.216-16.4268-35.7152-36.4344-41.4672-23.6856-6.8094-54.0812,2.6928-58.6002,29.6267-2.1187,12.6276-.3807,26.1176,.0428,38.8545,.3308,9.9483,2.0047,21.7304-3.6999,30.568-3.564,5.5215-9.3881,8.3945-15.2253,10.9459-7.1908,3.143-14.6093,5.7278-21.9037,8.6134-12.1741,4.816-23.5664,10.7612-33.9128,18.8303-19.1854,14.9626-34.023,35.5098-41.706,58.6332-7.6578,23.0474-7.7927,48.9944,1.426,71.6289,8.3567,20.5181,24.371,36.2054,43.8484,46.3603,49.5432,25.8303,107.4134,20.4041,161.0695,16.6852,30.3391-2.1028,61.3769-3.2934,91.1844,3.8798,11.2369,2.7042,23.8309,6.7301,31.5777,15.84,4.4977,5.2892,6.8139,12.1063,9.0032,18.5809,1.7692,5.232,2.9814,12.3088,7.5045,15.9385,8.8084,7.0686,20.6108-2.0453,17.3232-12.3627-1.8392,.7754-3.6783,1.5507-5.5175,2.3261,6.0996,12.4429,24.7465,4.7891,20.5412-8.371-1.8392,.7754-3.6783,1.5507-5.5175,2.3261,6.0996,12.4429,24.7465,4.7891,20.5412-8.371-1.8392,.7754-3.6783,1.5507-5.5175,2.3261,5.4455,11.0856,22.3344,6.5118,21.0478-5.9405-.4025-3.8954-2.7153-7.9198-4.1513-11.4887-6.0584-15.0573-12.1169-30.1147-18.1753-45.172-1.7194-4.2732-3.4387-8.5464-5.1581-12.8196-1.2378,1.2378-2.4756,2.4756-3.7134,3.7134,6.5734,1.118,15.5605,4.3035,22.0179,1.6694,3.9523-1.6122,8.126-5.6651,6.7698-10.1562-2.094-6.9344-7.9304-12.6154-13.5354-16.8272-14.2114-10.6789-32.5482-15.5057-49.7764-18.4629-33.1392-5.6882-67.245-4.6178-100.7417-5.664-34.7438-1.0851-69.6138-3.286-103.6638-10.6917-11.8435-2.5759-28.7596-6.4921-35.5014-17.7723-2.5027-4.1874-3.4924-9.3459-3.2065-14.1859,.1111-1.8806,.5796-7.803,3.3641-7.7215,1.7537,.0513,3.8301,3.067,4.6637,4.2797,2.6117,3.7998,3.1464,8.411,2.6056,12.9011-1.0295,8.5481-5.5047,16.2215-10.0985,23.3229-8.1674,12.626-15.5384,25.3121-21.3422,39.2242-11.7747,28.2248-17.9408,58.4692-21.5719,88.7328-3.8238,31.8702-5.6133,64.4345-3.9462,96.5044,1.8154,34.9226,7.6381,69.4551,13.4188,103.8932,6.0715,36.1708,11.2062,72.0889,12.3106,108.8042,1.1059,36.765-.3173,73.5371-1.0723,110.2937-.3772,18.3618-.5912,36.7312-.239,55.0952,.1542,8.0411-.656,17.1793,1.7172,24.9563,1.8332,6.0075,6.3067,9.9597,11.8305,12.6364,5.6617,2.7434,11.7832,4.5554,17.6398,6.8357,7.8876,3.0711,16.1126,5.1569,24.4157,6.7458,12.0196,2.3001,24.2691,4.0044,36.4795,4.9005,16.864,1.2376,38.0211,1.7188,51.8776-9.6928,16.3208-13.4411,10.9765-39.0205,3.0781-55.5769-3.4109-7.1497-8.0651-13.6231-11.398-20.8162-3.0906-6.6701-5.1608-13.809-6.5759-21.0108-2.9421-14.9729-2.8952-30.4383-1.861-45.6071,2.2227-32.601,8.2938-64.9546,11.9824-97.4114,4.1262-36.3085,6.6557-72.8495,5.177-109.4013-.7369-18.215-2.2999-36.3815-3.7095-54.5529-.7207-9.2909-1.1973-19.1325-5.0905-27.7539-3.5592-7.8818-10.5393-11.1478-18.228-6.3037-.8571,.54-1.573,1.542-1.4951,2.6066,.6002,8.2033,5.3765,15.0789,12.6845,18.8485,9.4685,4.8841,20.4283,3.7144,30.6054,2.421,3.8022-.4832,3.8504-6.5269,0-6.0375-12.8728,1.636-35.9077,3.1489-37.2524-15.2321-.4984,.8689-.9968,1.7377-1.4951,2.6066,8.9687-5.6505,11.5398,7.8003,12.6872,14.2213,2.3026,12.8855,2.5019,26.3074,3.467,39.3376,2.5825,34.8659,2.7733,69.5514,.0133,104.4169-2.6444,33.4055-7.3676,66.5706-11.8585,99.7627-3.7528,27.7366-7.076,56.7673-.4336,84.34,1.5247,6.3291,3.6619,12.513,6.4487,18.3991,3.296,6.9616,7.8178,13.2574,11.1189,20.2137,4.723,9.9525,8.2343,22.9431,6.1869,34.0153-3.2306,17.4702-21.777,21.7924-37.0444,22.5312-9.6949,.4691-19.4303-.2268-29.061-1.3274-13.9779-1.5974-28.1374-3.671-41.5998-7.848-6.5466-2.0312-12.9925-4.6126-19.4082-7.0336-6.4986-2.4524-12.4763-5.5902-13.8935-12.9795-1.6202-8.4478-.9354-17.7946-1.052-26.3659-.1209-8.8904-.1179-17.782-.037-26.6728,.634-69.7205,5.2538-139.3154-5.3367-208.5758-5.1707-33.8152-11.7571-67.4252-15.7896-101.4089-3.8306-32.2826-4.3564-64.4126-2.3944-96.8405,1.8037-29.812,5.3205-59.6713,12.9662-88.5981,3.7505-14.1896,8.4887-28.161,14.6626-41.4874,2.9441-6.3548,6.1991-12.5661,9.7961-18.5762,3.9408-6.5846,8.5613-12.7527,12.2539-19.4863,6.329-11.5412,10.593-26.8037,.9178-37.7847-5.1244-5.8159-12.5646-6.016-15.6483,1.764-3.1247,7.8833-1.5763,18.4932,3.0377,25.4939,6.5112,9.8791,19.4433,14.7224,30.3295,17.7456,30.2764,8.4079,62.6865,10.7272,93.9317,12.1893,34.1137,1.5964,68.5559,.5131,102.5508,4.002,19.7727,2.0293,40.8725,5.7243,58.2837,15.8932,6.8226,3.9847,13.423,9.2196,16.6685,16.391-.223-.4927,.2245,1.0184,.5372,1.5475,.1146,.1938,.1424,.5283,.1779,.7552l.3043-2.3261c-3.8035,7.7103-15.4222,3.1911-22.0152,2.0698-1.9869-.3379-4.6642,1.3503-3.7134,3.7134,8.4119,20.9064,16.8237,41.8129,25.2356,62.7193,.5152,1.2803,1.1311,2.561,1.5587,3.8739,2.1712,6.6663-6.0348,10.8681-9.3225,4.1753-1.5056-3.0651-6.5556-.9225-5.5175,2.3261,2.1446,6.7113-6.4169,10.0207-9.5061,3.7188-1.5033-3.0666-6.5554-.922-5.5175,2.3261,2.1446,6.7113-6.4169,10.0207-9.5061,3.7188-1.5037-3.0674-6.5525-.9221-5.5175,2.3261,1.0871,3.4117-.6835,7.3997-4.7279,7.1992-4.0138-.199-5.1227-4.2983-6.236-7.4495-1.925-5.4487-3.585-10.9881-5.8732-16.3025-4.4363-10.3037-11.7957-17.5138-21.8937-22.3015-22.2689-10.5582-49.2271-12.2597-73.4542-12.2688-29.7204-.0112-59.2645,3.7962-88.9435,4.8073-25.792,.8787-51.6331-.8331-76.6595-7.4248-19.9812-5.2629-39.7809-13.8319-54.6516-28.554-15.911-15.752-23.8613-37.4919-24.2561-59.6964-.4117-23.1575,7.4489-45.7986,20.7243-64.6366,14.3875-20.416,34.4323-34.7247,57.5398-43.7433,11.2819-4.4032,24.9331-7.7629,34.2367-15.8704,7.0726-6.1633,9.5007-15.1037,9.8679-24.1692,.4297-10.609-.244-21.523-.8225-32.1178-.6864-12.5717-1.5862-27.1678,7.9894-36.88,17.124-17.3683,49.7937-13.2108,65.2349,4.2494,10.5407,11.919,13.2984,30.9431,10.1421,46.1089-1.5422,7.4101-4.6642,14.7643-10.3774,19.9206-2.8195,2.5447-6.2112,4.3596-9.877,5.3404-3.1514,.8432-5.6495,1.1016-6.3926,4.7468-1.283,6.2937,1.3337,15.6522,5.977,20.1072,7.4487,7.1468,19.035,7.5008,28.0985,11.6379,35.5082,16.2083,53.7601,56.2896,92.312,67.8284,25.6809,7.6864,54.8175,4.5179,80.8714,.5536,15.1141-2.2997,29.9609-6.462,44.8513-9.8542,18.465-4.2065,37.1354-8.0606,56.053-9.4702,16.2068-1.2076,34.2449-1.2019,49.1066,6.2973,6.4169,3.238,11.8178,7.8788,15.6896,13.956-.1014-.7754-.2029-1.5507-.3043-2.3261-1.7278,8.457-14.2195,6.9031-20.8553,7.454-2.0311,.1686-4.0874,2.5277-2.6066,4.5424,13.346,18.1583,26.692,36.3165,40.0381,54.4748,.8171,1.1117,1.734,2.1987,2.473,3.3647,3.7694,5.9473-3.2038,11.9518-8.0162,6.329-2.2344-2.6108-6.5506,.7758-4.7412,3.6582,3.7492,5.9725-3.779,11.2325-8.3076,5.9324-2.2325-2.6128-6.5504,.7762-4.7412,3.6582,3.7492,5.9725-3.779,11.2325-8.3076,5.9324-2.2331-2.6135-6.5475,.7754-4.7412,3.6582,3.3981,5.4229-2.848,10.8904-7.6945,6.6192-3.2715-2.8831-5.5349-8.0833-7.928-11.699-4.5448-6.8668-9.6123-13.6573-16.9084-17.7906-14.324-8.1148-32.604-7.3647-48.4477-5.9801-3.8409,.3357-3.8764,6.3762,0,6.0375h0Z"/><path d="M604.7348,352.6875c-5.9274-7.8228-11.8548-15.6456-17.7822-23.4684-.8407-1.1096-1.6815-2.2192-2.5222-3.3288-.983-1.2974-2.6038-1.9758-4.1302-1.083-1.2778,.7474-2.0736,2.8229-1.083,4.1302,5.9274,7.8228,11.8548,15.6456,17.7822,23.4684,.8407,1.1096,1.6815,2.2192,2.5222,3.3288,.983,1.2974,2.6038,1.9758,4.1302,1.083,1.2778-.7474,2.0736-2.8229,1.083-4.1302h0Z"/><path d="M592.2366,363.1344c-5.9274-7.8228-11.8548-15.6456-17.7822-23.4684-.8407-1.1096-1.6815-2.2192-2.5222-3.3288-.983-1.2974-2.6038-1.9758-4.1302-1.083-1.2778,.7474-2.0736,2.8229-1.083,4.1302,5.9274,7.8228,11.8548,15.6456,17.7822,23.4684,.8407,1.1096,1.6815,2.2192,2.5222,3.3288,.983,1.2974,2.6038,1.9758,4.1302,1.083,1.2778-.7474,2.0736-2.8229,1.083-4.1302h0Z"/><path d="M579.8469,372.8712c-5.9274-7.8228-11.8548-15.6456-17.7822-23.4684-.8407-1.1096-1.6815-2.2192-2.5222-3.3288-.983-1.2974-2.6038-1.9758-4.1302-1.083-1.2778,.7474-2.0736,2.8229-1.083,4.1302,5.9274,7.8228,11.8548,15.6456,17.7822,23.4684l2.5222,3.3288c.983,1.2974,2.6038,1.9758,4.1302,1.083,1.2778-.7474,2.0736-2.8229,1.083-4.1302h0Z"/><path d="M220.9624,149.3232c.2743,.0339,.1978,.0298-.0293-.0062-.1072-.017-.2141-.0352-.3208-.0546-.2401-.0437-.4791-.0933-.7166-.1491-.5015-.1177-.9966-.2623-1.483-.4318-.2307-.0804-.4574-.17-.6853-.2575,.2572,.0987,.1451,.0638-.0431-.0206-.099-.0444-.1975-.0899-.2956-.1364-.4657-.221-.9203-.4654-1.3614-.7322-.4184-.2531-.8205-.529-1.2154-.8172-.1712-.1249-.1111-.0935,.0204,.0169-.1038-.0872-.211-.1704-.3148-.2577-.1869-.157-.37-.3184-.549-.4843-.3778-.3502-.7373-.72-1.0765-1.1077-.1608-.1838-.3144-.373-.4681-.5627,.1084,.1338,.142,.1908,.0188,.019-.095-.1324-.1898-.2644-.2825-.3984-.5978-.8639-1.7917-1.342-2.7535-.722-.8589,.5537-1.3627,1.8277-.722,2.7535,2.8714,4.1491,7.2856,6.7578,12.278,7.3739,1.0489,.1294,2.057-1.018,2.0125-2.0125-.0538-1.201-.8887-1.8738-2.0125-2.0125h0Z"/><path d="M891.768,947.6667h-375.5688c-25.776,0-46.6716-20.8956-46.6716-46.6716v-106.9491h468.912v106.9491c0,25.776-10.3979,47.007-46.6716,46.6716Z" style="fill:#6966ed;"/><path d="M566.5087,286.9601c-.0976,11.6293-7.3482,22.5822-18.0978,27.4203-1.4868,.6692-1.8438,2.8295-1.083,4.1302,.8948,1.5298,2.6377,1.7547,4.1302,1.083,12.5397-5.6438,20.9731-18.9392,21.0881-32.6335,.0326-3.886-6.0048-3.8896-6.0375,0h0Z"/><g><path d="M140.0035,53.8271c-10.4201-6.4295-22.6849-13.107-34.2776-9.1667-8.4806,2.8825-14.2169,10.8907-17.6702,19.1553-4.4306,10.6037-6.0297,22.3753-4.5885,33.7767-13.4354-4.5344-29.0578-8.7497-41.0538-1.1889-7.9575,5.0154-12.2877,14.1652-15.0105,23.1687-11.6358,38.477,20.573,78.4492,62.3592,65.4391,10.9556-3.411,19.8211-11.4393,27.6723-19.8069,15.9443-16.9931,30.0343-39.2872,25.692-62.1811"/><path d="M141.5272,51.2205c-11.5921-7.1404-25.7875-14.6153-39.388-8.3421-11.5322,5.3192-17.6038,18.8129-20.3379,30.4814-1.8561,7.9215-2.3447,16.1568-1.3526,24.2326,1.2737-.9703,2.5475-1.9406,3.8212-2.9109-10.2277-3.4439-21.1293-6.5895-32.0119-5.0001-5.338,.7796-10.2916,2.9698-14.4672,6.3797-3.9048,3.1888-6.897,7.49-9.1246,11.979-8.1533,16.43-8.9548,35.7104-1.111,52.3916,6.9981,14.8825,20.9099,26.4222,37.2512,29.2887,9.1979,1.6135,18.9434,.7779,27.7157-2.4641,10.3779-3.8354,18.8216-11.2417,26.3346-19.1625,14.6525-15.4477,28.6505-35.4986,28.0698-57.7384-.0713-2.7293-.3929-5.4512-.8892-8.1348-.2966-1.6041-2.2384-2.5138-3.7134-2.1084-1.6848,.463-2.4059,2.1047-2.1084,3.7134,3.723,20.1331-7.7997,39.5631-20.4249,54.2487-6.5085,7.5707-13.6955,15.1192-22.3693,20.2124-7.7416,4.5458-16.6068,6.4991-25.3542,6.1816-3.9195-.1423-7.236-.6866-11.1867-1.8944-3.6552-1.1175-6.5387-2.4192-9.9465-4.5049-3.3051-2.0228-5.6729-3.9082-8.4651-6.7148-2.8006-2.8151-4.693-5.2265-6.7425-8.5243-.9814-1.5792-1.8793-3.2104-2.6899-4.8837-.2263-.4671-.4458-.9375-.6585-1.4109-.0832-.1853-.4421-1.0171-.3144-.7116-.4026-.9633-.7723-1.9411-1.1158-2.927-.6232-1.7885-1.1526-3.6098-1.586-5.4535-.2185-.9294-.4125-1.8646-.5819-2.8042-.0756-.4194-.1464-.8397-.2122-1.2608-.0412-.2638-.081-.5278-.1176-.7922-.0303-.2141-.0299-.2117,.0012,.0073-.0203-.1594-.0397-.319-.0581-.4786-.9289-8.4269-.0289-16.0016,2.6258-23.9606,2.8252-8.4705,7.511-17.1475,16.0799-20.8414,8.9797-3.8709,19.4378-1.6964,28.4928,.9445,2.3752,.6927,4.7286,1.4567,7.0732,2.2461,1.699,.5721,4.0561-.9989,3.8212-2.9109-1.5319-12.4693,.3955-25.811,6.363-36.8426,2.4489-4.5271,5.7025-8.7856,10.0726-11.4488,4.8674-2.9663,10.6629-3.3831,16.2421-2.0163,6.9714,1.7079,13.2597,5.4184,19.3162,9.1489,3.3174,2.0434,6.3532-3.1768,3.0472-5.2132h0Z"/></g><path d="M831.865,804.3484l-3.1249-4.3905c7.083-21.1083-2.7731-46.5841-22.2187-57.4286-19.4456-10.8444-46.2996-5.8413-60.5354,11.2782,15.3217-26.3173,5.6379-62.4975-17.438-82.3683-23.0759-19.8709-56.2301-24.9993-86.1614-19.3906,5.3244-19.6467,9.3707-40.6935,3.3221-60.1296-6.049-19.436-25.3564-36.1301-45.3936-32.5434,2.7881-22.5482,.4641-45.7005-6.6418-67.2762-1.5264-4.6344-3.269-9.1974-5.2337-13.6646-3.3846-7.6944-8.5302-15.6521-14.9375-21.0166-21.3975,25.2915-39.68,49.5152-52.6414,69.1722-15.7662,23.9112-23.6521,41.0562-19.6847,45.1364l-.1192,.2735v106.9978c0,2.3421,.2329,16.8262,.3259,37.3133,.0406,8.974-4.4459,17.2979-11.8143,22.4202-12.7193,8.842-21.047,23.5555-21.047,40.2206,0,27.0459,21.9249,48.9708,48.9708,48.9708h79.4445c2.7629,.2196,5.5553,.3354,8.3749,.3354h214.2236c12.2984,0,19.4614-13.8907,12.3298-23.91Z" style="fill:#6966ed;"/><path d="M940.3592,759.4981c0-5.5773-.1004-11.1637,0-16.74,.1022-5.676,2.9514-10.8447,7.5467-14.1694,2.6394-1.9097,5.687-2.8285,8.6061-4.1863,2.8634-1.3319,5.5279-3.0115,8.0056-4.9669,8.8717-7.0017,14.4713-18.0544,13.3665-29.485-1.0801-11.1745-7.8163-20.7947-17.2673-26.6428-12.6954-7.8556-27.6089-6.4469-41.842-6.4469H500.8507c-10.4314,0-20.8647-.0592-31.296,0-18.0774,.1027-37.1952,11.2522-40.4318,30.2296-1.9693,11.547,2.4776,23.1378,11.2061,30.8687,2.1315,1.8879,4.4706,3.5805,6.9473,4.9848,2.8213,1.5997,5.923,2.5115,8.7757,4.0117,5.1312,2.6984,9.1287,7.4862,10.0365,13.3157,.7713,4.9527,.1778,10.3258,.1778,15.3256v135.4428c0,6.5306-.2232,13.1045,.0291,19.6327,.8575,22.1818,19.4346,39.8341,41.5264,40.0132,10.8199,.0877,21.6441,0,32.4643,0h77.6615c32.8466,0,65.6933,0,98.5399,0,31.9088,0,63.8177,0,95.7265,0h86.1691c10.7539,0,20.8392-2.5729,29.3533-9.5167,8.702-7.0971,14.0606-17.6967,14.9653-28.8478,.2188-2.6972,.0948-5.4243,.0501-8.1277-.1829-11.0618-.3659-22.1236-.5488-33.1854-.5142-31.0942-1.0284-62.1884-1.5426-93.2826-.1005-6.0757-.2009-12.1514-.3014-18.2271-.0642-3.881-6.1019-3.893-6.0375,0,.3481,21.0527,.6963,42.1055,1.0444,63.1582,.4483,27.112,.8967,54.2241,1.345,81.3361,.0375,2.2675,.1413,4.5534,.0459,6.8205-.4643,11.0428-6.3611,21.5709-15.5415,27.7345-7.2517,4.8687-15.2749,6.1004-23.7243,6.1004-16.0971,0-32.1942,0-48.2913,0-28.3182,0-56.6364,0-84.9545,0-32.9445,0-65.8891,0-98.8336,0h-147.8756c-3.2148,0-6.4306,.024-9.6453,0-19.5405-.146-35.4269-15.9743-35.587-35.5283-.1749-21.3662,0-42.7412,0-64.1079v-89.4475c0-5.1709,.4591-10.5597-.2185-15.6969-.7423-5.6269-3.6194-10.8785-7.9041-14.6046-4.7081-4.0942-10.7305-5.4065-15.8775-8.7607-9.3625-6.1013-15.4304-17.201-13.2358-28.4838,3.1603-16.2475,19.4074-25.091,34.9129-25.1201,3.6113-.0068,7.2226,0,10.8339,0,18.1048,0,36.2096,0,54.3144,0,28.1183,0,56.2367,0,84.355,0,32.9173,0,65.8345,0,98.7518,0,31.9406,0,63.8812,0,95.8217,0,25.7389,0,51.4779,0,77.2168,0,14.1773,0,28.3546,0,42.5319,0,7.854,0,15.5038,.9017,22.5165,4.8835,9.028,5.1262,15.6585,14.3446,15.6584,24.9685,0,12.0654-8.5017,22.1532-19.2501,26.7702-5.4339,2.3341-10.1903,4.7356-13.8196,9.6089-2.9714,3.99-4.5122,8.7529-4.5899,13.7171-.0868,5.5477,0,11.1031,0,16.6516,0,3.8848,6.0375,3.8913,6.0375,0Z"/><path d="M720.0836,762.1815l50.5265-59.8187c3.7853-4.4815,10.8845-3.7896,13.7334,1.3383l5.2779,9.5002c1.3955,2.5119,1.4073,5.5634,.0313,8.086l-34.015,62.3608" style="fill:#6966ed;"/><path d="M884.4376,811.1523l-8.0236-49.8607c-.8314-5.1667,1.4679-10.3368,5.8615-13.1797h0c7.6223-4.9321,17.8329-.8756,19.9924,7.9426l11.6862,47.7187" style="fill:#6966ed;"/><path d="M691.2613,507.3552c10.3235,18.2477,32.6615,27.312,52.9749,24.0177,5.6604-.918,11.1648-2.9325,16.0764-5.8937-1.3767-1.3767-2.7535-2.7535-4.1302-4.1302-6.2436,12.1277-7.1083,26.8641-2.261,39.6348,4.8372,12.7443,14.8791,22.4702,27.4644,27.5381,6.7589,2.7217,14.2164,3.8955,21.481,3.2866-.5079-1.8751-1.0157-3.7502-1.5236-5.6253-11.2643,8.4679-16.1391,23.5376-12.7652,37.1433,.9224,3.7198,2.5184,7.3194,4.7085,10.4658,.9302,1.3363,2.644,1.9523,4.1302,1.083,1.3229-.7738,2.019-2.7855,1.083-4.1302-6.6702-9.5823-6.4437-22.6025-.3451-32.4133,1.5935-2.5634,3.9144-5.1902,6.2358-6.9353,1.0885-.8183,1.7718-2.0099,1.3873-3.4091-.3308-1.2036-1.6054-2.3257-2.9109-2.2162-11.5227,.9658-23.2572-2.8761-31.9813-10.5508-9.0658-7.9754-14.0338-19.5405-14.042-31.5567-.0046-6.6581,1.4772-13.2944,4.5522-19.2672,1.3325-2.5882-1.4274-5.7598-4.1302-4.1302-4.0793,2.4594-7.9561,3.9516-12.7361,4.9361-2.3856,.4913-3.9943,.6861-6.542,.8-2.3156,.1036-4.6381,.0404-6.9452-.1807-1.9021-.1823-4.1355-.5575-6.3891-1.1039-2.3129-.5608-4.5874-1.2812-6.8007-2.156-.9131-.3609-1.7027-.7096-2.8367-1.2619-1.0661-.5192-2.1139-1.0761-3.14-1.6704-1.8978-1.099-4.1036-2.5972-5.4931-3.7236-4.1875-3.3944-7.3302-7.0415-9.9078-11.5977-1.9132-3.3817-7.1309-.3425-5.2132,3.0472h0Z" style="fill:#f4d13b;"/><path d="M469.1331,604.6296c-.3628,6.7865-4.3339,13.3097-10.3061,16.833-1.9559,1.1539-1.9567,4.0595,0,5.2132,8.8969,5.2458,14.2264,15.3251,13.8037,25.5122-.0677,1.6304,1.4359,3.0187,3.0187,3.0187,1.6915,0,2.9509-1.3833,3.0187-3.0187,.5116-12.3284-6.1841-24.4696-16.794-30.7253v5.2132c7.815-4.6104,12.8133-13.0098,13.2964-22.0462,.0871-1.6297-1.4498-3.0187-3.0187-3.0187-1.7071,0-2.9314,1.3842-3.0187,3.0187h0Z" style="fill:#f4d13b;"/><path d="M698.2012,358.8379l16.4591-5.4892c1.4951-.4986,2.629-2.1046,2.1084-3.7134-.4818-1.4887-2.1094-2.6433-3.7134-2.1084-5.4864,1.8297-10.9727,3.6594-16.4591,5.4892-1.4951,.4986-2.629,2.1046-2.1084,3.7134,.4818,1.4887,2.1094,2.6433,3.7134,2.1084h0Z" style="fill:#6966ed;"/><path d="M702.1096,406.227c4.8531,.762,9.7062,1.5239,14.5593,2.2859,1.5535,.2439,3.3234-.3959,3.7134-2.1084,.3292-1.4452-.4402-3.4515-2.1084-3.7134-4.8531-.762-9.7062-1.5239-14.5593-2.2859-1.5535-.2439-3.3234,.3959-3.7134,2.1084-.3292,1.4452,.4402,3.4515,2.1084,3.7134h0Z" style="fill:#6966ed;"/><path d="M676.0921,319.3522v7.3155c0,.774,.3367,1.5871,.8842,2.1346,.5236,.5236,1.3826,.9179,2.1346,.8842,1.6356-.0733,3.0187-1.3264,3.0187-3.0187v-7.3155c0-.774-.3367-1.5871-.8842-2.1346-.5236-.5236-1.3826-.9179-2.1346-.8842-1.6356,.0733-3.0187,1.3264-3.0187,3.0187h0Z" style="fill:#6966ed;"/></svg>