<?xml version="1.0" encoding="UTF-8"?><svg id="Layer_2" xmlns="http://www.w3.org/2000/svg" width="1000" height="1000" viewBox="0 0 1000 1000"><g><circle cx="389.772" cy="253.1095" r="127.4602" style="fill:#f953b2;"/><circle cx="411.5897" cy="245.2018" r="127.4602" style="fill:#f4d13b;"/><circle cx="411.5897" cy="245.2018" r="108.1778" style="fill:#fff;"/><g><path d="M439.5339,197.5916c-8.3553-23.0673-36.5339-30.8953-57.6217-20.6492-11.0263,5.3575-19.4842,14.3677-23.253,26.1181-3.3888,10.5658-1.5275,22.7255,5.081,31.6907,6.6513,9.0232,17.2903,14.7172,28.4166,15.6969,6.4401,.567,12.7656-.0697,18.9433-2.0459,1.803-.5767,3.5796-1.1946,5.4035-1.7084,2.5292-.7124-.9607,.1188,.5692-.1395,.6717-.1134,1.3439-.2157,2.0207-.295,1.3298-.1559,2.6682-.2408,4.0071-.2519-.1044,.0009,2.4857,.0528,1.2523-.0078-1.2178-.0598,1.3055,.138,1.2206,.1275,1.1477,.1424,2.2874,.3398,3.4156,.594,.4926,.111,3.5388,1.0414,1.9118,.4573,1.4024,.5035,2.7723,1.102,4.0917,1.7945,.5248,.2754,2.7098,1.6715,1.3006,.6894,.997,.6948,1.9584,1.4373,2.8664,2.2453,.361,.3212,.6967,.6741,1.0598,.9922,1.7213,1.508-.9275-1.341,.4617,.4785,.7383,.967,1.4769,1.9207,2.1186,2.9573,.0056,.009,1.1923,2.0926,.5522,.8921-.6392-1.1986,.4111,.9706,.4169,.9848,.4296,1.0474,.742,2.119,1.0807,3.1971,.1526,.4858,.371,2.108,.0978,.2622,.0717,.4843,.1498,.9656,.205,1.452,.164,1.4449,.2127,2.9069,.1409,4.3593,.088-1.7817-.1508,.7588-.26,1.3716-.2133,1.197-.509,2.3747-.8622,3.5375,.5164-1.7-.6635,1.5105-.905,2.0186-.5339,1.1233-1.1343,2.215-1.7936,3.2695,.8786-1.4052-.0217,.0079-.284,.338-.5555,.6989-1.0864,1.4111-1.6727,2.086-.8462,.9741-1.744,1.9134-2.6995,2.7817,1.2006-1.091-.1191,.0448-.4352,.2951-.6263,.4959-1.2675,.9702-1.9247,1.4243-1.226,.8472-2.5014,1.6248-3.8209,2.3181,1.3616-.7154,.0957-.0603-.1723,.0471-.9151,.3667-1.8114,.7662-2.7405,1.0996-1.4567,.5227-2.9409,.9569-4.4486,1.306,1.4846-.3438,.1309-.0245-.1634,.0145-.8075,.1071-1.6103,.2335-2.4216,.3108-1.5944,.152-3.185,.182-4.7848,.1452,1.5042,.0346,.1943,.0257-.1159-.0122-.7704-.0941-1.54-.1804-2.3058-.3089-1.5084-.2531-2.9923-.6115-4.4556-1.0543,.3438,.104,1.4376,.5942-.043-.0362-.687-.2925-1.3828-.5593-2.0599-.8752-.5596-.2611-1.11-.5397-1.6533-.8331-.3483-.1881-2.5346-1.6003-.9757-.514-.9969-.6946-1.9585-1.4373-2.8664-2.2453-.4529-.403-.8791-.8296-1.3149-1.2501-.4337-.4491-.3464-.3379,.2618,.3336-.2392-.2731-.471-.5523-.6954-.8376-.8059-1.0795-1.5499-2.1642-2.2686-3.3017-.8728-1.3816-.1425-.2138,.0101,.1112-.425-.9048-.793-1.8257-1.1333-2.7652-1.5355-4.2393-6.5983-7.0627-10.9719-5.3239-4.2961,1.7079-6.97,6.4275-5.3239,10.9719,8.3553,23.0673,36.5339,30.8953,57.6217,20.6492,11.0263-5.3575,19.4842-14.3677,23.253-26.1181,3.3888-10.5658,1.5275-22.7255-5.081-31.6907-6.6513-9.0232-17.2903-14.7172-28.4166-15.6969-6.4401-.567-12.7656,.0697-18.9433,2.0459-1.803,.5767-3.5796,1.1946-5.4035,1.7084-2.5292,.7124,.9607-.1188-.5692,.1395-.6717,.1134-1.3439,.2157-2.0207,.295-1.3298,.1559-2.6682,.2408-4.0071,.2519,.1044-.0009-2.4857-.0528-1.2523,.0078,1.2178,.0598-1.3055-.138-1.2206-.1275-1.1477-.1424-2.2874-.3398-3.4156-.594-.4926-.111-3.5388-1.0414-1.9118-.4573-1.4024-.5035-2.7723-1.102-4.0917-1.7945-.5248-.2754-2.7098-1.6715-1.3006-.6894-.997-.6948-1.9584-1.4373-2.8664-2.2453-.361-.3212-.6967-.6741-1.0598-.9922-1.7213-1.508,.9275,1.341-.4617-.4785-.7383-.967-1.4769-1.9207-2.1186-2.9573-.0056-.009-1.1923-2.0926-.5522-.8921,.6392,1.1986-.4111-.9706-.4169-.9848-.4296-1.0474-.742-2.119-1.0807-3.1971-.1526-.4858-.371-2.108-.0978-.2622-.0717-.4843-.1498-.9656-.205-1.452-.164-1.4449-.2127-2.9069-.1409-4.3593-.088,1.7817,.1508-.7588,.26-1.3716,.2133-1.197,.509-2.3747,.8622-3.5375-.5164,1.7,.6635-1.5105,.905-2.0186,.5339-1.1233,1.1343-2.215,1.7936-3.2695-.8786,1.4052,.0217-.0079,.284-.338,.5555-.6989,1.0864-1.4111,1.6727-2.086,.8462-.9741,1.744-1.9134,2.6995-2.7817-1.2006,1.091,.1191-.0448,.4352-.2951,.6263-.4959,1.2675-.9702,1.9247-1.4243,1.226-.8472,2.5014-1.6248,3.8209-2.3181-1.3616,.7154-.0957,.0603,.1723-.0471,.9151-.3667,1.8114-.7662,2.7405-1.0996,1.4567-.5227,2.9409-.9569,4.4486-1.306-1.4846,.3438-.1309,.0245,.1634-.0145,.8075-.1071,1.6103-.2335,2.4216-.3108,1.5944-.152,3.185-.182,4.7848-.1452-1.5042-.0346-.1943-.0257,.1159,.0122,.7704,.0941,1.54,.1804,2.3058,.3089,1.5084,.2531,2.9923,.6115,4.4556,1.0543-.3438-.104-1.4376-.5942,.043,.0362,.687,.2925,1.3828,.5593,2.0599,.8752,.5596,.2611,1.11,.5397,1.6533,.8331,.3483,.1881,2.5346,1.6003,.9757,.514,.9969,.6946,1.9585,1.4373,2.8664,2.2453,.4529,.403,.8791,.8296,1.3149,1.2501,.4337,.4491,.3464,.3379-.2618-.3336,.2392,.2731,.471,.5523,.6954,.8376,.8059,1.0795,1.5499,2.1642,2.2686,3.3017,.8728,1.3816,.1425,.2138-.0101-.1112,.425,.9048,.793,1.8257,1.1333,2.7652,1.5355,4.2393,6.5983,7.0627,10.9719,5.3239,4.2961-1.7079,6.97-6.4275,5.3239-10.9719h0Z" style="fill:#f953b2;"/><path d="M398.1752,180.0872c-1.7446-5.0335-3.4891-10.067-5.2337-15.1005-1.4772-4.262-6.64-7.0461-10.9719-5.3239-4.346,1.7278-6.9071,6.404-5.3239,10.9719,1.7446,5.0335,3.4891,10.067,5.2337,15.1005,1.4772,4.262,6.64,7.0461,10.9719,5.3239,4.346-1.7278,6.9071-6.404,5.3239-10.9719h0Z" style="fill:#f953b2;"/><path d="M443.5849,311.1059c-1.7446-5.0335-3.4891-10.067-5.2337-15.1005-1.4772-4.262-6.64-7.0461-10.9719-5.3239-4.346,1.7278-6.9071,6.404-5.3239,10.9719,1.7446,5.0335,3.4891,10.067,5.2337,15.1005,1.4772,4.262,6.64,7.0461,10.9719,5.3239,4.346-1.7278,6.9071-6.404,5.3239-10.9719h0Z" style="fill:#f953b2;"/></g><path d="M801.931,133.7492c.0016,.0033,.1202,.2978,.0601,.1293-.0612-.1716,.0358,.1392,.0356,.1387,.0035,.0124,.0654,.3241,.0399,.1249-.0255-.199-.0068,.1173-.0071,.1304,.0013-.0573,.0899-.2861,.0064-.0988-.0237,.0532-.1625,.3708-.047,.1642,.1121-.2007-.3508,.3901-.0636,.0916-.1228,.1276-.2431,.2538-.373,.3746-.2571,.2391,.1426-.0698-.1715,.1251-.3458,.2145-.6946,.4108-1.0647,.5809-.2055,.0944,.0027,.0004,.0386-.0141-.116,.0466-.233,.0912-.3503,.1345-.1767,.0651-.3549,.1266-.5335,.1862-.3895,.1299-.7827,.2483-1.1752,.3688-.8889,.2729-1.7593,.5744-2.6107,.9507-1.7701,.7822-3.43,2.3578-3.3088,4.4493,.1363,2.3519,2.2528,3.4008,4.2276,4.0519,2.1129,.6966,4.3355,.7695,6.5174,.419,1.0158-.1632,1.6709-1.481,1.3696-2.4122-.3565-1.1017-1.3236-1.5445-2.4122-1.3696-.2397,.0371-.2656,.0421-.0776,.015-.1336,.0153-.2673,.0281-.4014,.0386-.268,.0209-.5368,.0322-.8056,.034s-.5377-.0059-.806-.0231c-.0706-.0045-.8163-.0873-.4808-.0382-.4651-.0681-.9265-.1705-1.3789-.2977-.2588-.0728-.515-.1547-.768-.2457-.1265-.0455-.2521-.0932-.3769-.1432,.1584,.068,.1295,.0539-.0867-.0424-.1912-.0935-.3832-.1829-.5665-.2916-.0759-.043-.1496-.0895-.221-.1397,.1682,.1315,.1709,.1215,.008-.03,.097,.1338,.2182,.6746,.1749,.3069-.0493,.2397-.0487,.2457,.0019,.0178,.0707-.2155,.0689-.2178-.0054-.0069,.1168-.1797,.1181-.1936,.004-.0418,.081-.0922,.1671-.1793,.2585-.2612-.2425,.2311,.1493-.1026,.1987-.1334,.2122-.1322,.4361-.2375,.6573-.3527,.212-.0946,.2284-.1045,.0492-.0298,.1166-.0475,.2338-.0933,.3518-.1373,1.8529-.695,3.8775-1.0462,5.5522-2.1568,1.0249-.6797,1.8641-1.5432,2.317-2.6988,.5166-1.3183,.1915-2.616-.3897-3.847-.4392-.9302-1.8467-1.2426-2.6829-.7035-.9568,.6168-1.1733,1.6879-.7035,2.6829h0Z"/><path d="M474.2765,332.9234c8.033-3.7631,16.066-7.5263,24.099-11.2894,1.1504-.5389,2.3008-1.0778,3.4512-1.6168,1.4385-.6739,1.8052-2.7422,1.0552-4.0244-.8622-1.4741-2.5805-1.7316-4.0244-1.0552-8.033,3.7631-16.066,7.5263-24.099,11.2894-1.1504,.5389-2.3008,1.0778-3.4512,1.6168-1.4385,.6739-1.8052,2.7422-1.0552,4.0244,.8622,1.4741,2.5805,1.7316,4.0244,1.0552h0Z"/><path d="M479.8843,346.5552c8.033-3.7631,16.066-7.5263,24.099-11.2894,1.1504-.5389,2.3008-1.0778,3.4512-1.6168,1.4385-.6739,1.8052-2.7422,1.0552-4.0244-.8622-1.4741-2.5805-1.7316-4.0244-1.0552-8.033,3.7631-16.066,7.5263-24.099,11.2894-1.1504,.5389-2.3008,1.0778-3.4512,1.6168-1.4385,.6739-1.8052,2.7422-1.0552,4.0244,.8622,1.4741,2.5805,1.7316,4.0244,1.0552h0Z"/><path d="M485.7044,359.5726c8.033-3.7631,16.066-7.5263,24.099-11.2894,1.1504-.5389,2.3008-1.0778,3.4512-1.6168,1.4385-.6739,1.8052-2.7422,1.0552-4.0244-.8622-1.4741-2.5805-1.7316-4.0244-1.0552-8.033,3.7631-16.066,7.5263-24.099,11.2894-1.1504,.5389-2.3008,1.0778-3.4512,1.6168-1.4385,.6739-1.8052,2.7422-1.0552,4.0244,.8622,1.4741,2.5805,1.7316,4.0244,1.0552h0Z"/><g><path d="M806.2437,176.8763s10.8218,2.2761,20.9072-1.3578c-5.3042,6.4586-15.8945,10.8859-19.2445,10.4282,5.4869-8.1369-1.5517-8.8566-1.6627-9.0704Z"/><path d="M805.4617,179.7126c7.2817,1.5157,15.4702,1.1129,22.4711-1.3578-.9539-1.6387-1.9079-3.2775-2.8618-4.9162-.6779,.8134-1.4069,1.5784-2.1853,2.2963-.3627,.3345-.7351,.6587-1.1151,.9735-.2295,.1901-.4612,.3795-.6975,.5612,.3038-.2336-.1356,.0946-.241,.1717-1.7006,1.244-3.513,2.336-5.3951,3.2823-.4123,.2073-.8285,.4072-1.2481,.5994-.2438,.1117-.489,.2204-.7351,.3271,.3827-.166,.0772-.0318-.137,.0528-.7767,.3067-1.5607,.5932-2.3609,.833-.453,.1357-1.6541,.6653-2.1124,.5003,.1124,.0405,.7468-.0602,.2103-.0313-.1251,.0068-.2498,.0224-.3752,.0273-.2589,.0101-.515,.0034-.7724-.0268l2.5398,4.426c2.0277-3.061,3.7256-7.2929,1.1994-10.577-.6885-.8951-1.5759-1.5959-2.6066-2.0611-.4803-.2168-.968-.4147-1.4707-.5722-.1103-.0346-.2227-.0725-.3352-.0991-.0346-.0081-.071-.0287-.1059-.0328,.2283,.0272,.9711,.4572,1.1963,.7073-1.0636-1.1808-3.0777-1.082-4.1598,0-1.1741,1.1741-1.0663,2.9759,0,4.1598,.5472,.6074,1.3398,.7644,2.0728,1.0115,.1308,.0441,.2623,.1087,.3953,.1441-.2945-.0783-.637-.3287-.1731-.0573,.1569,.0918,.3295,.2166,.4942,.2901,.3185,.1422-.2853-.1793-.3063-.2481,.0204,.0667,.1825,.1493,.2303,.2008,.0541,.0582,.1146,.1255,.1749,.1768,.3851,.3275-.388-.1876-.1799-.2488,.0508-.015,.4644,.8772,.1719,.2362-.2932-.6427,.1219,.3532,.0585,.3467-.0837-.0085-.0145-.7606-.052-.3019-.0116,.1422-.0021,.2943-.0024,.4371-.0003,.1052-.077,.5182,.0023,.0821,.0904-.4971-.0405,.1167-.0659,.2187-.0367,.1473-.0789,.2935-.1245,.4383,.0015-.0048-.2407,.6836-.1127,.3558,.1168-.299-.1048,.2264-.1292,.2771-.109,.227-.2243,.4509-.3454,.6716-.278,.5064-.587,.9938-.9059,1.4752-.5717,.8631-.5085,2.1003,0,2.9692,.5705,.975,1.4746,1.3317,2.5398,1.4568,1.4483,.1701,3.0195-.218,4.4042-.618,2.0123-.5813,3.9684-1.4163,5.8442-2.3418,4.1156-2.0307,8.1222-4.7853,11.076-8.3299,.8467-1.016,1.1622-2.3638,.4599-3.5645-.6244-1.0675-2.1057-1.7809-3.3217-1.3517-4.4404,1.5671-8.7564,2.0724-13.4537,1.9365-1.558-.0451-3.0991-.1942-4.6472-.3619-.3909-.0423,.7029,.1064,.1996,.0256-.1195-.0192-.2396-.0352-.3592-.0537-.1915-.0296-.3829-.0604-.5738-.0939-.17-.0298-.3401-.0597-.5091-.0949-1.5538-.3234-3.1786,.4543-3.6183,2.0544-.4008,1.4585,.4919,3.293,2.0544,3.6183Z"/></g><g><path d="M859.7658,168.3027c-2.3162,8.6769-6.2538,16.947-10.7024,24.6882-9.5477,16.6145-23.3893,32.5732-30.7299,50.2771-6.8318,16.4771,8.8494,31.6948,25.2909,26.8152,7.7718-2.3066,14.1472-7.9464,19.2671-14.232,12.9921-15.95,18.9753-36.0838,22.8373-55.9555,3.9107-20.1227,10.0433-40.3463,10.6321-60.9603,.5154-18.0439-3.2397-36.6128-13.301-51.6001-10.0613-14.9873-26.9845-25.8918-45.0342-26.1336-9.1675-.1228-18.2,2.4141-26.6406,5.9939-7.3053,3.0982-14.4482,7.1336-19.481,13.2685-11.5112,14.0316-5.8503,34.6657,13.5966,35.3646,9.3355,.3355,21.8954-2.1636,30.7335,2.0036,7.9308,3.7394,7.4182,13.0373,5.8264,20.3953-1.5605-10.5859,11.336-23.0377,19.9957-12.1372,7.0509,8.8754,.6549,22.833-.4846,32.8073-.3636,3.1828-.9822,6.3197-1.8058,9.4051Z"/><path d="M856.9295,167.5208c-5.3624,19.8383-18.3836,36.05-29.4154,52.9606-2.7527,4.2196-5.3985,8.5152-7.7619,12.9666-2.1717,4.0902-4.5651,8.4896-5.494,13.0624-1.6123,7.9369,1.0949,16.255,7.2929,21.5445,6.3463,5.416,15.0536,7.239,23.0491,4.8055,9.385-2.8564,16.6144-9.9167,22.4191-17.5399,11.8645-15.5814,17.6409-34.851,21.3838-53.8148,4.1994-21.2768,10.6367-42.4346,10.9353-64.2767,.2673-19.5543-4.4959-39.7662-16.6758-55.4036-10.996-14.1175-28.2842-23.9935-46.4683-23.5547-10.4498,.2522-20.6938,3.5785-30.0477,8.0771-8.0018,3.8483-15.8598,9.422-19.9878,17.517-3.0637,6.008-4.1175,13.1921-2.0249,19.6933,2.1335,6.6281,7.1944,11.666,13.771,13.9037,3.7328,1.2701,7.706,1.4116,11.6117,1.3105,4.5219-.117,9.0362-.5019,13.5623-.4359,4.0667,.0593,8.5405,.3901,12.1417,2.2704,.7549,.3942,1.4035,.8236,1.8199,1.2118,.3365,.3138,.6608,.6377,.9573,.99,.0371,.0441,.3261,.4424,.0913,.1155,.1445,.2013,.279,.4098,.4083,.6211,.5478,.8952,.6041,1.035,.8737,1.8578,.267,.8148,.4615,1.6572,.5854,2.5055,.0832,.5702-.0549-.6934,.0269,.2914,.0172,.2073,.0357,.414,.0491,.6216,.027,.4184,.0414,.8377,.0456,1.2569,.0085,.8485-.027,1.6974-.0947,2.5432-.1318,1.646-.3601,2.9561-.759,4.8238h5.6726c.0585,.4348-.0241-.7732-.0244-.9953-.0007-.4961,.0245-.9959,.0828-1.4887-.0592,.5008,.0254-.1352,.0504-.2556,.051-.2457,.0976-.4915,.156-.7357,.129-.5387,.2885-1.0698,.474-1.5917,.4966-1.3973,1.6577-3.3003,2.7316-4.4511,.3325-.3563,.6815-.6974,1.0468-1.0201,.1441-.1273,.2906-.253,.4402-.3735-.3709,.2988,.1048-.0762,.202-.1416,.3497-.2354,.7004-.4661,1.0688-.6716,.2411-.1345,.4868-.2605,.7368-.3777,.5622-.2634-.3363,.0902,.3049-.114,.43-.1369,.8555-.2409,1.2919-.3527,.5425-.139,.1439-.0296,.0062-.0153,.2642-.0276,.5293-.0444,.795-.0479,.1774-.0023,.3555,.0009,.5326,.0099-.0147-.0007,.8392,.1026,.4101,.032-.4386-.0721,.4359,.1105,.4104,.1041,.2703,.0684,.5373,.1505,.7995,.2455,.832,.3014-.4467-.2613,.3561,.1675,.177,.0945,.3523,.1896,.5246,.2928,.4776,.2861,.7127,.463,.9512,.6732,.881,.7762,1.6166,1.618,2.1934,2.5458,1.0978,1.766,1.7156,3.9688,1.868,5.8975,.387,4.8957-.7291,9.569-1.8141,14.3354-.6062,2.6629-1.2429,5.3265-1.6317,8.0321-.5031,3.5015-1.0273,6.9433-1.9304,10.372-.9651,3.6643,4.7077,5.2275,5.6726,1.5639,.4474-1.6987,.844-3.4093,1.1646-5.1367,.175-.9429,.3265-1.8896,.4606-2.8392,.0815-.5772,.1581-1.1554,.2293-1.734-.0203,.1648,.1398-1.1238,.0759-.662,.374-2.7059,1.0259-5.3715,1.6317-8.0321,1.3184-5.7909,2.6522-11.7738,1.8107-17.731-.8005-5.667-4.2311-11.2013-9.7331-13.3166-4.7499-1.8262-9.9,.1485-13.4159,3.5083-4.2829,4.0927-6.3885,10.0232-5.6017,15.8681,.3919,2.9116,5.0967,2.6969,5.6726,0,1.4878-6.967,2.1583-15.555-3.3593-21.0314-3.0345-3.0119-7.4129-4.372-11.5473-4.9782-4.5149-.662-9.0513-.6054-13.5985-.4036-4.109,.1824-8.2896,.5745-12.3972,.1945-.8258-.0764-1.0647-.1119-2.0579-.324-.8348-.1782-1.6598-.4025-2.468-.6775-.3661-.1246-.7308-.2577-1.0884-.405,.4793,.1973-.5048-.24-.5919-.2829-.7001-.3445-1.3788-.7321-2.0305-1.1612-.2998-.1974-.5936-.4033-.8811-.6183-.3702-.2768,.3186,.2625-.034-.0323-.1353-.1132-.2713-.2255-.4044-.3413-.5597-.4867-1.0892-1.0079-1.5838-1.5606-.2305-.2576-.4539-.5218-.6688-.7926,.3456,.4355-.2052-.2951-.3068-.4436-.4124-.6028-.7876-1.2307-1.1251-1.8783-.1593-.3056-.3027-.6173-.4515-.9279-.1964-.41,.1602,.4126-.0091-.0101-.0642-.1603-.1274-.3209-.1879-.4827-.2585-.691-.4777-1.3966-.6574-2.1122-.1709-.6806-.3068-1.3705-.407-2.065,.0874,.6054-.0289-.3505-.0443-.5392-.0364-.4457-.059-.8927-.068-1.3398-.0137-.679,.0044-1.3586,.0521-2.0361,.0258-.366,.0625-.7302,.1035-1.0947,.0537-.4768-.0722,.4339,.0074-.0416,.0384-.2291,.074-.4586,.1163-.6871,.2943-1.5919,.7526-3.151,1.351-4.6548,.0252-.0634,.2209-.5135,.0437-.1084,.0789-.1803,.1607-.3596,.244-.5378,.1682-.3598,.3447-.7158,.5292-1.0675,.3758-.7166,.7849-1.416,1.2242-2.0954,1.0445-1.6153,2.0784-2.8454,3.582-4.3506,6.3786-6.3856,15.2511-10.2652,23.7293-12.9868,8.8071-2.8272,18.147-3.9632,27.1668-1.9172,7.9672,1.8072,15.4682,5.6225,21.766,10.8143,13.977,11.5223,21.5586,28.7397,23.8101,46.4626,2.5943,20.4209-1.8109,40.5113-6.2712,60.3381-4.195,18.6477-6.987,37.8098-15.5666,55.1121-4.0176,8.1023-9.1369,15.9384-15.8478,22.0733-3.0799,2.8156-6.6409,5.3003-10.5901,6.7233-1.881,.6777-3.8836,1.1639-5.6417,1.2797-1.7503,.1153-3.504,.0034-4.904-.2849-3.3061-.6809-6.2629-2.1415-8.5952-4.2581-2.4808-2.2513-4.1983-4.9526-5.0478-8.0767-.8952-3.2921-.6842-6.6918,.5107-10.1189,1.4907-4.2755,3.7816-8.3698,6.0196-12.2901,9.6997-16.9909,22.6491-31.9604,30.7531-49.8831,2.0544-4.5434,3.8274-9.209,5.1292-14.0251,.9891-3.6592-4.6843-5.2204-5.6726-1.5639Z"/></g><path d="M908.5578,288.8094c25.9552,43.0366,54.4365,88.6695,61.9,139.3144,6.9877,47.4162-10.1824,93.1025-35.1958,132.6481-23.5937,37.3009-52.1597,71.778-66.9772,113.9652-7.3987,21.0651-9.9337,42.8305-4.7401,64.7327,5.6648,23.8894,16.8398,45.785,30.5015,66.016,7.2485,10.734,14.9246,21.1798,21.8838,32.1082,5.956,9.353,14.6209,20.7906,13.3272,32.5121-.9368,8.4881-6.993,15.9377-14.955,18.9055-9.5607,3.5637-18.9777-.0973-25.6244-7.3537l.7564,2.8618c.4643-3.2146,1.7944-5.7396,4.5554-7.5683-1.4753-.8466-2.9506-1.6932-4.426-2.5398-.0285,20.2088-10.1345,39.7824-27.4233,50.5464-15.4644,9.6281-34.5678,12.249-52.4462,10.3232-8.5051-.9162-19.0862-2.5138-25.663-8.4811-7.9368-7.2013-4.1866-17.4892-.6758-25.9152,3.4811-8.3549,6.4708-16.3295,6.4454-25.5152-.0253-9.1405-2.2657-18.1999-5.3523-26.7521-6.1783-17.1188-15.7342-32.6513-24.0568-48.7516-9.5201-18.4168-16.3521-38.2605-20.13-58.648-3.9023-21.0587-4.395-42.8885-.9094-64.0418,3.0503-18.512,9.2328-36.6518,17.0777-53.6715,6.899-14.9674,15.5277-30.5774,30.0691-39.2946,.9629-.5772,2.4574-.9591,3.3067-1.6197-1.1655,.9067-.3344-2.12-1.0329,.7388-.9573,3.9181-1.7048,7.7494-3.6314,11.3533-4.2268,7.9067-10.7904,14.4382-16.8224,20.9662-14.3784,15.5605-26.796,33.1561-39.3707,50.1789-13.7903,18.6683-27.1924,37.6214-40.3133,56.7655-21.387,31.2048-43.4205,62.4541-61.5723,95.6881-13.5838,24.8706-26.7887,50.9383-46.3087,71.8014-8.8091,9.4152-19.3019,18.0054-31.8115,21.8408-5.8436,1.7917-11.9103,2.4406-18.0012,1.9203-7.7728-.664-18.7916-4.3819-20.2672-13.3594-.6931-4.2171,1.8934-9.7017,6.0958-11.1785,5.6147-1.9731,1.6512,5.9293-1.5558,7.0257-3.5003,1.1967-7.9941-.084-11.3634-1.1298-10.7891-3.3486-20.747-10.0172-29.4978-17.0101-9.8741-7.8906-19.0919-17.0669-26.0929-27.6368-5.2082-7.8632-10.7282-18.3372-8.1403-28.0744,3.8446-14.4661,21.4661-15.0029,33.6121-15.8098,7.8147-.5191,15.9925-1.2343,22.9619-5.1317,8.646-4.835,13.0942-14.4038,18.1376-22.4863,48.11-77.1005,104.0562-148.9691,161.5861-219.1939,14.3159-17.475,28.7452-34.8568,43.2085-52.2099,12.8685-15.4395,26.1209-30.6178,38.6337-46.3475,9.5902-12.0558,18.4189-25.044,22.2599-40.1671,4.4023-17.3331,1.8127-35.2225-2.8754-52.2045-5.6272-20.3835-14.3136-40.1285-17.0228-61.2361-.6193-4.8254-.9-9.7032-.7783-14.5676,.1257-5.0236-.1375-12.0507,2.3928-16.546,1.9345-3.4368,6.8539-3.54,9.5626-.8463,3.6982,3.6776,1.3848,10.2109-2.2979,12.916-5.1665,3.7951-13.197,3.2341-19.2021,2.7517-7.7517-.6227-15.4131-2.2458-22.9633-4.0568-16.4104-3.9364-32.8687-8.1774-48.6041-14.3202-21.0234-8.2071-40.506-19.5498-58.5855-33.0058-18.226-13.565-35.3624-28.5268-53.5539-42.1444-17.0407-12.7561-35.0625-23.9339-52.4689-36.1358-13.3416-9.3525-28.2756-21.2901-45.2162-22.3592-8.2362-.5198-15.673,3.0254-22.392,7.4572-3.9335,2.5944-7.6135,5.6285-11.6526,8.056-1.9196,1.1537-4.0253,2.1629-6.1675,.8062-2.7491-1.7411-2.4534-5.487,.0081-7.2894,3.0115-2.2051,.4588-6.8532-2.9692-5.0796-4.9665,2.5696-9.3989-3.9309-4.7897-7.3518,2.9899-2.2191,.4674-6.8576-2.9692-5.0796-4.9665,2.5696-9.3989-3.9309-4.7897-7.3518,2.9852-2.2156,.4592-6.8816-2.9692-5.0796-3.0578,1.6072-6.9264-.213-6.6348-3.9355,.2938-3.7505,5.9335-5.989,8.7579-7.8243,6.0498-3.931,12.0231-7.9782,18.046-11.9501,10.9205-7.2017,21.8682-15.2079,34.9709-17.645,23.7099-4.41,49.552,3.5146,70.4973,14.3089,25.3486,13.0635,47.2491,31.7195,69.9984,48.6764,23.0452,17.1775,47.1536,33.8034,74.335,43.7268,13.2326,4.8309,26.9062,7.1068,40.8396,8.8273,15.1091,1.8657,30.311,2.8898,45.5216,3.4347,12.6761,.4542,26.299-.8358,37.3356,6.5452,1.6473,1.1017,4.4094,2.8322,4.923,4.926,.5397,2.2003-2.0333,6.4286-2.7746,1.5329-.2882-1.9031,.715-4.9481,1.2305-7.4138,1.4838-7.0978,3.4517-14.3939,3.8658-21.6581,.1158-2.0314,.051-4.1913-1.8593-5.375-1.4505-.8988-3.6345-.9229-5.2556-1.5631-1.7751-.701-3.4821-1.6621-5.007-2.8126-13.0612-9.854-13.3644-30.6828-9.1408-44.9279,2.4427-8.2384,6.8598-15.6739,13.9451-20.7112,10.0454-7.1417,23.1459-9.9432,35.2156-7.3313,13.2094,2.8586,23.3939,11.488,24.9253,25.3634,1.3109,11.877-.7565,24.5157-1.6311,36.3947-.8177,11.1063-.6798,22.7179,7.1221,31.4955,7.8127,8.7896,18.5752,14.2129,28.4688,20.2426,11.4968,7.0068,20.3427,15.637,27.6573,26.9783,6.7583,10.4787,12.4669,21.8994,16.5426,33.6915,14.2614,41.2619,9.0446,88.8286-13.4969,126.1768-25.1764,41.7139-70.6473,63.6476-118.3625,66.3529-52.7765,2.9923-103.9937-14.4639-150.5952-37.7794-26.5839-13.3004-52.0658-28.6661-77.1969-44.5068-11.572-7.2941-22.881-15.6061-35.1262-21.7456-10.7208-5.3752-22.8098-8.1538-34.4376-3.9786-6.0566,2.1747-11.5568,5.5603-17.1778,8.634-2.5072,1.3709-5.7339,3.7698-8.6365,2.155-3.3591-1.8688-2.478-6.0834,.4394-7.7801,2.7827-1.6183,.9241-6.6216-2.2665-5.3761-5.4991,2.1467-9.4904-4.6456-4.143-7.8019,2.7647-1.6318,.9325-6.6249-2.2665-5.3761-5.4991,2.1467-9.4904-4.6456-4.143-7.8019,2.7623-1.6304,.9245-6.6456-2.2665-5.3761-6.1727,2.4557-9.0643-5.075-3.4626-8.1328,1.519-.8292,3.1302-1.5225,4.6862-2.2793,6.7792-3.2973,13.5584-6.5945,20.3376-9.8918,11.0362-5.3678,22.0723-10.7355,33.1085-16.1033,2.085-1.0141,1.7322-3.9764,0-5.0796-2.6427-1.6831-5.2855-3.3662-7.9282-5.0494-1.0375-.6608-2.1618-1.2676-3.1479-2.0049-1.1929-.8919-2.0778-1.913-2.5583-3.3484-.9425-2.8156-.1192-3.2173,2.357-4.173,12.3234-4.7559,27.1328,1.268,38.3245,6.5218,13.6735,6.4188,25.8145,15.4513,37.9055,24.3953,12.9049,9.5461,26.2274,18.4408,39.9234,26.8147,27.4629,16.7912,56.7853,31.2348,88.3176,38.4634,30.0613,6.8914,63.5015,7.5025,92.6008-3.8764,13.7222-5.3659,26.6062-13.8624,34.5187-26.5799,8.0705-12.9714,9.623-29.5872,2.3025-43.2183-1.7919-3.3365-6.8724-.3691-5.0796,2.9692,7.3361,13.6602,3.8471,30.3544-5.6818,42.0201-9.5478,11.6888-23.563,18.5323-37.848,22.5388-31.6891,8.8878-65.6289,5.5533-96.659-4.2891-31.4959-9.9901-60.2918-26.6731-87.7792-44.7262-24.3143-15.9692-46.2936-36.7734-74.5998-45.591-6.8799-2.1431-14.2757-3.5255-21.4852-2.5967-3.2261,.4156-6.3532,1.2818-9.2663,2.7497-3.2426,1.634-4.2648,3.7291-4.0739,7.3908,.4463,8.5626,10.6306,12.6837,16.8879,16.6689v-5.0796c-9.6383,4.6879-19.2766,9.3758-28.9149,14.0636-9.8233,4.7779-20.1642,9.0465-29.6726,14.4321-11.1236,6.3005-3.6367,23.4724,8.4508,18.6637-.7555-1.792-1.511-3.5841-2.2665-5.3761-10.938,6.456-3.3493,23.2484,8.676,18.5541-.7555-1.792-1.511-3.5841-2.2665-5.3761-10.938,6.456-3.3493,23.2484,8.676,18.5541-.7555-1.792-1.511-3.5841-2.2665-5.3761-9.7574,5.6746-5.0655,21.0059,6.4773,19.1448,6.3372-1.0218,12.4386-6.2378,18.1108-9.0649,7.3503-3.6634,14.9428-5.1957,23.0604-3.4226,14.0403,3.0668,26.2203,12.8488,38.1188,20.4104,14.3167,9.0984,28.6949,18.1051,43.3097,26.7188,50.7235,29.8953,105.8544,56.5196,165.308,61.6494,51.8307,4.4721,107.0214-9.3821,141.6451-50.452,30.5183-36.2002,41.8501-87.0318,31.6912-133.0579-2.6377-11.9505-6.8803-23.3799-12.2825-34.3462-6.2197-12.6259-13.7573-25.4669-24.2502-35.0472-9.72-8.8746-21.9178-14.1422-32.5789-21.6864-5.4484-3.8555-11.2481-8.6183-13.5758-15.0841-2.2132-6.1479-1.9112-12.9202-1.4751-19.3341,.8898-13.0876,3.3401-27.0284,1.4225-40.0768-1.9521-13.283-10.9538-22.591-23.3668-27.0497-21.2115-7.6191-48.173,.9119-58.4523,21.5886-7.623,15.3336-8.9776,36.4404,.099,51.4975,2.0577,3.4135,4.7104,6.4539,7.918,8.8277,1.6291,1.2056,3.3564,2.1974,5.2139,3.0086,.882,.3851,1.7766,.7415,2.6923,1.0387,.3413,.1108,1.2253,.4839,1.6475,.4729,2.1405-.0557-1.2545,.6273,.0179-1.1545-.2543,.3561-.1496,2.6-.2329,3.2962-.2444,2.0408-.6275,4.0703-1.0027,6.0903-.8057,4.338-1.7325,8.6521-2.6318,12.9713-.5597,2.6881-1.3353,5.4727-1.2862,8.2396,.078,4.3926,3.2417,9.5647,8.3064,8.237,3.9162-1.0267,6.6804-5.912,6.3116-9.786-.4583-4.8138-5.0692-8.245-8.8499-10.5846-11.6463-7.207-25.3659-6.2691-38.5397-6.7247-17.1556-.5933-34.3192-1.7683-51.3312-4.111-15.9599-2.1978-31.1072-6.0155-45.8216-12.6842-14.6083-6.6206-28.2915-15.0655-41.5004-24.1206-26.199-17.9603-50.1042-39.3112-77.2648-55.8562-22.8194-13.9005-49.6175-24.3747-76.7687-23.2419-13.5188,.564-24.4888,5.0629-35.8543,12.1161-6.801,4.2206-13.4481,8.6818-20.1096,13.1173-3.3321,2.2186-6.6668,4.4334-10.0266,6.6099-2.8674,1.8575-6.4109,3.4631-8.6193,6.133-7.4833,9.0467,3.2882,20.5113,13.1041,15.3521-.9897-1.6932-1.9794-3.3864-2.9692-5.0796-10.585,7.8562-1.0984,23.6299,10.728,17.5111-.9897-1.6932-1.9794-3.3864-2.9692-5.0796-10.585,7.8562-1.0984,23.6299,10.728,17.5111-.9897-1.6932-1.9794-3.3864-2.9692-5.0796-6.4474,4.721-6.6557,15.1213,1.617,18.2108,3.7541,1.402,7.2059,.4739,10.4807-1.5684,4.8062-2.9972,9.1955-6.6197,14.0308-9.578,9.3957-5.7484,18.068-6.3273,28.2491-2.3663,9.0587,3.5243,17.2543,9.1547,25.1881,14.6803,18.7303,13.045,38.0456,25.1689,56.3798,38.7956,20.1669,14.9888,39.0032,31.6971,59.3585,46.4304,34.0217,24.6252,73.3364,39.1728,114.3567,47.1965,12.2774,2.4015,33.8069,6.8354,41.7896-6.3747,4.2428-7.0212,2.5232-17.0339-5.7739-19.9894-8.147-2.902-14.3521,2.3009-15.9247,10.0951-4.5379,22.4902,1.6435,45.027,8.5542,66.3233,6.7194,20.7068,14.6727,42.1071,12.5822,64.2518-1.6796,17.7925-10.9566,33.0367-21.7898,46.7811-13.5006,17.1286-27.9487,33.5656-41.9076,50.3216-63.922,76.7309-127.3388,154.2522-182.59,237.5715-6.7139,10.1246-13.3019,20.3328-19.7451,30.6319-5.9192,9.4616-10.7352,20.5209-22.2604,23.9258-15.7938,4.6659-35.7947-.9439-48.3255,12.4045-17.7431,18.9008,4.5528,46.9492,18.2764,60.6397,9.6063,9.5831,20.6476,18.2304,32.7504,24.4383,7.9738,4.09,21.4134,10.279,29.6947,3.7388,4.4557-3.5189,8.3342-15.0257,.0627-16.6515-8.012-1.5749-14.7118,6.0409-15.872,13.3065-2.9384,18.402,21.0249,24.4368,34.7882,23.1532,29.7409-2.7736,50.7422-29.2531,65.9146-52.4421,8.6772-13.2619,16.2784-27.1823,23.8482-41.0937,7.5773-13.9253,15.6164-27.3181,24.2683-40.6095,27.7053-42.5622,56.2019-84.6404,86.6474-125.3007,8.0295-10.7235,16.1173-21.433,24.5299-31.8602,5.9195-7.337,12.8347-13.8049,18.724-21.1718,5.41-6.7673,9.6314-14.0431,10.8705-22.7575,.7454-5.2423-1.94-9.1184-7.4554-7.1206-6.9995,2.5355-13.4224,8.6447-18.1291,14.2113-6.231,7.3693-11.1469,15.7811-15.3981,24.4151-8.7739,17.8193-15.7562,37.1212-19.3283,56.6763-8.082,44.2439,.5826,90.4409,21.1164,130.1905,9.4451,18.2839,20.8784,35.9985,26.219,56.0739,2.5828,9.7087,3.5124,19.9735,.3866,29.6726-3.0165,9.3599-9.2559,18.5592-8.5679,28.7696,1.3572,20.1406,27.4626,23.7057,43.2114,24.3173,19.0172,.7385,39.0328-3.7402,54.2395-15.6273,15.7236-12.2912,24.618-31.7917,24.6459-51.6296,.003-2.1355-2.5354-3.792-4.426-2.5398-3.537,2.3427-7.8601,7.1581-7.3639,11.866,.3972,3.769,6.592,7.4991,9.6053,9.1357,7.1996,3.9101,15.8102,4.5082,23.4425,1.4886,16.3944-6.486,22.5436-24.9499,15.2424-40.5242-10.7735-22.9812-27.8711-42.4548-41.0267-64.0239-13.6819-22.4319-25.1407-49.887-24.4442-76.5791,.6219-23.8366,10.1719-46.8224,21.1894-67.5985,11.1527-21.0312,24.6171-40.7114,38.1323-60.2688,27.7578-40.1674,51.966-84.1732,52.1414-134.3476,.1868-53.4308-27.4073-103.2333-53.9347-147.8988-3.4302-5.7755-6.8976-11.5287-10.3667-17.2809-1.9529-3.2381-7.0417-.2842-5.0796,2.9692h0Z"/><path d="M412.7921,123.8775c7.5931-4.5865,15.1861-9.173,22.7792-13.7594,1.0874-.6568,2.1748-1.3137,3.2622-1.9705,3.2366-1.955,.283-7.044-2.9692-5.0796-7.5931,4.5865-15.1861,9.173-22.7792,13.7594-1.0874,.6568-2.1748,1.3137-3.2622,1.9705-3.2366,1.955-.283,7.044,2.9692,5.0796h0Z"/><path d="M419.8014,136.8445c7.5931-4.5865,15.1861-9.173,22.7792-13.7594,1.0874-.6568,2.1748-1.3137,3.2622-1.9705,3.2366-1.955,.283-7.044-2.9692-5.0796-7.5931,4.5865-15.1861,9.173-22.7792,13.7594-1.0874,.6568-2.1748,1.3137-3.2622,1.9705-3.2366,1.955-.283,7.044,2.9692,5.0796h0Z"/><path d="M426.9573,149.1781c7.5931-4.5865,15.1861-9.173,22.7792-13.7594,1.0874-.6568,2.1748-1.3137,3.2622-1.9705,3.2366-1.955,.283-7.044-2.9692-5.0796-7.5931,4.5865-15.1861,9.173-22.7792,13.7594-1.0874,.6568-2.1748,1.3137-3.2622,1.9705-3.2366,1.955-.283,7.044,2.9692,5.0796h0Z"/><path d="M811.501,157.3727c4.5918-.4475,8.6549-2.7713,11.3763-6.4947,.6075-.8311,.1676-2.2227-.7035-2.6829-1.02-.5389-2.0345-.1836-2.6829,.7035-.0333,.0455-.2925,.381-.1157,.1593,.1604-.2011-.0493,.057-.0791,.0932-.1422,.1726-.2888,.3417-.4396,.5069-.3016,.3303-.6204,.6451-.9537,.9434-.1667,.1492-.3373,.2941-.5111,.4348-.0578,.0471-.1161,.0937-.1749,.1395l.16-.1253c-.0283,.0601-.1858,.1368-.2408,.1762-.3844,.2749-.7829,.5298-1.1934,.7639-.3889,.2218-.7884,.4248-1.1969,.6079-.0457,.0205-.3539,.1423-.1084,.0485,.2716-.1038-.1273,.0466-.1814,.0671-.2093,.0791-.4205,.153-.6334,.2217-.4257,.1375-.8581,.2538-1.2955,.3479-.2189,.0471-.4392,.0841-.6593,.1246-.3067,.0565,.0253-.0481,.0784-.006-.0288-.0228-.4031,.0445-.445,.0486-1.0179,.0992-2.0115,.8308-1.9609,1.9609,.0438,.9772,.8676,2.0675,1.9609,1.9609h0Z"/><path d="M463.1003,84.9505c-1.5144,1.8876-3.0288,3.7753-4.5432,5.6629-1.6201,2.0194-3.4716,3.9971-4.8804,6.1773-2.9253,4.5268-1.9299,10.9554,2.2397,14.37,4.4673,3.6583,11.3516,3.4888,15.3049-.9236,2.0832-2.3251,3.8292-4.9169,6.0022-7.1795,.8941-.931,2.0006-2.0153,2.9085-2.7112,.2818-.216,.9089-.6364,1.3549-.8839,.1983-.11,.3984-.2193,.6065-.3101-.6012,.2626,.3147-.0619,.4458-.0925,3.685-.8612,2.1251-6.5347-1.5639-5.6726-2.2002,.5142-4.0957,1.9801-5.7605,3.4378-1.8474,1.6176-3.4935,3.4653-5.0582,5.3529-1.3805,1.6653-2.6809,3.9661-4.3621,4.9746-1.4944,.8965-3.308,1.0368-4.8729,.3043s-2.481-1.9572-2.87-3.3601c-.0698-.2518-.1317-.508-.1721-.7664-.0861-.5508,.0021,.6512-.0152-.3114-.0076-.4193-.0163-.8449,.0452-1.2612-.078,.5281,.143-.4876,.1377-.4685,.057-.2054,.1197-.4157,.1969-.6138-.1218,.3126,.0856-.1765,.095-.1953,.1759-.3527,.4084-.663,.6065-1.0004,.291-.4956-.3183,.3942-.0943,.1118,.0745-.094,.1497-.1874,.2251-.2806,.2913-.3601,.5797-.7226,.8695-1.0838,.8722-1.0872,1.7445-2.1744,2.6167-3.2616,1.5658-1.9518,3.1316-3.9035,4.6975-5.8553,.9932-1.238,1.2095-2.9502,0-4.1598-1.0287-1.0287-3.1605-1.2456-4.1598,0h0Z"/><g><path d="M25,859.1673c0,32.1287,62.0409,58.1742,138.5721,58.1742s138.5721-26.0455,138.5721-58.1742v-30.0675H25v30.0675Z" style="fill:#f953b2;"/><ellipse cx="163.5721" cy="829.0997" rx="138.5721" ry="58.1742" style="fill:#f4d13b;"/></g><g><path d="M25,800.9931c0,32.1287,62.0409,58.1742,138.5721,58.1742s138.5721-26.0455,138.5721-58.1742v-30.0675H25v30.0675Z" style="fill:#f953b2;"/><ellipse cx="163.5721" cy="770.9256" rx="138.5721" ry="58.1742" style="fill:#f4d13b;"/></g><g><path d="M25,744.7799c0,32.1287,62.0409,58.1742,138.5721,58.1742s138.5721-26.0455,138.5721-58.1742v-30.0675H25v30.0675Z" style="fill:#f953b2;"/><ellipse cx="163.5721" cy="714.7123" rx="138.5721" ry="58.1742" style="fill:#f4d13b;"/></g><g><path d="M25,686.6057c0,32.1287,62.0409,58.1742,138.5721,58.1742s138.5721-26.0455,138.5721-58.1742v-30.0675H25v30.0675Z" style="fill:#f953b2;"/><ellipse cx="163.5721" cy="656.5382" rx="138.5721" ry="58.1742" style="fill:#f4d13b;"/></g><g><path d="M25,632.3534c0,32.1287,62.0409,58.1742,138.5721,58.1742s138.5721-26.0455,138.5721-58.1742v-30.0675H25v30.0675Z" style="fill:#f953b2;"/><ellipse cx="163.5721" cy="602.2859" rx="138.5721" ry="58.1742" style="fill:#f4d13b;"/></g><g><path d="M25,574.1793c0,32.1287,62.0409,58.1742,138.5721,58.1742s138.5721-26.0455,138.5721-58.1742v-30.0675H25v30.0675Z" style="fill:#f953b2;"/><ellipse cx="163.5721" cy="544.1117" rx="138.5721" ry="58.1742" style="fill:#f4d13b;"/></g><path d="M487.6304,819.5502c2.5902,6.6204,9.6852,10.129,16.5907,8.8943,7.0041-1.2524,11.2255-8.3542,10.4198-15.1578-.4873-4.1152-2.3746-7.621-5.7299-10.0871-.4949,1.8271-.9897,3.6541-1.4846,5.4812,7.1819,.6251,14.006-4.2385,16.2411-10.9776,.5-1.5076-.5791-3.2129-2.0544-3.6183-1.6014-.44-3.1164,.5412-3.6183,2.0544-1.4536,4.3827-6.0516,7.0518-10.5684,6.6587-1.269-.1104-2.5156,.9922-2.8363,2.1595-.3697,1.3456,.289,2.5406,1.3517,3.3217-.2915-.2142,.4841,.434,.5691,.5178,.0773,.0763,.7753,.86,.5255,.54,.486,.6225,.8995,1.3497,1.2033,2.078-.1821-.4366,.1208,.3926,.1322,.4281,.124,.3857,.2282,.7777,.3131,1.1737,.0426,.1987,.0803,.3983,.1131,.5988-.032-.2787-.0285-.2366,.0103,.1263,.0363,.4059,.0541,.8133,.0521,1.2208-.0018,.3569-.0216,.712-.0508,1.0676-.0226,.2111-.0174,.2028,.0156-.0248-.0301,.2008-.0652,.4006-.1051,.5997-.0797,.3967-.1788,.7896-.298,1.1763-.0328,.1065-.4172,1.0993-.2408,.7071-.2849,.6338-.6395,1.2583-1.0609,1.8126,.2433-.32-.4401,.4696-.519,.5483-.0833,.0832-.8631,.7463-.5636,.5242-1.2195,.9045-2.0316,1.2254-3.6737,1.4465,.5327-.0717-.5939,.0185-.7008,.0207-.4,.0084-.7973-.01-1.1963-.0346-.6773-.0417,.203,.0616-.4098-.0458-.3954-.0693-.7875-.1574-1.1746-.2636s-.77-.2295-1.145-.3727c-.3307-.1285-.3737-.1459-.1291-.0525-.1817-.084-.3613-.1723-.5387-.2649-.3537-.1847-.6987-.3864-1.0325-.6051,.0006,.0004-.73-.53-.3669-.2426-.3095-.245-.6019-.5159-.8794-.7963-.0742-.075-.7698-.872-.5037-.5266-.2405-.3123-.453-.6517-.6472-.9943-.0564-.0995-.4927-1.0525-.3373-.6554-.5784-1.4785-1.9723-2.5067-3.6183-2.0544-1.41,.3875-2.6364,2.1306-2.0544,3.6183h0Z"/><path d="M796.2513,846.9251c3.5497-2.3163,8.826-1.1451,10.8829,2.7225,1.88,3.5351-.4794,8.9736-4.3423,10.243-3.1154,1.0237-2.6169,5.7067,.7819,5.7777,4.3327,.0906,8.7079,3.96,8.9598,8.3177,.2696,4.6652-3.2506,8.9054-7.9675,9.7135-1.5669,.2684-2.4454,2.1955-2.0544,3.6183,.4555,1.6576,2.0468,2.3236,3.6183,2.0544,7.1181-1.2194,12.9232-8.4739,12.2604-15.735-.6902-7.5613-7.2039-13.6925-14.8166-13.8516,.2606,1.9259,.5213,3.8518,.7819,5.7777,7.4584-2.4509,11.4859-11.4772,7.9995-18.6032-3.3021-6.7495-12.849-9.176-19.0732-5.1146-1.329,.8672-1.8852,2.6054-1.0552,4.0244,.773,1.3216,2.6883,1.9271,4.0244,1.0552h0Z"/><g><path d="M826.9922,257.6484c-5.7682-.2104-11.6741,2.0046-15.5588,6.2737-3.8847,4.2691-5.5269,10.595-3.7917,16.1,1.7352,5.505,6.9705,9.8436,12.7361,10.1157,5.0027,.2361,9.705-2.3525,13.7051-5.3661,3.3231-2.5037,6.4318-5.4196,8.4639-9.0503,2.0321-3.6307,2.889-8.0669,1.6027-12.0238"/><path d="M826.9922,254.707c-6.786-.1827-13.912,2.5209-18.2643,7.866-4.2827,5.2596-6.1208,12.7892-3.5569,19.2489,2.4526,6.1793,8.1507,10.72,14.8471,11.2351,7.183,.5525,13.9419-4.0186,19.0542-8.5782,5.9825-5.3357,10.4083-13.4076,7.9134-21.5632-1.1043-3.6098-6.7845-2.0706-5.6726,1.5639,1.6467,5.3831-1.1448,10.6397-4.8855,14.4071-3.6557,3.6818-8.6776,7.5863-13.9839,8.2512-4.5519,.5704-8.8663-1.9493-11.1167-5.9583-2.3536-4.1928-1.6609-9.5762,1.0004-13.642,3.1568-4.8229,9.068-7.0983,14.6648-6.9476,3.7869,.1019,3.7844-5.7809,0-5.8828h0Z"/></g><g><path d="M25,516.0051c0,32.1287,62.0409,58.1742,138.5721,58.1742s138.5721-26.0455,138.5721-58.1742v-30.0675H25v30.0675Z" style="fill:#f953b2;"/><ellipse cx="163.5721" cy="485.9376" rx="138.5721" ry="58.1742" style="fill:#f4d13b;"/><ellipse cx="163.5721" cy="485.9376" rx="104.3184" ry="43.794" style="fill:#fff;"/><g><path d="M136.3115,464.5928c-24.5317-.0912-41.2484,9.6351-38.5632,19.2233,1.404,5.0135,7.105,9.5619,16.9442,12.698,8.8472,2.8199,20.9369,3.8471,31.5842,2.5884,10.7162-1.2668,19.6116-4.5463,24.2201-8.6895,2.6675-2.3981,4.1611-4.9248,4.3421-7.5866,.0528-.7769,.0581-1.5495,.1773-2.3254,.1653-1.0759-.206,.3869,.0568-.2392,.1154-.2749,.2415-.5484,.3907-.8203,.2932-.5343,.6563-1.0618,1.0891-1.5789-.0337,.0403,.8729-.9494,.4074-.4833-.4597,.4603,.5625-.4828,.5245-.4516,.5143-.4214,1.078-.8319,1.6914-1.2298,.2678-.1737,2.1544-1.2131,1.0645-.6704,.9394-.4677,1.9578-.9093,3.0481-1.318,.4336-.1625,2.4744-.8036,1.0811-.4019,.9857-.2842,2.0046-.5479,3.0676-.7816,.4226-.0929,.8667-.1716,1.2871-.2657,1.9928-.4465-1.5724,.1648,.6044-.1091,1.1569-.1456,2.3013-.2932,3.4919-.3916,.0103-.0009,2.3692-.159,1.0245-.0847-1.3426,.0742,1.0519-.0191,1.0672-.0193,1.1305-.0152,2.245,.0182,3.3745,.0424,.5089,.0109,2.1119,.1595,.2797,0,.4807,.0419,.9607,.0808,1.438,.1293,1.4177,.1441,2.8132,.335,4.1599,.5709-1.652-.2894,.666,.1669,1.2081,.2968,1.0588,.2538,2.0721,.5365,3.0524,.8392-1.433-.4426,1.2055,.4721,1.605,.6379,.8831,.3666,1.7144,.7544,2.4911,1.1594-1.035-.5398,.0003,.0095,.2249,.1578,.4755,.3141,.9717,.6206,1.4144,.9431,.6389,.4655,1.2279,.9459,1.7308,1.4382-.6318-.6187,.0028,.0523,.1343,.2099,.2605,.3122,.4958,.6271,.7066,.9453,.3934,.5935,.7048,1.1961,.9221,1.8035-.2242-.6268-.0252-.0455-.0126,.0731,.043,.4049,.1232,.8073,.1301,1.2128,.0108,.6358-.0709,1.2695-.2407,1.9,.1672-.6209,.0202-.0539-.0404,.065-.1664,.3262-.3129,.6535-.5085,.9769-.3845,.6356-.8829,1.2523-1.4474,1.863,.5307-.5741,.0886-.0711-.0499,.0429-.3439,.2831-.6802,.567-1.055,.8434-.7383,.5444-1.5677,1.0643-2.4701,1.5642,.212-.1174,1.0366-.4683-.0484,.0114-.5035,.2226-.9855,.4522-1.5079,.6676-.4317,.178-.8767,.35-1.3335,.517-.2928,.1071-2.3492,.7463-.808,.3019-.9855,.2842-2.0047,.5479-3.0676,.7816-.5302,.1166-1.0738,.2195-1.6149,.327-.5674,.1026-.4336,.0849,.4014-.053-.3369,.0529-.6771,.1021-1.0206,.1476-1.2854,.1555-2.5552,.2864-3.8665,.3999-1.5926,.1379-.2489,.0242,.1082,.0121-.9945,.0339-1.9852,.0435-2.9844,.0398-4.5084-.0168-8.8488,1.5275-8.6564,3.4607,.189,1.899,3.7567,3.6052,8.5897,3.6232,24.5317,.0912,41.2484-9.6351,38.5632-19.2233-1.404-5.0135-7.105-9.5619-16.9442-12.698-8.8472-2.8199-20.9369-3.8471-31.5842-2.5884-10.7162,1.2668-19.6116,4.5463-24.2201,8.6895-2.6675,2.3981-4.1611,4.9248-4.3421,7.5866-.0528,.7769-.0581,1.5495-.1773,2.3254-.1653,1.0759,.206-.3869-.0568,.2392-.1154,.2749-.2415,.5484-.3907,.8203-.2932,.5343-.6563,1.0618-1.0891,1.5789,.0337-.0403-.8729,.9494-.4074,.4833,.4597-.4603-.5625,.4828-.5245,.4516-.5143,.4214-1.078,.8319-1.6914,1.2298-.2678,.1737-2.1544,1.2131-1.0645,.6704-.9394,.4677-1.9578,.9093-3.0481,1.318-.4336,.1625-2.4744,.8036-1.0811,.4019-.9857,.2842-2.0046,.5479-3.0676,.7816-.4226,.0929-.8667,.1716-1.2871,.2657-1.9928,.4465,1.5724-.1648-.6044,.1091-1.1569,.1456-2.3013,.2932-3.4919,.3916-.0103,.0009-2.3692,.159-1.0245,.0847,1.3426-.0742-1.0519,.0191-1.0672,.0193-1.1305,.0152-2.245-.0182-3.3745-.0424-.5089-.0109-2.1119-.1595-.2797,0-.4807-.0419-.9607-.0808-1.438-.1293-1.4177-.1441-2.8132-.335-4.1599-.5709,1.652,.2894-.666-.1669-1.2081-.2968-1.0588-.2538-2.0721-.5365-3.0524-.8392,1.433,.4426-1.2055-.4721-1.605-.6379-.8831-.3666-1.7144-.7544-2.4911-1.1594,1.035,.5398-.0003-.0095-.2249-.1578-.4755-.3141-.9717-.6206-1.4144-.9431-.6389-.4655-1.2279-.9459-1.7308-1.4382,.6318,.6187-.0028-.0523-.1343-.2099-.2605-.3122-.4958-.6271-.7066-.9453-.3934-.5935-.7048-1.1961-.9221-1.8035,.2242,.6268,.0252,.0455,.0126-.0731-.043-.4049-.1232-.8073-.1301-1.2128-.0108-.6358,.0709-1.2695,.2407-1.9-.1672,.6209-.0202,.0539,.0404-.065,.1664-.3262,.3129-.6535,.5085-.9769,.3845-.6356,.8829-1.2523,1.4474-1.863-.5307,.5741-.0886,.0711,.0499-.0429,.3439-.2831,.6802-.567,1.055-.8434,.7383-.5444,1.5677-1.0643,2.4701-1.5642-.212,.1174-1.0366,.4683,.0484-.0114,.5035-.2226,.9855-.4522,1.5079-.6676,.4317-.178,.8767-.35,1.3335-.517,.2928-.1071,2.3492-.7463,.808-.3019,.9855-.2842,2.0047-.5479,3.0676-.7816,.5302-.1166,1.0738-.2195,1.6149-.327,.5674-.1026,.4336-.0849-.4014,.053,.3369-.0529,.6771-.1021,1.0206-.1476,1.2854-.1555,2.5552-.2864,3.8665-.3999,1.5926-.1379,.2489-.0242-.1082-.0121,.9945-.0339,1.9852-.0435,2.9844-.0398,4.5084,.0168,8.8488-1.5275,8.6564-3.4607-.189-1.899-3.7567-3.6052-8.5897-3.6232h0Z" style="fill:#f953b2;"/><path d="M106.1006,478.0059c-5.327-.0502-10.654-.1003-15.981-.1505-4.5105-.0425-8.847,1.546-8.6564,3.4607,.1912,1.921,3.7555,3.5776,8.5897,3.6232,5.327,.0502,10.654,.1003,15.981,.1505,4.5105,.0425,8.847-1.546,8.6564-3.4607-.1912-1.921-3.7555-3.5776-8.5897-3.6232h0Z" style="fill:#f953b2;"/><path d="M244.7593,479.3119c-5.327-.0502-10.654-.1003-15.981-.1505-4.5105-.0425-8.847,1.546-8.6564,3.4607,.1912,1.921,3.7555,3.5776,8.5897,3.6232,5.327,.0502,10.654,.1003,15.981,.1505,4.5105,.0425,8.847-1.546,8.6564-3.4607-.1912-1.921-3.7555-3.5776-8.5897-3.6232h0Z" style="fill:#f953b2;"/></g></g><path d="M245.9311,88.1963c0,24.1299-16.2484,44.4512-38.3963,50.6573,22.1479,6.2061,38.3963,26.5274,38.3963,50.6573,0-24.1299,16.2484-44.4512,38.3963-50.6573-22.1479-6.2061-38.3963-26.5274-38.3963-50.6573Z" style="fill:#6966ed;"/><path d="M197.5813,188.8572c0,17.9806-12.1077,33.1233-28.6114,37.7478,16.5037,4.6245,28.6114,19.7672,28.6114,37.7478,0-17.9806,12.1077-33.1233,28.6114-37.7478-16.5037-4.6245-28.6114-19.7672-28.6114-37.7478Z" style="fill:#6966ed;"/></g><path d="M382.8482,452.3606c1.4322-6.6835,2.8643-13.3669,4.2965-20.0504,.3326-1.5519-.4607-3.1804-2.0544-3.6183-1.4658-.4028-3.2839,.494-3.6183,2.0544-1.4322,6.6835-2.8643,13.3669-4.2965,20.0504-.3326,1.5519,.4607,3.1804,2.0544,3.6183,1.4658,.4028,3.2839-.494,3.6183-2.0544h0Z" style="fill:#6966ed;"/><path d="M430.1659,435.1746c.9548,2.3869,1.9096,4.7739,2.8643,7.1608,.2951,.7378,.6401,1.3414,1.3517,1.7579,.6305,.3689,1.5597,.5253,2.2665,.2965,.7117-.2303,1.3984-.6714,1.7579-1.3517,.3459-.6547,.5844-1.5468,.2965-2.2665-.9548-2.3869-1.9096-4.7739-2.8643-7.1608-.2951-.7378-.6401-1.3414-1.3517-1.7579-.6305-.3689-1.5597-.5253-2.2665-.2965-.7117,.2303-1.3984,.6714-1.7579,1.3517-.3459,.6547-.5844,1.5468-.2965,2.2665h0Z" style="fill:#6966ed;"/><path d="M457.7822,414.3114c4.7642,6.2135,9.5283,12.4271,14.2925,18.6406,.9329,1.2167,2.5741,1.9903,4.0244,1.0552,1.202-.775,2.0566-2.7183,1.0552-4.0244-4.7642-6.2135-9.5283-12.4271-14.2925-18.6406-.9329-1.2167-2.5741-1.9903-4.0244-1.0552-1.202,.775-2.0566,2.7183-1.0552,4.0244h0Z" style="fill:#6966ed;"/></svg>