<?xml version="1.0" encoding="UTF-8"?><svg id="Layer_2" xmlns="http://www.w3.org/2000/svg" width="1000" height="1000" viewBox="0 0 1000 1000"><g><path d="M38.8096,973.9204s114.0547-214.0719,422.8797-153.8276c166.6953,33.3391,456.8037,136.2807,499.5011,136.2807-122.2432,25.1505-922.3808,17.5469-922.3808,17.5469Z" style="fill:#f953b2;"/><path d="M332.4273,883.8464c15.8892,.0426,30.4512-3.8935,42.6931-8.361,20.817-7.5968,30.7175-31.4153,21.3151-51.4816-117.1312-249.9766,4.6879-599.7682,4.6879-599.7682,0,0,34.5093-19.4964-21.6407-7.2136-173.638,261.4906-101.8231,557.1425-89.7678,624.7642,0,0,4.8378,41.9584,42.7124,42.06Z" style="fill:#f4d13b;"/><g><path d="M295.2461,832.3245c23.5375,6.1338,49.3954,1.7731,69.9202-11.1828,5.7199-3.6106,11.0252-7.8907,15.7362-12.7449,1.7644-1.8181-1.0148-4.6034-2.7822-2.7822-16.1528,16.6437-39.2763,25.8269-62.4059,25.5267-6.5628-.0852-13.0713-.9559-19.4223-2.6109-2.4522-.639-3.4983,3.1551-1.046,3.7941h0Z" style="fill:#fff;"/><path d="M283.4421,773.9072c22.5732,5.8802,47.361,1.7271,67.0711-10.6564,5.5559-3.4906,10.7075-7.6379,15.2778-12.3462,1.7646-1.8179-1.0146-4.6032-2.7822-2.7822-15.5036,15.9717-37.6892,24.7841-59.8877,24.4956-6.2967-.0818-12.5392-.9176-18.633-2.505-2.4522-.6388-3.4983,3.1553-1.046,3.7941h0Z" style="fill:#fff;"/><path d="M272.8141,697.0523c20.0442,7.1891,42.874,5.3087,61.7852-4.3186,5.3492-2.7232,10.3379-6.1031,14.8881-10.0156,1.9232-1.6536-.8705-4.426-2.7822-2.7822-15.3186,13.1715-36.1573,19.2141-56.1733,17.1547-5.6869-.5851-11.293-1.9033-16.6718-3.8324-2.3877-.8564-3.4158,2.9441-1.046,3.7941h0Z" style="fill:#fff;"/><path d="M269.3415,645.3725c19.2002,9.053,42.0065,9.6683,61.764,1.9453,5.6428-2.2057,11.0099-5.0317,15.9642-8.5229,2.054-1.4473,.0903-4.8605-1.9859-3.3975-16.5031,11.629-37.7624,15.8971-57.529,11.9082-5.5955-1.1292-11.0629-2.8956-16.2274-5.3307-2.2776-1.0739-4.2771,2.3171-1.9859,3.3975h0Z" style="fill:#fff;"/><path d="M269.2851,587.7413c17.386,10.2672,38.9914,12.7083,58.3445,7.1055,5.459-1.5804,10.7363-3.8161,15.6663-6.6427,2.1963-1.2592,.2167-4.6603-1.9859-3.3975-16.5725,9.5017-36.9592,11.5223-55.206,6.036-5.1967-1.5625-10.1607-3.7395-14.8331-6.4987-2.1852-1.2905-4.1671,2.1094-1.9859,3.3975h0Z" style="fill:#fff;"/><path d="M278.3391,521.295c13.8821,8.1832,31.1082,10.1496,46.5608,5.6834,4.3713-1.2634,8.5973-3.0567,12.546-5.3164,2.1973-1.2575,.2176-4.6585-1.9859-3.3975-13.0443,7.4652-29.0417,9.0614-43.4049,4.7646-4.1135-1.2306-8.0319-2.9516-11.7301-5.1316-2.1862-1.2887-4.1682,2.1111-1.9859,3.3975h0Z" style="fill:#fff;"/><path d="M286.8642,464.8981c13.8821,8.1832,31.1082,10.1496,46.5608,5.6834,4.3713-1.2634,8.5973-3.0567,12.546-5.3164,2.1973-1.2575,.2176-4.6585-1.9859-3.3975-13.0443,7.4652-29.0417,9.0614-43.4049,4.7646-4.1135-1.2306-8.0319-2.9516-11.7301-5.1316-2.1862-1.2887-4.1682,2.1111-1.9859,3.3975h0Z" style="fill:#fff;"/></g><path d="M401.0325,556.2751c.4931,2.946,2.8412,4.5629,5.7407,4.5956,2.7196,.0306,5.1839-1.1742,7.778-1.7835,.7768-.1824,2.0726-.4939,2.6578,.0419,.0888,.0944,.1101,.1128,.0638,.0549,.0018-.1296,.0239-.073,.0664,.1698,.006-.0498-.1395,.2688-.1473,.283-.2606,.4745-.5435,.9418-.8498,1.3897-1.2694,1.8561-3.074,3.2598-5.087,4.2265-.9577,.4599-1.2111,1.8278-.7058,2.6917,.5726,.979,1.7304,1.1674,2.6917,.7058,2.4777-1.1898,4.5796-3.0102,6.201-5.22,.855-1.1653,1.7748-2.5945,1.8014-4.0885,.0285-1.6007-.9353-3.036-2.3234-3.7853-2.8233-1.5239-6.2257-.0169-9.0186,.8145-1.1168,.3324-2.5377,.6975-3.5549,.5539-.408-.0576-.8443-.1843-1.0289-.351-.3445-.3111-.4063-.8389-.491-1.3449-.1755-1.0487-1.4713-1.6348-2.4201-1.3741-1.1118,.3055-1.5501,1.3683-1.3741,2.4201h0Z"/><path d="M720.4671,671.1124c-3.9202,3.4893-8.037,6.9773-12.9022,9.083-2.2559,.9764-4.7121,1.6454-7.1715,1.8097-2.5401,.1697-7.6136-.0201-9.3543-2.3332-1.1387-1.5131-.6423-.5727-.0665-.9752,.4527-.3165,1.524-.3,2.0412-.2719,1.4666,.0796,2.3281,.6321,3.0947,1.9699,1.9994,3.4894,.9945,8.7636,.1288,12.4102-2.2565,9.505-6.9801,18.1797-10.3822,27.2828-4.073,10.8982-7.5978,22.0318-11.3754,33.0357-7.7481,22.5698-15.4966,45.1395-23.2458,67.709-3.5587,10.3648-6.6102,21.0962-11.0337,31.1321-3.632,8.2401-8.0666,16.495-9.4719,25.4896-1.333,8.5321,1.4195,15.8028,7.3793,21.9445,7.3612,7.5857,16.7809,13.7628,25.5301,19.5948,17.1812,11.4526,37.3252,23.5585,58.7487,22.7504,8.1506-.3075,18.4408-2.1161,21.8263-10.6472,1.5001-3.78,1.3821-7.9166,.8942-11.8854-.6601-5.3697-1.5771-10.6116-1.629-16.0439-.189-19.7877,7.1307-38.51,16.0435-55.852,8.6155-16.7635,18.5557-32.7961,26.9993-49.6558,7.2571-14.4906,13.9081-29.3643,18.9276-44.7906,9.4967-29.1858,13.3311-62.972-3.8545-90.1732-20.0331-31.7081-59.4947-45.4027-95.6498-41.4967-34.8672,3.7669-64.3495,22.7508-88.245,47.5323-23.4119,24.2798-42.1791,52.6313-66.1199,76.4337-6.8779,6.8381-14.0051,14.106-23.0416,18.0231-2.3495,1.0185-5.4822,2.2075-7.6135,.1092-.0533-.0525-.4139-.715-.4307-.7594-.2745-.723-.2722-1.2672,.1722-2.3545,2.5219-6.1711,11.7067-10.9984,17.4761-14.2876,20.0934-11.4559,42.2034-19.7426,64.0498-27.1749,29.4079-10.0048,60.9004-12.9356,91.8323-10.7142,21.37,1.5347,42.9965,5.6166,63.0735,13.233,17.9763,6.8196,33.0729,17.6586,45.4611,32.3306,14.5195,17.1962,26.3322,36.4156,39.4646,54.6426,5.4756,7.5998,11.1814,16.9071,20.136,20.7568,4.4274,1.9034,9.1,1.8702,13.8209,1.4456,4.8121-.4328,10.3764-1.4631,14.8768,.9504,9.6387,5.169-.0221,21.4761-3.4017,27.9179-4.6149,8.7964-10.2466,17.0449-16.551,24.7136-6.5021,7.9092-13.6626,15.2646-21.1899,22.1984-6.9501,6.4021-14.6988,14.7806-23.8018,17.9858-11.4979,4.0485-19.2157-6.8075-25.8644-14.3384-7.5958-8.6037-15.1182-17.2721-22.5762-25.9955-15.2383-17.8237-30.2084-35.8754-45.0018-54.0697-11.3729-13.9875-22.9902-27.3482-40.7627-32.9804-16.5629-5.2489-33.7475-2.0364-49.5759,4.0857-34.595,13.3807-65.6396,34.224-99.6642,48.8441-16.027,6.8867-33.0794,12.4945-50.6058,13.4968-17.7867,1.0172-35.1277-3.2008-50.4598-12.29-35.0886-20.8014-56.4946-59.2593-72.5651-95.4208-3.9809-8.9578-7.6855-18.035-11.2644-27.16-.9372-2.3896-9.5112-20.9119-3.5286-21.3061l-2.8456-2.1665c4.0529,10.9447-6.5073,19.6272-15.057,24.3808-7.9249,4.4062-17.0497,6.9596-25.7377,9.425-17.4733,4.9585-35.4773,8.1379-53.6091,9.2685-35.2561,2.1983-73.8339-2.9735-102.4811-25.2741-13.2187-10.2902-25.1063-24.6223-29.556-40.9969-3.2793-12.0675-3.295-24.767,.0562-36.8209,8.0395-28.917,32.5371-50.263,57.6018-64.8212,37.5201-21.7927,81.233-32.2905,124.0263-37.0714,6.538-.7304,13.0903-1.314,19.6517-1.787,3.7663-.2715,3.7961-6.1757,0-5.902-47.2965,3.4096-95.5678,12.8307-137.9551,34.8808-28.1548,14.6463-55.8045,36.4708-67.0933,67.1741-4.667,12.6932-5.8256,26.4191-3.3897,39.7162,3.1358,17.1174,13.0252,32.0129,25.5602,43.8485,27.9228,26.365,68.1114,34.3432,105.3739,33.3254,19.4329-.5308,38.8509-3.4232,57.6629-8.2967,17.4178-4.5124,42.5465-10.394,50.3084-28.8071,1.8906-4.4851,2.0198-9.2443,.3288-13.8109-.4305-1.1626-1.4879-2.256-2.8456-2.1665-7.9495,.5238-8.7711,9.5276-7.1029,15.7173,2.4689,9.1608,6.9029,18.1905,10.5251,26.9552,7.8654,19.0321,16.5317,37.8128,27.3017,55.3967,20.3636,33.2471,50.4741,64.9456,91.1715,69.5099,36.7119,4.1173,72.092-13.9609,103.565-30.5235,17.2606-9.0834,34.3265-18.6059,52.1421-26.5816,16.7543-7.5006,35.0307-14.5062,53.6412-10.4278,19.6566,4.3077,31.8477,19.0441,43.9541,33.9212,15.4306,18.962,31.0555,37.7671,46.9782,56.3183,7.7995,9.0871,15.6429,18.1431,23.6263,27.0696,6.3202,7.0668,13.887,13.9822,24.1203,12.2619,9.55-1.6054,17.2593-9.1849,24.2562-15.3087,8.005-7.0061,15.6714-14.4205,22.7042-22.4081,6.624-7.5233,12.7307-15.5556,17.8963-24.1537,4.9457-8.2323,10.5817-18.0835,11.8166-27.7568,1.1825-9.2631-4.6512-15.7475-13.6705-16.9322-5.162-.678-10.2084,.5535-15.3643,.5935-5.8933,.0457-10.3636-2.4462-14.3681-6.5879-7.99-8.2637-14.2287-18.6824-20.7098-28.1317-6.405-9.3382-12.752-18.723-19.5598-27.7755-12.2314-16.2643-25.6296-30.8479-43.8812-40.3526-18.3828-9.573-39.1982-14.6905-59.5949-17.697-23.1758-3.4161-46.7456-3.6908-69.9975-.8376-12.4071,1.5225-24.6486,3.6721-36.5413,7.5133-10.3913,3.3562-20.6675,7.0908-30.8309,11.0817-11.7986,4.633-23.5215,9.5941-34.7782,15.4369-8.1604,4.2357-17.4425,9.0308-23.4179,16.2403-1.9346,2.3342-3.5872,5.1431-3.4826,8.2775,.1754,5.2532,5.0421,8.5881,10.045,8.3653,9.0187-.4016,17.9455-8.3912,24.2024-14.1746,6.8747-6.3544,13.3697-13.1253,19.5914-20.1167,23.212-26.0835,42.8584-55.6883,69.7294-78.3335,28.9488-24.3963,67.4215-37.4025,105.0364-28.436,19.0589,4.5432,36.8609,14.8438,49.1282,30.292,10.2921,12.9607,15.2107,29.0424,15.5323,45.4643,.6607,33.7337-14.2877,66.5056-29.4343,95.851-17.8833,34.6475-44.98,69.8313-40.1323,111.0975,.5435,4.6268,1.9139,9.4238,1.3069,14.1082-.7817,6.033-5.7663,8.1335-11.1249,9.1235-11.8377,2.1872-24.0333-1.0814-34.8149-5.9014-10.2936-4.6018-19.9686-10.6688-29.2691-17.0096-4.9255-3.358-9.7507-6.8695-14.4372-10.5541-4.2171-3.3156-8.769-6.8327-11.4568-11.5783-4.7952-8.4666-.3818-18.704,3.1634-26.8011,4.161-9.5036,7.8484-18.911,11.2205-28.7351,8.0733-23.52,16.1499-47.0388,24.2241-70.5584,3.961-11.538,7.9219-23.076,11.8829-34.614,3.412-9.9389,8.0249-19.3966,11.4021-29.3334,2.3876-7.0251,4.9354-16.7284,.4869-23.4969-3.0776-4.6827-12.4745-6.1987-15.4823-.4742-4.1578,7.9133,8.4602,11.8005,13.8727,11.7999,10.0891-.001,18.3393-6.2662,25.5256-12.6627,2.843-2.5305-1.3432-6.6925-4.1733-4.1733h0Z"/><path d="M832.9337,819.483c-2.8791,7.0763-4.0177,16.1885,1.2906,22.4602,3.8983,4.6058,11.9124,6.575,17.0297,2.8629,3.8237-2.7737,5.2759-7.8424,3.0851-12.1088-.9564-1.8625-3.2389-1.6902-4.6348-.5972-2.8004,2.1926-3.5403,6.1029-2.7448,9.4215,.8888,3.7079,3.7829,6.4286,7.3638,7.5492,8.2712,2.5884,15.4438-3.2806,20.9874-8.6116,2.743-2.6378-1.4338-6.8079-4.1733-4.1733-3.7176,3.5751-8.3713,8.0848-13.7958,7.4295-1.1064-.1336-2.2158-.4926-3.0777-1.1416-.2051-.1545-.3859-.3455-.5644-.5285-.0824-.0846-.4327-.5385-.2211-.2442-.1792-.2492-.3381-.5284-.4776-.8013-.2473-.4835-.0057,.1156-.1809-.4467-.0774-.2486-.1441-.4986-.2024-.7524-.0346-.1507-.0879-.6944-.0546-.2884-.0251-.3068-.0239-.6132-.0145-.9205,.0158-.5146-.0351,.0243,.0255-.2663,.0509-.244,.1111-.4858,.1897-.7226,.1974-.594-.1081,.1187,.1856-.3736,.404-.6772-.299,.2283,.246-.3522,.2091-.2227,.4423-.4155,.6824-.6036l-4.6348-.5972c.559,1.0886,.2447,2.4514-.5476,3.5563-.1178,.1689-.1132,.1617,.0137-.0215-.1249,.1435-.2557,.2815-.3922,.414-.1346,.1306-.2745,.2553-.4195,.3741,.2278-.1798,.2016-.171-.0787,.0264-.2368,.1441-.4759,.2807-.7257,.4016,.5079-.2459-.4753,.1529-.596,.186-.2714,.0746-.5468,.134-.824,.182,.594-.1028-.5163,.0225-.6386,.0245-.2917,.005-.5812-.0072-.8723-.0227-.3584-.0377-.3894-.0344-.093,.0098-.1957-.0293-.3905-.0637-.5845-.1032-1.53-.3111-2.1695-.5749-3.4427-1.4172-.8695-.5752-1.622-1.3547-2.2504-2.4803-.7779-1.3933-1.2165-2.9958-1.3459-4.5749-.3156-3.8514,.7408-7.6429,2.1797-11.1792,.6009-1.4768-.6529-3.2432-2.0611-3.6301-1.6889-.4641-3.027,.5788-3.6301,2.0611h0Z"/><path d="M437.9793,567.3766c15.0484-11.487,33.1374-19.1562,51.0733-24.8598,8.7394-2.7791,17.6627-5.0849,26.7185-6.5642,3.661-.598,7.0672-1.0202,11.0808-1.2122,1.6642-.0796,3.332-.1068,4.9975-.0534,.7387,.0237,1.477,.0626,2.2137,.122,.2954,.0238,.5906,.0507,.8854,.0813,.2153,.0224,.4302,.0481,.6453,.0727,.6192,.0707-.6058-.1017,.0503,.0074,1.198,.1991,2.3854,.4223,3.5459,.7875,.2733,.086,.542,.1822,.8118,.2779,.3933,.1395,.5856,.2663,.0537,.0105,.4846,.233,.9505,.4728,1.4138,.7463,.1847,.109,.3513,.2435,.5296,.3614-.809-.5351-.1647-.1422,.0345,.0603,.1225,.1246,.2451,.2546,.3731,.3732,.5977,.554-.142-.3948,.0966,.1054,.1675,.3513,.5503,1.4212,.2838,.4097,.1192,.4522,.2044,1.6257,.2288,.5951-.0103,.4369,.0282,.8835,.0203,1.3236-.0144,.7933,.0819-.2832,.0003,.0384-.0726,.2863-.1177,.5793-.1942,.8655-.1455,.5445-.3378,1.0729-.5479,1.5954,.2463-.6124,.0446-.108-.1023,.1868-.1877,.3766-.378,.7506-.5835,1.1179-2.5558,4.5693-6.8929,8.0721-10.7053,11.593-18.4506,17.0399-40.0847,30.4388-63.0476,40.5048-8.564,3.7541-17.3533,7.0114-26.2799,9.794-3.391,1.057-6.8043,2.0432-10.2391,2.9482-4.9013,1.2915-9.9713,.4751-13.6768-3.1974-1.7955-1.7795-2.9695-3.9623-3.5742-6.4086l-1.3562,3.3326c5.2082-3.4511,10.2647-7.3357,14.0114-12.3924,3.8059-5.1366,5.1613-12.0308,5.4767-18.3068,.171-3.4021-.1259-6.9596-1.2256-10.1995-1.0453-3.0797-2.5465-6.0803-4.0224-8.9739-2.597-5.0918-5.67-9.9243-9.3042-14.341-5.4885-6.6703-12.4767-12.0568-20.634-15.0116-6.4762-2.3458-13.5468-2.9361-20.3605-2.0894-9.4839,1.1784-18.8301,4.6974-26.8357,9.9273-.9634,.6294-1.9547,1.2634-2.8693,1.9525-4.6771,3.5235-7.7334,8.5409-9.7078,13.9884-4.4058,12.1559-3.0856,25.5588,.8508,37.6371,2.1584,6.6227,4.9993,12.9927,7.6759,19.4152,1.3935,3.3436,2.4238,6.5647,2.4957,10.2178,.0681,3.4611-.4653,6.8841-1.3865,10.214-3.0518,11.0306-10.7374,20.3188-20.7642,25.7522-4.176,2.2629-8.0529,3.663-12.4864,5.4419-4.5871,1.8405-9.2064,3.6016-13.8594,5.2688-10.329,3.7009-20.8379,6.9836-31.5503,9.3834-9.6069,2.1522-19.5634,3.7297-29.4352,3.0276-2.1801-.1551-3.75-.3523-5.9336-.8279-.9334-.2033-1.8597-.4403-2.7739-.7176-.444-.1347-.885-.2787-1.3226-.4328-.2398-.0844-.4776-.1736-.716-.2617-.087-.0322-.8632-.3456-.4107-.1548-3.3733-1.422-5.5303-3.06-7.9833-5.6423-.4753-.5004-.9249-1.0212-1.3577-1.5586-.2853-.3543,.4015,.5731-.0009-.0089-.0807-.1168-.1688-.2281-.2477-.3463-.1917-.2872-.387-.571-.5677-.8655-.3269-.5329-.5969-1.0866-.8795-1.6429-.3115-.6132,.1504,.5297-.0957-.2449-.0917-.2886-.2-.571-.2846-.8624-.1483-.5111-.244-1.0269-.342-1.5489,.1839,.98,.0104-.0129-.0037-.2453-.0173-.285-.0239-.5707-.0201-.8562,.0035-.2571,.0238-.5123,.0363-.7689,.0408-.8349-.057,.1757,.0066-.1528,.1109-.5724,.2234-1.1374,.392-1.6966,.0684-.2271,.1431-.4523,.2229-.6756,.0678-.1897,.5012-1.146,.1058-.305,.267-.568,.5376-1.1287,.8512-1.673,.2947-.5116,.6135-1.0092,.9507-1.4937,.1551-.2229,.3178-.44,.4768-.6599,.4016-.5556-.2981,.3657-.0172,.0219,.1337-.1636,.2648-.3292,.4001-.4915,.8829-1.0597,1.843-2.0537,2.85-2.9958,.5254-.4915,1.0642-.9687,1.6133-1.4335,.3155-.2671,.6347-.53,.9569-.789,.131-.1054,.2628-.2096,.3945-.3141,.5353-.4248-.2915,.216,.2115-.1641,5.9545-4.4999,12.6538-7.9783,19.4505-11.014,7.6217-3.4041,16.0385-6.3762,24.294-8.8713,8.445-2.5524,17.019-4.6948,25.6761-6.3952,7.7707-1.5263,14.5733-2.5884,22.3608-3.0993,2.9955-.1965,6.0007-.2853,9.0014-.1692,3.7983,.147,3.7919-5.7553,0-5.902-6.9335-.2683-13.8858,.4735-20.7438,1.4238-8.3294,1.1542-16.5886,2.8267-24.7488,4.8491-16.771,4.1563-33.6937,9.6357-48.8572,18.0435-5.827,3.2309-11.713,7.0407-16.1436,12.0863-3.4188,3.8934-6.1399,8.8343-5.5603,14.1826,.6901,6.3677,5.2724,11.4166,10.3122,14.9823,6.9017,4.883,16.0752,5.8785,24.2944,5.7396,10.6457-.1799,21.2706-2.2747,31.5489-4.9273,10.4299-2.6916,20.6706-6.102,30.7489-9.8935,4.4219-1.6635,8.8139-3.4063,13.1764-5.2198,4.9332-2.0507,9.7871-4.1178,14.138-7.2766,9.6795-7.0274,16.7709-17.4494,19.0874-29.2553,.7385-3.7637,1.0791-7.6305,.6375-11.4513-.4331-3.7474-1.719-7.0286-3.1688-10.4785-2.7622-6.5727-5.6324-13.1258-7.6814-19.9661-3.3712-11.2541-4.3345-24.2724,.9863-35.1363,1.8127-3.7011,4.2526-6.6815,7.6866-8.9636,.6939-.4612,1.3803-.9294,2.0898-1.3674,1.461-.902,2.9622-1.7392,4.4911-2.5204,1.0075-.5148,2.0277-1.0045,3.0594-1.4686,.2636-.1186,.5285-.2342,.793-.3507,.1198-.0527,.2405-.1033,.3605-.1554,.6128-.2661-.4691,.1923-.0624,.0268,.6034-.2456,1.2064-.4908,1.8152-.7227,2.6661-1.0157,5.4005-1.8572,8.1844-2.4837,.7045-.1585,1.4122-.3033,2.1225-.4334,.3605-.066,.7217-.1282,1.0835-.1866,.1933-.0312,1.4988-.2141,.8046-.1255,1.5895-.2028,3.1879-.3328,4.79-.375,1.6551-.0436,3.3129,.0042,4.9621,.1514,1.0049,.0897,1.3902,.1416,1.8775,.2203,.8551,.1382,1.7061,.2951,2.5515,.4846,3.7405,.8387,6.5527,1.921,9.7156,3.6766,8.0321,4.4583,14.1986,11.7111,18.9057,19.7307,1.5728,2.6795,2.9947,5.4466,4.2938,8.2685,1.3041,2.8327,2.4192,5.6326,2.6428,8.7761,.2371,3.3337-.1152,6.6624-.8308,9.9188-.6271,2.8532-1.3783,5.5517-2.9949,8.0112-3.1298,4.7617-8.0228,8.3319-12.7099,11.4377-1.1228,.744-1.6842,2.0055-1.3562,3.3326,1.5404,6.2317,6.123,11.187,12.099,13.4318,5.0853,1.9102,10.0479,.9675,15.0911-.4271,8.6155-2.3825,17.0998-5.244,25.4161-8.5196,23.8654-9.4,46.4105-22.1504,66.1558-38.5797,5.6038-4.6627,10.961-9.6221,16.0237-14.8678,2.3732-2.459,4.4165-5.7728,5.3315-9.0911,1.5021-5.4474-1.2828-9.9207-6.3293-11.9863-5.751-2.3539-12.6171-2.0521-18.6812-1.5208-9.1303,.7999-18.1658,2.6995-26.9999,5.0983-10.1178,2.7474-20.0211,6.2362-29.6671,10.3388-9.1591,3.8956-18.127,8.3977-26.4222,13.9192-1.8444,1.2277-3.6501,2.5118-5.4114,3.8562-1.2648,.9654-1.9335,2.5419-1.0587,4.0375,.7284,1.2453,2.7628,2.0317,4.0375,1.0587h0Z"/><path d="M523.773,723.1031c-8.4765-5.6532-15.587-13.26-20.7481-22.0387-2.5571-4.3495-4.6405-8.9556-6.1392-13.7753-.852-2.7399-1.5943-5.6609-1.1978-8.5519,.3029-2.2082,1.2418-4.1194,2.613-5.8917,2.6926-3.4803,6.8137-6.0297,10.6622-8.2398,2.2981-1.3198,4.6311-2.5795,6.9683-3.8284,4.9933-2.6684,10.0221-5.2699,15.0279-7.9144,12.3088-6.5027,24.4972-13.254,36.1998-20.805,12.9834-8.3774,25.4735-17.7166,36.4837-28.59,10.8977-10.7622,20.463-23.2049,26.6308-37.2962,6.6748-15.2494,9.6286-32.47,6.8748-48.9943-1.4682-8.8102-4.8784-17.3858-10.1907-24.5912-5.5879-7.5793-12.9394-13.6345-21.2901-17.9621-20.3032-10.5218-44.0131-11.7907-66.4079-10.076-24.6643,1.8884-48.9599,7.057-72.7314,13.7642-11.9661,3.3763-23.721,7.2931-35.295,11.8382-11.4335,4.4899-22.6908,9.4111-33.9781,14.2522-5.3632,2.3003-10.7355,4.5789-16.1376,6.7865-1.4743,.6025-2.5194,1.9623-2.0611,3.6301,.3837,1.3963,2.1458,2.6677,3.6301,2.0611,22.5153-9.2012,44.5356-19.6789,67.6139-27.4496,11.9098-4.0102,24.0834-7.3355,36.2958-10.2867,12.2101-2.9506,24.563-5.4209,37.0227-7.0499,21.856-2.8575,44.8849-4.1521,66.2215,2.4261,9.3322,2.8771,18.3769,7.3627,25.5486,13.9398,6.3484,5.8221,11.1142,13.1171,13.8073,21.1523,2.8023,8.361,3.4526,16.8392,2.8517,25.6508-.2761,4.0489-.6963,7.113-1.5445,11.153-.7924,3.7744-1.8383,7.4948-3.1188,11.1325-1.3168,3.741-2.4806,6.4656-4.2776,10.063-1.6732,3.3495-3.5376,6.6025-5.5618,9.7521-4.1581,6.47-8.4611,11.8345-13.7815,17.5212-5.2459,5.6069-10.9177,10.8072-16.8531,15.6747-5.6669,4.6473-11.5827,8.9723-17.935,13.2439-11.7748,7.918-24.1128,14.9521-36.6198,21.6386-5.2422,2.8026-10.5174,5.5426-15.7757,8.3149-5.5498,2.926-11.3193,5.7485-16.4021,9.4429-4.1033,2.9824-7.7274,6.5864-9.5095,11.434-2.0719,5.6359-.4488,11.7523,1.5211,17.1681,3.6206,9.9543,9.358,19.0853,16.7775,26.65,3.5825,3.6526,7.5713,6.9093,11.8265,9.7473,1.3264,.8846,3.2668,.2591,4.0375-1.0587,.8464-1.4471,.2709-3.1508-1.0587-4.0375h0Z"/><path d="M437.0207,512.4086c-6.7742,3.9974-15.4963,10.0412-15.6149,18.8502-.0635,4.7137,3.3291,8.2489,7.9512,8.664,4.7232,.4242,8.5411-2.6018,11.867-5.5455-1.6441-.4341-3.2882-.8681-4.9323-1.3022,2.2538,5.5703,6.0199,10.212,11.1388,13.4022,3.2327,2.0147,6.199-3.0893,2.9789-5.0962-3.7155-2.3156-6.7768-5.7977-8.4265-9.875-.8459-2.0907-3.1463-2.8829-4.9323-1.3022-2.0966,1.8557-4.5971,4.0734-7.3441,3.846-.752-.0622-1.5746-.3467-2.0548-1.1435-.4413-.7323-.4276-1.9195-.1557-2.9995,1.4418-5.7273,7.6823-9.5572,12.5035-12.4022,3.2689-1.929,.3028-7.0327-2.9789-5.0962h0Z"/><path d="M307.7927,574.2757c2.0888-1.229,4.7065-.8435,7.0121-.5243,2.4194,.3349,5.4835,.7171,7.1607,2.5324,.5516,.5971,.9617,1.5181,1.0063,2.066,.0573,.7031-.2525,1.2324-.8017,1.6092-.9382,.6439-1.696,.7331-2.8651,.7015-1.59-.043-3.1631-.6028-4.6692-1.0689-2.4485-.7577-4.6636,2.169-3.3326,4.335,3.4375,5.594,2.0969,13.1542-3.1534,17.3845-1.242,1.0007-1.042,3.1314,0,4.1733,1.2275,1.2275,2.9282,1.0032,4.1733,0,7.1086-5.7276,8.8198-16.8175,4.0763-24.5367-1.1109,1.445-2.2217,2.89-3.3326,4.335,4.088,1.2651,8.7601,2.1989,12.5001-.521,3.5393-2.574,4.2183-7.2354,1.9231-10.904-2.2572-3.6079-6.2799-5.0509-10.2973-5.677-4.1583-.6481-8.5701-1.2424-12.3789,.9988-3.2715,1.9249-.3051,7.0285,2.9789,5.0962h0Z"/><g><path d="M412.7919,609.3636c2.2019,3.1237-7.5401,1.4494-11.2435,.5052-3.7033-.9442-7.1442-2.691-10.5503-4.4245,7.6442,.3525,15.1369-2.5507,21.5915-6.6612,0,0-3.4235,5.4369,.2022,10.5806Z"/><path d="M410.2438,610.853c.1869,.2808,.1855,.5215-.0358-.2217,.0547,.2028,.0522,.141-.0074-.1856-.067-.2997-.0524-.5993,.0439-.8988,.1406-.5099,.4865-.7894,.8015-1.1724,.4082-.4963-.2463,.118,.2692-.1691,.599-.3337-.0046-.0526-.0234-.0319-.0722,.0172-.145,.0319-.2182,.0441-.2284,.0398-.0995,.0236,.3867-.0487-.1624,.1295-.8054,.0496-1.0182,.0509-.8546,.0052-1.7099-.0635-2.5589-.1564-.2001-.0219-.3997-.0473-.5996-.071-.3698-.0438,.5177,.0812-.062-.0098-.4794-.0753-.9589-.1477-1.4369-.2316-1.8056-.3169-3.6031-.7073-5.3451-1.2837-2.7677-.9158-5.3601-2.2525-7.9521-3.5712l-1.4894,5.4991c8.2348,.3216,16.2087-2.7209,23.0809-7.0641-1.3458-1.3458-2.6917-2.6917-4.0375-4.0375-2.5251,4.0711-2.4645,9.6031,.2022,13.5594,.8897,1.32,2.5993,1.8999,4.0375,1.0587,1.3096-.766,1.9536-2.7099,1.0587-4.0375-.6491-.963-1.0953-1.8655-1.2507-3.036,.0533,.4015-.0105-.5161-.0103-.5038-.004-.2054-.001-.4116,.0082-.6169,.0017-.038,.1071-.9708,.0154-.3798,.0349-.2252,.0809-.4487,.1309-.6709,.0905-.4019,.2041-.7979,.3373-1.1877,.058-.1698,.1284-.3357,.1857-.5055-.0775,.23-.2367,.5047-.0453,.1155,.1356-.2757,.2642-.5551,.4265-.8168,1.5395-2.4821-1.5445-5.6131-4.0375-4.0375-6.0784,3.8416-12.8873,6.5401-20.1021,6.2583-2.8678-.112-4.0977,4.1721-1.4894,5.4991,3.3863,1.7229,6.8261,3.4662,10.4927,4.5155,2.0038,.5734,4.073,.9488,6.1355,1.2342,2.1963,.3039,4.5304,.6426,6.7239,.1227,2.73-.647,4.0813-3.5841,2.4792-5.9906-.8822-1.3251-2.6049-1.8966-4.0375-1.0587-1.3159,.7697-1.9458,2.7049-1.0587,4.0375Z"/></g><g><path d="M348.9987,582.717c3.3945,3.1343,6.9869,3.3976,11.1753,4.5158,2.9759,.7945,4.318,3.7711,2.8692,6.7452-1.1128,2.2844-3.4044,3.7435-5.6914,4.8511s-4.7286,2.0141-6.6423,3.6863c-1.9137,1.6721-3.2038,4.3896-2.3366,6.7783,.2831-4.6932-2.5922-8.9645-5.6706-12.5184s-6.5919-6.9803-8.0599-11.447c-.417-1.2688-.6545-2.6466-.3147-3.9381,.3398-1.2916,1.366-2.4664,2.6871-2.6617-5.1907-.6855-9.7736-4.7401-11.0865-9.8086-.6937-2.6779-.2873-5.9925,2.0436-7.4821-6.5735,.4943-14.6103-5.9951-14.446-12.8125,.1337-5.5469,5.1855-10.5108,10.7339-10.5472-3.7796-1.2709-6.3767-5.1218-6.6963-9.0965-.3196-3.9748,1.4088-7.9451,4.1231-10.8664,2.7142-2.9213,6.3354-4.8761,10.1073-6.1701,3.9213-1.3452,8.4867-1.955,12.0327,.1926-2.1413-3.72-.1146-8.748,3.3814-11.2382,3.4961-2.4902,7.9931-3.0228,12.2819-3.1958,3.9026-.1574,8.1092,.0117,11.2394,2.3477-2.6131-2.2227-1.9476-6.7786,.6176-9.0564,2.5653-2.2778,6.2912-2.7146,9.7089-2.417,3.6471,.3176,7.3381,1.41,10.1171,3.7931,2.779,2.3831,4.4762,6.2202,3.6525,9.7871,2.3601,.2052,4.6995,.6464,6.9722,1.3151,2.5315,.7448,5.0904,1.8528,6.7326,3.9184,1.5169,1.9079,2.0667,4.3992,2.3801,6.8164,.3985,3.0737,.4814,6.2337-.2789,9.2384-.4587,1.8129-1.3028,3.6467-2.871,4.6654-1.714,1.1134-4.1459,.9716-5.7189-.3334-1.5953,5.5254-6.1879,9.4619-11.9394,10.0772-4.6439,.4967-9.2622-.8727-13.732-2.2267,1.1553,2.3095,.118,5.2148-1.6952,7.0535-1.8132,1.8387-4.2526,2.888-6.5567,4.0539s-4.6344,2.592-5.8905,4.8483c-1.409,2.531-1.2087,5.6166-.9327,8.5002,.333,3.4796,.8068,7.1727,3.0324,9.868-1.5877-2.2957-3.2171-4.6351-5.462-6.2937-5.703-4.2137-12.5433-.3202-14.1149,6.1548-1.1201,4.615,.759,9.6814,4.2481,12.903Z"/><path d="M346.912,584.8037c3.067,2.7467,6.6309,3.8728,10.5563,4.799,.6559,.1548,1.8373,.3861,2.1793,.5371,.0227,.01,.7262,.4715,.4654,.2533,.1537,.1382,.2968,.2866,.4293,.4453-.1664-.1805-.151-.126,.0461,.1637-.1773-.4204,.092,.3528,.1081,.452-.0957-.5927-.1016,.8388-.0242,.3746-.102,.6122-.3686,1.1323-.7529,1.6287-2.2059,2.8487-6.4398,3.5967-9.3528,5.498-3.6409,2.3764-6.4555,6.6468-5.0392,11.1228,1.0086,3.1875,5.6595,2.5748,5.7966-.7845,.2647-6.4854-3.9398-11.702-8.0088-16.2756-1.8025-2.0261-3.6136-4.0471-4.9226-6.4401-.5729-1.0474-1.1176-2.2331-1.2596-3.4318-.0341-.288-.0369-.6565,.0205-.928,.0316-.1492,.2234-.4939,.0999-.272,.127-.2283,.1323-.3204,.3788-.4393-.1839,.0887-.306,.1675,.1673,.067,2.7221-.5776,2.9078-5.2633,0-5.6912-3.22-.4738-6.0469-2.1477-7.7667-4.878-.8258-1.3111-1.3979-2.7888-1.4513-4.0891-.0365-.8889-.0498-1.06,.2069-1.877,.1271-.4045,.4251-.8812,.6731-1.053,1.087-.7528,1.722-2.0015,1.3562-3.3326-.3293-1.1984-1.5627-2.2415-2.8456-2.1665-2.5064,.1466-4.6247-.6392-6.8858-2.2006-1.9313-1.3337-3.6939-3.4728-4.3242-5.6072-.3221-1.0909-.3875-2.0079-.1935-2.9787,.2537-1.269,.7662-2.3953,1.453-3.304,1.5906-2.1046,3.9086-3.3089,6.2385-3.3671,3.4336-.0858,3.8695-4.6854,.7845-5.7966-2.3635-.8513-4.1296-3.5-4.4945-5.89-.5174-3.3887,1.0705-6.8737,3.3654-9.29,2.4046-2.5319,5.5667-4.2263,8.8538-5.3257,3.0626-1.0243,6.6288-1.7326,9.568-.041,2.6103,1.5023,5.4264-1.4681,4.0375-4.0375-.1929-.3569-.3618-.765-.4578-1.3562-.0179-.1099-.037-.9146,.0301-1.3931,.1032-.7351,.5882-1.8433,1.1515-2.7173,1.248-1.9364,3.5446-3.0786,5.9314-3.7072,2.7553-.7256,5.66-.8702,8.4986-.8627,2.758,.0072,5.4195,.3506,7.7114,1.9877,2.729,1.9493,6.0323-2.3908,3.5761-4.6348-.0119-.0108-.6223-.6906-.3675-.3366-.1131-.1707-.2146-.348-.3043-.5321,.0792,.1874,.0854,.1846,.0186-.0086-.0484-.1466-.0882-.2957-.1193-.4471,.0117,.2216,.0101,.2259-.0048,.0128-.0347-.3133-.0293-.6361-.0027-.9498,.0595-.7012,.4906-1.7482,1.1627-2.4015,1.9617-1.9065,5.0653-1.9913,7.6666-1.7877,2.86,.2239,5.9867,1.0617,8.2209,2.9438,2.0452,1.7229,3.4019,4.4508,2.8935,6.916-.4138,2.0063,.8609,3.5496,2.8456,3.7355,3.0641,.287,6.4481,.8972,9.1826,2.3761,2.5945,1.4033,3.4531,3.6938,3.9098,6.4976,.4992,3.0644,.6039,6.4148-.3367,9.4033-.2884,.9164-.7559,1.9238-1.6196,2.361-.7954,.4026-1.5682,.1406-2.4305-.5169-1.579-1.2039-3.8421,.1305-4.335,1.7636-1.0556,3.4977-3.6692,6.3563-7.1077,7.4397-4.7728,1.5039-10.1424-.2007-14.9337-1.6503-1.1206-.339-2.4173,.1413-3.1019,1.0575-.7626,1.0206-.7401,2.1459-.2307,3.2775,.1244,.2764,.1015,.8537,.0143,1.2512-.1322,.6033-.3956,1.1835-.7524,1.6733-.9515,1.3061-2.4963,2.126-3.8915,2.8589-3.3621,1.7663-6.8917,3.279-9.1049,6.5409-2.2871,3.3708-2.0683,7.587-1.6635,11.4484,.4286,4.0878,1.2183,7.8592,3.8167,11.1485,.8991,1.1382,2.8404,1.0546,3.8747,.2307,1.0735-.8551,1.6105-2.5782,.7601-3.8068-2.5753-3.7203-5.4462-7.6853-9.9869-9.0612-3.8063-1.1534-7.8445,.0343-10.782,2.5987-6.919,6.0404-5.4157,16.8965,.8053,22.8027,2.7541,2.6147,6.9347-1.5517,4.1733-4.1733-2.0472-1.9436-3.5379-4.6253-3.6888-7.4016-.0719-1.3219,.1633-2.8947,.5661-3.8778,.5478-1.3372,1.1253-2.0407,2.0817-2.967,1.4769-1.4304,3.5022-1.8532,5.4307-1.24,2.5715,.8176,4.6879,3.9633,6.3044,6.2984,1.5449-1.192,3.0898-2.3841,4.6348-3.5761-1.9691-2.4928-2.1137-6.4169-2.3069-9.4459-.1034-1.6211-.1941-3.4024,.4564-4.9347,.5222-1.2301,1.565-2.1454,2.6624-2.8568,3.0431-1.9728,6.5513-3.0518,9.2443-5.5757,3.0326-2.8421,4.1684-7.0923,2.448-10.9135-1.1109,1.445-2.2217,2.89-3.3326,4.335,5.9409,1.7975,12.6386,3.6766,18.7282,1.4254,5.1803-1.915,8.9807-6.0596,10.5734-11.337-1.445,.5879-2.89,1.1757-4.335,1.7636,3.8131,2.9074,9.1487,1.2862,11.5133-2.599,2.3426-3.849,2.3552-8.965,1.8246-13.2886-.562-4.5793-1.9058-8.7308-5.8911-11.4377-3.7485-2.5461-8.761-3.3807-13.1735-3.794,.9485,1.2452,1.8971,2.4903,2.8456,3.7355,1.6173-7.8424-4.2463-14.2944-11.4158-16.4015-6.2202-1.8281-15.6764-1.7045-19.0024,5.0277-1.6956,3.432-1.5812,7.8546,1.39,10.569,1.192-1.5449,2.3841-3.0898,3.5761-4.6348-3.2-2.2858-7.2601-2.8234-11.1003-2.7923-3.7352,.0302-7.6939,.2829-11.2332,1.5602-3.5099,1.2668-6.6677,3.4654-8.4167,6.8472-1.7226,3.3308-2.0027,7.1555-.1902,10.5087,1.3458-1.3458,2.6917-2.6917,4.0375-4.0375-6.6398-3.8214-15.5554-1.018-21.5085,2.9398-6.2915,4.1827-11.0927,12.0064-8.5891,19.7259,1.3131,4.0486,4.2439,7.223,8.257,8.6684l.7845-5.7966c-8.2754,.2068-15.225,8.2311-13.3518,16.4991,1.6395,7.2365,9.6867,13.1939,17.0638,12.7625l-1.4894-5.4991c-4.7124,3.2638-4.503,9.5249-2.0778,14.1696,2.3062,4.417,6.8829,7.7876,11.8257,8.5149v-5.6912c-4.0714,.864-5.5091,5.2655-4.776,8.9321,.6749,3.3752,2.6751,6.3375,4.7777,8.9832,3.6189,4.5536,9.4507,9.1006,9.1897,15.4955l5.7966-.7845c-.4085-1.2909,.1828-2.5783,1.2955-3.6487,1.4203-1.3663,3.4135-2.1281,5.1739-2.9418,3.6505-1.6873,7.4502-4.0486,8.5927-8.1825,1.1508-4.164-1.2618-8.1334-5.3221-9.3491-3.5011-1.0482-7.075-1.2509-9.8731-3.7569-1.1867-1.0628-3.0027-1.1706-4.1733,0-1.0811,1.0811-1.1919,3.1059,0,4.1733Z"/></g><path d="M740.188,866.4778c-3.2389-3.216-8.2513-3.5699-12.2427-1.6063-4.0546,1.9946-6.6916,6.2657-7.9882,10.459-1.3503,4.3668-.981,9.705,3.002,12.5694,3.4643,2.4913,8.1666,1.9816,10.729-1.4439,1.5011-2.0067-1.0114-5.2271-3.3326-4.335-4.5443,1.7465-8.2827,5.582-9.2393,10.4688-.9705,4.9577,.7111,10.2476,4.5375,13.598,1.1985,1.0494,2.9938,1.1795,4.1733,0,1.071-1.071,1.2041-3.1191,0-4.1733-2.275-1.992-3.5336-5.001-3.0197-7.8556,.5034-2.7965,2.5156-5.3468,5.1171-6.3466-1.1109-1.445-2.2217-2.89-3.3326-4.335,.1351-.1822,.1344-.2007-.0022-.0554-.1522,.1416-.134,.1298,.0546-.0355-.2746,.1423-.3199,.1747-.136,.0972,.1877-.0705,.1337-.0561-.1621,.0432-.3977,.2276,.0443,.0408-.1834,.0465-.1122,.0028-.8746-.0392-.6137,.0003-.5474-.0828-1.2992-.4545-1.6269-.8306-1.4378-1.6501-.7129-4.8791,.1161-6.9636,.8947-2.2495,2.3756-4.5167,4.5763-5.6545,1.7767-.9186,4.0395-.8243,5.4001,.5266,2.6983,2.6792,6.8736-1.4922,4.1733-4.1733h0Z"/><path d="M378.9209,218.2088s186.9119-24.4427,209.2868,204.1166c-54.4639-50.8903-75.7291-72.1871-75.7291-72.1871l8.7971-23.9434-20.66,14.9445-31.5819-31.5588,7.6703-19.8004-16.9363,13.1914-80.8468-84.7629Z" style="fill:#6966ed;"/><path d="M379.4154,217.0742s118.531-146.5739,292.3217,3.5488c-74.5363,.6904-104.6225-.0737-104.6225-.0737l-10.1362-23.4079-4.6607,25.069-44.6341-1.0839-8.096-19.6302-3.1722,21.2318-117-5.654Z" style="fill:#6966ed;"/><path d="M383.6465,212.1869s7.6939-157.7986,199.5332-142.193c-50.088,37.3358-70.8215,51.7007-70.8215,51.7007l-18.4364-10.8234,9.2468,19.2664-30.7345,21.3445-15.1874-9.2767,8.3559,15.934-81.9561,54.0475Z" style="fill:#6966ed;"/><path d="M390.6446,213.2003S423.2732,58.6204,233.7593,25c38.9654,48.831,55.3716,67.99,55.3716,67.99l20.5806-5.787-13.8361,16.2868,24.307,28.4494,17.0453-5.116-12.1282,13.2899,65.5452,73.0873Z" style="fill:#6966ed;"/><path d="M391.6788,221.0504s-183.5201-43.0566-228.6943,182.1084c59.2911-45.1742,82.584-64.232,82.584-64.232l-6.3526-24.7046,19.0579,16.9403,34.5865-28.2339-5.6468-20.4695,15.5286,14.8228,88.9367-76.2314Z" style="fill:#6966ed;"/><path d="M401.354,224.3797S306.9844,61.1991,112.0177,182.558c73.5278,12.2397,103.3685,16.15,103.3685,16.15l13.6433-21.5531,.7171,25.4885,44.2623,5.8502,11.0419-18.1374-.1584,21.4669,116.4616,12.5564Z" style="fill:#6966ed;"/><circle cx="402.271" cy="254.8933" r="32.297" style="fill:#f953b2;"/><circle cx="362.2686" cy="238.4989" r="32.297" style="fill:#f953b2;"/><path d="M304.2931,409.0083c13.8921,5.9446,29.7319,12.2982,44.863,7.0621,1.5055-.521,2.5029-2.0224,2.0611-3.6301-.4021-1.4633-2.1171-2.5846-3.6301-2.0611-13.5439,4.6869-27.8686-1.1411-40.3152-6.4671-1.464-.6265-3.163-.4364-4.0375,1.0587-.7264,1.242-.4146,3.4071,1.0587,4.0375h0Z" style="fill:#fff;"/><path d="M323.9634,346.1359c11.7714,8.0204,25.7907,12.4907,40.0179,12.9193,3.7991,.1145,3.7956-5.7877,0-5.902-13.235-.3987-26.1051-4.6637-37.039-12.1135-1.3177-.8978-3.2724-.2495-4.0375,1.0587-.8529,1.4581-.2621,3.1376,1.0587,4.0375h0Z" style="fill:#fff;"/><path d="M344.2607,305.4568c5.9841,3.8591,12.7413,6.5578,19.7442,7.8508,1.5129,.2793,3.2553-.4155,3.6301-2.0611,.3297-1.4476-.4379-3.3304-2.0611-3.6301-6.7205-1.2408-12.6314-3.5781-18.3343-7.2558-1.2998-.8382-3.3154-.3081-4.0375,1.0587-.7747,1.4662-.3286,3.1429,1.0587,4.0375h0Z" style="fill:#fff;"/><path d="M306.094,876.2846c-6.5667-6.0032-14.5727-10.4211-23.1526-12.776,10.0176-6.7585,25.122-4.3002,32.4793,5.2863-1.5313-5.1644,.9397-10.8473,4.8084-14.5955,3.8688-3.7482,8.9352-5.9551,13.8832-8.0845-2.9134,7.9885-5.0486,16.2605-6.3657,24.661,5.3359-10.4654,16.3556-17.8033,28.0692-18.691-5.584,6.4748-11.1681,12.9496-16.7521,19.4245,9.9658-4.661,21.857-5.0206,32.0863-.9703-5.4795,5.3314-12.2125,9.3659-19.498,11.6833,12.2971,2.0386,23.5488,9.6928,29.9614,20.3816-9.7707-.3624-19.5895,.5922-29.1074,2.83" style="fill:#f953b2;"/><path d="M178.4102,882.6764c-1.9516,2.0376-3.1083,4.7151-3.2156,7.5346-.1991,5.2311,.1069,11.9149,.688,15.9297,4.3063,29.7506,32.5725,54.9203,62.3231,50.6139s49.7196-36.458,45.4132-66.2085c-.989-6.8324-2.6294-12.6769-4.9173-17.8305-.9079-2.0451-2.3898-3.7813-4.2624-5.0061l-18.8905-10.8692-57.8562,7.712-19.2823,18.1242Z" style="fill:#f4d13b;"/><ellipse cx="226.5822" cy="865.0088" rx="32.2643" ry="10.4924" transform="translate(-121.5798 41.3809) rotate(-8.2362)" style="fill:#6966ed;"/><ellipse cx="226.1125" cy="861.7637" rx="12.9057" ry="3.1477" transform="translate(-121.1198 41.2801) rotate(-8.2362)" style="fill:#fff;"/><path d="M234.5754,859.4718c1.177-4.8226,2.373-9.6568,3.3661-14.5213,.604-2.9585,.5925-6.2527,1.9396-9.0087,1.4509-2.9683,4.3878-3.6438,7.4533-3.1375,3.6444,.6019,7.0399,2.1691,10.6559,2.8806,2.4733,.4867,3.5321-3.3049,1.046-3.7941-5.8092-1.1431-12.2073-4.9812-18.1272-2.2815-5.8459,2.6659-5.7065,9.4648-6.8767,14.8278-1.0205,4.677-2.1159,9.3383-3.251,13.9887-.6003,2.4594,3.1931,3.5087,3.7941,1.046h0Z" style="fill:#fff;"/><path d="M181.5488,891.0438c17.8694,7.9598,38.3192,9.5272,57.234,4.5639,5.335-1.3999,10.5167-3.335,15.4777-5.7434,1.1387-.5528,.1424-2.2499-.993-1.6987-17.0379,8.2712-36.8746,10.4229-55.3346,6.2672-5.2817-1.189-10.4454-2.8846-15.3912-5.0877-1.1466-.5107-2.1485,1.184-.993,1.6987h0Z" style="fill:#fff;"/><path d="M267.4808,881.7662l1.8675-.747c.128-.0304,.2395-.0891,.3345-.1761,.1071-.0694,.1915-.1614,.2534-.276,.1234-.2108,.1757-.5216,.0992-.758-.077-.238-.2245-.4677-.4521-.5879-.2189-.1157-.5173-.1954-.758-.0992l-1.8675,.747c-.128,.0304-.2395,.0891-.3345,.1761-.1071,.0694-.1915,.1614-.2534,.276-.1234,.2108-.1757,.5216-.0992,.758,.077,.238,.2245,.4677,.4521,.5879,.2189,.1157,.5173,.1954,.758,.0992h0Z" style="fill:#fff;"/><path d="M400.0655,578.8584c3.3479,.6226,6.6938,.6316,10.0458,.036,1.0158-.1805,1.6801-1.4742,1.3741-2.4201-.3533-1.0916-1.3317-1.5675-2.4201-1.3741-.1714,.0305-.3428,.0603-.5147,.0877-.1146,.0183-.2293,.0357-.3441,.0523,.2069-.0264,.2376-.0304,.0918-.0119-.3459,.0409-.6913,.0802-1.0384,.1094-.7226,.0607-1.448,.09-2.1731,.0868-.6962-.003-1.3922-.0349-2.0857-.0963-.1734-.0153-.3466-.0325-.5196-.0515-.1426-.0157-.5239-.064-.1678-.0155-.4024-.0548-.8029-.1229-1.2021-.1971-1.0084-.1875-2.1704,.2779-2.4201,1.3741-.2201,.9662,.2922,2.2189,1.3741,2.4201h0Z"/><path d="M405.7897,551.6986c.9981,.1669,1.8909,.1731,2.89,.0218,.8005-.1212,1.5521-.4031,2.2822-.749,1.4446-.6844,2.7048-1.8829,3.4784-3.2792,.4987-.9002,.2482-2.1876-.7058-2.6917-.925-.4887-2.159-.2556-2.6917,.7058-.0825,.1489-.1693,.2949-.2639,.4365-.0429,.0642-.0888,.1262-.1323,.1899-.2029,.2971,.3199-.3745,.0804-.1062-.2168,.2428-.4327,.4794-.6785,.6939-.0582,.0508-.1177,.0998-.1772,.1491-.2426,.2012,.3323-.2423,.1407-.1103-.1403,.0966-.2786,.1945-.4239,.2836-.2906,.1783-.5952,.3303-.9091,.4629l.47-.1983c-.5179,.2101-1.0532,.3551-1.607,.4314l.523-.0703c-.5233,.064-1.0461,.0642-1.5688-.0053l.523,.0703c-.0613-.0087-.1225-.0184-.1835-.0291-.5364-.0897-1.0299-.0861-1.5159,.1983-.4081,.2388-.7973,.7067-.9041,1.1757-.2165,.9504,.2887,2.2386,1.3741,2.4201h0Z"/><path d="M381.2627,560.9937c4.7425,2.1655,10.6253,.5373,13.4115-3.9367,.5448-.8748,.2155-2.2049-.7058-2.6917-.9651-.5099-2.1102-.228-2.6917,.7058-.1196,.192-.242,.4354-.4031,.5947,.166-.1641,.1533-.1938-.0064-.0078-.0776,.0904-.1571,.1791-.2387,.266-.163,.1734-.3344,.3395-.5125,.4975-.0713,.0633-.1448,.1239-.217,.1861-.3653,.3143,.3423-.2319-.0548,.0418-.375,.2585-.7569,.4992-1.1641,.7045-.107,.0539-.2161,.103-.3237,.1555-.3338,.1629,.236-.0809,.0063-.003-.2273,.0771-.4496,.1651-.6798,.2345-.4121,.1242-.899,.2877-1.3327,.2952,.4933-.0085,.1455-.0238,.0237-.0132-.1191,.0103-.2384,.0184-.3578,.0239-.2385,.0108-.4775,.0117-.7161,.0029-.2252-.0083-.4898-.0772-.7126-.0573,.1216-.0109,.3577,.062,.0991,.0064-.1399-.0301-.2804-.0536-.4198-.0864-.2089-.0491-.4157-.1067-.6198-.1728-.1137-.0368-.225-.0803-.3382-.1181-.3851-.1285,.3426,.1586-.06-.0252-.934-.4265-2.1615-.2977-2.6917,.7058-.4565,.864-.2937,2.2353,.7058,2.6917h0Z"/></g><path d="M678.4261,447.7727c22.7258,1.7315,42.3753-11.2821,63.6705-16.6497,8.7633-2.2089,18.2874-3.3152,27.0714-1.4571,4.3674,.9239,8.2554,2.4404,11.9547,4.9374,3.6057,2.4338,7.1415,5.987,8.5481,10.279,.7645,2.3328,.8482,4.5616,.2115,6.7148-.5586,1.8891-1.7456,3.7221-3.3814,4.7255-.2436,.1494-.4937,.2877-.7507,.4127-.2004,.0951-.2062,.1012-.0173,.0182-.1921,.0721-.3868,.1366-.584,.1935-.1969,.057-.3968,.105-.597,.1484-.8784,.1904,.4626,.006-.4364,.0597-.5125,.0306-1.0342,.0308-1.5443-.0317,.4739,.0581-.1729-.0403-.2842-.0687-.3-.0764-.5965-.1564-.8938-.2429-.466-.1356-1.6358-.8133-1.9627-1.1264-.1444-.1383-.2838-.2781-.4206-.4235-.4175-.4438,.0355,.1292-.2669-.3425-.1343-.2095-.2597-.4245-.3684-.6485-.089-.1832-.0893-.1786-.0009,.0139-.0695-.1919-.1298-.3867-.1809-.5843-1.0362-3.6476-6.7327-2.0972-5.6912,1.569,1.3868,4.8817,6.3356,7.9515,11.3053,7.8022,5.5439-.1666,9.7617-4.2103,11.552-9.2443,3.9517-11.1113-5.5657-21.727-14.8125-26.4051-9.4616-4.7868-20.3065-5.2491-30.6364-3.8253-11.173,1.5399-21.5652,5.6674-32.0257,9.6903-12.6134,4.8509-25.722,9.6302-39.4582,8.5836-1.5911-.1212-2.951,1.4431-2.951,2.951,0,1.6977,1.3553,2.8294,2.951,2.951h0Z" style="fill:#6966ed;"/><path d="M624.3015,459.5695c19.0758,10.9207,40.9552,16.7876,62.9329,16.9576,6.2142,.0481,12.3981-.4122,18.5528-1.2527,1.5807-.2159,2.4431-2.24,2.0611-3.6301-.4684-1.7044-2.0445-2.2776-3.6301-2.0611-20.5915,2.8121-41.871,.0376-61.1955-7.5244-5.4302-2.1249-10.683-4.6891-15.7423-7.5855-3.3017-1.8902-6.2781,3.2074-2.9789,5.0962h0Z" style="fill:#6966ed;"/><path d="M61.7323,416.0555c15.4797,19.9878,37.686,34.5145,61.9438,41.4455,12.3366,3.5249,25.2086,5.0102,38.0213,4.4125,12.7825-.5963,27.9856-2.7396,38.0584,6.7433,2.1464,2.0207,3.8387,4.4241,4.6817,7.1593,.8417,2.7309,.7289,5.1713-.4087,7.9798-.8832,2.1804-2.7482,4.5712-4.7395,5.8579-2.2496,1.4536-4.3338,1.8545-6.7564,1.1339-3.6482-1.0851-5.2069,4.6092-1.569,5.6912,5.9418,1.7672,11.997-1.0318,15.6999-5.7413,3.8899-4.9474,5.3747-11.5,3.1228-17.4914-2.2545-5.9986-7.0083-10.6368-12.6433-13.5514-6.5052-3.3647-13.7539-4.3391-21.0055-4.3251-7.6094,.0148-15.1833,.9361-22.7983,.7617-6.4015-.1466-12.7222-.8474-18.986-2.1071-12.6705-2.5481-24.8558-7.1964-36.0086-13.724-12.51-7.322-23.5605-16.9536-32.4392-28.4182-.9767-1.2612-3.1466-1.0268-4.1733,0-1.2448,1.2448-.9793,2.9088,0,4.1733h0Z" style="fill:#6966ed;"/><path d="M86.4276,478.9987c3.6302,1.0372,7.2605,2.0744,10.8907,3.1116,1.4834,.4238,3.2785-.5175,3.6301-2.0611,.3581-1.5722-.4723-3.1762-2.0611-3.6301-3.6302-1.0372-7.2605-2.0744-10.8907-3.1116-1.4834-.4238-3.2785,.5175-3.6301,2.0611-.3581,1.5722,.4723,3.1762,2.0611,3.6301h0Z" style="fill:#6966ed;"/><path d="M891.5879,791.5497c4.7011-3.0599,9.4022-6.1199,14.1033-9.1798,1.2922-.8411,1.951-2.6535,1.0587-4.0375-.8321-1.2906-2.6537-1.9594-4.0375-1.0587-4.7011,3.0599-9.4022,6.1199-14.1033,9.1798-1.2922,.8411-1.951,2.6535-1.0587,4.0375,.8321,1.2906,2.6537,1.9594,4.0375,1.0587h0Z" style="fill:#6966ed;"/><path d="M920.3465,825.9463c2.593,.5186,5.1861,1.0372,7.7791,1.5558,.7845,.1569,1.5661,.1167,2.2739-.2975,.6121-.3582,1.1959-1.0601,1.3562-1.7636,.1721-.7554,.1348-1.6034-.2975-2.2739-.3997-.62-1.0146-1.2064-1.7636-1.3562-2.593-.5186-5.1861-1.0372-7.7791-1.5558-.7845-.1569-1.5661-.1167-2.2739,.2975-.6121,.3582-1.1959,1.0601-1.3562,1.7636-.1721,.7554-.1348,1.6034,.2975,2.2739,.3997,.62,1.0146,1.2064,1.7636,1.3562h0Z" style="fill:#6966ed;"/><path d="M872.6895,768.6533c-.1098-.936-.1341-1.8773-.0595-2.8172,.0195-.2456,.2072-1.0005-.0086-.0922,.0538-.2266,.0719-.4669,.1158-.6962,.083-.4334,.1859-.8628,.3077-1.287,.1222-.4254,.2733-.8379,.4223-1.2541,.1168-.2913,.0845-.2196-.097,.215,.0465-.108,.0944-.2155,.1435-.3224,.0983-.2137,.2018-.425,.3104-.6337,.2172-.4172,.455-.8237,.7126-1.2173,.129-.197,.2674-.3867,.4012-.5803,.1856-.2487,.1385-.1902-.1413,.1758,.073-.0923,.1471-.1837,.2225-.2741,.5112-.6214,.8643-1.2531,.8643-2.0867,0-.7238-.3215-1.5884-.8643-2.0867-1.0839-.995-3.1261-1.273-4.1733,0-2.9615,3.5999-4.6084,8.2702-4.0585,12.9569,.0949,.8088,.2662,1.4886,.8643,2.0867,.5118,.5118,1.3516,.8973,2.0867,.8643,.7632-.0342,1.5548-.2849,2.0867-.8643,.4935-.5376,.9534-1.3272,.8643-2.0867h0Z" style="fill:#6966ed;"/></svg>