<?xml version="1.0" encoding="UTF-8"?><svg id="Layer_2" xmlns="http://www.w3.org/2000/svg" width="1000" height="1000" viewBox="0 0 1000 1000"><g><path d="M633.7343,790.9578c-.2385-5.3258-1.988-10.8496-6.0315-14.5615-4.2243-3.8778-8.8491-5.5242-14.5616-6.0317-4.9531-.4399-9.9061-.8798-14.8592-1.3198-13.4801-1.1972-26.9603-2.3946-40.4405-3.592-19.9389-1.7709-39.8778-3.5419-59.8166-5.3129-24.3291-2.1608-48.6581-4.3217-72.9872-6.4827-26.6508-2.3671-53.3016-4.7343-79.9524-7.1014-26.9041-2.3895-53.8083-4.7792-80.7124-7.1689-25.0888-2.2284-50.1778-4.4568-75.2667-6.6853-17.4646-1.5512-34.9294-3.1024-52.3941-4.6536,10.6864-4.8324,21.3726-9.6648,32.0591-14.4972,28.6481-12.9549,57.296-25.9097,85.944-38.8645,24.9133-11.2659,49.8264-22.5319,74.7397-33.7978,12.0539-5.4507,24.4551-10.4557,36.2752-16.4039,.1619-.0814,.3315-.1499,.4967-.2246,1.3892-1.0734,2.7785-2.1466,4.1678-3.22,2.0081-1.8653,3.4275-4.0744,4.2579-6.6275,1.7268-4.0919,2.4443-9.0631,1.038-13.4086-2.8631-8.8471-10.4684-14.8265-19.8575-15.1187-8.1675-.2541-16.3351-.5081-24.5026-.7623-19.7118-.6132-39.4235-1.2265-59.1354-1.8397-23.7631-.7393-47.5262-1.4787-71.2893-2.2179-20.6177-.6415-41.2355-1.2829-61.8533-1.9243-9.9643-.31-19.948-.8315-29.9173-.9307-.1398-.0015-.2799-.0088-.4198-.0131-10.7771-.3353-21.0805,9.7116-20.5931,20.5931,.5125,11.4442,9.0465,20.2338,20.5931,20.5931,8.1675,.2541,16.3351,.5081,24.5026,.7623,19.7118,.6132,39.4237,1.2265,59.1354,1.8397,23.7631,.7393,47.5262,1.4787,71.2893,2.2179,1.0224,.0318,2.0447,.0637,3.0671,.0955-7.5176,3.3995-15.0351,6.7988-22.5527,10.1983-28.6479,12.9549-57.296,25.9097-85.944,38.8645-24.9133,11.2659-49.8264,22.5319-74.7397,33.7978-12.0538,5.4507-24.455,10.4557-36.2752,16.4039-.162,.0814-.3316,.1499-.4967,.2246-1.3892,1.0734-2.7785,2.1466-4.1678,3.22-2.0081,1.8653-3.4274,4.0744-4.2579,6.6275-1.7268,4.0919-2.4442,9.0631-1.038,13.4086,1.0992,3.3971,2.8817,6.4571,5.2959,9.0871,3.7817,4.1194,9.2479,5.5596,14.5616,6.0315,4.9531,.4399,9.9062,.8799,14.8592,1.3198,13.4802,1.1972,26.9604,2.3946,40.4406,3.592,19.9387,1.7709,39.8776,3.5419,59.8165,5.3129,24.329,2.1609,48.6581,4.3217,72.9873,6.4827,26.6507,2.3671,53.3016,4.7343,79.9523,7.1014,26.9041,2.3897,53.8082,4.7792,80.7124,7.1689,25.0889,2.2285,50.1778,4.4569,75.2667,6.6853,21.2052,1.8834,42.4105,3.7668,63.6158,5.6504,15.2531,1.3548,30.5063,2.7096,45.7595,4.0643,7.2301,.6422,14.4594,1.3841,21.6977,1.9273,.313,.0235,.6254,.0555,.938,.0833,4.9795,.4423,11.1451-2.6152,14.5616-6.0315,3.5717-3.5718,6.2613-9.4318,6.0315-14.5616Z" style="fill:#f4d13b;"/><polygon points="737.5852 182.8077 975 281.7102 735.1086 339.7009 737.5852 182.8077" style="fill:#f953b2;"/><ellipse cx="726.99" cy="800.6033" rx="127.7461" ry="55.3256" style="fill:#f4d13b;"/><ellipse cx="112.4908" cy="746.7866" rx="87.4908" ry="37.8914" style="fill:#f4d13b;"/><ellipse cx="112.4908" cy="746.7866" rx="41.8434" ry="18.122" style="fill:#fff;"/><ellipse cx="320.7995" cy="609.499" rx="72.275" ry="31.3016" style="fill:#f4d13b;"/><ellipse cx="320.7995" cy="609.499" rx="27.8956" ry="12.0813" style="fill:#fff;"/><path d="M808.5173,800.6033c-.0031,.3461-.0338,.6845-.0642,1.0287,.0676-.7663-.0652,.2263-.1402,.5063-.0919,.3433-.2145,.6719-.333,1.0062-.1495,.4219,.2159-.4205,.0041-.0205-.0987,.1864-.1843,.3798-.2844,.5658-.1809,.3361-.3794,.6627-.5909,.9803-.0937,.1407-.193,.2772-.2891,.4161-.065,.0939-.1361,.1848-.2045,.276,.0965-.1286,.2599-.3228,.062-.0882-.5605,.6646-1.1488,1.2966-1.7875,1.8873-.3434,.3176-.6972,.624-1.0588,.9207-.1606,.1318-.3228,.2619-.4866,.3897,.3935-.3069-.2414,.1747-.354,.2563-.8625,.6253-1.757,1.2059-2.6714,1.7522-2.0877,1.2472-4.2805,2.3232-6.517,3.2757-11.8404,5.0429-25.5824,7.5081-38.5464,8.9527-16.8913,1.8822-34.0323,2.0421-50.9638,.5933-13.8667-1.1865-27.9539-3.3941-41.0774-8.1788-4.4148-1.6096-8.8384-3.5813-12.7786-6.459-.0787-.0575-.5409-.4039-.3489-.2565,.1944,.1493-.3193-.2558-.4041-.3255-.3866-.3174-.7643-.6458-1.1299-.9872-.6342-.592-1.2144-1.2255-1.7715-1.8894-.0939-.112,.241,.3509-.0367-.0503-.1124-.1624-.2301-.3208-.3396-.4852-.2263-.3398-.4373-.6899-.6283-1.0508-.0739-.1397-.1371-.2862-.2133-.4244-.291-.5278,.1157,.347-.0297-.0504-.1304-.3566-.2565-.7105-.3517-1.0785-.0711-.2747-.1888-1.1973-.1214-.434-.0325-.3688-.0668-.7315-.0635-1.1024,.0029-.3205,.0354-.6361,.0635-.9549-.0397,.4496-.0573,.3291,.0204,.0009,.0459-.1937,.0866-.3874,.1398-.5795,.0879-.3177,.203-.6237,.313-.934,.1422-.4013-.2382,.4355,.0297-.0504,.102-.185,.1876-.3797,.2892-.5653,.1704-.3113,.3556-.6145,.5523-.9099,.1095-.1644,.2273-.3229,.3396-.4852,.3235-.4674-.2451,.2552,.1484-.1871,.581-.6531,1.1579-1.2932,1.8034-1.8852,.3206-.2941,.6501-.5785,.9864-.8545,.1048-.086,.577-.4583,.4041-.3255-.1595,.1225,.4215-.3096,.525-.3842,1.8172-1.3077,3.7677-2.425,5.7689-3.4248,11.0285-5.5097,24.1592-8.103,36.5025-9.8248,16.6278-2.3194,33.5975-2.7294,50.3432-1.7005,14.5044,.8912,29.162,2.8583,43.055,7.2544,5.0314,1.5921,9.6168,3.3493,14.1396,6.0686,.9098,.547,1.7994,1.1285,2.6569,1.7547,.1212,.0885,.6418,.4848,.2664,.1923,.1908,.1487,.3791,.3007,.5655,.4549,.3591,.2971,.7104,.6038,1.051,.9219,.6343,.5923,1.2134,1.226,1.7715,1.8894,.2201,.2616-.2646-.3606-.0655-.0878,.0505,.0692,.104,.1366,.1528,.2071,.112,.1618,.2267,.3212,.3349,.4858,.2091,.3179,.4045,.6448,.5825,.9812,.0864,.1633,.1632,.3308,.247,.4953,.1964,.3855-.1664-.5171,.0235,.051,.1042,.3116,.2202,.6164,.3054,.9347,.0645,.2409,.2121,1.3209,.1402,.5063,.0303,.3438,.0611,.6828,.0642,1.0287,.0284,3.1787,4.9708,3.1864,4.9424,0-.0774-8.6786-9.4892-14.0261-16.3934-17.0849-12.8089-5.6747-26.9173-8.2351-40.7545-9.8425-17.5929-2.0437-35.4748-2.2069-53.1115-.6177-14.4062,1.2982-29.1444,3.5715-42.7084,8.7867-4.8596,1.8685-9.6175,4.105-13.7339,7.3304-2.8642,2.2443-5.5512,5.2279-6.3953,8.8685-1.9558,8.4355,6.0656,14.5439,12.6036,17.9695,11.6477,6.103,25.0841,8.8684,37.9926,10.7077,17.5035,2.494,35.3032,3.0514,52.9421,1.9208,15.1641-.9719,30.5969-3.0332,45.068-7.8336,5.1307-1.702,10.2737-3.7589,14.8453-6.6782,3.2996-2.107,6.6813-4.8267,8.4037-8.4409,.7666-1.6087,1.2258-3.2945,1.2418-5.086,.0284-3.1811-4.9139-3.184-4.9424,0Z" style="fill:#fff;"/><ellipse cx="726.7569" cy="800.6033" rx="32.9467" ry="10.2123" style="fill:#fff;"/><path d="M718.0405,170.4918h19.5447V774.9056c0,5.3935-4.3788,9.7724-9.7724,9.7724h0c-5.3935,0-9.7724-4.3788-9.7724-9.7724V170.4918h0Z" style="fill:#6966ed;"/><path d="M716.6946,434.1811c-14.5592,7.9323-23.4859,22.153-35.8934,32.6589-6.5933,5.5827-14.3785,9.6017-22.9842,10.8703-10.1123,1.4907-20.545-.9229-29.6326-5.3747-19.6108-9.607-33.1346-28.3099-45.5406-45.626-5.9201-8.2632-11.5144-16.767-17.6057-24.9058-5.3585-7.1597-10.8917-14.1932-15.8565-21.6382-4.8389-7.2562-9.5118-15.0282-11.7313-23.5386-1.0049-3.8532-1.9855-9.0483-.0651-12.7576,.3326-.6424,2.0872-3.3877,3.0661-3.2284-.2243-.0365,.5689,1.3514,.7529,1.9602,.7228,2.3903,.8439,4.963,.9214,7.4434,.1681,5.3808,.5076,10.723,1.0763,16.0779,1.2139,11.4298,2.4636,22.8891,4.3984,34.2225,7.8707,46.104,25.3415,89.7464,39.8481,133.9971,14.9847,45.709,27.044,92.3777,36.0994,139.6199,4.6368,24.1903,8.5748,48.5153,13.0482,72.7374,.8917,4.8283,1.516,9.9676,3.9046,14.3435,2.4146,4.4235,6.5093,6.0922,10.2213,9.1361,7.2563,5.9503,9.0718,18.3185,1.7128,24.9198-2.7906,2.5033-6.3678,4.0301-9.7034,5.6533-4.5448,2.2116-8.9712,4.6608-13.4706,6.9629-8.8612,4.5336-17.9199,8.7555-27.5456,11.4016-10.0785,2.7705-21.6135,4.3633-31.9838,2.3834-10.592-2.0222-17.3349-10.6398-21.7882-19.8912-8.238-17.1137-9.6052-37.5833-10.5816-56.2786-.6006-11.4997-.5765-23.0149-1.3546-34.5174-.7389-10.9209-1.764-21.8218-3.0362-32.6934-4.34-37.0877-11.7089-73.6516-19.6693-110.104-2.6231-12.0116-5.4196-24.0284-7.3322-36.1796-.5932-3.7688-1.1151-7.5905-1.1334-11.4127-.0115-2.3913,.1644-4.2767,.9945-5.7295-.2105,.3684,.4262-.2928,.1087-.0908,.389-.2474-.2205,.0514,.5489-.1677-.4668,.1329,.4133,.1176,.2314,.0539,.8455,.2962,.3135,.0196,.8785,.3529,1.5001,.885,2.9712,3.304,4.0325,5.481,3.9506,8.1037,5.5008,17.5889,6.8023,26.4216,4.2623,28.9257,3.4302,59.0765-.6504,87.9642-2.2691,16.0634-5.7095,32.0099-10.8374,47.4131-2.5106,7.5415-5.4349,14.9463-8.9144,22.0953-3.9737,8.1645-8.9965,15.7289-13.1716,23.7845-7.669,14.7968-13.3597,30.7955-14.3958,47.5341-.6508,10.5139,1.0742,20.6952,2.3161,31.0827,.953,7.9709,.8147,15.7177-4.3472,22.3118-9.4373,12.0557-26.0767,9.1577-39.0375,5.4641-9.0397-2.5761-17.7805-6.1516-26.2807-10.1404-4.0074-1.8806-7.9673-3.8619-11.8853-5.9221-3.9038-2.0527-7.9875-3.9728-11.1741-7.0886-6.16-6.0232-8.7496-15.1003-6.6565-23.463,1.3022-5.2028,4.7907-9.6165,7.2995-14.3007,2.616-4.8844,5.0007-9.8881,7.3073-14.9247,4.5591-9.9548,9.0013-19.9456,13.8176-29.7809,4.6311-9.4572,9.3277-18.8884,13.4464-28.5842,8.1729-19.2399,13.9998-39.9158,11.1966-60.9785-2.8152-21.1525-11.7932-40.7494-18.7086-60.7457-3.5499-10.2647-6.5779-20.7413-8.0768-31.5197-1.6329-11.7424-2.2787-23.6444-2.1229-35.495,.3149-23.9642,4.161-47.7209,10.8167-70.724,6.3115-21.8139,14.757-44.1434,13.2012-67.2392-.4714-6.9974-1.2004-20.4212-9.9046-22.5107-9.3183-2.2369-13.8566,9.9712-12.9841,17.1225,1.1725,9.6102,8.8281,16.4233,16.4275,21.5292,8,5.375,17.2129,9.3977,26.8366,10.5413,4.4677,.5309,9.0131,.377,13.4001-.6637,4.8421-1.1487,8.8779-3.5958,13.0678-6.1729,3.5243-2.1677,10.3217-5.5065,13.2996-.6352,2.2934,3.7516-.1853,9.1715-2.0852,12.5317-.9635,1.7041,.2786,3.6029,2.1338,3.7184,9.0622,.5645,18.1574,.9446,27.2056,1.6995,2.9141,.2431,7.2867,.7772,7.6837,4.4131,.27,2.473-1.4024,5.6116-4.069,5.8745-2.6563,.2618-3.4952,4.042-.6569,4.8541,5.8748,1.6808,4.8111,9.1063-.9038,10.0079-2.6505,.4181-2.021,4.0176,0,4.7658,5.6838,2.1043,4.4373,9.4862-1.0823,10.6902-2.6889,.5865-2.1411,5.0543,.6569,4.8541,3.9315-.2814,3.4407,5.7203,1.284,7.5366-3.4311,2.8896-8.9132,2.3686-13.0746,2.2057-6.8223-.267-13.6421-.6185-20.4542-1.0779-15.162-1.0226-30.3009-2.5841-45.2903-5.1118-29.7922-5.024-60.4354-13.5758-85.0749-31.7406-27.1072-19.984-46.1898-56.4532-32.3506-89.771,12.9825-31.2551,45.6025-53.3196,78.5048-58.0297,13.2038-1.8902,26.966-2.7417,39.3445-8.1266,5.534-2.4074,10.5955-5.8807,14.2745-10.7164,4.7792-6.2819,6.3518-14.0052,6.8097-21.7463,.3478-5.8799,.0145-11.7691,.0187-17.6528,.0019-2.6448,.1757-5.2911,.0863-7.9345-.0931-2.7528-.4086-5.5203,.0655-8.2522,.9445-5.4427,4.131-10.3796,7.2424-14.8323,2.9962-4.2878,6.4204-8.054,11.2802-10.2173,16.5349-7.3604,36.8883-.1655,46.6724,14.503,6.7632,10.1396,10.1789,23.5823,6.8887,35.5468-1.5529,5.6468-4.7739,10.797-9.5726,14.2378-2.7403,1.9649-5.8319,3.3473-9.0737,4.2462-3.7373,1.0362-7.3797,2.3918-9.4919,5.9077-4.6769,7.7847,3.8808,14.144,10.7732,15.4108,3.971,.7299,8.0045,.6968,12.0194,.9469,5.0793,.3164,10.1349,1.6556,14.9849,3.1438,20.0808,6.1616,36.6935,19.0862,50.4075,34.699,6.9738,7.9393,13.1094,16.5095,19.1748,25.1479,6.5073,9.2678,12.9217,18.605,18.9994,28.1617,6.0598,9.5287,11.8139,19.2764,16.9215,29.3519,2.5538,5.0378,4.9101,10.253,6.0012,15.8278,.1886,.9638,1.0997,3.4934-.6987,3.3272-.798-.0738-1.9524-2.1758-2.3406-2.8193-1.2787-2.1198-1.9054-4.5907-2.0291-7.0504-.5187-10.3189,7.5374-19.6584,14.1021-26.7752,6.8465-7.4223,14.7611-13.8017,23.4934-18.8751,9.0331-5.2481,18.7854-9.0175,27.7189-14.497,4.5188-2.7717,8.8996-5.7668,13.1231-8.9705,1.9597-1.4865,3.9263-3.5814,6.5451-3.6174,2.1703-.0299,4.2642,1.2615,5.2351,3.2045,2.502,5.007-3.9343,9.3599-6.9875,12.413-1.5384,1.5384-.3754,4.1727,1.7474,4.2186,7.7733,.168,15.6858-.1072,23.4347,.5065,7.9849,.6324,7.2533,9.5672,7.2533,15.3992,0,3.0667,.0343,8.0947-4.2425,7.614-3.1557-.3547-3.1304,4.5905,0,4.9424,10.2627,1.1536,9.3519-12.4235,9.1849-18.9571-.1694-6.6257-4.2616-13.2649-11.3558-13.899-3.6114-.3228-7.3133-.1817-10.935-.26-4.4465-.0961-8.893-.1922-13.3396-.2883l1.7474,4.2186c3.8054-3.8054,9.0321-7.5771,9.0054-13.4892-.0413-9.171-10.6189-13.2409-17.4964-8.0542-9.5999,7.2398-19.5377,13.7201-30.4208,18.8921-9.8838,4.6971-19.1406,9.7599-27.5736,16.8229-8.151,6.8269-16.0599,15.1622-21.2102,24.5375-4.5132,8.2156-6.1485,19.2726,.4971,26.9045,2.721,3.1248,7.7479,5.161,10.2308,.5504,2.1625-4.0156-.6017-10.7338-2.0557-14.6079-4.2456-11.312-10.7642-21.9778-17.0411-32.2552-6.5458-10.7176-13.5802-21.1273-20.7642-31.4249-6.3793-9.1441-12.7684-18.2932-19.9618-26.8246-14.3673-17.0394-31.9478-31.3056-53.3648-38.3025-5.1229-1.6736-10.4813-3.1265-15.8545-3.6853-4.6966-.4884-9.5258-.1049-14.1464-1.2121-4.7577-1.1401-10.422-6.1233-4.3024-9.9885,3.2263-2.0378,7.6155-2.3813,11.0832-4.1577,12.3276-6.3149,17.5855-20.0164,16.6163-33.3034-.9861-13.5172-7.3484-27.2537-18.096-35.7394-15.5888-12.308-41.8064-13.6562-54.8022,3.0372-3.4446,4.4246-6.5795,9.2313-8.6276,14.4714-2.1612,5.5293-1.4963,10.7097-1.5825,16.4864-.1729,11.5885,1.6973,24.5767-2.4168,35.6676-5.1855,13.9792-20.8124,18.2554-34.0596,20.5435-14.7537,2.5483-29.5368,3.1464-43.5335,8.9284-18.1734,7.5074-34.8197,19.2858-46.9152,34.8916-5.9802,7.7158-10.7752,16.3369-13.8499,25.6182-3.4191,10.321-3.518,21.4754-1.6695,32.1125,3.0447,17.5203,12.0764,33.5863,24.4137,46.2618,23.1074,23.7408,56.1997,35.3296,87.9468,41.8812,16.3687,3.378,32.9925,5.4867,49.6418,6.8673,7.7802,.6452,15.5734,1.1257,23.3715,1.4915,7.6001,.3565,18.7406,2.2004,24.0224-4.8222,3.8214-5.081,1.282-15.0693-6.1115-14.5402l.6569,4.8541c10.699-2.3337,10.9755-16.559,1.0823-20.2218v4.7658c10.7994-1.7036,11.1137-16.6184,.9038-19.5395l-.6569,4.8541c7.6991-.7589,12.2796-11.0863,6.3516-16.7992-3.8153-3.6769-9.9946-3.3794-14.8838-3.684-7.4294-.4628-14.8588-.9256-22.2881-1.3885l2.1338,3.7184c3.6966-6.5382,6.3655-17.4-2.2797-21.3954-9.7279-4.4957-18.3095,6.0571-27.0881,8.2939-10.4809,2.6705-21.7198-.6719-30.9735-5.6666-8.6131-4.649-19.9396-12.1316-20.1013-23.0949-.0563-3.8171,4.1649-14.1439,9.0458-8.7841,3.3311,3.658,3.6534,10.5879,4.0389,15.2095,1.0146,12.1643-1.0044,24.2935-3.9573,36.0626-2.976,11.8614-6.9086,23.4506-10.158,35.2353-3.2682,11.8528-5.7468,23.9151-7.4067,36.0977-3.2367,23.7561-3.5606,48.3091,.4186,72.0048,3.7274,22.1958,13.6002,42.6069,20.3844,63.9113,3.3618,10.5572,6.1469,21.5109,6.4284,32.6387,.2858,11.2988-1.8336,22.4588-5.2145,33.2033-6.6512,21.1375-17.8067,40.4607-26.9517,60.5486-4.8345,10.6196-9.3793,21.3983-15.0767,31.5974-2.5264,4.5225-5.4679,8.6084-6.5816,13.7553-.8745,4.0417-.8942,8.1988-.0882,12.2523,1.676,8.429,7.1349,15.6306,14.5576,19.8615,8.0271,4.5754,16.4187,8.6494,24.9034,12.2974,14.9242,6.4167,33.3349,13.6841,49.8533,9.8479,10.0634-2.3371,18.2327-11.2102,20.0581-21.3755,1.6018-8.9203-.7608-18.041-1.7512-26.8989-1.5309-13.6916-.3546-27.1707,3.7522-40.3476,3.1395-10.0729,7.6573-19.6573,12.8567-28.8211,4.2461-7.4836,8.6339-14.7472,12.1395-22.6265,6.767-15.2101,11.4695-31.2685,14.7696-47.5665,6.303-31.1288,8.1933-63.5866,5.3009-95.2267-1.0232-11.193-2.516-22.5989-5.9271-33.3474-1.6662-5.2504-4.323-13.6209-10.2965-15.5173-14.969-4.7523-6.1931,30.1195-5.2116,35.0515,6.6914,33.6249,14.7504,66.9121,20.1727,100.7922,3.5794,22.3652,6.2649,44.88,7.7049,67.4877,1.3558,21.2851,.9557,42.6038,4.4363,63.7179,2.899,17.5857,9.7054,41.446,28.4585,48.1778,9.8222,3.5258,21.7158,2.332,31.7686,.4395,9.9738-1.8776,19.462-5.6003,28.5949-9.9502,8.7968-4.1898,17.7178-8.5624,26.2176-13.3279,7.3058-4.0961,11.8604-10.9239,11.3607-19.5363-.2669-4.5992-1.9006-9.0282-4.6939-12.6905-3.1033-4.0687-8.1131-5.6501-11.2784-9.4753-3.5996-4.35-3.9787-11.1344-4.9611-16.4602-1.1466-6.2158-2.2832-12.4335-3.4054-18.6537-4.4922-24.8994-8.5594-49.8629-13.8103-74.6197-5.191-24.4744-11.1928-48.7767-17.9915-72.8541-6.6476-23.542-14.1871-46.7917-22.1358-69.9229-7.9027-22.9973-15.9523-45.9701-22.4245-69.4225-6.586-23.8649-10.6031-47.9081-13.2127-72.504-.5827-5.4921-.8855-10.9642-1.0889-16.4802-.0963-2.6111-.3023-5.2902-.9459-7.8297-.5795-2.2869-1.6386-4.8749-4.0034-5.7911-2.7519-1.0661-5.3864,.8671-7.1614,2.8249-5.7054,6.2929-3.4782,16.4309-.8236,23.6156,3.2259,8.7309,8.2601,16.6921,13.5885,24.2732,5.1173,7.2808,10.716,14.2031,15.9069,21.4288,6.6334,9.2336,12.9251,18.7039,19.7089,27.8317,12.7819,17.1986,26.8516,34.5568,47.2664,42.7874,18.0202,7.2653,37.2354,4.8425,52.3921-7.3637,12.7718-10.2855,21.5466-24.9844,36.2053-32.9709,2.7939-1.5222,.3022-5.7913-2.4945-4.2676h0Z"/><g><path d="M506.6136,252.0339c-9.2602,2.3151-10.9367,1.7189-14.8819,1.5684-3.9452-.1505-7.9729-1.2462-10.9932-3.7888,4.9072,4.2991,9.6697,11.0177,18.9299,12.4067,0,0-5.0931-8.7972,6.9452-10.1863Z"/><path d="M505.9566,249.651c-3.9951,.9911-7.3506,1.8019-11.36,1.6321-4.2252-.179-8.679-.4163-12.1108-3.217-1.0331-.8432-2.4841-1.0107-3.4948,0-.9002,.9002-1.0043,2.6075,0,3.4948,2.7587,2.4371,5.2023,5.2085,8.0918,7.5013,3.5132,2.7878,7.4641,4.8293,11.9285,5.5409,2.0442,.3258,3.9466-1.6147,2.7907-3.6302-.0567-.0989-.1087-.2009-.1581-.3036-.0562-.1166-.2753-.6085-.0757-.1465,.2104,.4869-.0459-.125-.0859-.2452-.138-.4147-.2406-.8304-.3496-1.2528-.1906-.7385-.0342,.3824-.0442-.2897-.0038-.2564-.0054-.5159-.0129-.772-.018-.6088-.1589,.3171,.0333-.2937,.0834-.2653,.1411-.532,.2423-.7929-.2231,.575,.1217-.1391,.2452-.3371,.3007-.4821-.2164,.2184,.0201-.0177,.117-.1168,.2303-.2385,.3471-.356,.0507-.0511,.5651-.436,.1658-.1522,.1239-.088,.253-.18,.3864-.2529,.2181-.1192,.427-.2463,.6506-.3559,.303-.1486,.0786-.0447,.2835-.1257,1-.3956,2.0981-.6415,3.1637-.7737,1.3242-.1644,2.4712-1.0181,2.4712-2.4712,0-1.2078-1.1376-2.6367-2.4712-2.4712-4.395,.5455-9.5448,2.2571-10.3522,7.2698-.3603,2.2367,.1445,4.6668,1.2732,6.6349l2.7907-3.6302c-3.8347-.6112-7.2668-2.2224-10.2627-4.6856-2.676-2.2001-4.9838-4.7949-7.5767-7.0856l-3.4948,3.4948c2.5691,2.0967,5.5548,3.4762,8.8227,4.0735,2.1214,.3877,4.279,.4661,6.4282,.5742,4.415,.2222,8.7672-.7346,13.0285-1.7918,3.0854-.7655,1.7784-5.533-1.3139-4.7658Z"/></g><path d="M716.5897,371.8497c-5.4378,.146-9.1766,5.0455-9.1849,10.2665s3.7584,10.1208,9.1849,10.2665v-4.9424c-5.4378,.146-9.1766,5.0455-9.1849,10.2665-.0082,5.2222,3.7584,10.1208,9.1849,10.2665v-4.9424c-5.07,.1361-8.5976,4.3463-9.1201,9.1791-.5074,4.6938,2.2728,9.9245,7.0733,11.0963,1.3571,.3313,2.762,.2576,4.1462,.2576h6.6661c9.6382,0,19.299,.1993,28.9352,0,5.2095-.1077,8.8207-4.5663,9.1906-9.5369,.4058-5.4533-3.4728-10.8435-9.1558-10.996v4.9424c5.4379-.146,9.1766-5.0455,9.1849-10.2665s-3.7584-10.1208-9.1849-10.2665v4.9424c5.4379-.146,9.1766-5.0455,9.1849-10.2665s-3.7584-10.1208-9.1849-10.2665c-3.1816-.0854-3.1795,4.857,0,4.9424,5.572,.1496,5.575,10.4986,0,10.6482-3.1793,.0854-3.1847,4.8569,0,4.9424,5.572,.1496,5.575,10.4986,0,10.6482-3.1793,.0854-3.1847,4.8569,0,4.9424,5.6545,.1518,5.5383,10.7208-.1732,10.6482-3.2269-.041-6.4569,0-9.684,0h-27.2396c-1.9677,0-3.5366-.8217-4.3994-2.8367-1.3185-3.0795,.2304-7.7167,3.7607-7.8115,3.1793-.0854,3.1847-4.8569,0-4.9424-5.572-.1496-5.5749-10.4986,0-10.6482,3.1793-.0854,3.1847-4.8569,0-4.9424-5.572-.1496-5.5749-10.4986,0-10.6482,3.1742-.0852,3.1868-5.0279,0-4.9424h0Z"/><path d="M744.3705,356.2591c-8.6998,0-17.3996,0-26.0994,0-1.8559,0-3.5908,.0433-5.3336,.8525-4.0111,1.8624-5.96,6.6074-5.4237,10.8299,.5666,4.4615,3.8119,8.3869,8.4476,8.8169,1.4807,.1373,3.0081,.0337,4.492,.0337h14.8883c3.1802,0,3.1854-4.9424,0-4.9424h-17.9598c-1.9361,0-3.4405-.6072-4.4049-2.5384-1.2891-2.5815-.5876-6.5457,2.1628-7.8005,.9684-.4418,2.1679-.3093,3.327-.3093h14.2503c3.8845,0,7.7689,0,11.6534,0,3.1802,0,3.1854-4.9424,0-4.9424h0Z"/><path d="M716.3582,392.3826h18.9835c3.1802,0,3.1854-4.9424,0-4.9424h-18.9835c-3.1802,0-3.1854,4.9424,0,4.9424h0Z"/><path d="M716.5897,407.9732h18.9835c3.1802,0,3.1854-4.9424,0-4.9424h-18.9835c-3.1802,0-3.1854,4.9424,0,4.9424h0Z"/><path d="M486.9331,454.1578c7.4452,.5247,14.8904,1.0494,22.3356,1.574,1.0608,.0748,2.1215,.1495,3.1823,.2243,1.3329,.0939,2.4712-1.203,2.4712-2.4712,0-1.4156-1.1344-2.377-2.4712-2.4712-7.4452-.5247-14.8904-1.0494-22.3356-1.574-1.0608-.0748-2.1215-.1495-3.1823-.2243-1.3329-.0939-2.4712,1.203-2.4712,2.4712,0,1.4156,1.1344,2.377,2.4712,2.4712h0Z"/><path d="M487.051,439.3129c7.4452,.5247,14.8904,1.0494,22.3356,1.574,1.0608,.0748,2.1215,.1495,3.1823,.2243,1.3329,.0939,2.4712-1.203,2.4712-2.4712,0-1.4156-1.1344-2.377-2.4712-2.4712-7.4452-.5247-14.8904-1.0494-22.3356-1.574-1.0608-.0748-2.1215-.1495-3.1823-.2243-1.3329-.0939-2.4712,1.203-2.4712,2.4712,0,1.4156,1.1344,2.377,2.4712,2.4712h0Z"/><path d="M489.5107,424.169c7.4452,.5247,14.8904,1.0494,22.3356,1.574,1.0608,.0748,2.1215,.1495,3.1823,.2243,1.3329,.0939,2.4712-1.203,2.4712-2.4712,0-1.4156-1.1344-2.377-2.4712-2.4712-7.4452-.5247-14.8904-1.0494-22.3356-1.574-1.0608-.0748-2.1215-.1495-3.1823-.2243-1.3329-.0939-2.4712,1.203-2.4712,2.4712,0,1.4156,1.1344,2.377,2.4712,2.4712h0Z"/><ellipse cx="727.8798" cy="170.7596" rx="9.9062" ry="3.4806"/><path d="M458.6292,768.5817c-3.1463,.7246-5.7395,3.0719-7.0376,5.9958-1.4708,3.3129-1.3206,6.8855,.1148,10.186,1.3359,3.0716,3.8693,6.113,6.8945,7.64,3.6338,1.8342,8.1859,.3201,8.6421-4.0411,.104-.9937-.8359-2.1977-1.8142-2.3829-3.4472-.6526-6.3383,.9882-8.2585,3.8145-1.8875,2.7782-2.2791,6.1474-1.7933,9.3992,.9701,6.4941,5.7509,12.0088,11.9058,14.1408,1.2611,.4368,2.7026-.4986,3.0398-1.726,.3735-1.3592-.4603-2.6014-1.726-3.0398-4.1011-1.4206-7.1757-5.1048-8.1854-9.2815-.4478-1.8526-.5047-3.8774,.2669-5.6542,.6208-1.4294,1.9538-3.1679,3.4368-2.8871l-1.8142-2.3829c.0608-.5812,.2425-.1877-.1304-.1224-.3409,.0596-.3328,.0921-.6898,.0134-.9694-.2139-1.8367-1.021-2.5325-1.6839-1.494-1.4233-2.6905-3.1706-3.2251-5.1798-.8795-3.3055,.6744-7.2254,4.2203-8.0421,3.0982-.7135,1.7869-5.4799-1.3139-4.7658h0Z"/><path d="M627.2583,748.7936c-.2161-3.5108-4.2367-5.3021-7.2126-3.5904-3.2487,1.8687-3.3377,6.3709-3.3234,9.6623,.0162,3.7436,.8648,7.4581,3.3789,10.3294,2.1634,2.4708,5.8632,4.0562,9.0906,2.8764,4.2412-1.5504,4.8631-7.4115,.4592-9.1632-.7991-.3178-1.8274,.0682-2.4043,.6355-3.8628,3.7989-2.6383,10.1372,1.0037,13.6405,4.6624,4.4849,11.8276,3.597,17.5398,2.1476,3.081-.7818,1.7754-5.5497-1.3139-4.7658-3.7431,.9498-8.9319,2.0655-12.271-.4656-1.2197-.9245-1.9569-2.2698-2.3092-3.6893-.3089-1.2446-.084-2.4587,.8454-3.3727l-2.4043,.6355c-.0697-.0277-.53-.4069-.5081-.4035,.0878,.0136,.0477,.0686-.2346,.143-.7182,.1894-1.4496,.0941-2.1297-.2132-1.7281-.7809-2.8246-2.6029-3.3186-4.3578-.6596-2.3434-.642-5.0321-.3204-7.4348,.0709-.5296,.3144-1.6078,.5425-1.8628,.0044-.0049,.3417-.1771,.22-.0564,.1448-.1436,.2895,.2642,.1241,.0393-.1651-.2245-.3775-.4256-.3964-.7341,.1945,3.1598,5.1382,3.1818,4.9424,0h0Z"/><g><path d="M467.2061,205.6564c-3.0503,.8012-5.5095,3.5093-6.0139,6.6225-.4275,2.6392,.4598,5.3341,1.755,7.673,2.3085,4.1686,6.8395,7.3308,6.06,12.617-.4424,2.9996-2.5259,5.7047-5.3132,6.8981-2.515,1.0768-6.2166,.3535-6.7791-2.3239-.1026,1.9056-1.5676,3.6041-3.3849,4.1863-1.8174,.5822-3.8831,.1216-5.4232-1.0054-.9563-.6998-1.7501-1.6806-2.0203-2.8344-.2849-1.2163,.028-2.4803,.2295-3.7132,1.2868-7.8712-1.9971-15.6705-4.7742-23.1471-2.7771-7.4766-5.0862-15.9058-1.98-23.2517,.8151-1.9277,2.0282-3.747,3.7666-4.9125,1.7384-1.1655,4.058-1.5847,5.9699-.7331-.807-1.4719-2.0838-2.6757-2.6994-4.2373s-.192-3.7731,1.4229-4.231c1.9064-.5405,3.381,1.6402,4.163,3.4609,.0401-2.3005,.5904-4.5908,1.6-6.6584,.2887-.5914,.6456-1.1959,1.2283-1.5017,1.2449-.6531,2.8189,.5041,3.1319,1.8746s-.2251,2.7764-.7535,4.0791c12.8655-11.118,28.9069-18.1996,45.5126-21.8573,6.7967-1.4971,13.9872-2.4266,20.6372-.374,2.6379,.8142,5.3333,2.2975,6.3612,4.8597s-.6563,6.1719-3.416,6.0992c3.38-1.1954,7.4594,.2914,9.416,3.2955s1.7229,7.2202-.421,10.0937-6.0011,4.2985-9.5325,3.6801c3.7439,.7229,6.8492,4.0058,7.3629,7.7842,.2072,1.5238-.0134,3.1874-.9993,4.3677-.7127,.8532-1.7487,1.3695-2.7937,1.7488-6.7137,2.4369-11.0315-1.9156-17.2722-1.9151-7.4627,.0005-14.9494,1.5635-21.8025,4.5108-2.1569,.9276-4.4171,2.1572-5.3449,4.3141-.4805,1.117-.5439,2.366-.5232,3.5818,.1062,6.247,2.0508,13.2345-1.6831,18.244,1.2655-1.6979-4.3147-10.5208-5.3187-12.0467-2.3578-3.5835-5.704-6.4732-10.368-5.2481Z"/><path d="M466.5491,203.2735c-3.3534,.9648-6.0022,3.4281-7.2672,6.6701-1.4521,3.7214-.3386,7.8984,1.5315,11.2555,1.4494,2.6019,3.6653,4.6897,5.0553,7.3273,1.2816,2.4319,.8188,5.2779-1.1022,7.2434-.9521,.9741-2.1915,1.6895-3.418,1.7046-.47,.0058-1.0479-.0808-1.3323-.205-.5942-.2593-.6054-.3451-.7185-.7832-.7377-2.8591-4.5937-1.985-4.8541,.6569-.1483,1.5044-1.9379,2.1462-3.2117,1.9198-.7332-.1303-1.4405-.4966-1.9873-.9932-.7972-.724-.8738-1.5346-.7307-2.5687,.3551-2.5667,.6846-5.0115,.4606-7.6105-.2154-2.4996-.7035-4.9704-1.38-7.3843-2.5424-9.0709-8.2743-18.3426-6.8845-28.0931,.5209-3.6544,3.0777-10.2357,7.9311-8.2982,2.0892,.834,3.787-1.9091,2.7907-3.6302-.5862-1.0126-1.3442-1.8982-1.9763-2.8792-.4875-.7565-.5791-1.2932-.6368-1.8398-.0217-.205,.1836-.3482-.0707-.1377-.0304,.0251-.2078,.0423-.2158,.0132,.0363,.1314,.5826,.607,.7122,.7961,.3257,.4752,.5723,1.0101,.8064,1.5346,1.0597,2.3742,4.5346,1.002,4.605-1.2473,.034-1.0881,.1711-2.1244,.4546-3.1777,.1488-.553,.3198-1.1086,.538-1.6387,.0592-.1438,.6341-1.0778,.5873-1.179,.0421,.091-.7416,.163-.6923,.0646,.054-.1078,.2203,.2455,.2185,.3022-.0312,.9816-.3893,1.8573-.7535,2.7652-.4005,.9987,.2681,2.2833,1.1357,2.7907,.9948,.5818,2.156,.3347,2.9946-.3864,8.3171-7.1509,18.0451-12.6312,28.3006-16.4748,5.1839-1.9428,10.5101-3.5014,15.914-4.7009,5.7617-1.2789,11.9038-2.236,17.7453-.8984,2.2113,.5063,5.0418,1.3023,6.2756,3.4061,.4913,.8377,.4832,1.4388,.1505,2.2507-.103,.2514-.2956,.536-.5125,.736-.0936,.0863-.1933,.1834-.5261,.1904,.219,1.618,.438,3.2361,.6569,4.8541,3.8368-1.2512,7.6471,1.6252,7.6228,5.6383-.0254,4.199-4.0641,7.2992-8.1604,6.6652-1.3173-.2039-2.6576,.3348-3.0398,1.726-.3387,1.2327,.4154,2.7575,1.726,3.0398,2.3091,.4975,4.3037,2.0307,5.1974,4.2617,.3432,.8569,.5293,1.8745,.3874,2.7953-.1791,1.1615-.9889,1.6748-2.0147,2.0778-4.9672,1.9516-9.8496-1.284-14.7603-1.8794-3.0061-.3645-6.1624-.0223-9.1501,.3701-3.4005,.4466-6.7543,1.1529-10.025,2.1913-2.8363,.9005-5.8911,1.909-8.4019,3.5418-2.7583,1.7938-4.2605,4.3356-4.4087,7.6335-.2635,5.8619,2.3721,12.8071-1.3567,18.0139,1.4225,.8315,2.8451,1.663,4.2676,2.4945,1.262-1.9726,.0374-4.6228-.7954-6.5012-.9665-2.1801-2.1719-4.2594-3.4175-6.2899-1.2587-2.0519-2.5998-4.1273-4.4486-5.6997-2.8149-2.3942-6.201-3.3024-9.8158-2.4341-3.0913,.7426-1.7824,5.5096,1.3139,4.7658,4.2918-1.031,6.8533,2.8608,8.7992,6.0525,1.0184,1.6703,1.9964,3.3721,2.8508,5.1329,.1172,.2415,.2321,.4842,.3433,.7286-.0019-.0041,.311,.731,.1545,.345,.1439,.3548,.279,.7144,.3929,1.08,.0593,.1901,.3162,1.4027,.1922,.611,.0204,.1303,.032,.3033,.0033,.4303,.0358-.1583,.2858-.9126,.1597-.7156-.7194,1.1245-.2324,2.7266,.8865,3.381,1.2428,.7269,2.6017,.2017,3.381-.8865,3.7707-5.2655,2.417-11.9157,2.0809-17.9156-.073-1.303-.2801-2.8834,.2292-4.1235,.4717-1.1483,1.6114-1.8481,2.6563-2.4078,2.8223-1.5116,6.019-2.4933,9.1057-3.2936,3.262-.8458,6.5855-1.3909,9.9498-1.5909,1.5443-.0918,3.148-.2049,4.6901-.0145,1.3009,.1606,2.5834,.5522,3.8322,.9369,2.6392,.8132,5.3,1.6981,8.1,1.6357,3.0036-.0669,6.6255-1.0309,8.5821-3.461,2.3212-2.8829,1.8637-7.0567,.1875-10.1367-1.6076-2.9539-4.5476-5.1871-7.8348-5.8954-.438,1.5886-.8759,3.1772-1.3139,4.7658,7.214,1.1165,14.3702-3.7598,14.4166-11.431,.0429-7.0928-6.9899-12.6507-13.8791-10.4041-2.5674,.8373-2.2347,4.9144,.6569,4.8541,2.9268-.0611,5.2177-2.2033,5.937-4.9828,.7304-2.8224-.2919-5.6572-2.3788-7.6342-4.7487-4.4986-12.7273-4.8537-18.8553-4.2798-6.6581,.6235-13.2699,2.2988-19.6299,4.3238-6.1441,1.9563-12.1508,4.4164-17.8682,7.401-6.4615,3.373-12.52,7.4737-18.0472,12.2259,1.3768,.8014,2.7535,1.6029,4.1303,2.4043,.8273-2.0629,1.4581-4.5192,.2761-6.5949-.9994-1.7551-3.0403-3.0311-5.1022-2.5774-2.1359,.47-3.1395,2.323-3.9034,4.1917-.8507,2.0812-1.2611,4.285-1.3313,6.5299,1.535-.4158,3.07-.8315,4.605-1.2473-.7476-1.6749-1.8798-3.3869-3.5664-4.234-1.8996-.9541-4.208-.5565-5.5974,1.0709-1.2843,1.5043-1.5771,3.685-1.0366,5.5555,.5635,1.95,2.0528,3.3933,3.0463,5.1095,.9302-1.2101,1.8605-2.4201,2.7907-3.6302-2.6775-1.0688-5.8916-.4607-8.1939,1.2083-2.3964,1.7373-3.8999,4.2425-4.9055,6.9839-2.0898,5.6974-1.2767,12.0663,.3237,17.7733,1.6552,5.9025,4.3487,11.4583,5.8904,17.3973,.7481,2.8818,1.2001,5.8121,1.0238,8.7963-.1868,3.161-1.3357,6.1455,.7322,8.973,1.9514,2.6681,5.3799,4.0038,8.6226,3.4093,3.3437-.613,5.6143-3.4676,5.9375-6.7474-1.618,.219-3.2361,.438-4.8541,.6569,.9179,3.5577,4.697,4.9792,8.0543,4.4978,3.7699-.5406,6.8372-3.54,8.2147-6.98,1.3683-3.4167,.7356-7.0838-1.165-10.1561-1.7817-2.8801-4.3748-5.2575-5.505-8.521-.6267-1.8097-.8985-3.8291,.0403-5.5821,.7944-1.4836,2.0707-2.5529,3.6918-3.0193,3.051-.8778,1.7536-5.6483-1.3139-4.7658Z"/></g><path d="M652.9072,163.938l5.177,6.4713c.3699,.4623,1.1836,.7238,1.7474,.7238,.6061,0,1.3301-.2692,1.7474-.7238,.4323-.4709,.7533-1.0892,.7238-1.7474l-.0883-.6569c-.1174-.4186-.3292-.7821-.6355-1.0904l-5.177-6.4713c-.3699-.4623-1.1836-.7238-1.7474-.7238-.6061,0-1.3301,.2692-1.7474,.7238-.4323,.4709-.7533,1.0892-.7238,1.7474l.0883,.6569c.1174,.4186,.3292,.7821,.6355,1.0904h0Z" style="fill:#f953b2;"/><path d="M639.1237,206.0765c4.3095,.4741,8.6189,.9482,12.9284,1.4224,1.2894,.1419,2.5264-1.2379,2.4712-2.4712-.0654-1.4601-1.0898-2.3192-2.4712-2.4712-4.3095-.4741-8.6189-.9482-12.9284-1.4224-1.2894-.1419-2.5264,1.2379-2.4712,2.4712,.0654,1.4601,1.0898,2.3192,2.4712,2.4712h0Z" style="fill:#f953b2;"/><path d="M685.9222,144.7281c.4314,3.0199,.8628,6.0398,1.2943,9.0598,.0812,.5686,.6651,1.2015,1.1357,1.4769,.5297,.31,1.3103,.4413,1.9042,.2491,.5979-.1935,1.1749-.5641,1.4769-1.1357,.3319-.6282,.3487-1.2074,.2491-1.9042-.4314-3.0199-.8628-6.0398-1.2943-9.0598-.0812-.5686-.6651-1.2015-1.1357-1.4769-.5297-.31-1.3103-.4413-1.9042-.2491-.5979,.1935-1.1749,.5641-1.4769,1.1357-.3319,.6282-.3487,1.2074-.2491,1.9042h0Z" style="fill:#f953b2;"/><path d="M785.5316,260.4017c3.6522,5.4802,7.6622,10.7189,11.9942,15.6792,.8608,.9856,2.625,.9219,3.4948,0,8.2659-8.7618,16.2368-17.8034,24.3652-26.6922,1.8627-2.0369,3.7277-4.072,5.6219-6.0798,2.1818-2.3127-1.3066-5.8142-3.4948-3.4948-8.2659,8.7618-16.2368,17.8034-24.3652,26.6922-1.8627,2.0369-3.7277,4.072-5.6219,6.0798h3.4948c-4.059-4.6478-7.7993-9.544-11.2214-14.6789-1.7555-2.6342-6.0382-.1623-4.2676,2.4945h0Z" style="fill:#fff;"/><path d="M806.4894,235.7931c-10.4287-6.3158-23.652,.8928-30.8898,8.8722-7.7736,8.5701-11.2875,20.2832-8.642,31.6503,2.6422,11.3529,11.4586,20.1555,22.6621,23.1827,11.0814,2.9942,22.7809-.254,31.3127-7.7727,8.9443-7.8822,15.3413-22.8212,7.6738-33.6841-.7686-1.0889-2.1591-1.6013-3.381-.8865-1.0769,.6299-1.6601,2.2851-.8865,3.381,5.6335,7.9812,1.5805,18.7907-4.4442,25.2981-6.417,6.9312-15.9382,10.95-25.4159,9.6374-9.5325-1.3202-18.1813-7.5432-21.6052-16.6644-3.5139-9.3609-1.8662-19.6196,3.8592-27.7229,3.058-4.3281,7.2704-7.964,12.0009-10.3513,4.6603-2.3519,10.5626-3.518,15.2615-.6722,2.7277,1.6519,5.2146-2.6203,2.4945-4.2676h0Z" style="fill:#fff;"/><path d="M514.2386,210.4849c-.7801,1.7521-.6187,3.6659,.4881,5.2559,1.0637,1.5281,2.5248,2.5016,4.2827,3.068,.7947,.2561,1.2283,.2833,1.8282,.765-.2139-.1718,.0962,.1213,.1289,.1651-.192-.2572,.1452,.1889-.0254-.0227,.0439,.197,.0564,.2106,.0375,.0409,.0089,.1087,.0101,.2174,.0035,.3263,.0169-.2802-.0461,.1473-.0649,.2129-.0803,.2806,.0496,.0004-.1102,.2274-.0575,.0994-.1198,.1957-.1871,.2889,.0772-.1097,.0522-.0892-.0749,.0613-.2553,.2255-.3827,.3244-.7445,.4992-.7155,.3457-1.7198,.4916-2.5643,.6333-.8781,.1474-1.3691,1.2317-1.1506,2.0266,.2558,.9307,1.1459,1.2985,2.0266,1.1506,2.0417-.3427,4.1091-.9172,5.3528-2.708,1.2206-1.7577,1.0496-4.1665-.6725-5.5225-1.3485-1.0618-3.1775-1.1722-4.3837-2.0377-.4614-.3311-.9171-.8539-1.2256-1.5008-.0495-.1042-.049-.1012,.0013,.0091-.0382-.1032-.0721-.2078-.1016-.3138-.0292-.1048-.0537-.2107-.0735-.3177,.016,.1445,.0193,.157,.01,.0373-.0038-.0694,.0216-.6012-.0225-.285,.0097-.0696,.1803-.6072,.0865-.3966,.3616-.8122,.2358-1.7704-.591-2.254-.7024-.4108-1.8903-.2259-2.254,.591h0Z"/><path d="M503.8879,233.3542c2.1355,1.0809,4.4084,1.7123,6.7925,1.907,.8611,.0704,1.6851-.808,1.6475-1.6475-.0427-.9527-.725-1.5721-1.6475-1.6475-.2499-.0204-.4987-.0569-.7484-.0767,.517,.041,.0182,.0003-.0939-.0178-.1061-.0171-.212-.0353-.3178-.0546-.4934-.09-.9826-.2034-1.4653-.3396s-.9591-.2951-1.4267-.4764c-.0988-.0383-.1988-.0865-.2995-.1195,.4615,.1518,.0011-.001-.0999-.0466-.2286-.1032-.4543-.2126-.6781-.3259-.7681-.3888-1.8214-.2279-2.254,.591-.3962,.7499-.2299,1.8385,.591,2.254h0Z"/><path d="M499.2463,206.0145c.3021-.1928,.6137-.3618,.9369-.5164,.162-.0775,.1062-.0385-.0251,.0082,.0839-.0299,.1661-.0644,.25-.0944,.1678-.0601,.3377-.1143,.5092-.1628,.3438-.0972,.6933-.1684,1.0464-.2218-.3647,.0551,.0989-.0015,.2282-.0095,.2006-.0124,.4017-.0173,.6028-.0151,.1787,.0019,.3573,.0096,.5355,.023,.089,.0067,.1779,.0188,.2668,.0244,.2436,.0155-.2792-.0526-.0396-.006,.3516,.0683,.6993,.1334,1.0435,.2356,.1709,.0507,.34,.1072,.507,.1694,.0347,.0129,.3041,.1223,.1133,.0411-.1908-.0812,.075,.0371,.1083,.0529,.3432,.1632,.6702,.3539,.986,.565,.7181,.4802,1.8556,.1631,2.254-.591,.4383-.8295,.1753-1.7415-.591-2.254-3.0505-2.0401-7.3066-2.0647-10.3951-.0937-.7258,.4632-1.0862,1.486-.591,2.254,.4681,.726,1.4769,1.0869,2.254,.591h0Z"/><path d="M502.2887,213.9813c.937-.0901,1.8767-.0731,2.8101,.0485l-.438-.0588c.8357,.1157,1.6542,.3134,2.4499,.594,.8138,.2869,1.8385-.325,2.0266-1.1506,.2099-.9218-.2793-1.7194-1.1506-2.0266-1.8076-.6373-3.7897-.8848-5.6979-.7013-.4467,.043-.8374,.155-1.1649,.4825-.2857,.2857-.5009,.7545-.4825,1.1649,.0368,.8219,.7288,1.7358,1.6475,1.6475h0Z"/><path d="M520.5982,205.7075c.4103-.2521,.8368-.4725,1.2795-.6621l-.3935,.1661c.7662-.3204,1.5653-.5409,2.3876-.6578l-.438,.0588c.2915-.0389,.5836-.0652,.8774-.0787,.4344-.02,.8525-.1701,1.1649-.4825,.2857-.2857,.5009-.7545,.4825-1.1649-.0385-.8586-.7254-1.69-1.6475-1.6475-1.8956,.0874-3.7557,.6278-5.3759,1.6235-.7339,.451-1.0805,1.4948-.591,2.254,.4748,.7364,1.4685,1.0738,2.254,.591h0Z"/><path d="M521.9363,212.1203c1.6324-.5797,3.2648-1.1594,4.8972-1.739,.4091-.1453,.7598-.3731,.9846-.7571,.2066-.3531,.2942-.8736,.1661-1.2695-.2586-.799-1.1571-1.4594-2.0266-1.1506-1.6324,.5797-3.2648,1.1594-4.8972,1.739-.4091,.1453-.7598,.3731-.9846,.7571-.2066,.3531-.2942,.8736-.1661,1.2695,.2586,.799,1.1571,1.4594,2.0266,1.1506h0Z"/></g><path d="M751.3532,701.4323c8.5196,9.451,21.723,14.4035,34.3624,13.2921,3.6715-.3228,7.2757-1.0935,10.7195-2.4137,2.9497-1.1308,1.8454-5.3938-1.3139-4.7658-7.9974,1.5896-14.572,7.8567-17.1698,15.4956-2.65,7.7926-.255,16.362,5.2847,22.2806,3.0715,3.2815,7.13,5.6868,11.5309,6.6436,3.0981,.6735,4.3741-3.8373,1.3139-4.7658-6.3789-1.9355-13.8865-.0164-18.3521,5.0095-4.7191,5.3112-5.6953,12.8933-2.896,19.3398,.5317,1.2244,2.3271,1.503,3.381,.8865,1.2644-.7395,1.4203-2.1519,.8865-3.381-1.9209-4.4238-.9189-10.109,2.3689-13.6192,3.3604-3.5878,8.6271-4.887,13.2978-3.4698,.438-1.5886,.8759-3.1772,1.3139-4.7658-6.2676-1.3626-11.5154-6.2015-13.4694-12.3174-1.9744-6.1793-.1091-12.7705,4.368-17.3858,2.5849-2.6647,5.8126-4.461,9.4556-5.1851-.438-1.5886-.8759-3.1772-1.3139-4.7658-13.8561,5.3118-30.3242,1.4292-40.2732-9.6074-2.1342-2.3675-5.6205,1.1367-3.4948,3.4948h0Z" style="fill:#f953b2;"/></svg>