<?xml version="1.0" encoding="UTF-8"?><svg id="Layer_2" xmlns="http://www.w3.org/2000/svg" width="1000" height="1000" viewBox="0 0 1000 1000"><g><path d="M279.5631,290.2308c1.1447,.0402,27.1618-5.0023,24.5732-7.1341-9.1908-7.5689-10.1352-14.7195-13.952-22.5708-2.7017-5.5574-5.4178-11.1516-7.1827-17.1509-3.6461-12.3934-3.0394-25.7564-2.394-38.7685,.6165-12.431,8.0261-31.3582,17.0411-38.8282-11.0772-2.4708-27.9599,7.3376-32.3504,18.5176-1.2164,3.0973-6.7668,39.6663-.0033,38.148-15.0824,3.3857-24.5025,23.1002-20.4272,39.4965,4.0752,16.3963,19.3126,27.7507,34.6954,28.2903Z"/><path d="M279.5631,293.4981c2.2646,.0148,4.7593-.7488,6.9604-1.1944,3.632-.7353,7.2548-1.5391,10.836-2.4935,2.6985-.7192,5.904-1.4006,8.2274-3.023,1.7091-1.1935,2.64-3.3268,1.4543-5.2582-.8516-1.3873-2.5053-2.3657-3.6388-3.525-1.0704-1.0948-2.0043-2.1706-2.8119-3.316-1.6094-2.2826-2.8607-4.7718-3.9662-7.3303-.2634-.6097-.1175-.2787-.0612-.144-.1289-.3087-.2559-.6182-.3827-.9278-.2546-.622-.5059-1.2454-.7601-1.8677-.583-1.4273-1.1731-2.8532-1.8115-4.2568-2.9808-6.5537-6.2895-12.8484-8.0635-19.878-1.7478-6.9259-2.1803-14.0735-2.1574-21.1936,.012-3.7434,.1545-7.4848,.3288-11.2237,.0693-1.4871,.1168-2.9785,.2372-4.4625,.0507-.625,.1178-1.2482,.1935-1.8706-.0837,.6884,.0548-.3783,.0607-.4175,.0495-.328,.1022-.6556,.1578-.9826,.5348-3.1482,1.3296-6.2523,2.3023-9.2927,.9818-3.0688,2.0573-5.8427,3.3454-8.5747,2.6034-5.5213,5.4265-10.3816,9.9453-14.1768,1.8507-1.5543,.8536-4.9718-1.4417-5.4609-7.9875-1.702-16.4825,1.3089-23.1362,5.6578-3.4544,2.2578-6.6527,4.981-9.208,8.2324-1.7935,2.282-3.5443,4.8764-4.2666,7.7287-1.1045,4.3613-1.6031,8.9413-2.137,13.3969-.667,5.5668-1.2057,11.2233-.9999,16.8358,.1623,4.4252,1.0174,12.3972,7.3939,11.1152l-1.7371-6.3011c-13.1103,3.0457-21.5423,16.2332-23.3238,28.9121-1.0248,7.2936-.051,14.4149,2.9188,21.1592,2.912,6.6132,7.7646,12.212,13.5715,16.4528,6.3604,4.6451,14.102,7.3635,21.9704,7.6805,1.7647,.0711,3.2673-1.5526,3.2673-3.2673,0-1.829-1.4971-3.196-3.2673-3.2673-.7415-.0299-1.4814-.0775-2.2197-.1529-.1797-.0184-.8953-.1053-.7574-.086,.3105,.0434-.2465-.0408-.2452-.0405-.2824-.0486-.5652-.0935-.847-.1452-1.4715-.2702-2.9251-.6347-4.3513-1.0862-1.5967-.5054-2.6449-.9147-3.9136-1.5131-1.3748-.6485-2.7113-1.3788-4.0005-2.1842-5.0913-3.1806-9.3695-7.6745-12.2833-13.0699-2.8816-5.3359-4.0879-10.9491-3.683-17.0623,.0489-.7381,.1161-1.4768,.2136-2.2102-.0623,.4684,.0594-.3536,.0808-.4833,.074-.449,.1563-.8968,.2465-1.3429,.3037-1.5006,.6991-2.9826,1.1824-4.4352,.2135-.6418,.4442-1.2777,.6922-1.907,.0233-.0591,.284-.6998,.1539-.3893-.114,.2723,.1028-.2337,.1002-.2279,.1605-.3567,.3222-.7126,.4918-1.0651,.647-1.3449,1.3767-2.6506,2.1903-3.902,.991-1.5243,1.4217-2.0962,2.655-3.4444,.5012-.5479,1.0231-1.0772,1.5654-1.5844,.4545-.4251,1.3686-1.2066,1.5851-1.3737,.2432-.1878,1.1615-.8257,1.7101-1.1675,.6553-.4083,1.3305-.7846,2.0233-1.1256,.1382-.068,.2769-.1352,.4165-.2004,.0658-.0307,.803-.3494,.4557-.2068-.1741,.0715,.5747-.2143,.7595-.2793,.7798-.2742,1.5744-.4965,2.3792-.6835,1.7192-.3994,2.736-2.3673,2.282-4.0191-.4954-1.8025-2.2833-2.631-4.0191-2.282-.3686,.0741,1.0323-.0757,.4339-.0712-.3429,.0026,1.0218,.1965,.4696,.0532-.4075-.1058,.9058,.4574,.4161,.1615-.3343-.202,.759,.6908,.2992,.211-.3519-.3673,.4067,.7362,.2435,.3316-.0467-.1158-.148-.2495-.2163-.3547-.3182-.4903,.0923-.07,.0863,.2598,.0027-.1449-.1479-.3971-.1936-.5387-.1095-.3393-.1966-.6857-.2726-1.0339-.0447-.2047-.0841-.4106-.1206-.617-.0191-.1078-.034-.2168-.0541-.3245-.1294-.6923-.0065,.1761,.0206,.189-.2993-.143-.2204-2.7015-.2342-3.0801-.1887-5.1664,.2673-10.3671,.8443-15.4967,.0728-.6468,.149-1.2933,.2285-1.9393,.0341-.2768,.0687-.5536,.104-.8303,.0311-.2442,.1981-1.487,.0659-.5224,.1579-1.1523,.3217-2.3036,.4999-3.4529,.2729-1.7589,.563-3.5184,.934-5.2597,.1086-.5099,.2134-1.0276,.3708-1.5253,.0592-.1873,.3413-.8222,.1142-.3297,.363-.7871,.7629-1.5529,1.2135-2.2936,1.0161-1.6702,1.5593-2.3526,2.9321-3.8166,1.242-1.3246,2.5947-2.5653,4.0361-3.6705-.118,.0905-.3644,.2709,.169-.1198,.2344-.1716,.4694-.3422,.7068-.5096,.4283-.3019,.8622-.5958,1.3022-.8804,.8798-.5691,1.7814-1.1048,2.7033-1.6029,1.9661-1.0623,3.1979-1.6076,5.1832-2.2619,.9378-.3091,1.8894-.5777,2.8525-.796,.5207-.118,1.0455-.2063,1.5691-.3085,.1045-.0204,.6449-.0993,.0634-.0201,.2557-.0348,.5128-.0607,.7697-.0849,.8986-.0849,1.8022-.1171,2.7043-.0838,.4363,.0161,.869,.0527,1.3034,.0947-.7238-.0701,.612,.1188,.8057,.16l-1.4417-5.4609c-4.0149,3.3719-7.0466,7.9576-9.4901,12.5502-2.7877,5.2395-4.9801,10.8568-6.5102,16.5902-1.5487,5.803-2.0095,11.6136-2.2597,17.5923-.3051,7.2909-.4216,14.6242,.4195,21.8859,.8608,7.4313,2.7866,14.384,5.7379,21.2517,1.4255,3.3171,3.0708,6.5255,4.5841,9.8011,.6078,1.3156,.8132,1.8256,1.2993,3.0158,.5718,1.3999,1.1381,2.8016,1.7314,4.1926,2.4332,5.7053,5.8443,10.7152,10.6024,14.7483,.696,.59,.3165,.3404-.022-.2275-.1228-.206-.379-1.0298-.3814-1.4314-.0048-.8118,.3985-1.572,.7484-1.932-.3652,.3757,.885-.4956,.1912-.1537-.2016,.0993-.3926,.2228-.5951,.3224-.1179,.058-.2418,.1059-.3585,.166-.511,.2633,.8139-.2949,.2441-.1038-.3095,.1038-.6116,.2362-.9195,.3459-.7232,.2576-1.4555,.4894-2.1908,.7099-3.9008,1.1698-7.8884,2.0651-11.8724,2.8994-1.6636,.3484-3.3307,.6819-5.003,.9858-.5545,.1008-1.11,.1942-1.6658,.2869-1.0588,.1767,.8477,.0054-.0651-.0006-4.2057-.0275-4.2103,6.507,0,6.5346Z"/></g><path d="M313.8714,229.8039c1.4747,.9991,2.3486,2.1962,2.0627,4.0443-.2735,1.7672-1.2621,3.3759-2.2807,4.808-2.1395,3.008-4.9708,5.4619-7.1632,8.4381-2.2403,3.0412-3.9571,7.3198-1.5546,10.7873,2.5092,3.6215,7.5003,2.765,11.1952,1.8739,4.413-1.0642,8.45-3.202,11.932-6.0921,.9058-.7518,.7776-2.3028,0-3.0804-.8963-.8963-2.1724-.7537-3.0804,0-2.7372,2.2719-5.9745,3.9081-9.409,4.8191-2.0166,.5349-7.1364,2.1308-7.4486-1.1698-.1592-1.6835,.9715-3.3224,1.8995-4.6254,.9834-1.3808,2.1522-2.6261,3.2944-3.8747,2.2943-2.5082,4.6407-5.0771,6.0047-8.2329,.8697-2.012,1.3317-4.2869,.7756-6.4535-.5689-2.2166-2.1957-3.7615-4.0288-5.0034-2.3272-1.5766-4.5095,2.1961-2.1987,3.7616h0Z"/><polygon points="322.7037 949.316 162.4377 937.0428 69.0077 528.139 229.2737 540.4122 322.7037 949.316" style="fill:#f4d13b;"/><polygon points="322.7037 949.316 461.7357 868.6566 368.3057 459.7527 229.2737 540.4122 322.7037 949.316" style="fill:#ef8e3f;"/><polygon points="622.0017 880.9298 461.7357 868.6566 368.3057 459.7527 528.5717 472.0259 622.0017 880.9298" style="fill:#f4d13b;"/><polygon points="622.0017 880.9298 761.0336 800.2703 667.6036 391.3664 528.5717 472.0259 622.0017 880.9298" style="fill:#ef8e3f;"/><circle cx="628.9611" cy="588.7608" r="54.6966" style="fill:#6966ed;"/><path d="M573.9468,430.0595c-6.7281-9.2191-12.167-19.3726-17.0596-29.661-5.7129-12.0136-10.6094-24.415-14.8125-37.034-8.0432-24.1489-13.9945-48.8695-11.5177-74.3604,.8397-8.6414,2.7444-17.4001,6.4719-25.2812,2.6114-5.5213,8.1787-14.2,15.4651-11.8867-.7607-1.3397-1.5213-2.6794-2.282-4.0191-.043,.1206-.3801,.936-.0565,.2025-.0697,.1581-.1414,.3229-.2228,.4762-.2267,.4269-.451,.8499-.712,1.2576-.1188,.1856-.2459,.3649-.3691,.5476-.476,.7057,.2823-.3264-.0539,.0795-.3458,.4174-.7053,.8202-1.0886,1.2038-.3268,.3271-.6669,.64-1.0179,.9409-.1788,.1533-.3601,.3033-.5442,.4502,.4915-.3921-.0104,.0059-.1399,.0962-.902,.6288-1.8197,1.2172-2.7852,1.7449-2.2349,1.2214-3.5462,1.7301-5.9638,2.5341-2.3504,.7816-4.7507,1.4089-7.1692,1.9406-9.1203,2.0051-18.0703,2.5562-27.5755,3.3951-5.0033,.4416-9.9417,1.0319-14.9678,.4682-4.1293-.4631-8.0664-1.8004-11.661-4.3889-.4543-.3272,.5741,.4782-.1385-.1044-.185-.1513-.3691-.3033-.5502-.4593-.3964-.3415-.7809-.6966-1.1524-1.0651-.3368-.3341-.663-.6789-.9783-1.0333-.1262-.1418-.2506-.2854-.3733-.4302-.0804-.0949-.8053-1.0259-.3781-.4556-1.2299-1.6419-2.2336-3.4331-3.0768-5.3005-.0429-.095-.2459-.5739-.0279-.0525-.1177-.2815-.2289-.5659-.3378-.8509-.184-.4817-.3571-.9677-.5205-1.4568-.3702-1.108-.6891-2.2329-.9654-3.3678-.5657-2.3236-.924-4.5459-1.1309-6.4776-1.2838-11.9887,.7701-23.8724,.9173-35.8535,.1752-14.2656-2.7875-29.1489-14.0142-38.9516-9.907-8.6504-23.0076-11.3942-35.5842-13.6689-6.8641-1.2415-13.378-3.1162-19.9101-5.5617-6.5079-2.4364-12.9729-5.0706-19.7645-6.6289-7.1463-1.6396-14.316-1.7502-21.5972-1.2575-6.025,.4077-12.048,1.1991-17.9487,2.4932-9.8055,2.1505-19.4257,5.7961-27.8614,11.2888-14.6742,9.5547-24.8357,24.285-29.4042,41.1164-4.4079,16.2397-3.9392,33.6522-.1629,49.9645,4.3905,18.9655,13.4785,37.7276,29.4233,49.5313,13.7141,10.1523,31.2493,13.2446,47.9659,11.6413,11.1081-1.0654,22.1034-3.8101,32.3772-8.1766,.5348-.2273,1.0708-.4536,1.5963-.7018,1.5955-.7535,2.0072-3.0426,1.1721-4.4703-.956-1.6344-2.8683-1.9275-4.4703-1.1721-14.492,6.8336-29.6098,12.2981-43.8569,19.6577-5.394,2.7863-10.1741,6.426-13.6517,11.4568-3.0419,4.4004-4.6309,9.5632-5.3096,14.8252-1.4527,11.263,1.2869,22.7843,3.794,33.7036,3.1572,13.7506,6.5826,27.2926,11.7258,40.4622,6.1715,15.8025,14.0566,30.8929,23.6405,44.8954,.9954,1.4543,2.8702,2.108,4.4703,1.1721,1.4414-.8431,2.1735-3.0072,1.1721-4.4703-8.1949-11.9731-15.2224-24.7576-20.8704-38.125-5.5291-13.086-9.4759-26.6289-12.6366-40.4578-2.4333-10.646-5.3711-21.3133-5.1324-32.2386,.0988-4.5225,.8752-9.1958,2.8221-13.1285,2.2561-4.5572,5.741-8.0906,10.1989-10.7684,7.1555-4.2982,15.1003-7.5009,22.7568-10.7813,8.0835-3.4633,16.2191-6.809,24.1753-10.5607-1.0994-1.8808-2.1987-3.7616-3.2981-5.6424-.1443,.0681-.289,.1421-.4377,.1997-.4738,.1838-1.7733,.7275-.5318,.2372-1.5555,.6142-3.1018,1.2414-4.6778,1.8036-5.1941,1.8529-10.5296,3.3248-15.9396,4.3937-1.6888,.3337-3.3857,.627-5.089,.877-.211,.031-1.5236,.2077-.644,.0936-.4259,.0552-.8519,.109-1.2784,.1593-.9537,.1125-1.909,.2109-2.8656,.2945-3.8123,.3332-7.6471,.4331-11.4702,.251-1.9863-.0946-3.9684-.2668-5.9408-.5193,.742,.095-.6365-.0934-.8416-.125-.4767-.0734-.9526-.1518-1.4276-.2353-1.0529-.1851-2.1014-.3952-3.144-.6313-1.9731-.4468-3.9253-.9866-5.8455-1.6236-.9521-.3158-1.8961-.6555-2.831-1.0193-1.236-.481-1.1848-.4584-2.447-1.0402-8.474-3.9057-15.4755-9.6552-21.0106-16.93-3.484-4.579-6.3605-9.6143-8.75-14.8418-.3136-.6861-.6171-1.3767-.916-2.0693-.0531-.1232-.2436-.5774,.0093,.0253-.1061-.2529-.2111-.5064-.3151-.7602-.3666-.8944-.7207-1.794-1.0626-2.6982-.6771-1.7904-1.3062-3.5989-1.888-5.4224-1.2183-3.8186-2.2303-7.7031-3.0343-11.6298-.408-1.9928-.7623-3.9966-1.0616-6.0085-.0251-.169-.2232-1.5823-.1272-.8649-.0645-.4826-.1249-.9657-.1826-1.4492-.127-1.0651-.2385-2.1321-.3341-3.2005-.3656-4.0863-.5-8.1942-.38-12.2954,.0585-1.9985,.1776-3.9952,.3604-5.9862,.089-.9692,.1931-1.9369,.3128-2.9028,.0299-.2412,.0604-.4824,.0924-.7233-.0901,.6772-.0025,.0268,.0228-.1422,.0791-.5282,.1565-1.0565,.2421-1.5837,.6504-4.0084,1.5797-7.9733,2.817-11.8417,.6164-1.9271,1.3152-3.8244,2.0792-5.6977,.3506-.8595-.1609,.3677,.0626-.1511,.0952-.221,.1907-.4419,.2878-.6621,.1942-.4404,.3929-.8789,.5961-1.3153,.4474-.9607,.9166-1.9114,1.4077-2.8505,.9407-1.7989,1.9619-3.556,3.0626-5.2618,.5271-.8169,1.0724-1.622,1.6356-2.4144,.2827-.3977,.5699-.7923,.8616-1.1835,.1169-.1568,.2347-.3129,.3529-.4688,.2285-.2989,.2376-.3112,.0273-.0369,.1209-.1546,.2424-.3086,.3647-.4621,2.5813-3.1973,5.4194-6.1628,8.5506-8.8272,.3915-.3332,.787-.6616,1.1864-.9854,.1466-.1189,1.2189-.9608,.8047-.6433,.9174-.7032,1.8553-1.3801,2.8088-2.0334,1.8748-1.2845,3.8145-2.474,5.8059-3.5689,4.4045-2.4217,8.2344-4.0296,12.9912-5.5686,10.9483-3.5423,22.4848-5.0576,33.9733-4.9519,14.2166,.1308,26.7801,7.2614,40.1145,11.1876,12.1165,3.5675,25.1461,3.777,36.5054,9.8221,5.5303,2.9431,10.2148,7.1347,13.387,12.5706,3.3807,5.7931,4.7997,12.5084,5.2299,19.1441,.8137,12.5516-1.6149,25.0093-1.1326,37.5589,.3633,9.4543,2.0348,19.4754,8.0199,27.1097,6.0702,7.7428,15.7509,10.5778,25.2766,10.5479,4.4995-.0142,8.9986-.666,13.4809-1.034,4.6847-.3847,9.3691-.7856,14.0323-1.3839,9.5936-1.2308,20.2213-2.8332,28.4399-8.3208,3.6029-2.4056,6.4613-5.5401,7.9284-9.6599,.6086-1.7091-.6983-3.5164-2.282-4.0191-7.9898-2.5365-15.1911,3.0605-19.6035,9.2207-4.6416,6.4802-7.2283,14.7809-8.8522,22.5053-2.9481,14.0225-3.0221,28.6419-1.0714,42.8004,1.7736,12.8728,4.9684,25.545,8.7945,37.9497,4.1842,13.5658,9.2213,26.8795,15.0393,39.8287,5.5407,12.3319,11.777,24.5702,19.7664,35.5176,1.0387,1.4233,2.8375,2.1271,4.4703,1.1721,1.4048-.8217,2.2181-3.037,1.1721-4.4703h0Z"/><path d="M645.8862,407.8919c-17.083-24.2018-27.6662-52.7905-30.5939-82.271-1.4591-14.692-1.1491-29.6302,1.2046-44.2143,1.2681-7.8575,3.1422-15.5802,5.4369-23.1985,1.1072-3.6759,2.9625-7.5463,3.5874-11.3271,.4047-2.4484-1.2363-4.5878-3.5844-5.2011-3.7557-.9809-8.0781,1.8681-8.9125,5.5729-1.3474,5.9829,5.7294,10.1096,10.3695,11.7348,7.6105,2.6657,16.617,.9149,24.5001,.759,8.7859-.1737,17.5765-.1546,26.3603,.1121,22.8164,.6928,45.624,2.8745,68.1696,6.4359,46.1894,7.2963,92.6867,20.1318,133.4159,43.628,19.0643,10.9979,36.7693,24.4966,51.2884,41.1147,12.2082,13.9731,21.2356,29.8073,27.7974,47.1108,4.1866,11.0401,7.3399,22.4545,9.863,33.9832,5.547,25.3452,7.8288,51.1833,6.6482,77.3054-1.5574,34.4572-9.5507,68.645-24.1839,99.921-19.0875,40.7963-48.7215,75.5515-83.8001,103.5365-10.747,8.5737-22.0138,16.4973-33.6147,23.8707-7.5686,4.8106-15.2434,9.6703-23.2486,13.73-11.0982,5.6281-22.1964,11.2562-33.2946,16.8843-15.2981,7.758-30.5963,15.5159-45.8944,23.2739-4.7888,2.4285-9.5775,4.8569-14.3663,7.2854-5.0032,2.5372-10.1476,4.1685-15.6703,1.6004-11.3955-5.2989-11.0111-21.1086-.3511-26.8386,3.7367-2.0086,.4497-7.4607-3.2981-5.6424-7.3366,3.5595-16.2618,.558-19.9375-6.7254-3.7412-7.4132-.3766-16.12,6.7254-19.9375,3.7367-2.0086,.4497-7.4607-3.2981-5.6424-7.3366,3.5595-16.2618,.558-19.9375-6.7254-3.7412-7.4132-.3766-16.12,6.7254-19.9375,3.7367-2.0086,.4497-7.4607-3.2981-5.6424-6.1806,2.9986-13.8016,1.4245-18.1604-3.9442-4.2658-5.2541-4.3922-12.9596-.3252-18.3625,3.0386-4.0366,9.12-6.565,13.4418-9.047,16.4934-9.4719,32.9868-18.9437,49.4802-28.4156,4.7516-2.7288,9.5033-5.4575,14.2549-8.1863,2.4848-1.427,1.8739-5.1754-.7805-5.9718-7.0256-2.1077-14.086-4.1226-21.0825-6.3247-5.7307-1.8038-10.0448-6.6038-10.7061-12.6759-.7992-7.3379,4.1269-14.2137,11.2311-16.015,2.9987-.7604,5.8067-.2749,8.7412,.2856,3.5119,.6708,7.0237,1.3416,10.5356,2.0124,9.9014,1.8913,19.8028,3.7826,29.7042,5.6738,3.6607,.6992,7.3213,1.3985,10.982,2.0977,1.6946,.3237,3.535,.8601,5.2665,.7332,4.087-.2995,7.7451-3.6407,10.5947-6.2771,4.0935-3.7871,7.7395-8.0651,11.2451-12.392,15.6185-19.2778,30.1726-41.469,30.2917-67.228,.0728-15.7469-6.5348-30.6867-19.1272-40.3476-11.9597-9.1754-27.8013-12.8195-42.5894-10.0283-3.6492,.6888-7.1145,1.8681-10.522,3.326-3.8547,1.6492-.5295,7.28,3.2981,5.6424,13.5997-5.8187,29.8793-3.9249,42.3301,3.7928,13.3825,8.2952,20.3587,22.887,20.0661,38.4257-.4643,24.6556-15.2569,46.2211-30.5457,64.4386-3.4091,4.0622-6.9694,8.166-11.0915,11.5292-1.1258,.9186-3.0315,2.0969-3.7393,2.4221-.1365,.0627-1.0298,.3863-.6416,.2122,.3928-.1762-.6052-.0236-.1044,.028,.4628,.0476-.018-.0152-.1317-.0316-6.7438-.9709-13.4566-2.5704-20.1475-3.8484-9.5303-1.8204-19.0605-3.6408-28.5908-5.4612-7.7199-1.4746-15.1855-3.3682-22.6212,.7015-13.5812,7.4331-14.5263,26.9878-2.1826,36.0138,3.4011,2.4869,7.4144,3.4803,11.3767,4.669,4.5221,1.3566,9.0441,2.7132,13.5662,4.0698,.9523,.2857,1.9047,.5714,2.857,.8571-.2602-1.9906-.5203-3.9812-.7805-5.9718-13.6641,7.8471-27.3283,15.6941-40.9924,23.5412-8.2837,4.7572-16.5675,9.5144-24.8512,14.2716-6.6659,3.8281-13.2675,7.254-16.2053,14.9917-3.0436,8.0162-.757,17.5872,5.6577,23.3098,6.7704,6.0399,16.2262,7.0414,24.2962,3.1261-1.0994-1.8808-2.1987-3.7616-3.2981-5.6424-10.3397,5.5578-14.4041,18.3975-9.0697,28.878,5.4014,10.612,18.4795,14.1147,28.878,9.0697-1.0994-1.8808-2.1987-3.7616-3.2981-5.6424-10.3397,5.5578-14.4041,18.3975-9.0697,28.878,5.4014,10.612,18.4795,14.1147,28.878,9.0697-1.0994-1.8808-2.1987-3.7616-3.2981-5.6424-11.603,6.2369-15.1008,21.6268-6.9641,32.1112,6.494,8.3676,17.7403,10.2793,27.038,5.7017,9.6633-4.7576,19.2195-9.7465,28.8256-14.618,15.6866-7.955,31.3733-15.91,47.0599-23.8649,9.4078-4.7709,18.9336-9.3375,28.0614-14.6312,43.8053-25.4046,83.7523-58.4027,112.7586-100.227,21.8205-31.4631,36.7309-67.5015,43.4021-105.2087,5.2389-29.6117,5.6647-59.9591,1.7369-89.7556-2.4004-18.2096-6.2048-36.3417-12.0913-53.7607-1.4055-4.159-2.9513-8.3259-4.592-12.3932-8.268-20.4974-21.0485-38.8099-36.8819-54.1884-33.4002-32.4408-77.8395-51.8336-122.1488-64.2059-47.0714-13.1436-96.5896-19.3083-145.4349-18.8983-4.3928,.0369-8.7895,.1002-13.1798,.2591-4.1037,.1486-8.3173,.7449-12.4136,.2137-3.1485-.4083-7.078-1.7514-9.1464-4.3244-.7527-.9363-.2471-.6427,.4149-1.1726,.2878-.2304,.3143,.2561-.234-.2652-1.4829-1.4098-.2205-2.2232-1.3715-.6306-.5146,.712-.7241,2.2428-.993,3.0848-1.4237,4.458-2.8013,8.9327-3.9932,13.459-1.9189,7.2869-3.3095,14.6924-4.2673,22.1649-3.7523,29.2739,.0085,59.5791,10.616,87.1107,5.2041,13.507,11.9783,26.3434,20.3274,38.1717,2.4062,3.4089,8.0748,.1479,5.6424-3.2981h0Z"/><circle cx="195.6233" cy="815.1711" r="26.8643" style="fill:#f953b2; stroke:#f953b2; stroke-miterlimit:10; stroke-width:2.1782px;"/><g><g><path d="M508.9309,194.7519c7.8477-44.2345-21.2915-52.6373-54.6607-52.6401h-31.1184c-2.073-1.4634-3.7717-2.3197-5.0071-2.4579-18.3681-2.0538-45.7692,4.659-62.7092,11.3911-3.7227,1.4795-6.9337,5.0336-6.6939,9.0323,.1227,2.0465,1.1095,3.9416,2.2506,5.6449,3.1071,4.638,7.5436,8.3746,12.6424,10.6479,7.9646,3.551,17.5976,3.7008,24.2239,9.371,7.4725,6.3951,8.8105,21.2669,18.9737,24.2137,2.4088-9.4786-1.1926-17.408,3.5667-26.7468,5.1454-10.0964,14.3696-18.3147,26.2997-18.1119,14.1186,.2399,26.8047,13.1248,26.8251,27.2454,.0078,5.4097-1.5979,10.7199-3.8791,15.6252-2.5021,5.3805-5.8911,10.4391-10.4703,14.2128-5.2809,4.3519,27.3799,27.3873,31.5827,28.385,15.2483,3.6198,26.4279-45.9711,28.1739-55.8127Z"/><path d="M512.0815,195.6205c1.9494-11.1187,2.3779-22.9209-2.3787-33.4175-3.5463-7.8257-10.2497-13.7352-18.0237-17.1911-8.8295-3.9251-18.4951-5.3719-28.0806-5.9178-6.4877-.3695-13.0021-.2496-19.4976-.2496-6.832,0-13.6888-.174-20.5188,0-.1432,.0036-.287,0-.4303,0l1.6491,.4461c-1.3314-.9259-2.6973-1.736-4.207-2.3347-1.3079-.5186-2.7014-.614-4.0928-.728-2.6866-.2201-5.3867-.2589-8.0804-.1818-5.9873,.1714-11.9607,.9042-17.8628,1.9006-11.513,1.9438-22.9225,4.9876-33.8465,9.1167-2.889,1.092-5.6656,2.2436-7.8235,4.5499-2.1667,2.3157-3.6455,5.4394-3.3956,8.6676,.2777,3.5873,2.1903,6.6083,4.3547,9.3688,1.988,2.5356,4.3404,4.6989,6.9594,6.5716,4.9906,3.5686,10.8567,5.1228,16.6973,6.6788,5.1911,1.3829,10.2802,2.8188,13.7785,6.8974,.1513,.1764,.2982,.3564,.4436,.5377,.1437,.1806,.1166,.1458-.0811-.1044,.1131,.1517,.2245,.3048,.334,.4591,.3621,.5098,.7043,1.0333,1.0333,1.5651,.6524,1.0546,1.248,2.1431,1.8214,3.2423,1.2166,2.3322,2.326,4.7203,3.6077,7.0184,2.6366,4.7272,6.1699,8.9677,11.5225,10.5899,1.6542,.5013,3.6067-.5981,4.0191-2.282,.8195-3.3454,1.062-6.7796,1.0539-10.2144-.007-2.9861-.161-5.9939,.1785-8.9685,.3094-2.7108,1.2962-5.5533,2.6838-8.0616,1.2781-2.3103,2.6586-4.3451,4.221-6.1407,3.3108-3.8052,7.2967-6.751,11.8719-8.1395,2.7444-.8329,4.8333-1.0742,7.7627-.8938,.2337,.0144,.4673,.0324,.7005,.0535-.0169-.0015,1.1206,.136,.5227,.0508,.5762,.0821,1.1493,.1936,1.7174,.3196,1.3614,.3021,2.7026,.717,3.9959,1.2385-.3864-.1558,.1471,.0617,.1849,.0783,.3198,.141,.6362,.2906,.9498,.4448,.5236,.2574,1.039,.5313,1.5456,.8208,1.0656,.6089,2.4672,1.5474,3.1064,2.0557,1.0092,.8024,1.9618,1.6802,2.8553,2.6092,.8539,.8878,1.6804,1.8678,2.1915,2.5769,2.9516,4.0952,4.6501,8.6127,4.7287,13.3357,.1054,6.3358-2.2369,12.5716-5.3232,18.0184-1.4394,2.5403-3.0724,4.9089-5.0606,7.0329-1.4453,1.5441-3.6546,2.7883-4.3131,4.9093-.7618,2.454,.5484,4.9399,1.9825,6.8595,1.9667,2.6325,4.3203,4.9269,6.7704,7.1056,5.5559,4.9405,11.579,9.437,17.7903,13.5192,4.0673,2.6731,8.4303,5.8103,13.529,4.0376,6.144-2.1361,9.9954-8.5754,12.7727-14.0669,3.6188-7.1554,6.2523-14.8209,8.5133-22.4991,1.8089-6.1429,3.3817-12.3668,4.6586-18.6426,.1788-.8789,.3508-1.7592,.5082-2.6422,.3092-1.7353-.4699-3.5212-2.282-4.0191-1.5802-.4342-3.708,.5355-4.0191,2.282-.9575,5.3735-2.2596,10.6984-3.6725,15.9678-.9984,3.7233-2.0846,7.424-3.2875,11.0866-.6501,1.9796-1.3347,3.9481-2.0636,5.9001-.3136,.8399-.6354,1.6768-.9666,2.5099-.1802,.4532-.3631,.9052-.549,1.356-.0839,.2035-.1685,.4067-.2535,.6097,.3205-.7658-.1262,.289-.1852,.4245-1.4155,3.2558-2.9943,6.4655-4.9353,9.4437-.4279,.6565-.8902,1.2846-1.3418,1.9243-.3189,.4519,.0949-.1208,.1379-.1742-.1259,.1562-.2488,.3147-.376,.4699-.2467,.3013-.4998,.5974-.7607,.8865-.4508,.4994-.9236,.9798-1.4245,1.4291-.215,.1928-.4438,.3693-.66,.5603,.8197-.7239-.0223,.0067-.2754,.1738-.1096,.0724-1.5035,.7786-1.5011,.827-.0098-.1973,.8677-.2892,.226-.1081-.0935,.0264-.1859,.0647-.2789,.0941-.324,.1023-.6611,.1462-.9849,.2401-.3439,.0997,.9269-.0275,.0138-.025-.2388,.0007-.4812-.0119-.7196-.007-.5572,.0114-.0601-.257,.2882,.0548-.067-.06-.3466-.0529-.438-.08-.1432-.0426-.3001-.0922-.4456-.1239-.5095-.111-.0577-.4236,.3288,.1479-.0615-.091-.3443-.1554-.4495-.2092-.4462-.2283-.8901-.4577-1.3272-.7031-1.0888-.6113-2.1519-1.2688-3.2042-1.9404-2.8747-1.8348-5.6716-3.7937-8.4156-5.818-.7206-.5316-1.4372-1.0685-2.1496-1.6111-.1728-.1316-1.1697-.9037-.5662-.4329-.4749-.3704-.9494-.7412-1.4209-1.116-1.4505-1.1529-2.8811-2.3315-4.2805-3.5462-2.3797-2.0657-4.6722-4.2284-6.7-6.6445-.5551-.6614,.3929,.5789-.1539-.1995-.1617-.2302-.3269-.4572-.4801-.6934-.0826-.1275-.7858-1.2198-.7111-1.2775,.1933-.1493,.2998,.963,.1588,.3556-.0223-.0959-.0587-.2122-.0953-.3037-.2718-.6788,.0226,.541,.0134,.3018-.0157-.4084,.1324-.738-.0985,.3592,.1657-.7871-.3238,.5771-.1258,.2304,.1882-.3295-.749,.5915-.1645,.2671,.5454-.3026,1.0976-.941,1.5496-1.367,1.2026-1.1334,2.3119-2.3604,3.3422-3.6518,1.9897-2.4939,3.7246-5.1534,5.1801-7.993,3.0728-5.9945,5.3447-12.6798,5.2313-19.4893-.1855-11.1337-7.2687-21.613-17.0399-26.7241-4.897-2.5615-10.5075-3.8796-16.0357-3.3087-5.8543,.6046-11.1223,2.9205-15.7192,6.56-4.2781,3.3871-7.7437,7.8916-10.2498,12.7214-1.6418,3.1641-2.6011,6.4625-3.0158,9.9927-.35,2.9797-.2445,5.9757-.2272,8.9685,.0174,3.0171-.1022,5.9629-.8186,8.8876l4.0191-2.282c-.2759-.0836-.5457-.1802-.8194-.27-.8506-.279,.5238,.3104-.2529-.1105-.486-.2634-.9707-.5119-1.4323-.8188-.152-.1011-.2988-.2077-.4483-.3123,.6121,.4282-.1087-.0942-.1948-.1682-.488-.4193-.9467-.8719-1.3799-1.3474-.3146-.3453-.617-.7031-.9046-1.0713,.4484,.5741-.1224-.1838-.1708-.252-.1672-.2352-.3301-.4734-.4897-.7137-.6543-.9853-1.2487-2.0095-1.8136-3.0482-2.3236-4.2727-4.1725-8.7874-7.1883-12.6459-7.6849-9.8321-21.5606-8.4398-31.1803-14.5744-2.4374-1.5543-4.5957-3.5112-6.4619-5.8185-.7599-.9395-1.5979-2.168-2.2137-3.3458-.3252-.6219-.549-1.1682-.6862-1.8893-.1515-.796-.0637,.042-.0673-.7031,0-.0155,.0948-1.0212,.0141-.5505,.3869-2.2566,2.3405-4.0907,4.2935-4.969,2.3812-1.0709,4.9305-1.8738,7.4018-2.7097,5.6786-1.9209,11.4542-3.561,17.2879-4.9396,5.9037-1.3951,12.1542-2.5858,17.9281-3.2548,5.7112-.6618,11.5034-.9932,17.245-.5554,.5503,.042,1.1048,.0815,1.6527,.1498-.9303-.1158,1.1402,.4274,.556,.1737,1.6019,.6956,2.9912,2.2216,4.7787,2.3195,.465,.0255,.9379,0,1.4035,0h19.8953c5.6478,0,11.3095-.0932,16.9537,.1418,2.219,.0924,4.4361,.2336,6.6476,.4385,1.0327,.0957,2.0642,.2052,3.0937,.3306,.2777,.0338,.5552,.0697,.8327,.1049-.8091-.1027,.1155,.0165,.234,.0333,.5462,.0776,1.0918,.1599,1.6365,.2475,4.0631,.6528,8.0947,1.5861,11.9727,2.9746,.3924,.1405,.7832,.2857,1.172,.4358,.2316,.0894,.4616,.1826,.6926,.2735,.1383,.0544,.9117,.3895,.1304,.0495,.8925,.3884,1.7759,.7943,2.6429,1.237,1.6179,.8263,3.1817,1.7606,4.6614,2.8153,.1952,.1391,1.3426,1.038,.6442,.4684,.3601,.2937,.7225,.5832,1.0744,.8869,.7017,.6058,1.3768,1.2425,2.0205,1.9096,.5931,.6146,1.1485,1.2594,1.6955,1.9149,.1025,.1228,.5793,.7653,.0671,.0753,.0932,.1256,.1903,.249,.2811,.3765,.3201,.4499,.6402,.8983,.9416,1.3612,.4813,.7393,.9293,1.5002,1.3435,2.2791,.2307,.4337,.4508,.8729,.6605,1.3171,.1062,.2248,.2024,.4549,.3106,.6785,.2994,.6183-.2119-.5564,.0642,.1452,.778,1.9768,1.4036,3.9942,1.8467,6.0732,.0978,.4587,.1874,.9191,.2695,1.3808,.0502,.2822,.0974,.565,.1419,.8482,.0152,.0967,.1515,1.0526,.0492,.2856,.1604,1.2027,.2665,2.4133,.3343,3.6245,.1427,2.5478,.1024,5.1043-.0719,7.6495-.204,2.979-.515,5.2899-1.016,8.1475-.3044,1.7361,.4666,3.5203,2.282,4.0191,1.5764,.4331,3.7128-.5346,4.0191-2.282Z"/></g><g><path d="M405.4926,201.5215c.3989,1.4216,.8579,2.816,1.3659,4.163-.3897-1.4096-.8472-2.7983-1.3659-4.163Z"/><path d="M402.342,202.3901c.3959,1.4065,.8514,2.7954,1.3659,4.163,.1011,.4252,.296,.7956,.5848,1.1111,.2304,.3557,.5359,.6362,.9167,.8415,.375,.2388,.78,.368,1.2148,.3877,.4343,.0973,.8686,.0778,1.3029-.0584,.7906-.2558,1.5533-.7458,1.9526-1.5015,.4107-.7773,.5692-1.6532,.3294-2.5176-.3907-1.4082-.8478-2.7966-1.3659-4.163-.1011-.4252-.296-.7956-.5848-1.1111-.2304-.3557-.5359-.6362-.9167-.8415-.375-.2388-.78-.368-1.2148-.3877-.4343-.0973-.8686-.0778-1.3029,.0584-.7906,.2558-1.5533,.7458-1.9526,1.5015l-.3294,.7805c-.1556,.579-.1556,1.1581,0,1.7371,.5181,1.3664,.9753,2.7548,1.3659,4.163,2.1004-.579,4.2008-1.1581,6.3011-1.7371-.5146-1.3676-.9701-2.7565-1.3659-4.163-.2235-.794-.7882-1.5352-1.5015-1.9526-.375-.2388-.78-.368-1.2148-.3877-.4343-.0973-.8686-.0778-1.3029,.0584-.7906,.2558-1.5533,.7458-1.9526,1.5015-.4098,.7756-.5721,1.6552-.3294,2.5176Z"/></g></g><g><path d="M510.6037,173.8588c-85.497-13.0667-174.0214-5.8823-256.2925,20.7999-10.2605,3.3277-20.5832,6.9854-31.3512,7.6194,8.8462-23.7878,22.0196-45.959,38.682-65.1027,1.9208-2.2068,1.5171-11.9915,2.0015-14.8622,1.7294-10.2472,4.0041-20.6727,7.1739-30.5723,12.3353-38.5239,62.7721-43.272,97.3-40.3464,40.5228,3.4335,72.3802,26.433,83.7852,66.2987,51.2582,18.01,58.701,56.1656,58.701,56.1656Z" style="fill:#f953b2;"/><path d="M511.4723,170.7082c-18.877-2.8756-37.8895-4.8255-56.9614-5.7751-19.0459-.9483-38.1405-.9184-57.1838,.0791-19.0683,.9989-38.0817,2.9807-56.9537,5.884-18.7588,2.8858-37.3715,6.7234-55.7391,11.5046-9.1839,2.3907-18.3063,5.0172-27.3546,7.8785-9.155,2.895-18.2318,6.2841-27.7185,7.9531-2.1876,.3849-4.3843,.6374-6.6012,.7784,1.0502,1.3786,2.1004,2.7572,3.1506,4.1358,6.8783-18.4285,16.4245-35.8519,28.1514-51.641,2.8705-3.8648,5.8916-7.616,9.0344-11.2627,1.1885-1.3791,2.0207-2.6864,2.4335-4.4796,.3937-1.7103,.5549-3.4905,.6821-5.2383,.1247-1.7124,.1798-3.4286,.2588-5.1435,.0298-.6473,.059-1.2953,.1124-1.9411,.0212-.256,.048-.5108,.0754-.7662-.1221,1.137-.0158,.198,.027-.032,.0667-.359,.1235-.7201,.1861-1.0799,.9475-5.4393,2.0402-10.8551,3.3423-16.2211,1.1924-4.9139,2.4727-9.8673,4.2005-14.6242,1.0562-2.9077,2.497-5.8415,4.3316-8.7319,1.7963-2.8301,3.3604-4.791,5.7923-7.2747,1.1535-1.1781,2.3647-2.299,3.6248-3.3622,.4668-.3939,1.3444-1.1032,1.5988-1.2978,.3357-.2569,1.2237-.9051,1.8062-1.3119,2.7497-1.9203,5.6617-3.6038,8.6735-5.0772,3.0286-1.4817,5.5418-2.4925,8.9144-3.6325,6.5985-2.2303,13.4325-3.7066,20.3228-4.6847,.0591-.0084,.7834-.108,.4515-.0632-.2878,.0388,.293-.0379,.2748-.0356,.4729-.0611,.9462-.1198,1.4197-.1762,.8873-.1057,1.7756-.2031,2.6647-.2927,1.7141-.1728,3.431-.3165,5.1498-.4329,3.5094-.2378,7.0263-.3626,10.5435-.3877,6.6608-.0475,13.3457,.2225,19.9738,.8958,14.7748,1.5009,29.4771,6.0515,42.1503,13.9938,12.29,7.7022,22.2839,18.5577,29.1497,31.4654,1.7998,3.3836,3.3233,6.7378,4.6452,10.2378,.6998,1.8529,1.3441,3.7267,1.9341,5.6175,.3524,1.1292,.5593,2.5754,1.301,3.5065,.9305,1.1682,2.6136,1.4883,3.9699,1.9931,7.775,2.8938,15.2493,6.6302,22.1628,11.2225,5.5519,3.6879,10.5615,7.8523,15.2742,12.8567,.9905,1.0518,1.9543,2.1289,2.889,3.2306,.4626,.5452,.918,1.0966,1.3661,1.6537,.2045,.2542,.4064,.5104,.6089,.7662,.0789,.0997,.3804,.4915-.0035-.0078,.1109,.1442,.2217,.2885,.331,.4339,1.5027,1.9981,2.9244,4.0537,4.2364,6.1824,1.124,1.8237,2.1713,3.6949,3.1314,5.61,.4228,.8434,.8288,1.6954,1.2165,2.5556,.1663,.3691,.3236,.7421,.4888,1.1117,.1944,.4351-.3137-.7698-.0094-.0205,.0794,.1957,.1603,.3907,.239,.5867,.792,1.9729,1.5031,3.9917,2.0231,6.055,.0689,.2735,.1378,.5479,.1921,.8248,.3401,1.7324,2.4093,2.7244,4.0191,2.282,1.8087-.497,2.6231-2.2817,2.282-4.0191-1.0165-5.1779-3.4561-10.2833-5.9588-14.8716-6.3661-11.6714-15.7346-21.491-26.5337-29.1593-8.7179-6.1905-18.4272-10.8599-28.4905-14.4167l2.282,2.282c-6.4085-22.2345-20.1258-41.6828-39.9202-53.9154-19.017-11.7522-41.1749-15.4449-63.2204-15.4921-20.4894-.0439-42.5888,2.7788-60.3769,13.6742-8.5344,5.2274-15.8528,12.4943-20.4342,21.4504-3.043,5.9487-4.8188,12.4673-6.4557,18.9151-.9983,3.9324-1.8787,7.8943-2.6678,11.8738-.668,3.3691-1.4704,6.8011-1.7389,10.2303-.186,2.3763-.1949,4.7638-.3745,7.1411-.0435,.5763-.0955,1.1518-.1587,1.7263-.1191,1.0814,.1118-.6046-.0554,.425-.0406,.2502-.083,.5-.1327,.7486-.0969,.4852-.2731,.9556-.3692,1.4371-.1139,.5705-.0342-.0666,.0757-.1498-.0573,.1202-.1213,.2368-.192,.3497,.4086-.5001,.399-.4986-.029,.0044-4.9641,5.5356-9.4895,11.551-13.755,17.6347-8.3875,11.9625-15.5401,24.7893-21.296,38.2181-1.46,3.4062-2.8469,6.8414-4.1428,10.3134-.719,1.9263,1.1529,4.2629,3.1506,4.1358,9.6809-.6155,18.9426-3.4041,28.1113-6.3954,9.0322-2.9467,18.1006-5.7585,27.2588-8.2902,18.2071-5.0331,36.6719-9.1327,55.2959-12.2906,18.6037-3.1545,37.3652-5.3399,56.1936-6.5788,18.8499-1.2403,37.7624-1.5314,56.6414-.865,18.8502,.6653,37.6829,2.2599,56.3643,4.8729,2.3054,.3225,4.6086,.6605,6.9099,1.0111,1.7423,.2654,3.513-.4398,4.0191-2.282,.4247-1.5455-.527-3.7518-2.282-4.0191Z" style="fill:#f953b2;"/></g><g><path d="M463.5432,190.8562c-3.7204,19.9382-22.9614,24.5725-30.0621,41.3346-2.4072,5.6825-2.9338,37.2493,8.5446,36.6981-7.9024,.3795-15.2544,5.1596-19.6175,11.7595-8.1751,12.3663-10.8146,34.346,1.2636,44.7614,5.761,4.9678,13.1879,7.5883,20.6207,9.2078,10.9223,2.3799,23.5182,2.4073,31.9066-4.9815,8.1816-7.2066,9.8909-19.2519,9.6008-30.151,17.4936-16.1943,18.0945-45.2076,6.3949-65.9778-2.7841-4.9426-6.1878-9.6328-7.8157-15.067-1.6278-5.4342-1.0493-12.0296,3.2053-15.7816"/><path d="M460.3926,189.9877c-.816,4.2473-1.9939,7.2332-4.2952,10.776-1.1624,1.7894-1.6335,2.3786-2.9985,3.9401-1.2275,1.4042-2.533,2.7381-3.8729,4.0348-5.4771,5.301-11.4611,10.0905-15.7119,16.5125-1.5934,2.4072-3.1189,5.1016-3.7303,7.9505-.5292,2.4657-.7549,5.0188-.8825,7.5341-.3158,6.2277,.0237,12.6735,1.4919,18.7486,1.3781,5.7022,4.7026,12.9102,11.6324,12.6719v-6.5346c-6.2992,.3593-12.0767,2.9091-16.8543,6.9842-4.2163,3.5964-7.1151,8.3561-9.2317,13.4191-3.8486,9.2061-5.2368,20.3169-2.0894,29.9355,1.61,4.9202,4.4251,9.3218,8.4865,12.5661,5.203,4.1562,11.3829,6.7652,17.7894,8.4515,11.244,2.9597,24.7787,4.1259,35.0225-2.4811,11.6703-7.5271,14.2344-22.1077,13.9185-35.0119-.319,.7701-.638,1.5402-.957,2.3103,10.0661-9.399,14.9373-22.9793,15.2445-36.5622,.1543-6.8201-.8154-13.7355-2.7815-20.2657-1.0153-3.3722-2.3171-6.6689-3.8494-9.8393-1.6814-3.4791-3.7939-6.7092-5.7233-10.0502-1.0878-1.8836-2.159-3.8125-2.9166-5.8566-.3669-.9899-.6844-1.9993-.9145-3.0301-.2416-1.0824-.2729-1.3081-.3311-2.3423-.0506-.9001-.0259-1.7965,.045-2.6946,.0463-.5871-.07,.3877,.0153-.1919,.0344-.2335,.0787-.4657,.126-.6969,.0939-.4594,.2084-.9136,.3459-1.3619,.2527-.824,.3806-1.1563,.9305-2.0646,.0894-.1476,.1822-.2927,.2767-.4371,.5747-.8778-.1646,.1558,.2172-.3054,.3359-.4058,.711-.7732,1.0998-1.1277,1.3042-1.1895,1.2073-3.4133,0-4.6206-1.298-1.298-3.313-1.1926-4.6206,0-3.4522,3.1485-4.9943,7.8289-5.0002,12.419-.0065,5.0261,1.8496,9.7363,4.2266,14.0867,2.2995,4.2086,5.0175,8.1638,7.0326,12.5281,.7731,1.6742,1.409,3.2794,2.0911,5.2951,.6637,1.9616,1.2301,3.956,1.6981,5.9732,1.7339,7.4726,2.0323,16.0231,.566,23.4219-.7778,3.9245-2.0525,7.8951-3.5998,11.0948-.8423,1.7417-1.7961,3.4299-2.8602,5.0458-.2822,.4286-.5724,.8519-.87,1.2699-.1324,.1861-.2664,.371-.4018,.5549-.0603,.0819-.4921,.6556-.2148,.2954-.6305,.8187-1.3053,1.6061-2.0007,2.37-.6241,.6857-1.272,1.3502-1.9417,1.9915-.7109,.6807-1.2555,1.3359-1.4083,2.356-.0951,.635-.0374,1.2859-.0316,1.9271,.0203,2.2698-.0528,4.5416-.254,6.8029-.1889,2.1245-.4424,3.8044-.9624,6.0287-.2399,1.0261-.5183,2.0432-.841,3.0464-.2975,.9249-.726,2.0715-.9841,2.6442-1.7041,3.7807-4.0757,6.9586-7.3555,9.1499-3.3698,2.2514-7.536,3.529-11.3462,3.9132-4.3974,.4434-8.9425,.147-13.0199-.5754-4.6023-.8155-9.2842-1.9898-13.5676-3.8752-3.9746-1.7494-7.8497-4.0963-10.6555-7.4652-.3786-.4546-.7342-.9456-1.2902-1.8461-.4877-.7899-.9266-1.61-1.3182-2.4516-.0874-.1878-.1732-.3768-.2552-.567,.0564,.131,.196,.52-.0283-.084-.1455-.3918-.296-.781-.4305-1.1769-.3226-.9494-.593-1.9163-.8157-2.8939-.2021-.8871-.3713-1.784-.4932-2.6858,.0826,.6111-.062-.6316-.0726-.7446-.0512-.543-.0901-1.0873-.1173-1.632-.0966-1.9311-.0468-3.8688,.128-5.794,.0453-.4989,.0988-.997,.1607-1.4941-.0708,.5684,.1039-.684,.1203-.7856,.1596-.9883,.3518-1.9716,.5745-2.9476,.4277-1.8744,.9688-3.7232,1.6228-5.5312,.6549-1.8107,1.0423-2.7151,2.0314-4.5955,.7987-1.5184,1.873-3.2982,2.7972-4.4709,2.647-3.3584,6.2282-6.1293,10.0233-7.5268,2.0125-.7411,3.942-1.1566,5.8153-1.2634,1.7621-.1005,3.2673-1.4297,3.2673-3.2673,0-1.7232-1.4956-3.3282-3.2673-3.2673-.2246,.0077-.5396-.0606-.7491-.0109,.2367-.0562,.7025,.1967,0-.0196-.1943-.0598-.4016-.1374-.5993-.1817-.4634-.1037,.4968-.0634,.3485,.1496-.0084,.012-.3995-.2044-.4172-.2158-.1756-.113-.3521-.2402-.5337-.3419-.3295-.1845,.5561,.5237,.0298,.0004-.1795-.1784-.3638-.3478-.5349-.5348-.097-.106-.185-.222-.2841-.3257-.3709-.3878,.2849,.5074,.1293,.1709-.2144-.4635-.6013-.8889-.8529-1.3418-.128-.2303-.2493-.4643-.3657-.7006-.1468-.2982-.4881-1.1277-.1779-.3454-.4965-1.252-.9101-2.5257-1.2391-3.8322-.3484-1.3839-.6166-2.7875-.8298-4.1983-.0251-.1663-.0482-.3329-.0731-.4992-.0713-.4764,.0732,.5946,.015,.1148-.0461-.3799-.0938-.7594-.1353-1.1398-.0835-.7649-.1529-1.5313-.2098-2.2986-.2135-2.8774-.2595-5.7697-.1415-8.6526,.0527-1.2876,.1385-2.5744,.2724-3.8562,.0267-.2559,.0577-.5112,.0862-.7669,.1012-.9072-.1069,.62,.0154-.122,.0795-.4826,.1508-.9657,.2467-1.4456,.1423-.7123,.3321-1.3973,.5706-2.0821-.3473,.9972,.2098-.4331,.3065-.6346,.2069-.4314,.4232-.8582,.6492-1.2798,.4437-.8276,.9236-1.6356,1.4351-2.4231,.4753-.7319,.9812-1.4414,1.5025-2.1411,.3129-.4199-.2759,.3446,.0492-.0645,.1265-.1592,.2531-.3181,.3813-.476,.3196-.3936,.6464-.7813,.9786-1.1644,1.159-1.336,2.3895-2.6085,3.654-3.8446,2.5634-2.506,5.2689-4.8605,7.8583-7.3389,6.3871-6.1134,11.5834-13.2067,13.2831-22.0539,.3326-1.7311-.4861-3.5257-2.282-4.0191-1.5988-.4393-3.6846,.5405-4.0191,2.282h0Z"/></g><g><path d="M437.5957,325.8451c-9.7398,1.5194-18.5486,8.633-21.5261,18.0301-2.9775,9.3971,.3696,20.6111,8.3567,26.3885,6.6583,4.8163,15.5375,5.6045,23.6266,4.1569,4.8741-.8723,9.7739-2.5855,13.3449-6.0156,6.3315-6.0816,7.0208-16.1291,4.8889-24.6455-1.5277-6.1026-4.6522-12.2895-10.2549-15.1504"/><path d="M436.7272,322.6945c-9.9736,1.6275-18.9693,8.5733-22.8981,17.8971-3.987,9.4622-2.0727,20.6934,4.5352,28.495,7.4228,8.7636,19.8404,10.4018,30.5571,8.4846,5.4924-.9826,11.0426-3.0972,15.0472-7.1115,3.8097-3.8189,5.7551-8.9173,6.4211-14.1898,.6983-5.5287-.0732-11.352-1.9154-16.5988-1.9819-5.6448-5.3641-11.0232-10.7936-13.8831-1.5607-.8221-3.5522-.3975-4.4703,1.1721-.8624,1.4745-.3946,3.645,1.1721,4.4703,3.5475,1.8687,5.9752,5.276,7.3983,8.9205,1.6077,4.1172,2.3574,7.9939,2.3254,12.2319-.0305,4.04-.8298,7.8524-3.1118,11.2761-.9605,1.4411-2.5931,3.0243-4.3262,4.0971-1.9717,1.2204-4.0006,1.9984-6.2458,2.5984-4.4339,1.185-9.1444,1.6015-13.6841,1.011-4.2004-.5464-8.7023-2.3021-11.6607-4.9473-5.8919-5.2681-8.15-13.7891-6.0619-21.1918,1.211-4.2932,3.761-7.954,7.3153-10.9781,1.4727-1.253,3.4987-2.5279,5.533-3.492,1.7645-.8363,4.3035-1.5856,6.6001-1.9604,1.7429-.2844,2.7137-2.4484,2.282-4.0191-.5089-1.852-2.2711-2.5672-4.0191-2.282h0Z"/></g><path d="M510.7362,193.4158c23.5638,.3357,46.4641-7.9451,70.0592-6.5541,10.6311,.6267,20.7401,3.7828,29.9373,9.0324,9.2256,5.2658,17.2562,12.2668,24.3442,20.1476,8.5606,9.5181,15.639,20.2329,22.3517,31.0995,2.206,3.5712,7.8609,.2932,5.6424-3.2981-12.0764-19.5494-25.7986-38.9069-45.4912-51.4485-9.5337-6.0717-20.1391-10.1248-31.3626-11.5604-11.8984-1.5219-23.89-.1112-35.677,1.6672-13.2053,1.9925-26.3906,4.5709-39.8041,4.3798-4.2064-.0599-4.2082,6.4746,0,6.5346h0Z"/><path d="M271.2731,287.9321c-1.298,3.7203-2.0521,7.6543-2.688,11.5334-.9146,5.5793-1.5094,11.2325-1.5745,16.8889-.062,5.3928,.2907,10.9745,1.8238,16.1713,1.3356,4.5275,3.7833,9.1335,8.0664,11.4863,2.1826,1.199,4.677,1.7668,7.1624,1.726,.9621-.0158,2.0774-.031,2.9173-.5223,1.2188-.7129,1.9518-2.1409,2.1252-3.4973,.3077-2.4068-1.0714-4.6281-3.0307-5.9366-4.5057-3.0092-9.2342,.8422-11.1614,4.922-2.0974,4.4401-3.4403,9.3036-4.2689,14.1317-3.5391,20.6202,2.216,41.0161,9.3983,60.2045,3.5529,9.492,7.2087,18.9657,11.1797,28.2914,3.8324,9.0001,8.1166,17.8457,13.4501,26.0624,1.3314,2.0512,2.73,4.0566,4.1909,6.0176,1.0526,1.4129,2.8269,2.1333,4.4703,1.1721,1.3929-.8147,2.2325-3.047,1.1721-4.4703-11.6827-15.6816-18.6532-34.1026-25.639-52.193-7.2011-18.6478-14.2674-38.1565-12.5368-58.4813,.4524-5.3131,1.615-10.5768,3.476-15.5759,.471-1.2651,.6189-1.712,1.245-2.829,.4628-.8257,.8604-1.3326,1.3611-1.6634,.5103-.3371,.3015-.1565,.1489-.0867,.5305-.2426,.1122-.0423-.2905-.0966,.1432,.0193,.5646,.2017,.0163-.0535,.1685,.0784,.3399,.1805,.4897,.2905-.5972-.4385,.0026,.0216-.0213,.0488-.1868-.2669-.2184-.3038-.0947-.111,.1196,.2104,.1066,.1483-.0391-.1864l.0363,.1222c.0664,.2456,.0609,.1603-.0165-.256,.048-.3566,.1263-.6815,.3795-.9577,.7701-.319,1.5402-.638,2.3103-.957-.9635,.0916-1.8924,.0551-2.8548,.0066-.5565-.0281,.7419,.1573,.0277-.0057-.2092-.0477-.4208-.0831-.6294-.1345-.4324-.1064-.8466-.3009-1.276-.4028-.094-.0223,.6862,.3416,.0608,.0164-.1534-.0798-.3091-.1544-.4608-.2377-.3761-.2066-.713-.4897-1.0871-.692-.0531-.0287,.5448,.4725,.0521,.0318-.1292-.1155-.2615-.2272-.3883-.3454-.3222-.3001-.6155-.6238-.9102-.9503-.3409-.3777-.2731-.3819,.005,.0346-.1174-.1759-.2523-.3418-.3726-.516-.2646-.3832-.5105-.7791-.7402-1.1841-.2057-.3627-.3976-.7332-.5781-1.1091-.0996-.2073-.1893-.4191-.288-.6267-.1897-.3988,.2324,.619-.054-.1493-.7084-1.9005-1.2232-3.8524-1.5813-5.8486-.0956-.5328-.1745-1.0674-.2569-1.6023-.0926-.6015,.0753,.6694-.0215-.1849-.0314-.2769-.0646-.5534-.0937-.8305-.1231-1.1734-.2084-2.3506-.2638-3.5291-.1105-2.3473-.1025-4.6996-.0098-7.0474,.0941-2.3847,.2766-4.7658,.5318-7.1385,.0567-.5268,.1171-1.0532,.181-1.5792,.034-.2797,.0695-.5593,.105-.8389,.0201-.1585,.0417-.3168,.0623-.4752-.0269,.2077-.0827,.5862-.0204,.1616,.1562-1.065,.3115-2.1296,.4899-3.1912,.6266-3.7308,1.3653-7.5097,2.6143-11.0895,.5813-1.6661-.6619-3.574-2.282-4.0191-1.8002-.4946-3.4357,.6099-4.0191,2.282h0Z"/><path d="M663.7566,707.8575c5.2694-2.8164,10.5388-5.6328,15.8081-8.4492,8.3952-4.4871,16.7904-8.9742,25.1857-13.4613,1.9222-1.0274,3.8444-2.0548,5.7667-3.0822,1.5556-.8314,2.0387-2.9888,1.1721-4.4703-.9205-1.5737-2.9086-2.0068-4.4703-1.1721-5.2694,2.8164-10.5388,5.6328-15.8081,8.4492-8.3952,4.4871-16.7904,8.9742-25.1857,13.4613-1.9222,1.0274-3.8444,2.0548-5.7667,3.0822-1.5556,.8314-2.0387,2.9888-1.1721,4.4703,.9205,1.5737,2.9086,2.0068,4.4703,1.1721h0Z"/><path d="M674.2374,744.1372c5.2694-2.8164,10.5388-5.6328,15.8081-8.4492,8.3952-4.4871,16.7904-8.9742,25.1857-13.4613,1.9222-1.0274,3.8444-2.0548,5.7667-3.0822,1.5556-.8314,2.0387-2.9888,1.1721-4.4703-.9205-1.5737-2.9086-2.0068-4.4703-1.1721-5.2694,2.8164-10.5388,5.6328-15.8081,8.4492-8.3952,4.4871-16.7904,8.9742-25.1857,13.4613-1.9222,1.0274-3.8444,2.0548-5.7667,3.0822-1.5556,.8314-2.0387,2.9888-1.1721,4.4703,.9205,1.5737,2.9086,2.0068,4.4703,1.1721h0Z"/><path d="M691.1679,775.5796c5.2694-2.8164,10.5388-5.6328,15.8081-8.4492,8.3952-4.4871,16.7904-8.9742,25.1857-13.4613,1.9222-1.0274,3.8444-2.0548,5.7667-3.0822,1.5556-.8314,2.0387-2.9888,1.1721-4.4703-.9205-1.5737-2.9086-2.0068-4.4703-1.1721-5.2694,2.8164-10.5388,5.6328-15.8081,8.4492-8.3952,4.4871-16.7904,8.9742-25.1857,13.4613-1.9222,1.0274-3.8444,2.0548-5.7667,3.0822-1.5556,.8314-2.0387,2.9888-1.1721,4.4703,.9205,1.5737,2.9086,2.0068,4.4703,1.1721h0Z"/><g><path d="M271.3815,382.1697c-15.3477,20.7984-26.4252,44.4313-33.4114,69.2854-6.911,24.5865-9.928,50.1658-10.752,75.6446-.8359,25.8486,.5798,51.7154,2.6828,77.473,1.1711,14.3439,2.6428,28.6466,3.0012,43.044,.3594,14.4356-.4059,28.8629-.267,43.2981,.1341,13.9311,1.1434,28.0693,5.1158,41.4902,2.6611,8.9906,8.8121,26.9243,21.6432,22.6212,10.8662-3.6442,6.8837-16.5037,3.4223-24.1431-6.0551-13.3635-15.2688-25.3912-24.2481-36.8912-9.1899-11.7697-18.9289-23.127-29.0501-34.1047-8.7259-9.4644-18.0918-18.1671-27.8312-26.5921-17.1519-14.8371-35.6871-29.1916-56.7177-38.0748-9.4042-3.9723-19.537-6.862-29.8304-6.6675-6.8039,.1286-12.9884,2.1422-19.4759,3.9484-7.0538,1.9639-14.1837,3.6525-20.6805,7.1568-9.4879,5.1176-17.3743,13.3013-22.1471,22.966-4.9279,9.9787-6.5943,21.123-4.905,32.1114,.4828,3.1405,1.3485,6.1896,2.1614,9.2545,2.9129,10.9816,5.8257,21.9632,8.7386,32.9448,3.9446,14.8712,7.8891,29.7424,11.8337,44.6136,2.6446,9.9703,5.2892,19.9406,7.9338,29.9109,1.3244,4.9932,3.0292,9.8417,5.7617,14.2684,5.7826,9.3682,14.9155,16.411,25.4328,19.6548,7.6404,2.3565,15.5193,2.3741,23.3122,.8619,4.7097-.9139,9.4194-1.8277,14.1291-2.7416,14.2472-2.7645,28.4944-5.529,42.7416-8.2936,3.2238-.6255,6.5308-1.0939,9.712-1.9231,11.3202-2.9506,18.5813-14.7828,15.6507-26.1782-2.8565-11.1073-14.004-17.5157-25.0393-15.5561,.579,2.1004,1.1581,4.2008,1.7371,6.3011,11.5052-2.4264,18.8624-13.7994,16.6343-25.2822-2.2669-11.6826-13.9089-18.6507-25.2822-16.6343,.579,2.1004,1.1581,4.2008,1.7371,6.3011,11.5052-2.4264,18.8624-13.7994,16.6343-25.2822-2.2669-11.6826-13.9089-18.6507-25.2822-16.6343,.579,2.1004,1.1581,4.2008,1.7371,6.3011,14.8945-3.1412,22.1547-21.2973,12.9006-33.6373-4.2553-5.6742-11.1801-9.1413-18.3294-8.6964-2.1616,.1345-4.2893,.6295-6.4085,1.05-16.6149,3.2965-33.2298,6.593-49.8447,9.8895-2.0905,.4148-4.178,.8514-6.2728,1.2446-7.1955,1.3507-14.5113-1.3966-19.2161-6.9568-2.7201-3.2146-7.3226,1.4273-4.6206,4.6206,4.6758,5.526,11.7004,8.8133,18.8942,9.1806,2.9302,.1496,5.784-.3656,8.6378-.9318,6.9822-1.3853,13.9643-2.7706,20.9465-4.1559,8.7552-1.7371,17.5105-3.4742,26.2657-5.2113,4.8919-.9706,10.876-3.0364,15.8784-1.896,6.9113,1.5755,11.845,7.7791,11.7156,14.8898-.1305,7.1719-5.4237,12.8626-12.2838,14.3093-4.1475,.8747-2.3532,7.0263,1.7371,6.3011,8.0474-1.4267,15.7471,4.1074,17.244,12.0703,1.5346,8.1637-4.2071,15.5856-12.0703,17.244-4.1475,.8747-2.3532,7.0263,1.7371,6.3011,8.0474-1.4267,15.7471,4.1074,17.244,12.0703,1.5346,8.1637-4.2071,15.5856-12.0703,17.244-4.1471,.8746-2.3534,7.0275,1.7371,6.3011,9.8148-1.7429,19.0912,7.1222,17.2496,17.0812-1.3104,7.0864-6.9975,11.2477-13.7209,12.5523-11.579,2.2468-23.1579,4.4935-34.7369,6.7403-10.1656,1.9725-20.323,3.9941-30.498,5.9178-19.4608,3.6793-39.1251-8.3258-44.6144-27.3861-1.8281-6.3478-3.4006-12.779-5.094-19.1634-3.5858-13.5188-7.1717-27.0376-10.7575-40.5565-3.4907-13.1602-6.9815-26.3205-10.4722-39.4807-1.8749-7.0686-4.4732-14.4284-5.3136-21.7264-2.3442-20.3551,9.2123-40.4761,28.1581-48.4446,5.8289-2.4516,12.2676-3.7782,18.3412-5.4692,2.4492-.6819,4.8909-1.4427,7.3601-2.0492,3.5411-.8698,7.3594-.9112,10.9806-.7073,9.7024,.5465,19.2035,3.8663,27.9159,8.012,9.9928,4.7549,19.373,10.7475,28.3229,17.2321,14.3743,10.4148,28.2013,22.1561,40.7762,34.698,8.0616,8.0405,15.633,16.6096,23.0382,25.2513,9.8576,11.5036,19.4171,23.3441,27.8583,35.9371,3.6037,5.3762,7.0479,10.9126,9.8242,16.7682,.7104,1.4983,1.0161,2.2063,1.445,3.3125,.4333,1.1175,.829,2.2505,1.1617,3.4022,.2959,1.0241,.5155,2.0552,.7117,3.1018,.1168,.623-.0544-.6288,.002-.0122,.0221,.2416,.0507,.4822,.0677,.7244,.0321,.4583,.0467,.9182,.0328,1.3775-.0128,.4229-.2156,1.4945-.0054,.4973-.0823,.3907-.182,.7773-.267,1.1666-.2058,.9426,.3118-.3237-.1266,.3482-.1253,.192-.7338,1.1058-.3831,.6667,.3402-.4259-.3466,.3058-.5072,.4793-.4521,.4885,.1455-.095,.0805-.0562-.1694,.1011-.3245,.2263-.5001,.3182-.1808,.0946-.3656,.1875-.5447,.2853-.6139,.3353,.5316-.1584,.0159-.01-.46,.1324-.9145,.3347-1.3922,.4007-4.9721,.6873-8.1766-6.8346-9.6165-10.4011-2.4758-6.1325-4.2042-12.55-5.3829-19.0519-2.4077-13.281-2.4238-26.8955-2.2219-40.3472,.2124-14.1518,.5434-28.2683-.2083-42.4128-.706-13.2848-2.1672-26.5223-3.1713-39.7867-.9338-12.3347-1.6736-24.6862-2.0538-37.0511-.7586-24.6682-.1659-49.5192,3.5067-73.9586,3.6066-24.0004,10.1326-47.6858,20.8415-69.5248,5.3456-10.9015,11.6768-21.2917,18.8855-31.0604,1.0553-1.4302,.2269-3.6331-1.1721-4.4703-1.6501-.9873-3.4277-.2407-4.4703,1.1721h0Z"/><path d="M160.9848,679.6746c-6.0005,1.1643-12.001,2.3287-18.0015,3.493-9.5178,1.8468-19.0356,3.6937-28.5534,5.5405-2.1948,.4259-4.3896,.8518-6.5844,1.2776-1.7332,.3363-2.7237,2.412-2.282,4.0191,.4979,1.8116,2.281,2.6193,4.0191,2.282,6.0005-1.1643,12.001-2.3287,18.0015-3.493,9.5178-1.8468,19.0356-3.6937,28.5534-5.5405,2.1948-.4259,4.3896-.8518,6.5844-1.2776,1.7332-.3363,2.7237-2.412,2.282-4.0191-.4979-1.8116-2.281-2.6193-4.0191-2.282h0Z"/><path d="M167.8359,714.9822c-6.0005,1.1643-12.001,2.3287-18.0015,3.493-9.5178,1.8468-19.0356,3.6937-28.5534,5.5405-2.1948,.4259-4.3896,.8518-6.5844,1.2776-1.7332,.3363-2.7237,2.412-2.282,4.0191,.4979,1.8116,2.281,2.6193,4.0191,2.282,6.0005-1.1643,12.001-2.3287,18.0015-3.493,9.5178-1.8468,19.0356-3.6937,28.5534-5.5405,2.1948-.4259,4.3896-.8518,6.5844-1.2776,1.7332-.3363,2.7237-2.412,2.282-4.0191-.4979-1.8116-2.281-2.6193-4.0191-2.282h0Z"/><path d="M174.687,750.2898c-6.0005,1.1643-12.001,2.3287-18.0015,3.493-9.5178,1.8468-19.0356,3.6937-28.5534,5.5405-2.1948,.4259-4.3896,.8518-6.5844,1.2776-1.7332,.3363-2.7237,2.412-2.282,4.0191,.4979,1.8116,2.281,2.6193,4.0191,2.282,6.0005-1.1643,12.001-2.3287,18.0015-3.493,9.5178-1.8468,19.0356-3.6937,28.5534-5.5405,2.1948-.4259,4.3896-.8518,6.5844-1.2776,1.7332-.3363,2.7237-2.412,2.282-4.0191-.4979-1.8116-2.281-2.6193-4.0191-2.282h0Z"/></g><path d="M108.5879,652.0002c-1.611-1.4202-3.2399-2.824-4.7771-4.3249-.6822-.6661-1.3455-1.352-1.9751-2.0682-.8292-.9434-.9477-1.0921-1.6005-2.0876-2.1753-3.3175-3.1403-6.9016-2.9235-10.8969,.0089-.1643,.1707-1.4862,.0552-.7912,.0633-.3809,.1342-.76,.2238-1.1357,.0866-.3633,.1872-.7236,.3022-1.079,.0704-.2175,.1553-.4298,.2276-.6464,.1244-.3727-.2381,.4655,.0351-.0913,.3515-.7164,.7242-1.4099,1.1751-2.07,.0989-.1448,.2032-.2855,.3042-.4289-.0676,.096-.4189,.4973-.0273,.0376,.286-.3357,.5703-.6704,.8748-.9897,.5244-.55,1.0838-1.0655,1.6662-1.5533,.174-.1457,.3505-.2882,.5281-.4294-.0976,.0775-.5072,.3668-.0063,.0109,.3782-.2687,.7525-.5416,1.1379-.8,1.3936-.9343,2.8558-1.7622,4.3396-2.5436,3.5405-1.8645,7.217-3.4605,10.7096-5.4174,3.6691-2.0557,.3783-7.7023-3.2981-5.6424-6.5432,3.6661-14.1486,6.0982-19.513,11.5638-6.4724,6.5945-6.6074,16.7335-2.39,24.6247,2.4498,4.5839,6.4737,7.9972,10.3107,11.3798,1.323,1.1663,3.3177,1.303,4.6206,0,1.1891-1.1891,1.3291-3.449,0-4.6206h0Z"/><g><path d="M342.8973,258.3543c-2.6782-2.7007-1.2271-8.0714,2.7133-8.4282,2.7563-.2496,5.6298,1.6194,6.2864,4.308,1.4249,5.8345-5.4047,7.7445-8.9997,4.1203Z"/><path d="M344.4375,256.814c-.0822-.0848-.1591-.1739-.2388-.2609-.3116-.3404,.2416,.3661,.0681,.085-.1388-.2249-.2686-.4459-.3885-.6817-.1512-.2974,.1889,.5538,.0539,.1145-.0333-.1084-.0728-.2147-.1036-.3241-.0308-.1091-.0576-.2193-.081-.3302-.0485-.2303-.0214-.6707-.006,.0515-.0048-.2267-.0342-.4513-.0303-.6792,.0019-.1134,.0076-.2266,.0164-.3396,.0037-.0484,.0096-.0967,.013-.1451,.0271-.3808-.0859,.4657-.0323,.2425,.0529-.2202,.0864-.4419,.1504-.6602,.0316-.108,.0662-.215,.1043-.3209,.1786-.4959-.2147,.4127-.0166,.0331,.1034-.1982,.203-.3945,.3245-.5827,.0281-.0436,.1514-.2755,.1893-.2726,.0224,.0018-.3852,.4571-.164,.2188,.0428-.0461,.0823-.0953,.1249-.1417,.1503-.1635,.3216-.2992,.4813-.4516-.4874,.465-.2365,.1792-.056,.0647,.1076-.0682,.2184-.1316,.3319-.1895,.024-.0122,.1656-.0898,.1738-.0837,.0245,.0183-.4884,.1808-.2957,.1262,.1102-.0312,.2169-.0781,.3274-.11,.1134-.0328,.2289-.0544,.343-.0833,.0928-.0235,.3491-.0539-.035-.0031-.4361,.0576-.0259,.0086,.0439,.004,.2948-.0197,.5837-.0031,.8779,.0102,.3799,.0171-.5402-.0974-.0196-.0004,.1648,.0307,.3281,.0683,.4899,.1124,.1416,.0386,.2819,.082,.4204,.1305,.0497,.0174,.1749,.0841,.2359,.0879-.035-.0022-.4952-.2297-.1735-.0704,.2827,.1399,.5588,.2859,.8224,.4599,.0524,.0346,.1034,.0712,.1558,.1058,.294,.1945-.1162-.0839-.1399-.1151,.0821,.1082,.2303,.1913,.3321,.285,.107,.0986,.2107,.2008,.3103,.3069,.0569,.0605,.1103,.1239,.1664,.185,.1954,.2131-.0635-.0816-.1066-.1508,.1648,.2644,.3507,.5071,.494,.7862,.0284,.0552,.0546,.1113,.0824,.1668,.1591,.3174-.0678-.1435-.0736-.1775,.0272,.1578,.1126,.319,.155,.4747,.0369,.1354,.0678,.2724,.0955,.41,.015,.0747,.0226,.1525,.0418,.226,.0617,.2362-.0508-.3462-.0371-.3024,.0773,.2482,.0504,.5816,.0446,.84-.0026,.1155-.0117,.2303-.0195,.3455-.0296,.4363,.0958-.4976,.0206-.1543-.0489,.2235-.109,.438-.1729,.6573-.1217,.4174,.2178-.432,.073-.1562-.0531,.101-.0994,.2045-.1558,.304-.0485,.0855-.1003,.169-.155,.2507-.0231,.0345-.0499,.0678-.0712,.1033-.1691,.2814,.3024-.3417,.1626-.2106-.14,.1312-.2567,.2871-.4001,.4171-.0702,.0636-.154,.1193-.2203,.1867,.4677-.4748,.2788-.2106,.0694-.0777-.1652,.1048-.3375,.1925-.5117,.281-.3585,.1823,.4875-.1766,.1713-.071-.1076,.0359-.2132,.0772-.3217,.1105-.2349,.0721-.4775,.1034-.7133,.1668-.2119,.057,.4141-.0853,.3631-.0463-.0317,.0242-.1724,.019-.2183,.023-.1322,.0115-.2649,.0187-.3976,.0212-.2401,.0046-.4775-.0112-.7167-.0289-.3319-.0245,.6119,.1005,.1286,.0161-.1357-.0237-.2706-.0521-.4045-.0848-.2423-.0592-.4752-.1397-.711-.2194-.4032-.1363,.5166,.242,.042,.0171-.1151-.0545-.2286-.1127-.3402-.1742-.2279-.1257-.4407-.2705-.6554-.4169-.2661-.1815,.203,.158,.2054,.1605-.0581-.0581-.1292-.1063-.1912-.1603-.1145-.0997-.2243-.2042-.3321-.3111-.8099-.8034-2.2824-.8693-3.0804,0-.7956,.8666-.8644,2.223,0,3.0804,2.0187,2.0025,4.8992,2.857,7.68,2.2851,2.6815-.5515,4.7791-2.7272,5.1438-5.4407,.4631-3.4465-1.4506-6.8419-4.6454-8.2377-1.6549-.723-3.541-1.0366-5.3096-.5251-1.5368,.4444-2.7778,1.4496-3.6642,2.7621-1.8737,2.7744-1.5245,6.7636,.7954,9.1563,.7946,.8195,2.293,.8577,3.0804,0,.8084-.8806,.8478-2.206,0-3.0804Z"/></g><path d="M317.2007,206.437c1.7954-2.1764,3.6718-3.6356,6.2255-4.8425,2.2109-1.0449,4.8293-1.5894,7.3736-1.5639,1.1771,.0118,2.1782-1.0096,2.1782-2.1782,0-1.1908-.997-2.1663-2.1782-2.1782-6.3268-.0634-12.643,2.7892-16.6796,7.6823-.748,.9068-.8878,2.1927,0,3.0804,.7709,.7709,2.3282,.9119,3.0804,0h0Z"/><path d="M284.7095,213.8907c.4383-.2952,.8902-.5657,1.3622-.8037,.5772-.291,.5363-.2683,1.1481-.4787,.9675-.3326,1.9677-.5627,2.9781-.719,.1471-.0215,.1496-.0229,.0074-.0042,.1665-.0209,.3332-.04,.5001-.0573,.2503-.0259,.5009-.048,.7518-.0669,.5857-.0442,1.1728-.069,1.76-.0823,1.1762-.0266,2.3528-.0034,3.5288,.0195,1.1398,.0222,2.2302-1.0177,2.1782-2.1782-.0537-1.1991-.9568-2.1544-2.1782-2.1782-4.8569-.0945-10.0502-.0314-14.2351,2.7872-.9435,.6354-1.447,1.9479-.7814,2.9802,.6059,.9399,1.9694,1.4622,2.9802,.7814h0Z"/><g><path d="M327.4251,219.7923c-.9954,3.5775,4.8736,5.7554,5.0889,1.2851,.1472-3.056-4.1669-4.5988-5.0889-1.2851Z"/><path d="M325.3247,219.2132c-.4893,1.8124,.0405,3.8399,1.4605,5.1009,.6586,.5848,1.4091,1.0383,2.2647,1.2724,.8072,.2209,1.7493,.2568,2.5539-.0013,.9993-.3206,1.8217-.9548,2.3703-1.8531,.5157-.8444,.7598-1.9534,.7191-2.935-.0928-2.2398-1.5425-4.1129-3.6563-4.8234-1.1533-.3877-2.3785-.2317-3.4565,.2862-1.1535,.5541-1.9135,1.7617-2.2557,2.9533-.155,.5396-.0628,1.1958,.2196,1.6784,.2644,.4518,.7825,.8827,1.3018,1.001,1.1618,.2646,2.3428-.3491,2.6794-1.5213,.0395-.1377,.0852-.2721,.1389-.405l-.2196,.5203c.0926-.2175,.2054-.4218,.3467-.6115l-.3406,.4408c.1191-.1531,.2524-.2897,.4045-.4101l-.4408,.3406c.1447-.1093,.2988-.199,.4656-.2703l-.5203,.2196c.1779-.0716,.3607-.119,.5506-.1448l-.579,.0778c.2069-.024,.4124-.0214,.619,.0044l-.579-.0778c.2421,.0345,.4754,.0997,.7017,.1922l-.5203-.2196c.2464,.1052,.4759,.2397,.6892,.4018l-.4408-.3406c.2037,.1598,.3859,.3406,.5469,.5434l-.3406-.4408c.1623,.2113,.296,.4386,.4011,.6835l-.2196-.5203c.099,.2422,.1659,.4914,.2024,.7505l-.0778-.579c.0394,.321,.027,.6413-.0155,.9614l.0778-.579c-.0419,.2858-.1111,.5644-.2222,.8315l.2196-.5203c-.0806,.1847-.1791,.3576-.3017,.5178l.3406-.4408c-.1054,.1323-.2236,.2501-.3575,.3536l.4408-.3406c-.1294,.096-.2674,.1748-.4156,.2379l.5203-.2196c-.1714,.0692-.3479,.1146-.531,.1395l.579-.0778c-.2131,.0255-.426,.0224-.6389-.0043l.579,.0778c-.2605-.0364-.5122-.107-.7555-.2065l.5203,.2196c-.2759-.1169-.533-.268-.7701-.4511l.4408,.3406c-.2065-.1636-.3924-.348-.5562-.5543l.3406,.4408c-.1632-.2113-.2984-.4393-.403-.685l.2196,.5203c-.0929-.2277-.1564-.4631-.19-.7067l.0778,.579c-.0298-.2443-.0284-.4878,.0014-.7321l-.0778,.579c.0204-.1473,.0503-.292,.0891-.4356,.1478-.5473,.0673-1.1882-.2196-1.6784-.2644-.4518-.7825-.8827-1.3018-1.001-1.1464-.2611-2.3616,.3442-2.6794,1.5213Z"/></g><g><path d="M293.1328,229.1447c-.9954,3.5775,4.8736,5.7554,5.0889,1.2851,.1472-3.056-4.1669-4.5988-5.0889-1.2851Z"/><path d="M291.0325,228.5656c-.4893,1.8124,.0405,3.8399,1.4605,5.1009,.6586,.5848,1.4091,1.0383,2.2647,1.2724,.8072,.2209,1.7493,.2568,2.5539-.0013,.9993-.3206,1.8217-.9548,2.3703-1.8531,.5157-.8444,.7598-1.9534,.7191-2.935-.0928-2.2398-1.5425-4.1129-3.6563-4.8234-1.1533-.3877-2.3785-.2317-3.4565,.2862-1.1535,.5541-1.9135,1.7617-2.2557,2.9533-.155,.5396-.0628,1.1958,.2196,1.6784,.2644,.4518,.7825,.8827,1.3018,1.001,1.1618,.2646,2.3428-.3491,2.6794-1.5213,.0395-.1377,.0852-.2721,.1389-.405l-.2196,.5203c.0926-.2175,.2054-.4218,.3467-.6115l-.3406,.4408c.1191-.1531,.2524-.2897,.4045-.4101l-.4408,.3406c.1447-.1093,.2988-.199,.4656-.2703l-.5203,.2196c.1779-.0716,.3607-.119,.5506-.1448l-.579,.0778c.2069-.024,.4124-.0214,.619,.0044l-.579-.0778c.2421,.0345,.4754,.0997,.7017,.1922l-.5203-.2196c.2464,.1052,.4759,.2397,.6892,.4018l-.4408-.3406c.2037,.1598,.3859,.3406,.5469,.5434l-.3406-.4408c.1623,.2113,.296,.4386,.4011,.6835l-.2196-.5203c.099,.2422,.1659,.4914,.2024,.7505l-.0778-.579c.0394,.321,.027,.6413-.0155,.9614l.0778-.579c-.0419,.2858-.1111,.5644-.2222,.8315l.2196-.5203c-.0806,.1847-.1791,.3576-.3017,.5178l.3406-.4408c-.1054,.1323-.2236,.2501-.3575,.3536l.4408-.3406c-.1294,.096-.2674,.1748-.4156,.2379l.5203-.2196c-.1714,.0692-.3479,.1146-.531,.1395l.579-.0778c-.2131,.0255-.426,.0224-.6389-.0043l.579,.0778c-.2605-.0364-.5122-.107-.7555-.2065l.5203,.2196c-.2759-.1169-.533-.268-.7701-.4511l.4408,.3406c-.2065-.1636-.3924-.348-.5562-.5543l.3406,.4408c-.1632-.2113-.2984-.4393-.403-.685l.2196,.5203c-.0929-.2277-.1564-.4631-.19-.7067l.0778,.579c-.0298-.2443-.0284-.4878,.0014-.7321l-.0778,.579c.0204-.1473,.0503-.292,.0891-.4356,.1478-.5473,.0673-1.1882-.2196-1.6784-.2644-.4518-.7825-.8827-1.3018-1.001-1.1464-.2611-2.3616,.3442-2.6794,1.5213Z"/></g><path d="M413.8271,540.7197h34.8286c4.2139,0,8.4309,3.0329,9.4516,7.1961,1.1476,4.6804,2.2948,9.3605,3.4424,14.0409,7.5829,30.9296,15.1654,61.8592,22.7483,92.7891,2.3757,.4956,4.7513,.9912,7.127,1.4869,27.7297,5.7854,55.4597,11.5705,83.1894,17.356,.0035-.0028,.0067-.0057,.0103-.0085l-46.0532-201.5541-160.2657-12.2736,18.6298,81.5362c1.9797-.5041,4.072-.569,6.3935-.569h20.4981Z" style="fill:#f4d13b;"/><rect x="576.8907" y="673.3246" height="20.3464" transform="translate(-137.7567 145.677) rotate(-12.8708)" style="fill:#fff;"/><polygon points="391.5915 561.6646 389.498 552.5026 391.5915 561.6646 391.5915 561.6646" style="fill:#fff;"/><path d="M211.336,811.4266c-4.3691-.9345-8.7379-1.8687-13.107-2.8029-5.1721-1.1061-10.5977,1.5337-12.0573,6.8458-1.3419,4.8828,1.6457,10.9455,6.8458,12.0573,28.2799,6.0474,56.5598,12.0952,84.8397,18.1427,5.6015,1.1979,11.2029,2.3955,16.804,3.5934,.8753,.1872,1.7496,.4017,2.6302,.5623,.9664,.1766,1.8641,.2269,2.7231,.1893l-4.7144-20.6328c-27.9881-5.985-55.9762-11.9701-83.964-17.9551Z" style="fill:#fff;"/><path d="M658.3284,603.068c-4.7692-4.7692-9.5381-9.5381-14.3073-14.3073,2.9448-2.9444,5.8892-5.8891,8.8337-8.8337,1.8248-1.8244,3.6492-3.6488,5.4736-5.4733,4.0669-4.0669,4.0669-10.9933,0-15.0602-4.0808-4.0806-10.9805-4.0796-15.0602,0-4.7689,4.7692-9.5381,9.5381-14.307,14.3071-2.9448-2.9446-5.8892-5.8891-8.8337-8.8337-1.8248-1.8244-3.6492-3.6488-5.4736-5.4734-4.0669-4.0667-10.9933-4.0667-15.0599,0-4.0808,4.0808-4.0797,10.9805,0,15.0602,4.7689,4.769,9.5381,9.5381,14.307,14.307-2.9444,2.9446-5.8892,5.8892-8.8337,8.8339-1.8244,1.8244-3.6488,3.6488-5.4733,5.4734-4.0669,4.0667-4.0669,10.9931,0,15.0601,4.0808,4.0806,10.9802,4.0796,15.0599,0,4.7692-4.769,9.5381-9.5381,14.3073-14.3071,2.9444,2.9444,5.8892,5.8892,8.8337,8.8337,1.8244,1.8244,3.6488,3.6488,5.4733,5.4734,4.0669,4.0667,10.9933,4.0667,15.0602,0,4.0808-4.0808,4.0797-10.9805,0-15.0601Z" style="fill:#f953b2; stroke:#f953b2; stroke-miterlimit:10; stroke-width:2.1782px;"/><path d="M346.1712,827.4166c12.6976-6.5853,25.3951-13.1701,38.0927-19.7554,3.993-2.0708,5.3902-6.9579,4.5046-11.0693-4.8364-22.4615-9.6731-44.9226-14.5095-67.3841-7.6775-35.655-15.3551-71.31-23.0326-106.9651-1.3383-6.2155-2.6766-12.431-4.015-18.6465,14.1054-13.3272,28.2108-26.6544,42.3161-39.9816,.6878-.6498,1.3759-1.3,2.064-1.9502l-2.0935-9.1619-2.5625-11.2139c-1.9233,.4896-3.7402,1.3943-5.5554,3.0652-9.4037,8.6557-18.5883,17.5623-27.8779,26.3396-7.9239,7.4864-16.469,14.6492-23.9264,22.6061-5.0605,5.3997-1.417,14.8166-.0347,21.2359,2.4274,11.2742,4.8552,22.5483,7.283,33.8225,6.6796,31.0203,13.3591,62.0411,20.0387,93.0614,2.8227,13.1099,5.6458,26.2201,8.4688,39.33,.9459,4.3929,1.7733,8.8457,2.7206,13.2609-21.0384,10.9108-42.0768,21.8212-63.1149,32.732-2.1392,1.1093-4.2784,2.2186-6.4172,3.3279-1.0735-.2294-2.1466-.4591-3.2201-.6885l4.7144,20.6328c2.2909-.101,4.2869-.8842,6.4261-1.9935,13.2435-6.8682,26.4871-13.7363,39.7306-20.6045Z" style="fill:#f4d13b;"/><path d="M440.9683,560.3234c7.4613,30.4343,14.9226,60.8683,22.3838,91.3026,1.1476,4.6804,2.2948,9.3605,3.4424,14.0409,.7675,3.1319,3.6335,6.1758,6.8458,6.8458,24.495,5.1108,48.99,10.2212,73.4854,15.3317,9.1141,1.9013,18.215,4.0561,27.3776,5.7117,1.6999,.3074,3.2315,.2159,4.6535-.1407l-4.5322-19.8352c-.0035,.0028-.0067,.0057-.0103,.0085-27.7297-5.7854-55.4597-11.5705-83.1894-17.356-2.3757-.4956-4.7513-.9912-7.127-1.4869-7.5829-30.9299-15.1654-61.8595-22.7483-92.7891-1.1476-4.6804-2.2948-9.3605-3.4424-14.0409-1.0207-4.1632-5.2377-7.1961-9.4516-7.1961h-55.3268c-2.3214,0-4.4138,.0649-6.3935,.569l4.6559,20.3758c.4733-.4471,.9462-.8941,1.4195-1.3412h47.9573Z" style="fill:#fff;"/><path d="M606.1406,672.9317c10.3205-8.4823,20.641-16.965,30.9615-25.4476,4.0926-3.3637,3.4864-10.3755,0-13.8618-4.0479-4.0479-9.7593-3.3722-13.8618,0-15.4448,12.694-30.8895,25.3884-46.3339,38.0828-.7605,.625-1.5213,1.25-2.2817,1.8751l4.5322,19.8352c3.938-.9881,7.0117-4.0681,10.3123-6.7809,5.5571-4.5673,11.1143-9.135,16.6714-13.7026Z" style="fill:#f4d13b;"/><path d="M25.8686,542.6226c1.9824-.3304,3.9648-.6608,5.9473-.9912,.7597-.1266,1.5795-.8639,1.9526-1.5015,.4098-.7003,.5835-1.7325,.3294-2.5176-.2558-.7906-.7458-1.5533-1.5015-1.9526l-.7805-.3294c-.579-.1556-1.1581-.1556-1.7371,0-1.9824,.3304-3.9648,.6608-5.9473,.9912-.7597,.1266-1.5795,.8639-1.9526,1.5015-.4098,.7003-.5835,1.7325-.3294,2.5176,.2558,.7906,.7458,1.5533,1.5015,1.9526l.7805,.3294c.579,.1556,1.1581,.1556,1.7371,0h0Z" style="fill:#f953b2;"/><path d="M56.8712,490.5694c.9912,2.3128,1.9824,4.6256,2.9736,6.9385,.2995,.6988,1.257,1.3099,1.9526,1.5015,.7821,.2154,1.8235,.1181,2.5176-.3294,.6976-.4498,1.3118-1.1195,1.5015-1.9526l.1167-.8686c-.0018-.5898-.1505-1.1395-.4461-1.6491-.9912-2.3128-1.9824-4.6256-2.9736-6.9385-.2995-.6988-1.257-1.3099-1.9526-1.5015-.7821-.2154-1.8235-.1181-2.5176,.3294-.6976,.4498-1.3118,1.1195-1.5015,1.9526l-.1167,.8686c.0018,.5898,.1505,1.1395,.4461,1.6491h0Z" style="fill:#f953b2;"/><path d="M103.1287,475.166c-.9912,3.6344-1.9824,7.2689-2.9736,10.9033-.4493,1.6474,.5587,3.6266,2.282,4.0191s3.5379-.5174,4.0191-2.282c.9912-3.6344,1.9824-7.2689,2.9736-10.9033,.4493-1.6474-.5587-3.6266-2.282-4.0191s-3.5379,.5174-4.0191,2.282h0Z" style="fill:#f953b2;"/><path d="M290.4092,128.6068c9.0103-2.7677,18.1959-4.9493,27.4336-6.808,5.2234-1.051,10.4686-1.9931,15.7285-2.8423,5.3338-.8611,10.5281-1.6051,15.6298-2.2451,21.7895-2.7334,43.845-4.1831,65.8085-3.5068,5.5574,.1711,11.1121,.4908,16.647,1.0235,1.2778,.123,2.5545,.2575,3.8298,.4049,.6248,.0722,1.2493,.1475,1.8734,.226,.3087,.0389,.6173,.0792,.9259,.119,.7225,.0931-.4313-.0635,.3545,.0481,2.4525,.3482,4.8975,.735,7.3319,1.1939,1.7322,.3266,3.5245-.4819,4.0191-2.282,.438-1.594-.5392-3.6906-2.282-4.0191-19.9533-3.7616-40.5929-3.8969-60.8121-2.9823-22.3236,1.0098-44.6427,3.5748-66.5987,7.7416-10.6542,2.022-21.2556,4.4419-31.6263,7.6275-1.6864,.518-2.7594,2.282-2.282,4.0191,.4583,1.6677,2.3259,2.8021,4.0191,2.282h0Z" style="fill:#6966ed;"/></svg>