<?xml version="1.0" encoding="UTF-8"?><svg id="Layer_2" xmlns="http://www.w3.org/2000/svg" width="1000" height="1000" viewBox="0 0 1000 1000"><polygon points="823.0201 559.0437 902.7797 331.5604 960.0811 350.7176 880.8739 576.456 823.0201 559.0437" style="fill:#f953b2;"/><path d="M494.3344,311.5234c-1.3943,1.2703-2.6441,2.8203-3.0279,4.7137-.3881,1.9149,.0104,3.8242,.7939,5.5837,1.5164,3.4051,4.4409,5.9722,7.2637,8.2899,2.6371,2.1652,6.24,4.5405,7.5904,7.8107,.5544,1.3426,.6018,3.2815-.9075,4.0106-1.5026,.7259-3.6531,.5201-5.2637,.4404-4.4671-.221-8.788-1.6294-12.5965-3.9542-2.0693-1.2632-3.9592,1.9849-1.8963,3.2441,3.6347,2.2188,7.6802,3.6559,11.9,4.2203,3.5861,.4796,8.9823,1.0183,11.5132-2.1842,2.8613-3.6206,.7454-8.1605-1.9521-11.1368-2.6075-2.8769-5.8938-5.0126-8.6931-7.684-1.5086-1.4396-3.0115-3.096-3.7543-5.0788-.876-2.3385-.0718-4.0165,1.6869-5.6188,1.7912-1.6319-.8718-4.2829-2.6567-2.6567h0Z"/><polygon points="889.9488 887.9812 629.4574 775.2686 629.4574 518.5342 889.9488 631.2468 889.9488 887.9812" style="fill:#6966ed;"/><rect x="298.2074" y="518.5342" width="331.2499" height="256.7344" style="fill:#6966ed;"/><polyline points="433.6496 602.7951 424.383 549.8433 564.7054 549.8433 581.2528 653.0994" style="fill:#fff;"/><polyline points="697.085 658.1726 713.3657 518.5342 788.5388 530.4871 773.4791 673.8272" style="fill:#f4d13b;"/><polyline points="608.1672 609.3027 619.9182 508.5153 674.1763 517.1426 663.3065 620.6018" style="fill:#f953b2;"/><polyline points="490.5728 618.6807 481.3062 565.7288 621.6286 565.7288 638.1761 668.9849" style="fill:#f4d13b;"/><polyline points="549.4817 637.2138 540.2151 584.262 680.5375 584.262 697.085 687.5181" style="fill:#fff;"/><rect x="558.6989" y="631.2468" width="331.2499" height="256.7344" style="fill:#f4d13b;"/><polygon points="951.9408 716.4075 620.6908 716.4075 558.6989 631.2468 889.9488 631.2468 951.9408 716.4075" style="fill:#f953b2;"/><polygon points="558.6989 887.9812 298.2074 775.2686 298.2074 518.5342 558.6989 631.2468 558.6989 887.9812" style="fill:#f4d13b;"/><polygon points="481.6786 703.2577 221.1871 590.5451 298.2074 518.5342 558.6989 631.2468 481.6786 703.2577" style="fill:#f953b2;"/><path d="M400.2155,382.8569c21.282,19.6586,53.4521,23.4852,79.6404,11.9995,25.8647-11.3437,44.4385-35.8317,51.2894-62.8848,7.3151-28.8866,4.8288-61.0022-4.0095-89.276-3.8143-12.202-9.7225-23.6065-18.9625-32.5959-8.8803-8.6394-20.0932-14.4756-31.9796-17.7686-22.8029-6.3174-48.3511-5.347-70.2092,3.8974-19.0679,8.0643-34.6769,22.1174-46.9247,38.6081-12.1069,16.301-20.9615,34.8762-27.8337,53.9196-3.1764,8.8019-5.9138,17.7607-8.2768,26.8142-2.9199,11.1873-5.131,21.9794-12.0256,31.6035-8.1591,11.3892-19.8806,18.4353-33.1693,22.2354-14.2834,4.0846-28.2589,9.1779-41.8808,15.1004-27.691,12.0394-53.7794,27.6745-77.7252,46.0484-48.7158,37.3801-90.6919,86.5254-114.5324,143.4791-23.1933,55.4076-29.1583,119.9607-5.1099,176.1147,20.0967,46.9266,59.4967,83.6135,106.1823,103.5039,23.7146,10.1036,49.0946,15.9969,74.8309,17.4544,34.2388,1.939,68.711-3.8195,101.585-13.0807,17.219-4.8509,34.1921-10.6773,50.8281-17.2522,7.6036-3.0051,14.9878-6.7475,22.9629-8.7082,8.7917-2.1615,16.7492-.2361,25.2185,2.3226,8.2955,2.5061,16.4323,5.5129,24.7884,7.8212,8.8531,2.4456,17.6927,4.9415,26.537,7.419,4.2299,1.1849,8.4598,2.3698,12.6898,3.5547,3.7952,1.0631,7.6715,2.5416,11.6623,2.5117,6.0723-.0455,11.8531-3.1358,15.3193-8.106,7.4284-10.6515,1.6156-25.0403-10.3954-28.7775l-1.4982,5.4343c9.9174,2.4678,20.3349-2.9976,23.1452-13.0437,2.8135-10.0575-3.2951-20.1119-13.0437-23.1452l-1.4982,5.4343c9.9174,2.4678,20.3349-2.9976,23.1452-13.0437,2.8135-10.0575-3.2951-20.1119-13.0437-23.1452l-1.4982,5.4343c7.9162,1.9638,16.2458-.9295,20.7915-7.8399,4.5122-6.8596,3.744-15.9726-1.4498-22.2241-4.77-5.7413-12.1993-6.9527-18.9956-8.8539-21.0132-5.8783-42.0264-11.7566-63.0396-17.6349-5.7511-1.6088-11.4903-3.2733-17.2622-4.8067-22.2102-5.9003-45.3612-8.3618-68.3164-7.3662-22.3029,.9673-43.7089,6.334-65.5932,10.1836-20.9565,3.6864-42.3719,4.4428-62.669-2.8343-17.3582-6.2234-32.9399-18.1875-40.5109-35.3414-7.1108-16.1113-7.9555-35.8748-1.3524-52.2838,1.6264-4.0417,3.8144-7.821,6.407-11.3163,2.1622-2.915-2.7271-5.7282-4.8662-2.8444-20.6183,27.7969-13.0036,71.3111,13.0484,92.8073,13.9473,11.5083,31.5485,17.8161,49.4069,19.7085,21.7432,2.3041,43.224-2.5962,64.4047-6.8713,22.3144-4.5039,44.6779-6.8234,67.4489-5.2386,15.737,1.0952,31.1581,4.0295,46.3342,8.2749,18.8365,5.2694,37.673,10.5387,56.5094,15.8081,8.2648,2.312,16.5296,4.6241,24.7945,6.9361,2.1738,.6081,4.4053,1.1025,6.3693,2.2572,7.7945,4.5829,9.0321,15.7922,1.8934,21.601-3.3572,2.7318-7.7133,3.4722-11.8548,2.4448-3.5285-.8753-4.9599,4.3572-1.4982,5.4343,6.8571,2.1336,11.0684,9.162,9.1075,16.2127-1.9647,7.0642-9.2701,10.8351-16.2127,9.1075-3.5281-.8779-4.9596,4.3573-1.4982,5.4343,6.8571,2.1336,11.0684,9.162,9.1075,16.2127-1.9647,7.0642-9.2701,10.8351-16.2127,9.1075-3.5281-.8779-4.9596,4.3573-1.4982,5.4343,6.3127,1.9642,10.5258,8.1024,9.4284,14.7656-1.0586,6.4275-6.7996,11.1894-13.308,11.0383-3.6656-.0851-7.4766-1.6751-10.9793-2.6563-4.6529-1.3034-9.3057-2.6067-13.9586-3.9101-8.3849-2.3488-16.7782-4.6696-25.1598-7.0297-7.9565-2.2404-15.7173-5.1098-23.6278-7.4996-7.4871-2.2619-15.0266-4.3285-22.9008-3.3143-7.5512,.9726-14.5884,3.9513-21.5412,6.9034-7.8306,3.3248-15.7915,6.3247-23.7993,9.1949-57.589,20.6412-120.5439,32.8746-180.6381,15.8768-46.8036-13.2385-89.1403-42.6163-115.4029-83.8707-30.4634-47.8532-34.9308-106.6525-20.9218-160.8307,15.2308-58.9031,50.8304-110.5689,94.7039-151.9849,42.1522-39.7912,93.2856-70.4697,149.166-86.3792,12.3397-3.5132,23.4932-10.0737,31.8807-19.8895,7.9113-9.2585,11.8685-19.7839,14.6831-31.4518,4.1835-17.3428,9.6456-34.4682,16.9945-50.7409,16.3383-36.1782,43.5464-69.8639,84.6863-77.025,22.8938-3.985,49.809-.774,69.0131,13.0319,22.0656,15.863,28.685,45.0586,31.1942,70.6245,2.7656,28.1776-.3042,58.1874-16.8947,81.9411-16.0661,23.0027-42.9383,37.5735-71.304,34.2091-13.4524-1.5956-26.3544-7.1652-36.3302-16.38-2.661-2.458-6.6561,1.5177-3.985,3.985h0Z"/><path d="M497.6501,387.2115c24.6119,4.0679,44.6995,19.6821,61.084,37.718,8.615,9.4834,16.2516,19.7555,23.8487,30.0554,8.0855,10.9621,15.5629,22.1598,21.5517,34.4169,1.2989,2.6583,2.5349,5.351,3.4457,8.1705,.6944,2.1494,1.6465,4.9859,.8216,7.2291-1.1184,3.0413-7.0141,7.8712-9.2586,3.6386-.1469,1.1382-.2937,2.2765-.4406,3.4147,23.8171-22.0298,47.6341-44.0596,71.4512-66.0894,21.9262-20.2809,43.8685-40.853,68.9162-57.2947,23.9-15.6884,51.1238-27.7257,79.8933-30.0556,29.0894-2.3558,56.8977,6.6505,82.818,19.1008,13.0411,6.264,25.7012,13.2785,38.4142,20.1734,5.5216,2.9947,10.6995,6.169,15.2343,10.5636,4.1241,3.9967,7.5803,8.5922,10.294,13.6534,5.4557,10.1755,7.6248,22.1465,5.9053,33.5825-2.0007,13.3054-7.8628,25.9981-13.8575,37.9009-5.7418,11.4007-11.797,22.6637-18.4885,33.5386-2.7422,4.4567-5.4373,8.9429-9.2245,12.6075-4.1142,3.981-9.1621,6.9837-14.6286,8.6875-5.3405,1.6645-11.0601,2.1669-16.5986,1.3065-1.3466-.2092-2.6818-.5015-3.9976-.8548-.6661-.1788-1.3271-.3749-1.983-.5881-.351-.1141-2.3581-.8448-1.176-.3678-.2387-.0963-.4728-.2063-.7087-.3091-4.1748-1.8199-8.3487-3.6419-12.5231-5.4629-13.7995-6.0197-27.5991-12.0394-41.3986-18.0591-3.5952-1.5683-7.1998-3.1169-10.7862-4.7052-3.5385-1.5671-6.453-3.9654-7.9875-7.6107-2.111-5.0147-.8789-10.8172,3.0638-14.5552,3.8943-3.6923,9.407-4.355,14.2988-2.4702,2.9506,1.1368,5.1022-3.8816,2.1713-5.1503-6.7009-2.9005-10.406-10.3-7.5686-17.3005,2.8324-6.9879,10.6849-9.7306,17.4877-7.1074,2.9503,1.1377,5.1021-3.8816,2.1713-5.1503-6.7009-2.9005-10.406-10.3-7.5686-17.3005,2.8324-6.9879,10.6849-9.7306,17.4877-7.1074,2.9503,1.1377,5.1021-3.8816,2.1713-5.1503-6.1701-2.6708-9.884-9.1059-8.069-15.789,1.7261-6.3559,8.159-10.5963,14.6911-9.5693,4.3119,.678,8.5667,3.1087,12.5775,4.7509,4.5007,1.8428,9.0014,3.6856,13.5021,5.5284,9.112,3.7309,18.3398,7.2608,27.3249,11.2885,9.5598,4.2853,18.9242,9.0897,28.9081,12.3453,3.4561,1.127,4.9369-4.313,1.4982-5.4343-10.0797-3.2868-19.4814-8.2284-29.1613-12.4883-10.0736-4.4332-20.3708-8.4018-30.556-12.5721-5.2268-2.1401-10.4536-4.2802-15.6804-6.4203-4.0643-1.6641-7.8787-3.1593-12.3578-2.655-7.8134,.8798-14.5655,6.606-16.3376,14.3514-2.0066,8.7707,2.5379,17.9469,10.8159,21.5301,.7238-1.7168,1.4475-3.4335,2.1713-5.1503-9.4478-3.6432-20.2808,1.0154-24.1485,10.3654-3.8613,9.3347,.6275,20.3351,9.8868,24.343,.7238-1.7168,1.4475-3.4335,2.1713-5.1503-9.4478-3.6432-20.2808,1.0154-24.1485,10.3654-3.8613,9.3347,.6275,20.3351,9.8868,24.343,.7238-1.7168,1.4475-3.4335,2.1713-5.1503-11.6146-4.475-24.5182,3.6881-25.4889,16.0831-.6811,8.6982,4.966,15.885,12.6093,19.2191,12.3182,5.3735,24.6364,10.747,36.9546,16.1205,6.7379,2.9392,13.4758,5.8784,20.2136,8.8177,3.6886,1.6091,7.3748,3.4591,11.253,4.5726,11.6631,3.3485,24.5999,1.4279,34.7823-5.1769,9.83-6.3762,15.4794-16.6637,21.2135-26.5466,7.3829-12.7247,14.5377-25.8361,20.3037-39.379,5.127-12.0421,9.4732-24.9758,8.764-38.2343-.652-12.1888-5.0151-24.0203-12.4548-33.6962-3.7777-4.9131-8.2443-9.1848-13.3057-12.7628-5.8204-4.1146-12.4169-7.2035-18.6708-10.5961-26.3559-14.2975-53.7033-28.7391-83.6647-33.4822-30.0581-4.7584-60.0644,1.7514-87.2949,14.7343-28.1106,13.4025-52.4915,33.3107-75.5005,54.0238-24.8259,22.3488-49.1331,45.2923-73.6548,67.9738-6.1576,5.6955-12.3152,11.391-18.4727,17.0865-.9423,.8716-1.0125,2.3364-.4406,3.4147,2.7654,5.2147,8.6279,5.4714,13.2479,2.5218,4.4246-2.8249,7.2793-7.1887,6.6521-12.5373-.6825-5.8202-3.4592-11.2801-6.0419-16.4602-3.3733-6.766-7.1426-13.2555-11.3592-19.5328-8.3129-12.3755-17.3248-24.4901-26.8295-35.9794-8.7656-10.5959-18.3738-20.5205-29.35-28.846-12.2092-9.2607-26.2505-16.1614-41.4481-18.6733-3.5478-.5864-5.0736,4.8434-1.4982,5.4343h0Z"/><path d="M521.7998,758.2834c-6.8117-1.8174-13.6234-3.6349-20.4352-5.4523-10.8121-2.8848-21.6243-5.7696-32.4364-8.6543-2.4926-.665-4.9851-1.3301-7.4777-1.9951-3.508-.936-5.0045,4.4988-1.4982,5.4343,6.8117,1.8174,13.6234,3.6349,20.4352,5.4523,10.8121,2.8848,21.6243,5.7696,32.4364,8.6543,2.4926,.665,4.9851,1.3301,7.4777,1.9951,3.508,.936,5.0045-4.4988,1.4982-5.4343h0Z"/><path d="M513.0333,788.9662c-6.8117-1.8174-13.6234-3.6349-20.4352-5.4523-10.8121-2.8848-21.6243-5.7696-32.4364-8.6543-2.4926-.665-4.9851-1.3301-7.4777-1.9951-3.508-.936-5.0045,4.4988-1.4982,5.4343,6.8117,1.8174,13.6234,3.6349,20.4352,5.4523,10.8121,2.8848,21.6243,5.7696,32.4364,8.6543,2.4926,.665,4.9851,1.3301,7.4777,1.9951,3.508,.936,5.0045-4.4988,1.4982-5.4343h0Z"/><path d="M505.5191,820.2753c-6.8117-1.8174-13.6234-3.6349-20.4352-5.4523-10.8121-2.8848-21.6243-5.7696-32.4364-8.6543-2.4926-.665-4.9851-1.3301-7.4777-1.9951-3.508-.936-5.0045,4.4988-1.4982,5.4343,6.8117,1.8174,13.6234,3.6349,20.4352,5.4523,10.8121,2.8848,21.6243,5.7696,32.4364,8.6543,2.4926,.665,4.9851,1.3301,7.4777,1.9951,3.508,.936,5.0045-4.4988,1.4982-5.4343h0Z"/><path d="M556.1942,658.4857c-.0765,3.3256-.0759,6.6537-.0893,9.9799-.0244,6.0189-.0294,12.0379-.0314,18.0568-.0027,8.0584,.0035,16.1168,.0125,24.1752,.0106,9.4448,.0257,18.8897,.0424,28.3345,.018,10.1783,.038,20.3567,.0582,30.535,.0203,10.2589,.0409,20.5178,.0599,30.7766,.018,9.6865,.0347,19.3729,.0476,29.0594,.0113,8.4611,.02,16.9222,.0212,25.3833,.001,6.6066-.0014,13.2133-.0194,19.8199-.011,4.0275-.018,8.0556-.0735,12.0828-.0074,.5351-.0159,1.0701-.0282,1.6051-.0835,3.6279,5.5522,3.6267,5.6356,0,.0765-3.3256,.0759-6.6537,.0893-9.9799,.0244-6.0189,.0294-12.0379,.0314-18.0568,.0027-8.0584-.0035-16.1168-.0125-24.1752-.0106-9.4448-.0257-18.8897-.0424-28.3345-.018-10.1783-.038-20.3567-.0582-30.535-.0203-10.2589-.0409-20.5178-.0599-30.7766-.018-9.6865-.0347-19.3729-.0476-29.0594-.0113-8.4611-.02-16.9222-.0212-25.3833-.001-6.6066,.0014-13.2133,.0194-19.8199,.011-4.0275,.018-8.0556,.0735-12.0828,.0074-.5351,.0159-1.0701,.0282-1.6051,.0835-3.6279-5.5522-3.6267-5.6356,0h0Z" style="fill:#f953b2;"/><path d="M842.0514,379.406c5.3197,3.3496,10.9328,6.2498,16.5333,9.0949,3.4724,1.764,6.9677,3.4831,10.481,5.1642,1.8424,.8816,3.69,1.7524,5.5429,2.6118,1.3848,.6423,2.4285,1.2064,3.3887,2.3827,1.6863,2.0657,1.9383,4.7978,.8509,7.3963-.5878,1.4046,.6337,3.0996,1.9681,3.4662,1.6245,.4464,2.8762-.5582,3.4662-1.9681,1.3334-3.1862,1.0349-6.8621-.3767-9.9573-1.5926-3.4921-4.5509-5.294-7.884-6.8526-7.4023-3.4614-14.742-7.0738-21.9409-10.9419-3.1075-1.6697-6.199-3.3822-9.1851-5.2624-3.078-1.9381-5.9093,2.9364-2.8444,4.8662h0Z"/><path d="M850.9976,422.5706c-4.4481-2.9736-9.3585-5.229-14.4974-6.7161-1.5076-.4363-3.0049,.5319-3.4662,1.9681-4.2616,13.2676-12.8126,25.2452-24.0111,33.5594-3.2573,2.4184-6.7211,4.5409-10.3478,6.358-1.3603,.6815-1.7438,2.6023-1.0109,3.8553,.8099,1.3847,2.4899,1.695,3.8553,1.0109,13.5026-6.7651,24.8005-17.9117,31.8765-31.2455,2.0424-3.8487,3.74-7.8922,5.0723-12.04l-3.4662,1.9681c4.701,1.3604,9.083,3.4284,13.1512,6.148,1.2656,.8461,3.1199,.2464,3.8553-1.0109,.8089-1.3829,.2577-3.0072-1.0109-3.8553h0Z"/><path d="M856.9045,434.2412c5.3056,2.2637,10.6112,4.5274,15.9168,6.7912,8.4113,3.5888,16.8226,7.1776,25.2339,10.7665,1.9376,.8267,3.8753,1.6534,5.8129,2.4802,1.3985,.5967,3.0197,.4177,3.8553-1.0109,.693-1.1848,.3966-3.2548-1.0109-3.8553-5.3056-2.2637-10.6112-4.5274-15.9168-6.7912-8.4113-3.5888-16.8226-7.1776-25.2339-10.7665-1.9376-.8267-3.8753-1.6534-5.8129-2.4802-1.3985-.5967-3.0197-.4177-3.8553,1.0109-.693,1.1848-.3966,3.2548,1.0109,3.8553h0Z"/><path d="M843.7547,463.6717c5.3056,2.2637,10.6112,4.5274,15.9168,6.7912,8.4113,3.5888,16.8226,7.1776,25.2339,10.7665,1.9376,.8267,3.8753,1.6534,5.8129,2.4802,1.3985,.5967,3.0197,.4177,3.8553-1.0109,.693-1.1848,.3966-3.2548-1.0109-3.8553-5.3056-2.2637-10.6112-4.5274-15.9168-6.7912-8.4113-3.5888-16.8226-7.1776-25.2339-10.7665-1.9376-.8267-3.8753-1.6534-5.8129-2.4802-1.3985-.5967-3.0197-.4177-3.8553,1.0109-.693,1.1848-.3966,3.2548,1.0109,3.8553h0Z"/><path d="M831.231,493.1022c5.3056,2.2637,10.6112,4.5274,15.9168,6.7912,8.4113,3.5888,16.8226,7.1776,25.2339,10.7665,1.9376,.8267,3.8753,1.6534,5.8129,2.4802,1.3985,.5967,3.0197,.4177,3.8553-1.0109,.693-1.1848,.3966-3.2548-1.0109-3.8553-5.3056-2.2637-10.6112-4.5274-15.9168-6.7912-8.4113-3.5888-16.8226-7.1776-25.2339-10.7665-1.9376-.8267-3.8753-1.6534-5.8129-2.4802-1.3985-.5967-3.0197-.4177-3.8553,1.0109-.693,1.1848-.3966,3.2548,1.0109,3.8553h0Z"/><path d="M499.8239,491.6497c5.8655,10.5389,10.879,21.5204,14.9626,32.8696,.515,1.4313,1.9183,2.3935,3.4662,1.9681,1.3829-.3801,2.4858-2.0274,1.9681-3.4662-4.2461-11.8007-9.4316-23.257-15.5307-34.2158-1.764-3.1696-6.6334-.3308-4.8662,2.8444h0Z"/><g><path d="M522.9004,269.1275c-5.5108,6.4222-13.0962,10.8343-21.9062,9.5177-8.3572-1.249-15.7054-7.7083-18.0155-15.8364-3.5725,8.1328-12.8729,13.3303-21.6717,12.1111s-16.3355-8.7498-17.5619-17.5476c-5.5418-2.2352-12.0901,.2554-16.3062,4.49s-6.603,9.9068-8.8908,15.4271c-3.2209,7.7721-6.2398,16.0253-9.861,23.4361-.0544-7.7829-.6022-16.0147-3.398-23.3457-2.6038-6.8274-7.8024-13.0728-14.8407-15.0367-9.4125-2.6264-19.3597,3.0245-25.6789,10.4785-3.026,3.5694-5.5528,7.6531-6.7474,12.1776-2.0263,7.6748-.0249,15.9528,3.6935,22.9657,2.4764,4.6706,5.717,8.929,9.5332,12.5854,3.2375,3.102,10.2256,5.9243,11.8689,9.7473,2.3081,5.3695,.8432,19.5141,.778,25.951-.0612,6.0409-10.2153,71.7812-6.6415,71.9773-21.3469-1.1716-41.6854-10.101-59.3414-22.1563-13.4114-9.1571-30.4521-21.191-39.6448-34.7305-2.2452-3.3068-4.2105-7.2332-3.4287-11.153,1.061-5.3199,6.3511-8.3765,9.1532-12.6805,2.5466-3.9116,5.087-9.5418,6.556-13.9823,2.2655-6.8487,2.6835-14.1445,3.3979-21.3227,3.9929-40.1188,16.8879-88.4317,47.1328-116.8494,23.4777-22.059,54.5616-35.7257,86.6381-38.7086,29.6933-2.7614,64.4265,2.0313,87.8323,21.3952,21.8494,18.0762,36.1153,45.2043,38.1823,73.5267,1.536,21.0476-14.7471,34.0463-30.8316,17.5631Z"/><path d="M520.9079,267.135c-4.9699,5.7244-12.0856,10.1546-19.9574,8.6584-7.1445-1.3579-13.1934-6.7461-15.2547-13.7338-.6281-2.1294-4.1019-2.9916-5.1503-.6731-3.2031,7.0839-11.0206,11.8636-18.8634,10.7615-7.8647-1.1052-14.0596-7.8102-15.2199-15.5249-.1509-1.0035-1.1141-1.6423-1.9681-1.9681-7.7151-2.9435-16.211,1.3511-21.0106,7.445-5.2975,6.7261-8.0142,15.2762-11.1602,23.1345-1.8991,4.7435-3.8353,9.4709-6.0693,14.0686,1.7503,.4741,3.5006,.9481,5.2509,1.4222-.1002-11.9809-1.3033-25.3111-9.8395-34.5292-3.835-4.1413-8.9548-6.826-14.6044-7.2689-5.6653-.4441-11.405,1.6128-16.0916,4.6839-9.9739,6.5358-17.5274,17.9942-16.4611,30.238,.5451,6.2587,2.7494,12.2522,5.9519,17.6316,2.9478,4.9515,6.7608,9.8676,11.5043,13.2129,2.0137,1.4202,4.1893,2.6167,6.1452,4.1189,.7262,.5577,1.4822,1.1994,2.0402,1.9319-.1326-.1741,.5953,1.0936,.3376,.5128,.166,.3742,.2751,.7818,.3811,1.1766,.5261,1.9599,.5894,3.4176,.6733,5.5476,.0946,2.4007,.056,4.8057-.0214,7.2063-.1668,5.1743-.26,10.38-.8513,15.5268-1.4578,12.6888-3.296,25.3325-4.7916,38.0173-.758,6.4288-1.4912,12.8693-1.9419,19.3283-.1513,2.1684-.2839,4.3464-.2589,6.5211,.0177,1.5393,.0054,3.3185,.7657,4.706,.6095,1.1122,1.5749,1.6237,2.8118,1.7563v-5.6356c-22.6459-1.3056-43.0445-11.4763-61.4001-24.1608-8.7173-6.024-17.3254-12.3002-24.9853-19.6507-3.6231-3.4767-7.0771-7.1942-9.9324-11.3358-1.4842-2.1529-2.9885-4.533-3.3846-7.1696-.3344-2.2261,.4961-4.2099,1.7911-5.9726,1.2769-1.738,2.9224-3.2005,4.3766-4.7862,1.6821-1.8342,3.0604-3.8425,4.2688-6.0138,2.693-4.8389,4.9441-10.1196,6.2659-15.5052,1.4539-5.9239,1.8678-12.0476,2.4593-18.0999,.4496-4.6001,1.0017-9.1903,1.6752-13.7631,2.8857-19.5934,7.6501-39.1055,15.3456-57.3926,7.5017-17.8266,17.9922-34.3028,32.5698-47.1559,15.9735-14.0839,35.2579-24.3301,55.7295-30.1114,19.7367-5.5738,40.7862-6.9726,61.1161-4.2823,19.7865,2.6185,39.1491,9.6184,54.0684,23.1995,15.0972,13.743,25.996,31.9198,30.9804,51.7199,1.2301,4.8863,2.1148,9.8585,2.5712,14.8775,.4199,4.6176,.311,9.1822-1.1733,13.6144-1.076,3.213-3.1545,6.5088-5.6094,8.2383-1.516,1.0681-2.4337,1.5064-4.1816,1.8994-.1889,.0425-.3787,.0791-.5689,.1151-.4793,.0908,.3693-.0345-.1183,.0252-.4405,.0539-.8867,.0768-1.3304,.082-.9727,.0113-1.6375-.0601-2.3196-.1996-4.1473-.8478-7.6103-3.4437-10.5757-6.4447-2.553-2.5837-6.5378,1.4015-3.985,3.985,6.3541,6.4304,15.7269,11.0023,24.4366,6.3259,7.996-4.2931,11.187-14.1221,11.3022-22.6617,.0728-5.3951-.8077-10.9178-1.8534-16.1963-1.0277-5.1877-2.457-10.2951-4.2564-15.2677-3.6607-10.1159-8.749-19.7084-15.1671-28.3458-6.4167-8.6356-14.0071-16.4826-22.7852-22.739-8.6023-6.1311-18.4122-10.5192-28.5115-13.5319-20.4087-6.088-42.4826-6.9492-63.5049-4.0398-22.0939,3.0577-43.5677,11.1338-62.1718,23.4462-9.0139,5.9655-17.5767,12.8939-24.8649,20.8976-6.7999,7.4675-12.5761,15.8571-17.4274,24.7045-9.9727,18.1874-16.3623,38.2545-20.4875,58.5228-2.0148,9.8994-3.488,19.9137-4.4879,29.9657-.6036,6.0684-.9787,12.1939-2.5631,18.1096-1.4268,5.3271-3.7392,10.574-6.6692,15.2447-2.5078,3.9976-6.7447,6.6549-8.7737,11.0079-2.6845,5.7594-.4428,11.6245,2.9477,16.5425,6.2858,9.1177,14.7671,16.5122,23.476,23.2378,18.195,14.0515,38.0416,26.9155,60.6929,32.2298,5.5843,1.3102,11.2887,2.1408,17.0151,2.4709,1.5209,.0877,2.8178-1.3579,2.8178-2.8178,0-1.6585-1.298-2.6549-2.8178-2.8178,1.0501,.1125,1.788,.6007,2.0969,1.121,.3653,.6153-.034,.54,.0951,.1316,.016-.0506-.0497-.2772-.0662-.3328-.1679-.5679,.0291,.546,.0349,.2712,.0066-.3101-.0566-.6352-.0724-.9463-.0964-1.8931,.0005-3.7996,.1076-5.6899,.33-5.8249,.9667-11.6345,1.6233-17.4299,1.446-12.7632,3.2184-25.485,4.7999-38.2313,.4385-3.5345,.7694-7.0087,.9107-10.5637,.1743-4.3864,.4658-8.7693,.4467-13.1613-.017-3.8997,.0497-8.5706-1.873-12.0973-2.2185-4.0693-7.0681-6.1887-10.6977-8.7577-1.9192-1.3584-3.6473-3.3545-5.1902-5.1981-1.7984-2.1488-3.3715-4.4854-4.7447-6.9268-2.8053-4.9879-4.7296-10.6248-4.6906-16.3966,.038-5.6123,2.3031-10.7361,5.7005-15.1291,5.6959-7.3652,15.982-14.4228,25.6096-10.4686,10.0492,4.1274,13.2988,16.3001,14.1464,26.0594,.2618,3.0143,.3529,6.0391,.3782,9.0637,.0222,2.6487,3.9844,4.0288,5.2509,1.4222,4.6189-9.5061,7.8385-19.6092,12.3445-29.1572,1.8824-3.9888,4.2119-8.1398,7.8598-10.7789,3.4145-2.4702,7.6276-3.6651,11.6714-2.1222l-1.9681-1.9681c1.1343,7.5423,6.4747,14.407,13.3732,17.6034,7.2809,3.3736,15.7711,2.668,22.4809-1.7454,3.6583-2.4063,6.7182-5.742,8.5298-9.7484-1.7168-.2244-3.4335-.4487-5.1503-.6731,2.0037,6.7926,6.9654,12.6715,13.3857,15.7043,6.9156,3.2669,14.6958,3.1271,21.5187-.3137,3.7312-1.8817,6.9992-4.6865,9.7271-7.8284,.9972-1.1485,1.1294-2.8556,0-3.985-1.019-1.019-2.983-1.1541-3.985,0Z"/></g><g><path d="M349.4667,204.453c-18.1352-5.8391-31.7754-23.5825-32.7559-42.6092-.9805-19.0268,10.7635-38.0783,28.2023-45.7507,9.4141-4.1418,20.0257-5.1096,30.2402-3.9074,9.9752,1.174,19.8755,4.468,27.7734,10.6734,10.7738,8.465,17.094,22.1625,17.0315,35.8638-.0626,13.7013-6.3553,27.1601-16.5014,36.3681"/><path d="M350.2158,201.7359c-13.8597-4.5271-24.9233-16.435-29.019-30.3598-4.2076-14.3053-.2319-30.0769,9.61-41.3344,5.1258-5.8631,11.6138-10.3664,19.019-12.8353,8.5953-2.8656,17.9624-3.3447,26.8942-1.9918,8.6132,1.3046,17.1362,4.2243,24.1122,9.5601,6.201,4.7431,10.9501,11.4563,13.6103,18.7762,5.5913,15.3847,1.9526,32.7539-8.668,45.1152-1.345,1.5654-2.7879,3.0394-4.3103,4.4324-2.6816,2.4536,1.3124,6.4304,3.985,3.985,13.4312-12.2893,20.1213-31.3074,16.1277-49.2077-1.9319-8.6591-6.2759-16.8406-12.4546-23.2164-6.5979-6.8084-15.3155-11.2356-24.4383-13.5723-18.3992-4.7127-39.2394-2.2123-53.7334,10.7844-12.563,11.2652-19.1394,28.6717-16.4625,45.3858,2.5645,16.0126,13.6935,30.6843,28.3567,37.5763,1.9075,.8965,3.8693,1.6821,5.8727,2.3365,1.4464,.4724,3.0766-.5501,3.4662-1.9681,.4201-1.5288-.5163-2.992-1.9681-3.4662h0Z"/></g><path d="M467.8263,295.2774c5.3834-2.6833,12.2481-.9417,15.9844,3.6687,.6392,.7888,1.9919,.6647,2.6567,0,.7798-.7798,.6409-1.8659,0-2.6567-4.8343-5.9654-13.7436-7.6424-20.5373-4.2562-.9078,.4525-1.1618,1.7362-.6739,2.5702,.5408,.9246,1.659,1.1281,2.5702,.6739h0Z"/><path d="M503.874,300.3438c3.6906-2.5152,8.5152-2.8714,12.4152-.8276,.8984,.4708,2.0416,.2298,2.5702-.6739,.495-.8463,.2279-2.0976-.6739-2.5702-5.0607-2.652-11.4564-2.4106-16.2078,.8276-.8373,.5707-1.2113,1.6515-.6739,2.5702,.4855,.8301,1.7279,1.248,2.5702,.6739h0Z"/><path d="M458.3904,353.5915c2.3527,3.0938,5.6156,5.3697,9.4156,6.2979,.953,.2328,2.081-.3031,2.3108-1.312,.2206-.9687-.2909-2.0614-1.312-2.3108-.3829-.0935-.7622-.1994-1.1367-.3225-.2079-.0684-.4142-.1415-.6188-.2191-.0818-.0311-.163-.0638-.2446-.0954-.3292-.1275,.2388,.1102,.0249,.0117-.738-.3397-1.4541-.7081-2.1366-1.151-.1653-.1073-.3283-.2179-.4892-.3316-.0715-.0505-.1426-.1017-.2132-.1535-.2061-.1512-.1254-.1337,.0137,.0163-.2598-.2802-.6176-.5038-.901-.7644-.3061-.2814-.6001-.5759-.881-.8824-.1331-.1452-.2634-.2929-.3903-.4435-.0937-.1111-.5033-.6378-.1975-.2358-.3089-.4062-.61-.7221-1.1227-.8633-.4497-.1238-1.0484-.0679-1.4475,.1894-.7705,.4967-1.3101,1.7336-.6739,2.5702h0Z"/><path d="M468.6006,310.7935c.5094,.0135,1.0179,.0412,1.5251,.0907,.1901,.0185,.3801,.0393,.5695,.0633-.3363-.0426,.3801,.0621,.4452,.0734,.91,.1568,1.8093,.3743,2.6906,.6497,.4558,.1425,.907,.3001,1.352,.4735-.0016-.0006,.5437,.2223,.2581,.1007,.2343,.0997,.4659,.2063,.6957,.3157,.8632,.411,1.6933,.884,2.4932,1.4072,.8241,.5391,2.1126,.1922,2.5702-.6739,.4957-.9382,.2056-1.9949-.6739-2.5702-3.5386-2.3147-7.7039-3.5751-11.9257-3.6872-.9831-.0261-1.9231,.8827-1.8785,1.8785,.0466,1.0401,.8252,1.8506,1.8785,1.8785h0Z"/><path d="M505.1446,317.3681c.6394-.154,1.3083-.3259,1.9653-.3797-.4772,.0391,.0428-.0031,.1118-.0109,.1531-.0172,.3064-.0326,.4598-.0464,.3324-.0299,.6656-.0514,.999-.0651,.6413-.0263,1.2838-.023,1.9247,.011,.3076,.0163,.6149,.0393,.9215,.0693,.1533,.015,.3062,.0336,.4593,.0503,.2176,.0275,.2038,.0253-.0413-.0064,.1016,.0146,.2032,.03,.3046,.0462,.5166,.0804,.9787,.085,1.4475-.1894,.3897-.228,.7613-.6748,.8633-1.1227,.2046-.8983-.2737-2.1492-1.312-2.3108-3.0476-.4744-6.0967-.3919-9.1023,.3318-.956,.2302-1.6174,1.3672-1.312,2.3108,.3218,.9944,1.2865,1.5587,2.3108,1.312h0Z"/><path d="M910.0024,567.6614c6.8794,2.5577,13.7589,5.1153,20.6383,7.673,1.4267,.5304,3.0881-.5919,3.4662-1.9681,.4332-1.5766-.5362-2.9339-1.9681-3.4662-6.8794-2.5577-13.7589-5.1153-20.6383-7.673-1.4267-.5304-3.0881,.5919-3.4662,1.9681-.4332,1.5766,.5362,2.9339,1.9681,3.4662h0Z" style="fill:#f4d13b;"/><path d="M896.925,584.0991c1.6807,3.67,3.3614,7.34,5.0421,11.0099,.6157,1.3444,2.6641,1.7789,3.8553,1.0109,1.3871-.8943,1.6695-2.4172,1.0109-3.8553-1.6807-3.67-3.3614-7.34-5.0421-11.0099-.6157-1.3444-2.6641-1.7789-3.8553-1.0109-1.3871,.8943-1.6695,2.4172-1.0109,3.8553h0Z" style="fill:#f4d13b;"/><path d="M877.6777,591.3862c-.6667,6.0798-1.3333,12.1596-2,18.2394-.1612,1.4703,1.4111,2.8808,2.8178,2.8178,1.6644-.0746,2.6451-1.2427,2.8178-2.8178,.6667-6.0798,1.3333-12.1596,2-18.2394,.1612-1.4703-1.4111-2.8808-2.8178-2.8178-1.6644,.0746-2.6451,1.2427-2.8178,2.8178h0Z" style="fill:#f4d13b;"/><path d="M851.7096,316.6166c3.3762,3.9475,7.6787,6.8907,12.4543,8.8781,.6263,.2606,1.6153,.0413,2.1713-.2841,.5845-.342,1.1419-1.0123,1.295-1.684,.1643-.7213,.1287-1.531-.2841-2.1713-.4247-.6588-.9667-.9964-1.684-1.295,.2669,.1111,.4439,.1913,.0723,.0282-.1139-.05-.2274-.1007-.3407-.1522-.2548-.1158-.5079-.2351-.7593-.3581-.5027-.246-.9983-.5066-1.4861-.781-1.0028-.564-1.9725-1.1868-2.903-1.8636-.1693-.1231-.8299-.6929-.2491-.1771-.2081-.1849-.4396-.3488-.6541-.5264-.4311-.357-.8521-.7261-1.2622-1.107-.8436-.7833-1.6373-1.6169-2.3854-2.4917-.9616-1.1242-3.0103-1.0618-3.985,0-1.0988,1.197-1.0257,2.7858,0,3.985h0Z" style="fill:#f4d13b;"/><path d="M882.5557,299.0709c.7158,3.73,1.4316,7.46,2.1474,11.19,.2784,1.4506,2.0977,2.411,3.4662,1.9681,1.5472-.5007,2.2663-1.9121,1.9681-3.4662-.7158-3.73-1.4316-7.46-2.1474-11.19-.2784-1.4506-2.0977-2.411-3.4662-1.9681-1.5472,.5007-2.2663,1.9121-1.9681,3.4662h0Z" style="fill:#f4d13b;"/><path d="M912.8601,300.4015c-2.9536,3.4111-5.221,7.2267-6.8397,11.4352-.2474,.6432-.0505,1.5996,.2841,2.1713,.342,.5845,1.0123,1.1419,1.684,1.295,1.6116,.3671,2.8984-.4918,3.4662-1.9681,.0854-.2219,.1719-.4433,.2613-.6636,.0447-.11,.0933-.2189,.1359-.3297-.0479,.1244-.227,.5247-.0737,.1813,.1939-.4343,.39-.8672,.5987-1.2946,.4302-.8813,.8987-1.7439,1.4032-2.5849,.4893-.8155,1.0126-1.6105,1.5683-2.3822,.1389-.1929,.2799-.3844,.4228-.5744,.0518-.0689,.3096-.4054,.0503-.0691s.0008,.0016,.0544-.0659c.3143-.3956,.6383-.7832,.969-1.1652,.9641-1.1135,1.1764-2.9051,0-3.985-1.0584-.9716-2.9546-1.19-3.985,0h0Z" style="fill:#f4d13b;"/><path d="M248.5075,546.5279c7.5812-10.4292,7.8851-25.4962,.8698-36.2847-.811,1.4133-1.6221,2.8267-2.4331,4.24,14.4892-1.8084,26.3326-11.8652,32.2088-25.0279,1.616-3.6197,2.8419-7.3711,3.5433-11.2758-1.1554,.656-2.3108,1.312-3.4662,1.9681,21.7355,6.3842,46.4635,3.7696,64.6658-10.3651,5.1449-3.9952,9.5366-8.81,13.1831-14.2028-1.7168-.2244-3.4335-.4487-5.1503-.6731,5.2137,17.1637,20.2717,30.5696,37.6504,34.6204,4.8628,1.1335,9.9053,1.5538,14.8818,1.1191,1.5161-.1324,2.8178-1.2003,2.8178-2.8178,0-1.4217-1.293-2.951-2.8178-2.8178-15.8566,1.3851-32.0052-6.4685-41.168-19.541-2.6121-3.7266-4.6164-7.7373-5.9298-12.061-.7327-2.4119-3.8018-2.6673-5.1503-.6731-5.9528,8.8033-14.2435,15.5685-23.9353,19.8586-9.3854,4.1545-19.8686,5.6928-30.1687,5.1488-5.9137-.3123-11.6288-1.34-17.3806-3.0295-1.363-.4003-3.1996,.4836-3.4662,1.9681-2.1731,12.0964-9.407,23.5011-20.533,29.1434-2.9896,1.5161-6.456,2.6075-9.7848,3.0229-1.9565,.2442-3.7235,2.2556-2.4331,4.24,6.024,9.264,5.6128,21.678-.8698,30.5959-.8954,1.2317-.2102,3.1411,1.0109,3.8553,1.4247,.8333,2.9578,.2237,3.8553-1.0109h0Z" style="fill:#f953b2;"/><rect x="584.3723" y="837.2605" width="47.5898" height="24.4211" rx="3.9519" ry="3.9519" style="fill:#fff;"/><g><path d="M826.7083,868.2565v-26.2327c0-3.6263-5.6356-3.6323-5.6356,0v26.2327c0,3.6263,5.6356,3.6323,5.6356,0h0Z" style="fill:#fff;"/><path d="M836.8211,848.4536c-3.7544-3.9182-7.5087-7.8365-11.2631-11.7547-1.0368-1.0821-2.9473-1.083-3.985,0-3.7544,3.9182-7.5087,7.8365-11.2631,11.7547-2.5096,2.6191,1.4698,6.61,3.985,3.985,3.7544-3.9182,7.5087-7.8365,11.2631-11.7547h-3.985c3.7544,3.9182,7.5087,7.8365,11.2631,11.7547,2.5141,2.6238,6.4956-1.3648,3.985-3.985h0Z" style="fill:#fff;"/></g><g><path d="M864.2955,868.2565v-26.2327c0-3.6263-5.6356-3.6323-5.6356,0v26.2327c0,3.6263,5.6356,3.6323,5.6356,0h0Z" style="fill:#fff;"/><path d="M874.4083,848.4536c-3.7544-3.9182-7.5087-7.8365-11.2631-11.7547-1.0368-1.0821-2.9473-1.083-3.985,0-3.7544,3.9182-7.5087,7.8365-11.2631,11.7547-2.5096,2.6191,1.4698,6.61,3.985,3.985,3.7544-3.9182,7.5087-7.8365,11.2631-11.7547h-3.985c3.7544,3.9182,7.5087,7.8365,11.2631,11.7547,2.5141,2.6238,6.4956-1.3648,3.985-3.985h0Z" style="fill:#fff;"/></g></svg>