<?xml version="1.0" encoding="UTF-8"?><svg id="Layer_2" xmlns="http://www.w3.org/2000/svg" width="1000" height="1000" viewBox="0 0 1000 1000"><path d="M856.1276,165.3245c.1519,.3094,.2633,.5979,.257,.8969,.0047-.2236-.1013,.3326-.0788,.2819,.0371-.0834-.2679,.4136-.1707,.2867-.533,.6958-1.2623,1.0778-2.1229,1.48-1.6173,.7558-3.7697,1.2285-5.5386,2.0257-2.0081,.905-3.9815,2.6259-3.8728,5.0315,.122,2.7,2.631,3.8528,4.8889,4.5591,2.5278,.7908,5.1855,.8717,7.7809,.414,1.0158-.1792,1.5878-1.4212,1.3331-2.3479-.2945-1.0718-1.3291-1.5128-2.3479-1.3331-2.2392,.3949-4.6776,.1203-6.8082-.7927-.2707-.116-.5495-.2446-.7987-.4025-.1959-.1312-.2397-.1569-.1315-.0769-.1635-.1659-.1985-.1988-.1049-.0987,.0942,.2407-.017-.3314,.0003-.0247,.0049-.2395,.0086-.278,.0111-.1155,.0714-.2245,.0834-.2693,.036-.1344,.3265-.7163,1.5046-1.2174,2.2174-1.4934,2.2121-.8565,4.6436-1.32,6.6291-2.6831,1.1341-.7786,2.0889-1.7499,2.5909-3.0487,.5767-1.492,.2057-2.9673-.4735-4.3507-.4543-.9251-1.7678-1.1782-2.6114-.6847-.9436,.5519-1.1407,1.6828-.6847,2.6114h0Z"/><g><rect x="400.3733" y="266.1395" width="162.1747" height="207.8412" style="fill:#f953b2;"/><rect x="543.2177" y="265.8468" width="208.0387" height="207.8412" style="fill:#f4d13b;"/><rect x="87.9864" y="687.3211" width="162.1747" height="207.8412" style="fill:#f953b2;"/><rect x="239.8787" y="688.2233" width="208.0387" height="207.8412" style="fill:#f4d13b;"/><rect x="25" y="479.9114" width="162.1747" height="207.8412" style="fill:#f953b2;"/><rect x="176.8923" y="480.1774" width="208.0387" height="207.8412" style="fill:#f4d13b;"/><rect x="646.1649" y="266.1395" width="26.9315" height="38.0554" style="fill:#f953b2;"/><rect x="454.8218" y="266.1395" width="26.9315" height="38.0554" style="fill:#6966ed;"/><rect x="87.7195" y="480.5476" width="26.9315" height="38.0554" style="fill:#6966ed;"/><rect x="150.0696" y="687.9573" width="26.9315" height="38.0554" style="fill:#6966ed;"/><rect x="267.1352" y="479.9114" width="26.9315" height="38.0554" style="fill:#f953b2;"/><rect x="330.1215" y="687.9573" width="26.9315" height="38.0554" style="fill:#f953b2;"/><path d="M624.0374,390.1381c-19.2519,0-38.5038,0-57.7556,0-1.2819,0-2.6308,.1249-3.9077,0-5.2138-.5099-6.2857-7.7701-.4887-8.2002,3.6787-.273,3.6874-5.4555,0-5.726-5.2643-.3863-5.28-7.8128,0-8.2002,3.6797-.27,3.6865-5.4555,0-5.726-5.2643-.3863-5.28-7.8128,0-8.2002,3.6805-.2701,3.6855-5.4526,0-5.726-5.6096-.4162-4.8808-7.6343,.3136-8.2002,.8953-.0975,1.8534,0,2.7522,0h13.5649c12.1401,0,24.2801,0,36.4202,0,3.0337,0,6.0675,0,9.1012,0,2.1337,0,3.6171-2.4447,2.4721-4.308-2.5117-4.0874-9.8874-12.2253-6.4788-17.1234,5.2243-7.5071,14.3809,5.1146,17.9294,8.6631,7.0561,7.0561,15.6003,11.9297,25.5906,13.2715,13.3886,1.7982,27.239,1.6294,40.5764-.4773,25.9085-4.0923,47.3542-17.6428,64.357-37.274,7.8351-9.0463,14.7675-18.8248,21.7772-28.5099,7.6165-10.5235,15.2616-21.3387,25.1715-29.8625,5.4476-4.6857,11.7259-8.6336,18.6537-10.6837,6.029-1.7841,12.5255-1.0646,18.4503-2.9649,7.5977-2.4368,9.2544-10.8801,10.8091-17.78,.5941-2.6366,1.7261-6.5493,.227-9.0836-.7831-1.3239-1.9373-1.5603-3.311-2.003-1.9728-.6358-3.8066-1.4036-5.5523-2.5372-6.5768-4.2706-9.8035-12.0256-10.9437-19.5199-2.4999-16.4313,3.4192-36.0326,18.3443-44.7218,10.6256-6.1861,23.9717-7.4403,35.5448-3.2619,5.8369,2.1074,11.552,5.7356,15.0374,10.9747,3.7869,5.6922,4.3421,12.6438,3.9754,19.2891-.3562,6.4542-1.5725,12.8235-2.216,19.2493-.76,7.5897-1.4343,15.189-2.1513,22.7828-.5552,5.8795-.0508,11.3656,2.5717,16.7356,2.4429,5.0024,6.3936,8.0622,10.4138,11.6888,12.2185,11.0223,21.7147,24.6951,28.8594,39.4638,15.6054,32.2577,20.3511,69.5995,17.0116,105.0485-3.2881,34.9033-15.0575,70.6707-38.3274,97.4572-26.2333,30.1978-67.7322,45.815-107.3044,38.0926-36.3279-7.0893-67.3817-30.7196-91.8933-57.496-4.554-4.9748-8.9247-10.1181-13.0971-15.417-5.4945-6.9779-10.5975-13.5261-19.7647-15.7231-5.1489-1.234-10.7386-.7865-15.9934-.7865-7.39,0-14.78,0-22.17,0-2.0095,0-4.0499,.1026-6.0572,0-5.3271-.2722-6.712-7.7564-.7302-8.2002,3.6787-.273,3.6874-5.4555,0-5.726-5.2643-.3863-5.28-7.8128,0-8.2002,3.6797-.27,3.6865-5.4555,0-5.726-5.2643-.3863-5.28-7.8128,0-8.2002,3.6805-.2701,3.6855-5.4526,0-5.726-5.6096-.4162-4.8807-7.6343,.3136-8.2002,.8953-.0975,1.8534,0,2.7522,0,4.5216,0,9.0433,0,13.5649,0,12.14,0,24.2801,0,36.4201,0,3.0337,0,6.0674,0,9.1012,0,2.1337,0,3.6171-2.4447,2.4721-4.308-2.2659-3.6875-5.0878-7.3489-6.8639-11.2976-2.6121-5.8072,4.1066-10.593,8.9214-6.5558,1.0889,.913,2.0493,2.0493,3.053,3.053,5.3515,5.3515,10.7836,10.6339,16.0367,16.0821,13.5956,14.1004,28.6089,27.0082,44.5978,38.315,21.513,15.2132,48.8278,30.8156,76.218,27.7978,36.3945-4.0098,52.1169-41.5785,58.3499-73.1891,4.1424-21.0084,6.3927-42.3371,6.0561-63.7549-.0972-6.1826-.2022-13.6884-3.6857-19.0615-2.8772-4.4379-9.0752-5.7526-13.2071-2.1344-4.0596,3.5549-4.1932,9.9201-3.8964,14.8887,.391,6.5463,1.8,13.0153,3.2643,19.391,1.8606,8.1011,2.8555,16.2981,3.9335,24.5412,1.6761,12.8161,3.1948,25.6526,4.5717,38.5042,5.5212,51.5345,8.7616,103.2925,10.6599,155.0799,1.9081,52.056,2.7346,104.1947,2.4176,156.2851-.1581,25.9853-1.5449,51.9701-1.6095,77.9446-.0317,12.7396,.8131,25.4677,2.0447,38.1425,1.1548,11.8849,2.1491,23.9996,4.4237,35.731,1.9759,10.1904,5.6078,20.2214,12.1329,28.4081,4.874,6.1151,18.3041,14.8266,12.4334,23.9314-2.4923,3.8654-7.3575,6.0125-11.5409,7.4454-5.8414,2.0008-11.931,3.2419-18.0223,4.1909-11.1325,1.7344-22.7862,3.6833-34.0655,3.941-8.7044,.1989-25.2024-3.4126-21.7329-15.7223-1.4019,.5703-2.8038,1.1407-4.2058,1.711,2.7401,1.1852,4.092,4.0262,3.2805,6.9704-.92,3.3379-4.3511,5.4046-7.4661,6.309-6.5542,1.9029-15.2047,.3634-21.7413-1.2681-6.8992-1.7221-12.1573-5.7399-12.7701-13.2611-.5397-6.6243,1.4413-13.4512,1.993-20.0495,1.248-14.9247,.4028-29.9364-.4521-44.8579-.8938-15.6006-1.2672-31.1551-1.4487-46.7787-.3796-32.663-.7592-65.3259-1.1388-97.9889-.3656-31.4559-1.1168-62.8444,.2629-94.276,.6151-14.0119,.7264-28.4446-3.334-42.0101-.92-3.0737-2.5629-6.262-2.6935-9.508-.0503-1.2515,1.0141-6.0863,3.4322-4.4909,1.6284,1.0743-.3402,4.945-.837,6.1288-2.9023,6.9169-6.2089,13.6687-9.6363,20.3382-6.9818,13.5862-14.6102,26.8306-21.478,40.4763-6.7939,13.4989-12.5776,27.492-18.0166,41.5839-11.3198,29.3281-20.9735,59.3205-29.9382,89.4429-8.6325,29.0061-17.3675,58.3053-24.0158,87.8403-3.5106,15.5961-5.3926,31.4663-9.8925,46.8553-3.3724,11.5331-10.8717,35.65-27.364,30.6973-3.4336-1.0311-6.8524-2.6236-9.9683-4.3972-1.5961-.9085-3.1404-1.9267-4.5069-3.1583-.7014-.6322-5.4122-6.4207-1.8845-6.1705-.9202-1.208-1.8405-2.4161-2.7607-3.6241-3.302,11.08-21.442,6.0098-29.9554,4.2815-9.3455-1.8972-18.6879-4.2888-27.5715-7.7902-5.4496-2.1479-15.4914-5.8981-17.058-12.4597-.7773-3.2557,1.6308-6.0703,3.7992-8.1839,5.5735-5.4327,10.6717-11.0051,14.9815-17.5203,9.6733-14.6231,14.8527-31.3459,19.3118-48.1457,4.9512-18.6536,9.3234-37.406,14.7938-55.922,5.5098-18.6492,10.2824-37.5053,15.6604-56.1919,5.3819-18.6997,11.5738-37.1665,18.0604-55.5093,14.4641-40.9011,30.9916-81.0522,49.4768-120.2993,1.5613-3.315-3.3735-6.225-4.9443-2.89-17.4267,36.9997-33.1528,74.7991-47.0502,113.2647-6.9328,19.1888-13.5734,38.5243-19.3659,58.0907-5.8788,19.8581-10.9084,39.9549-16.7179,59.8327-5.84,19.9822-10.5946,40.1916-16.0186,60.2826-4.917,18.2129-10.945,36.3211-22.964,51.2089-5.3748,6.6577-17.7923,14.0477-14.2852,24.3318,2.6299,7.7117,11.8448,11.9207,18.7614,14.8047,10.2508,4.2742,21.163,7.0215,32.0528,9.0994,11.4873,2.1919,30.1767,5.9266,34.5543-8.7624,.5636-1.8912-.9618-3.4966-2.7607-3.6241-7.1924-.5099-8.3895,7.7868-5.1587,12.5801,4.0379,5.9908,11.5604,9.2593,18.0727,11.7128,8.8359,3.3289,17.124,.743,23.1731-6.2821,5.9771-6.9415,9.4352-15.8533,12.169-24.4821,3.0725-9.6977,5.1689-19.6847,7.0445-29.6727,1.401-7.4607,2.4881-15.0162,4.3029-22.3919,4.3861-17.8264,9.2488-35.5574,14.1675-53.243,9.6686-34.7642,20.178-69.3373,32.3489-103.3142,6.0442-16.8731,12.4443-33.7085,20.0259-49.959,7.271-15.5846,15.9107-30.4699,23.8858-45.6935,3.9813-7.5998,7.8044-15.2886,11.1997-23.1703,2.1607-5.016,5.1173-12.848-2.0042-15.4794-6.0505-2.2356-10.7712,3.8334-10.8386,9.3827-.0414,3.4058,1.2445,6.5343,2.2901,9.7125,1.3243,4.0255,2.278,8.1628,2.909,12.3523,2.5255,16.7681,.3444,33.8535-.1242,50.6878-.5034,18.0822,.2466,36.2576,.4568,54.3445,.4304,37.0352,.8608,74.0704,1.2912,111.1056,.2083,17.9227,.5391,35.7726,1.5616,53.6697,.9905,17.3378,2.072,34.9993-.5089,52.2541-1.0176,6.8033-2.1835,13.8186,1.0661,20.2542,2.9212,5.7853,8.7596,8.9405,14.8347,10.4632,10.976,2.7511,32.195,5.6613,36.2512-9.0402,1.4288-5.1785-.8651-11.2538-5.912-13.4369-1.6734-.7238-3.657-.2358-4.2058,1.711-2.5579,9.0752,3.7448,17.2502,11.8854,20.5707,9.6724,3.9453,20.413,2.1842,30.4323,.8906,11.8087-1.5247,23.7964-2.4519,35.2756-5.7988,7.8578-2.291,17.4932-6.2243,19.9277-14.9244,2.6303-9.4001-5.179-16.6172-11.0794-22.6562-7.8565-8.0411-12.0912-18.1204-14.3522-29.0231-2.5067-12.087-3.4519-24.6788-4.6137-36.9575-1.2223-12.9189-2.0248-25.8944-1.8857-38.876,.2787-26.0086,1.4711-51.999,1.6068-78.0181,.1366-26.2032-.1084-52.4092-.5155-78.6091-.8129-52.3222-2.5487-104.6447-6.1492-156.8546-1.7815-25.8342-4.0201-51.6383-6.8349-77.3809-2.2351-20.4412-3.872-41.3807-8.4535-61.4521-1.4531-6.3661-2.9256-12.8735-2.9908-19.4329-.0248-2.4947,.9218-12.2609,5.8517-8.4055,2.0756,1.6232,2.5726,5.5263,2.9452,7.9174,.5417,3.477,.6231,7.0317,.6381,10.545,.0416,9.7387-.203,19.4531-1.1762,29.1498-2.1511,21.4323-5.4994,44.0524-14.4094,63.8667-7.0109,15.591-18.514,30.281-35.5683,35.1609-26.5497,7.597-55.1278-8.0369-76.4335-22.4289-17.08-11.5375-33.0259-25.1052-47.3452-39.9364-4.9118-5.0874-9.9696-10.0357-14.97-15.0361-3.5025-3.5025-6.8584-7.8114-12.2669-7.9733-9.2877-.278-14.2698,9.7085-10.0005,17.4279,2.0176,3.6481,4.3858,7.1373,6.5687,10.6896,.824-1.436,1.6481-2.872,2.4721-4.308-10.3202,0-20.6403,0-30.9605,0-10.2796,0-20.6904-.4881-30.9605,0-5.2354,.2488-9.985,4.2063-10.0559,9.6958-.0733,5.6742,4.4672,9.559,9.8249,9.9565v-5.726c-12.6328,.9269-12.6359,18.7251,0,19.6523v-5.726c-12.6328,.9269-12.6359,18.7251,0,19.6523v-5.726c-11.4864,.8523-13.3107,17.2489-1.5442,19.4757,4.9201,.9311,10.5434,.1766,15.5074,.1766,7.2495,0,14.4989,0,21.7484,0,8.7858,0,15.7987,2.8364,21.2415,10.0174,20.3355,26.8297,45.5664,51.317,75.7856,66.6884,18.6668,9.4952,39.3337,15.1933,60.3769,14.6922,22.1267-.5269,44.3989-7.6725,62.9035-19.7914,30.4716-19.9561,49.4588-53.2359,58.7233-87.8107,9.7941-36.5514,9.9189-76.2735-.0255-112.8082-4.677-17.1829-11.7368-33.9144-21.7141-48.7106-4.7719-7.0767-10.2-13.7474-16.3109-19.7121-3.7178-3.6289-8.4351-6.5859-11.277-10.9809-4.0974-6.3365-3.5365-12.8887-2.8604-20.0488,.7183-7.6069,1.28-15.2487,2.221-22.8316,.8531-6.8746,2.1158-13.759,1.8733-20.7147-.4574-13.1213-7.4456-23.4958-19.3611-28.9874-19.6841-9.072-46.1625-3.2845-57.7373,15.7568-8.6064,14.1581-10.9593,34.387-3.3926,49.4641,1.7488,3.4845,4.1857,6.6877,7.1882,9.1836,1.5146,1.259,3.1565,2.3689,4.9209,3.2464,.7897,.3927,1.6057,.7424,2.4279,1.0617,.4774,.1853,.9638,.4284,1.4673,.529,1.8215,.3641,.5036,.4261,.5212-.6596-.0571,3.5148-1.1153,7.0154-2.1351,10.3567-1.23,4.0299-1.8618,7.4489-6.4157,8.6579-2.9363,.7796-6.1548,.6305-9.1594,1.0094-3.6654,.4622-7.2721,1.2306-10.7513,2.4866-6.3062,2.2766-11.9908,5.8579-17.1703,10.077-10.3783,8.4539-18.3159,19.5501-26.1265,30.3021-15.2234,20.9563-30.4044,43.1826-53.9832,55.4816-13.0102,6.7863-27.606,10.0826-42.1959,10.879-13.553,.7398-29.5385,1.1581-41.3445-6.4878-6.2216-4.0293-10.9488-10.1113-16.2993-15.1608-7.42-7.0025-20.2566-2.4468-19.6028,8.4474,.3397,5.6608,5.3894,11.3895,8.2469,16.0397,.824-1.436,1.6481-2.872,2.4721-4.308-10.3202,0-20.6404,0-30.9605,0-10.2796,0-20.6904-.4881-30.9605,0-5.2354,.2488-9.985,4.2063-10.0559,9.6958-.0733,5.6742,4.4672,9.559,9.8249,9.9565v-5.726c-12.6328,.9269-12.6359,18.7251,0,19.6523v-5.726c-12.6328,.9269-12.6359,18.7251,0,19.6523v-5.726c-10.2909,.7636-13.7181,14.8798-3.4606,18.9131,3.3375,1.3123,7.6471,.7392,11.1525,.7392,14.1214,0,28.2429,0,42.3643,0,4.0319,0,8.0639,0,12.0958,0,3.6844,0,3.6905-5.726,0-5.726h0Z"/><path d="M655.3357,387.3595c8.4297,.123,16.8595,.2461,25.2892,.3691,1.2067,.0176,2.4134,.0352,3.6201,.0528,3.686,.0538,3.6874-5.6722,0-5.726-8.4297-.123-16.8595-.2461-25.2892-.3691-1.2067-.0176-2.4134-.0352-3.6201-.0528-3.686-.0538-3.6874,5.6722,0,5.726h0Z"/><path d="M654.4619,401.3404c8.4297,.123,16.8595,.2461,25.2892,.3691,1.2067,.0176,2.4134,.0352,3.6201,.0528,3.686,.0538,3.6874-5.6722,0-5.726-8.4297-.123-16.8595-.2461-25.2892-.3691-1.2067-.0176-2.4134-.0352-3.6201-.0528-3.686-.0538-3.6874,5.6722,0,5.726h0Z"/><path d="M654.025,414.8843c8.4297,.123,16.8595,.2461,25.2892,.3691,1.2067,.0176,2.4134,.0352,3.6201,.0528,3.686,.0538,3.6874-5.6722,0-5.726-8.4297-.123-16.8595-.2461-25.2892-.3691-1.2067-.0176-2.4134-.0352-3.6201-.0528-3.686-.0538-3.6874,5.6722,0,5.726h0Z"/><path d="M561.402,354.155c8.4297,.123,16.8595,.2461,25.2892,.3691,1.2067,.0176,2.4134,.0352,3.6201,.0528,3.686,.0538,3.6874-5.6722,0-5.726-8.4297-.123-16.8595-.2461-25.2892-.3691-1.2067-.0176-2.4134-.0352-3.6201-.0528-3.686-.0538-3.6874,5.6722,0,5.726h0Z"/><path d="M560.5282,368.1359c8.4297,.123,16.8595,.2461,25.2892,.3691,1.2067,.0176,2.4134,.0352,3.6201,.0528,3.686,.0538,3.6874-5.6722,0-5.726-8.4297-.123-16.8595-.2461-25.2892-.3691-1.2067-.0176-2.4134-.0352-3.6201-.0528-3.686-.0538-3.6874,5.6722,0,5.726h0Z"/><path d="M560.0913,381.6798c8.4297,.123,16.8595,.2461,25.2892,.3691,1.2067,.0176,2.4134,.0352,3.6201,.0528,3.686,.0538,3.6874-5.6722,0-5.726-8.4297-.123-16.8595-.2461-25.2892-.3691-1.2067-.0176-2.4134-.0352-3.6201-.0528-3.686-.0538-3.6874,5.6722,0,5.726h0Z"/><g><path d="M859.2214,204.7259s10.1516,2.7188,19.9096-.2086c-5.3669,5.8548-15.645,9.509-18.8002,8.9016,5.627-7.4379-1.0151-8.4845-1.1093-8.6931Z"/><path d="M858.4603,207.4866c2.2906,.6082,4.7023,.8986,7.0566,1.0957,4.8031,.4022,9.7391,.0526,14.3751-1.3043-.9285-1.5951-1.857-3.1901-2.7856-4.7852-.6774,.7286-1.3999,1.4096-2.166,2.0444-.047,.039-.5923,.4757-.3612,.2956,.2309-.1799-.3294,.2444-.3792,.2806-.4166,.3034-.8411,.5956-1.2723,.8777-1.6627,1.088-3.419,2.0058-5.2286,2.8223-.4841,.2184,.1314-.0482-.1616,.071-.1984,.0807-.3969,.1613-.5964,.2391-.4237,.1653-.8505,.3223-1.2806,.4702-.7487,.2576-1.5069,.4891-2.2754,.6802-.3548,.0883-.7117,.1682-1.071,.2361-.1509,.0285-.3034,.0499-.454,.0796-.6153,.1212,.6755-.035,.084-.0132-.2516,.0093-.5011,.0433-.7536,.0448-.1258,.0007-.2733-.0214-.398-.0094-.4626,.0445,.7567,.1256,.2993,.0464,.5703,1.4019,1.1407,2.8038,1.711,4.2058,2.023-2.7216,3.7971-6.6037,1.7016-9.7987-.6441-.982-1.5653-1.7792-2.6119-2.3073-.4566-.2304-.9366-.4178-1.4155-.597-.0956-.0358-.1945-.0764-.2929-.1041-.0348-.0098-.0681-.0308-.1035-.0381,.385,.0794,.9316,.3964,1.1651,.6827-.9779-1.1992-3.0335-1.0154-4.0489,0-1.1857,1.1857-.9803,2.8467,0,4.0489,.4601,.5642,1.3058,.7908,1.9788,1.0158,.4071,.1361-.726-.3728-.2184-.0862,.1363,.077,.2796,.1411,.4146,.2211,.081,.048,.3494,.2871,.4195,.2772-.0711,.0101-.5283-.5005-.3086-.2277,.0578,.0718,.1435,.1495,.2141,.2069,.3804,.3093-.286-.5527-.0667-.0984,.0425,.088,.0998,.1973,.1591,.2764,.2306,.3076-.1893-.2583-.1337-.3175-.0209,.0222,.089,.2983,.0941,.3359,.0444,.3255-.0038-.6667-.0357-.3211-.0102,.1108,.0801,.7048-.0101,.7407-.0163,.0065,.1595-.68,.0109-.2097-.0515,.1631-.0835,.333-.1345,.4969-.0444,.1425-.0965,.2816-.1471,.4218-.1392,.3851,.2027-.4048-.0042-.0083-.4595,.8807-.9771,1.7015-1.5705,2.4997-1.0442,1.4047,.0075,3.9107,1.711,4.2058,3.5671,.6178,7.3094-.8326,10.535-2.2127,4.0705-1.7416,8.0188-4.1643,11.0508-7.4252,1.8897-2.0324,.0503-5.6152-2.7856-4.7852-4.192,1.2269-8.4522,1.4672-12.8529,1.0998-.407-.034-.8135-.0735-1.2194-.1184-.2116-.0234-.4228-.0499-.6343-.0743-.5702-.0658,.2684,.0509-.0677-.0089-.6236-.1108-1.2518-.1925-1.8745-.3105-.5821-.1103-1.1657-.2269-1.7387-.3791-1.4936-.3966-3.1097,.4995-3.5219,1.9996-.4081,1.4854,.4995,3.1235,1.9996,3.5219Z"/></g><path d="M803.8889,370.7442c7.355-23.9525,15.4655-47.6538,24.1891-71.1411,4.1815-11.2582,8.1582-22.5939,12.5559-33.771,3.8547-9.7968,8.2945-19.2569,12.8524-28.7377,.7275-1.5134,1.4984-3.0114,2.4018-4.4285,.1927-.3023,.3913-.6011,.598-.8941,.0307-.0435,.5586-.7351,.1796-.2592,.1055-.1324,.2133-.2634,.3237-.3917,.2378-.2765,.4862-.5441,.7506-.7953,.1393-.1323,.2834-.2577,.4289-.3833-.3499,.3021-.1142,.1028,.1229-.0587,.1145-.078,.2413-.1261,.3577-.1986-.5247,.3272-.2938,.0911-.0487,.0404,.3153-.0653,.4593,.0416-.1161-.0114,.07,.0065,.3308,.0183,.3724,.0032l-.3865-.0467c.096,.0201,.1901,.0466,.2823,.0795,.2022-.0975-.5149-.2082-.0221,.0183,.1951,.0897,.5531,.4546-.2146-.1833,.3642,.3026-.1514,.1347-.1257-.1896-.0029,.0373,.4822,1.2108,.1282,.1431,.0771,.2324,.1668,.46,.2372,.6951,.2107,.7043,.3451,1.4277,.4673,2.1517-.001-.0057,.1172,.7927,.0574,.3612-.0614-.4433,.0483,.4099,.0462,.3917,.0466,.4044,.0869,.8094,.1235,1.2148,.0812,.8991,.1412,1.8001,.1903,2.7016,.1004,1.8422,.1519,3.6865,.204,5.5306,.0945,3.3492-.4522,9.5387,4.2835,9.7206,5.6189,.2159,7.6191-6.2831,8.8575-10.5841,1.1331-3.9352,2.115-8.6,5.8415-10.7884,1.9972-1.1729,4.3675-1.4797,6.6424-1.5995,2.7957-.1472,5.5966-.0685,8.3924-.2383,5.5452-.3368,11.081-1.1701,16.3963-2.7949,.9794-.2994,1.9639-.5877,2.9666-.7994,.5579-.1178,.9086-.1708,1.2295-.1893,.2157-.0124,.4309-.0237,.6472-.0239-.0109,0,.9259,.0515,.4889-.0078,.5687,.0772,.8188,.1749,1.0309,.2889,.0183,.0098,.447,.2744,.1819,.0765,.1673,.1249,.3211,.2955,.4644,.4489,.6354,.6803-.0785-.1776,.181,.2348,.1164,.185,.2326,.3725,.3193,.574-.263-.6116-.0689-.0262-.045-.0045,.0677,.3292,.0685,.2985,.0026-.0922l.006,.2205c.0123,.6916,.1265-.4105,.0158,.0004-.0484,.1796-.0987,.3561-.1528,.5343,.1832-.604-.1719,.2518-.2924,.4597-.0696,.1201-.4037,.5459-.0676,.125-.1076,.1348-.2231,.2657-.3383,.3937-.3331,.3699-.6919,.7158-1.0622,1.0481-1.1045,.9911-2.4203,1.8613-3.9457,2.888-1.6592,1.1167-3.1711,2.394-4.7707,3.5899-2.2709,1.6979-4.6597,3.2545-7.1499,4.6121-2.0905,1.1397-4.6475,2.3772-7.0945,1.8252-1.8312-.413-3.2896-1.6861-4.5192-3.3098-1.2533-1.6551-2.2814-3.7008-3.2151-5.6175-.6771-1.3899-2.6547-1.7655-3.9172-1.0271-1.4187,.8298-1.7067,2.5221-1.0271,3.9172,2.2367,4.5914,5.1047,9.4414,10.1703,11.2611,6.0036,2.1566,12.2566-1.663,17.084-4.9034,1.3195-.8857,2.5971-1.8283,3.8519-2.803,.5307-.4123,1.0603-.8264,1.5765-1.257,.1041-.0869,.684-.5222,.0533-.0567,.1749-.1291,.3498-.2576,.5271-.3836,1.4623-1.0391,2.986-1.9863,4.4182-3.0686,3.4494-2.6066,7.0053-6.3932,4.9337-11.0142-2.3102-5.153-8.0988-5.1511-12.7728-3.8461-2.2971,.6413-4.5207,1.3527-6.8692,1.806-3.0754,.5935-6.1791,.9788-9.3054,1.1687-5.7635,.3501-11.9045-.4131-17.2461,2.2522-4.8882,2.4391-7.0813,7.5213-8.5469,12.4789-.6244,2.112-1.1502,4.5224-2.0467,6.4076-.2403,.5053-.5131,1.052-.8683,1.4909-.1336,.1651-.4356,.3766-.6199,.5139,.2908-.2168-.2354,.1594-.2079,.0736,.1147-.3582,1.7849,1.8421,1.4257,.5742,.1854,.6546,.0516,.4341,.0078-.071-.2976-3.4283-.2119-6.8896-.4091-10.325-.1857-3.2356-.2013-7.2733-1.9409-10.141-.9886-1.6297-2.8311-2.6353-4.7389-2.6407-1.995-.0056-3.7779,1.0902-5.1487,2.4592-2.4971,2.4939-4.0691,5.8221-5.5535,8.974-2.3235,4.9337-4.8015,9.7799-6.9979,14.7761-5.1377,11.687-9.5542,23.6666-13.9273,35.6551-8.9584,24.559-17.8983,49.0828-25.7654,74.0207-.9824,3.1141-1.9519,6.2322-2.9104,9.3538-1.0841,3.5306,4.4413,5.0401,5.5215,1.5222h0Z"/><g><path d="M916.9663,196.8826c.4601,5.508,5.8248,4.2187,8.4166,1.7454,3.1028-2.9609,5.3501-7.0412,6.9881-10.9567,5.5793-13.3363,11.5043-35.4054-3.7179-51.213-1.1852-1.2308-10.1175-1.742-11.3694-2.905-1.2538-1.1648-2.9874-1.6274-4.648-2.0413-22.7871-5.6799-38.3731-5.388-60.4877,6.1917,.1096,4.019,6.2932,11.5553,10.3419,12.8984,5.79,1.9207,10.5444-6.9466,13.0227-4.1957,2.4152,2.681,6.3406,3.9,9.8496,3.0588,3.1774-.7616,5.5365-3.9586,8.6278-.5865,1.4221,1.5512,1.9333,3.7193,2.2182,5.8043,.6929,5.0711,.3494,10.2815-1.0031,15.2178-.9341-10.1259,11.9469-21.2756,19.6014-10.4845,1.36,1.9174,1.9349,4.2932,2.1142,6.6371,.2818,3.6831-.3803,7.4938-2.2613,10.6728s-5.0476,5.663-8.6782,6.3438c.9764,3.2141,1.9528,6.4281,2.9292,9.6422,.5957,1.9608,1.2854,4.059,2.9352,5.2745,1.6499,1.2155,4.5484,.8636,5.1205-1.1042Z"/><path d="M914.1033,196.8826c.2993,2.8498,1.5487,5.6612,4.5573,6.479,2.2485,.6112,4.6612,.0083,6.6408-1.1291,2.642-1.5181,4.6432-4.2244,6.2567-6.7376,1.6782-2.614,2.937-5.455,4.0939-8.3298,3.8041-9.4521,6.4002-19.9282,5.3074-30.1721-.6214-5.8247-2.3458-11.4889-5.4914-16.4639-.8133-1.2863-1.7223-2.5084-2.6752-3.6943-.8605-1.0709-1.7704-2.3105-2.9552-3.0438-1.6117-.9977-3.8454-1.1922-5.6682-1.5014-1.8463-.3132-3.6527-.6632-5.4607-1.1379,.7239,.1901,.4069,.2082,.1863,.0538,1.2438,.8705-.4937-.4029-.4639-.381-.5348-.3932-1.0851-.7024-1.6907-.9717-1.7693-.7865-3.6642-1.1919-5.5408-1.6358-6.2862-1.4869-12.6863-2.648-19.142-3.0416-6.6961-.4082-13.4426,.1476-19.9733,1.6937-7.4693,1.7683-14.5924,4.8233-21.3812,8.3623-.8473,.4417-1.4676,1.5168-1.418,2.4721,.2476,4.7674,3.9275,9.402,7.3454,12.4516,1.6727,1.4925,3.6507,2.982,5.9057,3.4088,2.4526,.4641,4.822-.196,6.9523-1.4233,1.5915-.9168,2.9505-2.171,4.5169-3.1213,.1665-.101,.3601-.1829,.5189-.2938,.5198-.3631-.5852,.2192-.032,.0154,.558-.2056-.2131,.0167-.4967-.0598-.4344-.1171-.36-.044-.6252-.371,.1039,.1281,.2747,.2938,.373,.3926,.6503,.6543,1.3883,1.2387,2.1552,1.7498,2.6598,1.7725,5.9853,2.4277,9.1246,1.9688,1.3275-.1941,2.5196-.6463,3.7293-1.2207,.308-.1462,.6106-.3035,.9166-.4537-.0798,.0391,.9071-.4175,.506-.2557,.1912-.0771,.391-.1455,.5887-.2019,.248-.0707,.3879-.0276,.2598-.0881,2.3529,1.1122,2.5013,5.2808,2.623,7.7236,.1893,3.8024-.2195,7.5395-1.2021,11.2147,1.8746,.2537,3.7492,.5074,5.6238,.7611-.2329-2.9485,.5675-5.3076,2.3394-7.8477,.4097-.5873,1.9395-2.1442,2.4706-2.5234,.574-.4098,1.1798-.7632,1.8113-1.0762,.4195-.208-.3596,.1313,.0713-.0401,.1263-.0502,.2541-.0974,.3826-.1417,.3825-.1319,.7713-.2312,1.1652-.3219,.6551-.1509-.0549-.0575,.4213-.0636,.3532-.0045,.7049-.0045,1.058-.0045,.1082,0,.5562,.071,.0325-.0129,.1318,.0211,.2663,.044,.3957,.0769,.3989,.1013,.7973,.198,1.1793,.3552-.4333-.1783,.3654,.208,.4756,.2718,.2531,.1468,.7341,.4689,.84,.5538,.4038,.324,1.0992,1.0405,1.5112,1.5807,2.3419,3.0708,2.3099,7.7883,1.3216,11.3526-1.1312,4.0792-4.105,7.3827-8.3236,8.2494-1.4884,.3058-2.4266,2.1163-1.9996,3.5219,.8137,2.6784,1.6273,5.3568,2.441,8.0352,.6826,2.247,1.2754,4.6589,2.6956,6.5741,1.4178,1.9118,3.4592,3.164,5.8955,3.1108,2.545-.0556,4.6221-1.5174,5.4743-3.9076,.5193-1.4565-.5872-3.1338-1.9996-3.5219-1.5857-.4357-3.0006,.5379-3.5219,1.9996,.0835-.2342,.319-.2949,.401-.4606-.2898,.1589-.2988,.1815-.0268,.068-.1293,.0466-.2612,.083-.3959,.109-.0098,.0006-.1178,.0099-.118,.0098,.4408,.1455-.775-.2309-.3769-.0774,.164,.0783,.1087,.0451-.1659-.0996,.1494,.1523,.0838,.0948-.1968-.1723-.216-.2058-.2643-.2774-.4347-.5286-.3518-.5186-.5708-1.0482-.7731-1.6249-1.2704-3.6219-2.2609-7.3634-3.3765-11.0358-.6665,1.174-1.3331,2.3479-1.9996,3.5219,11.265-2.3144,16.0936-16.7076,11.371-26.4363-1.9519-4.021-6.0552-7.1215-10.5902-7.2506-4.0132-.1143-7.8831,2.1135-10.4952,5.0366-3.0678,3.433-5.0539,8.0603-4.6858,12.7204,.1118,1.4159,1.0026,2.6358,2.4825,2.8119,1.3879,.1651,2.7663-.6481,3.1413-2.0508,.9452-3.5353,1.4574-7.2149,1.4538-10.8766-.0032-3.1958-.2058-6.709-1.4172-9.6992-1.2874-3.178-4.1223-6.0055-7.7913-5.4979-2.6193,.3623-4.5186,2.266-7.0633,2.2768-1.1158,.0047-2.1927-.2157-3.232-.7034-1.069-.5016-1.7536-1.2397-2.6178-2.0043-1.8462-1.6336-4.2173-1.2745-6.1829-.0821-1.5664,.9503-2.9254,2.2044-4.5169,3.1213-.1491,.0859-1.239,.6156-.7406,.4127-.4776,.1945-.9849,.3497-1.4955,.4278,.7722-.1181-1.0448-.1041-.304,.0056-.2781-.0412-.5348-.1433-.8073-.2013-.5684-.121,.3351,.2176-.1664-.0669-2.1048-1.1942-3.6762-2.6756-5.3229-4.7727-.61-.7768-1.4624-2.0802-2.015-3.1553-.1317-.2563-.2614-.5157-.3749-.7807,.1872,.437-.0695-.2155-.1038-.3185-.0785-.2357-.1359-.475-.2054-.713-.0358-.1498-.0661-.3006-.091-.4526,.0497,.3989,.0629,.4396,.0395,.122l-1.418,2.4721c10.1902-5.3122,21.1023-9.144,32.6321-9.3944,5.4664-.1187,10.9131,.4504,16.2843,1.4383,3.143,.5781,6.2659,1.274,9.365,2.0531,1.1708,.2943,2.3492,.5618,3.3533,1.2625,.788,.5499,1.3265,.9426,2.2809,1.2491,1.7438,.5599,3.6145,.7659,5.4138,1.0735,.8637,.1477,1.7283,.2966,2.5838,.4869,.3564,.0792,.7131,.1623,1.0634,.266,.1739,.0515,.3492,.1281,.5249,.1704-.67-.1616-.3794-.1997-.1473-.046,.3816,.2527-.7659-.8969-.0376,.0428,.2032,.2622,.4599,.4961,.6812,.7446,.4814,.5406,.9555,1.0924,1.3959,1.6672,.774,1.0103,1.4763,2.0874,2.1189,3.1854,1.2429,2.1236,2.1586,4.2216,2.8672,6.5642,2.7508,9.0941,1.4373,18.6847-1.347,27.7031-1.6029,5.1916-3.4219,10.1857-6.4824,14.6733-.8572,1.2569-1.8419,2.4049-2.9544,3.4439-.5545,.5179,.4784-.2967-.1635,.1385-.201,.1363-.404,.2688-.6145,.39-.2118,.1219-.4288,.2348-.6504,.3377,.5849-.2716-.1979,.0592-.3327,.0996-.1889,.0567-.3849,.0903-.573,.1471-.3309,.0589-.3049,.0581,.0778-.0022-.1118,.0103-.2239,.0154-.3361,.0154-.1372,.0723-.7566-.1061,0,.0488-.1399-.0233-.2779-.0548-.414-.0945-.2496-.0864-.2662-.0883-.0496-.0059l.1503,.0597c-.2641-.1655-.2467-.1344,.0523,.0934-.1123-.0946-.2171-.1969-.3144-.3069,.1834,.2507,.218,.2873,.1037,.1098-.0892-.116-.2631-.6014-.0939-.1349-.053-.1463-.2211-.956-.2018-.7728-.1615-1.5377-1.2003-2.863-2.863-2.863-1.4227,0-3.0255,1.3156-2.863,2.863Z"/></g><g><path d="M933.3694,140.5826s-127.8601,3.7925-121.9005-14.6281c0,0-.4651-11.1624,36.9576-9.355,5.0984,.2462,9.9762-2.3972,12.3005-6.9417,15.315-29.9447,78.6698-28.846,72.6424,30.9248Z"/><path d="M933.3694,137.7196c-4.2489,.1258-8.5002,.1893-12.7504,.2411-10.1277,.1234-20.2578,.1136-30.3849-.0585-12.0816-.2053-24.1689-.6207-36.2198-1.5307-2.8641-.2163-5.726-.4625-8.5839-.7501-1.3659-.1375-2.7309-.2844-4.0945-.4428-.6284-.073-1.2565-.1483-1.8843-.2264-.3435-.0427-.6869-.0862-1.0302-.1306-.2775-.0358-1.2094-.1616-.4587-.059-4.5644-.6238-9.1279-1.365-13.5956-2.5033-1.7628-.4491-3.5136-.9609-5.2173-1.6011-.3532-.1327-.7-.2814-1.0522-.4162,1.0338,.3958-.2148-.1034-.4996-.2401-.605-.2904-1.1987-.6071-1.766-.9661-.2415-.1528-.4685-.3268-.708-.4816-.4978-.3217,.5745,.516,.155,.1179-.1032-.0979-.2188-.184-.324-.2802-.1801-.1647-.3403-.3462-.5137-.5169-.5337-.5254,.3615,.6953-.0558-.0745-.0868-.16-.1884-.4212-.3073-.5534-.1199-.1334,.244,.8538,.1374,.3056-.0202-.1037-.0561-.2217-.0926-.321-.2391-.6507-.0496,.8238,.01,.1032,.0086-.1037,.0068-.233,.0011-.337-.0318-.5854,.1007,.191-.0586,.3496,.1819-.1811,.2528-1.4061,.2561-1.4409,.0618-.6334-.2478,.8909-.0516,.3443,.0743-.2069,.1913-.5135,.2178-.7268-.0688,.5531-.3566,.6881-.0656,.1983,.1072-.1805,.2123-.3622,.3208-.5422,.059-.0979,.1521-.1872,.2026-.2888,.1565-.3151-.5778,.6392-.214,.2807,.1992-.1963,.3699-.424,.5696-.6218,.2054-.2036,.4273-.3858,.6412-.5797,.5452-.4942-.3503,.2179-.0777,.0548,.1617-.0967,.3101-.2236,.4668-.3292,.7032-.474,1.4507-.8808,2.2179-1.241,.1837-.0862,1.0663-.4459,.1758-.0916,.2066-.0822,.4116-.1682,.6191-.2482,.5654-.218,1.1386-.4154,1.7167-.5968,1.3065-.4099,2.6386-.7363,3.9805-1.007,.7444-.1502,1.4924-.2829,2.2426-.4011,.159-.0251,1.3467-.1956,.8705-.1324,.4813-.0639,.9637-.1205,1.4464-.1734,4.5803-.5022,9.2012-.6002,13.8051-.5133,2.7863,.0526,5.5831,.3716,8.3516-.0529,2.3715-.3636,4.7097-1.3074,6.6548-2.7156,2.0512-1.485,3.6803-3.3513,4.8646-5.5916,.5686-1.0757,1.186-2.1214,1.8728-3.1262,.3237-.4736,.6624-.936,1.0095-1.3926-.5135,.6753,.1603-.1883,.2666-.3168,.2029-.2454,.4094-.4878,.6195-.7271,.7997-.911,1.6504-1.777,2.5442-2.5958,.4249-.3893,.8597-.7679,1.3034-1.1357,.2472-.2049,.4994-.403,.7495-.6044-.569,.4583,.1345-.0993,.3428-.2523,.9902-.7272,2.017-1.4046,3.0732-2.032,1.065-.6326,2.1602-1.2143,3.2794-1.7452,.296-.1404,.5937-.2773,.893-.4106,.2674-.1191,.8081-.3426,.2204-.1014,.6094-.2501,1.2211-.4928,1.8402-.7178,2.3692-.8611,4.8145-1.5125,7.2966-1.952,.3282-.0581,.6571-.1125,.9865-.1632,.3085-.0475,.88-.1198,.2296-.0387,.6628-.0827,1.3259-.1582,1.9915-.2146,1.2654-.1074,2.5356-.1601,3.8056-.157s2.5405,.0621,3.8055,.1783c.3328,.0306,.6652,.0651,.9972,.1037,.3096,.0359,.8812,.1236,.2331,.0253,.6608,.1002,1.3205,.202,1.9772,.3275,2.4999,.4776,4.9309,1.2061,7.296,2.1428,.7644,.3028-.2896-.1422,.333,.1419,.2743,.1252,.5502,.2465,.823,.3751,.6073,.2862,1.2068,.589,1.7971,.9086,1.1285,.611,2.224,1.2832,3.2788,2.0142,.2516,.1743,.5007,.3521,.7475,.5331,.1971,.1446,.8466,.6569,.318,.233,.5366,.4303,1.0683,.8647,1.5829,1.3213,.9931,.8811,1.9347,1.8203,2.8189,2.8108,.4274,.4788,.8386,.9709,1.2411,1.4706,.0153,.019,.4487,.5804,.1751,.2211-.2746-.3606,.1551,.2117,.1685,.2301,.2145,.295,.4288,.5899,.6364,.8899,.8092,1.1689,1.5482,2.3861,2.2166,3.6408,.3274,.6145,.638,1.2381,.9316,1.8695,.1663,.3574,.3259,.7177,.4828,1.0793-.2562-.5903,.1854,.466,.2569,.6498,.5727,1.473,1.0612,2.9784,1.4721,4.5043,.4378,1.6259,.7872,3.2753,1.0578,4.9371,.2203,1.3531,.4104,3.0421,.5264,4.9122,.2445,3.9387,.1088,7.8896-.279,11.8144-.1523,1.541,1.4249,2.863,2.863,2.863,1.6749,0,2.7103-1.3177,2.863-2.863,1.3899-14.067-.7865-29.1772-10.4225-40.109-7.377-8.3691-18.3659-12.7116-29.3959-12.9423-10.8024-.2259-21.7658,3.3718-30.0007,10.4287-2.0354,1.7442-3.8139,3.7232-5.4187,5.867-1.7858,2.3856-2.844,5.4076-5.0648,7.4037-3.7406,3.3622-8.663,2.3836-13.3726,2.3207-4.6116-.0616-9.2418,.0693-13.8233,.6289-5.2028,.6355-10.9567,1.6-15.3791,4.6376-2.0475,1.4063-3.9701,3.3221-4.5758,5.8155-.0959,.3947-.1253,.8047-.1701,1.2074-.0037,.0334,.0011,.0684-.0034,.1015,.1484-1.0938,.0587-.6872-.0191-.2906-.3146,1.6035-.1495,3.1131,.5924,4.5789,1.2717,2.5126,4.003,4.0728,6.489,5.1499,8.5814,3.7181,18.3845,4.741,27.5887,5.7398,12.0641,1.3091,24.2058,1.9,36.3313,2.2611,11.3561,.3381,22.7194,.4347,34.08,.3681,6.2712-.0367,12.5431-.1162,18.8123-.2795,.2964-.0077,.5927-.0155,.8891-.0242,3.6765-.1088,3.692-5.8353,0-5.726Z"/></g><path d="M562.1021,439.5947c4.4536-4.9838,8.9072-9.9675,13.3607-14.9513h-4.0489c4.0294,4.9838,8.0589,9.9675,12.0883,14.9513,.9729,1.2033,3.0367,1.0122,4.0489,0,1.1894-1.1894,.9753-2.8426,0-4.0489-4.0294-4.9838-8.0589-9.9675-12.0883-14.9513-.9368-1.1587-3.0989-1.0631-4.0489,0-4.4536,4.9838-8.9072,9.9675-13.3607,14.9513-1.0299,1.1525-1.1366,2.9124,0,4.0489,1.0479,1.0479,3.0145,1.1575,4.0489,0h0Z" style="fill:#fff;"/><path d="M570.5754,425.1638v29.9026c0,3.6844,5.726,3.6905,5.726,0v-29.9026c0-3.6844-5.726-3.6905-5.726,0h0Z" style="fill:#fff;"/><path d="M44.8505,640.6421c4.4536-4.9838,8.9072-9.9675,13.3607-14.9513h-4.0489c4.0294,4.9838,8.0589,9.9675,12.0883,14.9513,.9729,1.2033,3.0367,1.0122,4.0489,0,1.1894-1.1894,.9753-2.8426,0-4.0489-4.0294-4.9838-8.0589-9.9675-12.0883-14.9513-.9368-1.1587-3.0989-1.0631-4.0489,0-4.4536,4.9838-8.9072,9.9675-13.3607,14.9513-1.0299,1.1525-1.1366,2.9124,0,4.0489,1.0479,1.0479,3.0145,1.1575,4.0489,0h0Z" style="fill:#fff;"/><path d="M53.3237,626.2112v29.9026c0,3.6844,5.726,3.6905,5.726,0v-29.9026c0-3.6844-5.726-3.6905-5.726,0h0Z" style="fill:#fff;"/><path d="M82.3878,640.6421c4.4536-4.9838,8.9072-9.9675,13.3607-14.9513h-4.0489c4.0294,4.9838,8.0589,9.9675,12.0883,14.9513,.9729,1.2033,3.0367,1.0122,4.0489,0,1.1894-1.1894,.9753-2.8426,0-4.0489-4.0294-4.9838-8.0589-9.9675-12.0883-14.9513-.9368-1.1587-3.0989-1.0631-4.0489,0-4.4536,4.9838-8.9072,9.9675-13.3607,14.9513-1.0299,1.1525-1.1366,2.9124,0,4.0489,1.0479,1.0479,3.0145,1.1575,4.0489,0h0Z" style="fill:#fff;"/><path d="M90.8611,626.2112v29.9026c0,3.6844,5.726,3.6905,5.726,0v-29.9026c0-3.6844-5.726-3.6905-5.726,0h0Z" style="fill:#fff;"/><path d="M359.1461,860.7762c4.4536-4.9838,8.9072-9.9675,13.3607-14.9513h-4.0489c4.0294,4.9838,8.0589,9.9675,12.0883,14.9513,.9729,1.2033,3.0367,1.0122,4.0489,0,1.1894-1.1894,.9753-2.8426,0-4.0489-4.0294-4.9838-8.0589-9.9675-12.0883-14.9513-.9368-1.1587-3.0989-1.0631-4.0489,0-4.4536,4.9838-8.9072,9.9675-13.3607,14.9513-1.0299,1.1525-1.1366,2.9124,0,4.0489,1.0479,1.0479,3.0145,1.1575,4.0489,0h0Z" style="fill:#fff;"/><path d="M367.6193,846.3454v29.9026c0,3.6844,5.726,3.6905,5.726,0v-29.9026c0-3.6844-5.726-3.6905-5.726,0h0Z" style="fill:#fff;"/><path d="M396.6834,860.7762c4.4536-4.9838,8.9072-9.9675,13.3607-14.9513h-4.0489c4.0294,4.9838,8.0589,9.9675,12.0883,14.9513,.9729,1.2033,3.0367,1.0122,4.0489,0,1.1894-1.1894,.9753-2.8426,0-4.0489-4.0294-4.9838-8.0589-9.9675-12.0883-14.9513-.9368-1.1587-3.0989-1.0631-4.0489,0-4.4536,4.9838-8.9072,9.9675-13.3607,14.9513-1.0299,1.1525-1.1366,2.9124,0,4.0489,1.0479,1.0479,3.0145,1.1575,4.0489,0h0Z" style="fill:#fff;"/><path d="M405.1567,846.3454v29.9026c0,3.6844,5.726,3.6905,5.726,0,0-8.7096,0-17.4193,0-26.1289v-3.7737c0-3.6844-5.726-3.6905-5.726,0h0Z" style="fill:#fff;"/><path d="M597.7308,439.5947c4.4536-4.9838,8.9072-9.9675,13.3607-14.9513h-4.0489c4.0294,4.9838,8.0589,9.9675,12.0883,14.9513,.9729,1.2033,3.0367,1.0122,4.0489,0,1.1894-1.1894,.9753-2.8426,0-4.0489-4.0294-4.9838-8.0589-9.9675-12.0883-14.9513-.9368-1.1587-3.0989-1.0631-4.0489,0-4.4536,4.9838-8.9072,9.9675-13.3607,14.9513-1.0299,1.1525-1.1366,2.9124,0,4.0489,1.0479,1.0479,3.0145,1.1575,4.0489,0h0Z" style="fill:#fff;"/><path d="M606.204,425.1638v29.9026c0,3.6844,5.726,3.6905,5.726,0,0-8.7096,0-17.4193,0-26.1289v-3.7737c0-3.6844-5.726-3.6905-5.726,0h0Z" style="fill:#fff;"/><rect x="216.1976" y="552.409" width="121.5191" height="71.2573" rx="13.8706" ry="13.8706" style="fill:#fff;"/><path d="M200.246,836.1658H121.1875c-.7517,0-1.5041,.0086-2.2558,0-3.7993-.0434-7.1256-2.1116-8.7955-5.6639-.7354-1.5645-.8247-3.2797-.8247-5.2159v-26.2342c0-6.2574,0-12.5148,0-18.7722,0-1.4265-.0055-2.8531,0-4.2796,.0121-3.1288,1.4053-6.1552,3.8382-7.9213,1.9651-1.4266,3.9099-1.8977,6.274-1.8977h80.1056c1.9879,0,3.7158,.2716,5.3678,1.2009,3.1266,1.7587,4.9047,4.9237,4.938,8.4914,.0119,1.2744,0,2.5494,0,3.8238,0,6.12,0,12.24,0,18.3599v26.7662c0,1.7192,.0302,3.1177-.4514,4.6753-1.2217,3.9512-5.0064,6.6106-9.1379,6.6673-3.6816,.0505-3.692,5.7767,0,5.726,5.6074-.077,10.9802-3.1572,13.5635-8.2065,1.3176-2.5754,1.7518-5.3016,1.7518-8.1535v-15.4125c0-11.4047,.1042-22.8147,0-34.219-.0786-8.604-6.9811-15.4154-15.5709-15.4454-3.213-.0112-6.4262,0-9.6393,0h-41.2758c-9.8984,0-19.797-.0153-29.6954,0-3.021,.0047-6.0035,.6845-8.58,2.3171-4.4763,2.8363-7.1521,7.734-7.2144,13.0185-.0451,3.8264,0,7.656,0,11.4826,0,12.6118,0,25.2237,0,37.8355,0,2.2167,.0892,4.4274,.8686,6.5396,1.9118,5.1812,6.4405,9.1893,11.9679,10.0238,2.8961,.4373,5.9379,.2198,8.8553,.2198h74.9688c3.6844,0,3.6905-5.726,0-5.726Z" style="fill:#fff;"/><path d="M242.0739,579.8529c19.6382,0,39.2764,0,58.9146,0,5.5517,0,11.1035,0,16.6552,0,3.6844,0,3.6905-5.726,0-5.726-19.6382,0-39.2764,0-58.9146,0-5.5517,0-11.1035,0-16.6552,0-3.6844,0-3.6905,5.726,0,5.726h0Z" style="fill:#f4d13b;"/><path d="M242.0739,597.031c19.6382,0,39.2764,0,58.9146,0,5.5517,0,11.1035,0,16.6552,0,3.6844,0,3.6905-5.726,0-5.726-19.6382,0-39.2764,0-58.9146,0-5.5517,0-11.1035,0-16.6552,0-3.6844,0-3.6905,5.726,0,5.726h0Z" style="fill:#f4d13b;"/><path d="M126.4058,786.5132c19.5351,0,39.0701,0,58.6052,0,3.6844,0,3.6905-5.726,0-5.726-19.5351,0-39.0701,0-58.6052,0-3.6844,0-3.6905,5.726,0,5.726h0Z" style="fill:#f4d13b;"/><path d="M126.4058,804.3275c19.5351,0,39.0701,0,58.6052,0,3.6844,0,3.6905-5.726,0-5.726-19.5351,0-39.0701,0-58.6052,0-3.6844,0-3.6905,5.726,0,5.726h0Z" style="fill:#f4d13b;"/><path d="M126.4058,822.1419c12.7525,0,25.505,0,38.2575,0,3.6844,0,3.6905-5.726,0-5.726-12.7525,0-25.505,0-38.2575,0-3.6844,0-3.6905,5.726,0,5.726h0Z" style="fill:#f4d13b;"/></g><path d="M865.3659,189.224c2.9115-1.0065,5.5642-2.611,7.7765-4.7596,.7175-.6969,.7521-2.0089,0-2.6993-.7711-.7079-1.9337-.7435-2.6993,0-.4792,.4654-1.0018,.8702-1.4988,1.3134,.0633-.0564,.3102-.2346,.1075-.0839-.0627,.0467-.1251,.0938-.1881,.1401-.1418,.1042-.2851,.2063-.4297,.3064-.2733,.1891-.5515,.371-.8345,.5452-.5493,.3382-1.1163,.6477-1.6977,.927-.1586,.0762-.3182,.1501-.4789,.2217-.0711,.0317-.1452,.0594-.2149,.0941,.0741-.0369,.3699-.1516,.1315-.0564-.327,.1306-.6555,.2553-.9883,.3703-.9415,.3255-1.6647,1.3233-1.3331,2.3479,.3018,.9324,1.3376,1.6824,2.3479,1.3331h0Z"/><path d="M867.5651,159.3375c.6882-.0855,1.3781-.0812,2.0657,.0079l-.5074-.0682c.7179,.1016,1.4138,.2931,2.0824,.5738l-.4559-.1924c.5201,.2256,1.0123,.5005,1.4756,.8274,.3844,.2713,1.0334,.3129,1.4707,.1924,.4427-.1219,.9225-.4642,1.1407-.8772,.234-.443,.3514-.9796,.1924-1.4707-.1604-.4958-.4516-.8403-.8772-1.1407-1.8628-1.3146-4.3217-1.951-6.5871-1.6697-.5249,.0652-.9604,.1698-1.3496,.559-.331,.331-.5803,.8742-.559,1.3496,.0221,.4936,.1843,1.0056,.559,1.3496,.3462,.3178,.8602,.6198,1.3496,.559h0Z"/><path d="M847.9839,155.8531c.1221-.0867,.2462-.1682,.3783-.2392,.0653-.0351,.1318-.0679,.1993-.0984-.2868,.117-.3355,.1404-.1461,.0703,.1439-.0387,.2833-.0863,.4296-.117,.0731-.0153,.1465-.0285,.2204-.0396-.3221,.0403-.3794,.0508-.1719,.0314,.1514-.0021,.3013-.0132,.4531-.0086,.0759,.0023,.1517,.0064,.2274,.0122,.2076,.0205,.1519,.0105-.1671-.0301,.2689,.084,.5602,.106,.8321,.192,.0588,.0186,.3841,.0925,.3986,.1423-.2607-.1129-.2964-.1272-.1073-.043,.0765,.0352,.1524,.0717,.2277,.1095,.3019,.1511,.5938,.3218,.8778,.5041,.2858,.1834,.5634,.3793,.8366,.5809,.1324,.0978,.2905,.1915,.4075,.3072-.3812-.3767,.0168,.0137,.1167,.0917,.417,.3253,.797,.559,1.3496,.559,.4681,0,1.0273-.2079,1.3496-.559,.6287-.6848,.8408-2.0434,0-2.6993-1.4027-1.0942-2.8137-2.1979-4.5506-2.7074-1.6545-.4853-3.6483-.3776-5.0881,.6449-.4141,.2941-.7381,.6357-.8772,1.1407-.1258,.4569-.069,1.0653,.1924,1.4707,.5196,.806,1.7409,1.303,2.6114,.6847h0Z"/><path d="M846.9924,158.3243c-.04,.0345-.0782,.0707-.1133,.1103-.1385,.1561-.2686,.326-.3855,.4985-.0311,.0459-.0589,.0942-.083,.1442-.0914,.1894-.1769,.3869-.2459,.5861-.0871,.2515-.1064,.5386-.1329,.7964-.0117,.1135-.0112,.2265,.0005,.34,.0271,.263,.0508,.5471,.13,.8045,.0156,.0506,.0341,.0998,.0539,.1488,.0807,.2003,.1569,.4075,.2605,.598,.1246,.229,.2993,.4363,.467,.6325,.1706,.1995,.4031,.3579,.6124,.5061,.2131,.151,.4769,.2423,.7172,.33,.0503,.0184,.1019,.0329,.1544,.0436,.2196,.0448,.4488,.0784,.6729,.089,.0647,.0031,.1286-.0011,.1929-.008,.2202-.0235,.451-.0412,.6666-.1,.0574-.0157,.1125-.0365,.1676-.0589,.2015-.0817,.4131-.1564,.6024-.2665,.0566-.0329,.1098-.0703,.1622-.1095,.1734-.1295,.3556-.2568,.5125-.4077,.044-.0424,.0851-.0873,.1244-.1341,.1397-.1662,.2779-.3397,.3987-.5208,.1575-.236,.2613-.5177,.3579-.7792,.0977-.2644,.1216-.5664,.1465-.8405,.0063-.0688,.0083-.1376,.0034-.2066-.0166-.2316-.0418-.4716-.0982-.6977-.0085-.0341-.0187-.0677-.0305-.1007-.0624-.1755-.1304-.3656-.2204-.5268-.054-.0968,.0032-.0074-.162-.2212-.0848-.1434-.199-.2575-.3424-.3424-.1191-.1183-.2594-.2001-.4211-.2454-.1234-.0521-.2387-.0999-.363-.1433-.435-.1519-.87-.3037-1.3049-.4556-.2537-.0795-.5074-.0909-.7611-.0341-.254,.0115-.4906,.087-.7096,.2265-.2224,.1199-.4009,.2838-.5355,.4916-.1687,.1843-.2826,.4007-.3416,.6491-.1113,.4886-.0872,1.037,.1924,1.4707l.2984,.3863c.2382,.2366,.5189,.4002,.8422,.4909,.48,.1676,.9599,.3352,1.4399,.5027l-1.1407-.8772,.0127,.028-.1924-.4559c.0392,.0932,.0658,.1884,.0809,.2884l-.0682-.5074c.0134,.1086,.0126,.2157-.0011,.3243l.0682-.5074c-.0178,.1192-.05,.2334-.0952,.3451l.1924-.4559c-.0563,.1314-.128,.2526-.215,.366l.2984-.3863c-.0827,.1038-.1753,.1966-.2794,.279l.3863-.2984c-.0962,.0731-.1982,.1344-.3086,.1835l.4559-.1924c-.1009,.0422-.204,.0721-.3121,.0888l.5074-.0682c-.0996,.0128-.1979,.0136-.2976,.0019l.5074,.0682c-.1006-.0147-.1964-.041-.2902-.0804l.4559,.1924c-.0865-.0388-.1665-.0867-.242-.144l.3863,.2984c-.0878-.0697-.165-.149-.2337-.2375l.2984,.3863c-.0734-.0983-.1336-.2034-.1829-.3157l.1924,.4559c-.0582-.1388-.0973-.2828-.1176-.4319l.0682,.5074c-.0157-.1309-.0164-.2611-.0005-.3919l-.0682,.5074c.0168-.1198,.0473-.2351,.0939-.3468l-.1924,.4559c.0384-.0866,.0851-.1671,.1418-.243l-.2984,.3863c.0489-.0623,.1028-.1186,.1628-.1703,.1861-.1729,.3177-.3776,.3947-.6143,.1195-.2275,.1743-.4726,.1644-.7354,.0099-.2628-.0449-.5079-.1644-.7354-.077-.2366-.2085-.4414-.3947-.6143-.3637-.3339-.8413-.5818-1.3496-.559l-.5074,.0682c-.3233,.0907-.6041,.2543-.8422,.4909h0Z"/><path d="M865.443,161.5054c-.04,.0345-.0782,.0707-.1133,.1103-.1385,.1561-.2686,.326-.3855,.4985-.0311,.0459-.0589,.0942-.083,.1442-.0914,.1894-.1769,.3869-.2459,.5861-.0871,.2515-.1064,.5386-.1329,.7964-.0117,.1135-.0112,.2265,.0005,.34,.0271,.263,.0508,.5471,.13,.8045,.0156,.0506,.0341,.0998,.0539,.1488,.0807,.2003,.1569,.4075,.2605,.598,.1246,.229,.2993,.4363,.467,.6325,.1706,.1995,.4031,.3579,.6124,.5061,.2131,.151,.4769,.2423,.7172,.33,.0503,.0184,.1019,.0329,.1544,.0436,.2196,.0448,.4488,.0784,.6729,.089,.0647,.0031,.1286-.0011,.1929-.008,.2202-.0235,.451-.0412,.6666-.1,.0574-.0157,.1125-.0365,.1676-.0589,.2015-.0817,.4131-.1564,.6024-.2665,.0566-.0329,.1098-.0703,.1622-.1095,.1734-.1295,.3556-.2568,.5125-.4077,.044-.0424,.0851-.0873,.1244-.1341,.1397-.1662,.2779-.3397,.3987-.5208,.1575-.236,.2613-.5177,.3579-.7792,.0977-.2644,.1216-.5664,.1465-.8405,.0063-.0688,.0083-.1376,.0034-.2066-.0166-.2316-.0418-.4716-.0982-.6977-.0085-.0341-.0187-.0677-.0305-.1007-.0624-.1755-.1304-.3656-.2204-.5268-.054-.0968,.0032-.0074-.162-.2212-.0848-.1434-.199-.2575-.3424-.3424-.1191-.1183-.2594-.2001-.4211-.2454-.1234-.0521-.2387-.0999-.363-.1433-.435-.1519-.87-.3037-1.3049-.4556-.2537-.0795-.5074-.0909-.7611-.0341-.254,.0115-.4906,.087-.7096,.2265-.2224,.1199-.4009,.2838-.5355,.4916-.1687,.1843-.2826,.4007-.3416,.6491-.1113,.4886-.0872,1.037,.1924,1.4707l.2984,.3863c.2382,.2366,.5189,.4002,.8422,.4909,.48,.1676,.9599,.3352,1.4399,.5027l-1.1407-.8772,.0127,.028-.1924-.4559c.0392,.0932,.0658,.1884,.0809,.2884l-.0682-.5074c.0134,.1086,.0126,.2157-.0011,.3243l.0682-.5074c-.0178,.1192-.05,.2334-.0952,.3451l.1924-.4559c-.0563,.1314-.128,.2526-.215,.366l.2984-.3863c-.0827,.1038-.1753,.1966-.2794,.279l.3863-.2984c-.0962,.0731-.1982,.1344-.3086,.1835l.4559-.1924c-.1009,.0422-.204,.0721-.3121,.0888l.5074-.0682c-.0996,.0128-.1979,.0136-.2976,.0019l.5074,.0682c-.1006-.0147-.1964-.041-.2902-.0804l.4559,.1924c-.0865-.0388-.1665-.0867-.242-.144l.3863,.2984c-.0878-.0697-.165-.149-.2337-.2375l.2984,.3863c-.0734-.0983-.1336-.2034-.1829-.3157l.1924,.4559c-.0582-.1388-.0973-.2828-.1176-.4319l.0682,.5074c-.0157-.1309-.0164-.2611-.0005-.3919l-.0682,.5074c.0168-.1198,.0473-.2351,.0939-.3468l-.1924,.4559c.0384-.0866,.0851-.1671,.1418-.243l-.2984,.3863c.0489-.0623,.1028-.1186,.1628-.1703,.1861-.1729,.3177-.3776,.3947-.6143,.1195-.2275,.1743-.4726,.1644-.7354,.0099-.2628-.0449-.5079-.1644-.7354-.077-.2366-.2085-.4414-.3947-.6143-.3637-.3339-.8413-.5818-1.3496-.559l-.5074,.0682c-.3233,.0907-.6041,.2543-.8422,.4909h0Z"/><path d="M357.9592,240.0668c2.6549,3.1859,5.3098,6.3718,7.9648,9.5577,.4444,.5333,1.3571,.8386,2.0245,.8386,.7022,0,1.541-.3119,2.0245-.8386,.5009-.5456,.8727-1.262,.8386-2.0245-.0357-.7974-.3285-1.4124-.8386-2.0245-2.6549-3.1859-5.3098-6.3718-7.9648-9.5577-.4444-.5333-1.3571-.8386-2.0245-.8386-.7022,0-1.541,.3119-2.0245,.8386-.5009,.5456-.8727,1.262-.8386,2.0245,.0357,.7974,.3285,1.4124,.8386,2.0245h0Z" style="fill:#6966ed;"/><path d="M332.8983,298.3228c7.4335,.5355,14.8669,1.071,22.3004,1.6065,1.5441,.1112,2.863-1.3955,2.863-2.863,0-1.642-1.3145-2.7515-2.863-2.863-7.4335-.5355-14.8669-1.071-22.3004-1.6065-1.5441-.1112-2.863,1.3955-2.863,2.863,0,1.642,1.3145,2.7515,2.863,2.863h0Z" style="fill:#6966ed;"/><path d="M401.558,218.9468c.51,4.2504,1.02,8.5008,1.53,12.7512,.0943,.7857,.2569,1.4428,.8386,2.0245,.4966,.4966,1.3113,.8705,2.0245,.8386,1.3982-.0626,3.0541-1.2704,2.863-2.863-.51-4.2504-1.02-8.5008-1.53-12.7512-.0943-.7857-.2569-1.4428-.8386-2.0245-.4966-.4966-1.3113-.8705-2.0245-.8386-1.3982,.0626-3.0541,1.2704-2.863,2.863h0Z" style="fill:#6966ed;"/><path d="M562.2888,495.7781h114.6927c3.6844,0,3.6905-5.726,0-5.726h-114.6927c-3.6844,0-3.6905,5.726,0,5.726h0Z" style="fill:#6966ed;"/><path d="M545.6292,518.6454c6.9205-.7689,13.841-1.5379,20.7615-2.3068,1.5366-.1707,2.863-1.1936,2.863-2.863,0-1.4152-1.3163-3.0349-2.863-2.863-6.9205,.7689-13.841,1.5379-20.7615,2.3068-1.5366,.1707-2.863,1.1936-2.863,2.863,0,1.4152,1.3163,3.0349,2.863,2.863h0Z" style="fill:#6966ed;"/></svg>