<?xml version="1.0" encoding="UTF-8"?><svg id="Layer_2" xmlns="http://www.w3.org/2000/svg" width="1000" height="1000" viewBox="0 0 1000 1000"><circle cx="823.2909" cy="315.112" r="151.7088" style="fill:#6966ed;"/><circle cx="804.6633" cy="318.0411" r="151.7088" style="fill:#f953b2;"/><circle cx="804.6633" cy="318.0411" r="94.2762" style="fill:#f4d13b;"/><circle cx="804.6633" cy="318.0411" r="36.1934" style="fill:#fff;"/><path d="M204.5668,318.8407c-.0279,.9926,.2203,1.9051,.8953,2.6513,.5395,.5965,1.368,.9849,2.1458,1.1466,1.7292,.3594,3.3851-.0924,5.1135-.1227,.2016-.0035,.4031-.0007,.6043,.0128,.0791,.0043,.158,.0111,.2368,.0203-.1422-.0144-.1209-.0051,.064,.0279,.1019,.0251,.202,.0559,.3003,.0926-.1004-.0372-.104-.0316-.0106,.0167,.0947,.0596,.0904,.053-.0129-.0198,.1218,.1299,.1347,.1383,.0389,.0253,.0875,.1576,.0935,.1665,.0179,.0267-.0225-.0809-.0197-.1608,.0085-.2397l-.0422,.1424c.0489-.137,.0313-.1248-.0527,.0367,.1629-.1661-.2053,.2439-.2403,.2822-.1024,.1121-.2078,.2215-.3157,.3282-.959,.9477-2.0546,1.5465-3.384,1.8908-.7692,.1993-1.3108,1.0961-1.0609,1.8684,.2566,.793,1.0441,1.2744,1.8684,1.0609,1.6794-.435,3.2287-1.2886,4.5046-2.4626,.6942-.6388,1.399-1.4104,1.652-2.3394,.2832-1.0399-.1584-2.1742-.9566-2.8617-1.5804-1.3614-3.7905-.9004-5.6741-.7203-.856,.0818-1.5378,.0761-2.2458-.0975-.1662-.0608-.1723-.0597-.0182,.0033-.0817-.0385-.1612-.0811-.2385-.1277-.1453-.0976-.1502-.0971-.0147,.0015-.0658-.0584-.1271-.1212-.1838-.1885,.106,.1316,.1129,.1234,.0206-.0245,.0628,.1256,.0661,.1025,.0098-.0694,.0171,.1517,.0188,.1339,.0051-.0531-.0027-.1025-.0016-.205,.0031-.3074,.0224-.7949-.7146-1.5549-1.5189-1.5189-.8421,.0377-1.4949,.6672-1.5189,1.5189h0Z"/><path d="M426.4572,218.403c2.1693,10.7759,5.537,21.0777,11.5207,30.3988,7.1214,11.0934,16.5466,19.3277,27.5766,26.3635,1.5674,.9998,3.1023,2.0503,4.6085,3.14,.4396,.318,3.1143,2.3501,1.4793,1.0755,1.0345,.8064,2.0579,1.6266,3.0672,2.4643,3.7517,3.1137,7.326,6.4399,10.7382,9.9214,3.7685,3.845,7.3395,7.8831,10.7145,12.0774,.4413,.5484,.8764,1.1016,1.3137,1.6532,1.4477,1.8265-.8549-1.1641,.5501,.7151,.8638,1.1553,1.729,2.3088,2.5722,3.4794,1.8715,2.5981,3.6719,5.2475,5.3988,7.944,3.3196,5.1836,6.3678,10.5416,9.119,16.0481,3.0598,6.1241,4.9145,10.4702,7.1228,16.661,4.8269,13.532,7.7574,27.426,8.5841,41.5119,.4294,7.3161,.361,14.6603-.1758,21.969-.5239,7.1328-1.2582,12.4581-2.6763,19.5233-1.3054,6.5041-2.977,12.9355-5.0188,19.2474-.8974,2.7742-1.8662,5.5252-2.9104,8.2475-.5241,1.3663-1.0661,2.7259-1.6294,4.0766,.6025-1.4445-.3114,.7083-.357,.8122-.3747,.8538-.7575,1.7042-1.1486,2.5506-2.4009,5.1951-5.1082,10.2622-8.2344,15.0591-3.8004,5.8315-7.7158,11.2867-10.4984,17.7249-6.5827,15.2306-8.3987,31.8612-5.1193,48.1513,.8099,4.0229,5.5866,6.3365,9.3422,5.3044,4.189-1.1512,6.1166-5.3077,5.3044-9.3422-.6198-3.0786-.8359-4.6956-1.0275-8.144-.2034-3.6607-.125-7.3368,.2339-10.9856,.2084-2.1184,.7114-5.0183,1.4231-7.9394,.8618-3.5371,1.959-7.0646,3.3968-10.4128-.4598,1.0707,.6815-1.4568,.5998-1.2828,.3603-.7678,.7343-1.5292,1.1216-2.2837,.7774-1.5145,1.6086-3.0013,2.4916-4.4568,1.5166-2.4999,3.262-4.8277,4.9014-7.2441,2.896-4.2685,5.4351-8.7776,7.7118-13.4038,11.9581-24.2978,17.9377-51.7666,17.734-78.8171-.3834-50.9093-25.3155-102.05-65.8762-133.0933-4.0783-3.1213-8.4856-5.6675-12.6885-8.5987-.6286-.4384-1.2475-.8895-1.864-1.3448-.7217-.5429-.8145-.6137-.2784-.2125-.3977-.3169-.792-.638-1.1828-.9634-1.3639-1.1351-2.6867-2.3204-3.9622-3.5541-2.3546-2.2774-4.5871-4.7088-6.5892-7.3035,.8572,1.111-.6248-.8746-.6286-.8799-.5883-.8182-1.1593-1.6487-1.7125-2.4909-.9688-1.4747-1.8831-2.9851-2.7405-4.5272-.859-1.5449-1.6608-3.1216-2.4031-4.7258-.2125-.4591-.4198-.9208-.6229-1.3842,.4994,1.1398-.5725-1.4629-.6646-1.7081-1.839-4.8985-2.941-9.9468-3.9701-15.059-.8099-4.0229-5.5866-6.3365-9.3422-5.3044-4.189,1.1512-6.1166,5.3077-5.3044,9.3422h0Z" style="fill:#6966ed;"/><path d="M430.8929,218.0445c-1.823,1.7884-3.6461,3.5767-5.4691,5.3651-4.9289,4.8352-9.8578,9.6703-14.7867,14.5055-7.2584,7.1203-14.5168,14.2407-21.7752,21.361-8.715,8.5492-17.43,17.0985-26.145,25.6477-9.3873,9.2087-18.7746,18.4174-28.1618,27.6261-9.2495,9.0735-18.4989,18.147-27.7484,27.2205-8.3016,8.1436-16.6031,16.2873-24.9047,24.4309-6.5659,6.441-13.1318,12.882-19.6977,19.323-3.9531,3.8779-7.9061,7.7557-11.8592,11.6336-.7727,.758-1.5517,1.5101-2.3183,2.2742-4.7691,4.7534-5.1944,12.3674-.6889,17.4615,2.1948,2.4815,5.773,3.979,8.6376,5.5548,5.4509,2.9986,10.9018,5.9971,16.3527,8.9957,8.2618,4.5449,16.5237,9.0897,24.7855,13.6346,10.2163,5.62,20.4325,11.24,30.6488,16.86,11.3624,6.2505,22.7248,12.5009,34.0872,18.7514,11.5552,6.3565,23.1104,12.7131,34.6656,19.0696,10.9369,6.0164,21.8738,12.0328,32.8107,18.0492,9.4621,5.2051,18.9243,10.4103,28.3864,15.6154,7.131,3.9228,14.262,7.8456,21.3931,11.7684,3.9434,2.1693,7.8868,4.3385,11.8302,6.5078,.5093,.2801,1.0185,.5603,1.5278,.8404,1.714,.9429,3.2485-1.6795,1.5333-2.6231-2.0704-1.139-4.1409-2.2779-6.2113-3.4169-5.6475-3.1067-11.2949-6.2134-16.9424-9.32-8.3787-4.6091-16.7573-9.2183-25.136-13.8274-10.2186-5.6213-20.4372-11.2425-30.6558-16.8638-11.3011-6.2168-22.6023-12.4336-33.9034-18.6503-11.4985-6.3253-22.997-12.6507-34.4955-18.976-10.85-5.9686-21.7001-11.9373-32.5501-17.9059-9.3211-5.1276-18.6422-10.2551-27.9633-15.3827-7.0273-3.8657-14.0546-7.7314-21.0818-11.5972-3.845-2.1151-7.6899-4.2303-11.5349-6.3454-1.0447-.5747-2.1309-1.1148-3.0396-1.8954-4.4577-3.8295-4.1616-10.3391-.1477-14.3134,2.5875-2.562,5.1991-5.1002,7.7986-7.6502,5.4964-5.3918,10.9928-10.7837,16.4892-16.1755,7.5583-7.4146,15.1167-14.8291,22.675-22.2437,8.8862-8.7172,17.7724-17.4344,26.6586-26.1515,9.3862-9.2077,18.7725-18.4154,28.1587-27.6231,9.0501-8.878,18.1002-17.7559,27.1503-26.6339,7.9924-7.8404,15.9848-15.6807,23.9772-23.5211,6.0956-5.9796,12.1912-11.9593,18.2868-17.9389,3.3987-3.3341,6.7975-6.6682,10.1962-10.0023,.4386-.4302,.8771-.8605,1.3157-1.2907,1.3979-1.3713-.7507-3.5188-2.1481-2.1481h0Z" style="fill:#f4d13b;"/><g><path d="M336.8007,387.0899l-82.4039,20.2126-21.0053-19.7458,63.8867-15.6706c11.1877-2.7442,22.2856-.9997,28.0374,4.4073l11.4851,10.7965Z" style="fill:#f953b2;"/><path d="M337.306,389.15l-82.4039,20.2126-9.4841,27.2244,63.8867-15.6706c11.1877-2.7442,20.2187-9.4261,22.8157-16.8809l5.1857-14.8856Z" style="fill:#f953b2;"/><path d="M251.5469,411.4391c2.9618-.7265,5.9235-1.453,8.8853-2.1794,8.0596-1.9769,16.1191-3.9538,24.1787-5.9307,11.9188-2.9235,23.8376-5.8471,35.7564-8.7706,14.4884-3.5538,28.9768-7.1076,43.4651-10.6614,15.8654-3.8916,31.7308-7.7832,47.5962-11.6747,16.0683-3.9413,32.1365-7.8827,48.2048-11.824,14.9814-3.6747,29.9629-7.3495,44.9443-11.0242,12.656-3.1044,25.3121-6.2087,37.9681-9.3131,9.0692-2.2246,18.1384-4.4491,27.2076-6.6737,4.299-1.0545,8.6318-2.0203,12.9077-3.1661,.186-.0498,.3745-.0919,.5616-.1377,2.8466-.6982,1.641-5.0936-1.2114-4.394-2.9618,.7265-5.9235,1.453-8.8853,2.1794-8.0596,1.9769-16.1191,3.9538-24.1787,5.9307-11.9188,2.9235-23.8376,5.8471-35.7564,8.7706-14.4884,3.5538-28.9768,7.1076-43.4651,10.6614-15.8654,3.8916-31.7308,7.7832-47.5962,11.6747-16.0683,3.9413-32.1365,7.8827-48.2048,11.824-14.9814,3.6747-29.9629,7.3495-44.9443,11.0242-12.656,3.1044-25.3121,6.2087-37.9681,9.3131-9.0692,2.2246-18.1384,4.4491-27.2076,6.6737-4.299,1.0545-8.6318,2.0203-12.9077,3.1661-.186,.0498-.3745,.0919-.5616,.1377-2.8466,.6982-1.641,5.0936,1.2114,4.394h0Z" style="fill:#f953b2;"/><polygon points="573.7598 352.2008 608.6596 321.8676 563.6848 311.1265 579.3989 329.0448 573.7598 352.2008" style="fill:#f953b2;"/></g><path d="M299.3772,406.4587c-6.1815,.4165-12.363,.833-18.5445,1.2495-.8898,.06-1.7797,.1199-2.6695,.1799-1.2279,.0827-2.2784,.9879-2.2784,2.2784,0,1.1691,1.0442,2.3615,2.2784,2.2784,6.1815-.4165,12.363-.833,18.5445-1.2495,.8898-.06,1.7797-.1199,2.6695-.1799,1.2279-.0827,2.2784-.9879,2.2784-2.2784,0-1.1691-1.0442-2.3615-2.2784-2.2784h0Z"/><path d="M300.5603,416.6921c-6.1815,.4165-12.363,.833-18.5445,1.2495-.8898,.06-1.7797,.1199-2.6695,.1799-1.2279,.0827-2.2784,.9879-2.2784,2.2784,0,1.1691,1.0442,2.3615,2.2784,2.2784,6.1815-.4165,12.363-.833,18.5445-1.2495,.8898-.06,1.7797-.1199,2.6695-.1799,1.2279-.0827,2.2784-.9879,2.2784-2.2784,0-1.1691-1.0442-2.3615-2.2784-2.2784h0Z"/><path d="M301.4056,426.6215c-6.1815,.4165-12.363,.833-18.5445,1.2495-.8898,.06-1.7797,.1199-2.6695,.1799-1.2279,.0827-2.2784,.9879-2.2784,2.2784,0,1.1691,1.0442,2.3615,2.2784,2.2784,6.1815-.4165,12.363-.833,18.5445-1.2495,.8898-.06,1.7797-.1199,2.6695-.1799,1.2279-.0827,2.2784-.9879,2.2784-2.2784,0-1.1691-1.0442-2.3615-2.2784-2.2784h0Z"/><path d="M507.5087,362.0906c6.1571-.7791,12.3142-1.5581,18.4714-2.3372,.8742-.1106,1.7484-.2212,2.6226-.3318,1.2205-.1544,2.2784-.9366,2.2784-2.2784,0-1.1112-1.0491-2.4339-2.2784-2.2784-6.1571,.7791-12.3142,1.5581-18.4714,2.3372-.8742,.1106-1.7484,.2212-2.6226,.3318-1.2205,.1544-2.2784,.9366-2.2784,2.2784,0,1.1112,1.0491,2.4339,2.2784,2.2784h0Z"/><path d="M508.3118,372.3609c6.1571-.7791,12.3142-1.5581,18.4714-2.3372,.8742-.1106,1.7484-.2212,2.6226-.3318,1.2205-.1544,2.2784-.9366,2.2784-2.2784,0-1.1112-1.0491-2.4339-2.2784-2.2784-6.1571,.7791-12.3142,1.5581-18.4714,2.3372-.8742,.1106-1.7484,.2212-2.6226,.3318-1.2205,.1544-2.2784,.9366-2.2784,2.2784,0,1.1112,1.0491,2.4339,2.2784,2.2784h0Z"/><path d="M509.388,382.268c6.1571-.7791,12.3142-1.5581,18.4714-2.3372,.8742-.1106,1.7484-.2212,2.6226-.3318,1.2205-.1544,2.2784-.9366,2.2784-2.2784,0-1.1112-1.0491-2.4339-2.2784-2.2784-6.1571,.7791-12.3142,1.5581-18.4714,2.3372-.8742,.1106-1.7484,.2212-2.6226,.3318-1.2205,.1544-2.2784,.9366-2.2784,2.2784,0,1.1112,1.0491,2.4339,2.2784,2.2784h0Z"/><g><path d="M210.0178,350.0154s-7.3498,2.3898-14.6293,.6178c4.1681,4.0918,11.8576,6.3773,14.1512,5.8091-4.4204-5.2444,.4169-6.2701,.478-6.427Z"/><path d="M209.4121,347.8184c-1.4212,.4587-2.9087,.7166-4.3805,.9448,.4486-.0696-.3866,.0458-.5595,.0644-.3789,.0407-.7584,.0748-1.1385,.1021-.776,.0557-1.5541,.0833-2.3321,.0788-1.8261-.0104-3.3038-.1697-5.0072-.5722-2.1506-.5082-3.9063,2.1727-2.2167,3.808,2.4761,2.3965,5.575,4.0477,8.7839,5.238,2.3042,.8547,5.1146,1.7201,7.5841,1.1571,.7642-.1742,1.3877-.8519,1.5913-1.5913,.2317-.8414-.0539-1.5744-.5859-2.2167-.2581-.3116-.6397-.8405-.9171-1.3567-.0734-.1365-.137-.2766-.2066-.415,.0702,.1398,.1136,.3394,.0458,.08-.0118-.0454-.1754-.556-.1477-.5649,.039-.0125,.0123,.6379,.0346,.1602,.0033-.0703,.0141-.1664,.0035-.2354-.0261-.1696-.1208,.4106-.0388,.278,.0194-.0313,.0524-.1649,.0509-.2021-.0154-.3796,.0556,.1902-.1034,.2204,.0125-.0024,.0858-.1506,.0911-.1683,.0109-.0365,.1088-.1233,.1026-.1567,.0145,.0772-.4337,.4538-.1539,.2138,.0806-.0691,.1912-.1611,.2563-.244-.0349,.0444-.5007,.3221-.088,.083,.1813-.1051,.3639-.2002,.5495-.2971,.3595-.1877-.3005,.1228-.2807,.1148,.2285-.0933,.4663-.1762,.6854-.288,.4135-.2111,.6788-.52,.9511-.888,.7114-.9618,.1905-2.5848-.8174-3.1172-1.1903-.6289-2.3579-.2092-3.1172,.8174,.6217-.8405,.5839-.6991,1.1921-.9615-.2398,.1034-.4817,.197-.7214,.3032-.2063,.0914-.4105,.1848-.6055,.2992-.7703,.4518-1.4598,1.0866-1.9108,1.8628-1.5603,2.6847,.1995,5.6021,1.9239,7.6843,.3351-1.2693,.6702-2.5387,1.0054-3.808-.4819,.1099,.6576-.0034,.0272-.0028-.2024,.0002-.403,.0086-.6056-.001-.0698-.0033-.6103-.0876-.6331-.054,.0395-.0585,.5713,.0921,.0493,.0027-.1229-.021-.2457-.042-.3683-.0651-1.2376-.2334-2.4509-.5996-3.6308-1.0369-.3079-.1141-.6131-.2348-.9172-.3587,.4632,.1888-.1525-.0683-.1958-.0876-.1551-.0691-.3094-.1399-.4631-.2119-.6538-.3063-1.2959-.638-1.9215-.9985-.6543-.377-1.2914-.7843-1.9027-1.2278-.0425-.0308-.4757-.3615-.2552-.1882,.2202,.1731-.1996-.1659-.2396-.1995-.3028-.2537-.5941-.5193-.8779-.794-.7389,1.2693-1.4778,2.5387-2.2167,3.808,3.4931,.8254,7.1015,.9088,10.6501,.4369,1.743-.2318,3.5117-.5129,5.1905-1.0548,1.1323-.3655,1.9817-1.5963,1.5913-2.8027-.3666-1.1329-1.5881-1.9833-2.8027-1.5913Z"/></g><g><path d="M167.3074,346.4917c-.1246,4.0628-4.1143,3.3237-6.1134,1.6077-6.1085-5.2433-21.6565-38.9407-8.4651-42.2196,1.4452-.3592,3.1429-.1497,4.1452,.9515,1.0026,1.1014,.8517,3.1873-.5057,3.8004-2.0357-2.9677-2.4308-6.9896-1.0115-10.2967,2.1904-5.1038,11.2052-9.1426,15.8931-11.8388,6.4995-3.738,13.7947-6.0889,21.2314-6.9896,2.697-.3267,5.7584-.3587,7.7343,1.5057,.3713,.3503,.7089,.863,.5307,1.3413-.0942,.253-.317,.4366-.5518,.5698-1.5933,.9042-3.7665-.2797-4.3937-2.0009-.6272-1.7212-.0606-3.6682,.877-5.242,1.9279-3.2361,5.4706-5.4535,9.2239-5.7731s7.6199,1.2667,10.0672,4.1302c1.6196,1.895,2.6093,4.263,3.1845,6.6885,.9163,3.8637,1.4381,7.5542,.0188,11.3211-1.4628,3.8823-4.0797,7.3184-7.3755,9.829-4.8066,3.6614-10.9451,5.3926-16.9865,5.2914-2.469-.0414-4.9435-.3738-7.4003-.1243-1.7371,.1764-3.578,.675-4.9964,1.7345-1.4314,1.0693-1.3552,2.2248-1.4964,3.9194-.3124,3.7509,.1416,7.5641,1.326,11.1368,.2938-7.4724-9.5975-15.1617-14.8009-6.9405-.9245,1.4607-1.2547,3.2277-1.2956,4.956-.0643,2.7157,.5695,5.4885,2.074,7.7503s3.9262,3.9633,6.6188,4.3227c-.5926,2.3982-1.1851,4.7963-1.7777,7.1945-.3615,1.463-.7868,3.0306-1.9513,3.9872s-3.3068,.8103-3.8032-.6126Z"/><path d="M165.029,346.4917c-.0142,.2392-.0447,.3782-.104,.6048,.0087-.0334,.0713-.2215-.0184,.0339-.1147,.3265-.0149-.0441,.0265-.0032,.0317,.0313-.2838,.1557,.1386-.0173-.0761,.0312-.2188,.0918-.3018,.0875-.3444-.018,.3262-.0242-.0354-.0033-.5486,.0317-1.2773-.2033-2.0295-.7782,.2123,.1623-.2379-.2367-.3247-.3226-.2055-.2035-.4004-.4178-.5905-.6356-.217-.2486-.4242-.5052-.6284-.7644,.3506,.4451-.2843-.3952-.4089-.5712-2.2018-3.11-3.9779-6.5398-5.5599-9.9985-1.7713-3.8728-3.3359-8.1094-4.3708-12.4-.2444-1.0133-.4582-2.0343-.63-3.0625-.0996-.5959-.1136-.6859-.1552-1.0444-.0571-.4917-.1049-.9845-.1373-1.4785-.058-.8865-.0722-1.777-.0182-2.6641,.0122-.2,.0337-.3992,.047-.599,.03-.4476-.0031-.0579,.0142-.1658,.0637-.3975,.1378-.7926,.2384-1.1827,.1022-.3964,.2287-.7849,.3781-1.1659-.1668,.4257-.0168,.0415,.0832-.1412,.1047-.1913,.2125-.378,.3253-.5648,.1175-.1946,.3581-.4657,.0645-.1218,.1201-.1406,.2396-.2802,.3694-.4122,.1299-.132,.2689-.2518,.4059-.376-.3305,.2993-.0819,.0518,.1179-.0697,.163-.0992,.3302-.1898,.4945-.2864,.0715-.0421,.1507-.0723,.2248-.1095,.2807-.141-.3782,.1346-.0731,.0331,.4515-.1503,.8832-.2912,1.3613-.3115,.5173-.022,.9938,.0697,1.3221,.4545,.1178,.1381-.1383,.2656-.0361,.209l3.1172,.8174c-1.8287-2.7792-2.205-6.6125-.2096-9.4258,1.75-2.4674,4.635-4.1732,7.1942-5.6768,6.6901-3.9305,13.5385-7.6377,21.1296-9.4751,2.3421-.5669,4.7456-1.0466,7.1515-1.2322,.9123-.0704,1.8695-.12,2.7776,.0201,.4847,.0748,1.0125,.2083,1.4559,.4159,.122,.0571,.2528,.1377,.3658,.2108,.5898,.3817,.2343,.3058,.2675,.035l.3111-1.1499c.3726-.647,.2803,.0983-.1372-.3371-.3425-.3571-.6267-.4138-.7679-.9507-.3763-1.4307,.6461-3.0964,1.507-4.1534,1.8608-2.2848,4.7392-3.668,7.6875-3.6154,2.9989,.0535,5.947,1.5796,7.6915,4.0255,1.913,2.6823,2.735,6.3386,2.9638,9.5743,.4905,6.9357-4.3954,13.048-10.257,16.2083-2.8451,1.5339-6.0664,2.4879-9.2837,2.7997-3.9289,.3807-7.8689-.4284-11.7812,.1381-2.0133,.2915-4.0088,.971-5.5993,2.2739-1.438,1.1779-1.9159,2.7198-2.0859,4.5108-.4092,4.3109,0,8.6343,1.3296,12.762,.7813,2.4256,4.4178,2.0173,4.4754-.6057,.1307-5.9546-4.645-12.1484-10.7358-12.7199-3.3221-.3117-6.1496,1.551-8.0049,4.1746-2.4005,3.3945-2.3949,8.4253-1.0741,12.2372,1.4731,4.2514,4.9505,7.8766,9.527,8.5936-.5304-.9342-1.0609-1.8684-1.5913-2.8027-.6527,2.6416-1.2438,5.3081-1.9669,7.9314-.1733,.6286-.3854,1.633-.9442,2.055-.2061,.1556-.2999,.1458-.4663,.1353,.0856,.0054,.2872,.5292,.0095-.0969-.499-1.1249-2.1396-1.3892-3.1172-.8174-1.1591,.678-1.3183,1.988-.8174,3.1172,1.5414,3.4752,6.3548,2.6649,8.2616,.0867,1.0755-1.4542,1.4682-3.2406,1.8942-4.9648,.5136-2.0784,1.0271-4.1568,1.5407-6.2352,.2698-1.0919-.3468-2.6077-1.5913-2.8027-3.7163-.5822-6.0485-3.4972-6.7985-7.0634-.6349-3.019-.1969-7.0961,2.8691-8.6607,.8134-.4151,1.7429-.4545,2.559-.2536,1.0502,.2585,1.9693,.7646,2.8032,1.5046,1.9228,1.7061,3.1416,4.0875,3.0869,6.5817l4.4754-.6057c-1.1521-3.5768-1.5009-7.1476-1.2171-10.8861,.0792-1.0432,.0436-1.4734,1.0231-2.0471,1.3899-.814,3.0573-1.0237,4.6397-1.0602,3.55-.082,7.0073,.393,10.5558-.0726,3.4765-.4562,6.8345-1.4614,9.9533-3.0763,5.7017-2.9523,10.5943-8.2968,12.3411-14.5611,1.0047-3.6029,.5468-7.3548-.2778-10.9416-.7375-3.2079-2.0695-6.3515-4.4045-8.7307-4.577-4.6636-12.0571-5.5879-17.5986-2.1196-2.6571,1.663-4.9443,4.2454-5.8448,7.2893-.978,3.3057,.3041,7.2193,3.8637,8.2612,1.3776,.4032,2.8889,.2582,4.0968-.5435,1.7809-1.182,1.8797-3.4832,.5203-5.0487-2.0605-2.3729-5.5379-2.8032-8.49-2.5763-7.0221,.5396-14.0129,2.6424-20.3231,5.7263-2.7154,1.327-5.3482,2.8624-7.996,4.3208-2.7016,1.488-5.3488,3.0781-7.7438,5.0318-2.2607,1.8441-4.1238,4.1239-4.8763,6.9912-.9385,3.5762-.2909,7.5116,1.7389,10.5964,.6879,1.0454,1.9913,1.4413,3.1172,.8174,1.8319-1.0152,2.6088-3.18,2.1383-5.1818-.4753-2.022-2.2493-3.4685-4.2529-3.8365-2.5802-.474-5.3847,.448-7.2246,2.3182-3.0923,3.1433-3.1665,8.0912-2.6408,12.1838,.7137,5.5559,2.5244,10.8903,4.7032,16.0292,1.8422,4.3448,3.9642,8.6897,6.7324,12.5292,1.2739,1.7669,2.6438,3.492,4.683,4.4035,1.6061,.718,3.4367,.994,5.0898,.265,1.9594-.8641,2.7188-2.7955,2.839-4.8179,.1741-2.9292-4.3832-2.9191-4.5567,0Z"/></g><path d="M84.3923,421.4326c9.7581,.2323,19.1473-6.7443,19.1787-17.0635,.0179-5.9017-5.0773-13.0626-11.6819-9.7712-6.6405,3.3093-1.2681,10.7728,3.2507,13.0226,7.1861,3.5778,15.9414,3.6151,23.7857,4.0813,11.2335,.6677,22.3566,1.8567,33.6324,1.8846,12.6584,.0313,25.3171-.7684,37.8764-2.3445,5.914-.7422,11.8081-1.6447,17.666-2.7465,5.2293-.9836,10.3842-2.3942,15.6294-3.2662,3.5008-.582,7.3511-.9901,10.5338-2.6808,1.6142-.8575,2.696-2.2892,3.8963-3.6231,3.5281-3.921,6.8808-8.1607,10.6569-11.8434,2.0678-2.0167,5.6531-1.8183,6.7074,1.2035,.5698,1.6331-.0431,2.9744-.801,4.3673-1.2845,2.3606-2.5689,4.7212-3.8534,7.0818-.7842,1.4413,.1762,3.5228,1.9673,3.4283,14.2498-.7514,28.4996-1.5029,42.7493-2.2543,.8588-.0453,1.7391-.1522,2.5996-.1371,3.5568,.0626,4.868,5.1659,.8335,5.6549-2.8313,.3432-3.016,4.513,0,4.5567,3.5873,.052,4.2638,5.2218,.5393,5.6704-2.8325,.3411-3.0151,4.5131,0,4.5567,3.5873,.052,4.2638,5.2218,.5393,5.6704-2.8328,.3412-3.015,4.5108,0,4.5567,3.967,.0605,3.8854,5.1253,.1714,5.6898-1.3252,.2014-2.7473,.1449-4.0839,.2154-5.1798,.2731-10.3596,.5463-15.5395,.8194-3.2621,.172-6.8073-.012-10.0213,.6861-3.7126,.8064-6.9595,3.0957-10.3532,4.6843-4.6172,2.1613-9.6047,3.7425-14.4187,5.4078-39.7992,13.7672-82.6587,21.7848-124.8349,17.842-20.3343-1.9009-40.5677-6.8537-59.0524-15.6415-13.7625-6.5428-28.2735-16.8657-33.1479-32.0352-4.7227-14.6974,1.9957-29.9527,13.6854-39.1892,11.0869-8.7602,25.4156-12.9486,39.1491-15.2368,18.2557-3.0416,37.2492-2.6426,55.2843,1.4725,8.5773,1.9571,17.5738,3.4433,25.6805-.9648,5.0973-2.7717,8.1624-7.4724,8.8312-13.2005,1.441-12.3409-5.4497-24.0486-5.2109-36.3496,.3575-18.4171,24.0912-23.4416,37.9914-16.8358,11.3555,5.3965,16.565,18.5151,16.1194,30.5818-.1946,5.2702-1.6466,10.891-5.3986,14.7812-2.0309,2.1058-4.2968,2.8871-6.8526,4.0958-2.2601,1.0688-2.1944,3.5174-1.7823,5.6624,.8575,4.4627,2.9097,10.661,7.6964,12.0875,6.1352,1.8284,13.2354,.3511,19.4808-.0618,9.2715-.613,19.3977-.1428,28.3983,2.2192,5.0033,1.313,9.8601,3.25,14.7896,4.8174,4.7856,1.5216,9.6047,2.9374,14.4609,4.2166,41.5765,10.952,85.5356,12.813,127.9532,5.9998,9.589-1.5402,18.6888-3.7922,27.5551-7.8314,8.7398-3.9816,16.8861-9.1683,24.6231-14.8318,3.7239-2.7259,7.571-5.4503,10.8301-8.7333,3.0452-3.0676,5.6223-6.5767,7.9705-10.1953,2.4048-3.7058,4.593-7.5475,7.029-11.2336,1.0882-1.6468,2.2816-4.0663,4.0301-5.0725,2.043-1.1757,4.7171-.2725,5.6125,1.9138,.8608,2.1017-.4715,4.2052-1.2874,6.0796-.7823,1.7972-1.5646,3.5944-2.3469,5.3916-.8385,1.9262,.5289,3.6359,2.573,3.3469,7.9192-1.1197,15.8383-2.2393,23.7575-3.359,2.8011-.396,5.865-1.237,8.7103-1.1202,5.0945,.2092,6.0006,4.6245,6.5275,8.6159,1.2172,9.2209,2.4343,18.4418,3.6515,27.6627,.1118,.847,.2576,1.6969,.3208,2.5496,.2767,3.7379-2.1479,6.4826-5.757,7.1207-3.0752,.5437-6.2032,.877-9.2948,1.3141-5.6354,.7968-11.2709,1.5935-16.9063,2.3903-1.5066,.213-3.0647,.5703-4.5858,.6484-3.8802,.199-4.7519-4.8278-.7798-5.6677,2.4847-.5254,1.9703-4.6645-.6057-4.4754-3.9851,.2926-4.8108-4.8261-.828-5.6651,2.4854-.5236,1.9698-4.6644-.6057-4.4754-3.9851,.2926-4.8108-4.8261-.828-5.6651,2.4859-.5237,1.9696-4.6625-.6057-4.4754-3.5913,.2609-4.9518-4.306-1.3311-5.5475,.5997-.2056,1.3313-.2347,1.9546-.3228,3.1016-.4385,6.2032-.877,9.3048-1.3156,5.7423-.8119,11.4846-1.6237,17.2269-2.4356,2.8917-.4088,1.6614-4.8001-1.2114-4.394-7.4536,1.0538-14.9071,2.1076-22.3607,3.1615-2.9461,.4165-6.5359,.4064-8.928,2.4008-5.5584,4.6341-1.7757,13.5273,5.3448,13.01l-.6057-4.4754c-8.9548,1.8865-7.1134,15.2878,2.0394,14.6159l-.6057-4.4754c-8.9548,1.8865-7.1134,15.2878,2.0394,14.6159l-.6057-4.4754c-3.9332,.8317-6.7757,4.6191-5.9304,8.6846,.8496,4.0865,4.7809,6.3154,8.7437,5.8261,3.5223-.4349,7.0337-.9945,10.5476-1.4913,5.604-.7923,11.2079-1.5846,16.8119-2.3769,5.0312-.7113,9.8172-1.7429,12.074-7.0395,1.6078-3.7734,.4539-8.0985-.0616-12.0038-.7714-5.8441-1.5428-11.6881-2.3143-17.5322-.4724-3.5789-.5425-7.5851-1.578-11.0692-1.853-6.2346-7.7778-8.265-13.6373-7.4366-10.0998,1.428-20.1996,2.8559-30.2993,4.2839l2.573,3.3469c1.6289-3.7422,4.7287-8.5004,4.5127-12.6996-.1945-3.78-2.8928-7.0193-6.5866-7.8697-4.3282-.9965-7.497,1.5236-9.8574,4.8209-5.4335,7.59-9.3643,16.299-15.9366,23.0388-3.4785,3.5672-7.6282,6.4845-11.6633,9.3833-4.1503,2.9815-8.413,5.8106-12.8265,8.3886-8.5746,5.0085-17.7577,9.0423-27.505,11.0996-11.3463,2.3948-22.9906,3.7466-34.5451,4.615-22.7071,1.7065-45.6433,.939-68.1709-2.4054-11.1233-1.6513-22.1689-3.8935-33.0343-6.7959-5.1566-1.3774-10.2701-2.9097-15.348-4.5527-5.0901-1.6469-10.1058-3.6677-15.3446-4.7971-9.1182-1.9657-19.0716-2.4521-28.3687-1.7402-3.6051,.2761-7.2074,.6512-10.8257,.6984-2.1163,.0276-5.9025,.3579-7.5154-1.1795-1.7065-1.6266-2.6597-5.3804-3.1714-7.5874-.0782-.3372-.0709-1.2238-.242-1.5143-.9225-1.567,.0095-.3138,.0126-.3098,.7501,.9778-1.3235,.7607-.0138,.6191,1.3659-.1476,3.1191-1.3333,4.2447-2.0789,4.7614-3.1542,7.7617-8.2182,9.0993-13.7,2.8691-11.7591-.4301-25.8602-8.4684-34.9507-11.022-12.4648-32.4811-13.351-45.2648-3.2618-12.5754,9.9248-8.0629,25.3243-4.9985,38.6226,1.2848,5.5757,2.9252,12.0131,1.0782,17.648-2.4556,7.4919-11.4919,9.5631-18.4548,9.0069-5.249-.4193-10.3372-1.9748-15.4802-3.0134-5.1712-1.0444-10.4777-1.5497-15.7361-1.9078-9.6537-.6574-19.3618-.4538-28.9708,.6953-27.3056,3.2654-63.5178,15.8034-64.932,48.5647-.7264,16.8274,10.7635,30.6566,23.8685,39.7631,16.0532,11.1551,35.9943,17.4142,55.0286,21.0319,43.1567,8.2023,88.0622,2.1068,129.8094-10.2724,10.1555-3.0114,20.5514-6.1708,30.2489-10.469,3.4851-1.5447,6.9029-4.2624,10.7659-4.7276,1.1017-.1327,2.2422-.1182,3.3495-.1766l15.9803-.8427c3.3939-.179,7.6741,.2463,10.9419-.9149,7.9651-2.8304,5.5329-14.2116-2.6259-14.336v4.5567c4.0098-.4829,7.2423-3.4001,7.1223-7.6616-.1172-4.1639-3.6766-7.0645-7.6616-7.1223v4.5567c4.0098-.4829,7.2423-3.4001,7.1223-7.6616-.1172-4.1639-3.6766-7.0645-7.6616-7.1223v4.5567c3.6842-.4465,6.6945-2.8332,7.0728-6.7088,.3452-3.5367-2.0829-6.8575-5.4952-7.785-2.4768-.6732-5.4723-.1132-7.9853,.0193-10.3137,.5439-20.6274,1.0878-30.9411,1.6316-2.9445,.1553-5.8891,.3106-8.8336,.4658,.6558,1.1428,1.3115,2.2855,1.9673,3.4283,1.9988-3.6734,5.6169-8.2702,5.5143-12.6318-.1856-7.8887-9.7777-10.6784-14.9159-5.3297-3.2647,3.3986-6.3212,7.025-9.4734,10.5281-.9881,1.0982-1.9299,2.4018-3.0416,3.3803-2.1802,1.9188-6.156,2.1486-8.9112,2.6129-9.7457,1.6426-19.3102,4.0924-29.1141,5.4958-11.6203,1.6634-23.357,2.608-35.0921,2.868-11.6773,.2587-23.3625-.1905-34.9847-1.352-7.3503-.7346-14.8469-.5687-22.0839-2.2089-3.0374-.6884-7.7774-1.8701-9.1416-5.1246-.7404-1.7663,1.184-2.1218,2.5868-1.6265,3.8927,1.3744,3.1142,7.4614,1.8801,10.3351-2.3286,5.4222-7.9683,8.0297-13.6349,7.8948-2.9334-.0698-2.9322,4.487,0,4.5567h0Z"/><path d="M521.7269,387.7746c-10.7607,8.041-22.4687,14.7547-34.6264,20.4422-12.95,6.0581-26.4424,10.9315-40.1676,14.9125-14.1254,4.0971-28.5263,7.2389-43.0535,9.5237-14.2325,2.2384-28.605,3.623-43.0032,4.1435-13.6347,.493-27.3135,.2106-40.8986-1.089-1.5672-.1499-3.1329-.3147-4.6972-.4921-1.2246-.1388-2.2784,1.1465-2.2784,2.2784,0,1.347,1.0502,2.1392,2.2784,2.2784,13.4675,1.5266,27.0434,2.0201,40.5905,1.7261,14.6161-.3172,29.2021-1.5697,43.6752-3.6223,14.6957-2.0841,29.2756-5.0377,43.5963-8.9451,14.0689-3.8387,27.8843-8.6162,41.2328-14.4978,12.4531-5.4871,24.5049-11.985,35.6465-19.8181,1.3494-.9487,2.6838-1.9183,4.0052-2.9057,.9841-.7354,1.4883-1.9702,.8174-3.1172-.5674-.9701-2.1258-1.5583-3.1172-.8174h0Z"/><path d="M143.3169,389.0517c-6.1545,26.6003-9.7217,54.0003-8.4751,81.3371,1.1875,26.0416,6.8869,51.8316,18.1248,75.4211,12.3443,25.9118,31.2361,47.0558,52.2317,66.3003,21.4509,19.6618,43.2934,38.7178,62.6784,60.4985,9.8642,11.0833,19.1267,22.7023,27.5138,34.9459,8.0761,11.7895,14.8702,24.3584,20.8402,37.3312,6.0927,13.2393,11.3587,26.8379,16.4984,40.4693,2.5751,6.8294,5.1161,13.6715,7.7053,20.4956,2.4406,6.4326,4.7498,12.9812,7.6475,19.2263,2.4208,5.2174,5.7905,10.6331,11.3433,12.8977,5.1655,2.1066,10.9635,.871,16.1591-.5199,7.8101-2.0908,15.3962-5.1139,22.7568-8.4327,8.8902-4.0085,17.5581-8.6597,25.5422-14.2771,7.1055-4.9992,14.1159-10.8715,18.6563-18.395,4.2484-7.0396,5.2283-15.1027,1.5348-22.6131-2.5509-5.1871-7.0218-9.4498-12.125-12.1023-5.7255-2.976-13.1848-2.61-17.5879-7.7394-4.3374-5.0529-7.5669-11.4581-10.6434-17.3266-3.2229-6.1478-6.1315-12.4553-8.9183-18.8109-5.6235-12.8249-10.7317-25.8824-16.8088-38.5053-6.4723-13.4441-14.0883-26.4045-21.6957-39.2307-7.8655-13.2614-16.0983-26.3067-24.7466-39.072-8.5252-12.5836-17.3482-25.0074-26.4858-37.154-4.4769-5.9511-9.0671-11.8207-13.8694-17.5135-4.0666-4.8207-8.5332-9.2987-12.5223-14.1787-6.3751-7.7989-12.5744-17.7839-21.9707-22.2653-4.0062-1.9107-9.6424-2.9076-13.0988,.6189-4.4263,4.516-1.2216,11.0702,3.2612,14.0711,5.8086,3.8885,13.3414,2.8777,19.7776,1.5398,7.5313-1.5656,14.9203-3.7307,22.294-5.9031,13.9367-4.1059,28.0878-8.404,42.746-8.4743,13.2296-.0634,26.6528,3.486,36.8401,12.2495,9.3178,8.0156,15.4979,19.2752,18.6874,31.0441,3.4112,12.587,3.2355,25.8099-.4831,38.3073-3.5965,12.0871-10.3239,23.0145-18.4509,32.5772-8.1604,9.6019-17.6488,17.9262-27.4035,25.859-11.9721,9.736-24.3795,18.9346-37.1762,27.5584-9.5235,6.418-19.0942,12.4444-29.4022,17.4981-8.3947,4.1157-16.9906,8.4063-23.8236,14.9205-3.2309,3.0802-6.0052,6.7125-7.7998,10.8152-2.226,5.0889-2.5757,10.268-2.4405,15.7577,.0771,3.1321,.3314,6.7296-1.3118,9.5391-1.4054,2.4031-3.9979,3.1393-6.6435,2.8312-6.198-.7219-11.677-5.8407-15.7519-10.176-9.5826-10.195-16.9305-22.9829-23.2872-35.3658-3.3973-6.6179-6.4678-13.4031-9.1831-20.3289-1.3771-3.5126-2.7074-7.0561-3.8692-10.6464-1.1209-3.4642-2.1426-7.1769-1.7186-10.8506,.4151-3.5969,2.6073-6.2448,4.8546-8.9169,2.4576-2.9221,4.9169-5.8429,7.3754-8.7643,5.1061-6.0676,10.2121-12.1352,15.3182-18.2027,1.8767-2.2301-1.3308-5.4696-3.2221-3.2221-5.2006,6.1799-10.4012,12.3599-15.6018,18.5398-2.553,3.0338-5.1125,6.0622-7.6591,9.1014-2.0256,2.4173-3.9665,4.8746-4.949,7.9186-2.2371,6.9314,.7091,14.4601,3.0711,20.9467,2.46,6.7557,5.2286,13.4047,8.2939,19.9083,6.0589,12.855,13.2673,25.384,21.9413,36.6639,4.0155,5.2218,8.5011,10.1489,13.9977,13.8474,4.3907,2.9543,10.1548,5.3929,15.4721,3.5609,6.185-2.131,7.5058-8.7224,7.4646-14.5252-.0383-5.4029-.2869-10.5129,1.9022-15.5857,3.6527-8.4645,11.6679-14.0712,19.4356-18.4466,7.7035-4.3392,15.9568-7.6474,23.48-12.3087,12.8485-7.9607,25.3385-16.4986,37.4353-25.5605,20.5605-15.4021,42.135-32.0241,55.4885-54.4328,6.4512-10.8259,10.6295-22.9737,11.5169-35.5803,.8809-12.515-1.6574-25.2486-6.9312-36.6067-5.0846-10.9508-13.0595-20.6581-23.6039-26.7144-11.3396-6.5129-24.6789-8.4788-37.5888-7.5407-14.6336,1.0633-28.666,5.6467-42.6686,9.7122-7.3142,2.1236-14.8303,4.47-22.4102,5.412-3.49,.4337-7.3286,.4411-10.5356-1.196-2.1611-1.1032-4.8764-3.5684-4.2488-6.3067,1.1818-5.1565,9.3178-.8634,11.6113,.7602,4.289,3.0363,7.7909,7.2212,11.0942,11.2616,3.1707,3.8782,6.1204,7.9629,9.5128,11.6546,4.8469,5.2744,9.5735,10.6239,14.0762,16.198,9.4614,11.7126,18.1612,24.0171,26.8527,36.3039,8.8223,12.4717,17.2432,25.2222,25.2801,38.2138,8.0387,12.9944,15.6989,26.2217,23.0304,39.6274,6.6616,12.1806,12.1749,24.8503,17.5725,37.6289,5.3588,12.6869,10.6999,25.4448,17.4967,37.4466,3.0817,5.4417,6.4283,12.2622,11.6831,15.9182,2.7031,1.8806,5.9333,2.5561,9.0745,3.3266,2.929,.7184,5.6591,1.7564,8.2224,3.3622,7.8796,4.9364,12.3944,14.0759,9.1331,23.0512-2.7386,7.5367-9.2823,13.5456-15.446,18.3481-7.601,5.9224-16.0998,10.7281-24.7596,14.9121-7.5588,3.6521-15.38,6.8678-23.4244,9.2888-4.2831,1.289-9.0912,2.8077-13.5738,2.1286-6.3169-.9571-9.5914-7.3106-11.939-12.5788-5.7869-12.9864-10.2791-26.6306-15.3092-39.9225-10.0523-26.5631-20.8284-53.1094-36.9542-76.655-16.3633-23.8924-35.9391-45.3812-56.8626-65.3363-21.0627-20.0878-44.3301-38.1436-62.8747-60.726-16.8737-20.5478-28.7419-44.7551-34.9224-70.5967-6.1361-25.6559-6.7095-52.3552-3.8636-78.4997,1.4594-13.4075,3.8699-26.6973,6.9091-39.833,.6602-2.8537-3.7322-4.0718-4.394-1.2114h0Z"/><path d="M616.2662,316.9908c2.1726-2.2713,4.3451-4.5426,6.5177-6.8139,.8244-.8619,.9205-2.3771,0-3.2221-.8929-.8196-2.342-.9201-3.2221,0-2.1726,2.2713-4.3451,4.5426-6.5177,6.8139-.8244,.8619-.9205,2.3771,0,3.2221,.8929,.8196,2.342,.9201,3.2221,0h0Z" style="fill:#f4d13b;"/><path d="M619.0859,330.612c2.5051,.7289,5.1105,1.1435,7.7159,1.2664,1.1922,.0562,2.3317-1.0881,2.2784-2.2784-.0574-1.2825-1.0012-2.2181-2.2784-2.2784-.9084-.0429-1.8133-.1249-2.7146-.2459l.6057,.0814c-1.4868-.2064-2.9543-.5198-4.3956-.9391-1.1439-.3328-2.5321,.4035-2.8027,1.5913-.2776,1.2187,.3663,2.4462,1.5913,2.8027h0Z" style="fill:#f4d13b;"/><path d="M601.119,303.8256l.5925,7.4065c.049,.6124,.2211,1.1648,.6673,1.6111,.3952,.3952,1.0435,.6927,1.6111,.6673,1.153-.0516,2.3802-1.0061,2.2784-2.2784-.1975-2.4688-.395-4.9376-.5925-7.4065-.049-.6124-.2211-1.1648-.6673-1.6111-.3952-.3952-1.0435-.6927-1.6111-.6673-1.153,.0516-2.3802,1.0061-2.2784,2.2784h0Z" style="fill:#f4d13b;"/><path d="M385.2495,735.8956c-5.6813,3.1227-8.2959,10.2656-6.728,16.4392,1.6478,6.4881,8.1121,10.4106,14.6376,9.8133,3.6968-.3384,7.2884-1.8782,9.6847-4.7886,.703-.8539,.8257-1.7643,.3563-2.761-1.4963-3.1767-5.3328-3.3566-8.1268-1.9535-3.0677,1.5406-4.609,4.9094-3.6248,8.2168,1.1343,3.8115,4.6544,6.2386,8.2108,7.5625,3.8474,1.4322,8.1625,1.4287,11.7163,3.64,2.4969,1.5537,4.7873-2.3869,2.2999-3.9346-2.8741-1.7883-6.1655-2.405-9.4141-3.1501-2.6699-.6124-5.373-1.4171-7.3043-3.4791-.7099-.7579-1.2185-1.6986-1.2818-2.7469-.0172-.2848,.0264-.4971,.1516-.7702,.2017-.44,.3331-.5559,.7427-.906,.2218-.1896,.5962-.4322,1.0318-.6063-.3018,.1206,.4096-.1015,.3925-.0974,.4618-.1104-.1638-.0005,.3354-.0586,.099-.0115,.7349,.0508,.2945-.0142,.0574,.0085,.5804,.1841,.3453,.0911-.0073-.0029,.0495,.0488,.0684,.0791,.0246,.0395,.0808,.1149,.228,.4275,.1188-.9203,.2375-1.8407,.3563-2.761-3.6585,4.4434-11.4912,4.8821-15.191,.1772-3.5129-4.4672-1.7517-11.8074,3.1187-14.4843,2.5706-1.4129,.2741-5.3494-2.2999-3.9346h0Z"/><path d="M252.3063,699.1937c-3.0613-5.571-11.0622-10.7137-17.058-6.1517-4.2909,3.2648-5.5213,11.0235-.2002,13.9732,1.9564,1.0846,4.3149-1.1198,3.1172-3.1172-1.8609-3.1036-5.7261-3.8931-8.977-2.6535-3.4457,1.314-5.8074,4.3798-5.1126,8.1567,.2228,1.2109,1.6902,1.897,2.8027,1.5913,1.2725-.3497,1.8147-1.5883,1.5913-2.8027,.0632,.3437-.0078-.3461-.0029-.4456,.0112-.1678,.0068-.1511-.0134,.05,.0207-.1087,.0475-.2159,.0802-.3215,.1925-.4783-.0312-.0149,.1563-.3661,.0377-.0706,.3946-.5678,.1563-.2687,.4958-.6221,1.2412-1.0865,1.7764-1.2835,.2233-.0822,.4515-.1497,.6823-.2074,.0892-.0223,.8265-.1358,.4381-.0969,.2308-.0231,.4624-.0226,.6941-.0232,.0982-.0003,.7217,.0946,.2963,.0138,.8578,.1629,1.0996,.2939,1.4974,.9572,1.0391-1.0391,2.0782-2.0782,3.1172-3.1172-.5906-.3274-.91-.6672-1.1105-1.1917-.1835-.4802-.2676-1.1239-.1381-2.0021-.0352,.2388,.032-.0873,.046-.1483,.0578-.2518,.125-.5002,.205-.7459,.0862-.2646,.1835-.4982,.4005-.8803,.3443-.6065,.877-1.2203,1.3426-1.5321,1.4074-.9424,3.5815-.7789,5.2763,.0041,2.1818,1.008,3.8593,2.83,5.0019,4.9093,1.4126,2.5707,5.3491,.2742,3.9346-2.2999h0Z"/><polygon points="674.9933 208.9924 630.4385 180.133 642.0835 163.4249 674.9933 208.9924" style="fill:#f4d13b;"/><polygon points="665.1204 218.8653 630.1853 214.8149 630.6916 228.9914 665.1204 218.8653" style="fill:#f4d13b;"/><polygon points="693.9798 194.5627 688.4104 163.1718 701.068 163.1718 693.9798 194.5627" style="fill:#f4d13b;"/><path d="M901.1984,473.2918c9.0208-3.2558,17.6483-7.6256,25.7075-12.8155,8.4095-5.4155,16.3684-11.7591,23.0451-19.2326,3.5158-3.9354,6.6987-8.2022,9.2471-12.8296,1.4155-2.5704-2.5181-4.872-3.9346-2.2999-4.4199,8.0258-10.7241,14.8441-17.6443,20.7833-7.2877,6.2545-15.4105,11.5579-23.9338,15.9687-4.4366,2.296-8.9987,4.3354-13.6983,6.0316-1.1569,.4175-1.9355,1.5502-1.5913,2.8027,.307,1.1173,1.6397,2.0111,2.8027,1.5913h0Z" style="fill:#f953b2;"/><path d="M941.2697,469.6477c2.5183-2.3084,5.0366-4.6169,7.5549-6.9253,.8809-.8075,.8798-2.4144,0-3.2221-.9421-.8648-2.2825-.8613-3.2221,0-2.5183,2.3084-5.0366,4.6169-7.5549,6.9253-.8809,.8075-.8798,2.4144,0,3.2221,.9421,.8648,2.2825,.8613,3.2221,0h0Z" style="fill:#f953b2;"/><path d="M202.9531,334.1531c1.0487,.5479,2.1812,.853,3.3646,.8975,1.1908,.0447,2.3243-.2339,3.409-.7007,.3249-.1398,.6088-.5838,.698-.9078,.1001-.3636,.0549-.8477-.1531-1.1704-.2091-.3243-.5205-.6098-.9078-.698-.425-.0968-.7739-.0175-1.1704,.1531,.0504-.0217,.3132-.1235,.1202-.0531-.0685,.025-.1365,.051-.2054,.0746-.124,.0425-.2494,.081-.376,.1151-.2535,.0683-.511,.1177-.7709,.1542l.4038-.0543c-.5523,.0695-1.1052,.0681-1.6572-.0036l.4038,.0543c-.3323-.048-.6598-.1181-.9805-.2178-.1375-.0427-.3331-.0793-.4528-.161l.2017,.0854c-.0534-.0234-.1064-.0476-.1591-.0726-.0791-.0375-.1569-.0774-.2344-.1179-.7037-.3677-1.6826-.2037-2.0782,.5449-.3695,.6993-.207,1.6853,.5449,2.0782h0Z"/></svg>