<?xml version="1.0" encoding="UTF-8"?><svg id="Layer_2" xmlns="http://www.w3.org/2000/svg" width="1000" height="1000" viewBox="0 0 1000 1000"><g><path d="M447.0527,281.0275l71.1153-28.2932v-68.6334s-71.1153-28.2932-71.1153-28.2932c-7.2582-2.8877-15.1402,2.4594-15.1402,10.2709v104.6779c0,7.8115,7.882,13.1586,15.1402,10.2709Z" style="fill:#6966ed;"/><rect x="499.4939" y="141.8683" width="202.9307" height="153.2987" rx="42.4792" ry="42.4792" style="fill:#f4d13b;"/><circle cx="550.6131" cy="86.3412" r="55.5271" style="fill:#f4d13b;"/><circle cx="550.6131" cy="86.3412" r="55.5271" style="fill:#f953b2;"/><circle cx="550.6131" cy="86.3412" r="20.3889" style="fill:#fff;"/><circle cx="654.0756" cy="93.9328" r="47.9355" style="fill:#f953b2;"/><circle cx="654.0756" cy="93.9328" r="16.7015" style="fill:#fff;"/><path d="M586.2604,255.0392l44.9549-29.1783c5.6749-3.6833,5.6749-11.3666,0-15.05l-44.9549-29.1783c-6.7096-4.3549-16.0142,.0172-16.0142,7.525v58.3565c0,7.5077,9.3046,11.8799,16.0142,7.525Z" style="fill:#fff;"/></g><path d="M821.5378,172.7406c.0938,.4177,.1667,.8174,.0448,1.2074-.0184,.059-.0507,.1434-.0926,.1932-.0335,.0398-.3082,.3409-.4528,.4603,.0744-.0614-.3294,.211-.4396,.2736-.1528,.0868-.3945,.2111-.5039,.2568-.467,.1951-1.1217,.3578-1.6745,.4709-2.3369,.478-4.8202,.3409-7.1895,.8773-2.5771,.5835-5.0211,2.249-5.2094,5.1034-.1805,2.7365,2.5159,4.5687,4.6223,5.7426,2.4704,1.3769,5.2015,2.1297,8.0184,2.2998,1.1187,.0676,2.0729-1.0011,2.0729-2.0729,0-1.1785-.9509-2.0052-2.0729-2.0729-2.5553-.1543-5.0866-1.0564-7.2564-2.5635-.3734-.2594-.8671-.7482-1.1241-.919,.2004,.1331-.3184-.3937-.1208-.0624-.0736-.1235,.0525-.3612,.0308-.3247,.2334-.3933,.4742-.5802,1.0109-.8141,.3044-.1326,1.1504-.3324,1.665-.4279,2.7397-.5088,5.6655-.2453,8.3444-1.2471,1.4662-.5483,2.7975-1.3679,3.703-2.674,.9993-1.4414,.9917-3.1606,.6217-4.809-.2453-1.0927-1.5077-1.7343-2.55-1.4478-1.1244,.309-1.6939,1.454-1.4478,2.55h0Z"/><path d="M684.2908,134.3106c-2.8286,4.1928-5.4111,8.7486-8.566,12.6973-3.2526,4.0709-10.5709,2.1459-9.1506-3.7512,.4555-1.8911,2.073-3.8396,3.0523-5.4503,2.8644-4.7115,5.5861-9.5498,8.6092-14.161,2.5923-3.9541,6.5189-6.6568,11.3093-7.0756,3.8061-.3327,9.2576-.5851,9.6309,4.5026,.2932,3.9963,5.9251,4.0038,6.2188,0,.4282-5.8359,8.6611-5.8535,9.0906,0,.2932,3.9963,5.9251,4.0038,6.2188,0,.4282-5.8359,8.6611-5.8535,9.0906,0,.2934,3.9982,5.9188,4.0017,6.2188,0,.4544-6.0611,8.4309-5.5777,9.0906,.1835,.081,.7073,0,1.4728,0,2.1823v13.3238c0,7.9637,0,15.9273,0,23.891,0,3.0183,4.3033,4.3201,5.7943,1.5694l3.7776-6.9691c1.2268-2.2633,2.4652-5.8855,4.9951-6.9542,4.6908-1.9816,7.4708,3.0787,5.9081,6.9422-.8159,2.0171-1.9133,3.9658-2.8585,5.925-4.9549,10.2702-9.8404,20.5772-14.8727,30.8097-21.9591,44.6512-47.2329,91.1138-50.5062,141.7791-1.3902,21.5179,2.0071,49.3871,24.9201,58.7418,20.5799,8.4022,45.9676-3.802,62.8998-15.2993,18.8542-12.8023,33.8075-30.6004,44.5043-50.6325,8.5529-16.0171,16.3436-36.0667,36.631-39.2077,13.9682-2.1626,28.156,2.3555,35.7815,14.6834,7.302,11.8049,8.8327,26.6151,9.1602,40.1915,.3655,15.1492-1.1088,30.2924-2.9601,45.3098-2.138,17.3431-4.0167,34.767-7.2535,51.944-9.0916,48.248-27.3293,94.0486-51.858,136.4784-26.3433,45.5688-59.5571,86.0753-91.9261,127.379-16.8421,21.4909-33.2858,43.3777-47.5039,66.7186-14.2267,23.3551-25.5301,48.2288-35.6309,73.6036-10.3278,25.9451-19.4911,52.3384-29.9727,78.2235-4.7166,11.648-9.3168,23.978-17.1055,33.9939-7.5737,9.7394-18.4309,15.6341-30.7374,16.6225-22.9112,1.84-46.0725-9.0276-66.3361-18.4572-18.6104-8.6603-38.447-20.0639-51.4718-36.286-3.2752-4.0791-6.4283-9.0043-7.3161-14.2396-1.1356-6.697,3.3234-11.7491,8.875-14.7032,10.5724-5.6255,23.2682-3.8618,32.5899-12.4624,9.1169-8.4116,13.5442-21.7624,18.9973-32.5878,6.4407-12.786,13.0721-25.4794,19.1801-38.4301,25.2097-53.452,50.3685-106.7747,78.0058-159.0389,13.8493-26.19,28.1581-52.1297,42.8075-77.8802,6.4058-11.2601,14.1156-22.3537,18.7709-34.4794,1.9892-5.1812,3.5828-10.5197,5.737-15.6373,1.8477-4.3895,4.458-9.6429,9.3662-11.1913,3.8917-1.2278,6.1551,1.2917,5.2531,5.1324-1.4656,6.2398-7.3661,10.3313-12.4934,13.4335-12.1488,7.3505-24.3337,14.6022-36.2696,22.3006-21.693,13.9914-44.2613,28.0833-62.6225,46.4057-30.9489,30.8834-54.1427,76.0288-43.3617,120.5892,4.6899,19.3843,15.5908,37.3665,30.8664,50.2238,13.8253,11.6366,30.6511,19.105,48.1899,23.1151,36.1348,8.262,75.5462,3.7797,110.2045-8.6694,10.6093-3.8108,20.7618-8.7437,31.3747-12.5577,13.4135-4.8203,27.3667-8.5914,41.6056-9.8133,10.7787-.925,19.5418,1.1336,28.4745,7.2187,7.6786,5.2308,14.7988,10.985,23.7681,13.9187,9.2743,3.0335,20.6058,3.3034,24.8012-7.249,4.1205-10.364,2.4356-22.8899,.5389-33.5436-2.1916-12.3099-5.642-24.3941-8.4618-36.5696-3.3134-14.3067-6.7234-28.5957-10.6395-42.7513-2.6659-9.6365-4.7084-23.0371-12.787-29.9363-3.501-2.9899-7.8862-3.9559-12.3847-3.3524-5.7229,.7677-11.4344,4.3063-17.2926,3.108-3.9066-.7991-5.5776,5.1939-1.6532,5.9967,5.5996,1.1454,10.5151-.564,15.8662-2.0725,6.4531-1.8192,11.2683-.8113,14.7069,5.2496,3.0865,5.4403,4.4959,11.9029,6.1999,17.8657,2.0549,7.1907,3.9659,14.4217,5.7893,21.6743,3.4133,13.5761,6.364,27.2621,9.7622,40.8407,3.0439,12.1629,6.3805,24.5607,6.5176,37.1795,.0571,5.2538,.1793,14.5097-4.6737,17.9072-4.3785,3.0653-11.1941,.906-15.7348-.7198-9.0187-3.2291-16.0006-9.8175-24.0293-14.771-8.9282-5.5084-18.3978-7.1023-28.7682-6.2124-14.0152,1.2027-27.7378,4.62-40.9979,9.2367-11.101,3.865-21.6724,8.9966-32.7036,13.0191-8.6571,3.1568-17.53,5.7195-26.5221,7.7286-18.858,4.2134-38.3317,5.9967-57.6298,4.6982-38.5799-2.5958-76.2116-19.7522-92.9244-56.4705-20.4024-44.8246,1.7805-94.6164,33.5886-127.7248,18.3466-19.0966,41.2678-33.4586,63.3848-47.7496,12.1585-7.8563,24.5738-15.2515,36.9558-22.7431,7.6106-4.6047,18.2395-13.2804,15.4857-23.5763-2.1708-8.1161-11.8185-8.1808-17.6001-4.0607-8.1506,5.8085-10.6117,17.1485-13.8249,26.0245-4.5924,12.6862-12.5539,24.1585-19.203,35.8461-7.6326,13.4165-15.1847,26.879-22.6181,40.407-28.7673,52.353-55.7901,105.6768-81.183,159.7454-6.3146,13.4455-12.3244,27.04-18.7567,40.4289-6.3177,13.1503-13.1075,26.0656-19.6178,39.1201-5.6176,11.2645-10.4003,26.5629-23.2342,31.4394-10.6407,4.0432-22.9255,3.3581-31.1244,12.5075-15.8497,17.687,9.2602,40.0552,22.4704,49.9724,17.29,12.98,36.9902,22.2223,57.0091,30.1503,20.7318,8.2103,45.7527,15.183,66.8323,4.2122,10.5142-5.4721,17.8943-14.9945,23.3279-25.3007,6.0761-11.5248,10.6634-23.9325,15.3887-36.0521,10.2381-26.2592,19.5059-52.8976,30.3717-78.9109,10.9085-26.1156,23.8406-51.1209,39.4886-74.7211,30.5228-46.0345,68.0093-86.9214,99.7226-132.1011,28.3547-40.395,52.6674-83.8167,68.4796-130.7045,12.8902-38.2232,18.6011-77.957,22.8417-117.9237,1.644-15.4945,2.6913-31.2465,1.1152-46.7918-1.3506-13.3214-4.5593-27.4295-13.6701-37.7225-9.7856-11.0553-25.519-14.155-39.5973-11.4746-19.7043,3.7515-28.8073,21.8324-37.1914,38.0264-10.7599,20.7829-25.2389,39.4514-44.829,52.6093-17.6293,11.8409-48.4564,26.6479-66.4425,7.9193-8.7422-9.1031-11.4408-21.8089-11.7377-34.024-.316-13.0001,1.3321-25.9586,4.1487-38.6329,5.7735-25.9807,16.0801-50.7584,27.3649-74.7713,7.4776-15.9116,15.5095-31.5532,23.1485-47.3867,3.1756-6.5821,6.3512-13.1642,9.5267-19.7463,1.9375-4.0159,5.2204-8.91,4.9737-13.517-.5133-9.589-12.776-13.8075-19.1338-6.6812-3.3781,3.7864-5.3959,9.294-7.7984,13.7261l5.7943,1.5694c0-10.9739,0-21.9478,0-32.9218,0-4.6891,.6548-9.8749-2.6946-13.6922-6.7387-7.6798-18.1265-2.3995-18.8337,7.0333h6.2188c-1.0154-13.8387-20.5127-13.8422-21.5283,0h6.2188c-1.0154-13.8387-20.5127-13.8422-21.5283,0h6.2188c-.7434-10.1323-10.7059-12.0892-19.0866-10.2753-8.0453,1.7414-12.2138,7.6889-16.1794,14.2117-3.0501,5.017-7.5568,10.3933-9.3636,16.0415-3.3017,10.3212,9.2766,18.9964,17.6992,12.0985,2.4347-1.9939,4.0921-5.1691,5.8302-7.7454,1.7887-2.6514,3.5774-5.3028,5.3662-7.9542,2.2443-3.3267-3.141-6.4424-5.3698-3.1388h0Z"/><path d="M683.8662,131.9012c0,10.8496,.0009,21.6992,0,32.5488l.4245-1.5694c-3.7235,7.4171-7.4066,14.8545-11.0342,22.319-1.3125,2.7006-2.5099,5.4738-3.9767,8.0951-2.0151,3.6013-3.9162,7.2678-5.7703,10.9541-8.5781,17.0544-16.0408,34.7098-22.3345,52.731-8.633,24.7196-15.0531,50.3539-17.5416,76.4598-2.3269,24.4101-.8483,49.5042,6.2923,73.0574,6.3287,20.8753,17.4493,40.9116,34.9082,54.4565,8.9722,6.9608,19.2889,11.995,30.2895,14.8275,13.1182,3.3778,27.1245,4.4649,40.6363,4.3283,27.0893-.2739,54.1155-6.7832,78.1014-19.4429,25.4012-13.4067,45.5574-34.1327,63.6053-56.1351,9.2102-11.2282,18.171-22.8767,26.1849-34.9967,1.2142-1.8364,2.3455-3.7324,3.4761-5.6206,6.6216-11.0586,12.5923-22.5324,17.8079-34.3194,6.9976-15.8142,12.9362-32.3991,15.2934-49.601,2.1472-15.6697,1.3467-33.0276-8.2896-46.278-2.3561-3.2397-5.072-6.1678-8.2048-8.6695-4.1542-3.3174-9.1654-5.3049-13.2768-8.7274-3.2029-2.6662-5.4285-5.1604-7.0726-8.9035,.2489,.5665-.1635-.434-.209-.5594-.1423-.3913-.2726-.7869-.3922-1.1857-.2512-.8379-.4521-1.6903-.6078-2.5509-.0329-.1818-.0609-.3641-.0925-.5461-.1523-.8782,.0416,.4052-.0232-.1374-.0499-.4176-.0922-.8359-.1252-1.2552-.0711-.903-.1018-1.8088-.1041-2.7145-.0213-8.3832,1.8555-16.685,2.2402-25.0549,.4089-8.8983,.1187-18.4384-3.9224-26.556-6.8349-13.7297-21.7503-22.7633-36.0188-26.9859-14.5279-4.2993-31.8236-4.2555-44.1127,5.6752-6.3435,5.1261-10.3038,12.6696-12.0123,20.5595-1.3332,6.1569-3.3053,12.1772-4.6751,18.3389-1.2286,5.5267-2.2113,11.1039-2.8888,16.7254-1.6367,13.581-1.7567,29.8559,6.7134,41.4442,5.7123,7.8152,14.3096,11.8184,23.7868,12.7801,6.6511,.6749,13.5215-.1377,19.9778-1.8039,1.0376-.2678,2.079-.5497,3.0908-.9053,3.7507-1.3184,2.1364-7.3287-1.6532-5.9967-1.0656,.3745-2.1635,.6692-3.2571,.948-1.2266,.3127-2.4632,.5862-3.7067,.823-.7248,.138-1.452,.2634-2.1811,.3757-.3278,.0505-1.7416,.2149-.4745,.0752-.4299,.0474-.8584,.1088-1.2885,.1561-3.6839,.4054-7.3805,.4365-11.0667,.0487-.252-.0265-1.1379-.1597-.0541,0-.2138-.0315-.4283-.0589-.6417-.0937-.5366-.0875-1.0723-.1772-1.6056-.2836-.9692-.1934-1.9308-.426-2.8798-.7021-.9639-.2804-1.8961-.63-2.8379-.9739-.7974-.2912,.5824,.2849-.188-.0767-.2038-.0957-.4113-.1837-.6152-.2793-.4875-.2284-.9684-.4707-1.4418-.727-.937-.5075-1.8443-1.0699-2.7135-1.6863-.1911-.1355-.3769-.2782-.5676-.4142-.3303-.2356,.5319,.4553-.1385-.1134-.4345-.3687-.8716-.7315-1.2896-1.1194-.8176-.7588-1.5855-1.5708-2.2998-2.4274-.1248-.1497-.8147-1.0463-.234-.273-.1566-.2086-.3137-.4167-.4662-.6284-.3709-.5148-.7239-1.0425-1.0598-1.5807-.6916-1.1083-1.3091-2.2624-1.8575-3.448-.1245-.2692-.2436-.5408-.3629-.8123,.3518,.8006-.141-.3603-.2035-.5217-.2557-.6606-.4923-1.3287-.7112-2.0024-.4831-1.4863-.879-3.0002-1.2034-4.5288-.3855-1.8162-.6107-3.3375-.7478-4.5772-.9642-8.7188-.228-17.6058,1.2051-26.2299,.9702-5.8385,2.2611-11.6216,3.7532-17.3478,.8322-3.1937,1.9629-6.367,2.5944-9.6018,.4183-2.1431,.9882-4.2586,1.7388-6.3098,.3871-1.0579,.4473-1.2075,.8872-2.1462,.4247-.9063,.8886-1.7941,1.3939-2.6581,1.0346-1.7691,1.8166-2.8505,2.935-4.1215,2.4805-2.8191,4.4853-4.3764,7.7516-6.1245,.753-.403,1.5224-.774,2.3039-1.1183,.0934-.0411,.5503-.2272,.0464-.0207,.1764-.0723,.3534-.1452,.5317-.2122,.4481-.1685,.8952-.3383,1.3481-.4939,1.6971-.583,3.4365-1.0393,5.1976-1.3819,1.9745-.3841,2.7611-.4807,4.9388-.6177,1.8309-.1152,3.6682-.1257,5.5008-.0453,14.2998,.6269,29.6297,7.006,39.7551,17.3909,2.5867,2.653,4.1632,4.6423,5.9991,7.9772,.3733,.678,.7182,1.3696,1.0466,2.0703,.0958,.2043,.1871,.4108,.2772,.6176-.048-.1102-.2218-.5507-.0003,.0035,.166,.4156,.326,.8335,.4746,1.2557,.5301,1.5065,.9351,3.0572,1.1953,4.6331,1.5858,9.6027,.662,19.423-.5084,29.0102-.8931,7.3156-2.0365,15.1629,.5994,22.2678,3.3758,9.0994,11.6182,14.9594,19.9014,19.3247,3.1157,1.642,6.0916,4.7259,8.5205,7.6962,.13,.159,.259,.3189,.3864,.4799,.6122,.7736-.179-.2433,.1697,.2215,.2751,.3667,.5442,.7377,.8069,1.1134,.5223,.747,1.0195,1.5118,1.4907,2.292,.9647,1.5973,1.818,3.2588,2.5687,4.9669,.2321,.5281-.2689-.6653,.1004,.233,.0769,.1869,.1521,.3746,.2263,.5625,.1486,.3766,.2923,.7552,.431,1.1355,.3485,.9554,.6657,1.9222,.9536,2.8976,.5251,1.7789,.9505,3.587,1.2881,5.4107,.3815,2.0607,.5008,2.9707,.6874,5.1228,.1727,1.9913,.2566,3.99,.2658,5.9886,.0394,8.5306-1.1306,16.1732-3.0722,24.4504-1.9759,8.4233-4.6622,16.6728-7.7659,24.7446-5.1139,13.2998-11.6148,26.5928-18.8072,39.2761-5.5813,9.8422-11.9153,18.9213-18.6649,28.0375-8.9707,12.1162-18.49,23.8397-28.7665,34.876-9.5191,10.2229-19.5753,20.0218-31.0752,28.011-21.7293,15.0958-47.3047,24.4198-73.5787,27.348-13.6052,1.5163-27.3832,1.4109-40.9696-.2533-11.7336-1.4372-23.1967-4.162-33.6205-9.8893-18.7557-10.3051-31.7459-28.246-39.3707-47.9267-8.483-21.8959-11.3025-45.7402-10.325-69.101,1.0983-26.249,6.8458-52.1813,14.8507-77.1389,6.1625-19.2134,13.7362-37.9839,22.5502-56.1332,2.3185-4.7742,4.7193-9.5113,7.2587-14.1722,3.4801-6.3876,6.4784-13.028,9.6973-19.5515,1.7859-3.6192,3.5835-7.2327,5.3913-10.841,.4103-.8188,.9739-1.6586,1.2175-2.5451,.2931-1.0664,.1112-2.4406,.1113-3.539,.0001-1.9213,.0002-3.8426,.0002-5.7638,.0001-8.0242-.0004-16.0483-.0004-24.0725,0-4.0015-6.2189-4.0082-6.2188,0h0Z"/><path d="M699.1757,120.8858v29.3826c0,4.0015,6.2188,4.0082,6.2188,0v-29.3826c0-4.0015-6.2188-4.0082-6.2188,0h0Z"/><path d="M714.4852,121.0373v29.3826c0,4.0015,6.2188,4.0082,6.2188,0v-29.3826c0-4.0015-6.2188-4.0082-6.2188,0h0Z"/><path d="M729.7947,121.1887v29.3826c0,4.0015,6.2188,4.0082,6.2188,0v-29.3826c0-4.0015-6.2188-4.0082-6.2188,0h0Z"/><g><path d="M833.4707,232.4512c-7.6261,.4553-19.0264-.9874-23.1676-1.0358,0,0,26.6259,25.9357,50.1425,5.8774,4.8416-5.5333,11.0666-13.8333,11.0666-13.8333,0,0-14.8708,7.6083-38.0415,8.9916Z"/><path d="M833.4707,229.3418c-7.7627,.4326-15.4286-.9112-23.1676-1.0358-2.6805-.0432-4.1206,3.4407-2.1987,5.3081,5.011,4.869,11.3245,8.6777,17.7535,11.3132,5.3774,2.2044,11.3178,3.4494,17.143,2.9962,7.0748-.5505,14.2469-3.4342,19.4858-8.299,1.4344-1.3319,2.6346-3.0367,3.869-4.5547,1.2282-1.5104,2.4386-3.0353,3.6371-4.5694,1.4159-1.8124,2.8238-3.6319,4.2043-5.4715,.8145-1.0854,.4085-2.8734-.4862-3.7681-1.0127-1.0127-2.5301-1.1176-3.7681-.4862-.515,.2627-1.0445,.4989-1.5732,.7325-.3562,.1574-1.0958,.5567-.2632,.1198-.3628,.1904-.7774,.3224-1.1577,.4746-.8926,.3573-1.7919,.6977-2.6962,1.0241-5.6283,2.0313-11.4481,3.5399-17.3329,4.6109-4.4493,.8098-8.9356,1.3268-13.449,1.6052-1.6764,.1034-3.1094,1.3551-3.1094,3.1094,0,1.6033,1.4246,3.2133,3.1094,3.1094,12.7849-.7885,25.6353-3.3479,37.4369-8.4224,.7311-.3144,1.4646-.632,2.1739-.9938l-4.2543-4.2543c-.2598,.3462-.5215,.691-.7835,1.0356-.2843,.3739-.5694,.7471-.8551,1.1198-.1882,.2455-.3769,.4906-.5655,.7356-.2099,.2726,.01-.0127,.0445-.0572-.1571,.2031-.3145,.406-.472,.6087-2.0161,2.5948-4.0612,5.1686-6.1734,7.686-1.0401,1.2397-2.0466,2.3812-3.3588,3.3371-1.4113,1.0281-2.9004,1.9513-4.4586,2.74-1.3661,.6914-2.3134,1.0745-3.8825,1.5554-1.3944,.4274-2.8258,.7567-4.2711,.9567,.4846-.0671-.4361,.0423-.5825,.056-.3626,.0341-.7258,.0618-1.0895,.0823-.7186,.0406-1.4389,.0548-2.1586,.0437-.6595-.0101-1.3186-.0418-1.9761-.0935-.301-.0237-.6015-.0515-.9017-.0834-.1993-.0212-.3983-.0443-.5972-.0691-.5123-.0638,.4446,.071-.0629-.0119-2.6432-.4318-5.2221-1.1044-7.7334-2.0383-.2641-.0982-.5273-.199-.7896-.3022-.1417-.0557-.9166-.3721-.6616-.2649,.263,.1105-.4-.1754-.515-.2266-.3318-.1476-.6618-.299-.9902-.4539-1.0693-.5045-2.1209-1.046-3.1542-1.6206-1.8582-1.0333-3.6576-2.1723-5.3932-3.4001-.4026-.2848-.8019-.5744-1.1974-.8689-.1961-.146-.3896-.2956-.5858-.4417-.4119-.3068,.5361,.428,.0161,.0115-.5799-.4646-1.1601-.9277-1.7254-1.4101-.4934-.421-.9857-.8473-1.451-1.2995l-2.1987,5.3081c7.739,.1246,15.4048,1.4684,23.1676,1.0358,1.6771-.0935,3.1094-1.3622,3.1094-3.1094,0-1.6112-1.4243-3.2033-3.1094-3.1094Z"/></g><g><path d="M812.7208,114.1768s-14.1791,14.5249-9.6833,23.5166c6.8489,13.6977,26.2832,7.6083,26.2832,7.6083,0,0-2.4208,15.5624,17.9832,8.6458,0,7.6083,5.8791,15.9083,16.2541,8.6458,10.375-7.2625,6.5708,28.704,0,35.9665,6.5707,1.0375,12.5389-31.5695,21.7872-28.0125,17.9835,6.9168,5.7456,26.2113-1.6145,31.5372,3.4844,4.4948,20.8354,10.0118,20.5704-.0587,1.9353,1.2755,4.6273,.8198,6.5254-.5104,1.8981-1.3302,3.1632-3.3675,4.2999-5.3875,6.3198-11.23,10.4855-24.3993,9.343-37.4023-.8515-9.6911-6.8395-19.967-16.9908-21.7239-6.5708-34.2373-67.783-51.1831-94.7579-22.8249Z"/><path d="M810.5221,111.9781c-2.1169,2.1741-4.0143,4.6153-5.7452,7.1005-2.9115,4.18-5.5779,9.1315-5.7247,14.338-.1586,5.6249,3.8068,10.8003,8.5457,13.4748,4.1926,2.3662,9.1804,3.0807,13.9354,2.8183,2.8706-.1584,5.8563-.5508,8.614-1.4096-1.275-1.275-2.55-2.55-3.825-3.825-.3351,2.192-.2541,4.4906,.4295,6.6142,1.4611,4.5386,5.2234,7.1452,9.8808,7.6468,3.864,.4162,7.8596-.574,11.4979-1.7902-1.312-.9995-2.624-1.9989-3.936-2.9984,.0584,6.0633,3.2924,13.2183,9.8934,14.3517,4.0598,.697,7.7742-.8664,11.1082-3.0681,.2839-.1875,.6598-.3284,.9217-.5371,.0562-.0448-.7532,.2201-.1925,.0936,.0435-.0098,.4494-.0834,.4616-.1154-.0373,.0982-.9594,.0761-.3378,.0681,.5685-.0073-.1742-.038-.3689-.0671,.1296,.0194,.2581,.0663,.3806,.1107-.2813-.1018-.7659-.3796-.3008-.0849,.3557,.2255-.752-.5069-.2633-.1979,.1066,.0674,.1637,.2041,.2647,.2749,.2662,.1867-.387-.6786-.172-.2115,.0672,.146,.1727,.2892,.2556,.4282,.0072,.0121,.2124,.4133,.2057,.4165-.0235,.0113-.2989-.8259-.0737-.1512,.1233,.3693,.2438,.7366,.3405,1.1141,.1069,.4168,.1935,.8386,.268,1.2623,.037,.2105,.0597,.4252,.1013,.6346-.1334-.6712-.0378-.3005,.0076,.1269,.1071,1.0075,.1597,2.0206,.1789,3.0335,.0442,2.3366-.0895,4.6764-.3303,7.0001-.0603,.5816-.1309,1.1617-.2021,1.742-.0725,.5913-.004,.0278,.0111-.078-.0238,.1663-.0467,.3327-.071,.499-.0484,.3325-.0991,.6646-.1521,.9964-.1902,1.1917-.4093,2.3789-.6594,3.5595-.5228,2.4676-1.1694,4.9205-2.0512,7.2858-.0947,.2539-.1948,.5055-.293,.758-.2612,.6722,.2575-.5426-.1028,.2416-.2012,.4379-.4049,.8737-.6314,1.2992-.2042,.3837-.4213,.7613-.6593,1.1252-.1203,.1839-.2722,.3595-.382,.5487,.0513-.0884,.4312-.521,.0095-.0459-.8364,.9424-1.1669,2.2047-.6429,3.3967,.5448,1.2394,1.5489,1.7396,2.8416,1.9114,4.4697,.5942,7.3185-5.3236,8.9078-8.5373,2.411-4.8751,4.3407-9.9949,7.0457-14.7231,.5868-1.0257,1.241-1.9915,1.9064-2.9657,.2406-.3523-.4005,.4656,.0919-.1109,.1551-.1816,.3076-.3648,.4686-.5412,.3375-.3697,.7299-.6777,1.0753-1.0349,.2252-.2329-.6372,.3904,.0427-.009,.1617-.095,.3405-.1861,.4962-.2895,.4868-.3235-.6717,.1415-.1135,.0409,.1366-.0246,.5216-.0908,.6397-.1675-.0113,.0073-.8568,.0598-.1762,.0548,.7762-.0056-.4342-.1856-.0983-.0377,.5772,.2542,.9363,.2913,1.3856,.5007,.8192,.3819,1.6155,.8152,2.3699,1.3136,.1653,.1092,.951,.7022,.5431,.3702,.3533,.2875,.6942,.5903,1.0167,.9121,.2467,.2462,.4713,.5093,.7056,.7665,.0935,.1026,.3429,.4704-.0176-.0346,.0947,.1327,.1982,.266,.2843,.4053,.1705,.2759,.3473,.5454,.503,.8305,.1169,.214,.5346,1.2851,.2836,.5479,.2024,.5942,.381,1.1784,.5196,1.7914,.0095,.0421,.1424,.7993,.0605,.276-.0705-.4506,.0058,.0523,.0144,.1663,.0266,.352,.0516,.7022,.0568,1.0554,.0052,.3559-.0045,.7119-.0258,1.0672-.0069,.1153-.098,1.0958-.0479,.662,.0495-.4287-.0944,.5479-.1173,.6664-.0777,.4032-.1691,.8033-.2722,1.2007-.1992,.7681-.443,1.5244-.7221,2.2671-.0594,.1581-.1234,.3144-.1831,.4724-.2977,.7887,.2745-.572-.0818,.1945-.1794,.386-.3542,.7731-.5442,1.1542-.7156,1.435-1.5459,2.8127-2.465,4.1262-.2351,.336-.4815,.6632-.7228,.9947-.0834,.1146-.369,.4579,.0434-.055-.1245,.1548-.2474,.3107-.3731,.4645-.4599,.5627-.9379,1.1108-1.4355,1.6406-.4822,.5134-.9826,1.0104-1.5047,1.4833-.2401,.2175-.4875,.4257-.7338,.636-.6294,.5375,.4259-.3003-.2229,.175-1.7423,1.2763-1.97,3.2059-.6293,4.8836,2.3596,2.9528,6.6974,4.6517,10.2182,5.6273,3.8419,1.0647,8.848,1.6681,12.3062-.8075,2.3284-1.6668,3.3882-4.252,3.3541-7.0772-1.5596,.895-3.1192,1.7899-4.6788,2.6849,2.869,1.7227,6.5581,1.4386,9.3581-.3078,2.8136-1.7549,4.5889-4.6358,6.149-7.4743,3.1581-5.746,5.7403-11.8801,7.4126-18.2261,2.9592-11.2293,3.6994-24.5988-3.0213-34.6843-3.3406-5.013-8.3083-8.9106-14.3248-10.0149l2.1717,2.1717c-2.9544-15.0782-15.5425-26.3001-28.9836-32.459-14.7706-6.7682-32.1023-9.0881-47.9376-4.9307-8.6739,2.2772-16.8058,6.6898-23.0338,13.1927-2.7685,2.8908,1.6226,7.2947,4.3974,4.3974,1.3091-1.3669,2.7048-2.631,4.1739-3.8234,.1147-.0931,.5991-.4617,.1274-.1038,.1454-.1103,.2912-.2202,.4379-.3289,.3663-.2714,.7369-.5369,1.1117-.7964,.7859-.5443,1.59-1.062,2.4099-1.5535,1.6021-.9604,3.2645-1.8194,4.9712-2.5784,.167-.0742,.3346-.1469,.5021-.2199-.5598,.2439,.0009-.0009,.1427-.0578,.3826-.1534,.765-.3067,1.1504-.4528,.9452-.3584,1.9013-.6881,2.866-.99,1.7679-.5532,3.565-1.0128,5.3797-1.3845,.9148-.1874,1.8342-.3524,2.7568-.4959,.1851-.0288,.3707-.0547,.5558-.0838,.8934-.1405-.3983,.0478,.1493-.0231,.5129-.0664,1.0267-.1264,1.5411-.1799,3.7788-.393,7.5918-.443,11.3818-.1895,.9549,.0639,1.9085,.1471,2.8601,.2493,.4764,.0511,.9518,.1093,1.4273,.1676,.6202,.076,.1558,.0211,.0284,.0031,.3322,.047,.6642,.0952,.9958,.1461,1.894,.2909,3.7766,.6559,5.6423,1.0933,3.7463,.8783,7.4259,2.047,10.9865,3.5068,.1739,.0713,.3478,.1429,.521,.216-.6257-.2643,.23,.1032,.2918,.1303,.3854,.169,.7692,.3417,1.1515,.5178,.8867,.4085,1.7648,.8359,2.6328,1.2828,1.6311,.8397,3.2274,1.7475,4.7794,2.7258,.7644,.4818,1.518,.9807,2.2594,1.4971,.331,.2305,.6596,.4646,.9856,.7021,.1805,.1314,.3602,.2638,.5391,.3974,.055,.0411,.7612,.5804,.2198,.1608,1.3865,1.0745,2.7188,2.2213,3.9863,3.4339,1.4218,1.3602,2.7616,2.8073,3.9947,4.3409,.1058,.1315,.2101,.2642,.3149,.3964-.4544-.5733,.1149,.1558,.2021,.2735,.274,.3699,.542,.7442,.8032,1.1233,.5421,.7868,1.0554,1.5934,1.5371,2.4185,.4779,.8188,.9248,1.6557,1.3368,2.5096,.1785,.37,.3418,.7468,.5158,1.1188,.3506,.7495-.2248-.6089,.0698,.164,.0876,.2298,.1825,.4569,.27,.6869,.6738,1.77,1.1876,3.5938,1.5517,5.452,.1905,.9721,1.1913,1.9918,2.1717,2.1717,2.3131,.4246,3.8109,.9892,5.7265,2.229,1.3575,.8786,3.1558,2.5972,4.0968,3.8185,2.6734,3.4699,4.0527,7.1824,4.7466,11.4943,.1747,1.0857-.051-.573,.0712,.5146,.025,.2228,.0467,.4459,.0669,.6692,.06,.664,.1024,1.3299,.1335,1.9958,.069,1.4777,.0717,2.9578,.0125,4.4359-.1107,2.7617-.4464,5.4942-.9924,8.203-1.0919,5.4172-2.8786,10.7022-5.2321,15.6996-1.317,2.7965-2.6884,5.8254-4.5826,8.2863-.6106,.7932-1.5921,1.7067-2.3342,2.0236-1.0594,.4525-1.7282,.4309-2.4942-.029-2.0113-1.2077-4.7071,.3405-4.6788,2.6849,.0038,.3183-.0195,.6309-.0303,.9482,.0279-.8146,.041-.2009-.0279,.023-.0781,.2535-.4356,.9741-.0028,.1861-.0874,.1591-.1778,.3274-.2606,.489-.3497,.6831,.281-.1609-.0569,.0766-.119,.0837-.2834,.2564-.3865,.3606,.6188-.6256,.1352-.1455-.1066,.0149-.1941,.1287-.7544,.2895,.0791,.0014-.4331,.1497-.8554,.2701-1.2998,.3788-.8556,.2093,.3558,.0302-.1926,.0342-.2129,.0016-.4283,.0324-.6414,.0405-.5216,.0197-1.0447,.0052-1.5652-.032-.2708-.0194-.5401-.0491-.8099-.0781-.2359-.0285-.1556-.0176,.2407,.0326-.1577-.0237-.315-.0492-.4721-.0765-1.1216-.2148-2.2259-.477-3.3133-.8286-.5407-.1748-1.066-.3887-1.6021-.5751-.7549-.2625,.5794,.2796-.1368-.053-.2814-.1307-.5657-.2541-.845-.3894-.9024-.4374-1.747-.9463-2.5863-1.4922-.183-.119-.6524-.5353,.0246,.0378-.1563-.1323-.3174-.2578-.4696-.3951-.2894-.261-.5575-.5391-.8009-.8436l-.6293,4.8836c9.2923-6.8067,18.4327-23.8041,7.6654-33.2756-1.518-1.3353-3.2186-2.41-5.065-3.2268-1.3762-.6088-2.7436-1.1943-4.2844-1.0866-2.5166,.1759-4.6499,1.6099-6.27,3.478-3.7274,4.298-5.8747,9.8145-8.1933,14.9364-1.215,2.6839-2.4133,5.4163-3.9777,7.9202-.1542,.2469-.3124,.4914-.4771,.7314-.1702,.248-.767,.8882-.0856,.1529-.3214,.3468-.6191,.7072-.9527,1.0446-.5122,.518,.246-.0944,.0568-.0323-.0235,.0077-.478,.2627-.4781,.2698,.0009-.1629,.8597-.3176,.4074-.1874-.1514,.0436-.5656,.1036,.0771,.0156,.6632-.0908,.0327-.033-.165-.0593,.7329,1.7694,1.4658,3.5387,2.1987,5.3081,2.7875-3.1408,4.1206-7.4851,5.1341-11.4783,1.2575-4.9549,2.0034-10.1107,2.1781-15.2202,.1365-3.9923,.1174-8.6721-1.8847-12.2628-1.0024-1.7976-2.6914-3.0923-4.7763-3.249-2.3555-.1771-4.0277,1.2279-5.9416,2.335-.9089,.5258-1.6048,.8581-2.5959,1.1356-1.1449,.3206-.9207,.2056-2.1131,.2563-.118,.005-.6278-.0583-.0162,.0275-.1805-.0253-.3612-.063-.5387-.1042-.1746-.0406-.3488-.0879-.52-.1413-.0794-.0248-.7489-.2967-.371-.1254,.3349,.1517-.0639-.041-.1038-.0663-.1817-.1151-.3781-.2186-.5634-.3293-.0778-.0465-.5275-.3661-.2174-.1343,.3205,.2395-.2872-.2594-.2883-.2605-.2599-.2409-.4923-.5045-.7319-.7648-.0847-.0921-.3339-.4648-.0105-.0042-.104-.1481-.2077-.2961-.306-.448-.2243-.3466-.4275-.7063-.6138-1.0746-.0629-.1243-.1213-.2505-.1824-.3757-.3843-.786,.1049,.3108-.0649-.1651-.2726-.7642-.5003-1.5364-.6539-2.3341-.0362-.1882-.0687-.3774-.0979-.5668,.0489,.3174,.0221,.2464,.0046-.0297-.0302-.4784-.0639-.9506-.0686-1.4307-.0186-1.9269-1.9851-3.6505-3.936-2.9984-1.6447,.5498-3.313,1.0326-5.0178,1.3576-.3621,.069-.7256,.131-1.0903,.1848-.5179,.0764,.4423-.0426-.0592,.0029-.1424,.0129-.2844,.03-.4268,.0426-.6545,.0575-1.3122,.0843-1.9692,.0682-.2777-.0068-.554-.0271-.8311-.043-.112-.0064-.2268-.0324-.3388-.0328-.4328-.0017,.58,.139,.1771,.0227-.4489-.1296-.9199-.1799-1.3697-.3204-.2067-.0646-.4065-.1486-.6122-.2146,.4964,.1592,.3932,.1914,.0245-.0112-.3556-.1954-.6836-.4575-1.0383-.6458,.3558,.1889,.4717,.4181,.0969,.0444-.1058-.1055-.2167-.2053-.3201-.3134-.1174-.1227-.2205-.2622-.3401-.382-.3107-.3114,.3997,.655,.0606,.0574-.1597-.2814-.3317-.5535-.4869-.8383-.0665-.1221-.3174-.6849-.0682-.1202,.2404,.5447,.0089,.0149-.0357-.1239-.1881-.5859-.3092-1.1682-.4446-1.7664-.1279-.5652,.0595,.7797,.0386,.3081-.0057-.1285-.028-.2585-.0389-.3867-.0204-.2393-.0339-.4792-.0407-.7193-.0122-.4247,.0037-.8466,.027-1.2705,.0396-.7211,.0352-.3069-.0543,.2792,.3354-2.1943-1.3396-4.599-3.825-3.825-.5294,.1649-1.0708,.2957-1.6109,.4201-.5761,.1327-1.1558,.2503-1.7377,.3547-.3501,.0628-.7014,.1171-1.0526,.1735-.1994,.032-.8796,.1062,.0665-.0046-.2674,.0313-.5343,.0663-.802,.0951-1.8906,.2031-3.8006,.2628-5.6981,.1257-.2361-.0171-1.7044-.1843-.8924-.0699-.4972-.0701-.9924-.1546-1.484-.2566-1.0882-.2257-2.1366-.5517-3.1786-.9342-.7967-.2924,.5527,.2914-.208-.092-.2323-.1171-.4693-.2238-.7001-.3442-.4659-.2431-.9199-.509-1.3589-.7979-.2226-.1465-.4393-.3005-.6553-.4565,.5614,.4054-.1489-.1284-.2155-.1854-.4917-.4213-.9551-.8754-1.3868-1.358-.159-.1777-.3133-.3594-.4632-.5448-.3407-.4217,.3766,.5922-.132-.1866-.3349-.5128-.6727-1.0163-.9674-1.5545-.1414-.2583-.2731-.5206-.4015-.7854,.3304,.6816-.0012-.021-.0407-.167-.0631-.2335-.1256-.47-.1919-.7025-.0359-.1581-.0674-.3171-.0944-.477,.05,.4247,.0559,.4579,.0175,.0996-.0095-.4988-.0504-.9888-.025-1.4893,.0129-.2539,.0384-.5057,.0628-.7586-.076,.7889,.0194-.0644,.0441-.1954,.2178-1.1557,.5918-2.2522,.9882-3.3557,.307-.8546-.2626,.548,.1137-.2845,.1155-.2555,.2302-.511,.3508-.7642,.2422-.5082,.4989-1.0095,.7671-1.5044,.5732-1.0579,1.1999-2.0867,1.8632-3.0903,.6622-1.0019,1.3671-1.9719,2.0889-2.9312-.4677,.6216,.0017-.0023,.0859-.108,.1823-.2287,.3639-.4579,.5484-.6849,.2899-.3567,.5838-.7101,.8818-1.06,.5957-.6995,1.2022-1.3942,1.8434-2.0528,2.7937-2.8692-1.5993-7.2711-4.3974-4.3974Z"/></g><path d="M834.0114,165.3617c.3256-.1482-.3678,.1368-.1276,.0522,.0716-.0252,.1421-.0538,.2139-.0787,.1613-.056,.3247-.1054,.4899-.1483,.1651-.0428,.332-.0786,.4999-.1082,.4131-.0728-.136-.0188-.1573,.0164,.013-.0215,.1976-.0199,.2265-.0223,.3407-.0278,.6836-.0301,1.0247-.0078,.0948,.0062,.1895,.0188,.2842,.0245,.2449,.0147-.5623-.0949-.155-.0214,.1689,.0305,.3369,.0609,.504,.1003,.3357,.0791,.6551,.1932,.9802,.3058,.2423,.084-.4096-.1897-.1798-.0764,.0851,.042,.1726,.0793,.2576,.1217,.1528,.0763,.3028,.1583,.4496,.2456,.1466,.0873,.2902,.1797,.4297,.278,.0619,.0436,.1212,.0914,.1837,.134-.4735-.3223-.2209-.1696-.1098-.0743,.2747,.2356,.525,.4947,.7571,.7721,.6985,.835,2.2202,.775,2.9316,0,.8152-.888,.7451-2.0409,0-2.9316-1.1749-1.4045-2.9262-2.4076-4.7091-2.7982-2.0224-.443-4.0088-.2183-5.8867,.6364-.445,.2025-.8282,.7869-.9526,1.2389-.1366,.4962-.0749,1.1569,.209,1.5973,.659,1.0222,1.777,1.2258,2.8362,.7437h0Z"/><path d="M810.5918,159.5945c.0913-.0467,.1834-.0906,.2772-.132l-.4952,.209c.3551-.1489,.7214-.2487,1.1022-.3047l-.5511,.074c.4332-.0562,.8663-.0535,1.2991,.0046l-.5511-.074c.407,.0613,.8,.1696,1.1805,.3266l-.4952-.209c.3533,.1526,.6826,.3424,.9896,.5747l-.4195-.3241c.222,.1743,.4249,.3658,.6107,.5783,.3356,.3839,.9702,.6072,1.4658,.6072,.5084,0,1.1157-.2258,1.4658-.6072,.3627-.3951,.6319-.9137,.6072-1.4658-.0256-.5704-.23-1.0343-.6072-1.4658-.8772-1.0035-2.196-1.7412-3.506-1.9817-1.5494-.2845-3.0552-.1121-4.4653,.61-.967,.4952-1.327,1.9314-.7437,2.8362,.6361,.9866,1.8019,1.2733,2.8362,.7437h0Z"/><g><path d="M811.3843,168.4794c-.7466,1.2984-2.0635,2.0083-3.5128,1.7778-.2738-.0435-.5508-.1085-.7842-.258-.2867-.1837-.4829-.4797-.6328-.7854-.6056-1.2357-.5417-2.7757,.1643-3.957,.9595-1.6055,3.5009-1.6358,4.6166-.1476,.7143,.9527,.7425,2.338,.1489,3.3702Z"/><path d="M809.5944,167.4332c-.0919,.1564-.1911,.306-.3001,.4511l.3241-.4195c-.1994,.255-.4232,.4828-.6776,.6831l.4195-.3241c-.2309,.1741-.4763,.3186-.7416,.4339l.4952-.209c-.2675,.1094-.5417,.1839-.8278,.2249l.5511-.074c-.2976,.0358-.5923,.0335-.8896-.0039l.5511,.074c-.2192-.0324-.4322-.0769-.6398-.1558l.4952,.209c-.1013-.0447-.1938-.0951-.2851-.1578l.4195,.3241c-.1043-.0815-.194-.1704-.2789-.2717l.3241,.4195c-.1637-.2135-.2859-.448-.3911-.695l.209,.4952c-.134-.3336-.2243-.6766-.2748-1.0325l.074,.5511c-.047-.3848-.0456-.7671,.0037-1.1517l-.074,.5511c.0525-.3556,.1443-.6984,.2785-1.0319l-.209,.4952c.1169-.2741,.2547-.5373,.437-.7738l-.3241,.4195c.1294-.1591,.2734-.2997,.4353-.4255l-.4195,.3241c.179-.1323,.3691-.2402,.5735-.328l-.4952,.209c.245-.0989,.4971-.1641,.7588-.1994l-.5511,.074c.2645-.0302,.5273-.0288,.7914,.0036l-.5511-.074c.2641,.0377,.5185,.1053,.7659,.2055l-.4952-.209c.2268,.0974,.4372,.2186,.6339,.3679l-.4195-.3241c.1634,.1301,.3093,.2743,.4407,.4366l-.3241-.4195c.1554,.202,.2796,.4188,.3795,.6531l-.209-.4952c.0952,.2411,.1598,.4871,.1975,.7436l-.074-.5511c.0349,.2848,.0349,.5665,.0014,.8515l.074-.5511c-.0403,.2846-.1124,.5573-.2196,.8241l.209-.4952c-.0514,.1194-.1081,.2346-.1714,.3481-.2654,.4757-.3548,1.0679-.209,1.5973,.1324,.4808,.5042,1.0019,.9526,1.2389,.977,.5162,2.272,.2677,2.8362-.7437,1.0862-1.9472,.898-4.4876-.6765-6.1212-1.2432-1.29-3.2828-1.7741-4.9874-1.2504-.9316,.2862-1.7452,.817-2.3411,1.5883-.7061,.914-1.0295,1.9688-1.1659,3.1026-.1198,.9957,.0675,2.0238,.4549,2.9419,.5077,1.203,1.3974,2.1934,2.7389,2.4478,.6615,.1255,1.2553,.1624,1.9156,.0736,.6301-.0847,1.146-.2533,1.7288-.5292,.9772-.4626,1.7916-1.3324,2.3326-2.2534,.5496-.9357,.2446-2.3141-.7437-2.8362-.9954-.5259-2.2494-.2553-2.8362,.7437Z"/></g><path d="M832.5834,173.0157c.2945-.0932,.5934-.1611,.8991-.2054l-.5511,.074c.4857-.0634,.9721-.0641,1.4582-.0046l-.5511-.074c.4853,.0662,.9556,.1906,1.4095,.3748l-.4952-.209c.3561,.1504,.6922,.3338,1.0102,.5536,.4228,.2923,1.1175,.3411,1.5973,.209,.4808-.1324,1.0019-.5042,1.2389-.9526,.2542-.4811,.3816-1.0639,.209-1.5973-.1734-.5359-.4885-.918-.9526-1.2389-1.8071-1.2494-4.2864-1.5879-6.3743-.9274-.5093,.1611-.9655,.4855-1.2389,.9526-.26,.4443-.3702,1.0992-.209,1.5973,.1623,.5016,.4732,.9855,.9526,1.2389,.483,.2552,1.0615,.3785,1.5973,.209h0Z"/><path d="M822.1028,196.3441c-.0233-.1443-.0159,.1429-.0943,.246,.1507-.1982-.2838,.2492,.0139,.0202-.7426,.5714-1.2187,1.3727-.9526,2.341,.235,.855,1.0941,1.5551,1.9989,1.5219,3.1441-.1155,6.3657-.6465,9.2746-1.8768,1.5585-.6592,2.8513-1.7266,4.1298-2.816,1.3653-1.1634,2.6953-2.3672,4.0252-3.5706l-3.4647-.9147c.9495,2.4075,.7841,4.8573-.6482,7.0375-1.2517,1.9052-3.6442,3.0437-5.8515,3.0848-1.2552,.0234-2.4702,1.3195-1.9989,2.624,.7811,2.162,2.6728,3.181,4.911,2.8794,1.1106-.1497,1.7158-1.5748,1.4478-2.55-.3294-1.1987-1.4359-1.598-2.55-1.4478,.1933-.0261,.5163,.0974,.1525-.0709,.1267,.1154,.1011,.0867-.0768-.0863,.0617,.042,.0995,.0998,.1133,.1735-.6663,.8747-1.3326,1.7493-1.9989,2.624,3.7129-.0692,7.1546-1.9067,9.2931-4.9371,2.0838-2.9528,2.5246-7.0856,1.2043-10.4333-.5775-1.4642-2.2275-2.0344-3.4647-.9147-1.2159,1.1003-2.4317,2.201-3.6748,3.2707-.969,.8338-1.9866,1.7406-3.1381,2.2515-2.3542,1.0445-5.1267,1.433-7.6851,1.527l1.0463,3.8629c1.6329-1.2564,2.3164-2.9048,1.9857-4.9482-.179-1.106-1.5544-1.7214-2.55-1.4478-1.1761,.3232-1.6274,1.4407-1.4478,2.55h0Z"/><g><path d="M834.1977,196.2082c1.7225,.6478,2.4724,2.5447,2.1537,4.2416,1.2983,.2076,2.5041-2.3268,2.92-3.3501,.6816-1.6768,.8006-3.5909,.2491-5.3206-1.444,1.5657-3.0923,2.9461-4.891,4.0959"/><path d="M833.6466,198.2071c-.5925-.2353-.0107,.0294,.1417,.1133,.3018,.1662-.2451-.2557-.0968-.0824,.0592,.0692,.145,.1284,.2091,.1932,.0532,.0538,.1013,.1121,.1537,.1664,.2584,.268-.1688-.2919-.0842-.1057,.0701,.1544,.1884,.3462,.2796,.4901,.1151,.1816-.1633-.4973-.0578-.1285,.0208,.0728,.0483,.1438,.0694,.2166,.0265,.0915,.0439,.185,.0692,.2766,.0925,.3351-.0187-.0148-.0085-.1561-.0133,.1848,.031,.3851,.0272,.5731-.0016,.0766-.0097,.1532-.011,.2298-.0069,.424,.0868-.5126,.0143-.0948-.1172,.6758-.0572,1.2528,.371,1.8071,.4291,.5554,.9503,.7368,1.6279,.8169,1.1075,.131,2.2446-.5943,2.9347-1.402,.6285-.7355,1.1325-1.5497,1.5369-2.4264,1.0866-2.3558,1.4707-4.9458,.6964-7.4664-.441-1.4356-2.3685-2.096-3.4647-.9147-.7079,.7628-1.4583,1.4841-2.2543,2.1548-.1942,.1637-.3941,.3202-.5898,.4818-.2251,.1859,.3987-.2973-.002,.0025-.1017,.0761-.2031,.1525-.3055,.2276-.4303,.3158-.8711,.6162-1.3199,.905-.9109,.5862-1.3683,1.8673-.7437,2.8362,.587,.9106,1.8608,1.3714,2.8362,.7437,1.9398-1.2484,3.7408-2.7286,5.3105-4.42-1.1549-.3049-2.3098-.6098-3.4647-.9147,.074,.2409,.1401,.4833,.1913,.7303,.0151,.0728,.0601,.4994,.0397,.1703-.0212-.3422,.0135,.1467,.0158,.1736,.0213,.2504,.0299,.5021,.0266,.7533-.0013,.1006-.0045,.2012-.0096,.3016-.0034,.0662-.0644,.3961-.0358,.4514-.0382-.0738,.0691-.413,.0129-.1023-.0224,.124-.0441,.2477-.0703,.3709-.0524,.2463-.1161,.4898-.1911,.7302-.0711,.2281-.16,.4467-.2416,.6708-.0648,.1779,.2473-.5604,.1073-.2543-.0295,.0644-.057,.1297-.0863,.1942-.2794,.6163-.6074,1.2-.9906,1.7575-.194,.2823,.2708-.295,.0977-.1282-.06,.0578-.1112,.1304-.1684,.1912-.0449,.0477-.091,.0946-.1386,.1398-.181,.1716-.2792,.1157,.1336-.086-.0476,.0233-.1046,.0629-.1468,.0951-.2462,.1877,.3893-.1358,.2329-.0879-.3506,.1074,.2896-.0262,.2836-.016-.0164,.028-.2109-.0061-.2325-.0087,.6663,.8747,1.3326,1.7493,1.9989,2.624,.2477-1.4285,.1226-2.798-.5208-4.1113-.6391-1.3046-1.7582-2.1551-3.0808-2.6802-.4682-.1859-1.1814-.0345-1.5973,.209-.43,.2516-.8401,.7447-.9526,1.2389-.2723,1.1954,.3659,2.1204,1.4478,2.55h0Z"/></g><path d="M833.4707,229.3418c-3.525-.3015-7.0678-.3515-10.5461-1.0454-3.5784-.7138-7.1557-1.257-10.8117-.8906-6.689,.6703-13.0983,3.2407-18.7634,6.7995-10.4234,6.5479-18.8606,15.9517-26.3441,25.5982-7.4113,9.5534-14.0937,19.6728-21.8834,28.9314-8.2415,9.7957-17.9692,18.1566-28.4994,25.407-21.9566,15.1177-47.1134,25.4073-73.0141,31.4623-26.8638,6.2801-55.3685,7.365-81.6735-1.956-20.0013-7.0874-37.478-20.4837-46.7909-39.8589-1.1808-2.4567-2.1939-4.9765-3.093-7.5491l-.3135,2.396c3.2632-7.0099,6.5264-14.0197,9.7896-21.0296,1.1864-2.5486,2.5048-5.0726,3.5457-7.6862,3.2673-8.203-6.1856-16.0499-13.632-11.263-1.9202,1.2344-3.3818,3.3088-4.8699,4.9998l-4.0596,4.6132c1.7694,.7329,3.5387,1.4658,5.3081,2.1987,0-6.9049,0-13.8098,0-20.7146v-13.6694c0-2.6352,.2895-5.6051-.5274-8.1443-2.9585-9.1968-15.6238-10.4145-20.1943-1.8648h5.3698c-4.2203-7.8692-16.1481-7.7903-19.7543,.6132h5.3698c-3.6698-8.5515-16.356-8.5512-20.0257,0h5.3698c-2.4656-5.7324-9.5492-8.1705-15.0564-5.2941-3.8497,2.0107-5.8962,6.0738-5.9366,10.3116-.0513,5.3741,0,10.7513,0,16.1256,0,8.5915,.0339,17.1839-.0058,25.7753-.0155,3.3541,.1366,6.7089,.3676,10.0543,.492,7.1253,1.3825,14.2296,2.5906,21.268,1.6024,9.336,3.8202,18.5706,6.6862,27.5999,3.3938,10.6918,7.6957,21.1304,12.9735,31.0323,5.8719,11.0165,13.0225,21.3707,21.356,30.6715,9.1099,10.1673,19.7197,19.0045,31.3321,26.1798,13.5185,8.3531,28.423,14.4288,43.7803,18.4417,18.794,4.911,38.3291,6.8405,57.7235,6.7687,5.4337-.0201,10.865-.2035,16.2895-.5168,3.9783-.2298,4.0048-6.4501,0-6.2188-19.8076,1.144-39.8255,.5313-59.3609-3.1262-15.6824-2.9362-31.024-7.7676-45.1731-15.0149-12.2037-6.2509-23.0445-13.8951-32.8274-23.2854-9.0242-8.6621-16.2231-17.7288-22.716-28.2623-5.9356-9.6294-10.6783-19.6143-14.3996-29.649-3.397-9.1601-6.0814-18.5817-8.1075-28.1376-.8569-4.0416-1.5957-8.1083-2.216-12.1929-.1433-.9436-.2791-1.8883-.4107-2.8336-.0299-.2146-.0587-.4293-.0879-.644,.0751,.552,.0566,.4328,.0024,.0087-.057-.4461-.1153-.8919-.1708-1.3382-.2078-1.6713-.3954-3.3452-.5618-5.0212-.451-4.5421-.7639-9.1048-.8393-13.6697-.06-3.6331-.0061-7.2709-.0061-10.9039,0-7.3132,0-14.6264,0-21.9396v-8.5511c0-1.3549-.1792-2.9177,.1558-4.2453,.4831-1.9147,2.1199-3.5231,4.1307-3.73,2.4448-.2516,4.2152,1.3771,5.1179,3.4758,.8758,2.0362,4.4949,2.0387,5.3698,0,1.9221-4.4789,7.3605-4.4871,9.2861,0,.8744,2.0375,4.4954,2.0375,5.3698,0,1.7454-4.0672,6.8175-4.7101,9.0147-.6132,1.0844,2.022,4.2866,2.0263,5.3698,0,2.5095-4.6945,9.0129-2.9914,9.133,2.2642,.0512,2.2399,0,4.487,0,6.7273,0,8.4705,0,16.941,0,25.4115,0,2.2838,0,4.5677,0,6.8515,0,2.5661,3.4846,4.2709,5.3081,2.1987,2.3502-2.6707,4.6308-5.4244,7.0602-8.0229,.6646-.7108,1.3524-1.2065,2.367-1.2417,.6402-.0222,1.2433,.1327,1.7825,.4769,.7737,.4937,.9935,.8188,1.1785,1.3971,.5217,1.6303,.2116,1.9918-.3977,3.3006-3.6168,7.7695-7.2337,15.539-10.8505,23.3085-.5176,1.112-1.0481,2.219-1.5533,3.3367-1.2073,2.6709,.6194,5.649,1.686,8.1629,2.7957,6.5894,6.4677,12.6863,10.9277,18.2819,8.8299,11.0784,20.7718,19.4462,33.72,25.035,34.0192,14.6835,72.304,11.4689,107.0221,.9822,16.6622-5.0328,32.8782-11.8195,47.9298-20.5845,14.6921-8.5557,28.7275-19.0325,39.9472-31.8786,10.5716-12.104,18.9592-25.9129,29.4258-38.0974,10.1788-11.8496,25.2323-26.3088,42.3223-23.1935,4.6766,.8525,9.2631,1.2248,13.9943,1.6295,3.9871,.341,3.9644-5.8798,0-6.2188h0Z"/><path d="M505.5368,267.4707c-3.5033-.7248-7.1992-.9054-10.7645-.8097-7.397,.1986-14.851,1.8448-21.3397,5.486-4.5917,2.5767-8.4251,6.1285-11.5753,10.323-1.0092,1.3438-.2161,3.4754,1.1155,4.2543,1.5904,.9302,3.2426,.2315,4.2543-1.1155,2.2905-3.0498,5.3028-5.6919,8.5351-7.6234,.7959-.4756,1.6114-.9187,2.4427-1.3292,.3629-.1792,.7288-.3522,1.0975-.5191-.058,.0263,.8459-.3697,.4549-.2037-.2466,.1047,.4933-.1978,.5945-.2373,1.6582-.6478,3.3607-1.1793,5.0897-1.6027,.7597-.1861,1.5245-.3509,2.2929-.4966,.3967-.0752,.7943-.1451,1.1929-.2097,.2264-.0367,1.4795-.2081,.7347-.1155,1.5068-.1873,3.019-.3157,4.5365-.373,2.3623-.0891,4.7323-.0234,7.0853,.2051,.4713,.0458,.9405,.1058,1.4109,.1583,.6028,.0673-.9506-.1453-.1237-.015,.1481,.0233,.2967,.044,.4448,.0677,.2899,.0463,.5802,.0935,.8677,.1529,1.643,.3399,3.3598-.4789,3.825-2.1717,.4232-1.5402-.5196-3.4832-2.1717-3.825h0Z"/><path d="M457.5547,226.4353v29.3779c0,4.0015,6.2188,4.0082,6.2188,0v-29.3779c0-4.0015-6.2188-4.0082-6.2188,0h0Z"/><path d="M471.6678,226.4353v29.3779c0,4.0015,6.2188,4.0082,6.2188,0v-29.3779c0-4.0015-6.2188-4.0082-6.2188,0h0Z"/><path d="M486.8665,226.4353v29.3779c0,4.0015,6.2188,4.0082,6.2188,0v-29.3779c0-4.0015-6.2188-4.0082-6.2188,0h0Z"/><path d="M63.4342,440.36c21.6439-10.4157,43.3307-20.7419,65.061-30.9761,21.7302-10.2342,43.5036-20.3769,65.3192-30.4279,21.8156-10.051,43.6734-20.0104,65.5727-29.8776,21.9998-9.9125,44.0414-19.7321,66.1241-29.4584,21.9819-9.6819,44.0045-19.2714,66.067-28.7681,2.7325-1.1762,5.4657-2.3509,8.1994-3.5243,1.5435-.6625,1.8887-2.9324,1.1155-4.2543-.9333-1.5957-2.7048-1.7807-4.2543-1.1155-22.072,9.4746-44.1049,19.0404-66.0969,28.6993-21.992,9.659-43.9433,19.4105-65.8532,29.2541-21.9099,9.8436-43.7785,19.7793-65.6049,29.8068-21.9265,10.0735-43.8105,20.2396-65.6512,30.4979-21.7409,10.2115-43.4389,20.5144-65.0932,30.9083-2.682,1.2873-5.3632,2.5761-8.0438,3.8662-1.5131,.7281-1.9146,2.8881-1.1155,4.2543,.9045,1.5463,2.7356,1.8464,4.2543,1.1155h0Z" style="fill:#f953b2;"/><path d="M86.3391,27.9984c22.4328,6.4593,44.8035,13.134,67.1063,20.029,22.198,6.8626,44.3292,13.9413,66.3895,21.2347,22.1643,7.3278,44.2569,14.8723,66.2737,22.632,22.0168,7.7598,43.9577,15.7348,65.8185,23.9236,21.8608,8.1888,43.6415,16.5915,65.3379,25.2065,2.6484,1.0516,5.2954,2.1066,7.9414,3.1643,1.5599,.6235,3.4153-.681,3.825-2.1717,.4868-1.7716-.6061-3.1991-2.1717-3.825-21.6766-8.6649-43.4363-17.1215-65.2775-25.3625-21.7386-8.2023-43.5571-16.193-65.4513-23.9707-21.9975-7.8143-44.0713-15.4136-66.2174-22.7963-22.1461-7.3827-44.3643-14.5489-66.6505-21.497-22.2862-6.9482-44.6404-13.6784-67.0582-20.1892-2.7365-.7947-5.4739-1.586-8.2122-2.3744-3.853-1.1094-5.4982,4.8896-1.6532,5.9967h0Z" style="fill:#f953b2;"/><path d="M386.9616,77.5816c11.4901,10.0538,22.9801,20.1076,34.4702,30.1614,1.2632,1.1053,3.1543,1.2431,4.3974,0,1.1281-1.1281,1.2691-3.2869,0-4.3974-11.4901-10.0538-22.9801-20.1076-34.4702-30.1614-1.2632-1.1053-3.1543-1.2431-4.3974,0-1.1281,1.1281-1.2691,3.2869,0,4.3974h0Z" style="fill:#f953b2;"/><path d="M323.0925,199.1379h22.9801c4.0015,0,4.0082-6.2188,0-6.2188h-22.9801c-4.0015,0-4.0082,6.2188,0,6.2188h0Z" style="fill:#f953b2;"/><path d="M379.8689,357.6517c3.3513-4.3088,6.7025-8.6175,10.0538-12.9263,.5295-.6807,.9107-1.2971,.9107-2.1987,0-.7626-.3387-1.6736-.9107-2.1987-1.1142-1.0228-3.3309-1.3712-4.3974,0-3.3513,4.3088-6.7025,8.6175-10.0538,12.9263-.5295,.6807-.9107,1.2971-.9107,2.1987,0,.7626,.3387,1.6736,.9107,2.1987,1.1142,1.0228,3.3309,1.3712,4.3974,0h0Z" style="fill:#f953b2;"/><path d="M364.707,249.7046c2.5535-1.5321,5.107-3.0642,7.6606-4.5963,.6753-.4052,1.219-1.0958,1.429-1.8583,.205-.7443,.1124-1.7354-.3135-2.396-.904-1.4022-2.7618-2.011-4.2543-1.1155-2.5535,1.5321-5.107,3.0642-7.6606,4.5963-.6753,.4052-1.219,1.0958-1.429,1.8583-.205,.7443-.1124,1.7354,.3135,2.396,.904,1.4022,2.7618,2.011,4.2543,1.1155h0Z" style="fill:#f953b2;"/></svg>