<?xml version="1.0" encoding="UTF-8"?><svg id="Layer_2" xmlns="http://www.w3.org/2000/svg" width="1000" height="1000" viewBox="0 0 1000 1000"><path d="M956.6741,794.6779c-.5687-12.698-4.7398-25.8674-14.3804-34.7173-3.3123-2.559-6.6245-5.1181-9.9367-7.6771-7.6579-4.4412-15.9181-6.6758-24.7806-6.7033-4.6883-.276-9.372-.6571-14.052-1.0463-12.7356-1.0596-25.4527-2.343-38.1501-3.7873-7.3364-.8343-14.6662-1.7264-21.9891-2.6717-7.2495-1.0018-14.4916-2.0564-21.7254-3.1656-3.0975-.5072-6.1995-.9869-9.3032-1.4549-2.7283-.4366-5.4568-.8724-8.1825-1.3247-16.673-2.7665-33.2975-5.828-49.8548-9.2194-17.8316-3.6528-35.5862-7.6878-53.2262-12.1775-18.1142-4.6101-36.11-9.6989-53.9164-15.3864-17.7699-5.6759-35.3565-11.9471-52.6286-18.999-.155-.0634-.309-.1292-.464-.1926-23.2276-10.0955-45.8622-21.717-66.9791-35.7269-4.3172-2.8643-8.5611-5.8375-12.7298-8.9131-9.782-7.9294-19.0149-16.546-27.3403-26.0008-1.1992-1.362-2.3759-2.7434-3.535-4.1392-5.3684-7.5-10.1198-15.4269-14.0907-23.75-2.692-7.321-4.7636-14.8537-6.1844-22.5231-.7505-8.8241-.6697-17.697,.1432-26.5168,.1501-.8649,.2929-1.7309,.4554-2.5934,2.0461-6.5261,2.3384-13.0522,.8769-19.5783-.2963-6.5341-2.2385-12.6188-5.8264-18.2545-3.0854-5.7217-7.3005-10.3134-12.6455-13.7752-4.742-4.3397-10.3077-7.269-16.6969-8.7881-4.3507-.5847-8.7014-1.1691-13.0521-1.7538-8.8625,.0274-17.1227,2.262-24.7806,6.7033-10.2417,6.6031-20.2232,16.9101-22.5633,29.3422-2.9501,15.6741-5.1118,31.8973-4.5606,47.9012,.3354,9.7388,1.7748,19.4521,3.2224,29.0652,.8067,5.3565,1.9325,10.6642,3.3728,15.8862,3.875,14.0482,9.6958,27.8023,16.5605,40.6327,6.9592,13.0075,15.991,24.7793,25.292,36.1787,11.7384,14.3865,25.6572,26.9971,40.4185,38.4013-23.1435,.4672-46.2775,1.4525-69.3663,3.1067-32.9541,2.3617-65.8287,6.1636-98.4563,11.3605-26.8656,4.279-53.564,9.8595-79.6967,17.4578-27.753,8.0689-55.0949,18.5392-80.8777,31.6154-5.1068,2.5899-10.1368,5.3272-15.0839,8.2107-10.6567,6.2113-19.29,17.4559-22.5633,29.3422-2.0461,6.5261-2.3383,13.0522-.8769,19.5783,.2963,6.5341,2.2385,12.6188,5.8264,18.2545,6.7589,10.4833,16.8233,19.7118,29.3423,22.5633,12.904,2.9391,26.1828,1.8406,37.8327-4.9495,9.9435-5.7957,20.2331-10.9601,30.7509-15.6222,34.3493-13.7959,70.5301-22.8188,106.9155-29.3108,9.7741-1.7439,19.5829-3.2846,29.4133-4.6746,31.3684-3.9626,62.9213-6.3868,94.5069-7.7336,33.7314-1.4381,67.5109-1.6496,101.2637-.9531,31.8755,.6577,63.7326,2.1294,95.5422,4.2705,27.5597,1.8553,55.0855,4.2145,82.5623,7.0437,21.1314,2.1755,42.2351,4.6282,63.2982,7.3884,6.9685,.9555,13.933,1.9437,20.8878,2.9943,3.9223,.6316,7.8481,1.2418,11.7755,1.8425,.1839,.0301,.3681,.0591,.5519,.0898,4.0092,1.257,8.0182,1.8492,12.0274,1.7823,13.7457,1.9935,27.515,3.827,41.2961,5.54,14.9347,1.8566,29.8981,3.4924,44.8862,4.8546,7.1427,.6491,14.2965,1.2948,21.4574,1.7141,.3066,.0181,.6129,.0394,.9195,.0575,6.7597,.2549,13.0652-1.1545,18.9163-4.2287,6.0869-1.9799,11.3538-5.3639,15.801-10.1517,4.7878-4.4471,8.1718-9.7141,10.1518-15.8009,3.0741-5.8511,4.4836-12.1567,4.2285-18.9164Z" style="fill:#f4d13b;"/><path d="M741.4113,178.691c-.2042-.1563,.4143,.4357,.2486,.2221,.0913,.203,.1285,.2476,.1115,.1339,.0529,.2374,.0726,.294,.0591,.1699,.0483,.3162-.0913,.7361-.2525,1.0674-.4628,.9513-1.076,1.5522-1.8408,2.3162-1.6104,1.6087-3.6583,3.3124-4.0413,5.6863-.2406,1.4913,.2416,3.0462,1.5148,3.9382,1.0762,.754,2.4332,.7736,3.6947,.6446,2.5661-.2625,5.036-1.1324,7.1215-2.6681,.8148-.5999,1.2231-1.6269,.6731-2.5671-.4701-.8038-1.7465-1.2773-2.5671-.6731-1.6874,1.2425-3.6687,2.0678-5.7052,2.1951-.3,.0188-.6043,.0338-.9049,.0175l-.213-.0148c.1504,.0045,.111-.0161-.1183-.0618-.0098-.0104,.2565,.2006,.2336,.1888-.1079-.0557-.0651-.2128-.0561-.2991-.0329,.3158,.1145-.4312,.075-.3259,.0392-.1043,.2111-.4042,.3116-.5626,.2307-.3636,.4386-.6083,.787-.9897,1.4188-1.5533,3.1306-2.8735,4.1723-4.7402,.6587-1.1804,1.0339-2.5262,.7796-3.8769-.2531-1.3444-1.1459-2.2419-2.1894-3.0408-.8052-.6165-2.1004-.1248-2.5671,.6731-.5651,.9662-.1341,1.9491,.6731,2.5671h0Z"/><path d="M752.4918,259.3236c-4.6044,12.0374-4.2622,24.7425-.4816,36.9502,3.7393,12.0743,10.0023,23.1618,15.1948,34.6311,2.5668,5.6697,4.7042,11.3779,5.7452,17.5372s1.0837,12.4925,.66,18.7127c-.8937,13.1203-4.0783,25.9955-7.4893,38.654-7.2968,27.0793-14.2119,54.2412-19.6341,81.7712-5.772,29.3059-9.8119,59.1564-9.2552,89.0832,.9593,51.5639,17.1073,105.4533,56.6404,140.7152,9.9227,8.8506,20.9619,15.5904,32.9467,21.2776,6.1554,2.921,12.3857,5.683,18.4783,8.7355,5.228,2.6194,10.6825,4.7975,15.8107,7.6136,5.7698,3.1683,9.5534,7.0751,13.1569,12.5452,3.9955,6.0652,7.5009,12.4365,10.955,18.8201,2.9624,5.4749,5.657,11.5195,11.0119,15.1003,5.0823,3.3985,11.5303,2.9919,16.5725-.2784,5.3516-3.4708,8.2915-9.1792,10.5183-14.9648,2.631-6.8362,4.6581-13.923,6.296-21.0581,3.3089-14.4147,4.923-29.1924,5.6897-43.9457,.4886-9.4025,.5574-19.6177-5.7327-27.2914-6.8254-8.3268-18.3594-9.6982-27.1767-15.0498-5.4207-3.2901-10.195-7.4172-14.3565-12.1935-2.384-2.7362-6.3513,1.2588-3.9802,3.9802,4.0803,4.683,8.7961,8.7768,14.0164,12.1473,5.2197,3.3701,10.7912,5.4736,16.5419,7.7041,8.1039,3.1431,13.5722,8.5931,14.8797,17.3575,.8053,5.3979,.3357,10.969,.0087,16.3847-.4335,7.1781-1.0685,14.3524-2.0539,21.477-1.9155,13.8489-4.7822,28.3185-10.4513,41.1748-2.3433,5.3142-6.7375,11.7609-13.3702,11.3587-6.3704-.3863-9.5339-7.2973-12.1529-12.1502-3.2899-6.0962-6.5749-12.2027-10.232-18.0894-3.1896-5.1342-6.4295-10.296-11.2836-14.0107-4.4882-3.4346-9.6412-5.7931-14.756-8.1268-5.5415-2.5284-10.9602-5.3096-16.4839-7.8776-12.2326-5.687-24.4483-11.2953-35.0795-19.7391-39.6172-31.4662-57.6849-82.2241-60.4082-131.4163-1.6063-29.0153,1.4643-58.0852,6.5764-86.6258,4.8847-27.2713,11.1459-54.4675,18.5051-81.1776,6.4408-23.3769,14.3766-48.4617,9.9165-72.9285-2.1371-11.7236-8.2228-22.375-13.287-33.0263-5.0725-10.6689-9.9779-21.9598-10.3178-33.9538-.1792-6.3244,1.0342-12.4353,3.2893-18.331,1.2953-3.3863-4.1445-4.8513-5.4278-1.4964h0Z"/><path d="M756.2909,361.7324c-3.6962,3.8087-9.2586,5.6031-14.5781,6.1841-6.4306,.7024-12.9555,.1622-19.1963-1.0293-5.7476-1.0973-11.5216-2.6698-16.8387-5.147-6.8124-3.1738-12.9355-7.6027-18.25-12.9018-11.4014-11.3681-18.633-26.0494-22.8247-41.4654-4.844-17.8148-6.095-36.544-6.2476-54.9362-.1589-19.1487,1.4465-38.2505,4.4358-57.1583,1.4304-9.0473,3.1977-18.0496,5.5326-26.9094,2.3815-9.0367,5.5767-17.755,8.9194-26.4719,1.6767-4.3725,3.3967-8.7312,5.2937-13.0137,1.6964-3.8296,3.5472-7.7732,6.2127-11.0387,4.1133-5.0391,9.7308-8.4856,15.7555-10.8147,6.4366-2.4884,13.2135-3.9629,19.9607-5.3261,3.2868-.6641,6.5805-1.2957,9.8571-2.0094,2.7695-.6032,5.6455-1.6959,7.7166,.8112,1.6996,2.0574,1.2724,5.1736-.8807,6.6833-.8295,.5816-1.7913,.7591-2.7548,.9915-3.2806,.7914-6.5611,1.5828-9.8417,2.3742-8.2622,1.9932-16.5245,3.9863-24.7867,5.9795-.544,.1312-1.0881,.2625-1.6321,.3937-3.5198,.8491-2.0294,6.2783,1.4964,5.4278,6.9587-1.6787,13.9174-3.3574,20.8761-5.0361,4.285-1.0337,8.5699-2.0674,12.8549-3.1011,3.6429-.8788,7.0637-1.5947,9.4579-4.8823,2.377-3.2639,2.527-8.0034,.2886-11.3867-2.3538-3.5578-6.5009-5.281-10.6826-4.5001-3.3442,.6245-6.6605,1.4673-9.9995,2.1334-3.5594,.7101-7.1211,1.4133-10.6569,2.2349-7.0234,1.632-14.0718,3.743-20.3799,7.3108-6.9979,3.9579-12.2224,9.7056-15.8269,16.8706-4.4591,8.864-7.7918,18.3553-11.2536,27.6397-3.3563,9.0014-5.8932,18.2938-7.9119,27.6806-4.155,19.3204-6.6064,39.1708-7.4144,58.9116-.8099,19.7863-.174,39.9334,3.2664,59.4681,3.0698,17.4305,9.0574,34.6396,19.9298,48.789,9.3926,12.2236,21.8381,21.5401,36.7184,25.8792,6.4884,1.892,13.2515,3.0844,20.0055,3.4036,6.7863,.3207,13.782-.317,20.0612-3.0535,2.7197-1.1853,5.2288-2.8725,7.2981-5.0047,2.5241-2.6009-1.4518-6.5855-3.9802-3.9802h0Z"/><path d="M727.5698,209.6095c-2.594,4.0352-2.8655,9.9067-3.4296,14.5151-.8553,6.988-1.3042,14.0371-1.5124,21.0726-.0825,2.7883-.1354,5.5832-.0531,8.3722,.0273,.9228,.0616,1.8477,.1521,2.7669,.1182,1.1998,.1709,4.9207,1.053,5.7305,.5968,.5478-.0654,.3984,.2851-1.036,.1359-.5561,.3368-1.0672,.5515-1.596,.4901-1.2074,1.1428-2.3617,1.8244-3.4697,1.4334-2.3301,3.1643-4.4494,5.0312-6.4436,3.4255-3.6592,7.3082-6.8403,11.2543-9.9154,4.2236-3.2913,8.5488-6.512,12.2537-10.4006,1.6545-1.7365,3.185-3.6098,4.5276-5.5984,.7569-1.1212,1.4429-2.2842,2.048-3.4939,.3888-.7772,.9782-3.1345,1.9056-3.4267-1.154-.6552-2.308-1.3105-3.4621-1.9657l.1243,.6815,.2837-2.1687c-.7589,1.3544-7.9476-.535-9.1819-.8847-3.2563-.9226-6.3637-2.4243-9.0797-4.4516-4.9111-3.6657-8.3739-9.1766-10.5586-14.8288-4.7881-12.3877-3.7964-25.973,2.4515-37.6742,5.1577-9.6595,13.2885-17.2083,24.0727-19.8825,9.331-2.3138,19.4057-.6733,27.5774,4.3647,10.4799,6.4611,16.177,18.1226,19.3848,29.6301,1.8281,6.5578,2.871,13.2999,3.6242,20.0568,.5044,4.5254-.4127,11.8212,4.4385,14.2136,3.7961,1.872,8.7828,1.0323,12.7958,.5115,5.1431-.6674,10.2696-1.0283,15.4509-1.3195,12.2207-.6868,24.5649-1.0369,36.7375,.5123,26.0213,3.3117,48.583,17.0956,65.3563,37.0176,17.0615,20.2643,29.7471,48.1675,28.6439,75.0381-.9131,22.2415-15.2604,45.6139-36.5919,53.6829-25.3569,9.5917-50.8784-7.2926-66.8696-25.8952-8.4558-9.8366-15.3382-20.9358-21.5684-32.2802-5.8153-10.5889-10.2411-21.8068-19.9475-29.5495-10.9451-8.7308-25.2649-10.9369-37.8338-16.4162-5.3049-2.3126-3.278-9.3845,2.4267-8.9294,2.9205,.233,3.6396-3.8657,1.4205-5.2446-4.6407-2.8835-1.9156-9.741,3.4691-8.4841,2.9769,.6948,5.1369-3.6526,2.1687-5.144-4.7807-2.4022-3.449-8.3355,1.7001-9.0589,3.0291-.4256,2.2878-4.5925,0-5.4278-3.8-1.3874-7.5964-2.7849-11.3932-4.1809-3.5345-1.2995-10.706-2.4179-9.9146-7.5838,.8453-5.5181,6.2109-3.6536,9.638-2.3956,9.8231,3.6055,19.6463,7.2111,29.4694,10.8166,3.3454,1.2279,6.6942,2.4471,10.0364,3.6838,7.3049,2.7031,14.021,6.7013,20.4449,11.0668,15.747,10.7012,31.1036,22.615,43.9069,36.7698,11.9615,13.2241,21.5919,28.5542,27.7979,45.297,7.5054,20.2484,11.1466,42.3723,13.0567,63.8081,1.9868,22.2973,1.5716,44.8144-1.2899,67.0178-2.9254,22.6991-8.4819,44.9883-14.6233,67.0031-12.1009,43.3776-25.6905,86.3312-35.7205,130.2651-9.9311,43.501-16.535,88.0521-15.3094,132.7733,.2498,9.1147,2.8332,21.7274-4.1304,29.0631-5.6724,5.9753-15.1992,6.1266-22.8454,6.371-11.7481,.3755-23.4966,.7418-35.2449,1.1126-9.5859,.3026-19.839,1.7018-29.3556,.0335-7.5621-1.3256-15.1505-5.6018-13.9464-14.4498,.6526-4.795,3.4812-9.0564,5.9315-13.1105,2.4473-4.0492,4.6368-8.1644,6.2584-12.6189,7.2046-19.7904,5.1849-42.4818,5.0416-63.1504-.3235-46.6642-1.376-93.4354,2.6366-139.9858,3.6196-41.991,11.5378-84.0762,27.6414-123.183,3.9668-9.6333,8.4947-19.0297,13.5105-28.1597,1.7452-3.1767-3.1138-6.0201-4.8603-2.841-21.418,38.9861-32.9249,82.5206-38.8544,126.3925-6.4716,47.883-6.3139,96.3057-5.8971,144.525,.1072,12.3997,.2318,24.7993,.2642,37.1995,.0295,11.2718,.2838,22.6987-1.455,33.8715-.789,5.0696-1.9925,10.1061-3.8524,14.8947-1.9404,4.996-4.9176,9.381-7.5511,14.0152-4.291,7.551-6.9551,16.9044-1.0001,24.3848,4.7309,5.9426,12.7961,7.7791,20.0101,8.3055,10.8154,.7892,21.9651-.3833,32.7929-.7252,11.5321-.3641,23.2095-.2245,34.7056-1.2252,8.0497-.7007,16.584-2.7998,21.6671-9.606,6.1995-8.3012,4.5322-19.5163,4.2191-29.1835-.3801-11.7353-.2232-23.4858,.4021-35.2099,1.2753-23.9119,4.5157-47.6733,9.0084-71.1835,8.9128-46.6405,22.5952-92.173,35.8254-137.7213,6.6951-23.0495,13.2577-46.1933,17.5606-69.8307,4.2623-23.4149,6.0605-47.2176,5.0213-71.0035-1.8221-41.7038-10.0123-85.1703-36.3229-118.693-11.9314-15.202-26.6199-27.2941-42.0218-38.7948-8.759-6.5404-17.7774-12.9984-27.8777-17.3176-3.0638-1.3102-6.2213-2.4018-9.3483-3.5496-10.5394-3.8684-21.0788-7.7369-31.6181-11.6053-2.8738-1.0548-6.1301-2.7281-9.2572-2.7073-8.4196,.0561-13.1579,10.2207-7.8524,16.7136,2.6135,3.1984,7.0495,4.13,10.7638,5.4957,4.1442,1.5237,8.2877,3.0497,12.4354,4.5641v-5.4278c-10.0232,1.4082-11.9299,14.8825-3.0447,19.347,.7229-1.7147,1.4458-3.4294,2.1687-5.144-11.5629-2.6989-17.9288,12.4828-7.8065,18.7722l1.4205-5.2446c-5.9903-.4779-11.345,4.1712-11.277,10.3035,.0518,4.6721,3.195,8.0803,7.354,9.6824,6.7103,2.5849,13.529,4.9171,20.2874,7.3734,9.3724,3.4064,17.7179,8.1329,23.5582,16.5395,3.9814,5.7308,6.7171,12.3978,10.0531,18.5176,3.3794,6.1994,6.9452,12.3016,10.8392,18.1934,15.2467,23.0686,37.6343,45.4971,67.024,46.3686,25.3033,.7503,46.0801-19.6505,54.3598-42.1809,10.0627-27.3822-.3626-59.2472-15.0335-82.999-14.6243-23.6764-37.0121-43.4111-64.0892-51.1623-12.9472-3.7063-26.5252-4.5856-39.9326-4.3489-7.1019,.1254-14.1948,.5463-21.2811,1.0152-5.0558,.3345-10.1138,1.5677-15.1923,1.3824-.7866-.0287-2.0886,.0447-2.7387-.4502-.806-.6136-.6467-2.3843-.7429-3.3798-.3598-3.7239-.7554-7.4439-1.2544-11.1519-1.0142-7.5357-2.4693-15.0261-5.0802-22.187-4.2289-11.5987-11.0557-22.3283-22.2087-28.2513-9.5356-5.064-20.9607-6.3259-31.3389-3.2753-11.4333,3.3607-20.3126,11.6467-25.8639,22.0434-6.5095,12.1912-8.1601,26.4136-3.8699,39.614,4.2186,12.9801,13.6769,23.8935,27.6074,26.3342,4.274,.7488,13.7861,1.7152,12.5113-5.2773-.2662-1.4601-2.1098-2.3918-3.4621-1.9657-2.0799,.6554-3.2972,1.9781-4.2837,3.8895-1.4254,2.762-2.6986,5.418-4.6914,7.8453-3.615,4.403-8.1773,7.9234-12.6521,11.3978-4.6326,3.5969-9.2446,7.2346-13.2269,11.5638-3.6493,3.9673-8.1373,9.3581-8.689,14.946-.4278,4.3332,3.224,9.1499,7.9388,7.2197,5.2289-2.1407,2.3841-8.0578,1.966-12.1073-.721-6.9848-.0322-14.3246,.454-21.3005,.3164-4.5391,.7061-9.0904,1.4021-13.589,.4278-2.7648,.7463-6.3385,2.2474-8.6737,1.9646-3.0561-2.9057-5.8817-4.8603-2.841h0Z"/><path d="M799.1079,228.2505c6.1795,2.0728,12.3589,4.1455,18.5384,6.2183,.875,.2935,1.75,.587,2.625,.8805,1.4409,.4833,3.0752-.5576,3.4621-1.9657,.4221-1.5363-.5194-2.9769-1.9657-3.4621-6.1795-2.0728-12.3589-4.1455-18.5384-6.2183-.875-.2935-1.75-.587-2.625-.8805-1.4409-.4833-3.0752,.5576-3.4621,1.9657-.4221,1.5363,.5194,2.9769,1.9657,3.4621h0Z"/><path d="M795.9726,242.2844c6.1795,2.0728,12.3589,4.1455,18.5384,6.2183,.875,.2935,1.75,.587,2.625,.8805,1.4409,.4833,3.0752-.5576,3.4621-1.9657,.4221-1.5363-.5194-2.9769-1.9657-3.4621-6.1795-2.0728-12.3589-4.1455-18.5384-6.2183-.875-.2935-1.75-.587-2.625-.8805-1.4409-.4833-3.0752,.5576-3.4621,1.9657-.4221,1.5363,.5194,2.9769,1.9657,3.4621h0Z"/><path d="M790.0834,255.6761c6.1795,2.0728,12.3589,4.1455,18.5384,6.2183,.875,.2935,1.75,.587,2.625,.8805,1.4409,.4833,3.0752-.5576,3.4621-1.9657,.4221-1.5363-.5194-2.9769-1.9657-3.4621-6.1795-2.0728-12.3589-4.1455-18.5384-6.2183-.875-.2935-1.75-.587-2.625-.8805-1.4409-.4833-3.0752,.5576-3.4621,1.9657-.4221,1.5363,.5194,2.9769,1.9657,3.4621h0Z"/><g><path d="M738.8472,153.4887c3.7535,2.3853,8.6262,4.1236,12.5492,2.0287,3.7776-2.0173,4.7123-6.2705,6.0785-9.9363,1.4213,1.4105,1.8028,3.1768,2.926,4.7379,1.5218,2.1151,4.1975,3.5424,6.4576,4.7123,2.0711,1.0721,4.2895,2.0386,6.6216,2.0349s4.8032-1.2067,5.6495-3.3798c1.8969,6.9478,3.6161,13.9442,5.1552,20.98-1.0111-3.1937-.7114-6.6439-.2291-9.959,.5002-3.4382,1.41-7.2065,4.2819-9.162,3.0842-2.1,7.6044-1.1604,10.1693,1.5494s3.3558,6.7507,2.8121,10.442c-.3486,2.367-1.1931,4.6185-2.2406,6.7588-.4264,.8712-1.8863,2.5617-1.9183,3.4865-.0194,.5617,.962,1.9709,1.2277,2.5636,1.9715,4.3977,6.1258,4.1966,10.2295,2.1627-2.307,1.1434,2.6891,8.7046,4.4528,9.3389,4.0744,1.4653,9.2343-2.5069,11.2019-5.6901,2.7007-4.3693,3.0717-9.7454,3.2223-14.8798,.4901-16.7044-1.2023-32.1863-12.6855-45.3389-9.5783-10.9708-23.8801-17.6698-38.44-18.0055-7.9804-.184-15.8969,1.4481-23.5922,3.5703-7.6769,2.1172-15.4907,4.8935-21.1905,10.455-4.3867,4.2802-8.867,12.9174-6.1497,19.1848,2.0415,4.7085,9.1238,9.6216,13.4105,12.3457Z"/><path d="M737.4267,155.9188c4.5576,2.846,10.5141,4.769,15.5486,1.9395,4.3144-2.4247,5.6223-7.2047,7.2134-11.5291-1.568,.414-3.136,.8279-4.704,1.2419,.842,.8949,1.2612,2.0793,1.8485,3.142,.6428,1.163,1.4883,2.2412,2.4837,3.123,1.997,1.769,4.3975,3.0817,6.8013,4.2115,2.7377,1.2867,5.6183,2.1657,8.6629,1.6506,2.608-.4413,5.2002-2.1175,6.2786-4.5914-1.7147-.2241-3.4294-.4482-5.144-.6723,1.8931,6.9495,3.6119,13.9445,5.1552,20.98,1.8093-.4988,3.6185-.9976,5.4278-1.4964-.7618-2.5638-.6461-5.2176-.3128-7.8481,.249-1.9653,.5737-4.1249,1.4147-5.8973,.7319-1.5426,1.9993-2.7425,3.4456-2.9299,1.6838-.2182,3.4794,.389,4.7245,1.5932,3.2958,3.1877,2.6634,8.3793,1.1712,12.2564-.3636,.9448-.7939,1.8504-1.3548,2.6931-.5839,.8772-1.2576,1.7784-1.5469,2.8097-.5918,2.1097,.7497,4.0729,1.756,5.8441,1.2347,2.1732,3.3171,3.7556,5.805,4.1315,2.7948,.4222,5.4414-.4264,7.9366-1.6324l-2.841-4.8603c-2.9919,1.7311-1.9531,5.4115-.7333,7.9048,1.0625,2.1717,2.7165,4.8825,4.8704,6.131,3.2619,1.8906,7.5929,.4742,10.4485-1.5185,3.3736-2.3541,5.6325-5.5288,6.9244-9.4288,1.3462-4.0638,1.5183-8.465,1.6243-12.7098,.1003-4.0174,.0712-8.0424-.2244-12.0516-.5886-7.9819-2.2339-15.8321-5.7152-23.0768-7.083-14.7401-21.5777-25.4367-37.4396-28.9188-8.9672-1.9686-18.0656-1.4297-27.0036,.4374-8.3944,1.7535-17.2926,4.0801-24.6301,8.6698-6.5782,4.1148-12.105,10.8044-13.2798,18.6712-.578,3.8708,.0677,7.6474,2.4404,10.8264,2.3907,3.203,5.5062,5.7319,8.7284,8.0582,1.376,.9934,2.7885,1.9343,4.2194,2.8464,3.0637,1.9527,5.8902-2.9168,2.841-4.8603-2.6279-1.675-5.2132-3.4379-7.5633-5.4908-2.2089-1.9294-4.4605-4.1121-5.094-6.8134-.6083-2.5936,.2091-5.7351,1.4157-8.2711,1.3822-2.905,3.1993-5.3937,5.6053-7.5114,5.4568-4.8026,12.7044-7.0772,19.587-8.9444,7.9927-2.1684,16.2123-3.7552,24.5302-3.1689,13.8272,.9747,27.2379,8.1103,35.7298,19.0722,8.7397,11.2818,10.4989,25.4486,10.2505,39.2988-.065,3.6242-.1049,7.3196-.9912,10.8546-.7748,3.0904-2.0866,5.585-4.5055,7.4426-1.1088,.8515-2.4852,1.5892-3.6693,1.7827-.0535,.0087-.5445,.0368-.7611,.0332-.5-.0084-.2991-.0225-.6757-.1097-.7606-.1762,.3398,.1783,.049,.0205-.293-.1591,.4046,.436,.0098-.0098-.3003-.3392-.6291-.6525-.9258-.9974-.2918-.3391,.1255,.2051-.2344-.3036-.1752-.2477-.3508-.4947-.5179-.748-.3161-.4794-.6126-.9719-.8854-1.4771-.1429-.2646-.2755-.5338-.407-.8042-.2077-.4273,.0539,.259-.1322-.3284-.0768-.2424-.1538-.4829-.2225-.7279-.1124-.4007,.0064-.4332-.0199,.0007,.0371-.6104-.0428,.0793-.0362,.0522-.0417,.1716-.3953,.8143-.7656,1.0285,1.3147-.7607,1.7745-2.543,1.0097-3.8507-.8176-1.3979-2.4772-1.6735-3.8507-1.0097-.832,.4021-1.6957,.7149-2.622,.9092-.315,.0661-.5801,.0949-1.129,.0933-.5252-.0015-.3008,.0019-.1398,.0227-.2835-.0366-.5745-.1113-.8448-.2062,.3909,.1373-.7489-.4991-.5209-.306-.3125-.2647-.4109-.3997-.6009-.6855-.1216-.1828-1.4047-2.6994-1.4558-2.6751,.0547-.0261,.0778,.6244,.0876,.7063,.0353,.2944-.2665,.4588,.0876,.0541,.2767-.3163,.4735-.7482,.7095-1.1001,.7352-1.096,1.2617-2.252,1.7669-3.4732,1.0742-2.5968,1.7777-5.3757,1.7603-8.202-.0333-5.4289-2.7231-10.7273-7.9145-12.8178-4.9317-1.9859-10.4622-.1054-12.9795,4.6178-1.3012,2.4413-1.8161,5.1392-2.1859,7.8507-.4817,3.5317-.6732,7.0867,.3553,10.5482,1.0357,3.4857,6.2026,2.0356,5.4278-1.4964-1.5434-7.0355-3.2622-14.0304-5.1552-20.98-.5827-2.1392-4.1377-2.9808-5.144-.6723-1.577,3.6176-6.3306,1.4417-9.0762-.0064-1.6836-.888-3.5495-1.8307-4.7674-3.3446-.5832-.7249-.9504-1.6188-1.376-2.4418-.5453-1.0544-1.1992-2.0151-2.0148-2.8821-1.5557-1.6536-4.0084-.6486-4.704,1.2419-1.0322,2.8053-1.7678,6.3947-4.3164,7.9816-3.2316,2.0121-7.3198,.0282-10.1768-1.7559-3.0814-1.9242-5.9102,2.9437-2.841,4.8603Z"/></g><g><path d="M740.1177,116.834c-.0657-.3114-.1154-.6262-.1484-.9428-.0632-.6069-.2549-3.2023,.3721-3.5736-6.1815,3.6602-11.7705,8.3186-16.4842,13.7397-1.0754,1.2368-1.9317,2.5493-3.0117,3.7778-1.1597,1.3192-2.2276,2.7235-3.1895,4.1931-1.8228,2.7848-3.2628,5.8305-4.1483,9.0429-.8917,3.235-1.207,6.6221-.864,9.9628,.1776,1.7296,.5285,3.44,1.0377,5.1023,.392,1.2798,.92,3.7285,1.9006,4.6762-3.4772-3.3607-9.7081-2.2177-12.8828,1.4301-3.1748,3.6478-3.7973,8.9188-3.1515,13.7114,.4285,3.1797,1.4047,6.3947,3.5131,8.8132s5.5296,3.8734,8.613,2.9865c-1.0895,4.3004,2.0146,9.1924,6.3694,10.0383,12.7688,2.4803,6.8474-19.6097,7.9491-27.0278,1.8712-12.5992,6.7086-26.4096,17.9348-33.6179,3.8889-4.5196,2.7256-9.4621,.3769-14.3448-.8781-1.8255-2.0365-3.3571-3.063-5.0892-.5272-.8895-.9096-1.8661-1.1231-2.8782Z"/><path d="M742.8315,116.0858c-.0928-.5038-.1167-1.0148-.1231-1.5284-.0038-.3054,.056-.6434,.0232-.944-.0569,.3236-.0553,.3332,.0047,.029-.0989,.2433-.2339,.465-.4048,.6653,2.4526-2.1028-.7058-6.0336-3.4106-4.4203-7.4293,4.4315-13.9031,10.1291-19.2228,16.937-1.4147,1.8104-2.9446,3.5036-4.2296,5.4174-1.2135,1.8074-2.2492,3.7198-3.1071,5.7201-1.8215,4.2472-2.8331,8.8369-2.6452,13.475,.1062,2.6226,.5991,5.1853,1.3264,7.7006,.5803,2.0071,1.1,4.0861,2.5492,5.6651,1.3267-1.3267,2.6535-2.6535,3.9802-3.9802-5.7988-5.3397-14.9659-2.4789-18.6517,3.8934-2.0133,3.4807-2.6428,7.7005-2.3505,11.6697,.2974,4.0378,1.2731,8.2003,3.7769,11.4662,2.8194,3.6775,7.466,5.8033,12.0751,4.6158-1.154-1.154-2.308-2.308-3.4621-3.4621-1.0729,4.6976,1.0382,9.5849,5.0852,12.1723,2.8828,1.8431,7.0762,2.2646,10.124,.5622,5.2381-2.9257,5.2076-10.5125,5.0362-15.6937-.0958-2.8962-.3609-5.7829-.4898-8.6774-.0519-1.1664-.0892-2.3395-.0178-3.506,.0144-.2351,.0725-.4927,.0611-.7257-.0201-.4111-.1816,1.1205,.0007,.0215,.0391-.2359,.0732-.4728,.1112-.7089,.1729-1.0741,.3665-2.1449,.5819-3.2112,1.7048-8.4396,4.7752-17.0775,10.8169-23.4194,.8398-.8815,1.729-1.7165,2.6649-2.4954,.9939-.8271,2.2458-1.4396,3.1312-2.3665,2.1089-2.2075,3.2285-5.4479,3.2126-8.4672-.0155-2.9266-.9914-5.705-2.1834-8.3379-1.2449-2.7497-3.5654-5.1095-4.2628-8.0664-.8313-3.5242-6.2601-2.0322-5.4278,1.4964,.626,2.6541,2.2226,4.7279,3.5917,7.0237,1.1588,1.9432,2.0981,4.1063,2.5143,6.3405,.3341,1.7936,.0963,3.5823-.84,5.1564-.1477,.2483-.303,.4912-.4725,.7252-.3873,.5349,.284-.1681-.1588,.1954-.4251,.3489-.9189,.6349-1.3609,.9661-.9268,.6943-1.8325,1.4177-2.6913,2.1949-6.3304,5.7285-10.2348,13.7326-12.5684,21.8317-1.0589,3.6751-1.9672,7.5383-2.3123,11.355-.2091,2.3123,.0032,4.6652,.1531,6.9747,.1795,2.7665,.3804,5.5369,.3526,8.3111-.0064,.6426-.0252,1.2851-.0626,1.9267-.0181,.3108-.0403,.6214-.0679,.9315-.0169,.1897-.0419,.3792-.0563,.5691-.042,.5566,.0555-.3201,.0016,.0285-.1743,1.1272-.4336,2.2064-.8259,3.2775,.2762-.754-.0779,.1263-.189,.3239-.1297,.2305-.2862,.4403-.4243,.6646-.1866,.3033,.3876-.3985,.1223-.1686-.1038,.09-.188,.21-.2868,.3073-.0768,.0757-.1718,.1467-.2449,.2268-.352,.3851,.4838-.2369,.0379-.0384-.2274,.1013-1.0231,.4258-.235,.1813-.2538,.0787-.5222,.1461-.7723,.2325-.0993,.0343-.5219,.1009-.0916,.0319,.4651-.0745-.1117,.0071-.2153,.0091-.3583,.0067-.7155-.0207-1.0726-.0179-.1249,.001-.5455-.0711,.0508,.0196-.218-.0332-.435-.0716-.6502-.1198-.2788-.0624-.9871-.2984-1.0309-.3189-.8294-.3877-1.5095-.9597-1.976-1.5296-1.1891-1.4525-1.5752-3.2013-1.2347-4.6923,.4775-2.0906-1.3236-4.013-3.4621-3.4621-3.0685,.7906-5.8559-1.6186-7.1872-4.3462-1.5116-3.0969-1.9182-7.0767-1.4728-10.4678,.3998-3.0442,1.8178-6.157,4.4242-7.6284,2.2537-1.2723,5.1452-1.4126,6.9023,.2054,2.6698,2.4585,6.4342-1.3064,3.9802-3.9802,.2665,.2904-.1459-.2402-.2155-.3809-.1352-.2736-.174-.4173-.287-.7584-.2369-.7154-.4259-1.4453-.6367-2.1685-.5609-1.924-.9796-3.8434-1.0785-5.8493-.19-3.8543,.5279-7.7098,2.0389-11.2614,1.508-3.5448,3.7712-6.4497,6.1486-9.4277,2.4528-3.0725,4.9618-5.9728,7.8832-8.6207,3.1841-2.8861,6.6474-5.4068,10.337-7.6077-1.1369-1.4734-2.2737-2.9468-3.4106-4.4203-1.867,1.6007-1.3393,5.127-.9475,7.2547,.2754,1.4958,2.0877,2.3434,3.4621,1.9657,1.5716-.4319,2.2419-1.962,1.9657-3.4621Z"/></g><path d="M748.1152,194.2151c.1706,1.2249,.6608,2.7759,1.9859,3.1516,.9454,.268,1.8993-.1806,2.549-.8539,.4789-.4963,.8666-1.0979,1.223-1.6866,.1385-.2287,.272-.4604,.4085-.6902,.0558-.0939,.1112-.1881,.1694-.2805,.0242-.0385,.0503-.0764,.0739-.1153,.1406-.2321,.0759,.0936-.1703,.2113,.1422-.068,.2996-.3238,.4201-.4368,.1017-.0953,.5426-.3922,.2067-.1875,.1729-.1054,.3347-.2267,.5113-.3273,.088-.0502,.1791-.0941,.2677-.143,.31-.1711-.1716,.0464,.0372-.0254,.3098-.1066,.7627-.3328,1.0953-.2982-.3796-.0395-.236,.0204-.1067,.0231,.0818,.0017,.1646-.0061,.2467-.0049,.0837,.0012,.1658,.0089,.2491,.0122,.4084,.0163-.3942-.1105-.0028,.0079,.0356,.0108,.4817,.1138,.4768,.1412-.0058,.0319-.422-.2302-.1149-.0406,.0653,.0403,.1392,.0837,.2061,.119,.2404,.1268-.1246,.0272-.1007-.0853-.0038,.0177,.1884,.1504,.1624,.1581-.0505,.015-.2266-.4065-.0912-.1139,.1397,.3019-.1042-.3189-.0269-.0948,.0251,.0726,.1232,.3106,.0252,.0318-.136-.3869,.0244,.2465,.0007-.0967-.0172-.2488-.023,.0087-.035,.0946-.0338,.2426,.1641-.2646,.0268-.0561-.1076,.1634-.1945,.337-.3086,.4977-.0336,.0473-.2294,.2994-.0799,.111,.1605-.2022-.106,.128-.1367,.1665-.763,.9558-1.3203,1.8768-1.4052,3.1283-.0783,1.1556,.4974,2.4532,1.5914,2.9515,.8912,.406,2.0611,.2845,2.5671-.6731,.435-.8233,.2805-2.1327-.6731-2.5671,.0072,.0033-.1827-.103-.1939-.1008,.1145-.0221,.3307,.2911,.3907,.3822-.0753-.1143-.0891-.277,.0627,.1681-.0751-.2201,.0963-.0139,.0071,.1809,.0126-.0275-.005-.2127-.0059-.226-.0182-.2644,.1127,.0744-.0292,.1489,.0333-.0175,.0936-.4811,.1282-.4652,.0764,.0349-.1974,.363-.0423,.1182,.0419-.0662,.0762-.1372,.1187-.2033,.0476-.074,.1016-.1425,.1526-.214-.0385,.0539-.2358,.2958-.0154,.0249,.3214-.3951,.6533-.7918,.9293-1.2207,1.2063-1.8749,.7008-4.2824-1.2786-5.376-1.7502-.967-3.7575-.7494-5.5154,.0586-1.3961,.6417-2.4325,1.7072-3.1997,3.0098-.1622,.2753-.3251,.5503-.4986,.8187-.0876,.1354-.181,.2663-.2711,.3999-.1182,.1751-.097-.0196,.1091-.1361-.0576,.0326-.1097,.1328-.1539,.1814-.0396,.0436-.0843,.0835-.1225,.1281-.1923,.2244,.0943-.0665,.1686-.1136-.0394,.0249-.076,.0507-.1177,.0724l.3333-.1418c.3837-.1209,.7278-.0243,1.0322,.2898l.6448,.3369c.0685,.1678,.0789,.1889,.0312,.0632-.0374-.133-.0914-.2621-.1293-.3956-.0759-.2679-.1266-.5396-.165-.8152-.1359-.9757-1.431-1.5943-2.308-1.3105-1.0707,.3465-1.4561,1.2623-1.3105,2.308h0Z"/><g><path d="M758.9128,193.1137c.2794-.8119,.0769-1.7021-.7654-2.0795-.5904-.2645-1.2689-.2183-1.9109-.1384-1.0414,.1295-2.2234,.4444-2.6664,1.3957,1.1329,.1502,1.9351-.5843,3.0434,.196,.6718,.473,1.1112,1.2073,1.4549,1.9536,.3481-.3967,.6726-.8284,.8444-1.3275Z"/><path d="M760.7221,193.6124c.3229-.9895,.2416-2.2309-.3856-3.09-.4526-.62-.981-1.0104-1.6903-1.2975-.5206-.2107-1.1075-.278-1.667-.2667-1.8352,.037-4.144,.5841-5.0292,2.3863-.3018,.6144-.3578,1.2826,0,1.894,.1668,.2819,.3912,.5063,.6731,.6731,.2926,.1697,.6083,.2551,.947,.2562,.6947,.0791,1.3825-.1146,2.0667-.2103l-.4988,.067c.1998-.0243,.3959-.0328,.5965-.0133l-.4988-.067c.1621,.0227,.3137,.0629,.4665,.1221l-.4482-.1891c.1991,.0881,.376,.1993,.5482,.332l-.3797-.2934c.2197,.1792,.4124,.3804,.5886,.6022l-.2934-.3797c.2945,.3864,.5261,.8103,.7306,1.2499,.4918,1.0569,2.2015,1.2369,2.9468,.3797,.58-.667,1.0242-1.3229,1.3269-2.1554,.1585-.436,.0379-1.0579-.1891-1.4458-.2278-.3892-.674-.7604-1.1213-.8623-.4803-.1094-1.0194-.0857-1.4458,.1891-.4293,.2768-.6875,.6406-.8623,1.1213-.0191,.0553-.04,.11-.0627,.1639l.1891-.4482c-.1309,.2976-.3028,.5663-.4998,.8242l.2934-.3797c-.0912,.1156-.1853,.2283-.2819,.3394l2.9468,.3797c-.4968-1.0677-1.2095-2.0409-2.2127-2.6838-.5918-.3793-1.3389-.5841-2.0415-.5637-.5472,.0158-1.0833,.1537-1.6237,.2278l.4988-.067c-.2477,.0295-.4913,.0361-.7393,.0079,.54,.9411,1.0801,1.8822,1.6201,2.8233,.0531-.1082,.1131-.2087,.1831-.3067l-.2934,.3797c.1162-.1497,.2474-.2779,.397-.394l-.3797,.2934c.1762-.128,.3636-.2316,.5624-.32l-.4482,.1891c.4638-.1944,.9543-.2979,1.451-.3656l-.4988,.067c.4556-.0584,.9108-.0981,1.3686-.0421l-.4988-.067c.2145,.0335,.4148,.087,.6152,.1712l-.4482-.1891c.1146,.0545,.22,.1164,.3223,.1914l-.3797-.2934c.0913,.0742,.1718,.1533,.2467,.2439l-.2934-.3797c.0816,.109,.1465,.222,.2002,.3473l-.1891-.4482c.048,.1276,.0801,.2552,.1001,.3901l-.067-.4988c.0175,.1636,.0155,.3219-.0034,.4853l.067-.4988c-.0218,.1442-.0552,.2828-.1004,.4215-.3046,.9336,.3542,2.0902,1.3105,2.308,1.0303,.2347,1.9819-.3109,2.308-1.3105Z"/></g><path d="M748.3056,171.7587c.2409-.2741,.4956-.534,.7697-.775,.0804-.0707,.1632-.1384,.2451-.2074,.1992-.1679,.0079,.0403-.0751,.0575,.1489-.031,.3453-.2431,.4766-.3269,.3072-.1959,.6267-.3724,.9559-.5283,.0729-.0345,.1686-.0605,.2341-.1068-.3147,.2222-.1836,.0768-.0312,.0189,.1805-.0685,.3632-.1314,.5478-.1881,.3487-.1071,.7039-.1927,1.063-.2564,.0583-.0103,.356-.0495,.0684-.0162-.3213,.0372,.1028-.0096,.1336-.0126,.1706-.0163,.3417-.0275,.513-.0337,.3873-.0141,.7687,.0087,1.1546,.0372,.2576,.0191-.021,.0138-.1165-.019,.0768,.0264,.1733,.0275,.2535,.0421,.2112,.0384,.4198,.0872,.6276,.1411,.9488,.2461,2.0807-.3124,2.308-1.3105,.2231-.9793-.294-2.0444-1.3105-2.308-3.7158-.9637-7.9214,.2367-10.4714,3.1386-.6475,.7369-.7796,1.9378,0,2.6535,.7092,.6511,1.9616,.7873,2.6535,0h0Z"/><path d="M734.4321,174.3879c.1101-.052,.2209-.1016,.333-.1491l-.4482,.1891c.5653-.231,1.1514-.389,1.7555-.477l-.4988,.067c.6661-.0885,1.3346-.0894,2.0007-.001l-.4988-.067c.4226,.0615,.8357,.1573,1.2419,.2894,.9339,.3037,2.0901-.3535,2.308-1.3105,.2345-1.0295-.3106-1.9828-1.3105-2.308-2.2459-.7304-4.6624-.4711-6.7769,.5269-.4036,.1905-.7479,.7062-.8623,1.1213-.1237,.4491-.0678,1.0472,.1891,1.4458,.2583,.4006,.6429,.7533,1.1213,.8623,.5165,.1176,.9675,.0366,1.4458-.1891h0Z"/><g><path d="M752.4542,174.2495c-1.0413-1.2208-2.6088-.6918-2.5013,.9674,.0936,1.4437,2.2512,2.652,2.9107,.8674,.2278-.6163,.017-1.3348-.4095-1.8348Z"/><path d="M753.7809,172.9228c-.2281-.263-.513-.479-.7978-.6754-.27-.1862-.5963-.3191-.905-.4137-.5653-.1732-1.2851-.1866-1.8426,.0253-.4711,.1791-.7905,.3527-1.1661,.6975-.1088,.0999-.1932,.2217-.2831,.3381-.0988,.1278-.2021,.2497-.2765,.3933-.1478,.2851-.2897,.6023-.3436,.9237-.058,.3456-.1213,.7113-.0845,1.0648,.0665,.638,.2094,1.2549,.5851,1.7916,.3673,.5247,.7803,.9614,1.3379,1.2912,.26,.1538,.5498,.2753,.8378,.3631,.0657,.02,.1322,.035,.1998,.0467,.2274,.0393,.4652,.0827,.6981,.0839,.227,.0012,.4607-.0408,.6816-.0803,.0691-.0124,.1358-.0286,.2021-.0518,.4673-.1638,.7841-.3465,1.1536-.6755,.1783-.1588,.316-.364,.4573-.5532,.0602-.0807,.1141-.1645,.1595-.2545,.2675-.5298,.4077-1.0127,.4365-1.6077,.0135-.2785-.0424-.5891-.0869-.8522-.0225-.1331-.0561-.2629-.1037-.3893-.0981-.2603-.2031-.5318-.3448-.774-.1444-.247-.3326-.4737-.5147-.6917-.1699-.183-.3712-.3123-.6038-.388-.2236-.1175-.4646-.1713-.7229-.1616-.4602,0-1.0099,.2044-1.3267,.5495-.3282,.3576-.5719,.827-.5495,1.3267l.067,.4988c.0891,.3178,.25,.5938,.4825,.8279,.0194,.0228,.0384,.0459,.0568,.0695l-.2934-.3797c.1198,.1564,.218,.3241,.2953,.5053l-.1891-.4482c.0618,.1537,.1062,.3105,.132,.4742l-.067-.4988c.0215,.1624,.0231,.3226,.0017,.4851l.067-.4988c-.0208,.1289-.0559,.2516-.1044,.3728l.1891-.4482c-.0585,.1385-.1295,.2689-.2207,.3887l.2934-.3797c-.062,.0776-.1301,.1474-.2076,.2095l.3797-.2934c-.0726,.0551-.1494,.1008-.2329,.1376l.4482-.1891c-.0895,.0368-.1811,.0613-.2769,.0749l.4988-.067c-.1058,.0125-.2106,.0113-.3163-.0014l.4988,.067c-.1377-.0194-.2696-.0573-.3982-.1099l.4482,.1891c-.1617-.0693-.3113-.1592-.4507-.2663l.3797,.2934c-.1425-.1126-.27-.2404-.3825-.383l.2934,.3797c-.1046-.1365-.1926-.2829-.2618-.4404l.1891,.4482c-.0583-.1388-.0999-.2814-.1227-.4303l.067,.4988c-.0245-.1833-.0224-.3695-.0006-.5529l-.067,.4988c.0206-.149,.0562-.2931,.1119-.4329l-.1891,.4482c.0483-.1139,.1082-.2199,.1831-.3185l-.2934,.3797c.0599-.0751,.1261-.1425,.2007-.203l-.3797,.2934c.0811-.0626,.1673-.1139,.2611-.155l-.4482,.1891c.0948-.0388,.1917-.0652,.293-.0805l-.4988,.067c.1149-.0145,.2286-.0137,.3435,.0008l-.4988-.067c.1225,.0182,.2399,.0511,.3548,.097l-.4482-.1891c.1472,.0623,.2825,.1433,.4097,.2399l-.3797-.2934c.1212,.0956,.2306,.2022,.3317,.3188,.1699,.183,.3712,.3123,.6038,.388,.2236,.1175,.4646,.1713,.7229,.1616,.4602,0,1.0099-.2044,1.3267-.5495,.3282-.3576,.5719-.827,.5495-1.3267l-.067-.4988c-.0891-.3178-.25-.5938-.4825-.8279Z"/></g><g><path d="M737.0791,178.9803c-1.0413-1.2208-2.6088-.6918-2.5013,.9674,.0936,1.4437,2.2512,2.652,2.9107,.8674,.2278-.6163,.017-1.3348-.4095-1.8348Z"/><path d="M738.4058,177.6536c-.2281-.263-.513-.479-.7978-.6754-.27-.1862-.5963-.3191-.905-.4137-.5653-.1732-1.2851-.1866-1.8426,.0253-.4711,.1791-.7905,.3527-1.1661,.6975-.1088,.0999-.1932,.2217-.2831,.3381-.0988,.1278-.2021,.2497-.2765,.3933-.1478,.2851-.2897,.6023-.3436,.9237-.058,.3456-.1213,.7113-.0845,1.0648,.0665,.638,.2094,1.2549,.5851,1.7916,.3673,.5247,.7803,.9614,1.3379,1.2912,.26,.1538,.5498,.2753,.8378,.3631,.0657,.02,.1322,.035,.1998,.0467,.2274,.0393,.4652,.0827,.6981,.0839,.227,.0012,.4607-.0408,.6816-.0803,.0691-.0124,.1358-.0286,.2021-.0518,.4673-.1638,.7841-.3465,1.1536-.6755,.1783-.1588,.316-.364,.4573-.5532,.0602-.0807,.1141-.1645,.1595-.2545,.2675-.5298,.4077-1.0127,.4365-1.6077,.0135-.2785-.0424-.5891-.0869-.8522-.0225-.1331-.0561-.2629-.1037-.3893-.0981-.2603-.2031-.5318-.3448-.774-.1444-.247-.3326-.4737-.5147-.6917-.1699-.183-.3712-.3123-.6038-.388-.2236-.1175-.4646-.1713-.7229-.1616-.4602,0-1.0099,.2044-1.3267,.5495-.3282,.3576-.5719,.827-.5495,1.3267l.067,.4988c.0891,.3178,.25,.5938,.4825,.8279,.0194,.0228,.0384,.0459,.0568,.0695l-.2934-.3797c.1198,.1564,.218,.3241,.2953,.5053l-.1891-.4482c.0618,.1537,.1062,.3105,.132,.4742l-.067-.4988c.0215,.1624,.0231,.3226,.0017,.4851l.067-.4988c-.0208,.1289-.0559,.2516-.1044,.3728l.1891-.4482c-.0585,.1385-.1295,.2689-.2207,.3887l.2934-.3797c-.062,.0776-.1301,.1474-.2076,.2095l.3797-.2934c-.0726,.0551-.1494,.1008-.2329,.1376l.4482-.1891c-.0895,.0368-.1811,.0613-.2769,.0749l.4988-.067c-.1058,.0125-.2106,.0113-.3163-.0014l.4988,.067c-.1377-.0194-.2696-.0573-.3982-.1099l.4482,.1891c-.1617-.0693-.3113-.1592-.4507-.2663l.3797,.2934c-.1425-.1126-.27-.2404-.3825-.383l.2934,.3797c-.1046-.1365-.1926-.2829-.2618-.4404l.1891,.4482c-.0583-.1388-.0999-.2814-.1227-.4303l.067,.4988c-.0245-.1833-.0224-.3695-.0006-.5529l-.067,.4988c.0206-.149,.0562-.2931,.1119-.4329l-.1891,.4482c.0483-.1139,.1082-.2199,.1831-.3185l-.2934,.3797c.0599-.0751,.1261-.1425,.2007-.203l-.3797,.2934c.0811-.0626,.1673-.1139,.2611-.155l-.4482,.1891c.0948-.0388,.1917-.0652,.293-.0805l-.4988,.067c.1149-.0145,.2286-.0137,.3435,.0008l-.4988-.067c.1225,.0182,.2399,.0511,.3548,.097l-.4482-.1891c.1472,.0623,.2825,.1433,.4097,.2399l-.3797-.2934c.1212,.0956,.2306,.2022,.3317,.3188,.1699,.183,.3712,.3123,.6038,.388,.2236,.1175,.4646,.1713,.7229,.1616,.4602,0,1.0099-.2044,1.3267-.5495,.3282-.3576,.5719-.827,.5495-1.3267l-.067-.4988c-.0891-.3178-.25-.5938-.4825-.8279Z"/></g><path d="M743.3656,100.2339c2.249-.2852,4.4971-.5779,6.747-.8557,.5527-.0682,1.0962-.0828,1.6532-.0821,.0977,.0001,.5477,.0737,.0643-.007,.2654,.0443,.5286,.106,.7871,.1805,.0431,.0124,.8593,.3121,.3276,.0844,.2427,.104,.4777,.2319,.7053,.3659,.2258,.133,.4545,.2754,.6605,.4379-.4449-.351,.2041,.2211,.2315,.2482,.187,.1853,.3721,.3804,.5336,.5887-.0927-.1196-.2096-.3565,.0295,.0762,.1295,.2345,.2705,.4633,.3997,.6985,.3708,.6751-.076-.4181,.1306,.3333,.049,.1782,.1081,.3521,.1524,.5316,.0448,.1816,.0827,.3646,.1137,.5491-.0682-.5616-.0774-.6234-.0276-.1854,.0111,.2804,.0354,.5561,.0293,.8374,.0009-.0413-.0719,.8449-.0182,.4443,.0532-.3968-.1056,.459-.0968,.4234-.0647,.2601-.1453,.5147-.2359,.7669,.1913-.5326-.1257,.2431-.1537,.2947-.0838,.1547-.1737,.3074-.2684,.4558-.031,.0485-.5543,.6901-.1894,.2781-.2356,.2661-.4849,.5087-.7443,.751-.5942,.5551,.2328-.1355-.1683,.126-.1873,.1221-.3745,.2415-.5708,.3491-.0397,.0218-.8276,.3552-.3128,.1655-.2588,.0954-.5227,.1766-.7905,.2427-.3498,.0863-.706,.1369-1.0617,.191-2.3612,.3592-4.7217,.7234-7.0826,1.0851-2.2378,.3428-4.4756,.6857-6.7135,1.0285-1.5037,.2304-2.3347,2.1192-1.9657,3.4621,.4415,1.6066,1.9538,2.1968,3.4621,1.9657,4.645-.7116,9.2937-1.4026,13.9356-2.135,4.8455-.7645,8.4978-4.9933,8.6039-9.895,.1206-5.5726-4.5132-10.2595-10.0419-10.3792-1.3954-.0302-2.8406,.2787-4.2188,.4535-1.302,.1651-2.604,.3302-3.906,.4954-1.5076,.1912-2.8144,1.1567-2.8144,2.8144,0,1.3723,1.296,3.007,2.8144,2.8144h0Z"/><path d="M754.1766,99.0959c2.4121-.246,4.8241-.4919,7.2362-.7379,.4431-.0452,.8864-.0892,1.3294-.1356,.1423-.0149,.2871-.0343,.4288-.0461,.1865-.0155,.3728-.0268,.5599-.0301,.1194-.0021,1.1769,.0984,.6173,.0049,.2654,.0443,.5286,.106,.7871,.1805,.0431,.0124,.8593,.3121,.3276,.0844,.4775,.2045,.9576,.4818,1.3658,.8038-.4449-.351,.2041,.2211,.2315,.2482,.1262,.1251,.2417,.2563,.3626,.3859,.5114,.5483-.1647-.3803,.2005,.279,.1743,.3146,.3731,.6101,.5165,.9423-.2222-.515,.086,.3221,.0948,.3531,.0436,.1518,.2469,.6693,.1852,.8172l-.0588-.4675c.0242,.187,.0414,.3746,.0515,.5628,.0149,.2791-.0015,.5535-.0022,.8321-.0018,.7784,.1549-.4135-.0437,.3298-.0464,.1736-.0798,.3483-.1297,.5216-.0124,.0431-.3121,.8593-.0844,.3276-.1384,.3231-.3153,.6347-.5041,.9307-.031,.0485-.5543,.6901-.1894,.2781-.1757,.1984-.3548,.3915-.5481,.5731-.0367,.0345-.7047,.5406-.2539,.2294-.2205,.1522-.4465,.2948-.6814,.4237-.1555,.0853-.3186,.1712-.4822,.2418,.5148-.2224-.322,.0859-.3531,.0948-.3729,.107-.7493,.1712-1.1316,.2321-2.2244,.3545-4.4533,.6823-6.6798,1.0234-2.4382,.3735-4.8763,.7471-7.3145,1.1206-1.5037,.2304-2.3347,2.1192-1.9657,3.4621,.4415,1.6066,1.9538,2.1968,3.4621,1.9657,4.6752-.7163,9.3538-1.4134,14.0261-2.1489,5.7826-.9102,9.4228-6.6885,8.2587-12.3062-1.0517-5.0753-6.0759-8.398-11.1157-7.8724-2.8337,.2956-5.6689,.5781-8.5033,.8671-1.5121,.1542-2.8144,1.1831-2.8144,2.8144,0,1.4022,1.2929,2.9696,2.8144,2.8144h0Z"/><path d="M766.8849,98.1344c2.3861,.4057,4.7721,.8113,7.1582,1.217,.4333,.0737,.8665,.1482,1.2999,.221,.0585,.0098,.1171,.0195,.1755,.0298,.3068,.0541,.6093,.1056,.9105,.1876,.0759,.0207,.8372,.2835,.4635,.1279,.4454,.1855,.8935,.451,1.2745,.748-.3733-.291,.3321,.3379,.3168,.3224-.062-.0625,.5618,.6383,.3533,.3741,.1085,.1375,.5322,.8277,.6913,1.2035-.16-.3778,.3013,1.2964,.2393,.8515,.0708,.5079,.0255,1.0159,.005,1.5245,.0367-.9104,.0365-.2452-.0187,.0228-.0518,.2511-.1159,.4979-.192,.7429-.0848,.2729-.1775,.4946-.4614,.9564-.3099,.504-.3437,.5273-.8617,1.0069-.5167,.4783-1.2811,.7878-2.0844,1.0338-.4699,.1439-.3024,.0736-.1337,.0489-.2967,.0434-.609,.0459-.9083,.0409-.3255-.0054-.6453-.0424-.968-.0783-2.2255-.248-4.4479-.5273-6.6715-.7909-2.46-.2917-4.9201-.5833-7.3801-.875-1.5119-.1792-2.8144,1.4218-2.8144,2.8144,0,1.6702,1.2981,2.6346,2.8144,2.8144,4.6972,.5569,9.3913,1.1535,14.0929,1.6708,5.8343,.6419,10.9061-3.9507,11.2403-9.7169,.2974-5.1319-3.614-9.6533-8.5867-10.4881-2.8203-.4735-5.6387-.9587-8.4581-1.438-1.4968-.2545-3.0309,.3966-3.4621,1.9657-.3714,1.3518,.4589,3.2059,1.9657,3.4621h0Z"/><g><path d="M803.3343,122.768c7.9821-19.5738,31.3428-31.446,51.8595-26.3556,5.9376,1.4732,11.9541,4.5623,14.6485,10.0546,2.6944,5.4923,.3493,13.5396-5.5956,14.9829-1.1786,.2861-2.4754,.2926-3.5484-.2728-1.5889-.8373-2.3459-2.7583-2.3559-4.5542-.0387-6.9517,8.1407-10.5495,14.8941-12.1984,4.1801-1.0206,8.7451-1.948,12.6519-.145,3.9937,1.8431,6.3176,6.1952,7.0735,10.5282,1.6457,9.4335-3.5084,19.6514-12.0731,23.9346-8.5647,4.2831-19.8318,2.2774-26.3922-4.6983,7.2354-2.0211,16.7335-1.5527,20.0814,5.1725,3.1101,6.2475-1.4622,13.8891-7.3949,17.5642-8.9668,5.5547-20.3624,5.3846-30.7123,3.3506-10.3499-2.034-20.391-5.7413-30.8949-6.704"/><path d="M806.0482,123.5162c4.6202-11.1878,14.9976-19.7633,26.4502-23.4098,5.803-1.8477,11.9886-2.5262,17.8796-1.7653,6.012,.7765,13.2179,3.0437,16.5027,8.5645,1.2881,2.1649,1.5743,4.5823,.9502,6.9597-.1618,.6163-.3612,1.1727-.4861,1.4286-.1504,.3082-.3137,.6092-.4922,.902-.0759,.1245-.1549,.2467-.2348,.3686-.4871,.743,.1517-.1481-.1682,.2381-.1829,.2207-.379,.4304-.5838,.6307-.0855,.0837-.7018,.5965-.4123,.3846-.2695,.1973-.5597,.365-.8519,.5255-.4567,.251-.151,.1121-.5299,.2297-1.0427,.3237-2.166,.4667-2.6393-.5606-.5787-1.256-.3013-2.356,.1047-3.4784,.0178-.0492,.0731-.1923,.2579-.5299,.1649-.3012,.348-.5931,.5462-.8733,.1825-.2579,.0502-.076,.0088-.0233,.0924-.1178,.193-.2315,.2934-.3424,.2734-.3022,.5567-.5934,.8565-.8697,.8574-.79,2.0422-1.5461,3.2806-2.1935,2.6559-1.3884,5.6511-2.2282,8.6816-2.9126,3.3588-.7585,7.2226-1.3918,10.2755,.624,2.5656,1.6941,3.8748,4.8593,4.4439,7.7813,.5557,2.853,.2774,5.9315-.559,8.7701-1.6965,5.7578-6.059,11.0076-11.7871,13.0443-5.9266,2.1072-12.5895,1.3154-17.9308-2.1006-1.2683-.8112-2.3716-1.762-3.4178-2.8547-.414,1.568-.8279,3.136-1.2419,4.704,4.8153-1.3155,10.5326-1.6814,14.6297,1.1275,.2582,.177,.0901,.0491,.034,.0068,.1193,.0899,.2329,.1909,.3448,.2896,.2636,.2325,.5175,.475,.7562,.7331,.4133,.4469,.5468,.642,.9139,1.2993,.5971,1.069,.839,2.1377,.8448,3.2777,.0125,2.446-1.1642,5.0596-2.8208,7.121-3.9447,4.9088-10.4838,7.1763-16.5787,7.7849-7.0885,.7079-14.1142-.4023-20.9959-2.0431-8.902-2.1225-17.6461-4.8672-26.7969-5.7418-1.5152-.1448-2.8144,1.3972-2.8144,2.8144,0,1.6426,1.2949,2.6692,2.8144,2.8144,16.6637,1.5928,32.3367,9.8615,49.3878,7.5944,7.6255-1.0139,15.1286-4.0902,19.8573-10.3856,4.2036-5.5964,5.1718-13.754-.254-18.9456-5.4026-5.1692-14.0624-5.0204-20.8184-3.1747-2.078,.5677-2.6949,3.1863-1.2419,4.704,5.7056,5.9596,14.2092,8.6071,22.316,7.4759,7.9764-1.113,14.8818-6.3538,18.4414-13.5438,3.5317-7.1336,4.194-16.617-.6011-23.3848-2.7788-3.9221-6.8862-6.0882-11.7119-6.1381-4.1554-.043-8.5437,1.0671-12.4485,2.4452-3.4942,1.2332-7.0641,2.9278-9.6355,5.673-2.5994,2.7752-4.1107,6.8309-2.9764,10.6024,.6988,2.3235,2.3953,4.3753,4.8042,5.0225,2.2282,.5986,4.5991,.1117,6.6207-.9152,3.1572-1.6036,5.2945-4.9617,6.0508-8.3498,1.8599-8.3317-3.5737-15.425-10.8573-18.8706-6.9924-3.3079-15.0617-4.2351-22.6955-3.2687-14.9735,1.8956-29.1224,10.6845-36.6467,23.9125-.9761,1.716-1.7935,3.5019-2.5465,5.3252-.5804,1.4055,.6281,3.0945,1.9657,3.4621,1.6169,.4443,2.8794-.5549,3.4621-1.9657h0Z"/></g><path d="M291.9642,519.1066l91.5013-11.4498c22.276-2.7875,44.8633,1.5304,64.5404,12.3378l63.294,34.7634-84.8659-197.7819-134.4351,161.9188" style="fill:#f953b2;"/><path d="M233.5511,904.6852l-57.6973-71.9347c-14.0464-17.5125-22.2041-39.0133-23.3096-61.4357l-3.556-72.1247L25,875.1072l208.3527,29.6595" style="fill:#6966ed;"/><path d="M581.4967,152.0294c3.0671-6.7454,9.0026-11.851,16.3895-13.194,7.1263-1.2956,14.2156,2.0905,18.0687,8.1636,4.4673,7.0413,2.7664,14.2187-1.6032,20.8566-4.8476,7.3641-11.3274,13.5579-14.1186,22.1341-2.8013,8.6075-.4722,19.0138,7.6168,23.8572,5.1925,3.1091,9.9152-4.9988,4.735-8.1005-7.7014-4.6113-3.1093-15.1898,.6491-20.7246,5.3802-7.9231,12.7425-14.8843,14.4921-24.7152,3.2551-18.2904-14.2648-33.7402-31.8981-30.6022-9.6761,1.7219-18.384,8.688-22.4317,17.5901-1.0562,2.323-.646,5.0227,1.6828,6.4178,2.0029,1.1998,5.3716,.6181,6.4178-1.6828h0Z" style="fill:#f953b2;"/><g><path d="M618.3526,233.6167c5.4459-3.0971-2.5664-11.6243-5.7662-5.5534-1.6954,3.2167,2.6171,7.3443,5.7662,5.5534Z" style="fill:#f953b2;"/><path d="M620.7201,237.667c3.1666-1.9019,4.7069-5.2786,3.9371-8.9034-.5561-2.6187-2.4752-5.0115-4.7715-6.3373-3.0559-1.7643-6.8371-1.4948-9.4834,.8782-3.0184,2.7068-3.6819,7.1189-1.7011,10.6266,2.3983,4.2472,7.6809,5.9758,12.0189,3.7359,2.1841-1.1277,3.006-4.3654,1.6828-6.4178-1.4356-2.2267-4.0816-2.889-6.4178-1.6828,.6731-.2473,.8405-.3147,.5021-.2023-.1237,.0438-.2502,.0775-.3795,.1011,.2853-.2276,.9173-.156,1.214,.0066-.1318-.0722-.6319-.2209-.7505-.2071,.3064-.0354,.9638,.5276,.2939,.0596-.298-.192-.1628-.0772,.4056,.3445-.1046-.0846-.2046-.1743-.2999-.269-.0985-.0914-.1921-.1877-.2808-.2887l.3984,.5322c-.0093-.0755-.3179-.6179-.4101-.68,.2665,.6862,.3433,.8581,.2304,.5156-.0418-.1224-.0755-.247-.1012-.3739,.0774,.7833,.108,.987,.0917,.611-.0074-.1283-.0051-.2566,.0069-.3848l-.0845,.7346c.1451-.4658,.0834-.3441-.185,.3651,.1109-.064,.271-.4346,.3268-.5441,.2162-.4237-.8421,.8825-.1576,.2577,.4074-.3719-1.0046,.6645-.4018,.2987,.7033-.4268-.2,.0697-.4579,.1593,.6571-.2286,.1945,.2579-.5602,.0314,.0434,.013,.48,.0186,.5217,.0042-.1218,.0422-1.4458-.164-.5549-.0337,.189,.0276,.8049,.2914-.0532-.0454-.8462-.3322-.1871-.0381,.0114,.0629,.637,.324-.2996-.2143-.4109-.3526,.165,.2051,.5895,.6744,.816,.8064-.7218-.4206-.5888-.8992-.2857-.3286,.0777,.1463,.1649,.3848,.2743,.4972-.1199-.1232-.3814-1.2235-.2299-.5165,.036,.168,.0768,.3697,.1362,.5298,.187,.5033-.1233-1.3231-.1014-.6244,.0259,.8254,.053-.307,.1055-.5435-.1553,.6995-.2135-.0456,.2506-.4418-.0204,.0174-.2802,.4618-.2812,.4827,.0128-.276,.876-.9478,.1937-.3544,.3247-.2824,.913-.6336,.207-.2096-2.1032,1.2632-3.0669,4.2709-1.6828,6.4178,1.3633,2.1145,4.1669,3.0347,6.4178,1.6828Z" style="fill:#f953b2;"/></g><path d="M535.0742,204.5151c-.4693-6.4111,2.7038-13.3471,9.0664-15.6571,5.4961-1.9954,12.8037,.713,15.1172,6.2413,1.6562,3.9576,.8536,8.634,.2146,12.7232-.7076,4.5287-1.4275,9.0455-.8111,13.6269,1.0706,7.9562,6.7364,14.9467,15.1232,15.3465,6.0351,.2877,6.0203-9.0943,0-9.3814-3.7471-.1787-5.6102-4.4748-5.9433-7.6965-.5025-4.8609,.864-9.7703,1.4148-14.5684,1.0728-9.3446-1.5215-18.4101-10.08-23.3022-7.0539-4.032-16.1678-4.0842-22.9216,.6235-7.0678,4.9266-11.1922,13.4304-10.5617,22.0442,.4381,5.9854,9.823,6.0332,9.3814,0h0Z" style="fill:#f953b2;"/><g><path d="M587.7927,244.7962c2.4515-4.0154-5.9138-6.7038-5.8081-1.5515,.056,2.73,4.3905,3.8734,5.8081,1.5515Z" style="fill:#f953b2;"/><path d="M591.843,247.1637c2.0699-3.6195,.921-7.942-2.6118-10.1276-2.9414-1.8197-6.9909-1.8204-9.6186,.568-3.1384,2.8527-2.9945,8.0455,.0319,10.9067,1.567,1.4815,3.7352,2.2338,5.8736,2.2222,2.6513-.0144,4.8726-1.4212,6.325-3.5693,1.3779-2.0379,.4566-5.2874-1.6828-6.4178-2.3713-1.2529-4.9473-.4921-6.4178,1.6828l.4545-.5752c-.2545,.2428-.2083,.2193,.1385-.0706,.7976-.6151-.4834,.1318,.4626-.2715,.767-.327,.1329-.0865-.0771-.0411,.0733-.0158,1.2188-.149,.5685-.1162-.8505,.0429,.9446,.1377,.4481,.0641-.3674-.0544-.8476-.4168,.3575,.2104-.1323-.0689-.2817-.1285-.4013-.2191,.2261,.1713,.7736,.8006,.3409,.2377-.3063-.3985,.6926,1.0534,.2795,.3255,.0454,.0799,.4087,1.0965,.2463,.4899,.0656,.2452,.0813,1.2151,.1225,.434,.0305-.58-.1733,1.1484-.0774,.6236,.1318-.7207-.1602,.3608-.251,.5146,.2995-.507-.461,.5381-.4549,.5318,.6692-.702-1.0347,.6256-.2003,.1601,.0337-.0188-1.2316,.4879-.6738,.3091,.6311-.2024-1.1835-.0068-.6857,.0739,.1056,.0171,.2246-.0231,.3329-.0098,.7617,.0934-.6203-.0947-.6554-.1124,.1724,.0866,.5614,.1881,.7507,.201,.2535,.0172-1.0005-.5741-.5674-.2264,.0761,.061,.2058,.1361,.2955,.1745,.6266,.2685-.7964-.6134-.4814-.3735,.0938,.0714,.1907,.2483,.2891,.295,.0038,.0018-.7498-1.031-.4496-.5554,.3514,.557-.3767-1.1068-.2438-.6115,.204,.7601-.0416-1.369-.0671-.3565-.0003,.0101,.2015-1.3343,.0637-.7213-.1614,.7182,.5364-1.0863,.1352-.3848-1.2185,2.1308-.5712,5.2269,1.6828,6.4178,2.2307,1.1786,5.1166,.5925,6.4178-1.6828Z" style="fill:#f953b2;"/></g><path d="M791.6505,747.8686c.2999,2.9424-2.8145,5.206-5.5534,4.0719,.5607,1.3781,1.1213,2.7562,1.682,4.1344-.2818,.3665,.2221-.1848,.2904-.249,.4537-.4265-.2251,.0947,.2613-.1788,.1524-.0857,.6983-.3067,.2407-.1457,.239-.0841,.4814-.1465,.7277-.204,.6088-.1422-.3182-.0505,.2646-.0223,.2605,.0126,.5201-.0023,.7815,.014,.8028,.0502-.4891-.1331,.3083,.0515,.2673,.0619,.5312,.1266,.7933,.2083,.6271,.1956,.4528,.1161,1.135,.4903,.2514,.1379,.4979,.2868,.7373,.4447-.0015-.001,.6831,.5096,.36,.2476,.9964,.8078,1.4273,1.3301,1.9485,2.2949,.0452,.0838,.3566,.8003,.1886,.3643,.102,.2648,.1846,.539,.2531,.8141,.1572,.6309,.1886,1.2749,.1867,1.9239-.0047,1.5872-.39,3.1129-.932,4.5981-1.161,3.1816-3.2161,6.0461-5.1532,8.793-.8765,1.2428-.2231,3.1296,1.0097,3.8507,1.4077,.8234,2.9721,.2361,3.8507-1.0097,4.4087-6.2515,10.0965-15.7154,4.8472-23.1465-1.872-2.6501-4.7645-4.7508-7.9933-5.3531-3.5914-.6699-6.7406,.4783-8.9663,3.3729-1.2363,1.6078,.2224,3.53,1.682,4.1344,5.9245,2.4531,13.3249-3.1585,12.6786-9.4996-.1541-1.5121-1.1832-2.8144-2.8144-2.8144-1.4023,0-2.9695,1.2929-2.8144,2.8144h0Z"/><path d="M878.2642,745.6888c.6368,.1215,1.243,.3078,1.8491,.5356,.2604,.0979-.6351-.2904-.0615-.0143,.1253,.0603,.2495,.123,.3723,.1884,.2948,.157,.582,.3286,.8606,.5129,.1397,.0925,.2752,.1898,.4118,.2866,.4316,.3057-.4678-.4071-.041-.0286,.2306,.2046,.4648,.4017,.6858,.6172,.2206,.2152,.4329,.4389,.6355,.6712,.1092,.1252,.2096,.267,.3238,.3872-.5203-.5479-.156-.2027-.0346-.0321,.3575,.5026,.6751,1.0341,.9486,1.5869,.0668,.1351,.1177,.3384,.2135,.4564-.1612-.39-.2018-.4851-.1218-.2853,.0314,.0778,.0616,.156,.0906,.2346,.1167,.3138,.2195,.633,.3071,.9561,.0802,.2957,.1475,.5948,.2018,.8963,.0842,.4675-.0248,.0374-.0129-.1706-.0091,.1599,.0368,.3366,.0483,.4983,.0237,.3334,.0309,.6679,.0207,1.0021-.0076,.2498-.1462,1.3506-.0088,.4221-.1152,.7784-.1302,1.4614,.2837,2.1687,.3416,.5838,1.011,1.1406,1.682,1.2934,1.3365,.3044,3.2315-.4083,3.4621-1.9657,.5153-3.4814-.1912-7.034-2.2545-9.9342-2.0047-2.8179-4.9119-5.0519-8.3657-5.711-1.4415-.2751-3.106,.4023-3.4621,1.9657-.3161,1.388,.4193,3.167,1.9657,3.4621h0Z"/></svg>