<?xml version="1.0" encoding="UTF-8"?><svg id="Layer_2" xmlns="http://www.w3.org/2000/svg" width="1000" height="1000" viewBox="0 0 1000 1000"><g><g><path d="M350.2943,238.8612c-10.775-75.9407-81.072-128.7681-157.0127-117.9933-75.9499,10.7761-129.3248,82.5827-117.7868,158.4206,6.2533,41.1022,29.9796,75.3026,62.5353,96.1163,22.558,14.4219,37.6088,38.0593,41.37,64.5679v.0002s115.981-16.4562,115.981-16.4562h0c-3.787-26.6904,4.4212-53.591,22.1218-73.9235,25.5441-29.3423,38.6857-69.1904,32.7914-110.732Z" style="fill:#f4d13b;"/><path d="M254.45,588.1641c-.2553-.2111-.504-.4284-.7454-.6512-.8796-.812-1.7242-1.7133-2.8232-2.1877-3.3864-1.4616-8.9881-1.0019-12.8028-1.6872-4.2265-.7593-8.3587-1.6745-12.4171-3.1061-7.7283-2.726-14.9513-6.8494-21.2368-12.1068-12.9268-10.8122-21.5003-26.2448-23.8676-42.9288-.002-.014-10.0424-70.777-10.0424-70.777-1.0359-7.301,4.0429-14.0593,11.3439-15.0953l109.2706-15.5041c7.301-1.0359,14.0593,4.0429,15.0953,11.3439,0,0,10.0424,70.777,10.0424,70.777,2.1365,15.0577-.8423,30.5921-8.4298,43.7757-7.1686,12.4558-15.4821,22.1736-28.507,28.8203-.6503,.3318-1.3228,.6668-1.8065,1.2136-.367,.4148-.6025,.9267-.8328,1.4305-1.7208,3.7648-3.7781,7.7685-7.7508,9.6239-4.7196,2.2043-10.441,.4069-14.49-2.9407Z" style="fill:#6966ed;"/><path d="M216.2915,430.3871c-5.8729-22.0193-11.5697-44.0855-17.0861-66.1969-5.4964-22.0315-10.8149-44.1074-15.9547-66.2248-5.1585-22.1975-10.1369-44.4369-14.9349-66.7152-1.8704-8.6849-4.7462-19.4622,1.5278-27.0861,2.6515-3.222,6.5765-5.7302,10.2007-7.2286,3.1631-1.3078,7.0189-2.1458,10.2755-2.3311,3.9041-.2222,7.0147,.085,10.6313,1.1192,1.9316,.5524,3.1032,1.0066,4.7207,1.8481,.7384,.3842,1.4594,.8025,2.1579,1.2554,.8252,.5351,1.3687,.9424,1.8807,1.3761,2.8797,2.4393,5.0381,5.282,6.0645,9.1295,.5051,1.8935,.6105,4.2032-.1079,5.8733-.6735,1.5657-1.9821,2.8858-3.3889,3.3543-.8751,.2914-1.3229,.3211-1.9774,.1567-.5217-.131-.3264-.0553-.8744-.3942-.2955-.1828-.3172-.2036-.735-.6537-.0449-.0484-.3303-.4187-.5388-.8154-.0296-.0564-.2091-.522-.0718-.1431-.0706-.1947-.1173-.396-.1723-.5953-.0298-.108-.043-.561-.0231-.1088-.0088-.2008-.0151-.4088,.0044-.6085-.0464,.4764,.0086-.0158,.0472-.1014,.3033-.6732-.3202,.2141,.2289-.4787,1.1954-1.5084,3.3664-2.4498,5.1137-3.4361,2.4856-1.4031,4.9781-2.7938,7.4776-4.1719,2.4281-1.3388,4.8627-2.6657,7.3037-3.9807,2.3635-1.2733,4.7206-2.7245,7.2095-3.7416,1.7835-.7288,3.7954-1.0646,5.3724-.6793,1.7499,.4276,3.2781,1.3742,4.5881,2.6603,3.1223,3.0653,4.2923,7.2975,4.5564,11.723,.2756,4.6197-.1728,9.2664-.3831,13.8816-.3712,8.1464-.5875,16.2996-.7074,24.4534-.2656,18.0668-.0679,36.1396,.3769,54.2019,.462,18.7627,1.204,37.5186,2.1665,56.2622,.8871,17.2752,1.959,34.5419,3.2615,51.7909,.2851,3.7752,.5821,7.5494,.8918,11.3226,.133,1.6206,1.2884,3.0106,3.0106,3.0106,1.5257,0,3.1443-1.3809,3.0106-3.0106-1.4437-17.5875-2.6178-35.1972-3.6015-52.8162-1.0934-19.5839-1.9465-39.1822-2.5106-58.7886-.5531-19.2247-.8412-38.4616-.6384-57.6941,.091-8.6311,.2831-17.262,.6379-25.8865,.1886-4.5835,.5731-9.1765,.5838-13.7641,.0125-5.3627-.7053-11.0841-3.7259-15.6572-2.6947-4.0798-6.8028-7.218-11.746-7.7991-5.6497-.6642-10.8607,2.8889-15.6072,5.4477-5.1684,2.7862-10.3081,5.6258-15.4179,8.5181-2.2912,1.2969-4.6927,2.572-6.214,4.8044-1.3899,2.0394-1.6648,4.6735-.8449,6.9888,1.7144,4.8417,6.9791,7.5654,11.8823,5.7918,5.1113-1.8489,8.1282-6.9875,7.9856-12.3187-.2426-9.072-7.2005-16.8555-15.189-20.3703-7.6463-3.3643-16.3836-3.8768-24.4522-1.7819-9.1481,2.3752-18.1457,8.4305-21.2607,17.697-1.7874,5.3171-1.4036,11.0589-.5478,16.5081,.8748,5.5707,2.2349,11.0791,3.4319,16.587,2.5508,11.7376,5.1518,23.4643,7.8029,35.1796,5.2658,23.2702,10.729,46.4958,16.3891,69.6732,5.6796,23.2574,11.5571,46.4664,17.6319,69.6237,1.4822,5.6501,2.9764,11.297,4.4817,16.9409,.9976,3.7403,6.8074,2.1536,5.806-1.6007h0Z" style="fill:#f953b2;"/><ellipse cx="237.732" cy="432.0013" rx="58.5713" ry="7.8498" transform="translate(-58.3303 37.6806) rotate(-8.0756)" style="fill:#f953b2;"/></g><path d="M666.0667,266.9127c.4675,1.1931,.7872,2.3225-.0649,3.4115-.799,1.0211-2.0771,1.6893-3.2586,2.1566-2.8877,1.1422-6.0265,1.4527-8.9518,2.4791-3.0443,1.0682-6.1886,3.0172-6.3986,6.5834-.2169,3.6834,3.484,5.4837,6.378,6.6611,3.4271,1.3943,7.2109,1.9332,10.8925,1.5942,1.0794-.0994,2.007-.8513,2.007-2.007,0-1.0085-.9213-2.107-2.007-2.007-3.7256,.3431-7.5089-.2447-10.8642-1.9419-1.122-.5676-2.9443-1.2811-2.2056-2.8216,.6687-1.3945,2.5885-1.9883,3.943-2.415,3.5634-1.1225,7.3735-1.4763,10.6729-3.3556,1.4576-.8303,2.8395-2.0053,3.6338-3.5061,.9999-1.8894,.8561-3.9545,.0943-5.8987-.3952-1.0086-1.3454-1.7106-2.4689-1.4018-.9617,.2643-1.7995,1.454-1.4018,2.4689h0Z"/><path d="M224.7008,483.8636c7.9218,3.3904,15.8435,6.7807,23.7653,10.1711,12.5737,5.3813,25.1475,10.7627,37.7212,16.144,2.8831,1.2339,5.7662,2.4678,8.6493,3.7017,1.4935,.6392,3.2269,.4452,4.119-1.08,.7411-1.2671,.4229-3.4758-1.08-4.119-7.9218-3.3904-15.8435-6.7807-23.7653-10.1711-12.5737-5.3813-25.1475-10.7627-37.7212-16.144-2.8831-1.2339-5.7662-2.4678-8.6493-3.7017-1.4935-.6392-3.2269-.4452-4.119,1.08-.7411,1.2671-.4229,3.4758,1.08,4.119h0Z"/><path d="M203.4861,493.3572c3.8743,0,3.8807-6.0211,0-6.0211-3.8743,0-3.8807,6.0211,0,6.0211h0Z"/><path d="M208.613,514.1839c8.7144,3.215,17.4287,6.43,26.1431,9.645,13.8667,5.1159,27.7333,10.2317,41.6,15.3476,3.152,1.1629,6.3041,2.3258,9.4561,3.4887,1.5256,.5629,3.2986-.6296,3.7034-2.1027,.462-1.6812-.5715-3.1385-2.1027-3.7034-8.7144-3.215-17.4287-6.43-26.1431-9.645-13.8667-5.1159-27.7333-10.2317-41.6-15.3476-3.152-1.1629-6.3041-2.3258-9.4561-3.4887-1.5256-.5629-3.2986,.6296-3.7034,2.1027-.462,1.6812,.5715,3.1385,2.1027,3.7034h0Z"/><path d="M192.427,526.6524c3.8743,0,3.8807-6.0211,0-6.0211-3.8743,0-3.8807,6.0211,0,6.0211h0Z"/><path d="M187.0855,558.17c1.7001-4.5139,5.6755-7.8129,10.4322-8.8656,2.1824-.483,4.7276-.3819,7.0626,.3153,.5028,.1501,.9921,.3286,1.4823,.5126,3.957,1.4844,7.914,2.9688,11.8709,4.4532,13.814,5.1821,27.628,10.3642,41.442,15.5463,3.5656,1.3376,7.1313,2.6752,10.6969,4.0128,1.5226,.5712,3.3002-.6356,3.7034-2.1027,.4639-1.6881-.5746-3.1301-2.1027-3.7034-9.8925-3.711-19.785-7.422-29.6775-11.133-11.4128-4.2813-22.8255-8.5626-34.2383-12.8439-3.8929-1.4604-8.1064-1.7675-12.1613-.7889-6.7039,1.6179-11.9145,6.6191-14.3166,12.9967-.5732,1.5219,.6371,3.3006,2.1027,3.7034,1.6898,.4643,3.1281-.5753,3.7034-2.1027h0Z"/><path d="M648.2451,433.4173c-.5852-6.1156-.7557-12.2849-.43-18.4209,.3775-7.1103,1.3318-14.0357,4.1191-20.9016,.2308-.5685,.1078-.2588,.0545-.1349,.121-.2815,.247-.5612,.3756-.8393,.2123-.4592,.434-.9141,.6659-1.3637,.4104-.7956,.8523-1.5752,1.3296-2.3327,1.0895-1.729,1.7667-2.5869,3.3355-4.1044,2.7904-2.6989-1.47-6.9539-4.2576-4.2576-5.4412,5.2629-8.3075,12.6848-9.8705,19.9542-1.6005,7.4433-2.062,15.1354-1.9037,22.7337,.0672,3.2278,.253,6.4533,.5605,9.6671,.1549,1.6185,1.2728,3.0106,3.0106,3.0106,1.5081,0,3.1664-1.3823,3.0106-3.0106h0Z"/><path d="M462.876,799.9001c6.1132-22.8384,19.9585-42.6319,31.5875-62.9094,12.0633-21.0348,23.4662-42.4536,34.0171-64.2879,5.1606-10.6795,9.8133-21.6026,15.0353-32.2489,5.0575-10.3109,10.682-20.3458,15.2687-30.8842,4.9378-11.3449,8.9873-23.1139,13.3686-34.6823,2.2711-5.9967,4.5422-11.9934,6.8133-17.9901,2.1556-5.6917,4.9786-11.5044,6.1883-17.4911,1.0748-5.3191,.126-10.6416-.0374-15.9932-.1648-5.3981,.2092-10.8164,1.1799-16.13,1.9288-10.5578,5.922-20.6527,11.8277-29.619,10.0061-15.1918,25.3662-26.0817,42.3777-32.1562,16.9181-6.0412,35.1484-7.8078,53.0024-6.4704,8.4693,.6344,17.01,1.9125,25.2142,4.1474,4.8724,1.3273,9.5756,3.3561,14.3094,5.0948,11.9654,4.3948,26.0912,10.1685,39.0931,8.2827,5.2329-.759,10.3355-3.6623,11.741-9.1152,2.0999-8.1466-5.9991-15.7779-13.6901-16.1368-10.2331-.4776-18.5595,7.886-24.7828,14.9651-6.9482,7.9037-12.7352,16.7169-19.1082,25.0698-13.8472,18.1493-32.6076,32.7325-51.8475,44.7871-38.6082,24.1897-83.3114,37.8074-128.7488,40.2363-45.8292,2.4499-91.8389-5.9236-134.5737-22.398-10.4281-4.0201-21.3934-8.1724-31.0835-13.7958-6.2849-3.6473-9.6291-10.2899-11.4907-17.0734-2.1244-7.7414-2.6205-15.822-2.9821-23.8056-.3302-7.2897,.3914-15.7792-2.0014-22.7601-5.2204-15.2304-27.2583-20.6458-37.6827-7.3675-3.9408,5.0196-4.6956,11.3172-4.7117,17.5027-.0139,5.3352-.0214,10.6705-.0321,16.0058-.0075,3.7356-.015,7.4711-.0225,11.2067,1.51-.8665,3.02-1.733,4.5301-2.5995-21.3896-13.7049-42.7792-27.4098-64.1688-41.1146-9.3274-5.9763-19.3771-14.8424-31.229-10.4088-10.7065,4.0051-16.0821,16.3729-11.659,26.9173,2.5339,6.0407,7.5598,9.1214,12.7692,12.4592,11.9363,7.6478,23.8726,15.2957,35.8089,22.9435,1.013-1.733,2.026-3.466,3.039-5.1991-10.3495-4.4407-20.6991-8.8813-31.0486-13.322-3.7015-1.5882-7.3917-3.2066-11.1058-4.7652-8.9233-3.7446-19.4404-1.3954-25.2069,6.6315-7.1279,9.9219-3.4812,23.7605,6.9389,29.6397,.5065-1.87,1.013-3.7401,1.5195-5.6101-11.0962-1.3803-21.4863,6.637-22.7611,17.7988-1.2019,10.5235,5.7553,18.6923,15.1761,22.1335l1.6007-5.806c-8.0866-1.7306-16.4365,1.0666-21.3521,7.8652-4.866,6.7299-4.9971,16.0698-.3797,22.9726,5.5354,8.2752,16.28,10.2944,25.0527,13.5567,10.9603,4.0759,21.8979,8.2126,32.8286,12.3672,43.6137,16.5767,87.1461,33.4532,131.5433,47.8506,43.9252,14.2444,88.9587,26.3113,134.7061,33.0032,22.5011,3.2915,45.35,5.0701,68.0698,3.2993,11.2384-.8759,22.275-2.9191,33.3451-4.9688,11.4601-2.1219,22.9042-4.3433,34.2774-6.8948,21.8094-4.8928,43.3763-11.0627,63.9269-19.9313,16.9931-7.3333,33.1835-16.4982,48.3813-27.0498,30.1004-20.8982,56.5714-47.1253,77.5669-77.1685,19.1441-27.3939,34.2071-58.7339,39.7008-91.9037,5.617-33.9147,1.6313-75.1829-26.4651-98.657-7.673-6.4107-16.4069-10.8108-25.769-14.1813-7.9466-2.8609-17.3743-5.521-23.089-12.1617-3.4259-3.981-4.5969-9.3441-5.4119-14.3981-.986-6.1146-1.3674-12.325-1.4978-18.512-.2528-11.9973,.567-23.9798,.7346-35.9721,.2934-20.9892-1.6503-43.1546-13.7249-61.0304-5.1917-7.686-12.0448-14.3065-20.3912-18.4692-9.3136-4.6451-19.8046-6.4256-30.1486-6.4366-18.7867-.02-40.8303,5.294-53.2927,20.3375-2.9443,3.5541-5.5204,7.3856-8.3367,11.0374-3.0549,3.9611-6.5707,7.5334-9.6533,11.4774-6.127,7.8392-11.3328,16.3513-15.2886,25.4892-14.2276,32.8652-13.5205,77.4125,20.2605,97.9841,7.2649,4.4241,15.529,6.8108,22.3489,12.0443,5.5865,4.287,9.7684,10.1107,10.542,17.2498,.4567,4.2144-.2383,8.2478-1.1446,12.3455-.8127,3.6743-.9885,7.7319,.7465,11.1892,3.7777,7.5277,13.2481,5.9526,16.3289-1.229,3.6215-8.442-3.5194-15.2839-11.1463-17.4917-8.82-2.5531-18.8563-1.2892-27.5923,.9784-9.3792,2.4347-18.4969,6.5308-26.4978,12.0024-8.1532,5.5758-15.7829,11.5321-25.0972,15.1456-41.4828,16.0933-79.8585-18.0153-102.1481-49.4751-24.3458-34.362-42.2047-75.816-78.9917-99.2285-17.4775-11.1233-37.767-16.9639-58.2379-19.209-9.9776-1.0943-19.8642-1.0051-29.8762-.8259-3.6119,.0647-7.2719-.2391-10.8748,.0025-6.8483,.4592-13.7213,1.6142-20.5358,2.4158-11.858,1.395-23.716,2.7899-35.574,4.1849-7.5361,.8865-15.0796,1.7259-22.61,2.6598-5.69,.7057-10.6873,3.1624-14.1087,7.8899-4.7843,6.6106-4.7084,15.8174,.1371,22.3709,4.22,5.7074,11.1153,8.4133,18.0908,7.5163,2.5797-.3317,5.1526-.7315,7.7277-1.0971,11.2668-1.5996,22.5336-3.1992,33.8004-4.7988,6.7767-.9621,13.5535-1.9243,20.3302-2.8864-.5336-1.9353-1.0671-3.8707-1.6007-5.806-9.9809,1.9927-19.9619,3.9853-29.9428,5.978-10.3877,2.0739-20.944,3.7614-31.2446,6.2379-9.3852,2.2564-15.7298,11.4713-14.4282,21.038,1.4563,10.7033,11.7148,18.0486,22.312,16.1673,9.8158-1.7426,19.5441-4.5298,29.2484-6.7939,11.6541-2.719,23.3082-5.438,34.9623-8.157-.5336-1.9353-1.0671-3.8707-1.6007-5.806-19.8186,7.7702-39.6372,15.5404-59.4558,23.3107-5.3826,2.1103-9.9922,5.1395-12.489,10.614-4.0136,8.8004-.6483,19.5835,7.7796,24.4191,10.611,6.0882,22.7194-1.2501,32.779-5.1942,11.1856-4.3856,22.3712-8.7711,33.5568-13.1567-.7733-1.8342-1.5465-3.6684-2.3198-5.5026-14.2501,8.5394-28.5002,17.0788-42.7504,25.6182-2.7846,1.6687-5.54,3.2574-7.6728,5.7922-4.7569,5.6534-5.8246,13.6927-2.6908,20.3861,3.0371,6.4868,9.6512,10.7392,16.793,10.93,7.3436,.1962,13.4895-4.5576,19.2901-8.466,12.7703-8.6044,25.875-19.363,41.1797-22.9364,7.2993-1.7043,13.3164-.2388,19.805,3.3192,8.0405,4.409,15.2409,10.1261,21.6983,16.6155,27.4987,27.6344,39.6731,65.8657,62.6823,96.7316,24.5106,32.8801,62.1855,53.9367,103.1724,56.971,3.8655,.2862,3.8472-5.7363,0-6.0211-35.1198-2.5999-68.655-19.4589-91.6644-46.1248-24.4875-28.3789-36.4648-65.0589-59.7557-94.3253-10.4194-13.0926-23.6711-25.7539-39.4098-32.1374-12.875-5.222-27.1202,1.3837-38.2185,7.8695-6.716,3.9248-13.0896,8.3954-19.5055,12.7836-5.24,3.5839-11.7969,9.4601-18.3904,9.6988-7.4051,.2681-13.724-5.9888-13.4735-13.4175,.1695-5.0257,3.0945-8.7818,7.2336-11.2918,14.8578-9.0097,29.8115-17.8646,44.7163-26.7963,2.8096-1.6836,.962-6.7893-2.3198-5.5026-8.5775,3.363-17.1551,6.726-25.7326,10.089-8.4967,3.3313-17.0256,7.4541-25.7891,10.0386-9.4624,2.7907-18.7238-5.9479-16.3439-15.5776,1.2925-5.2296,5.2809-7.9894,9.9451-9.8181,10.3883-4.0729,20.7766-8.1458,31.1649-12.2187,9.2621-3.6314,18.5242-7.2627,27.7864-10.8941,3.5428-1.389,2.2548-6.7056-1.6007-5.806-20.2504,4.7246-40.5008,9.4492-60.7511,14.1738-5.5285,1.2898-11.0699,1.0957-15.1516-3.5673-6.5517-7.4847-2.2809-19.0503,7.1242-21.2718,9.6135-2.2707,19.4336-3.8799,29.1193-5.8136,10.6511-2.1265,21.3022-4.2529,31.9534-6.3794,3.8684-.7723,2.1358-6.3365-1.6007-5.806-17.3037,2.4567-34.6074,4.9134-51.9112,7.3701-8.0331,1.1405-17.5131,3.6802-22.4702-5.1786-4.1072-7.3401-.1164-16.7483,7.9717-18.9581,1.8044-.493,3.7076-.5979,5.5587-.8157,20.0525-2.359,40.1049-4.7179,60.1574-7.0769,5.0998-.5999,10.2761-1.5279,15.4067-1.787,4.8806-.2465,9.8185-.0004,14.7091-.1402,10.0373-.287,20.1378,.1266,30.0866,1.528,19.6353,2.7659,38.8411,9.2421,55.1192,20.7487,16.3577,11.5628,29.0656,27.5687,40.1593,44.051,22.2103,32.9988,40.2484,71.0534,75.0502,92.9473,15.5336,9.7722,34.2011,15.7228,52.6368,13.0094,8.7735-1.2913,17.1318-4.5638,24.8091-8.9491,8.0073-4.5738,14.911-10.7589,23.0744-15.0735,8.3838-4.431,17.7564-7.6492,27.2312-8.5465,4.2846-.4058,8.8014-.4963,13.0213,.4614,3.6636,.8314,9.3528,3.0853,9.1745,7.6768-.1335,3.438-4.2233,6.9284-6.094,2.5453-1.5926-3.7315,.3723-8.1039,.9016-11.8501,.9698-6.8646,.2623-13.8301-3.1083-19.9826-3.2672-5.9635-8.6628-10.4891-14.4012-13.9709-7.0533-4.2796-14.9839-6.7105-21.7123-11.5749-13.6523-9.8702-21.3173-25.9351-22.3528-42.5425-1.2014-19.2692,3.6441-38.4724,13.0988-55.2453,4.7802-8.4803,10.8165-15.6291,17.0196-23.0575,5.632-6.7445,9.9802-15.1059,17.3138-20.236,15.6272-10.9318,38.3331-14.1042,56.7478-10.1314,19.3474,4.174,32.5105,18.7304,38.5429,37.1321,6.9558,21.2184,4.547,43.9682,4.0896,65.8858-.2273,10.8929-.0174,21.8658,1.872,32.6237,1.5613,8.8902,5.3139,16.1562,12.9987,21.1385,6.8892,4.4664,14.9354,6.737,22.5467,9.6207,9.3385,3.538,17.9826,8.8855,24.9763,16.0461,12.9644,13.2738,19.263,31.6632,21.2401,49.8167,3.3286,30.5619-4.3809,61.4335-17.2042,89.0512-14.272,30.7378-34.8538,58.4225-59.0007,82.1073-25.0511,24.5717-54.3101,45.0937-86.4871,59.2134-19.4755,8.5461-40.0454,14.4535-60.7374,19.2182-10.7265,2.47-21.5227,4.6251-32.3391,6.6617-10.771,2.0281-21.5494,4.2351-32.4661,5.3164-43.1756,4.2764-86.7991-4.2209-128.6775-14.0183-42.9754-10.0541-84.9889-23.7699-126.4669-38.766-41.495-15.0022-82.5139-31.2787-123.9209-46.5178-4.3108-1.5865-8.7085-2.8082-11.6889-6.5572-2.3363-2.9388-3.5396-6.7904-3.1559-10.5364,.8735-8.5284,9.3035-14.0519,17.47-12.3043,3.8216,.8179,5.2246-4.4823,1.6007-5.806-6.6279-2.421-11.5903-8.0994-10.8365-15.5278,.8619-8.4938,8.7311-13.5836,16.8209-12.5773,3.0671,.3815,3.9493-4.2392,1.5195-5.6101-8.4039-4.7416-10.5028-16.3722-3.1346-23.1466,4.6819-4.3046,11.1031-4.5379,16.7038-2.1348,10.1619,4.3602,20.3237,8.7203,30.4856,13.0805,3.4298,1.4716,6.8597,2.9433,10.2895,4.4149,3.4812,1.4937,6.3911-3.0513,3.039-5.1991-9.8555-6.3146-19.7111-12.6293-29.5666-18.9439-3.7012-2.3715-7.4875-4.6484-11.1199-7.1248-9.1039-6.2065-8.4335-20.3633,1.8766-25.0356,9.6765-4.3852,19.8057,4.9548,27.4937,9.8807,12.5886,8.0658,25.1771,16.1317,37.7657,24.1975,8.6504,5.5426,17.3009,11.0851,25.9513,16.6277,1.9503,1.2496,4.5256-.3901,4.5301-2.5995,.0181-9.0181,.0362-18.0361,.0542-27.0542,.0113-5.6416,.5005-11.8999,5.168-15.7737,6.1208-5.08,16.0726-4.3315,21.6238,1.1593,5.6852,5.6234,5.0402,14.204,5.3365,21.5965,.315,7.8618,.62,15.737,1.8626,23.519,1.1217,7.0251,3.1106,14.2734,7.2984,20.1345,5.0635,7.0865,12.7644,10.1592,20.4617,13.6645,40.3897,18.3936,84.1508,29.6393,128.5642,31.4333,44.1973,1.7853,88.4863-6.2657,128.8287-24.5352,20.1164-9.11,39.0569-20.7275,56.2343-34.6094,8.4549-6.8328,16.7397-14.1291,23.7297-22.4819,6.7188-8.0288,12.4217-16.8277,18.9037-25.0379,5.6258-7.1256,14.2353-18.8562,24.4436-18.5714,6.6142,.1845,12.2788,9.3643,4.6452,12.5347-5.0804,2.11-11.5799,.8099-16.7315-.3012-6.7592-1.4578-13.3513-3.6432-19.8533-5.9726-5.1449-1.8432-10.2164-3.9333-15.4161-5.6191-6.9652-2.2582-14.4299-3.367-21.6775-4.2529-17.1814-2.1001-34.8996-1.3468-51.7025,2.9424-16.5065,4.2136-32.2158,12.0926-44.4846,24.0412-14.0062,13.6406-22.6901,32.0073-24.8568,51.3928-.5959,5.3319-.5974,10.6647-.1868,16.0092,.4739,6.1675-.1359,11.1116-2.3179,16.9157-4.3518,11.5755-8.7601,23.1302-13.14,34.6952-4.3396,11.4583-8.3686,23.0711-13.6858,34.1234-4.8107,9.9995-10.2415,19.6908-14.8585,29.7851-9.8996,21.6436-20.2013,43.0351-31.4749,64.0035-11.0628,20.5763-23.6493,40.3082-34.6211,60.9164-5.0509,9.4871-9.4192,19.3571-12.2036,29.7591-1.003,3.7473,4.8035,5.346,5.806,1.6007h0Z"/><path d="M790.0961,420.2467c3.6916-19.1388,13.5389-38.7256,31.2473-48.5392,8.7552-4.8519,18.7802-3.0553,26.746,2.4654,9.133,6.3296,14.563,16.3957,17.3405,26.9423,3.001,11.3948,3.2952,23.3083,3.4788,35.0246,.2052,13.0934-.1097,26.1915-.803,39.2671-1.3466,25.3956-4.1252,50.6856-7.1148,75.932-5.0419,42.5774-12.9413,86.5937-8.0057,129.542,2.2099,19.2302,7.2971,38.2262,17.1603,55.0109,11.008,18.7328,28.2905,32.0632,42.2937,48.3475,6.6856,7.7748,17.0361,19.4288,13.0086,30.6138-3.2006,8.8887-13.5129,13.632-21.8463,16.3247-22.2286,7.1824-46.1796-8.016-61.3869-23.1858l-.6093,4.7283c4.5105-3.0937,10.1977-2.727,14.679,.3211,5.444,3.7029,7.1332,10.7841,6.3428,17.0101-1.3453,10.5966-9.2693,18.5885-18.405,23.2822-20.731,10.6512-47.782,8.4469-69.7882,3.8279-12.7556-2.6773-25.2237-6.8147-36.9922-12.4234-6.0025-2.8607-30.2602-12.8497-19.577-22.1322,3.8615-3.3552,9.4753-3.7087,13.2055-.0345,3.8177,3.7603,4.7058,9.8627,3.5923,14.9193-2.5545,11.6004-14.6709,18.6954-24.2545,24.0359-41.8741,23.3343-94.996,25.757-138.9195,6.5892-10.6297-4.6387-21.8896-10.3001-29.7918-18.9954-3.9175-4.3106-7.216-10.0123-7.2875-15.9883-.0533-4.4551,4.8019-13.1531,10.1178-8.1816,.8442,.7895,.4156-.2797,.3922,.6308-.0122,.4762-.3284,1.0527-.503,1.4869-.6837,1.7003-1.7887,3.2823-2.8163,4.7871-2.2406,3.2812-4.8033,6.3393-7.4365,9.3102-6.0035,6.7733-12.6994,12.1032-20.5076,16.7708-46.983,28.0853-96.8023,49.614-150.316,61.6706-52.6822,11.8693-108.6342,15.968-162.1418,7.3076-25.1489-4.0705-49.9549-11.0846-73.153-21.6817-22.2119-10.1467-44.2788-23.398-61.1273-41.2956-15.1941-16.1402-28.9345-39.0632-24.7562-62.1331,4.3221-23.8639,26.2995-37.3731,47.0919-45.84,25.9765-10.5779,53.692-14.4585,81.4357-17.0387,26.3772-2.4531,53.555-3.7398,79.1751-10.9877,19.2-5.4316,39.3783-15.5651,49.2662-33.781,11.6225-21.4114,5.3957-47.6087-6.4224-67.5213-6.0933-10.2668-14.7543-19.2407-17.2569-31.2568-.7895-3.7911-6.5948-2.1867-5.806,1.6007,2.7671,13.2867,12.4882,23.0491,18.9321,34.5585,7.0902,12.6638,11.8814,27.379,10.5447,42.0368-2.4866,27.2673-27.4728,42.0617-51.4698,48.7269-29.402,8.1664-60.4984,8.6493-90.6604,11.9793-29.3449,3.2399-59.0879,9.0653-85.2895,23.2837-21.514,11.6746-38.261,31.3703-36.0614,57.1341,2.1219,24.853,18.5602,47.1385,36.9128,62.9698,42.5276,36.6851,100.2837,54.1885,155.4406,58.4363,60.9522,4.6942,123.1391-3.9211,181.166-22.8502,29.129-9.5022,57.3935-21.7891,84.1688-36.6878,12.4056-6.9029,25.8035-13.5419,36.7222-22.7045,5.9441-4.988,11.1562-11.2141,15.6933-17.4752,3.8604-5.3273,8.8275-13.5826,.4564-17.5337-10.7483-5.0732-18.6718,6.6211-17.6775,16.2037,1.2664,12.2055,10.699,21.4378,20.4181,27.8781,10.9427,7.2511,23.3824,12.614,35.8823,16.5249,24.9523,7.8069,51.7032,9.3834,77.4599,5.0826,12.8747-2.1498,25.4286-5.8841,37.412-11.051,11.5157-4.9653,24.0132-11.19,32.7478-20.4099,7.5978-8.0198,11.5414-19.7986,6.224-30.1825-4.6852-9.1493-15.8055-11.7352-23.9726-5.4359-3.5998,2.7766-6.0039,7.0298-5.4474,11.6633,.6331,5.2707,4.6746,9.0254,8.8492,11.8407,11.5881,7.8147,25.1415,13.5015,38.418,17.7116,24.719,7.8386,54.2045,11.8518,79.5062,4.321,10.1359-3.0168,19.968-8.3031,26.332-16.9704,6.7279-9.1629,9.2157-22.5552,2.6599-32.5172-5.5949-8.5019-17.8138-11.9125-26.4466-5.9915-1.5782,1.0825-2.0622,3.279-.6093,4.7283,14.2887,14.2535,35.082,27.7671,56.0726,26.8379,15.4899-.6857,38.1457-11.103,38.3113-29.1502,.0932-10.1499-6.7199-18.999-12.7747-26.5147-7.8566-9.7523-17.0735-18.2745-25.7781-27.2434-15.9903-16.4757-26.6845-35.4157-31.8131-57.868-4.9141-21.5133-5.0132-43.8643-3.6349-65.7862,1.5294-24.3252,4.7683-48.5417,7.664-72.7306,3.2918-27.4982,6.4954-55.0298,8.0307-82.6926,.7569-13.6387,1.1091-27.3027,.895-40.962-.1995-12.7295-.562-25.781-4.0997-38.1008-5.8049-20.215-25.7882-42.4414-48.9303-33.2288-9.996,3.9793-18.6071,12.9831-24.6827,21.6236-6.7445,9.5918-10.7192,20.7662-12.927,32.2124-.7303,3.786,5.0718,5.4074,5.806,1.6007h0Z"/><g><path d="M666.2191,342.5158s29.6745,13.9059,63.7775-2.8661c-4.4725,11.7403-35.1944,24.9199-35.1944,24.9199,0,0-4.0518-8.386-10.9842-12.7395-6.9324-4.3535-17.643-9.2436-17.5988-9.3144Z"/><path d="M664.6996,345.1153c4.0821,1.9063,8.5434,3.126,12.9371,4.0407,10.4464,2.1748,21.2131,2.3283,31.7181,.4593,7.7064-1.3711,15.1339-3.9356,22.1612-7.3661-1.4742-1.1333-2.9483-2.2666-4.4225-3.3999-.2359,.6021,.2402-.492,.0458-.1046-.073,.1454-.138,.295-.2115,.4403-.1366,.2701-.2842,.5347-.4389,.7948-.1611,.2708-.331,.5362-.5081,.7968-.1015,.1494-.2092,.2945-.3117,.4432-.3793,.5501,.0856-.0907-.0682,.1-.9947,1.2336-2.0943,2.3716-3.2631,3.441-2.6664,2.4398-4.8669,3.9891-8.0837,6.0699-5.475,3.5414-11.2609,6.6119-17.1525,9.398-1.2644,.5979-2.5337,1.1893-3.8189,1.7413,1.373,.36,2.746,.72,4.119,1.08-1.8635-3.8336-4.6237-7.4799-7.7028-10.4018-4.755-4.5122-11.1216-7.3746-16.9369-10.2594-1.621-.8041-3.5143-1.453-5.019-2.4668l1.08,1.08-.0045-.0058c-.9898-1.2865-2.5895-1.9747-4.119-1.08-1.2662,.7406-2.0778,2.8222-1.08,4.119,1.0549,1.3711,2.7619,1.9136,4.2799,2.6552,2.7336,1.3356,5.4521,2.7034,8.1332,4.1418,2.7052,1.4514,5.7546,2.9695,8.0483,4.8654,2.2826,1.8866,4.1566,4.0798,5.6408,6.2439,.9075,1.3233,1.7782,2.7019,2.4809,4.1475,.7708,1.5857,2.7223,1.68,4.119,1.08,3.7449-1.6085,7.4083-3.4344,11.0081-5.3417,6.6391-3.5176,13.2529-7.4378,18.879-12.4596,2.8048-2.5035,5.307-5.3858,6.6909-8.9178,.428-1.0924-.2105-2.5156-1.0789-3.1645-1.0183-.7609-2.2142-.7867-3.3436-.2354-10.9307,5.336-22.9543,8.0617-35.1046,7.8547-2.4326-.0414-4.8632-.1939-7.282-.4559-1.2121-.1313-1.6023-.1843-2.5007-.3195-1.1094-.167-2.2152-.3573-3.3165-.5711-3.1103-.6039-6.1895-1.39-9.195-2.3949-.9932-.3321-1.9739-.6948-2.9483-1.0782-.143-.0563-.2985-.1481-.4484-.184,1.0191,.2445,.6457,.2766,.3392,.1413-.0943-.0416-.1889-.0827-.2823-.1263-1.4723-.6876-3.2455-.4133-4.119,1.08-.7628,1.3041-.3999,3.4279,1.08,4.119Z"/></g><path d="M546.3402,795.3201c5.842-13.0658,11.2885-26.3075,16.316-39.7078,.5713-1.5226-.6357-3.3003-2.1027-3.7034-1.6882-.4639-3.13,.5746-3.7034,2.1027-4.8452,12.9141-10.079,25.6777-15.7091,38.2695-.6632,1.4832-.4295,3.2361,1.08,4.119,1.2854,.7518,3.452,.4117,4.119-1.08h0Z"/><path d="M716.7865,754.8222c1.44,11.1002,2.345,22.2626,2.7121,33.4498,.1268,3.8647,6.1485,3.882,6.0211,0-.3671-11.1872-1.2722-22.3496-2.7121-33.4498-.2091-1.6121-1.234-3.0106-3.0106-3.0106-1.4642,0-3.2212,1.3867-3.0106,3.0106h0Z"/><path d="M804.5995,733.0172c5.6785,17.5068,12.4276,34.658,20.1664,51.3563,.6837,1.4752,2.8108,1.8453,4.119,1.08,1.5133-.8852,1.7663-2.6383,1.08-4.119-7.5212-16.2288-14.0408-32.904-19.5594-49.918-.5015-1.5461-2.0852-2.5474-3.7034-2.1027-1.5172,.4169-2.6064,2.1504-2.1027,3.7034h0Z"/><path d="M383.3906,258.9253c-4.2895,3.3643-8.579,6.7286-12.8685,10.0929-2.4119,1.8917-4.8237,3.7833-7.2356,5.675-2.629,2.062-4.9795,4.3547-6.525,7.382-2.832,5.5474-2.9834,11.9772-.4917,17.6687,2.2836,5.2162,6.8689,9.1842,12.2487,10.9594,2.6193,.8643,5.4866,1.1603,8.2258,.8505,1.5488-.1751,3.079-.3968,4.4514-1.1566,2.2494-1.2453,4.4988-2.4906,6.7482-3.7359,5.5354-3.0645,11.0707-6.1289,16.6061-9.1934-1.51-.8665-3.02-1.733-4.5301-2.5995,.0747,4.784,.4949,9.5826,1.0546,14.3309,1.0979,9.3141,2.7875,18.6956,6.5151,27.352,1.7849,4.145,4.221,8.3233,7.804,11.1674,1.2723,1.0099,3.0154,1.2421,4.2576,0,1.0482-1.0482,1.2804-3.2412,0-4.2576-.6683-.5305-1.2957-1.1061-1.8808-1.7273-.3036-.3224-.5882-.6595-.8762-.9956-.0866-.1011-.5481-.7084-.0903-.0996-.1844-.2453-.3664-.4921-.5429-.7432-1.1238-1.5981-2.0678-3.319-2.8932-5.088-.2183-.4679-.429-.9395-.6305-1.4148,.27,.6368-.066-.1722-.0973-.25-.0987-.2457-.1955-.4922-.2905-.7394-.4198-1.0918-.8051-2.1968-1.1624-3.3106-.6779-2.1128-1.2555-4.2571-1.7617-6.4172-.5265-2.247-.9749-4.512-1.3637-6.7866-.166-.9714-.321-1.9446-.466-2.9193-.0771-.5187-.1498-1.0379-.223-1.5572-.1211-.8595,.0794,.6332-.0295-.2204-.0427-.335-.0865-.6699-.1282-1.005-.4297-3.4591-.7482-6.9325-.9604-10.4116-.0996-1.6333-.1881-3.2704-.2137-4.9069-.0361-2.3116-2.5213-3.7116-4.5301-2.5995-4.4097,2.4413-8.8195,4.8826-13.2292,7.3239-2.7491,1.522-5.4982,3.0439-8.2473,4.5659-.7047,.3901-1.4066,.7856-2.1142,1.1704-.6514,.3543,.651-.0981-.233,.0102-1.1392,.1395-2.0324,.3402-3.3675,.3121-4.2702-.0899-8.6956-2.3431-11.1707-5.9091-2.8065-4.0435-3.4668-9.0424-1.6304-13.6726,1.0987-2.77,3.2267-4.9238,5.6473-6.8223,2.1572-1.6919,4.3145-3.3839,6.4717-5.0758,4.6702-3.6629,9.3404-7.3258,14.0107-10.9887,1.2805-1.0043,1.0524-3.2052,0-4.2576-1.2643-1.2643-2.9738-1.0069-4.2576,0h0Z"/><g><path d="M766.93,259.1362c-.7078,3.2461-1.8478,6.351-4.0216,8.9071-1.7649,2.0754-6.752,3.6717-7.7509,5.9129-2.4806,5.5661,9.1521,18.083,12.9114,21.7921,5.2142,5.2142,11.8971,9.2727,18.2734,12.8634,12.7766-24.7283,25.5437-49.1597,27.8743-77.1553,1.8745-22.517-2.5839-48.5206-19.0772-65.1551-10.3995-10.4884-18.8874-22.2159-31.5509-30.472-12.4903-8.1433-26.9064-13.385-41.7549-14.8922-29.1438-2.9583-59.2349,8.2661-79.9202,29.008-16.7542,16.8001-23.9179,36.8059-12.7195,58.3585,8.8871,17.1043,29.464,32.3477,49.532,29.0906,4.5573-.7397,9.1125-2.3891,12.4408-5.5888,3.3284-3.1998,5.2021-8.1574,3.8828-12.582,3.4608,4.4766,4.6329,10.6499,8.9575,14.2987,3.5986,3.0363,8.8331,3.6502,13.3594,2.3534,4.5263-1.2968,8.4075-4.2862,11.5935-7.753-2.4463,9.0528-1.6467,18.9471,2.2216,27.4896,1.7375-12.7251,10.8904-31.2098,27.3162-22.992,4.4729,2.2378,7.4949,6.7952,8.7077,11.6474,1.2127,4.8517,.7902,9.9808-.2754,14.8688Z"/><path d="M764.0269,258.3359c-.5719,2.5518-1.363,5.1507-2.981,7.2563-.3024,.3935-.6504,.7476-1.0374,1.0579,.4554-.3651-.3627,.2307-.3687,.2346-.2245,.1484-.4535,.2898-.6828,.4308-.9917,.6096-2.02,1.1598-2.9941,1.7981-1.8826,1.2335-3.5847,2.7708-4.0028,5.0828-.3425,1.894-.0147,3.8326,.6679,5.6164,1.5844,4.1403,4.2595,7.744,7.0403,11.154,2.3712,2.9076,4.9204,5.7233,7.6854,8.2638,5.2203,4.7966,11.3198,8.5121,17.469,11.9807,1.361,.7677,3.3619,.3852,4.119-1.08,8.1727-15.8169,16.4579-31.7154,22.0343-48.6767,5.1952-15.8018,7.6905-32.5269,6.238-49.1459-1.3442-15.3799-5.8791-30.7168-15.4682-43.0264-2.4022-3.0838-5.1952-5.7843-7.8656-8.6282-2.8375-3.0218-5.5923-6.1198-8.3932-9.1752-5.7423-6.2641-11.7531-12.2953-18.7585-17.1581-14.3294-9.9466-31.6826-15.7596-49.0732-16.7212-16.1002-.8902-32.2571,2.4367-46.9509,8.9774-14.7192,6.552-28.2555,16.6496-38.1176,29.4446-4.778,6.199-8.6382,13.2361-10.5079,20.8789-1.8384,7.5152-1.6754,15.4065,.4477,22.8459,4.3081,15.0961,15.7117,28.3156,29.5578,35.5507,6.8514,3.5801,14.5601,5.7989,22.3378,5.528,8.1746-.2848,17.3204-3.1088,21.7437-10.5246,2.1199-3.554,2.9004-7.8616,1.7866-11.8775-1.8342,.7733-3.6684,1.5465-5.5026,2.3198,2.3318,3.0842,3.596,6.7609,5.5439,10.0703,2.2299,3.7886,5.4235,6.7174,9.6918,7.9917,8.8633,2.6461,17.509-2.2053,23.403-8.5535-1.6773-.9764-3.3545-1.9527-5.0318-2.9291-2.6312,9.9575-1.6595,20.4294,2.5251,29.8094,1.0034,2.2491,5.1512,1.7899,5.5026-.7192,.2663-1.9019,.6598-3.783,1.1761-5.6327,.2336-.837,.4916-1.6672,.774-2.489,.1588-.4622,.3254-.9217,.4999-1.3782,.1051-.2749,.2132-.5486,.3239-.8213,.2363-.582-.1241,.262,.1563-.3662,.794-1.7789,1.6997-3.5063,2.7768-5.1313,.2631-.397,.5367-.7865,.8185-1.1704,.549-.7477-.3625,.4302,.2199-.2843,.1179-.1447,.2364-.2889,.3572-.4313,.6516-.7681,1.3522-1.4958,2.1066-2.1636,.8162-.7225,.6025-.5586,1.5139-1.1423,.369-.2363,.7478-.4575,1.1359-.661,.2323-.1218,.4689-.2324,.7053-.3458,.5749-.276-.4159,.1147,.2489-.095,.8479-.2675,1.676-.524,2.5584-.6601-.6548,.101,.635-.0336,.8295-.0392,.4709-.0135,.9426-.0022,1.4124,.0319,.0477,.0035,.9909,.1159,.3651,.0242,.1987,.0291,.3975,.0648,.5945,.1026,.5123,.0984,1.0198,.2222,1.5208,.3673,1.2335,.3573,2.0528,.6861,3.1325,1.2652,1.976,1.0597,3.6014,2.6367,4.7957,4.5238,3.4589,5.4652,3.2396,12.2411,1.9204,18.4203-.3392,1.5887,.4707,3.2549,2.1027,3.7034,1.4993,.412,3.3623-.5054,3.7034-2.1027,1.504-7.0445,1.757-14.4504-1.4317-21.0826-2.5928-5.3928-7.447-9.2477-13.2365-10.6996-4.569-1.1459-9.4064-.5072-13.3962,2.0483-3.8938,2.4941-6.8306,6.2918-8.9378,10.3604-2.2983,4.4375-3.8594,9.3001-4.5523,14.2487,1.8342-.2397,3.6684-.4794,5.5026-.7192-3.5045-7.8554-4.1085-16.8803-1.9181-25.1697,.7458-2.8223-2.9379-5.1844-5.0318-2.9291-4.6098,4.9649-11.1206,9.123-17.9063,6.8917-6.3423-2.0855-7.5512-10.2553-11.2757-15.1816-.9044-1.1963-2.2781-1.883-3.7594-1.2318-1.3556,.5959-2.1526,2.0753-1.7431,3.5516,.8156,2.9407-.1058,6.2166-2.1816,8.6709-2.3539,2.7831-5.7641,4.34-9.2355,5.2184-6.7045,1.6965-13.6703,.9204-20.2179-1.4309-13.2342-4.7527-24.4434-15.858-30.1396-28.645-2.9201-6.5549-4.1015-13.5837-3.3375-20.6947,.3323-3.0928,1.2738-6.6666,2.4472-9.7887,1.2182-3.2413,2.9179-6.4132,4.8237-9.3822,8.0865-12.598,20.513-22.5412,33.6828-29.4158,13.1467-6.8626,27.8794-10.7659,42.6932-11.058,16.1257-.318,32.1009,3.8216,46.1397,11.7441,6.9999,3.9502,13.1347,8.8503,18.7827,14.5535,5.6338,5.6888,10.7815,11.8335,16.3633,17.5718,2.4751,2.5445,4.8213,5.0992,6.8295,7.9867,2.0036,2.8809,3.7497,5.938,5.2518,9.1085,3.0042,6.3407,4.9731,13.3249,6.1758,20.3004,2.5256,14.6486,1.5509,30.1526-2.0428,44.6701-4.0298,16.279-11.1209,31.5385-18.674,46.4385-1.9013,3.7507-3.8342,7.4852-5.7645,11.221l4.119-1.08c-5.0012-2.821-10.0249-5.7578-14.4409-9.4536-2.9288-2.4511-5.5739-5.2504-8.0632-8.1421-1.4154-1.6443-2.3606-2.8154-3.4848-4.3874-1.1338-1.5855-2.2014-3.2333-3.0602-4.9859-.083-.1693-.5238-1.2041-.2865-.597-.1485-.38-.2911-.7619-.4093-1.1526-.1101-.364-.176-.7335-.2731-1.0997-.1374-.5177,.0108,.0684,.0153,.1704-.0104-.233-.0191-.47-.0336-.7025-.0099-.1592,.037-.3223,.0255-.4793,.0539,.739-.1112,.4658-.0169,.2531,.0701-.1579,.0966-.3509,.1582-.5149-.1336,.3559,.035,.3862-.0113,.1545,.048,.24-.2657,.2878,.1056-.0618,.0876-.0824,.529-.4757,.1513-.1701,.4907-.397,1.0577-.724,1.596-1.0494,2.3392-1.4137,4.5332-2.6497,6.1962-4.8812,1.9595-2.6291,3.0913-5.8013,3.8028-8.976,.3553-1.5853-.4819-3.258-2.1027-3.7034-1.5122-.4155-3.3462,.5092-3.7034,2.1027Z"/></g><g><path d="M777.2986,148.5974c.1775-24.3264,21.103-44.1317,43.8057-52.8719,10.179-3.9187,21.8862-6.1717,31.7986-1.6206,9.9124,4.5511,15.9639,18.1715,9.4892,26.9492,5.7437-12.4087,20.0007-18.1941,33.2519-21.5666,12.9617-3.2988,26.4906-5.3905,39.7082-3.3452,13.2176,2.0453,26.1734,8.6854,33.5178,19.8634,7.544,11.4818,8.1821,27.1469,1.597,39.2043-6.5851,12.0574-20.1097,19.9876-33.8473,19.8465,10.0033,1.0553,16.5675,12.246,15.6267,22.2607s-7.4296,18.6468-14.6607,25.639c-16.7027,16.151-38.8167,26.6063-61.8985,29.2649-11.5835,1.3342-23.6755,.6826-34.3172-4.083-10.6417-4.7656-19.6315-14.1182-21.9356-25.5483-1.8251,5.6402-8.5316,8.4807-14.4279,7.8672-5.8963-.6134-11.1549-3.8348-16.1776-6.9836"/><path d="M780.3092,148.5974c.0947-8.1896,2.7119-16.0011,7.1533-22.9927,4.4604-7.0215,10.6991-13.1308,17.5342-17.9089,7.4464-5.2055,15.6169-9.1898,24.3534-11.503,4.8241-1.2773,9.7979-1.9426,14.7845-1.4218,2.3011,.2403,4.6501,.8387,6.7859,1.7295,.8469,.3532,1.6645,.7851,2.4463,1.2646,.8505,.5216,1.4451,.9585,2.0016,1.4355,1.6973,1.4548,2.8855,2.8432,3.9578,4.5672,1.1981,1.9264,1.7934,3.2878,2.3221,5.4458,.3787,1.5455,.5598,3.5955,.3121,5.2239-.0838,.5512-.4243,1.8607-.7476,2.6824-.2077,.5278,.3094-.6059-.1239,.2667-.115,.2316-.2323,.4615-.3579,.6877-.2819,.5079-.5995,.9892-.9386,1.4603,1.733,1.013,3.466,2.026,5.1991,3.039,4.963-10.5356,16.1178-15.7193,26.8942-18.9289,13.9355-4.1505,29.3152-6.948,43.809-4.4108,11.7605,2.0587,23.5552,7.8484,30.3621,17.9702,6.8568,10.1958,7.9442,24.0442,2.5316,35.0932-5.8919,12.0276-18.7602,19.8139-31.969,19.7487-1.6269-.008-3.0106,1.3894-3.0106,3.0106,0,1.7846,1.3884,2.8207,3.0106,3.0106-.5236-.0613,.525,.0947,.4985,.0894,.3179,.0631,.6337,.137,.9467,.2213,.3104,.0837,.618,.1777,.9223,.2818-.0309-.0106,.9444,.3622,.4709,.162,.5852,.2475,1.1514,.553,1.6962,.8789,.2738,.1638,.5425,.3359,.8061,.5155,.0649,.0442,.7469,.5428,.4201,.29,2.1316,1.6491,3.4355,3.3881,4.6606,5.6971,1.0204,1.9232,1.923,4.8016,2.1503,6.7831,.3212,2.8009,.0268,5.5262-.706,8.2306-1.6247,5.9956-5.2359,11.2662-9.3602,15.8283-4.2937,4.7494-9.1776,9.0269-14.3559,12.7861-10.5315,7.6454-22.4132,13.3311-34.9947,16.6647-12.8711,3.4103-27.016,4.8687-40.0293,1.4074-12.9007-3.4314-24.6191-12.7189-27.4079-26.1138-.2669-1.2819-1.6431-2.2102-2.903-2.2102-1.3779,0-2.4703,.9488-2.903,2.2102-.2296,.6692-.845,1.7386-1.3658,2.3069-.8661,.945-1.3726,1.3176-2.4943,1.9378-1.8664,1.032-4.0031,1.5048-6.1488,1.4933-5.9294-.0317-11.3347-3.6221-16.1742-6.6536-3.2933-2.063-6.3189,3.1445-3.039,5.1991,6.0266,3.7752,12.8343,7.8802,20.2328,7.4485,6.4244-.3748,12.6306-3.8208,14.7953-10.1314h-5.806c2.7806,13.3558,13.5637,23.5283,25.8944,28.4347,14.1471,5.6291,30.3718,4.7245,44.9685,1.451,13.7595-3.0857,26.9926-8.9,38.5757-16.9408,5.7964-4.0238,11.3006-8.5734,16.1673-13.6904,4.9277-5.1811,9.2435-11.1145,11.5732-17.9332,2.0704-6.0599,2.2386-12.7175-.1759-18.704-2.3239-5.7618-6.4639-10.6466-12.3459-12.9338-1.4786-.5749-2.9987-.8441-4.569-1.0278v6.0211c13.6238,.0672,26.7612-6.9787,34.4839-18.1545,8.089-11.7057,8.8893-27.4182,3.1753-40.2722-5.6748-12.7658-18.1783-21.2447-31.3147-24.9265-15.7545-4.4155-32.5357-2.1028-48.1206,1.8706-12.2456,3.122-25.3101,8.1533-32.7681,18.9572-.8735,1.2654-1.628,2.6025-2.2829,3.9929-1.6618,3.5278,2.9324,6.188,5.1991,3.039,5.4525-7.5748,3.0217-17.768-2.4361-24.5821-6.5975-8.237-17.585-10.3397-27.5994-9.0184-10.286,1.3571-20.3101,5.5376-29.1046,10.9646-8.238,5.0836-15.6076,11.5577-21.3545,19.3663-6.2525,8.4956-10.0864,18.6946-10.209,29.2934-.0448,3.8757,5.9763,3.8783,6.0211,0h0Z"/></g><g><path d="M654.673,140.4266c-11.4055,6.1481-21.144,15.2816-28.1936,26.1384-7.158,11.0237-7.8213,24.3091-19.0906,32.1006-6.3775,4.4093-13.7101,7.2547-20.237,11.4397-6.4477,4.1343-12.2,9.7796-14.9886,16.9133-2.7886,7.1337-2.1445,15.8837,2.873,21.6708s14.6864,7.4269,20.5967,2.5552c1.6304-1.3439,2.9069-3.0657,4.0447-4.846,.4201-.6573,.8295-1.5039,.4299-2.1738-.3771-.6322-1.26-.714-1.9881-.6049-5.1448,.7705-7.6854,7.3149-6.1491,12.2851,1.5364,4.9702,5.7681,8.5646,9.8929,11.7347,8.7113,6.6951,20.1544,8.6118,30.8971,6.559,.6464-.1235,1.3291-.2824,1.7927-.7495,.5701-.5743,.6599-1.4547,.7286-2.261,1.7249-20.2329,10.5458-39.7909,24.5696-54.4768-3.1851-3.7367-8.1334-5.3946-12.0844-8.3096-7.6355-5.6332-10.8706-15.3213-13.6766-24.3856"/><path d="M653.1535,137.8271c-10.0702,5.4644-18.7946,13.1163-25.7372,22.2096-3.1317,4.1019-5.7287,8.4244-7.7755,13.1628-1.9897,4.6063-3.4841,9.0205-5.8076,13.3882-2.3249,4.3703-5.2419,7.7629-9.4518,10.4694-5.0867,3.2702-10.6431,5.7061-15.8798,8.713-9.4837,5.4454-18.6462,13.8989-20.5474,25.1849-.9178,5.4485-.3378,11.0991,2.2763,16.0249,2.4371,4.5924,6.6696,7.9592,11.6557,9.3963,4.7417,1.3667,10.332,.9379,14.4628-1.9253,2.4339-1.687,4.3993-4.0074,5.9282-6.5331,.9522-1.573,1.4163-3.5271,.4299-5.2128-.9101-1.5553-2.7035-2.2015-4.4278-2.113-5.1218,.2629-8.7835,5.0672-9.5336,9.8125-.8976,5.6785,1.7112,10.7449,5.6107,14.7395,8.0215,8.2171,18.7738,12.8658,30.2692,12.8476,2.9232-.0046,5.8622-.3075,8.7334-.8526,1.6127-.3062,3.1051-1.0029,4.0098-2.4343,.893-1.4128,.8768-3.1406,1.037-4.7462,.5451-5.4616,1.6819-10.8681,3.2671-16.1207,3.1314-10.3763,8.1937-20.2686,14.9115-28.7875,1.6991-2.1546,3.5055-4.2216,5.3956-6.2103,1.1746-1.2359,1.0972-3.007,0-4.2576-2.4931-2.8418-5.8485-4.6262-9.0788-6.484-2.975-1.711-5.5459-3.639-7.6817-6.3721-4.1428-5.3012-6.2384-12.0969-8.2263-18.5106-1.1436-3.6896-6.9578-2.1152-5.806,1.6007,2.2074,7.1217,4.5934,14.4435,9.1952,20.4235,2.3435,3.0454,5.1679,5.4952,8.4672,7.4663,3.1113,1.8588,6.4485,3.3704,8.8729,6.1338v-4.2576c-11.9317,12.5545-20.3172,28.4584-23.8298,45.4286-.431,2.0824-.7813,4.1789-1.0679,6.2859-.1565,1.1504-.3015,2.3018-.4193,3.4568-.0486,.4767-.075,.9588-.1345,1.4342-.0796,.6361-.0258,.3917-.0286,.2472-.1403,.4084-.1247,.4453,.0469,.1106,.049-.1556,.146-.2654,.2911-.3294l.1563-.1037c-.1914,.0581-.3853,.1055-.5817,.1424-.2652,.0581-.5329,.1038-.8001,.1511-.4707,.0832-.9427,.1644-1.4166,.2274-.9495,.1262-1.9078,.2072-2.8639,.263-2.1027,.1226-4.2141,.0933-6.3118-.0981-8.1594-.7446-15.4162-4.4842-21.3084-10.0834-1.5139-1.4386-2.8637-2.988-3.8452-4.8418-.9441-1.7831-1.1704-3.0207-1.0379-4.8764,.0045-.0637,.0901-.7086,.0386-.391-.0458,.2826,.1047-.4694,.1207-.5378,.1081-.4607,.2438-.9167,.4124-1.3589,.1242-.3258,.0246-.0658-.0039-.0023,.1256-.2806,.2725-.5573,.4268-.8231,.0798-.1375,.6509-.9518,.3957-.6358,.2782-.3444,.6009-.6691,.9403-.9526,.2661-.2223,.025-.0148-.0255,.0203,.241-.1673,.4974-.3204,.759-.4534,.0124-.0063,.4507-.1882,.1835-.0881-.2862,.1072,.4306-.1146,.4962-.1316,.8226-.2131,.1368-.0551,.124-.0462l.327-.0043c-.2632-.0769-.5256-.1564-.7873-.2385l-.7742-1.3285c-.2048-.5236,.4192-.7323-.1264-.146-.2276,.2446-.3925,.6047-.582,.8834-.3731,.5486-.7559,1.0788-1.1915,1.5797-.9536,1.0964-1.6702,1.7708-2.8376,2.442-1.8682,1.0742-3.6695,1.4064-5.9616,1.3059-1.9725-.0864-4.2077-.7437-6.0405-1.8013-1.9755-1.1399-3.5602-2.7409-4.7674-4.8591-2.4735-4.3403-2.7091-9.6918-1.3535-14.4631,1.4811-5.213,4.9085-9.6235,8.9037-13.1837,4.4969-4.0073,9.8879-6.7574,15.2004-9.5077,5.3941-2.7926,11.0997-5.6336,15.2997-10.1336,7.3874-7.9151,9.1675-18.8134,14.5404-27.7876,6.6171-11.0525,16.6235-20.2063,27.9042-26.3276,3.4069-1.8487,.3709-7.0494-3.039-5.1991h0Z"/></g><path d="M652.0002,248.5129c.2463,.0294,.4925,.0593,.7386,.0906,.2124,.027,.3263,.0433,.0459,.0045,.1108,.0153,.2217,.0306,.3324,.0464,.5291,.0757,1.057,.1599,1.5825,.2574,1.0159,.1885,2.025,.4255,3.0055,.7537,.2338,.0782,.4658,.1618,.6956,.2511,.0418,.0162,.3709,.1515,.1378,.0525-.2596-.1103,.1559,.0724,.2052,.0954,.435,.2036,.8589,.432,1.2641,.6901,.1116,.0711,.2215,.1446,.3301,.2201,.0781,.0543,.3821,.2904,.0393,.0159,.1857,.1487,.3668,.3021,.5407,.4645,.1747,.1631,.3429,.3334,.5026,.5114,.0716,.0798,.1405,.1618,.21,.2434,.3479,.4075-.2344-.3293,.0803,.1113,.6087,.8522,1.7775,1.3444,2.746,.72,.8454-.5451,1.3727-1.8324,.72-2.746-3.0608-4.2847-8.2782-5.2112-13.1767-5.7964-1.0464-.125-2.0516,1.0123-2.007,2.007,.0535,1.1942,.8859,1.8731,2.007,2.007h0Z"/><path d="M686.2492,253.8697c4.9608-1.6443,10.3363-.74,14.5611,2.4409,.8666,.6525,2.2437,.1387,2.746-.72,.601-1.0274,.1487-2.092-.72-2.746-4.952-3.7284-11.7814-4.7921-17.6542-2.8455-1.0286,.3409-1.6996,1.3853-1.4018,2.4689,.2765,1.0061,1.4356,1.7443,2.4689,1.4018h0Z"/><path d="M677.6409,296.0881c-1.1015,1.569-3.1988,3.6696-1.8985,5.6967,.9588,1.4948,3.6438,1.6362,5.2316,1.5933,3.5099-.0948,7.1683-1.244,10.2521-2.8971,1.6483-.8836,3.0139-2.2146,4.4121-3.4348,.5962-.5203,1.1955-1.0217,1.8718-1.4355,.3065-.1875,.617-.3647,.9549-.4869,.1546-.0559,.3147-.0852,.4703-.1362,.1786-.0586-.1289-.1655-.0537-.0011,.7771,1.6981,.4209,3.2183-.5557,4.7881-1.0627,1.7082-2.5559,3.3105-4.0203,4.6836-.7554,.7083-1.5627,1.2255-2.5235,1.6085-1.2268,.4891-2.062,1.642-1.7215,3.0059,.6997,2.8032,4.4881,2.7425,6.7161,2.3788,1.0706-.1748,1.667-1.504,1.4018-2.4689-.3126-1.1376-1.3951-1.5771-2.4689-1.4018-.4307,.0703-.8766,.0782-1.3112,.043-.1642-.0029-.3264-.023-.4866-.0605-.5498-.2044-.5496-.0987,.0007,.317l-.2023,1.5465,.1094-.2432-.72,.72c.5587-.4111,1.3866-.6119,2.0137-1.0088,.7787-.4928,1.5046-1.0931,2.168-1.7306,1.2326-1.1844,2.374-2.5051,3.4247-3.8522,2.1744-2.7877,3.6243-6.4988,1.8981-9.8958-1.9026-3.7441-5.8617-2.3408-8.4817-.3007-2.2172,1.7265-4.0117,3.6446-6.6719,4.7078-1.5588,.623-3.1966,1.1199-4.855,1.3905-1.2687,.207-2.8872,.3556-4.1068-.1751l.72,.72-.1277-.2212,.274,1.013c.0158,.246-.1811,.2556,.055-.0189,.2262-.263,.4072-.58,.6062-.8635,.3637-.5181,.7274-1.0361,1.0911-1.5542,.6231-.8876,.1605-2.231-.72-2.746-1.0023-.5862-2.1214-.1697-2.746,.72h0Z"/><g><path d="M686.1781,267.8336c1.2352,3.7232,7.2153,3.6363,7.9299-.3864,.3215-1.811-.7176-3.6247-2.0916-4.8475-3.5711-3.1782-7.028,1.6479-5.8383,5.2339Z"/><path d="M684.2428,268.3671c.7297,2.1238,2.5181,3.7234,4.7623,4.0723,2.3708,.3686,4.707-.4042,6.149-2.3758,.7203-.9849,1.0872-2.3269,1.0114-3.5398-.1088-1.7404-.8677-3.2564-1.9787-4.5727-.8962-1.0618-2.1691-2.045-3.5704-2.2862-1.3233-.2278-2.6964-.0072-3.7946,.8057-2.3797,1.7615-3.4884,5.0499-2.579,7.8964,.319,.9985,1.4084,1.745,2.4689,1.4018,1.0005-.3238,1.7439-1.3979,1.4018-2.4689-.0658-.2059-.1121-.413-.1588-.6238-.0079-.0358-.0318-.1104-.0246-.1463,.0098-.0493,.0432,.5112,.0413,.2884-.001-.1144-.0191-.2302-.0227-.3449-.0067-.2147,.0054-.4269,.0193-.6409,.0277-.426-.0802,.4068-.0146,.094,.0235-.1122,.0423-.2251,.0685-.3369,.0483-.2059,.1078-.4092,.1787-.6085,.0158-.0443,.0395-.0907,.0507-.1363,.051-.2092-.1189,.302-.111,.2561,.0169-.0982,.098-.2143,.1432-.303,.0927-.182,.1957-.3589,.3092-.5287,.0414-.0619,.0985-.1859,.1608-.2266,.0099-.0064-.3523,.4159-.1423,.192,.0412-.044,.0791-.0912,.1201-.1354,.1213-.1313,.2529-.2489,.386-.3677,.2356-.2101-.4208,.2825-.093,.0801,.0851-.0525,.1682-.1072,.2562-.155,.0744-.0405,.1538-.0719,.2279-.1124-.5387,.2945-.3112,.127-.1243,.0714,.0809-.024,.1628-.0412,.2447-.061,.3817-.0922-.5161,.0172-.113,.02,.0863,.0006,.1729,.0003,.2592,.0007,.01,0,.13,.0126,.1313,.0093-.0056,.0152-.4765-.0895-.3123-.041,.1023,.0302,.211,.0431,.3141,.073,.0878,.0254,.4601,.1715,.1249,.0302-.3347-.1411,.0069,.0122,.0829,.0532,.1115,.0602,.2201,.1258,.3255,.1961,.0472,.0315,.0924,.067,.1402,.0976,.1745,.1116-.1774-.1411-.172-.1347,.0895,.1059,.2249,.1918,.327,.2873,.2008,.1878,.3918,.3862,.5709,.5947,.0415,.0483,.0803,.0993,.1225,.1469,.1422,.1601-.1239-.1477-.1178-.1548-.0079,.0092,.2547,.3667,.2881,.4195,.1354,.2143,.2515,.437,.3649,.6634,.1526,.3046-.0484-.0931-.0544-.1349,.008,.0557,.0455,.1216,.0641,.1751,.0474,.1362,.0895,.2744,.1246,.4143,.021,.0836,.1015,.5735,.0561,.2156-.0434-.3418-.0009,.078,.0017,.1604,.004,.1231,.0023,.246-.0053,.3689-.0037,.0591-.0191,.1262-.0154,.185-.006-.0963,.0823-.4419,.0106-.1561-.0419,.167-.0855,.3304-.1377,.4946-.1159,.3643,.2036-.4137,.0633-.138-.0422,.083-.0822,.1666-.1282,.2477-.0386,.0681-.0795,.1349-.1226,.2002-.0212,.0322-.0453,.0632-.0654,.096-.1461,.239,.1655-.2496,.1745-.2229,.0177,.0522-.293,.3181-.3365,.3584-.0483,.0447-.1332,.1485-.1988,.1714,.0889-.031,.4448-.3124,.1652-.1369-.1484,.0932-.2975,.1796-.4523,.2616-.3331,.1764,.2042-.0906,.206-.0802,.0015,.0088-.1925,.0722-.211,.0785-.1664,.0569-.3365,.1033-.5085,.1397-.0964,.0204-.4501,.0711-.0317,.016,.4042-.0531,.0975-.0136,.0027-.0057-.1772,.0148-.3552,.0193-.533,.0138-.0892-.0028-.1778-.01-.2668-.0157-.0379-.0024-.0761-.0103-.114-.0116-.2121-.0069,.5119,.0932,.3064,.0405-.1852-.0475-.3744-.0724-.5588-.1264-.0979-.0287-.1936-.0629-.2901-.0958-.0359-.0123-.0706-.03-.1069-.0412-.1943-.06,.443,.2171,.269,.112-.1628-.0984-.3408-.1708-.5023-.2741-.0749-.0479-.1448-.1057-.2205-.1518-.1452-.0883,.2878,.1898,.2547,.1965-.0264,.0054-.1276-.109-.1458-.1253-.1356-.1223-.2497-.2605-.3759-.3912-.1558-.1613,.2932,.4082,.1689,.2202-.0291-.044-.0615-.0861-.0908-.1301-.0519-.0779-.1011-.1577-.1471-.2393-.0305-.0541-.1036-.276-.1483-.292,.0024,.0009,.1631,.4417,.1211,.2869-.0181-.0667-.0501-.1346-.0725-.1999-.3404-.9907-1.3928-1.75-2.4689-1.4018-.9821,.3178-1.7671,1.4058-1.4018,2.4689Z"/></g><g><path d="M648.0443,263.1505c1.2352,3.7232,7.2153,3.6363,7.9299-.3864,.3215-1.811-.7176-3.6247-2.0916-4.8475-3.5711-3.1782-7.028,1.6479-5.8383,5.2339Z"/><path d="M646.109,263.684c.7297,2.1238,2.5181,3.7234,4.7623,4.0723,2.3708,.3686,4.707-.4042,6.149-2.3758,.7203-.9849,1.0872-2.3269,1.0114-3.5398-.1088-1.7404-.8677-3.2564-1.9787-4.5727-.8962-1.0618-2.1691-2.045-3.5704-2.2862-1.3233-.2278-2.6964-.0072-3.7946,.8057-2.3797,1.7615-3.4884,5.0499-2.579,7.8964,.319,.9985,1.4084,1.745,2.4689,1.4018,1.0005-.3238,1.7439-1.3979,1.4018-2.4689-.0658-.2059-.1121-.413-.1588-.6238-.0079-.0358-.0318-.1104-.0246-.1463,.0098-.0493,.0432,.5112,.0413,.2884-.001-.1144-.0191-.2302-.0227-.3449-.0067-.2147,.0054-.4269,.0193-.6409,.0277-.426-.0802,.4068-.0146,.094,.0235-.1122,.0423-.2251,.0685-.3369,.0483-.2059,.1078-.4092,.1787-.6085,.0158-.0443,.0395-.0907,.0507-.1363,.051-.2092-.1189,.302-.111,.2561,.0169-.0982,.098-.2143,.1432-.303,.0927-.182,.1957-.3589,.3092-.5287,.0414-.0619,.0985-.1859,.1608-.2266,.0099-.0064-.3523,.4159-.1423,.192,.0412-.044,.0791-.0912,.1201-.1354,.1213-.1313,.2529-.2489,.386-.3677,.2356-.2101-.4208,.2825-.093,.0801,.0851-.0525,.1682-.1072,.2562-.155,.0744-.0405,.1538-.0719,.2279-.1124-.5387,.2945-.3112,.127-.1243,.0714,.0809-.024,.1628-.0412,.2447-.061,.3817-.0922-.5161,.0172-.113,.02,.0863,.0006,.1729,.0003,.2592,.0007,.01,0,.13,.0126,.1313,.0093-.0056,.0152-.4765-.0895-.3123-.041,.1023,.0302,.211,.0431,.3141,.073,.0878,.0254,.4601,.1715,.1249,.0302-.3347-.1411,.0069,.0122,.0829,.0532,.1115,.0602,.2201,.1258,.3255,.1961,.0472,.0315,.0924,.067,.1402,.0976,.1745,.1116-.1774-.1411-.172-.1347,.0895,.1059,.2249,.1918,.327,.2873,.2008,.1878,.3918,.3862,.5709,.5947,.0415,.0483,.0803,.0993,.1225,.1469,.1422,.1601-.1239-.1477-.1178-.1548-.0079,.0092,.2547,.3667,.2881,.4195,.1354,.2143,.2515,.437,.3649,.6634,.1526,.3046-.0484-.0931-.0544-.1349,.008,.0557,.0455,.1216,.0641,.1751,.0474,.1362,.0895,.2744,.1246,.4143,.021,.0836,.1015,.5735,.0561,.2156-.0434-.3418-.0009,.078,.0017,.1604,.004,.1231,.0023,.246-.0053,.3689-.0037,.0591-.0191,.1262-.0154,.185-.006-.0963,.0823-.4419,.0106-.1561-.0419,.167-.0855,.3304-.1377,.4946-.1159,.3643,.2036-.4137,.0633-.138-.0422,.083-.0822,.1666-.1282,.2477-.0386,.0681-.0795,.1349-.1226,.2002-.0212,.0322-.0453,.0632-.0654,.096-.1461,.239,.1655-.2496,.1745-.2229,.0177,.0522-.293,.3181-.3365,.3584-.0483,.0447-.1332,.1485-.1988,.1714,.0889-.031,.4448-.3124,.1652-.1369-.1484,.0932-.2975,.1796-.4523,.2616-.3331,.1764,.2042-.0906,.206-.0802,.0015,.0088-.1925,.0722-.211,.0785-.1664,.0569-.3365,.1033-.5085,.1397-.0964,.0204-.4501,.0711-.0317,.016,.4042-.0531,.0975-.0136,.0027-.0057-.1772,.0148-.3552,.0193-.533,.0138-.0892-.0028-.1778-.01-.2668-.0157-.0379-.0024-.0761-.0103-.114-.0116-.2121-.0069,.5119,.0932,.3064,.0405-.1852-.0475-.3744-.0724-.5588-.1264-.0979-.0287-.1936-.0629-.2901-.0958-.0359-.0123-.0706-.03-.1069-.0412-.1943-.06,.443,.2171,.269,.112-.1628-.0984-.3408-.1708-.5023-.2741-.0749-.0479-.1448-.1057-.2205-.1518-.1452-.0883,.2878,.1898,.2547,.1965-.0264,.0054-.1276-.109-.1458-.1253-.1356-.1223-.2497-.2605-.3759-.3912-.1558-.1613,.2932,.4082,.1689,.2202-.0291-.044-.0615-.0861-.0908-.1301-.0519-.0779-.1011-.1577-.1471-.2393-.0305-.0541-.1036-.276-.1483-.292,.0024,.0009,.1631,.4417,.1211,.2869-.0181-.0667-.0501-.1346-.0725-.1999-.3404-.9907-1.3928-1.75-2.4689-1.4018-.9821,.3178-1.7671,1.4058-1.4018,2.4689Z"/></g><g><path d="M690.8777,298.4327c2.6726,.3407,4.5195,3.5939,3.4423,6.0634,2.4982-1.5029,4.5006-3.8154,5.6305-6.503,.3007-.7151,.5445-1.4931,.4124-2.2575s-.747-1.4935-1.5224-1.5156c-.3908-.0111-.7633,.1508-1.1206,.3095-1.6275,.7232-3.3842,1.5684-4.1454,3.1784"/><path d="M690.3442,300.3681c.077,.0112,.8494,.2432,.8707,.2215-.282-.1233-.3254-.1391-.1301-.0471,.0759,.0382,.1505,.0788,.2239,.1217,.044,.0257,.3216,.2076,.3213,.208-.2345-.1874-.2691-.2132-.1037-.0774,.0651,.0556,.1287,.113,.1906,.1721,.0931,.0889,.1826,.1818,.2681,.278,.0572,.0644,.1126,.1302,.1663,.1976-.1671-.2198-.2075-.2687-.121-.1466,.0569,.1319,.1701,.2571,.2418,.3834,.0079,.0139,.1775,.3455,.1785,.3452-.1138-.2826-.1309-.3233-.0516-.1218,.0303,.0806,.0584,.162,.0844,.2441,.0388,.1227,.0727,.2473,.1013,.3728,.0191,.0835,.0358,.1674,.0501,.2518-.0385-.3225-.0464-.3734-.0238-.1526,.0038,.1281,.0152,.254,.014,.3825-.0008,.085-.0042,.1698-.0102,.2546-.0213,.2208-.0126,.1695,.0259-.1541-.0474,.0353-.0683,.3195-.0835,.3743-.0463,.1667-.1063,.3272-.1725,.4868-.3017,.7269,.1569,1.6752,.7193,2.1097,.6233,.4816,1.5378,.5784,2.2291,.1569,2.675-1.6312,4.9317-4.0571,6.2214-6.926,.8828-1.9637,1.3258-4.1292-.1959-5.9136-.715-.8384-1.8646-1.2816-2.9511-1.1356-.9056,.1217-1.7246,.5363-2.5432,.9283-1.6147,.7733-3.2047,1.8663-4.0227,3.5125-.4666,.939-.2824,2.2164,.72,2.746,.9077,.4796,2.2472,.2838,2.746-.72,.0903-.1816,.1929-.3502,.2983-.523,.2414-.3956-.2734,.2657,.0524-.0626,.1408-.1418,.2742-.2874,.4241-.4204,.0976-.0866,.3603-.4147,.0657-.0639,.2012-.2396,.6365-.4228,.9106-.5757,.3174-.1771,.6433-.3388,.9721-.4935,.1401-.0659,.281-.1302,.4221-.194,.0932-.042,.1866-.0838,.2801-.1253-.2221,.0892-.2259,.0926-.0114,.0103,.132-.0377,.5569-.0714,.1191-.0459-.1705,.0056-.326-.0396-.4666-.1354,.1856,.1122,.1676,.0876-.0541-.0737,.284,.2548-.137-.3279,.0546,.0449,.1871,.3642-.1151-.3646,.0379,.135,.0276,.1313,.0206,.0951-.0211-.1087,.0035,.1181-.0002,.2361-.011,.3538,.0349-.4553-.0565,.1502-.0873,.2545-.0599,.2026-.1345,.3988-.2096,.5961,.1554-.4083-.021,.0421-.0622,.131-.1589,.3428-.3323,.6788-.5188,1.0074s-.3869,.6493-.5997,.9614c-.1065,.1562-.2213,.3063-.3288,.4616-.0864,.1153-.0637,.0872,.068-.0845-.0668,.0848-.1347,.1688-.2034,.252-.4813,.5825-1.0095,1.1268-1.5786,1.624-.1221,.1067-.2472,.209-.3711,.3134-.1761,.1401-.168,.1356,.0244-.0136-.086,.0652-.1728,.1294-.2603,.1926-.3066,.2213-.623,.4275-.9457,.6243,.9828,.7555,1.9656,1.511,2.9483,2.2666,1.4272-3.4384-1.1605-7.9957-4.8441-8.5323-1.0343-.1507-2.2078,.2553-2.4689,1.4018-.2166,.9511,.2908,2.307,1.4018,2.4689h0Z"/></g></g><path d="M183.5365,66.7947c2.1438,7.811,4.2876,15.622,6.4313,23.433,1.0243,3.732,6.8348,2.1476,5.806-1.6007-2.1438-7.811-4.2876-15.622-6.4313-23.433-1.0243-3.732-6.8348-2.1476-5.806,1.6007h0Z" style="fill:#f953b2;"/><path d="M48.4342,143.9719c6.5331,3.0234,13.0663,6.0468,19.5994,9.0701,1.4746,.6824,3.2435,.4168,4.119-1.08,.7604-1.3001,.4024-3.433-1.08-4.119-6.5331-3.0234-13.0663-6.0468-19.5994-9.0701-1.4746-.6824-3.2435-.4168-4.119,1.08-.7604,1.3001-.4024,3.433,1.08,4.119h0Z" style="fill:#f953b2;"/><path d="M25.8003,322.8626c2.979-1.1916,5.9579-2.3832,8.9369-3.5747,.7552-.3021,1.373-.6552,1.7992-1.3835,.3776-.6453,.5376-1.5964,.3035-2.3198-.2357-.7285-.6872-1.4313-1.3835-1.7992-.67-.354-1.5832-.5981-2.3198-.3035-2.979,1.1916-5.9579,2.3832-8.9369,3.5747-.7552,.3021-1.373,.6552-1.7992,1.3835-.3776,.6453-.5376,1.5964-.3035,2.3198,.2357,.7285,.6872,1.4313,1.3835,1.7992,.67,.354,1.5832,.5981,2.3198,.3035h0Z" style="fill:#f953b2;"/><path d="M80.75,416.8193c2.3832-2.979,4.7663-5.9579,7.1495-8.9369,.5172-.6465,.8818-1.2672,.8818-2.1288,0-.7384-.328-1.6204-.8818-2.1288-.5737-.5267-1.327-.9177-2.1288-.8818-.746,.0334-1.6406,.2716-2.1288,.8818-2.3832,2.979-4.7663,5.9579-7.1495,8.9369-.5172,.6465-.8818,1.2672-.8818,2.1288,0,.7384,.328,1.6204,.8818,2.1288,.5737,.5267,1.327,.9177,2.1288,.8818,.746-.0334,1.6406-.2716,2.1288-.8818h0Z" style="fill:#f953b2;"/><path d="M24.1997,228.1318l7.1495,1.7874c.7689,.1922,1.6298,.1003,2.3198-.3035,.6245-.3654,1.2201-1.0815,1.3835-1.7992,.1755-.7707,.1375-1.6357-.3035-2.3198-.4197-.6509-1.0294-1.1911-1.7992-1.3835-2.3832-.5958-4.7663-1.1916-7.1495-1.7874-.7689-.1922-1.6298-.1003-2.3198,.3035-.6245,.3654-1.2201,1.0815-1.3835,1.7992-.1755,.7707-.1375,1.6357,.3035,2.3198,.4197,.6509,1.0294,1.1911,1.7992,1.3835h0Z" style="fill:#f953b2;"/><path d="M122.3632,99.9188c2.3769,4.1741,4.7539,8.3482,7.1308,12.5223,.7797,1.3693,2.7631,1.9543,4.119,1.08,1.3832-.8918,1.9143-2.6541,1.08-4.119-2.3769-4.1741-4.7539-8.3482-7.1308-12.5223-.7797-1.3693-2.7631-1.9543-4.119-1.08-1.3832,.8918-1.9143,2.6541-1.08,4.119h0Z" style="fill:#f953b2;"/><path d="M265.1831,99.7542c2.3649-3.5868,4.7297-7.1736,7.0946-10.7604,.8688-1.3177,.3044-3.3875-1.08-4.119-1.508-.7967-3.1918-.3262-4.119,1.08-2.3649,3.5868-4.7297,7.1736-7.0946,10.7604-.8688,1.3177-.3044,3.3875,1.08,4.119,1.508,.7967,3.1918,.3262,4.119-1.08h0Z" style="fill:#f953b2;"/><path d="M333.4549,144.6812c5.9346-8.3577,11.8692-16.7153,17.8037-25.073,.9419-1.3265,.2355-3.3496-1.08-4.119-1.5095-.8829-3.175-.2495-4.119,1.08-5.9346,8.3577-11.8692,16.7153-17.8037,25.073-.9419,1.3265-.2355,3.3496,1.08,4.119,1.5095,.8829,3.175,.2495,4.119-1.08h0Z" style="fill:#f953b2;"/><path d="M368.1684,199.8391c2.3097-1.1549,4.6195-2.3097,6.9292-3.4646,.6496-.3248,1.1957-1.117,1.3835-1.7992,.1984-.7206,.1089-1.6802-.3035-2.3198-.4144-.6428-1.0316-1.2087-1.7992-1.3835-.8193-.1866-1.5655-.0737-2.3198,.3035-2.3097,1.1549-4.6195,2.3097-6.9292,3.4646-.6496,.3248-1.1957,1.117-1.3835,1.7992-.1984,.7206-.1089,1.6802,.3035,2.3198,.4144,.6428,1.0316,1.2087,1.7992,1.3835,.8193,.1866,1.5655,.0737,2.3198-.3035h0Z" style="fill:#f953b2;"/></svg>