<?xml version="1.0" encoding="UTF-8"?><svg id="Layer_2" xmlns="http://www.w3.org/2000/svg" width="1000" height="1000" viewBox="0 0 1000 1000"><g><polygon points="553.8358 857.7913 190.6067 839.2847 190.6067 56.6082 553.8358 75.1149 553.8358 857.7913" style="fill:#f4d13b;"/><polygon points="364.5079 402.705 232.6796 395.9884 232.6796 111.9282 364.5079 118.6449 364.5079 402.705" style="fill:#fff;"/><polygon points="520.8787 410.5576 389.0504 403.8409 389.0504 119.7807 520.8787 126.4974 520.8787 410.5576" style="fill:#fff;"/><polygon points="359.5994 779.0312 227.7711 771.3883 227.7711 448.1602 359.5994 455.803 359.5994 779.0312" style="fill:#fff;"/><circle cx="232.3987" cy="420.6973" r="25.2816" style="fill:#f953b2;"/><polygon points="515.9702 787.9665 384.1419 780.3236 384.1419 457.0955 515.9702 464.7384 515.9702 787.9665" style="fill:#fff;"/><path d="M552.2733,855.1183c-31.014,13.1923-62.0279,26.3846-93.0419,39.5769-49.4547,21.0364-98.9094,42.0728-148.3641,63.1091-11.3805,4.8409-22.7609,9.6818-34.1414,14.5226l4.6582,2.673V204.1628c0-3.4348,.3784-7.1166,0-10.5353-.0469-.4235,0-.8763,0-1.304l-1.5332,2.673c31.014-13.1923,62.0279-26.3846,93.0419-39.5769,49.4547-21.0364,98.9094-42.0728,148.3641-63.1091,11.3805-4.8409,22.7609-9.6818,34.1414-14.5226,3.6549-1.5547,.5036-6.8896-3.1249-5.3461-31.014,13.1923-62.0279,26.3846-93.0419,39.5769-49.4547,21.0364-98.9094,42.0728-148.3641,63.1091-11.3805,4.8409-22.7609,9.6818-34.1414,14.5226-.9667,.4112-1.5332,1.6902-1.5332,2.673V943.1673c0,10.1659-.2389,20.3648,0,30.5288,.0102,.4341,0,.8696,0,1.304,0,2.5712,2.5794,3.5573,4.6582,2.673,31.014-13.1923,62.0279-26.3846,93.0419-39.5769,49.4547-21.0364,98.9094-42.0728,148.3641-63.1091,11.3805-4.8409,22.7609-9.6818,34.1414-14.5226,3.6549-1.5547,.5036-6.8896-3.1249-5.3461h0Z" style="fill:#6966ed;"/><path d="M207.9956,382.4361c-7.42,2.9384-13.2349,9.1516-14.9616,17.06-1.7902,8.1996,.8155,17.0309,7.0466,22.7325,1.4432,1.3206,2.9564,2.5807,4.4565,3.8358,2.8792,2.409,6.4297,3.5087,10.1548,2.6808,3.9172-.8706,7.0954-3.9479,8.2548-7.7634,.9773-3.2162,.3093-6.5789-1.397-9.4065-2.186-3.6227-4.4001-7.2287-6.6-10.8429-.6167,1.5159-1.2334,3.0317-1.8501,4.5476,5.6305-1.9144,11.261-3.8287,16.8915-5.7431,2.0136-.6846,4.4646-1.7677,6.3797-2.024,4.6606-.6238,8.9969,2.4164,10.0429,7.0984,.5638,2.5239-.1115,5.3002-1.6928,7.3379-.7376,.9505-1.7422,1.7689-2.6117,2.5957-2.1792,2.0723-4.5133,4.0567-6.5638,6.2578-4.5546,4.8891-3.3655,13.0937,2.6502,16.2117,2.9033,1.5048,6.2801,1.5294,9.2323,.161,.7846-.3637,1.4953-.8552,2.221-1.3215,5.559-3.5723,11.1179-7.1446,16.6769-10.7169h-3.1249c.4909,.2532,.9551,.5677,1.4114,.877,.256,.1735,.5088,.3517,.7594,.5329,.269,.1944,1.3855,1.082,.4267,.3062,.7717,.6244,1.5457,1.2417,2.2938,1.895,2.1678,1.893,4.2036,3.9357,6.1478,6.0563,2.8116,3.0668,5.3724,6.2339,7.6512,9.3124,7.3749,9.963,13.4037,20.7505,19.103,31.733,3.2543,6.2711,6.9432,12.3175,11.0072,18.0964,9.6497,13.7215,21.3103,25.9107,34.773,35.933,15.3468,11.4249,33.035,19.6536,51.6569,24.0475,23.2338,5.482,47.4097,5.0317,70.7904,.6963,3.386-.6279,6.755-1.3425,10.1085-2.1249,3.8787-.905,2.2368-6.8762-1.6459-5.9702-23.274,5.4305-47.8129,7.1933-71.2347,2.7797-18.9714-3.575-36.4354-10.799-52.322-21.7452-6.8498-4.7197-13.1388-9.9649-19.2841-16.0505-2.8884-2.8604-5.662-5.8365-8.3162-8.9154-1.2866-1.4925-2.5452-3.0092-3.7752-4.5487-.2888-.3615-.576-.7242-.8617-1.0882-.1706-.2174-.3407-.4353-.5102-.6536,.3379,.4351,.043,.056-.021-.0275-.6101-.7947-1.2132-1.5947-1.8085-2.4005-4.2652-5.7731-8.148-11.8314-11.5965-18.1267-2.6289-4.7991-5.029-9.716-7.7178-14.4844-3.0415-5.3939-6.2811-10.6805-9.7935-15.7815-4.6617-6.7701-9.7718-13.3567-15.7218-19.0532-2.4417-2.3376-5.0899-4.7543-8.0429-6.442-.1171-.0669-.2323-.1373-.3522-.1992-.9657-.4981-2.1676-.6152-3.1249,0-5.0177,3.2245-10.0355,6.449-15.0532,9.6735-.8811,.5662-1.7578,1.1402-2.6437,1.6989-1.2977,.8185-2.442,1.0567-3.7628,.6546-1.5634-.4759-2.9813-2.1631-2.8525-4.1778,.0869-1.3586,.9073-2.3542,1.9492-3.345,2.3513-2.2359,4.714-4.4604,7.0542-6.708,4.1497-3.9855,5.9645-9.9944,4.2428-15.5657-1.7841-5.7733-6.8268-9.909-12.7961-10.6428-3.1817-.3911-6.0292,.5003-8.9717,1.5008-6.3044,2.1435-12.6088,4.287-18.9132,6.4305-1.8448,.6272-2.9424,2.7532-1.8501,4.5476,1.7479,2.8716,3.4959,5.7433,5.2438,8.6149,.6065,.9964,1.2955,1.976,1.8233,3.0182,1.1545,2.2798,.3127,5.1022-1.553,6.4147-1.8664,1.3129-4.2088,1.3079-6.0808-.1144-1.2601-.9574-2.4219-2.0759-3.6238-3.1061-4.6861-4.0166-7.3515-9.6551-6.6848-15.901,.6709-6.2849,4.9937-12.0333,10.9132-14.3774,1.5535-.6152,2.6395-2.071,2.1622-3.8081-.4064-1.4787-2.2448-2.7813-3.8081-2.1622h0Z"/><path d="M461.1221,323.7919c23.704,16.723,32.5383,48.3125,36.9482,75.4652,4.3227,26.6155,4.6664,53.9507,2.9705,80.8197-.3676,5.8238-.7878,11.6657-1.5057,17.4591-2.4511,19.7817-3.9797,39.5228-4.0693,59.4685-.199,44.2708,4.9337,88.5364,13.068,132.0099,4.9917,26.6777,11.0844,53.2182,18.7337,79.2666,.5784,1.9697,1.1124,3.9704,1.7838,5.9113,.0431,.1245,.0766,.2523,.1188,.3771,.706,2.0832-.0458-.1395,.0783,.1981,.3111,.8469,.6127,1.6922,.8709,2.5577,2.995,10.0405,2.4516,21.0612-1.2256,31.0269-3.1292,8.4805-8.6505,15.9088-15.1697,22.0921-2.0122,1.9085-4.1228,3.7224-6.3193,5.4159-2.0313,1.5661-5.8382,3.1835-6.9612,5.52-2.1685,4.5119-1.142,10.8589,.901,15.1908,3.8974,8.2641,12.7809,13.6676,20.9271,17.0474,8.4562,3.5085,17.5701,5.1486,26.6686,5.8168,18.946,1.3915,38.375-1.378,56.6432-6.3706,8.8706-2.4243,17.6154-5.5089,25.8934-9.5321,9.1355-4.44,20.2264-11.0958,22.1293-21.9755,.8533-4.8785,.0145-9.791-.9652-14.5849-1.1825-5.7865-2.0935-11.5242-2.8439-17.3839-1.7662-13.7922-3.6921-27.5641-5.7867-41.3102-4.1861-27.4717-8.6333-55.0502-14.7482-82.1671-5.9414-26.3473-13.713-52.2654-18.8967-78.7864-2.2659-11.5929-4.2921-23.4099-4.6751-35.2367-.2264-6.9919,.2462-16.3338-4.0132-22.3114-2.4461-3.4329-7.5176-4.9841-11.3621-3.0525-3.7407,1.8795-5.7303,6.706-4.4997,10.7002,1.3533,4.3925,5.4341,7.2298,8.1236,10.73,3.7256,4.8486,5.188,11.5291,7.1574,17.2085,8.5723,24.7206,19.0154,48.8753,31.8927,71.6698,20.9017,36.9989,49.5065,72.9559,88.8798,91.2247,4.8275,2.2399,9.7827,4.2212,14.8413,5.8759,5.0765,1.6606,10.2911,2.6844,15.4122,4.1613,9.5865,2.7646,18.4991,7.751,25.8371,14.5162,7.263,6.6959,13.0625,15.0448,16.5778,24.2947,3.9829,10.4802,4.7519,21.8732,7.9151,32.6107,2.3449,7.9601,5.6225,18.3104,13.1654,22.9163,5.5687,3.4003,11.6631,1.2259,16.2598-2.6522,4.7537-4.0105,8.2439-9.6173,11.1613-15.0357,4.0874-7.5913,7.2666-15.6931,9.9725-23.8678,6.4804-19.5783,10.3542-40.1699,11.7923-60.7329,1.416-20.2473,1.6499-42.2678-11.3021-59.1127-6.4718-8.4169-14.7343-13.7526-24.2035-18.2452-10.0161-4.7521-19.6483-10.3053-28.8169-16.5356-18.3853-12.4933-34.8599-27.7866-48.9078-45.0027-14.1215-17.3063-26.1604-36.9678-34.1756-57.8609-8.8483-23.0646-11.3379-47.7013-11.8678-72.2247-.5152-23.8404,.6344-47.7411-1.381-71.534-2.0654-24.3826-7.8122-48.3124-20.068-69.6757-3.4114-5.9465-7.1778-11.6792-10.986-17.3765-2.7624-4.1328-5.2693-8.6263-8.718-12.2372-2.5622-2.6826-5.47-5.149-7.6259-8.1889-.6284-.886-1.7983-2.3691-1.6478-3.5338,.2094-1.6212,2.614-2.2494,3.9931-2.1955,5.5176,.2156,7.8966,7.1291,8.7842,11.5588,1.1645,5.8118,.3071,11.8419-1.4352,17.4446-3.3702,10.8374-10.1864,20.0719-16.5162,29.3334-11.7215,17.1504-23.9964,34.3618-39.5364,48.3065-7.1867,6.4489-15.2811,12.2904-24.3302,15.8226-2.0548,.8021-4.1566,1.4854-6.2922,2.0376-2.2456,.5807-4.666,.7281-6.8606,1.448-4.5978,1.5084-7.9378,5.8501-7.9752,10.7313-.0339,4.4254,2.6006,8.5658,6.6087,10.4221,2.3586,1.0924,4.8282,1.0739,7.355,1.1441,5.0606,.1406,10.1211,.2811,15.1817,.4217l-2.189-5.2847c-13.7873,11.8165-27.9021,23.2326-41.945,34.7441-2.195,1.7994-4.6822,3.4878-6.649,5.5491-6.2684,6.5697-3.2561,17.874,5.5759,20.2781,5.2128,1.419,9.2921-.9874,13.1379-4.1038,3.7513-3.0398,7.5027-6.0795,11.254-9.1193,7.9137-6.4126,15.8275-12.8252,23.7412-19.2378h-4.3779c-.1614-1.2504-.3227-2.5009-.4841-3.7514-3.9142,7.4513-7.8284,14.9026-11.7426,22.3539-2.3987,4.5664-4.7975,9.1328-7.1962,13.6992-1.8756,3.5705-3.8236,6.9083-3.2193,11.1645,1.4602,10.2838,14.4654,13.8499,21.2974,6.293l-3.7515,.4841h0c-.4742-1.1653-.9484-2.3306-1.4227-3.496-1.0135,6.5594,2.5743,13.1825,9.422,14.5599,5.5243,1.1112,10.7397-1.5915,13.433-6.431,3.165-5.687,6.0616-11.5392,9.0885-17.3013-1.4118,.3702-2.8237,.7404-4.2355,1.1106h0c-.4742-1.1653-.9484-2.3306-1.4227-3.496-2.4,5.8954-4.9086,11.7576-7.2034,17.6945-1.7499,4.5274-.2284,9.8726,4.1839,12.2823,5.464,2.9841,12.375,.1417,16.6819-3.6302,4.3419-3.8025,6.0332-9.9518,8.1486-15.1482,3.1506-7.7392,6.3012-15.4783,9.4518-23.2175,1.4675-3.6047,2.935-7.2095,4.4024-10.8142,.5347-1.3134,2.279-4.1203,1.6322-5.6553-1.5237-3.616-7.5178-2.0267-5.9702,1.6459-.655-1.5544,.3376-2.119-.306-.8943-.3904,.7429-.6486,1.5933-.965,2.3705-1.0716,2.6324-2.1433,5.2647-3.2149,7.8971-2.8242,6.9373-5.6483,13.8747-8.4725,20.812-1.941,4.7679-3.7236,9.6425-5.8367,14.3374-1.4303,3.1777-4.3326,5.6839-7.6918,6.8045-3.9925,1.3318-7.8294-.6015-6.0734-5.1442,2.295-5.9369,4.8034-11.7991,7.2034-17.6945,.4703-1.1552-.2941-2.9714-1.4227-3.496h0c-1.4622-.6797-3.4002-.4795-4.2355,1.1106-2.4791,4.7193-4.9582,9.4387-7.4373,14.158-.9432,1.7956-1.8326,4.1801-3.4564,5.4662-4.2262,3.3474-10.5602-.33-9.7334-5.681,.1966-1.2727-.1058-2.8719-1.4227-3.496h0c-1.2024-.5699-2.783-.5872-3.7515,.484-4.7958,5.3047-13.2367,.221-10.2023-6.4361,1.0671-2.3411,2.4123-4.5923,3.6083-6.869,4.5052-8.5763,9.0103-17.1526,13.5155-25.729,1.2211-2.3246,2.4422-4.6491,3.6633-6.9737,.5885-1.1204,.594-2.8676-.4841-3.7515h0c-1.3998-1.1477-2.966-1.1442-4.378,0-6.0134,4.8727-12.0267,9.7454-18.0401,14.6181-4.186,3.392-8.3721,6.784-12.5581,10.176-2.0873,1.6914-4.118,3.6246-6.341,5.1382-2.7276,1.8572-6.4803,1.3916-8.4872-1.3309-2.0958-2.8432-1.1026-6.3382,1.376-8.5014,2.0245-1.7669,4.1664-3.4154,6.2442-5.1186,8.3391-6.8359,16.6782-13.6717,25.0174-20.5076,5.54-4.5413,10.9899-9.166,16.4297-13.8283,2.1355-1.8303,.3194-5.215-2.189-5.2847-3.1862-.0885-6.3723-.177-9.5585-.2655-3.018-.0838-6.9667,.487-9.8849-.5067-2.6824-.9134-4.0709-3.8239-3.2927-6.3906,1.0675-3.521,4.5573-3.6357,7.5828-4.2617,6.0644-1.2547,11.9061-3.618,17.3278-6.5862,24.1006-13.1946,41.2519-37.2539,56.5244-59.3715,8.3406-12.0788,17.8022-24.3988,20.8422-39.0787,1.5349-7.4119,1.3677-15.3586-1.7533-22.3562-2.7378-6.1385-8.9439-11.4211-16.0603-9.4342-5.4236,1.5143-8.2602,6.5753-5.9958,11.7873,2.0174,4.6436,6.1396,8.1386,9.6096,11.6857,1.8666,1.9081,3.2242,3.9591,4.7125,6.1844,2.6073,3.8984,5.2375,7.7819,7.792,11.7153,4.7803,7.3606,9.263,14.9039,12.8842,22.9098,13.4993,29.8448,14.4171,62.9803,14.3973,95.1718-.0196,31.9758-.6144,64.5679,8.944,95.4541,8.8697,28.6607,25.5957,55.2308,45.4227,77.5611,19.6684,22.1517,43.5841,40.8114,70.2119,53.8626,6.4013,3.1375,12.7331,5.9056,18.1443,10.6756,5.1315,4.5235,9.2726,10.0083,12.1985,16.1931,5.8166,12.2953,5.3907,27.0746,4.8193,40.3678-1.1432,26.5975-6.4173,54.2637-17.0842,78.7592-3.4034,7.8157-7.4965,16.4624-14.0609,22.1651-2.1347,1.8544-4.8451,3.6051-7.8084,2.5681-4.5271-1.5843-7.1074-7.6415-8.7689-11.6815-5.7033-13.8681-5.8701-29.2106-11.6108-42.9971-5.0986-12.2446-13.5564-22.7841-24.3245-30.5162-5.4065-3.8822-11.3883-6.9336-17.6602-9.1527-6.7064-2.3729-13.769-3.5265-20.5157-5.8116-13.6452-4.6217-26.3542-11.7231-37.8696-20.3412-23.2642-17.4108-41.5334-40.9672-56.3843-65.7262-8.664-14.4443-16.2624-29.5222-22.977-44.9651-3.5745-8.2209-6.875-16.5611-9.9564-24.9788-2.9374-8.0242-5.0574-16.6524-9.1177-24.205-1.4082-2.6194-3.3039-4.6867-5.3028-6.8601-1.6037-1.7437-4.8069-4.4468-3.5589-7.1274,.9143-1.9638,3.2692-1.7997,4.5978-.3454,1.3514,1.4793,1.6752,4.2489,2.0031,6.1185,.8841,5.0411,.8026,10.1995,1.0397,15.2951,.3685,7.9202,1.5973,15.8765,2.8822,23.6922,5.9134,35.9712,17.4817,70.7159,24.3561,106.4928,7.0649,36.7681,12.8587,73.7569,17.5508,110.9007,.8681,6.8721,3.1568,13.7062,3.399,20.6317,.2679,7.6612-4.3215,12.5902-10.3663,16.6939-10.6635,7.2392-23.4773,11.497-35.8759,14.7083-12.3639,3.2023-25.065,5.2475-37.8356,5.7323-12.3996,.4707-25.127-.4314-36.8769-4.6837-10.5726-3.8263-24.1886-12.268-20.5638-25.387l-1.4227,1.8501c18.581-12.3828,33.3458-30.9984,33.3983-54.1797,.0123-5.4231-.7186-10.9928-2.3849-16.1673-.161-.5-.3298-.998-.5174-1.4887-.2255-.5898-.6354-1.9282-.1835-.4643-.179-.5799-.3625-1.1585-.5405-1.7388-9.5805-31.2335-16.6467-63.3652-22.2084-95.5342-9.7755-56.5414-14.6127-115.0092-7.4619-172.1545,2.9564-23.6257,3.8809-47.4789,2.6812-71.2702-.9827-19.4884-3.3588-39.1161-8.6368-57.9409-4.8584-17.3282-12.3913-34.7132-25.1377-47.7411-2.9378-3.0027-6.1649-5.6994-9.5965-8.1204-3.2623-2.3016-6.3589,3.0645-3.1249,5.3461h0Z"/><g><path d="M377.5857,202.8096c3.854,2.2841,8.4375,3.6023,12.908,4.1073,11.356,1.2829,23.0868-1.8292,32.49-8.2766,7.0955-4.8651,16.3136-18.2894,26.4348-14.0969,2.3173,.9599,4.069,2.8903,5.7392,4.7616,7,7.8428,14,15.6856,21,23.5284-1.1101-5.3631-3.3594-10.4399-4.4563-15.8058-1.0969-5.3658-.8663-11.4017,2.5086-15.7155,6.6924-8.554,16.0054-7.9395,22.6172,.3804,6.1987,7.8,6.1072,21.1514,1.8754,29.7103,4.1344,3.8851,9.7919,6.1044,15.4652,6.0665,2.036-.0136,4.1202-.3235,5.8984-1.3151,1.7782-.9916,3.2104-2.7533,3.4182-4.7787,.4237-4.1297-3.6969-7.3988-5.3253-10.8454-1.5071-3.1898-2.8255-7.1661-3.6283-10.6303-.9014-3.8894-.6556-7.9391-.1538-11.8656,.4135-3.236,1.8811-5.8958,2.3874-9.1159,1.168-7.4289,.4881-15.1487-2.0034-22.2466-1.6303-4.6446-4.1549-9.177-8.1886-11.9983-5.2168-3.6487-12.1214-3.873-18.3985-2.8113-3.6735,.6213-7.6312,1.887-9.5622,5.0732-4.9991-2.6464-11.2969-5.9109-17.1076-5.4569-5.6414,.4408-11.2528,.122-16.9102,.5181-12.1517,.8509-23.971,4.3893-35.3223,8.8092-10.1464,3.9508-20.189,8.7406-28.1572,16.1613-7.9682,7.4207-13.6868,17.8475-13.3531,28.7308,.0979,3.1929,.7229,6.4075,2.1728,9.2539,1.7096,3.3561,4.4249,5.9455,7.6515,7.8578Z"/><path d="M376.0232,205.4826c7.3949,4.2971,16.3933,5.4653,24.803,4.5166,8.3185-.9384,16.4095-3.7616,23.3706-8.4487,2.5701-1.7305,4.8349-3.8548,7.0981-5.958,1.1504-1.069,2.3017-2.1376,3.4866-3.1685,1.3089-1.1389,2.1191-1.8125,3.4518-2.7281,.6204-.4262,1.2555-.8311,1.9101-1.203,.319-.1812,.6417-.3557,.9697-.52,.1425-.0714,1.1098-.4975,.6623-.3183,.6466-.2589,1.3147-.4719,1.9933-.6288,.1434-.0331,.2877-.0611,.4317-.0909,.0835-.0173,.6881-.1034,.3115-.0584-.1993,.0238,.7116-.0349,.8995-.0358,.3438-.0016,.6861,.015,1.0286,.0458-.5153-.0463,.1911,.0386,.3616,.0759,.8927,.1953,1.4239,.3816,2.1117,.7773,1.4878,.8559,2.6478,2.1869,3.7909,3.4585,7.1161,7.9161,14.1766,15.8829,21.2645,23.8242,.9058,1.0148,2.6159,1.1483,3.7515,.4841,1.2287-.7187,1.7106-2.1457,1.4227-3.496-1.3617-6.3854-4.5197-12.6434-4.8904-19.0954-.1537-2.6758,.0589-5.3983,1.1967-7.751,1.1161-2.3078,3.0811-4.3323,5.148-5.559,1.8823-1.1172,3.5728-1.578,5.8964-1.2657-.5208-.07,.1539,.0394,.2761,.0697,.2606,.0647,.5226,.1189,.7815,.1918,.3143,.0885,.6254,.1893,.9319,.3022,.5926,.2182,.313,.1231,.1841,.0668,1.2041,.5258,2.3608,1.2759,3.2329,2.0312,2.0872,1.8078,3.3858,3.5146,4.5744,5.9952,.3767,.7861,.7788,1.8881,1.101,3.0075,.1802,.6261,.3377,1.2584,.4731,1.8957,.062,.2919,.1189,.5848,.1719,.8785,.0252,.1394,.17,1.0343,.1349,.7781,.7675,5.6032-.0395,11.5795-2.3259,16.2846-.586,1.2059-.5727,2.7771,.4841,3.7515,3.7695,3.4757,8.5097,5.891,13.6015,6.6427,5.3652,.7921,11.5164,.2489,14.9201-4.5208,3.1058-4.3522,.9791-9.2071-1.7954-13.0327-1.2265-1.6911-2.3114-3.3492-3.1049-5.2918-.9667-2.3668-1.7459-4.822-2.373-7.2995-1.2643-4.9954-.9493-10.5046,.628-15.3948,1.7111-5.305,2.3118-10.768,1.8971-16.3355-.7395-9.9266-4.2401-21.9928-13.5195-27.2174-4.9895-2.8093-10.9746-3.3291-16.5719-2.6681-5.3957,.6373-11.141,2.0199-14.2571,6.899,1.4118-.3702,2.8237-.7404,4.2355-1.1106-4.8548-2.5679-9.869-5.1054-15.3878-5.7747-2.6908-.3264-5.4125,.0599-8.1122,.1214-2.8966,.066-5.7946,.0406-8.6908,.1282-11.6655,.353-23.0861,3.1361-34.0418,7.034-19.4046,6.904-40.7127,17.1829-47.5606,38.2766-1.8055,5.5615-2.3205,11.7214-.9755,17.4419,1.4188,6.0348,5.3718,10.8263,10.6177,13.9929,3.4199,2.0644,6.5357-3.2873,3.1249-5.3461-3.781-2.2823-6.5578-5.5431-7.6685-9.8699-1.1054-4.306-.7412-8.8402,.4125-13.0406,2.3818-8.6713,8.2868-16.069,15.3872-21.4302,7.8268-5.9097,16.9581-9.8696,26.1027-13.2537,9.8881-3.6592,20.1918-6.6157,30.7448-7.4158,3.0513-.2314,6.1113-.2502,9.1696-.2785,3.0124-.0279,6.014-.2547,9.0216-.3133,5.2453-.1023,10.2313,2.6937,14.7314,5.0739,1.5226,.8054,3.303,.3496,4.2355-1.1106,.7278-1.1395,2.1465-2.0777,3.4524-2.5653,1.7425-.6506,3.6534-1.0363,5.4586-1.2672,4.0063-.5124,8.2596-.4471,12.015,1.1052,7.8249,3.2344,10.8949,13.3098,11.7367,20.9841,.5066,4.6182,.5256,9.5929-.8172,14.0773-.6777,2.2631-1.4775,4.4367-1.7936,6.791-.3462,2.5787-.5845,5.1852-.48,7.7893,.1934,4.8196,1.646,9.5856,3.4713,14.0228,.8124,1.9749,1.6945,3.7765,2.9414,5.5111,.5527,.7689,1.1229,1.5256,1.6491,2.3132,.2274,.3404,.4469,.686,.6522,1.0401,.1155,.1992,.2268,.4003,.332,.6051,.05,.0973,.3075,.6925,.1725,.342,.5984,1.5537,.5497,2.7005-1.0114,3.8976-1.5098,1.1578-4.0767,1.3029-6.1106,1.2034-4.4023-.2153-8.7835-2.1113-12.0613-5.1336,.1614,1.2505,.3227,2.501,.4841,3.7515,5.3259-10.9597,4.9458-26.2589-3.9733-35.2875-4.446-4.5005-11.0478-7.0479-17.2128-4.6981-3.1816,1.2127-5.9143,3.3227-8.0358,5.9769-2.3555,2.9469-3.5633,6.2865-3.9933,10.0133-.9928,8.6037,3.2641,16.4899,5.0121,24.6863,1.7247-1.004,3.4494-2.008,5.1741-3.012-6.3438-7.1075-12.6875-14.2151-19.0313-21.3226-2.8278-3.1682-5.5249-6.5518-9.6741-7.9921-3.0586-1.0617-6.5244-.8199-9.5118,.3547-6.2572,2.4603-10.8966,7.5248-15.8077,11.9144-.5193,.4641-1.044,.9224-1.5806,1.3665-.2179,.1804-.4376,.3587-.6598,.5338,.4555-.359-.3108,.2236-.4488,.3211-1.6782,1.1853-3.4595,2.2387-5.2818,3.1857-3.4585,1.7973-7.1377,3.1126-10.9352,3.9863-8.6133,1.9817-18.4771,1.6712-26.2676-2.8557-3.4518-2.0058-6.5723,3.3428-3.1249,5.3461Z"/></g><path d="M206.7732,421.2132c-1.3177,0-3.2106-.0023-4.1138-.1245-2.1692-.2935-4.3451-1.0001-6.0241-1.8637-3.77-1.9392-6.5609-4.7694-8.4565-8.6025-1.8235-3.6872-2.3235-8.4113-1.3164-12.4974,.8951-3.6316,2.7753-6.6496,5.4387-9.313,1.8744-1.8744,3.7489-3.7489,5.6233-5.6233,2.8211-2.8211-1.5557-7.2002-4.378-4.378-1.8394,1.8394-3.6787,3.6787-5.5181,5.5181-3.3088,3.3088-5.8353,7.2265-7.0428,11.7847-2.8015,10.5759,1.8251,22.0293,11.1719,27.7004,4.5,2.7303,9.4302,3.5906,14.6156,3.5906,3.9839,0,3.9905-6.1914,0-6.1914h0Z"/><path d="M475.1826,259.115c-8.623,5.8292-17.8803,11.3279-28.6147,11.3819-7.7472,.039-14.8169-3.1977-20.4445-8.417-6.1955-5.7459-10.6528-13.1107-14.334-20.6479-4.2361-8.6732-7.7458-17.9036-9.4934-27.42-1.6669-9.0768-1.2407-18.5654,2.3407-27.1505,3.9435-9.4532,11.3735-17.5241,19.797-23.2129,8.3138-5.6148,17.9343-9.2254,27.8858-10.5153,10.3774-1.3452,22.1489-.8491,31.3814,4.5547,8.6213,5.0461,14.0726,13.8958,18.364,22.641,4.7061,9.5904,8.2389,19.8068,14.2232,28.7287,5.4524,8.129,12.9687,15.2687,22.9579,16.9215,8.9252,1.4768,17.8397-.8473,26.1704-3.9531,8.8232-3.2894,17.2773-7.5409,26.2376-10.4675,6.2139-2.0296,12.7406-3.1561,19.065-4.8167,14.7827-3.8814,29.5109-7.9795,44.5976-10.541,16.4254-2.7887,33.5905-3.9391,50.0289-.6326,8.2467,1.6588,16.245,4.415,23.5876,8.5442,3.8085,2.1417,7.4435,4.6049,10.7953,7.4096,1.6721,1.3992,3.1814,3.0755,4.9465,4.3461,.2617,.1884,.531,.3665,.7924,.5555,.2119,.1532,.4207,.3104,.6307,.4661,.8625,.6395-.5419-.4403,.2369,.1815,1.5012,1.1984,2.9539,2.4514,4.3509,3.7703,1.9962,1.8847,3.8855,3.8827,5.6647,5.9733,.5058,.5943,1.0027,1.1962,1.4904,1.8054,.1387,.1733,.8575,1.0896,.5628,.7095-.332-.4282,.125,.1639,.1881,.2476,.1438,.1905,.2878,.3808,.4304,.5722,1.0465,1.4045,2.0461,2.8442,2.996,4.3158,2.1566,3.3414,4.0575,6.8477,5.6764,10.4802,.1065,.2389,.2105,.4789,.3157,.7184,.0738,.168,.3917,.9318,.0866,.1967,.2048,.4935,.4069,.988,.6027,1.4852,.4149,1.0539,.8065,2.1169,1.1748,3.1879,.7579,2.2042,1.4159,4.4427,1.9734,6.7058,.5822,2.3636,1.0547,4.7541,1.4193,7.1608,.0472,.3115,.0917,.6234,.1361,.9353,.0684,.4814-.0637-.4986-.0017-.0142,.0173,.1356,.0354,.2711,.0518,.4068,.0828,.6858,.162,1.3717,.2303,2.0591,.1307,1.3155,.2303,2.6339,.2996,3.954,.1486,2.8294,.1581,5.6657,.0388,8.4963-.0618,1.4668-.1582,2.9322-.2873,4.3946-.0664,.7515-.1414,1.5023-.2249,2.2522-.0424,.3802-.087,.7602-.1336,1.1399-.0526,.4282-.1037,.8128-.1049,.8213-2.0333,14.7247-7.1898,28.8948-13.8887,42.1073-9.6248,18.9832-22.3065,36.318-36.1661,52.4088-3.978,4.6184-8.8728,8.5011-13.4023,12.5766-3.9326,3.5384-7.8677,7.074-11.8039,10.6084-6.1283,5.5028-12.2621,10.9996-18.3759,16.5185-7.0887,6.399-14.3183,12.7293-20.9388,19.622-3.0153,3.1393-6.0148,6.5164-7.8264,10.5188-1.6453,3.6349-2.5341,7.5469-3.7452,11.335-.9151,2.862-1.9443,5.6853-3.0583,8.4756-.6201,1.5533,.6774,3.4001,2.1622,3.8081,1.7632,.4845,3.1857-.6031,3.8081-2.1622,1.9527-4.8912,3.4613-9.8852,4.9945-14.9151,.243-.7973,.4955-1.5921,.7803-2.3756,.1372-.3774,.3162-.7483,.437-1.1304-.3451,1.0911-.0121,.0295,.2146-.4425,.3679-.7657,.7812-1.5088,1.233-2.2281,.2485-.3957,.5088-.784,.7779-1.166,.2647-.3759,1.2604-1.574,.4965-.6906,4.5297-5.2391,9.4523-10.0055,14.5419-14.7073,11.3602-10.4946,22.9441-20.7491,34.4473-31.0859,4.3224-3.8841,8.6425-7.7709,12.9592-11.6614,2.4194-2.1805,4.7697-4.3022,6.8956-6.7743,2.0658-2.4023,4.1015-4.8305,6.1042-7.2858,7.2146-8.8451,14.0389-18.0272,20.1941-27.6437,9.3849-14.6623,17.3751-30.4992,22.0424-47.3276,3.3607-12.1173,4.9681-24.8889,3.7208-37.4411-.9808-9.8706-3.6032-19.4413-7.9521-28.3636-3.2679-6.7046-7.5265-12.9336-12.5035-18.4858-3.0652-3.4194-6.4311-6.5485-10.0946-9.3174-.5311-.4014-1.141-.7471-1.6459-1.1787,.22,.188,.4486,.3894-.095-.2052-.3834-.4193-.8485-.792-1.2689-1.1718-.9035-.8163-1.8259-1.6117-2.7671-2.3842-1.7994-1.4768-3.6567-2.8901-5.5712-4.2146-3.6701-2.539-7.5674-4.746-11.6262-6.6009-16.1887-7.3984-34.2047-9.2744-51.8232-8.1486-16.795,1.0732-33.3146,4.6472-49.5712,8.8504-6.7348,1.7413-13.4362,3.6116-20.1811,5.3137-2.7611,.6968-5.533,1.3279-8.3157,1.931-4.4666,.968-8.7922,2.5001-13.0369,4.1746-8.9068,3.5136-17.5519,7.8235-26.79,10.4405-8.0571,2.2825-16.7427,2.9973-24.1963-1.4902-8.8942-5.3548-14.0202-15.5929-18.2048-24.6959-4.4251-9.626-8.2306-19.6558-14.6899-28.1678-3.2033-4.2212-6.9004-7.9921-11.3604-10.8941-4.6729-3.0406-10.0912-4.9117-15.5667-5.8451-10.791-1.8397-22.1675-1.0067-32.6363,2.1593-19.8453,6.0017-38.5273,21.6006-43.4491,42.3916-2.3211,9.8049-1.4257,20.0118,1.1242,29.6773,2.5139,9.5289,6.4054,18.899,11.1391,27.5396,4.1661,7.6045,9.3791,14.8474,16.3058,20.1647,6.8036,5.2228,15.1809,7.956,23.7781,7.3312,11.0177-.8007,20.4626-6.0735,29.4314-12.1366,3.2831-2.2194,.1882-7.5858-3.1249-5.3461h0Z"/><path d="M192.6705,417.7735c-2.4908,0-4.5245-.0521-6.8926-.7434-2.6797-.7823-5.2293-2.2193-7.2751-4.1122-4.5038-4.1673-6.7882-10.246-6.1679-16.4646,.3129-3.1366,1.4857-6.1996,3.2324-8.836,1.0356-1.5631,2.3708-2.8598,3.6741-4.1935,3.0495-3.1208,5.8998-6.5435,9.8764-8.5112,2.8207-1.3957,5.9811-1.6734,9.0307-2.2829,3.359-.6713,6.7181-1.3426,10.0771-2.0139,7.7544-1.5497,15.5088-3.0994,23.2633-4.6491,1.6621-.3322,3.3207-.7042,4.9876-1.0112,.6269-.1154,1.2555-.2209,1.8854-.3188,.3684-.0573,.7372-.1106,1.1062-.1639,.4761-.0689,.7254-.3595-.1194,.0143,.1991-.0881,.5286-.0688,.7456-.0957,2.1061-.2615,4.2211-.4501,6.3394-.5776,6.0731-.3655,12.1763-.2314,18.2322,.3423,.865,.0819,1.7291,.173,2.5922,.2731,.4417,.0512,.8831,.1048,1.3243,.1608,.2231,.0283,.446,.0578,.669,.0867-.9117-.1179,.1266,.0186,.302,.0435,1.8617,.2636,3.7175,.5691,5.5656,.9161,4.1723,.7832,8.3048,1.7775,12.3774,2.9752,4.4899,1.3204,8.9044,2.8902,13.225,4.6883,.8951,.3725-.5474-.2365,.3475,.1468,.2729,.1169,.5455,.2343,.8177,.3529,.5488,.239,1.0959,.4818,1.6413,.7283,1.2022,.5434,2.3963,1.1048,3.5817,1.6839,2.3592,1.1525,4.6841,2.375,6.9717,3.6637,10.1975,5.7446,19.2886,12.559,27.7801,20.5239,10.4626,9.8136,19.5803,20.9725,27.4978,32.9197,7.1768,10.8295,15.3973,21.0486,25.6766,29.0976,14.296,11.1942,33.3962,18.6658,51.4464,12.6171,16.0661-5.3838,26.4199-20.0969,29.0542-36.4724,3.8125-23.6991-5.7112-47.6151-18.4694-67.1569-4.4627-6.8355-9.5557-13.1258-14.6687-19.4731-4.4423-5.5146-8.2052-11.756-10.8685-18.3219-2.7568-6.7966-4.4677-14.0351-4.7218-21.3752-.2375-6.8607,.5863-14.0368,2.3155-20.6845,1.5664-6.022,4.4182-11.2969,8.9204-15.7092,2.8504-2.7935-1.5288-7.1703-4.378-4.378-5.001,4.9011-8.4439,10.9536-10.3109,17.6895-.9508,3.4303-1.499,6.9491-1.9555,10.4744-.474,3.6606-.8476,7.3337-.8165,11.029,.1287,15.2624,5.856,30.1543,14.8817,42.3454,2.495,3.3701,5.2701,6.5148,7.8603,9.8102,2.4037,3.0581,4.6923,6.2099,6.8739,9.4301,4.0253,5.9418,7.6681,12.1526,10.7549,18.6345,2.6339,5.5308,4.8162,11.2671,6.4438,17.2434,.736,2.7026,1.3512,5.4386,1.825,8.1994,.1091,.6357,.2107,1.2726,.3046,1.9108,.0235,.1596,.1203,.8586,.0986,.6923-.0151-.1157,.0766,.6301,.1011,.8408,.1483,1.2781,.2642,2.5599,.3457,3.844,.1555,2.4508,.1854,4.91,.0728,7.3633-.0538,1.1724-.14,2.3434-.2607,3.5109-.0567,.5485-.12,1.0964-.1931,1.643,.0739-.5527-.0088,.0365-.0421,.2568-.0472,.3119-.097,.6233-.1493,.9344-.3627,2.1559-.851,4.2911-1.4754,6.3864-.3126,1.0489-.6591,2.0877-1.0408,3.1135-.1731,.4654-.3569,.9262-.5409,1.3873-.0457,.1145-.0937,.2281-.1409,.342,.0111-.0266,.2154-.4972,.0717-.1743-.116,.2606-.2288,.5224-.347,.7821-.8251,1.8129-1.7687,3.5725-2.8319,5.2571-.5178,.8205-1.064,1.6232-1.6379,2.4055-.1365,.186-.2762,.3696-.4141,.5546-.1027,.1377,.3034-.3722-.0804,.099-.3129,.3841-.624,.769-.9469,1.1448-1.2249,1.4256-2.5515,2.7641-3.9701,3.9973-.3371,.293-.6794,.5802-1.0266,.8611-.1733,.1402-.3485,.278-.5235,.4159,.4871-.384,.0575-.0477-.1714,.1213-.7447,.5496-1.5096,1.0718-2.293,1.5647-1.6037,1.0089-3.281,1.8633-5.0067,2.6411-.1619,.073,.4951-.1946-.0833,.0334-.2079,.082-.4148,.1663-.6234,.2466-.453,.1746-.9093,.3405-1.3687,.4975-.8893,.3039-1.79,.5745-2.6993,.812-.9194,.2401-1.8476,.4464-2.782,.6188-.4532,.0836-.9089,.1495-1.363,.227-.6065,.1035,.5179-.0539-.0952,.0152-.2699,.0304-.5393,.0647-.8095,.093-1.97,.2069-3.9543,.2698-5.9337,.199-1.021-.0365-2.0406-.1084-3.0567-.2142-.2474-.0258-.4945-.0544-.7416-.0833-.2805-.0327-.7255-.1033-.1703-.0198-.5424-.0815-1.0843-.1639-1.6245-.2596-2.1488-.3808-4.2711-.906-6.3541-1.5561-1.1318-.3532-2.252-.7434-3.3592-1.1674-.5231-.2003-1.0433-.4082-1.5605-.6233-.3294-.137,.0381,.0153,.0877,.0367-.1307-.0563-.2614-.1125-.3916-.1701-.3055-.1352-.611-.2704-.9148-.4094-2.2541-1.0311-4.4462-2.1964-6.5716-3.4713-4.8301-2.8975-8.7266-5.9111-12.8217-9.6772-4.6682-4.2931-8.9479-9.036-12.8015-14.0716-4.5816-5.9868-8.4934-12.446-12.991-18.4963-4.3856-5.8996-9.0563-11.5892-14.079-16.9587-8.6392-9.2358-18.3179-17.542-28.9036-24.4749-8.8346-5.7861-18.3302-10.5459-28.2536-14.1609-8.0848-2.9452-16.4654-5.0778-24.9787-6.3309-6.8433-1.0073-13.7482-1.5309-20.6668-1.4101-4.6899,.0819-9.3666,.4626-14.0061,1.1538-1.5267,.2274-3.035,.5209-4.5437,.8411-6.165,1.3086-12.3648,2.4711-18.5449,3.7061-6.5554,1.3101-13.141,2.5182-19.675,3.932-.7381,.1597,.5383-.0554-.3461,.0534-1.9188,.2361-3.7934,.6536-5.5987,1.3535-3.429,1.3295-6.4905,3.2934-9.0849,5.9109-2.3284,2.3491-4.764,4.657-6.9377,7.1516-4.9639,5.6966-7.1787,13.2281-6.142,20.7029,.9532,6.8729,4.7194,12.9681,10.2773,17.076,4.734,3.4989,10.2848,4.6456,16.0588,4.6456,3.9839,0,3.9905-6.1914,0-6.1914h0Z"/><path d="M591.9375,517.3666c4.427-9.4577,8.854-18.9154,13.281-28.3731,.6178-1.3199,1.2357-2.6399,1.8535-3.9598,.7084-1.5133,.4241-3.3378-1.1106-4.2355-1.342-.7849-3.5235-.4105-4.2355,1.1106-4.427,9.4577-8.854,18.9154-13.281,28.3731-.6178,1.3199-1.2357,2.6399-1.8535,3.9598-.7084,1.5133-.4241,3.3378,1.1106,4.2355,1.342,.7849,3.5235,.4105,4.2355-1.1106h0Z"/><path d="M787.423,743.5362c1.1824-.5875,2.859-.7311,4.3123-.3606,1.0885,.2775,1.3304,.4139,2.2605,.9893,.3933,.2433,1.2725,1.0768,1.552,1.5077,.8829,1.3614,1.1827,3.0527,.97,4.3732-.0803,.4983-.2104,.9892-.3648,1.4692-.1083,.3368-.151,.4573-.4227,.952-.4095,.7454-.9404,1.4403-1.386,1.7842h3.1249c-1.0432-.7119-1.7037-1.6747-2.2405-2.8003v3.1249c.21-.2978,.218-.3248,.0239-.0811,.1196-.1471,.2448-.2893,.3756-.4266,.1931-.2026,.3981-.395,.614-.5731-.4734,.3905,.1599-.0871,.2764-.1576,.1106-.0669,1.1166-.5413,.5029-.2977,.5259-.2088,1.0685-.3334,1.6179-.458,.3654-.0606,.373-.0638,.0228-.0096,.1429-.0148,.286-.0256,.4294-.0325,.3381-.0042,.6735-.0234,1.0122-.0114,1.9332,.069,4.103,.9215,5.5966,2.4951,.0842,.0887,.6787,.8422,.3567,.3915,.1876,.2626,.3579,.5377,.5183,.8176,.4314,.7526,.6063,1.189,.8392,2.0066,.4025,1.4127,.4847,2.7292,.3536,4.3474-.2411,2.9761-1.7109,6.1148-3.6075,8.6647-.9985,1.3425-.2199,3.4573,1.1106,4.2355,1.5779,.9229,3.2346,.2351,4.2355-1.1106,4.5281-6.0882,6.5718-15.6339,1.8093-22.2045-3.8862-5.3616-12.045-7.7388-17.9225-4.1802-1.6332,.9888-3.9337,2.9504-3.9337,5.0219,0,2.6423,2.9039,5.2325,4.8843,6.5839,.8118,.554,2.3218,.6198,3.1249,0,2.5214-1.9458,4.3865-4.5569,4.9901-7.7396,.5985-3.1559,.2231-6.5741-1.5654-9.31-3.5583-5.4434-10.8421-7.2163-16.5958-4.3576-1.497,.7438-1.9137,2.8624-1.1106,4.2355,.892,1.5251,2.7329,1.8571,4.2355,1.1106h0Z"/><path d="M424.344,228.3641c.1699,.3103,.3278,.6866,.3667,.9429,.0493,.3243-.0054,.2706,.0014,.1309,.0009-.018-.0968,.3304-.0374,.1846-.0198,.0487-.213,.4124-.3252,.5652,.0733-.0997-.2258,.2431-.2826,.2999-.1645,.1644-.3391,.3261-.5244,.4669-.2367,.1799-.8302,.5222-1.2157,.7232-1.7826,.9294-3.9683,1.4894-5.8855,2.4543-2.1191,1.0666-4.2165,2.9855-4.0218,5.5775,.2196,2.9236,2.9153,4.098,5.4132,4.7591,2.7614,.7308,5.6445,.7412,8.426,.122,1.0883-.2423,1.7262-1.5024,1.4414-2.5387-.3081-1.121-1.4471-1.6844-2.5387-1.4414-2.5341,.5641-5.183,.3666-7.6417-.5698-.241-.0918-.3747-.1392-.6404-.2848-.0822-.045-.5347-.4109-.296-.1447-.1584-.1766-.1357-.2358-.0469-.0132-.042-.1054,.0244-.3745-.0077-.2837,.3254-.9195,1.6086-1.4537,2.549-1.8816,2.1126-.9614,4.76-1.5992,6.7727-3.0872,1.1949-.8834,2.1978-1.958,2.708-3.3768,.5798-1.6123,.1432-3.2387-.6501-4.6877-.535-.9772-1.881-1.2918-2.8237-.7404-.9864,.5769-1.2775,1.8426-.7404,2.8237h0Z"/><path d="M431.6736,217.2143c.2749-.3103,.567-.6031,.8834-.8713,.0662-.0561,.1572-.109,.213-.1749-.0714,.0842-.3101,.2267-.088,.0735,.1704-.1175,.3398-.2349,.5161-.3437,.3541-.2185,.7224-.4001,1.0983-.5772,.2494-.1175-.372,.1364-.1104,.0493,.109-.0363,.2153-.0818,.3241-.1194,.1959-.0678,.394-.129,.5939-.1837,.1777-.0486,.3568-.092,.5371-.13,.1127-.0238,.2265-.0419,.3392-.0653,.3383-.0701-.131,.0377-.1389,.0125-.0013-.0043,1.1466-.073,1.2388-.0719,.2067,.0024,.4134,.0119,.6194,.0287,.0915,.0074,.1828,.0194,.2743,.0267,.2794,.0223-.4134-.0753-.1392-.0173,.4303,.0911,.852,.1758,1.272,.3111,1.028,.3313,2.2985-.3868,2.5387-1.4414,.2574-1.1299-.3407-2.184-1.4414-2.5387-3.973-1.2802-8.6779-.0145-11.4491,3.1144-.7155,.8078-.8553,2.1335,0,2.9187,.7828,.7186,2.1543,.8631,2.9187,0h0Z"/><path d="M409.9866,218.7241c.3359-.2008,.7479-.5018,1.1318-.5941-.5128,.1232,.1383-.0507,.2479-.09,.1504-.054,.302-.1045,.4547-.1517,.4073-.1258,.8222-.2273,1.2414-.3045,.1049-.0193,.21-.037,.3154-.0533-.2848,.0356-.3091,.0392-.0729,.011,.1861-.0162,.3714-.0358,.5579-.0468,.3993-.0235,.7997-.0257,1.1992-.0059,.2133,.0106,.4249,.0324,.6376,.0503,.4329,.0365-.3878-.0694,.1633,.0277,.3934,.0693,.7829,.1603,1.166,.2736,.2043,.0605,.4067,.1272,.6069,.2002,.1001,.0365,.1997,.0746,.2986,.1143-.2466-.1064-.2639-.1127-.052-.0189,.9829,.4402,2.2649,.3172,2.8237-.7404,.4757-.9004,.3115-2.3525-.7404-2.8237-3.8772-1.7365-8.3807-1.613-12.0625,.5879-.9266,.5539-1.3485,1.8804-.7404,2.8237,.6008,.932,1.8321,1.3331,2.8237,.7404h0Z"/><path d="M433.4264,225.6881c.1078,.2689,.206,.5625,.3776,.8023,.1657,.2314,.3416,.487,.5649,.6732,.4457,.3716,.9252,.6967,1.5071,.8178,.2237,.0465,.4566,.0744,.6834,.0944,.0597,.0053,.1195,.0075,.1794,.0044,.2793-.0143,.5832-.0381,.8525-.1325,.2116-.0741,.4266-.1618,.6255-.2654,.0505-.0263,.0966-.0578,.1429-.0907,.1401-.0994,.381-.2689,.5308-.4234,.1609-.1659,.2991-.361,.4312-.5496,.0349-.0498,.0656-.1024,.0925-.1569,.1071-.217,.2067-.445,.2823-.6756,.0762-.2324,.0958-.5328,.1204-.7492,.009-.0793,.0134-.1579,.0084-.2378-.0158-.2521-.0471-.5067-.1034-.7534-.0549-.2406-.1842-.4962-.2759-.7062-.03-.0688-.0625-.1357-.1022-.1996-.1315-.2112-.2918-.4116-.4565-.5974-.2143-.2419-.4883-.4467-.7718-.6011-.2164-.1179-.453-.2083-.6821-.2951-.0706-.0267-.1432-.0481-.2172-.063-.2395-.0484-.4891-.0842-.7334-.0974-.0736-.004-.1463-.0003-.2195,.0077-.2368,.0257-.4864,.0426-.7179,.108-.2251,.0636-.4422,.1679-.6516,.2661-.2792,.1309-.5366,.3347-.7482,.5561-.0264,.0276-.0504,.0568-.0743,.0865-.1251,.1556-.2572,.3125-.3669,.48-.1319,.2016-.212,.4432-.2982,.6639-.0276,.0707-.0501,.1423-.0638,.2172-.0449,.2461-.0928,.5059-.092,.7585,.0008,.2577,.0493,.5215,.0944,.773,.0175,.0978,.0464,.1924,.0815,.2852,.0639,.2686,.187,.5025,.3694,.7018,.1455,.2247,.3385,.4019,.579,.5315,.2369,.1508,.4927,.2325,.7673,.2449,.2743,.0614,.5486,.0491,.823-.0369,.4994-.1616,.9812-.4711,1.2334-.9484l.208-.493c.0983-.3658,.0983-.7315,0-1.0973-.0426-.1126-.0738-.2271-.091-.3463l.0737,.5486c-.0129-.1066-.014-.212-.0013-.3187l-.0737,.5486c.0142-.0982,.0394-.192,.0773-.2836l-.208,.493c.035-.0789,.0777-.152,.1293-.2212l-.3227,.4177c.0579-.0737,.123-.1384,.1969-.196l-.4177,.3227c.0759-.0563,.1565-.1023,.2434-.1393l-.493,.208c.0904-.0361,.1827-.0607,.279-.0752l-.5486,.0737c.1109-.0141,.2209-.0137,.3319-.0001l-.5486-.0737c.1198,.0174,.2345,.0494,.3467,.0947l-.493-.208c.12,.0515,.2332,.1148,.337,.1944l-.4177-.3227c.0836,.0677,.1573,.1433,.2236,.2279l-.3227-.4177c.0707,.0951,.1286,.1961,.175,.3051l-.208-.493c.0437,.1097,.0738,.2217,.0901,.3388l-.0737-.5486c.0121,.1062,.0121,.2109-.001,.317l.0737-.5486c-.0169,.1115-.0486,.2171-.0922,.321l.208-.493c-.0426,.0961-.0943,.1857-.1583,.2691l.3227-.4177c-.0548,.0681-.1157,.1287-.1846,.1826l.4177-.3227c-.0667,.0496-.1373,.0907-.2134,.124l.493-.208c-.0894,.0369-.1815,.0613-.2772,.0748l.5486-.0737c-.1046,.0125-.2086,.0115-.3131-.0017l.5486,.0737c-.1146-.0165-.2248-.0469-.3321-.0903l.493,.208c-.1168-.0495-.2252-.1127-.326-.1897l.4177,.3227c-.0959-.0758-.1808-.1615-.2555-.2582l.3227,.4177c-.0706-.0949-.1286-.1961-.1747-.3051l.208,.493-.0096-.024c-.0639-.2686-.187-.5025-.3694-.7018-.1455-.2247-.3385-.4019-.579-.5315-.2369-.1508-.4927-.2325-.7673-.2449-.2743-.0614-.5486-.0491-.823,.0369-.4994,.1616-.9812,.4711-1.2334,.9484l-.208,.493c-.0983,.3658-.0983,.7315,0,1.0973Z"/><path d="M412.8664,228.0501c.1078,.2689,.206,.5625,.3776,.8023,.1657,.2314,.3416,.487,.5649,.6732,.4457,.3716,.9252,.6967,1.5071,.8178,.2237,.0465,.4566,.0744,.6834,.0944,.0597,.0053,.1195,.0075,.1794,.0044,.2793-.0143,.5832-.0381,.8525-.1325,.2116-.0741,.4266-.1618,.6255-.2654,.0505-.0263,.0966-.0578,.1429-.0907,.1401-.0994,.381-.2689,.5308-.4234,.1609-.1659,.2991-.361,.4312-.5496,.0349-.0498,.0656-.1024,.0925-.1569,.1071-.217,.2067-.445,.2823-.6756,.0762-.2324,.0958-.5328,.1204-.7492,.009-.0793,.0134-.1579,.0084-.2378-.0158-.2521-.0471-.5067-.1034-.7534-.0549-.2406-.1842-.4962-.2759-.7062-.03-.0688-.0625-.1357-.1022-.1996-.1315-.2112-.2918-.4116-.4565-.5974-.2143-.2419-.4883-.4467-.7718-.6011-.2164-.1179-.453-.2083-.6821-.2951-.0706-.0267-.1432-.0481-.2172-.063-.2395-.0484-.4891-.0842-.7334-.0974-.0736-.004-.1463-.0003-.2195,.0077-.2368,.0257-.4864,.0426-.7179,.108-.2251,.0636-.4422,.1679-.6516,.2661-.2792,.1309-.5366,.3347-.7482,.5561-.0264,.0276-.0504,.0568-.0743,.0865-.1251,.1556-.2572,.3125-.3669,.48-.1319,.2016-.212,.4432-.2982,.6639-.0276,.0707-.0501,.1423-.0638,.2172-.0449,.2461-.0928,.5059-.092,.7585,.0008,.2577,.0493,.5215,.0944,.773,.0175,.0978,.0464,.1924,.0815,.2852,.0639,.2686,.187,.5025,.3694,.7018,.1455,.2247,.3385,.4019,.579,.5315,.2369,.1508,.4927,.2325,.7673,.2449,.2743,.0614,.5486,.0491,.823-.0369,.4994-.1616,.9812-.4711,1.2334-.9484l.208-.493c.0983-.3658,.0983-.7315,0-1.0973-.0426-.1126-.0738-.2271-.091-.3463l.0737,.5486c-.0129-.1066-.014-.212-.0013-.3187l-.0737,.5486c.0142-.0982,.0394-.192,.0773-.2836l-.208,.493c.035-.0789,.0777-.152,.1293-.2212l-.3227,.4177c.0579-.0737,.123-.1384,.1969-.196l-.4177,.3227c.0759-.0563,.1565-.1023,.2434-.1393l-.493,.208c.0904-.0361,.1827-.0607,.279-.0752l-.5486,.0737c.1109-.0141,.2209-.0137,.3319-.0001l-.5486-.0737c.1198,.0174,.2345,.0494,.3467,.0947l-.493-.208c.12,.0515,.2332,.1148,.337,.1944l-.4177-.3227c.0836,.0677,.1573,.1433,.2236,.2279l-.3227-.4177c.0707,.0951,.1286,.1961,.175,.3051l-.208-.493c.0437,.1097,.0738,.2217,.0901,.3388l-.0737-.5486c.0121,.1062,.0121,.2109-.001,.317l.0737-.5486c-.0169,.1115-.0486,.2171-.0922,.321l.208-.493c-.0426,.0961-.0943,.1857-.1583,.2691l.3227-.4177c-.0548,.0681-.1157,.1287-.1846,.1826l.4177-.3227c-.0667,.0496-.1373,.0907-.2134,.124l.493-.208c-.0894,.0369-.1815,.0613-.2772,.0748l.5486-.0737c-.1046,.0125-.2086,.0115-.3131-.0017l.5486,.0737c-.1146-.0165-.2248-.0469-.3321-.0903l.493,.208c-.1168-.0495-.2252-.1127-.326-.1897l.4177,.3227c-.0959-.0758-.1808-.1615-.2555-.2582l.3227,.4177c-.0706-.0949-.1286-.1961-.1747-.3051l.208,.493-.0096-.024c-.0639-.2686-.187-.5025-.3694-.7018-.1455-.2247-.3385-.4019-.579-.5315-.2369-.1508-.4927-.2325-.7673-.2449-.2743-.0614-.5486-.0491-.823,.0369-.4994,.1616-.9812,.4711-1.2334,.9484l-.208,.493c-.0983,.3658-.0983,.7315,0,1.0973Z"/><path d="M546.8192,779.2034c3.5031-.5149,7.2324,2.3758,7.7589,5.8323,.5336,3.5027-2.3784,7.3758-5.9063,7.8164l1.4593,.6045c-1.7529-1.6523-2.2529-4.2829-1.0747-6.4186l-2.3307,.9484c5.502,1.4424,10.1716,5.6974,12.1387,11.0493,2.0615,5.6085,.9365,11.7664-2.6965,16.4794-1.9978,2.5917-4.7139,4.6668-7.8,5.7744-2.4818,.8907-1.4116,4.8806,1.0973,3.9802,6.832-2.4519,12.1381-8.3019,13.9413-15.3461,1.8124-7.0803-.4212-14.5084-5.3689-19.797-2.7501-2.9396-6.32-5.0993-10.2146-6.1203-.8665-.2272-1.8876,.1453-2.3307,.9484-1.5809,2.8657-1.5819,6.3702,.0042,9.2408,.3848,.6965,.8929,1.3824,1.4622,1.9407,.8472,.8306,1.6583,.8956,2.7791,.6974,1.5298-.2705,3.0044-.9555,4.2454-1.8813,5.3309-3.9766,6.415-11.6191,1.6044-16.4696-2.6158-2.6375-6.2157-3.7958-9.8657-3.2594-1.1038,.1622-1.7108,1.5587-1.4414,2.5387,.3252,1.1833,1.4316,1.6042,2.5387,1.4414h0Z"/><path d="M437.7106,250.0613c1.6351-.664,3.1088-1.5657,4.3701-2.8147,.612-.606,1.1578-1.291,1.6411-2.0026,.5004-.7367,.8651-1.5251,1.2074-2.345,.1913-.4582,.03-1.1836-.208-1.5903-.2505-.4281-.7414-.8364-1.2334-.9484-.5283-.1203-1.1213-.0943-1.5903,.208l-.4177,.3227c-.2558,.2575-.4327,.5611-.5308,.9107l-.0339,.0811,.208-.493c-.3466,.81-.792,1.5683-1.3256,2.2692l.3227-.4177c-.5576,.72-1.1984,1.365-1.9146,1.9274l.4177-.3227c-.7207,.5563-1.5029,1.019-2.3405,1.3763l.493-.208c-.054,.0228-.1082,.045-.1626,.0668-.5183,.2105-.9398,.4467-1.2334,.9484-.2589,.4424-.3685,1.0943-.208,1.5903,.1616,.4994,.4711,.9812,.9484,1.2334,.4578,.2419,1.0874,.4122,1.5903,.208h0Z"/></g><path d="M136.7557,87.2064c5.0293,5.0526,10.6726,9.5113,16.7412,13.2516,1.3804,.8508,3.4671,.3438,4.2355-1.1106,.7993-1.5129,.3629-3.3274-1.1106-4.2355-1.4416-.8885-2.8593-1.8145-4.2477-2.7841-.6743-.4709-1.3419-.9512-2.0024-1.4412-.3497-.2594-.6958-.5235-1.0431-.7861-.3958-.2992,.3258,.2605-.0623-.0486-.1892-.1507-.3806-.2986-.57-.4491-2.6516-2.1081-5.1731-4.3739-7.5627-6.7745-1.1441-1.1494-3.2488-1.2301-4.378,0-1.1366,1.2381-1.2208,3.1515,0,4.378h0Z" style="fill:#f953b2;"/><path d="M139.3285,166.2297c2.3093-1.5395,4.6186-3.079,6.9278-4.6186,.6726-.4484,1.2035-1.0541,1.4227-1.8501,.2041-.741,.1119-1.7278-.3121-2.3854-.4262-.661-1.0607-1.2429-1.8501-1.4227-.7851-.1788-1.693-.1496-2.3854,.3121-2.3093,1.5395-4.6186,3.079-6.9278,4.6186-.6726,.4484-1.2035,1.0541-1.4227,1.8501-.2041,.741-.1119,1.7278,.3121,2.3854,.4262,.661,1.0607,1.2429,1.8501,1.4227,.7851,.1788,1.693,.1496,2.3854-.3121h0Z" style="fill:#f953b2;"/><path d="M165.1136,26.5625c2.6942,5.3883,5.3883,10.7766,8.0825,16.1649,.7258,1.4516,2.8936,1.9757,4.2355,1.1106,1.4845-.9571,1.8869-2.6829,1.1106-4.2355-2.6942-5.3883-5.3883-10.7766-8.0825-16.1649-.7258-1.4516-2.8936-1.9757-4.2355-1.1106-1.4845,.9571-1.8869,2.6829-1.1106,4.2355h0Z" style="fill:#f953b2;"/><path d="M160.5336,617.3163c-.4597,23.6405-.9195,47.2811-1.3792,70.9216-.4565,23.474-.913,46.9481-1.3695,70.4221-.259,13.3186-.518,26.6372-.777,39.9558-.0775,3.9857,6.1139,3.9856,6.1914,0,.4597-23.6405,.9195-47.2811,1.3792-70.9216,.4565-23.474,.913-46.9481,1.3695-70.4221,.259-13.3186,.518-26.6372,.777-39.9558,.0775-3.9857-6.1139-3.9856-6.1914,0h0Z" style="fill:#f953b2;"/><path d="M139.3995,758.5274c-.3849,2.6942-.7698,5.3883-1.1546,8.0825-.1228,.8595-.1452,1.6039,.3121,2.3854,.3758,.6422,1.1121,1.2546,1.8501,1.4227,.7925,.1805,1.682,.1414,2.3854-.3121,.6278-.4047,1.3119-1.0747,1.4227-1.8501,.3849-2.6942,.7698-5.3883,1.1546-8.0825,.1228-.8595,.1452-1.6039-.3121-2.3854-.3758-.6422-1.1121-1.2546-1.8501-1.4227-.7925-.1805-1.682-.1414-2.3854,.3121-.6278,.4047-1.3119,1.0747-1.4227,1.8501h0Z" style="fill:#f953b2;"/></svg>