<?xml version="1.0" encoding="UTF-8"?><svg id="Layer_2" xmlns="http://www.w3.org/2000/svg" width="1000" height="1000" viewBox="0 0 1000 1000"><g><path d="M210.149,748.8949c0,16.4109,13.3035,29.7143,29.7142,29.7143h379.9713c16.4107,0,29.7142-13.3034,29.7142-29.7143V471.5641H210.149v277.3308Z" style="fill:#f4d13b;"/><path d="M711.6545,427.6573L448.2407,160.0174c-10.1098-10.2718-26.6738-10.2718-36.7836,0L148.0433,427.6573c-16.0573,16.3148-4.4995,43.9068,18.3918,43.9068h43.7139v-39.4723c0-16.4109,13.3035-29.7143,29.7142-29.7143h379.9713c16.4107,0,29.7142,13.3034,29.7142,29.7143v39.4723h43.7139c22.8913,0,34.4491-27.5919,18.3918-43.9068Z" style="fill:#f4d13b;"/><path d="M619.8346,402.3775H239.8632c-16.4107,0-29.7142,13.3034-29.7142,29.7143v39.4723h439.3998v-39.4723c0-16.4109-13.3035-29.7143-29.7142-29.7143Z" style="fill:#f953b2;"/><path d="M429.8489,604.2971h.0001c29.7884,0,53.9727,24.1844,53.9727,53.9727v120.3393h-107.9455v-120.3393c0-29.7884,24.1844-53.9727,53.9727-53.9727Z" style="fill:#6966ed;"/></g><path d="M568.2934,300.8891c-4.5414-2.1142-9.0829-4.2284-13.6243-6.3426-7.2433-3.372-14.4866-6.744-21.73-10.116-1.669-.777-3.3381-1.554-5.0071-2.331-1.7606-.8196-3.8782-.4954-4.923,1.2909-.9107,1.557-.4789,4.0991,1.2909,4.923,4.5414,2.1142,9.0829,4.2284,13.6243,6.3426,7.2433,3.372,14.4866,6.744,21.73,10.116,1.669,.777,3.3381,1.554,5.0071,2.331,1.7606,.8196,3.8782,.4954,4.923-1.2909,.9107-1.557,.4789-4.0991-1.2909-4.923h0Z"/><path d="M556.8065,326.2559c-4.5414-2.1142-9.0829-4.2284-13.6243-6.3426-7.2433-3.372-14.4866-6.744-21.73-10.116-1.669-.777-3.3381-1.554-5.0071-2.331-1.7606-.8196-3.8782-.4954-4.923,1.2909-.9107,1.557-.4789,4.0991,1.2909,4.923,4.5414,2.1142,9.0829,4.2284,13.6243,6.3426,7.2433,3.372,14.4866,6.744,21.73,10.116,1.669,.777,3.3381,1.554,5.0071,2.331,1.7606,.8196,3.8782,.4954,4.923-1.2909,.9107-1.557,.4789-4.0991-1.2909-4.923h0Z"/><path d="M545.3196,351.6228c-4.5414-2.1142-9.0829-4.2284-13.6243-6.3426-7.2433-3.372-14.4866-6.744-21.73-10.116-1.669-.777-3.3381-1.554-5.0071-2.331-1.7606-.8196-3.8782-.4954-4.923,1.2909-.9107,1.557-.4789,4.0991,1.2909,4.923,4.5414,2.1142,9.0829,4.2284,13.6243,6.3426,7.2433,3.372,14.4866,6.744,21.73,10.116,1.669,.777,3.3381,1.554,5.0071,2.331,1.7606,.8196,3.8782,.4954,4.923-1.2909,.9107-1.557,.4789-4.0991-1.2909-4.923h0Z"/><path d="M813.7164,753.8217c-36.3267,2.2566-72.3151-1.2186-107.4723-10.6405-32.6928-8.7614-64.116-21.561-95.8955-33.0643-17.5734-6.3611-35.2816-12.6732-53.2855-17.7209-13.7726-3.8613-28.7153-6.006-42.9982-4.4438-14.5774,1.5943-29.4628,7.7617-34.6259,22.6581-2.2748,6.5631-2.7558,16.231,1.7203,22.0365,2.1706,2.8152,5.799,4.2399,9.1389,2.5215,3.0632-1.5761,5.2939-6.1595,2.4407-9.0432-2.87-2.9007-8.1932-1.7558-11.3815-.2169-2.9735,1.4352-5.5078,3.6446-8.0536,5.7171-3.7945,3.089-7.5196,6.2635-11.1889,9.5-9.1952,8.1106-18.0543,16.6146-26.4643,25.538-17.6097,18.6847-35.8275,40.4529-43.0822,65.5852-2.893,10.0221-3.6508,21.0781,.2368,30.9478,5.5717,14.1451,18.5688,21.4184,33.2717,22.8192,18.6432,1.7762,35.815-6.9852,53.3115-11.8426,20.2423-5.6198,41.1452-3.8781,61.3421,1.0317,19.9996,4.8618,39.2093,12.3832,58.659,19.0088,19.9205,6.786,40.0699,12.9402,60.5078,17.9761,39.9406,9.8413,81.3604,15.5219,122.528,12.4236,65.3676-4.9195,131.5642-34.8339,169.1066-90.3304,19.5396-28.8841,28.6748-63.4797,26.8236-98.2572-1.9769-37.139-15.5237-72.9626-37.2129-103.0398-20.8085-28.856-48.2676-52.5676-78.8678-70.5563-31.7763-18.6801-69.543-32.0181-106.863-27.5949-4.3993,.5214-8.7736,1.2411-13.0893,2.2457-3.8674,.9002-9.6741,1.3674-11.5474,5.3185-2.9263,6.1722,1.7229,12.4612,7.2787,15.0042,6.8031,3.1138,13.7215,.8644,18.0463-5.1024,4.344-5.9932,5.0856-14.0115,4.7527-21.1847-1.7155-36.9627-26.1742-67.9181-40.9666-100.4203-8.0952-17.7871-14.6471-36.3114-22.3657-54.2734-8.057-18.7494-16.715-37.2656-26.6564-55.0979-8.4756-15.2031-17.8038-30.1126-28.6803-43.7308-9.7266-12.1784-21.7335-24.3314-36.9445-29.2069-18.4998-5.9296-37.9505,1.7993-56.5687,2.8935-4.6029,.2705-4.634,7.4687,0,7.1964,15.5293-.9127,30.8441-6.1709,46.4875-4.7952,12.0751,1.0619,22.299,8.2736,30.7458,16.511,8.4527,8.2431,15.5183,17.7724,22.0905,27.5443,8.2167,12.217,15.6469,24.9427,22.4667,37.9878,14.24,27.2385,25.8343,55.7377,37.2318,84.2502,5.0772,12.7015,10.926,24.8727,17.4092,36.916,6.5349,12.1393,13.3088,24.1926,18.796,36.8565,5.7677,13.3115,10.6241,28.2768,9.7449,42.9701-.3041,5.0823-2.0382,13.8453-8.2117,14.9386-3.3266,.5891-10.2655-2.8434-7.7538-6.8723l-2.1504,1.6536c41.8042-13.2943,86.6311,.7562,123.1155,22.2061,34.8943,20.5151,65.8565,48.7375,86.6126,83.7182,21.7676,36.6854,31.6442,81.3241,23.1729,123.5006-7.3675,36.6809-28.7839,68.4404-57.433,92.0383-28.4353,23.4218-63.4152,38.832-99.4975,45.7367-45.6228,8.7304-92.9964,4.4114-138.0179-5.6447-23.2149-5.1854-46.0604-11.9266-68.5989-19.507-22.2298-7.4766-44.1333-16.3341-67.1073-21.3445-11.3231-2.4695-22.9495-4.0134-34.5563-3.7278-11.4253,.2811-22.4445,2.5866-33.2804,6.1224-18.1569,5.9246-39.359,15.1133-57.9261,5.2721-11.9607-6.3395-16.0491-19.7935-14.2869-32.539,1.8512-13.3893,8.6256-25.8699,15.9494-37.0084,15.8846-24.1585,37.0333-45.1047,58.9801-63.7669,1.8966-1.6127,3.8085-3.2074,5.7393-4.7792,2.3734-1.9321,6.7171-6.334,9.9862-4.9376-.5512-.7168-1.1024-1.4336-1.6536-2.1504l.614-.8538-.4758-.4249c-.1367-.5835-.6781-1.274-.8909-1.8796-.4215-1.1996-.6707-2.5173-.8108-3.777-.328-2.9493-.0363-5.9151,.7776-8.7615,1.4903-5.2122,4.7995-9.6152,9.3142-12.5961,8.3732-5.5285,18.9234-6.7374,28.7326-6.6443,23.1289,.2197,45.3263,8.7006,66.9063,16.1534,45.1492,15.5925,89.2811,35.267,136.328,44.6453,28.4885,5.6788,57.5207,7.3307,86.4964,5.5307,4.6004-.2858,4.6328-7.4842,0-7.1964h0Z"/><g><path d="M669.9818,137.8377c-1.6828,5.0505-9.0816,.0461-4.99-3.6217,2.7933-2.5039,6.0564,.4107,4.99,3.6217Z"/><path d="M667.6687,137.2c-.0369,.1086-.0769,.2158-.1205,.3219l.2418-.573c-.1202,.2822-.2671,.5492-.4517,.7945l.3751-.4855c-.1457,.1876-.3095,.3562-.4962,.5032l.4855-.3751c-.1742,.1326-.3613,.2416-.5629,.3269l.573-.2418c-.2085,.0842-.4244,.1401-.6472,.1701l.6377-.0857c-.2508,.03-.5016,.0264-.7521-.0055l.6377,.0857c-.3109-.0436-.6114-.1293-.9012-.2498l.573,.2418c-.321-.1375-.6208-.3146-.8978-.5271l.4855,.3751c-.2641-.207-.5016-.4425-.7078-.7074l.3751,.4855c-.175-.2301-.3227-.4771-.4376-.7426l.2418,.573c-.0999-.2391-.1703-.4865-.2073-.7431l.0857,.6377c-.0302-.234-.0314-.4678-.0031-.702l-.0857,.6377c.0341-.2484,.1005-.4877,.1959-.7194l-.2418,.573c.1177-.2737,.2715-.5258,.453-.7617l-.3751,.4855c.2316-.2926,.4979-.5521,.7901-.7839l-.4855,.3751c.2679-.2049,.552-.3777,.8624-.5104l-.573,.2418c.2372-.0957,.4797-.1644,.7327-.2028l-.6377,.0857c.2553-.0331,.5086-.0337,.7638,0l-.6377-.0857c.2267,.035,.4444,.0953,.6571,.1813l-.573-.2418c.2277,.0975,.4389,.2205,.6374,.3687l-.4855-.3751c.2145,.1666,.4041,.356,.5729,.5687l-.3751-.4855c.1825,.2387,.3312,.4951,.4498,.7712l-.2418-.573c.1188,.2905,.1992,.5895,.2439,.9001l-.0857-.6377c.0418,.3304,.0411,.6589,.0011,.9895l.0857-.6377c-.0359,.2589-.0947,.5108-.1749,.7596-.1861,.5769-.0594,1.3338,.2418,1.8484,.2912,.4976,.8617,.9721,1.4336,1.1024,1.3137,.2992,2.5381-.3961,2.9508-1.6754,.3955-1.226,.414-2.6879-.0586-3.8963-.305-.7799-.6488-1.3829-1.2089-2.015-.1345-.1518-.2831-.2861-.4422-.4116-.3011-.2374-.5982-.488-.9428-.661-1.2656-.6353-2.7695-.8414-4.1204-.328-.8539,.3245-1.5422,.7438-2.2264,1.3564-.425,.3805-.7917,.8423-1.1022,1.3179-1.0932,1.6746-1.0711,3.9724,.0353,5.6356,.5459,.8206,1.2181,1.4868,2.0569,2.0094,.8452,.5265,1.7659,.7772,2.7453,.8745,.5128,.051,1.0434-.02,1.5428-.13,.2459-.0542,.469-.1528,.701-.2508,.234-.0987,.4662-.1891,.6797-.3274,1.1712-.7588,1.8966-1.8678,2.3405-3.1737,.1933-.5686,.0547-1.3417-.2418-1.8484-.2912-.4976-.8617-.9721-1.4336-1.1024-.6141-.1399-1.3033-.1096-1.8484,.2418-.543,.3501-.8932,.8182-1.1024,1.4336Z"/></g><g><path d="M636.4722,149.0959c-1.4401,4.3221-7.7717,.0394-4.2703-3.0993,2.3904-2.1428,5.1829,.3515,4.2703,3.0993Z"/><path d="M634.1591,148.4582c-.0316,.093-.0658,.1847-.1031,.2755l.2418-.573c-.1029,.2415-.2286,.4699-.3865,.6799l.3751-.4855c-.1247,.1605-.2649,.3048-.4246,.4306l.4855-.3751c-.1491,.1134-.3092,.2068-.4817,.2797l.573-.2418c-.1785,.0721-.3631,.1199-.5538,.1455l.6377-.0857c-.2146,.0256-.4293,.0226-.6436-.0047l.6377,.0857c-.2661-.0373-.5233-.1107-.7712-.2138l.573,.2418c-.2747-.1177-.5313-.2692-.7683-.451l.4855,.3751c-.226-.1771-.4293-.3787-.6057-.6054l.3751,.4855c-.1498-.1969-.2761-.4083-.3745-.6355l.2418,.573c-.0855-.2046-.1457-.4163-.1774-.6359l.0857,.6377c-.0259-.2002-.0269-.4004-.0027-.6008l-.0857,.6377c.0292-.2125,.086-.4174,.1677-.6157l-.2418,.573c.1007-.2342,.2324-.45,.3877-.6519l-.3751,.4855c.1982-.2504,.4261-.4725,.6762-.6709l-.4855,.3751c.2292-.1753,.4724-.3232,.738-.4368l-.573,.2418c.203-.0819,.4105-.1407,.627-.1735l-.6377,.0857c.2185-.0283,.4352-.0288,.6536,0l-.6377-.0857c.194,.0299,.3803,.0816,.5623,.1552l-.573-.2418c.1949,.0835,.3756,.1887,.5454,.3155l-.4855-.3751c.1836,.1426,.3458,.3046,.4902,.4866l-.3751-.4855c.1562,.2043,.2834,.4237,.3849,.6599l-.2418-.573c.1017,.2486,.1704,.5045,.2088,.7702l-.0857-.6377c.0357,.2828,.0352,.5639,.001,.8468l.0857-.6377c-.0308,.2216-.081,.4372-.1497,.65-.1861,.5769-.0594,1.3338,.2418,1.8484,.2912,.4976,.8617,.9721,1.4336,1.1024,.6141,.1399,1.3033,.1096,1.8484-.2418,.5386-.3472,.9038-.8179,1.1024-1.4336,.3553-1.1016,.3739-2.4318-.0502-3.5183-.287-.7352-.5951-1.2807-1.1235-1.877-.1152-.1299-.2423-.2448-.3784-.3522-.2795-.2206-.5562-.4588-.8768-.6198-1.1626-.5836-2.5485-.7877-3.7927-.3156-.795,.3017-1.4204,.6788-2.058,1.2497-.3854,.3451-.7161,.7671-.9973,1.1978-.999,1.5303-.9814,3.6513,.0302,5.172,.5025,.7554,1.1117,1.3624,1.8844,1.8437,.78,.4859,1.6217,.7062,2.524,.7956,.4691,.0465,.9563-.0232,1.4122-.1236,.2251-.0496,.4288-.1424,.6413-.232,.2138-.0902,.4279-.1712,.623-.2976,1.0824-.7012,1.7515-1.7153,2.1619-2.9227,.1933-.5686,.0547-1.3417-.2418-1.8484-.2912-.4976-.8617-.9721-1.4336-1.1024-.6141-.1399-1.3033-.1096-1.8484,.2418-.543,.3501-.8932,.8182-1.1024,1.4336Z"/></g><path d="M649.2024,145.1176c.7689,.3275,1.6975,.6713,2.0989,1.4619,.3481,.6855,.3074,1.5656,.1886,2.3005-.3059,1.8926-1.2801,3.6261-2.2378,5.2545-2.1081,3.5843-5.1703,7.64-4.3694,12.0513,.3788,2.0862,1.8718,4.0543,3.9487,4.6802,2.1513,.6483,4.4755-.1144,6.4844-.9124,3.9295-1.5609,7.4331-4.0394,10.1127-7.3226,.8185-1.0029,.981-2.4114,0-3.3924-.8451-.8451-2.5691-1.0087-3.3924,0-2.225,2.7262-5.0558,4.9626-8.3614,6.2319-.9992,.3837-3.3034,1.5785-3.9553,.2412-.6918-1.4193,.3781-3.3789,1.0288-4.637,1.7456-3.3753,4.1988-6.4203,5.1893-10.152,1.107-4.1704-.1847-8.1891-4.3137-9.9478-1.1909-.5072-2.5704-.3561-3.282,.8606-.5896,1.008-.338,2.7715,.8606,3.282h0Z"/><g><path d="M733.5384,138.8394c1.0008-2.5991,1.3289-5.5285,1.1835-8.3272-.3499-6.7358-3.2626-13.4893-8.5641-17.6591-7.1842-5.6506-19.6713-5.5454-23.58,4.0773-.5642,1.3891-.6192,2.9267-.6127,4.426,.0254,5.8677,.8811,11.7311,2.5335,17.3614,.5159,1.7578,1.0174,3.9186-.2839,5.2081-1.0923,1.0823-2.9943,.8835-4.2382-.0205s-1.9871-2.325-2.687-3.6942c-4.3034-8.4182-7.7942-17.1029-14.5235-23.8441-1.4527-1.4553-3.1209-2.8018-5.1108-3.32-1.636-.4261-3.3626-.26-5.0389-.0409-12.0465,1.5746-23.3816,5.8346-35.0758,8.8791-13.4047,3.4897-17.577,5.8387-25.3238-2.4598-14.3616-15.3844-14.8259-42.9924-3.6889-59.982,5.1631-7.8764,13.4804-14.5626,22.8973-14.4345,9.417,.1281,18.5256,9.6862,15.5643,18.6263,12.3094-12.3687,29.562-18.4206,46.5665-22.339,9.8472-2.2691,20.1321-3.9527,30.0088-1.8158,20.2669,4.385,34.2113,24.3002,38.0599,44.6758,3.8795,20.5392-1.2138,42.1096-.9678,62.3536,.4432,36.4659-24.4499-8.1266-30.4207-2.724,1.5028-1.3599,2.5785-3.0669,3.3023-4.9466Z"/><path d="M737.008,139.796c4.0082-10.8595-.7679-25.1809-10.7031-31.2035-7.9679-4.8302-19.3245-4.2861-25.1528,3.5563-3.8754,5.2146-2.9355,12.1769-2.0991,18.2273,.4525,3.273,1.192,6.4513,2.072,9.6324,.0955,.3451,.1706,.6938,.2602,1.04,.0307,.1188,.0815,.6952,.0343,.1013,.0016,.0197,.1675,1.0012,.0457,.5423l.0262-.1479c-.1164,.4046-.1086,.4192,.0233,.0438,.169-.1572,.3305-.2992,.5068-.4431,.5056-.4127,.3963,.3057,.1309-.0825l.2983,.0459c-.3589-.1164-.4279-.1249-.2068-.0255,.2167,.1092,.1582,.0753-.1753-.1016,.2444,.2297,.201,.1922-.1302-.1125-.2983-.2349-.4552-.4999-.8108-1.1081-.3328-.5693-.6277-1.1607-.9264-1.7482-.6797-1.3372-1.341-2.6836-2.0018-4.0302-1.2799-2.6078-2.5557-5.2192-3.9513-7.7677-2.9339-5.3577-6.5489-10.9211-11.5197-14.6023-2.7046-2.0029-5.8775-2.6611-9.1938-2.3151-3.4339,.3582-6.8517,.9857-10.2203,1.7342-6.3483,1.4107-12.5639,3.3387-18.8003,5.166-5.4709,1.6031-10.985,3.1554-16.5284,4.4915-.9386,.2262-1.882,.4358-2.8337,.5996-.1754,.0302-.3514,.0558-.5268,.0858-.8862,.1514,.8122-.0412-.0628,.0047-.4855,.0255-.9668,.0862-1.4542,.0959-.3474,.0069-.6949,.0019-1.0418-.018-.0962-.0055-.5116,.0196-.5645-.0449,.1199,.1462,.8444,.161,.181,.0192-.3647-.078-.7274-.1483-1.0863-.2521-.3647-.1054-1.3854-.5715-.531-.1468-.7446-.3702-1.4595-.7504-2.1442-1.227-.1274-.0886-.8369-.645-.1483-.091-.1494-.1202-.2983-.2405-.4452-.3638-.4731-.3973-.9288-.8154-1.3718-1.2459-.812-.7892-1.5842-1.6204-2.3176-2.483-.1821-.2142-.3614-.4307-.5385-.649-.0965-.1189-.5464-.6967-.1672-.2001-.4098-.5367-.8034-1.0863-1.1834-1.6445-1.3063-1.9194-2.4402-3.9542-3.4077-6.0643-.1188-.2592-.2345-.5197-.3492-.7807,.2388,.5433,.002,.009-.037-.0878-.2142-.5314-.4234-1.0645-.6204-1.6026-.4357-1.1901-.8228-2.3977-1.1644-3.6181-.3126-1.1168-.5852-2.2448-.8212-3.3803-.1185-.57-.2271-1.1422-.3265-1.7159-.0498-.2874-.0969-.5751-.1421-.8633-.0218-.1392-.1825-1.3194-.0929-.6048-.2986-2.3838-.4483-4.7841-.443-7.1866,.0053-2.3967,.1553-4.7975,.4687-7.174-.1016,.7703,.0589-.3691,.0678-.4264,.0355-.2296,.0726-.4591,.1109-.6883,.0956-.5717,.2006-1.1418,.3142-1.7101,.2482-1.2424,.5402-2.4762,.876-3.6978,.3022-1.0993,.6398-2.1891,1.015-3.2657,.186-.5338,.3806-1.0647,.5849-1.5918,.0814-.21,.1668-.4183,.2483-.6282,.1617-.3917,.17-.4161,.0251-.0732,.0881-.2057,.1777-.4107,.2687-.6151,.8973-2.0141,1.9382-3.9656,3.1322-5.8197,2.6572-4.1262,6.3382-7.957,10.6793-10.404,2.1983-1.2391,3.9611-1.9042,6.6774-2.3739,.687-.1188-.842,.0565,.3435-.0478,.3131-.0275,.6255-.0554,.9394-.0724,.6165-.0334,1.2344-.0411,1.8511-.0101,.2902,.0146,.5799,.0362,.8687,.0689-.6242-.0707-.0364-.0024,.079,.0227,.6861,.1491,1.3651,.2966,2.0347,.5108,.3344,.107,.665,.2257,.992,.3535-.1477-.0577-.5343-.2613,.1108,.052,.5293,.2571,1.052,.5207,1.5594,.8191,.507,.2981,.9946,.6246,1.4727,.9666,.8934,.6391-.4308-.4348,.3763,.3073,.2579,.2372,.5267,.4613,.7799,.7041,.4187,.4015,.8196,.8221,1.1968,1.2628,.1488,.1738,.3008,.3511,.4396,.5337-.427-.5618,.2243,.3541,.2436,.3833,.3121,.4718,.6014,.9594,.86,1.4626,.1026,.1997,.1995,.4016,.2946,.6049-.3029-.6472,.1984,.5609,.2411,.6945,.1683,.5271,.285,1.062,.4009,1.6022,.0318,.1483,.061,.6914,.0077,.0221,.0218,.2744,.0424,.5475,.0494,.8228,.007,.2759,.0054,.5514-.0077,.8272,.0014-.0305-.107,1.0427-.0329,.5182,.0749-.5305-.1233,.5557-.1148,.5191-.0782,.3367-.1764,.6658-.28,.9954-1.0957,3.4852,3.5318,5.9773,6.014,3.5008,3.7674-3.7588,7.5015-6.5826,12.1016-9.3101,4.5578-2.7024,9.1823-4.8183,13.9162-6.5747,4.8956-1.8164,9.9111-3.2965,14.9735-4.5694,5.6151-1.412,11.3514-2.7291,17.08-3.3027,5.7524-.576,11.5321-.4869,17.089,1.0391,1.0262,.2818,2.0409,.6055,3.041,.9694,.552,.2008,1.1016,.4111,1.643,.6392-.1456-.0613-.5409-.2448,.11,.0541,.3194,.1466,.6399,.29,.9572,.4412,2.0066,.9563,3.9348,2.0754,5.769,3.3307,1.962,1.3427,3.1196,2.2887,5.0318,4.0914,1.6455,1.5512,3.1864,3.2127,4.6213,4.9603,.152,.1852,.3029,.3713,.4525,.5584-.0008-.001,.7207,.9315,.3227,.4076,.2911,.3831,.5772,.77,.8586,1.1602,.7416,1.0283,1.4496,2.0806,2.1249,3.1536,1.2612,2.0042,2.4072,4.0806,3.4373,6.2127,1.0729,2.2207,1.5899,3.4628,2.4457,5.879,.7888,2.2271,1.4587,4.4967,2.0059,6.7951,1.2981,5.4524,1.8143,10.9238,1.9432,16.5419,.2804,12.2207-1.353,24.3683-2.0811,36.5456-.3148,5.266-.0924,10.5454-.4115,15.8034-.0278,.4587-.0622,.9171-.1051,1.3746-.0199,.2116-.1511,1.3487-.0775,.778,.0769-.5963-.08,.4959-.1109,.6698-.0675,.3799-.1436,.7583-.2325,1.1338-.1338,.5651-.3085,1.1116-.4926,1.6615-.272,.8123,.3715-.6765,.0269-.0634-.1258,.2238-.2494,.4552-.3706,.6817-.327,.611-.0588,.0188,.1582-.1584-.1226,.1001-.2479,.2657-.3545,.3877-.5198,.5954,.4057-.2218,.2235-.1527-.1066,.0404-.3782,.1678-.4471,.2525,.3828-.4703,.9253-.3226,.2929-.1616-.6916,.1761,.3689-.0469,.4098-.0373-.1189-.0279-.3367,.005-.4655,.0124-.8707,.0505,.7975,.2065,.2567,.0512-.3552-.102-.7189-.2018-1.0758-.2989-.7274-.198,.8077,.4139,.2104,.096-.2182-.1161-.4475-.2129-.6662-.329-.8485-.4506-1.6358-.996-2.4134-1.5575-.1109-.0801-.2163-.1685-.3283-.247-.3689-.2587,.761,.6118,.2654,.2032-.1984-.1636-.4017-.3213-.6003-.4847-.4575-.3764-.9069-.7626-1.3509-1.1548-.9095-.8032-1.7954-1.6329-2.6715-2.4723-1.7423-1.6694-3.4412-3.3834-5.1864-5.0498-2.7466-2.6226-6.4007-6.5284-10.5425-6.4085-1.4094,.0408-2.5778,.5994-3.6258,1.5098,1.6962,1.6962,3.3924,3.3924,5.0886,5.0886,1.9592-1.8373,3.24-4.0658,4.2276-6.5344,.7221-1.8049-.7884-3.9523-2.5131-4.4262-2.0505-.5634-3.7014,.7016-4.4262,2.5131,.1584-.3958-.2504,.522-.2928,.6041-.2139,.4136-.4488,.8149-.7048,1.2038-.2313,.3513-.2815,.408-.3976,.5436-.3061,.3577-.6387,.6856-.9818,1.0074-1.4179,1.3296-1.3431,3.7455,0,5.0886,1.456,1.456,3.6171,1.2783,5.0886,0,.301-.2615-.9468,.6293-.3568,.3022,.3435-.1905-1.1298,.3799-.4467,.211,.2424-.06-1.2168,.0986-.5043,.0796,.7222-.0193-.8246-.2337-.4669-.0805,.123,.0527,.3014,.08,.4352,.1099,.4623,.1033,.5217,.5166-.3064-.1521,.2686,.2169,.6903,.3441,.9915,.5266,.369,.2236,.7188,.4736,1.0707,.7226,.6058,.4286,.0006,.0019-.1089-.0913,.2084,.1774,.4282,.3424,.6388,.5175,.8476,.7045,1.6621,1.4483,2.4648,2.2031,3.76,3.5362,7.2696,7.3403,11.3825,10.4818,3.6259,2.7696,8.7358,5.1336,12.7155,1.5836,1.908-1.702,2.8238-4.3406,3.2826-6.7873,.8432-4.497,.6115-9.0273,.7021-13.5742,.4733-23.7467,6.3797-48.2797-2.657-71.1985-3.6391-9.2294-9.0927-17.8949-16.5932-24.4777-8.1363-7.1409-18.0828-11.3012-28.93-11.7611-6.4782-.2747-12.9852,.6692-19.3166,1.9677-5.558,1.1399-11.0812,2.5201-16.5026,4.1954-10.414,3.2181-20.6237,7.6422-29.31,14.3158-2.2897,1.7592-4.4746,3.6265-6.5195,5.6667l6.014,3.5008c3.6054-11.4682-7.2101-22.3252-18.1633-23.1415-11.7212-.8735-22.0829,8.1203-27.7433,17.5622-5.1918,8.6601-7.535,19.0459-7.3989,29.0902,.137,10.1073,2.7647,20.5575,8.5737,28.9356,2.6465,3.817,6.0341,7.9026,10.2801,10.0065,3.813,1.8894,7.7757,1.8415,11.8715,1.0314,5.4043-1.0689,10.7725-2.7015,16.0636-4.2187,6.3242-1.8134,12.5994-3.8108,18.9974-5.356,3.1808-.7682,6.4949-1.4669,9.6765-1.8973,3.165-.4282,4.9353-.2029,7.0125,1.7324,4.2747,3.9828,7.1886,9.0473,9.8899,14.3186,1.3956,2.7233,2.7077,5.4883,4.0817,8.2224,1.4519,2.8893,3.0494,5.8393,6.2955,6.9755,3.4149,1.1953,7.4415-.455,8.4545-4.0815,.9046-3.2386-.6286-6.5705-1.3417-9.6931-.7133-3.1237-1.1574-6.2004-1.3418-9.3941-.0898-1.5549-.1569-3.1262-.0805-4.683,.0355-.7224,.1183-1.006,.3069-1.6938,.332-1.2105-.2769,.3831,.1872-.4447,.153-.2729,.2859-.5566,.4442-.827,.119-.2032,.9615-1.3782,.4615-.76,.3353-.4146,.6959-.8067,1.0832-1.1732,.1732-.1639,.3553-.3163,.5327-.4754,.6838-.6134-.6086,.3518,.1731-.1216,.4825-.2922,.9452-.6019,1.4512-.856,.1674-.0841,.3376-.1609,.5071-.2408-.813,.383,.0312,.0007,.185-.0532,.4444-.1558,.8968-.2884,1.3545-.399,.4612-.1115,.928-.1997,1.3975-.2678-.8435,.1224-.1737,.0265,.0409,.018,.3363-.0133,.6712-.0438,1.0082-.0503,.4838-.0092,.9683,.0024,1.4512,.0336,.2375,.0154,.4895,.0675,.727,.0626,.5653-.0117-.8506-.1644,.0591,.0073,1.0635,.2008,2.1073,.4377,3.1317,.7939,.2781,.0967,.552,.2027,.8263,.3094-.6846-.2663-.1935-.0855-.0501-.0149,.4383,.2158,.8781,.424,1.3044,.6633,.4654,.2613,.9184,.5439,1.3575,.8474,.1983,.1371,.3966,.2755,.5867,.4239-.5331-.4161,.4338,.3968,.5377,.4909,2.065,1.8685,3.302,3.6261,4.539,6.2621,.8163,1.7394,1.674,4.9967,1.8478,6.8102,.2935,3.0624,.0784,5.6987-.9689,8.5361-.673,1.8233,.7527,3.9425,2.5131,4.4262,2.0096,.5522,3.7508-.6832,4.4262-2.5131Z"/></g><path d="M629.3165,140.7756c.6501-.457,1.3236-.8781,2.0235-1.2549,.373-.2008,.7524-.3894,1.1376-.5657,.0963-.0441,.1929-.0874,.2899-.1299,.2389-.1032,.1942-.0846-.1343,.0558,.064-.0923,.4079-.1621,.5174-.2034,.7432-.2804,1.503-.5158,2.2746-.7045,.3857-.0943,.7742-.1771,1.165-.2477,.2085-.0377,.4177-.0694,.6269-.1027,.2648-.0376,.2096-.0302-.1654,.0222,.1051-.0128,.2103-.0247,.3157-.0358,.6548-.0715,1.2136-.22,1.6962-.7026,.4161-.4161,.7294-1.0987,.7026-1.6962-.053-1.1829-1.0629-2.5447-2.3988-2.3988-3.7524,.4098-7.3695,1.6403-10.4724,3.8215-.5206,.366-.9284,.8018-1.1024,1.4336-.1581,.5742-.0867,1.3388,.2418,1.8484,.6558,1.0172,2.1841,1.6323,3.282,.8606h0Z"/><path d="M657.8936,127.6113c.7836-.5866,1.6108-1.1088,2.4837-1.5525,.2179-.1108,.4382-.2168,.6607-.3179,.132-.06,.5997-.339,.1009-.0472,.401-.2345,.9398-.3541,1.3821-.4898,.4674-.1433,.941-.2669,1.4191-.3693,.1793-.0384,.3591-.074,.5395-.1068,.1293-.0235,.9368-.1932,.2682-.0531,.9332-.1955,1.9807-.1518,2.9271-.1068,1.2552,.0596,2.4549-1.1459,2.3988-2.3988-.0605-1.3507-1.0541-2.3349-2.3988-2.3988-4.3043-.2045-8.7484,1.1126-12.2027,3.6985-.5192,.3887-.9234,.7836-1.1024,1.4336-.1581,.5742-.0867,1.3388,.2418,1.8484,.6386,.9906,2.2076,1.6649,3.282,.8606h0Z"/><path d="M284.7334,226.3053c3.0106,9.4563,9.9132,16.5952,19.1975,20.0438,2.655,.9862,5.338,1.9026,8.0058,2.8535,12.1298,4.3234,24.2597,8.6468,36.3895,12.9701,4.7288,1.6854,9.4575,3.3709,14.1863,5.0563,4.0696,1.4505,7.9481,2.9342,9.541,7.489,2.9729,8.5009-5.4674,15.503-13.4445,12.9696-3.8435-1.2206-7.647-2.5864-11.4669-3.8783-11.0346-3.7321-22.0691-7.4642-33.1037-11.1964-4.205-1.4222-5.7323,4.2998-2.7726,6.5766,6.3904,4.9158,12.7808,9.8317,19.1712,14.7475,3.8595,2.969,7.7191,5.938,11.5786,8.9069,3.097,2.3824,5.8738,4.4975,6.5464,8.7549,.6479,4.1009-1.2946,8.2152-4.8482,10.3449-3.8959,2.3349-8.358,1.6299-11.9113-.941-3.2803-2.3734-7.5249,3.0624-4.3604,5.6512,4.4699,3.6567,5.9367,9.9073,2.2371,14.7245-3.6987,4.816-10.1233,5.0087-14.8026,1.6272-3.2817-2.3715-7.5237,3.0607-4.3604,5.6512,4.211,3.4485,5.8535,9.2106,2.7356,14.0137-2.8855,4.4452-8.7467,5.8542-13.4413,3.499-3.3906-1.7009-6.2897-4.8661-9.0993-7.3579-3.6569-3.2431-7.2988-6.5037-11.0397-9.6503-7.6426-6.4284-15.7538-12.8751-25.1151-16.5968-8.8182-3.5058-18.2195-2.0931-25.5114,4.1834-15.9844,13.7583-4.0395,40.8621,6.2385,54.2116,11.9546,15.527,30.435,23.1884,49.8475,22.3517,21.1037-.9096,40.54-10.2271,57.3147-22.5401,20.1592-14.7972,37.6627-32.7274,54.3679-51.2437,33.488-37.1186,65.4872-78.4469,111.7145-100.3849,48.4162-22.9768,104.5486-22.354,156.4403-14.3964,3.2683,.5012,6.5319,1.033,9.7905,1.5932,1.5402,.2648,3.1525,.4305,4.6566,.8512,.505,.1413,.9993,.291,1.4723,.5246,1.0377,.5126,.9664,1.1978,1.4717,.0452,1.0356-.594,2.0713-1.1881,3.1069-1.7821-9.8438,.307-18.8079-4.7005-26.4518-10.4773-6.7404-5.094-12.6186-11.4118-17.4179-18.3518-9.3006-13.4491-15.3131-29.4112-18.5448-45.3917-1.3984-6.9148-2.1642-14.0057-3.0538-20.9981-1.4356-11.2848-2.7226-22.6087-3.4435-33.9642-.286-4.5047-.5219-9.0395-.347-13.5538,.0323-.8323,.0886-1.6612,.1568-2.4911,.0255-.3102,.0595-.6218,.1022-.9301-.1084,.783,.0206-.1124,.091-.3958,.0649-.2612,.1381-.5264,.1922-.7898,.1787-.8687-.0324,.0838-.068,.0404-.0229-.0279,.1942-.38,.228-.4145-.035,.0357-1.2937,1.4622-1.5163,1.1174,.0976,.1513,2.7124-.4907,2.902-.5246,2.6574-.474,5.3148-.948,7.9721-1.4221,19.7923-3.5305,39.5847-7.061,59.377-10.5916,9.7312-1.7358,19.4625-3.4717,29.1937-5.2075,5.2368-.9341,10.7785-1.4596,15.9207-2.8399,.2481-.0666,.5151-.0919,.7687-.1371l-4.4262-2.5131c6.7744,25.4039,13.5487,50.8077,20.3231,76.2116,4.351,16.3161,9.3124,32.2411,17.2696,47.2585,6.7765,12.7892,15.2119,24.4452,24.7279,35.3226,6.7565,7.7231,12.9732,15.8947,18.6845,24.4185,23.4569,35.008,38.3342,75.2384,46.7623,116.3757,8.4763,41.3723,10.5049,84.195,6.1828,126.1998-3.8232,37.1557-12.6808,74.8267-30.0363,108.1129-13.4541,25.8037-33.3643,50.8861-61.3899,61.4807-14.6547,5.54-30.8864,6.9422-46.2434,3.7482-16.9253-3.5202-32.2424-12.2356-45.3045-23.3888-30.3277-25.8956-50.6787-62.482-66.9122-98.3412-15.1428-33.4499-26.8533-68.4303-36.4897-103.8328-6.6403-24.3952-23.423-44.9101-46.3939-55.665-10.8483-5.0791-21.8993-9.7952-32.6353-15.1062-5.0161-2.4814-7.7488-8.1221-5.4747-13.5034,2.1727-5.1414,8.3588-7.6715,13.5034-5.4747,4.1443,1.7696,7.8616-4.1001,3.6321-6.2139-4.9993-2.4985-7.7521-8.1153-5.4747-13.5034,2.1703-5.1349,8.3664-7.6682,13.5034-5.4747,4.1443,1.7696,7.8616-4.1001,3.6321-6.2139-4.9993-2.4985-7.7521-8.1153-5.4747-13.5034,2.1703-5.1349,8.3664-7.6682,13.5034-5.4747,4.1443,1.7696,7.8616-4.1001,3.6321-6.2139-4.7624-2.3801-7.5348-7.5425-5.7256-12.7984,1.6147-4.6907,6.5319-7.7044,11.4575-6.8443,3.8568,.6735,7.7079,3.1702,11.2002,4.7874,11.9773,5.5463,23.9545,11.0927,35.9318,16.639,2.2749,1.0535,4.4848,2.0811,7.0204,2.3803,6.3524,.7496,12.3136-2.5421,15.4455-8.0365,2.297-4.0297-3.9182-7.6596-6.2139-3.6321-2.2791,3.9983-6.7591,5.5566-10.8434,3.8971-1.4876-.6044-2.9314-1.3575-4.388-2.0319-6.6345-3.0722-13.2689-6.1445-19.9034-9.2167-6.2836-2.9098-12.5672-5.8195-18.8508-8.7293-6.2515-2.8949-12.4994-4.8441-19.1622-1.4081-12.6259,6.5113-12.117,24.9519,.3998,31.2074,1.2107-2.0713,2.4214-4.1426,3.6321-6.2139-8.6824-3.7074-19.1217-.8483-23.3494,8.0564-4.1112,8.6592-.517,19.0647,8.0564,23.3494,1.2107-2.0713,2.4214-4.1426,3.6321-6.2139-8.6824-3.7074-19.1217-.8483-23.3494,8.0564-4.1112,8.6592-.517,19.0647,8.0564,23.3494,1.2107-2.0713,2.4214-4.1426,3.6321-6.2139-6.0039-2.5637-12.6757-2.327-18.0361,1.6767-5.0063,3.7392-7.7028,9.9232-6.9288,16.1363,.7323,5.8783,4.3716,10.9739,9.6839,13.5985,1.8852,.9314,3.8232,1.7697,5.7312,2.6528,7.362,3.4077,14.724,6.8155,22.086,10.2232,7.8843,3.6495,15.5435,7.5481,22.2545,13.1754,9.9385,8.3335,17.8817,19.0775,22.6329,31.1718,3.3082,8.4211,5.2225,17.4531,7.7744,26.1293,5.2876,17.9769,11.1864,35.7799,17.8172,53.3071,14.7842,39.0795,32.9475,77.9678,59.2635,110.7151,23.0369,28.6668,55.2103,53.0306,93.7044,51.5344,31.2783-1.2158,57.7203-18.8254,76.5067-43.0242,22.2334-28.639,34.9063-64.1044,42.2988-99.271,8.7803-41.768,10.4243-85.1149,5.9382-127.5196-4.594-43.4242-15.595-86.4435-34.8718-125.7387-9.3166-18.9917-20.6566-36.9814-34.1128-53.3178-4.0778-4.9506-8.4446-9.6497-12.3776-14.7211-4.7046-6.0663-8.9725-12.4831-12.8036-19.1343-7.3466-12.7545-12.9341-26.3952-16.7597-40.6041-7.0044-26.015-13.8838-52.0642-20.8256-78.096-.7475-2.8031-1.495-5.6062-2.2425-8.4093-.5343-2.0035-2.5213-2.8529-4.4262-2.5131-13.471,2.4029-26.9421,4.8059-40.4131,7.2088-20.9255,3.7327-41.8511,7.4653-62.7766,11.198-4.193,.7479-8.7228,1.1098-12.8235,2.2874-6.292,1.807-4.7173,13.7518-4.5453,18.4844,.7416,20.4121,3.3203,41.1158,6.7777,61.2445,2.5051,14.5841,8.0202,29.4129,15.4541,42.185,8.9891,15.4441,22.5765,29.4694,39.4114,36.1631,4.702,1.8695,9.7019,2.8457,14.7669,2.6877,1.1618-.0362,2.6038-.6346,3.1069-1.7821,2.69-6.1356-2.9345-10.3316-8.4986-11.3971-6.6575-1.2749-13.3875-2.2644-20.0998-3.2-13.2588-1.8482-26.5846-3.2119-39.9605-3.8202-26.9517-1.2258-54.2938,.5559-80.4682,7.3844-25.862,6.7469-49.5876,18.7249-70.6624,35.1095-19.8284,15.4157-37.0269,33.8312-53.6891,52.5358-16.7752,18.8314-33.1257,38.1163-51.4514,55.4865-16.6647,15.7958-35.358,31.4031-57.5196,38.613-17.9639,5.8443-38.415,6.1862-54.4321-5.0026-8.4353-5.8925-14.5248-14.5741-18.659-23.8898-3.4667-7.8117-6.8001-18.585-2.6597-26.7735,2.1943-4.3395,6.3569-6.9111,10.9237-8.2252,3.6327-1.0453,7.1806-.2783,10.6446,1.0549,9.0767,3.4936,17.0134,10.2386,24.3132,16.4855,3.6999,3.1662,7.3115,6.4324,10.9673,9.6489,3.2042,2.8191,6.4673,6.0376,10.4473,7.7007,10.965,4.5817,23.315-2.953,24.2571-14.7965,.4473-5.6235-2.0927-11.1937-6.4213-14.7385l-4.3604,5.6512c7.5863,5.4822,18.3826,3.9637,24.1061-3.4653,5.7218-7.4267,4.4198-18.2664-2.8198-24.1889l-4.3604,5.6512c7.8898,5.7085,19.0036,3.7621,24.6211-4.142,5.6118-7.896,3.0519-18.5417-4.2964-24.2543-7.8813-6.1269-15.8259-12.1741-23.7383-18.2608-3.2863-2.528-6.5725-5.056-9.8588-7.5839-.9242,2.1922-1.8484,4.3844-2.7726,6.5766,10.0756,3.4078,20.1511,6.8155,30.2267,10.2233,4.6117,1.5598,9.2145,3.1496,13.8362,4.6797,7.8513,2.5993,16.4511,.0221,20.972-7.1078,5.6069-8.8428,1.7627-21.0513-7.7703-25.2196-2.7638-1.2085-5.6953-2.0986-8.533-3.1101-12.6-4.4909-25.1999-8.9819-37.7999-13.4728-5.1958-1.8519-10.3915-3.7038-15.5873-5.5557-7.5123-2.6776-13.3258-7.8349-15.797-15.597-1.3997-4.3965-8.3499-2.5177-6.9393,1.9131h0Z"/><path d="M280.6709,325.6312c3.8238,2.9478,7.6476,5.8957,11.4713,8.8435,6.106,4.7072,12.2119,9.4145,18.3179,14.1217,1.4168,1.0922,2.8335,2.1844,4.2503,3.2766,1.5403,1.1874,4.0303,.2353,4.923-1.2909,1.0864-1.8574,.2533-3.7326-1.2909-4.923-3.8238-2.9478-7.6476-5.8957-11.4713-8.8435-6.106-4.7072-12.2119-9.4145-18.3179-14.1217-1.4168-1.0922-2.8335-2.1844-4.2503-3.2766-1.5403-1.1874-4.0303-.2353-4.923,1.2909-1.0864,1.8574-.2533,3.7326,1.2909,4.923h0Z"/><path d="M297.6411,303.4755c3.8238,2.9478,7.6476,5.8957,11.4713,8.8435,6.106,4.7072,12.2119,9.4145,18.3179,14.1217,1.4168,1.0922,2.8335,2.1844,4.2503,3.2766,1.5403,1.1874,4.0303,.2353,4.923-1.2909,1.0864-1.8574,.2533-3.7326-1.2909-4.923-3.8238-2.9478-7.6476-5.8957-11.4713-8.8435-6.106-4.7072-12.2119-9.4145-18.3179-14.1217-1.4168-1.0922-2.8335-2.1844-4.2503-3.2766-1.5403-1.1874-4.0303-.2353-4.923,1.2909-1.0864,1.8574-.2533,3.7326,1.2909,4.923h0Z"/><path d="M329.2033,227.8602c1.9163,.5628,.254,.3043,.2788,.0641,.0241-.2327-.6135-.4759-.1628-.0964-.3815-.3213-.7445-.6609-1.1-1.0106-2.8403-2.7935-5.0301-6.2654-7.1096-9.6315-7.591-12.2874-11.5892-27.6538-23.9664-36.1889-10.1455-6.9962-23.2637-8.4397-35.2657-7.6604-13.5399,.8792-26.8844,4.321-39.5876,8.9797-26.3687,9.6703-49.6329,25.7473-69.9421,45.0135-23.6649,22.4496-43.2433,49.471-57.1226,78.9927-27.8252,59.1851-32.1086,130.709,4.1923,187.429,20.8958,32.6496,52.4253,59.3825,85.1988,79.593,32.3412,19.9439,68.6837,33.6217,106.5694,37.6807,9.5505,1.0232,19.1694,1.4132,28.771,1.1375,8.2978-.2383,17.8681-.0046,25.4989-3.7253,4.3961-2.1435,8.0946-6.4901,6.6164-11.6563-1.5144-5.2924-7.3906-8.1278-12.34-9.2221-9.5839-2.1189-20.2306-.4285-29.9525-.1269-11.4835,.3562-22.9709,.6481-34.4608,.6416-20.1887-.0114-40.2534-1.4478-60.3614-3.098-37.427-3.0715-76.3498-6.3067-112.8449,4.7755-31.6573,9.6132-59.521,30.0778-72.3858,61.2218-11.1606,27.0185-9.4875,58.1823,3.3839,84.2949,14.0057,28.4138,41.5799,47.2774,66.8677,64.9379,21.3526,14.9123,44.9259,29.0265,60.8737,50.1165,7.893,10.438,13.3773,22.3459,16.4737,35.0453,1.8585,7.6224,2.8861,15.4001,3.3293,23.228,.498,8.795-.6027,17.7369,.3046,26.4802,.8211,7.9131,3.3041,15.8703,8.8058,21.8173,6.0386,6.5273,14.9239,8.9024,23.5804,7.9931,9.9813-1.0485,19.8458-5.0407,28.1324-10.685,14.6589-9.9848,28.3306-21.6305,41.595-33.3694,16.1758-14.3154,32.0763-29.3781,45.5757-46.2931,5.213-6.532,10.3243-13.4089,13.7279-21.089,2.4223-5.4659,4.3654-12.0495,1.6988-17.7963-2.5671-5.5324-8.5232-7.9298-14.2245-8.7676-2.8029-.4119-5.9869,2.3842-4.0635,5.2857,5.0721,7.6513,14.6389,7.5479,20.1514,.327,5.3393-6.994,5.9941-17.7652,5.7675-26.2318-.5421-20.2558-9.7991-37.7809-23.8178-51.9936-14.7563-14.9605-31.5813-28.2376-47.9637-41.3554-16.9997-13.6121-34.4296-26.6911-52.2663-39.1866-19.8816-13.928-40.2682-27.1223-61.0952-39.5915-3.9833-2.3848-7.606,3.8347-3.6321,6.2139,32.8435,19.6634,64.5799,41.1538,94.9884,64.4081,15.3286,11.7222,30.3043,23.9105,44.9207,36.5091,13.6561,11.771,28.5023,23.7562,36.1197,40.5525,4.1818,9.2208,5.998,19.5147,5.4899,29.6074-.2252,4.4741-.7484,9.2654-2.4154,13.4651-1.6262,4.0967-6.5613,8.8812-10.0333,3.6437l-4.0635,5.2857c2.9912,.4396,5.4837,1.0281,7.6664,2.5205,1.1731,.8021,2.0525,1.9483,2.4143,3.7264,.2071,1.0176,.0627-.2416,.1202,.8265,.0315,.585,.0251,1.1647-.0023,1.7496-.0398,.8492-.2439,1.9484-.6478,3.3981-.8471,3.0406-2.077,5.5755-3.6149,8.3567-8.924,16.1384-22.6529,29.8371-35.7252,42.6219-14.3365,14.0212-29.4727,27.2802-45.2048,39.7144-12.8218,10.134-28.1528,22.6808-45.6354,21.079-8.8612-.8119-14.9494-7.0548-17.5639-15.253-2.5894-8.1196-1.5795-16.4331-1.619-24.797-.07-14.8167-1.8074-29.8636-6.6795-43.9173-8.0836-23.3172-24.5238-40.8983-43.7698-55.6933-22.2737-17.1224-46.3998-31.6106-67.903-49.7771-11.6705-9.8596-21.9222-20.5443-29.1238-34.1514-6.4608-12.2074-10.2873-25.8466-11.0534-39.6404-1.5638-28.1574,9.5668-55.7618,30.7597-74.4771,26.7748-23.6446,63.7982-30.5082,98.4457-30.8153,36.9402-.3274,73.5999,5.5635,110.5255,5.9427,10.9882,.1128,21.9772-.0867,32.9609-.3894,10.4785-.2888,21.2503-1.455,31.7159-.8569,2.5253,.1443,11.3698,1.4637,11.2629,5.0581-.1475,4.9596-13.0497,5.2188-15.8292,5.4259-74.0189,5.5157-145.702-30.0638-197.0393-81.6292-24.6364-24.7458-42.3797-54.4986-49.128-88.9587-5.9183-30.2215-3.1244-61.67,5.6194-91.0565,17.2835-58.0872,57.7579-111.4647,110.3301-142.0307,19.9988-11.6275,44.4696-20.3204,67.7689-20.4533,11.1195-.0634,22.9514,2.3162,30.9125,10.6639,5.1564,5.4068,7.663,12.8223,11.0808,19.335,2.9307,5.5845,6.0326,11.1504,9.7649,16.2477,2.0709,2.8283,4.8941,7.1331,8.5437,8.205,4.4525,1.3077,6.3542-5.6349,1.9131-6.9393h0Z"/><path d="M676.6801,176.9959c5.6724-2.2623,10.1151-7.0601,11.6268-13.0293,.3076-1.2146-.3944-2.659-1.6754-2.9508-1.2459-.2838-2.6212,.374-2.9508,1.6754-.1518,.5992-.3325,1.19-.551,1.7684-.0573,.1516-.1422,.314-.1858,.4697,.1596-.5704,.0398-.104-.0286,.0438-.1179,.2547-.2424,.5064-.3734,.7545-.2883,.5464-.6067,1.0768-.9533,1.5881-.0946,.1395-.1912,.2776-.29,.4142-.0723,.1001-.3599,.5799-.0305,.0531-.1588,.254-.3956,.4892-.5921,.7134-.4075,.4649-.84,.9075-1.2956,1.3253-.2277,.2088-.461,.4115-.6998,.6076-.1245,.1023-.45,.4728-.0439,.0419-.0922,.0979-.2308,.1717-.3393,.2494-.502,.3596-1.0239,.691-1.5633,.9914-.2697,.1502-.5437,.2928-.8217,.427-.1518,.0733-.3052,.1425-.4586,.2124-.4467,.2037,.4463-.1794-.0491,.0182-1.1614,.4632-2.105,1.6232-1.6754,2.9508,.3639,1.1246,1.7028,2.1731,2.9508,1.6754h0Z"/><path d="M388.5806,76.0779c3.4881,8.0372,6.9762,16.0744,10.4642,24.1116,.7738,1.783,3.3886,2.1883,4.923,1.2909,1.8413-1.077,2.0676-3.1331,1.2909-4.923-3.4881-8.0372-6.9762-16.0744-10.4642-24.1116-.7738-1.783-3.3886-2.1883-4.923-1.2909-1.8413,1.077-2.0676,3.1331-1.2909,4.923h0Z" style="fill:#6966ed;"/><path d="M452.276,67.9169c-1.7756,8.897-3.5513,17.794-5.3269,26.691-.38,1.9039,.5449,3.8854,2.5131,4.4262,1.7717,.4868,4.044-.5982,4.4262-2.5131,1.7756-8.897,3.5513-17.794,5.3269-26.691,.38-1.9039-.5449-3.8854-2.5131-4.4262-1.7717-.4868-4.044,.5982-4.4262,2.5131h0Z" style="fill:#6966ed;"/><path d="M314.4961,103.4596c5.3378,5.3378,10.6755,10.6755,16.0133,16.0133,1.3328,1.3328,3.774,1.432,5.0886,0,1.3186-1.4364,1.4222-3.6664,0-5.0886-5.3378-5.3378-10.6755-10.6755-16.0133-16.0133-1.3328-1.3328-3.774-1.432-5.0886,0-1.3186,1.4364-1.4222,3.6664,0,5.0886h0Z" style="fill:#6966ed;"/></svg>