<?xml version="1.0" encoding="UTF-8"?><svg id="Layer_2" xmlns="http://www.w3.org/2000/svg" width="1000" height="1000" viewBox="0 0 1000 1000"><path d="M597.5125,770.3677c46.035,13.7333,94.0339,17.176,141.7869,19.2939,15.303,.6787,31.297,1.4472,46.3198-2.2907,4.4952-1.1185,10.3718-2.7663,13.0432-6.9311,2.9463-4.5933-.144-10.2556-4.56-12.5635-8.5666-4.4772-21.1875-1.377-29.7209,1.5506-9.9574,3.4161-19.5586,8.1432-28.8965,12.9697-18.3171,9.4676-35.7275,20.5892-52.5714,32.4576-33.9915,23.9508-65.7338,50.9289-99.872,74.6789-64.5179,44.8853-141.8427,76.8797-220.8786,81.6017-38.4572,2.2976-77.7936-2.4411-113.3009-17.9733-17.8859-7.824-34.913-17.8984-47.9633-32.6402-12.8941-14.5654-21.4617-33.299-20.5151-53.0249,.9847-20.5204,11.2641-40.8766,24.6206-56.1772,11.1065-12.7232,25.0749-22.2515,40.0831-29.8045,30.3365-15.2671,63.8443-23.3201,93.2576-40.5839,14.1829-8.3244,27.2606-18.6854,37.1045-31.9621,9.0161-12.1603,14.5872-26.52,17.1404-41.3882,1.4193-8.2651,2.0494-16.65,2.1045-25.0317,.0451-6.8636-.9653-13.6875-.8145-20.5403,.0606-2.7545,.1095-6.5219,1.8814-8.8084,1.5424-1.9903,4.2749-2.6747,4.5456,.255,.2135,2.3103-.622,4.9095-1.6025,6.9575-2.3914,4.9951-5.8889,10.4857-10.0133,14.203-7.0652,6.3678-18.5019,5.4459-27.2213,7.9017-6.9328,1.9526-13.9463,3.6165-21.0092,5.0265-14.8832,2.9711-29.9779,4.7931-45.13,5.6142-31.8322,1.7248-64.0625-.8126-95.0015-8.6484-30.0282-7.6051-59.3917-20.3964-83.1748-40.5597-25.3026-21.4515-42.6329-50.6696-48.9502-83.2932-11.4698-59.2326,13.6215-120.2942,46.3708-168.63,4.0156-5.9268,8.2959-11.8854,12.6283-17.3202,.7771-.9749,1.6671-1.9051,2.386-2.923,1.5038-2.129,1.1205-4.8162,1.1248-7.342,.0112-6.5463-.4437-13.0897-1.1679-19.5933-1.3053-11.7225-3.4446-23.3242-5.4427-34.942-.783-4.5527-3.1387-10.7511,.8368-14.4286,4.1651-3.853,10.2259-2.1234,11.6475,3.2244,2.1302,8.013,3.2198,16.4581,4.811,24.5918,1.5499,7.9225,3.0998,15.845,4.6497,23.7674,.7057,3.6072,6.9902,2.8398,6.5023-.88-1.4853-11.3236-2.9706-22.6471-4.4559-33.9707-.5255-4.0062-1.2325-8.0342-1.582-12.0607-.479-5.5184,4.5017-12.844,10.5457-9.0223,2.8262,1.787,3.2064,4.5313,3.5255,7.4973,.6955,6.4625,1.3909,12.925,2.0864,19.3874,.4471,4.155,6.4784,4.3517,6.6206,0,.1777-5.4382,.3554-10.8764,.5331-16.3145,.0963-2.9487,.1384-5.911,2.7086-7.9555,4.9145-3.9094,11.2937-.0186,11.5346,5.7384,.4534,10.8372-.4635,21.9015-.6929,32.7442-.0967,4.5712-.1935,9.1423-.2902,13.7135-.0785,3.708,5.6042,4.5285,6.5023,.88,2.0593-8.3652,4.1185-16.7304,6.1778-25.0956,1.2588-5.1136,2.5176-10.2271,3.7764-15.3407,1.0766-4.3732,2.1729-9.5719,7.9889-9.4865,11.1259,.1635,5.2605,15.7376,3.9611,21.7169-2.4887,11.4524-4.9773,22.9047-7.466,34.3571-1.7137,7.886-3.4273,15.772-5.141,23.6581-.5072,2.3341,1.5398,4.896,4.072,4.072,3.7246-1.2119,7.4492-2.4239,11.1739-3.6358,3.9873-1.2974,8.4213-3.506,12.4518-1.1512,6.6992,3.914,4.3465,12.3777-1.8201,15.197-3.7022,1.6926-7.4656,3.2631-11.1956,4.8934-7.8932,3.45-15.1045,5.6778-20.4924,12.7628-7.9448,10.4473-13.4422,23.2233-19.4999,34.8335-14.9095,28.575-27.2255,65.0665-11.311,95.809,14.4319,27.8784,45.9969,39.5829,75.4039,43.2819,34.2897,4.3132,70.1451-.3706,103.3405-9.3776,17.3629-4.7111,34.1329-11.4175,49.4915-20.8419,12.0292-7.3814,23.96-16.5656,31.093-29.0058,7.3064-12.7425,7.2912-26.7932,2.3577-40.3667-5.2152-14.3489-11.3213-28.453-14.532-43.4404-3.2503-15.1725-2.956-31.5694,7.5158-43.9732,9.7423-11.5397,22.9152-20.0303,37.4822-23.9973,8.5872-2.3385,17.5235-3.1521,26.388-2.3698,1.5009,.1325,3.6284,.5466,5.9798,1.3097,16.744,5.434,29.8689,18.9771,36.879,34.8693,6.0007,13.6038,9.4093,29.9095,3.9514,44.1891-2.6841,7.0225-7.3592,13.3334-13.2854,17.9551-2.7901,2.176-5.9146,4.0219-9.1845,5.3811-2.4402,1.0143-5.473,1.2672-6.3253,4.1944-1.1735,4.0301,2.3301,9.4556,4.1341,12.7929,2.2495,4.1615,4.6545,7.8138,8.3431,10.8725,10.4145,8.6361,24.4675,11.3397,37.5222,13.0317,35.5253,4.6044,71.1528,6.3683,106.6558,.5762,25.2256-4.1154,50.299-10.6234,74.0423-20.1328,23.6935-9.4894,48.2561-22.3887,63.6363-43.4599,7.7115-10.5649,12.1606-23.6579,15.6615-36.1404,3.9783-14.1849,6.2593-28.9692,6.3133-43.7139,.0529-14.4475-2.0569-29.1223-7.2749-42.6428-5.3813-13.9437-13.7563-24.6837-24.1413-35.2028-10.2352-10.3673-16.8499-24.0121-21.5232-37.6585-1.8668-5.4511-3.4404-11.0041-4.7375-16.6178-1.2943-5.6019-2.3193-11.0163-4.8862-16.2395-6.9695-14.1811-14.4028-28.1516-21.5998-42.2188-1.34-2.6191-2.9995-5.1371-2.1664-8.249,1.8786-7.0169,10.2843-6.268,13.3985-.9066,3.956,6.8107,7.1986,14.1517,10.7689,21.1703,2.9959,5.8896,5.9918,11.7792,8.9877,17.6688,1.6778,3.2983,7.3365,1.0028,6.0504-2.5508-4.6443-12.832-9.2885-25.664-13.9328-38.496-1.0493-2.8993-2.2896-5.9497-.0436-8.7427,3.6249-4.5078,10.7094-2.7245,12.7423,2.1819,2.6053,6.2878,4.4523,13.006,6.6561,19.4436,2.2568,6.5926,4.5136,13.1852,6.7705,19.7778,1.3798,4.0307,7.2642,2.4256,6.3841-1.76-2.7824-13.2329-5.9937-26.4443-8.3595-39.7567-.8727-4.9107,2.0709-10.0407,7.717-9.2692,4.1677,.5695,5.6621,3.9963,6.4075,7.6017,1.558,7.5359,3.116,15.0717,4.674,22.6076,1.4019,6.781,2.8039,13.562,4.2058,20.343,.7431,3.5943,6.9378,2.8556,6.5023-.88-1.7649-15.1389-4.1873-30.3394-5.3089-45.5373-.7104-9.627,12.3277-11.4146,14.0971-1.8656,.3671,1.9812,.541,4.0186,.8098,6.0147,1.3581,10.0872,2.7162,20.1744,4.0742,30.2616,1.0658,7.9164,2.1316,15.8328,3.1975,23.7492,.4233,3.144,4.6129,2.7869,6.0504,.7908,2.1573-2.9957,4.1175-6.5359,6.7287-9.1506,6.8436-6.8524,17.0403,2.0223,12.3013,10.1303-4.1408,7.0845-9.1055,13.6864-13.3051,20.7367-3.0801,5.171,4.0948,11.8014,6.9892,15.7698,5.9996,8.2256,12.1722,16.3225,18.2187,24.5133,8.5229,11.5454,15.2279,24.8513,21.4008,37.7625,8.4886,17.7544,15.2109,36.4151,19.175,55.7143,6.8262,33.2332,2.2959,67.5338-10.4567,98.7984-12.8384,31.475-33.6283,59.6388-58.8658,82.2891-28.2008,25.3098-62.4558,42.7078-98.7509,53.1446-37.9992,10.9269-77.8398,14.6071-117.2722,13.0102-4.5366-.1837-9.0706-.4379-13.5992-.7633-2.1208-.1524-4.5802,.1067-3.632-2.8017,.6474-1.9855,2.3432-3.4823,4.1922-4.3588,8.5583-4.057,15.6859,5.0089,17.7854,12.2887,2.2143,7.6779,1.9725,16.146,2.0403,24.0868,.0539,6.3185-.0453,12.6381,.0687,18.9561,.1897,10.5148,.6521,21.8412,5.4725,31.4201,4.6214,9.1836,13.4632,13.848,23.4305,14.8794,7.6503,.7916,15.1839-.5972,22.7154-1.7619,10.94-1.6917,21.9469-2.9391,32.9849-3.7766,21.2841-1.615,42.6854-1.6829,63.979-.1969,39.0487,2.7251,80.29,9.6169,113.4148,31.827,27.3907,18.3653,47.0777,47.1075,48.7349,80.6024,2.7916,56.422-45.1558,98.2628-91.9722,120.3351-25.4274,11.9881-52.6586,19.1709-80.7221,20.8537-41.7119,2.5013-83.3563-4.5512-123.4287-15.7284-18.9932-5.2977-37.9027-11.1521-56.661-17.2284-18.4187-5.9663-36.6835-12.6201-53.859-21.6279-15.7332-8.2513-32.1407-13.3771-50.0042-10.1634-8.6813,1.5618-16.9874,4.897-24.8268,8.8719-8.5885,4.3548-16.4599,10.2757-25.3893,13.9361-7.428,3.0449-16.0099,4.0118-23.0665-.5477-8.5057-5.4958-6.6571-14.9004-1.5792-22.1909,5.9544-8.5489,14.0382-15.9307,21.0919-23.5664,7.3149-7.9185,14.6298-15.837,21.9446-23.7555,7.0791-7.6632,14.1127-15.3714,21.2496-22.9808,6.3506-6.7711,12.9471-13.495,20.6438-18.7509,16.5857-11.326,36.3327-12.7682,55.6682-9.3978,18.4599,3.2178,36.1456,9.7165,54.0265,15.1296,4.0868,1.2372,5.8335-5.1509,1.76-6.3841-36.4367-11.0306-79.5395-29.1404-114.7962-5.0644-17.089,11.6697-30.4605,28.94-44.3883,44.0172-8.0849,8.752-16.1697,17.504-24.2546,26.256-6.7482,7.3051-14.5054,14.3909-19.8067,22.875-4.3603,6.9782-6.1923,15.8975-1.4557,23.192,3.8655,5.9531,10.7515,9.2972,17.6341,10.1807,9.0537,1.1623,17.7652-2.3991,25.5535-6.6853,9.0728-4.9931,17.6432-10.7272,27.3229-14.5595,18.7307-7.4156,37.3038-5.839,55.1977,3.1388,18.4277,9.2456,37.0522,17.0635,56.6578,23.5099,73.9932,24.3291,156.0856,48.5885,233.5821,25.8365,27.8077-8.164,54.4358-21.326,77.3005-39.1827,21.9395-17.1342,40.8317-39.5972,49.0227-66.5945,9.0396-29.7945,3.4137-62.9002-14.6654-88.2024-22.6024-31.6327-58.687-48.9204-95.8185-57.1472-43.0125-9.5297-88.4727-10.665-132.168-5.9327-10.3553,1.1215-20.6287,3.2606-30.9867,4.209-6.4287,.5887-13.4604,.5539-19.3805-2.3642-9.6373-4.7506-12.1033-16.1236-12.989-25.9056-1.1792-13.0244-.2982-26.1482-.8201-39.2011-.3546-8.8691-.937-18.362-6.2183-25.8677-4.2731-6.0728-11.4115-10.4437-19.0228-8.8719-6.541,1.3508-12.9631,7.1749-12.0153,14.377,.4597,3.4932,2.709,5.6044,6.0974,6.2436,5.0545,.9535,10.549,.8245,15.6807,1.0592,20.8682,.9546,41.8176,.4202,62.5899-1.8309,41.2574-4.471,82.2609-15.5592,118.5259-36.0957,31.2882-17.7182,58.3291-42.4739,78.8744-71.9771,20.1708-28.9654,33.9158-62.8125,36.9137-98.1378,3.3055-38.9505-8.6188-77.184-26.1051-111.5946-6.1739-12.1494-12.858-24.0216-21.0137-34.9447-6.5989-8.8381-13.3237-17.601-19.6419-26.644-.8638-1.2364-1.6245-2.8754-2.6511-3.969-.8246-.8784,.0536-.704-.2622-.3704l-.3151,2.3746,.1056-.1646c.1933-.0821,.3993-.6724,.5315-.8284,2.9962-3.5364,5.2297-8.1508,7.7315-12.05,2.0961-3.2669,4.5491-6.4866,6.2998-9.9615,3.5113-6.9692,.8003-15.7502-6.0626-19.4832-6.295-3.4241-14.0642-1.5681-18.4788,3.9119-2.364,2.9345-4.4466,6.126-6.6483,9.1834,2.0168,.2636,4.0336,.5272,6.0504,.7908-2.5018-18.5819-5.0035-37.1638-7.5053-55.7457-.4326-3.2134-.6524-6.3576-2.3989-9.2168-4.1101-6.7285-13.3987-8.4743-19.731-3.8721-8.598,6.2489-4.8403,18.5063-3.8105,27.3391,1.1904,10.211,2.3808,20.4219,3.5713,30.6329l6.5023-.88c-3.0535-14.7693-5.7856-29.6435-9.1671-44.3404-2.9985-13.032-21.7922-15.275-26.3861-1.9926-2.3341,6.7486,1.4242,16.3861,2.8188,23.0189,1.7738,8.4359,3.5476,16.8718,5.3214,25.3078l6.3841-1.76c-2.3026-6.7262-4.6051-13.4524-6.9077-20.1786-2.2877-6.6827-4.2029-13.6627-6.967-20.1678-5.6413-13.2766-27.7567-9.6476-26.5754,5.5412,.2078,2.6712,1.4144,5.2713,2.3166,7.7641,1.5837,4.3756,3.1673,8.7513,4.751,13.1269,2.8073,7.7565,5.6146,15.5131,8.422,23.2696,2.0168-.8503,4.0336-1.7005,6.0504-2.5508-6.5963-12.9675-12.6784-26.3626-19.8483-39.0192-6.6079-11.6645-25.2776-8.435-25.8687,5.6496-.2667,6.3549,4.8493,13.4073,7.6192,18.8213,4.5004,8.7965,9.0009,17.5931,13.5013,26.3896,1.2203,2.3851,2.4616,4.7608,3.6613,7.1564,2.259,4.511,3.0639,9.2877,4.1636,14.1435,2.8177,12.4414,6.9444,24.6996,12.766,36.0673,3.3417,6.5252,7.3308,12.7324,12.102,18.3089,4.9148,5.7442,10.7427,10.478,15.2214,16.6334,17.7915,24.4527,20.339,56.6489,15.1926,85.6493-2.5047,14.1143-6.6017,28.4326-12.9134,41.344-5.3573,10.959-14.0561,19.9533-23.6951,27.2724-22.0281,16.7266-49.0136,26.6678-75.4356,33.9883-30.7979,8.5328-62.5838,13.3981-94.5984,12.5038-16.1154-.4502-32.4-2.2165-48.4143-4.1324-12.9908-1.5542-28.7373-4.0304-38.0877-14.1383-2.9554-3.1948-5.1789-7.7397-6.8113-11.7303-.3537-.8647-.5852-1.7612-.89-2.6391-.1663-.4789-.2404,.4381-.4232,.5437-1.7725,1.0237,1.9986-.2128,1.9931-.2106,3.238-1.2906,6.3393-2.9003,9.2036-4.8909,11.9409-8.2982,19.5204-21.6397,20.7883-36.0963,1.2303-14.0275-3.5746-29.5871-10.257-41.8129-5.0079-9.1622-11.9628-17.1202-20.3964-23.2702-7.2275-5.2704-15.8727-9.6241-24.8787-10.5824-22.7066-2.4162-46.0561,6.1155-62.6552,21.5522-11.7112,10.8911-18.1312,24.1087-17.7999,40.2505,.3174,15.4644,5.4564,30.4628,10.8169,44.8018,5.1322,13.7283,12.2319,27.6783,7.722,42.5923-4.2376,14.0135-16.2989,24.3539-28.099,32.1399-30.3475,20.0241-67.5398,28.782-103.3575,32.2672-32.623,3.1743-70.5201,2.1847-98.6595-16.7668-12.0084-8.0875-21.3976-19.8426-25.4569-33.8374-4.9031-16.9043-1.8396-35.1717,3.6074-51.556,5.1875-15.6037,13.3703-29.7144,20.7925-44.2941,4.5191-8.877,9.0249-19.6124,18.6093-23.8016,7.2573-3.1721,14.7627-6.0295,21.8555-9.5527,13.3919-6.652,9.7508-27.5561-5.5221-28.3528-3.9894-.2081-7.9037,1.5265-11.6275,2.7382-3.4644,1.1273-6.9289,2.2545-10.3933,3.3818l4.072,4.072c4.3869-20.1877,8.7738-40.3753,13.1606-60.563,2.0294-9.3388,6.0045-21.4851-5.6891-26.4371-7.8787-3.3365-16.2818,1.3613-18.6158,9.3065-1.0334,3.5177-1.7622,7.1587-2.6384,10.718-2.7609,11.2154-5.5218,22.4309-8.2827,33.6463l6.5023,.88c.2765-13.0653,.553-26.1307,.8294-39.196,.1278-6.0381,.8957-12.2115-3.7129-17.0031-7.9875-8.3046-22.2235-3.102-23.446,8.1712-.718,6.6216-.4873,13.4459-.7048,20.1019h6.6206c-.7155-6.6487-1.431-13.2974-2.1465-19.9461-.3789-3.5205-.9481-6.8302-3.3074-9.6713-3.4277-4.1277-9.5976-6.3455-14.6647-4.0741-8.0241,3.597-9.8424,11.5434-8.8124,19.3961,1.0335,7.8793,2.067,15.7586,3.1005,23.6378,.8231,6.2755,1.6463,12.5509,2.4694,18.8264l6.5023-.88c-2.6511-13.5514-5.3022-27.1028-7.9533-40.6542-1.1989-6.1284-1.6957-12.9656-7.8713-16.3267-5.1434-2.7994-12.1784-1.5741-16.3492,2.4758-5.1772,5.0271-4.1812,11.179-3.0932,17.6259,3.4091,20.2003,7.4753,40.3561,6.8347,60.9477,.3232-.7802,.6464-1.5605,.9696-2.3407-7.5291,8.8112-14.1806,18.495-20.4499,28.2207-13.9398,21.6252-25.657,44.8481-33.909,69.2428-9.9804,29.5044-14.5558,61.0989-9.807,92.0631,4.6901,30.5816,18.9093,59.3392,40.4282,81.5655,41.0166,42.3648,102.5859,59.1716,159.9212,61.8033,28.7557,1.3199,57.8221-.8999,85.9651-7.0172,6.8883-1.4973,13.6157-3.6502,20.4873-5.1679,8.4278-1.8614,17.3124-1.6189,24.3936-7.2818,5.9434-4.753,11.4443-12.8352,13.8217-20.0983,1.4763-4.5103,2.1943-11.2547-2.3781-14.285-4.523-2.9976-11.0045-.227-13.5713,4.0464-3.225,5.3692-2.8103,12.6048-2.4038,18.5985,.9868,14.5516,.7631,29.1543-2.5324,43.4394-3.2331,14.0147-9.4812,27.1295-18.8948,38.0561-10.6445,12.3553-24.2774,21.6459-38.6141,29.2137-28.1818,14.8762-59.41,22.7599-87.695,37.3974-29.9862,15.5179-54.7224,40.9334-63.4215,74.3125-9.5509,36.6479,10.4601,71.3214,40.1975,91.9551,29.1782,20.2457,65.42,30.5393,100.439,33.9409,73.0245,7.0932,147.7263-14.5989,212.3476-47.4562,34.3538-17.4675,65.5657-39.6971,96.0698-63.1088,30.8457-23.6738,61.2785-48.1416,94.8043-67.9997,8.577-5.0803,17.3445-9.8447,26.3167-14.1913,9.1077-4.4122,18.5463-8.9716,28.546-10.9138,2.3441-.4553,21.1006-1.9433,17.7877,3.8244-1.8426,3.2079-9.9602,4.102-13.1365,4.6915-15.8693,2.9452-32.5487,1.6271-48.545,.75-22.3279-1.2242-44.6657-2.3958-66.8625-5.2115-21.9794-2.7881-43.7628-7.099-65.0022-13.4352-4.0915-1.2206-5.8396,5.1671-1.76,6.3841Z"/><path d="M503.9204,378.5424c.1731,1.6834,.5895,3.2832,1.8719,4.4799,1.2035,1.123,2.8118,1.6156,4.4175,1.7697,3.2595,.3127,6.3667-.9606,9.5222-1.5241,.8731-.1559,2.3718-.4235,3.1545,.107,.8679,.5883-.3184,1.7946-.8482,2.4677-1.6027,2.0363-3.7771,3.7255-6.1845,4.6991-1.1042,.4466-1.8833,1.4704-1.5414,2.7147,.2879,1.0475,1.6032,1.9909,2.7147,1.5414,3.0305-1.2256,5.782-3.0414,7.9012-5.5584,1.1065-1.3142,2.3217-2.8358,2.6394-4.5661,.3709-2.0201-.6482-3.9407-2.3522-5.0172-3.0782-1.9447-7.161-.5575-10.3803,.2224-1.9258,.4665-6.2011,1.582-6.5011-1.336-.1219-1.1855-.927-2.2069-2.2069-2.2069-1.0987,0-2.3295,1.0139-2.2069,2.2069h0Z"/><path d="M161.8945,268.0983c.8171,10.5657,1.6343,21.1314,2.4514,31.6971,.1158,1.4969,.2315,2.9938,.3473,4.4906,.1379,1.7826,1.4227,3.3103,3.3103,3.3103,1.6844,0,3.4489-1.518,3.3103-3.3103-.8171-10.5657-1.6343-21.1314-2.4514-31.6971-.1158-1.4969-.2315-2.9938-.3473-4.4906-.1379-1.7826-1.4227-3.3103-3.3103-3.3103-1.6844,0-3.4489,1.518-3.3103,3.3103h0Z"/><path d="M827.1665,169.3459c-16.2387,.0793-32.3924,5.084-45.7602,14.3203-1.469,1.015-2.1386,2.9032-1.1876,4.5291,.851,1.4549,3.0511,2.2088,4.5291,1.1876,12.4796-8.6226,27.3126-13.3425,42.4187-13.4164,4.259-.0208,4.2679-6.6414,0-6.6206h0Z"/><g><path d="M502.8094,437.4197c-8.3509,3.2554-21.5531,5.6204-30.2995,3.6618,7.0684,10.3625,26.9468,18.6838,36.0199,17.3612,0,0-4.9537-13.0672-5.0381-15.1-.0843-2.0327-.6823-5.9231-.6823-5.9231Z"/><path d="M501.9294,434.2277c-4.6892,1.8091-9.6316,3.0186-14.6037,3.7299-2.0673,.2957-4.8196,.5078-7.1846,.5241-1.2391,.0085-2.4787-.0299-3.7137-.1324-.2967-.0246-.5925-.0572-.8888-.0848l-.3501-.0402c.2461,.0356,.2525,.0362,.0192,.0016-.6101-.0913-1.2148-.2058-1.8177-.3363-2.5909-.5612-5.4944,2.3261-3.7383,4.8628,3.5038,5.0615,8.5442,8.8938,13.8572,11.9037,5.2628,2.9814,11.0781,5.4075,17.0321,6.5714,2.9717,.5809,5.8685,.8176,8.8689,.4074,1.667-.2279,2.8839-2.5626,2.312-4.072-1.2298-3.2458-2.4218-6.5089-3.5319-9.7976-.3261-.9662-.6458-1.9351-.9381-2.9122-.1811-.6054-.2317-1.5929-.5409-2.1313,.0884,.154,.1081,1.1636,.0779,.3577-.011-.294-.0406-.5882-.0667-.8812-.0675-.7576-.1569-1.5132-.2528-2.2677-.1438-1.1316-.2955-2.2631-.4679-3.3908-.2704-1.7688-2.493-2.746-4.072-2.312-1.8901,.5194-2.5833,2.298-2.312,4.072,.0433,.2832,.0845,.5667,.125,.8502,.0362,.2533,.0718,.5066,.106,.7602-.1066-.7897,.0642,.5321,.0801,.6653,.1549,1.2979,.1848,2.6169,.3984,3.9063,.2843,1.7167,.9246,3.4011,1.4789,5.0435,1.1101,3.2887,2.3021,6.5518,3.5319,9.7976,.7707-1.3573,1.5414-2.7147,2.312-4.072,.9924-.1357-.2658-.0013-.6152,.0108-.5091,.0176-1.0189,.01-1.5276-.0143-.5064-.0242-1.0102-.0707-1.5143-.1227-.8029-.0827,.2998,.0656-.3137-.0401-.3197-.0551-.6404-.1036-.9596-.1621-2.5233-.4622-4.9977-1.1856-7.4084-2.0573-1.4075-.5089-2.3873-.91-3.4059-1.3676-1.3569-.6096-2.6921-1.2684-4.001-1.9752-1.2563-.6784-2.4886-1.4015-3.6903-2.1724-.5684-.3647-1.1298-.74-1.6833-1.127-.2736-.1912-.5452-.3852-.8147-.5822-.121-.0885-.8756-.6581-.5142-.3775-1.2105-.9397-2.3668-1.9565-3.445-3.0455-.493-.498-.9694-1.0124-1.4239-1.5459-.2201-.2583-.438-.5196-.6452-.7885,.3978,.5163-.2245-.3357-.3193-.4726-1.2461,1.6209-2.4922,3.2419-3.7383,4.8628,5.4909,1.1893,11.131,.9336,16.6601,.1783,5.2466-.7167,10.4532-1.9319,15.3994-3.8401,1.667-.6431,2.8195-2.2255,2.312-4.072-.4379-1.5934-2.395-2.959-4.072-2.312Z"/></g><g><path d="M382.5723,482.2469c4.2967,10.0566,8.369,20.1814,10.4046,30.4598,2.7819,14.0463,1.0004,29.5976,8.6647,41.6929,8.7735,13.8457,28.5452,18.247,43.6299,11.8337,15.0846-6.4133,25.2273-21.6909,28.3475-37.7826s-.0103-32.8523-5.7082-48.2215c-7.8657-21.2162-20.5128-38.7353-35.9272-55.0406-9.8746-10.4453-28.8582-30.0906-10.669-42.9902,12.7266-9.0234,24.3879,20.1892,24.3879,20.1892l7.4644,11.2785s4.9053-3.2017-.4373-11.5446-7.4568-24.3479,1.5782-24.6901c13.8375,7.0158,28.9224-6.122,28.5612-15.6589,16.1761,2.4033,20.6442-12.3431,13.2939-20.6099,45.7715,.7797,49.232-40.5694,36.3717-35.0558s-34.1241-11.7766-65.9743-16.6022c-18.8696-2.8589-38.4998,4.7091-53.2115,16.2295-6.8309,5.3491-42.7151,45.0645-26.8419,52.3631,1.5284,.7028,3.7547-.0744,3.9744-1.7422,.1094-.8308-.2852-1.6566-.8239-2.2985-3.53-4.2069-10.4746-.8609-14.0003,3.3496-5.9554,7.1122-9.251,16.1089-11.1582,25.1871-5.2377,24.9321-.3195,49.8718,7.5873,73.6388,2.8802,8.6575,6.7673,17.3108,10.4862,26.015Z"/><path d="M379.714,483.9176c3.4938,8.1857,6.8499,16.4859,9.0427,25.1293,1.9343,7.6243,2.3567,15.3862,3.1796,23.1762,.8349,7.9033,2.1886,15.9135,6.256,22.8745,3.3391,5.7147,8.4638,10.3135,14.41,13.1928,12.3645,5.9872,27.2323,5.3841,39.0657-1.5852,12.3672-7.2836,20.8363-20.2333,24.3745-33.9704,4.3365-16.8365,1.5826-34.797-4.071-50.9733-5.245-15.0072-13.0886-28.9121-22.7592-41.5027-4.808-6.2598-9.9708-12.2109-15.393-17.9449-4.0206-4.2518-8.0429-8.5713-11.2041-13.1704-.8576-1.2476-1.6701-2.5272-2.4118-3.8473-.3472-.618-.6793-1.2446-.9921-1.8807-.154-.3131-.3012-.6292-.4477-.9458-.1994-.4312-.0436-.0533-.2705-.6326-.5235-1.337-.9549-2.7102-1.231-4.1205-.0291-.1485-.1577-.9274-.1223-.6656,.0357,.264-.0465-.5133-.057-.6619-.0477-.676-.0556-1.355-.0155-2.0317,.0115-.1936,.0832-.9256,.0081-.358,.0408-.3087,.1008-.6167,.1665-.921,.1556-.7205,.3655-1.4352,.6411-2.1192-.1863,.4624,.1341-.2679,.2001-.3986,.1511-.2988,.3131-.5926,.4844-.8802,.4183-.7024,.6594-1.0489,1.0256-1.4809,.9929-1.1711,2.1321-2.2642,3.3919-3.1431,.4589-.3202,.9359-.5956,1.4294-.8578,.5781-.3072-.0689,.002,.0829-.0431,.2549-.0757,.502-.1728,.7601-.2405,.206-.0541,.4509-.0652,.6477-.1412-.4315,.1668-.5106,.0305-.0224,.0183,.2131-.0054,.425-.0164,.6383-.0115,.1479,.0034,.95,.0754,.4036,.009-.546-.0663,.1597,.0349,.2913,.0681,.2077,.0523,.4153,.1005,.6209,.1617,.2077,.0618,.409,.1407,.6151,.2064,.7278,.232-.4457-.2627,.2208,.1039,.3996,.2198,.8026,.4243,1.1895,.6676,.1978,.1244,.3922,.2538,.584,.3872,.2477,.1723,.7009,.538,.1917,.1235,.8079,.6578,1.5732,1.3569,2.294,2.1096,.3882,.4055,.7641,.8227,1.1295,1.2489,.1707,.1992,.339,.4006,.5053,.6036,.0972,.1187,.6168,.7742,.3978,.492-.2353-.3032,.2284,.3063,.3007,.4042,.1576,.2132,.3131,.4278,.4669,.6437,.3319,.466,.6554,.938,.9712,1.415,1.1644,1.7586,2.2274,3.5838,3.2146,5.4472,.7489,1.4135,1.4548,2.8502,2.114,4.3078,.1952,.4316,.3731,.872,.5721,1.3017-.1794-.3873-.3399-.8039-.0945-.2157,.5254,1.2594,1.3629,2.3464,2.1149,3.4826,1.2345,1.8653,2.4691,3.7307,3.7036,5.596,.6601,.9973,1.3201,1.9947,1.9802,2.992,.9415,1.4225,2.9731,2.2268,4.5291,1.1876,5.3776-3.5916,3.8889-10.9072,1.0367-15.6155-.4375-.7222-.8892-1.4291-1.2848-2.1762-.1732-.3271-.3397-.6576-.4996-.9914-.0712-.1485-.5293-1.1668-.3278-.6926-.6518-1.5338-1.1619-3.1383-1.5633-4.7548-.1871-.7534-.3483-1.5134-.4804-2.2784-.0279-.1618-.0521-.3242-.0795-.4861-.0931-.5507,.0509,.4624-.016-.0864-.0515-.4226-.0934-.8463-.1241-1.271-.0517-.7156-.0743-1.4333-.0574-2.1507,.0081-.3431,.024-.6861,.0511-1.0282,.0151-.1905,.0353-.3799,.0547-.5699-.0473,.4626-.0441,.2542,.0235-.0823,.1383-.6891,.3194-1.3429,.5494-2.0065,.1529-.4411-.2725,.5138-.0425,.1191,.0992-.1702,.1784-.3522,.2789-.5224,.1787-.3028,.6441-.7436,.1455-.2608,.2131-.2064,.4185-.4213,.6335-.6266-.51,.4872-.0146,.0973,.2556-.1036,.4134-.3072-.0126,.0101-.1618,.0542,.1883-.0556,.3836-.1107,.5683-.1751,.1158-.0404,.241-.0491,.3589-.081-.7558,.2045-.0951,.0172,.1512,.0035-.5569-.1507-1.1138-.3013-1.6708-.452,7.4502,3.6752,16.0304,2.9396,22.9462-1.6227,5.5467-3.6592,10.7571-9.8891,10.596-16.8945-1.3968,1.064-2.7935,2.128-4.1903,3.192,5.931,.8336,12.3415,.13,16.7248-4.3872,3.618-3.7285,4.8452-9.0526,3.794-14.0688-.6041-2.8826-2.0841-5.4833-4.0042-7.6866-.7802,1.8837-1.5605,3.7673-2.3407,5.651,13.4012,.1921,27.6194-3.1883,37.2549-13.0702,5.5426-5.6844,10.3483-14.4592,8.5467-22.6625-.7322-3.334-3.1442-6.0826-6.6521-6.4101-1.6161-.1509-2.9699,.3758-4.4516,.8927-.5391,.188-1.0913,.3382-1.6504,.4538-.2463,.0509-.5063,.0708-.7487,.133-.431,.1106,.6733-.0334,.2255-.0341-.183-.0003-.371,.0365-.5544,.0497-1.2592,.0908-2.4939-.002-3.7481-.1015-.1713-.0136-.6457-.0887,.1386,.0245-.1671-.0241-.3346-.0467-.5011-.0746-.34-.057-.6799-.1131-1.0187-.1774-.7054-.1338-1.4064-.2899-2.1036-.4611-1.5087-.3707-2.9987-.8161-4.4753-1.298-3.3936-1.1077-6.7231-2.4048-10.0474-3.7024-8.1268-3.1719-16.2585-6.3348-24.679-8.6554-9.6878-2.6699-19.7342-4.541-29.801-3.4263-10.1216,1.1207-19.8504,4.4418-28.7581,9.347-5.5588,3.0611-10.9394,6.6599-15.458,11.1418-3.5981,3.5689-6.9684,7.3776-10.1954,11.2828-4.0088,4.8512-7.8414,9.8895-11.1798,15.2294-2.8081,4.4917-5.5865,9.4506-6.6711,14.6885-.9793,4.7293-.2865,9.5799,3.8747,12.5448,3.4247,2.4401,9.1096,1.7086,10.1638-2.9523,.6562-2.9015-1.2622-5.6935-3.6389-7.1686-2.0112-1.2482-4.4126-1.4285-6.6947-1.0529-4.3945,.7231-8.2292,3.7325-10.9113,7.1512-3.2829,4.1843-5.75,8.8019-7.6825,13.7486-3.9579,10.1315-5.5194,21.3227-5.7097,32.1497-.199,11.3208,1.3182,22.656,3.8119,33.6827,2.4942,11.0288,5.8972,21.8823,10.1534,32.3565,2.1561,5.3059,4.4607,10.5499,6.7126,15.8155,.7031,1.6441,3.1233,2.0098,4.5291,1.1876,1.7005-.9946,1.8935-2.8785,1.1876-4.5291-4.1965-9.8127-8.4203-19.5607-11.618-29.7572-3.1095-9.915-5.6756-20.0588-7.0612-30.3687-1.3593-10.1147-1.6163-20.5355-.1751-30.6569,1.3387-9.4022,3.8441-18.9467,9.1339-26.9466,1.1225-1.6976,2.3409-3.3594,3.864-4.7223,1.048-.9378,2.7407-1.9863,3.9614-2.3562,1.1254-.341,.9758-.2936,2.0414-.3363,.3383-.0136,.9072,.1136,1.254,.4431,.0548,.0521,.1305,.1075,.2237,.1875,1.9662,1.6879,.2215,.3077,.1893,.3498l-.0094-.3177c-.069-.3892,.0667-.7245,.4072-1.0059,.1289-.3584,.1705,.1378,.0861-.0434l-.1315,.0794c.2639-.1059,.2826-.1259,.0563-.0601-.0315-.0249-.2332-.0377,.0891-.0191,.5984,.0345-.2565-.1814,.1066,.0454,.3858,.241-.2023-.1147-.2962-.1714-.1653-.0998-.3301-.2173-.4997-.3089-.5987-.3233,.3986,.4262,.0898,.0821-.15-.1671-.3472-.3226-.5099-.4786-.1282-.123-.2262-.2747-.3504-.4003,.3081,.3117,.3674,.568,.1268,.1193-.081-.1511-.1703-.3079-.26-.4545-.4016-.6565,.153,.6262,.003,.0306-.0879-.3489-.2032-.6929-.2903-1.0434-.1746-.7028-.127,.0052,.006,.1667-.0866-.1051-.0504-.618-.0552-.7454-.0154-.4063-.0058-.8131,.0213-1.2187,.0142-.2119,.0457-.4231,.0577-.6349,.0288-.5078-.1484,.7668,.0173-.0551,.2036-1.0099,.4387-2.0015,.7551-2.9832,.1713-.5315,.359-1.0577,.5585-1.5792,.0966-.2525,.2003-.5021,.2982-.754,.03-.0772,.1889-.4521,.015-.0405-.1997,.4726,.0744-.1677,.1174-.2633,1.0657-2.3713,2.3009-4.6572,3.644-6.8823,1.4691-2.4339,3.0568-4.7956,4.7133-7.1056,.8178-1.1403,1.6533-2.2679,2.5038-3.384,.1136-.1491,.6462-.841,.2755-.3623,.2351-.3036,.4716-.6063,.7089-.9082,.4413-.5613,.8862-1.1198,1.3345-1.6756,3.1386-3.8909,6.4294-7.6687,9.9023-11.2655,3.1387-3.2507,6.4088-5.9422,10.2128-8.4306,7.5859-4.9625,15.9319-8.7178,24.7921-10.7065,8.9871-2.0172,17.8436-1.5992,26.8019,.3132,8.4318,1.8,16.6166,4.5275,24.665,7.5908,6.455,2.4568,12.8293,5.2417,19.46,7.204,4.9601,1.4678,10.5831,2.586,15.6507,.9621,.7274-.2331,1.4189-.5476,2.151-.7666,.1182-.0354,.254-.0339,.3679-.0776,.4178-.1604-.9548,.005-.4239,.0608,.1987,.0209,.5206,.0328,.7177,.0044,.3586-.0516-1.0354-.1168-.432-.0476,.0599,.0069,.2588,.1024,.2987,.0808,.0215-.0116,.0995,.0412,.1244,.0419,.2898,.0077-.5217-.1664-.5491-.2359,.0144,.0365,.2553,.1393,.3078,.1579,.0298,.0106,.2768,.197,.291,.1884-.1162,.0699-.7463-.7214-.363-.27,.05,.0588,.413,.4927,.463,.4919-.1489,.0026-.5341-.8432-.27-.3287,.0507,.0987,.1214,.191,.177,.2878,.0653,.1137,.115,.2424,.185,.3526,.3297,.5191-.2196-.734-.1287-.3161,.1184,.5447,.3145,1.0832,.4354,1.6329,.1361,.6189-.0386-.4586-.0418-.334-.0037,.1444,.0348,.2956,.042,.4408,.0176,.3531,.038,.7043,.0366,1.0581-.0013,.3265-.0143,.6529-.0368,.9786-.0116,.169-.0301,.3374-.0431,.5063-.0667,.865,.0895-.4344,.0173-.0639-.3151,1.6167-.6754,3.1757-1.2714,4.7181-.0758,.1962-.1639,.3894-.2352,.5873,.3571-.9905,.068-.1706-.0349,.0546-.1971,.4315-.4059,.8577-.6252,1.2784-.4603,.883-.9677,1.7411-1.5163,2.5721-.2679,.4057-.5485,.8019-.8322,1.1966-.2414,.3358-.437,.5693-.06,.0948-.2023,.2547-.4041,.5094-.612,.7596-.7193,.8655-1.4845,1.6925-2.2895,2.479-.8262,.8072-1.7055,1.542-2.5888,2.2843-.4535,.3811,.0043-.0003,.087-.0628-.1324,.1001-.2639,.2014-.3978,.2993-.2371,.1734-.474,.3468-.7141,.5159-.5259,.3706-1.0616,.7274-1.6062,1.0699-1.142,.7183-2.3225,1.3753-3.5326,1.9717-.5927,.2921-1.1937,.5649-1.7976,.8327-.5806,.2574-.1286,.0526-.0092,.0044-.181,.0732-.3616,.1471-.5432,.2188-.3682,.1455-.7385,.2859-1.1105,.4214-3.0346,1.1056-6.1848,1.8812-9.3736,2.3839-.9689,.1527-.9181,.1449-1.9399,.2557-.8587,.0931-1.7195,.1679-2.5813,.2256-1.9629,.1315-3.9295,.1689-5.8963,.1407-3.0301-.0434-4.1529,3.5715-2.3407,5.651,.123,.1383,.2432,.2791,.3606,.4222-.2313-.3108-.236-.3166-.0143-.0176,.1521,.2251,.3119,.4441,.4583,.6733,.3384,.5298,.6073,1.0824,.8942,1.6397,.3722,.7231-.1493-.5977,.0672,.1807,.0926,.333,.2269,.656,.3209,.9898,.1401,.4973,.2346,1.0007,.3315,1.5073-.1726-.9026,.0088,.1903,.0206,.3853,.0152,.2524,.0231,.5056,.0234,.7585,.0003,.2938-.01,.5873-.0302,.8805-.0145,.2108-.1821,1.1228-.009,.2398-.1125,.5735-.224,1.1378-.3997,1.6971-.0747,.2376-.1657,.469-.2461,.7046,.273-.7992-.0298,.0533-.1202,.2333-.2458,.4892-.5552,.9287-.8323,1.3971-.3185,.5383,.382-.3756-.1829,.2286-.2047,.2189-.3994,.4449-.6135,.6554-.1854,.1822-.3912,.3445-.5749,.5276-.285,.2332-.2683,.2253,.0502-.0236-.1436,.1066-.2896,.2097-.438,.3095-.5113,.3198-1.0224,.6161-1.5616,.8872-.2146,.0986-.1696,.0842,.135-.0433-.1809,.074-.3634,.1439-.5474,.2098-.2828,.1015-.5697,.1935-.8584,.2765-.4003,.115-.8057,.2123-1.2142,.2936-.1235,.0246-1.0328,.1635-.4136,.0847-1.5092,.1922-3.4173,.1569-4.6787-.0204-2.0417-.287-4.2449,.8164-4.1903,3.192,.0061,.2657,.0015,.5295-.0049,.7951-.0071,.2914-.0917,.7881,.0061,.2005-.1009,.6065-.2421,1.2026-.4286,1.7885-.0894,.2808-.1913,.5562-.295,.832-.1332,.3542,.0204-.0451,.0437-.0973-.0623,.1394-.126,.2788-.1943,.4153-.3053,.6105-.63,1.2073-.9961,1.7839-1.2586,1.9819-3.4247,4.1251-5.4478,5.4598-5.0622,3.3396-10.6843,4.1618-16.2631,1.6227-2.6799-1.2197-6.3099,.3068-8.1579,2.4159-1.8745,2.1393-2.6237,4.8008-2.9087,7.5759-.5834,5.6814,1.1065,11.7451,3.6011,16.8056,.7806,1.5836,1.8431,3.011,2.5908,4.6085,.3221,.6883,.5054,1.4283,.722,2.1811,.0074,.0258,.1083,.5686,.0512,.2006-.0528-.3405,.0196,.2514,.0221,.317,.0121,.3206-.0111,.6393-.005,.9587,.0018,.0961-.0793,.5091,.0007,.0529,.0906-.5171-.0424,.1389-.0759,.244-.0457,.1436-.3186,.8924-.1025,.3857,.2694-.6319-.702,1.121-.2508,.4438,.3339-.5012-.2033,.1508-.3332,.3162-.3752,.4774,.6478-.4608,.3638-.2712,1.5097,.3959,3.0194,.7917,4.5291,1.1876-1.9165-2.8957-3.8329-5.7914-5.7494-8.6871-.4354-.6578-.8707-1.3156-1.3061-1.9734-.4403-.6653-.4113-.8208-.0857,.1469-.3098-.9208-.763-1.8226-1.1649-2.7087-1.5383-3.3917-3.307-6.6972-5.3716-9.7987-2.5381-3.8129-5.5961-7.6778-9.6355-9.9899-4.3299-2.4784-9.3661-2.3613-13.4294,.6165-5.4023,3.959-9.2547,9.7094-8.8312,16.6315,.3779,6.1774,3.3609,11.8851,6.868,16.8568,3.516,4.9843,7.6355,9.4829,11.8186,13.9065,10.557,11.1641,20.1588,23.2004,27.5765,36.7006,7.8388,14.2665,13.6759,30.3863,14.6772,46.7325,.9025,14.7331-2.5776,29.9135-12.1976,41.2571-4.2256,4.9827-9.6212,9.2763-15.4967,11.6416-1.5101,.6079-3.0688,1.1019-4.6484,1.4935-1.3902,.3447-3.0948,.6542-4.1268,.7659-1.5637,.1692-3.1378,.243-4.7105,.2218-1.4284-.0192-3.3839-.1607-4.3776-.3071-6.0147-.8861-11.7696-3.1695-16.1584-6.9115-2.5168-2.1458-4.2914-4.2645-5.881-7.0297-1.8423-3.2049-3.0051-6.7013-3.8184-10.2963-1.7001-7.5144-1.8241-15.2654-2.7885-22.8855-1.0957-8.6575-3.4764-16.9567-6.5663-25.1046-1.6216-4.276-3.3956-8.4922-5.1906-12.6977-.702-1.6446-3.1241-2.0094-4.5291-1.1876-1.7013,.9951-1.8923,2.878-1.1876,4.5291Z"/></g><path d="M500.357,408.6573c3.6804,.2164,7.5607,.257,10.8369-1.6902,.9924-.5898,1.4408-2.0125,.7917-3.0194-.6438-.9986-1.9574-1.4229-3.0194-.7917-.1836,.1091-.3688,.2145-.5592,.3115-.0944,.0481-.1897,.0945-.2858,.1391-.2225,.0994-.1921,.0883,.0913-.0335-.2747,.1814-.7331,.2672-1.0473,.3554-.408,.1146-.8226,.2049-1.2403,.2759-.1518,.0258-.6058,.1738-.0472,.0139-.1959,.0561-.4382,.0494-.641,.0666-1.6237,.1376-3.2563,.0541-4.8798-.0413-1.1545-.0679-2.2581,1.0635-2.2069,2.2069,.0562,1.2537,.9701,2.1341,2.2069,2.2069h0Z"/><path d="M505.707,364.4834c.2481-.2436,.5039-.4786,.7712-.7011,.0663-.0552,.1389-.1059,.202-.1645-.4227,.3927-.209,.1595-.0846,.0678,.1398-.1031,.2819-.2032,.4259-.3002,.5964-.4018,1.2259-.7405,1.8782-1.0417,.271-.1252-.0865,.0416-.1677,.0685,.0819-.0271,.1616-.0653,.2422-.0964,.1621-.0626,.3256-.1218,.4902-.1775,.3291-.1115,.663-.2093,1.0003-.2928,.3594-.089,.7219-.1499,1.0856-.2172,.284-.0525-.4869,.0538-.1994,.0258,.0864-.0084,.1726-.0198,.2591-.0283,.1947-.0191,.3896-.0326,.5849-.0431,1.1508-.0622,2.2622-.9705,2.2069-2.2069-.0512-1.1423-.9723-2.2736-2.2069-2.2069-3.6013,.1948-7.029,1.6608-9.6086,4.1936-.8251,.8101-.8728,2.3197,0,3.121,.8876,.8148,2.2406,.8644,3.121,0h0Z"/><path d="M481.6783,379.86c.5285-.5795,1.0964-1.1202,1.7065-1.6134,.0546-.0442,.3093-.2429,.0404-.0354-.2976,.2297,.0622-.0437,.0984-.0702,.1445-.1058,.291-.2091,.4391-.3098,.3333-.2266,.6756-.4402,1.0256-.6401,.3306-.1888,.6681-.3653,1.0117-.5293,.1816-.0867,.3704-.1606,.5505-.2498-.084,.0416-.4321,.1749-.1549,.0681,.0836-.0322,.1666-.0657,.2504-.0975,.7543-.2864,1.5301-.5084,2.3195-.6739,1.1316-.2372,1.8925-1.6295,1.5414-2.7147-.387-1.1958-1.5023-1.7955-2.7147-1.5414-3.5118,.7361-6.8177,2.6362-9.2347,5.2864-.7779,.8529-.9059,2.2894,0,3.121,.8476,.7781,2.2901,.911,3.121,0h0Z"/><g><path d="M493.8331,385.7696c3.5576,.3284,3.0615-5.8989-.5459-4.6386-1.2938,.452-2.0372,2.2077-1.3961,3.4536,.3621,.7035,1.154,1.1122,1.942,1.185Z"/><path d="M493.8331,387.9764c.8286,.0703,1.6688-.1403,2.3997-.5245,.6515-.3425,1.2283-.9424,1.5917-1.5775,.6717-1.174,.8375-2.701,.4212-3.9915-.2322-.7199-.5914-1.382-1.1258-1.9239-.5155-.5228-1.232-.9471-1.9559-1.0913-2.044-.4071-4.2725,.5528-5.1708,2.4965-.3235,.7001-.5198,1.3647-.5422,2.1453-.0218,.7604,.1841,1.4589,.5083,2.1359,.3273,.6835,.9588,1.2703,1.6001,1.6564,.714,.4298,1.459,.5894,2.2737,.6745,.5279,.0552,1.2001-.286,1.5605-.6464,.3828-.3828,.671-1.0108,.6464-1.5605-.0256-.5707-.213-1.1627-.6464-1.5605l-.4466-.3451c-.3442-.1996-.7155-.3001-1.1138-.3013-.0451-.0042-.0902-.0094-.135-.0158l.5867,.0788c-.2499-.0383-.4891-.1047-.7224-.2022l.5272,.2225c-.187-.0838-.3613-.1845-.5254-.3072l.4466,.3451c-.1412-.1122-.2664-.2354-.3789-.3765l.3451,.4466c-.1031-.1389-.1864-.2848-.2541-.4439l.2225,.5272c-.0645-.1643-.1091-.3318-.1365-.5061l.0788,.5867c-.0308-.2347-.0285-.467,.0027-.7015l-.0788,.5867c.0368-.2362,.1009-.4627,.1917-.6838l-.2225,.5272c.0953-.2189,.2131-.4226,.3565-.6136l-.3451,.4466c.1334-.1698,.2819-.3214,.4509-.4559l-.4466,.3451c.1549-.1171,.3185-.2139,.4968-.2909l-.5272,.2225c.2329-.0928,.476-.1567,.7244-.1904l-.5867,.0788c.1952-.0232,.3891-.0255,.5842-.0006l-.5867-.0788c.1632,.0239,.3202,.0659,.4729,.1287l-.5272-.2225c.1436,.0623,.2768,.1403,.4017,.2348l-.4466-.3451c.1394,.1093,.2619,.2347,.3704,.3747l-.3451-.4466c.122,.1625,.2211,.3381,.3014,.5246l-.2225-.5272c.0979,.236,.1629,.4818,.1989,.7347l-.0788-.5867c.0365,.2797,.0366,.5608-.0009,.8403l.0788-.5867c-.0352,.2405-.0977,.4741-.192,.6982l.2225-.5272c-.0771,.1764-.1725,.3422-.2891,.4955l.3451-.4466c-.1049,.1334-.2228,.2523-.3563,.3571l.4466-.3451c-.1304,.0986-.2697,.1796-.4196,.2448l.5272-.2225c-.1754,.0724-.3564,.1196-.5442,.1462l.5867-.0788c-.1991,.0247-.3977,.0257-.5976,.0088-.5351-.0454-1.1929,.2788-1.5605,.6464-.3828,.3828-.671,1.0108-.6464,1.5605,.0256,.5707,.213,1.1627,.6464,1.5605,.4518,.4147,.9487,.5945,1.5605,.6464Z"/></g><g><path d="M512.074,371.398c3.5576,.3284,3.0615-5.8989-.5459-4.6386-1.2938,.452-2.0372,2.2077-1.3961,3.4536,.3621,.7035,1.154,1.1122,1.942,1.185Z"/><path d="M512.074,373.6048c.8286,.0703,1.6688-.1403,2.3997-.5245,.6515-.3425,1.2283-.9424,1.5917-1.5775,.6717-1.174,.8375-2.701,.4212-3.9915-.2322-.7199-.5914-1.382-1.1258-1.9239-.5155-.5228-1.232-.9471-1.9559-1.0913-2.044-.4071-4.2725,.5528-5.1708,2.4965-.3235,.7001-.5198,1.3647-.5422,2.1453-.0218,.7604,.1841,1.4589,.5083,2.1359,.3273,.6835,.9588,1.2703,1.6001,1.6564,.714,.4298,1.459,.5894,2.2737,.6745,.5279,.0552,1.2001-.286,1.5605-.6464,.3828-.3828,.671-1.0108,.6464-1.5605-.0256-.5707-.213-1.1627-.6464-1.5605l-.4466-.3451c-.3442-.1996-.7155-.3001-1.1138-.3013-.0451-.0042-.0902-.0094-.135-.0158l.5867,.0788c-.2499-.0383-.4891-.1047-.7224-.2022l.5272,.2225c-.187-.0838-.3613-.1845-.5254-.3072l.4466,.3451c-.1412-.1122-.2664-.2354-.3789-.3765l.3451,.4466c-.1031-.1389-.1864-.2848-.2541-.4439l.2225,.5272c-.0645-.1643-.1091-.3318-.1365-.5061l.0788,.5867c-.0308-.2347-.0285-.467,.0027-.7015l-.0788,.5867c.0368-.2362,.1009-.4627,.1917-.6838l-.2225,.5272c.0953-.2189,.2131-.4226,.3565-.6136l-.3451,.4466c.1334-.1698,.2819-.3214,.4509-.4559l-.4466,.3451c.1549-.1171,.3185-.2139,.4968-.2909l-.5272,.2225c.2329-.0928,.476-.1567,.7244-.1904l-.5867,.0788c.1952-.0232,.3891-.0255,.5842-.0006l-.5867-.0788c.1632,.0239,.3202,.0659,.4729,.1287l-.5272-.2225c.1436,.0623,.2768,.1403,.4017,.2348l-.4466-.3451c.1394,.1093,.2619,.2347,.3704,.3747l-.3451-.4466c.122,.1625,.2211,.3381,.3014,.5246l-.2225-.5272c.0979,.236,.1629,.4818,.1989,.7347l-.0788-.5867c.0365,.2797,.0366,.5608-.0009,.8403l.0788-.5867c-.0352,.2405-.0977,.4741-.192,.6982l.2225-.5272c-.0771,.1764-.1725,.3422-.2891,.4955l.3451-.4466c-.1049,.1334-.2228,.2523-.3563,.3571l.4466-.3451c-.1304,.0986-.2697,.1796-.4196,.2448l.5272-.2225c-.1754,.0724-.3564,.1196-.5442,.1462l.5867-.0788c-.1991,.0247-.3977,.0257-.5976,.0088-.5351-.0454-1.1929,.2788-1.5605,.6464-.3828,.3828-.671,1.0108-.6464,1.5605,.0256,.5707,.213,1.1627,.6464,1.5605,.4518,.4147,.9487,.5945,1.5605,.6464Z"/></g><path d="M346.1786,846.0626c25.0178-5.563,49.3827-13.9092,72.5921-24.7769,6.4963-3.0419,12.8948-6.2887,19.1911-9.7253,1.5685-.8561,2.0711-3.0185,1.1876-4.5291-.9263-1.5837-2.9544-2.0471-4.5291-1.1876-22.0001,12.0082-45.2678,21.584-69.3526,28.5247-6.8927,1.9863-13.847,3.7531-20.849,5.3101-1.7458,.3882-2.7687,2.4101-2.312,4.072,.4942,1.7983,2.3211,2.7014,4.072,2.312h0Z"/><path d="M253.3609,81.2481l23.3556,24.3473c2.7773,2.8953,6.8015,4.2385,10.7611,3.592l33.2974-5.437c9.9712-1.6281,17.4809,8.8841,12.7081,17.7889l-15.9384,29.7363c-1.8953,3.5361-1.9293,7.7784-.0908,11.3443l15.4603,29.9876c4.6297,8.98-3.0474,19.3707-12.9912,17.5832l-33.2061-5.9693c-3.9487-.7098-7.9938,.5688-10.8172,3.4192l-23.7424,23.9703c-7.1098,7.1781-19.3643,3.0876-20.7371-6.9219l-4.5841-33.4255c-.5451-3.9748-3.0112-7.4268-6.5946-9.2311l-30.1339-15.1731c-9.0238-4.5437-8.9204-17.4625,.175-21.8611l30.373-14.6888c3.6118-1.7467,6.1328-5.1588,6.7415-9.1244l5.1186-33.3478c1.5328-9.9863,13.8512-13.88,20.8452-6.589Z" style="fill:#f4d13b;"/><path d="M452.5826,34.6567l14.7771,30.3301c1.7572,3.6067,5.1767,6.1178,9.144,6.7149l33.3626,5.0216c9.9907,1.5037,13.9203,13.8108,6.6497,20.826l-24.2793,23.4264c-2.8872,2.7857-4.2187,6.8138-3.5606,10.7715l5.5338,33.2815c1.6571,9.9664-8.8332,17.5067-17.7518,12.7598l-29.7825-15.8518c-3.5416-1.885-7.784-1.9066-11.3446-.0578l-29.9425,15.5475c-8.9665,4.6558-19.3795-2.991-17.6209-12.94l5.8726-33.2233c.6983-3.9507-.5921-7.9922-3.4507-10.8072l-24.0393-23.6726c-7.1988-7.0889-3.144-19.3553,6.8615-20.7571l33.412-4.6814c3.9732-.5567,7.418-3.0328,9.2119-6.6214l15.0854-30.178c4.5174-9.037,17.4364-8.9712,21.8615,.1114Z" style="fill:#f4d13b;"/><path d="M662.1057,37.173l9.9914,32.225c1.1881,3.832,4.1858,6.8341,8.0161,8.0277l32.2105,10.0382c9.6457,3.006,11.6574,15.7676,3.4043,21.5951l-27.5603,19.4605c-3.2773,2.3141-5.2061,6.0928-5.1577,10.1045l.4067,33.7359c.1218,10.1025-11.3935,15.9593-19.4862,9.9109l-27.0246-20.1978c-3.2136-2.4018-7.4033-3.0685-11.2037-1.7828l-31.9591,10.8118c-9.5704,3.2377-18.699-5.9042-15.4474-15.4699l10.8582-31.9434c1.2912-3.7985,.6306-7.9892-1.7666-11.2063l-20.1585-27.0539c-6.0366-8.1015-.1631-19.6083,9.9392-19.4718l33.7353,.4557c4.0116,.0542,7.793-1.8691,10.1119-5.1431l19.5004-27.532c5.8396-8.2447,18.5982-6.2144,21.5902,3.4356Z" style="fill:#f953b2;"/><path d="M107.8815,75.3779c3.7311,1.9704,7.4622,3.9407,11.1932,5.9111,1.5303,.8081,3.6696,.4392,4.5291-1.1876,.8083-1.5298,.4474-3.6657-1.1876-4.5291-3.7311-1.9704-7.4622-3.9407-11.1932-5.9111-1.5303-.8081-3.6696-.4392-4.5291,1.1876-.8083,1.5298-.4474,3.6657,1.1876,4.5291h0Z" style="fill:#6966ed;"/><path d="M109.2827,159.5462c2.2649-.3775,4.5298-.755,6.7948-1.1325,.7697-.1283,1.6003-.8753,1.9783-1.5213,.4152-.7095,.5911-1.7553,.3337-2.5508-.2592-.801-.7556-1.5738-1.5213-1.9783l-.7908-.3337c-.5867-.1577-1.1733-.1577-1.76,0-2.2649,.3775-4.5298,.755-6.7948,1.1325-.7697,.1283-1.6003,.8753-1.9783,1.5213-.4152,.7095-.5911,1.7553-.3337,2.5508,.2592,.801,.7556,1.5738,1.5213,1.9783l.7908,.3337c.5867,.1577,1.1733,.1577,1.76,0h0Z" style="fill:#6966ed;"/><path d="M175.3836,25.88c1.5094,5.285,3.0187,10.57,4.5281,15.855,.4752,1.664,2.3595,2.8662,4.072,2.312,1.6936-.5481,2.8214-2.2883,2.312-4.072-1.5094-5.285-3.0187-10.57-4.5281-15.855-.4752-1.664-2.3595-2.8662-4.072-2.312-1.6936,.5481-2.8214,2.2883-2.312,4.072h0Z" style="fill:#6966ed;"/><path d="M661.3006,242.6905c-2.3311,7.2167-3.5474,14.7968-3.642,22.3792-.0216,1.7321,1.538,3.3897,3.3103,3.3103,1.812-.0812,3.2871-1.4542,3.3103-3.3103,.0888-7.1118,1.1967-13.781,3.4055-20.6192,.5325-1.6486-.6213-3.687-2.312-4.072-1.8134-.413-3.5019,.5469-4.072,2.312h0Z" style="fill:#6966ed;"/><path d="M697.1854,231.1955c4.5244,4.1583,9.0487,8.3167,13.5731,12.475,1.2751,1.1719,3.4373,1.3554,4.6815,0,1.171-1.2756,1.3617-3.4299,0-4.6815-4.5244-4.1583-9.0487-8.3167-13.5731-12.475-1.2751-1.1719-3.4373-1.3554-4.6815,0-1.171,1.2756-1.3617,3.4299,0,4.6815h0Z" style="fill:#6966ed;"/><path d="M711.7026,196.6856c5.286-1.127,10.572-2.254,15.8579-3.3811,1.696-.3616,2.8401-2.4401,2.312-4.072-.5789-1.7889-2.255-2.6994-4.072-2.312-5.286,1.127-10.572,2.254-15.8579,3.3811-1.696,.3616-2.8401,2.4401-2.312,4.072,.5789,1.7889,2.255,2.6994,4.072,2.312h0Z" style="fill:#6966ed;"/></svg>