<?xml version="1.0" encoding="UTF-8"?><svg id="Layer_2" xmlns="http://www.w3.org/2000/svg" width="1000" height="1000" viewBox="0 0 1000 1000"><g><path d="M173.04,378.2007c-24.8081,0-44.919-46.3781-44.919-103.5883s20.1109-103.5883,44.919-103.5883l327.5825,32.2399c24.268,2.3884,42.6414,20.7584,42.6414,42.6334v62.7519c0,22.1701-18.8575,40.6865-43.4974,42.7107l-326.7266,26.8407Z" style="fill:#6966ed;"/><path d="M187.3225,183.2137c-5.6484-7.7759-12.1004-12.1896-18.9539-12.1896-22.2281,0-40.2476,46.378-40.2476,103.5883s18.0195,103.5883,40.2476,103.5883c6.8535,0,13.3055-4.4138,18.9539-12.1896-12.6716-17.4438-21.2937-51.8276-21.2937-91.3987s8.6221-73.9548,21.2937-91.3987Z" style="fill:#f953b2;"/><path d="M187.3225,183.2137c-12.6716,17.4438-21.2937,51.8276-21.2937,91.3987s8.6221,73.9548,21.2937,91.3987c12.6717-17.4438,21.2938-51.8276,21.2938-91.3987s-8.6222-73.9548-21.2938-91.3987Z" style="fill:#fff;"/><path d="M680.6432,241.6389v7.3022l-182.6945-17.9187v103.0425l182.6945-16.2074v5.5909c0,9.14,6.2466,16.5492,13.9522,16.5492s13.9522-7.4092,13.9522-16.5492v-75.3519c0-3.5664-2.8912-6.4576-6.4576-6.4576h-20.4373" style="fill:#6966ed;"/><path d="M262.4704,417.3927c-24.8081,0-44.919-46.3781-44.919-103.5883s20.1109-103.5883,44.919-103.5883l327.5825,32.2399c24.268,2.3884,42.6414,20.7584,42.6414,42.6334v62.7519c0,22.1701-18.8575,40.6865-43.4974,42.7107l-326.7266,26.8407Z" style="fill:#f4d13b;"/><path d="M277.806,223.9019c-5.8935-8.7067-12.7242-13.6858-20.007-13.6858-22.2281,0-40.2476,46.378-40.2476,103.5883s18.0195,103.5883,40.2476,103.5883c7.2828,0,14.1135-4.9791,20.007-13.6858-12.0944-17.8677-20.2408-51.4363-20.2408-89.9025s8.1464-72.0347,20.2408-89.9025Z" style="fill:#f953b2;"/><path d="M277.806,223.9019c-12.0944,17.8677-20.2408,51.4363-20.2408,89.9025s8.1464,72.0347,20.2408,89.9025c12.0945-17.8677,20.2408-51.4363,20.2408-89.9025s-8.1463-72.0347-20.2408-89.9025Z" style="fill:#fff;"/><path d="M769.8524,284.2164v68.9164c0,3.0878-2.5031,5.5909-5.5909,5.5909h-16.7225c-3.0878,0-5.5909-2.5031-5.5909-5.5909h0s-182.6945,16.2074-182.6945,16.2074v-103.0425l182.6945,17.9187h0c0-4.0329,3.2693-7.3022,7.3022-7.3022h13.3c4.0329,0,7.3022,3.2693,7.3022,7.3022Z" style="fill:#f4d13b;"/><path d="M754.6867,298.3107c.4793,2.117,.2995,3.9354-1.4243,5.3914-1.537,1.2982-3.5607,1.9217-5.4919,2.3459-4.3825,.9625-8.9341,.7158-13.3344,1.6045-4.186,.8454-8.8155,3.2475-8.9847,8.0904-.1499,4.2914,4.5571,7.1482,7.8294,8.9627,4.3348,2.4037,9.1503,3.7504,14.0913,4.0422,2.5178,.1487,2.5092-3.7684,0-3.9167-3.9533-.2335-7.8629-1.2852-11.3801-3.1134-1.6792-.8728-3.3263-1.8894-4.7823-3.1034-1.3231-1.1032-2.3654-2.3441-1.4801-4.0839,.8748-1.719,2.9289-2.4223,4.6749-2.8615,2.0473-.5151,4.1476-.7071,6.2465-.8729,4.1764-.3299,8.4303-.5852,12.3002-2.3401,1.9167-.8692,3.7-2.22,4.8122-4.0315,1.3482-2.1958,1.2496-4.7278,.7-7.155-.5564-2.4573-4.3334-1.4173-3.7768,1.0412h0Z"/><g><path d="M524.9943,201.0075c-4.8806,7.2344-9.7612,14.4689-14.6418,21.7033-2.6326,3.9023-5.3198,7.478-10.4062,8.2241-8.1968,1.2024-15.426-6.2648-13.9528-14.4203,.5951-3.2941,2.8504-6.263,4.5617-9.0778,2.769-4.5546,5.538-9.1092,8.307-13.6638,2.6115-4.2955,5.223-8.591,7.8344-12.8866,2.2548-3.7089,4.504-7.2557,7.7885-10.2001,6.6174-5.932,14.6963-7.6575,23.3121-7.6575,2.9775,0,6.0384-.2646,8.8327,.9704,4.2169,1.8638,6.7424,6.0015,6.8609,10.5408,.0986,3.7792,5.7762,3.7856,5.875,0,.1635-6.2656,5.1083-11.5273,11.5113-11.5113s11.3471,5.2206,11.5113,11.5113c.0986,3.7792,5.7762,3.7856,5.875,0,.1635-6.2656,5.1083-11.5273,11.5113-11.5113s11.3471,5.2206,11.5113,11.5113c.0986,3.7791,5.7772,3.7858,5.875,0,.1598-6.1827,4.9603-11.3889,11.2721-11.5093,6.2127-.1185,11.346,4.9783,11.7316,11.1013,.2411,3.8281,.0189,7.7325,.0189,11.5645,0,16.6065,0,33.213,0,49.8195,0,4.5782,0,9.1565,0,13.7347,0,2.8514,4.0653,4.0812,5.4739,1.4826,3.6602-6.7523,7.3203-13.5047,10.9805-20.257,2.1147-3.9013,4.7092-7.156,9.3638-8.051,6.9388-1.3343,13.7639,3.9412,14.146,11.0268,.2786,5.1668-3.445,10.6458-5.6076,15.1284-3.9992,8.2892-7.9984,16.5785-11.9976,24.8677-6.5161,13.5061-12.9468,27.0566-19.624,40.4838-17.6244,35.4409-33.545,71.7135-48.2938,108.4385-6.608,16.454-13.0225,32.9859-19.6003,49.4524-6.581,16.4746-13.0793,32.9885-18.9453,49.7339-11.6162,33.1602-21.1926,67.7872-22.1404,103.1182-.809,30.154,4.2284,66.4935,32.6503,83.4619,25.1494,15.0146,57.2011,6.0839,81.7676-5.4865,26.5408-12.5003,50.9923-30.5772,71.3589-51.6466,23.969-24.7962,42.7416-54.2877,57.3262-85.4388,3.5471-7.5762,6.8467-15.2665,9.9536-23.0332,1.4041-3.5101-4.2758-5.0349-5.6651-1.5618-12.8246,32.06-29.5029,62.9519-51.4283,89.7412-19.1819,23.4371-42.4253,43.314-68.6316,58.5115-12.9925,7.5346-26.7797,13.9599-41.3574,17.7395-13.2263,3.4292-27.4322,4.612-40.6358,.4411-14.5265-4.5888-25.109-16.1522-31.3927-29.7101-6.7968-14.6649-8.1311-31.5989-8.1429-47.5605-.0261-35.3736,9.3183-70.1744,20.7464-103.395,11.4296-33.2246,25.028-65.7577,38.0349-98.3882,14.7276-36.9472,30.6579-73.4292,48.2948-109.0853,6.7972-13.7417,13.4235-27.5655,20.0853-41.3737,4.0643-8.4242,8.1286-16.8484,12.1929-25.2726,2.1223-4.3989,5.0435-9.0464,6.3274-13.805,3.9937-14.8018-12.069-27.431-25.5363-20.3938-4.0099,2.0953-6.399,5.5448-8.4816,9.3868-2.2045,4.0669-4.409,8.1338-6.6135,12.2007-1.4024,2.5872-2.8048,5.1744-4.2072,7.7615l5.4739,1.4826c0-13.6679,0-27.3358,0-41.0037,0-8.5189,0-17.0377,0-25.5566,0-5.8967,.587-12.003-2.6974-17.2565-4.0562-6.4879-11.9611-9.7041-19.3772-7.6406-7.5519,2.1013-12.4988,9.0406-12.6979,16.7467h5.875c-.2467-9.4505-7.7451-17.3862-17.3862-17.3862s-17.1396,7.9353-17.3862,17.3862h5.875c-.2467-9.4505-7.7451-17.3862-17.3862-17.3862s-17.1396,7.9353-17.3862,17.3862h5.875c-.2455-9.4067-7.5102-17.0462-17.0026-17.3762-6.8681-.2388-13.9552-.1673-20.4478,2.3248-7.7741,2.984-14.1453,8.3936-18.4954,15.478-2.2088,3.5972-4.3859,7.2142-6.5787,10.8211-3.3087,5.4423-6.6174,10.8846-9.926,16.3269-1.9475,3.2033-4.3193,6.4349-5.7072,9.9413-3.4238,8.6498,.5226,18.9785,8.9543,23.0142,8.3402,3.9919,17.9562,1.1089,23.2019-6.3389,5.729-8.134,11.1387-16.5107,16.703-24.7586,2.1202-3.1427-2.9673-6.0862-5.0729-2.9652h0Z"/><path d="M524.5932,194.9798c0,15.3594,.001,30.7188,.0007,46.0782,0,3.7235-.0002,7.447-.0004,11.1705-.0001,1.9481-.027,3.3239-.806,5.1112-.8918,2.046-2.0135,4.0202-3.0107,6.0175-3.2085,6.4265-6.399,12.8619-9.5695,19.3072-13.1026,26.6369-25.8668,53.4421-38.137,80.4732-24.3217,53.5805-47.4056,108.1146-65.8427,164.0325-17.5268,53.1571-28.8728,108.5351-26.7932,164.7392,1.5533,41.9822,12.5085,84.1856,34.0422,120.4334,21.0952,35.5098,52.7062,64.1279,91.6286,78.6495,45.6066,17.0155,97.2179,14.2749,142.9723-.6102,47.6732-15.5093,90.5289-43.3791,128.5795-75.5784,41.817-35.3864,77.6677-76.871,109.9032-121.0365,11.5934-15.884,22.2728-31.6336,31.9027-48.7215,13.4595-23.8832,25.4802-48.648,35.3582-74.2306,11.3262-29.3333,20.4006-60.6082,20.9762-92.26,.5155-28.3452-7.3076-57.2864-29.2862-76.5163-7.1477-6.2538-15.779-9.9736-23.4796-15.457-6.3414-4.5155-12.2562-9.9779-16.2003-16.7591-6.7386-11.5859-5.7859-25.186-4.3491-38.0046,3.3839-30.1922,9.1652-64.8256-10.3759-90.8906-16.8498-22.4752-44.436-36.7775-71.662-41.9846-26.0644-4.9849-56.3505-1.7399-75.0055,19.1033-4.6995,5.2508-8.3806,11.2658-11.1058,17.7536-3.5705,8.5001-5.2246,17.7171-7.6714,26.5718-5.5927,20.2396-10.0655,40.9501-11.7025,61.9193-1.8547,23.7579-.3059,50.9917,15.5526,70.1938,10.3295,12.5073,25.8042,18.5335,41.648,19.819,11.8799,.9639,24.0462-.5095,35.5577-3.5081,1.8791-.4895,3.7646-1.0034,5.5979-1.6476,3.5434-1.2453,2.0183-6.9233-1.5618-5.6651-1.8872,.6632-3.8294,1.1901-5.7644,1.6908-2.1095,.5459-4.2352,1.0294-6.3721,1.4554-2.517,.5018-5.7672,1.0278-7.5836,1.2529-13.497,1.6732-27.6135,1.1913-39.883-4.3015-16.7229-7.4864-26.0035-23.1756-29.6586-40.6941-2.9363-14.0732-2.671-28.7402-1.2707-42.9797,2.0907-21.2611,7.0566-42.2221,13.0143-62.7005,2.2784-7.8316,3.5321-15.636,7.2646-23.0077,2.9598-5.8456,6.8313-11.1407,11.6326-15.608,9.289-8.643,21.4966-13.407,33.948-15.1277,27.135-3.7498,56.1557,5.2086,78.5069,20.4749,10.5667,7.2172,20.1571,16.4121,26.4813,27.6288,7.6137,13.5038,8.235,29.5307,7.8494,44.699-.3959,15.5741-3.4891,30.8728-4.2485,46.403-.6494,13.2799,1.9434,25.892,10.4845,36.3915,5.2917,6.5051,12.1248,11.6864,19.1938,16.115,4.231,2.6507,8.9502,4.6646,12.9237,7.6765,2.7902,2.115,5.429,4.44,7.9062,6.9135,9.6127,9.5983,16.2113,21.6651,19.8399,34.7105,7.8913,28.3709,3.1326,59.1824-4.4017,87.0895-7.8229,28.9766-19.5139,56.8538-32.937,83.652-8.1951,16.3608-17.0425,32.4499-26.7808,47.9481-7.2192,11.4891-15.4964,22.3903-23.5646,33.2875-16.413,22.1682-33.7741,43.6597-52.4708,63.9491-34.2466,37.1642-73.2613,70.9303-117.0397,96.4171-42.3036,24.6282-90.1297,41.1073-139.5468,39.8575-23.26-.5883-46.6291-4.8066-68.1066-13.9293-18.5134-7.8637-35.4483-19.2043-49.9428-33.1311-29.5585-28.4008-48.4715-66.3975-57.9072-105.9833-11.4938-48.2199-8.5312-99.3306,1.3151-147.5638,11.2149-54.9375,31.6955-107.7434,52.9546-159.4557,22.1384-53.8513,46.7414-106.6633,72.5663-158.8364,3.0853-6.2331,6.2426-12.4317,9.3081-18.6743,1.4953-3.045,1.0049-6.3229,1.0051-9.6664,.0002-3.4908,.0003-6.9815,.0003-10.4723,.0001-14.6612-.0007-29.3225-.0007-43.9837,0-3.7803-5.875-3.7865-5.875,0h0Z"/><path d="M553.4908,174.1877v55.4612c0,3.7803,5.875,3.7865,5.875,0v-55.4612c0-3.7803-5.875-3.7865-5.875,0h0Z"/><path d="M582.3883,174.4736v55.4612c0,3.7803,5.875,3.7865,5.875,0v-55.4612c0-3.7803-5.875-3.7865-5.875,0h0Z"/><path d="M611.2858,174.7595v55.4612c0,3.7803,5.875,3.7865,5.875,0v-55.4612c0-3.7803-5.875-3.7865-5.875,0h0Z"/></g><g><path d="M357.265,167.7215c3.8541,6.2874,7.7094,12.574,11.5677,18.8588,2.3506,3.8289,4.6926,7.6632,7.0519,11.4867,3.6261,5.8766,9.1624,10.4802,16.4612,9.3311,8.1054-1.2761,14.9218-7.5382,15.9692-15.7359l-5.4739,1.4826c3.9434,6.4236,7.8903,13.288,16.2076,14.1944,4.0608,.4425,8.1336-1.1287,11.5324-3.2738,4.4558-2.8122,7.052-7.2369,7.7121-12.4032l-5.4739,1.4826c1.159,1.888,2.2727,3.8127,3.4858,5.6664,2.5355,3.8742,6.5534,6.6745,11.1199,7.5662,10.0042,1.9535,19.5479-4.5527,20.8464-14.7152l-5.4739,1.4826c2.9836,4.8601,5.7185,10.1656,11.1174,12.7459,6.7495,3.2257,15.3103,.6461,20.2097-4.8102,4.7564-5.297,5.4552-12.9079,1.8448-19.0161-1.108-1.8745-2.2801-3.714-3.4192-5.5695-9.3419-15.217-18.6392-30.4623-28.0262-45.6515-3.4153-5.5264-8.7799-9.0918-15.4655-8.5906-3.7632,.2821-8.2275,1.4043-11.3339,3.6703-3.8052,2.7757-5.0934,6.8724-5.6043,11.3684,1.8246-.4942,3.6493-.9884,5.4739-1.4826-1.159-1.888-2.2728-3.8127-3.4859-5.6664-2.5355-3.8743-6.5533-6.6745-11.1198-7.5662-10.0043-1.9535-19.5479,4.5526-20.8464,14.7152,1.8246-.4942,3.6493-.9884,5.4739-1.4826-1.159-1.888-2.2728-3.8127-3.4859-5.6664-2.5355-3.8743-6.5533-6.6745-11.1198-7.5662-10.0043-1.9535-19.5479,4.5526-20.8464,14.7152l5.4739-1.4826c-1.3054-2.1263-2.5171-4.3534-3.9746-6.3804-2.9491-4.1013-7.5282-6.6025-12.5256-7.1304-4.487-.474-8.9313,.7392-12.3179,3.7024-3.0795,2.6945-5.7644,5.7562-8.1122,9.1069-10.6889,15.2547-13.6603,34.9985-15.3475,53.1164-1.694,18.1904-2.4835,36.4351-2.3529,54.6938,.1826,25.5176,.9373,51.0343,2.187,76.5214,1.7907,36.5207,4.601,73.0181,9.1046,109.3096,4.515,36.3834,10.4389,72.8862,20.8222,108.1061,1.1102,3.7658,2.2802,7.5134,3.5126,11.241,1.1812,3.5729,6.8567,2.0423,5.6651-1.5618-11.0496-33.4224-17.37-68.3726-22.2071-103.1727-4.9905-35.904-8.0959-72.0706-10.1861-108.252-1.588-27.4878-2.5632-55.0147-2.9249-82.546-.0953-7.2527-.1494-14.5063-.131-21.7596,.0176-6.9483,.6048-13.8709,.9514-20.8107,.905-18.1197,1.8494-36.6594,7.4229-54.0604,2.5468-7.9515,6.22-15.7836,11.8804-22.0125,1.2134-1.3352,2.5125-2.578,3.8697-3.7654,1.3886-1.2149,2.7493-1.728,4.7644-2.0003,4.2097-.5689,8.7339,1.1874,11.1839,4.7097,1.3165,1.8927,2.4367,3.9456,3.6427,5.91,1.6505,2.6885,5.1224,1.2687,5.4739-1.4826,.9261-7.2478,9.1705-10.793,15.5751-8.4614,4.5623,1.6609,6.5564,6.0791,8.9291,9.944,1.6505,2.6885,5.1224,1.2687,5.4739-1.4826,.9261-7.2478,9.1705-10.793,15.5751-8.4614,4.5623,1.6609,6.5564,6.0791,8.9291,9.944,1.6342,2.662,5.1583,1.2951,5.4739-1.4826,.3041-2.6765,1.2222-5.6751,3.6318-7.0247,2.595-1.4533,6.1616-2.2721,9.1156-2.1795,4.0332,.1264,6.7909,2.6107,8.8074,5.8824,3.4846,5.6539,6.9495,11.32,10.4243,16.98,5.0068,8.1554,10.0135,16.3109,15.0203,24.4663,1.6064,2.6166,3.2127,5.2331,4.8191,7.8497,1.4279,2.3258,2.7237,4.5471,2.6365,7.4223-.1034,3.408-2.065,6.5492-4.9339,8.3404-2.4716,1.5432-5.4377,2.9129-8.4057,2.4381-5.8165-.9306-8.4785-6.7884-11.2401-11.2869-1.6504-2.6885-5.1224-1.2687-5.4739,1.4826-.9261,7.2478-9.1705,10.793-15.5751,8.4614-4.5623-1.6609-6.5564-6.079-8.9291-9.944-1.6504-2.6885-5.1224-1.2687-5.4739,1.4826-.7711,6.0351-8.3682,11.2176-14.2892,9.5642-5.1974-1.4513-7.6142-6.8102-10.215-11.0468-1.6504-2.6885-5.1224-1.2687-5.4739,1.4826-.7007,5.4843-6.8057,9.8114-11.9783,10.0651-4.9864,.2446-7.8914-3.9983-10.214-7.7815-3.8013-6.1919-7.605-12.3824-11.4039-18.5758-2.1696-3.5373-4.3373-7.0758-6.506-10.6137-1.9727-3.2182-7.0562-.2702-5.0729,2.9652h0Z"/><path d="M476.1381,202.2219c-5.2498,6.1714-10.4996,12.3428-15.7494,18.5143-1.444,1.6975-4.4581,4.2152-4.5967,6.5905-.1443,2.472,0,4.9956,0,7.4706,0,13.5582,.3027,27.153-.0206,40.7074-.2385,10.0011-.0819,20.0153,.2365,30.0125,.6672,20.9517,2.2092,41.8813,4.6217,62.7042,3.1064,26.8116,7.6172,53.4923,14.1269,79.6954,6.9443,27.9525,16.1654,55.4838,28.9233,81.3478,12.9253,26.2034,29.8737,51.696,52.4874,70.5248,11.2926,9.4025,23.9842,16.8931,37.8296,21.8639,14.5616,5.228,30.2668,7.6654,45.7189,7.7111,18.092,.0536,36.4486-3.5239,53.5546-9.2885,8.1719-2.7539,16.1161-6.216,23.999-9.6994,7.7828-3.4392,15.4733-7.0971,22.9768-11.1122,14.884-7.9643,29.154-17.4055,41.3228-29.1727,5.9966-5.7987,11.4402-12.1809,16.152-19.0674,3.663-5.3536,8.0234-14.7758,1.398-19.7704-7.2086-5.4342-14.5624,2.9793-17.4928,9.0143-1.6446,3.387,3.42,6.3693,5.0729,2.9652,1.3436-2.767,3.4182-6.5344,6.5261-7.6219,2.7154-.9502,3.6145,1.8636,3.3556,3.9912-.3975,3.2672-2.3034,6.0907-4.1195,8.7295-2.0973,3.0473-4.3521,5.9773-6.7527,8.7916-9.828,11.5215-21.7431,21.0209-34.5413,29.0415-13.0723,8.1924-27.0078,14.921-41.163,21.0129-14.8076,6.3727-29.8728,11.4248-45.8026,14.1465-28.0849,4.7986-58.067,1.6203-83.4157-11.8994-23.7056-12.6434-42.0429-33.3383-56.4956-55.6349-13.9371-21.5012-24.4569-45.0743-32.7141-69.2838-8.268-24.2411-14.3343-49.2087-18.8893-74.3999-4.0209-22.2374-6.8407-44.6827-8.6771-67.2035-1.3299-16.3084-2.1578-32.6634-2.4003-49.0248-.0944-6.3684-.032-12.7282,.0574-19.0951,.2-14.2484,0-28.5131,0-42.7629,0-1.605,0-3.21,0-4.815l-.8604,2.0771c6.4953-7.6355,12.9905-15.271,19.4858-22.9066,2.4366-2.8643-1.6998-7.0395-4.1542-4.1542h0Z"/><path d="M440.3125,156.399c2.5327,4.1737,5.0655,8.3475,7.5982,12.5212,4.0619,6.6937,8.1239,13.3874,12.1858,20.0811,.928,1.5293,1.856,3.0585,2.784,4.5878,1.9588,3.2279,7.0414,.2787,5.0729-2.9652-2.5327-4.1737-5.0655-8.3475-7.5982-12.5212-4.0619-6.6937-8.1239-13.3874-12.1858-20.0811-.928-1.5293-1.856-3.0585-2.784-4.5878-1.9588-3.2279-7.0414-.2787-5.0729,2.9652h0Z"/><path d="M411.0838,156.399c2.5327,4.1737,5.0655,8.3475,7.5982,12.5212,4.0619,6.6937,8.1239,13.3874,12.1858,20.0811l2.784,4.5878c1.9588,3.2279,7.0414,.2787,5.0729-2.9652-2.5327-4.1737-5.0655-8.3475-7.5982-12.5212-4.0619-6.6937-8.1239-13.3874-12.1858-20.0811-.928-1.5293-1.856-3.0585-2.784-4.5878-1.9588-3.2279-7.0414-.2787-5.0729,2.9652h0Z"/><path d="M381.1056,156.399c2.5327,4.1737,5.0655,8.3475,7.5982,12.5212,4.0619,6.6937,8.1239,13.3874,12.1858,20.0811,.928,1.5293,1.856,3.0585,2.784,4.5878,1.9588,3.2279,7.0414,.2787,5.0729-2.9652-2.5327-4.1737-5.0655-8.3475-7.5982-12.5212-4.0619-6.6937-8.1239-13.3874-12.1858-20.0811-.928-1.5293-1.856-3.0585-2.784-4.5878-1.9588-3.2279-7.0414-.2787-5.0729,2.9652h0Z"/></g><path d="M775.326,408.5999c-8.8913-.8017-17.82-1.2046-26.74-1.5226-6.8398-.2439-13.7928-.7135-20.6358-.3592-13.9303,.7212-27.1166,6.22-38.625,13.8852-12.2058,8.1296-22.8347,18.4819-32.3266,29.6071-9.0655,10.6255-17.2073,22.0358-24.649,33.8481-5.3947,8.5631-10.4261,17.3558-15.1099,26.3272-.3744,.7172-.7465,1.4356-1.1166,2.155-.7255,1.4102-.3666,3.1882,1.0538,4.019,1.3149,.7691,3.2906,.3621,4.019-1.0538,4.2518-8.2642,8.7939-16.3797,13.639-24.311,6.9379-11.3571,14.6639-22.603,22.792-32.5966,4.5575-5.6035,9.3641-11.0109,14.482-16.1096,2.5657-2.556,5.2096-5.0342,7.9417-7.4117,1.2951-1.127,2.61-2.2314,3.9457-3.3101,1.4991-1.2107,2.3352-1.8585,3.9196-3.0244,5.5175-4.0599,11.3942-7.6632,17.6417-10.4882,.3888-.1758,.7789-.3486,1.1704-.5181,.1737-.0752,.3474-.1502,.5218-.2237-.4362,.1838,.0091-.0016,.0829-.0318,.7843-.3212,1.5726-.6322,2.3668-.9281,1.5776-.5879,3.1754-1.1219,4.7909-1.5958,1.5607-.4578,3.138-.8593,4.7284-1.2001,.7706-.1651,1.5443-.3159,2.3207-.4517,.3652-.0639,.731-.1245,1.0974-.1818,.229-.0358,.4583-.0696,.6876-.1033,.2133-.0314,.6171-.0815,.1838-.0268,6.3751-.8044,12.8551-.4155,19.2589-.2291,8.8112,.2565,17.6245,.6106,26.4188,1.2236,2.0481,.1428,4.095,.3029,6.1398,.4873,1.5822,.1427,2.9375-1.4522,2.9375-2.9375,0-1.7076-1.3508-2.7944-2.9375-2.9375h0Z"/><g><path d="M775.326,411.5374c-14.3947,.8594-35.9134-1.8637-43.7301-1.9551,0,0,50.2579,48.955,94.6467,11.0939,9.1389-10.4444,20.8888-26.1111,20.8888-26.1111,0,0-28.0694,14.3611-71.8054,16.9722Z"/><path d="M775.326,408.5999c-12.2474,.7054-24.5488-.6723-36.7503-1.5749-2.3226-.1718-4.6502-.3474-6.9798-.3802-2.5314-.0356-3.8939,3.2473-2.0771,5.0146,2.8319,2.7548,6.009,5.2023,9.1796,7.5455,7.0934,5.2423,14.7672,9.6434,22.9233,13.0082,9.8559,4.066,20.649,6.3844,31.3401,5.6234,12.8425-.9142,25.4155-6.2319,35.0415-14.8148,1.2202-1.088,2.2386-2.4885,3.2916-3.7387,1.1076-1.3151,2.2041-2.6396,3.2924-3.9708,2.098-2.566,4.1667-5.1559,6.216-7.7608,2.8423-3.6128,5.6541-7.2505,8.4241-10.919,.147-.1947,.294-.3894,.4404-.5846,.7694-1.0255,.386-2.7144-.4593-3.5597-.9563-.9563-2.3907-1.0564-3.5597-.4593-.9986,.5101-2.0264,.9672-3.0521,1.4191-.2571,.1133-.5147,.2256-.7727,.3369-.3125,.1349-1.2136,.4991-.3647,.1579-.6962,.2798-1.3862,.5753-2.0828,.8545-1.6857,.6757-3.3839,1.3198-5.0918,1.9371-10.7332,3.8792-21.8352,6.749-33.0612,8.7794-8.5643,1.549-17.2108,2.5584-25.8974,3.0861-1.5838,.0962-2.9375,1.2812-2.9375,2.9375,0,1.5158,1.3458,3.0342,2.9375,2.9375,14.8573-.9025,29.6599-3.1782,44.058-6.97,8.5909-2.2625,17.0489-5.0582,25.2146-8.5652,1.3508-.5801,2.7055-1.169,4.0154-1.838-1.3397-1.3397-2.6794-2.6794-4.019-4.019-5.5487,7.3959-11.164,14.5684-17.3332,21.9024-1.0078,1.1981-1.9771,2.5192-3.0963,3.6142-1.1509,1.126-2.5472,2.0947-3.8512,3.0348-2.587,1.8649-5.311,3.5419-8.1571,4.9819-4.9825,2.5208-10.5119,4.2562-16.2087,5.0506-.3473,.0484-.0772,.01-.0069,.0009-.2095,.027-.4194,.0518-.6292,.0759-.3137,.036-.6277,.0693-.942,.0998-.6766,.0658-1.3544,.1187-2.0329,.1594-1.3413,.0805-2.6853,.1122-4.0289,.0972-1.3253-.0149-2.65-.0753-3.9713-.179-.6546-.0514-1.3084-.1132-1.961-.1854-.2999-.0332-.5996-.069-.899-.1061-.0073-.0009-.4978-.0654-.2065-.0259,.2569,.0348-.303-.0443-.3536-.0518-5.0251-.7511-9.9475-2.0637-14.7122-3.8225-2.5332-.9351-3.8675-1.5008-6.2339-2.6088-2.0741-.9712-4.113-2.0172-6.1154-3.1286-3.503-1.9442-6.8955-4.0871-10.1682-6.3975-.706-.4984-1.4064-1.0048-2.101-1.5189-.3257-.2411-.6501-.484-.9732-.7285-.2349-.1778-1.1464-.8863-.4626-.3507-1.0415-.8158-2.0759-1.6397-3.0901-2.4894-1.1041-.925-2.1303-1.9575-3.2454-2.8652-.0503-.041-.0955-.0907-.1421-.136-.6924,1.6715-1.3847,3.3431-2.0771,5.0146,4.7151,.0663,9.4328,.5694,14.1308,.9367,6.3972,.5001,12.8019,.9661,19.2181,1.1299,3.4602,.0883,6.9248,.0876,10.3813-.1115,1.5842-.0912,2.9375-1.2848,2.9375-2.9375,0-1.5198-1.3456-3.0292-2.9375-2.9375Z"/></g><g><path d="M736.1594,188.2878s-26.7638,27.4166-18.2777,44.3888c12.9276,25.8552,49.611,14.3611,49.611,14.3611,0,0-4.5694,29.3749,33.9444,16.3194,0,14.3611,11.0972,30.0277,30.6805,16.3194,19.5833-13.7083,12.4028,54.1804,0,67.8888,12.4027,1.9583,23.6679-59.5892,41.1245-52.8751,33.9448,13.0558,10.8451,49.4753-3.0475,59.5282,6.577,8.4842,39.328,18.8978,38.8277-.1108,3.653,2.4075,8.7342,1.5474,12.317-.9634,3.5828-2.5108,5.9707-6.3564,8.1163-10.1691,11.9289-21.1972,19.7919-46.0551,17.6355-70.5988-1.6072-18.2924-12.9099-37.6888-32.071-41.0051-12.4028-64.6249-127.9442-96.6109-178.8607-43.0832Z"/><path d="M734.0823,186.2107c-3.827,3.9257-7.2623,8.3225-10.3898,12.8139-5.1833,7.4438-10.1221,16.2725-10.4012,25.5628-.2928,9.7467,6.7973,18.6186,15.0395,23.1202,7.5012,4.0969,16.3278,5.207,24.7615,4.7018,5.0682-.3036,10.3148-1.0192,15.1813-2.5391-1.2045-1.2045-2.409-2.409-3.6135-3.6135-.5504,3.5712-.3055,7.3856,.7807,10.8311,.9372,2.9729,2.5491,5.8143,4.9105,7.8869,3.1609,2.7742,7.0635,4.0746,11.1951,4.5177,6.9454,.7449,14.145-1.1066,20.6715-3.3028-1.2395-.9442-2.4789-1.8884-3.7184-2.8326,.0563,11.0061,6.1565,23.4532,18.2985,24.4862,3.1338,.2666,6.3862-.4043,9.2898-1.5629,1.8768-.7489,3.6826-1.6305,5.4066-2.6858,1.1013-.6741,2.1271-1.4729,3.2513-2.1084,.2713-.1534,.5655-.271,.8333-.4277,.3786-.2215-.6947,.2286-.1465,.0642,.1612-.0483,.3175-.1148,.479-.1637,.244-.0739,.5107-.0998,.7494-.1822,.4117-.1422-.8103,.016-.2831,.0389,.1375,.006,.291-.0118,.4284-.0189,.1176-.0061,.2492,.0297,.364,.0136,.3442-.0485-.6957-.1821-.3773-.055,.1944,.0776,.5135,.154,.7216,.1896,.4034,.0689-.3867-.2027-.3353-.1454,.0627,.07,.2261,.1056,.3102,.1593,.0978,.0625,.1995,.1285,.3004,.1852,.5131,.2884-.2675-.0995-.2222-.1852-.0022,.0042,.5096,.4665,.5478,.5063,.0896,.0935,.1711,.1945,.2597,.2888,.4245,.4514-.1425-.1889-.1388-.1901,.1281-.0431,.8306,1.3514,.9004,1.4908,.0701,.1402,.1305,.2863,.2025,.4254,.2713,.5241-.2074-.583-.0485-.1258,.112,.3221,.2464,.6365,.3564,.9598,.239,.7021,.4381,1.4175,.6103,2.1387,.19,.7956,.3457,1.5992,.4775,2.4064,.0348,.2131,.0648,.427,.0991,.6401,.111,.6901-.0498-.4691,.011,.063,.0517,.4527,.1089,.9046,.1544,1.3581,.1973,1.9646,.2897,3.9392,.3155,5.9131,.0578,4.4232-.2126,8.8505-.6855,13.2471-.0626,.5819-.1289,1.1634-.199,1.7444-.0352,.2915-.0712,.5828-.1082,.874-.0185,.1457-.1202,.9183-.0785,.6092,.0462-.3429-.0672,.4802-.0855,.6093-.0414,.2916-.0837,.5831-.1269,.8744-.0864,.5825-.1765,1.1644-.2702,1.7457-.3711,2.302-.7996,4.5949-1.2897,6.8745-.9066,4.2161-2.0111,8.4023-3.4607,12.4663-.3099,.8689-.6365,1.7321-.9841,2.5866-.0349,.0857-.3381,.8068-.1534,.3745,.1737-.4064-.1027,.2323-.1574,.356-.176,.398-.3572,.7938-.5447,1.1865-.6682,1.3995-1.4107,2.7719-2.2941,4.0485-.1788,.2584-.9205,1.0505-.2265,.3352-.2172,.2239-.4012,.4896-.6099,.7226-1.3048,1.457-1.0553,4.5696,1.2962,4.9097,3.6659,.5302,6.5696-1.468,8.8075-4.2188,2.7448-3.374,4.7637-7.2662,6.6589-11.1605,4.5395-9.328,8.2261-19.1213,13.5325-28.0616,.5897-.9936,1.203-1.9736,1.8498-2.9311,.2968-.4394,.6006-.8742,.913-1.3027,.1516-.2079,.3087-.4116,.4606-.6191,.2309-.3153-.3571,.4449-.112,.145,.0983-.1204,.1928-.244,.2906-.3648,.6103-.7541,1.2546-1.4822,1.9472-2.162,.3109-.3052,.6311-.6009,.9628-.8833,.0793-.0675,.6835-.5588,.25-.2153-.4131,.3274,.1972-.1397,.3154-.2214,.3203-.2214,.6504-.4289,.9913-.6171,.1647-.0909,.3352-.1702,.5007-.2591,.6201-.3331-.5426,.1524-.0075-.0039,.3218-.094,.63-.2212,.9573-.3015,.1691-.0415,.3496-.0588,.5158-.1077,.4249-.1252-.3846,.0997-.3917,.049-.0006-.0039,.3747-.0339,.3913-.0342,.3504-.0072,.7059,.0288,1.0539,.0179,.4652-.0146-.749-.1753-.1813-.0228,.1986,.0534,.405,.0816,.6044,.1348,1.4391,.3834,2.5762,.9696,3.9277,1.6507,3.0372,1.5308,5.1603,2.962,7.3565,5.2673,.2399,.2518,.474,.5089,.7021,.7715,.1123,.1294,.2217,.2612,.3324,.3919,.053,.0626,.3908,.4807,.1675,.1985-.2216-.2801,.1027,.1364,.1509,.2038,.0966,.1352,.195,.2691,.2901,.4054,.2114,.303,.4151,.6114,.6099,.9253,.3397,.5472,.6539,1.1106,.94,1.6877,.1411,.2846,.2723,.5734,.403,.8628-.2747-.6085,.1237,.3303,.1869,.5037,.4426,1.2142,.7509,2.4601,.9828,3.7301,.028,.1534,.0483,.3083,.0736,.4621-.0163-.099-.0661-.6401-.0121-.0843,.0302,.3117,.0671,.6224,.0914,.9348,.049,.6278,.0736,1.2576,.0757,1.8873,.0022,.6359-.0191,1.2718-.0608,1.9062-.021,.3199-.0477,.6394-.0792,.9584-.0158,.16-.0374,.32-.0514,.4802-.0706,.8055,.1073-.6202-.0209,.1811-.2077,1.2986-.4586,2.5832-.7921,3.8561-.3505,1.3378-.7729,2.6566-1.2528,3.9535-.1176,.3178-.2385,.6342-.3629,.9493-.0623,.158-.1261,.3153-.1894,.4728-.0313,.0779-.238,.5743-.0965,.2382,.1417-.3364-.0695,.1594-.1034,.2362-.0688,.156-.1372,.3122-.207,.4678-.1572,.3505-.3181,.6993-.4828,1.0463-1.2038,2.5357-2.6016,4.9788-4.1487,7.3203-.7535,1.1405-1.5499,2.2488-2.3656,3.3454-.4242,.5703,.1571-.1859-.2813,.367-.174,.2194-.3473,.4394-.5231,.6573-.4435,.5497-.8963,1.092-1.3584,1.6262-1.5497,1.7913-3.2021,3.5008-4.9854,5.0614-.3598,.3149-.7251,.6236-1.0967,.9246-.0763,.0618-.7465,.5841-.3481,.28,.3891-.297-.3214,.2348-.4074,.2974-1.6585,1.2079-1.8467,3.0243-.5945,4.6136,1.8555,2.3549,4.5854,4.0986,7.1871,5.52,3.374,1.8433,7.013,3.289,10.7144,4.3229,6.4328,1.7969,15.1078,3.0885,20.9352-1.1085,3.566-2.5683,5.0867-6.6075,5.0057-10.9223-1.4734,.8455-2.9467,1.691-4.4201,2.5364,4.7992,3.0079,11.1793,2.0243,15.6147-1.2027,4.7234-3.4366,7.6098-8.6421,10.3247-13.6845,5.6737-10.5379,10.2777-21.736,13.2476-33.3408,5.1741-20.2181,6.4508-44.1068-5.5845-62.2395-5.8892-8.8728-14.7011-15.7374-25.341-17.638l2.0517,2.0517c-2.5627-13.2063-9.4407-25.1778-18.5283-34.9817-9.6696-10.4319-21.8039-18.5448-34.685-24.4667-13.8102-6.349-28.5659-10.3598-43.668-12.0274-14.8661-1.6415-30.1366-.8652-44.6326,2.9292-14.2093,3.7193-27.6406,10.5123-38.4975,20.4751-1.2945,1.1879-2.5459,2.4212-3.7591,3.692-2.6108,2.7348,1.5372,6.8956,4.1542,4.1542,2.4802-2.598,5.1299-5.0291,7.9401-7.2665,.1338-.1066,.8886-.6961,.4848-.3849,.3614-.2785,.726-.5529,1.0925-.8246,.732-.5428,1.4734-1.0731,2.2234-1.5908,1.423-.9822,2.8773-1.9188,4.3592-2.8096,3.0053-1.8064,6.1237-3.4233,9.3249-4.8535,.3752-.1676,.7517-.332,1.1288-.4953,.5312-.2299,.1682-.0735,.0551-.0257,.2527-.1066,.5063-.2113,.7601-.3152,.8472-.347,1.6996-.6814,2.5566-1.0034,1.6338-.6138,3.2847-1.1825,4.9493-1.7071,3.3549-1.0573,6.7658-1.9357,10.2108-2.646,1.7825-.3675,3.5743-.69,5.3728-.9691,.4165-.0646,.8333-.127,1.2504-.187,.1856-.0267,.3713-.0524,.5569-.0787,.9197-.1303-.5874,.0702,.335-.0444,.8862-.1101,1.7724-.2179,2.6606-.3116,7.2701-.7677,14.6077-.8619,21.8995-.3613,1.8135,.1245,3.6244,.286,5.4313,.4836,2.1671,.237,3.0672,.3562,5.06,.661,3.5974,.5503,7.1732,1.2424,10.7165,2.0726,7.1194,1.6682,14.1112,3.8923,20.8746,6.673,.1738,.0715,.3474,.1436,.521,.2155,.8348,.3457-.289-.1244,.2069,.0861,.3883,.1648,.7758,.3318,1.1624,.5005,.8569,.3739,1.7097,.757,2.5583,1.1494,1.6027,.741,3.1902,1.5151,4.7605,2.3226,3.1793,1.6349,6.2886,3.4069,9.3083,5.3209,1.4485,.9181,2.8763,1.8689,4.2808,2.8529,.6599,.4624,1.3147,.9321,1.964,1.4092,.3592,.264,.7168,.5302,1.0727,.7987,.142,.1072,.2836,.215,.4253,.3226,.7015,.5331-.4442-.3497,.2495,.1913,2.6611,2.0751,5.2219,4.2792,7.6531,6.6199,2.3737,2.2853,4.6244,4.6994,6.7201,7.2424,.4831,.5862,.9581,1.1791,1.4241,1.7789-.3727-.4798,.3696,.4912,.4575,.609,.2507,.3358,.4987,.6737,.7438,1.0136,.9262,1.2841,1.8124,2.5972,2.6541,3.9383,1.7091,2.7233,3.236,5.5618,4.5451,8.4988,.1336,.2997,.2639,.6008,.394,.9021-.266-.6163,.2134,.524,.2687,.6618,.305,.7608,.5952,1.5275,.8704,2.2996,.5236,1.4685,.9922,2.9568,1.4034,4.4606,.4133,1.5116,.7652,3.0385,1.0637,4.5768,.1775,.9148,1.1271,1.8865,2.0517,2.0517,8.1744,1.4602,15.0882,6.0593,20.0537,12.4453,5.2444,6.7447,8.2874,14.7289,9.564,23.1536,.6933,4.5753,.7765,10.2398,.5513,15.2229-.2459,5.4433-.9474,10.8445-2.0437,16.1808-2.2242,10.8265-5.9348,21.3296-10.7369,31.2752-1.3144,2.7223-2.7073,5.4066-4.1723,8.0508-1.3431,2.4242-2.7009,4.928-4.4853,7.0625-3.0443,3.6416-8.1127,6.7044-12.4651,3.9766-1.8796-1.178-4.4612,.3492-4.4201,2.5364,.0083,.4419,.0056,.883-.0215,1.3243-.0116,.19-.0347,.3794-.0461,.5693-.0446,.7394,.1643-.6108-.0162,.0869-.0866,.3348-.1358,.6785-.2294,1.0128-.0732,.2617-.5467,1.3688-.1639,.5853-.2732,.5592-.5744,1.0674-.9194,1.5837,.491-.735-.072,.0549-.2294,.2176-.2474,.2558-.5165,.4786-.7835,.7127,.6747-.5915-.0904,.0407-.2774,.1574-.256,.1598-.5199,.3071-.7894,.4431-.1645,.0831-.3338,.1552-.4993,.2358,.669-.3261,.352-.1352,.1841-.0823-.3644,.115-.7188,.2576-1.0869,.3634-.6744,.194-1.359,.326-2.051,.4385-.4402,.0715,.7563-.0555,.0603-.0116-.2103,.0133-.4207,.0428-.6309,.0595-.3945,.0313-.7899,.051-1.1855,.0616-.7834,.021-1.5675,.0041-2.3497-.0427-.3842-.023-.7679-.0534-1.1509-.0904-.2089-.0202-1.6117-.2091-.8556-.0925-1.6817-.2591-3.3442-.596-4.9882-1.0371-1.6949-.4548-3.3652-1.002-5.0026-1.6333-.4112-.1585-.8199-.3233-1.2272-.4917,.6358,.2629-.4235-.1886-.601-.2687-.7666-.346-1.5242-.7123-2.2699-1.1013-1.4788-.7714-2.8894-1.6407-4.2481-2.6071-.1019-.0725-.2-.1507-.3007-.2248,.7097,.5218,.0268,.0139-.1161-.1049-.2419-.2013-.4791-.4081-.7096-.6224-.4705-.4374-.9106-.9029-1.3083-1.4077l-.5945,4.6136c4.2146-3.0697,7.7361-6.8966,10.8869-11.0302,3.5375-4.6409,6.4461-9.7283,8.5455-15.1771,2.0378-5.2889,3.1909-11.1131,2.4645-16.7783-.7765-6.0559-3.686-11.5455-8.3591-15.5112-2.9598-2.5118-6.2879-4.375-9.8601-5.8641-2.1888-.9124-4.2499-1.354-6.6164-.9674-3.8033,.6213-6.9535,3.55-9.2715,6.448-6.5483,8.1869-10.4441,18.3089-14.7427,27.7684-2.0337,4.4753-4.0738,8.9895-6.6115,13.2076-.5132,.853-1.05,1.6927-1.6268,2.5043-.1255,.1766-.2547,.3503-.3822,.5255-.4164,.572,.2287-.2542-.0183,.0254-.2766,.3131-.5297,.6459-.8119,.955-.2453,.2687-.4989,.53-.7644,.7788-.1404,.1316-.2889,.2541-.4302,.3844-.4944,.4557,.5141-.3234,.0683-.0451-.2576,.1608-.5048,.3345-.7664,.4902-.0965,.0574-.3098,.1128-.3838,.1931,.1681-.1822,.7262-.203,.1733-.0891-.1391,.0286-.2997,.0713-.433,.1168-.5284,.1803,.1993-.0634,.2989-.0315-.1894-.0606-1.5277-.1265-.1376,.0745,.4321,1.6366,.8641,3.2731,1.2962,4.9097,2.342-2.6153,3.8917-5.7663,5.2335-8.9796,1.5927-3.8142,2.8008-7.7795,3.8026-11.7865,2.2842-9.1369,3.642-18.6151,3.9226-28.0311,.1259-4.2249-.0217-8.4416-.614-12.6293-.4338-3.0668-1.1557-6.2957-2.7942-8.9678-1.5224-2.4829-3.9734-4.356-6.9918-4.3264-1.5972,.0157-3.1098,.532-4.5196,1.2474-2.5985,1.3186-4.8223,3.2232-7.5351,4.3756-2.8827,1.2246-5.2226,1.663-8.1822,1.3969-.3509-.0316,.032,.0076,.0875,.0161-.1817-.0278-.3631-.0595-.5435-.0946-.2671-.052-.5331-.1117-.7967-.1793-.3033-.0778-.6037-.1664-.901-.2647-.2037-.0674-.9434-.3562-.762-.2767,.2975,.1304-.0986-.0515-.1291-.0668-.1563-.0781-.3138-.1532-.4686-.2343-.2314-.1212-.4596-.249-.6839-.3828-.2615-.156-.5175-.3208-.7686-.4929-.1436-.0984-.2849-.1998-.4253-.3027-.3659-.2682,.3245,.269-.0241-.0227-2.1367-1.7881-3.1143-3.1312-4.3655-5.6382-.1245-.2495-.2418-.5023-.36-.7548-.245-.5235-.089-.1869-.0393-.0698-.055-.1295-.1069-.2607-.1581-.3917-.2578-.6608-.4932-1.3292-.6992-2.0081-.3895-1.2836-.6679-2.5901-.8835-3.913-.0034-.021-.0669-.4904-.027-.1795,.0442,.3439-.0263-.2496-.0336-.3235-.0331-.3338-.0654-.6672-.0892-1.0019-.0473-.6667-.0679-1.3343-.0713-2.0026-.0093-1.8191-1.8823-3.4504-3.7184-2.8326-3.2086,1.0797-6.4725,2.0109-9.8045,2.6248-.6665,.1228-1.3355,.2351-2.0068,.3282,.4531-.0629-.4056,.0467-.5419,.0618-.3767,.0416-.754,.0781-1.1318,.1087-1.1711,.0949-2.3472,.1372-3.522,.1065-.5513-.0144-1.1025-.0445-1.6519-.0931-.2246-.0199-.4484-.0484-.6729-.0688-.1581-.0144-.5719-.0941,.1286,.0194-.141-.0229-.2831-.0399-.4236-.066-.9201-.171-1.8287-.3647-2.7207-.6521-.38-.1224-.7488-.2699-1.1233-.4071-.0927-.034,.5637,.2687-.0269-.0205-.18-.0881-.3611-.1731-.5391-.2653-.6818-.3529-1.2732-.8238-1.9298-1.2081-.1498-.0877,.5148,.4455,.107,.0753-.1316-.1195-.2722-.2296-.4046-.3485-.2592-.2329-.509-.4762-.7486-.7292-.2342-.2472-.4423-.5162-.6718-.7668-.3245-.3545,.3668,.5432,.1084,.1417-.1018-.1582-.222-.3061-.3279-.462-.3632-.5347-.6885-1.095-.9769-1.6734-.0899-.1803-.4825-.99-.2474-.5081,.236,.4836-.142-.3741-.2142-.5768-.3876-1.0867-.6655-2.2112-.8528-3.3492-.0223-.1358-.0397-.2725-.063-.4081-.097-.5628,.0693,.6891,.0363,.2657-.0202-.2589-.0583-.5171-.0809-.776-.0404-.4623-.067-.9257-.0806-1.3896-.0239-.8169-.0088-1.6359,.053-2.4509,.018-.238,.0496-.4751,.0673-.7129,.0434-.5843-.125,.8665-.0676,.4945,.3193-2.0719-1.2677-4.3461-3.6135-3.6135-1.0309,.322-2.0863,.5749-3.1385,.8154-1.1738,.2682-2.355,.504-3.5411,.7105-.7157,.1246-1.4335,.2343-2.1521,.3409-.8031,.1191,.4692-.0511-.3766,.0507-.4705,.0566-.9408,.1137-1.4121,.1634-3.6427,.3836-7.3234,.4839-10.9769,.1941-.4086-.0324-.8168-.0697-1.2245-.1122-.227-.0237-1.6335-.2083-.9436-.1067-1.0777-.1589-2.1501-.3437-3.2143-.5777-1.9587-.4308-3.8653-1.0222-5.7344-1.7467-.1353-.0525-.6632-.2814-.1324-.0505-.2374-.1033-.4739-.2082-.709-.3167-.4722-.2178-.939-.4473-1.3996-.6886-.9314-.488-1.8375-1.0244-2.7113-1.6094-.4432-.2967-.8782-.6058-1.3038-.9273,.4905,.3706-.2133-.1742-.2528-.2065-.2103-.1719-.418-.3469-.6231-.525-.838-.7274-1.6318-1.5056-2.3762-2.3284-1.4728-1.628-2.6123-3.2967-3.78-5.522-.1373-.2616-.2687-.5257-.3999-.7904-.0462-.0932-.3534-.847-.0993-.1976-.1778-.4544-.3406-.9131-.4784-1.3814-.1143-.3887-.2132-.782-.2977-1.1782-.0507-.238-.0836-.4805-.1362-.7177-.0518-.3397-.052-.3212-.0006,.0557-.0201-.1622-.038-.3247-.0537-.4874-.0707-.9104-.1063-1.816-.0683-2.7291,.0211-.5069,.0601-1.013,.1147-1.5173,.0107-.0987,.1392-.9396,.0268-.2393,.055-.3425,.1094-.6847,.1737-1.0257,.3999-2.1202,1.037-4.1918,1.8136-6.2029,.0999-.2588,.2033-.5161,.3069-.7734,.3328-.8269-.1302,.2932,.0811-.1979,.2031-.4718,.4135-.9404,.6305-1.406,.5157-1.1066,1.0682-2.1959,1.6498-3.2692,1.0385-1.9168,2.1696-3.7828,3.3658-5.605,1.2537-1.9098,2.5799-3.7716,3.9623-5.5903,.1446-.1903,.2899-.3801,.4358-.5695-.4446,.5769,.174-.2197,.2542-.3217,.3191-.4054,.641-.8086,.9656-1.2095,.5448-.6728,1.0971-1.3396,1.6571-1.9998,1.1695-1.3788,2.3607-2.7487,3.6233-4.0439,2.6409-2.709-1.5093-6.8674-4.1542-4.1542Z"/></g><path d="M937.3469,595.9226c-2.7112,24.7021-2.4984,49.7005,.5679,74.3598,3.0815,24.7817,8.9037,49.1883,17.531,72.6295,4.8373,13.1436,10.5195,25.9802,17.0178,38.3869,1.7549,3.3505,6.8271,.384,5.0729-2.9652-11.3477-21.6652-20.1045-44.6275-26.1745-68.3176-6.0862-23.7534-9.4472-48.1678-9.9673-72.6839-.2933-13.8254,.3186-27.6637,1.8272-41.4096,.1733-1.5794-1.4742-2.9375-2.9375-2.9375-1.7322,0-2.7636,1.3535-2.9375,2.9375h0Z"/><g><path d="M775.3708,339.9674c1.1297-4.2769,6.2588-4.3249,8.7043-1.3549,2.0782,2.5239,2.9314,8.2782,1.5627,11.2554-.6807,1.4807-2.5973,2.0961-4.1738,1.683-1.6747-.4389-3.2125-1.9063-4.3478-3.744-1.5306-2.4776-2.3295-5.6283-1.7455-7.8395Z"/><path d="M777.2591,340.488c.0448-.1602,.0986-.3161,.1477-.4748,.1482-.4792-.199,.3073,.0508-.1076,.1274-.2116,.2432-.4244,.3851-.6279-.293,.4202,.1668-.1344,.2517-.2258,.3038-.3271-.3494,.2043,.0252-.0304,.113-.0708,.2217-.1466,.3383-.2122,.1159-.0652,.2365-.118,.3548-.1781-.4119,.2089-.2129,.0833-.0988,.053,.2582-.0686,.5092-.1363,.7715-.1894-.5042,.102,.0673,.0092,.2804,.0103,.113,.0005,.2254,.011,.3381,.0131,.5103,.0092-.2996-.0838,.0886,.0069,.225,.0526,.4491,.0972,.6699,.1667,.1334,.042,.262,.0952,.3942,.1401-.4147-.141-.1814-.0822-.0822-.0278,.2502,.1371,.4917,.2794,.7362,.4262,.0859,.0516,.2794,.2273-.0503-.0504,.1481,.1248,.2952,.2484,.4334,.3843,.1028,.1011,.5731,.6881,.263,.2575,.1436,.1995,.2804,.4023,.4053,.6141,.1327,.225,.2538,.4567,.3659,.6926,.0287,.0603,.2315,.558,.0656,.1343,.0723,.1845,.1425,.3694,.2073,.5567,.2025,.5849,.3634,1.184,.4888,1.79,.0612,.2958,.1118,.5931,.1579,.8916-.0683-.4417,.0147,.15,.0197,.199,.0182,.1794,.0333,.3592,.0451,.5392,.0422,.6411,.045,1.2859-.0042,1.9267-.0086,.1118-.0214,.2231-.0306,.3348-.0449,.5443,.0906-.3953-.0199,.1279-.0644,.3051-.1201,.6082-.2084,.9079-.0417,.1414-.0932,.2787-.1383,.4188-.1074,.3332,.0042-.0203,.0357-.076-.0829,.1463-.1509,.2936-.2492,.4316,.2541-.3565-.0774,.0382-.1314,.0908,.0634-.0617,.3116-.1792,.0027-.0085-.1465,.081-.2844,.17-.4381,.2385,.3475-.155,.0717-.0342-.0043-.0191-.0987,.0196-.7808,.1187-.3133,.0903-.1419,.0086-.2848,.0055-.4263,.0138-.1125,.0066-.4847-.0547-.0718,.0165-.2879-.0497-.5751-.1279-.8455-.2394,.3768,.1552-.1749-.1071-.2022-.1224-.168-.0944-.3263-.2009-.4877-.3056-.0323-.021-.2877-.2193-.0767-.0508-.2124-.1696-.4124-.3569-.6048-.5486-1.0357-1.0312-1.9212-2.5689-2.3797-3.8895-.1379-.3973-.2573-.801-.3559-1.2098-.0481-.1992-.0911-.3998-.1282-.6013-.0026-.014-.0833-.6342-.0458-.2689-.0388-.3787-.059-.7592-.0483-1.1399,.0051-.181,.0171-.3616,.0356-.5417-.0467,.4537,.0618-.2407,.0832-.3274,.2447-.993-.3174-2.1697-1.3678-2.409-1.0116-.2304-2.1468,.3037-2.409,1.3678-.9553,3.8769,.7851,8.2211,3.275,11.1674,1.2606,1.4916,2.9808,2.6916,4.9448,2.9555,2.0067,.2696,4.0714-.5009,5.2785-2.1504,.9495-1.2974,1.2033-3.1175,1.269-4.6802,.0707-1.6815-.1528-3.4187-.5901-5.0417-.8341-3.0953-2.6661-5.8939-5.8888-6.8223-1.6877-.4861-3.4781-.331-5.0548,.4299-1.6497,.7962-2.751,2.4158-3.2336,4.1418-.2756,.9859,.3394,2.1747,1.3678,2.409,1.0384,.2365,2.1138-.3119,2.409-1.3678Z"/></g><path d="M775.3602,283.2146c2.0062-.9131,4.6031-1.0787,6.7976-.5616,2.4519,.5777,4.445,1.7603,6.0877,3.724,.6791,.8118,2.0684,.7011,2.7695,0,.8036-.8036,.6807-1.9557,0-2.7695-4.236-5.0638-11.7152-6.4677-17.6316-3.7748-.9627,.4382-1.1977,1.8328-.7026,2.6794,.5787,.9894,1.7131,1.1424,2.6794,.7026h0Z"/><path d="M731.1545,272.3287c.1074-.055,.219-.1033,.3251-.1602,.2391-.1284-.3239,.1186-.0693,.0259,.2039-.0743,.4052-.1515,.6129-.2149,.207-.0632,.4167-.1173,.628-.1635,.1175-.0257,.2361-.0455,.3539-.0697,.2693-.0554,.0142,.0343-.0922,.0069,.1669,.043,.4694-.0453,.648-.0534,.2168-.0098,.434-.0118,.651-.0056,.2417,.0069,.4818,.0266,.7224,.05,.2736,.0267,.0129-.0355-.0896-.0121,.0962-.022,.2631,.0456,.3567,.0643,.4264,.0854,.8464,.2013,1.256,.3473,.0909,.0324,.1801,.0698,.2711,.1016,.2282,.0799-.3355-.1614-.0021,.0012,.1951,.0952,.3895,.1891,.5794,.2948,.1891,.1053,.3745,.2175,.5548,.3374,.0801,.0532,.1582,.1093,.2376,.1637,.3844,.2632-.197-.1779,.0047,.0004,.3459,.306,.6786,.6083,.9834,.957,.6765,.7738,2.0868,.7437,2.7695,0,.7573-.8249,.7215-1.9441,0-2.7695-3.1022-3.5487-8.5406-4.4022-12.6779-2.2835-.9135,.4678-1.2536,1.8246-.7026,2.6794,.6009,.9321,1.7023,1.2029,2.6794,.7026h0Z"/><g><path d="M733.6368,290.7871c-1.4093,2.4508-3.895,3.7908-6.6305,3.3558-.5168-.0822-1.0398-.2047-1.4803-.4871-.5411-.3468-.9116-.9055-1.1944-1.4826-1.1432-2.3324-1.0225-5.2393,.3101-7.469,1.8111-3.0304,6.6082-3.0876,8.7141-.2786,1.3482,1.7984,1.4015,4.413,.2811,6.3615Z"/><path d="M731.9458,289.7987c-.1322,.2251-.2798,.5648-.4799,.7362,.352-.3017,.0312-.0436-.0506,.0512-.0922,.1067-.1873,.2109-.2858,.3119-.1623,.1665-.3367,.3169-.5087,.4729-.345,.3131,.3515-.2225-.0379,.0284-.1525,.0982-.2998,.2024-.4566,.2942-.1759,.103-.4448,.178-.5996,.3088l.2197-.0928c-.0835,.0331-.1677,.0643-.2526,.0936-.1275,.0441-.2565,.0839-.3866,.1193-.1307,.0356-.2626,.0668-.3954,.0935l-.1336,.0253c-.2174,.0348-.1791,.0309,.1147-.0118-.1086,.1091-.6838,.038-.8322,.0342-.1422-.0036-.283-.0177-.4249-.0251-.4879-.0255,.445,.1041-.0643-.0101-.1801-.0404-.6212-.0621-.7626-.1913l.1788,.0788c-.0944-.0446-.1855-.095-.2735-.1512l.1584,.1318c-.0755-.0628-.1473-.1296-.2155-.2003-.346-.2818,.1696,.319-.0648-.0649-.091-.1491-.1855-.2938-.268-.4481-.0597-.1116-.1124-.2261-.169-.3392-.2283-.4558,.111,.379-.0406-.1073-.0929-.298-.1953-.589-.2664-.8938-.0295-.1263-.0554-.2533-.0787-.3809-.0235-.1293-.1367-.4435-.0096-.0182-.0961-.3217-.056-.7555-.0486-1.0882,.0056-.2488-.0053-.5334,.0546-.7766-.1225,.4974,.0089-.0028,.027-.0945,.0301-.1527,.0647-.3045,.1037-.4552,.0702-.2712,.1326-.6509,.2868-.8876-.2048,.3145-.0644,.1385-.0144,.0386,.093-.1859,.1817-.3726,.2849-.5534,.0653-.1144,.1331-.2272,.2065-.3366l.0674-.0976c.1225-.1667,.092-.1275-.0913,.1175,.1103-.0325,.2986-.3269,.3978-.4188,.0769-.0713,.1968-.1417,.2602-.2238-.2567,.3323-.2174,.1638-.027,.0399,.2081-.1354,.4344-.2301,.6471-.3544,.2252-.1317-.4756,.1656-.0997,.0461,.1087-.0346,.2151-.0749,.3247-.1073,.2204-.0652,.4434-.1091,.6686-.1532,.3944-.0772-.3901,.0102-.1221,.0186,.0937,.0029,.1929-.016,.2869-.0202,.2705-.0121,.5365,.0044,.8063,.0195,.4219,.0236-.4765-.0962-.0629-.0091,.0753,.0159,.1515,.0278,.2268,.0439,.2258,.0484,.4487,.1103,.667,.1858,.2186,.0756,.2965,.2315-.0382-.0286,.0819,.0637,.219,.1016,.312,.1501,.2065,.1077,.3969,.2343,.5921,.3606,.3478,.225-.3323-.3056-.0297-.0211,.1139,.1071,.2318,.208,.3405,.3208,.0335,.0347,.1959,.2608,.2363,.2639l-.1585-.2093c.0585,.078,.1147,.1577,.1685,.2391,.0805,.1215,.1556,.2465,.2254,.3744,.0464,.0851,.0904,.1715,.1321,.259,.09,.1982,.0812,.1759-.0264-.0669,.1541,.1697,.1965,.609,.245,.8371l.0284,.143c.0362,.2207,.0342,.1916-.0061-.0873,.0635,.1518,.0337,.4209,.0358,.5841,.002,.1466-.0013,.2933-.0098,.4397-.0057,.0977-.0136,.1952-.0239,.2925l.0322-.2294c.023,.3027-.1458,.714-.24,.998-.0322,.097-.1375,.5601-.0144,.079-.0454,.1775-.1769,.3635-.2656,.5224-.4991,.8947-.2452,2.1786,.7026,2.6794,.923,.4877,2.1463,.2529,2.6794-.7026,1.6174-2.8994,1.3833-6.7426-.9713-9.1856-1.8801-1.9507-4.9413-2.6476-7.5125-1.8576-1.3393,.4114-2.5448,1.186-3.4036,2.2977-1.0491,1.3579-1.5746,2.9847-1.781,4.6721-.3977,3.252,.9719,7.6018,4.5937,8.2887,1.861,.353,3.659,.1484,5.373-.6629,1.5632-.7399,2.8348-2.0764,3.7018-3.5523,.5192-.8839,.231-2.1861-.7026-2.6794-.9404-.4969-2.125-.2412-2.6794,.7026Z"/></g><g><path d="M781.2895,299.926c-1.4093,2.4508-3.895,3.7908-6.6305,3.3558-.5168-.0822-1.0398-.2047-1.4803-.4871-.5411-.3468-.9116-.9055-1.1944-1.4826-1.1432-2.3324-1.0225-5.2393,.3101-7.469,1.8111-3.0304,6.6082-3.0876,8.7141-.2786,1.3482,1.7984,1.4015,4.413,.2811,6.3615Z"/><path d="M779.5985,298.9376c-.1322,.2251-.2798,.5648-.4799,.7362,.352-.3017,.0312-.0436-.0506,.0512-.0922,.1067-.1873,.2109-.2858,.3119-.1623,.1665-.3367,.3169-.5087,.4729-.345,.3131,.3515-.2225-.0379,.0284-.1525,.0982-.2998,.2024-.4566,.2942-.1759,.103-.4448,.178-.5996,.3088l.2197-.0928c-.0835,.0331-.1677,.0643-.2526,.0936-.1275,.0441-.2565,.0839-.3866,.1193-.1307,.0356-.2626,.0668-.3954,.0935l-.1336,.0253c-.2174,.0348-.1791,.0309,.1147-.0118-.1086,.1091-.6838,.038-.8322,.0342-.1422-.0036-.283-.0177-.4249-.0251-.4879-.0255,.445,.1041-.0643-.0101-.1801-.0404-.6212-.0621-.7626-.1913l.1788,.0788c-.0944-.0446-.1855-.095-.2735-.1512l.1584,.1318c-.0755-.0628-.1473-.1296-.2155-.2003-.346-.2818,.1696,.319-.0648-.0649-.091-.1491-.1855-.2938-.268-.4481-.0597-.1116-.1124-.2261-.169-.3392-.2283-.4558,.111,.379-.0406-.1073-.0929-.298-.1953-.589-.2664-.8938-.0295-.1263-.0554-.2533-.0787-.3809-.0235-.1293-.1367-.4435-.0096-.0182-.0961-.3217-.056-.7555-.0486-1.0882,.0056-.2488-.0053-.5334,.0546-.7766-.1225,.4974,.0089-.0028,.027-.0945,.0301-.1527,.0647-.3045,.1037-.4552,.0702-.2712,.1326-.6509,.2868-.8876-.2048,.3145-.0644,.1385-.0144,.0386,.093-.1859,.1817-.3726,.2849-.5534,.0653-.1144,.1331-.2272,.2065-.3366l.0674-.0976c.1225-.1667,.092-.1275-.0913,.1175,.1103-.0325,.2986-.3269,.3978-.4188,.0769-.0713,.1968-.1417,.2602-.2238-.2567,.3323-.2174,.1638-.027,.0399,.2081-.1354,.4344-.2301,.6471-.3544,.2252-.1317-.4756,.1656-.0997,.0461,.1087-.0346,.2151-.0749,.3247-.1073,.2204-.0652,.4434-.1091,.6686-.1532,.3944-.0772-.3901,.0102-.1221,.0186,.0937,.0029,.1929-.016,.2869-.0202,.2705-.0121,.5365,.0044,.8063,.0195,.4219,.0236-.4765-.0962-.0629-.0091,.0753,.0159,.1515,.0278,.2268,.0439,.2258,.0484,.4487,.1103,.667,.1858,.2186,.0756,.2965,.2315-.0382-.0286,.0819,.0637,.219,.1016,.312,.1501,.2065,.1077,.3969,.2343,.5921,.3606,.3478,.225-.3323-.3056-.0297-.0211,.1139,.1071,.2318,.208,.3405,.3208,.0335,.0347,.1959,.2608,.2363,.2639l-.1585-.2093c.0585,.078,.1147,.1577,.1685,.2391,.0805,.1215,.1556,.2465,.2254,.3744,.0464,.0851,.0904,.1715,.1321,.259,.09,.1982,.0812,.1759-.0264-.0669,.1541,.1697,.1965,.609,.245,.8371l.0284,.143c.0362,.2207,.0342,.1916-.0061-.0873,.0635,.1518,.0337,.4209,.0358,.5841,.002,.1466-.0013,.2933-.0098,.4397-.0057,.0977-.0136,.1952-.0239,.2925l.0322-.2294c.023,.3027-.1458,.714-.24,.998-.0322,.097-.1375,.5601-.0144,.079-.0454,.1775-.1769,.3635-.2656,.5224-.4991,.8947-.2452,2.1786,.7026,2.6794,.923,.4877,2.1463,.2529,2.6794-.7026,1.6174-2.8994,1.3833-6.7426-.9713-9.1856-1.8801-1.9507-4.9413-2.6476-7.5125-1.8576-1.3393,.4114-2.5448,1.186-3.4036,2.2977-1.0491,1.3579-1.5746,2.9847-1.781,4.6721-.3977,3.252,.9719,7.6018,4.5937,8.2887,1.861,.353,3.659,.1484,5.373-.6629,1.5632-.7399,2.8348-2.0764,3.7018-3.5523,.5192-.8839,.231-2.1861-.7026-2.6794-.9404-.4969-2.125-.2412-2.6794,.7026Z"/></g><g><path d="M146.6227,152.9706c-6.9551-10.3446-13.2183-21.1542-18.7339-32.3329,5.6737-2.8833,11.7427-4.9873,17.9836-6.2343,.3071,15.0012,1.7045,29.9799,4.1774,44.7791-1.8655-3.0232-3.7311-6.0463-5.5966-9.0695" style="fill:#f4d13b;"/><path d="M149.1592,151.488c-6.9486-10.3538-13.2071-21.1553-18.7339-32.3329-.3513,1.3397-.7026,2.6794-1.0538,4.019,5.4717-2.7582,11.2787-4.7182,17.2819-5.9382l-3.7184-2.8326c.3247,15.269,1.7772,30.4951,4.2823,45.56,1.7897-.7545,3.5793-1.509,5.369-2.2635-1.8655-3.0232-3.7311-6.0463-5.5966-9.0695-1.9819-3.2117-7.0659-.2645-5.0729,2.9652,1.8655,3.0232,3.7311,6.0463,5.5966,9.0695,.7633,1.237,2.3208,1.7942,3.6682,1.2019,1.4263-.627,1.9482-1.9777,1.7008-3.4654-2.419-14.5468-3.759-29.2557-4.0725-43.9981-.0426-2.0058-1.8354-3.2152-3.7184-2.8326-6.4979,1.3205-12.7659,3.5465-18.6853,6.5304-1.4852,.7487-1.7213,2.6692-1.0538,4.019,5.5268,11.1776,11.7853,21.9791,18.7339,32.3329,.883,1.3158,2.5894,1.8901,4.019,1.0538,1.3058-.7638,1.9419-2.6957,1.0538-4.019h0Z" style="fill:#f4d13b;"/></g><g><path d="M226.8462,110.2859c-1.4849-.8222-34.2449,36.5824-37.0179,39.9473,4.495-17.0032,9.5725-32.3255,16.8514-48.3114,.311-.683,.73-1.4501,1.4684-1.5837,.5263-.0951,1.0429,.1728,1.5108,.4318,5.7291,3.172,11.4582,6.344,17.1872,9.5159Z" style="fill:#f4d13b;"/><path d="M228.3288,107.7495c-2.9337-1.2821-5.2189,1.5081-7.1181,3.3824-2.8547,2.8173-5.5831,5.7648-8.3015,8.7127-6.5931,7.1497-13.0568,14.4203-19.4661,21.735-1.9095,2.1793-3.8465,4.3422-5.692,6.5765l4.9097,2.858c2.3818-8.9911,5.0298-17.9132,8.1313-26.6841,1.5258-4.3149,3.1583-8.592,4.9024-12.8234,.8519-2.0667,1.7372-4.1194,2.6472-6.1611,.2245-.5037,.4495-1.0073,.6782-1.5092,.0242-.0531,.3223-.5758,.3367-.7277,.0258-.2717,.1314-.1653,.0785-.2291l-.8091,.1183c-.8474-.0388-1.0572,.0324-.6294,.2134,.1603,.2076,.5854,.3197,.8242,.4519,.6445,.3568,1.289,.7137,1.9336,1.0705,4.8697,2.6962,9.7394,5.3924,14.6092,8.0885,3.3104,1.8328,6.2772-3.2392,2.9652-5.0729-4.7265-2.6169-9.453-5.2338-14.1795-7.8506-2.3509-1.3016-5.185-3.5287-7.9124-1.9237-2.1097,1.2415-2.9005,4.2293-3.8217,6.3407-4.0734,9.3369-7.6219,18.8874-10.6704,28.6068-1.7159,5.4709-3.2809,10.9875-4.7491,16.5297-.704,2.6576,2.9593,5.2194,4.9097,2.858,4.1667-5.0447,8.5904-9.8951,12.9379-14.7828,6.1425-6.9057,12.2919-13.8296,18.7445-20.4492,1.1157-1.1446,2.2392-2.2869,3.4216-3.3631,.204-.1856,.4092-.3701,.6197-.5484,.0892-.0755,.1818-.1476,.2696-.2246,.3819-.3352-.3144,.233-.2969,.2271,.1376-.0464,.2392-.2055,.381-.2546,.3958-.1371-.637,.2443-.5258,.2132-.6265,.175-1.298,.0421-2.0935-.3056,1.4525,.6348,3.1529,.4271,4.019-1.0538,.7281-1.2448,.4075-3.3804-1.0538-4.019Z" style="fill:#f4d13b;"/></g><g><path d="M90.0972,199.8369c8.0158,6.8234,28.4697-.5717,37.37-.5407-5.9771-5.6904-13.8425-8.8791-21.5062-11.9409-4.7168-1.8845-9.4337-3.769-14.1505-5.6535-.413-.165-.8463-.3331-1.2888-.2878-1.2786,.1309-1.6965,1.7683-1.7587,3.0521-.2223,4.5877,.0014,9.1968,.667,13.7414,.087,.5942,.2099,1.2401,.6672,1.6294Z" style="fill:#f4d13b;"/><path d="M88.02,201.914c4.1961,3.4744,9.7821,3.9765,15.0371,3.682,5.8603-.3285,11.6284-1.5533,17.398-2.5543,.6745-.117,1.3496-.2309,2.0259-.3375,.3224-.0508,.6451-.1003,.9681-.1474,.1792-.0261,.3585-.0519,.538-.0764-.2846,.0388-.275,.0337,.0043,.0022,1.1565-.1305,2.3106-.2457,3.4758-.2489,2.4822-.007,3.9581-3.2465,2.0771-5.0146-6.2592-5.8835-14.156-9.2337-22.0224-12.3845-4.3667-1.749-8.7364-3.4907-13.1046-5.2359-2.3095-.9227-4.9158-1.9116-6.9232,.2327-1.4983,1.6004-1.6525,3.7878-1.717,5.864-.0841,2.7053-.0139,5.4154,.2107,8.1127,.2227,2.6747,.141,6.0128,2.0323,8.1059,1.064,1.1776,3.0724,1.0818,4.1542,0,1.1711-1.1711,1.0668-2.9736,0-4.1542,.2485,.5074,.2975,.5164,.1471,.0271-.0485-.2816-.0914-.5641-.1285-.8474-.0748-.5523-.1347-1.1072-.1924-1.6615-.136-1.3052-.2359-2.6142-.2995-3.925s-.091-2.6233-.082-3.9355c.0045-.6561,.018-1.3122,.0407-1.968,.0113-.3279,.0249-.6557,.0408-.9834,.03-.3548,.0304-.402,.0012-.1415,.0382-.2065,.0889-.4098,.1523-.61-.0315,.1174-.1,.2077-.2056,.271-.3115,.2333-.6576,.3636-1.0381,.3907,.2942,.1077,.5861,.2212,.8758,.3404,1.2195,.4804,2.4346,.9727,3.6518,1.459,2.3584,.9423,4.7168,1.8845,7.0753,2.8268,8.0954,3.2343,16.7117,6.2937,23.177,12.3709,.6924-1.6715,1.3847-3.3431,2.0771-5.0146-2.9228,.0082-5.8517,.5433-8.7225,1.0436-3.4144,.5951-6.8166,1.2625-10.2472,1.7616-2.8001,.4074-6.5487,.7651-9.7695,.5725-.3905-.0234-.7788-.0647-1.1687-.0948-.3581-.0431-.3818-.0429-.071,.0006-.1855-.0263-.3706-.055-.5553-.0862-.7116-.1207-1.4176-.2787-2.1086-.4882-.3311-.1004-.655-.2173-.9796-.3366,.6258,.2301-.3293-.1589-.4447-.2187-.2918-.1513-.5668-.3253-.8496-.4917-.136-.0878-.2696-.179-.4009-.2737,.272,.2178,.2802,.2221,.0245,.0126-1.221-1.011-2.9584-1.1958-4.1542,0-1.0413,1.0413-1.2279,3.1376,0,4.1542Z" style="fill:#f4d13b;"/></g><g><path d="M238.2617,472.6295c-2.961-7.574-2.4737-14.1047-3.8248-21.8843-.8294-4.776-8.266-20.6898-6.8045-24.4892-5.9307,15.4171-7.8784,31.9-13.1268,47.6499,7.4768,.409,14.9535,.8181,22.4303,1.2271,.4077,.0223,.8495,.0355,1.185-.1971,.686-.4758,.4448-1.5288,.1409-2.3064Z" style="fill:#f4d13b;"/><path d="M241.0942,471.8486c-1.565-4.0865-2.2503-8.317-2.6859-12.6499-.3623-3.6033-.5251-7.3702-1.537-10.8639-1.541-5.3204-3.8375-10.3977-5.4238-15.7075-.4028-1.3481-.7051-2.702-1.0001-4.0753-.094-.4375,.0279,.5374-.0267-.2101-.0172-.2354-.038-.4703-.0399-.7066-.0014-.18,.117-.918-.0103-.3698-.1324,.5704,.0459-.0908,.0944-.2286,.527-1.4964-.5983-3.2141-2.0517-3.6135-1.6546-.4546-3.0451,.5639-3.6135,2.0517-5.8993,15.4429-7.9412,31.9893-13.1268,47.6499-.6317,1.9077,1.0279,3.6197,2.8326,3.7184,5.2337,.2863,10.4675,.5726,15.7012,.859,2.4606,.1346,5.0959,.5549,7.5483,.3305,3.209-.2937,4.3291-3.4429,3.3391-6.1843-.5386-1.4914-1.9985-2.4955-3.6135-2.0517-1.4403,.3958-2.5931,2.1141-2.0517,3.6135,.0803,.203,.1479,.4102,.2027,.6215-.0491-.5444,.1645-1.0354,.6407-1.473l1.4826-.4011c-1.8712,.2223-3.9226-.1321-5.8037-.235-1.9107-.1045-3.8215-.2091-5.7322-.3136-3.9045-.2136-7.8091-.4272-11.7136-.6408l2.8326,3.7184c5.1857-15.6606,7.2275-32.2069,13.1268-47.6499-1.8884-.5206-3.7768-1.0412-5.6651-1.5618-.758,2.1524-.0659,4.8069,.481,6.9243,.7341,2.8421,1.7294,5.616,2.7265,8.3741,.964,2.6665,1.9883,5.3156,2.8575,8.0152,.9534,2.9611,1.2328,6.0314,1.5401,9.1163,.5255,5.2764,1.1148,10.5193,3.0242,15.5053,.567,1.4807,1.9775,2.5012,3.6135,2.0517,1.4169-.3894,2.6221-2.124,2.0517-3.6135Z" style="fill:#f4d13b;"/></g><g><path d="M272.7651,464.7668c5.0104-2.7425,6.8488-8.9556,13.3412-10.197-2.1449-10.3222-19.6637-14.9299-28.1382-18.0302,4.8743,1.7795,11.6185,24.2763,13.2521,28.9162,.5491-.1923,1.0617-.4245,1.5449-.689Z" style="fill:#f4d13b;"/><path d="M274.2477,467.3033c2.5604-1.4506,4.4414-3.6337,6.3948-5.7772,1.9512-2.141,3.4962-3.5521,6.2447-4.1238,1.6097-.3348,2.3762-2.144,2.0517-3.6135-1.4092-6.3811-7.2679-10.5703-12.7679-13.3399-5.5867-2.8133-11.5649-4.609-17.422-6.7419-1.4909-.5429-3.2173,.6097-3.6135,2.0517-.4582,1.6675,.5698,3.0296,2.0517,3.6135-.2867-.113-.5722-.3905-.2825-.0955,.0631,.0642,.5754,.4333,.1302,.0685-.4186-.3431-.0016,.0116,.0823,.1002,.1458,.1539,.2986,.3001,.4398,.4587,.115,.1291,.2203,.266,.3334,.3965,.034,.0392-.3223-.4605,.0455,.0788,.2533,.3714,.5022,.744,.7368,1.1275,1.1964,1.9561,2.1601,4.0513,3.0701,6.1524,.0563,.13,.112,.2602,.1673,.3906-.0237-.0559-.15-.3579-.0189-.0431,.1296,.311,.2578,.6224,.3846,.9346,.2382,.5864,.4715,1.1748,.7009,1.7647,.4771,1.2266,.9372,2.4598,1.3853,3.6973,.8053,2.2239,1.571,4.4619,2.3186,6.7058,.5693,1.7088,1.1114,3.4277,1.707,5.1275,.4886,1.3946,2.0434,2.6393,3.6135,2.0517,.7672-.2871,1.5205-.6059,2.2466-.9851,3.3526-1.7508,.3858-6.8228-2.9652-5.0729-.2803,.1464-.5503,.2832-.8432,.3928,1.2045,.6839,2.409,1.3678,3.6135,2.0517-1.3619-3.8871-2.5766-7.8228-3.9766-11.6976-1.7814-4.9305-3.6211-10.0492-6.3876-14.5287-1.2425-2.012-2.6896-3.8549-4.9397-4.7415-.5206,1.8884-1.0412,3.7768-1.5618,5.6651,2.4745,.9011,4.9809,1.7122,7.4607,2.5985,2.9703,1.0617,5.3303,1.9695,8.0012,3.275,1.3297,.6499,2.6349,1.353,3.8908,2.1367,1.4007,.8741,2.1138,1.3862,3.1235,2.2944,.4745,.4268,.9299,.8753,1.3576,1.349,.0715,.0792,.7626,.9119,.3881,.4266,.2118,.2745,.4096,.5612,.597,.8527,.3232,.5026,.609,1.0273,.8555,1.5716-.277-.6115,.1174,.3653,.1549,.4849,.102,.3259,.1836,.6558,.2572,.9891,.6839-1.2045,1.3678-2.409,2.0517-3.6135-3.2569,.6774-5.9453,2.5747-8.2042,4.9514-.9621,1.0122-1.8571,2.0859-2.8244,3.0933-1.0881,1.1331-1.7652,1.7409-3.0143,2.4485-3.2895,1.8636-.3322,6.941,2.9652,5.0729Z" style="fill:#f4d13b;"/></g><g><path d="M193.5979,402.6757c-8.613,4.3136-17.1003,9.0904-25.0566,14.5327-3.7309,2.552-8.4389,4.9609-11.124,8.6254,2.6497,2.7682,5.2994,5.5363,7.9491,8.3045,.3893-1.9468,1.6714-3.5784,2.9365-5.1085,3.7752-4.5661,7.5887-9.0964,12.0544-12.9187,2.3399-2.0027,4.3381-4.595,6.5025-6.7949,1.8938-1.9249,4.331-5.4349,6.7382-6.6405Z" style="fill:#f4d13b;"/><path d="M192.1153,400.1393c-6.9663,3.4958-13.8058,7.2546-20.38,11.446-3.0086,1.9181-5.9693,3.9141-8.9593,5.8613-2.9822,1.9421-5.7387,4.0484-7.895,6.9047-.7854,1.0403-.367,2.6965,.4593,3.5597,2.6497,2.7682,5.2994,5.5363,7.9491,8.3045,1.4943,1.5611,4.4072,.8458,4.9097-1.2962,.3469-1.4787,1.2294-2.6541,2.181-3.8123,1.1562-1.4073,2.3252-2.805,3.5136-4.1851,2.4128-2.8021,4.9278-5.5265,7.6902-7.9896,2.6779-2.3878,4.9918-5.0606,7.4635-7.6533,1.9279-2.0223,3.6742-4.8008,6.0332-6.0667,3.3327-1.7885,.369-6.8622-2.9652-5.0729-2.9593,1.5881-4.8583,4.4899-7.1118,6.8709-2.6056,2.753-5.0981,5.5228-7.91,8.0698-2.8562,2.5871-5.4495,5.4474-7.9458,8.3787-2.5053,2.9419-5.7038,6.0194-6.6138,9.8987l4.9097-1.2962c-2.6497-2.7682-5.2994-5.5363-7.9491-8.3045,.1531,1.1866,.3062,2.3732,.4593,3.5597,1.7452-2.3117,4.3991-3.9144,6.7992-5.4481,2.9324-1.8738,5.7931-3.855,8.7373-5.7108,6.3319-3.9913,12.9024-7.5893,19.5903-10.9454,1.4176-.7114,1.8182-2.7122,1.0538-4.019-.8439-1.4428-2.5961-1.7679-4.019-1.0538Z" style="fill:#f4d13b;"/></g></g><path d="M44.4732,314.985c2.0769-.6923,4.1538-1.3846,6.2308-2.0769,.7252-.2417,1.3623-.678,1.7555-1.35,.3685-.6296,.5246-1.5576,.2961-2.2635-.23-.7108-.6705-1.3965-1.35-1.7555-.6781-.3583-1.5122-.5466-2.2635-.2961-2.0769,.6923-4.1538,1.3846-6.2308,2.0769-.7252,.2417-1.3623,.678-1.7555,1.35-.3685,.6296-.5246,1.5576-.2961,2.2635,.23,.7108,.6705,1.3965,1.35,1.7555,.6781,.3583,1.5122,.5466,2.2635,.2961h0Z" style="fill:#6966ed;"/><path d="M60.2924,380.6738c5.4819-4.9093,10.9638-9.8186,16.4458-14.7279,1.1481-1.0282,1.1251-3.1214,0-4.1542-1.2258-1.1253-2.9296-1.0967-4.1542,0-5.4819,4.9093-10.9638,9.8186-16.4458,14.7279-1.1481,1.0282-1.1251,3.1214,0,4.1542,1.2258,1.1253,2.9296,1.0967,4.1542,0h0Z" style="fill:#6966ed;"/><path d="M23.5174,250.3043c2.7692,1.3846,5.5385,2.7692,8.3077,4.1538,.7099,.355,1.4792,.5121,2.2635,.2961,.6814-.1876,1.4198-.7145,1.7555-1.35,.7035-1.3314,.4135-3.2854-1.0538-4.019-2.7692-1.3846-5.5385-2.7692-8.3077-4.1538-.7099-.355-1.4792-.5121-2.2635-.2961-.6814,.1876-1.4198,.7145-1.7555,1.35-.7035,1.3314-.4135,3.2854,1.0538,4.019h0Z" style="fill:#6966ed;"/></svg>