<?xml version="1.0" encoding="UTF-8"?><svg id="Layer_2" xmlns="http://www.w3.org/2000/svg" width="1000" height="1000" viewBox="0 0 1000 1000"><g><g><path d="M944.5903,432.5597l-1.3396-.8655c-2.162-1.3969-3.9182-3.3382-5.0921-5.629l-31.6059-61.6752-20.2492,10.3768,31.6059,61.6753c1.1739,2.2907,1.7241,4.85,1.5954,7.4207l-.0798,1.593c-.2475,4.9436,4.9494,8.3014,9.3545,6.044l15.2537-7.8169c4.4051-2.2574,4.7146-8.4371,.557-11.1233Z" style="fill:#6966ed;"/><ellipse cx="901.694" cy="378.1883" rx="41.6193" ry="15.8282" transform="translate(-73.2443 452.8465) rotate(-27.1332)" style="fill:#6966ed;"/><path d="M877.3745,377.7327l-67.3995-131.5223c-.279-.5444-.4017-1.1555-.3545-1.7655l2.6633-34.3981c.1906-2.4617,2.9116-3.8561,5.0212-2.5731l29.4778,17.9272c.5227,.3179,.9471,.7744,1.2261,1.3188l67.3995,131.5223c3.9259,7.6609,.898,17.0539-6.7629,20.9798l-10.2912,5.2738c-7.6609,3.9259-17.0539,.898-20.9798-6.7629Z" style="fill:#f953b2;"/></g><path d="M816.8553,217.0749c2.4379,4.74,4.8758,9.48,7.3137,14.2201,5.8131,11.3025,11.6262,22.605,17.4393,33.9074,7.0268,13.6623,14.0536,27.3247,21.0804,40.987,6.105,11.8701,12.2101,23.7402,18.3151,35.6103,1.9906,3.8704,3.9813,7.7408,5.9719,11.6112,.9529,1.8527,1.8332,3.7709,2.8694,5.579,.0447,.078,.0827,.1608,.1239,.2409,1.0307,2.0039,4.0522,.2352,3.0226-1.7668-2.4379-4.74-4.8758-9.48-7.3137-14.2201-5.8131-11.3025-11.6262-22.605-17.4393-33.9074-7.0268-13.6623-14.0536-27.3247-21.0804-40.987-6.105-11.8701-12.2101-23.7402-18.3151-35.6103-1.9906-3.8704-3.9813-7.7408-5.9719-11.6112-.9529-1.8527-1.8332-3.7709-2.8694-5.579-.0447-.078-.0827-.1608-.1239-.2409-1.0307-2.0039-4.0522-.2352-3.0226,1.7668h0Z" style="fill:#fff;"/><path d="M910.8937,354.902c-1.019,3.6735-3.8876,6.87-7.4194,7.4866l1.9766,.8043c-2.6618-4.9276-8.8-6.8362-13.7867-4.2816-5.0535,2.5888-6.7017,8.8376-4.2816,13.7867l.6279-2.3947c-3.5586,2.5748-8.538,4.4219-12.8374,2.8554-2.12-.7724-3.0338,2.6091-.9306,3.3754,5.1137,1.8632,11.2705-.1229,15.5347-3.2082,.8104-.5864,1.0787-1.4727,.6279-2.3947-1.6181-3.3091-.2522-7.332,3.0258-8.9973,3.3452-1.6995,7.2704-.1712,8.9973,3.0258,.3946,.7306,1.2223,.936,1.9766,.8043,4.9256-.8599,8.593-5.3484,9.8643-9.9315,.6031-2.1741-2.7732-3.1018-3.3754-.9306h0Z" style="fill:#fff;"/></g><path d="M407.9992,220.8822l-34.4713,141.2435c-7.5279,30.8449-30.0975,56.0899-60.8526,68.066l-79.5375,30.9721-56.3271-64.1307c-21.7803-24.7977-30.1827-57.6016-22.6548-88.4465l34.4713-141.2435,4.4812-18.3608c2.7059-11.0871,14.4326-17.7484,26.1922-14.8784h0c39.5368,9.6492,77.4214,1.9135,97.9013-17.3862,9.2865,26.5643,39.3481,50.8827,78.8849,60.5319l.1334,.0326c11.8169,2.884,19.1594,14.2885,16.3592,25.4095l-4.5802,18.1904Z" style="fill:#f4d13b;"/><path d="M307.0836,150.0194c-.5991,2.4329-1.1982,4.8659-1.7973,7.2988-1.6303,6.6205-3.2606,13.241-4.891,19.8616-2.411,9.7907-4.822,19.5814-7.233,29.3721-2.9308,11.9015-5.8615,23.8029-8.7923,35.7044-3.2093,13.0326-6.4186,26.0653-9.628,39.0979-3.2504,13.1993-6.5007,26.3985-9.7511,39.5978-3.0305,12.3065-6.061,24.613-9.0915,36.9195-2.5601,10.3963-5.1202,20.7926-7.6803,31.1889-1.8346,7.4499-3.6691,14.8998-5.5037,22.3497-.87,3.5331-1.7887,7.0583-2.611,10.603-.0358,.1542-.0757,.3076-.1136,.4613-.8079,3.2808,4.2543,4.6805,5.0632,1.3959,.5991-2.4329,1.1982-4.8659,1.7973-7.2988,1.6303-6.6205,3.2606-13.241,4.891-19.8616,2.411-9.7907,4.822-19.5814,7.233-29.3721,2.9308-11.9015,5.8615-23.8029,8.7923-35.7044,3.2093-13.0326,6.4186-26.0653,9.628-39.0979,3.2504-13.1993,6.5007-26.3985,9.7511-39.5978,3.0305-12.3065,6.061-24.613,9.0915-36.9195,2.5601-10.3963,5.1202-20.7926,7.6803-31.1889,1.8346-7.4499,3.6691-14.8998,5.5037-22.3497,.87-3.5331,1.7887-7.0583,2.611-10.603,.0358-.1542,.0757-.3076,.1136-.4613,.8079-3.2808-4.2543-4.6805-5.0632-1.3959h0Z" style="fill:#fff;"/><path d="M186.9836,241.3446c1.5721,.3839,3.1442,.7679,4.7164,1.1518,4.2789,1.045,8.5579,2.09,12.8368,3.1351,6.3635,1.5541,12.7269,3.1082,19.0904,4.6623,7.73,1.8878,15.4599,3.7757,23.1899,5.6635,8.4659,2.0676,16.9319,4.1352,25.3978,6.2028,8.546,2.0871,17.092,4.1743,25.638,6.2614,7.9702,1.9465,15.9403,3.893,23.9105,5.8395l20.2981,4.9573c4.8402,1.1821,9.6803,2.3642,14.5205,3.5463,2.2919,.5597,4.5779,1.1657,6.8804,1.6804,.099,.0221,.1973,.0482,.2959,.0723,3.2819,.8015,4.6821-4.2606,1.3959-5.0632-1.5721-.3839-3.1442-.7679-4.7164-1.1518-4.2789-1.045-8.5579-2.09-12.8368-3.1351l-19.0904-4.6623c-7.73-1.8878-15.4599-3.7757-23.1899-5.6635-8.4659-2.0676-16.9319-4.1352-25.3978-6.2028-8.546-2.0871-17.092-4.1743-25.638-6.2614-7.9702-1.9465-15.9403-3.893-23.9105-5.8395-6.766-1.6524-13.5321-3.3049-20.2981-4.9573-4.8402-1.1821-9.6803-2.3642-14.5205-3.5463-2.2919-.5597-4.5779-1.1657-6.8804-1.6804-.099-.0221-.1973-.0482-.2959-.0723-3.2819-.8015-4.6821,4.2606-1.3959,5.0632h0Z" style="fill:#fff;"/><path d="M673.6561,360.1231c.121,.2465,.2151,.4703,.2034,.7066,.0143-.2911-.1001,.2914-.0571,.1952,.0575-.1287-.2696,.3969-.1213,.2068-.1144,.1467-.2557,.2711-.3875,.4012,.0084-.0083-.2214,.1907-.108,.0997,.1146-.0921-.1364,.0952-.126,.0883-.3751,.2488-.7642,.4614-1.1688,.6573-.2335,.113-.0466,.0313-.2895,.1243-.1805,.0691-.3615,.137-.5437,.2015-.4278,.1516-.8604,.2892-1.2922,.429-.8853,.2866-1.7594,.5937-2.6086,.9765-1.7557,.7915-3.4615,2.3054-3.3691,4.4031,.1043,2.3683,2.2819,3.3907,4.2659,4.0114,2.1817,.6825,4.4742,.7488,6.7138,.3538,.9315-.1643,1.456-1.3032,1.2224-2.153-.2701-.9828-1.2188-1.3872-2.153-1.2224-1.8383,.3242-3.9763,.0835-5.7275-.6656-.2356-.1008-.4574-.2232-.6827-.344-.1759-.1177-.2053-.1335-.0884-.0472-.1456-.1501-.1693-.1702-.071-.0603,.1311,.2075-.0084-.247,.0165,.0388,.0074-.2152,.0092-.2376,.0053-.0671,.0649-.2014,.0712-.2302,.0188-.0865,.2405-.5292,1.2482-.9988,1.8242-1.2219,1.9001-.7357,3.989-1.1345,5.6944-2.3053,.9965-.6841,1.8296-1.5354,2.2691-2.6768,.503-1.3063,.1776-2.5998-.4167-3.8102-.4166-.8484-1.6211-1.0804-2.3947-.6279-.8653,.5061-1.046,1.5431-.6279,2.3947h0Z"/><g><path d="M664.339,323.5783s22.5136-35.4293,64.5179-22.7614c42.4809,20.3675,18.6217,47.7182,32.0061,77.3966-12.2205,20.3675-51.2098,27.3507-75.6508,14.5482,15.7121-8.147,10.4747-27.9326,10.4747-27.9326l20.3675-5.8193,2.3277-15.1302h-39.5712l-7.6269-10.9429s-18.9271,23.7465-11.7985,57.4952c-13.4765-13.5284-5.9226-53.269,4.9534-66.8538Z"/><path d="M666.606,324.9034c.1883-.2957,.3907-.5829,.5935-.8687,.2412-.34,.4899-.6742,.7392-1.0082,.0683-.0915,.1399-.1805,.2073-.2726,.1884-.2577-.4557,.5741-.0884,.1151,.1935-.2418,.3836-.4862,.5784-.7269,2.1318-2.634,4.4881-5.089,7.0106-7.3506,.8069-.7234,1.6318-1.4269,2.4741-2.1089,.2268-.1837,.4556-.3649,.6842-.5463,.0867-.0688,.1742-.1366,.2615-.2047,.3122-.2433-.3187,.2424-.0007,.0017,.4847-.3669,.9722-.7297,1.4663-1.0839,2.0414-1.4632,4.1721-2.8019,6.3819-3.9961,4.8461-2.6191,9.882-4.4186,15.5717-5.4279,2.8808-.511,6.1095-.754,9.2885-.7152,3.5033,.0428,6.9811,.4246,10.4129,1.1254,1.8723,.3823,3.8803,.7438,5.6716,1.422,1.9766,.7483,3.8963,1.9565,5.7171,3.0246,3.0582,1.7939,5.9894,3.807,8.6155,6.1957,2.2691,2.0639,4.1547,4.1906,5.7015,6.5748,1.5491,2.3879,2.5139,4.4358,3.3152,6.847,.4082,1.2284,.7468,2.4795,1.0255,3.7435,.1255,.5694,.2387,1.1416,.341,1.7157,.0585,.3284,.1133,.6576,.1648,.9872,.0264,.1691,.1459,1.0102,.0839,.5429,.3459,2.6035,.4875,5.2324,.5537,7.8564,.2889,11.4536-.4817,23.0058,3.3154,34.0307,.557,1.6174,1.2061,3.2013,1.9041,4.7626v-2.6501c-2.2625,3.7306-5.6119,7.0712-9.1999,9.5708-4.1938,2.9217-8.7047,5.0472-13.4576,6.6203-10.2931,3.4067-21.6153,4.421-32.2511,2.7916-5.9889-.9175-11.8661-2.6307-17.1502-5.3762v4.5339c5.6709-2.9941,9.7463-8.0721,11.4968-14.2331,1.2836-4.518,1.345-9.2781,.6979-13.9008-.1295-.9253-.2756-1.8586-.5134-2.7635l-1.8337,3.2295c6.7892-1.9398,13.5784-3.8795,20.3675-5.8193,.8031-.2294,1.6983-.9538,1.8337-1.8337,.7759-5.0434,1.5518-10.0868,2.3277-15.1302,.2545-1.654-.6687-3.3233-2.5316-3.3233-11.5766,0-23.1531,0-34.7297,0-1.6139,0-3.2277,0-4.8416,0,.7556,.4334,1.5113,.8669,2.2669,1.3003-2.5423-3.6476-5.0846-7.2952-7.6269-10.9429-.8607-1.2349-2.9866-1.9612-4.1233-.5313-2.6103,3.2834-4.6917,7.0189-6.494,10.7919-4.1968,8.7862-6.7629,18.264-7.4812,27.9803-.5266,7.1231,.0469,14.2902,1.5015,21.2773l4.388-2.5543c-2.4782-2.5224-4.0076-5.8541-5.0011-9.5808-1.1914-4.469-1.5069-8.69-1.4493-13.4683,.1182-9.8156,2.017-19.6117,5.5149-28.8936,.8524-2.2618,1.6185-4.0307,2.8215-6.3045,.4917-.9293,1.0136-1.8432,1.5749-2.7323,.2823-.4473,.5742-.8886,.8779-1.3216,.1254-.1788,.2546-.3547,.3819-.5321,.4163-.5804-.0224,.0138,.2328-.3078,.8806-1.1096,1.0833-2.6295,0-3.7128-.9139-.9139-2.8267-1.1167-3.7128,0-5.8331,7.3504-8.9081,16.8877-10.8483,25.9494-2.1802,10.1828-3.1264,21.156-.783,31.3995,1.1086,4.846,3.1537,9.6307,6.6778,13.2177,1.9256,1.9599,4.9027-.0819,4.388-2.5543-2.2658-10.8837-1.957-22.1688,.9323-32.9038,1.8933-7.0346,4.446-13.0952,8.3529-19.2995,.5055-.8028,1.0291-1.595,1.5802-2.3674,.1553-.2176,.3173-.4303,.4733-.6474,.3468-.4826-.4582,.5827-.2153,.2771-1.3744-.1771-2.7489-.3542-4.1233-.5313,2.2214,3.1873,4.4429,6.3746,6.6643,9.5619,.9029,1.2955,1.6172,2.603,3.414,2.6813,.9739,.0424,1.9593,0,2.9338,0h36.4528c-.8439-1.1078-1.6877-2.2155-2.5316-3.3233-.7759,5.0434-1.5518,10.0868-2.3277,15.1302l1.8337-1.8337c-6.7892,1.9398-13.5784,3.8795-20.3675,5.8193-1.3754,.393-2.1978,1.8435-1.8337,3.2295,.1623,.6177,.2757,1.2506,.3798,1.8801,.0299,.1808,.1648,1.1326,.1067,.6847-.0604-.4657,.0168,.1485,.0306,.2752,.0245,.2245,.0492,.4489,.0705,.6737,.0848,.8926,.1358,1.7886,.1514,2.685,.0186,1.0666-.0128,2.1343-.1001,3.1975-.0224,.2728-.0496,.5449-.078,.8171-.0165,.1578-.0357,.3157-.0558,.4729,.0055-.0433,.0591-.4126,.0117-.1013-.0928,.6089-.2002,1.2148-.332,1.8166-.5717,2.6104-1.242,4.3614-2.6282,6.5292-1.6034,2.5075-3.9955,4.5432-6.8248,6.0371-1.7016,.8984-1.7195,3.6404,0,4.5339,17.784,9.2402,40.6097,8.848,58.8323,1.0594,4.2908-1.834,8.3082-4.1641,11.9635-7.0691,1.66-1.3192,3.2216-2.7622,4.6329-4.3459,1.405-1.5767,3.147-3.4651,3.9464-5.4481,.5839-1.4483-.362-2.8003-.8284-3.995-.4378-1.1214-.8333-2.2593-1.187-3.41-.6517-2.1206-1.1595-4.284-1.5419-6.4689-.3477-1.9865-.5233-3.4817-.6959-5.6735-.1641-2.0837-.2476-4.1731-.2889-6.2626-.1562-7.9078,.3113-15.8748-1.1272-23.6981-1.5473-8.4145-5.8599-15.8563-12.2924-21.4907-4.3875-3.8432-9.4438-6.9917-14.7109-9.4795-2.5857-1.2213-5.6533-1.7479-8.4566-2.2532-2.7602-.4976-5.5587-.8399-8.3609-.9737-9.1849-.4387-18.3085,1.4499-26.6229,5.345-9.7501,4.5677-18.6776,12.0255-24.778,20.9408-.1013,.1481-.2029,.2963-.2993,.4476-1.8206,2.8585,2.7218,5.4953,4.5339,2.6501Z"/></g><path d="M680.9857,354.6577c1.0089-.7153,2.0785-1.305,3.2006-1.8212,.1752-.0759,.1452-.064-.0901,.0356,.0732-.0306,.1466-.0607,.2202-.0903,.1472-.0592,.2952-.1166,.4439-.1719,.2603-.0968,.5227-.1877,.7871-.2725,.6047-.1939,1.2191-.3536,1.8404-.4843,.8973-.1889,1.5011-1.2918,1.2224-2.153-.3067-.9478-1.1917-1.4248-2.153-1.2224-2.5838,.5438-5.0839,1.6302-7.2383,3.1575-.3798,.2692-.6769,.5833-.8043,1.046-.1154,.419-.0633,.9768,.1764,1.3487,.4768,.7396,1.5959,1.1942,2.3947,.6279h0Z"/><path d="M666.7935,350.9839c.1162,.0452,.2318,.092,.3468,.1403l-.4181-.1764c.8961,.3835,1.7381,.8761,2.5128,1.4675l-.3542-.2737c.5928,.4586,1.1393,.9701,1.6348,1.5325,.2853,.3238,.8175,.5126,1.2376,.5126,.4293,0,.9421-.1907,1.2376-.5126,.3062-.3336,.5335-.7715,.5126-1.2376-.0215-.4807-.1931-.8749-.5126-1.2376-1.4316-1.6249-3.2585-2.8088-5.2667-3.5904-.398-.1549-.995-.0305-1.3487,.1764-.3631,.2125-.7093,.6287-.8043,1.046-.102,.448-.08,.951,.1764,1.3487,.261,.4048,.5987,.6303,1.046,.8043h0Z"/><g><path d="M682.1839,359.8579c.5543,.5657,1.609,.0729,1.4423-.7286-.081-.3893-.474-.6805-.8715-.6689-.6019,.0177-1.0017,.9578-.5708,1.3975Z"/><path d="M680.9463,361.0955c.1326,.1326,.2924,.2413,.4422,.3517,.0369,.0272,.0747,.0523,.1153,.0736,.1997,.1045,.4188,.2126,.6446,.2543,.2183,.0404,.4692,.0937,.7004,.073,.2156-.0193,.4775-.0356,.6944-.113,.1745-.0622,.3495-.1362,.5156-.2175,.0361-.0177,.0711-.0376,.1046-.0598,.1534-.1017,.2978-.2177,.4382-.3367,.0342-.029,.0662-.0606,.0954-.0946,.117-.1363,.2325-.2819,.3322-.4314,.0236-.0354,.0437-.0726,.0616-.1112,.0686-.1482,.1361-.3071,.1937-.46,.0071-.019,.0135-.0383,.0191-.0578,.0515-.1813,.07-.426,.0853-.5795,.0043-.0432,.0065-.0861,.0042-.1295-.0049-.097-.024-.199-.0364-.2916-.0128-.0955-.022-.2032-.0427-.3015-.0389-.1848-.1562-.4153-.2189-.5544-.0238-.0528-.0502-.1033-.0835-.1509-.0961-.1372-.2049-.273-.3105-.403-.015-.0185-.0308-.0364-.0473-.0536-.0189-.0197-.0387-.0386-.0593-.0565-.1321-.1147-.2759-.224-.4185-.3247-.0449-.0317-.0915-.0603-.141-.0842-.1779-.0859-.3616-.1717-.5519-.2285-.0262-.0078-.0528-.0145-.0796-.0198-.1723-.0341-.3517-.054-.526-.0723-.0539-.0057-.1071-.0076-.1612-.0034-.1627,.0124-.3501,.0385-.5105,.0686-.0198,.0037-.0394,.0079-.0588,.0133-.0194,.0054-.0382,.012-.057,.019-.1544,.0575-.3179,.1258-.4664,.1974-.0365,.0176-.0714,.0385-.1044,.062-.132,.094-.2661,.1985-.391,.3016-.018,.0148-.0356,.03-.0525,.0461-.1666,.1587-.307,.3502-.4277,.5457-.0256,.0414-.0477,.0846-.0678,.1288-.0794,.1752-.1653,.3544-.2216,.5396-.0727,.2395-.1062,.4983-.1057,.748,0,.0208,.0008,.0415,.0024,.0622,.0134,.1745,.0404,.3544,.0696,.5266,.0077,.0452,.0182,.0896,.0339,.1327,.1498,.4099,.2813,.6708,.5872,.9913,.1585,.1707,.3463,.2913,.5633,.3619,.2086,.1096,.4334,.1598,.6743,.1507,.241,.0091,.4658-.0412,.6743-.1507,.217-.0706,.4047-.1912,.5633-.3619l.2737-.3542c.1583-.273,.238-.5674,.239-.8834l-.0625-.4653c-.0832-.2965-.2332-.5539-.4501-.7723-.018-.0189-.0348-.0384-.0507-.059l.2737,.3542c-.0302-.0412-.055-.0849-.0753-.1318l.1764,.4181c-.0231-.0569-.0383-.1153-.0472-.1761l.0625,.4653c-.0099-.0783-.0087-.1561,.0013-.2343l-.0625,.4653c.0132-.0909,.038-.1786,.0732-.2633l-.1764,.4181c.0365-.0842,.0823-.1631,.1383-.2358l-.2737,.3542c.0458-.0576,.0968-.1094,.1546-.1551l-.3542,.2737c.0488-.037,.1004-.0681,.1565-.0928l-.4181,.1764c.0515-.0213,.1041-.0361,.1592-.0443l-.4653,.0625c.0614-.0075,.1225-.006,.1839,.0009l-.4653-.0625c.082,.0112,.1603,.0329,.2367,.0646l-.4181-.1764c.0694,.0307,.1339,.0683,.1948,.1135l-.3542-.2737c.0651,.0506,.1227,.1077,.1732,.1729l-.2737-.3542c.0405,.055,.0743,.1129,.1015,.1756l-.1764-.4181c.0268,.0664,.0443,.1343,.0539,.2052l-.0625-.4653c.0075,.0656,.0077,.1307,0,.1963l.0625-.4653c-.0093,.0664-.0266,.1302-.0522,.1923l.1764-.4181c-.0261,.0598-.0587,.1153-.0979,.1674l.2737-.3542c-.0463,.0593-.0992,.1113-.1586,.1574l.3542-.2737c-.0606,.0455-.1254,.0831-.1947,.1136l.4181-.1764c-.0796,.0335-.1621,.0564-.2477,.0685l.4653-.0625c-.076,.0094-.1515,.0099-.2276,.0008l.4653,.0625c-.0717-.0099-.1407-.028-.2078-.055l.4181,.1764c-.0641-.0273-.1236-.0617-.1793-.1035l.3542,.2737c-.031-.0243-.0601-.0501-.088-.078-.1585-.1707-.3463-.2913-.5633-.3619-.2086-.1096-.4334-.1598-.6743-.1507-.241-.0091-.4658,.0412-.6743,.1507-.217,.0706-.4047,.1912-.5633,.3619l-.2737,.3542c-.1583,.273-.238,.5674-.239,.8834l.0625,.4653c.0832,.2965,.2332,.5539,.4501,.7723Z"/></g><g><path d="M666.4137,358.7703c.5543,.5657,1.609,.0729,1.4423-.7286-.081-.3893-.474-.6805-.8715-.6689-.6019,.0177-1.0017,.9578-.5708,1.3975Z"/><path d="M665.1761,360.0079c.1326,.1326,.2924,.2413,.4422,.3517,.0369,.0272,.0747,.0523,.1153,.0736,.1997,.1045,.4188,.2126,.6446,.2543,.2183,.0404,.4692,.0937,.7004,.073,.2156-.0193,.4775-.0356,.6944-.113,.1745-.0622,.3495-.1362,.5156-.2175,.0361-.0177,.0711-.0376,.1046-.0598,.1534-.1017,.2978-.2177,.4382-.3367,.0342-.029,.0662-.0606,.0954-.0946,.117-.1363,.2325-.2819,.3322-.4314,.0236-.0354,.0437-.0726,.0616-.1112,.0686-.1482,.1361-.3071,.1937-.46,.0071-.019,.0135-.0383,.0191-.0578,.0515-.1813,.07-.426,.0853-.5795,.0043-.0432,.0065-.0861,.0042-.1295-.0049-.097-.024-.199-.0364-.2916-.0128-.0955-.022-.2032-.0427-.3015-.0389-.1848-.1562-.4153-.2189-.5544-.0238-.0528-.0502-.1033-.0835-.1509-.0961-.1372-.2049-.273-.3105-.403-.015-.0185-.0308-.0364-.0473-.0536-.0189-.0197-.0387-.0386-.0593-.0565-.1321-.1147-.2759-.224-.4185-.3247-.0449-.0317-.0915-.0603-.141-.0842-.1779-.0859-.3616-.1717-.5519-.2285-.0262-.0078-.0528-.0145-.0796-.0198-.1723-.0341-.3517-.054-.526-.0723-.0539-.0057-.1071-.0076-.1612-.0034-.1627,.0124-.3501,.0385-.5105,.0686-.0198,.0037-.0394,.0079-.0588,.0133-.0194,.0054-.0382,.012-.057,.019-.1544,.0575-.3179,.1258-.4664,.1974-.0365,.0176-.0714,.0385-.1044,.062-.132,.094-.2661,.1985-.391,.3016-.018,.0148-.0356,.03-.0525,.0461-.1666,.1587-.307,.3502-.4277,.5457-.0256,.0414-.0477,.0846-.0678,.1288-.0794,.1752-.1653,.3544-.2216,.5396-.0727,.2395-.1062,.4983-.1057,.748,0,.0208,.0008,.0415,.0024,.0622,.0134,.1745,.0404,.3544,.0696,.5266,.0077,.0452,.0182,.0896,.0339,.1327,.1498,.4099,.2813,.6708,.5872,.9913,.1585,.1707,.3463,.2913,.5633,.3619,.2086,.1096,.4334,.1598,.6743,.1507,.241,.0091,.4658-.0412,.6743-.1507,.217-.0706,.4047-.1912,.5633-.3619l.2737-.3542c.1583-.273,.238-.5674,.239-.8834l-.0625-.4653c-.0832-.2965-.2332-.5539-.4501-.7723-.018-.0189-.0348-.0384-.0507-.059l.2737,.3542c-.0302-.0412-.055-.0849-.0753-.1318l.1764,.4181c-.0231-.0569-.0383-.1153-.0472-.1761l.0625,.4653c-.0099-.0783-.0087-.1561,.0013-.2343l-.0625,.4653c.0132-.0909,.038-.1786,.0732-.2633l-.1764,.4181c.0365-.0842,.0823-.1631,.1383-.2358l-.2737,.3542c.0458-.0576,.0968-.1094,.1546-.1551l-.3542,.2737c.0488-.037,.1004-.0681,.1565-.0928l-.4181,.1764c.0515-.0213,.1041-.0361,.1592-.0443l-.4653,.0625c.0614-.0075,.1225-.006,.1839,.0009l-.4653-.0625c.082,.0112,.1603,.0329,.2367,.0646l-.4181-.1764c.0694,.0307,.1339,.0683,.1948,.1135l-.3542-.2737c.0651,.0506,.1227,.1077,.1732,.1729l-.2737-.3542c.0405,.055,.0743,.1129,.1015,.1756l-.1764-.4181c.0268,.0664,.0443,.1343,.0539,.2052l-.0625-.4653c.0075,.0656,.0077,.1307,0,.1963l.0625-.4653c-.0093,.0664-.0266,.1302-.0522,.1923l.1764-.4181c-.0261,.0598-.0587,.1153-.0979,.1674l.2737-.3542c-.0463,.0593-.0992,.1113-.1586,.1574l.3542-.2737c-.0606,.0455-.1254,.0831-.1947,.1136l.4181-.1764c-.0796,.0335-.1621,.0564-.2477,.0685l.4653-.0625c-.076,.0094-.1515,.0099-.2276,.0008l.4653,.0625c-.0717-.0099-.1407-.028-.2078-.055l.4181,.1764c-.0641-.0273-.1236-.0617-.1793-.1035l.3542,.2737c-.031-.0243-.0601-.0501-.088-.078-.1585-.1707-.3463-.2913-.5633-.3619-.2086-.1096-.4334-.1598-.6743-.1507-.241-.0091-.4658,.0412-.6743,.1507-.217,.0706-.4047,.1912-.5633,.3619l-.2737,.3542c-.1583,.273-.238,.5674-.239,.8834l.0625,.4653c.0832,.2965,.2332,.5539,.4501,.7723Z"/></g><path d="M678.2391,381.2531c1.2335-.3647,2.4911-.6338,3.7657-.8064l-.4653,.0625c.6019-.0788,1.2058-.1366,1.8118-.1731,.9122-.055,1.7943-.7656,1.7502-1.7502-.0404-.9011-.7715-1.8093-1.7502-1.7502-2.0428,.1232-4.0796,.4616-6.0427,1.0421-.8772,.2594-1.5173,1.2418-1.2224,2.153,.2876,.8886,1.2126,1.5005,2.153,1.2224h0Z"/><path d="M717.3753,299.5975c-1.0344-3.2982,2.2194-6.2273,4.9831-7.4423,3.2313-1.4206,6.9849-1.5199,10.3043-.3625,3.0506,1.0637,5.4695,3.4753,6.442,6.5547,.9036,2.8612,.8038,6.2937-1.1569,8.7474-.8843,1.1067-1.081,2.6319,0,3.7128,.9166,.9166,2.823,1.1136,3.7128,0,4.82-6.0321,4.083-15.3023-1.6372-20.5652-5.8362-5.3696-15.7173-6.0362-22.2656-1.5168-3.9134,2.7009-6.9789,7.3795-5.4458,12.2677,1.0078,3.2133,6.0784,1.8413,5.0632-1.3959h0Z"/><path d="M735.4418,280.7027c-.6861-4.2702,2.2832-8.5484,4.795-11.6997,2.6561-3.3322,5.7195-6.3726,9.0821-8.9913,6.6433-5.1735,14.5017-8.7534,22.7458-10.4321,4.102-.8352,8.7366-1.5182,12.858-.5153,4.1579,1.0118,6.7212,4.1783,8.4684,7.9121,1.6492,3.5245,3.1707,8.7213,.5706,12.181-.9204,1.2247-2.4125,2.2921-3.9617,2.2658-.5759-.0098-1.3215-.1352-1.6912-.6377-.099-.1345,.0374-.3115,.3621-.626,1.1116-1.0768,2.8859-1.1592,4.3394-.9562,2.0473,.286,4.0312,1.2676,5.6294,2.5564,3.4106,2.7503,5.5874,7.0225,7.1247,11.044,1.1624,3.0408,2.3688,7.2171,.7185,10.1143-1.7153,3.0114-6.327,3.2978-9.359,2.6909-1.7578-.3519-3.3758-.9786-4.8559-1.9978-.6238-.4295-1.2026-.9793-1.6985-1.5738-.2004-.2403-.3929-.5165-.5719-.8054-.1403-.2264-.3929-.9746-.5877-1.1235-.2512,.4038-.5024,.8075-.7536,1.2113l.3358-.0887c-.0919-.0167,.3546-.0699,.4704-.0833,.4981-.0576,1.0451-.0512,1.5415,.014,.8822,.1159,1.7776,.4238,2.5721,.8189,1.9544,.9717,3.6177,2.3558,5.1298,3.9156,2.4455,2.5226,5.428,6.3715,4.8315,10.1426-.5661,3.5792-4.5377,4.926-7.7191,4.5989-4.4308-.4556-8.3836-3.6905-11.8295-6.2608-3.8284-2.8556-7.5759-5.842-11.6594-8.3337-7.4659-4.5557-16.9364-7.4985-25.5331-4.4054-2.1614,.7777-4.0396,1.8665-5.8423,3.2785-1.1172,.8751-.9173,2.7955,0,3.7128,1.103,1.103,2.5927,.8773,3.7128,0,3.5744-2.7997,8.5299-3.3912,12.9033-2.7741,5.311,.7495,10.0763,3.2868,14.4752,6.2402,4.6743,3.1383,8.9414,6.856,13.6629,9.9221,4.5318,2.9429,10.1164,5.0416,15.4924,3.2282,5.4196-1.828,8.4478-6.8406,7.3806-12.4893-.9777-5.1747-4.8685-9.8728-8.9105-13.0478-2.2237-1.7467-4.7549-3.2184-7.5874-3.659-2.7283-.4244-6.8889-.2195-7.7886,3.0155-.7227,2.5987,1.3739,5.5458,3.1253,7.2919,1.7582,1.753,3.9696,2.9914,6.3102,3.7816,4.5773,1.5452,10.6057,1.4273,14.5872-1.5643,4.3771-3.2888,4.7323-8.9422,3.5375-13.8891-2.3931-9.9086-10.5304-22.716-22.3872-20.5724-2.5979,.4697-5.1914,2.2534-6.1025,4.7961-.9872,2.7554,.5094,5.6674,3.0547,6.9215,5.3354,2.6288,11.2388-1.2607,13.2456-6.3022,2.1609-5.4284,.174-11.8704-2.5255-16.7438-2.7244-4.9182-7.0779-8.331-12.7091-9.1304-5.4701-.7766-11.287,.1428-16.598,1.5175-4.9696,1.2864-9.7982,3.2524-14.2744,5.7633-4.474,2.5097-8.6519,5.622-12.3371,9.1909-3.9653,3.8401-7.7813,8.3519-9.8769,13.5061-1.1128,2.7371-1.4341,5.5547-.9663,8.4666,.2251,1.4011,1.9698,2.1799,3.2295,1.8337,1.4908-.4097,2.0594-1.8243,1.8337-3.2295h0Z"/><path d="M539.2486,568.5085c18.4985,2.7873,36.768,7.0428,54.5917,12.7256,17.7513,5.6598,35.0397,12.7224,51.6649,21.1341,9.4057,4.7589,18.5918,9.9445,27.5331,15.5269,2.8746,1.7947,5.5134-2.7462,2.6501-4.5339-16.0674-10.0315-32.9278-18.7304-50.3826-26.0831-17.3079-7.2909-35.1862-13.2175-53.4298-17.6801-10.3113-2.5223-20.7349-4.5712-31.2316-6.1528-1.4003-.211-2.8224,.3518-3.2295,1.8337-.3407,1.2401,.4231,3.017,1.8337,3.2295h0Z"/><path d="M644.2797,421.6749c.3475,15.7985,14.763,26.7317,28.2861,31.8842,13.8269,5.2682,29.5667,5.5274,43.6785,1.2014,8.1003-2.4832,15.6106-6.4833,22.1703-11.8406,1.099-.8975,.9316-2.7812,0-3.7128-1.0867-1.0867-2.6111-.8998-3.7128,0-10.4116,8.5032-23.8575,13.0056-37.2339,13.2941-13.2144,.285-27.3955-3.45-37.6131-12.1422-5.5654-4.7346-10.1583-11.135-10.3244-18.684-.0742-3.3738-5.3252-3.3858-5.2507,0h0Z"/><path d="M944.3029,464.1844c-26.9011,39.2791-41.5033,87.6189-76.8629,120.8063-17.3083,16.245-39.4551,29.1438-63.4804,31.1309-21.9837,1.8183-44.8487-4.8187-60.6321-20.6633-7.8448-7.8752-12.1453-17.5931-17.67-27.0206-2.6246-4.4788-5.328-9.0333-7.1495-13.9113-1.1241-3.0106-3.1751-8.3181,.6281-10.1775l-3.592-.9419c4.5708,6.5432,1.6683,14.9205-1.07,21.6227-3.6018,8.8158-7.9887,17.3081-12.2319,25.8253-8.2287,16.5172-16.3541,33.4827-19.0464,51.9238-1.8773,12.8588-2.2204,28.1999,7.0949,38.4144,7.1264,7.8143,17.8677,11.6407,27.9169,13.9356,20.3677,4.6513,41.6197,4.0236,62.3227,6.1243,22.9387,2.3276,46.6173,6.3021,67.6545,16.1467,11.0118,5.1531,21.5808,12.1403,28.9554,21.9721,3.6148,4.8192,6.4021,10.232,8.1546,15.9966,.9456,3.1106,1.9723,6.3454,1.0506,9.5735-.4544,1.5914-2.6642,6.9823-4.6798,4.6457v3.7128c2.2633-2.6605,5.0708-.3592,6.9623,1.6747,2.9725,3.1964,4.078,6.9626,4.9116,11.1403,1.8803,9.4227,2.649,19.0499,2.3914,28.6531-.2578,9.6105-1.5768,19.1644-3.9464,28.4818-2.0299,7.9816-4.3796,17.6173-10.4166,23.6348-12.8104,12.769-24.4954-7.7768-29.7737-17.3254-7.5963-13.742-17.4532-24.9424-30.6483-33.5991-63.1685-41.4424-144.0347-6.5102-209.9091-39.0073-14.1958-7.0031-26.777-17.1558-35.4692-30.4836-8.0869-12.3997-12.825-26.8461-14.3572-41.5373s-.1169-29.6111,3.9817-43.7886c2.1522-7.4448,5.0355-14.6599,8.6755-21.5033,1.7805-3.3473,9.7397-19.4086,14.6597-13.5571,4.1618,4.9497-1.0282,14.7869-3.6305,19.2217-3.7016,6.3083-8.8983,11.6599-14.74,16.0226-12.6032,9.4123-27.7159,14.5681-42.8983,18.035-17.5499,4.0076-35.627,6.4274-52.4607,13.0739-14.071,5.5558-26.5541,14.1585-35.9773,26.0623-17.9732,22.7043-23.796,52.7387-23.6206,81.1005,.1002,16.1996,3.0119,31.6985,5.3685,47.6515,1.3628,9.2255,1.9606,19.2708-2.0959,27.9376-3.0989,6.6209-8.8097,12.7946-16.3524,13.9383-7.4554,1.1304-15.1849-3.6343-16.6962-11.1364l-.2647,2.023c.0951-.1294,1.4354,1.1752,1.484,1.2678,.5019,.9559,.133,1.6351-.5569,2.4565-1.6754,1.9947-4.6647,2.6548-7.0686,3.2699-6.3017,1.6124-12.732,2.7966-19.1951,3.5285-12.7473,1.4434-25.7361,1.3119-38.435-.544-6.1386-.8971-12.3258-2.084-18.2736-3.8673-2.6135-.7836-5.3681-1.9191-6.583-4.5683-1.1163-2.434-.4528-5.3237,.3559-7.7367,1.7048-5.0874,4.9166-9.4769,7.2938-14.2433,2.4082-4.8285,4.1694-9.9662,5.3225-15.2338,4.7691-21.7873,.3063-44.1271-.137-66.096-.3865-19.1549,1.6647-38.3415,6.0993-56.9799,8.7289-36.6867,26.7564-71.8968,54.948-97.4047,15.0116-13.5826,32.5531-23.5456,51.6607-30.1414,22.5278-7.7765,46.1659-11.7787,68.6289-19.7644,42.3141-15.0427,74.0757-46.9196,100.7865-81.944,3.3636-4.4105,6.6533-8.8763,9.8993-13.3739l-4.7985-2.023c-2.5039,6.5142-9.718,8.8339-16.0773,9.5839-7.5634,.892-15.2788-.1248-22.8036-.912-17.1112-1.7901-34.1217-4.5934-50.8674-8.551-33.1041-7.8237-65.2824-20.2457-93.9228-38.7587-53.8325-34.7971-94.173-94.5992-93.9897-160.2239,.0244-8.7348,.7825-17.4676,2.3703-26.0587,.3954-2.1394,.5658-4.8424,1.4983-6.822,1.2714-2.699,4.626-2.1146,7.1374-2.1956,5.9495-.192,11.8991-.384,17.8486-.576,4.7424-.153,9.8405-.8756,14.5429-.0728,5.8751,1.003,6.1069,5.2741,6.0706,10.3912-.0816,11.5186-.1913,23.037-.2869,34.5555-.0199,2.3999,2.8242,3.2982,4.4818,1.8564,2.7274-2.3725,6.2563-4.2646,9.8561-4.8341,4.2377-.6704,6.4363,1.7344,4.4509,5.9063-1.994,4.1898-4.6089,7.4144-5.1194,12.2069-.4675,4.3888,.5975,8.7431,2.3823,12.7345,4.0635,9.0877,11.4975,16.0452,18.8831,22.4567,7.6405,6.6328,15.6312,12.8715,23.906,18.6935,32.8425,23.1075,70.4197,39.5649,109.6251,48.2193,22.1978,4.9001,44.9326,7.2941,67.6637,7.0672,1.3995-.014,2.6519-1.1915,2.6254-2.6254-.1133-6.1143-5.7232-9.6263-11.4356-9.5283-7.467,.1281-12.1151,6.0518-13.0223,13.1027-1.0692,8.3101,2.1455,16.8569,5.5103,24.3039,3.621,8.0139,8.5331,15.3946,14.2338,22.0762,11.4022,13.3641,25.9703,23.3246,41.5723,31.1686,16.0564,8.0724,33.2833,14.2977,51.0572,17.196,19.3387,3.1535,39.4368,2.2743,57.3281-6.3122,3.0453-1.4615,.3849-5.9905-2.6501-4.5339-28.2528,13.5594-62.1675,6.5528-89.8945-4.8454-27.7923-11.4251-54.7802-29.5013-67.3198-57.8575-3.0955-6.9999-7.0209-16.8626-3.5945-24.3851,1.4176-3.1122,4.0297-4.8428,7.4541-4.6547,2.5575,.1405,5.4564,1.3532,5.5104,4.2697l2.6254-2.6254c-41.4866,.4143-82.9643-8.0623-121.0342-24.5552-18.988-8.2261-37.1422-18.3856-54.0458-30.325-8.4901-5.9967-16.6471-12.4542-24.432-19.3417-7.4678-6.6071-16.2045-14.8667-17.6565-25.2796-.8626-6.1861,2.6351-9.894,4.9212-15.1791,1.591-3.678,1.3476-8.2157-1.9508-10.8782-6.171-4.9812-16.2051,.3345-21.1623,4.6465l4.4818,1.8564c.0921-11.0919,.1842-22.1837,.2763-33.2756,.0354-4.2661,.3721-8.9311-2.3761-12.5126-2.1203-2.7632-5.4268-3.9606-8.7777-4.4031-4.6259-.6109-9.4186-.1036-14.0624,.0462-5.5246,.1783-11.0492,.3566-16.5737,.5349-4.0779,.1316-9.2493-.4479-12.2919,2.8551-2.6735,2.9022-2.9372,7.8443-3.5841,11.5591-5.8994,33.8745,.1934,68.7113,14.3375,99.8239,14.5402,31.9841,37.4179,59.5893,65.3888,80.7215,29.5421,22.3192,64.0557,37.4489,99.7115,46.9526,18.1392,4.8348,36.6405,8.2214,55.2726,10.4697,8.4032,1.014,17.0175,2.2599,25.4995,2.0029,6.8761-.2083,14.3355-1.4341,19.8589-5.834,2.643-2.1054,4.4095-4.7737,5.6129-7.9045,1.1435-2.9751-3.1903-4.2513-4.7985-2.023-18.2689,25.3132-38.3604,50.0981-63.4445,69.0018-12.502,9.4217-26.1711,17.2046-40.8398,22.7109-15.6085,5.8591-31.8848,9.6007-47.9732,13.8584-15.4328,4.0842-30.818,8.7153-45.1123,15.9387-11.4913,5.807-22.1635,13.1997-31.7817,21.7509-19.4218,17.2672-34.3665,39.2923-44.7371,63.0349-10.6852,24.4629-16.8271,50.8016-18.4653,77.4337-.8843,14.377,.0427,28.5953,1.0597,42.9362,1.1066,15.6051,2.0414,31.8922-2.9334,46.9754-2.3873,7.2382-6.8865,13.3001-9.8258,20.2684-2.5044,5.9372-3.4035,13.0602,1.9117,17.7864,2.369,2.1065,5.4689,3.0996,8.4698,3.9158,4.5333,1.233,9.1479,2.2036,13.7801,2.9789,8.4979,1.4223,17.108,2.171,25.7251,2.1724,8.8203,.0015,17.6375-.7765,26.3304-2.2659,6.391-1.0951,15.5137-1.868,20.4398-6.6511,4.0286-3.9117,3.2706-10.5296-2.2946-12.5777-1.988-.7317-4.2141-.4841-5.7495,1.061-2.1646,2.1782-.6208,5.4561,.5868,7.7768,6.1553,11.8286,21.8553,13.021,31.7113,5.4559,12.3084-9.4475,14.2382-25.5166,12.4369-39.9178-1.8262-14.6001-4.9758-28.7843-5.5513-43.5463-.5164-13.2449,.2134-26.6054,2.8123-39.6194,4.9973-25.0246,17.3103-48.9929,39.7166-62.527,26.6794-16.1151,59.3613-14.8717,87.8052-26.2277,12.0279-4.802,23.7427-11.5176,32.3712-21.3507,4.2251-4.8149,7.5998-10.2681,9.8466-16.2745,1.9023-5.0856,3.1265-11.4114,.1059-16.3483-3.2754-5.3532-9.89-4.7885-14.1707-1.0503-4.7762,4.1709-7.9868,10.7636-10.8061,16.3379-5.9946,11.8526-9.9496,24.679-11.7606,37.8321-3.4869,25.3245,.9262,52.3834,15.5073,73.7484,16.4035,24.0354,43.5837,36.8548,71.4105,42.4991,33.7039,6.8363,68.2214,3.666,102.3086,6.0504,29.9283,2.0935,61.4828,9.4625,84.1731,30.3627,5.0152,4.6195,9.4608,9.8213,13.0927,15.5976,3.5196,5.5977,6.3027,11.6206,10.0054,17.1128,6.2167,9.2213,16.6317,18.1924,28.1063,11.4711,5.3354-3.1252,8.6507-8.7764,10.9705-14.3219,3.1939-7.6351,5.2945-15.829,6.7526-23.9615,2.9358-16.3733,2.8902-33.1927-.2169-49.5382-1.188-6.2499-3.1794-12.0999-8.2689-16.2797-3.8502-3.162-9.0633-4.1769-12.6068-.0113-.9715,1.142-.9907,2.5643,0,3.7128,4.3952,5.0952,10.1453,.5682,12.3737-4.1303,2.7237-5.7428,1.3622-11.4975-.6323-17.2367-3.6423-10.4808-10.3376-19.5575-18.8577-26.6073-18.4538-15.2691-42.8632-22.0295-66.0359-26.0493-21.6554-3.7566-43.4406-4.2806-65.2661-6.2385-11.6714-1.047-23.985-2.7174-34.6581-7.8418-4.7488-2.28-9.2979-5.3182-12.4417-9.622-4.025-5.5101-4.7843-12.3155-4.9271-18.9674-.483-22.5128,9.4649-43.427,19.2684-63.1022,4.719-9.4707,9.673-18.925,13.4525-28.8234,2.9073-7.6143,4.8655-16.7441-.1506-23.9249-.8585-1.229-2.2271-1.6092-3.592-.9419-8.8,4.3024-3.3024,16.348-.1811,22.5683,2.1249,4.2345,4.604,8.2688,6.9678,12.3702,2.4264,4.2099,4.303,8.675,6.9562,12.7669,12.8618,19.8361,34.7002,31.4673,57.9545,33.7425,25.3664,2.4819,49.4348-6.7014,69.6815-21.5428,20.4575-14.9958,35.6075-35.304,48.1929-57.0902,14.52-25.1352,26.3346-51.7845,42.7789-75.7953,1.9142-2.795-2.634-5.4241-4.5339-2.6501h0Z"/><g><path d="M696.4891,410.4418c-7.7677,.942-15.5206-1.9229-21.994-6.0715-4.8577-3.1132-8.8615-7.353-11.4297-12.5379-2.8785-5.8112-3.5419-12.3714-3.2299-18.7711,.3998-8.2025,2.5471-16.2541,5.6171-23.8439,3.0183-7.4621,7.0233-14.8199,11.8163-21.296,3.5939-4.8558,8.2989-9.0697,13.8951-11.4592,8.5771-3.6624,17.9232-2.5132,26.4115,.7302,2.564,.9797,5.6404,2.4738,8.3896,4.1272,.7429,.4468,1.4671,.9193,2.1892,1.3984,.1414,.0938,.2852,.2347,.4385,.307,.3093,.1457-.4733-.6215-.4165-.307,.048,.266,.6358,.7417,.8045,.9493,.1119,.1377,.2199,.2785,.3323,.4158,.4467,.5456-.3538-.483,.0395,.0499,.2963,.4015,.5975,.799,.8875,1.2052,1.7546,2.4574,3.3082,5.059,4.6893,7.7431,4.1657,8.0961,6.7815,17.4276,7.5029,26.8048,.49,6.3698,.2187,12.819-.8152,19.1235-.6216,3.79-1.4857,7.5387-2.5576,11.2263-.5399,1.8576-1.1324,3.6997-1.7735,5.5248-.5295,1.5074-1.161,3.6919-1.8348,4.8441-1.6074,2.7485-3.3608,5.2135-4.5155,8.2351-1.5739,4.1186-1.9524,9.3128,1.7193,12.4619,2.5598,2.1954,6.0486,2.6404,9.2094,3.436,4.079,1.0268,8.1444,2.1089,12.1877,3.2686,8.2614,2.3695,16.4377,5.0626,24.412,8.2749,3.8512,1.5515,7.6469,3.2402,11.3756,5.0668,3.7689,1.8463,7.3267,4.0591,11.0502,5.973,1.3101,.6734,.0336-.13,.1967,.0729,.008,.0099-.4103-.604-.2231-.2807,.2252,.3889-.1979-.6654-.0892-.2027,.0574,.2446,.0216,.5622,.0006-.1762,.0074,.2608,.0143,.5177,.0107,.7791-.002,.1469-.0246,.2934-.0374,.4395-.0032,.0367,.0972-.4362-.0388,.1679-.4145,1.8411-.998,3.6124-1.6914,5.3681-2.8313,7.1691-6.8341,14.6766-11.2408,21.239-.1813,.27,.2248-.2886,.2078-.267-.1144,.1447-.2286,.2899-.3466,.4318-.2312,.278-.4618,.5564-.6976,.8305-.7107,.8263-1.4477,1.6304-2.2033,2.4158-1.6903,1.7571-3.4736,3.4492-5.3935,4.9549-1.6286,1.2773-3.7289,2.6884-5.4383,3.2599-.4753,.1589-.9547,.3019-1.4485,.3915-.4753,.0862,.5975-.0194-.1911,.0218-.2466,.0129-.4899,.0156-.7366,.0061-.2828-.0109-.8528-.2287-1.1757-.4963-.358-.2968-1.0363-1.037-1.0628-1.7916-.0165-.4695,.6084-1.7184,1.1562-1.6469,.9341,.1219,1.2224,2.5695,1.3405,3.2301,.3935,2.2003,.6656,4.428,.9832,6.6402,1.089,7.5856,2.3238,15.1429,4.9797,22.3612,3.8886,10.5686,11.008,25.2055,24.451,23.8059,7.9444-.8271,14.7763-5.8414,20.7466-10.7869,6.1744-5.1147,11.7225-10.9676,16.7416-17.2113,10.4313-12.9766,18.423-27.6548,25.5315-42.6601,3.4069-7.1916,6.4419-14.5542,8.8266-22.1499,.7898-2.5157,1.7204-4.9857,2.7181-7.4257,4.094-10.0129,10.1009-20.7858,18.9381-27.6765,1.0574-.8245,1.6133-1.494,1.7004-2.849,.054-.8397,.065-1.6846,.0975-2.5253l.2467-6.3914c.0683-1.7694,.3231-3.3789,1.5781-4.7581,1.7452-1.9179,4.6204-2.4511,6.9402-1.3053,3.8975,1.9252,3.3577,6.5493,3.5526,10.2005,.1126,2.1106,2.1143,3.1067,3.9504,2.2669,6.725-3.0756,13.45-6.1512,20.1749-9.2268,2.9396-1.3444,5.8548-2.775,8.8303-4.0384,1.5904-.6753,3.3425-.8358,4.9764-.1744,2.0793,.8416,3.0448,2.6081,3.9193,4.5204,1.0719,2.3438,2.1438,4.6876,3.2157,7.0314,1.1216,2.4525,1.8777,4.3539-.0419,6.9316-1.289,1.7309,.4987,3.8282,2.2669,3.9504,1.6361,.1131,3.1526,1.0545,3.895,2.5359,.943,1.8817,.4682,3.7616-.7358,5.3784-1.289,1.7309,.4987,3.8282,2.2669,3.9504,1.6361,.1131,3.1526,1.0545,3.895,2.5359,.943,1.8817,.4682,3.7616-.7358,5.3784-1.289,1.7309,.4987,3.8282,2.2669,3.9504,4.4649,.3088,5.973,6.2238,2.2206,8.64-2.104,1.3548-4.7553,2.1367-7.039,3.1259-2.7854,1.2064-5.549,2.4419-8.3093,3.7043-10.9471,5.0065-21.8942,10.0131-32.8414,15.0196-1.1654,.533-2.3289,1.1692-3.5317,1.6152-1.6383,.6074-3.5247,.393-4.9079-.7075-2.233-1.7767-2.0017-4.7302-.4357-6.8259,1.2923-1.7295-.5012-3.8283-2.2669-3.9504-1.6361-.1131-3.1526-1.0545-3.895-2.5359-.943-1.8817-.4682-3.7616,.7358-5.3784,1.289-1.7309-.4987-3.8282-2.2669-3.9504-1.6361-.1131-3.1526-1.0545-3.895-2.5359-.943-1.8817-.4682-3.7616,.7358-5.3784,1.2893-1.7313-.499-3.8275-2.2669-3.9504-2.6237-.1824-4.7353-2.5539-4.3609-5.2193,.2688-1.9134,1.5894-3.1894,3.2568-3.9895,2.0311-.9747,4.1012-1.8756,6.1499-2.8126,7.3808-3.3755,14.7615-6.751,22.1423-10.1265,1.9507-.8921,3.9013-1.7842,5.852-2.6763,1.2895-.5897,1.6066-2.4555,.9419-3.592-.7748-1.3246-2.2976-1.5338-3.592-.9419-5.9078,2.7019-11.8156,5.4037-17.7234,8.1056-3.9318,1.7982-7.8636,3.5963-11.7954,5.3945-1.9981,.9138-4.2981,1.6837-6.1042,2.9655-3.3706,2.3921-5.079,6.554-4.1299,10.6147,1.0305,4.4087,4.9922,7.2247,9.3631,7.5285-.7556-1.3168-1.5113-2.6336-2.2669-3.9504-2.3037,3.0934-2.5507,7.2903-.7358,10.6787,1.6864,3.1485,4.9509,4.896,8.4289,5.1365-.7556-1.3168-1.5113-2.6336-2.2669-3.9504-2.3037,3.0934-2.5507,7.2903-.7358,10.6787,1.6864,3.1485,4.9509,4.896,8.4289,5.1365-.7556-1.3168-1.5113-2.6336-2.2669-3.9504-3.9265,5.2549-1.5433,12.8026,4.475,15.1245,3.0363,1.1714,6.0341,.516,8.8728-.7822,5.1273-2.3449,10.2546-4.6898,15.3819-7.0347,9.7642-4.4655,19.4862-9.0336,29.3389-13.3011,3.6922-1.5992,7.8072-2.7838,9.8147-6.6172,3.4486-6.5851-1.3532-14.0668-8.5052-14.5613,.7556,1.3168,1.5113,2.6336,2.2669,3.9504,2.3037-3.0934,2.5507-7.2903,.7358-10.6787-1.6864-3.1485-4.9509-4.896-8.4289-5.1365,.7556,1.3168,1.5113,2.6336,2.2669,3.9504,2.3037-3.0934,2.5507-7.2903,.7358-10.6787-1.6864-3.1485-4.9509-4.896-8.4289-5.1365,.7556,1.3168,1.5113,2.6336,2.2669,3.9504,2.3866-3.2048,2.3666-7.0921,.7809-10.6161-.9212-2.0471-1.8674-4.0832-2.801-6.1246-.8077-1.766-1.5065-3.7327-2.6626-5.3084-2.3508-3.204-6.2299-5.0864-10.2231-4.7054-3.3262,.3173-6.6416,2.3106-9.6424,3.683-4.7047,2.1517-9.4095,4.3033-14.1142,6.455-3.1988,1.4629-6.3976,2.9259-9.5964,4.3888,1.3168,.7556,2.6336,1.5113,3.9504,2.2669-.1228-2.3019-.0889-4.6768-.473-6.9545-.7474-4.4323-4.4597-8.1062-8.8677-8.8947-4.4476-.7955-8.9429,1.1242-11.4253,4.9114-1.6763,2.5574-1.7521,5.3942-1.865,8.3177-.099,2.5647-.198,5.1294-.297,7.6941l1.3003-2.2669c-9.3859,6.9429-15.7212,17.342-20.3702,27.8804-3.6135,8.1911-5.8911,16.8543-9.4468,25.0712-3.3758,7.801-7.2823,15.3577-11.2843,22.8521-3.7043,6.9368-7.772,13.6516-12.3966,20.0174-4.6196,6.3589-9.7743,12.3546-15.479,17.7661-5.1105,4.8478-10.9026,9.9266-17.5186,12.5824-3.1475,1.2635-6.7452,1.9746-10.0492,.8913-2.173-.7124-3.9922-2.3634-5.5092-4.0381-3.7791-4.1718-6.3334-9.5668-8.3118-14.788-2.5659-6.7719-3.8948-13.8475-4.9429-20.9922-.2896-1.9742-.5647-3.9506-.8559-5.9246-.2639-1.7888-.4431-3.6295-1.1072-5.3248-1.2829-3.2748-4.5694-5.623-8.0781-4.0046-2.9528,1.3619-4.7375,5.0693-3.7572,8.2165,.7295,2.3421,2.5909,4.3787,4.8866,5.232,4.339,1.6128,9.1234-1.2081,12.4878-3.7328,3.5565-2.6688,6.8305-5.7938,9.6413-9.2427,1.809-2.2197,3.2091-4.7462,4.6178-7.2299,2.2931-4.0431,4.4621-8.1693,6.376-12.4064,1.603-3.5488,3.503-7.4914,3.6913-11.4558,.0688-1.4472-.2863-2.9599-1.3894-3.9656-1.3299-1.2125-3.2627-2.0326-4.8208-2.9006-1.912-1.0651-3.8472-2.0883-5.8024-3.0717-7.1789-3.6105-14.6233-6.6996-22.1896-9.3991-7.744-2.7629-15.6309-5.11-23.5778-7.213-1.8473-.4888-3.6981-.9641-5.5517-1.4284-1.73-.4333-3.6773-.6877-5.3219-1.3978-.2608-.1126-1.045-.5711-1.0149-.5483-.2027-.1534-.8394-.8667-.6763-.6409-.096-.1329-.1914-.285-.269-.4313-.3711-.699,.1173,.4559-.1449-.2872-.0699-.1981-.1202-.3999-.1733-.6027-.1562-.5973-.0459,.0395-.0771-.4347-.2198-3.3303,1.5969-6.779,3.5507-9.8707,.4487-.71,1.0255-1.3774,1.4369-2.1061,.8529-1.5105,1.3617-3.3617,1.9513-4.9862,.6972-1.921,1.3415-3.8614,1.9274-5.8193,6.3179-21.1116,5.375-44.394-5.4474-63.8811-1.2765-2.2984-2.6843-4.5297-4.2542-6.6397-.7232-.972-1.4563-2.0905-2.3468-2.9324-.9571-.9048-2.2507-1.5863-3.3671-2.2532-2.7951-1.6695-5.7361-3.0762-8.7589-4.2822-8.4527-3.3725-18.029-4.6975-26.8808-2.1037-13.1529,3.8542-21.228,15.2435-27.4195,26.7636-7.239,13.4693-12.5163,29.4658-10.5438,44.932,.7697,6.035,2.7398,11.9084,6.3083,16.8832,3.5056,4.8871,8.1607,8.7858,13.4398,11.6438,6.6271,3.5878,14.2624,6.0745,21.8661,5.1524,1.4074-.1707,2.6254-1.0845,2.6254-2.6254,0-1.2864-1.2082-2.7972-2.6254-2.6254h0Z"/><path d="M901.0837,440.4532c11.0885-5.0712,22.177-10.1424,33.2654-15.2136,1.5552-.7113,3.1104-1.4225,4.6656-2.1338,1.2895-.5897,1.6066-2.4555,.9419-3.592-.7748-1.3246-2.2976-1.5338-3.592-.9419-11.0885,5.0712-22.177,10.1424-33.2654,15.2136-1.5552,.7113-3.1104,1.4225-4.6656,2.1338-1.2895,.5897-1.6066,2.4555-.9419,3.592,.7748,1.3246,2.2976,1.5338,3.592,.9419h0Z"/><path d="M906.0772,451.9289c11.0885-5.0712,22.177-10.1424,33.2654-15.2136,1.5552-.7113,3.1104-1.4225,4.6656-2.1338,1.2895-.5897,1.6066-2.4555,.9419-3.592-.7748-1.3246-2.2976-1.5338-3.592-.9419-11.0885,5.0712-22.177,10.1424-33.2654,15.2136-1.5552,.7113-3.1104,1.4225-4.6656,2.1338-1.2895,.5897-1.6066,2.4555-.9419,3.592,.7748,1.3246,2.2976,1.5338,3.592,.9419h0Z"/><path d="M911.0707,463.4046c11.0885-5.0712,22.177-10.1424,33.2654-15.2136,1.5552-.7113,3.1104-1.4225,4.6656-2.1338,1.2895-.5897,1.6066-2.4555,.9419-3.592-.7748-1.3246-2.2976-1.5338-3.592-.9419-11.0885,5.0712-22.177,10.1424-33.2654,15.2136-1.5552,.7113-3.1104,1.4225-4.6656,2.1338-1.2895,.5897-1.6066,2.4555-.9419,3.592,.7748,1.3246,2.2976,1.5338,3.592,.9419h0Z"/></g><path d="M371.5717,284.1215c-2.8269-1.0367-5.835-1.6909-8.7956-2.1939-6.5534-1.1134-13.2582-1.3139-19.7966,.0264-4.2133,.8637-8.3007,2.4622-11.9362,4.7658-2.8467,1.8038-.2154,6.3496,2.6501,4.5339,5.7093-3.6177,12.3497-5.0266,19.0508-5.0008,5.1149,.0197,9.6278,.6878,14.6053,2.0576,.9492,.2612,1.9013,.535,2.8262,.8743,1.3314,.4883,2.876-.5472,3.2295-1.8337,.4023-1.464-.4975-2.7395-1.8337-3.2295h0Z"/><path d="M328.5762,242.8969c.3399,7.8167,.6797,15.6335,1.0196,23.4502,.0491,1.1289,.0982,2.2579,.1473,3.3868,.1463,3.3659,5.3979,3.3841,5.2507,0-.3399-7.8167-.6797-15.6335-1.0196-23.4502-.0491-1.1289-.0982-2.2579-.1473-3.3868-.1463-3.3659-5.3979-3.3841-5.2507,0h0Z"/><path d="M341.9948,242.8969c.3399,7.8167,.6797,15.6335,1.0196,23.4502,.0491,1.1289,.0982,2.2579,.1473,3.3868,.1463,3.3659,5.3979,3.3841,5.2507,0-.3399-7.8167-.6797-15.6335-1.0196-23.4502-.0491-1.1289-.0982-2.2579-.1473-3.3868-.1463-3.3659-5.3979-3.3841-5.2507,0h0Z"/><path d="M355.4133,242.8969c.3399,7.8167,.6797,15.6335,1.0196,23.4502,.0491,1.1289,.0982,2.2579,.1473,3.3868,.1463,3.3659,5.3979,3.3841,5.2507,0-.3399-7.8167-.6797-15.6335-1.0196-23.4502-.0491-1.1289-.0982-2.2579-.1473-3.3868-.1463-3.3659-5.3979-3.3841-5.2507,0h0Z"/><path d="M52.5338,403.5086c22.9585-9.8965,45.9171-19.7928,68.8755-29.6896,20.8013-8.9669,42.3101-16.1971,62.6743-26.2382,3.4049-1.6789,6.8516-3.4629,9.479-6.203,16.2842-16.9829-12.3508-28.4374-23.7424-35.7595-18.482-11.8795-37.5193-22.8951-57.0301-32.9963,10.1374,12.1265,20.2749,24.2529,30.4123,36.3794-7.8591-2.634-14.3107-6.84-22.3225-8.8209-10.2918-2.5446-20.4186-5.8578-30.5799-8.9021-20.6542-6.188-41.3084-12.3759-61.9626-18.5639,23.7265,13.7714,48.9746,33.6348,73.8738,45.1513-26.1952,12.9669-52.5707,20.1612-77.2112,35.883,20.4316-1.6498,40.7316-4.9271,60.6443-9.7908,11.1596-2.7257,22.5172-5.9768,33.9411-4.768-22.3505,21.4395-44.7011,42.879-67.0516,64.3186Z" style="fill:#f953b2;"/><path d="M174.62,292.5787c3.7524,1.4001,7.7892,.4141,11.4038-.9289,3.7939-1.4097,7.554-2.9173,11.3284-4.3786-.9883-1.2856-1.9766-2.5711-2.9649-3.8567-2.5024,5.4267-.5813,11.832,3.8999,15.648,4.9915,4.2506,11.8387,4.9108,18.1299,4.3748-.8439-1.1078-1.6877-2.2155-2.5316-3.3233-1.1696,7.5727,.8084,15.0165,5.5924,21.0032,.8858,1.1086,2.7887,.9242,3.7128,0,1.0952-1.0952,.8881-2.6015,0-3.7128-3.4865-4.3631-5.0946-10.3739-4.242-15.8945,.2358-1.5267-.658-3.4829-2.5316-3.3233-4.7254,.4026-10.141,.3538-14.1262-2.6062-2.7969-2.0774-4.8715-6.2591-3.3697-9.5157,.4497-.9753,.5007-2.0296-.2053-2.9158-.6024-.7563-1.7792-1.3204-2.7596-.9408-3.4998,1.3549-6.996,2.7194-10.4996,4.0644-3.0061,1.154-6.2608,2.4296-9.4408,1.2431-1.3287-.4957-2.8775,.5526-3.2295,1.8337-.404,1.4702,.5002,2.732,1.8337,3.2295h0Z" style="fill:#6966ed;"/><path d="M136.6888,407.6565c12.6933-12.353,25.732-24.3496,39.1062-35.9622,3.8125-3.3103,7.6526-6.5886,11.5176-9.8375,1.0861-.9129,.9416-2.7712,0-3.7128-1.0754-1.0754-2.6241-.9152-3.7128,0-13.5583,11.3969-26.7963,23.1732-39.6858,35.3215-3.6743,3.463-7.3195,6.9568-10.9379,10.4782-2.4259,2.3609,1.2887,6.072,3.7128,3.7128h0Z" style="fill:#6966ed;"/><path d="M206.2277,229.8556c15.4838-9.1758,35.8609-18.3993,39.8713-38.2461,1.4022-6.9395-.0262-14.22-2.8309-20.7205-2.8047-6.5006-6.9265-12.336-11.1241-18.0372-.8657,8.7449-.848,17.4927-1.3677,26.2357-7.9865-3.7042-16.6715-5.7246-24.8895-9.4152-10.9335-4.9102-21.998-9.5286-33.1778-13.8485,12.4384,10.5734,24.8986,21.1672,36.2688,32.8817-11.5153,.2721-22.3191,5.2865-32.7346,10.205-8.6567,4.0879-17.3141,8.1761-25.8832,12.4447,22.2941,1.5266,44.7394,.8357,66.8973-2.059-3.8741,6.7447-7.5527,13.6018-11.0295,20.5596Z" style="fill:#f953b2;"/><path d="M188.0502,385.7367c2.1252-3.0041,4.2504-6.0082,6.3757-9.0122,.3735-.528,.4301-1.4221,.2647-2.023-.1677-.609-.6386-1.2689-1.2065-1.569-1.3494-.713-2.7428-.2585-3.592,.9419-2.1252,3.0041-4.2504,6.0082-6.3757,9.0122-.3735,.528-.4301,1.4221-.2647,2.023,.1677,.609,.6386,1.2689,1.2065,1.569,1.3494,.713,2.7428,.2585,3.592-.9419h0Z" style="fill:#6966ed;"/><path d="M251.6391,154.5618c-1.6539,2.8314-3.5029,5.6214-4.9851,8.5457-.766,1.5112-.784,3.1454,.1479,4.5941,.757,1.1768,1.9445,2.0243,2.8435,3.0863,3.113,3.6777,4.237,8.956,3.0986,13.5998-.2696,1.0999,.1696,2.4058,1.2065,2.9649,3.6988,1.9941,6.8336,4.6625,9.437,7.9606,.8792,1.1139,2.7929,.9199,3.7128,0,1.1-1.1,.8815-2.5961,0-3.7128-2.8493-3.6097-6.4527-6.5998-10.4997-8.7816,.4022,.9883,.8043,1.9766,1.2065,2.9649,1.2998-5.302,.4779-10.9995-2.2928-15.7121-.6857-1.1663-1.5072-2.2696-2.4036-3.2823-.4173-.4715-.866-.9059-1.3217-1.3395-.1533-.1459-.4731-.5807-.6413-.6475,.174,.069-.3416,1.2009,.1286,.7984,.485-.4151,.8461-1.454,1.1703-2.0092l1.202-2.0579c.8414-1.4405,1.6829-2.881,2.5243-4.3215,1.7078-2.9238-2.8285-5.5697-4.5339-2.6501h0Z" style="fill:#6966ed;"/><path d="M153.121,107.7121c6.0075,6.7245,12.0149,13.449,18.0224,20.1735,.945,1.0578,2.75,.9629,3.7128,0,1.0512-1.0512,.9474-2.6523,0-3.7128-6.0075-6.7245-12.0149-13.449-18.0224-20.1735-.945-1.0578-2.75-.9629-3.7128,0-1.0512,1.0512-.9474,2.6523,0,3.7128h0Z" style="fill:#6966ed;"/></svg>