<?xml version="1.0" encoding="UTF-8"?><svg id="Layer_2" xmlns="http://www.w3.org/2000/svg" width="1000" height="1000" viewBox="0 0 1000 1000"><path d="M548.1194,382.6305l-2.1763-33.3679c-.6443-9.8787-8.3561-17.8331-18.2101-18.7831l-22.3347-2.1531c-7.3674-.7102-13.7582-5.3943-16.6431-12.2106-2.423-5.725-5.1618-11.2759-8.1947-16.6317-3.6519-6.4489-3.4857-14.3764,.4449-20.6593l11.9011-19.0234c5.2505-8.3927,3.6415-19.3542-3.7994-25.8839l-25.1335-22.0557c-7.4409-6.5297-18.5185-6.7013-26.1581-.4052l-17.3163,14.2712c-5.7192,4.7134-13.5578,5.908-20.4265,3.1246-5.7044-2.3116-11.5641-4.3062-17.5553-5.965-7.1332-1.9751-12.6077-7.7033-14.2689-14.9161l-5.036-21.8658c-2.2219-9.6471-11.1106-16.2604-20.9893-15.6161l-33.3679,2.1763c-9.8787,.6443-17.8332,8.3561-18.7831,18.2101l-2.1531,22.3345c-.7102,7.3675-5.3943,13.7583-12.2106,16.6432-5.725,2.423-11.2759,5.1618-16.6317,8.1947-6.4489,3.6519-14.3764,3.4857-20.6593-.4449l-19.0234-11.9011c-8.3926-5.2505-19.3542-3.6415-25.8839,3.7994l-22.0557,25.1335c-6.5297,7.4409-6.7013,18.5186-.4052,26.1581l14.2712,17.3162c4.7135,5.7192,5.908,13.5579,3.1246,20.4265-2.3116,5.7044-4.3062,11.5641-5.965,17.5553-1.9751,7.1332-7.7033,12.6077-14.9161,14.2689l-21.8658,5.036c-9.6471,2.2219-16.2604,11.1106-15.6161,20.9893l2.1763,33.3679c.6443,9.8787,8.3561,17.8332,18.2101,18.7831l22.3346,2.1531c7.3675,.7102,13.7583,5.3943,16.6432,12.2106,2.423,5.725,5.1618,11.2759,8.1948,16.6317,3.6519,6.4489,3.4857,14.3764-.4449,20.6593l-11.9011,19.0234c-5.2505,8.3926-3.6415,19.3542,3.7994,25.8839l25.1335,22.0557c7.4409,6.5297,18.5185,6.7013,26.1581,.4052l17.3164-14.2712c5.7192-4.7134,13.5579-5.9079,20.4265-3.1246,5.7044,2.3116,11.564,4.3062,17.5553,5.965,7.1332,1.9751,12.6078,7.7033,14.269,14.9161l5.0359,21.8657c2.2218,9.6472,11.1106,16.2604,20.9893,15.6161l33.3679-2.1763c9.8787-.6443,17.8331-8.3561,18.7831-18.2101l2.1531-22.3347c.7102-7.3674,5.3943-13.7582,12.2106-16.6431,5.725-2.423,11.2759-5.1618,16.6317-8.1948,6.4489-3.6519,14.3764-3.4857,20.6593,.4449l19.0234,11.9011c8.3926,5.2505,19.3542,3.6415,25.8839-3.7994l22.0558-25.1335c6.5297-7.4409,6.7013-18.5186,.4052-26.1581l-14.2713-17.3164c-4.7134-5.7192-5.908-13.5578-3.1246-20.4265,2.3115-5.7044,4.3062-11.5641,5.965-17.5553,1.9751-7.1332,7.7033-12.6077,14.9161-14.2689l21.8657-5.0359c9.6472-2.2218,16.2604-11.1106,15.6161-20.9893Z" style="fill:#f4d13b;"/><circle cx="339.1008" cy="379.5082" r="105.8298" style="fill:#f953b2;"/><circle cx="339.1008" cy="379.5082" r="44.9571" style="fill:#fff;"/><path d="M361.5015,647.6535l-8.5586-21.5122c-2.5338-6.3688-9.3115-9.961-16.0045-8.4825l-15.1699,3.3512c-5.004,1.1054-10.2134-.615-13.5689-4.4883-2.8183-3.2532-5.8075-6.3243-8.9487-9.2041-3.7823-3.4676-5.3657-8.7243-4.1185-13.7018l3.7762-15.0706c1.666-6.6488-1.7345-13.5247-8.0296-16.2365l-21.2633-9.1595c-6.2951-2.7117-13.6277-.4592-17.3149,5.3189l-8.3575,13.097c-2.7603,4.3256-7.668,6.7862-12.7862,6.4198-4.2507-.3043-8.5359-.3668-12.8361-.18-5.1199,.2224-9.9487-2.3814-12.583-6.7771l-7.986-13.326c-3.5234-5.8794-10.7899-8.337-17.1586-5.8031l-21.5122,8.5586c-6.3688,2.5338-9.961,9.3116-8.4825,16.0045l3.3512,15.1698c1.1055,5.0041-.6149,10.2134-4.4883,13.569-3.2532,2.8184-6.3244,5.8075-9.2042,8.9487-3.4676,3.7823-8.7243,5.3657-13.7018,4.1185l-15.0706-3.7762c-6.6488-1.666-13.5247,1.7345-16.2364,8.0296l-9.1595,21.2632c-2.7117,6.2951-.4592,13.6278,5.3189,17.3149l13.097,8.3575c4.3256,2.7603,6.7862,7.668,6.4198,12.7862-.3043,4.2507-.3668,8.5359-.18,12.8361,.2224,5.1199-2.3814,9.9487-6.7771,12.583l-13.326,7.986c-5.8794,3.5234-8.337,10.7899-5.8031,17.1586l8.5586,21.5122c2.5338,6.3688,9.3116,9.961,16.0045,8.4825l15.1698-3.3512c5.0041-1.1055,10.2134,.6149,13.569,4.4883,2.8184,3.2532,5.8075,6.3244,8.9488,9.2042,3.7823,3.4676,5.3657,8.7243,4.1185,13.7017l-3.7762,15.0706c-1.666,6.6488,1.7345,13.5247,8.0296,16.2364l21.2632,9.1595c6.2951,2.7117,13.6277,.4593,17.3149-5.3189l8.3576-13.0971c2.7603-4.3256,7.668-6.7862,12.7862-6.4197,4.2507,.3044,8.5359,.3668,12.8361,.18,5.1199-.2224,9.9487,2.3814,12.583,6.7772l7.9859,13.3259c3.5234,5.8794,10.7899,8.337,17.1587,5.8032l21.5122-8.5586c6.3688-2.5338,9.961-9.3115,8.4825-16.0045l-3.3512-15.17c-1.1054-5.004,.615-10.2134,4.4883-13.569,3.2532-2.8183,6.3243-5.8075,9.2042-8.9487,3.4676-3.7823,8.7243-5.3657,13.7017-4.1185l15.0706,3.7762c6.6488,1.666,13.5247-1.7345,16.2364-8.0295l9.1596-21.2632c2.7117-6.2951,.4593-13.6278-5.3189-17.3149l-13.0971-8.3576c-4.3256-2.7603-6.7862-7.668-6.4198-12.7862,.3043-4.2507,.3668-8.5359,.18-12.8361-.2224-5.1199,2.3814-9.9487,6.7772-12.583l13.3259-7.9859c5.8794-3.5234,8.337-10.7899,5.8032-17.1587Z" style="fill:#f953b2;"/><circle cx="223.17" cy="690.2302" r="73.274" style="fill:#6966ed;"/><circle cx="223.17" cy="690.2302" r="31.1272" style="fill:#fff;"/><circle cx="539.5137" cy="359.0978" r="105.0086" style="fill:#6966ed;"/><circle cx="539.5137" cy="359.0978" r="74.3195" style="fill:#fff;"/><path d="M530.524,342.8603l-22.1472-3.6022c-7.3056-1.1883-13.3779-6.2783-15.8131-13.2679-2.0453-5.8705-4.417-11.5879-7.0949-17.1298-.0852-.1761-.1565-.3563-.2362-.5344-15.8537,16.9785-23.5331,41.1133-18.5422,65.6092,4.2991,21.1007,17.1484,38.2725,34.1982,48.6507,2.2458-1.4094,4.7816-2.3876,7.4882-2.8279l22.1471-3.602c9.7713-1.5894,16.949-10.0287,16.949-19.9285v-33.4387c0-9.8997-7.1777-18.3391-16.949-19.9285Z" style="fill:#f953b2;"/><path d="M557.0334,458.1358h32.5379v122.1618c0,7.6748-6.2309,13.9057-13.9057,13.9057h-4.7265c-7.6748,0-13.9057-6.2309-13.9057-13.9057v-122.1618h0Z" transform="translate(-93.5052 125.0491) rotate(-11.5162)" style="fill:#6966ed;"/><g><path d="M498.5631,495.2304l2.7786-28.3076-15.6413-1.5803-2.8592,28.2994,1.4349,4.3416c.6579,1.9906,.889,4.0975,.6782,6.1834l-10.8503,107.3926,9.4331,.9531,10.8503-107.3926c.2107-2.0859,.8586-4.104,1.9014-5.9228l2.2743-3.9669Z" style="fill:#f953b2;"/><path d="M488.0128,615.3282l.2364-2.3394-18.8572-1.9052-.2364,2.3394c-.6922,6.8516-6.8078,11.8448-13.6594,11.1526h0s-12.0615,119.3814-12.0615,119.3814c-1.2184,12.0589,7.5697,22.8223,19.6286,24.0406h0c12.0589,1.2184,22.8223-7.5697,24.0406-19.6286l12.0615-119.3814h0c-6.8516-.6922-11.8448-6.8078-11.1526-13.6594Z" style="fill:#f953b2;"/></g><path d="M928.0535,770.1477c3.0941,2.605,6.6444,.3486,7.7785-3.1244,.7296-2.2343,.8367-4.819,1.1624-7.1394,.3621-2.5801,.6967-5.1641,.9941-7.7525,1.1681-10.1683,1.7847-20.3986,1.8794-30.6329,.1875-20.2506-1.6766-40.5063-5.2549-60.4332-7.0049-39.0088-20.8592-76.5631-39.4459-111.5071-18.0936-34.0168-40.6294-65.5721-65.8087-94.6895-1.42-1.6421-3.1077-3.2402-4.1828-5.14-.166-.2933-.3657-.9634-.5939-1.1217,.0302,.0209-.5713,.6671-.5469,.6709-.1464-.023,.3618-.1297,.4723-.0878,1.0555,.3997,2.3696,.3034,3.4923,.769,1.5127,.6273,2.6313,1.6259,3.7093,2.8409,2.4732,2.7874,4.3107,6.1391,6.2265,9.3159,2.2854,3.7895,4.7426,7.4592,6.8777,11.3409,9.1183,16.5773,13.674,35.4113,10.545,54.2674-5.6625,34.1232-32.3873,58.683-59.6719,77.3323-24.3852,16.6676-51.6309,28.7366-79.9556,36.9371-25.2233,7.3026-51.2571,11.6328-77.4288,13.5705-19.8439,1.4692-39.8004,1.6139-59.6629,.4126-6.2083-.3755-12.4102-.8829-18.5923-1.5683-1.9042-.2111-3.8061-.4416-5.7056-.692,.0818,.0108,.4474,.0647-.2904-.0406-.2837-.0405-.5676-.0793-.8512-.1203-.3516-.0509-.7025-.1088-1.0545-.1567-4.4984-.6115-8.8516-.8944-13.1929-2.3813-6.8578-2.3488-12.4672-7.0264-17.7375-11.8517-3.0391-2.7825-5.9288-6.2004-9.543-8.24-3.6529-2.0614-7.9736-2.7092-12.0597-1.7411-7.3317,1.7371-12.6922,8.6628-12.5975,16.1843,.0528,4.1914,1.7302,8.4897,2.8035,12.503,.9142-1.2002,1.8285-2.4003,2.7427-3.6005-8.9841-1.1445-17.9683-2.2891-26.9524-3.4336-5.1483-.6559-10.2965-1.3117-15.4448-1.9676-4.8797-.6216-9.4944-.3545-13.2133,3.4849-7.0645,7.2935-4.0898,21.3188,6.5535,23.1071,.252-1.8624,.5041-3.7247,.7561-5.5871-7.1222-.6147-12.9518,5.09-13.8395,11.9376-.8854,6.8303,3.3159,13.8699,10.3559,15.059l.7561-5.5871c-7.1222-.6147-12.9518,5.09-13.8395,11.9376-.8854,6.8303,3.3159,13.8699,10.3559,15.059,.252-1.8624,.5041-3.7247,.7561-5.5871-8.0069-.698-14.2661,6.6024-13.9792,14.3238,.2387,6.4248,4.7532,11.6024,11.0224,12.7528,9.4027,1.7254,18.8947,3.061,28.3585,4.3941,18.9577,2.6704,37.9855,4.9187,57.075,6.402,5.0877,.3953,10.179,.672,15.261,1.1235,10.6857,.9494,21.4081,1.5212,32.1276,1.9073,19.5478,.7042,39.1241,.693,58.6715-.0158,24.9232-.9037,49.8042-2.973,74.5074-6.4149,27.0218-3.765,53.8594-9.2258,79.9877-17.1265,26.219-7.9282,51.87-18.3354,75.4705-32.3191,11.6472-6.9012,22.7737-14.7018,33.118-23.441,5.9907-5.0611,11.6281-10.5197,17.3342-15.8949,7.1132-6.7007,14.1842-13.4565,20.8773-20.581,13.3699-14.2315,24.5074-29.9623,32.4613-47.8444,8.0158-18.0213,13.0145-37.181,15.315-56.7537,4.7102-40.0741-1.822-82.0438-21.2159-117.6404-18.4382-33.8424-47.1048-62.0265-79.4196-82.6829-16.915-10.8124-35.1312-19.6043-54.0907-26.1996-8.7987-3.0608-17.7962-5.9484-27.0266-7.3486-7.5774-1.1494-15.8562-1.614-22.8268-5.0827-7.8431-3.9029-12.8468-12.8582-17.2033-20.1026-2.4131-4.0127-4.6844-8.1081-7.0223-12.1645-2.3815-4.1321-5.0774-8.0851-7.4175-12.2352-2.1932-3.8894-4.0193-7.9668-6.8234-11.4788-2.9057-3.6394-6.7203-6.5778-10.6235-9.0772-7.7356-4.9534-17.0892-9.5671-26.2018-11.1126-17.7774-3.015-36.6227,6.8667-48.3152,19.7764-9.6323,10.6349-15.0806,23.9061-16.0395,38.169-1.5721,23.3828,8.3392,51.107,29.9658,62.7027,5.2848,2.8336,11.0657,4.4964,17.043,4.9409,6.7388,.5012,12.7947-1.1267,19.2632-2.6544,5.9759-1.4113,12.7042,1.512,11.0157,8.5308-1.8182,7.5582-9.1122,10.6922-14.8998,14.7885-15.3851,10.8891-22.9045,30.3006-23.9386,48.5501-.5917,10.4433,.4806,20.9226,1.1357,31.339,.6637,10.5543,1.4205,21.1105,3.0071,31.5733,1.1942,7.8753,3.6296,15.4747,4.7849,23.3345,.9248,6.2917,1.4377,12.6363,2.4195,18.9216,1.5435,9.8816,4.8082,26.294,17.0037,28.1791,6.5086,1.0061,8.3651-5.7873,7.8835-10.9273-.6836-7.2949-4.8306-11.9752-9.9183-16.961-6.9635-6.8241-13.0693-14.447-20.1328-21.2046-7.2652-6.9507-14.9673-13.3735-22.7692-19.7063-7.6312-6.1943-15.0278-12.7187-23.1717-18.2487-8.4148-5.714-17.7094-9.6917-27.1088-13.4772-4.743-1.9102-9.5118-3.7625-14.1967-5.8133-4.1737-1.827-8.4592-4.825-12.946-5.7318-7.5719-1.5303-15.1881,2.9962-17.3044,10.4743-1.8227,6.4409,1.0952,12.7266,6.4202,16.418,3.205,2.2217,6.4548,4.3811,9.6815,6.5713,.2265-1.7329,.453-3.4658,.6795-5.1988-9.1689,1.9609-18.3378,3.9218-27.5067,5.8828-3.9353,.8416-8.1698,1.345-11.5238,3.7376-3.3087,2.3603-5.6371,5.9127-6.737,9.8086-1.2504,4.4289-.5543,8.6442,.2067,13.0779,.7694,4.4828,1.6136,9.095,4.3709,12.8411,2.5381,3.4483,8.0452,7.9765,12.436,5.1597,3.0718-1.9706,.2224-6.8966-2.8712-4.912-.9431,.605-3.5817-1.9801-4.163-2.5981-1.2015-1.2773-2.028-2.8391-2.6042-4.4844-1.1801-3.3698-1.6586-7.0536-2.2233-10.5669-1.068-6.6448,1.8857-13.7659,8.8758-15.3492,7.9153-1.7929,15.8784-3.3958,23.8146-5.0931,3.1459-.6728,6.2917-1.3456,9.4376-2.0184,2.5614-.5478,2.5641-3.9196,.6795-5.1988-3.1921-2.1666-6.4215-4.2864-9.5796-6.5021-5.2723-3.699-5.7579-11.5078-.1392-15.2344,3.4018-2.2562,6.9895-1.5241,10.3915,.2012,4.2536,2.1572,8.6319,4.054,13.037,5.8776,9.1821,3.8011,18.6021,7.1464,27.3965,11.8165,8.4195,4.471,15.8901,10.4216,23.2122,16.471,7.4152,6.1263,14.9712,12.0889,22.1778,18.4628,7.2819,6.4405,14.2595,13.236,20.7213,20.503,2.8288,3.1814,5.6309,6.279,8.6572,9.2754,2.3752,2.3517,5.1453,4.8823,6.2396,8.1302,.7159,2.1248,1.1154,4.658,.8091,6.8949-.2917,2.1297-.924,2.4122-2.8808,1.543-4.5169-2.0062-6.7904-7.2039-8.2028-11.6159-3.6254-11.3246-3.3916-23.3282-5.7659-34.8883-.7782-3.7889-1.9121-7.496-2.6825-11.2917-1.0389-5.1186-1.8063-10.2878-2.3921-15.4767-1.1393-10.0921-1.6671-20.2389-2.3179-30.3704-.6514-10.1398-1.4858-20.3923,.0151-30.5021,1.3629-9.1802,4.7328-17.8779,9.9281-25.5701,2.4685-3.6549,5.4046-7.1345,8.8391-9.9238,2.6235-2.1306,5.603-3.7797,8.3931-5.6741,5.8453-3.9688,10.7325-9.3418,11.2846-16.7259,.4664-6.2379-3.754-11.2517-9.7181-12.6475-6.4783-1.5161-12.2975,1.5887-18.6284,2.3414-24.425,2.9037-41.504-17.5766-47.1024-39.3056-2.9257-11.3555-3.1968-23.5891,.0483-34.9079,4.1965-14.6372,14.8102-27.0353,28.1468-34.2139,8.0015-4.3069,17.7082-7.3152,26.8463-5.8139,8.9496,1.4704,18.1083,6.0686,25.6187,11.0442,3.7507,2.4848,7.297,5.4488,9.769,9.248,2.389,3.6716,4.1118,7.7281,6.4654,11.424,4.859,7.6303,9.0723,15.6319,13.8064,23.3361,4.235,6.8921,9.1296,14.9317,16.1201,19.3398,6.244,3.9374,13.8692,5.0742,21.0381,6.1004,18.29,2.6183,35.9076,8.6365,52.7251,16.2288,33.9881,15.344,64.6684,38.1723,88.4809,66.93,11.9155,14.3901,22.0475,30.4724,29.1591,47.7784,7.4641,18.1639,11.8048,37.5788,13.3114,57.1394,2.9243,37.9678-4.154,77.2174-23.1895,110.4479-9.2946,16.2258-21.9962,29.9948-35.3437,42.9555-10.9025,10.5866-21.8469,21.3328-33.8958,30.6279-20.4786,15.7983-43.6211,28.05-67.6189,37.568-24.4842,9.7109-49.985,16.7512-75.7864,21.9534-24.6308,4.9662-49.5802,8.2444-74.6206,10.2522-21.4992,1.7239-43.0729,2.5197-64.6402,2.4853-15.1967-.0242-30.3976-.4502-45.567-1.3731-5.8445-.3556-11.6684-.8765-17.5024-1.353-18.61-1.5198-37.151-3.0189-55.6799-5.4066-12.2838-1.583-24.5449-3.3711-36.7624-5.4048-2.3631-.3934-5.3855-.5508-7.3373-1.9999-6.103-4.5313-2.4332-15.1733,5.2252-14.5056,3.1608,.2756,3.924-5.052,.7561-5.5871-9.4086-1.5891-7.547-16.6439,1.9713-15.8224,3.1607,.2728,3.9244-5.052,.7561-5.5871-9.4086-1.5891-7.547-16.6439,1.9713-15.8224,3.1604,.2728,3.925-5.0547,.7561-5.5871-8.335-1.4005-8.3312-14.6763,.1767-15.8219,2.5059-.3374,5.4953,.4709,7.9571,.7845l30.6448,3.904c2.9221,.3723,5.8441,.7445,8.7662,1.1168,1.8886,.2406,3.1696-2.0044,2.7427-3.6005-1.0787-4.0335-3.2283-8.9211-2.4233-13.1399,.6974-3.6549,3.3104-6.8229,6.8086-8.1287,4.4239-1.6514,8.7064-.0665,12.0285,2.9954,5.5999,5.1614,11.04,10.6704,17.6006,14.6349,6.5505,3.9584,13.5031,5.3595,20.9906,6.112,7.7568,.7796,15.4484,1.9243,23.2382,2.4925,18.9445,1.3818,37.9927,1.499,56.9561,.4341,25.8444-1.4514,51.6372-5.1125,76.7231-11.5476,28.2175-7.2385,55.6679-18.0906,80.5698-33.2904,13.2856-8.1094,25.8429-17.4613,37.3418-27.9555,12.9414-11.8108,23.9007-25.1729,30.5416-41.5396,6.7072-16.5302,8.1646-34.8969,3.9053-52.2374-2.3441-9.5435-6.3732-18.6714-11.3001-27.1518-2.0269-3.4889-4.261-6.8512-6.3456-10.3055-1.9819-3.284-4.0188-6.6644-6.6696-9.4633-3.1272-3.3019-11.2466-7.4055-15.1516-3.0165-2.2267,2.5027-.8831,5.949,.7988,8.3339,2.7705,3.9283,6.2727,7.4279,9.3698,11.1029,12.4416,14.7629,24.1486,30.1428,34.9338,46.1582,21.8353,32.424,39.9564,67.5079,52.0625,104.7335,12.6584,38.924,18.8391,80.076,16.3754,121.0054-.3025,5.0251-.7355,10.0424-1.3004,15.0448-.273,2.4173-.5765,4.8312-.9184,7.2397-.1889,1.331-.3881,2.6606-.5966,3.9887-.078,.4965-.14,1.0013-.2392,1.4939-.3801,1.8873-.328,.2555,1.4731,1.7718-2.7836-2.3437-6.8278,1.6607-4.0225,4.0225h0Z"/><g><path d="M697.4406,338.198c13.295-3.9769,14.9486-5.9662,19.7692-9.0817,4.8207-3.1155,9.043-7.474,10.9324-12.8939-2.945,9.0159-3.9138,20.9494-14.4603,29.5572,0,0-.1602-14.7776-16.2413-7.5815Z"/><path d="M698.1967,340.9408c5.1989-1.5622,10.5363-3.2303,15.2527-5.9808,3.7963-2.2139,7.7118-4.7939,10.8505-7.8526,2.9345-2.8598,5.1968-6.2718,6.585-10.1288-1.8285-.5041-3.657-1.0082-5.4855-1.5123-1.5614,4.8292-2.5216,9.8316-4.2603,14.6074-1.9198,5.2734-5.0421,10.0329-9.4686,13.6947,1.6185,.6704,3.2371,1.3408,4.8556,2.0113-.0288-2.1115-.5973-4.2226-1.4562-6.1362-1.671-3.7229-5.1375-5.9582-9.1687-6.2404-3.4307-.2401-6.8134,.9812-9.8963,2.3391-1.406,.6193-1.7329,2.6735-1.0204,3.8916,.848,1.4498,2.4802,1.6421,3.8916,1.0204,1.5262-.6723,3.1345-1.1775,4.7751-1.4787,.3488-.0542,.3679-.0603,.0572-.0184,.1726-.0206,.3456-.0378,.5188-.0516,.327-.0258,.6551-.04,.9831-.0385,.2308,.001,.4604,.0155,.6908,.0247,.8124,.0328-.1154-.0904,.31,.0341,.5031,.1472,1.0014,.2508,1.4955,.4361-.7877-.2953-.0383,.0082,.1319,.104,.2009,.1131,.3851,.2554,.5849,.3682,.474,.2676-.3711-.4129-.0449-.0337,.1389,.1615,.3289,.2945,.4792,.4478,.149,.152,.2769,.3324,.4303,.4783,.3305,.3143-.3452-.5803,.0284,.0559,.2081,.3544,.4343,.6914,.6194,1.0599,.0767,.1527,.1342,.3264,.222,.4723,.0909,.1509-.2428-.6994-.0402-.0738,.2162,.6678,.4301,1.3232,.5686,2.0132,.0493,.2456,.0769,.4965,.1285,.7413,.0933,.4423-.0757-.888-.0431-.3055,.0057,.1015,.0243,.2024,.0307,.304,.0124,.1953,.0325,.39,.0351,.5859,.0358,2.6275,3.01,3.538,4.8556,2.0113,4.9887-4.1268,8.4095-9.547,10.6904-15.5566,1.8866-4.9706,2.869-10.207,4.5014-15.2557,.4725-1.4614-.5521-3.1047-1.9866-3.4989-1.5789-.4338-2.9767,.5359-3.4989,1.9866-2.237,6.2152-7.6102,9.8951-12.8783,13.3682-1.7754,1.1704-3.6268,2.1933-5.5716,3.0558-.1596,.0707-.3196,.1406-.48,.2096,.2642-.1101,.2371-.099-.0814,.0333-.2704,.1112-.5416,.2203-.8136,.3276-.8135,.3208-1.6336,.6246-2.4578,.9169-2.1239,.7535-4.2744,1.4293-6.4324,2.0777-3.4972,1.0508-2.0073,6.543,1.5123,5.4855Z"/></g><path d="M595.8598,503.4105c1.2858-.2183,3.0417,.3119,4.2086,1.2609,1.6074,1.3073,2.5587,3.1161,2.9332,5.1952,.3271,1.816,.0165,3.7995-.8148,5.3013-.9069,1.6386-2.1312,2.5827-3.9703,2.9746-1.503,.3203-2.3765,2.0803-1.9866,3.4989,.441,1.6047,1.9789,2.2447,3.4989,1.9866,1.2858-.2183,3.0417,.3119,4.2086,1.2609,1.6074,1.3073,2.5587,3.1161,2.9332,5.1952,.3271,1.816,.0165,3.7995-.8148,5.3013-.9069,1.6386-2.1312,2.5827-3.9703,2.9746-1.503,.3203-2.3765,2.0803-1.9866,3.4989,.441,1.6047,1.9789,2.2447,3.4989,1.9866,1.6577-.2815,3.6145,.5283,5.051,2.0626,1.4895,1.5909,2.2661,3.9391,2.1989,6.205-.0622,2.0971-.8551,4.0511-2.4819,5.4064-.6336,.5278-1.5249,.8813-2.605,1.0951-4.1831,.8281-8.3774,1.6032-12.5657,2.4047-11.8064,2.2594-23.6128,4.5187-35.4192,6.7781-.6072,.1162-.8662,.1697-1.2782,.179-2.0615,.0465-4.0828-1.1595-5.3321-3.1431-1.4355-2.2792-1.7657-5.0273-.9762-7.4905,.6956-2.1702,2.2493-3.6586,4.4741-4.1328,1.503-.3203,2.3765-2.0803,1.9866-3.4989-.441-1.6047-1.9789-2.2447-3.4989-1.9866-1.2858,.2183-3.0417-.3119-4.2086-1.2608-1.6075-1.3073-2.5587-3.1161-2.9332-5.1952-.3271-1.816-.0165-3.7994,.8147-5.3013,.9069-1.6386,2.1312-2.5827,3.9703-2.9747,1.503-.3203,2.3765-2.0803,1.9866-3.4989-.441-1.6047-1.9789-2.2447-3.4989-1.9866-1.2858,.2183-3.0417-.3119-4.2086-1.2608-1.6075-1.3073-2.5587-3.1161-2.9332-5.1952-.3271-1.816-.0165-3.7994,.8147-5.3013,.9069-1.6386,2.1312-2.5827,3.9703-2.9747,1.503-.3203,2.3765-2.0803,1.9866-3.4989-.4275-1.5556-1.9915-2.3079-3.4989-1.9866-6.8578,1.4614-9.9932,8.8726-8.7583,15.2737,1.28,6.6351,7.3409,11.5837,14.1395,10.4293l-1.5123-5.4855c-6.8578,1.4614-9.9932,8.8726-8.7583,15.2737,1.28,6.6351,7.3409,11.5837,14.1395,10.4293-.5041-1.8285-1.0082-3.657-1.5123-5.4855-6.6479,1.4167-9.8163,8.4529-8.85,14.7168,.9355,6.0641,6.3408,11.8066,12.8346,11.1829,1.5147-.1455,3.0232-.508,4.5149-.7934,2.8541-.5462,5.7083-1.0924,8.5624-1.6386,12.3791-2.369,24.8075-4.5591,37.1506-7.1094,6.0678-1.2537,9.6567-7.4938,9.1228-13.4261-.6621-7.357-6.7287-13.5994-14.4008-12.2967,.5041,1.8285,1.0082,3.657,1.5123,5.4855,6.8578-1.4614,9.9932-8.8726,8.7583-15.2737-1.28-6.635-7.341-11.5837-14.1395-10.4293,.5041,1.8285,1.0082,3.657,1.5123,5.4855,6.8578-1.4614,9.9932-8.8726,8.7583-15.2737-1.28-6.635-7.341-11.5837-14.1395-10.4293-1.5156,.2573-2.3643,2.1246-1.9866,3.4989,.441,1.6047,1.9789,2.2447,3.4989,1.9866h0Z"/><path d="M555.9654,490.0871c10.6643-2.0408,21.3285-4.0816,31.9928-6.1224,1.3372-.2559,2.6769-.5689,4.0238-.77,1.3502-.2017,3.136,.3229,4.3429,1.3658,1.6006,1.3832,2.5999,3.338,2.8657,5.4437,.2744,2.1736-.3115,4.5042-1.5348,5.9642-1.0029,1.197-1.9579,1.678-3.4643,1.9865-2.1043,.4309-4.2212,.8078-6.3308,1.2115-5.9434,1.1374-11.8869,2.2748-17.8303,3.4121-1.5096,.2889-2.3704,2.1025-1.9866,3.4989,.4342,1.5801,1.9849,2.2763,3.4989,1.9866,5.5314-1.0585,11.0629-2.1171,16.5943-3.1756,2.4695-.4726,4.9416-.9334,7.4089-1.4178,4.5764-.8985,8.0409-4.646,9.0275-9.1583,1.2645-5.7825-1.1117-12.3607-6.3882-15.3516-2.8811-1.6331-5.8618-1.6062-8.9854-1.0085-6.1072,1.1687-12.2143,2.3374-18.3215,3.5061-5.4751,1.0477-10.9501,2.0955-16.4252,3.1432-1.5096,.2889-2.3704,2.1025-1.9866,3.4989,.4342,1.5801,1.9849,2.2763,3.4989,1.9866h0Z"/><path d="M598.5167,518.085c-7.1702,1.3721-14.3404,2.7443-21.5106,4.1164-1.0356,.1982-2.0711,.3963-3.1067,.5945-1.5096,.2889-2.3704,2.1025-1.9866,3.4989,.4342,1.5801,1.9849,2.2763,3.4989,1.9866,7.1702-1.3721,14.3404-2.7443,21.5106-4.1164,1.0356-.1982,2.0711-.3963,3.1067-.5945,1.5096-.2889,2.3704-2.1025,1.9866-3.4989-.4342-1.5801-1.9849-2.2763-3.4989-1.9866h0Z"/><path d="M602.0855,538.3599c-7.1702,1.3721-14.3404,2.7443-21.5106,4.1164-1.0356,.1982-2.0711,.3963-3.1067,.5945-1.5096,.2889-2.3704,2.1025-1.9866,3.4989,.4342,1.5801,1.9849,2.2763,3.4989,1.9866,7.1702-1.3721,14.3404-2.7443,21.5106-4.1164,1.0356-.1982,2.0711-.3963,3.1067-.5945,1.5096-.2889,2.3704-2.1025,1.9866-3.4989-.4342-1.5801-1.9849-2.2763-3.4989-1.9866h0Z"/><path d="M472.3109,717.3445c-10.7896-1.3745-21.5791-2.749-32.3687-4.1236-1.5079-.1921-3.0158-.3842-4.5237-.5763-1.5265-.1945-2.8444,1.4465-2.8444,2.8444,0,1.6986,1.3134,2.6493,2.8444,2.8444,10.7896,1.3745,21.5791,2.749,32.3687,4.1236,1.5079,.1921,3.0158,.3842,4.5237,.5763,1.5265,.1945,2.8444-1.4465,2.8444-2.8444,0-1.6986-1.3134-2.6493-2.8444-2.8444h0Z"/><path d="M476.3685,696.1469c-10.7896-1.3745-21.5791-2.749-32.3687-4.1236-1.5079-.1921-3.0158-.3842-4.5237-.5763-1.5265-.1945-2.8444,1.4465-2.8444,2.8444,0,1.6986,1.3134,2.6493,2.8444,2.8444,10.7896,1.3745,21.5791,2.749,32.3687,4.1236,1.5079,.1921,3.0158,.3842,4.5237,.5763,1.5265,.1945,2.8444-1.4465,2.8444-2.8444,0-1.6986-1.3134-2.6493-2.8444-2.8444h0Z"/><path d="M477.1725,673.8562c-10.7896-1.3745-21.5791-2.749-32.3687-4.1236-1.5079-.1921-3.0158-.3842-4.5237-.5763-1.5265-.1945-2.8444,1.4465-2.8444,2.8444,0,1.6986,1.3134,2.6493,2.8444,2.8444,10.7896,1.3745,21.5791,2.749,32.3687,4.1236,1.5079,.1921,3.0158,.3842,4.5237,.5763,1.5265,.1945,2.8444-1.4465,2.8444-2.8444,0-1.6986-1.3134-2.6493-2.8444-2.8444h0Z"/><g><path d="M712.2953,250.9756c4.408-1.2617,9.492,.2992,12.4326,3.8171,2.4928,2.9823,3.3832,7.0098,3.4994,10.895,.2071,6.9246-3.1112,14.2401,1.7858,20.2705,2.7788,3.4219,7.3908,5.2578,11.7611,4.6816,3.9434-.5199,8.0344-4.1708,6.751-7.9356,1.5423,2.3063,4.6341,3.3428,7.3382,2.7221,2.7041-.6207,4.945-2.7293,6.0341-5.281,.6763-1.5845,.941-3.3996,.4227-5.0427-.5463-1.732-1.8754-3.0802-3.0422-4.472-7.4493-8.8858-9.1309-21.0733-11.2067-32.4812-2.0758-11.4079-5.4435-23.6596-14.7777-30.5387-2.4494-1.8052-5.316-3.1796-8.3542-3.3468s-6.2493,1.0299-8.0076,3.5131c-.0833-2.4389,.6198-4.8914,.2306-7.3005-.3891-2.4091-2.5596-4.8597-4.9184-4.2338-2.7845,.7389-3.01,4.5594-2.6365,7.4159-1.7571-2.8464-4.1446-5.3013-6.9409-7.1371-.7998-.5251-1.6945-1.0162-2.65-.966-2.041,.1072-3.1501,2.7218-2.5245,4.6675s2.3416,3.304,3.9687,4.5407c-24.3342-4.3534-49.6439-1.3039-73.1186,6.4448-9.6081,3.1715-19.2875,7.3449-26.0783,14.8455-2.6938,2.9753-4.9629,6.8297-4.3468,10.7957,.6162,3.966,5.4001,7.2292,8.7964,5.0905-5.1127,1.0135-9.1095,5.8993-9.3266,11.1069s3.2035,10.3051,8.016,12.3067c4.8125,2.0017,10.6922,.9211,14.6483-2.4724-4.1443,3.6819-5.5905,10.0903-3.4292,15.1952,.8717,2.0588,2.3819,3.975,4.4901,4.719,1.5241,.5378,3.2023,.4146,4.7903,.1134,10.2018-1.9351,12.3703-10.5805,20.1728-15.2106,9.3304-5.5368,19.85-9.1379,30.6047-10.5383,3.3849-.4408,7.123-.5806,9.8834,1.4275,1.4295,1.0399,2.4356,2.5545,3.3118,4.0898,4.5026,7.8889,7.2563,18.0676,15.6415,21.5599-2.842-1.1836-2.4123-16.3547-2.2894-19.0074,.2888-6.2296,2.328-12.3253,9.068-14.2545Z"/><path d="M713.0514,253.7184c3.8338-1.0289,8.2125,.5103,10.3711,4.1396,2.5345,4.2612,2.0758,9.4556,1.507,14.1618-.6256,5.177-.9106,10.6043,2.359,15.0313,3.1341,4.2436,8.4173,6.8764,13.7345,6.5083,5.6761-.3929,12.1488-5.2578,10.2449-11.6114-1.7329,.7306-3.4658,1.4612-5.1988,2.1917,2.5067,3.5174,7.0564,5.2265,11.2448,3.8343,4.3128-1.4336,7.4891-5.4035,8.032-9.9004,.2959-2.451-.4033-4.7918-1.8582-6.7702-1.2186-1.657-2.6507-3.1241-3.7989-4.8363-2.2518-3.3577-3.8218-7.0619-4.9982-10.9171-4.6989-15.3981-3.951-33.1351-15.0741-45.9547-3.0347-3.4975-7.1208-6.6139-11.6787-7.733-5.0695-1.2448-10.3001,.2439-13.462,4.4791l5.3004,1.4356c-.0443-2.9507,.8746-6.0212-.0857-8.913-.8603-2.5905-2.8946-4.9861-5.6955-5.453-2.632-.4388-5.2217,.9431-6.3779,3.3462-1.0259,2.1324-1.1361,4.5857-.8539,6.9014,1.7668-.4785,3.5336-.9571,5.3004-1.4356-1.5412-2.4458-3.4339-4.6762-5.6932-6.4869-2.4528-1.9657-5.5909-4.1118-8.7689-2.3634-2.4559,1.3512-3.5492,4.4999-2.9608,7.1579,.6603,2.9827,3.0837,4.9331,5.3846,6.6891,.7306-1.7329,1.4612-3.4658,2.1917-5.1988-19.0848-3.3769-38.6386-2.4437-57.5239,1.7313-9.0125,1.9924-17.9906,4.6061-26.4871,8.2367-7.774,3.3218-15.6928,8.1032-20.4788,15.2765-2.6101,3.912-4.0258,9.4648-1.2007,13.6573,2.5225,3.7432,7.4537,5.9006,11.6227,3.4737,2.8607-1.6653,.9072-5.8694-2.1917-5.1988-7.327,1.5857-12.2689,9.0648-11.2485,16.3931,1.0578,7.5972,7.7268,13.3155,15.3086,13.5995,4.4313,.166,8.6723-1.4854,12.045-4.2973-1.3408-1.3408-2.6817-2.6817-4.0225-4.0225-3.3942,3.1076-5.2957,7.7078-5.2588,12.2969,.0363,4.5263,2.0826,9.7955,6.3822,11.8723,4.3388,2.0957,9.9925,.5264,13.9357-1.8408,3.1631-1.8988,5.6038-4.638,8.0442-7.3504,1.2069-1.3414,2.4372-2.6672,3.802-3.8511,1.3226-1.1473,3.1405-2.2103,4.8898-3.1684,4.4928-2.4608,9.2082-4.4523,14.1001-5.9714,4.691-1.4567,9.6199-2.6489,14.5273-3.0443,1.9943-.1607,4.2246-.2366,6.0115,.8046,1.7337,1.0103,2.691,2.9869,3.6084,4.6949,4.1605,7.7459,7.2334,17.612,15.9987,21.3809,1.41,.6063,3.0497,.419,3.8916-1.0204,.7247-1.239,.3733-3.2297-1.0204-3.8916-.4757-.2259,.3254,.3053,.186,.1766-.3212-.2965,.147,.3043,.1347,.188-.0107-.1013-.1792-.3685-.2447-.444,.2869,.3312,.1474,.4228,.0077-.0243-.3011-.9633-.4927-1.9424-.6431-2.9397-.0498-.3303,.0142,.1028,.0187,.1402-.0152-.1266-.0316-.2531-.0453-.3799-.0326-.303-.0661-.6059-.0945-.9094-.059-.6296-.1055-1.2603-.1437-1.8915-.0745-1.232-.116-2.4659-.1372-3.6999-.0751-4.3768-.2465-8.7715,1.198-12.7505,.9442-2.6008,2.9103-4.6403,5.8624-5.5287,3.4967-1.0523,2.0069-6.5446-1.5123-5.4855-3.677,1.1066-6.7961,3.423-8.653,6.8217-1.7078,3.1258-2.339,6.6976-2.5052,10.2204-.2289,4.8516-.1933,9.7935,.4756,14.6085,.3201,2.304,.8492,5.682,3.2245,6.81,.9571-1.6373,1.9141-3.2747,2.8712-4.912-3.3305-1.4321-5.5664-3.7993-7.4602-6.7946-2.0556-3.2512-3.5981-6.79-5.3057-10.2274-2.0564-4.1397-4.2992-8.3466-8.9177-9.9842-4.4439-1.5757-9.713-.4402-14.1872,.4243-4.8972,.9462-9.7065,2.344-14.3471,4.1726-4.4803,1.7653-9.0703,3.7899-13.075,6.4927-3.0367,2.0495-5.4221,4.7383-7.8598,7.4338-1.1164,1.2345-2.2605,2.4497-3.5283,3.5314-.5832,.4976-.8603,.7093-1.6429,1.2081-.6184,.3941-1.5851,.9267-2.0451,1.125-1.8213,.7854-4.5512,1.6604-6.5052,.9553-1.7141-.6185-2.7151-2.4964-3.1958-4.1564-1.1317-3.9082,.0903-8.2401,3.1803-11.0692,1.1334-1.0377,1.0525-2.97,0-4.0225-1.1686-1.1686-2.8389-.9868-4.0225,0-5.0101,4.1769-12.9437,3.3275-16.3651-2.3642-1.5887-2.643-1.9427-5.6843-.7153-8.4927,1.1793-2.6985,3.6228-4.7055,6.5101-5.3304-.7306-1.7329-1.4612-3.4658-2.1917-5.1988-.6872,.4001-1.4545,.3757-2.2987-.0975-.9312-.5221-1.8056-1.4897-2.0982-2.3692-1.0143-3.049,1.2522-6.545,3.2556-8.7967,4.9145-5.5235,11.56-9.2029,18.3645-11.8969,15.6583-6.1995,32.7045-9.7924,49.5168-10.5615,9.5896-.4387,19.2295,.0707,28.6867,1.7441,3.2803,.5804,4.7622-3.237,2.1917-5.1988-.9913-.7565-2.2054-1.6468-2.6616-2.8408-.1263-.3305-.0922-.2125-.0549-.7789-.0274,.4163,.2088-.427,.0304-.0525,.0312-.0655,.1456-.4229,.2539-.3809-.0395-.0153-.3941,.3073-.4241,.1334-.0022-.0127,1.7564,.9728,1.8812,1.0613,.6555,.4648,1.2626,.9912,1.848,1.5411,1.3103,1.2309,2.4245,2.5842,3.3821,4.1039,.6745,1.0704,1.9686,1.6489,3.2122,1.3071,1.1028-.3031,2.2368-1.5236,2.0882-2.7427-.0882-.724-.146-1.4503-.1382-2.1801,.0095-.8893-.0197-.897,.209-1.7101,.0317-.1128,.3537-.8107,.1293-.3923,.085-.1624,.1805-.3183,.2867-.4677l-.1005,.1641c.2406-.2266,.2597-.2433,.0572-.05-.2675,.0785-.2326,.0662,.1047-.037-.1009-.0594-.4385-.2975,.119,.0341,.5666,.3369,1.2023,1.2942,1.2973,2.3624,.1888,2.1238-.361,4.2668-.329,6.3952,.0188,1.2513,.8706,2.4082,2.0882,2.7427,1.3075,.3593,2.4484-.2841,3.2122-1.3071,1.7105-2.2911,5.1008-2.4512,7.6354-1.7047,3.2292,.951,5.9858,3.2404,8.2072,5.7004,4.3967,4.869,6.7363,11.2829,8.3462,17.542,3.6261,14.0984,3.7648,29.5801,13.3062,41.4234,.99,1.2289,2.5657,2.5578,2.8408,4.1872,.2671,1.5823-.5688,3.3699-1.6036,4.5025-1.0406,1.1389-2.4493,1.8869-3.8057,1.8934-1.1748,.0057-2.6231-.4921-3.333-1.4882-.8206-1.1514-2.1806-1.7666-3.5519-1.1638-1.2613,.5544-2.0618,1.9711-1.6469,3.3555,.2309,.7704,.2173,.979-.12,1.6193-.3643,.6913-.9427,1.2632-1.6371,1.7185-1.6009,1.0497-3.3837,1.2884-5.2518,1.0213-4.1896-.5988-7.6208-3.6485-8.4314-7.8214-.8558-4.4054,.7143-9.084,.7384-13.5249,.0273-5.0182-1.2187-10.3274-4.7006-14.0982-3.6953-4.0019-9.6286-5.5411-14.8408-4.1422-3.5321,.948-2.0335,6.4371,1.5123,5.4855Z"/></g><path d="M654.9591,295.6434c.5854,.4125,.9177,1.0705,1.078,1.8948,.1481,.7615,.0356,1.7392-.2303,2.6212-.6781,2.2492-2.7826,3.525-3.8527,5.6525-1.353,2.69-.4494,5.6521,2.1348,7.1922,2.8315,1.6874,6.0704,.7795,8.9252-.325,.9545-.3693,1.6153-1.2741,1.3244-2.3326-.2506-.912-1.3723-1.6959-2.3326-1.3244-1.8672,.7224-5.1029,2.1746-6.6616,.1528-.4284-.5556-.3167-1.1323,.067-1.7828,.568-.9631,1.423-1.7253,2.1198-2.5915,2.9137-3.6222,3.5066-9.497-.6578-12.4319-.8376-.5903-2.1085-.1505-2.5944,.6803-.5546,.9483-.1592,2.0028,.6803,2.5944h0Z"/><path d="M683.2552,310.7035c-.1975,.3111-.4009,.6182-.6125,.9199-.1058,.1508-.2134,.3003-.3227,.4486-.0547,.0741-.1099,.1478-.1654,.2213-.1776,.2347-.0263,.0457,.0606-.0772-.4212,.5956-.9426,1.1446-1.4443,1.6723-.495,.5207-1.0143,1.0182-1.5556,1.4906-.2776,.2422-.561,.4778-.8499,.7064-.2306,.1825-.0378,.037,.0785-.059-.0708,.0585-.147,.1115-.2206,.1664-.1625,.1211-.3268,.2396-.4922,.3567-.4114,.2913-.7334,.6322-.8714,1.1332-.125,.4539-.0686,1.0583,.1912,1.4612,.5169,.8017,1.7287,1.2933,2.5944,.6803,2.7465-1.9448,5.079-4.3619,6.8847-7.2064,.5325-.8389,.2024-2.128-.6803-2.5944-.9367-.4949-2.0261-.2151-2.5944,.6803h0Z"/><path d="M672.4881,270.9059c-5.1306-.1746-10.2727,2.8857-12.4848,7.5357-.4254,.8941-.2773,2.0885,.6803,2.5944,.8446,.4463,2.1395,.276,2.5944-.6803,.2291-.4817,.487-.9476,.7822-1.3921,.0736-.1108,.1494-.2201,.2269-.3281,.0967-.1347,.2067-.2688,.0401-.0618,.1668-.2074,.3387-.4103,.5187-.6064,.3601-.3925,.7476-.7598,1.1574-1.1001,.0364-.0302,.384-.2971,.1842-.1498-.1985,.1464,.1984-.139,.1946-.1363,.2181-.1535,.4416-.2995,.6695-.4381,.4574-.2782,.9328-.5144,1.4182-.7386-.1567,.0724-.1886,.0748-.0099,.0072,.1496-.0566,.2987-.1136,.4499-.1658,.2265-.0783,.4554-.1494,.6863-.2136,.2564-.0713,.5151-.1337,.7758-.1869,.1304-.0266,.2615-.0485,.3922-.0732,.5003-.0943-.2438,.0158,.0489-.0103,.56-.05,1.1124-.0824,1.6752-.0633,.9924,.0338,1.941-.8963,1.8962-1.8962-.0473-1.0563-.833-1.86-1.8962-1.8962h0Z"/><path d="M672.4324,283.7182c-2.478,1.1625-4.73,2.9005-6.483,5.0027-.3297,.3954-.5554,.8086-.5554,1.3408,0,.4651,.2066,1.0206,.5554,1.3408,.7007,.6432,2.0033,.8135,2.6817,0,.8305-.9959,1.7647-1.8957,2.789-2.6908l-.3838,.2965c1.0289-.7891,2.1363-1.4646,3.3102-2.0153,.4078-.1913,.7562-.7147,.8714-1.1332,.125-.4539,.0686-1.0583-.1912-1.4612-.261-.4049-.6497-.7613-1.1332-.8714-.5226-.119-.977-.036-1.4612,.1912h0Z"/><path d="M645.5659,286.3655c-2.675-.0408-5.3186,.6267-7.6763,1.8824-.8767,.467-1.2201,1.7571-.6803,2.5944,.5745,.8912,1.6566,1.1798,2.5944,.6803,.1773-.0944,.3557-.1864,.5367-.2736,.1449-.0698,.4381-.1372,.5484-.2492-.0984,.0999-.3615,.1485-.0627,.0314,.0935-.0366,.1873-.0723,.2816-.1069,.1885-.0692,.3787-.134,.5701-.1948,.7666-.2432,1.5525-.415,2.3491-.5242l-.5041,.0677c.6784-.0869,1.3593-.1256,2.0431-.1152,.9922,.0151,1.9416-.883,1.8962-1.8962-.0466-1.0403-.833-1.88-1.8962-1.8962h0Z"/><path d="M647.5321,295.5278c-2.471,.4865-4.942,.9731-7.4129,1.4596-.9751,.192-1.6235,1.4084-1.3244,2.3326,.3357,1.0373,1.2879,1.5301,2.3326,1.3244,2.471-.4865,4.942-.9731,7.4129-1.4596,.9751-.192,1.6235-1.4084,1.3244-2.3326-.3357-1.0373-1.2879-1.5301-2.3326-1.3244h0Z"/><path d="M518.7397,331.1965l-8.2216,11.504c-1.4815,2.073-2.4957,3.991-2.0283,6.6263,.352,1.9847,1.4582,3.8537,2.1411,5.7464,1.3529,3.7499,2.3526,7.704,2.4033,11.7081,.0217,1.7124-.0597,3.5202-.7075,5.1299-.1283,.3187-.0444,.0964-.0157,.035-.0819,.1759-.1763,.3501-.2735,.5184-.1003,.1738-.4857,.7268-.4028,.6242,.0913-.113-.3549,.371-.4873,.4991-.1281,.1239-.7995,.6854-.4225,.3962-1.1689,.8966-2.4967,1.5722-3.7226,2.3849-1.6821,1.1152-3.2256,2.4036-4.4833,3.9875-.9544,1.2019-1.1734,2.8491,0,4.0225,.9905,.9905,3.0621,1.2095,4.0225,0,1.9439-2.4478,4.1629-3.4364,6.7347-5.2519,2.9039-2.05,4.6506-4.7991,5.1611-8.341,.615-4.267,.1032-8.6071-.9509-12.7679-.5156-2.0353-1.1732-4.0357-1.9492-5.9864-.5136-1.291-2.0629-3.4752-1.2428-4.8263,1.3465-2.2181,3.0291-4.2832,4.5378-6.3943,1.6065-2.2479,3.213-4.4958,4.8196-6.7437,.8937-1.2505,.2196-3.1663-1.0204-3.8916-1.4295-.8361-2.9958-.233-3.8916,1.0204h0Z" style="fill:#fff;"/><path d="M517.4631,364.397l13.6589-5.5815c.7147-.292,1.2944-.6143,1.6999-1.3071,.3568-.6097,.5079-1.5082,.2867-2.1917-.4283-1.3234-2.0241-2.5893-3.4989-1.9866-4.553,1.8605-9.106,3.721-13.6589,5.5815-.7147,.292-1.2944,.6143-1.6999,1.3071-.3568,.6097-.5079,1.5082-.2867,2.1917,.4283,1.3234,2.0241,2.5893,3.4989,1.9866h0Z" style="fill:#fff;"/><path d="M521.9273,403.1477c.2369,.0815,.4704,.1705,.7015,.2673l-.6795-.2867c.8359,.3594,1.6172,.8223,2.3374,1.3782l-.5757-.4448c.7155,.5624,1.356,1.2066,1.9131,1.9263l-.4448-.5757c.4934,.6493,.9107,1.3475,1.2439,2.0919,.273,.61,1.0838,1.1375,1.6999,1.3071,.6809,.1875,1.5875,.1028,2.1917-.2867,.6073-.3916,1.142-.9746,1.3071-1.6999l.1016-.7561c-.0016-.5134-.131-.992-.3883-1.4356-1.4847-3.3171-4.4982-5.8027-7.8957-6.9709-.672-.2311-1.5931-.0636-2.1917,.2867-.59,.3453-1.1527,1.0218-1.3071,1.6999-.1658,.7281-.13,1.5454,.2867,2.1917,.4159,.645,.9703,1.0563,1.6999,1.3071h0Z" style="fill:#fff;"/><path d="M477.4565,362.6293c1.4578-1.4578,2.9157-2.9157,4.3735-4.3735,.5158-.5158,.8331-1.282,.8331-2.0113,0-.6976-.3099-1.5309-.8331-2.0113-.5421-.4976-1.2537-.867-2.0113-.8331-.7545,.0338-1.4669,.2887-2.0113,.8331-1.4578,1.4578-2.9157,2.9157-4.3735,4.3735-.5158,.5158-.8331,1.282-.8331,2.0113,0,.6976,.3099,1.5309,.8331,2.0113,.5421,.4976,1.2537,.867,2.0113,.8331,.7545-.0338,1.4669-.2887,2.0113-.8331h0Z" style="fill:#fff;"/><path d="M586.9642,567.9433c.2334-.0074,.4663,.0224,.6985,.0389,.1313,.0093,.266,.046,.3971,.046-.7114,0-.8011-.125-.2268-.0227,.4243,.0756,.8468,.1559,1.2671,.2517,1.229,.2801,2.4375,.6482,3.6274,1.0625,.8117,.2826,1.6151,.5889,2.4111,.9128,.1184,.0482,.2362,.098,.3548,.1458,.4573,.1842-.1406-.1278-.2649-.1129,.1647-.0196,.5384,.231,.694,.2991,.4905,.2149,.9783,.4359,1.4636,.6623,5.4158,2.5269,10.5365,5.6745,15.4621,9.0464,7.898,5.4068,14.7065,10.9736,22.0437,17.4784,10.5296,9.335,20.4756,19.3205,30.0692,29.6093,1.4461,1.5509,2.8833,3.11,4.3141,4.6751,2.4755,2.7079,6.4897-1.3237,4.0225-4.0225-9.9935-10.9317-20.3435-21.5599-31.3082-31.5238-7.6195-6.9241-15.5476-13.5486-23.9484-19.5098-5.2215-3.7052-10.6519-7.1762-16.4042-10.0039-3.3005-1.6225-6.7411-3.1154-10.3134-4.0315-1.3775-.3533-2.8863-.7171-4.3161-.6903-.0144,.0003-.0288,0-.0432,.0005-3.6518,.1156-3.6678,5.8048,0,5.6887h0Z"/><path d="M505.6438,222.094c1.0956,2.1913,2.1913,4.3826,3.2869,6.5739,.3069,.6138,1.0553,1.1297,1.6999,1.3071,.6809,.1875,1.5875,.1028,2.1917-.2867,.6073-.3916,1.142-.9746,1.3071-1.6999,.1763-.774,.0696-1.4791-.2867-2.1917-1.0956-2.1913-2.1913-4.3826-3.2869-6.5739-.3069-.6138-1.0553-1.1297-1.6999-1.3071-.6809-.1875-1.5875-.1028-2.1917,.2867-.6073,.3916-1.142,.9746-1.3071,1.6999-.1763,.774-.0696,1.4791,.2867,2.1917h0Z" style="fill:#f953b2;"/><path d="M532.6331,214.4506c.1656,2.6955,.07,5.3978-.2854,8.0749l.1016-.7561c-.0147,.1091-.0299,.2182-.0455,.3272-.1115,.7907-.1341,1.4725,.2867,2.1917,.3453,.59,1.0218,1.1527,1.6999,1.3071,.7281,.1658,1.5454,.13,2.1917-.2867,.5761-.3714,1.2067-.9878,1.3071-1.6999,.4293-3.0446,.6213-6.0857,.4325-9.1582-.0465-.7567-.2857-1.4638-.8331-2.0113-.4933-.4933-1.3027-.8648-2.0113-.8331-1.4629,.0655-2.9421,1.2539-2.8444,2.8444h0Z" style="fill:#f953b2;"/><path d="M558.7917,229.7829c1.463-2.068,2.926-4.1361,4.389-6.2041,.4047-.5721,.466-1.5407,.2867-2.1917-.1817-.6598-.6918-1.3748-1.3071-1.6999-.6601-.3488-1.4598-.5236-2.1917-.2867-.7393,.2392-1.2514,.6732-1.6999,1.3071l-4.389,6.2041c-.4047,.5721-.466,1.5407-.2867,2.1917,.1817,.6598,.6918,1.3748,1.3071,1.6999,.6601,.3488,1.4598,.5236,2.1917,.2867,.7393-.2392,1.2514-.6732,1.6999-1.3071h0Z" style="fill:#f953b2;"/><path d="M366.1991,606.1953c.8231,.3331-.4863-.2325,.3209,.1365,.247,.1129,.4935,.2257,.7379,.3442,.4476,.217,.8887,.4473,1.3233,.6892,.8693,.4837,1.7115,1.0154,2.523,1.5908,.1845,.1308,.3663,.2651,.5487,.3988,.5189,.3804-.1707-.1542,.2816,.2213,.4181,.3471,.8341,.6945,1.2365,1.0601,.737,.6696,1.4385,1.3782,2.1017,2.1209,.3319,.3717,.6495,.7544,.9646,1.1403,.1877,.2298-.1575-.2233,.1379,.1752,.1617,.2182,.3224,.4369,.4789,.6589,.5735,.8133,1.1047,1.6568,1.5883,2.5265,.2637,.4742,.5137,.956,.7494,1.4448,.0982,.2036,.1934,.4087,.2864,.6147,.072,.1594,.2425,.5651,.089,.1924,.4138,1.0046,.7571,2.0353,1.0476,3.0819,.3979,1.433,2.0349,2.4604,3.4989,1.9866s2.4131-1.9629,1.9866-3.4989c-2.578-9.2848-9.5051-16.774-18.3891-20.3698-1.383-.5597-3.1849,.6079-3.4989,1.9866-.3755,1.6486,.5057,2.8995,1.9866,3.4989h0Z" style="fill:#f953b2;"/><path d="M379.2664,598.6884c1.8094,1.8213,3.6189,3.6426,5.4283,5.4638,.5131,.5164,1.2844,.8331,2.0113,.8331,.6976,0,1.5309-.3099,2.0113-.8331,.4976-.5421,.867-1.2537,.8331-2.0113-.0339-.7559-.2899-1.4645-.8331-2.0113-1.8094-1.8213-3.6189-3.6426-5.4283-5.4638-.5131-.5164-1.2844-.8331-2.0113-.8331-.6976,0-1.5309,.3099-2.0113,.8331-.4976,.5421-.867,1.2537-.8331,2.0113,.0339,.7559,.2899,1.4645,.8331,2.0113h0Z" style="fill:#f953b2;"/><path d="M23.7041,592.4192c5.0439,2.617,10.0878,5.2339,15.1318,7.8509,1.3197,.6847,3.1495,.3841,3.8916-1.0204,.6901-1.3062,.3897-3.16-1.0204-3.8916-5.0439-2.617-10.0878-5.2339-15.1318-7.8509-1.3197-.6847-3.1495-.3841-3.8916,1.0204-.6901,1.3062-.3897,3.16,1.0204,3.8916h0Z" style="fill:#6966ed;"/><path d="M25.7561,638.7741c2.4214-.733,4.8892-1.3017,7.3909-1.6813,.0076-.0011,.9149-.1289,.3996-.0609,.2893-.0382,.5791-.0724,.869-.1049,.6766-.0759,1.3547-.1386,2.0337-.1879,1.2615-.0917,2.5252-.1337,3.7899-.1365,1.4877-.0033,2.9133-1.3059,2.8444-2.8444s-1.2498-2.8479-2.8444-2.8444c-5.403,.0119-10.8238,.8093-15.9955,2.3748-1.4225,.4306-2.468,2.0114-1.9866,3.4989,.4648,1.4363,1.9737,2.4483,3.4989,1.9866h0Z" style="fill:#6966ed;"/><path d="M60.3703,563.7769c.3631,2.1785,.7262,4.3569,1.0892,6.5354,.1102,.6614,.7521,1.375,1.3071,1.6999,.6097,.3568,1.5082,.5079,2.1917,.2867,.6882-.2227,1.3523-.6492,1.6999-1.3071l.2867-.6795c.1355-.5041,.1355-1.0082,0-1.5123-.3631-2.1785-.7262-4.3569-1.0892-6.5354-.1102-.6614-.7521-1.375-1.3071-1.6999-.6097-.3568-1.5082-.5079-2.1917-.2867-.6882,.2227-1.3523,.6492-1.6999,1.3071l-.2867,.6795c-.1355,.5041-.1355,1.0082,0,1.5123h0Z" style="fill:#6966ed;"/></svg>