<?xml version="1.0" encoding="UTF-8"?><svg id="Layer_2" xmlns="http://www.w3.org/2000/svg" width="1000" height="1000" viewBox="0 0 1000 1000"><rect x="70.8823" y="165.5383" width="383.5183" height="126.5799" rx="63.2899" ry="63.2899" style="fill:#f4d13b;"/><rect x="298.6947" y="165.5383" width="126.5799" height="126.5799" rx="63.2899" ry="63.2899" style="fill:#f953b2;"/><rect x="70.8823" y="360.7611" width="383.5183" height="126.5799" rx="63.2899" ry="63.2899" style="fill:#f953b2;"/><rect x="97.0169" y="361.076" width="126.5799" height="126.5799" rx="63.2899" ry="63.2899" style="fill:#6966ed;"/><path d="M779.8467,396.1478c-.1173,1.4031-.9133,2.0278-2.2895,2.2068-1.5372,.2-3.1107-.1352-4.6016-.4697-3.184-.7143-7.2844-2.0052-10.1776,.1782-1.4397,1.0865-2.2454,2.873-1.7889,4.6698,.3895,1.5329,1.5008,2.8868,2.5154,4.0545,2.105,2.4224,4.8249,4.1894,7.8086,5.3296,.9533,.3643,2.0722-.4031,2.324-1.3195,.2924-1.0643-.3627-1.9584-1.3195-2.324-2.4735-.9452-4.6336-2.5638-6.3334-4.5829-.4453-.5289-1.727-1.8339-1.2007-2.5797,.6602-.9355,2.4544-.6869,3.3847-.5686,3.17,.4031,6.2239,1.7093,9.4719,1.3796,1.5285-.1552,3.001-.6084,4.1721-1.643,1.2728-1.1244,1.6768-2.702,1.813-4.3311,.0851-1.0181-.9292-1.8893-1.8893-1.8893-1.0929,0-1.8039,.8682-1.8893,1.8893h0Z"/><path d="M254.401,494.4198c5.6677,3.0092,11.3353,6.0184,17.003,9.0277,9.0279,4.7933,18.0557,9.5866,27.0836,14.3799,2.0645,1.0962,4.1291,2.1923,6.1936,3.2885,3.22,1.7096,6.0869-3.181,2.8606-4.8939-5.6677-3.0092-11.3353-6.0184-17.003-9.0277-9.0279-4.7933-18.0557-9.5866-27.0836-14.3799-2.0645-1.0962-4.1291-2.1923-6.1936-3.2885-3.22-1.7096-6.0869,3.181-2.8606,4.8939h0Z"/><path d="M240.0307,515.6918c6.2676,2.9288,12.5353,5.8577,18.8029,8.7865,9.9869,4.6668,19.9738,9.3337,29.9607,14.0005,2.2882,1.0693,4.5764,2.1385,6.8647,3.2078,1.3857,.6475,3.0552,.3889,3.8773-1.0167,.7181-1.2278,.3762-3.2264-1.0167-3.8773-6.2676-2.9288-12.5353-5.8577-18.8029-8.7865-9.9869-4.6668-19.9738-9.3337-29.9607-14.0005-2.2882-1.0693-4.5764-2.1385-6.8647-3.2078-1.3857-.6475-3.0552-.3889-3.8773,1.0167-.7181,1.2278-.3762,3.2264,1.0167,3.8773h0Z"/><path d="M222.2711,547.3726c1.5829-3.3006,4.5707-5.5577,7.8305-6.0042,2.1228-.2908,3.9701,.043,5.8043,.9022,2.8765,1.3475,5.7412,2.721,8.6117,4.0815,9.9153,4.6994,19.8306,9.3987,29.746,14.0981,2.5759,1.2208,5.1518,2.4417,7.7277,3.6625,1.3822,.6551,3.0581,.3838,3.8773-1.0167,.7216-1.2336,.3725-3.2189-1.0167-3.8773-7.1778-3.4019-14.3555-6.8038-21.5333-10.2057-8.191-3.8821-16.37-7.7907-24.5734-11.6465-3.1496-1.4804-6.4284-2.0576-9.8823-1.4992-4.9433,.7993-9.3257,4.1411-11.4856,8.6447-.6615,1.3792-.3796,3.0606,1.0167,3.8773,1.2386,.7244,3.2126,.3693,3.8773-1.0167h0Z"/><path d="M456.6376,228.6629c7.4171-6.5659,15.6444-12.3867,25.92-12.6569,7.2528-.1907,13.651,5.6668,18.8349,10.105,13.9465,11.9402,27.6566,24.0822,40.3729,37.3467,28.7851,30.0259,54.2296,63.4572,78.7844,96.9716,12.5864,17.179,24.6741,34.7452,35.6354,53.012,10.5561,17.5915,21.062,35.9254,26.232,55.925,2.5249,9.7674,4.2631,19.7871,7.9358,29.2217,1.9954,5.1259,5.1893,10.6142,10.4573,12.9457,5.2735,2.334,9.4154-1.1957,10.4167-6.4178,1.0115-5.2752,.4422-11.3713-2.7182-15.8618-5.8822-8.3578-17.6791-9.0299-26.9355-8.1274-10.5681,1.0304-21.2277,3.9513-30.7882,8.5956-13.1168,6.3719-23.7,19.6484-28.2705,33.3359-1.3831,4.1422-2.1923,8.5417-2.2438,12.9142-.0579,4.9222,.9823,9.7789,1.6167,14.6387,.7214,5.5262,.8346,11.0286-1.7551,16.1153-1.9999,3.9281-4.8053,7.4653-7.4408,10.9801-19.0536,25.41-42.5477,47.1832-67.3718,66.8475-25.1501,19.9224-51.8371,37.7908-78.169,56.0869-26.0263,18.0837-51.8838,36.6104-75.4851,57.8222-23.3842,21.0166-44.4154,44.8683-60.2386,72.1383-4.7939,8.2619-9.3091,16.8115-11.6076,26.1411-.8724,3.5413,4.5918,5.0521,5.4653,1.5067,2.3295-9.4554,7.039-18.0276,11.9557-26.3582,3.8933-6.5967,8.0958-13.0098,12.5694-19.2273,9.029-12.5484,19.206-24.246,30.0925-35.2124,21.7092-21.8686,46.1794-40.7478,71.2104-58.6276,25.464-18.1891,51.6024-35.4225,76.8168-53.9629,24.7646-18.2097,48.7621-37.7123,69.6655-60.3299,5.2702-5.7025,10.3366-11.5947,15.1534-17.6855,4.966-6.2794,10.8026-12.8632,13.6797-20.4136,3.6935-9.6932-.3231-19.6057-.4872-29.4773-.149-8.963,3.4079-17.5724,8.3896-24.8784,7.0682-10.366,16.4833-17.0864,28.1924-21.0047,9.6709-3.2362,20.8724-5.9101,31.0954-4.0948,3.9651,.7041,8.0924,2.2295,10.3992,5.7342,1.1962,1.8174,1.7662,3.9674,1.9188,6.1219,.1122,1.5835,.528,7.0297-1.4782,7.8299-1.1445,.4565-3.0102-1.2935-3.7219-1.9493-2.1224-1.9556-3.6302-4.4483-4.7121-7.1027-3.7424-9.1821-5.4407-19.0672-7.8581-28.6396-4.8419-19.173-14.3886-36.7597-24.3194-53.7212-10.459-17.8636-22.0356-35.0493-34.1465-51.8289-23.6263-32.7341-48.3335-65.2115-75.5747-95.0393-13.1153-14.3606-27.1628-27.4695-41.8336-40.2057-5.3539-4.6479-10.5158-9.5811-16.4933-13.4448-6.6038-4.2685-13.0063-5.2177-20.7082-3.4386-8.6757,2.004-15.9179,7.5718-22.4602,13.3633-2.7366,2.4226,1.2841,6.4188,4.0077,4.0077h0Z"/><path d="M753.4369,485.4182c4.0423,1.8995,10.1829,4.7527,10.9346,9.7842,.6225,4.1663-6.0335,6.3394-4.9338,1.0967,.5321-2.537,3.6792-4.9827,5.1436-7.1562,1.3944-2.0696,2.5278-4.3123,3.357-6.6667,1.4409-4.0911,1.6144-8.5021,.7129-12.7305-2.265-10.6246-10.9065-17.244-15.9432-26.3403-4.911-8.869-6.3348-19.3887-4.3104-29.2967,3.9626-19.3933,18.4739-36.139,34.9582-46.3371,4.1086-2.5418,8.4205-4.785,12.8791-6.6483,4.8577-2.03,9.4486-4.4223,14.1708-6.7395,10.295-5.0516,21.7111-4.1831,32.4713-.9507,10.3208,3.1004,20.7523,8.6546,27.5128,17.2565,6.8105,8.6655,8.6662,20.0498,7.6117,30.7871-2.3346,23.772-18.4556,43.5002-27.266,65.0272-4.0399,9.871-7.2817,20.2503-1.2147,29.9724,2.6207,4.1996,6.1041,7.8046,9.5303,11.3434,1.5479,1.5988,3.1473,3.9269,5.193,4.8394,.3414,.1523,.7313,.2314,1.0825,.3628,.3577,.1338,.7115,.2759,1.0664,.4166-.635-.2519,.1574,.0598,.7885,.3602,6.9293,3.2978,11.6925,7.2553,16.6831,13.2572,8.0079,9.6304,12.8657,22.7888,15.0771,35.652,3.9291,22.8553,.8485,46.7228-4.1821,69.141-8.7509,38.9969-24.3061,76.369-41.7015,112.2184-7.8853,16.2504-18.4683,31.3938-29.3517,45.7842-9.1605,12.1123-19.1268,23.6501-29.985,34.2737-17.8257,17.4406-38.2809,32.3922-61.2675,42.2766-19.6042,8.4299-40.8255,12.7927-62.1566,12.8621-21.1398,.0688-42.0675-3.9706-62.0645-10.6903-20.9507-7.0402-40.8365-16.9904-59.6647-28.5117-19.6661-12.034-38.2217-25.824-55.8543-40.6614-17.7129-14.905-34.5271-30.8644-50.612-47.5073-15.0028-15.5234-29.3738-31.6543-43.1958-48.236-11.7818-14.1341-23.166-28.5985-34.1515-43.3599-8.1653-10.9719-16.1201-22.1024-23.8157-33.4089-3.9153-5.7524-7.7802-11.5433-11.5007-17.4241-.2554-.4037-.4838-.8551-.7759-1.2336-.9035-1.1709-2.0999-1.5606-3.4513-2.1508-5.3513-2.3372-10.69-4.7035-16.014-7.1023-18.9942-8.5581-37.7548-17.6126-56.5712-26.551-4.8591-2.3082-9.7227-4.607-14.5934-6.8907-2.6402-1.2379-5.2825-2.4716-7.9269-3.7006-2.1718-1.0094-4.3667-1.8976-5.9824-3.7393-6.8814-7.8439,1.0649-19.1003,10.7409-16.2475,3.0047,.8859,5.1511-3.8046,2.1837-5.1796-4.5195-2.0943-7.9566-5.9574-7.241-11.2685,.7926-5.8827,6.5425-9.579,12.2248-8.4249,3.1886,.6477,4.8545-3.3332,2.1837-5.1796-8.0932-5.5951-4.2253-18.6697,5.8073-18.4344,3.7969,.0891,7.4289,2.6813,10.6819,4.4123,8.0435,4.2801,16.0869,8.5603,24.1304,12.8404,3.3126,1.7627,5.6866-2.7298,2.8606-4.8939-6.79-5.1997-13.5801-10.3994-20.3701-15.5991-2.7105-2.0757-5.5882-4.0372-8.1786-6.2631-6.1892-5.3184-4.2104-15.8971,4.0967-17.7321,6.8663-1.5167,13.8922,6.0516,18.8794,9.8707,8.7453,6.6971,17.4906,13.3942,26.2359,20.0912,6.0167,4.6075,12.0334,9.2151,18.0502,13.8226,1.8758,1.4365,4.1035-.5766,4.2642-2.447,.515-5.994,1.03-11.988,1.545-17.9821,.262-3.0491,.3674-6.212,1.6696-9.0358,2.046-4.4367,6.8764-6.2723,11.573-5.5148,5.857,.9446,9.1821,5.9128,9.4388,11.5269,.2188,4.7849,.9456,9.5314,2.2119,14.1528,2.6145,9.542,7.2167,18.4986,12.6089,26.7513,23.9449,36.6473,61.0549,61.1856,91.4187,91.8543,34.0876,34.4299,65.2336,73.0837,106.752,99.0657,36.0585,22.5653,83.6993,36.0909,124.0701,16.7222,36.079-17.3096,52.7782-56.6552,51.6221-95.1472-.1672-5.5667-.7081-11.099-1.462-16.6146-.4917-3.5975-5.9536-2.0659-5.4653,1.5067,5.3103,38.8514-6.1504,81.845-42.0168,102.4485-38.8923,22.3417-87.3159,8.8415-123.0521-13.2895-41.7827-25.8755-72.8574-64.9464-107.1287-99.3943-30.296-30.4521-67.7403-54.9145-91.0082-91.8242-5.3077-8.4196-9.7103-17.5142-11.7759-27.3015-.9679-4.586-.5008-9.5098-1.7616-13.9882-1.4154-5.0275-5.2266-9.1688-10.0687-11.0756-9.1994-3.6228-19.4306,1.0316-22.1283,10.5775-1.7834,6.3107-1.5971,13.6037-2.1544,20.0905-.1853,2.157-.3707,4.3141-.556,6.4711l4.2642-2.447c-15.1038-11.5663-30.2076-23.1327-45.3113-34.699-6.8767-5.2661-13.9361-12.492-23.4644-9.2901-8.1323,2.7328-12.6736,11.7502-9.9707,19.9046,1.5631,4.7157,5.2065,7.3938,8.94,10.2528,8.4573,6.4764,16.9145,12.9529,25.3718,19.4293,.9535-1.6313,1.9071-3.2626,2.8606-4.8939-7.5486-4.0168-15.0971-8.0336-22.6457-12.0503-2.7866-1.4828-5.5392-3.1171-8.4088-4.4386-6.8321-3.1461-15.2315-1.1886-19.6699,4.9806-5.3723,7.4673-2.9392,17.4156,4.3834,22.4779,.7279-1.7265,1.4558-3.4531,2.1837-5.1796-8.3212-1.6902-16.9405,2.91-19.0242,11.454-1.9381,7.9472,2.5264,15.287,9.673,18.5987,.7279-1.7265,1.4558-3.4531,2.1837-5.1796-8.8411-2.6066-18.5221,2.6628-20.2592,11.9598-.7625,4.081,.1582,8.4234,2.498,11.8534,3.0523,4.4746,7.9359,6.2022,12.6582,8.407,19.9428,9.3109,39.7231,18.9662,59.687,28.2319,5.1143,2.3736,10.2411,4.7202,15.3816,7.0364,2.6767,1.206,5.3569,2.404,8.0407,3.594,2.9704,1.3171,6.3655,2.3678,9.1539,4.0234,.2275,.1351-.0824-.6394,.2909-.3117,.1622,.1424,.2117,.419,.3611,.5757,1.5076,1.5812,2.5842,4.0497,3.7749,5.8751,5.8212,8.9243,11.8524,17.7122,18.012,26.4059,9.7933,13.8224,19.9415,27.3929,30.3999,40.7189,13.0655,16.648,26.6422,32.8989,40.78,48.6476,15.7283,17.5205,32.1543,34.4299,49.4249,50.4367,17.7122,16.4162,36.3313,31.9046,56.0447,45.8689,19.1948,13.597,39.4984,25.7689,61.026,35.3079,20.5326,9.0981,42.1001,15.7798,64.4277,18.5558,21.8495,2.7166,44.1762,1.3473,65.4202-4.5303,23.5925-6.5273,45.2689-18.4487,64.4658-33.5119,24.3566-19.112,44.595-43.1015,61.9647-68.6037,5.1793-7.6043,10.7031-15.3706,14.8818-23.5769,5.7914-11.3734,11.1055-23.0281,16.2144-34.7216,8.3709-19.1597,15.9701-38.6882,22.1023-58.686,8.1698-26.6429,14.3521-54.8963,12.9971-82.93-.7788-16.112-4.2185-32.6336-12.8346-46.4828-4.9765-7.9991-11.6872-15.0753-19.8621-19.8439-2.1262-1.2402-4.3396-2.2201-6.6191-3.1366-.3104-.1248-.801-.1683-1.0747-.3582,1.196,.8297-.662-1.2986-.9814-1.6312-1.8425-1.9186-3.7201-3.8039-5.507-5.7752-3.5024-3.8639-7.267-8.4696-7.6334-13.9005-.3938-5.8365,2.22-12.0073,4.3657-17.3132,2.3954-5.9233,5.324-11.6224,8.3104-17.2648,5.7549-10.8732,11.8691-21.6535,15.7871-33.3671,7.0831-21.1761,4.7659-45.008-14.0373-59.2282-8.7609-6.6255-19.5339-11.0136-30.3613-12.7467-5.3791-.861-10.8809-1.1875-16.2955-.454-5.2846,.7159-10.056,3.0315-14.739,5.4698-9.3124,4.8486-19.1124,8.312-27.8279,14.3044-8.0465,5.5324-15.1414,12.2672-20.9851,20.0935-12.2397,16.3923-18.4748,37.7349-9.835,57.2059,4.4415,10.0095,14.2439,16.983,16.9882,27.7834,1.2366,4.8667,.3534,9.732-2.1282,14.0599-2.6192,4.5678-7.8272,7.9634-7.1165,13.8011,1.0466,8.5966,11.4188,8.8097,15.2434,2.0612,5.0575-8.9242-5.9068-16.5796-12.6784-19.7616-3.2822-1.5423-6.1629,3.3422-2.8606,4.8939h0Z"/><path d="M378.9234,189.8326c-3.8851,3.1725-7.7701,6.345-11.6552,9.5175-1.9633,1.6032-3.2038,2.8724-5.5692,3.5705-4.0903,1.2071-8.6038-.304-11.0453-3.8363-2.4233-3.506-2.3464-8.3032,.2455-11.7052,.9432-1.238,1.4463-1.5577,2.6189-2.4616,3.2263-2.487,6.4526-4.974,9.6789-7.461,10.0616-7.756,20.1231-15.512,30.1847-23.268,2.9695-2.289,5.939-4.5781,8.9084-6.8671,2.7712-2.1362,6.0489-3.6053,8.9733-5.5278,19.5187-12.8321,42.4298-21.9755,66.1222-20.9828,12.5071,.5241,24.6545,4.1156,36.2258,8.7085,5.7896,2.2981,11.5123,4.8325,17.1171,7.5511,5.0495,2.4492,9.8702,5.5665,14.6846,8.447,19.364,11.5853,38.0772,24.2536,56.0629,37.8794,17.8613,13.5316,34.9827,28.0458,51.3381,43.3614,16.4589,15.4126,32.1368,31.657,46.9931,48.6191,14.853,16.9584,28.8812,34.6323,42.0404,52.9358,3.2099,4.4647,6.3667,8.9671,9.4764,13.5021,2.0501,2.9897,6.964,.1581,4.8939-2.8606-13.2111-19.266-27.328-37.9142-42.3287-55.823-14.9848-17.8899-30.8584-35.0375-47.5778-51.3188-16.7102-16.2723-34.2661-31.6791-52.6103-46.0855-18.3733-14.4293-37.503-27.8879-57.3634-40.1935-4.9695-3.0791-9.9834-6.0868-15.04-9.0207-5.3841-3.1239-10.8472-5.865-16.5383-8.3907-11.8803-5.2724-24.177-9.949-37.0805-11.936-24.7344-3.809-49.3882,3.2751-70.8224,15.5217-3.7827,2.1613-7.38,4.6079-11.1174,6.8388-1.884,1.1245-3.8754,2.1556-5.6836,3.3983-2.4085,1.6552-4.6646,3.5957-6.9781,5.3791-10.2733,7.9192-20.5466,15.8384-30.82,23.7577-3.6801,2.8368-7.3601,5.6736-11.0402,8.5103-.6385,.4922-1.2803,.9804-1.9154,1.477-3.9037,3.0523-6.2637,7.8273-6.0805,12.8189,.3809,10.3788,11.1623,17.9241,21.0087,14.1458,2.587-.9927,4.5788-2.6613,6.6837-4.3801,2.5323-2.0678,5.0646-4.1357,7.5969-6.2035,1.4735-1.2032,2.9469-2.4064,4.4204-3.6096,2.8266-2.3082-1.2041-6.2971-4.0077-4.0077h0Z"/><g><path d="M753.6807,450.001s16.3428,20.3879,46.6447,20.3816c-7.3298,6.8278-33.9488,5.4528-33.9488,5.4528,0,0,.0503-7.4258-3.379-12.9793-3.4293-5.5535-9.3733-12.8199-9.3169-12.855Z"/><path d="M751.6769,452.0049c2.1396,2.6617,4.8405,4.9542,7.5199,7.043,6.7209,5.2395,14.3601,9.2172,22.5596,11.5826,6.0193,1.7365,12.3088,2.5682,18.5691,2.586l-2.0039-4.8377c-.1323,.1204-.7788,.6111-.1447,.1553-.213,.1531-.4252,.3054-.6459,.4472-.4703,.3023-.9627,.5701-1.4655,.814-.1287,.0625-.767,.3511-.4747,.2248,.2986-.129-.5189,.2016-.63,.2429-.6104,.2266-1.2299,.4281-1.8546,.6113-1.3478,.3953-2.7195,.7054-4.0996,.9644-.6792,.1275-1.3608,.2418-2.044,.3455-.1798,.0273-1.091,.1559-.6347,.095-.3725,.0497-.7456,.0951-1.1189,.1386-5.1401,.5998-10.3359,.7599-15.5077,.6807-1.1082-.017-2.2176-.0403-3.3246-.0969,.9446,.9446,1.8893,1.8893,2.8339,2.8339,.0188-5.1667-1.3668-10.6361-4.1358-15.0002-1.7593-2.7727-3.7103-5.4244-5.6957-8.0381-.8296-1.0922-1.6691-2.1768-2.5119-3.2588-.2643-.3394-.5234-.6843-.794-1.0188,.6447,.797,.248,.365,.1725,.2214-.2026-.3853,.0333,.0552,.1678,.5068-1.0381-3.4876-6.5098-2.0024-5.4653,1.5067,.2425,.8147,.8482,1.4272,1.3584,2.0826,.7308,.9387,1.2543,1.6097,1.7873,2.3072,1.9061,2.4946,3.7775,5.0227,5.5021,7.6472,1.7405,2.6487,2.867,5.3261,3.4755,8.444,.0712,.3648,.1311,.7312,.193,1.0975,.024,.1488,.0467,.2977,.0679,.4469-.0358-.2758-.0329-.2471,.0087,.0862,.0552,.4746,.1017,.9503,.1361,1.4269,.037,.5126,.0675,1.0282,.0657,1.5424-.0058,1.5895,1.3054,2.7558,2.8339,2.8339,3.2312,.1651,6.4801,.148,9.7126,.0508,6.059-.1822,12.3015-.6285,18.1595-2.2757,2.9135-.8192,5.8168-1.9973,8.0805-4.0579,1.8512-1.6852,.3699-4.831-2.0039-4.8377-9.7307-.0277-19.4452-2.3292-27.8224-6.6515-3.2159-1.6593-6.2763-3.5962-9.1722-5.7645-.0121-.0091-.594-.4528-.2401-.1807,.3488,.2682-.2085-.1637-.2248-.1766-.2722-.2156-.5437-.432-.8128-.6514-.5477-.4466-1.0877-.9027-1.6192-1.3684-.8357-.7323-1.651-1.4881-2.4401-2.2703-.8009-.7939-1.6016-1.6078-2.3092-2.488-.9596-1.1938-3.008-.9998-4.0077,0-1.1797,1.1797-.9621,2.8109,0,4.0077Z"/></g><path d="M439.1203,139.4171c-1.5476,4.0368-3.0951,8.0736-4.6427,12.1104-1.7687,4.6136-4.4524,9.6891-4.1193,14.752,.6679,10.1515,10.2372,17.3841,20.1814,15.2665,3.2377-.6895,7.1407-2.6495,8.9057-5.5647,1.0665-1.7614,2.068-3.5657,3.1011-5.3469,2.5281-4.359,5.0563-8.7181,7.5844-13.0771h-4.8939c2.0488,3.3018,4.3493,6.4629,6.7209,9.5373,4.5493,5.8973,9.5285,11.5816,15.587,15.9771,2.9587,2.1466,6.4075,4.0532,10.078,4.5465,1.5149,.2036,3.042-.3632,3.486-1.9793,.3626-1.3195-.4524-3.2808-1.9793-3.486-.6727-.0904-1.3355-.2251-1.9889-.4095-.3384-.0955-.6731-.2037-1.0046-.3212-.1501-.0532-.2984-.1115-.4481-.1659-.1128-.0429-.2249-.0872-.3365-.1331,.2648,.1132,.3032,.1285,.1152,.0459-1.4587-.6583-2.8427-1.4608-4.1651-2.361-1.4427-.9822-2.2126-1.5999-3.6388-2.8505-1.3635-1.1957-2.6685-2.4575-3.9289-3.7611-2.4233-2.5063-4.6861-5.1659-6.8365-7.9088-.1094-.1395-.2184-.2792-.3272-.4192,.2897,.3725,.015,.0196-.0367-.0478-.2579-.3364-.5145-.6739-.7693-1.0127-.4323-.5748-.8599-1.1532-1.2829-1.7349-.7407-1.0187-1.4676-2.0475-2.1796-3.0866-.7423-1.0833-1.4782-2.1738-2.1708-3.2899-1.1105-1.7897-3.8039-1.8795-4.8939,0-2.0042,3.4556-4.0084,6.9112-6.0125,10.3668-1.2441,2.1451-2.4883,4.2903-3.7324,6.4354-.337,.581-.6762,1.1608-1.011,1.7431-.0472,.082-.0896,.1742-.1454,.2507,.5212-.7144-.5969,.4074-.766,.5385-.347,.2689-.7735,.5359-1.1802,.7731-3.0306,1.7681-6.7968,1.9957-9.9343,.5507-3.3698-1.552-5.8338-4.7833-6.3621-8.3503-.3591-2.4244,.2534-4.5895,1.1132-6.8322,.7822-2.0405,1.5645-4.081,2.3467-6.1215,1.6775-4.3758,3.355-8.7515,5.0325-13.1273,.548-1.4294-.6058-3.1086-1.9793-3.486-1.5977-.439-2.936,.5447-3.486,1.9793h0Z"/><g><path d="M855.0724,425.7609c-1.6482,2.0738-3.556,3.8946-6.0106,4.9591-1.9929,.8643-6.1229,.2524-7.626,1.5049-3.7328,3.1104,.1886,16.1585,1.574,20.1349,1.8971,5.5651,5.2516,10.8197,8.5513,15.6318,17.8401-13.2007,35.5689-26.1922,47.0835-45.4051,9.2612-15.4529,15.2172-35.6282,9.266-53.3324-3.7524-11.1629-5.7011-22.5401-11.8586-32.9019-6.0734-10.2202-14.5453-19.0415-24.6402-25.3427-19.8136-12.3675-45.2935-14.9198-67.3907-7.3533-17.8977,6.1285-30.0604,17.9242-29.628,37.2852,.3431,15.365,9.7057,33.5101,25.2112,38.2379,3.5212,1.0737,7.3608,1.4956,10.8679,.3766,3.5071-1.119,6.5916-4.0074,7.2038-7.6375,.9019,4.4205-.4308,9.2502,1.3803,13.3822,1.5071,3.4384,5.0367,5.7188,8.7317,6.3829,3.695,.6641,7.5237-.1099,11.0228-1.47-4.9346,5.6174-7.8426,12.9786-8.0792,20.4518,5.7191-8.4944,18.7701-18.5021,27.6333-6.8443,2.4135,3.1745,2.973,7.4985,2.1342,11.3972-.8387,3.8982-2.9451,7.4198-5.4268,10.5426Z"/><path d="M853.0686,423.7571c-1.3375,1.6589-2.8009,3.1918-4.7168,4.1744-.4658,.2389-1.2053,.3901-1.5977,.4305-.9486,.0977-1.9022,.1314-2.8499,.2406-2.0311,.234-3.8927,.7352-5.1865,2.4291-1.0008,1.3103-1.3875,2.8664-1.5752,4.477-.3895,3.343,.262,6.8284,.9932,10.0832,.6364,2.8326,1.4379,5.6504,2.4446,8.3749,2.0555,5.5626,5.2,10.5833,8.5338,15.4551,.7924,1.158,2.5758,1.9796,3.8773,1.0167,11.1312-8.236,22.3883-16.4635,32.185-26.2995,9.8698-9.9095,17.8732-21.4526,22.9354-34.5285,5.0267-12.9841,6.9462-27.6747,2.5315-41.1099-2.2842-6.9513-3.9929-14.0844-6.427-20.9866-2.417-6.8539-5.7011-13.2351-10.0315-19.0764-8.2415-11.1171-19.1725-19.9395-31.9323-25.346-12.716-5.3879-26.8068-7.5052-40.5506-6.1162-12.1841,1.2314-24.9549,4.8357-34.843,12.3217-4.2233,3.1973-7.9101,7.0639-10.5418,11.6893-2.7408,4.817-4.2113,10.1934-4.6434,15.6999-.8929,11.3765,2.8045,23.4154,9.7164,32.469,3.4783,4.5561,7.8188,8.5468,13.0372,11.0189,6.2993,2.9841,14.5724,4.5198,20.6685,.228,2.6281-1.8502,4.6983-4.5243,5.3129-7.7303h-5.4653c.6199,3.3048,.0389,6.7295,.5138,10.0629,.4654,3.2665,1.9846,6.2599,4.5625,8.3642,5.6039,4.5745,13.0737,4.3092,19.5445,1.8474-.9191-1.5788-1.8381-3.1577-2.7572-4.7365-5.4421,6.2783-8.591,14.1445-8.9092,22.4557-.1144,2.9872,3.7947,3.6147,5.2809,1.4303,3.0902-4.5421,8.0727-9.2891,13.5869-10.5227,.1136-.0254,1.0155-.1891,.5804-.129,.3429-.0474,.6928-.067,1.0383-.0786s.6913-.0085,1.0364,.0117c.1478,.0087,.2957,.0203,.4429,.036,.2804,.0298-.1959-.0507,.2759,.0511,1.4511,.3132,2.3999,.7003,3.5974,1.6104,2.8168,2.1407,4.3459,5.3984,4.2925,8.9639-.065,4.3383-2.3415,8.3889-4.9609,11.7186-.9454,1.2017-1.1725,2.8352,0,4.0077,.9829,.9829,3.0562,1.2095,4.0077,0,3.2388-4.117,5.8618-8.6407,6.4914-13.9261,.5974-5.0147-.9977-9.8964-4.4922-13.5419-2.8191-2.941-6.7218-4.7807-10.8395-4.5942-3.8579,.1748-7.5387,1.7804-10.6615,3.9865-3.6636,2.5882-6.7692,5.8413-9.2898,9.546,1.7603,.4768,3.5206,.9535,5.2809,1.4303,.2582-6.7438,2.8232-13.3419,7.2492-18.448,.8319-.9597,1.1107-2.2929,.4431-3.4342-.591-1.0104-2.0428-1.7427-3.2003-1.3023-4.6047,1.7519-10.5772,2.8003-14.5788-.8601-1.7902-1.6375-2.4602-3.7412-2.5798-6.1506-.1552-3.1261,.0913-6.2054-.4902-9.3053-.5083-2.7095-4.9478-2.6997-5.4653,0-.4748,2.4768-2.179,4.3975-4.5694,5.4245-2.8102,1.2073-6.1927,.899-9.1298,.1113-4.9318-1.3227-9.2043-4.1476-12.7553-7.8797-6.9091-7.2613-10.9542-17.7438-11.2535-27.5594-.3047-9.9945,3.2047-18.9142,10.6427-25.5297,7.913-7.038,19.0705-10.8093,29.6739-12.5426,12.5005-2.0434,25.5393-.8846,37.5198,3.1879,11.9196,4.0518,22.5227,11.2331,30.803,20.7041,4.2925,4.9098,7.9797,10.4252,10.6736,16.3714,2.8527,6.2968,4.5661,13.0528,6.496,19.6686,1.8178,6.2318,4.0368,12.1777,4.3571,18.7275,.3156,6.4528-.6051,12.8615-2.3513,19.067-3.4858,12.3872-10.0821,23.8121-18.5222,33.4791-8.4184,9.6421-18.4295,17.7157-28.6324,25.3781-2.5788,1.9367-5.1725,3.8532-7.765,5.7714,1.2924,.3389,2.5849,.6778,3.8773,1.0167-2.7144-3.9667-5.3803-8.0364-7.3053-12.4567-1.133-2.6017-1.9422-5.3807-2.6458-8.126-.8126-3.1705-1.3875-5.719-1.3545-8.8108,.0037-.349,.0228-.695,.0442-1.0432,.0438-.7109-.0825,.131,.0354-.3318,.0736-.2891,.129-.5815,.2075-.8701,.0367-.1347,.0907-.2661,.1363-.3976-.1097,.3161-.2051,.3369,.0093,.0486,.4186-.563-.2132,.3024,.045-.0999,.2279-.3551-.0778-.0067-.1291,.0616,.197-.2625,.2534-.0954,.0011-.0357,.9303-.22,1.0826-.2665,2.013-.3389,2.3228-.1808,4.4195-.3698,6.4956-1.5222,2.1617-1.1999,3.9747-2.9626,5.5155-4.8738,.9598-1.1905,1.1635-2.8442,0-4.0077-.9932-.9932-3.0421-1.1977-4.0077,0Z"/></g><g><path d="M816.4994,301.333c-10.3238,.3877-20.5048,3.498-29.3678,8.7871-8.9993,5.3704-14.1468,14.6436-24.9512,16.2552-6.1144,.912-12.3621,.369-18.5045,1.0679-6.0679,.6904-12.1696,2.7068-16.6741,6.8306-4.5045,4.1237-7.1213,10.6115-5.5665,16.5172,1.5548,5.9058,7.8968,10.48,13.8395,9.0728,1.6393-.3882,3.1583-1.1713,4.5987-2.045,.5318-.3226,1.1225-.7844,1.0722-1.4043-.0475-.585-.6505-.9541-1.2098-1.1321-3.9524-1.2582-8.0723,2.5311-8.7211,6.6279-.6488,4.0968,1.115,8.1573,2.9515,11.8765,3.8786,7.8548,11.3927,13.2512,19.8017,15.5608,.506,.139,1.0504,.2654,1.5464,.0943,.6099-.2105,.9838-.8088,1.3166-1.3616,8.3508-13.8711,21.5418-24.7635,36.7421-30.3396-.9648-3.7941-3.9225-6.7209-5.7244-10.1965-3.4823-6.7165-2.3896-14.7869-1.2093-22.2598"/><path d="M816.4994,298.4991c-9.8115,.4054-19.4325,3.0396-28.1009,7.6532-3.7342,1.9875-7.07,4.4493-10.244,7.2367-2.7401,2.4063-5.3565,4.9699-8.3221,6.9279-3.3432,2.2072-6.7563,3.2527-10.8002,3.5778-5.2454,.4216-10.5302,.1205-15.7608,.7626-8.9664,1.1008-18.2561,4.9517-22.6908,13.3263-2.1109,3.9863-2.9799,8.5643-2.0102,13.0053,.8975,4.1105,3.7124,7.7585,7.3005,9.905,3.8471,2.3015,8.367,2.6445,12.4852,.8908,2.2012-.9374,5.2571-2.32,5.3984-5.0733,.1467-2.8591-2.5524-4.2649-5.0364-4.4782-4.5996-.3949-8.5237,3.3073-10.0195,7.3694-1.8135,4.9249,.2799,10.336,2.4147,14.7825,3.7341,7.7778,10.3939,13.3867,18.3602,16.5181,1.928,.7579,4.5109,1.9125,6.5942,1.2713,2.3193-.7139,3.3439-3.2803,4.5782-5.1475,2.2817-3.4515,4.8848-6.6636,7.7575-9.6407,5.8293-6.0413,12.6978-10.9838,20.2688-14.6115,1.7833-.8545,3.6-1.6153,5.4542-2.3014,1.4373-.5319,2.4136-1.9022,1.9793-3.486-1.4709-5.3645-6.0011-9.1132-7.3415-14.536-1.3222-5.3491-.4352-11.0587,.4078-16.4136,.2377-1.5101-.3866-3.0484-1.9793-3.486-1.3464-.37-3.2466,.4585-3.486,1.9793-.9683,6.1514-1.8733,12.4301-.5936,18.6086,.6017,2.9047,1.8205,5.629,3.4394,8.1049,1.516,2.3186,3.3442,4.5369,4.0879,7.2495,.6598-1.162,1.3195-2.324,1.9793-3.486-14.5317,5.3775-27.1542,15.1236-35.9895,27.8615-.5208,.7508-1.0269,1.5117-1.5179,2.2823-.2455,.3854-.4865,.7736-.7254,1.1631-.0431,.0703-.3884,.591-.3737,.6132-.0081-.0123,.1408-.0777,.157-.0688-.012-.0066,1.334,.1698,.3511-.2444-.1664-.0701-.3655-.1025-.5392-.1532-.4183-.122-.8346-.2511-1.2481-.3887-.7691-.256-1.5358-.5317-2.2813-.849-3.1736-1.3507-6.1568-3.24-8.6629-5.6117-2.5897-2.4507-4.4666-5.2935-5.9829-8.5077-1.5064-3.1931-3.202-7.4911-1.2181-10.7827,.7185-1.1921,1.8021-2.1147,3.0436-2.3959,.2008-.0455,1.1909,.1102,1.2873,.0676-.418,.1848,.1217-2.8389-.2091-2.7947-.144,.0193-.4866,.3047-.6293,.3893-.4838,.287-.9785,.5571-1.4827,.8066-2.9347,1.4519-5.7839,1.0439-8.4588-.772-5.7388-3.8959-5.1197-11.6757-1.3516-16.9035,4.4924-6.2326,12.7916-8.2884,20.0476-8.705,4.6283-.2658,9.2811-.0879,13.8939-.615,3.8641-.4415,7.4482-1.4685,10.8113-3.4649,5.8335-3.463,10.1756-8.8989,15.789-12.5937,6.8855-4.5322,14.9771-7.3754,23.0984-8.6224,2.0093-.3085,4.0405-.4674,6.0708-.5513,3.6342-.1502,3.6533-5.8187,0-5.6678h0Z"/></g><path d="M776.3222,377.9303c.7048,.4573,1.4042,.9235,2.0797,1.4233,.0757,.056,.1507,.1131,.2263,.1693,.3098,.2301-.3042-.2424-.025-.0191,.1758,.1406,.3509,.2818,.5225,.4275,.3111,.2642,.6131,.5392,.9017,.8278,.2837,.2836,.5491,.5822,.8049,.891,.2518,.3039-.2578-.3633-.0323-.0413,.0512,.0731,.1046,.1446,.1553,.2181,.1109,.1607,.2167,.325,.3158,.4933,.1075,.1826,.2078,.3695,.2996,.5606,.0322,.0671,.1571,.3666,.0349,.0641-.1226-.3036-.0025,.0006,.023,.0697,.1499,.405,.2554,.8222,.3249,1.2481,.0716,.4386,.5008,.9141,.8682,1.1291,.405,.237,1.0018,.3374,1.4558,.1905,1.0595-.3429,1.4906-1.2758,1.3195-2.324-.6479-3.9699-4.2283-6.5532-7.3677-8.5905-.8307-.5391-2.1235-.1955-2.5849,.6778-.4971,.9408-.2088,2.0095,.6778,2.5849h0Z"/><path d="M798.9896,393.8638c1.0977,.1492,2.1558,.4334,3.1901,.8278,.1823,.0695,.1387,.059-.0152-.0099,.1437,.0643,.2875,.1278,.4298,.1952,.2371,.1124,.4709,.2316,.7013,.357,.4841,.2636,.9527,.5554,1.4033,.873,.1073,.0757,.2123,.1543,.3188,.2311-.2134-.1538-.0796-.064,.0527,.043,.2041,.165,.4036,.3356,.5984,.5116,.4087,.3694,.7959,.7624,1.1588,1.1769,.0864,.0986,.1711,.1987,.2546,.2998,.1082,.131,.2063,.2587,.0468,.0488,.1586,.2087,.3115,.4217,.4578,.6392,.3224,.4796,.6101,.9794,.8701,1.4953,.4457,.8844,1.764,1.207,2.5849,.6778,.9037-.5826,1.1545-1.639,.6778-2.5849-2.2376-4.4396-6.7875-7.7541-11.7254-8.4251-.9746-.1324-2.0767,.2338-2.324,1.3195-.2021,.8873,.2722,2.1817,1.3195,2.324h0Z"/><path d="M778.1139,420.4998c-1.4542,.7979-3.6813,1.5806-3.5853,3.5902,.0714,1.4949,1.8216,2.6098,3.0426,3.2031,2.4507,1.1908,5.2638,1.6727,7.9734,1.7198,1.5735,.0274,3.0761-.3195,4.5839-.7342,.7289-.2005,1.4744-.4367,2.2263-.5321,.3146-.0399,.6205-.0226,.935-.0368,.4187-.019,.2847,.1469,.2306-.1182,.2344,1.1493-1.0573,2.2982-1.9019,2.8216-1.4182,.8787-3.1081,1.562-4.7118,2.0071-.4428,.1229-.8766,.2178-1.3352,.2341-.5401,.0191-1.044-.107-1.58,.0072-1.0985,.2341-1.851,1.1816-1.831,2.3161,.0365,2.0712,2.401,3.279,4.1088,3.7922,2.3338,.7013,3.3311-2.9444,1.0045-3.6435-.3729-.112-.6841-.2391-1.0195-.4404-.5728-.3437-.3011-.4106-.3115,.1059l-.2579,.9535,.0699-.1563-.6778,.6778c-.1838,.1402-.4954,.0075-.1814,.1441,.1247,.0543,.3728,.0264,.5074,.0267,.4501,.0012,.8994-.0603,1.3431-.1283,.7376-.113,1.447-.3125,2.1486-.5653,1.3787-.4967,2.7873-1.051,4.0775-1.7492,2.5687-1.39,4.7593-4.0428,4.216-7.1331-.5934-3.3747-4.4711-3.1418-7.0194-2.5064-1.2401,.3093-2.4965,.8056-3.7818,.8705-.9637,.0487-1.9502-.0126-2.9063-.1347-2.0016-.2557-4.4442-.8196-5.7269-2.3371l.5533,1.3359-.0033,.1114-.4859,.8337c.4357-.5139,1.5385-.9079,2.2031-1.2726,2.1324-1.1701,.228-4.4342-1.9071-3.2626h0Z"/><g><path d="M794.2305,403.5816c-.4257,3.0987,3.884,5.1398,5.8102,2.5127,.8671-1.1828,.7614-2.8461,.2083-4.2044-1.4375-3.5303-5.6085-1.2928-6.0186,1.6917Z"/><path d="M792.3412,403.5816c-.2515,1.9918,1.005,4.0028,2.734,4.9243,1.9216,1.0243,4.2393,.8833,5.8798-.6054,2.035-1.8468,1.9493-5.0494,.7573-7.3279-.9867-1.8861-3.1844-2.8345-5.2202-2.1522-2.0091,.6734-3.7691,2.5181-4.0834,4.6589-.0768,.523-.0877,.9805,.1905,1.4558,.2293,.3919,.6787,.7656,1.1291,.8682,.4836,.1102,1.0265,.0863,1.4558-.1905,.3841-.2476,.7987-.6554,.8682-1.1291,.048-.3271,.1363-.641,.2614-.9469l-.1905,.4513c.1466-.3425,.3341-.6612,.5587-.9582l-.2954,.3824c.2387-.3064,.5104-.5802,.816-.82l-.3824,.2954c.2801-.2133,.5803-.3925,.9044-.5303l-.4513,.1905c.255-.1034,.5161-.1778,.7887-.2171l-.5022,.0675c.2252-.0278,.4483-.0299,.6736-.002l-.5022-.0675c.1861,.0276,.3646,.0747,.5397,.1435l-.4513-.1905c.1802,.0763,.3464,.172,.5038,.2881l-.3824-.2954c.1869,.1454,.3488,.3116,.4947,.4978l-.2954-.3824c.1804,.2415,.3244,.5014,.4456,.7771l-.1905-.4513c.2064,.494,.3482,1.0081,.4205,1.5386l-.0675-.5022c.0479,.4062,.0523,.8099,.0008,1.2159l.0675-.5022c-.0459,.305-.1223,.5979-.2369,.8844l.1905-.4513c-.1083,.25-.2411,.4823-.4046,.7003l.2954-.3824c-.1575,.2007-.332,.3809-.5305,.5413l.3824-.2954c-.2042,.1574-.4223,.2861-.6594,.3876l.4513-.1905c-.2307,.0927-.4671,.1556-.7131,.1914l.5022-.0675c-.2867,.0358-.5714,.0333-.8579-.0034l.5022,.0675c-.3095-.0454-.6069-.1285-.8963-.2472l.4513,.1905c-.309-.1329-.5961-.3016-.8624-.5072l.3824,.2954c-.23-.1839-.4358-.3895-.6181-.621l.2954,.3824c-.1655-.2183-.3037-.4508-.4142-.7015l.1905,.4513c-.1076-.2583-.1806-.5239-.2194-.801l.0675,.5022c-.0319-.2711-.0294-.5395,.0048-.8103,.0562-.4451-.2516-1.0342-.5533-1.3359-.3277-.3277-.8653-.5744-1.3359-.5533-.4886,.0219-.9954,.1824-1.3359,.5533-.3621,.3944-.4868,.8091-.5533,1.3359Z"/></g><g><path d="M768.5906,386.8178c-.4257,3.0987,3.884,5.1398,5.8102,2.5127,.8671-1.1828,.7614-2.8461,.2083-4.2044-1.4375-3.5303-5.6085-1.2928-6.0186,1.6917Z"/><path d="M766.7014,386.8178c-.2515,1.9918,1.005,4.0028,2.734,4.9243,1.9216,1.0243,4.2393,.8833,5.8798-.6054,2.035-1.8468,1.9493-5.0494,.7573-7.3279-.9867-1.8861-3.1844-2.8345-5.2202-2.1522-2.0091,.6734-3.7691,2.5181-4.0834,4.6589-.0768,.523-.0877,.9805,.1905,1.4558,.2293,.3919,.6787,.7656,1.1291,.8682,.4836,.1102,1.0265,.0863,1.4558-.1905,.3841-.2476,.7987-.6554,.8682-1.1291,.048-.3271,.1363-.641,.2614-.9469l-.1905,.4513c.1466-.3425,.3341-.6612,.5587-.9582l-.2954,.3824c.2387-.3064,.5104-.5802,.816-.82l-.3824,.2954c.2801-.2133,.5803-.3925,.9044-.5303l-.4513,.1905c.255-.1034,.5161-.1778,.7887-.2171l-.5022,.0675c.2252-.0278,.4483-.0299,.6736-.002l-.5022-.0675c.1861,.0276,.3646,.0747,.5397,.1435l-.4513-.1905c.1802,.0763,.3464,.172,.5038,.2881l-.3824-.2954c.1869,.1454,.3488,.3116,.4947,.4978l-.2954-.3824c.1804,.2415,.3244,.5014,.4456,.7771l-.1905-.4513c.2064,.494,.3482,1.0081,.4205,1.5386l-.0675-.5022c.0479,.4062,.0523,.8099,.0008,1.2159l.0675-.5022c-.0459,.305-.1223,.5979-.2369,.8844l.1905-.4513c-.1083,.25-.2411,.4823-.4046,.7003l.2954-.3824c-.1575,.2007-.332,.3809-.5305,.5413l.3824-.2954c-.2042,.1574-.4223,.2861-.6594,.3876l.4513-.1905c-.2307,.0927-.4671,.1556-.7131,.1914l.5022-.0675c-.2867,.0358-.5714,.0333-.8579-.0034l.5022,.0675c-.3095-.0454-.6069-.1285-.8963-.2472l.4513,.1905c-.309-.1329-.5961-.3016-.8624-.5072l.3824,.2954c-.23-.1839-.4358-.3895-.6181-.621l.2954,.3824c-.1655-.2183-.3037-.4508-.4142-.7015l.1905,.4513c-.1076-.2583-.1806-.5239-.2194-.801l.0675,.5022c-.0319-.2711-.0294-.5395,.0048-.8103,.0562-.4451-.2516-1.0342-.5533-1.3359-.3277-.3277-.8653-.5744-1.3359-.5533-.4886,.0219-.9954,.1824-1.3359,.5533-.3621,.3944-.4868,.8091-.5533,1.3359Z"/></g><g><path d="M786.8307,427.1301c1.7926,1.1839,1.9699,4.1613,.3305,5.5495,2.3162-.1967,4.5624-1.1472,6.3163-2.6729,.4667-.4059,.9148-.8769,1.0892-1.4703s-.0092-1.3314-.5563-1.62c-.2757-.1454-.5992-.1606-.9107-.1726-1.4189-.055-2.9733-.0681-4.0842,.8163"/><path d="M785.8772,428.7614c.2654,.1815-.3714-.3359-.0132-.0065,.0917,.0843,.1727,.1766,.2573,.2676,.2136,.2298-.2785-.4169-.0218-.0091,.0494,.0786,.0956,.1592,.1384,.2416,.2252,.4326-.1002-.33-.0031-.0249,.038,.1193,.0795,.2363,.1107,.3578,.0311,.1212,.0438,.2478,.0756,.3682-.1479-.56-.0341-.271-.0251-.0807,.0052,.1098,.0062,.2196,.0023,.3295-.0071,.1997-.1335,.5396,.0227-.0348-.0598,.22-.1244,.4553-.1736,.6774-.0512,.1387-.0164,.0602,.1044-.2356-.0249,.0566-.0514,.1124-.0794,.1676-.0564,.1108-.124,.213-.1865,.3199-.1572,.2687,.3349-.3723,.01-.0163-.0848,.0929-.1759,.178-.2705,.2608-.5652,.4946-.6657,1.4119-.3906,2.0638,.2696,.6388,.9871,1.2286,1.7265,1.1614,2.7924-.2541,5.3536-1.2963,7.5048-3.1006,1.2681-1.0635,2.0999-2.5169,1.7528-4.208-.168-.8184-.7678-1.6299-1.5153-2.0026-.7767-.3872-1.6299-.4107-2.4806-.4226-1.4876-.0207-3.1412,.161-4.361,1.0936-.4084,.3122-.7259,.6123-.8682,1.1291-.1245,.4522-.0683,1.0544,.1905,1.4558,.4984,.773,1.7451,1.3198,2.5849,.6778,.1277-.0976,.2578-.1892,.3974-.2693,.0687-.0394,.1388-.0763,.2101-.1107,.1462-.0667,.1435-.0664-.008,.001-.1531,.0637-.1543,.0675-.0035,.0113,.0755-.0253,.1516-.0484,.2284-.0694,.1556-.0428,.313-.0707,.4705-.1043,.3675-.0784-.425,.0285-.0177,.0029,.1646-.0104,.3284-.0261,.4934-.0326,.2895-.0114,.5795-.0098,.8691-.0031,.1434,.0033,.2867,.0081,.43,.0136,.1413,.0054,.6014,.0973,.0933-.0178,.1998,.055,.1747,.0332-.0752-.0652,.1669,.1032,.1205,.0644-.1391-.1164l-.1668-.2296c.0386,.0552,.0725,.1132,.1018,.1739-.1162-.2974-.1455-.3513-.0879-.1617,.0391,.1994,.0308,.1352-.025-.1927,.0026,.0524,.0019,.1047-.0021,.157-.0096,.1515,.0014,.0701,.033-.2441-.0166,.0738-.038,.1462-.0642,.2172,.1163-.2608,.1283-.3003,.0358-.1187-.0405,.0711-.0843,.1402-.1313,.2073,.161-.2,.1962-.2461,.1056-.1384-.2181,.2275-.4321,.4488-.673,.6535-.0931,.0791-.1923,.1903-.2997,.2453,.2127-.163,.2374-.1833,.0741-.061-.0694,.0509-.1394,.1009-.21,.1501-.4945,.3443-1.0168,.6484-1.5604,.9086-.0484,.0231-.5335,.2444-.2455,.1163,.2869-.1276-.2027,.0767-.2542,.0957-.2826,.1045-.5694,.1975-.8594,.2791s-.5834,.151-.8791,.2084c-.0922,.0179-.4293,.1305-.5091,.0865,.2891-.0375,.3285-.0437,.118-.0186-.0856,.0093-.1713,.0177-.2571,.0249l1.3359,3.2252c1.1656-1.0201,1.7813-2.701,1.6718-4.2343-.1255-1.7566-.921-3.2812-2.3846-4.2824-.8179-.5595-2.1313-.1806-2.5849,.6778-.5068,.9592-.1951,1.9878,.6778,2.5849h0Z"/></g><path d="M379.1452,189.6888c-5.8145,4.8249-7.2485,13.6418-3.177,20.0363,.3215,.505,.686,.9752,1.0528,1.4478-.5672-.7306,.262,.3393,.4604,.5703,.7175,.8355,1.5394,1.5437,2.4178,2.2046,1.4164,1.0657,3.0254,1.865,4.7219,2.383,3.8131,1.1642,7.8156,.6767,11.387-.9924l-3.8773-3.8773c-1.8668,2.8759-2.8054,6.4261-2.4475,9.8502,.1973,1.8873,.6706,3.6397,1.4812,5.3576,.3283,.6957,.7133,1.359,1.1555,1.9882,.1516,.2157,1.021,1.3311,.4742,.6262,.3389,.4369,.6723,.8661,1.0494,1.2702,4.7366,5.0759,12.2871,6.0863,18.3994,3.069-1.2924-1.2924-2.5849-2.5849-3.8773-3.8773-1.2744,2.9891-1.7472,6.0093-1.234,9.2351,.2415,1.5179,.7571,2.9638,1.4359,4.3408,.2929,.5941,.6346,1.1618,1.0144,1.7042,.0494,.0706,1.0072,1.3175,.5853,.7735-.3187-.411,.6963,.8642,.8123,.9925,3.7471,4.1482,9.7136,5.8465,15.1101,4.5292,4.8586-1.186,8.9558-5.4015,12.7616-8.4709,5.3567-4.3202,10.7134-8.6403,16.0701-12.9605,4.0915-3.2998,8.7979-6.2844,10.8464-11.3429,2.3341-5.7637,.7685-12.7013-3.7895-16.9306-4.8547-4.5047-11.8766-5.327-17.7555-2.4249l3.8773,3.8773c2.6411-6.1941,1.5356-13.5242-3.6753-18.0908-4.8264-4.2296-11.4804-4.9836-17.2382-2.2925l3.8773,3.8773c3.4214-5.271,3.3511-12.4293-.421-17.5116-3.5601-4.7966-9.3765-7.1417-15.2689-6.1575-1.3709,.229-2.6642,.6794-3.9235,1.265-.5271,.2451-1.0391,.5192-1.5296,.8315-.3003,.1912-.5889,.3971-.8743,.6097-.6698,.5154-.7652,.5902-.2863,.2242l-.0258,.0191c-.5789,.4314-1.1602,.8596-1.7403,1.2893-2.7821,2.0613-5.5642,4.1225-8.3464,6.1838-2.0505,1.5192-4.1009,3.0384-6.1514,4.5575-1.2279,.9097-1.8489,2.4544-1.0167,3.8773,.7082,1.2109,2.6405,1.933,3.8773,1.0167,4.1143-3.0483,8.2286-6.0965,12.3428-9.1448,1.5857-1.1748,3.1723-2.4557,4.7861-3.545,3.5757-2.4136,7.9912-2.3922,11.4847,.1431,4.3036,3.1233,5.0357,9.111,2.1992,13.4809-.6798,1.0473-.4154,2.5756,.4431,3.4342,.9439,.9439,2.2818,.9817,3.4342,.4431,3.3109-1.5474,7.5004-1.0695,10.3699,1.4063,3.1598,2.7264,4.4465,7.3352,2.7891,11.2224-1.0991,2.5778,1.1767,5.2105,3.8773,3.8773,3.6335-1.7937,8.1507-1.1581,11.1496,1.7892,2.9888,2.9375,3.7194,7.157,2.1958,10.8533-.7489,1.8168-2.2727,3.3131-3.9309,4.6505l-4.623,3.7285c-4.8341,3.8987-9.6682,7.7974-14.5023,11.696-3.0122,2.4293-5.9607,4.9807-9.0563,7.3039-3.224,2.4195-7.4353,2.6529-10.8061,.7271-1.1074-.6327-1.6888-1.336-2.6407-2.1838l-.1179-.1343c.3578,.4903,.2813,.398-.2297-.2769-.1714-.2387-.3334-.491-.4872-.7415-.3159-.5145-.6051-1.0481-.8208-1.6121-.8815-2.3036-.9281-4.9946,.0458-7.2788,1.0991-2.5778-1.1766-5.2105-3.8773-3.8773-3.828,1.8897-8.5076,1.0574-11.5311-2.1827-.1136-.1217-.7247-.7382-.1632-.1233-.2187-.2396-.4002-.5196-.5843-.7864-.3618-.5245-.6943-1.0787-.9629-1.6573-.4377-.9431-.7335-2.0695-.8246-3.034-.2247-2.3796,.3923-4.5958,1.7084-6.6233,.6798-1.0472,.4154-2.5757-.4431-3.4342-.9439-.9439-2.2818-.9817-3.4342-.4431-2.2271,1.0408-4.7021,1.1286-7.0197,.4211-1.0825-.3305-2.148-.8624-3.0752-1.5934-.5786-.4561-1.0585-1.0058-1.5635-1.5366,.6367,.6692-.1654-.1939-.2298-.2841-.2054-.2876-.4001-.583-.5819-.8861-2.5993-4.333-1.4794-9.587,2.4755-12.8688,1.1786-.978,1.0116-2.9961,0-4.0077-1.1663-1.1663-2.8262-.9804-4.0077,0h0Z"/><path d="M410.5271,202.9054c6.3277-4.8778,12.6554-9.7556,18.9831-14.6334,.9039-.6968,1.8077-1.3935,2.7116-2.0903,1.2101-.9328,1.8593-2.4366,1.0167-3.8773-.6965-1.1909-2.6574-1.957-3.8773-1.0167-6.3277,4.8778-12.6554,9.7556-18.9831,14.6334-.9039,.6968-1.8077,1.3935-2.7116,2.0903-1.2101,.9328-1.8593,2.4366-1.0167,3.8773,.6965,1.1909,2.6574,1.957,3.8773,1.0167h0Z"/><path d="M427.8278,221.7359c5.9035-5.3899,11.8071-10.7798,17.7106-16.1697,.8396-.7665,1.6792-1.5331,2.5188-2.2996,1.1307-1.0323,1.0476-2.9601,0-4.0077-1.1253-1.1253-2.8741-1.035-4.0077,0-5.9035,5.3899-11.8071,10.7798-17.7106,16.1697-.8396,.7665-1.6792,1.5331-2.5188,2.2996-1.1307,1.0323-1.0476,2.9601,0,4.0077,1.1253,1.1253,2.8741,1.035,4.0077,0h0Z"/><g><path d="M901.9882,418.651c-2.3978,12.5807-4.5703,26.5244,2.1372,37.4346,6.4426,10.4794,19.2947,15.0967,27.6341,24.1399,10.1108,10.9642,12.205,28.5484,4.9521,41.5806,17.7466,5.0804,33.7332,18.9145,37.5505,36.9749s-7.5362,39.1058-25.6643,42.5878c16.0791,10.1237,20.6058,34.6996,9.1891,49.8879-11.4167,15.1883-45.2179,13.0811-59.4118,.4494,0,0,31.4875-102.0196-33.3768-141.694-15.7438-22.0413-40.9338-24.5603-22.671-59.8263,18.2628-35.2661,59.661-31.5348,59.661-31.5348Z"/><path d="M899.2555,417.8976c-1.6061,8.4462-3.1847,17.2124-2.1115,25.826,.539,4.3265,1.6541,8.5034,3.7175,12.3681,1.8265,3.421,4.3939,6.4447,7.2581,9.0414,5.6509,5.123,12.4204,8.7905,18.1788,13.7713,5.574,4.8212,9.3836,10.923,11.0286,18.1219,1.7817,7.7974,.8339,16.2537-3.0625,23.3496-.8866,1.6146-.0969,3.6442,1.6936,4.163,13.6311,3.9491,26.1595,13.0925,32.4944,25.9894,5.9521,12.1175,4.4938,26.1464-3.4993,37.0245-4.1126,5.597-10.167,9.7069-17.109,11.0835-2.5207,.4999-2.5953,3.9571-.677,5.1796,6.4855,4.133,10.9384,10.9287,12.9329,18.3792,1.935,7.2284,1.6185,15.4309-1.4947,22.1576-.8529,1.8429-1.8983,3.5625-3.0737,5.2154-.3805,.535-.1519,.2032-.0614,.0893-.1325,.1669-.268,.3312-.4059,.4937-.2486,.2929-.5054,.5786-.7704,.8567-.5936,.6229-1.2267,1.2079-1.8908,1.7549-.134,.1104-.269,.2201-.4061,.3266,.3989-.31-.0569,.0377-.1587,.1089-.325,.2274-.6472,.4573-.9793,.6744-.7503,.4906-1.5267,.9413-2.3219,1.3551-1.6535,.8605-2.4865,1.195-4.3521,1.8007-1.767,.5738-3.5756,1.0155-5.403,1.3481-.4439,.0808-.889,.1552-1.3351,.2232-.1994,.0304-.3991,.0604-.599,.0875,.4367-.0592-.2015,.0232-.3025,.0346-.9673,.1083-1.9351,.2005-2.9067,.2608-1.9734,.1224-3.9533,.1377-5.9286,.0554-1.7871-.0745-4.1623-.2891-5.5098-.4881-4.2448-.6269-8.4387-1.6843-12.4291-3.2708-.6468-.2571-1.5583-.6568-2.5126-1.1256-.8839-.4341-1.7526-.8996-2.6011-1.3995-.8198-.483-1.621-.9976-2.3971-1.5482-.1495-.1061-1.0801-.8136-.6942-.507-.4049-.3217-.7995-.6547-1.1875-.9966l.7288,2.7572c1.0745-3.4854,1.9043-7.0588,2.6879-10.6181,1.9763-8.9769,3.3821-18.0914,4.2263-27.244,1.0825-11.7367,1.1876-23.6026-.1459-35.3235-1.4807-13.0154-4.6622-25.8278-10.4543-37.6245-6.0951-12.4139-15.1691-23.1297-26.4689-31.1087-1.4751-1.0416-2.9857-2.0304-4.5243-2.9755l1.0167,1.0167c-3.2897-4.5795-7.131-8.661-11.2593-12.4886-3.5077-3.2522-7.1993-6.3267-10.49-9.8055-.7696-.8136-1.5147-1.6508-2.2197-2.5212-.0947-.1169-.5766-.7407-.1876-.2282-.136-.1792-.271-.3593-.4035-.5411-.3284-.4506-.6446-.9101-.946-1.3792-.557-.8668-1.0639-1.7659-1.5055-2.697-.1104-.2327-.2159-.4675-.319-.7036,.2299,.5265-.0073-.0342-.0877-.2476-.1974-.5238-.374-1.0555-.5282-1.5937-.1363-.4756-.2549-.9561-.3565-1.4402-.0558-.2658-.1017-.5329-.1518-.7996-.0217-.1156-.036-.2325-.0557-.3484-.0588-.3456,.0375,.488-.0084-.0723-.0958-1.1702-.1681-2.3266-.1249-3.5021,.0231-.6283,.0694-1.2558,.1358-1.8809,.0147-.1386,.031-.277,.0475-.4154,.0567-.4747-.0599,.391,.0126-.0903,.0507-.3364,.1054-.6721,.166-1.0069,.2722-1.5043,.6461-2.9893,1.0904-4.4516,1.9926-6.5594,5.2294-12.9217,9.2831-18.4463,3.1715-4.3223,7.6481-8.6047,11.8997-11.5536,2.1937-1.5215,4.4967-2.8845,6.8792-4.0886,1.1198-.5659,2.2574-1.0956,3.4091-1.5933,.4332-.1872-.1868,.07,.4158-.173,.2824-.1139,.5643-.2286,.8478-.3399,.5596-.2197,1.1223-.4315,1.6878-.6357,4.1836-1.5105,8.5164-2.6001,12.9065-3.3069,.4405-.0709,.8816-.1379,1.3233-.2011,.3053-.0437,.7196-.0939,.139-.0211,.2586-.0324,.5169-.0664,.7756-.0976,.8567-.1034,1.7152-.1924,2.575-.2668,1.4858-.1286,2.9756-.2139,4.4665-.2518,1.6404-.0416,3.2665,.0456,4.9037,.0749,.0739,.0013,.1489,.0106,.2226,.0172,1.5265,.1362,2.8339-1.4,2.8339-2.8339,0-1.6462-1.303-2.6973-2.8339-2.8339-5.2638-.4696-10.7239,.1131-15.9123,.9488-11.2113,1.8058-21.9698,6.173-30.8968,13.2446-5.5231,4.3752-10.1719,9.8514-13.7397,15.9207-3.979,6.7688-7.2797,14.4019-8.1546,22.2632-.6056,5.4417,.5241,10.9266,3.3508,15.6261,2.6868,4.4671,6.5342,8.106,10.3631,11.5808,4.3934,3.9871,8.8577,7.9046,12.7173,12.4287,1.1181,1.3106,1.8016,2.214,2.7446,3.4861,1.1291,1.5232,3.1941,2.436,4.7533,3.5065,2.6965,1.8515,4.7176,3.4295,7.2014,5.6379,2.2923,2.0382,4.4628,4.2131,6.4959,6.5098,.9945,1.1234,1.9539,2.2769,2.8835,3.4545,.3492,.4424,.147,.1853,.0715,.0877,.1138,.1469,.2262,.2951,.3385,.4431,.2242,.2957,.4463,.5929,.6663,.8917,.4384,.5954,.8685,1.197,1.2902,1.8044,1.6962,2.4435,3.2554,4.9816,4.6779,7.5938,.6942,1.2747,1.3558,2.5671,1.9856,3.8749,.2943,.6111,.5816,1.2255,.862,1.843,.2538,.5591,.7234,1.6303,.8347,1.8938,2.0728,4.903,3.932,10.7835,5.226,16.2765,.6513,2.765,1.2012,5.5538,1.6593,8.3573,.1138,.6968,.222,1.3946,.3246,2.0932,.0512,.3486,.1004,.6974,.1495,1.0463,.0142,.1008,.0758,.5579,.0054,.0311,.0233,.1742,.046,.3485,.0685,.5228,.1849,1.4323,.347,2.8675,.4881,4.3048,1.0386,10.5844,.9339,21.2685,.0228,31.8581-.2035,2.3651-.4483,4.7266-.7322,7.0834-.0681,.5652-.1384,1.1301-.211,1.6947-.0358,.2784-.0731,.5566-.109,.835-.0194,.1503-.0763,.556,.0181-.1326-.0234,.1712-.0466,.3424-.0702,.5135-.1475,1.0696-.3029,2.138-.4662,3.2052-.5789,3.7835-1.2558,7.5523-2.033,11.3002-.8732,4.2107-1.8455,8.4138-3.0522,12.543-.0549,.1879-.1098,.3758-.1674,.5629-.281,.9116,.001,2.1159,.7288,2.7572,6.0733,5.3516,13.9751,8.397,21.8507,9.89,8.3369,1.5805,17.1439,1.6835,25.3878-.4945,7.878-2.0813,14.655-6.4501,18.7277-13.6296,4.4485-7.8421,5.5254-17.1871,3.8691-25.9734-1.873-9.9355-7.6018-19.115-16.1784-24.5806-.2257,1.7265-.4513,3.4531-.677,5.1796,14.6183-2.8989,25.1377-16.3387,27.7484-30.5372,1.3811-7.5111,.6908-15.1671-2.1531-22.2691-2.965-7.4044-7.733-13.9568-13.7121-19.2259-6.8434-6.0306-15.0123-10.4588-23.7693-12.9958,.5645,1.3877,1.1291,2.7753,1.6936,4.163,7.6317-13.8985,5.7217-31.9953-4.5452-44.0547-5.0326-5.9112-11.8822-9.8945-18.0597-14.4584-2.9359-2.1691-5.7447-4.5643-8.0802-7.3825-2.4057-2.903-4.0261-6.3675-4.9499-10.0076-2.3165-9.1278-.5274-18.8589,1.1973-27.9289,.2856-1.502-.4197-3.0575-1.9793-3.486-1.3845-.3804-3.1987,.4682-3.486,1.9793Z"/></g><path d="M499.1712,383.9586c4.2082-1.4027,8.4163-2.8054,12.6245-4.2082,1.4036-.4679,2.468-1.9759,1.9793-3.486-.4523-1.3977-1.9802-2.4812-3.486-1.9793-4.2082,1.4027-8.4163,2.8054-12.6245,4.2082-1.4036,.4679-2.468,1.9759-1.9793,3.486,.4523,1.3977,1.9802,2.4812,3.486,1.9793h0Z" style="fill:#6966ed;"/><path d="M501.1957,432.0667c2.1041,1.4027,4.2082,2.8054,6.3122,4.2082,.5905,.3937,1.516,.4695,2.1837,.2857,.6573-.181,1.3697-.6893,1.6936-1.3023,.3475-.6577,.5217-1.4544,.2857-2.1837-.235-.7263-.6637-1.2678-1.3023-1.6936-2.1041-1.4027-4.2082-2.8054-6.3122-4.2082-.5905-.3937-1.516-.4695-2.1837-.2857-.6573,.181-1.3697,.6893-1.6936,1.3023-.3475,.6577-.5217,1.4544-.2857,2.1837,.235,.7263,.6637,1.2678,1.3023,1.6936h0Z" style="fill:#6966ed;"/><path d="M487.9976,486.3297c1.4027,1.4027,2.8054,2.8054,4.2082,4.2082,.5139,.5139,1.2772,.83,2.0039,.83,.6951,0,1.5253-.3087,2.0039-.83,.4958-.5401,.8638-1.2491,.83-2.0039-.0337-.7517-.2876-1.4615-.83-2.0039-1.4027-1.4027-2.8054-2.8054-4.2082-4.2082-.5139-.5139-1.2772-.83-2.0039-.83-.6951,0-1.5253,.3087-2.0039,.83-.4958,.5401-.8638,1.2491-.83,2.0039,.0337,.7517,.2876,1.4615,.83,2.0039h0Z" style="fill:#6966ed;"/><path d="M31.4125,166.5096c1.4027,1.4027,2.8054,2.8054,4.2082,4.2082,.5139,.5139,1.2772,.83,2.0039,.83,.6951,0,1.5253-.3087,2.0039-.83,.4958-.5401,.8638-1.2491,.83-2.0039-.0337-.7517-.2876-1.4615-.83-2.0039-1.4027-1.4027-2.8054-2.8054-4.2082-4.2082-.5139-.5139-1.2772-.83-2.0039-.83-.6951,0-1.5253,.3087-2.0039,.83-.4958,.5401-.8638,1.2491-.83,2.0039,.0337,.7517,.2876,1.4615,.83,2.0039h0Z" style="fill:#6966ed;"/><path d="M26.4303,217.4506c4.2082-2.1041,8.4163-4.2082,12.6245-6.3122,1.3288-.6644,1.8086-2.6489,1.0167-3.8773-.8762-1.359-2.456-1.7273-3.8773-1.0167-4.2082,2.1041-8.4163,4.2082-12.6245,6.3122-1.3288,.6644-1.8086,2.6489-1.0167,3.8773,.8762,1.359,2.456,1.7273,3.8773,1.0167h0Z" style="fill:#6966ed;"/><path d="M74.8693,140.0102c.7014,2.8054,1.4027,5.6109,2.1041,8.4163,.3597,1.4387,2.0536,2.4428,3.486,1.9793,1.4897-.4821,2.3647-1.9444,1.9793-3.486-.7014-2.8054-1.4027-5.6109-2.1041-8.4163-.3597-1.4387-2.0536-2.4428-3.486-1.9793-1.4897,.4821-2.3647,1.9444-1.9793,3.486h0Z" style="fill:#6966ed;"/></svg>