<?xml version="1.0" encoding="UTF-8"?><svg id="Layer_2" xmlns="http://www.w3.org/2000/svg" width="1000" height="1000" viewBox="0 0 1000 1000"><rect x="641.2255" y="190.6191" width="32.1828" height="123.0636" transform="translate(-39.6686 152.8695) rotate(-12.8802)" style="fill:#f953b2;"/><rect x="705.9107" y="139.6565" width="32.1828" height="158.774" transform="translate(-30.6609 166.4557) rotate(-12.8802)" style="fill:#f953b2;"/><rect x="771.5144" y="96.831" width="32.1828" height="186.2436" transform="translate(-22.5255 180.3477) rotate(-12.8802)" style="fill:#f953b2;"/><rect x="620.3384" y="195.3954" width="32.1828" height="123.0636" transform="translate(-41.2589 148.3337) rotate(-12.8802)" style="fill:#f4d13b;"/><rect x="576.9937" y="258.9006" width="32.1828" height="73.1207" transform="translate(-50.9392 139.6411) rotate(-12.8802)" style="fill:#f953b2;"/><rect x="556.1066" y="263.6768" width="32.1828" height="73.1207" transform="translate(-52.5294 135.1052) rotate(-12.8802)" style="fill:#f4d13b;"/><rect x="685.0236" y="144.4327" width="32.1828" height="158.774" transform="translate(-32.2511 161.9199) rotate(-12.8802)" style="fill:#f4d13b;"/><rect x="750.6273" y="101.6072" width="32.1828" height="186.2436" transform="translate(-24.1157 175.8119) rotate(-12.8802)" style="fill:#f4d13b;"/><path d="M551.1605,364.7896c-1.3155-4.3851,1.3509-8.9688,5.813-9.9929l281.8754-64.6926c2.3663-.5411,3.8459-2.898,3.3048-5.2643l-46.8436-204.8545c-1.0484-4.5847,1.8184-9.1512,6.4031-10.1995h0c4.5847-1.0484,9.1512,1.8184,10.1995,6.403l47.8233,209.1391,2.8167,12.3181h0c.5411,2.3663-.9385,4.7232-3.3048,5.2643l-298.7624,67.3286c-4.0571,.9143-8.1301-1.4658-9.3251-5.4492h0Z" style="fill:#f4d13b;"/><circle cx="266.2392" cy="292.7595" r="135.9934" style="fill:#f4d13b;"/><path d="M266.5581,292.6687l57.5408,123.1786c20.2362-9.49,38.4151-24.1016,52.4211-43.5118,9.8597-13.6641,16.8062-28.5427,20.9771-43.8965-22.6409-40.3034-130.939-35.7702-130.939-35.7702Z" style="fill:#6966ed;"/><path d="M399.0115,388.5648c52.9118-73.3281,36.3612-175.6658-36.9669-228.5777l-95.8054,132.7723,132.7723,95.8054Z" style="fill:#f953b2;"/><path d="M796.7569,778.4771c56.368-28.66,110.2658-65.3061,140.8457-122.3955,31.3903-58.6023,34.0416-127.0812,20.0532-191.0212-7.9493-36.3359-21.0417-71.4288-37.389-104.7926l-.5338,4.1372c8.3733-7.8685,16.8137-15.6713,25.1225-23.6078,6.2744-5.9933,8.7809-14.833,4.8185-22.9095-4.2746-8.7129-14.8607-12.807-23.8876-9.259-6.2,2.4369-11.5024,8.3904-16.5192,12.6219l5.8281,2.4141c2.8602-25.3893,5.7204-50.7785,8.5806-76.1678,.4515-4.0079,1.28-8.1663,.34-12.1605-2.4888-10.575-14.431-16.4468-24.3316-12.0521-12.5576,5.5741-11.6285,23.5523-13.1418,35.1314-1.8211,13.9348-3.6422,27.8697-5.4634,41.8045h6.8281c.8733-20.713,2.0937-41.4404,2.6211-62.1646,.4528-17.7965-23.2352-26.1352-32.82-10.2223-2.4094,4-2.4814,8.4293-2.6554,12.9165l-.6918,17.8368c-.4514,11.6385-.9028,23.277-1.3541,34.9155h6.8281c-1.5995-19.0393-2.6774-38.1967-4.8039-57.1832-1.034-9.2321-8.4281-16.1597-17.8148-16.2335-8.5917-.0676-16.3048,5.4196-17.424,14.235-.4407,3.471,.2646,7.1584,.6157,10.6146l1.9393,19.0877c1.1305,11.1271,2.261,22.2541,3.3915,33.3812l6.7061-.9076c-3.6574-16.0124-7.3147-32.0249-10.9721-48.0373-1.5475-6.7751-2.2909-14.7224-7.7037-19.6728-11.2931-10.3282-30.177-1.6909-29.6072,13.6525,.2087,5.6202,2.3309,11.5238,3.583,16.9475,2.3415,10.1427,4.6831,20.2853,7.0246,30.428,1.7633,7.6378,3.5404,15.2725,5.2898,22.9135,2.9911,13.064,.7499,26.9117,2.1124,40.2514,6.3659,62.3267,47.9509,122.559,27.9893,186.2479-10.6016,33.8251-34.9218,60.8635-63.501,80.8972-27.8602,19.5296-59.3591,32.8116-87.7384,51.4185-29.6726,19.4549-55.0295,44.8123-76.259,73.1339-21.1158,28.1698-39.9438,59.7487-47.1343,94.6008-3.4887,16.9096-4.2188,34.7659,.5991,51.4989,2.1501,7.4675,5.3694,15.0056,11.3528,20.221,4.8643,4.24,12.8306,7.1535,18.7767,3.216,8.2086-5.4357,3.4577-20.5987,1.343-27.9396-3.5643-12.3731-8.6702-24.2914-13.8319-36.0665-5.701-13.0053-11.8737-24.9393-21.4647-35.6166-11.7632-13.0956-26.0189-24.2573-40.3881-34.3503-30.3179-21.2956-65.0575-36.5289-101.3202-44.1771-37.5473-7.9191-75.9324-5.409-114.0022-7.5808-36.1446-2.0619-76.0112-8.2904-104.8949-31.9762-11.4575-9.3956-20.803-21.4534-26.0729-35.3722-6.0968-16.1027-6.5804-33.4365-3.9622-50.3192,5.3763-34.6682,23.0592-65.8161,39.5146-96.2778,4.6869-8.6762,10.0672-20.055,19.5655-24.2627,8.5656-3.7946,17.1697-7.5046,25.7541-11.2567,2.5612-1.1195,5.2753-2.0966,7.7348-3.4396,6.2962-3.4378,10.2682-10.3889,10.0331-17.5581-.4439-13.5381-13.8382-21.346-26.1264-17.4832-7.3632,2.3147-14.6828,4.7775-22.0226,7.1658l4.1997,4.1997c5.9597-27.4257,11.9195-54.8513,17.8792-82.277,2.5986-11.9583,8.4748-27.9323-5.7002-35.2308-10.304-5.3053-22.2476,.6941-25.3071,11.5133-1.4358,5.0773-2.53,10.2777-3.7911,15.4004-3.7294,15.1496-7.4587,30.2992-11.1881,45.4488l6.7061,.9076c.3709-17.5267,.7418-35.0533,1.1126-52.58,.161-7.6072,1.4823-16.0534-3.6073-22.4519-9.7912-12.3092-29.9355-6.1007-31.4228,9.4345-.8624,9.0079-.6337,18.2236-.9292,27.2679h6.8281c-.9651-8.9678-1.9301-17.9355-2.8952-26.9033-.5135-4.7712-1.1556-9.2372-4.388-13.093-4.8401-5.7734-13.1977-8.212-20.0147-4.6097-6.9165,3.6548-11.4306,11.6586-10.8492,19.4668,.1581,2.1231,.5301,4.2435,.8068,6.3528l4.2738,32.5826c1.0872,8.2889,2.1745,16.5778,3.2617,24.8667l6.7061-.9076c-3.2068-16.3921-6.4137-32.7842-9.6205-49.1763-1.1189-5.7192-2.0255-11.5311-3.3656-17.2037-3.5374-14.9731-23.5879-17.4335-31.8376-4.8524-4.9475,7.5452-2.0048,16.5628-.5951,24.744,1.8624,10.8083,3.8213,21.6018,5.4256,32.4526,1.5957,10.7926,2.8001,21.6597,3.1846,32.5681,.343,9.7306,.5555,18.9023-4.0852,27.7149-7.8822,14.9681-21.0081,26.9778-30.8353,40.6803-11.6925,16.3033-22.0782,33.4874-29.9103,51.9908-27.9606,66.0571-26.8263,143.2968,5.674,207.5366,26.3591,52.1011,72.6331,91.4687,127.1257,111.7494,30.5998,11.3884,63.6098,17.2627,96.2617,15.7523,38.6956-1.79,81.8795-12.1494,118.4813,5.6175,3.8521,1.8698,7.8965,4.3928,9.8673,8.3593,2.3042,4.6377,.3403,8.4877-4.1592,10.4977h3.4463c-5.4151-3.0536-2.6011-10.3701-2.1024-15.429,.6849-6.9476,.9522-13.9315,.9331-20.9113-.0365-13.385-1.1374-26.7369-2.3136-40.0611-2.2932-25.9778-5.628-53.1483-1.3993-79.0971,1.9821-12.1628,5.7341-23.5028,13.6516-33.0954,6.3747-7.7233,13.9286-14.5339,18.9071-23.3308,11.5863-20.4729,7.782-45.0769,1.8019-66.6506-5.9477-21.4567-14.2479-42.3828-16.5948-64.6895-1.1072-10.5233-.9324-21.3071,2.2138-31.4875,3.584-11.5971,11.4575-20.5925,20.3813-28.5287,14.0709-12.5136,31.3385-20.8928,49.8323-24.3512,6.2766-1.1737,12.6608-1.7414,19.0457-1.7404,2.3549,.0003,4.7107,.0783,7.0593,.2514,.7422,.0547,1.484,.1176,2.2244,.1928,.3848,.0391,2.5131,.3148,1.6676,.1865,12.4545,1.8889,24.6916,9.3211,34.0142,17.405,11.5105,9.981,20.1705,22.8943,25.6105,37.0964,7.3648,19.2268,11.1846,41.0657,2.2521,60.4143-4.1523,8.9943-10.5266,17.0149-18.5496,22.8577-3.8969,2.8379-8.1787,5.2244-12.6763,6.9664-3.1762,1.2302-6.5445,1.6063-7.0048,5.5446-.6751,5.7757,4.1334,12.9834,6.8211,17.7374,3.6772,6.5042,8.2273,11.7111,14.3199,16.1732,17.2125,12.6062,38.9272,13.3708,58.8752,18.6455,17.71,4.683,32.9004,13.0581,45.7736,26.1846,16.7506,17.0801,30.5569,37.5694,43.5348,57.5776,12.9255,19.9276,24.7967,40.5135,36.4207,61.2197,23.4763,41.8189,46.0198,84.3843,74.2648,123.2649,6.8256,9.3958,13.9776,18.5514,21.4793,27.417,2.8423,3.359,7.6516-1.4915,4.8282-4.8282-56.6034-66.8951-89.4541-149.3849-138.3506-221.4582-11.6473-17.168-23.9649-34.8063-38.7616-49.4377-11.481-11.3527-24.9985-19.6072-40.3834-24.5022-17.3392-5.5167-36.4775-5.9927-53.1079-13.5207-13.5831-6.1487-23.8967-17.1547-28.4016-31.482-.2697-.8577-.3352-1.7434-.5381-2.5857,.6054,2.513-1.2325,1.14,.8225,1.0878,1.0423-.0264,2.6706-1.0304,3.626-1.4361,4.2039-1.7854,8.2028-3.9911,11.9045-6.6721,6.9537-5.0363,12.8898-11.3532,17.4113-18.6605,9.7217-15.7113,11.4261-33.4987,7.9529-51.3456-5.379-27.64-19.7398-53.338-43.6639-68.9138-8.4332-5.4904-18.2656-10.3161-28.384-11.5649-24.3967-3.011-50.3296,3.5612-70.856,16.8438-15.9173,10.3-31.0585,24.7563-36.412,43.4339-5.2336,18.2592-2.1338,37.9425,2.2646,56.0301,4.9427,20.3261,13.1274,39.8198,16.6294,60.5018,1.7923,10.585,2.1453,21.6396-.6778,32.0776-2.7077,10.0116-8.5303,17.7773-15.3861,25.3373-6.2409,6.882-12.537,13.7757-16.3192,22.382-4.3426,9.8813-6.3533,20.7039-7.351,31.3978-2.205,23.6351,.3203,47.6031,2.3991,71.1516,1.0743,12.1702,2.0861,24.3594,2.2803,36.5813,.0969,6.0971-.0086,12.1981-.4045,18.2838-.3579,5.5015-1.7496,11.2301-1.595,16.7298,.1015,3.6106,1.3539,6.7717,4.1626,9.1126,3.5134,2.9283,6.4546,2.0747,9.7862-.7919,6.7316-5.7921,5.3576-15.2887-.118-21.4311-6.7087-7.5256-18.2659-10.9355-27.6731-13.4031-10.5805-2.7755-21.5511-3.9881-32.4694-4.2592-22.7634-.5653-45.3677,2.8461-68.0513,4.1108-37.667,2.1-75.8169-5.2502-110.3392-20.4639-62.3956-27.4972-109.3929-81.2789-127.035-147.2864-11.3205-42.3555-10.7357-87.2847,1.3563-129.4142,6.4427-22.4469,16.0728-43.6319,28.6025-63.3287,5.9166-9.301,12.1969-18.5547,19.1696-27.1017,5.9866-7.3382,12.4683-14.2778,17.8919-22.0633,5.1303-7.3645,9.1623-15.4882,9.7119-24.5702,.7461-12.328-.3938-24.904-1.8807-37.1344-1.4665-12.0628-3.5215-24.0407-5.605-36.0091-1.0174-5.8446-2.1221-11.6836-2.9987-17.5512-.8123-5.4365,.3314-10.8343,5.7814-13.4085,7.017-3.3143,13.6974,.1582,15.2573,7.555,.6854,3.2502,1.2762,6.5233,1.9139,9.7831,2.3062,11.7882,4.6123,23.5764,6.9185,35.3646,1.3356,6.8272,2.6713,13.6543,4.0069,20.4815,.7278,3.7203,7.2093,2.9288,6.7061-.9076-2.081-15.8654-4.1621-31.7309-6.2431-47.5963-.7468-5.6937-2.1525-11.6852-2.1578-17.4506-.0074-7.9842,8.0796-16.4461,16.0673-11.6465,4.2831,2.5736,5.1063,6.6598,5.5871,11.1272,.9651,8.9678,1.9301,17.9355,2.8952,26.9033,.4612,4.2853,6.6814,4.4881,6.8281,0,.2515-7.698,.5031-15.3961,.7546-23.0941,.1509-4.6194,.7886-8.9839,5.0639-11.7648,6.7896-4.4165,15.9406,.2509,16.6951,8.1923,.5013,5.2761-.178,10.8874-.2898,16.1676-.2073,9.7986-.4147,19.5971-.622,29.3957-.1371,6.4776-.2741,12.9553-.4112,19.4329-.0809,3.8242,5.7798,4.6705,6.7061,.9076,2.9022-11.7894,5.8044-23.5788,8.7065-35.3681l5.0946-20.6954c1.5763-6.4033,3.7373-13.4747,12.0071-13.2712,7.121,.1753,11.4667,6.6734,10.3197,13.3417-.1321,.7682-.3327,1.5312-.4982,2.2926l-3.107,14.2977c-3.4738,15.9857-6.9476,31.9715-10.4213,47.9572-2.3875,10.9868-4.775,21.9737-7.1625,32.9605-.5231,2.4072,1.588,5.0495,4.1997,4.1997,7.3398-2.3882,14.6594-4.8511,22.0226-7.1658,5.66-1.7793,11.6092-.7786,15.2407,4.3285,4.8229,6.7826,1.432,15.4426-5.619,18.8204-7.11,3.4061-14.4914,6.3339-21.7147,9.4911-6.6224,2.8945-13.604,5.0735-18.6746,10.4544-8.7782,9.3155-14.4111,21.5871-20.1094,32.8976-7.105,14.1024-14.9816,27.7043-21.1017,42.302-12.8629,30.6807-21.1307,67.175-8.2658,99.2369,26.765,66.7037,111.7725,70.6758,172.7215,71.8041,18.3451,.3396,36.7941,.382,55.0307,2.6152,17.9459,2.1976,35.6659,6.4014,52.7689,12.2442,33.9882,11.6112,65.2789,30.19,92.3878,53.6904,12.8836,11.1687,24.3604,23.7989,31.267,39.5631,4.2819,9.7733,8.6466,19.5136,12.404,29.5052,2.2134,5.8859,4.2711,11.8566,5.7931,17.9627,1.0847,4.352,2.4072,9.4489,1.5438,13.9592-1.6653,8.6995-13.2164-1.1864-15.5361-4.5983-4.5209-6.6498-6.5258-15.1777-7.6723-23.0358-5.0528-34.6329,9.6926-70.2721,27.2831-99.3007,17.8996-29.5386,39.7094-56.8504,65.7568-79.6196,13.0604-11.4167,27.1906-21.5885,42.2672-30.1779,14.0784-8.0207,28.4774-15.466,42.5722-23.4584,27.7494-15.7352,54.6971-33.8378,74.3947-59.3601,19.7484-25.5882,30.966-56.643,29.6775-89.0994-1.1922-30.0302-11.4818-58.6255-20.2593-87.0595-4.5455-14.7249-8.7682-29.5909-11.3813-44.7964-1.3706-7.9753-2.2499-16.0293-2.5261-24.1186-.2879-8.4326,.8475-16.9233-.4941-25.2912-2.4567-15.3234-6.9183-30.5218-10.4066-45.632l-5.451-23.6115c-.5559-2.4081-1.1655-4.6875-.6587-7.2058,1.7091-8.4932,12.7908-11.544,18.6227-5.1629,3.9699,4.3438,4.5036,13.3104,5.7472,18.7551,2.2122,9.6852,4.4243,19.3703,6.6365,29.0555,1.2207,5.3443,2.4414,10.6887,3.6621,16.033,.8401,3.6779,7.1001,2.9701,6.7061-.9076-1.9247-18.9444-3.8495-37.8888-5.7742-56.8333-.4746-4.6712-.4036-9.519,4.2178-12.2483,7.0117-4.1409,16.0794,.4314,17.2173,8.2922,1.3264,9.1631,1.5643,18.6211,2.3392,27.8446,.8133,9.681,1.6266,19.362,2.4399,29.043,.3642,4.3348,6.6556,4.4476,6.8281,0,.7267-18.7376,1.0449-37.5364,2.1817-56.2528,.4364-7.1856,6.6105-13.0456,14.0925-10.7186,5.8577,1.8218,7.7374,7.1966,7.5398,12.7385-.3784,10.6171-.8952,21.2312-1.3427,31.8455-.4091,9.7019-.8181,19.4037-1.2272,29.1056-.1901,4.5077,6.2769,4.2173,6.8281,0,1.359-10.3991,2.7181-20.7981,4.0771-31.1972,1.3574-10.3867,1.9342-21.2603,4.1456-31.5065,2.9474-13.6563,22.4876-10.0891,21.4458,3.5184-.1993,2.603-.5863,5.2048-.8785,7.7986-1.5793,14.0186-3.1585,28.0372-4.7378,42.0558-1.2308,10.9251-2.4615,21.8501-3.6923,32.7752-.3645,3.2359,3.8304,4.0991,5.8281,2.4141,4.4993-3.795,9.7567-10.1195,15.6563-11.5879,12.5438-3.122,19.3805,12.3397,10.8888,20.9021-8.2733,8.3421-17.1729,16.1375-25.7356,24.1839-1.1637,1.0935-1.1916,2.7948-.5338,4.1372,28.0648,57.2785,47.0219,121.1513,44.5058,185.4432-1.257,32.1182-8.2676,64.1048-22.0165,93.2375-13.3938,28.3803-32.759,53.2098-56.2889,73.8991-26.1126,22.9602-56.38,40.5862-87.2608,56.2874-3.918,1.9921-.4662,7.8851,3.4463,5.8959h0Z"/><path d="M548.6156,545.2503c.2259,2.1972,.8051,4.3308,2.5673,5.7991,1.6191,1.349,3.6322,1.906,5.7006,2.0603,4.4813,.3343,8.6924-1.5622,13.0517-2.1955,1.4515-.2109,3.9166-.5352,4.9351,.8683,.8631,1.1894-.8299,3.0181-1.5298,3.9169-2.298,2.9508-5.428,5.3459-8.8988,6.7466-1.1391,.4597-1.9422,1.5171-1.5897,2.7998,.2971,1.081,1.6532,2.0524,2.7998,1.5897,3.1579-1.2745,6.0306-3.0183,8.5281-5.3483,2.3153-2.16,5.2808-5.3665,5.501-8.6844,.2708-4.0801-3.7138-6.4232-7.306-6.579-3.7598-.1631-7.4214,1.2343-11.0545,1.9765-1.7624,.36-3.6974,.6246-5.4686,.1837-1.6975-.4225-2.5041-1.3815-2.6842-3.1336-.1257-1.2227-.9561-2.276-2.276-2.276-1.1332,0-2.4025,1.0457-2.276,2.276h0Z"/><path d="M163.003,355.7278c.4317,5.5818,.8634,11.1636,1.2951,16.7454l2.0674,26.7318c.1596,2.064,.3193,4.1279,.4789,6.1919,.1422,1.8385,1.4673,3.414,3.414,3.414,1.7372,0,3.557-1.5655,3.414-3.414-.4317-5.5818-.8634-11.1636-1.2951-16.7454-.6891-8.9106-1.3783-17.8212-2.0674-26.7318-.1596-2.064-.3193-4.1279-.4789-6.1919-.1422-1.8385-1.4673-3.414-3.414-3.414-1.7372,0-3.557,1.5655-3.414,3.414h0Z"/><path d="M911.6722,320.5211c-16.7707-4.1359-34.4124-4.2724-51.2557-.4507-4.7199,1.0709-9.3573,2.4734-13.8877,4.1749-1.7252,.6479-2.9048,2.3066-2.3845,4.1997,.4551,1.6559,2.4646,3.0361,4.1997,2.3845,15.3568-5.7675,31.8241-7.8532,48.1393-6.1206,4.4925,.4771,8.9661,1.3094,13.3737,2.3964,1.789,.4412,3.702-.5733,4.1997-2.3845,.4797-1.7456-.5871-3.7564-2.3845-4.1997h0Z"/><g><path d="M546.3378,626.0617c-11.4619,4.4682-29.5825,7.7143-41.5872,5.026,9.7017,14.2229,36.9856,25.6442,49.4387,23.829,0,0-6.7992-17.9353-6.9149-20.7253s-.9365-8.1296-.9365-8.1296Z"/><path d="M545.4302,622.7696c-6.4858,2.5092-13.3154,4.1437-20.1903,5.1404-2.9363,.4257-6.8288,.7233-10.1559,.74-1.7388,.0088-3.4794-.0507-5.2117-.2043-.3564-.0316-.7125-.067-1.0682-.1066-.2338-.0261-.4675-.0541-.7008-.084,.3304,.0435,.2885,.0356-.1257-.0239-.7766-.1317-1.5497-.2674-2.3194-.4357-2.6776-.5852-5.6585,2.4004-3.8555,5.0152,4.683,6.7917,11.517,11.9149,18.6309,15.9428,7.1199,4.0313,14.9678,7.2951,23.0181,8.8817,3.8743,.7635,7.7263,1.1187,11.6452,.5735,1.7183-.2391,2.9756-2.6398,2.3845-4.1997-1.1719-3.0927-2.3084-6.1995-3.4141-9.3164-.8228-2.3197-1.6321-4.6457-2.3716-6.9935-.2841-.902-.5616-1.8075-.7987-2.7232-.0833-.3218-.1534-.6455-.2277-.9693-.2254-.9818,.0515,.9798,.0066-.0757-.1246-2.9323-.6023-5.8788-1.046-8.7768-.2793-1.8242-2.5709-2.8321-4.1997-2.3845-1.949,.5356-2.6646,2.3701-2.3845,4.1997,.0329,.215,.0647,.4302,.0962,.6455,.0353,.2413,.07,.4826,.1041,.7241,.0289,.2041,.1496,1.0919,.1045,.7502-.05-.3782,.0779,.6129,.0983,.7771,.0472,.3803,.0928,.7609,.1359,1.1417,.089,.787,.1711,1.5752,.2277,2.3653,.1326,1.8516,.5017,3.5371,1.041,5.3089,1.3915,4.5717,3.0497,9.0673,4.7034,13.5493,.4425,1.1992,.8874,2.3976,1.3404,3.5929,.7948-1.3999,1.5897-2.7998,2.3845-4.1997,1.1156-.1552,.018-.0155-.2419,.0048-.2937,.023-.5878,.0389-.8822,.0493-.7463,.0262-1.4937,.0145-2.2394-.0243-.6776-.0353-1.3541-.0939-2.0283-.1703-.1753-.0199-.3501-.0435-.5254-.0633,.7796,.088,.2758,.0388,.1068,.0117-.4559-.073-.9121-.1422-1.3667-.2236-3.5351-.6331-7.0016-1.6434-10.376-2.8644-.8865-.3208-1.7672-.6577-2.6419-1.0094-.1975-.0794-1.3291-.5514-.9-.3677-.5218-.2234-1.0414-.4521-1.5586-.686-1.7757-.8029-3.5241-1.6665-5.2399-2.5906-1.8126-.9762-3.589-2.0201-5.3189-3.1365-.7571-.4886-1.5051-.9913-2.2425-1.5092-.4098-.2878-.8165-.5801-1.2196-.8773-.1779-.1311-.3548-.2635-.5315-.3961-.1518-.1139-.5939-.4594-.2228-.1682-1.6656-1.3071-3.2646-2.7024-4.7521-4.21-.7028-.7123-1.3809-1.4495-2.0258-2.2148-.1257-.1491-.2501-.2992-.3732-.4505-.0533-.0655-.5448-.6921-.2703-.3348,.3067,.3993-.2519-.3457-.2471-.3392-.1652-.2276-.3261-.4581-.4857-.6897l-3.8555,5.0152c7.3673,1.6101,14.9929,1.2389,22.4125,.2252,7.1474-.9765,14.2545-2.6454,20.99-5.2512,1.7186-.6649,2.9082-2.294,2.3845-4.1997-.4512-1.642-2.4707-3.0534-4.1997-2.3845Z"/></g><g><path d="M446.1088,602.2634c-21.8787-12.9697-29.0967-39.6032-11.6281-51.9935,17.4686-12.3903,33.4757,27.7087,33.4757,27.7087l10.2452,15.4801s6.7328-4.3945-.6001-15.8454c-7.3329-11.4509-10.2347-33.4184,2.1661-33.8881,18.9925,9.6294,39.6971-8.4027,39.2013-21.4924,22.2024,3.2986,28.335-16.9413,18.2463-28.2879,62.8232,1.0702,67.5728-55.6831,49.9216-48.1154-17.6513,7.5677-46.8368-16.164-90.5526-22.7873-43.7158-6.6233-101.7114,28.6894-112.6614,85.6775,0,0-38.4863,22.1552,3.7835,99.895,30.6573,44.3735,42.9797,41.8371,52.2595,31.8267,9.2797-10.0103,6.1431-38.1782,6.1431-38.1782Z"/><path d="M447.8319,599.3155c-3.0203-1.8053-5.1529-3.3696-7.6136-5.645-1.13-1.0449-2.2091-2.1449-3.2303-3.2963-.4813-.5427-.95-1.0967-1.4046-1.662-.1385-.1722-.2771-.345-.4119-.5201,.043,.0559,.263,.3474,.0327,.0354-.2596-.3516-.5193-.7028-.7708-1.0603-.8625-1.2257-1.6616-2.4958-2.3871-3.8073-.3289-.5946-.643-1.1974-.9407-1.8083-.1584-.325-.3119-.6524-.461-.9818-.0808-.1785-.4334-1.0279-.2023-.4533-.5233-1.3011-.985-2.6243-1.3549-3.9776-.1674-.6126-.317-1.2301-.4479-1.8516-.0697-.3308-.1344-.6627-.1933-.9956-.0432-.2447-.1898-1.2655-.0941-.5111-.1653-1.3029-.2452-2.617-.2254-3.9304,.009-.5985,.0386-1.1967,.0896-1.7931,.0234-.2731,.0626-.5456,.0834-.8188,.0387-.5067-.115,.5914-.0116,.0951,.0369-.1772,.0572-.3595,.0886-.5379,.2196-1.2461,.5395-2.4748,.9624-3.6675,.1057-.298,.2213-.5916,.3351-.8866-.2159,.5597-.0363,.0849,.0864-.1806,.2862-.6194,.6018-1.2251,.9448-1.8148,.3007-.517,.6225-1.0218,.9646-1.5124,.1596-.2289,.3242-.4543,.4918-.6774-.4436,.5904,.2232-.2577,.3517-.4073,.8887-1.034,1.8711-1.9867,2.924-2.8525,.1167-.096,.2348-.1904,.3531-.2844,.4137-.3286-.3979,.2865,.0375-.0225,.2248-.1595,.4457-.3238,.6742-.4782,.4786-.3234,.9748-.6213,1.4889-.885,.1937-.0993,.4049-.1774,.593-.2857-.788,.4536-.1942,.0814,.0708-.0134,.448-.1603,.9054-.2934,1.3703-.3951,.1217-.0266,.5517-.181,.6809-.1269-.28-.1173-.772,.058-.0369,.0268,.4488-.0191,.894-.0319,1.3431-.0052,.1426,.0085,.5745-.0326,.666,.0597-.1413-.1426-.8057-.1491-.1514-.0043,.4728,.1046,.9398,.2097,1.4025,.3553,.2179,.0686,.4315,.1475,.6473,.2222,.4599,.1592,.3246,.1563-.0818-.0476,.4212,.2114,.8528,.3958,1.2677,.6213,.8654,.4704,1.6664,1.0256,2.4671,1.5962,.4836,.3446-.5067-.4272,.0809,.0688,.1968,.1661,.3975,.3273,.5929,.4952,.3975,.3416,.7855,.6944,1.165,1.0559,.7815,.7443,1.5262,1.527,2.2413,2.3351,.3391,.3832,.6712,.7726,.9974,1.1669,.1768,.2137,.3519,.4289,.5252,.6456,.0906,.1132,.6086,.7785,.3222,.4056-.3082-.4014,.2334,.3121,.3113,.4166,.1669,.2239,.332,.4491,.4958,.6754,.3271,.4518,.648,.9079,.9635,1.3679,2.2929,3.3428,4.3057,6.8767,6.1241,10.4975,.6509,1.296,1.2763,2.6049,1.873,3.9267,.2081,.461,.4112,.9241,.613,1.3879,.4292,.9865-.3399-.8213,.0379,.0888,.9144,2.2027,2.4943,4.1499,3.8058,6.1315,2.1447,3.2406,4.2894,6.4811,6.4341,9.7217l.4402,.6652c.9738,1.4714,3.0623,2.2908,4.6711,1.2248,2.0461-1.3558,3.4768-3.6035,4.0986-5.9531,1.4484-5.4732-1.1476-10.6893-3.9029-15.2535-.508-.8416-.9765-1.7066-1.4123-2.5877-.2362-.4777-.4627-.9601-.6797-1.4468-.0402-.0901-.4182-.9926-.1217-.2695-.1131-.2756-.2247-.5518-.3329-.8294-.841-2.1582-1.5191-4.3814-2.0264-6.6414-.2398-1.0684-.432-2.1446-.5977-3.2268,.1214,.793-.0679-.6038-.0901-.829-.0559-.5672-.0987-1.1357-.1265-1.705-.0488-1.0006-.0525-2.004,.0036-3.0044,.0291-.519,.0803-1.0347,.1377-1.5512-.104,.9349,.1024-.5101,.1666-.804,.1006-.4614,.2193-.9192,.3615-1.3696,.0682-.2159,.1615-.4293,.2216-.6471,.1554-.5631-.3517,.633,.0874-.2019,.1987-.3779,.4103-.7424,.6235-1.1119,.116-.2011,.5808-.7151-.0523,.0212,.1325-.1541,.2582-.3129,.3966-.4623,.1372-.1481,.2874-.2816,.4275-.4263,.5379-.5555-.0953,.0203,.0098-.0344,.3818-.1985,.7628-.4496,1.1393-.6632-.8839,.5015,.2489-.061,.5867-.144,.218-.0536,.4391-.0854,.658-.1331-1.0028,.2188,.0119,.0196,.2669,.007-.5744-.1554-1.1488-.3107-1.7231-.4661,7.6563,3.8124,16.3963,4.1549,24.3198,.9032,7.0222-2.8818,13.3502-8.0061,17.0875-14.6854,1.8077-3.2306,3.0359-6.9217,2.9313-10.6581-1.4405,1.0974-2.8811,2.1947-4.3216,3.2921,7.7609,1.1121,16.2545,.136,21.9421-5.8206,4.6211-4.8397,6.1995-11.7238,4.8175-18.1914-.7973-3.7313-2.6897-7.1308-5.1916-9.982-.8047,1.9427-1.6094,3.8854-2.4141,5.8281,13.1706,.2009,26.6687-2.0252,38.2959-8.4779,8.1056-4.4984,15.2429-11.1702,19.6275-19.3975,3.1365-5.8854,5.3132-13.0436,3.8539-19.7303-.5769-2.6433-1.9688-5.1407-4.2372-6.6786-2.2266-1.5095-5.1429-1.6723-7.6591-.8635-.2587,.0832-.5107,.1818-.763,.2823l-.8155,.3442,.5341-.2253s-.3868,.1543-.3573,.1435c-.2713,.0996-.5409,.2018-.8154,.2925-.9953,.329-2.0292,.4337-3.027,.7167-.0807,.0229,.7503-.0721,.02-.0072-.2676,.0238-.5345,.0523-.8025,.0712-.5816,.0411-1.1647,.0595-1.7478,.0589-1.1519-.0011-2.3029-.078-3.4471-.2088-.4634-.053-.7295-.1191-.0992-.0071-.3014-.0535-.6066-.0897-.9088-.1394-.6609-.1087-1.3192-.233-1.9749-.3695-1.3031-.2713-2.5957-.5919-3.8789-.9451-2.8381-.781-5.6315-1.7181-8.4013-2.712-14.2138-5.1004-28.0209-11.1835-42.5892-15.2793-8.1893-2.3024-16.618-4.2285-25.0976-5.0523-5.9924-.5821-12.0379-.3902-18.003,.3901-13.2678,1.7356-26.0511,6.1891-37.7526,12.6522-12.2769,6.7809-23.429,15.8111-32.5256,26.4912-9.6046,11.2765-17.004,24.3367-21.3722,38.5114-1.0725,3.4804-1.9471,7.0179-2.6406,10.5928l1.569-2.0403c-1.4819,.8556-2.8324,2.0316-4.0768,3.1959-2.9434,2.7539-5.4214,6.0848-7.36,9.6108-2.9388,5.3453-4.7632,11.2621-5.5999,17.2914-1.2562,9.0526-.5978,18.1608,1.179,27.1046,2.5373,12.772,7.3395,25.0482,12.9707,36.7493,1.7396,3.6147,3.4219,7.4383,5.5874,10.8188,2.1154,3.3023,4.5407,6.455,6.8925,9.5919,3.8842,5.1808,7.9228,10.2682,12.35,14.9989,5.274,5.6356,11.4619,11.5096,18.9777,13.9268,4.7983,1.5432,9.9715,.9379,14.1943-1.8421,2.0039-1.3192,3.892-2.9653,5.4488-4.7954,3.1682-3.7243,4.8404-8.4651,5.8076-13.2005,1.6962-8.3046,1.787-16.9939,1.0946-25.4205-.0422-.5132-.0859-1.0267-.1425-1.5386-.2028-1.8325-1.424-3.414-3.414-3.414-1.6883,0-3.6182,1.5696-3.414,3.414,.8002,7.2313,.7607,14.7043-.149,21.9156,.0993-.7875-.0312,.2031-.0589,.3871-.0502,.3343-.103,.6682-.1589,1.0016-.1111,.6621-.2338,1.3223-.37,1.9797-.275,1.3269-.6041,2.6435-1.0081,3.9373-.1746,.559-.3628,1.1138-.5679,1.6623-.0481,.1286-.391,.998-.2171,.5737,.1596-.3895-.2406,.5301-.3008,.657-.496,1.0453-1.0781,2.0328-1.7386,2.9817-.0678,.0974-.1426,.1897-.2111,.2866,.0137-.0194,.4328-.4763,.17-.2302-.1924,.1801-.3536,.4155-.5328,.6116-.2118,.2317-.43,.4582-.6495,.6826-.4026,.4117-.8159,.8131-1.2425,1.1999-.1946,.1764-.3916,.35-.5919,.5199-.1652,.1402-.9585,.7639-.3977,.3363,.5674-.4327-.1479,.1052-.3187,.226-.2385,.1687-.4809,.3318-.7276,.4881-.4545,.288-.923,.5541-1.4057,.7919-.1197,.059-.2427,.1119-.3617,.172-.4846,.2448,.2484-.1294,.3967-.1612-.2663,.0572-.542,.2146-.8014,.3025-.5086,.1725-1.0281,.3119-1.5551,.4152-.1334,.0261-.2683,.0451-.4015,.0717-.5539,.1103,.2963-.0809,.4421-.0567-.2601-.043-.6264,.0611-.8922,.073-.581,.026-1.1571,0-1.7364-.0436-.1461-.011-.3041-.0576-.4492-.0492,.2031-.0118,.9495,.1576,.3864,.046-.3338-.0661-.6683-.1225-1-.2003-.6609-.1551-1.3112-.3532-1.9494-.5842-.4752-.172-1.1796-.5359-.3492-.1188-.3441-.1728-.7048-.3155-1.0508-.4856-1.5831-.7782-3.0833-1.7188-4.5177-2.7432-.2019-.1442-.4025-.2901-.6019-.4377-.1041-.0771-.7879-.591-.3535-.2616,.4307,.3267-.2811-.2226-.3643-.289-.2117-.169-.4219-.3398-.631-.5119-.8932-.7352-1.7635-1.4979-2.6155-2.2805-4.4383-4.0769-8.4119-8.6518-12.1784-13.3469-2.3608-2.9428-4.5693-5.8856-6.8385-9.0253-1.3029-1.8026-2.6296-3.6014-3.8582-5.4557-1.2478-1.8833-2.2158-4.0086-3.2444-6.0198-3.6174-7.0726-6.7951-14.0944-9.4746-21.4974-2.1804-6.0243-4.0044-12.1891-5.2626-18.4744-.2734-1.3656-.5197-2.7367-.7359-4.1125-.0522-.3322-.1026-.6647-.1512-.9974-.0277-.1898-.1618-1.1767-.0542-.3572-.0843-.6418-.1626-1.2843-.2332-1.9277-.2639-2.4039-.4273-4.8195-.4701-7.2376-.0384-2.1688,.02-4.34,.1915-6.5025,.0792-.9983,.2009-1.9899,.3111-2.9848-.1167,1.0534-.0305,.2315,.0055-.0148,.0345-.2353,.0703-.4705,.1077-.7054,.0734-.4605,.1526-.9201,.2377-1.3786,.6129-3.3018,1.5604-6.5038,2.8023-9.6216,.2346-.589-.1903,.4277-.0992,.2323,.0768-.1646,.1444-.3341,.2181-.5002,.1547-.3487,.3141-.6953,.4781-1.0397,.2934-.6162,.6018-1.2253,.9254-1.8262,.5935-1.102,1.2377-2.1766,1.9336-3.217,.3166-.4734,.6439-.9397,.9819-1.3981,.1487-.2017,.3144-.3952,.4542-.603-.7398,1.1-.1676,.2204,.0555-.054,.5939-.7305,1.2169-1.4375,1.8696-2.116,.5392-.5606,1.0984-1.1021,1.679-1.6198,.2414-.2153,.4863-.4265,.7352-.633,.184-.1527,.9963-.7889,.3239-.2694-.6528,.5043,.0291-.018,.2164-.1527,.1407-.1012,.2824-.2011,.4263-.2976,.1503-.1008,.3089-.1911,.4577-.2937,1.2066-.8321,1.5574-1.9238,1.8347-3.2765,.3433-1.6741,.7292-3.3395,1.1576-4.9938,.8147-3.1459,1.7828-6.2521,2.8986-9.3042,.2562-.7009,.5204-1.399,.7921-2.094,.1459-.3732,.2939-.7457,.4442-1.1172,.0644-.159,.1292-.3178,.1944-.4764,.0348-.0848,.3206-.7724,.1177-.291,.6181-1.4667,1.2784-2.9164,1.968-4.3508,1.3669-2.8435,2.8646-5.6243,4.4846-8.3316,1.6038-2.6802,3.3261-5.2893,5.1582-7.819,.423-.584,.8519-1.1638,1.2865-1.7393,.0854-.113,.687-.8988,.3753-.4962,.2709-.3499,.545-.6973,.8207-1.0434,.9623-1.2084,1.9501-2.3964,2.9622-3.5634,4.0072-4.6206,8.3945-8.9105,13.0921-12.8266,.5814-.4847,1.1676-.9637,1.7585-1.4369,.2528-.2024,.5064-.4038,.7609-.6041,.1695-.1334,.3394-.2663,.5096-.3988-.2822,.2197-.0984,.0748,.0769-.0585,1.1973-.9103,2.4067-1.8037,3.6361-2.6702,2.4374-1.7179,4.9412-3.3418,7.5043-4.8657,2.5296-1.504,5.1171-2.9108,7.756-4.2137,1.3046-.6441,2.6217-1.2628,3.9506-1.8552,.3305-.1473,.6618-.2929,.9938-.437,.1717-.0745,1.0539-.4487,.4653-.2021,.6635-.278,1.3299-.5493,1.9989-.8139,5.2824-2.0896,10.7332-3.7635,16.292-4.9396,1.3409-.2837,2.688-.5383,4.0401-.7623,.6226-.1031,1.2462-.1999,1.8708-.2899,.1915-.0276,.3831-.0543,.5748-.0809-.0395,.0055-.5916,.0772-.1897,.0264,.3822-.0483,.7644-.0961,1.147-.1404,2.6427-.3056,5.2996-.4898,7.9596-.5395,2.598-.0485,5.1988,.0309,7.788,.2523,.5927,.0507,1.1848,.1085,1.776,.1741,.3171,.0352,.6338,.0742,.9506,.1123,.8167,.0982-.3686-.0632,.4432,.0605,1.942,.296,3.8794,.6147,5.8102,.9767,7.5793,1.4209,15.0453,3.3952,22.3868,5.747,12.3001,3.9401,24.1173,9.1438,36.2875,13.4341,8.2856,2.9209,18.1048,6.067,26.8451,3.2304,.397-.1289,.7879-.2741,1.175-.4299,.2261-.0909,.45-.1888,.6744-.2834,1.0519-.4433-.0736,.0821-.2003,.0857,.1241-.0035,.2901-.1168,.4086-.155,.4526-.146,.9024-.2467,1.3624-.3608,.6005-.1489-1.0554,.0384-.2221,.0414,.2167,.0008,.4371-.0022,.6538-.0054,.8508-.0125-.6792-.1832-.2461-.047,.1746,.0549,.3691,.0893,.5478,.1315,.734,.1737-.1267-.0524-.2257-.121,.1433,.0992,.3296,.1734,.4838,.2569,.5289,.2865,.2659,.5371-.1757-.1724,.0847,.1362,.3013,.2584,.4173,.3734,.1332,.1321,.2458,.3018,.3854,.4248,.2833,.2494-.5131-.7597-.3282-.4259,.0546,.0985,.1365,.184,.195,.2808,.2175,.3605,.3939,.7348,.5965,1.1021,.2217,.4018-.3395-.9426-.1814-.4236,.0327,.1073,.0828,.2097,.1169,.3168,.0704,.2213,.1451,.4405,.2074,.6644,.1326,.4771,.2148,.9595,.3079,1.4448,.1198,.625-.0611-.569-.0539-.4122,.006,.1317,.0322,.2634,.0425,.3949,.0213,.2716,.0443,.5426,.0569,.8148,.0265,.5735,.0247,1.1482,0,1.7217-.0265,.614-.0987,1.2207-.1556,1.8319-.0463,.4982,.1541-.9574,.0381-.2978-.0281,.1597-.0496,.3207-.0766,.4806-.0552,.3268-.1167,.6526-.1839,.9772-.2924,1.4128-.6935,2.8026-1.1801,4.1605-.1178,.3288-.2408,.6558-.3686,.9809-.0698,.1774-.1503,.3525-.2143,.5319-.1184,.332,.2154-.4847,.1845-.4343-.0707,.1152-.1105,.2592-.1656,.3824-.3257,.728-.6655,1.4486-1.0326,2.1568-.7788,1.5023-1.657,2.9526-2.6193,4.3443-.2339,.3382-.4728,.673-.7166,1.0042-.1328,.1804-.275,.3553-.4033,.5388-.2101,.3004,.2606-.3341,.2385-.3071-.1028,.1258-.1997,.2566-.3019,.3829-.5845,.7232-1.1817,1.4344-1.8065,2.1234-1.3172,1.4526-2.7301,2.8176-4.2218,4.0901-.3618,.3086-.7282,.6119-1.099,.9095-.0828,.0664-.7783,.612-.3542,.2835,.3953-.3061-.316,.2363-.4615,.344-.8648,.6403-1.7505,1.2522-2.6547,1.8357-1.9164,1.2367-3.915,2.3444-5.9729,3.3274-.5409,.2583-1.0859,.5079-1.6347,.749-.1137,.05-.8384,.3585-.4316,.1884,.3752-.1569-.5256,.212-.6918,.2781-1.1785,.4684-2.372,.899-3.5771,1.2937-2.5792,.8448-5.2114,1.5241-7.8725,2.0561-1.3759,.2751-2.7589,.5002-4.1461,.7093-.1178,.0178-.6692,.091-.0454,.0087-.1602,.0211-.3205,.0421-.481,.0614-.3776,.0454-.755,.0918-1.1331,.1337-.7147,.0793-1.4304,.1491-2.1468,.2102-3.225,.2752-6.4617,.3647-9.6975,.3153-3.1183-.0476-4.2919,3.6882-2.4141,5.8281,.2198,.2505,.4233,.5168,.6451,.7649-.5632-.63,.0668,.0996,.2057,.2987,.4172,.5977,.7997,1.2201,1.1441,1.8626,.1512,.282,.2899,.5694,.4313,.8562,.0702,.1425,.1302,.2901,.1979,.4337-.0401-.0851-.2716-.7237-.0696-.1588,.2248,.6289,.4553,1.2492,.6325,1.8942,.1645,.599,.2858,1.2036,.3999,1.8137,.1612,.8615-.0405-.6368,.0316,.2336,.0284,.3428,.0601,.6842,.0753,1.028,.0267,.6063,.0216,1.2142-.015,1.8201-.0182,.3017-.0538,.6011-.0786,.9021-.0495,.6016,.0168-.1594,.0319-.2362-.0435,.221-.0732,.4448-.1167,.666-.1156,.5882-.2622,1.1706-.4413,1.7427-.0895,.286-.1915,.5669-.2917,.8493-.05,.141-.1104,.2785-.1636,.4182,.1237-.3247,.248-.5382,.029-.0952-.2502,.5062-.5029,1.0063-.7961,1.4897-.1566,.2582-.3212,.5118-.4928,.7603-.0861,.1247-.1786,.2453-.2641,.3704-.4356,.6373,.4988-.5381-.0299,.0289-.4225,.4532-.8165,.9229-1.2692,1.3488-.2285,.215-.4794,.4081-.7055,.6248-.1276,.1223-.5153,.3767,.1308-.0887-.1631,.1174-.3227,.2393-.4874,.3546-.5394,.3776-1.1017,.7213-1.6826,1.0313-.2999,.16-.605,.3068-.9121,.4522-.1039,.0492-.6194,.2611-.1874,.0867,.4689-.1893-.2344,.083-.3279,.1172-.8189,.2997-1.6586,.5405-2.5098,.729-.4252,.0941-.8528,.1663-1.2812,.2434-.6533,.1176-.1132,.0162,.0201,.0013-.3045,.0341-.6086,.0665-.914,.0912-.9646,.0781-1.934,.0998-2.9012,.0728-.5724-.016-1.1443-.0487-1.7149-.0962-.2357-.0197-.4713-.0423-.7066-.0671-.1024-.0108-1.0807-.14-.5408-.0626-2.096-.3004-4.3902,.8456-4.3216,3.2921,.0113,.4016,.01,.8015-.0127,1.2027-.0091,.1601-.0342,.3266-.0369,.4875-.0134,.7975,.1335-.5382,.014-.0471-.2031,.8349-.3329,1.6713-.596,2.4946-.1221,.3821-.2656,.7546-.4015,1.1316-.2972,.8248,.2046-.4364-.0238,.0648-.0956,.2099-.1903,.42-.2906,.6278-.4134,.8564-.8813,1.6862-1.3923,2.4881-.2375,.3727-.4848,.7389-.7403,1.0994-.1439,.2031-.2916,.4032-.4395,.6034,.0809-.1095,.3951-.4834-.0204,.0247-.6513,.7964-1.3246,1.5703-2.0452,2.3053-.6645,.6778-1.3596,1.3256-2.0814,1.942-.2031,.1735-.4104,.3417-.6158,.5124-.1102,.0916-.6616,.516-.1961,.1622-.4304,.3271-.8705,.642-1.3172,.9464-.8568,.584-1.7416,1.1268-2.6508,1.6254-.4336,.2378-.8725,.4658-1.3168,.6829-.2476,.121-.4983,.2349-.7475,.3524-.1504,.0692-.3014,.1367-.4533,.2026,.2565-.1063,.2736-.1142,.0514-.0237-2.0149,.8141-4.1114,1.3955-6.2575,1.7358,.1485-.0235,.6052-.0612-.0935,.012-.28,.0294-.5597,.0588-.8404,.0815-.5074,.0411-1.0158,.0677-1.5248,.0782-1.1457,.0236-2.2949-.0295-3.4326-.1678,.5392,.0656-.0453-.0093-.1306-.0249-.3473-.0635-.6948-.1214-1.0405-.1935-.4663-.0973-.9298-.2082-1.3897-.3326-1.0511-.2842-2.3787-.7427-3.0044-1.0314-.8955-.4132-1.7399-.9438-2.7607-.9641-.4641-.0092-.9448,.0805-1.4012,.1421-.8519,.115-1.6533,.2793-2.4556,.5919-1.657,.6456-3.1632,1.601-4.3274,2.9643-2.3757,2.7821-3.3004,6.289-3.6182,9.8662-.686,7.7211,1.6404,16.0107,5.17,22.8216,1.1021,2.1268,2.8049,4.5074,3.5549,6.4058,.2134,.5402,.3968,1.0938,.5516,1.6535,.0707,.2555,.1345,.5125,.1914,.7714,.0231,.105,.1899,1.0415,.1211,.565-.0767-.5311,.0273,.3443,.0291,.3691,.0177,.2561,.0271,.5135,.0264,.7702-.0011,.3707-.1514,1.406,.0191,.4863-.0754,.4068-.1492,.8071-.2695,1.2037-.0367,.121-.0805,.2395-.1184,.3601-.2179,.6937,.1139,.0034,.0753-.1558,.0336,.1387-.3447,.6606-.4168,.778-.0635,.1034-.1377,.2017-.1983,.3065-.2617,.4519-.2382-.068,.2166-.2625-.228,.0975-.5745,.6116-.7627,.8053-.5395,.5552,.7513-.5266,.3236-.2432,1.557,.4083,3.114,.8165,4.6711,1.2248-1.799-2.7182-3.5979-5.4363-5.3969-8.1545-1.1972-1.809-2.3945-3.6179-3.5917-5.4269-.3412-.5156-.6664-1.0476-1.0262-1.5505-.5056-.7066,.0092,.2091,.0927,.4152-2.418-5.966-5.4177-11.766-9.005-17.1113-4.7626-7.0965-12.2536-16.2258-21.8425-15.3803-5.7684,.5086-10.541,4.3961-13.9433,8.86-3.4775,4.5626-5.1745,10.3086-5.1405,16.0194,.079,13.2852,8.3941,25.1935,18.7114,32.8873,1.4074,1.0495,2.8715,2.0166,4.3782,2.9173,1.5827,.9461,3.747,.355,4.6711-1.2248,.9419-1.6104,.3624-3.7223-1.2248-4.6711Z"/></g><g><path d="M418.6891,533.1865c1.0023-8.2007,.5449-16.7273-2.5511-24.3869s-9.0462-14.372-16.7838-17.2676c-6.0663-2.2702-12.8-2.103-19.1709-.9349-4.7561,.872-9.413,2.2836-13.8529,4.1991-3.9524,1.7051-8.03,4.1389-9.5227,8.1764s1.3628,9.6479,5.6455,9.2145c-4.8045-26.0351-33.1638-35.6545-55.8238-24.6428-14.8223,7.2029-25.2708,21.6553-30.3304,37.3392-5.0596,15.684-5.2209,32.5597-3.5442,48.9541,2.077,20.3077,6.8923,40.7462,3.7116,60.9106-3.1807,20.1643-17.3274,40.6168-37.6396,42.6495-10.11,1.0118-20.5993-2.9226-27.5501-10.3337,16.9182,12.0444,34.8767,24.3186,55.501,26.7543,25.3077,2.9889,50.9255-10.1753,66.5279-30.3243,13.2302-17.0855,27.0826-50.5032,22.6253-72.6765-.6711-3.3384-3.0124-6.5805-6.3535-7.238s-7.1883,2.3472-6.5171,5.6856c.547,2.7208,3.4346,4.227,6.0606,5.1247,13.837,4.7302,29.731,3.0207,42.2456-4.5437,12.5146-7.5644,21.4161-20.8425,23.6597-35.2925"/><path d="M422.1031,533.1865c1.0191-8.5726,.5063-17.5894-2.8157-25.642-2.8875-6.9994-7.7336-13.257-14.3342-17.1138-7.6657-4.479-16.6959-4.7025-25.2325-3.2056-4.3728,.7668-8.6661,1.9962-12.7858,3.6499-3.6697,1.473-7.4105,3.1686-10.2036,6.0609-3.0114,3.1184-4.5984,7.4568-3.2264,11.7121,1.2475,3.8692,4.6316,7.252,8.9483,6.9531,2.3379-.1619,3.7229-2.042,3.2921-4.3216-1.6645-8.8086-6.2924-17.062-13.3594-22.6571-6.9083-5.4695-15.3154-8.4435-24.0964-8.9211-20.7544-1.1287-38.8832,12.2599-48.8621,29.6727-12.6722,22.1127-12.2613,48.4218-9.0914,72.9317,1.7137,13.2508,3.9794,26.5223,3.7583,39.9284-.0954,5.7864-.6334,11.5791-2.0801,17.1939-1.3045,5.0631-2.915,9.1385-5.3859,13.5862-2.4413,4.3944-4.8745,7.7367-8.4046,11.2087-3.2826,3.2286-6.6598,5.6536-11.1343,7.6053,.5953-.2596-.4359,.1724-.4462,.1764-.2122,.0826-.4254,.1631-.6392,.2416-.5357,.1966-1.0767,.3792-1.6218,.548-1.2094,.3745-2.4405,.6807-3.6851,.9132-.2285,.0427-.4575,.0832-.6869,.1211-.0156,.0026-1.1509,.1601-.4814,.0774-.6213,.0767-1.2452,.1337-1.87,.1727-1.3635,.0853-2.732,.0814-4.0952-.007-4.8588-.3149-9.9458-2.0222-14.2567-4.7543-2.14-1.3562-3.7919-2.7464-5.6161-4.6673l-4.1372,5.362c20.0623,14.2783,42.3158,29.01,68.0592,27.5392,23.4728-1.341,45.171-14.4977,59.1873-33.0485,6.2774-8.3082,11.0864-17.7068,15.0245-27.3168,4.1975-10.243,7.2844-21.0794,8.1662-32.1466,.4001-5.0212,.2839-10.1873-.7677-15.1293-1.2559-5.9022-7.083-11.5816-13.4682-9.3506-2.8146,.9834-5.2808,3.2504-5.9798,6.2228-.8254,3.51,1.0375,6.6741,3.8128,8.6769,2.3706,1.7107,5.3926,2.5686,8.1911,3.2888,3.0938,.7963,6.2774,1.2906,9.4614,1.538,12.1199,.9419,24.7679-2.3439,34.7197-9.3706,9.5352-6.7326,16.7234-16.4295,20.4213-27.5021,.8662-2.5936,1.5066-5.2521,1.9369-7.9519,.2899-1.8187-.4682-3.6731-2.3845-4.1997-1.6248-.4465-3.9078,.553-4.1997,2.3845-.8155,5.1165-2.3916,9.9917-4.6299,14.3264-2.3956,4.6395-5.1469,8.437-8.7441,12.0506-7.3078,7.341-17.3366,12.1893-27.6205,13.2913-5.5144,.5909-10.9271,.3206-16.1418-.9042-1.2748-.2994-2.5376-.6496-3.7839-1.0516-.5966-.1924-1.1976-.387-1.7773-.6272,.4602,.1907-.2289-.1151-.3314-.1658-.3749-.1854-.7244-.4091-1.0916-.6066-.4931-.2652-.3276-.197-.1625-.074-.2701-.2013-.5168-.4498-.7458-.6956,.1012,.1087,.3766,.3759-.0739-.0996-.5239-.553-.0215,.1427-.1468-.2377l-.0518-.1607c-.0946-.423-.1057-.4454-.0333-.0673l.0024-.3157c-.0595,.3385-.0613,.3846-.0053,.1383,.025-.2087,.3409-.718,.0466-.2002,.0554-.0976,.5932-.7728,.2-.3456-.0397,.0431,.7139-.6716,.3725-.3931-.3453,.2817,.5232-.3277,.4687-.2906,.7736-.5262-.2594,.0448,.2423-.1268,.2601-.089,.5264-.1663,.7978-.213-.5802,.1-.0512,.03,.0732,.0253,.8478-.0322-.44-.2372,.4141,.0462,.2214,.0735,.4434,.1196,.662,.2071-.5012-.2007,.4484,.2871,.5594,.359,.4949,.3205-.4787-.5095,.2639,.2067,.1668,.1609,.3279,.331,.4963,.4902,.6718,.6354-.1722-.3639,.3461,.4104,.1322,.1975,.2604,.3964,.381,.6013,.3491,.5932,.4503,.809,.5471,1.1322,.1974,.6591,.3644,1.3047,.4893,1.9825,.0953,.5173,.1782,1.0365,.2553,1.5567-.1026-.6928,.0738,.6463,.0941,.8427,.1185,1.1438,.194,2.2919,.2322,3.4412,.0761,2.2876,.0053,4.5792-.1758,6.8605-.2166,2.7277-.4295,4.2692-.9183,6.9726-.4452,2.4625-.9917,4.9065-1.6203,7.3285-1.3204,5.0878-2.9991,10.0818-4.9509,14.9613-3.3622,8.4057-7.9973,17.3331-13.4927,25.0176-.3001,.4196-.6039,.8366-.9117,1.2506-.1209,.1626-.2424,.3248-.3646,.4865-.0078,.0103-.6121,.7928-.2523,.3315-.8007,1.0265-1.6294,2.0316-2.4802,3.017-1.749,2.0258-3.598,3.9649-5.5362,5.8104-3.8535,3.6691-7.634,6.626-12.1209,9.4639-4.4447,2.8112-9.1618,5.1967-13.8381,6.9236-2.4237,.895-4.8933,1.6644-7.3985,2.2968-1.2489,.3152-2.5067,.5959-3.7714,.8405-.6318,.1221-1.2652,.2357-1.9001,.3401-.2539,.0417-.5081,.0819-.7624,.1208-.4864,.0743-.6643,.0983-.8124,.1172-11.0414,1.4063-21.6778-.3056-32.034-4.2918-10.615-4.0857-20.5312-10.4396-29.9336-16.9395-2.3684-1.6373-4.7185-3.3011-7.0643-4.9706-1.3694-.9746-3.467-.3749-4.4041,.8793-1.0269,1.3743-.9306,3.2217,.2669,4.4827,7.6926,8.1,19.342,12.5733,30.491,11.2762,10.1347-1.1791,19.1338-6.4087,25.8708-13.9914,6.7438-7.5902,11.4193-17.0411,13.7156-26.9132,2.9216-12.5602,2.2077-25.7077,.7351-38.4088-1.5169-13.0836-3.8358-26.0775-4.3456-39.2615-.4843-12.5236,.5122-25.1641,4.4991-37.1113,3.1547-9.4535,8.4721-18.5029,15.7072-25.5379,6.8403-6.6511,14.8225-11.0492,24.2878-12.6056,.2569-.0422,.5143-.0803,.7716-.1201,.9895-.1531-.4312,.0476,.1729-.0222,.4625-.0534,.9249-.1047,1.3887-.1459,1.1254-.0999,2.2548-.156,3.3846-.1675,1.0178-.0104,2.0361,.0154,3.052,.078,.5048,.0311,1.0091,.0713,1.5125,.1206,.2008,.0197,.4014,.0408,.6019,.0634,.2002,.0225,.4002,.0466,.6,.072-.3593-.0492-.4128-.0558-.1606-.0196,2.0226,.3046,4.0205,.7404,5.9766,1.3408,.9436,.2897,1.8763,.6151,2.7949,.9765-.015-.0059,.8805,.3594,.4117,.1627-.4683-.1965,.4176,.1857,.4035,.1793,.5367,.2409,1.0677,.4945,1.5922,.7608,1.7433,.885,3.4158,1.9102,4.9903,3.0695,.0765,.0563,.8418,.6568,.2417,.1776,.1529,.1221,.306,.2438,.4574,.3678,.379,.3101,.7514,.6284,1.1166,.9545,.8071,.7207,1.5798,1.4802,2.3138,2.2754,1.5644,1.6949,2.0211,2.2936,3.2789,4.3143,.5423,.8712,1.0446,1.7674,1.5059,2.6841,.2348,.4667,.449,.9415,.6716,1.4139,.4295,.9115-.1397-.36,.0921,.2027,.142,.3447,.2779,.6918,.4085,1.041,.7762,2.0747,1.3476,4.215,1.7586,6.3905,1.0974-1.4405,2.1947-2.8811,3.2921-4.3216-.2942,.0204-.58,.0299-.8745,.005,.828,.0698-.01-.064-.1833-.1191,.7464,.2372-.0197-.0608-.1766-.1463-.6771-.369,.3085,.4357-.1883-.1692-.067-.0815-.6632-.8059-.2184-.188-.1731-.2404-.3299-.4928-.4724-.7525-.0578-.1054-.3865-.9762-.1519-.2826-.1315-.3886-.2285-.7762-.3302-1.1728-.2218-.8645-.0621,.5871-.0284-.3031,.0115-.3031-.0006-.6067,.0138-.9107-.0366,.7742,.0365-.1292,.0765-.2809-.0017,.0064,.3149-.9092,.1169-.4338,.6081-1.4604,1.309-2.1532,2.5943-3.2477,.6791-.5783,2.2292-1.4924,3.3929-2.0817,1.5177-.7686,3.0955-1.4019,4.6931-1.9831,3.6535-1.3291,7.4306-2.3322,11.2654-2.9738,3.5165-.5883,7.2565-.8,10.8238-.3338,3.1473,.4114,5.9744,1.3588,8.5401,2.8334,5.1551,2.9627,8.8962,7.6164,11.4043,13.2518,1.3391,3.0087,2.4128,7.4153,2.765,11.0815,.4038,4.2025,.2575,8.4332-.2403,12.6207-.218,1.8339,1.7252,3.414,3.414,3.414,2.0265,0,3.1954-1.5748,3.414-3.414h0Z"/></g><path d="M542.9717,585.8312c4.9141,.2889,10.1161,.3849,14.494-2.2171,1.0235-.6083,1.486-2.0756,.8165-3.114-.664-1.0299-2.0188-1.4675-3.114-.8165-.252,.1498-.5062,.2944-.7675,.4275-.0714,.0364-.845,.3843-.4468,.2209-.4679,.1919-.9508,.3512-1.4375,.4878-.56,.1572-1.129,.2813-1.7023,.3787-.0923,.0157-.7198,.1039-.2649,.046-.2924,.0372-.586,.0665-.8798,.0914-2.2286,.1888-4.4694,.0743-6.6977-.0567-1.1907-.07-2.3288,1.0969-2.276,2.276,.0579,1.293,1.0005,2.201,2.276,2.276h0Z"/><path d="M549.7824,525.4215c.3405-.3343,.6916-.6569,1.0584-.9623,.08-.0666,.1819-.1849,.2773-.2259-.386,.1659-.0967,.0734,.0362-.0246,.1919-.1415,.3869-.2789,.5846-.4121,.8183-.5512,1.6822-1.018,2.5779-1.4298,.2451-.1127,.0892-.077-.0504,.0181,.0903-.0615,.2304-.0929,.3324-.1323,.2225-.0859,.4469-.1672,.6728-.2437,.4517-.153,.9099-.2873,1.3729-.4019,.4932-.1221,.9909-.2056,1.49-.2981,.3298-.0611-.4074,.0417-.0736,.0086,.1186-.0118,.2369-.0272,.3556-.0389,.2672-.0263,.5347-.0447,.8027-.0592,1.1868-.0642,2.3331-1.0009,2.276-2.276-.0528-1.1781-1.0027-2.3449-2.276-2.276-4.7417,.2564-9.2611,2.2022-12.6558,5.5354-.8509,.8355-.9002,2.3925,0,3.2188,.9154,.8404,2.3108,.8915,3.2188,0h0Z"/><path d="M516.802,546.5264c.7254-.7954,1.5049-1.5375,2.3422-2.2145,.038-.0307,.352-.278,.1316-.1074-.2472,.1913,.2103-.1545,.2112-.1552,.1984-.1452,.3994-.287,.6027-.4252,.4575-.311,.9273-.6041,1.4076-.8785,.4537-.2592,.917-.5015,1.3886-.7265,.2497-.1192,.5022-.2316,.7556-.3429-.4412,.1938,.1594-.0587,.3109-.1162,1.0353-.393,2.1001-.6979,3.1836-.925,1.1671-.2446,1.9519-1.6806,1.5897-2.7998-.3991-1.2333-1.5494-1.8518-2.7998-1.5897-4.7043,.986-9.1048,3.5118-12.3428,7.0621-.8023,.8797-.9343,2.3612,0,3.2188,.8742,.8025,2.3619,.9395,3.2188,0h0Z"/><g><path d="M534.0174,555.1699c4.883,.4507,4.202-8.0965-.7493-6.3666-1.7758,.6204-2.7962,3.0302-1.9161,4.7402,.4969,.9656,1.584,1.5265,2.6655,1.6264Z"/><path d="M534.0174,557.446c1.9392,.1645,3.8602-.8203,4.8282-2.5122,.8257-1.4431,1.0129-3.3151,.5022-4.8982-.5525-1.7127-1.8705-3.25-3.7039-3.6125-2.4925-.4929-5.1636,.7301-6.2468,3.0806-.7704,1.6716-.8503,3.4374-.0465,5.1161,.3974,.8299,1.1465,1.5341,1.9261,2.0033,.8533,.5137,1.7647,.721,2.7407,.823,.5444,.0569,1.2378-.295,1.6094-.6666,.3948-.3948,.692-1.0424,.6666-1.6094-.0264-.5886-.2197-1.1991-.6666-1.6094-.4704-.4318-.9764-.6005-1.6094-.6666-.062-.0057-.1237-.0129-.1853-.0216l.6051,.0813c-.343-.0526-.6713-.1437-.9915-.2776l.5437,.2294c-.2566-.1151-.4958-.2533-.7212-.4216l.4606,.3559c-.1938-.154-.3657-.3231-.5201-.5167l.3559,.4606c-.1415-.1906-.2559-.3909-.3488-.6092l.2294,.5437c-.0885-.2256-.1498-.4554-.1874-.6947l.0813,.6051c-.0422-.3221-.0391-.6409,.0037-.9628l-.0813,.6051c.0504-.3242,.1384-.6351,.263-.9386l-.2294,.5437c.1308-.3005,.2925-.5801,.4893-.8422l-.3559,.4606c.1831-.2331,.3869-.4411,.6189-.6257l-.4606,.3559c.2125-.1607,.4372-.2936,.6819-.3993l-.5437,.2294c.3197-.1274,.6533-.2151,.9942-.2613l-.6051,.0813c.2679-.0319,.5341-.0349,.8018-.0008l-.6051-.0813c.224,.0328,.4395,.0905,.649,.1766l-.5437-.2294c.1971,.0855,.38,.1926,.5513,.3222l-.4606-.3559c.1913,.1501,.3595,.3221,.5083,.5143l-.3559-.4606c.1674,.223,.3035,.464,.4136,.72l-.2294-.5437c.1344,.3239,.2236,.6614,.273,1.0084l-.0813-.6051c.0501,.3838,.0502,.7697-.0013,1.1534l.0813-.6051c-.0483,.3301-.134,.6507-.2635,.9584l.2294-.5437c-.1059,.2422-.2367,.4696-.3968,.68l.3559-.4606c-.144,.183-.3058,.3463-.4891,.4901l.4606-.3559c-.1789,.1353-.3701,.2466-.5759,.336l.5437-.2294c-.2408,.0994-.4892,.1641-.747,.2007l.6051-.0813c-.2733,.034-.5459,.0353-.8202,.012-.5519-.0468-1.2303,.2875-1.6094,.6666-.3948,.3948-.692,1.0424-.6666,1.6094,.0264,.5886,.2197,1.1991,.6666,1.6094,.466,.4277,.9785,.6131,1.6094,.6666Z"/></g><g><path d="M559.0538,535.4443c4.883,.4507,4.202-8.0965-.7493-6.3666-1.7758,.6204-2.7962,3.0302-1.9161,4.7402,.4969,.9656,1.584,1.5265,2.6655,1.6264Z"/><path d="M559.0538,537.7204c1.9392,.1645,3.8602-.8203,4.8282-2.5122,.8257-1.4431,1.0129-3.3151,.5022-4.8982-.5525-1.7127-1.8705-3.25-3.7039-3.6125-2.4925-.4929-5.1636,.7301-6.2468,3.0806-.7704,1.6716-.8503,3.4374-.0465,5.1161,.3974,.8299,1.1465,1.5341,1.9261,2.0033,.8533,.5137,1.7647,.721,2.7407,.823,.5444,.0569,1.2378-.295,1.6094-.6666,.3948-.3948,.692-1.0424,.6666-1.6094-.0264-.5886-.2197-1.1991-.6666-1.6094-.4704-.4318-.9764-.6005-1.6094-.6666-.062-.0057-.1237-.0129-.1853-.0216l.6051,.0813c-.343-.0526-.6713-.1437-.9915-.2776l.5437,.2294c-.2566-.1151-.4958-.2533-.7212-.4216l.4606,.3559c-.1938-.154-.3657-.3231-.5201-.5167l.3559,.4606c-.1415-.1906-.2559-.3909-.3488-.6092l.2294,.5437c-.0885-.2256-.1498-.4554-.1874-.6947l.0813,.6051c-.0422-.3221-.0391-.6409,.0037-.9628l-.0813,.6051c.0504-.3242,.1384-.6351,.263-.9386l-.2294,.5437c.1308-.3005,.2925-.5801,.4893-.8422l-.3559,.4606c.1831-.2331,.3869-.4411,.6189-.6257l-.4606,.3559c.2125-.1607,.4372-.2936,.6819-.3993l-.5437,.2294c.3197-.1274,.6533-.2151,.9942-.2613l-.6051,.0813c.2679-.0319,.5341-.0349,.8018-.0008l-.6051-.0813c.224,.0328,.4395,.0905,.649,.1766l-.5437-.2294c.1971,.0855,.38,.1926,.5513,.3222l-.4606-.3559c.1913,.1501,.3595,.3221,.5083,.5143l-.3559-.4606c.1674,.223,.3035,.464,.4136,.72l-.2294-.5437c.1344,.3239,.2236,.6614,.273,1.0084l-.0813-.6051c.0501,.3838,.0502,.7697-.0013,1.1534l.0813-.6051c-.0483,.3301-.134,.6507-.2635,.9584l.2294-.5437c-.1059,.2422-.2367,.4696-.3968,.68l.3559-.4606c-.144,.183-.3058,.3463-.4891,.4901l.4606-.3559c-.1789,.1353-.3701,.2466-.5759,.336l.5437-.2294c-.2408,.0994-.4892,.1641-.747,.2007l.6051-.0813c-.2733,.034-.5459,.0353-.8202,.012-.5519-.0468-1.2303,.2875-1.6094,.6666-.3948,.3948-.692,1.0424-.6666,1.6094,.0264,.5886,.2197,1.1991,.6666,1.6094,.466,.4277,.9785,.6131,1.6094,.6666Z"/></g><g><path d="M765.6235,45.8482c-2.7393-2.0669-5.9053-1.1163-8.0794,1.1302-16.7482,17.3062-33.4965,34.6125-50.2447,51.9188-1.2503,1.2918-2.5005,2.5838-3.7508,3.8756-6.6385-3.3433-13.277-6.6868-19.9155-10.0302-2.2978-1.1572-5.2995-.0416-6.7982,1.8618-13.6435,17.3268-27.2871,34.6537-40.9306,51.9805-.9185,1.1665-1.837,2.3329-2.7555,3.4994-6.6563-3.2545-13.3126-6.509-19.9689-9.7635-2.3475-1.1478-5.2496-.0364-6.7982,1.8618-15.1648,18.5887-30.3297,37.1775-45.4945,55.7661-2.1194,2.5979-4.2388,5.1959-6.3582,7.7938-4.7037,5.7657,4.5191,12.6987,9.2096,6.9491,15.1648-18.5887,30.3297-37.1775,45.4945-55.7661,1.1113-1.3623,2.2226-2.7245,3.3339-4.0867,6.6816,3.2669,13.3632,6.5338,20.0448,9.8007,2.3154,1.1321,5.2859,.0588,6.7982-1.8618,13.6435-17.3268,27.2871-34.6537,40.9306-51.9805,.9079-1.1531,1.8158-2.306,2.7236-3.4589,6.4856,3.2663,12.9711,6.5328,19.4567,9.7991,2.4843,1.2513,5.0922-.099,6.7982-1.8618,16.7482-17.3062,33.4965-34.6125,50.2447-51.9188,2.3966-2.4765,4.7932-4.9528,7.1898-7.4293,2.1684-2.2407,1.1423-6.3646-1.1302-8.0793Z" style="fill:#6966ed;"/><polygon points="770.0627 73.4212 784.127 27.1304 738.7733 42.5554 761.9436 52.3654 770.0627 73.4212" style="fill:#6966ed;"/></g><rect x="448.9567" y="265.7714" width="80.2141" height="40.8107" rx="9.9806" ry="9.9806" transform="translate(-51.487 116.2198) rotate(-12.8802)" style="fill:#6966ed;"/><rect x="416.3814" y="93.4591" width="107.3659" height="54.6247" rx="13.6054" ry="13.6054" style="fill:#f4d13b;"/><path d="M440.2394,117.3261h-23.8139c-3.5027,0-7.0055-.0069-10.5083,0-7.0242,.0138-13.4763,3.9721-16.2487,10.5079-.943,2.2232-1.2722,4.5338-1.6988,6.888l-1.9932,10.999c-1.8615,10.2722-3.723,20.5444-5.5845,30.8166-1.1951,6.595-2.4439,13.1828-3.5858,19.7872-.0177,.1025-.0371,.2048-.0557,.3071-.3284,1.8123,.4947,3.6804,2.3845,4.1997,1.6554,.4549,3.8692-.5607,4.1997-2.3845,.972-5.3638,1.9441-10.7277,2.9161-16.0915,1.8478-10.1964,3.6956-20.3928,5.5433-30.5892,1.1202-6.1813,2.2167-12.3673,3.3606-18.5443,.086-.4643,.1812-.9257,.3059-1.3817,.4027-1.4726,1.1986-2.976,2.0588-3.9576,.4573-.5218,1.3155-1.3367,1.5893-1.5503-.1153,.0899,.5598-.386,.7398-.4999,.471-.2981,.9608-.5558,1.4588-.8049,.0812-.0406,.598-.2446,.107-.0543,.1568-.0608,.3149-.1182,.4737-.1735,.4264-.1483,.8589-.2754,1.2978-.3812,.2211-.0533,.4432-.1011,.6666-.1434,.0801-.0152,.7791-.1154,.3951-.0694-.347,.0416,.2212-.0119,.2342-.0124,.3511-.0142,.6977-.0358,1.0493-.0394,2.5896-.0267,5.1809,0,7.7706,0,8.7862,0,17.5724,0,26.3586,0h.5791c4.3936,0,4.4008-6.8281,0-6.8281h0Z" style="fill:#f4d13b;"/><path d="M500.2617,302.2697c2.4534,4.1851,4.9067,8.3703,7.3601,12.5554,1.868,3.1866,4.3148,5.9806,7.7228,7.5768,3.6971,1.7316,7.6018,2.1165,11.5852,1.2513,10.0557-2.1841,20.0977-4.4333,30.1462-6.6499,3.8429-.8477,7.6858-1.6954,11.5288-2.5431,1.8012-.3973,2.8549-2.4878,2.3845-4.1997-.5103-1.8571-2.3932-2.783-4.1997-2.3845-8.9963,1.9845-17.9925,3.9689-26.9888,5.9534-4.556,1.005-9.1121,2.01-13.6681,3.015-1.8324,.4042-2.7451,.6398-4.7615,.402,.4988,.0588-.0927-.0216-.1629-.0374-.3515-.0787-.7024-.1478-1.0503-.2429-.46-.1258-.9185-.2706-1.3606-.4503,.4612,.1875-.226-.1143-.3289-.1659-.2671-.1338-.5302-.2748-.7879-.4262-.2061-.1211-.4098-.2475-.6094-.3791,0,0-.8633-.639-.4673-.3212-1.3174-1.0572-1.9047-1.8387-2.6905-3.1692-2.5996-4.4017-5.1707-8.8205-7.7559-13.2307-.9318-1.5895-3.0784-2.1563-4.6711-1.2248-1.5946,.9327-2.1607,3.0746-1.2248,4.6711h0Z" style="fill:#6966ed;"/><circle cx="703.3132" cy="448.1906" r="45.5206" style="fill:#f4d13b;"/><polygon points="680.6199 434.9129 705.7538 452.6242 730.4227 385.2974 752.2334 396.8539 710.516 469.4114 671.2634 450.5793 680.6199 434.9129" style="fill:#f953b2;"/><path d="M60.8385,259.263c4.2805,4.7086,8.561,9.4171,12.8415,14.1257,1.2046,1.3251,3.6214,1.3146,4.8282,0,1.3002-1.4163,1.285-3.4147,0-4.8282-4.2805-4.7086-8.561-9.4171-12.8415-14.1257-1.2046-1.3251-3.6214-1.3146-4.8282,0-1.3002,1.4163-1.285,3.4147,0,4.8282h0Z" style="fill:#6966ed;"/><path d="M42.7061,319.3339c6.4208,0,12.8415,0,19.2623,0,1.7858,0,3.4966-1.5703,3.414-3.414-.0828-1.8497-1.5001-3.414-3.414-3.414-6.4208,0-12.8415,0-19.2623,0-1.7858,0-3.4966,1.5703-3.414,3.414,.0828,1.8497,1.5001,3.414,3.414,3.414h0Z" style="fill:#6966ed;"/><path d="M95.9167,217.9478c.8561,2.1403,1.7122,4.2805,2.5683,6.4208,.1056,.4443,.3093,.8313,.6111,1.161,.2407,.3717,.56,.6648,.9579,.8793,.7318,.4282,1.8103,.6097,2.6307,.3442,.8261-.2673,1.6231-.7793,2.0403-1.569,.4015-.7598,.6783-1.7954,.3442-2.6307-.8561-2.1403-1.7122-4.2805-2.5683-6.4208-.1056-.4443-.3093-.8313-.6111-1.161-.2407-.3717-.56-.6648-.9579-.8793-.7318-.4282-1.8103-.6097-2.6307-.3442-.8261,.2673-1.6231,.7793-2.0403,1.569-.4015,.7598-.6783,1.7954-.3442,2.6307h0Z" style="fill:#6966ed;"/><path d="M950.4471,153.9626c5.1366-4.2805,10.2732-8.561,15.4098-12.8415,1.3774-1.1479,1.2746-3.6581,0-4.8282-1.4646-1.3445-3.3589-1.2244-4.8282,0-5.1366,4.2805-10.2732,8.561-15.4098,12.8415-1.3774,1.1479-1.2746,3.6581,0,4.8282,1.4646,1.3445,3.3589,1.2244,4.8282,0h0Z" style="fill:#6966ed;"/><path d="M957.9425,202.3972c2.8586-.8458,5.7688-1.5051,8.7171-1.9497,.019-.0029,1.0997-.1528,.4545-.0688,.341-.0444,.6824-.0853,1.0241-.1238,.7972-.0899,1.5962-.1647,2.3963-.2244,1.4863-.1109,2.9752-.1656,4.4655-.1757,1.7854-.0121,3.497-1.5616,3.414-3.414-.0824-1.8393-1.5003-3.4271-3.414-3.414-6.3725,.0433-12.7615,.9782-18.8726,2.7863-1.7109,.5062-2.9598,2.4219-2.3845,4.1997,.5608,1.733,2.3654,2.9272,4.1997,2.3845h0Z" style="fill:#6966ed;"/><path d="M890.5805,120.715c-.855,6.4209-1.7099,12.8418-2.5649,19.2627-.2367,1.7777,1.7392,3.4891,3.414,3.414,2.0519-.0919,3.1604-1.5092,3.414-3.414,.855-6.4209,1.7099-12.8418,2.5649-19.2627,.2367-1.7777-1.7392-3.4891-3.414-3.414-2.0519,.0919-3.1604,1.5092-3.414,3.414h0Z" style="fill:#6966ed;"/></svg>