<?xml version="1.0" encoding="UTF-8"?><svg id="Layer_2" xmlns="http://www.w3.org/2000/svg" width="1000" height="1000" viewBox="0 0 1000 1000"><polygon points="654.2163 864.5923 156.0625 864.5923 25 135.4077 523.1538 135.4077 654.2163 864.5923" style="fill:#f4d13b;"/><g><path d="M222.3733,267.3124h7.3561c6.6132,0,13.2265,0,19.8397,0h212.4011c7.4922,0,14.9845,0,22.4767,0,3.5394,0,7.0849,.0609,10.624,0,.1547-.0027,.3097,0,.4645,0,3.7353,0,3.7415-5.8051,0-5.8051H233.4617c-3.5394,0-7.0849-.0609-10.624,0-.1547,.0027-.3097,0-.4645,0-3.7353,0-3.7415,5.8051,0,5.8051h0Z" style="fill:#fff;"/><path d="M228.1784,288.5977h131.665c13.2688,0,26.5376,0,39.8064,0h68.1255c7.4922,0,14.9845,0,22.4767,0,3.5394,0,7.0849,.0609,10.624,0,.1547-.0027,.3097,0,.4645,0,3.7353,0,3.7415-5.8051,0-5.8051h-239.5969c-7.4922,0-14.9845,0-22.4767,0-3.5394,0-7.0849-.0609-10.624,0-.1547,.0027-.3097,0-.4645,0-3.7353,0-3.7415,5.8051,0,5.8051h0Z" style="fill:#fff;"/></g><g><path d="M231.0809,308.5931H490.3698c3.5018,0,7.0096,.0601,10.5111,0,.1531-.0026,.3064,0,.4595,0,3.7353,0,3.7415-5.8051,0-5.8051h-237.051c-7.4126,0-14.8253,0-22.2379,0-3.5018,0-7.0096-.0601-10.5111,0-.1531,.0026-.3064,0-.4595,0-3.7353,0-3.7415,5.8051,0,5.8051h0Z" style="fill:#fff;"/><path d="M238.4985,329.8784H496.2404c3.4809,0,6.9678,.0596,10.4484,0,.1522-.0026,.3046,0,.4568,0,3.7353,0,3.7415-5.8051,0-5.8051H249.4037c-3.4809,0-6.9678-.0596-10.4484,0-.1522,.0026-.3046,0-.4568,0-3.7353,0-3.7415,5.8051,0,5.8051h0Z" style="fill:#fff;"/></g><g><path d="M246.2387,420.1799h131.665c13.2688,0,26.5376,0,39.8064,0h90.6022c3.5394,0,7.0849,.0609,10.624,0,.1547-.0027,.3097,0,.4645,0,3.7353,0,3.7415-5.8051,0-5.8051H257.3271c-3.5394,0-7.0849-.0609-10.624,0-.1547,.0027-.3097,0-.4645,0-3.7353,0-3.7415,5.8051,0,5.8051h0Z" style="fill:#fff;"/><path d="M252.0438,441.4653h7.3561c6.6132,0,13.2265,0,19.8397,0h104.4692c13.2688,0,26.5376,0,39.8064,0h90.6022c3.5394,0,7.0849,.0609,10.624,0,.1547-.0027,.3097,0,.4645,0,3.7353,0,3.7415-5.8051,0-5.8051H263.1322c-3.5394,0-7.0849-.0609-10.624,0-.1547,.0027-.3097,0-.4645,0-3.7353,0-3.7415,5.8051,0,5.8051h0Z" style="fill:#fff;"/></g><g><path d="M258.1714,461.4606h256.1947c3.46,0,6.926,.0592,10.3856,0,.1513-.0026,.3028,0,.4541,0,3.7353,0,3.7415-5.8051,0-5.8051H269.0111c-3.46,0-6.926-.0592-10.3856,0-.1513,.0026-.3028,0-.4541,0-3.7353,0-3.7415,5.8051,0,5.8051h0Z" style="fill:#fff;"/><path d="M263.9765,482.746h256.1947c3.46,0,6.926,.0592,10.3856,0,.1513-.0026,.3028,0,.4541,0,3.7353,0,3.7415-5.8051,0-5.8051h-234.2222c-7.3242,0-14.6483,0-21.9725,0-3.46,0-6.926-.0592-10.3856,0-.1513,.0026-.3028,0-.4541,0-3.7353,0-3.7415,5.8051,0,5.8051h0Z" style="fill:#fff;"/></g><g><path d="M272.0391,573.0475h239.5969c7.4922,0,14.9845,0,22.4767,0,3.5394,0,7.0849,.0609,10.624,0,.1547-.0027,.3097,0,.4645,0,3.7353,0,3.7415-5.8051,0-5.8051H283.1275c-3.5394,0-7.0849-.0609-10.624,0-.1547,.0027-.3097,0-.4645,0-3.7353,0-3.7415,5.8051,0,5.8051h0Z" style="fill:#fff;"/><path d="M277.8442,594.3328h27.1958c9.8047,0,19.6094,0,29.4141,0h205.4636c3.5394,0,7.0849,.0609,10.624,0,.1547-.0027,.3097,0,.4645,0,3.7353,0,3.7415-5.8051,0-5.8051H288.9326c-3.5394,0-7.0849-.0609-10.624,0-.1547,.0027-.3097,0-.4645,0-3.7353,0-3.7415,5.8051,0,5.8051h0Z" style="fill:#fff;"/></g><g><path d="M283.9718,614.3281h234.2222c7.3242,0,14.6483,0,21.9725,0,3.46,0,6.926,.0592,10.3856,0,.1513-.0026,.3028,0,.4541,0,3.7353,0,3.7415-5.8051,0-5.8051H294.8115c-3.46,0-6.926-.0592-10.3856,0-.1513,.0026-.3028,0-.4541,0-3.7353,0-3.7415,5.8051,0,5.8051h0Z" style="fill:#fff;"/><path d="M289.7769,635.6135h256.1947c3.46,0,6.926,.0592,10.3856,0,.1513-.0026,.3028,0,.4541,0,3.7353,0,3.7415-5.8051,0-5.8051-2.397,0-4.7941,0-7.1911,0h-160.4338c-12.0119,0-24.0238,0-36.0358,0h-52.534c-3.46,0-6.926-.0592-10.3856,0-.1513,.0026-.3028,0-.4541,0-3.7353,0-3.7415,5.8051,0,5.8051h0Z" style="fill:#fff;"/></g><g><path d="M300.4196,717.5299h27.1958c9.8047,0,19.6094,0,29.4141,0h114.8614c12.2876,0,24.5751,0,36.8627,0h53.7395c3.5394,0,7.0849,.0609,10.624,0,.1547-.0027,.3097,0,.4645,0,3.7353,0,3.7415-5.8051,0-5.8051H311.508c-3.5394,0-7.0849-.0609-10.624,0-.1547,.0027-.3097,0-.4645,0-3.7353,0-3.7415,5.8051,0,5.8051h0Z" style="fill:#fff;"/><path d="M306.2247,738.8152h262.0736c3.5394,0,7.0849,.0609,10.624,0,.1547-.0027,.3097,0,.4645,0,3.7353,0,3.7415-5.8051,0-5.8051h-27.1958c-9.8047,0-19.6094,0-29.4141,0h-182.9869c-7.4922,0-14.9845,0-22.4767,0-3.5394,0-7.0849-.0609-10.624,0-.1547,.0027-.3097,0-.4645,0-3.7353,0-3.7415,5.8051,0,5.8051h0Z" style="fill:#fff;"/></g><g><path d="M312.3523,758.8105c2.397,0,4.7941,0,7.1911,0h19.3947c9.5848,0,19.1696,0,28.7543,0h200.8546c3.46,0,6.926,.0592,10.3856,0,.1513-.0026,.3028,0,.4541,0,3.7353,0,3.7415-5.8051,0-5.8051H323.192c-3.46,0-6.926-.0592-10.3856,0-.1513,.0026-.3028,0-.4541,0-3.7353,0-3.7415,5.8051,0,5.8051h0Z" style="fill:#fff;"/><path d="M318.1574,780.0959h256.1947c3.46,0,6.926,.0592,10.3856,0,.1513-.0026,.3028,0,.4541,0,3.7353,0,3.7415-5.8051,0-5.8051-2.397,0-4.7941,0-7.1911,0-6.4649,0-12.9298,0-19.3947,0h-102.1257c-12.9711,0-25.9423,0-38.9134,0h-36.0358c-10.1872,0-20.3743,0-30.5615,0h-21.9725c-3.46,0-6.926-.0592-10.3856,0-.1513,.0026-.3028,0-.4541,0-3.7353,0-3.7415,5.8051,0,5.8051h0Z" style="fill:#fff;"/></g><g><path d="M309.4469,348.4763l-62.6862-33.1805c-5.3346-2.8236-5.4192-10.4354-.1487-13.3769l61.9332-34.5657c5.9257-3.3072,12.5847-5.0792,19.3704-5.1546l344.3527-4.5614-6.4501,90.3015-336.8911,5.2604c-6.7857,.0754-13.4824-1.5481-19.4802-4.7228Z" style="fill:#f953b2;"/><path d="M655.8492,348.2539l-1.0115-91.0005,40.1639-.4464c25.1291-.2793,45.7267,19.8654,46.006,44.9945h0c.2793,25.1292-19.8654,45.7267-44.9945,46.0061l-40.1639,.4464Z" style="fill:#6966ed;"/><path d="M326.2789,353.1408c7.5759-1.9579,13.1342-8.8765,13.0434-17.0517-.0651-5.8524-3.0125-10.9943-7.4753-14.1024,4.3925-3.2065,7.225-8.4127,7.1599-14.2651s-3.0125-10.9943-7.4753-14.1024c4.3925-3.2065,7.225-8.4127,7.1599-14.2651-.0946-8.5147-6.2862-15.5295-14.3786-16.9529-5.5268,.5537-10.8954,2.2325-15.7678,4.9519l-61.9332,34.5657c-5.2705,2.9415-5.1859,10.5533,.1487,13.3769l62.6862,33.1805c5.2157,2.7608,10.9602,4.3469,16.832,4.6645Z" style="fill:#fff;"/><path d="M263.556,292.4623l-16.944,9.4566c-5.2705,2.9415-5.1859,10.5533,.1487,13.3769l17.15,9.0776-.3547-31.9112Z"/></g><polygon points="192.0578 332.4585 129.4917 332.4585 119.1716 269.8924 181.7376 269.8924 192.0578 332.4585" style="fill:#fff;"/><polygon points="219.1482 483.391 156.5822 483.391 146.262 420.8249 208.8281 420.8249 219.1482 483.391" style="fill:#fff;"/><polygon points="246.2387 634.3235 183.6726 634.3235 173.3525 571.7574 235.9185 571.7574 246.2387 634.3235" style="fill:#fff;"/><polygon points="273.3291 785.256 210.7631 785.256 200.4429 722.6899 263.009 722.6899 273.3291 785.256" style="fill:#fff;"/><path d="M140.662,294.5202c5.8437,4.7127,11.6874,9.4253,17.5311,14.138,.8214,.6624,1.6428,1.3249,2.4642,1.9873,1.4695,1.185,3.4856,1.1253,4.5587-.5874,3.7877-6.0458,7.5755-12.0916,11.3632-18.1374,6.0102-9.5932,12.0203-19.1863,18.0305-28.7795,1.3823-2.2063,2.7645-4.4126,4.1468-6.619,1.9892-3.175-3.0315-6.092-5.0125-2.9299-3.7877,6.0458-7.5755,12.0916-11.3632,18.1374-6.0102,9.5932-12.0203,19.1863-18.0305,28.7795-1.3823,2.2063-2.7645,4.4126-4.1468,6.619,1.5196-.1958,3.0391-.3916,4.5587-.5874-5.8437-4.7127-11.6874-9.4253-17.5311-14.138-.8214-.6624-1.6428-1.3249-2.4642-1.9873-1.2192-.9832-2.9132-1.1916-4.1048,0-1.0174,1.0174-1.2266,3.1157,0,4.1048h0Z" style="fill:#6966ed;"/><path d="M812.6607,255.5841c.2548,1.135,.1874,2.0289-.7477,2.789-.9517,.7735-2.2267,1.1105-3.4021,1.3509-2.8548,.584-5.8102,.4113-8.6616,1.057-2.8479,.6448-5.6418,2.4251-5.8631,5.606-.2138,3.0734,2.9417,5.124,5.2902,6.4329,2.8865,1.6088,6.0843,2.4952,9.3764,2.6939,2.4876,.1502,2.4788-3.7204,0-3.8701-3.2455-.196-6.3585-1.3124-9.026-3.1651-.7325-.5088-2.1367-1.2847-1.6644-2.3429,.5517-1.2361,2.3976-1.5389,3.5599-1.7547,3.3368-.6197,6.8257-.2903,10.0529-1.5025,1.6266-.611,3.111-1.521,4.1251-2.963,1.1265-1.6018,1.1047-3.5233,.6923-5.3603-.5453-2.4291-4.2773-1.4011-3.7318,1.0288h0Z"/><path d="M851.1365,321.538c-1.5185,.5332-3.088,.942-4.65,1.323-4.0926,.9981-7.2323,1.4934-10.9366,1.7805-10.1407,.786-20.6709-.6357-28.4143-7.0241-12.5368-10.343-13.8327-28.7072-12.8545-43.8707,.9771-15.1455,4.4934-30.0945,8.7355-44.6241,1.5998-5.4795,2.4949-10.8132,5.3723-15.8552,2.2533-3.9483,5.2605-7.4657,8.9133-10.1883,15.6806-11.6877,38.5458-8.6611,55.3532-1.2389,8.9038,3.9319,17.2633,9.4234,23.7507,16.7374,6.9005,7.7797,9.5164,16.4389,10.1118,26.6933,.7048,12.139-1.4589,23.9197-2.4132,35.9584-.7733,9.7556,.6581,18.9923,7.0596,26.7157,4.1563,5.0146,9.7351,8.8352,15.3528,12.029,5.3154,3.0219,9.9636,6.6415,14.465,10.7934,7.6154,7.0243,14.2219,15.0736,19.3371,24.0954,9.5316,16.8111,13.1095,36.1837,11.3079,55.3511-1.9382,20.6211-9.9534,40.3809-21.0039,57.7537-12.8034,20.1287-29.954,37.4478-49.2326,51.4171-21.9383,15.8965-46.6991,27.6854-72.6772,35.2887-28.1672,8.2441-58.323,12.2311-87.6582,10.1674-20.1285-1.416-41.0604-6.4041-57.2551-19.0369-12.3893-9.6643-20.7251-23.251-25.0333-38.257-4.2899-14.9422-4.8962-30.7149-3.7173-46.1417,1.0953-14.3317,3.8291-28.5163,7.5421-42.3898,2.465-9.2104,5.3603-18.3226,8.7781-27.2254,.3964-1.0325,.8023-2.0613,1.2165-3.0868,.2656-.6577,.6968-1.5345,.2387-.5899,2.726-5.6211,5.4289-11.2537,8.1435-16.8804,4.0398-8.3735,8.0797-16.7469,12.1195-25.1204,1.6532-3.4266,2.9534-6.7907,2.1335-10.7157-1.5249-7.2996-9.503-11.4952-16.4092-8.8767-4.5446,1.7232-6.4792,5.5995-8.6334,9.5737-1.8371,3.3892-3.6743,6.7784-5.5114,10.1676l5.4088,1.465c0-9.1174,0-18.2349,0-27.3523,0-5.429,0-10.858,0-16.287,0-4.5316-.1202-8.8247-3.5062-12.3898-7.6072-8.0093-20.2692-2.0894-20.743,8.3443h5.8051c-.2952-6.5742-5.3156-12.1246-12.1246-12.1246s-11.8293,5.5482-12.1246,12.1246h5.8051c-.2952-6.5742-5.3156-12.1246-12.1246-12.1246s-11.8293,5.5482-12.1246,12.1246h5.8051c-.3232-7.1983-6.3624-13.0122-13.7504-11.9799-7.4058,1.0348-9.9783,7.5418-10.5888,14.1377-.3918,4.2326-.0703,8.4392,.2259,12.6647,.36,5.136,.3983,10.2878,.3218,15.434-.0767,5.1557-.272,10.3087-.3802,15.4637-.0391,1.8619,.2602,4.4357-.1101,5.9301-.5399,2.1791-2.2212,4.5133-3.1848,6.5562-16.3736,34.7141-26.4959,72.2294-29.5814,110.4964-1.7037,21.1296-1.3296,42.5042,2.2684,63.4268,3.4421,20.0162,10.0957,39.6171,20.7334,56.9844,11.675,19.0608,27.953,34.8566,46.9522,46.5637,24.2948,14.9702,52.2355,23.292,80.2598,27.7339,36.2063,5.7386,73.4513,5.8728,109.544-.7775,27.6961-5.1032,55.8815-14.0603,79.8446-29.1555,16.6236-10.4718,32.8129-22.2791,47.0194-35.8824,6.4918-6.2161,13.0187-13.0837,17.2384-21.1021,3.0698-5.8333,4.9807-13.0636,1.3036-19.0942-1.8557-3.0435-4.7824-5.253-7.9223-6.8433-1.4658-.7424-3.053-.3276-3.9712,1.0413-5.1043,7.6095-6.9532,16.6361-8.4751,25.5237-1.7427,10.1772-3.6106,20.3286-5.6864,30.4436-4.1997,20.464-9.1234,40.7798-14.7587,60.8959-11.2535,40.1714-25.3144,79.5719-42.1343,117.7505-8.5521,19.4119-16.9179,40.9661-33.475,55.0657-2.8485,2.4257,1.2745,6.5151,4.1048,4.1048,14.5711-12.4084,22.647-30.2486,30.3927-47.3176,8.5775-18.9022,16.5043-38.1027,23.7496-57.5545,14.6508-39.3335,26.5095-79.7053,35.4566-120.7141,2.5329-11.6094,4.8336-23.2703,6.8931-34.973,1.8224-10.356,2.9451-21.3501,8.9453-30.2952l-3.9712,1.0413c5.4339,2.7521,8.063,6.7743,6.727,12.369-1.7087,7.1558-6.9835,13.4079-11.8191,18.715-13.0006,14.2685-28.868,26.0754-44.8411,36.794-48.3156,32.4215-109.4505,41.8286-166.618,37.3972-50.8535-3.942-105.2316-18.8815-139.0406-59.6397-24.8378-29.9429-33.692-69.2292-33.8907-107.3758-.1616-31.0356,4.7026-62.0838,13.8705-91.7159,2.6428-8.5421,5.6481-16.972,9.0027-25.2604,1.726-4.2646,3.5548-8.4867,5.4735-12.6682,.7791-1.6978,1.573-3.3887,2.3817-5.0725,.9175-1.9103,2.4418-4.0175,2.9426-6.0815,.4997-2.0592,.1273-4.5993,.1686-6.7157,.0464-2.3794,.1149-4.7584,.1811-7.1373,.1434-5.151,.2918-10.3039,.2324-15.4574-.0906-7.8623-1.6692-16.0396-.2643-23.8466,.5897-3.2766,2.3953-6.1769,6.1053-6.193,3.5735-.0155,6.1651,2.8794,6.3195,6.3195,.1676,3.7331,5.6372,3.7396,5.8051,0,.3655-8.1402,12.2728-8.1571,12.639,0,.1676,3.7331,5.6372,3.7396,5.8051,0,.3655-8.1402,12.2728-8.1571,12.639,0,.1676,3.7334,5.6353,3.7392,5.8051,0,.1785-3.9323,3.7098-7.1515,7.7322-6.1327,3.02,.7649,4.7724,3.5986,4.9068,6.5678,.1198,2.6468,0,5.3272,0,7.9758,0,10.3104,0,20.6208,0,30.9312,0,2.7809,0,5.5617,0,8.3426,0,2.8175,4.017,4.0327,5.4088,1.465,1.9229-3.5474,3.8458-7.0949,5.7687-10.6423,.7489-1.3816,1.4073-2.9117,2.3153-4.2021,2.0216-2.8731,6.0193-3.7085,8.9872-1.7994,4.1853,2.6923,3.0125,7.1358,1.2612,10.7658-1.7971,3.7248-3.5942,7.4497-5.3912,11.1745-5.2362,10.8533-11.1306,21.5854-15.6669,32.7565-2.9864,7.3543-5.515,14.9071-7.7792,22.5116-4.0436,13.5812-7.0981,27.4538-8.892,41.5141-2.0227,15.8535-2.3101,32.0469,.5599,47.8171,2.8849,15.8517,9.4221,31.0933,20.4158,43.0272,13.0408,14.156,31.2221,22.1984,49.8507,25.9137,28.0906,5.6024,57.9551,3.3718,85.8811-2.0948,27.9566-5.4727,55.1307-15.4712,79.6786-29.9732,21.6187-12.7715,41.3715-29.0957,57.1554-48.6791,13.9012-17.2476,24.9682-37.0888,30.4316-58.6593,4.8947-19.3252,5.0921-39.9633-1.1295-59.0168-6.6631-20.4057-20.1394-37.5556-37.0899-50.4966-5.5694-4.252-12.1064-6.8895-17.3361-11.6862-3.6161-3.3167-6.5416-7.2772-7.9196-12.0324-2.8082-9.6911-.0794-20.4963,.93-30.2718,1.2197-11.8126,2.0531-25.4192-2.4134-36.6799-3.5843-9.0364-10.2107-16.4285-17.8623-22.2723-16.1062-12.3008-38.0885-19.0788-58.2819-15.7172-9.4212,1.5684-18.5216,5.9142-24.9146,13.129-3.4502,3.8937-6.0231,8.3812-7.8711,13.2329-1.0254,2.6921-1.7133,5.452-2.3205,8.2622-.92,4.2577-2.3333,8.4348-3.4157,12.6608-3.5211,13.747-6.2296,27.951-6.3952,42.1844-.107,9.1942,.8822,18.6744,4.4277,27.2321,4.932,11.9043,14.919,20.1003,27.5808,22.5221,9.2288,1.7652,18.8652,.9842,27.9465-1.2528,1.5076-.3714,3.0221-.7685,4.4885-1.2834,3.5017-1.2296,1.9947-6.84-1.5432-5.5977h0Z"/><path d="M608.9389,299.8167v35.3986c0,3.7353,5.8051,3.7415,5.8051,0v-35.3986c0-3.7353-5.8051-3.7415-5.8051,0h0Z"/><path d="M627.383,299.9992c0,10.3295,0,20.6591,0,30.9886v4.41c0,3.7353,5.8051,3.7415,5.8051,0v-35.3986c0-3.7353-5.8051-3.7415-5.8051,0h0Z"/><path d="M645.8271,300.1816v35.3986c0,3.7353,5.8051,3.7415,5.8051,0v-35.3986c0-3.7353-5.8051-3.7415-5.8051,0h0Z"/><g><path d="M828.1596,327.67c-9.1875,.5485-22.9221-1.1896-27.9112-1.2478,0,0,32.0776,31.246,60.4091,7.0808,5.833-6.6663,13.3325-16.6656,13.3325-16.6656,0,0-17.9156,9.1661-45.8305,10.8327Z"/><path d="M828.1596,324.7674c-9.352,.5277-18.5879-1.1049-27.9112-1.2478-2.5018-.0384-3.8469,3.2106-2.0524,4.955,5.922,5.7566,13.395,10.2769,20.9901,13.4021,6.3776,2.6243,13.4008,4.1104,20.3142,3.6003,8.41-.6205,16.5638-4.0609,22.8935-9.6544,1.755-1.5509,3.1996-3.6437,4.6771-5.4586,1.482-1.8203,2.9423-3.6583,4.3881-5.5075,1.697-2.1705,3.3836-4.3504,5.0373-6.5542,.7603-1.0132,.3813-2.6822-.4539-3.5174-.9452-.9452-2.362-1.0435-3.5174-.4539-.6307,.3219-1.2795,.6108-1.9271,.8965-.157,.0693-.3143,.1379-.4719,.206-.0995,.043-.8269,.3496-.3145,.1356,.5186-.2166-.2138,.0875-.3113,.1276-.2396,.0985-.4796,.196-.72,.2924-1.0794,.4329-2.167,.8454-3.2607,1.2408-6.826,2.4677-13.8862,4.2947-21.0251,5.59-5.4032,.9804-10.8544,1.6112-16.335,1.9474-1.5649,.096-2.9025,1.2653-2.9025,2.9025,0,1.497,1.3298,2.999,2.9025,2.9025,15.2594-.936,30.6159-3.9985,44.7064-10.0446,.871-.3737,1.7444-.7533,2.5891-1.1844-1.3237-1.3237-2.6475-2.6475-3.9712-3.9712-.3289,.4383-.6603,.8748-.9921,1.3109-.8725,1.147-1.6518,2.1596-2.3238,3.0245-2.4966,3.2128-5.0297,6.3994-7.6504,9.512-1.2844,1.5255-2.5565,2.8516-4.1798,4.0196-1.7203,1.2378-3.5342,2.3468-5.4328,3.2896-2.906,1.4431-6.6153,2.569-9.7524,2.9832-6.3168,.8341-12.3968-.2244-18.5859-2.5152-.7038-.2605-1.403-.5345-2.095-.8249,.4214,.1768-.414-.1829-.578-.256-.3743-.1668-.7469-.3377-1.1177-.5122-1.3119-.6174-2.6018-1.2813-3.8688-1.9864-2.2357-1.2442-4.401-2.6151-6.4893-4.0931-.4843-.3427-.9645-.6913-1.4403-1.0456-.2455-.1829-.488-.3698-.7331-.5532-.3669-.2744,.4621,.3678-.096-.0753-.715-.5676-1.4257-1.1397-2.1199-1.7327-.5873-.5016-1.1733-1.0093-1.7274-1.5479l-2.0524,4.955c9.3233,.143,18.5591,1.7756,27.9112,1.2478,1.5654-.0883,2.9025-1.2708,2.9025-2.9025,0-1.5032-1.3295-2.9913-2.9025-2.9025Z"/></g><g><path d="M803.1611,185.1788s-17.0823,17.4989-11.6659,28.3316c8.2512,16.5023,31.6647,9.1661,31.6647,9.1661,0,0-2.9165,18.7488,21.6653,10.416,0,9.1661,7.0829,19.1655,19.5821,10.416,12.4992-8.7495,7.9162,34.5812,0,43.3306,7.9161,1.2499,15.1063-38.0334,26.2514-33.7468,32.6151,12.5492-20.6935,61.6117-31.497,71.8043-14.8505,14.0109-27.2127,24.5286-46.0743,31.7864-24.5556,9.4488-46.2205,26.4407-61.0357,48.2046-7.4483,10.9418-13.3214,23.4838-13.5899,36.7173-.2685,13.2336,6.048,27.1578,17.8453,33.1596,11.7973,6.0019,28.6746,1.4175,33.5581-10.8849,2.1406-5.3924,.3272-13.4232-5.4519-13.9353-4.9915-.4423-8.5237,5.7486-7.2155,10.5858,1.3083,4.8372,5.6903,8.1756,10.0912,10.5719,29.3775,15.9956,71.0941,1.3676,84.0487-29.4719,2.0427-4.8628,3.4443-10.3169,1.992-15.3875-1.4523-5.0705-6.6034-9.3601-11.761-8.256-6.197,1.3266-8.6422,10.0089-5.1787,15.3161,3.4635,5.3072,10.7425,7.0777,16.9299,5.707,6.1874-1.3707,11.4866-5.2706,16.3292-9.3585,41.989-35.4459,49.6328-109.5035,46.0447-160.5958-2.2993-32.741-15.348-75.1536-46.6468-90.7849-26.5212-13.2452-63.6411-16.4766-85.8858,6.9082Z"/><path d="M801.1087,183.1264c-2.5109,2.5786-4.764,5.4691-6.8145,8.4193-3.4172,4.9163-6.6256,10.7675-6.7591,16.8998-.1395,6.4082,4.3859,12.2642,9.7587,15.3489,4.9306,2.8308,10.83,3.655,16.4397,3.3515,3.4006-.184,6.9323-.6534,10.198-1.6705l-3.5705-3.5705c-.3826,2.5019-.2557,5.151,.5325,7.5656,1.6637,5.0966,5.8947,7.9741,11.1236,8.5526,4.5611,.5046,9.2888-.6969,13.5797-2.1316-1.2247-.933-2.4494-1.8659-3.6742-2.7989,.0664,6.978,3.7615,15.2746,11.4061,16.4927,4.6923,.7476,8.8607-1.1825,12.7063-3.682,.353-.2294,.7163-.4183,1.0852-.6183-.3919,.2124-.4362,.1737-.0452,.0419,.4288-.1445,.725,.022-.0303-.0556,.1443,.0148,.2953-.0357,.4425-.0183,.5674,.0672-.6923-.1202-.2347-.0384,.1334,.0238,.6357,.1941,.0993-.0031s.0482,.0253,.1735,.132c.2869,.2444-.6564-.3295-.1569-.1056,.1306,.0586,.1981,.2485,.3116,.3296,.3162,.2259-.3059-.5859-.0835-.089,.0864,.1931,.2324,.3906,.3378,.5764,.0575,.1014,.3401,.7039,.1258,.2311-.2033-.4488,.0575,.1516,.1023,.2841,.1588,.4699,.3032,.9417,.422,1.4236,.1144,.4643,.2091,.9336,.291,1.4046,.0436,.2505,.081,.5019,.1187,.7534,.0502,.3344-.0273-.1987-.0292-.2147,.0227,.1908,.0465,.3816,.0654,.5728,.122,1.2371,.1942,2.476,.216,3.719,.0493,2.8159-.1148,5.6352-.4074,8.4352-.2756,2.6371-.6933,5.3182-1.3285,8.3045-.63,2.9621-1.4082,5.9068-2.4692,8.7459-.1122,.3002-.229,.5984-.3471,.8964-.3072,.7754,.0759-.1169-.2003,.4711-.2574,.548-.5084,1.0968-.7947,1.6307-.2423,.4519-.4998,.8965-.7814,1.3252-.1448,.2205-.3002,.432-.4525,.6473-.1832,.259,.2162-.2808,.1989-.2594-.0998,.1234-.204,.2428-.3094,.3615-1.8065,2.0347-.4184,4.6256,2.0524,4.955,4.7531,.6336,7.8755-5.6694,9.607-9.0761,2.8025-5.514,5.0267-11.3047,7.9222-16.7738,.6703-1.2662,1.3761-2.5155,2.1527-3.7199,.3439-.5334,.7059-1.053,1.0779-1.5671,.3141-.4341,.0177-.0293-.0434,.0482,.0906-.1149,.1809-.2319,.2756-.3436,.2288-.2698,.4551-.5407,.696-.8,.3377-.3636,.7093-.6836,1.0636-1.0287,.4891-.4764-.4283,.2322,.1352-.1079,.2219-.1339,.4378-.2799,.66-.4143,.3394-.2052,.6109-.2315,.0512-.0585,.1972-.061,.4131-.1188,.6043-.1939,.6401-.2516-.3736-.0673-.005-.024,.2333,.0274,.5437,.0185,.7794,.0063-.5592,.0288-.41-.102,.021,.0438,.2514,.085,.4981,.1687,.7468,.2626,.0775,.0292,.5185,.2165,.0779,.0272,.1659,.0713,.3321,.1442,.4953,.2212,.3562,.168,.7108,.3378,1.0596,.5208,.5481,.2876,1.0845,.5979,1.6031,.9359,.2624,.171,.5179,.3511,.7727,.5331,.4364,.3117,.0334,.024-.0445-.039,.1729,.1399,.3444,.281,.512,.4274,.4291,.375,.8372,.7746,1.2172,1.1994,.1832,.2048,.3594,.4156,.5297,.6311-.4274-.5409,.0574,.1083,.1906,.3133,.2885,.4442,.5155,.9127,.7703,1.3749,.3385,.6141-.1287-.4611,.091,.2032,.0919,.2778,.1985,.5495,.2832,.8301,.1521,.504,.2507,1.0146,.3615,1.528,.0277,.1284,.0422,.2627,.0629,.392-.0116-.0729-.0716-.6972-.0295-.1765,.0245,.303,.0529,.6045,.0664,.9084,.0246,.5527,.0198,1.1062-.009,1.6587-.0148,.2839-.0417,.566-.0638,.8492-.0112,.1435-.0316,.2862-.0463,.4293-.0379,.3692,.0972-.576,.0004-.0131-.2215,1.2884-.5069,2.5544-.8915,3.8048-.1794,.5832-.3755,1.1611-.585,1.7341-.1147,.3138-.2337,.6259-.3564,.9367-.0622,.1575-.1261,.3142-.1894,.4712-.1249,.3097,.1633-.3675-.0561,.1355-2.5507,5.8472-6.1431,11.2093-9.9878,16.2759-.7673,1.0112-1.8751,2.4113-2.9005,3.6661-1.0788,1.3202-2.1779,2.6238-3.2934,3.9131-2.2027,2.546-4.4696,5.0362-6.7827,7.4821-3.8106,4.0294-7.748,7.937-11.761,11.7643-12.3678,11.7953-24.9666,23.5308-40.4113,31.2014-4.7801,2.374-9.7965,4.1504-14.6785,6.2901-4.7635,2.0877-9.4013,4.4614-13.8833,7.0995-9.102,5.3575-17.6001,11.8084-25.2109,19.1314-7.6381,7.3492-14.4644,15.6603-20.0599,24.6683-6.0518,9.7426-10.627,20.6728-11.3588,32.2248-1.1912,18.8036,10.7947,40.3625,31.5115,40.7359,8.6523,.156,17.4352-3.4762,22.6909-10.4755,2.5324-3.3726,4.0937-7.5684,3.7418-11.8247-.3558-4.3033-2.2904-8.6778-6.53-10.3621-4.4517-1.7685-9.1655,.6479-11.4051,4.6412-2.4529,4.3734-1.9581,9.5754,.9111,13.6254,2.9154,4.1154,7.3097,6.8821,11.8007,9.0136,3.8608,1.8324,7.9097,3.2578,12.0833,4.1822,16.7262,3.7047,34.7886,.1977,49.3164-8.7512,7.2799-4.4843,13.6565-10.3429,18.583-17.3387,2.5302-3.593,4.5785-7.4854,6.1868-11.5728,2.1521-5.4694,3.3622-11.9004,1.0221-17.5127-2.0005-4.7977-6.4197-8.5603-11.7022-8.9722-4.5635-.3558-8.7149,2.5565-10.5733,6.6124-1.8583,4.0558-1.9092,9.0244,.4149,12.9204,2.4867,4.1685,7.0808,6.7813,11.7914,7.5518,11.0105,1.801,20.4718-5.1118,28.2315-12.075,6.3948-5.7384,11.9415-12.4031,16.7106-19.5397,10.0445-15.0308,16.6094-32.2758,21.0073-49.7364,4.5043-17.8827,6.8201-36.3291,7.6286-54.7367,.7466-16.999,.4915-34.2909-2.0792-51.1367-2.7142-17.7863-8.1252-35.6464-17.5532-51.0731-4.5718-7.4807-10.1758-14.4596-16.9505-20.0601-7.047-5.8256-15.1579-9.8455-23.7399-12.9027-17.2916-6.1597-37.1808-8.1519-54.7914-2.1076-8.6522,2.9696-16.5049,7.8628-22.8441,14.4728-2.5863,2.6968,1.5128,6.8076,4.1048,4.1048,12.244-12.7672,29.7343-17.3244,47.0045-16.1978,8.6603,.5649,17.2179,2.5226,25.3728,5.4653,7.6932,2.7761,15.1144,6.4569,21.3841,11.7686,12.7664,10.8155,20.9336,26.1597,26.1602,41.8343,5.1928,15.5733,7.4884,31.7108,8.1625,48.0645,.6957,16.8765,.1252,33.8324-1.89,50.6058-2.0796,17.3095-5.8045,34.5545-11.9341,50.8999-5.7146,15.2389-13.8084,29.8955-25.178,41.6572-2.9976,3.101-6.2106,6.0327-9.6348,8.6579-3.8862,2.9794-8.3837,5.7952-13.3356,6.452-3.7911,.5028-8.1943-.3281-11.0538-3.01-2.6208-2.4581-3.2021-5.7896-1.9446-8.9998,.4758-1.2146,1.3946-2.4282,2.4908-3.0728,1.2475-.7336,3.0046-.8357,4.56-.2297,4.4546,1.7355,5.9248,6.713,5.5847,11.0614-.359,4.5886-2.4061,9.1127-4.6204,13.093-1.8956,3.4074-4.1603,6.5819-6.7738,9.4746-10.4008,11.5115-25.5695,18.6577-40.939,19.8159-7.8274,.5898-15.553-.2792-22.9612-2.8886-3.8704-1.3633-7.8264-3.1923-11.076-5.7276-2.9368-2.2912-5.5605-5.7136-4.4875-9.4084,.433-1.4909,1.3599-2.9066,2.7335-3.5131,.3154-.1392,1.0547-.261,1.5204-.1915,.5003,.0746,1.2285,.4651,1.4235,.6325,2.1384,1.8352,2.468,5.6388,1.6683,8.4886-1.9829,7.0657-9.4985,11.3117-16.3751,12.3005-7.9451,1.1425-15.575-1.959-21.0198-7.942-5.8204-6.3957-8.6864-15.3024-8.6991-23.8622-.0158-10.6628,3.9933-20.9047,9.3196-29.9855,5.0837-8.6672,11.3893-16.6082,18.4713-23.7248,6.9497-6.9836,14.6725-13.1498,23.0261-18.3732,4.2766-2.6741,8.7061-5.1032,13.2608-7.27,4.5739-2.1759,9.3343-3.8743,13.9654-5.9145,16.783-7.3938,30.3708-19.4555,43.5771-31.9017,7.9157-7.4602,15.6217-15.1705,22.6288-23.5001,4.1907-4.9816,8.1954-10.179,11.5702-15.7543,2.8361-4.6854,5.457-9.8619,6.4031-15.3057,.8836-5.0842,.2504-10.1733-3.0365-14.3026-1.5841-1.9901-3.6887-3.5709-5.9408-4.7356-2.3716-1.2265-4.9121-2.3125-7.6106-1.5629-4.9206,1.3668-7.9219,6.7639-10.1304,10.9537-2.765,5.2456-4.9294,10.7782-7.5716,16.0831-.5399,1.0841-1.1008,2.1591-1.7122,3.2048-.272,.4653-.5535,.9254-.8506,1.3751-.1472,.2229-.3001,.4411-.4528,.6602-.1868,.268-.4174,.522-.0552,.0889-.2909,.3479-.5783,.6953-.9049,1.0112-.1244,.1203-.2859,.2286-.3962,.3591,.0778-.092,.5453-.2742,.0208-.0341-.1166,.0534-.3077,.1396-.3973,.2253-.2246,.2148,.6963-.2401,.1245-.0759-.6161,.1769,.5469-.0409,.2009-.0161-.1521,.0109-.3079-.0076-.4581-.0277l2.0524,4.955c3.2527-3.6637,4.7842-8.7947,5.9662-13.4478,1.4971-5.8936,2.3855-12.0207,2.5953-18.0984,.1607-4.6536,.1793-10.1594-2.1466-14.3554-.9971-1.7988-2.6245-3.1881-4.6987-3.4666-2.799-.3759-4.776,1.3242-7.0455,2.6404-1.8695,1.0842-3.903,1.8828-6.0223,1.8088-1.3938-.0487-2.848-.683-3.8408-1.61-2.4567-2.2937-3.5071-5.8594-3.5395-9.27-.0171-1.7986-1.8532-3.4077-3.6742-2.7989-3.5013,1.1707-6.9358,2.1114-10.52,2.0264-2.1804-.0517-3.4382-.3431-5.2267-1.5976,.6418,.4502-.2777-.2769-.4876-.4979-.1388-.1461-.264-.3038-.3993-.4527-.2098-.2309,.2041,.2701,.1926,.2534-.0788-.1148-.1668-.2239-.2407-.3422-.2036-.3262-.396-.6505-.5763-.9904-.0877-.1652-.155-.3401-.2377-.5075,.2544,.5149,.1262,.3316,.0071-.0382-.2228-.6915-.36-1.3819-.5227-2.0872-.1351-.5855,.0364,.6321,.0174,.1583-.0061-.1524-.0336-.3057-.0468-.4579-.0264-.3032-.0437-.6071-.052-.9114-.0137-.5005-.0053-1.0027,.0323-1.5021,.0505-.6717,.0835-.6706-.0345,.1013,.3132-2.0482-1.2506-4.293-3.5705-3.5705-.6214,.1935-1.2566,.3477-1.8903,.4945-.7422,.1719-1.4893,.3231-2.2395,.456-.4191,.0743-.8394,.1407-1.2601,.2051-.2721,.0416-.6491,.0851-.1363,.0217-.2781,.0344-.5562,.0683-.8348,.0985-2.2407,.2434-4.5038,.3194-6.7538,.1682-1.5329-.103-1.8918-.1489-3.325-.4505-1.2373-.2604-2.4504-.6141-3.6328-1.0621-.2611-.0989-.7214-.3013-1.2728-.5832-.6018-.3077-1.1874-.6471-1.7527-1.0177-.9992-.6549-1.797-1.3393-2.7378-2.3595-.9543-1.0349-1.689-2.142-2.3781-3.4651-.3426-.6578-.7561-2.0204-.7958-2.6172-.3268-4.9138,2.2435-9.7432,5.1274-14.11,1.5779-2.3892,2.6799-3.8234,4.4109-5.8628,.7414-.8735,1.497-1.741,2.2967-2.5622,2.6079-2.6783-1.4929-6.7873-4.1048-4.1048Z"/></g><path d="M828.5271,246.3583c.3321-.1512-.2476,.0839-.0194,.0063,.0865-.0294,.1713-.0648,.2577-.0948,.1943-.0674,.3912-.127,.5902-.1786,.1989-.0516,.4-.0947,.6023-.1303,.309-.0545,.1393,.0346-.04-.0003,.0767,.0149,.1941-.0204,.2729-.0269,.4104-.0335,.8236-.0362,1.2345-.0094,.1143,.0075,.2282,.0225,.3424,.0295,.2648,.0163-.4864-.0856-.0372-.0056,.2035,.0362,.4059,.0734,.6072,.1208,.4043,.0953,.7896,.2319,1.1809,.3685,.2505,.0874-.3204-.1519-.0822-.0353,.1027,.0503,.208,.0955,.3104,.1467,.1841,.092,.3648,.1907,.5416,.2959,.1766,.1051,.3496,.2165,.5177,.3349,.0645,.0455,.1478,.1354,.2213,.1614-.301-.1064-.1702-.1317-.0185-.0016,.3309,.2839,.6325,.596,.9121,.9302,.652,.7795,2.0725,.7234,2.7365,0,.7609-.8289,.6955-1.9051,0-2.7365-2.9136-3.483-8.0422-4.3559-12.0838-2.5164-.9243,.4207-1.2207,1.8308-.6942,2.6475,.6152,.9542,1.6588,1.1442,2.6475,.6942h0Z"/><path d="M803.6423,239.4103c.0549-.0281,.1107-.0547,.1656-.0828,.3113-.1593-.3625,.1368-.166,.0661,.1303-.0469,.2585-.0967,.3912-.1371,.2648-.0806,.5351-.137,.8088-.1772l-.5144,.0691c.5219-.0677,1.0437-.0645,1.5651,.0056l-.5144-.0691c.3054,.046,.6066,.1113,.9016,.2032,.1336,.0416,.2974,.138,.4352,.1551-.0826-.0103-.4603-.2043-.1663-.0655,.0695,.0328,.1384,.0669,.2065,.1026,.136,.0713,.2691,.1483,.3985,.231,.0874,.0559,.4642,.3335,.1803,.1139-.2734-.2115-.042-.0299,.0188,.0226,.0582,.0502,.1151,.1017,.1709,.1545,.1234,.1167,.239,.2399,.3507,.3677,.6684,.7646,2.062,.7349,2.7365,0,.7483-.8151,.713-1.921,0-2.7365-2.1882-2.5031-6.0203-3.0506-8.922-1.5646-.9027,.4622-1.2387,1.8029-.6942,2.6475,.5938,.921,1.682,1.1886,2.6475,.6942h0Z"/><g><path d="M829.6175,254.9784c-.5174,.8997-1.4299,1.3917-2.4342,1.232-.1897-.0302-.3817-.0752-.5435-.1788-.1986-.1273-.3347-.3324-.4385-.5443-.4197-.8563-.3754-1.9235,.1138-2.742,.6649-1.1125,2.426-1.1335,3.1991-.1023,.495,.6602,.5145,1.6201,.1032,2.3354Z"/><path d="M827.9467,254.0018c-.0637,.1084-.1324,.2121-.2079,.3126l.3026-.3916c-.1381,.1767-.2932,.3346-.4695,.4734l.3916-.3026c-.16,.1207-.33,.2208-.5139,.3007l.4622-.1951c-.1854,.0758-.3754,.1274-.5737,.1558l.5144-.0691c-.2062,.0248-.4104,.0232-.6165-.0027l.5144,.0691c-.1519-.0225-.2995-.0533-.4434-.108l.4622,.1951c-.0702-.031-.1343-.0659-.1976-.1094l.3916,.3026c-.0723-.0565-.1345-.1181-.1933-.1883l.3026,.3916c-.1135-.1479-.1981-.3105-.271-.4816l.1951,.4622c-.0928-.2312-.1554-.4689-.1904-.7155l.0691,.5144c-.0326-.2667-.0316-.5316,.0025-.7981l-.0691,.5144c.0364-.2464,.1-.4839,.193-.7151l-.1951,.4622c.081-.19,.1765-.3723,.3028-.5362l-.3026,.3916c.0897-.1103,.1895-.2077,.3017-.2949l-.3916,.3026c.124-.0917,.2558-.1665,.3974-.2273l-.4622,.1951c.1698-.0685,.3445-.1137,.5259-.1381l-.5144,.0691c.1833-.021,.3654-.02,.5484,.0025l-.5144-.0691c.183,.0262,.3593,.073,.5307,.1424l-.4622-.1951c.1572,.0675,.303,.1515,.4393,.2549l-.3916-.3026c.1132,.0901,.2143,.1901,.3054,.3026l-.3026-.3916c.1077,.14,.1938,.2902,.263,.4526l-.1951-.4622c.066,.1671,.1107,.3376,.1369,.5153l-.0691-.5144c.0242,.1974,.0242,.3926,.001,.59l.0691-.5144c-.0279,.1972-.0779,.3862-.1521,.5711l.1951-.4622c-.0356,.0827-.0749,.1626-.1188,.2412-.2477,.4441-.3312,.9969-.1951,1.4911,.1236,.4488,.4707,.9353,.8893,1.1564,.4491,.2373,.9931,.3562,1.4911,.1951,.4746-.1536,.9077-.4434,1.1564-.8893,.8633-1.5475,.702-3.5503-.5467-4.846-.1734-.1799-.3842-.326-.5828-.4743-.0797-.0595-.1612-.1151-.2484-.1631-.3024-.1662-.6375-.3115-.9754-.3911-.3479-.0819-.7223-.1373-1.0819-.1248-.348,.0121-.7169,.0554-1.0526,.1585-.753,.2313-1.4002,.6567-1.8812,1.2793-.2998,.388-.4769,.757-.6598,1.2208-.1565,.3968-.2046,.8086-.2551,1.2313-.0417,.3492-.0111,.6793,.0357,1.0269,.0584,.4348,.1519,.7994,.3225,1.2038,.191,.4527,.4005,.8509,.762,1.2047,.3926,.3843,.9169,.6774,1.4591,.7802,.5372,.1019,.994,.1315,1.5262,.0599,.513-.0689,.9041-.199,1.3834-.4259,.7485-.3543,1.3813-1.0357,1.7953-1.7404,.2541-.4325,.3281-1.0078,.1951-1.4911-.1236-.4488-.4707-.9353-.8893-1.1564-.4491-.2373-.9931-.3562-1.4911-.1951-.4808,.1556-.8958,.4456-1.1564,.8893Z"/></g><g><path d="M805.4761,248.3187c-.5174,.8997-1.4299,1.3917-2.4342,1.232-.1897-.0302-.3817-.0752-.5435-.1788-.1986-.1273-.3347-.3324-.4385-.5443-.4197-.8563-.3754-1.9235,.1138-2.742,.6649-1.1125,2.426-1.1335,3.1991-.1023,.495,.6602,.5145,1.6201,.1032,2.3354Z"/><path d="M803.8053,247.3421c-.0637,.1084-.1324,.2121-.2079,.3126l.3026-.3916c-.1381,.1767-.2932,.3346-.4695,.4734l.3916-.3026c-.16,.1207-.33,.2208-.5139,.3007l.4622-.1951c-.1854,.0758-.3754,.1274-.5737,.1558l.5144-.0691c-.2062,.0248-.4104,.0232-.6165-.0027l.5144,.0691c-.1519-.0225-.2995-.0533-.4434-.108l.4622,.1951c-.0702-.031-.1343-.0659-.1976-.1094l.3916,.3026c-.0723-.0565-.1345-.1181-.1933-.1883l.3026,.3916c-.1135-.1479-.1981-.3105-.271-.4816l.1951,.4622c-.0928-.2312-.1554-.4689-.1904-.7155l.0691,.5144c-.0326-.2667-.0316-.5316,.0025-.7981l-.0691,.5144c.0364-.2464,.1-.4839,.193-.7151l-.1951,.4622c.081-.19,.1765-.3723,.3028-.5362l-.3026,.3916c.0897-.1103,.1895-.2077,.3017-.2949l-.3916,.3026c.124-.0917,.2558-.1665,.3974-.2273l-.4622,.1951c.1698-.0685,.3445-.1137,.5259-.1381l-.5144,.0691c.1833-.021,.3654-.02,.5484,.0025l-.5144-.0691c.183,.0262,.3593,.073,.5307,.1424l-.4622-.1951c.1572,.0675,.303,.1515,.4393,.2549l-.3916-.3026c.1132,.0901,.2143,.1901,.3054,.3026l-.3026-.3916c.1077,.14,.1938,.2902,.263,.4526l-.1951-.4622c.066,.1671,.1107,.3376,.1369,.5153l-.0691-.5144c.0242,.1974,.0242,.3926,.001,.59l.0691-.5144c-.0279,.1972-.0779,.3862-.1521,.5711l.1951-.4622c-.0356,.0827-.0749,.1626-.1188,.2412-.2477,.4441-.3312,.9969-.1951,1.4911,.1236,.4488,.4707,.9353,.8893,1.1564,.4491,.2373,.9931,.3562,1.4911,.1951,.4746-.1536,.9077-.4434,1.1564-.8893,.8633-1.5475,.702-3.5503-.5467-4.846-.1734-.1799-.3842-.326-.5828-.4743-.0797-.0595-.1612-.1151-.2484-.1631-.3024-.1662-.6375-.3115-.9754-.3911-.3479-.0819-.7223-.1373-1.0819-.1248-.348,.0121-.7169,.0554-1.0526,.1585-.753,.2313-1.4002,.6567-1.8812,1.2793-.2998,.388-.4769,.757-.6598,1.2208-.1565,.3968-.2046,.8086-.2551,1.2313-.0417,.3492-.0111,.6793,.0357,1.0269,.0584,.4348,.1519,.7994,.3225,1.2038,.191,.4527,.4005,.8509,.762,1.2047,.3926,.3843,.9169,.6774,1.4591,.7802,.5372,.1019,.994,.1315,1.5262,.0599,.513-.0689,.9041-.199,1.3834-.4259,.7485-.3543,1.3813-1.0357,1.7953-1.7404,.2541-.4325,.3281-1.0078,.1951-1.4911-.1236-.4488-.4707-.9353-.8893-1.1564-.4491-.2373-.9931-.3562-1.4911-.1951-.4808,.1556-.8958,.4456-1.1564,.8893Z"/></g><path d="M815.0064,284.0204c.0458,.2831-.1242,.778-.3553,.9558-.6932,.5333-1.1377,1.2814-.8893,2.1853,.2193,.7981,1.0213,1.4517,1.8659,1.4206,3.7101-.1363,7.5238-.7594,10.957-2.2127,1.8086-.7656,3.3113-2.0126,4.7944-3.2763,1.6448-1.4016,3.2472-2.8518,4.8493-4.3017-1.0781-.2846-2.1561-.5692-3.2342-.8539,1.1729,2.974,.9249,6.2223-.8376,8.9118-1.6238,2.478-4.6182,3.9406-7.5351,3.9949-1.1716,.0218-2.3059,1.2317-1.8659,2.4494,.8266,2.288,2.8522,3.3959,5.2247,3.0761,1.0367-.1397,1.6017-1.47,1.3515-2.3803-.3075-1.119-1.3403-1.4917-2.3803-1.3515-.0644,.0087-.4199-.2509-.4641-.3731-.622,.8165-1.2439,1.633-1.8659,2.4494,4.2653-.0795,8.2484-2.1862,10.7103-5.6694,2.4366-3.4475,2.9354-8.2284,1.3942-12.1362-.539-1.3668-2.0793-1.899-3.2342-.8539-1.4648,1.3256-2.9296,2.6517-4.4272,3.9404-1.2263,1.0553-2.4649,2.168-3.9615,2.8288-2.9179,1.2883-6.3123,1.7719-9.4753,1.8881l.9766,3.6059c1.7463-1.3437,2.4875-3.1415,2.1338-5.3263-.1671-1.0324-1.451-1.6069-2.3803-1.3515-1.0979,.3017-1.5191,1.3448-1.3515,2.3803h0Z"/><g><path d="M829.0354,284.0062c2.0752,.7805,2.9786,3.0657,2.5947,5.11,1.5642,.2501,3.0168-2.8032,3.5178-4.036,.8211-2.0202,.9645-4.3261,.3001-6.41-1.7396,1.8863-3.7255,3.5493-5.8924,4.9345"/><path d="M828.521,285.8721c-.4442-.1764,.1808,.1258,.3051,.1932,.2989,.1623-.1306-.1675-.0029-.0114,.0683,.0835,.1762,.1562,.2519,.2328,.0641,.0648,.123,.1339,.1851,.2005,.2787,.2987-.1057-.2157-.0135-.0135,.0855,.1875,.2273,.4146,.3369,.5904,.1241,.1991-.1347-.4256-.0129-.0204,.0263,.0875,.0582,.1732,.0837,.261,.032,.1104,.0544,.2223,.0834,.3332,.0794,.3041,.0945,.1115,.0098-.0386,.083,.147,.0362,.5203,.0327,.6904-.0019,.0924-.0107,.1845-.0132,.2768-.0131,.4695,.0774-.4274-.0028,.0352-.2333,1.3455,.5369,2.2923,1.8659,2.4494,1.2008,.142,2.3927-.6521,3.138-1.5243,.7246-.848,1.2975-1.7989,1.7636-2.8094,1.2459-2.7012,1.6688-5.676,.7823-8.5618-.4117-1.3401-2.2109-1.9565-3.2342-.8539-.8528,.919-1.7569,1.788-2.7158,2.596-.234,.1971-.4755,.3848-.7106,.5805-.2577,.2145,.3493-.2603-.1162,.0909-.1221,.0921-.2447,.1837-.368,.2742-.5184,.3804-1.0495,.7423-1.5901,1.0903-.8503,.5472-1.2773,1.7431-.6942,2.6475,.548,.85,1.737,1.2802,2.6475,.6942,2.2981-1.4791,4.4245-3.2333,6.284-5.2371l-3.2342-.8539c.0892,.2903,.1688,.5823,.2304,.8798,.0093,.045,.0992,.5224,.0579,.2799-.0393-.2309,.0296,.2906,.029,.2839,.0518,.6089,.0228,1.2071-.0226,1.8148,.015-.2005,.024-.1375-.0045,.0263-.026,.1495-.0532,.2984-.0847,.4469-.0631,.2967-.1399,.5901-.2302,.8797-.0856,.2747-.1907,.539-.2911,.8082-.0675,.1808,.2217-.4992,.0726-.1721-.0354,.0776-.0687,.1563-.104,.234-.3368,.7427-.7325,1.445-1.1934,2.1173-.197,.2874,.1975-.1886,.0298-.0406-.0733,.0647-.136,.1593-.2029,.2303-.0542,.0575-.1096,.114-.1669,.1684-.0413,.0399-.0839,.0783-.1277,.1154-.1129,.0962-.0546,.0525,.1749-.1311-.046,.0094-.1384,.0851-.1769,.1146-.2603,.1992,.3044-.091,.1463-.0492-.3664,.0968,.1694-.0307,.1921,.0008-.011-.0153-.2566-.0077-.2802-.0104l1.8659,2.4494c.271-1.5631,.1302-3.0822-.5707-4.5198-.6993-1.4343-1.9183-2.392-3.3755-2.9706-.9431-.3745-2.1656,.409-2.3803,1.3515-.2542,1.1159,.3416,1.9793,1.3515,2.3803h0Z"/></g><path d="M828.1596,324.7674c-4.3226-.3697-8.6639-.4386-12.9297-1.2895-4.2398-.8458-8.4689-1.4813-12.8011-1.0429-7.9078,.8003-15.4841,3.8706-22.1795,8.0766-12.4932,7.8481-22.5996,19.1455-31.5673,30.7076-8.9279,11.5107-16.9789,23.7002-26.3641,34.8551-9.9751,11.8561-21.7606,21.9658-34.5054,30.7409-26.5058,18.2499-56.8981,30.6797-88.1653,37.9892-32.5027,7.5984-67.0161,8.9218-98.8446-2.3565-24.2925-8.6079-45.5609-24.8679-56.8755-48.4077-1.4538-3.0246-2.7044-6.129-3.8114-9.2962l-.2926,2.2366c3.9314-8.4451,7.8627-16.8903,11.7941-25.3354,1.3992-3.0057,2.9452-5.9822,4.1867-9.0585,3.6972-9.1613-6.8297-18.0323-15.184-12.6165-2.2399,1.4521-3.9566,3.9147-5.6963,5.8916-1.6303,1.8526-3.2605,3.7052-4.8908,5.5577l4.955,2.0524c0-8.3187,0-16.6373,0-24.956,0-5.4894,0-10.9788,0-16.4682,0-3.088,.3611-6.6124-.6052-9.5876-3.3776-10.3988-17.6295-11.6936-22.7873-2.0452h5.0125c-4.81-8.9687-18.2491-8.7993-22.3423,.7387h5.0125c-4.1848-9.7515-18.4847-9.7511-22.6693,0h5.0125c-2.4649-5.7307-9.2037-8.9014-15.1709-6.8489-5.206,1.7907-8.4155,6.6728-8.5486,12.0894-.1219,4.9618,0,9.942,0,14.905,0,11.8253,.0582,23.6522-.0007,35.4773-.015,3.0006,.0638,5.9974,.2189,8.9943,.3905,7.5443,1.1975,15.0634,2.285,22.5378,1.5111,10.3857,3.6539,20.6828,6.4412,30.8013,3.3861,12.292,7.7457,24.3173,13.1072,35.8872,5.9126,12.7591,13.1228,24.9277,21.6798,36.0946,9.5353,12.4435,20.5899,23.5405,33.0723,33.032,13.9763,10.6274,29.5865,18.9301,46.0165,25.0759,19.6803,7.3617,40.459,11.471,61.3574,13.3092,5.8351,.5133,11.6846,.8372,17.5394,1.0101,3.7368,.1104,3.7335-5.6948,0-5.8051-21.4226-.6326-42.8042-3.4334-63.4019-9.472-16.904-4.9557-33.1262-12.1065-47.9394-21.6682-12.8259-8.2789-24.4334-18.3411-34.5223-29.795-9.1999-10.4447-17.0452-22.032-23.6032-34.3008-5.9766-11.1811-10.7711-22.7032-14.6735-34.7666-3.3541-10.3682-5.9926-20.9668-7.9548-31.6851-.4279-2.3372-.8233-4.6803-1.1862-7.0284-.1712-1.1077-.3351-2.2166-.4916-3.3265-.0419-.2971-.2301-1.6728-.1424-1.0186-.0729-.5438-.1438-1.0878-.213-1.632-.4703-3.6981-.8593-7.4067-1.1583-11.1226-.3647-4.5326-.6188-9.0831-.6342-13.6315-.0196-5.7891,.0089-11.5793,.0089-17.3685,0-7.9729,0-15.9458,0-23.9188,0-2.778,0-5.5559,0-8.3339,0-1.8411-.1227-3.6509,.6971-5.3697,2.6888-5.6369,9.9596-4.4116,12.2047,.808,.8176,1.9007,4.1958,1.9031,5.0125,0,2.5529-5.9489,10.0878-5.9571,12.6442,0,.8162,1.902,4.1963,1.902,5.0125,0,2.3548-5.4872,9.3938-6.1897,12.3172-.7387,1.0123,1.8875,4.0014,1.8915,5.0125,0,3.4316-6.4193,12.4063-3.9763,12.5749,3.1535,.0638,2.6983,0,5.4059,0,8.1047,0,10.2048,0,20.4097,0,30.6145,0,2.7514,0,5.5029,0,8.2543,0,2.3954,3.2527,3.9868,4.955,2.0524,2.829-3.2147,5.5552-6.5628,8.5057-9.6656,2.3518-2.4732,6.4003-2.238,7.7863,1.0333,.7615,1.7974,.2072,3.1616-.5217,4.7272-4.3574,9.3603-8.7148,18.7206-13.0722,28.0809-.6236,1.3396-1.2634,2.673-1.8713,4.0199-1.2799,2.8354,.8996,6.3116,2.0312,8.9828,3.3327,7.8673,7.7089,15.1743,13.0332,21.8545,10.5986,13.2975,24.9097,23.324,40.4534,30.029,40.7708,17.5871,86.6931,13.6611,128.2849,1.0983,20.0072-6.0432,39.4687-14.1895,57.542-24.7141,17.6431-10.2741,34.4825-22.8475,47.9557-38.2738,12.7358-14.582,22.8409-31.2183,35.4507-45.8979,12.5043-14.5568,30.8648-31.977,51.8085-28.1593,5.5601,1.0135,11.0096,1.4518,16.6354,1.933,3.7218,.3183,3.7006-5.4886,0-5.8051h0Z"/><path d="M432.8569,370.6731c-4.0835-.8458-8.3906-1.049-12.546-.9504-8.7943,.2087-17.6648,2.1385-25.3896,6.4476-5.4351,3.0319-10.0128,7.2204-13.7348,12.1855-.941,1.2552-.2026,3.2437,1.0413,3.9712,1.4836,.8678,3.028,.2169,3.9712-1.0413,5.5846-7.4497,13.5492-12.0622,22.3456-14.2355,.9377-.2317,1.8817-.4371,2.8306-.6174,.4843-.092,.9698-.1773,1.4564-.2563,.2181-.0354,.4363-.0697,.6548-.1026,.1733-.0261,.3467-.0514,.5202-.0758q-.3405,.0442,.0023-.0002c1.7899-.2199,3.5854-.3731,5.3876-.4418,2.8971-.1104,5.8042-.0276,8.6895,.2589,.5328,.0529,1.0636,.1195,1.5954,.1811,.6739,.0781-.7753-.1183-.0117-.0001,.1948,.0301,.3899,.0575,.5846,.0884,.3539,.0563,.7084,.1138,1.0594,.1865,1.5336,.3177,3.1363-.4473,3.5705-2.0273,.3951-1.438-.4851-3.251-2.0273-3.5705h0Z"/><path d="M393.121,320.4223v35.393c0,3.7353,5.8051,3.7415,5.8051,0v-35.393c0-3.7353-5.8051-3.7415-5.8051,0h0Z"/><path d="M411.4317,320.4223v35.393c0,3.7353,5.8051,3.7415,5.8051,0v-35.393c0-3.7353-5.8051-3.7415-5.8051,0h0Z"/><path d="M376.5365,322.4209v34.1309c0,3.7353,5.8051,3.7415,5.8051,0v-34.1309c0-3.7353-5.8051-3.7415-5.8051,0h0Z"/><path d="M240.4449,282.9904c11.9033-11.9033,23.8066-23.8066,35.7099-35.7099,2.645-2.645-1.4587-6.751-4.1048-4.1048-11.9033,11.9033-23.8066,23.8066-35.7099,35.7099-2.645,2.645,1.4587,6.751,4.1048,4.1048h0Z" style="fill:#6966ed;"/><path d="M233.7912,332.4949c12.0562,9.4769,24.1124,18.9539,36.1686,28.4308,1.2312,.9678,2.9036,1.2013,4.1048,0,1.0063-1.0063,1.2393-3.1307,0-4.1048-12.0562-9.4769-24.1124-18.9539-36.1686-28.4308-1.2312-.9678-2.9036-1.2013-4.1048,0-1.0063,1.0063-1.2393,3.1307,0,4.1048h0Z" style="fill:#6966ed;"/><path d="M134.2473,220.256c-9.1444-1.2304-17.9363-4.8204-25.1278-10.6435-1.5-1.2146-4.457-1.0988-4.8513,1.2808-.6472,3.9061-1.6923,7.0359-3.7864,10.2226-.457,.6954-.8941,1.2796-1.1632,1.5989-.5763,.6837-1.175,1.3444-1.8141,1.9703-.5685,.5568-1.1622,1.0874-1.7764,1.5933-.1808,.1489-.3626,.297-.5477,.4405,.0993-.077,.3771-.2815-.0846,.0582-.3794,.2792-.7633,.5519-1.1537,.8155-5.8928,3.978-12.2368,5.8348-19.1972,7.7691-3.939,1.0947-7.9009,2.1096-11.8092,3.3123-2.2054,.6786-2.6876,3.1827-1.2808,4.8513,4.9874,5.9154,10.5323,12.4894,11.6696,20.4184,1.0777,7.5133-2.7642,14.5979-7.4721,20.2014-2.9323,3.4902-6.2405,6.6419-9.6227,9.6897-2.0174,1.8179-.2769,4.7668,2.0524,4.955,14.582,1.1778,28.094,12.0993,33.2962,25.7566,1.5388,4.0398,2.366,8.0337,2.4718,12.21,.0945,3.7288,5.8999,3.7432,5.8051,0-.4332-17.099-11.7453-33.1666-27.2887-40.0867-4.5615-2.0309-9.3023-3.2826-14.2845-3.685l2.0524,4.955c6.3824-5.7513,12.9195-12.1414,16.4236-20.134,1.7429-3.9754,2.773-8.2694,2.4858-12.6347-.3086-4.6919-1.9011-9.1337-4.2083-13.2044-2.5682-4.5312-5.9295-8.5769-9.276-12.5461l-1.2808,4.8513c14.0616-4.3271,31.0766-6.5002,40.36-19.2775,2.6753-3.6822,4.2869-8.0898,5.0272-12.5575l-4.8513,1.2808c7.9665,6.4507,17.5041,10.766,27.6894,12.1364,1.5515,.2088,3.1157-.3722,3.5705-2.0273,.3714-1.3516-.4634-3.3601-2.0273-3.5705h0Z" style="fill:#f953b2;"/></svg>