<?xml version="1.0" encoding="UTF-8"?><svg id="Layer_2" xmlns="http://www.w3.org/2000/svg" width="1000" height="1000" viewBox="0 0 1000 1000"><g><rect x="45.3911" y="138.837" width="904.5561" height="130.0948" style="fill:#f4d13b;"/><ellipse cx="949.6419" cy="203.8844" rx="20.4609" ry="65.0474" style="fill:#f4d13b;"/><ellipse cx="45.6965" cy="203.8844" rx="20.4609" ry="65.0474" style="fill:#f953b2;"/><path d="M203.5816,153.4956l-39.0895,26.8741-24.2903-83.4318c-1.903-6.5365,2.9999-13.0704,9.8078-13.0704h2.8271c3.4598,0,6.6844,1.7512,8.5681,4.6532l42.1767,64.975Z" style="fill:#f4d13b;"/><path d="M81.2778,355.6617h-4.3689c-9.0114,0-14.7668-9.6106-10.5128-17.5547l41.294-77.1153h56.802l-73.99,90.3027c-2.265,2.7644-5.6505,4.3672-9.2243,4.3672Z" style="fill:#f4d13b;"/><path d="M379.7217,173.7789c39.3676-.3847,78.7357-.6341,118.1038-.9397,9.8469-.0764,19.6945-.3552,29.5205-1.0178,9.3674-.6318,18.9792-1.259,28.1703-3.2625,17.1161-3.7311,33.3417-13.0713,51.3232-11.5127,17.3814,1.5065,32.6535,11.5623,49.7532,14.4309,18.7952,3.153,37.9247,1.4358,56.8485,.8856,20.1727-.5865,40.3832-.4218,60.5632-.7165,20.3703-.2975,40.7392-.6949,61.1047-1.2278,9.5437-.2497,19.1302-.8459,28.677-.682,8.6906,.1492,17.3645,.917,26.0608,.7972,8.4415-.1163,16.4591-1.3191,24.3617-4.3434,8.8893-3.4019,17.4245-7.1283,27.0185-8.0207,4.7041-.4376,9.4163-.3378,14.1074,.2001,3.5084,.4022,3.4796-5.098,0-5.497-9.0927-1.0425-18.3669-.3222-27.1633,2.2412-8.8104,2.5675-16.9286,7.2526-26.0115,8.9067-8.365,1.5234-17.0438,1.0918-25.4923,.716-8.9384-.3976-17.768-.492-26.7122-.228-40.537,1.1961-81.0888,1.8211-121.6414,2.1555-19.3826,.1598-38.8989,2.0205-58.2647,.8139-9.1025-.5672-17.7971-2.1834-26.4253-5.1407-8.1082-2.7791-16.0046-6.1989-24.2803-8.4769-8.3633-2.3021-16.8238-3.0707-25.426-1.8123-8.6445,1.2646-16.8974,4.2315-25.1551,6.9693-8.9104,2.9542-17.6651,5.0239-27.0052,6.0438-9.764,1.0661-19.5724,1.6817-29.388,2.0009-19.2705,.6266-38.5829,.4303-57.862,.5743-19.7701,.1477-39.54,.314-59.3098,.4981-5.1585,.0481-10.317,.0974-15.4754,.1478-3.5352,.0345-3.544,5.5316,0,5.497h0Z" style="fill:#fff;"/><path d="M83.5645,178.2768c15.1575-.3401,30.3155-.6557,45.4739-.9517,15.7494-.3075,31.4992-.594,47.2492-.8633,16.2942-.2786,32.5886-.5389,48.8834-.7835,16.5598-.2486,33.1198-.481,49.68-.6992,16.6223-.219,33.2448-.4235,49.8674-.6149,2.0315-.0234,4.063-.0466,6.0944-.0696,3.5349-.04,3.5442-5.5371,0-5.497-16.6163,.1881-33.2325,.3892-49.8484,.6045-16.4979,.2138-32.9956,.4417-49.4931,.6853-16.3398,.2413-32.6794,.4979-49.0188,.7727-15.8972,.2673-31.7941,.5518-47.6906,.857-15.2515,.2929-30.5026,.6049-45.7532,.9413-1.8147,.04-3.6294,.0804-5.4441,.1212-3.5318,.0792-3.5445,5.5765,0,5.497h0Z" style="fill:#fff;"/><path d="M83.5645,212.2679c62.2304-1.3934,124.469-2.4073,186.7093-3.237,14.7631-.1968,29.4452-.0737,44.2006,.1928,6.4792,.117,13.433,.1876,19.7143-1.6549,5.171-1.5168,9.4925-4.6697,14.0297-7.4455,6.7313-4.1181,13.0037-5.3168,20.6701-2.9172,6.6132,2.0699,12.5038,5.8634,19.1516,7.8924,11.417,3.4846,23.2778,2.8323,35.0454,2.4111,30.0162-1.0744,60.0962-.2524,90.1239-1.0093,14.7345-.3714,29.6649-.6381,44.155,2.4822,7.2609,1.5635,14.1867,4.2518,21.3306,6.2421,6.8314,1.9032,13.7691,3.3857,20.8012,4.3139,13.8043,1.8221,27.5216,.9874,40.9108-2.8774,12.5541-3.6237,24.7489-9.1945,37.937-10.094,15.5125-1.0581,31.3343-.2891,46.8845-.4126,15.5279-.1233,31.0556-.2821,46.5826-.4979,30.8737-.4291,61.8504-.5962,92.6902-2.185,13.4038-.6905,26.9029-1.9369,40.3061-.5638,7.2161,.7393,14.3559,2.3567,21.0039,5.3001,6.0485,2.678,11.6761,5.812,18.3184,6.7773,6.7783,.9851,13.5734,.3322,20.3436-.3919,3.4809-.3723,3.519-5.8734,0-5.497-7.2323,.7736-14.7692,1.6669-21.9491,.0309-6.6593-1.5174-12.4616-5.3583-18.8394-7.6797-12.5584-4.571-26.2936-4.9469-39.5059-4.4957-29.8457,1.0193-59.648,2.3141-89.5171,2.8465-31.0522,.5536-62.1086,.8375-93.1649,1.0226-14.2816,.0851-27.9704-.2587-41.7872,3.8571-13.0258,3.8802-25.5264,9.1603-39.24,10.1329-14.723,1.0442-29.3882-1.6159-43.4605-5.7941-7.1363-2.1189-14.0546-4.6326-21.4043-5.9749-6.9418-1.2678-13.9906-1.895-21.0391-2.129-14.6115-.4851-29.26,.3735-43.8748,.4651-15.1625,.0951-30.3249,.2018-45.4873,.3196-13.4912,.1049-27.162,1.2319-40.6362,.6047-6.0729-.2827-12.0609-1.336-17.7855-3.4119-6.5939-2.3911-12.5204-6.2513-19.4364-7.7993-6.0249-1.3485-11.7405-.8664-17.3378,1.7761-5.2672,2.4866-9.7329,6.4604-15.1479,8.6423-6.3231,2.5479-13.6769,2.3382-20.3855,2.217-7.1349-.1289-14.2498-.5701-21.3889-.4879-62.0066,.7139-124.0131,1.7273-186.0102,3.0228-7.8371,.1638-15.674,.3338-23.5108,.5093-3.5319,.0791-3.5445,5.5763,0,5.497h0Z" style="fill:#fff;"/><path d="M83.5645,246.259c58.0408-1.2997,116.1383-1.4299,174.1648-3.1436,14.1522-.418,28.29-1.2405,42.4453-1.5653,14.0388-.3222,28.6473-.7739,42.5052,1.8192,12.8162,2.3982,24.6094,5.383,37.6608,2.6245,6.1547-1.3008,12.1769-3.2571,18.4274-4.0838,7.2548-.9595,14.7612-.7803,22.0685-.926,28.5742-.57,57.1883-.2305,85.7672-.1851,13.9801,.0223,28.0155,.3809,41.8799,2.3137,13.9417,1.9436,27.4395,5.9592,41.1668,8.9558,13.1536,2.8714,26.7399,4.9035,40.2078,3.3627,13.0514-1.4932,25.2948-6.2479,37.8429-9.844,27.2704-7.8152,56.7654-5.3613,84.8301-5.6809,58.1776-.6625,116.3613-1.9671,174.4625-5.1174,7.1009-.385,14.2002-.7969,21.2983-1.2298,3.5147-.2144,3.5391-5.7128,0-5.497-57.767,3.5235-115.6111,5.2041-173.4743,6.057-14.55,.2145-29.103,.4335-43.6546,.4889-14.3696,.0548-28.7822-.1306-43.09,1.4205-13.2357,1.4349-25.5441,5.4712-38.2227,9.31-13.5771,4.1108-26.8589,6.0175-41.0387,4.4751-13.7999-1.501-27.2173-5.36-40.6929-8.526-13.2657-3.1167-26.7067-4.8621-40.3135-5.5287-28.4488-1.3938-57.1786-.5745-85.6581-.4952-14.2013,.0395-28.8813-.5663-43.0002,1.0891-13.281,1.5572-25.1579,6.9545-38.7962,4.912-6.4854-.9713-12.8276-2.7137-19.3045-3.7347-6.3701-1.0042-12.8459-1.2757-19.2844-1.4688-14.1545-.4245-28.3166,.1304-42.4577,.7244-58.0183,2.4371-116.1815,2.2874-174.2389,3.5091-7.167,.1508-14.3339,.3069-21.5007,.4674-3.5319,.0791-3.5445,5.5763,0,5.497h0Z" style="fill:#fff;"/><path d="M595.5321,176.3976c-4.7326,.0732-9.5544-.7521-14.0158,1.2995-2.3386,1.0754-4.7393,3.1714-5.6704,5.6181-1.2692,3.335,1.3074,5.9132,3.7221,7.7991,4.5597,3.5613,10.1063,5.4072,15.6503,6.8167,5.9168,1.5042,12.1426,2.5436,18.2601,1.99,3.0068-.2721,5.9958-.8491,8.8149-1.9486,2.4797-.9672,4.9665-2.1711,6.6818-4.2795,2.1351-2.6243,2.9147-6.3036,.8892-9.2194-1.6864-2.4277-4.4517-3.7556-7.1552-4.7319-2.9454-1.0637-6.0573-1.6634-9.148-2.1185-5.9422-.8748-12.0181-1.3454-18.029-1.2255-3.5326,.0705-3.5445,5.5677,0,5.497,4.2489-.0847,8.5282,.1618,12.7547,.5762,.6935,.068,1.3863,.1425,2.0783,.2246,.37,.0439,.7398,.0901,1.1093,.1383,.4362,.0569-.4263-.0599,.0094,.0018,.2464,.0349,.4928,.0699,.739,.1065,1.4149,.2106,2.825,.4579,4.2232,.761,1.3454,.2917,2.6823,.6328,3.9911,1.061,.5673,.1856,1.1257,.3927,1.6811,.611,.3936,.1547-.5985-.2902-.0119-.0037,.1165,.0569,.2372,.1069,.3544,.1622,.2836,.1338,.5641,.2745,.8393,.4249,.4381,.2395,.8379,.5228,1.2588,.7879,.2984,.188-.4205-.3669-.1668-.1313,.0966,.0897,.2071,.1644,.3016,.2569,.1813,.1774,.358,.356,.5353,.5373,.4253,.4347-.0926-.2525,.0112,.0127,.0537,.1371,.1878,.3666,.2809,.4786,.2562,.3085-.3293-.6434-.0019,.0366,.2912,.6048-.1469,.3404,.0482,.0728-.0382,.0524-.012,.5389-.0013,.6357,.0406,.367,.1747-.6223-.0221,.0103-.2177,.6995-.5167,1.2804-1.0398,1.8122-1.4082,1.4318-3.4624,2.1968-5.339,2.7904-4.8554,1.5359-10.051,1.591-15.0623,.8857-4.9939-.7028-10.0789-1.9566-14.7842-3.7818-2.3653-.9176-4.7349-2.1554-6.6846-3.7928-.4661-.3915-1.034-.8146-1.4157-1.2954-.1008-.127-.219-.2575-.2669-.4217,.1124,.385-.0477,.2383,.2257,.0719,.3533-.2151,.7164-.8584,1.0341-1.1571,.3436-.3231,.6395-.5421,1.0695-.7994,1.6745-1.002,3.4902-1.1834,5.4775-1.213,2.2593-.0336,4.5142,.1747,6.7737,.1397,3.5338-.0547,3.5444-5.5518,0-5.497Z" style="fill:#fff;"/><path d="M454.5138,152.9539c14.0653,2.2807,28.5284,.1234,41.3298-6.1449,3.5714-1.7487,6.965-3.8319,10.1526-6.2081,1.1882-.8858,1.7947-2.3778,.986-3.7604-.6852-1.1714-2.5634-1.8784-3.7604-.986-13.3911,9.9825-30.7046,14.4812-47.2466,11.7989-1.4635-.2373-2.9578,.3796-3.381,1.9196-.3603,1.3112,.446,3.142,1.9196,3.381h0Z" style="fill:#fff;"/><path d="M647.6297,138.6559c15.6279,7.3192,32.1896,12.5513,49.2207,15.3672,4.9275,.8147,9.888,1.4389,14.8632,1.876,1.4807,.1301,2.7485-1.3563,2.7485-2.7485,0-1.595-1.2636-2.618-2.7485-2.7485-16.5448-1.4536-32.8733-5.2137-48.4193-11.0543-4.3688-1.6414-8.6639-3.4591-12.8902-5.4384-1.3434-.6292-2.9636-.3764-3.7604,.986-.697,1.1917-.3643,3.128,.986,3.7604h0Z" style="fill:#fff;"/><path d="M352.101,217.9044c-1.4805,1.0616-2.1607,2.7882-1.2292,4.4785,.5127,.9303,1.4304,1.5945,2.3188,2.1301,1.9378,1.1685,4.1399,1.9703,6.2643,2.7258,5.8899,2.0948,12.3171,.2551,18.0201-1.676,2.0732-.702,2.5526-2.9674,1.2128-4.5938-6.4448-7.8235-18.3882-8.2666-26.5868-3.0647-2.979,1.8901-.2244,6.6492,2.7744,4.7465,3.2698-2.0747,6.8163-2.9834,10.6906-2.6732,3.4905,.2795,6.8274,1.9558,9.2349,4.8784,.4043-1.5313,.8085-3.0625,1.2128-4.5938-4.2637,1.4437-9.8441,3.4246-14.0724,2.029-.6788-.224-1.3519-.4657-2.0209-.7174-.4-.1505-.7975-.307-1.1944-.4653-.2245-.0895-.5992-.2514-.1612-.0626-.2362-.1018-.4719-.2046-.7061-.311-.7566-.3439-1.4714-.7376-2.1896-1.1527-.3197-.1848-.2626-.3675,.0525,.0676-.0732-.101-.2079-.1634-.2883-.2631,.6091,.7558,.7166,2.3502-.5578,3.2641,1.2046-.8638,1.7849-2.3946,.986-3.7604-.6962-1.1902-2.5478-1.8556-3.7604-.986Z" style="fill:#fff;"/><g><path d="M223.1203,403.5718s15.893,13.1197,31.5617,7.7694c-3.4395,6.8789-13.9046,11.8197-13.9046,11.8197,0,0-.9998-9.1445-5.9679-10.6732-4.9681-1.5287-11.6892-8.9159-11.6892-8.9159Z"/><path d="M221.1768,405.5152c3.2228,2.6505,6.9316,4.7907,10.7499,6.4466,7.3939,3.2067,15.6726,4.6234,23.4859,2.0296-1.0346-1.3458-2.0693-2.6917-3.1039-4.0375-1.6494,3.2013-4.5932,5.6983-7.4956,7.667-1.7262,1.1708-3.5357,2.2715-5.4229,3.1666,1.3786,.7911,2.7571,1.5822,4.1357,2.3732-.5129-4.5742-2.1344-10.2738-6.4301-12.6674-1.6286-.9075-2.4875-.9321-4.0225-1.8932-1.3528-.847-2.3802-1.6586-3.5597-2.6775-1.557-1.345-3.062-2.7736-4.4498-4.2943-2.3898-2.6188-6.2684,1.2772-3.8869,3.8869,3.4157,3.7431,7.5945,7.6575,12.3997,9.4508,.1047,.0391,1.0716,.4265,.5288,.1632,.2189,.1062,.4269,.2293,.631,.3611,.2572,.1812,.2654,.1856,.0246,.0133,.1242,.1074,.2443,.2192,.3603,.3355,.0673,.075,.7014,.8311,.381,.3995,.8518,1.1477,1.2043,2.019,1.5449,3.0073,.3544,1.028,.6287,2.0839,.8378,3.1506,.0641,.3269,.1129,.6562,.1722,.9839,.1141,.6302-.0911-.7793-.0283-.2197,.2406,2.1454,2.1297,3.3248,4.1357,2.3732,2.0616-.9779,4.0355-2.1936,5.9038-3.4974,3.5238-2.459,6.9883-5.4293,8.9868-9.3083,1.0294-1.9981-.6965-4.8367-3.1039-4.0375-6.6146,2.1958-13.8114,.9681-19.8242-1.7281-2.3951-1.074-4.7018-2.3507-6.8915-3.7979-.6689-.4421-1.3225-.9048-1.9689-1.3789-.0852-.0625-.1672-.1306-.2537-.1912-.3548-.2487,.6302,.5063,.2449,.1889-.0639-.0527-.1301-.1027-.1941-.1553-1.1456-.9421-2.7656-1.1213-3.8869,0-.9715,.9715-1.1521,2.9394,0,3.8869Z"/></g><g><path d="M218.9942,363.6125c-4.7786-.3959-17.2683-2.1495-17.2853-8.9279-.0039-1.5435,.9593-2.9688,2.213-3.8692,1.2537-.9005,2.7701-1.3523,4.2744-1.698,5.3066-1.2195,10.8728-1.2962,16.211-.2232-1.215-.2442,5.7529-8.4258,6.3628-9.0961,2.833-3.1137,6.208-5.7824,10.1156-7.4082,4.9992-2.08,10.5749-2.3671,15.9731-1.9467,5.0229,.3912,10.1629,1.4381,14.2948,4.321,4.5047,3.1431,7.3941,8.2346,8.7165,13.5659,1.3224,5.3313,1.2032,10.9188,.6364,16.3823-.0556,.5361-.1209,1.0891-.3886,1.5569-1.5074,2.6344-9.4135,.9954-11.7441,.8305-5.5381-.392-11.0779-.7604-16.6176-1.1292-10.9244-.7274-21.8494-1.454-32.762-2.3579Z"/><path d="M218.9942,360.864c-.369-.0312-.7376-.0653-1.1059-.1039-.2083-.0218-.4165-.0449-.6246-.0692-.1622-.0189-1.0296-.1336-.3986-.0458-1.06-.1474-2.1159-.3255-3.1638-.5432-1.1296-.2347-2.2512-.5135-3.3526-.858-1.3389-.4187-1.7544-.5607-2.8639-1.1419-.4506-.2361-.8857-.4969-1.3091-.7787-.1436-.0956-.5718-.4506-.2195-.1518-.2082-.1765-.4113-.3578-.603-.5522-.1426-.1447-.5418-.642-.231-.2142-.1299-.1788-.2442-.3655-.3593-.5538-.1288-.2106-.2454-.5818-.0915-.1332-.0842-.2453-.1411-.492-.2089-.7413-.0824-.3032,.012,.1383,.016,.1726-.0121-.1047-.0332-.2429-.0184-.3476,.0259-.1831,.0042-.3407,.0693-.542,.1803-.5571,.6616-.9884,1.1278-1.3059,1.4394-.9804,3.4195-1.2594,5.0985-1.5596,4.2485-.7596,8.6903-.6732,12.9208,.1501,3.4611,.6736,4.8401-4.1691,1.4613-5.3006l.5672,.2324,.986,.986c.3514,.4812,.3578,1.3745,.2515,1.7836,.0709-.2727,.1881-.1871-.1464,.3044,.1058-.1555,.1778-.3515,.2717-.5162,.3136-.5497,.6804-1.0707,1.0481-1.5849,.2075-.2902,.4193-.5772,.6333-.8625,.0991-.1321,.1992-.2635,.2991-.395,.4861-.6397-.1908,.2416,.1092-.1411,.4817-.6145,.9697-1.2239,1.4642-1.8282,2.0484-2.5036,4.2056-4.9362,6.872-6.8068,4.3496-3.0516,9.3453-4.301,14.615-4.3836,4.8827-.0766,10.2834,.338,14.766,2.4427,9.8499,4.6247,11.7803,16.1443,11.1617,25.9479-.068,1.0768-.3873,2.3419-.2934,3.4115-.0014-.0157,.4364-.3835,.2094-.1762-.2825,.258-.056,.0544,.1047-.0118-.2089,.0859-.4258,.1319-.6408,.1977-.1505,.0461-.3144,.0679-.4694,.0976,.5444-.1045-.0113,.0039-.1579,.0134-.4112,.0267-.8206,.0492-1.2328,.051-.9125,.0041-1.8247-.0561-2.7329-.1403-4.2546-.3943-8.4897-.799-12.7578-1.0875-13.6936-.9256-27.3925-1.7842-41.0714-2.9138-1.4813-.1223-2.7485,1.3508-2.7485,2.7485,0,1.5888,1.263,2.6258,2.7485,2.7485,13.5975,1.1229,27.2148,1.9781,40.827,2.8973,3.0018,.2027,6.0267,.3212,9.0193,.633,1.7619,.1836,3.5088,.4705,5.2798,.57,1.8499,.1039,3.8456,.0819,5.5928-.5954,1.0744-.4165,2.0627-1.0579,2.6821-2.0595,.9036-1.4612,.899-3.3092,1.0351-4.9717,.9543-11.66-1.4428-25.3989-12.6665-31.5421-5.2811-2.8905-11.5804-3.7057-17.5219-3.7617-6.2486-.0589-12.544,1.1952-17.8266,4.6651-3.7662,2.4738-6.7357,5.6915-9.5198,9.1771-1.716,2.1483-7.4858,8.4075-2.219,10.1713,.4871-1.7669,.9742-3.5337,1.4613-5.3006-4.8848-.9506-9.7709-1.0634-14.6919-.3372-4.3993,.6492-9.815,2.0546-11.2196,6.9183-1.9769,6.8454,5.6785,10.6961,11.001,12.1052,2.8604,.7573,5.8212,1.1817,8.7668,1.431,1.481,.1253,2.7485-1.3529,2.7485-2.7485,0-1.5912-1.2632-2.6228-2.7485-2.7485Z"/></g><path d="M269.3834,194.9224c1.1217,6.9615,2.2434,13.923,3.3651,20.8845,.1593,.9884,.3185,1.9768,.4778,2.9652,.2363,1.4666,2.0617,2.2822,3.381,1.9196,1.5602-.4288,2.1567-1.91,1.9196-3.381-1.1217-6.9615-2.2434-13.923-3.3651-20.8845-.1593-.9884-.3185-1.9768-.4778-2.9652-.2363-1.4666-2.0617-2.2822-3.381-1.9196-1.5602,.4288-2.1567,1.91-1.9196,3.381h0Z"/><path d="M281.3909,192.9875c1.1217,6.9615,2.2434,13.923,3.3651,20.8845,.1593,.9884,.3185,1.9768,.4778,2.9652,.2363,1.4666,2.0617,2.2822,3.381,1.9196,1.5602-.4288,2.1567-1.91,1.9196-3.381-1.1217-6.9615-2.2434-13.923-3.3651-20.8845-.1593-.9884-.3185-1.9768-.4778-2.9652-.2363-1.4666-2.0617-2.2822-3.381-1.9196-1.5602,.4288-2.1567,1.91-1.9196,3.381h0Z"/><path d="M293.3985,191.0526c1.1217,6.9615,2.2434,13.923,3.3651,20.8845,.1593,.9884,.3185,1.9768,.4778,2.9652,.2363,1.4666,2.0617,2.2822,3.381,1.9196,1.5602-.4288,2.1567-1.91,1.9196-3.381-1.1217-6.9615-2.2434-13.923-3.3651-20.8845-.1593-.9884-.3185-1.9768-.4778-2.9652-.2363-1.4666-2.0617-2.2822-3.381-1.9196-1.5602,.4288-2.1567,1.91-1.9196,3.381h0Z"/><path d="M234.8738,313.3147c-2.8615-14.5979-5.9522-30.9578-2.4209-45.687,.7619-3.1779,1.8937-6.4532,3.9679-9.0344,2.5695-3.1975,6.9807-3.5609,10.6008-4.8909,6.5483-2.4058,10.8907-9.198,7.4307-16.0145-3.3328-6.5657-10.0878-5.2836-16.0918-4.5131l2.6503,3.4791c1.9903-9.6671,3.9806-19.3341,5.971-29.0012,.7026-3.4124,2.1138-7.3864,1.8981-10.9209-.6107-10.0092-14.4046-10.5521-17.0776-1.4101,1.7996,.2436,3.5992,.4871,5.3988,.7307,1.3308-10.8062-14.0444-13.3446-17.0229-3.1239,1.7996,.2436,3.5992,.4871,5.3988,.7307,1.3308-10.8062-14.0444-13.3446-17.0229-3.1239,1.7996,.2436,3.5992,.4871,5.3988,.7307,.8839-7.2307-7.0864-12.4494-13.2871-8.4137-2.848,1.8536-3.6364,4.8072-4.2687,7.8783-1.7745,8.6188-3.549,17.2376-5.3235,25.8564-2.3342,11.3372-4.8755,22.6573-7.007,34.0354-5.2048,27.7834-8.118,56.2131-7.6163,84.4925,.3123,17.6046,2.4299,34.9477,5.7731,52.2221,3.0924,15.9781,8.1402,31.5997,19.6327,43.5616,7.7309,8.0467,23.1419,19.9245,34.8546,12.7673,9.0058-5.5031,8.8135-20.0449,4.1723-28.2502-2.991-5.2878-8.518-7.0675-13.014-10.7159-6.1401-4.9825-5.6749-14.6995-4.2931-21.6977,2.5998-13.1676,9.3065-25.5548,22.3434-30.7164,11.4168-4.5201,22.4812-.2132,27.1094,11.3397,3.7167,9.2777,3.7928,19.7393,4.2309,29.5842,.3996,8.9793,.5539,17.972,.3479,26.9587-.8387,36.589-8.5353,72.5694-26.6947,104.6149-18.0972,31.9356-44.1999,58.1011-68.6719,85.0897-25.4184,28.0324-47.684,58.288-67.0315,90.8131-9.5241,16.0111-18.6343,32.3609-26.8329,49.0939-6.9915,14.2694-13.2127,28.9274-20.9006,42.8488-7.7133,13.9673-17.0389,27.0681-29.3678,37.3434-5.4173,4.5149-14.3885,8.2378-15.6901,15.9513-1.1676,6.92,4.5378,12.4513,9.8761,15.8076,7.6854,4.8319,17.1211,7.7712,25.6944,10.5805,9.0369,2.9612,18.2696,5.3256,27.6183,7.0686,7.6505,1.4264,17.0675,2.9924,22.5469-4.0018,1.8328-2.3394,2.8624-5.3323,2.2934-8.3069-.6443-3.3683-3.9418-4.5094-7.0913-4.1723-7.9926,.8555-10.2243,9.8859-7.5583,16.3532,2.2651,5.4948,7.377,9.1565,13.0389,10.5818,14.8352,3.7344,26.8549-6.3988,33.9091-18.4942,4.3136-7.3962,7.4767-15.4825,10.8768-23.3229,3.5245-8.1272,6.9937-16.2782,10.466-24.4278,7.0678-16.5887,14.1474-33.1757,21.6773-49.5615,15.0499-32.7502,31.9186-65.1178,54.2069-93.5971,23.4948-30.0208,45.3345-61.4365,61.1695-96.2548,15.5951-34.2908,24.487-70.847,27.2689-108.3805,1.5133-20.4168,1.5966-40.984,1.6953-61.4483,.1007-20.857-.1687-41.715-.7284-62.5644-.8103-30.1858-3.0731-60.1706-6.2023-90.2004-.6513-6.2501-1.319-12.4991-2.043-18.7412l-.805,1.9435c5.4157-4.4824,14.4363-9.3944,13.044-17.625-.8874-5.2461-5.7781-8.9365-11.0491-8.5277-3.5029,.2717-6.6958,2.6562-9.6822,4.3254,1.3458,.5475,2.6917,1.0951,4.0375,1.6426-1.7395-9.6143-3.4791-19.2285-5.2186-28.8428-.6115-3.3795-.769-7.4911-2.2702-10.6423-4.1734-8.7607-17.334-4.8562-16.4008,4.6763l5.3988-.7307c-2.7431-10.3319-18.1436-7.9506-17.0771,2.8436l5.3988-.7307c-2.7431-10.3319-18.1436-7.9506-17.0771,2.8436,1.7996-.2436,3.5992-.4871,5.3988-.7307-1.9051-7.1496-11.5976-9.5747-15.7672-2.8497-1.9079,3.0772-1.2445,6.2431-.6522,9.5164,1.6807,9.2891,3.3614,18.5782,5.0421,27.8673,2.663,14.7185,5.0138,29.2243,6.5486,44.1216,1.6289,15.8114,3.1094,31.9379,2.0151,47.8354-.243,3.5308,5.255,3.5157,5.497,0,1.5978-23.2146-1.5407-47.0157-4.6699-69.997-1.7491-12.8461-4.483-25.5926-6.7906-38.3465-.7593-4.1968-1.5187-8.3936-2.278-12.5904-.1763-.9746-.4763-2.0094-.5429-3.0006-.282-4.1961,5.141-5.4351,6.2975-1.0951,.7732,2.9016,5.7111,2.4299,5.3988-.7307-.4317-4.3692,5.091-5.8587,6.2795-1.3823,.7708,2.9033,5.7109,2.4288,5.3988-.7307-.4317-4.3692,5.091-5.8587,6.2795-1.3823,.7709,2.9037,5.7081,2.4289,5.3988-.7307-.4605-4.7046,5.0586-5.5855,6.3338-1.0824,.2541,.8973,.3402,1.8803,.506,2.7966,.7693,4.252,1.5386,8.5039,2.308,12.7559,1.3148,7.2667,2.6296,14.5334,3.9443,21.8001,.3257,1.8001,2.6095,2.4407,4.0375,1.6426,2.2821-1.2755,5.3959-3.8413,8.1517-3.624,3.0698,.2422,5.0674,3.2575,4.2673,6.1604-.4704,1.7067-1.6729,2.6124-2.9485,3.6681-2.6214,2.1697-5.6003,4.1971-7.9922,6.6149-1.1625,1.1751-1.2446,2.0596-1.1153,3.5582,1.4136,16.3821,3.5151,32.7105,4.9316,49.0981,2.2064,25.5259,3.1095,51.0639,3.582,76.6777,.5829,31.602,.7366,63.3177-.7173,94.8998-1.3184,28.6391-5.8526,57.0623-14.6687,84.3792-8.9402,27.7016-22.1134,53.8017-37.672,78.3493-7.7464,12.2219-16.07,24.0739-24.7719,35.6328-8.4998,11.2905-17.3965,22.2138-25.2426,33.9856-15.1701,22.7604-27.7189,47.1601-39.1888,71.9564-11.4651,24.7859-21.841,50.0516-32.6891,75.1087-4.87,11.2488-9.1605,24.1875-17.787,33.2123-6.9015,7.2201-19.5648,11.3989-27.8978,3.7524-1.7655-1.62-3.093-3.8384-3.4595-6.2283-.5089-3.3186,1.9331-8.4102,5.9107-5.9789-.421-.5475-.8421-1.0951-1.2631-1.6426,1.776,6.2058-6.1334,8.1161-10.603,7.8493-5.7964-.346-11.6856-1.8666-17.3221-3.2002-11.6561-2.7578-23.1072-6.478-34.134-11.1593-7.8553-3.3349-21.8096-11.3396-10.4288-19.703,7.7704-5.7103,15.0711-11.4918,21.4503-18.7896,12.5527-14.3601,21.2373-31.4404,29.3148-48.5797,8.9228-18.9328,18.1764-37.5743,28.4732-55.8101,11.4535-20.2843,23.8198-40.0744,37.482-58.9499,13.2244-18.2707,27.9178-35.2564,43.1506-51.8642,29.3646-32.0153,59.4247-64.095,75.6583-105.1204,7.8558-19.8532,12.2586-40.8649,14.1431-62.0978,.9574-10.787,1.2685-21.6244,1.1373-32.4508-.1369-11.293-.2847-22.8494-1.9884-34.0308-1.2835-8.4232-4.1261-17.4873-10.9091-23.1375-4.8683-4.0551-11.1509-5.8322-17.4372-5.2266-13.9248,1.3416-25.8097,11.7177-30.8885,24.4357-3.7528,9.3974-6.3823,20.4648-3.4399,30.4518,2.3162,7.8616,8.4754,10.2303,14.5266,14.7332,4.946,3.6805,6.206,11.2746,5.0808,17.0136-.5402,2.7556-1.7199,5.6922-4.1745,7.272-3.1684,2.0392-7.6515,1.1947-10.9887,.0692-8.3429-2.8137-15.5198-9.4597-20.9414-16.2101-6.3701-7.9314-9.9576-17.693-12.4128-27.4594-5.2634-20.9367-7.5771-42.7078-7.6922-64.2645-.1588-29.735,3.0831-59.8327,9.4672-88.888,3.5751-16.2709,6.7593-32.6346,10.1187-48.9515,.2165-1.0515,.381-2.1314,.6527-3.1704,1.1994-4.5856,6.8973-3.5329,6.3162,1.2212-.3853,3.1517,4.5609,3.6059,5.3988,.7307,1.2941-4.4408,6.7615-2.6913,6.2253,1.6626-.3881,3.1512,4.561,3.6056,5.3988,.7307,1.2941-4.4408,6.7615-2.6913,6.2253,1.6626-.3882,3.1525,4.5587,3.6036,5.3988,.7307,1.2352-4.2244,6.6211-2.8967,6.2423,1.3264-.0859,.958-.4006,1.9459-.5942,2.8861-.8809,4.2783-1.7617,8.5567-2.6426,12.835-1.4661,7.1207-2.9321,14.2413-4.3982,21.362-.3165,1.5375,.75,3.723,2.6503,3.4791,2.4475-.3141,5.4437-1.2047,7.9151-.8434,4.8862,.7143,4.789,7.3212,1.2615,9.6363-3.6059,2.3666-8.3706,2.3233-12.0614,4.6652-3.3824,2.1462-5.4731,5.8343-6.902,9.4742-3.2953,8.3944-3.2935,18.0484-2.709,26.9164,.5818,8.8264,2.0086,17.5828,3.7086,26.2556,.6798,3.4682,5.9791,2,5.3006-1.4613h0Z"/><path d="M208.3529,190.643c-1.4607,6.6463-2.9214,13.2926-4.3821,19.9389-.2081,.9469-.4162,1.8939-.6243,2.8408-.3184,1.4485,.4358,2.9732,1.9196,3.381,1.3758,.378,3.0609-.4634,3.381-1.9196,1.4607-6.6463,2.9214-13.2926,4.3821-19.9389,.2081-.9469,.4162-1.8939,.6243-2.8408,.3184-1.4485-.4358-2.9732-1.9196-3.381-1.3758-.378-3.0609,.4634-3.381,1.9196h0Z"/><path d="M220.2161,193.3242c-1.4607,6.6463-2.9214,13.2926-4.3821,19.9389-.2081,.9469-.4162,1.8939-.6243,2.8408-.3184,1.4485,.4358,2.9732,1.9196,3.381,1.3758,.378,3.0609-.4634,3.381-1.9196,1.4607-6.6463,2.9214-13.2926,4.3821-19.9389,.2081-.9469,.4162-1.8939,.6243-2.8408,.3184-1.4485-.4358-2.9732-1.9196-3.381-1.3758-.378-3.0609,.4634-3.381,1.9196h0Z"/><path d="M232.0794,196.0054c-1.4607,6.6463-2.9214,13.2926-4.3821,19.9389-.2081,.9469-.4162,1.8939-.6243,2.8408-.3184,1.4485,.4358,2.9732,1.9196,3.381,1.3758,.378,3.0609-.4634,3.381-1.9196,1.4607-6.6463,2.9214-13.2926,4.3821-19.9389,.2081-.9469,.4162-1.8939,.6243-2.8408,.3184-1.4485-.4358-2.9732-1.9196-3.381-1.3758-.378-3.0609,.4634-3.381,1.9196h0Z"/><path d="M211.3805,237.0981c7.9117-2.2429,16.2319-1.8199,23.9142,1.0904,1.3884,.526,3.0138-.5836,3.381-1.9196,.4245-1.5449-.5262-2.8531-1.9196-3.381-8.5389-3.2348-18.0603-3.5784-26.8368-1.0904-3.3979,.9632-1.9537,6.2687,1.4613,5.3006h0Z"/><path d="M564.1159,804.3157c-30.4649-12.8499-54.4476-39.4275-63.7162-71.1984-5.0597-17.3437-5.9592-35.9624-2.3826-53.6859,.7897-3.9135,1.6426-7.9648,3.0414-11.7139,.5351-1.4342,1.4561-3.8522,2.9474-4.5941,2.0509-1.0203,3.1564,.4858,3.7621,2.2398,1.0905,3.1579,.3138,6.5442-.5198,9.6512-1.1761,4.384-2.8354,8.6067-4.8864,12.6534-7.6043,15.0034-19.569,26.9667-31.1022,38.9548-12.1066,12.5841-22.2994,26.9159-31.5661,41.6757-9.4849,15.1074-18.1554,30.7493-26.6862,46.4104-9.1539,16.805-17.8846,34.2907-24.2878,52.3573-3.9089,11.0291-4.9167,22.9155-8.9011,33.9673-.9131,2.5326-1.9677,5.0399-3.418,7.3176-1.7112,2.6874-3.1225,3.891-6.48,2.7503-8.3716-2.8442-14.0597-11.215-14.1633-19.9429l-2.7485,2.7485c2.7109,.233,2.3772,4.6332,1.8287,6.3556-.8105,2.5455-2.651,4.6811-4.8204,6.19-4.8646,3.3836-11.1998,3.2869-16.8155,2.3515-11.1666-1.8599-23.0071-6.093-33.0249-11.3467-9.6527-5.0622-17.1088-14.6803-10.9418-25.4576,2.537-4.4336,6.1668-8.0847,9.4514-11.9525,3.0208-3.5571,5.7795-7.3359,8.2702-11.2819,10.8731-17.2268,16.8796-36.9127,24.8131-55.5358,8.7413-20.5192,21.0058-39.5455,33.768-57.7664,27.0033-38.5533,58.7532-73.4189,87.8823-110.3202,28.3255-35.8832,54.4341-74.1306,70.2817-117.3129,8.0332-21.8892,13.0556-44.4969,12.6477-67.9052-.1991-11.4282-1.5075-22.8126-3.3668-34.0818-1.9122-11.5895-3.8396-23.6203-7.571-34.785-2.7266-8.1584-7.1133-16.6076-14.9594-20.8751-5.9554-3.2391-13.0188-3.4963-19.3836-1.3278-15.34,5.2266-23.6842,19.6658-25.7554,34.9949-1.2398,9.176-1.1207,20.4869,5.0814,28.0349,4.4609,5.4288,12.2452,5.4017,16.8635,10.2909,4.1666,4.411,6.1098,12.3252,4.0759,18.1064-2.7755,7.8894-12.8657,6.0471-18.9822,3.7024-19.0996-7.3219-29.7947-24.9408-36.5467-43.2634-7.149-19.4001-12.3735-39.2282-15.4171-59.685-4.1809-28.101-5.366-57.0089-3.5926-85.3774,1.0318-16.505,1.6561-33.0427,2.4646-49.5602,.056-1.1449,.0119-2.3463,.1705-3.4827,.5789-4.1501,6.235-4.4575,6.382,.0638,.1183,3.6391,5.0526,3.4144,5.497,0,.5443-4.1823,6.2298-3.4334,6.3568,.5802,.1151,3.6395,5.0527,3.4138,5.497,0,.5443-4.1823,6.2298-3.4334,6.3568,.5802,.1151,3.641,5.0498,3.412,5.497,0,.5925-4.5204,6.1242-3.0492,6.3395,.9331,.0518,.959-.0965,1.9712-.1434,2.9293-.2134,4.361-.4269,8.722-.6403,13.083-.3565,7.2843-.7131,14.5686-1.0696,21.8529-.0872,1.7811,1.8272,3.1285,3.4791,2.6503,2.3079-.6681,5.5265-2.2516,7.9898-1.9625,5.3856,.6321,4.635,7.6646,1.1461,10.0286-3.3322,2.2578-7.3954,3.1805-10.4373,5.9295-2.8624,2.5868-4.3904,6.5685-5.1752,10.2672-1.8494,8.7158-.4901,17.9654,1.3783,26.5585,1.8808,8.6503,4.6346,17.0828,7.6475,25.397,1.1959,3.3002,6.5099,1.8758,5.3006-1.4613-5.13-14.1564-10.6871-29.8574-9.5574-45.1345,.245-3.3136,.9025-6.9022,2.674-9.7727,2.0729-3.3587,6.1769-4.416,9.4742-6.1887,6.0815-3.2696,9.3454-10.419,5.2417-16.6905-4.2246-6.4564-11.1546-4.005-17.1437-2.2713,1.1597,.8834,2.3194,1.7669,3.4791,2.6503,.4863-9.9363,.9727-19.8726,1.459-29.8088,.1763-3.601,1.1038-8.2425-.2011-11.7249-1.4183-3.7847-5.3651-6.1608-9.372-5.5312-4.3692,.6866-6.8202,4.1029-7.366,8.2667h5.497c-.1482-4.6868-3.4455-8.8281-8.3852-8.9654-5.0496-.1404-8.3547,3.6925-8.9654,8.3852h5.497c-.1482-4.6868-3.4455-8.8281-8.3852-8.9654-5.0496-.1404-8.3547,3.6925-8.9654,8.3852h5.497c-.2978-9.1569-12.7287-12.4897-16.6012-3.6407-1.2455,2.846-.9275,6.6984-1.0762,9.7356-.5921,12.0981-1.1843,24.1961-1.7764,36.2942-.8964,18.3136-1.5819,36.5414-.7783,54.8905,.8825,20.1496,3.0263,40.3171,7.1089,60.0809,2.194,10.6213,5.0619,21.0371,8.5603,31.3002,3.57,10.473,7.1339,21.0406,12.7639,30.6275,4.7905,8.1574,10.9798,14.9848,18.6914,20.4554,7.0537,5.0039,16.0113,9.5909,24.9168,9.04,16.238-1.0045,17.6321-20.4469,9.5662-31.3171-2.2334-3.01-5.0043-4.7031-8.3965-6.1846-3.1787-1.3883-6.8298-2.4907-9.2553-5.1017-7.2522-7.8067-5.2551-22.3742-2.8896-31.6978,3.4299-13.5188,19.0011-29.3136,34.1113-22.9264,9.7111,4.105,13.4846,15.7633,15.808,25.1251,3.0747,12.389,5.4507,25.0911,7.0689,37.7522,3.2091,25.1101,1.6277,49.7295-5.6483,74.0152-14.0946,47.0449-41.4807,88.6603-71.4966,127.0064-30.356,38.7805-63.7625,75.184-91.9551,115.641-13.2987,19.084-25.6837,38.9411-34.6053,60.4767-8.1161,19.5912-14.5291,40.4522-27.2782,57.6957-5.7799,7.8175-14.7185,14.7182-16.5222,24.7859-1.8264,10.1946,4.9154,18.9698,13.2139,24.0232,4.6885,2.8551,9.9073,4.8254,15.013,6.7917,5.8845,2.2662,11.8638,4.3309,18.0122,5.7603,10.0147,2.3282,22.1053,2.8039,29.2236-5.9953,4.6508-5.749,5.7307-18.0608-4.0801-18.904-1.4699-.1263-2.7649,1.3615-2.7485,2.7485,.0973,8.2005,3.943,15.9267,10.3885,21.0044,4.9432,3.8943,12.5413,7.4718,17.8103,2.3864,3.8394-3.7057,5.815-9.3703,7.4335-14.3111,2.0677-6.3119,3.5097-12.8129,4.9596-19.288,3.7655-16.8164,11.0839-32.4191,18.7397-47.8098,9.0647-18.2233,19.1522-36.0649,29.6122-53.5222,10.4305-17.4082,21.8303-34.4395,35.9427-49.1085,12.7308-13.2329,26.1273-26.64,33.6789-43.6793,3.0013-6.7722,6.5842-15.4367,4.2431-22.9285-2.2129-7.0819-10.2823-8.9224-14.8091-2.6734-2.2572,3.1159-3.2034,7.0452-4.1545,10.7087-1.3072,5.0351-2.2385,10.1555-2.8697,15.3179-1.2042,9.8486-1.1134,19.8112,.1806,29.6457,5.4285,41.2564,33.0191,76.5948,71.2387,92.7156,3.2544,1.3727,4.6763-3.9445,1.4613-5.3006h0Z"/><path d="M802.874,643.4033c-7.9887,20.9696-24.2321,37.642-38.3626,54.6001-14.9478,17.9389-29.6364,36.1086-43.5098,54.8961-13.9683,18.9161-27.5831,38.4353-38.4843,59.3093-10.5631,20.2267-18.6601,41.5938-26.785,62.8798-2.2729,5.9547-4.5525,11.9071-6.8977,17.8338-1.2236,3.0923-2.4641,6.1779-3.7309,9.2528-1.2383,3.0057-2.2462,6.4321-3.9058,9.2266-1.1177,1.882-1.9617,2.0661-4.0727,1.4579-1.2519-.3606-2.4798-.8276-3.6624-1.3712-2.4247-1.1146-4.7405-2.5582-6.7847-4.2732-4.1313-3.4661-7.2929-7.9222-9.1385-12.9901-.421,1.0346-.8421,2.0693-1.2631,3.1039,1.7524-.804,1.92,3.3031,1.3048,4.1826-1.4117,2.0186-4.5209,2.5525-6.7819,2.8199-5.43,.6421-11.1028,.3768-16.5233-.2105-11.3747-1.2323-23.2772-4.592-33.066-10.6374-4.4607-2.7548-10.1649-7.3435-9.9389-13.1738,.1745-4.5014,3.6497-8.1596,6.6371-11.1864,6.4366-6.5215,12.425-12.7601,17.2088-20.656,9.9867-16.4836,15.685-35.1265,23.0095-52.8404,8.4241-20.3733,20.4928-39.2986,32.9934-57.3823,27.0674-39.1565,59.1762-74.4213,88.6943-111.68,28.37-35.8094,54.5922-73.8951,70.7347-116.9277,8.1763-21.7966,13.4924-44.3798,13.3415-67.7584-.0737-11.4126-1.2814-22.7862-3.067-34.0497-1.8479-11.6568-3.8607-23.6196-7.3078-34.924-2.5834-8.472-6.7306-17.2807-14.5158-22.1263-5.7671-3.5895-12.8533-4.1632-19.3032-2.2726-15.375,4.5068-24.3875,18.9124-26.6764,34.015-1.3906,9.1755-1.5544,20.1929,3.9848,28.1672,1.9232,2.7686,4.5368,4.6821,7.5658,6.0978,3.035,1.4185,6.6318,2.318,9.247,4.47,4.745,3.9044,6.7305,11.8632,5.4026,17.7022-1.9069,8.3849-11.201,7.7759-17.7998,5.58-19.7223-6.563-31.0213-24.7841-37.8875-43.2492-7.2419-19.4755-12.514-39.4274-15.5863-59.9822-4.2121-28.1809-5.4083-57.1718-3.634-85.6239,1.0298-16.5132,1.6572-33.0586,2.4661-49.5842,.056-1.1436,.012-2.347,.1705-3.4827,.5789-4.1501,6.235-4.4575,6.382,.0638,.1183,3.6391,5.0526,3.4144,5.497,0,.5443-4.1823,6.2298-3.4334,6.3568,.5802,.1151,3.6395,5.0527,3.4138,5.497,0,.5443-4.1823,6.2298-3.4334,6.3568,.5802,.1151,3.641,5.0498,3.412,5.497,0,.5925-4.5204,6.1242-3.0492,6.3395,.9331,.0518,.959-.0965,1.9712-.1434,2.9293-.2134,4.361-.4269,8.722-.6403,13.083-.3565,7.2843-.7131,14.5686-1.0696,21.8529-.0872,1.7811,1.8272,3.1285,3.4791,2.6503,2.3079-.6681,5.5265-2.2516,7.9898-1.9625,5.3856,.6321,4.635,7.6646,1.1461,10.0286-3.3322,2.2578-7.3954,3.1805-10.4373,5.9295-2.8624,2.5868-4.3904,6.5685-5.1752,10.2672-1.8494,8.7158-.4901,17.9654,1.3783,26.5585,1.8808,8.6503,4.6346,17.0828,7.6475,25.397,1.1959,3.3002,6.5099,1.8758,5.3006-1.4613-5.13-14.1564-10.6871-29.8574-9.5574-45.1345,.245-3.3136,.9025-6.9022,2.674-9.7727,2.0729-3.3587,6.1769-4.416,9.4742-6.1887,6.0815-3.2696,9.3454-10.419,5.2417-16.6905-4.2246-6.4564-11.1546-4.005-17.1437-2.2713l3.4791,2.6503c.4863-9.9363,.9727-19.8726,1.459-29.8088,.1763-3.601,1.1038-8.2425-.2011-11.7249-1.4183-3.7847-5.3651-6.1608-9.372-5.5312-4.3692,.6866-6.8202,4.1029-7.366,8.2667h5.497c-.1482-4.6868-3.4455-8.8281-8.3852-8.9654-5.0496-.1404-8.3547,3.6925-8.9654,8.3852h5.497c-.1482-4.6868-3.4455-8.8281-8.3852-8.9654-5.0496-.1404-8.3547,3.6925-8.9654,8.3852h5.497c-.2978-9.159-12.7283-12.4906-16.6012-3.6407-1.2457,2.8465-.9275,6.6969-1.0762,9.7356-.5966,12.1883-1.1931,24.3765-1.7897,36.5648-.9159,18.7124-1.58,37.3357-.6987,56.0824,.9575,20.3681,3.2036,40.7606,7.4829,60.7111,2.2972,10.7097,5.3923,21.1198,8.8845,31.4922,3.521,10.4578,7.3392,20.9971,13.2397,30.3845,5.0242,7.9931,11.5639,14.6142,19.4608,19.7846,7.2836,4.7688,16.4283,8.8835,25.3332,7.3911,15.5057-2.5987,14.3671-23.7106,5.6002-32.8963-4.9854-5.2236-13.6969-5.0212-17.5979-11.4477-5.4688-9.0091-3.8561-22.6264-.681-32.1663,4.4435-13.3509,21.5106-28.0688,35.8405-19.1498,9.2977,5.7869,12.1864,18.3206,14.3838,28.2511,2.77,12.5181,5.2026,25.1616,6.582,37.9156,2.7252,25.197,.1725,49.5985-7.5177,73.7358-15.0367,47.1957-43.2456,88.7514-73.7463,127.2502-30.9046,39.0087-64.6207,75.8812-92.5522,117.1767-12.6934,18.7667-24.2067,38.2284-32.574,59.3212-7.4605,18.8068-13.6645,39.2809-26.4847,55.3114-5.5824,6.9803-14.4675,12.4184-17.6271,21.0745-3.7713,10.3319,5.0468,18.9147,13.3,23.5794,10.0523,5.6816,21.5785,8.9636,32.9959,10.3303,5.8272,.6975,11.8324,.962,17.6829,.3752,4.1387-.4151,8.5954-1.5066,11.2721-4.9591,4.4792-5.7774-1.0818-15.6805-8.4382-12.3051-1.0204,.4682-1.6458,2.053-1.2631,3.1039,3.193,8.7677,9.5329,16.2198,17.9837,20.331,3.6309,1.7664,9.1186,4.324,12.9177,1.8019,1.741-1.1558,2.5322-3.0287,3.3405-4.8791,1.2579-2.8798,2.4684-5.7821,3.6684-8.6864,9.532-23.0705,17.5377-46.7589,27.6644-69.5857,20.5274-46.2715,52.5343-86.7284,84.5666-125.5239,16.5684-20.0666,36.3719-39.5466,45.7943-64.2797,1.2606-3.3089-4.0516-4.7399-5.3006-1.4613h0Z"/><path d="M191.9762,461.2025c11.8748,31.6717-3.4821,65.2106-7.8664,96.8629-4.3987,31.7566-4.4406,65.5313,7.2715,95.8429,8.4844,21.958,24.7092,41.3973,47.7365,48.6201,27.4619,8.6137,57.0331-1.9914,78.981-18.9131,23.0881-17.8009,40.0662-42.3272,54.6574-67.2387,14.202-24.247,26.6955-49.4587,41.4447-73.3934,13.6591-22.1658,29.9047-44.0275,52.7315-57.4382,23.4831-13.7963,53.3647-17.0566,78.1603-4.584,26.2501,13.2042,36.7908,41.1106,36.9617,69.1466,.1963,32.2065-12.4887,61.9749-19.1902,92.9991-3.1422,14.5468-6.0608,30.9312-1.8936,45.5576,3.4721,12.1865,12.8003,23.5485,25.9311,25.3643,12.0448,1.6656,23.5957-4.8139,32.7918-11.9132,10.8671-8.3893,20.0833-18.8435,28.6344-29.5218,19.2181-23.9985,34.415-50.84,47.9735-78.3521,6.8895-13.9799,13.3849-28.1488,19.8648-42.3218,5.502-12.0339,10.6475-24.2831,16.6869-36.061,5.7057-11.1271,12.5022-21.8896,21.9835-30.1971,10.3926-9.1059,23.903-14.6539,37.7798-14.6773,14.918-.0251,28.8873,6.5368,37.6963,18.6921,8.1774,11.2837,11.76,25.3731,11.9949,39.1649,.3004,17.6393-4.1807,34.8596-8.4626,51.831-4.2932,17.0164-8.3978,34.1122-10.9908,51.4837-3.8885,26.0508-4.4721,52.7369,3.438,78.0834,5.5468,17.7736,14.4762,37.0551,30.192,48.0345,7.0953,4.957,15.6943,7.4485,24.3384,6.4522,5.0762-.5851,9.9423-2.1789,14.5096-4.4508,7.0044-3.4841,12.7425-8.9566,19.5649-12.7386,5.6607-3.138,13.5774-5.2373,19.5262-1.6228,6.0123,3.6531,6.2039,12.2745,1.3801,16.9434l4.3167,.5563c-.6662-1.285,2.107-1.9986,2.4669-1.9609,.7384,.0773,1.5497,.7101,2.1227,1.1167,1.3483,.9568,2.4051,2.352,3.3573,3.6789,1.6891,2.3536,3.1653,4.8636,4.4594,7.4539,2.6766,5.3577,4.4382,11.1459,5.7183,16.9826,2.3163,10.5607,3.8148,22.1257,3.5713,32.9621-.0835,3.7145-.4952,8.1943-2.8702,11.2397-3.542,4.5416-9.896,2.5151-14.0477,.039-5.0162-2.9917-9.3936-6.4282-15.0486-8.24-4.6662-1.495-9.6717-1.9265-14.5387-1.4571-10.7688,1.0387-20.9006,5.3383-31.3419,7.8934-10.7635,2.6339-21.8074,3.9607-32.8867,4.0236-21.9613,.1245-43.9558-4.6565-63.9704-13.6835-22.5503-10.1706-42.4795-25.4416-58.0475-44.6708-2.2265-2.7501-6.0945,1.1602-3.8869,3.8869,31.5298,38.945,81.53,62.0867,131.7244,59.8155,12.8433-.5811,25.4189-2.9379,37.7228-6.6144,11.6906-3.4933,23.9551-7.9644,35.9485-3.1081,9.3169,3.7726,21.3154,16.7647,31.4469,6.8807,6.9085-6.7397,5.3946-18.4021,4.6936-27.036-1.1851-14.5975-3.09-29.6496-10.0037-42.7894-2.8302-5.3788-7.3051-13.4401-14.1781-13.8905-5.4654-.3581-9.7293,5.2925-7.158,10.252,.8322,1.6052,3.1013,1.7326,4.3167,.5563,8.6619-8.3838,5.5133-23.3651-6.0243-27.1796-14.3434-4.7422-25.9572,6.7753-37.0477,13.679-8.7417,5.4416-19.214,8.0637-29.1808,4.5897-8.7534-3.0511-15.7024-10.1145-20.9249-17.5434-32.2816-45.9205-20.6054-105.5318-7.9135-155.9891,7.4134-29.4725,15.757-62.0047,.6814-90.5713-6.3205-11.9767-16.6009-21.4042-29.5681-25.6279-13.2344-4.3107-27.9239-3.1215-40.6498,2.2727-23.9353,10.1457-36.7714,32.8965-47.0742,55.4658-12.4168,27.2001-24.4169,54.6272-38.2998,81.1259-14.5238,27.7223-31.3195,54.54-52.8259,77.4251-8.6354,9.1889-18.8228,18.6989-31.0137,22.7794-14.1516,4.7367-27.1928-2.8165-32.4388-16.5238-5.6946-14.8796-2.2871-32.451,1.0639-47.4877,3.6819-16.5217,9.0421-32.6029,13.1361-49.0187,6.7157-26.9282,9.7212-56.9253-1.445-83.1366-10.6711-25.0492-34.1792-40.2395-60.8984-42.924-26.6454-2.6771-52.3668,7.8445-72.255,25.1775-19.7497,17.2123-33.8207,39.9631-46.7443,62.4636-14.4594,25.1745-27.2856,51.3559-43.2327,75.6522-16.2499,24.7576-36.7741,48.8472-64.3293,61.2204-25.3811,11.397-55.17,10.1225-76.0107-9.5671-21.3655-20.1854-28.4071-51.5272-29.6127-79.8401-.7221-16.9586,.6811-34.0028,3.3837-50.7431,2.587-16.024,7.3834-31.6018,9.8522-47.6487,2.3305-15.148,2.4023-30.534-3.0414-45.0533-1.2306-3.2822-6.5462-1.8607-5.3006,1.4613h0Z"/><g><path d="M472.9317,410.6391s17.7189,10.524,32.3804,2.8315c-2.3425,7.3254-11.925,13.8143-11.925,13.8143,0,0-2.3919-8.8826-7.5358-9.6304-5.1439-.7478-12.9195-7.0155-12.9195-7.0155Z"/><path d="M471.5445,413.0123c3.5699,2.1114,7.6544,3.6218,11.6531,4.6575,7.8423,2.0313,16.186,1.9331,23.5017-1.826l-4.0375-3.1039c-1.0743,3.2192-3.653,6.1152-6.2444,8.5452-1.0631,.9969-2.1755,1.939-3.3229,2.8373,.483-.3781-.0203,.0125-.2169,.1585-.1565,.1162-.3174,.2272-.4722,.3455-.1309,.1-.2691,.1926-.4054,.2853,1.3458,.5475,2.6917,1.0951,4.0375,1.6426-1.201-4.4104-3.8802-9.7566-8.4942-11.3083-1.3211-.4443-2.6913-.5813-3.9917-1.137-1.1495-.4912-2.881-1.4739-4.1762-2.283-1.1684-.7298-2.3077-1.5068-3.4205-2.3189-.3856-.2814-.7625-.5742-1.1462-.8581,.7601,.5625,.2457,.1905,.0665,.0465-1.156-.929-2.7573-1.1296-3.8869,0-.962,.962-1.1631,2.9522,0,3.8869,1.5479,1.2439,3.1658,2.4097,4.8306,3.4914,2.6589,1.7278,5.6393,3.4917,8.779,4.1382,.3367,.0693,.6763,.1157,1.012,.1899,.1568,.0347,.7099,.2506,.2706,.056,.3017,.1337,.5865,.3107,.8593,.4951,.2577,.184,.2724,.1945,.0441,.0314,.1299,.1108,.2563,.2254,.3793,.3438,.9551,.9168,1.2901,1.4644,2.0118,2.8091,.2686,.5005,.5018,1.015,.7428,1.5288,.211,.4497-.1315-.3751,.1348,.3366,.0866,.2313,.1761,.4613,.2591,.694,.155,.4346,.3038,.8734,.4251,1.3188,.4409,1.6191,2.5543,2.651,4.0375,1.6426,5.4987-3.7387,11.0433-9.0298,13.1881-15.4569,.8049-2.4121-2.0348-4.133-4.0375-3.1039-6.2219,3.1971-13.3889,2.8864-19.8719,1.1104-1.3983-.3831-2.7783-.8328-4.1359-1.3413-.5514-.2065-1.0988-.4232-1.6427-.6487,.5966,.2473-.2833-.1247-.3872-.1707-.2513-.1113-.5016-.2246-.7509-.3402-.955-.4427-1.9103-.9046-2.8172-1.441-3.0518-1.805-5.8203,2.945-2.7744,4.7465Z"/></g><path d="M486.4679,196.9624c2.1744,6.698,4.3488,13.396,6.5232,20.0939,.312,.961,.6239,1.922,.9359,2.883,.4582,1.4114,1.9034,2.3257,3.381,1.9196,1.3848-.3806,2.3799-1.9633,1.9196-3.381-2.1744-6.698-4.3488-13.396-6.5232-20.0939-.312-.961-.6239-1.922-.9359-2.883-.4582-1.4114-1.9034-2.3257-3.381-1.9196-1.3848,.3806-2.3799,1.9633-1.9196,3.381h0Z"/><path d="M498.0361,193.2069c2.1744,6.698,4.3488,13.396,6.5232,20.0939,.312,.961,.6239,1.922,.9359,2.883,.4582,1.4114,1.9034,2.3257,3.381,1.9196,1.3848-.3806,2.3799-1.9633,1.9196-3.381-2.1744-6.698-4.3488-13.396-6.5232-20.0939l-.9359-2.883c-.4582-1.4114-1.9034-2.3257-3.381-1.9196-1.3848,.3806-2.3799,1.9633-1.9196,3.381h0Z"/><path d="M509.6042,189.4513c2.1744,6.698,4.3488,13.396,6.5232,20.0939l.9359,2.883c.4582,1.4114,1.9034,2.3257,3.381,1.9196,1.3848-.3806,2.3799-1.9633,1.9196-3.381-2.1744-6.698-4.3488-13.396-6.5232-20.0939-.312-.961-.6239-1.922-.9359-2.883-.4582-1.4114-1.9034-2.3257-3.381-1.9196-1.3848,.3806-2.3799,1.9633-1.9196,3.381h0Z"/><path d="M588.2869,481.8923c1.0661-20.5459-.5921-41.1078-3.4313-61.453-2.8884-20.6981-7.0696-41.1871-11.3388-61.6362-3.6778-17.6165-6.9659-35.3284-10.9053-52.8878-3.3134-14.769-6.9944-29.4557-10.8038-44.1037-1.4396-5.5358-2.9019-11.0658-4.3872-16.5895-.7451-2.7712-1.3484-5.6477-2.2721-8.3667-.0441-.1297-.0733-.2663-.1098-.3985-.2356,.8914-.4712,1.7828-.7068,2.6741,2.8228-3.1844,5.7449-6.303,8.4726-9.569,3.4186-4.0934,3.3924-10.1206-.3266-14.0344-3.1394-3.3038-8.2531-4.0556-12.2727-2.0027-2.435,1.2436-4.6093,3.4077-6.7536,5.0851l4.5938,1.2128c-2.1402-6.185-4.2805-12.37-6.4207-18.555-1.4447-4.175-2.8894-8.3499-4.3341-12.5249-.7481-2.1618-1.3215-4.7032-2.4987-6.6904-2.2617-3.818-7.0787-5.4157-11.1273-3.5938-3.9969,1.7985-5.9259,6.4012-4.6479,10.5464,1.7669-.4871,3.5337-.9742,5.3006-1.4613-1.6934-4.3883-6.2608-7.1191-10.9291-5.5869-4.534,1.4881-6.977,6.4032-5.5869,10.9291,1.7669-.4871,3.5337-.9742,5.3006-1.4613-1.6934-4.3883-6.2608-7.1191-10.9291-5.5869-4.534,1.4881-6.977,6.4032-5.5869,10.9291,1.7669-.4871,3.5337-.9742,5.3006-1.4613-1.5692-4.0796-5.4334-6.6181-9.8521-5.8511-4.1101,.7135-7.0959,4.5652-7.0403,8.6921,.0327,2.4273,1.2103,4.9113,1.9917,7.1695,3.1887,9.2148,6.3773,18.4297,9.566,27.6445,1.9125,5.5268,3.9479,11.0274,5.737,16.5957,2.5981,8.0863,4.7844,16.3339,6.9352,24.5467,3.5477,13.5466,6.9685,27.3746,8.6578,41.2515,.1844,1.5151,.3419,3.033,.4687,4.5539,.1234,1.4793,1.1749,2.7485,2.7485,2.7485,1.3913,0,2.8726-1.2608,2.7485-2.7485-1.1196-13.4221-4.1736-26.7065-7.4068-39.7528-2.486-10.0311-5.2246-20.0041-8.1966-29.9022-1.1814-3.9345-2.599-7.7937-3.9422-11.6753-3.2087-9.2726-6.4173-18.5453-9.626-27.8179-1.1206-3.2385-2.2413-6.477-3.3619-9.7155-.1904-.5502-.3958-1.0975-.5718-1.6525-.6953-2.1925,.5753-4.8939,3.2029-4.5942,1.1417,.1302,2.219,.8723,2.6407,1.9688,.5326,1.3846,1.8488,2.3407,3.381,1.9196,1.4029-.3855,2.3572-1.9565,1.9196-3.381-.509-1.6574,.0374-3.4727,1.7476-4.1672,1.5855-.6439,3.5413,.1255,4.1672,1.7476,.5341,1.384,1.8477,2.341,3.381,1.9196,1.4029-.3855,2.3572-1.9565,1.9196-3.381-.509-1.6574,.0374-3.4727,1.7476-4.1672,1.5855-.6439,3.5413,.1255,4.1672,1.7476,.5341,1.384,1.8477,2.341,3.381,1.9196,1.4017-.3852,2.3587-1.957,1.9196-3.381-.6594-2.1386,.6904-4.5903,3.1548-4.3797,1.3976,.1194,2.4135,1.1291,2.9055,2.3806,.8495,2.1608,1.5252,4.4078,2.2843,6.6014,2.6627,7.695,5.3255,15.39,7.9882,23.0849,.6982,2.0177,1.3964,4.0355,2.0946,6.0532,.7279,2.1036,2.9358,2.5097,4.5938,1.2128,.9733-.7613,1.9466-1.5227,2.9198-2.284,.5456-.4268,1.0879-.8582,1.637-1.2805,.1091-.084,.2138-.1756,.3262-.2552-.6287,.4451,.6485-.3685,.7841-.43,3.3292-1.5103,7.3569,1.3347,6.8516,5.1277-.3264,2.4502-2.9213,4.5465-4.4634,6.2862-1.6448,1.8555-3.357,3.6694-4.9427,5.5759-1.2296,1.4783-.6696,2.8336-.24,4.4038,.5368,1.9622,1.0691,3.9256,1.5986,5.8898,1.8842,6.9903,3.7315,13.9906,5.5419,21.0004,4.6906,18.1618,9.2693,36.3881,12.9282,54.7901,4.9423,24.8565,10.4627,49.6095,15.0279,74.5392,4.6326,25.2977,8.1522,50.9559,7.7916,76.7289-.0434,3.1028-.1486,6.2041-.3094,9.303-.1834,3.5354,5.314,3.5255,5.497,0h0Z"/><path d="M425.6302,202.8172c-.4224,6.783-.8448,13.566-1.2672,20.349l-.1824,2.9293c-.0924,1.4831,1.3293,2.7485,2.7485,2.7485,1.5647,0,2.6558-1.261,2.7485-2.7485,.4224-6.783,.8448-13.566,1.2672-20.349,.0608-.9764,.1216-1.9529,.1824-2.9293,.0924-1.4831-1.3293-2.7485-2.7485-2.7485-1.5647,0-2.6558,1.261-2.7485,2.7485h0Z"/><path d="M437.7645,203.6453c-.4224,6.783-.8448,13.566-1.2672,20.349-.0608,.9764-.1216,1.9529-.1824,2.9293-.0924,1.4831,1.3293,2.7485,2.7485,2.7485,1.5647,0,2.6558-1.261,2.7485-2.7485,.4224-6.783,.8448-13.566,1.2672-20.349,.0608-.9764,.1216-1.9529,.1824-2.9293,.0924-1.4831-1.3293-2.7485-2.7485-2.7485-1.5647,0-2.6558,1.261-2.7485,2.7485h0Z"/><path d="M449.8987,204.4733c-.4224,6.783-.8448,13.566-1.2672,20.349l-.1824,2.9293c-.0924,1.4831,1.3293,2.7485,2.7485,2.7485,1.5647,0,2.6558-1.261,2.7485-2.7485,.4224-6.783,.8448-13.566,1.2672-20.349,.0608-.9764,.1216-1.9529,.1824-2.9293,.0924-1.4831-1.3293-2.7485-2.7485-2.7485-1.5647,0-2.6558,1.261-2.7485,2.7485h0Z"/><path d="M436.0301,247.8082c7.1702-3.2926,15.4141-4.1693,23.1242-2.5415,1.4511,.3064,2.9709-.4274,3.381-1.9196,.3754-1.3662-.4606-3.0729-1.9196-3.381-9.2616-1.9554-18.7668-.8503-27.3599,3.0956-1.349,.6195-1.6828,2.5693-.986,3.7604,.8102,1.3851,2.4064,1.6078,3.7604,.986h0Z"/><g><path d="M517.2734,333.4457c8.8952,1.1751,7.0239,12.8162,9.734,18.692,.3601-1.2402,.3337-2.5068,.5904-3.7861,.2673-1.3359,1.3519-2.7472,2.6943-2.5147,1.3964,.2419,1.8929,1.9605,2.0844,3.3647,2.6165,19.1892,2.3213,38.7728-.8722,57.8745-2.2234-2.8888-4.0487-6.5662-6.5319-9.1928-.5027-.5317-5.3555-4.4488-5.2661-4.5143,5.1586-3.7827,7.0437-11.413,4.2401-17.1627-1.0153-2.0823-2.7472-4.0095-5.0271-4.4202-3.0777-.5545-5.9304,1.7859-7.7621,4.3206-2.3314,3.2265-3.8388,7.0434-4.3411,10.9922-.6834-4.1769,.2339-10.0866-2.5664-13.471-3.1953-3.8617-8.395-4.0803-13.0254-4.0999-7.1674-.0302-14.3348-.0604-21.5023-.091-2.418-7.7796-2.9831-17.2097-.9363-25.1774,.9299-3.6197,3.0923-7.1031,6.4543-8.7352,1.2115-.5881,2.6228-.9186,3.9099-.5225,.6986,.215,1.3217,.6329,1.8572,1.1303,1.9177,1.7813,2.7049,4.6863,1.9489,7.1921-.1679,.5566-.5674,1.1927-1.1436,1.1151-.2409-.0325-.4452-.1905-.6208-.3586-2.2067-2.1131-1.2971-5.8998,.5126-8.3614,3.2772-4.4576,12.0071-10.29,17.8022-8.6559,2.5005,.7051,4.4449,2.7647,5.5952,5.0942s1.6124,4.9299,2.0161,7.4963c2.5293-3.3093,6.0265-6.7531,10.1559-6.2083Z"/><path d="M516.5427,336.096c.5276,.0778,1.0314,.1975,1.5445,.3399,.1649,.0458,.5699,.2158,.2068,.0546,.2309,.1025,.4503,.2269,.6695,.3518,.0562,.032,.6025,.3994,.3277,.1975-.2603-.1912,.2773,.2453,.2772,.2452,.1434,.138,.2776,.2848,.4186,.4248,.1535,.1523,.3343,.402,.1,.0907,.2672,.3549,.4973,.7405,.7069,1.1316,.0976,.1822,.1882,.3676,.2772,.554,.3478,.7286-.1703-.4927,.1142,.2757,.3206,.8656,.5735,1.7512,.7844,2.6495,.876,3.7299,1.0822,7.5779,2.6645,11.1135,.9882,2.2081,4.4794,1.4895,5.0235-.6566,.2667-1.052,.3513-2.1232,.495-3.1953,.0368-.2747,.1823-.6757,.1633-.9234-.0405-.5281,.4728-.1495-.3538-.1891-.1407-.0067-.6486-.3611-.697-.3527,.0993-.0173,.2105,.4878,.2491,.6408,.2081,.8234,.2906,1.6722,.3956,2.5134,.5596,4.4841,.9606,8.9879,1.2034,13.5002,.4768,8.8636,.3427,17.7599-.401,26.6051-.419,4.9839-1.0399,9.9442-1.8584,14.8781l5.0235-.6566c-2.4684-3.2595-4.2463-7.2992-7.3095-10.0697-.9049-.8184-1.8678-1.5778-2.8045-2.3592-.6814-.5685-1.553-1.123-2.1107-1.8215l.7068,1.2128-.003-.013c-.421,1.0346-.8421,2.0693-1.2631,3.1039,5.5925-4.2226,8.3222-11.7193,6.1939-18.5232-1.0891-3.4816-3.5508-7.0691-7.282-8.0061-4.0905-1.0272-7.9679,1.366-10.4352,4.4783-2.8899,3.6453-4.7755,8.0672-5.4044,12.6769h5.3006c-.206-1.3487-.2157-3.5415-.314-5.2069-.1177-1.9945-.2984-4.0707-.9757-5.9644-1.4812-4.1412-5.1358-6.7978-9.3464-7.7506-4.3741-.9898-9.0213-.6727-13.4702-.6914-5.2127-.022-10.4254-.044-15.6381-.0663l2.6503,2.0178c-2.3093-7.5546-2.9633-16.0187-.9363-23.7161,.7497-2.8467,2.4016-5.9653,5.2829-7.1338,1.3806-.5599,2.2945-.1307,3.0868,1.1058,.3397,.5301,.5717,1.1549,.6586,1.7795,.0485,.3491,.0587,.7794,.0157,1.1263-.0444,.2451-.1025,.487-.1744,.7255,.0594-.2206,.1903-.4021,.3926-.5445,.4624-.1251,.9248-.2502,1.3872-.3752l.1226-.0132,1.2128,.7068c-.5444-.4383-.7139-.7645-.763-1.171-.0899-.7453,.0383-1.2422,.2689-1.9542,.4646-1.4346,1.0744-2.1169,2.0036-3.1041,2.1928-2.3295,4.9276-4.2708,7.8782-5.531,.5995-.256,1.2853-.4884,1.938-.6717,.6669-.1873,1.3948-.3393,1.8118-.3726,1.4111-.1126,2.5276-.0314,3.8669,.9903,2.938,2.2414,3.5043,6.4446,4.0419,9.8315,.1655,1.0428,1.3231,1.8543,2.285,1.9687,1.1923,.1419,2.0314-.3967,2.7386-1.3122,1.9003-2.4601,4.4684-5.1899,7.7827-4.847,1.4787,.153,2.7485-1.3727,2.7485-2.7485,0-1.6134-1.2656-2.5951-2.7485-2.7485-5.3963-.5583-9.5165,3.6695-12.5291,7.5696l5.0235,.6566c-.6571-4.14-1.6585-8.3265-4.6207-11.4701-2.7702-2.9397-6.5391-3.8323-10.4189-3.148-3.4113,.6017-6.7019,2.3314-9.4839,4.3485-2.6534,1.9238-5.4654,4.2938-6.8873,7.3231-.8104,1.7265-1.3555,3.6197-1.1641,5.5441,.2131,2.1432,1.3547,4.6989,3.5538,5.4404,2.5009,.8432,4.5036-1.1166,4.9954-3.4494,.4546-2.1562,.2085-4.3179-.6853-6.3261-.797-1.791-2.2247-3.489-4.0119-4.3562-2.2324-1.0832-4.6084-.8434-6.8231,.1533-3.6721,1.6525-6.124,5.0852-7.519,8.7555-1.6571,4.3599-2.0061,9.4573-1.9075,14.0804,.1033,4.8446,.8596,9.7144,2.2763,14.3489,.3559,1.1644,1.4175,2.0126,2.6503,2.0178,4.8869,.0208,9.7738,.0415,14.6607,.0621,3.9118,.0165,8.0629-.3016,11.9196,.293,3.0397,.4687,5.9344,1.861,6.7834,4.7631,.9795,3.3483,.5487,7.0469,1.0801,10.5257,.3981,2.6063,4.94,2.6434,5.3006,0,.5095-3.7343,1.8118-7.3875,4.113-10.4075,.9179-1.2046,2.2688-2.5904,3.8169-2.901,1.3056-.262,2.3938,.444,3.2011,1.4584,3.4625,4.3507,2.0676,11.7349-2.2783,15.0163-1.0241,.7732-1.5664,1.8045-1.2631,3.1039,.261,1.118,1.4238,1.8781,2.2478,2.5687,1.0205,.8553,2.053,1.697,3.0626,2.5652,2.888,2.4833,4.4915,6.228,6.7647,9.2298,.6796,.8975,1.5478,1.4913,2.7386,1.3122,.9837-.1479,2.1074-.8983,2.285-1.9687,1.731-10.435,2.6789-20.9924,2.7325-31.5716,.0262-5.1643-.1537-10.3299-.5416-15.4797-.1939-2.5749-.4387-5.146-.7361-7.711-.2729-2.354-.2814-5.0574-1.3854-7.208-1.2787-2.4909-4.2298-3.5595-6.6886-2.0263-2.7884,1.7387-2.4739,4.8187-3.1783,7.5969l5.0235-.6566c.2693,.6017-.0351-.0901-.0655-.1789-.0763-.2226-.1546-.4433-.2249-.668-.1343-.4297-.2489-.8655-.3538-1.3032-.2343-.9777-.4132-1.9678-.5851-2.958-.3478-2.0041-.6478-4.0272-1.2169-5.984-1.2823-4.4091-4.1406-8.1568-8.9304-8.8629-1.4667-.2162-2.9538,.3651-3.381,1.9196-.3557,1.2945,.442,3.1631,1.9196,3.381Z"/></g><g><path d="M740.4506,410.6391s17.7189,10.524,32.3804,2.8315c-2.3425,7.3254-11.925,13.8143-11.925,13.8143,0,0-2.3919-8.8826-7.5358-9.6304-5.1439-.7478-12.9195-7.0155-12.9195-7.0155Z"/><path d="M739.0634,413.0123c3.5699,2.1114,7.6544,3.6218,11.6531,4.6575,7.8423,2.0313,16.186,1.9331,23.5017-1.826l-4.0375-3.1039c-1.0743,3.2192-3.653,6.1152-6.2444,8.5452-1.0631,.9969-2.1755,1.939-3.3229,2.8373,.483-.3781-.0203,.0125-.2169,.1585-.1565,.1162-.3174,.2272-.4722,.3455-.1309,.1-.2691,.1926-.4054,.2853,1.3458,.5475,2.6917,1.0951,4.0375,1.6426-1.201-4.4104-3.8802-9.7566-8.4942-11.3083-1.3211-.4443-2.6913-.5813-3.9917-1.137-1.1495-.4912-2.881-1.4739-4.1762-2.283-1.1684-.7298-2.3077-1.5068-3.4205-2.3189-.3856-.2814-.7625-.5742-1.1462-.8581,.7601,.5625,.2457,.1905,.0665,.0465-1.156-.929-2.7573-1.1296-3.8869,0-.962,.962-1.1631,2.9522,0,3.8869,1.5479,1.2439,3.1658,2.4097,4.8306,3.4914,2.6589,1.7278,5.6393,3.4917,8.779,4.1382,.3367,.0693,.6763,.1157,1.012,.1899,.1568,.0347,.7099,.2506,.2706,.056,.3017,.1337,.5865,.3107,.8593,.4951,.2577,.184,.2724,.1945,.0441,.0314,.1299,.1108,.2563,.2254,.3793,.3438,.9551,.9168,1.2901,1.4644,2.0118,2.8091,.2686,.5005,.5018,1.015,.7428,1.5288,.211,.4497-.1315-.3751,.1348,.3366,.0866,.2313,.1761,.4613,.2591,.694,.155,.4346,.3038,.8734,.4251,1.3188,.4409,1.6191,2.5543,2.651,4.0375,1.6426,5.4987-3.7387,11.0433-9.0298,13.1881-15.4569,.8049-2.4121-2.0348-4.133-4.0375-3.1039-6.2219,3.1971-13.3889,2.8864-19.8719,1.1104-1.3983-.3831-2.7783-.8328-4.1359-1.3413-.5514-.2065-1.0988-.4232-1.6427-.6487,.5966,.2473-.2833-.1247-.3872-.1707-.2513-.1113-.5016-.2246-.7509-.3402-.955-.4427-1.9103-.9046-2.8172-1.441-3.0518-1.805-5.8203,2.945-2.7744,4.7465Z"/></g><path d="M753.9869,196.9624c2.1744,6.698,4.3488,13.396,6.5232,20.0939l.9359,2.883c.4582,1.4114,1.9034,2.3257,3.381,1.9196,1.3848-.3806,2.3799-1.9633,1.9196-3.381-2.1744-6.698-4.3488-13.396-6.5232-20.0939-.312-.961-.6239-1.922-.9359-2.883-.4582-1.4114-1.9034-2.3257-3.381-1.9196-1.3848,.3806-2.3799,1.9633-1.9196,3.381h0Z"/><path d="M765.555,193.2069c2.1744,6.698,4.3488,13.396,6.5232,20.0939,.312,.961,.6239,1.922,.9359,2.883,.4582,1.4114,1.9034,2.3257,3.381,1.9196,1.3848-.3806,2.3799-1.9633,1.9196-3.381-2.1744-6.698-4.3488-13.396-6.5232-20.0939-.312-.961-.6239-1.922-.9359-2.883-.4582-1.4114-1.9034-2.3257-3.381-1.9196-1.3848,.3806-2.3799,1.9633-1.9196,3.381h0Z"/><path d="M777.1232,189.4513c2.1744,6.698,4.3488,13.396,6.5232,20.0939,.312,.961,.6239,1.922,.9359,2.883,.4582,1.4114,1.9034,2.3257,3.381,1.9196,1.3848-.3806,2.3799-1.9633,1.9196-3.381-2.1744-6.698-4.3488-13.396-6.5232-20.0939-.312-.961-.6239-1.922-.9359-2.883-.4582-1.4114-1.9034-2.3257-3.381-1.9196-1.3848,.3806-2.3799,1.9633-1.9196,3.381h0Z"/><path d="M855.8059,481.8923c1.0661-20.5459-.5921-41.1078-3.4313-61.453-2.8884-20.6981-7.0696-41.1871-11.3388-61.6362-3.6778-17.6165-6.9659-35.3284-10.9053-52.8878-3.3134-14.769-6.9944-29.4557-10.8038-44.1037-1.4396-5.5358-2.9019-11.0658-4.3872-16.5895-.7451-2.7712-1.3484-5.6477-2.2721-8.3667-.0441-.1297-.0733-.2663-.1098-.3985l-.7068,2.6741c2.8228-3.1844,5.7449-6.303,8.4726-9.569,3.4186-4.0934,3.3924-10.1206-.3266-14.0344-3.1394-3.3038-8.2531-4.0556-12.2727-2.0027-2.435,1.2436-4.6093,3.4077-6.7536,5.0851l4.5938,1.2128c-2.1402-6.185-4.2805-12.37-6.4207-18.555-1.4447-4.175-2.8894-8.3499-4.3341-12.5249-.7481-2.1618-1.3215-4.7032-2.4987-6.6904-2.2617-3.818-7.0787-5.4157-11.1273-3.5938-3.9969,1.7985-5.9259,6.4012-4.6479,10.5464,1.7669-.4871,3.5337-.9742,5.3006-1.4613-1.6934-4.3883-6.2608-7.1191-10.9291-5.5869-4.534,1.4881-6.977,6.4032-5.5869,10.9291,1.7669-.4871,3.5337-.9742,5.3006-1.4613-1.6934-4.3883-6.2608-7.1191-10.9291-5.5869-4.534,1.4881-6.977,6.4032-5.5869,10.9291,1.7669-.4871,3.5337-.9742,5.3006-1.4613-1.5692-4.0796-5.4334-6.6181-9.8521-5.8511-4.1101,.7135-7.0959,4.5652-7.0403,8.6921,.0327,2.4273,1.2103,4.9113,1.9917,7.1695,3.1887,9.2148,6.3773,18.4297,9.566,27.6445,1.9125,5.5268,3.9479,11.0274,5.737,16.5957,2.5981,8.0863,4.7844,16.3339,6.9352,24.5467,3.5477,13.5466,6.9685,27.3746,8.6578,41.2515,.1844,1.5151,.3419,3.033,.4687,4.5539,.1234,1.4793,1.1749,2.7485,2.7485,2.7485,1.3913,0,2.8726-1.2608,2.7485-2.7485-1.1196-13.4221-4.1736-26.7065-7.4068-39.7528-2.486-10.0311-5.2246-20.0041-8.1966-29.9022-1.1814-3.9345-2.599-7.7937-3.9422-11.6753-3.2087-9.2726-6.4173-18.5453-9.626-27.8179-1.1206-3.2385-2.2413-6.477-3.3619-9.7155-.1904-.5502-.3958-1.0975-.5718-1.6525-.6953-2.1925,.5753-4.8939,3.2029-4.5942,1.1417,.1302,2.219,.8723,2.6407,1.9688,.5326,1.3846,1.8488,2.3407,3.381,1.9196,1.4029-.3855,2.3572-1.9565,1.9196-3.381-.509-1.6574,.0374-3.4727,1.7476-4.1672,1.5855-.6439,3.5413,.1255,4.1672,1.7476,.5341,1.384,1.8477,2.341,3.381,1.9196,1.4029-.3855,2.3572-1.9565,1.9196-3.381-.509-1.6574,.0374-3.4727,1.7476-4.1672,1.5855-.6439,3.5413,.1255,4.1672,1.7476,.5341,1.384,1.8477,2.341,3.381,1.9196,1.4017-.3852,2.3587-1.957,1.9196-3.381-.6594-2.1386,.6904-4.5903,3.1548-4.3797,1.3976,.1194,2.4135,1.1291,2.9055,2.3806,.8495,2.1608,1.5252,4.4078,2.2843,6.6014,2.6627,7.695,5.3255,15.39,7.9882,23.0849,.6982,2.0177,1.3964,4.0355,2.0946,6.0532,.7279,2.1036,2.9358,2.5097,4.5938,1.2128,.9733-.7613,1.9466-1.5227,2.9198-2.284,.5456-.4268,1.0879-.8582,1.637-1.2805,.1091-.084,.2138-.1756,.3262-.2552-.6287,.4451,.6485-.3685,.7841-.43,3.3292-1.5103,7.3569,1.3347,6.8516,5.1277-.3264,2.4502-2.9213,4.5465-4.4634,6.2862-1.6448,1.8555-3.357,3.6694-4.9427,5.5759-1.2296,1.4783-.6696,2.8336-.24,4.4038,.5368,1.9622,1.0691,3.9256,1.5986,5.8898,1.8842,6.9903,3.7315,13.9906,5.5419,21.0004,4.6906,18.1618,9.2693,36.3881,12.9282,54.7901,4.9423,24.8565,10.4627,49.6095,15.0279,74.5392,4.6326,25.2977,8.1522,50.9559,7.7916,76.7289-.0434,3.1028-.1486,6.2041-.3094,9.303-.1834,3.5354,5.314,3.5255,5.497,0h0Z"/><path d="M693.1492,202.8172c-.4224,6.783-.8448,13.566-1.2672,20.349-.0608,.9764-.1216,1.9529-.1824,2.9293-.0924,1.4831,1.3293,2.7485,2.7485,2.7485,1.5647,0,2.6558-1.261,2.7485-2.7485,.4224-6.783,.8448-13.566,1.2672-20.349,.0608-.9764,.1216-1.9529,.1824-2.9293,.0924-1.4831-1.3293-2.7485-2.7485-2.7485-1.5647,0-2.6558,1.261-2.7485,2.7485h0Z"/><path d="M705.2834,203.6453c-.4224,6.783-.8448,13.566-1.2672,20.349-.0608,.9764-.1216,1.9529-.1824,2.9293-.0924,1.4831,1.3293,2.7485,2.7485,2.7485,1.5647,0,2.6558-1.261,2.7485-2.7485,.4224-6.783,.8448-13.566,1.2672-20.349l.1824-2.9293c.0924-1.4831-1.3293-2.7485-2.7485-2.7485-1.5647,0-2.6558,1.261-2.7485,2.7485h0Z"/><path d="M717.4177,204.4733c-.4224,6.783-.8448,13.566-1.2672,20.349-.0608,.9764-.1216,1.9529-.1824,2.9293-.0924,1.4831,1.3293,2.7485,2.7485,2.7485,1.5647,0,2.6558-1.261,2.7485-2.7485,.4224-6.783,.8448-13.566,1.2672-20.349,.0608-.9764,.1216-1.9529,.1824-2.9293,.0924-1.4831-1.3293-2.7485-2.7485-2.7485-1.5647,0-2.6558,1.261-2.7485,2.7485h0Z"/><path d="M703.549,247.8082c7.1702-3.2926,15.4141-4.1693,23.1242-2.5415,1.4511,.3064,2.9709-.4274,3.381-1.9196,.3754-1.3662-.4606-3.0729-1.9196-3.381-9.2616-1.9554-18.7668-.8503-27.3599,3.0956-1.349,.6195-1.6828,2.5693-.986,3.7604,.8102,1.3851,2.4064,1.6078,3.7604,.986h0Z"/><g><path d="M782.4973,341.9839c7.9041,2.1096,15.1807,7.1473,18.5219,14.5548,2.2623,5.0155,2.5919,10.671,2.5773,16.1731-.0172,6.5078-.4671,13.0144-1.3458,19.4627-.3504,2.5718-2.638,16.5218-6.8309,14.0379-1.2545-.7432-1.7981-4.7293-2.3738-6.0002-1.3514-2.9834-3.2861-4.685-5.792-6.7487,4.7468-4.3448,7.2214-11.0836,4.2112-17.2573-1.0153-2.0823-2.7472-4.0095-5.0271-4.4202-3.0777-.5545-5.9304,1.7858-7.762,4.3206-2.3241,3.2162-3.694,6.9085-4.3451,10.8014-.9891-5.9796,.4902-10.072-6.7608-9.6002-5.8857,.3829-11.8237,.2834-14.547-6.0072-.9537,2.9447-4.4731,3.8007-7.2352,3.3064-3.8881-.6958-7.4116-3.2081-9.3366-6.657-1.925-3.449-2.2137-7.7668-.7649-11.4413,2.6394-6.6942,10.0086-10.0953,16.8777-12.2389,8.717-2.7203,17.9771-4.4802,26.9768-2.9334,.9909,.1703,1.9785,.3865,2.9564,.6475Z"/><path d="M781.7667,344.6342c5.8811,1.6051,11.6123,4.8914,15.0699,10.0432,4.1788,6.2266,4.1437,13.9882,3.9687,21.2067-.1507,6.2155-.541,12.5276-1.7229,18.6434-.4035,2.0879-.8898,4.1713-1.5748,6.1863-.0791,.2325-.1609,.4641-.2465,.6943-.0378,.1015-.2777,.7132-.1666,.445,.1146-.2766-.1796,.394-.2311,.4998-.1083,.2226-.2215,.4431-.3437,.6584-.0978,.1723-.2139,.336-.3089,.5092-.2511,.4576,.0669-.0375-.0029,.0307-.1292,.126-.2929,.2735-.3979,.4171-.2344,.3209,.4733-.3019,.0176-.0472-.2498,.1397,.3827-.1539,.3447-.1437-.3646,.0976,.2968-.0244,.3439-.0228-.419-.0148,.7112,.1398,.1255,.026-.1403-.0273,.6351,.2432,.5324,.3773,.0226-.0295,.0822,.2371-.0311-.0791-.0542-.1513-.1572-.2951-.223-.443,.1668,.375-.1201-.4003-.161-.5288-.1059-.3328-.2005-.669-.2928-1.0057-.1799-.6563-.3324-1.3222-.5371-1.9714-1.137-3.6061-3.8988-6.2709-6.7314-8.6099v3.8869c5.2814-4.9347,8.0139-12.6024,5.1146-19.5163-1.4704-3.5064-4.2741-6.5754-8.2575-6.9076-3.944-.3288-7.2978,2.4598-9.5176,5.4206-2.5707,3.4289-4.1249,7.5743-4.8564,11.7736h5.3006c-.3063-1.9235-.2199-4.9008-.9982-7.1285-.9744-2.7893-3.2599-4.1675-6.1158-4.4618-1.4978-.1543-3.001,.0378-4.5003,.0818-.7231,.0212-1.4469,.0257-2.1699-.002-.6877-.0263-1.4181-.0851-1.8375-.1575-2.9414-.5073-4.68-1.7516-5.9633-4.596-.439-.973-1.7669-1.4583-2.7386-1.3122-1.136,.1708-1.8973,.9028-2.285,1.9687-.1678,.4614-.6294,.8324-1.0675,1.0369-.7294,.3405-1.474,.4051-2.2969,.3787-1.5945-.0512-3.8588-.9638-5.4156-2.1811-3.6966-2.8905-5.0582-8.0118-3.3279-12.3739,1.5881-4.0038,5.4191-6.5337,9.1764-8.3081,4.6969-2.2182,9.9557-3.5743,15.0318-4.5776,6.3473-1.2546,12.9892-1.5497,19.2935,.0894,3.4262,.8908,4.8878-4.4098,1.4613-5.3006-7.0551-1.8343-14.4029-1.5544-21.5176-.2234-6.2453,1.1683-12.7097,2.9469-18.3588,5.9206-5.051,2.6588-9.6326,6.9307-10.9104,12.6976-1.4403,6.5004,1.139,13.1221,6.5551,16.9559,5.1305,3.6317,14.1028,4.4256,16.6771-2.6529l-5.0235,.6566c1.4169,3.1405,3.9134,5.4154,7.1465,6.578,2.8712,1.0325,6.0886,1.0031,9.0946,.8322,.7978-.0454,1.5937-.1066,2.3933-.0623,.1204,.0067,.92,.1397,.381,.0298,.235,.0479,.4637,.13,.6974,.1766,.2999,.1089,.2782,.0975-.065-.034,.1172,.0594,.2307,.1254,.3403,.1978,.0453-.1829-.5323-.2469,.0079,.0487,.4889,.2675-.4025-.2849-.0017,.0279,.062,.1073,.1187,.2173,.1703,.33-.15-.3656-.1728-.4043-.0682-.1162,.0661,.4117,.2108,.8216,.2862,1.2358,.0472,.3133,.0467,.3-.0013-.04,.0195,.1618,.0375,.3237,.0541,.4858,.0247,.255,.0496,.5099,.0727,.7651,.1362,1.5045,.2848,3.0028,.5226,4.4957,.4207,2.6418,4.8466,2.6064,5.3006,0,.6299-3.6157,1.8254-7.1903,4.068-10.1449,1.4873-1.9595,4.1407-4.2463,6.4318-2.1793,2.1307,1.9222,2.8455,5.2751,2.4622,8.0197-.4487,3.2126-2.3067,6.0125-4.6327,8.1858-1.0113,.9449-1.1201,2.962,0,3.8869,1.3736,1.1343,2.8165,2.2894,3.913,3.7073,.9483,1.2263,1.2804,1.9721,1.6446,3.3292,.7177,2.674,1.457,5.9991,4.5846,6.6977,5.3874,1.2033,7.4154-6.6114,8.3286-10.376,1.4823-6.1108,2.0333-12.4749,2.362-18.7356,.4538-8.6434,.8168-18.1664-3.325-26.0536-3.9361-7.4954-11.5814-12.4565-19.5904-14.6425-3.4173-.9327-4.8754,4.3688-1.4613,5.3006Z"/></g><g><path d="M254.4634,367.779c2.8774,6.4887,4.3908,13.5786,4.4137,20.6766,.0029,.9122,.0364,1.9524,.7312,2.5435,.0793-3.0806,.347-6.2351,1.6468-9.0292,1.2999-2.7941,3.8211-5.1911,6.8787-5.5757,3.5056-.441,6.9189,1.8798,8.7172,4.9212,2.9604,5.0068,1.9586,12.0115-2.2867,15.9877,1.2617,2.4679,3.3589,4.8987,5.8798,6.0896-.4113-6.5418,3.9417-12.6353,2.908-19.4007-.8752-5.7278-3.1847-12.3789-5.588-17.5958"/><path d="M252.0902,369.1662c1.6659,3.8035,2.8042,7.86,3.4698,11.9553,.3194,1.9652,.4844,3.956,.5452,5.9456,.0659,2.1567-.0393,4.2015,1.5597,5.8755,1.6946,1.7741,4.6252,.3714,4.692-1.9435,.0971-3.368,.3312-7.2282,2.6886-9.8736,2.0334-2.2818,4.8936-2.6381,7.3616-.773,4.7942,3.6229,4.2417,11.1183,.214,15.0071-.9058,.8745-.9943,2.2596-.4298,3.3307,1.5396,2.9211,3.8794,5.5875,6.8658,7.0756,1.7561,.8751,4.2426-.1597,4.1357-2.3732-.3074-6.3654,3.5729-12.138,3.0084-18.5755-.5981-6.82-3.2403-13.6349-6.0636-19.8081-.6174-1.35-2.5707-1.6819-3.7604-.986-1.3867,.8111-1.6057,2.4054-.986,3.7604,1.3066,2.8569,2.423,5.7985,3.3601,8.797,.9011,2.8836,1.8975,6.0163,2.0037,9.0555,.1006,2.8802-.7712,5.6456-1.5524,8.3843-.8697,3.049-1.661,6.1755-1.5067,9.3723l4.1357-2.3732c-2.2172-1.1049-3.7525-2.9384-4.8937-5.1035-.1433,1.1102-.2865,2.2205-.4298,3.3307,5.008-4.8353,6.2496-12.9073,2.8893-19.0156-1.7593-3.1981-5.0136-5.8803-8.6722-6.4707-3.8678-.6241-7.6086,1.029-10.0492,4.048-3.0337,3.7526-3.681,8.5082-3.816,13.1908,1.564-.6478,3.128-1.2956,4.692-1.9435,.1199,.1256,.067,.1209,.0846-.077,.0418-.4696-.0119-.9777-.0222-1.4488-.0203-.9256-.065-1.8506-.1351-2.7737-.1644-2.1654-.4539-4.3302-.8596-6.4635-.7831-4.1173-2.1034-8.0666-3.7828-11.9009-.5956-1.3599-2.5853-1.6734-3.7604-.986-1.403,.8206-1.5839,2.3953-.986,3.7604h0Z"/></g><g><path d="M796.2668,363.4241c-2.6116-4.9651-.1494-11.6375,4.6413-14.5567,4.7907-2.9192,11.1565-2.4225,16.051,.3191,3.8809,2.1739,7.8619,5.7804,12.1093,4.4588,4.6356-1.4423,5.567-7.4325,8.0788-11.587,3.3141-5.4815,10.3435-8.0913,16.6679-7.0757,6.3244,1.0156,11.8466,5.2035,15.4912,10.471,5.1071,7.3813,6.4334,18.3043,.364,24.917-1.5163,1.652-3.9701,2.9958-5.9259,1.8989-2.7746-1.5562-1.4713-5.9379,.816-8.1488,6.4751-6.2588,17.7579-5.9896,24.6582-.2031,6.9004,5.7866,9.2955,15.9656,6.8032,24.6194-2.4923,8.6538-9.3225,15.6787-17.4319,19.5949-7.7546,3.7448-17.0586,4.8115-25.0382,1.5736-5.8781-2.3852-11.22-8.6149-9.1266-14.6031,.624-1.785,2.3791-3.5142,4.1848-2.9528,.5911,.1838,1.086,.5896,1.5309,1.0199,5.3113,5.1382,4.5533,14.6756-.6744,19.8988-5.2277,5.2232-13.6586,6.328-20.6709,3.996-7.0123-2.3321-12.718-7.6131-17.0447-13.6039-4.3267-5.9909-7.4585-12.7402-10.8906-19.2848"/><path d="M798.64,362.0369c-1.8725-3.7283,.2032-8.8395,3.992-10.9944,2.2978-1.3069,5.0836-1.65,7.6786-1.2733,2.8745,.4172,5.2575,1.7316,7.6724,3.2599,2.683,1.698,5.4371,3.37,8.6775,3.6244,2.8377,.2228,5.6787-1.0969,7.5132-3.2331,3.2668-3.804,3.792-9.2779,7.6282-12.6391,3.7182-3.2579,9.1424-3.9455,13.7056-2.595,5.109,1.512,9.4743,5.3564,12.2098,9.8648,2.5879,4.265,3.9667,9.6893,2.9041,14.5158-.5188,2.3566-1.5605,4.7701-3.4329,6.3968-.3912,.3399-.8594,.7063-1.3568,.8667-.0605,.0195-.7565,.0854-.6884,.0672,.2985-.08-.6016-.0011-.131-.0794l.0914,.147c-.1538-.2846-.1785-.2996-.0739-.0449-.0482-.1712-.1074-.3392-.1362-.5154,.1099,.6723,.0809-.8019,.0107-.2333,.5112-4.1383,6.2397-6.52,10.1026-6.8493,4.8618-.4145,9.7931,1.048,13.3474,4.5151,3.6234,3.5344,5.6006,8.5481,5.8467,13.5497,.263,5.3459-1.3731,10.4089-4.3777,14.8191-6.3271,9.2873-18.6695,15.1357-29.8725,13.4182-5.052-.7745-10.8606-3.3155-12.7858-8.4446-.379-1.0097-.554-2.0392-.4441-2.9621,.0637-.5346,.4775-2.4993,1.3229-2.4776-.3815-.0098,.1098,.3235,.1533,.3732,.2695,.3078,.7136,.7411,.8695,.9476,.7815,1.035,1.2129,1.9985,1.5399,3.163,1.1868,4.2269-.134,9.164-3.4825,12.2844-3.6674,3.4176-9.1448,4.4929-13.9952,3.7824-12.3397-1.8075-19.9642-13.5518-25.3192-23.6503-1.5562-2.9346-3.0367-5.9086-4.5766-8.8518-1.6406-3.1356-6.3864-.3599-4.7465,2.7744,6.8129,13.0216,13.5249,27.7808,28.0953,33.6077,6.2697,2.5073,13.5461,2.4259,19.6579-.4946,6.0257-2.8794,9.86-8.7903,10.2542-15.4216,.1838-3.0917-.5054-6.3166-2.0602-9.0052-1.8428-3.1868-5.1658-6.1975-9.0104-4.3259-3.3616,1.6365-4.5476,5.8893-4.0936,9.3386,.4489,3.4107,2.322,6.4775,4.7895,8.828,5.304,5.0524,13.1069,6.7753,20.2467,6.1792,7.2346-.6041,14.2394-3.3055,20.007-7.715,5.442-4.1605,9.7775-9.6731,11.9649-16.213,2.1352-6.3839,1.7675-13.5044-.8693-19.6758-2.5739-6.0242-7.4503-10.7427-13.7019-12.7977-5.9495-1.9557-13.0182-1.3994-18.3172,2.0661-2.6677,1.7447-4.9909,4.1448-5.7534,7.3344-.7954,3.3272,.5058,7.1146,4.1578,7.9686,3.9397,.9213,7.3189-1.997,9.4057-5.0003,1.8807-2.7067,2.807-5.9392,3.1073-9.1914,1.2473-13.506-9.7579-27.3747-23.2576-28.9086-6.6015-.7501-13.5486,2.0165-17.5399,7.3644-1.7361,2.3262-2.6121,5.1185-3.8933,7.6926-.6013,1.2081-1.202,2.2-1.9992,2.9888-.2093,.2071-.6003,.5186-1.1349,.7516-.1895,.0826-1.1528,.2805-1.6986,.2374-3.0875-.2437-5.8716-2.9015-8.4974-4.3578-3.106-1.7226-6.6714-2.7063-10.2329-2.6664-6.9934,.0782-13.3944,4.3777-15.1892,11.3043-.8232,3.1767-.5019,6.4306,.9694,9.3601,.6661,1.3262,2.5374,1.7014,3.7604,.986,1.3497-.7894,1.6546-2.4293,.986-3.7604h0Z"/></g><path d="M298.063,597.2342c6.4421,2.8927,13.5638,2.8341,20.2233,.6476,6.853-2.2501,12.7087-6.3891,17.9794-11.2296,9.9334-9.1225,18.4412-21.4559,31.9177-25.5893,6.4446-1.9766,12.9623-1.1617,18.8892,1.9963,5.483,2.9215,10.1835,7.2019,14.1367,11.9599,7.4202,8.9308,11.7637,20.084,13.813,31.4232,2.3906,13.2278,1.6241,27.0688-1.5069,40.1198-.8248,3.4381,4.4744,4.9052,5.3006,1.4613,2.9262-12.1969,3.8957-24.9702,2.3466-37.4361-1.5183-12.2185-5.3054-24.294-12.321-34.5112-7.4295-10.8201-19.215-21.4173-33.0434-21.6475-14.9398-.2486-26.4005,11.0324-36.0376,21.0056-4.9141,5.0855-9.911,10.33-16.0415,13.9654-5.4148,3.211-12.1311,5.4973-18.4895,4.3792-1.4978-.2634-3.0025-.6671-4.3921-1.2911-1.3532-.6076-2.9552-.3907-3.7604,.986-.6873,1.1751-.3748,3.1494,.986,3.7604h0Z"/><path d="M949.311,177.5789c-3.8895-.7947-7.7326-2.0812-11.7312-2.2061-4.3571-.1361-8.3164,1.5671-11.2064,4.8311-1.057,1.1937-.9943,2.679,0,3.8869,6.5452,7.951,18.0257,11.4402,28.0461,10.2639,1.4741-.173,2.7485-1.1394,2.7485-2.7485,0-1.3512-1.2644-2.9227-2.7485-2.7485-8.7489,1.027-18.4121-1.6725-24.1591-8.6539v3.8869c2.2575-2.5497,4.7649-3.4131,8.0094-3.1852,3.1556,.2216,6.4022,1.3247,9.5799,1.9739,1.453,.2969,2.9691-.4208,3.381-1.9196,.3733-1.3586-.4584-3.0824-1.9196-3.381h0Z" style="fill:#fff;"/></g><path d="M247.1959,732.5546c14.5136,3.2867,29.6396,1.8448,43.3243-3.9457,1.3674-.5786,1.6667-2.5967,.986-3.7604-.8281-1.4157-2.3877-1.5669-3.7604-.986-12.2393,5.1789-26.1479,6.3221-39.0886,3.3916-3.4448-.7801-4.9156,4.5184-1.4613,5.3006h0Z" style="fill:#f953b2;"/><path d="M267.9411,751.9454c1.2869-.429,2.5738-.8579,3.8608-1.2869,.6786-.2262,1.2746-.6343,1.6426-1.2631,.2009-.3155,.3096-.6561,.3262-1.0219,.0818-.3653,.0655-.7307-.0491-1.096-.2152-.665-.6274-1.3067-1.2631-1.6426-.6345-.3352-1.4149-.5114-2.1179-.2771-1.2869,.429-2.5738,.8579-3.8608,1.2869-.6786,.2262-1.2746,.6343-1.6426,1.2631-.2009,.3155-.3096,.6561-.3262,1.0219-.0818,.3653-.0655,.7307,.0491,1.096,.2152,.665,.6274,1.3067,1.2631,1.6426,.6345,.3352,1.4149,.5114,2.1179,.2771h0Z" style="fill:#f953b2;"/><path d="M591.4798,658.8985c9.4487,6.5978,23.4777,3.6846,30.1259-5.4832,2.0275-2.7959,3.4865-6.6128,2.1934-10.0152-1.1538-3.0361-4.691-5.0037-7.8735-4.0026-3.4844,1.0961-3.9826,5.174-2.817,8.1844,1.2062,3.1154,3.8012,5.3773,6.855,6.6142,7.7498,3.139,15.0621-2.7038,20.4962-7.5811,2.6383-2.3679-1.2596-6.245-3.8869-3.8869-3.3243,2.9837-7.4449,6.8832-12.2315,6.8575-1.6132-.0087-3.4519-.7615-4.6858-1.9257-1.368-1.2907-1.8777-2.5836-1.4319-4.096-.2356,.4043-.4712,.8085-.7068,1.2128,.4072-.4678-.4498-.0159,.1245-.1556-.2289,.0557-.0462-.0181,.176,.0359,.4071,.099,.6938,.281,.8327,.6027,.5734,1.3284-.3656,3.1479-1.085,4.3241-1.5261,2.4951-3.7445,4.3168-6.4613,5.6506-5.2944,2.5994-11.8757,2.3906-16.8494-1.0823-1.2177-.8503-3.0538-.2221-3.7604,.986-.8013,1.3699-.2345,2.9082,.986,3.7604h0Z" style="fill:#f953b2;"/><path d="M945.2185,715.9354c1.7159-2.5738,3.4318-5.1477,5.1477-7.7215,.7994-1.1991,.2734-3.095-.986-3.7604-1.3823-.7303-2.9073-.2937-3.7604,.986-1.7159,2.5738-3.4318,5.1477-5.1477,7.7215-.7994,1.1991-.2734,3.095,.986,3.7604,1.3823,.7303,2.9073,.2937,3.7604-.986h0Z" style="fill:#6966ed;"/><path d="M957.8115,743.1972c5.9731-1.8227,11.9461-3.6453,17.9192-5.468,1.4195-.4331,2.3207-1.9216,1.9196-3.381-.3861-1.405-1.9558-2.3545-3.381-1.9196-5.9731,1.8227-11.9461,3.6453-17.9192,5.468-1.4195,.4331-2.3207,1.9216-1.9196,3.381,.3861,1.405,1.9558,2.3545,3.381,1.9196h0Z" style="fill:#6966ed;"/><path d="M915.6452,705.5397c.429,3.8608,.8579,7.7215,1.2869,11.5823,.0834,.751,.2511,1.3895,.805,1.9435,.4767,.4767,1.2588,.8357,1.9435,.805,1.353-.0606,2.9185-1.2181,2.7485-2.7485-.429-3.8608-.8579-7.7215-1.2869-11.5823-.0834-.751-.2511-1.3895-.805-1.9435-.4767-.4767-1.2588-.8357-1.9435-.805-1.353,.0606-2.9185,1.2181-2.7485,2.7485h0Z" style="fill:#6966ed;"/></svg>