<?xml version="1.0" encoding="UTF-8"?><svg id="Layer_2" xmlns="http://www.w3.org/2000/svg" width="1000" height="1000" viewBox="0 0 1000 1000"><g><circle cx="671.6842" cy="501.4808" r="270.4877" style="fill:#f4d13b;"/><g><rect x="439.9016" y="175.2703" width="210.6303" height="90.9155" rx="45.4577" ry="45.4577" transform="translate(-42.7511 237.3424) rotate(-23.6589)" style="fill:#f953b2;"/><rect x="780.851" y="235.0851" width="210.6303" height="90.9155" rx="45.4577" ry="45.4577" transform="translate(1335.0055 1094.5073) rotate(-136.4402)" style="fill:#f953b2;"/></g><g><circle cx="672.9453" cy="501.7021" r="20.0466" style="fill:#6966ed;"/><path d="M662.3728,439.1356l49.6765-152.1601-3.6345,157.7699c-.4861,21.1022-12.1669,40.3508-30.6608,50.5252l-3.3104,1.8212-2.3868-3.0457c-12.1812-15.5441-15.8131-36.1372-9.684-54.9105Z" style="fill:#6966ed;"/><path d="M702.5658,555.3817l104.6377,57.6812-82.2085-84.0262c-12.5136-12.7903-30.889-17.9537-48.2332-13.5533h0s.0243,.2799,.0243,.2799c1.4502,16.6784,11.1184,31.5365,25.7797,39.6185Z" style="fill:#6966ed;"/></g><g><path d="M729.976,746.9849l38.1769,66.3967c5.0163,8.7242,15.5333,12.6406,25.034,9.3223h0c9.5007-3.3183,15.2925-12.9309,13.7863-22.8811l-11.4627-75.7272-65.5346,22.8893Z" style="fill:#f4d13b;"/><path d="M533.3049,712.4817l-58.4982,49.4364c-7.6864,6.4957-18.9085,6.5983-26.7123,.2441h0c-7.8038-6.3542-9.9776-17.3642-5.1745-26.2075l36.5554-67.3031,53.8296,43.83Z" style="fill:#f4d13b;"/></g></g><g><path d="M399.9267,259.1021c-.4055,1.9597-3.3883,.4177-2.0226-1.132,.9324-1.0579,2.2791-.1138,2.0226,1.132Z"/><path d="M398.2931,258.6518c-.0219,.1028-.0516,.2028-.0924,.2997l.1708-.4047c-.0389,.0888-.0862,.1724-.1447,.2498l.2649-.3429c-.0503,.0644-.1068,.1219-.1709,.1727l.3429-.2649c-.0653,.0499-.1356,.0908-.2112,.1229l.4047-.1708c-.0796,.0324-.1621,.0541-.2472,.0664l.4504-.0605c-.1071,.014-.2145,.0127-.3216-.0012l.4504,.0605c-.1258-.0179-.2475-.0525-.3647-.1015l.4047,.1708c-.1183-.051-.2293-.1156-.332-.1934l.3429,.2649c-.0968-.075-.1838-.1604-.259-.2571l.2649,.3429c-.0601-.0793-.1108-.1643-.1506-.2555l.1708,.4047c-.0365-.087-.0618-.1771-.075-.2706l.0605,.4504c-.0108-.0862-.0109-.1721-.0006-.2584l-.0605,.4504c.0134-.0993,.0402-.1949,.0781-.2875l-.1708,.4047c.0507-.1189,.1179-.2282,.1965-.3306l-.2649,.3429c.0894-.1135,.1899-.2162,.3043-.3047l-.3429,.2649c.0825-.0613,.1694-.1132,.2635-.1546l-.4047,.1708c.0863-.0358,.1747-.0612,.267-.0756l-.4504,.0605c.0948-.0126,.1889-.0129,.2837-.0007l-.4504-.0605c.0927,.014,.1815,.0392,.2679,.0753l-.4047-.1708c.0863,.0382,.1665,.0857,.2418,.1426l-.3429-.2649c.082,.0643,.1546,.1371,.2193,.2188l-.2649-.3429c.0703,.0921,.1276,.1909,.1733,.2974l-.1708-.4047c.046,.1128,.077,.2288,.094,.3494l-.0605-.4504c.016,.1297,.0151,.2585-.0012,.3881l.0605-.4504c-.0052,.0363-.0113,.0723-.0184,.1083-.0706,.2252-.0807,.4504-.0303,.6755,.0102,.2255,.0772,.4354,.201,.6299,.1065,.1974,.2519,.3559,.4363,.4753,.1636,.1497,.3557,.2508,.5761,.3032,.4337,.0988,.9204,.0774,1.3054-.1708,.3552-.229,.6939-.5827,.7785-1.0124,.0446-.2265,.0804-.4605,.0909-.6915,.0106-.233-.0378-.4825-.0713-.7056-.0452-.3011-.1744-.5934-.3145-.8597-.1353-.2571-.3234-.5036-.5402-.6974-.1534-.1371-.3173-.266-.4905-.3773-.1781-.1145-.3978-.1914-.5862-.2653-.0668-.0262-.1349-.0472-.2056-.0602-.2099-.0384-.4453-.084-.6663-.0765-.491,.0165-.8407,.1282-1.2768,.3368-.0779,.0372-.1496,.0837-.2191,.1345-.1861,.136-.3944,.2843-.5539,.459-.188,.206-.3748,.4316-.5057,.6803-.1215,.231-.2441,.4849-.2902,.746-.0346,.196-.0701,.399-.0758,.5988-.0056,.1974,.0417,.4389,.0688,.6102,.0388,.2453,.1546,.4852,.2584,.7037,.1043,.2195,.2767,.4205,.4274,.6008,.0704,.0843,.1486,.158,.2345,.2262,.1932,.1535,.39,.3244,.6164,.432,.4721,.2243,.9229,.3749,1.4554,.3706,.2036-.0016,.4108-.0398,.6097-.073,.0597-.0099,.1184-.0232,.1757-.0428,.4404-.1512,.6755-.2946,1.0275-.5897,.2027-.17,.3692-.395,.5012-.622,.108-.1856,.1841-.3936,.2598-.5931,.0302-.0797,.0525-.1618,.0703-.245,.0706-.2252,.0807-.4504,.0303-.6755-.0102-.2255-.0772-.4354-.201-.6299-.1065-.1974-.2519-.3559-.4363-.4753-.1636-.1497-.3557-.2508-.5761-.3032-.4337-.0988-.9204-.0774-1.3054,.1708-.3587,.2313-.6866,.5814-.7785,1.0124Z"/></g><g><path d="M379.9015,258.0559c-.4055,1.9597-3.3883,.4177-2.0226-1.132,.9324-1.0579,2.2791-.1138,2.0226,1.132Z"/><path d="M378.2679,257.6055c-.0219,.1028-.0516,.2028-.0924,.2997l.1708-.4047c-.0389,.0888-.0862,.1724-.1447,.2498l.2649-.3429c-.0503,.0644-.1068,.1219-.1709,.1727l.3429-.2649c-.0653,.0499-.1356,.0908-.2112,.1229l.4047-.1708c-.0796,.0324-.1621,.0541-.2472,.0664l.4504-.0605c-.1071,.014-.2145,.0127-.3216-.0012l.4504,.0605c-.1258-.0179-.2475-.0525-.3647-.1015l.4047,.1708c-.1183-.051-.2293-.1156-.332-.1934l.3429,.2649c-.0968-.075-.1838-.1604-.259-.2571l.2649,.3429c-.0601-.0793-.1108-.1643-.1506-.2555l.1708,.4047c-.0365-.087-.0618-.1771-.075-.2706l.0605,.4504c-.0108-.0862-.0109-.1721-.0006-.2584l-.0605,.4504c.0134-.0993,.0402-.1949,.0781-.2875l-.1708,.4047c.0507-.1189,.1179-.2282,.1965-.3306l-.2649,.3429c.0894-.1135,.1899-.2162,.3043-.3047l-.3429,.2649c.0825-.0613,.1694-.1132,.2635-.1546l-.4047,.1708c.0863-.0358,.1747-.0612,.267-.0756l-.4504,.0605c.0948-.0126,.1889-.0129,.2837-.0007l-.4504-.0605c.0927,.014,.1815,.0392,.2679,.0753l-.4047-.1708c.0863,.0382,.1665,.0857,.2418,.1426l-.3429-.2649c.082,.0643,.1546,.1371,.2193,.2188l-.2649-.3429c.0703,.0921,.1276,.1909,.1733,.2974l-.1708-.4047c.046,.1128,.077,.2288,.094,.3494l-.0605-.4504c.016,.1297,.0151,.2585-.0012,.3881l.0605-.4504c-.0052,.0363-.0113,.0723-.0184,.1083-.0706,.2252-.0807,.4504-.0303,.6755,.0102,.2255,.0772,.4354,.201,.6299,.1065,.1974,.2519,.3559,.4363,.4753,.1636,.1497,.3557,.2508,.5761,.3032,.4337,.0988,.9204,.0774,1.3054-.1708,.3552-.229,.6939-.5827,.7785-1.0124,.0446-.2265,.0804-.4605,.0909-.6915,.0106-.233-.0378-.4825-.0713-.7056-.0452-.3011-.1744-.5934-.3145-.8597-.1353-.2571-.3234-.5036-.5402-.6974-.1534-.1371-.3173-.266-.4905-.3773-.1781-.1145-.3978-.1914-.5862-.2653-.0668-.0262-.1349-.0472-.2056-.0602-.2099-.0384-.4453-.084-.6663-.0765-.491,.0165-.8407,.1282-1.2768,.3368-.0779,.0372-.1496,.0837-.2191,.1345-.1861,.136-.3944,.2843-.5539,.459-.188,.206-.3748,.4316-.5057,.6803-.1215,.231-.2441,.4849-.2902,.746-.0346,.196-.0701,.399-.0758,.5988-.0056,.1974,.0417,.4389,.0688,.6102,.0388,.2453,.1546,.4852,.2584,.7037,.1043,.2195,.2767,.4205,.4274,.6008,.0704,.0843,.1486,.158,.2345,.2262,.1932,.1535,.39,.3244,.6164,.432,.4721,.2243,.9229,.3749,1.4554,.3706,.2036-.0016,.4108-.0398,.6097-.073,.0597-.0099,.1184-.0232,.1757-.0428,.4404-.1512,.6755-.2946,1.0275-.5897,.2027-.17,.3692-.395,.5012-.622,.108-.1856,.1841-.3936,.2598-.5931,.0302-.0797,.0525-.1618,.0703-.245,.0706-.2252,.0807-.4504,.0303-.6755-.0102-.2255-.0772-.4354-.201-.6299-.1065-.1974-.2519-.3559-.4363-.4753-.1636-.1497-.3557-.2508-.5761-.3032-.4337-.0988-.9204-.0774-1.3054,.1708-.3587,.2313-.6866,.5814-.7785,1.0124Z"/></g><path d="M383.3776,258.4621c.1298,.3689,.3008,.8142,.2533,1.1792-.0255,.196-.1499,.415-.3107,.5985-.5099,.582-1.288,.9562-2.0769,1.2207-1.889,.6333-3.9006,.7774-5.7962,1.3872-2.124,.6834-4.2117,2.0321-4.3967,4.4678-.1834,2.4142,2.0622,3.7961,3.9856,4.6517,2.3143,1.0295,4.8177,1.5352,7.3535,1.391,.9136-.052,1.6941-.7414,1.6941-1.6941,0-.877-.776-1.7463-1.6941-1.6941-2.3337,.1327-4.6529-.3237-6.7096-1.4562-.4017-.2212-1.0214-.48-1.2599-.8807,.0791,.1329,.004-.2962,.005-.1142-.0348,.11-.0229,.058,.0357-.156-.0717,.064-.0463,.0085,.0764-.1664,.392-.6893,1.4349-.9825,2.2492-1.2142,2.352-.6694,4.8033-.825,7.0192-1.9434,1.0502-.53,2.0581-1.3398,2.64-2.3796,.7225-1.2909,.6798-2.7328,.1993-4.098-.3036-.8627-1.1577-1.4377-2.0839-1.1832-.8363,.2298-1.4884,1.2169-1.1832,2.0839h0Z"/><g><path d="M381.9798,299.9725s25.6516,3.5135,35.7491-5.0883c-1.2246,7.5537-16.0812,16.1885-16.0812,16.1885,0,0-2.1639-7.3294-7.7008-8.175-5.5369-.8457-11.9671-2.9252-11.9671-2.9252Z"/><path d="M381.3043,302.4229c3.3282,.4532,6.6881,.6847,10.045,.7697,6.2662,.1588,12.7395-.157,18.8071-1.838,3.4084-.9443,6.6448-2.394,9.3693-4.6735-1.4157-.8241-2.8315-1.6482-4.2472-2.4724-.2234,1.2474-.3529,1.5015-.91,2.4786-.55,.9647-1.0506,1.6329-1.6482,2.3319-1.6083,1.881-3.4688,3.5423-5.3996,5.0841-1.9512,1.558-4.5391,3.3672-6.9556,4.7753,1.2443,.5062,2.4886,1.0124,3.7329,1.5187-1.0434-3.4829-3.3337-7.1298-6.577-8.9077-1.3255-.7266-2.661-.9837-4.1255-1.2463-1.693-.3035-3.3719-.6838-5.0392-1.105-1.9139-.4834-3.8216-1.0106-5.701-1.6161-3.1203-1.0054-4.4566,3.9001-1.3511,4.9007,1.5772,.5082,3.1754,.9573,4.7778,1.3783,1.5643,.4111,3.1384,.7874,4.7241,1.1067,1.2104,.2438,2.8255,.3626,3.8237,.795,1.525,.6606,2.5921,2.0277,3.4793,3.6001,.1957,.3469,.3789,.7008,.5499,1.0606,.0816,.1717,.1584,.3455,.2364,.5189-.2846-.6328-.0552-.1383-.008-.008,.1052,.2907,.2212,.5772,.31,.8737,.4694,1.5667,2.2893,2.3598,3.7329,1.5187,2.8819-1.6793,5.6144-3.6574,8.2073-5.749,3.716-2.9976,8.1566-7.0165,9.0417-11.9582,.4566-2.5493-2.2505-4.1429-4.2472-2.4724-1.6615,1.3901-4.1699,2.4991-6.5822,3.2109-2.9005,.8558-5.6858,1.2945-8.5081,1.5467-5.1657,.4616-10.3877,.37-15.5522-.0678-.7774-.0659-1.5542-.1403-2.3295-.2273-.3411-.0383-1.7502-.2245-.3048-.0277-1.3581-.1849-2.7282,.3273-3.1259,1.7748-.3256,1.185,.4061,2.9395,1.7748,3.1259Z"/></g><path d="M623.1425,517.4463c1.3787,10.7485,2.7574,21.497,4.1362,32.2455,.1945,1.5163,.389,3.0325,.5835,4.5488,.1746,1.361,1.0429,2.5411,2.5411,2.5411,1.2375,0,2.717-1.1703,2.5411-2.5411-1.3787-10.7485-2.7574-21.497-4.1362-32.2455-.1945-1.5163-.389-3.0325-.5835-4.5488-.1746-1.361-1.0429-2.5411-2.5411-2.5411-1.2375,0-2.717,1.1703-2.5411,2.5411h0Z"/><path d="M378.7038,509.1941c-4.9876,11.0626-12.354,20.6947-22.1738,27.8952-9.1567,6.7143-19.6579,11.2794-30.3048,15.0612-11.0977,3.9419-22.4451,7.1305-33.5633,11.0118-13.0602,4.5593-25.6784,10.3655-37.6938,17.2149-25.0793,14.2966-47.208,32.9656-67.3959,53.4862-20.1549,20.4871-38.5591,42.5693-55.5039,65.7709-8.2921,11.354-16.2555,22.9439-24.063,34.6353-7.5956,11.374-13.9654,24.8469-27.0594,30.7311-13.3982,6.021-27.9693,.2468-41.9152,3.4233-9.8327,2.2396-16.9085,11.6214-16.5566,21.6704,.3066,8.7541,6.5797,15.7753,11.8756,22.2274,6.1903,7.5418,13.0288,14.541,20.2127,21.1361,9.4661,8.6902,19.5591,16.6944,29.9734,24.2151,6.3679,4.5987,12.8683,9.0131,19.4697,13.2695,1.9773,1.2749,3.0265,1.8727,5.3221,1.4229,1.2458-.2441,2.4631-.6152,3.6525-1.0559,12.9384-4.7933,23.967-15.3399,33.7794-24.6744,13.2305-12.5861,25.4867-26.197,37.3543-40.0624,9.1254-10.6616,18.0085-21.5338,26.6579-32.5851,8.8796-11.3454,17.6651-22.6933,27.5072-33.2521,19.7282-21.1647,42.0536-39.9287,66.3673-55.6179,24.8607-16.0422,51.7356-27.3635,78.9765-38.6403,26.2474-10.8656,53.3527-22.4219,74.9772-41.3072,17.6632-15.4258,29.9194-35.7571,35.7226-58.4478,3.2905-12.8659,4.4378-26.0791,4.8674-39.3171,.5413-16.6794-.0454-33.3942-1.7627-49.994-1.4332-13.8535-3.3469-27.8477-7.6629-41.1361-3.7847-11.6525-9.7636-24.5479-19.4038-32.5492-3.5572-2.9524-9.2566-5.6034-13.8311-3.4562-5.0733,2.3813-5.4663,9.2256-1.7798,13.0266,4.3738,4.5096,10.9576,4.1832,16.7252,4.7977,6.3779,.6795,12.6932,1.9763,18.8495,3.7702,24.0717,7.0143,45.2107,21.9924,61.5311,40.8343,8.1081,9.3608,14.9768,19.7281,20.6293,30.7399l.9116-3.4767c-3.0564,2.2229-6.1127,4.4458-9.1691,6.6687-3.5567,2.5868-7.5517,4.9065-9.2864,9.1709-2.7411,6.7382,.9427,14.5681,7.917,16.7039,4.6737,1.4313,8.6679-.4981,12.8499-2.2867,4.0847-1.747,8.1695-3.4941,12.2542-5.2411l-3.7329-2.8697c-4.3358,15.8058-8.6717,31.6115-13.0075,47.4173-1.8114,6.6031-5.6465,14.9534,.8753,20.2924,5.4697,4.4777,13.9089,2.1043,16.3606-4.4829,.9778-2.6273,1.5461-5.4612,2.286-8.1587,2.4152-8.8044,4.8305-17.6088,7.2457-26.4133-1.6638-.2252-3.3276-.4504-4.9915-.6755-.4674,11.2863-1.4436,22.6651-1.4063,33.9591,.0165,5.0048,3.1643,9.625,8.1958,10.7477,5.3258,1.1883,10.8504-2.2013,12.2751-7.4517,.5251-1.9352,.3904-4.089,.4322-6.0756,.0741-3.5166,.1482-7.0332,.2223-10.5499,.1396-6.627,.2793-13.2541,.4189-19.8811h-5.0822c1.0574,9.012,2.1149,18.0241,3.1723,27.0361,.4715,4.0182,.5055,8.2428,3.5854,11.3032,6.0712,6.0329,16.514,2.2493,17.6467-6.0995l-4.6445,.607c4.3384,8.5489,17.2974,7.4545,19.505-2.1516,.7197-3.1319-.2614-6.7095-.7612-9.8359-1.9115-11.9577-3.8229-23.9153-5.7344-35.873-3.378-21.1323-5.3668-42.9692-11.4914-63.4912-12.5675-42.11-40.385-78.1847-77.1803-102.0418-9.7656-6.3318-20.2385-11.7375-31.3363-15.3183-10.3341-3.3345-20.4772-3.3817-31.2057-3.6773-10.9669-.3021-21.6811-2.8191-29.2944-11.3398-5.779-6.4678-5.648-15.8981-7.5017-23.9352-2.4668-10.6956-5.7124-21.4691-11.476-30.8964-5.5749-9.1189-13.7311-16.7762-23.2093-21.7356-8.9193-4.667-20.1056-7.3605-29.8982-3.805-9.0768,3.2956-15.9805,12.1442-19.9894,20.6194-4.8914,10.3409-6.1477,22.1804-3.5107,33.32,1.9264,8.1375,6.217,13.8406,14.0449,16.9306,6.479,2.5575,15.0403,3.6117,18.2372,10.7922,1.695,3.807,1.6237,8.1807,3.9986,11.7326,1.8149,2.7143,5.6293,5.643,8.7345,3.0289,2.8683-2.4147,1.6887-6.722-1.3419-8.3631-4.5293-2.4526-10.6233,.1206-15.1257,1.3266-12.3241,3.3012-24.8681,6.1767-37.0318,10.0286-11.496,3.6405-22.2852,9.1313-33.6236,13.1953-10.0818,3.6137-20.3764,5.6784-31.1121,5.3742-20.9935-.5948-41.2563-8.8695-58.7735-20.0465-9.0696-5.7869-17.5399-12.4872-25.2873-19.951-7.4097-7.1384-13.4993-15.1391-19.9926-23.0714-4.7058-5.7487-9.7261-11.7272-15.5357-16.4021-3.1046-2.4983-6.2532-4.944-9.3791-7.4154-9.747-7.7063-19.4939-15.4126-29.2409-23.1188-2.2123-1.7491-4.3986-3.5387-6.6404-5.2501-6.9043-5.2708-17.5478-1.1245-17.2861,8.1637,.153,5.4317,4.3579,8.1495,8.1436,11.1426,4.8457,3.8311,9.6913,7.6623,14.537,11.4934,2.895,2.2889,5.79,4.5778,8.685,6.8667,2.5389,2.0073,6.159-1.5654,3.5937-3.5937-7.2769-5.7534-14.5538-11.5067-21.8307-17.2601-2.5205-1.9928-7.433-4.7094-7.9705-8.1663-.7581-4.8751,4.728-7.5577,8.5559-5.0356,.6282,.4139,1.2027,.9509,1.7921,1.4169,8.076,6.3851,16.1519,12.7702,24.2279,19.1554,6.6088,5.2252,13.46,10.2482,19.8737,15.7128,6.575,5.602,12.3459,12.526,17.6269,19.329,5.6704,7.3046,11.5766,14.2692,18.3045,20.636,13.9997,13.2483,30.2933,24.2908,48.1115,31.7082,17.0842,7.1118,35.8761,10.7002,54.2994,7.7019,10.5545-1.7177,20.501-5.8082,30.3001-9.9363,10.385-4.3749,20.6854-8.0482,31.5738-10.9648,6.0548-1.6219,12.1096-3.2437,18.1644-4.8656,2.8256-.7569,5.6511-1.5137,8.4767-2.2706,2.5681-.6879,5.4051-1.806,8.0998-1.7736,.4518,.0054,3.1269,.7453,3.1837,.2114-.0086,.0811-2.0659-2.1093-2.1358-2.2287-1.0318-1.7618-1.3881-3.8781-1.8693-5.8366-.9107-3.7069-2.2547-6.9655-4.9483-9.7474-4.6344-4.7865-11.1246-6.0506-17.1297-8.2729-2.9893-1.1063-5.8716-2.6686-7.8676-5.2243-3.0705-3.9315-4.0748-9.6069-4.529-14.4406-1.0203-10.8573,1.8666-21.8043,8.2182-30.6784,2.8069-3.9217,6.321-7.829,10.6309-10.1167,4.0955-2.1739,8.9313-2.6246,13.4918-2.2235,21.9669,1.9324,37.1669,21.8383,43.4354,41.2661,2.8501,8.8333,4.1179,17.8422,6.1549,26.8448,1.8301,8.0885,6.8352,14.1065,13.7547,18.563,8.1829,5.2702,17.6988,6.3697,27.2154,6.5287,10.2313,.1709,19.7062,.6361,29.4889,3.9746,20.5812,7.0237,39.1517,20.2467,54.9463,34.9732,14.7569,13.759,26.9977,30.0878,36.2417,48.0135,8.9728,17.3997,14.8078,36.1131,17.7294,55.4503,1.116,7.3865,2.2196,14.776,3.3834,22.1551,2.9402,18.6419,5.958,37.2718,8.9369,55.9076,.1197,.7487,.2645,1.4655,.2499,2.2249-.1172,6.1291-7.7384,7.088-10.3192,2.0024-.9187-1.8103-4.3478-1.5799-4.6445,.607-.8861,6.5309-9.5315,7.1532-10.733,.5467-.6203-3.4106-.8165-6.9584-1.2203-10.4001-.8227-7.0118-1.6455-14.0236-2.4682-21.0354-.3717-3.1675-5.0115-3.3572-5.0822,0-.2275,10.7954-.4549,21.5907-.6824,32.3861-.0538,2.5525-.501,5.063-3.1703,6.269-4.3177,1.9507-7.6055-1.9733-7.5053-5.9732,.14-5.5876,.4628-11.1767,.6941-16.7612,.2301-5.5563,.4602-11.1127,.6903-16.669,.1197-2.891-4.2406-3.4127-4.9915-.6755-1.8483,6.7378-3.6966,13.4757-5.545,20.2135-1.0491,3.8245-2.0983,7.649-3.1474,11.4735-.1863,.679-.3311,1.3891-.5635,2.0542-1.1836,3.3881-5.0941,5.2086-8.2559,2.9663-2.8879-2.0481-2.2529-5.0417-1.4799-7.8595,.8307-3.0281,1.6613-6.0561,2.492-9.0842,2.4882-9.0705,4.9764-18.141,7.4646-27.2114,1.6921-6.1684,3.3842-12.3368,5.0763-18.5051,.6423-2.3413-1.7994-3.6966-3.7329-2.8697-3.6466,1.5596-7.2932,3.1193-10.9399,4.6789-4.5575,1.9492-9.9594,4.8485-13.855-.2173-4.5141-5.8701,1.1464-10.3635,5.4822-13.5169,3.2924-2.3946,6.5848-4.7891,9.8772-7.1837,1.1577-.842,1.5926-2.15,.9116-3.4767-10.979-21.3886-26.6974-40.3326-46.1516-54.5198-9.6529-7.0395-20.2447-12.7688-31.4616-16.8919-5.7502-2.1136-11.6655-3.7782-17.6802-4.9455-5.8969-1.1444-11.944-1.1676-17.8158-2.2629-2.5856-.4823-7.6466-2.3672-6.3108-5.9675,1.0892-2.9356,5.1363-1.3981,7.0644-.3943,5.39,2.8063,9.4103,9.0646,12.4642,14.1223,6.7714,11.2145,10.2896,24.0683,12.5719,36.873,2.672,14.9907,3.9845,30.2834,4.5207,45.4915,.5336,15.1335,.4696,30.5196-1.3813,45.5692-2.7951,22.7269-11.1073,44.6705-26.1931,62.1109-17.6571,20.4131-42.3079,33.2369-66.6216,44.0181-26.0182,11.5371-52.944,21.015-77.9315,34.7813-24.2369,13.3528-46.8116,29.7721-67.225,48.441-15.9085,14.549-30.237,30.544-43.3275,47.6555-5.6113,7.3348-12.2324,15.615-18.441,23.1812-10.7908,13.1507-21.8915,26.065-33.5387,38.467-10.9969,11.7096-22.477,23.5244-35.6214,32.8552-4.3291,3.0731-9.0333,6.1744-14.1994,7.6191-.4648,.13-1.1307,.3973-1.6174,.3878-.1921-.0038-.4424,.1559-.6261,.1107,.9511,.2336-.8672-1.1059-.7799-1.0213-1.3829-1.3395-3.5408-2.3004-5.1665-3.3784-1.662-1.1021-3.317-2.2147-4.9644-3.3385-5.9427-4.0535-11.7894-8.2495-17.5055-12.6171-16.1716-12.3566-31.7362-26.2085-44.1286-42.4453-2.4327-3.1874-5.2922-6.5714-6.5075-10.4394-1.477-4.7007-.7207-9.8396,1.9398-13.9735,7.387-11.4782,24.1203-7.4754,35.4673-7.2309,12.0373,.2594,23.9733-5.1065,31.7671-14.2857,4.2887-5.0511,7.6181-11.0068,11.2716-16.5221,3.8035-5.7418,7.6372-11.4638,11.522-17.151,15.4933-22.6815,31.9053-44.7257,50.0697-65.3506,18.8093-21.3572,39.0826-41.831,62.0781-58.7021,21.9526-16.106,45.8564-28.1199,71.7556-36.4327,20.4976-6.5791,42.1726-12.4068,59.0637-26.431,8.6265-7.1623,15.2619-16.2997,19.8591-26.4965,1.3336-2.958-3.0448-5.5452-4.3884-2.5651h0Z"/><path d="M143.9403,266.1347c-4.2565-3.262-8.5129-6.524-12.7694-9.786-5.3837-4.1259-10.7675-8.2518-16.1512-12.3776-3.3267-2.5494-7.4028-3.4321-11.3416-1.6368-6.328,2.8843-7.7924,11.17-3.3961,16.3328,1.2431,1.4598,3.0324,2.5932,4.5234,3.772,2.9177,2.3068,5.8354,4.6137,8.7532,6.9205,5.066,4.0053,10.1243,8.0206,15.198,12.016,.0926,.0729,.1849,.1462,.2773,.2192,1.0755,.8504,2.5439,1.0498,3.5937,0,.8832-.8832,1.0824-2.7379,0-3.5937-9.0431-7.1498-18.0862-14.2995-27.1293-21.4493-.8074-.6383-1.5767-1.2887-2.0898-2.2012-1.0515-1.8697-.866-4.2413,.5143-5.9483,1.4977-1.8521,4.0219-2.4466,6.1415-1.6103,.8053,.3177,1.4857,.8739,2.1683,1.397,4.9321,3.7797,9.8642,7.5595,14.7963,11.3392,4.7822,3.6649,9.5644,7.3297,14.3465,10.9946,1.0902,.8355,2.8449,.1686,3.4767-.9116,.7656-1.309,.1812-2.6392-.9116-3.4767h0Z"/><path d="M132.8615,278.2472c-4.2565-3.262-8.5129-6.524-12.7694-9.786-5.3837-4.1259-10.7675-8.2518-16.1512-12.3776-3.3267-2.5494-7.4028-3.4321-11.3416-1.6368-6.328,2.8843-7.7924,11.17-3.3961,16.3328,1.2431,1.4598,3.0324,2.5932,4.5234,3.772,2.9177,2.3068,5.8354,4.6137,8.7532,6.9205,5.066,4.0053,10.1243,8.0206,15.198,12.016,.0926,.0729,.1849,.1462,.2773,.2192,1.0755,.8504,2.5439,1.0498,3.5937,0,.8832-.8832,1.0824-2.7379,0-3.5937-9.0431-7.1498-18.0862-14.2995-27.1293-21.4493-.8074-.6383-1.5767-1.2887-2.0898-2.2012-1.0515-1.8697-.866-4.2413,.5143-5.9483,1.4977-1.8521,4.0219-2.4466,6.1415-1.6103,.8053,.3177,1.4857,.8739,2.1683,1.397,4.9321,3.7797,9.8642,7.5595,14.7963,11.3392,4.7822,3.6649,9.5644,7.3297,14.3465,10.9946,1.0902,.8355,2.8449,.1686,3.4767-.9116,.7656-1.309,.1812-2.6392-.9116-3.4767h0Z"/><path d="M121.1557,289.865c-9.0893-5.3747-18.0317-11.1934-27.3437-16.169-4.9032-2.6199-11.1058-1.2794-14.0908,3.5653-2.964,4.8106-1.3063,11.1413,3.2955,14.2474,4.1294,2.7873,8.7186,5.0448,13.034,7.5265,5.6697,3.2605,11.3394,6.5211,17.0092,9.7816,.1781,.1024,.474,.3601,.6791,.3905,.6344,.094-.7264-1.358-.4812-.3082,.2471,1.058,1.0965,2.2153,1.5882,3.1608,.9026,1.7355,1.849,3.4482,2.838,5.136,3.3548,5.7256,7.2079,11.156,11.4541,16.2545,7.2761,8.7365,15.5696,16.7071,23.1868,25.1535,9.0075,9.9881,18.359,19.1768,29.2591,27.1195,21.8635,15.9316,47.5677,27.3188,73.9234,33.3334,14.3917,3.2843,29.1689,4.8254,43.9265,4.2327,8.2037-.3295,16.5044-.9353,24.4846-2.9721,7.7802-1.9857,16.467-5.7259,20.0455-13.4585,1.9231-4.1556,2.7172-9.7338-.7864-13.3154-3.9865-4.0752-10.3086-1.9715-13.14,2.357-3.1519,4.8183-3.2031,12.3026-2.3587,17.8146,.8867,5.788,2.9068,11.3163,4.0999,17.0366,1.3973,6.6995,1.6269,13.8551,1.7479,20.6808,.13,7.3379-.2564,14.7195-1.5719,21.9483-2.238,12.2978-7.2525,23.2769-15.0715,33.0084-7.2354,9.0052-15.8078,16.7996-23.6692,25.2346-8.2858,8.8904-15.0266,18.4621-20.2404,29.4585-6.0262,12.7099-10.3054,26.2386-12.5371,40.1309-4.2409,26.3999-1.0563,53.3819,9.3619,78.0143,4.9177,11.6271,11.3008,22.5804,18.9922,32.5917,7.3653,9.5868,15.8706,18.8762,25.8295,25.8246,18.7144,13.0571,42.6308,18.3386,65.0763,19.7495,24.4351,1.536,48.6904-3.1037,71.7406-11.0713,13.5125-4.6708,26.6266-10.5537,39.0848-17.5684,9.8445-5.5429,19.0443-13.0322,30.3577-15.3377,5.5959-1.1404,10.9433-.2929,15.564,2.9298,3.3145,2.3117,6.1647,5.9651,9.2922,8.8428,3.2237,2.9662,7.0434,4.9749,11.5229,3.9524,6.0213-1.3745,11.7859-6.937,14.5022-12.2643,8.1558-15.9954-1.9738-36.1338-10.4234-49.8333-9.7585-15.8217-22.2473-30.712-38.2807-40.4526-11.1881-6.797-23.9072-10.2777-36.4718-5.215-13.2342,5.3325-25.7324,12.6066-38.5651,18.8162-12.6569,6.1246-25.6307,11.6794-39.3241,15.0338-3.1752,.7778-1.8304,5.68,1.3511,4.9007,26.7687-6.5573,50.3473-21.2439,75.1588-32.6469,6.1172-2.8114,12.2061-4.407,18.9272-3.165,5.8459,1.0803,11.3049,3.5943,16.3588,6.6647,7.8829,4.789,14.9116,10.9267,21.0241,17.8148,5.6066,6.3179,10.6593,13.1432,15.1226,20.3131,4.7422,7.618,8.9602,15.7456,11.3192,24.4423,1.8928,6.9781,2.6907,15.0158-1.0147,21.5618-1.6582,2.9293-4.1436,5.3565-6.9369,7.214-1.6839,1.1198-3.6013,2.0146-5.0158,2.0337-1.5055,.0203-2.1948-.2398-3.767-1.2299-.6823-.4297-.8856-.6196-1.7175-1.3723-.7346-.6646-1.4313-1.3705-2.1211-2.081-3.1237-3.2175-6.1765-6.5624-10.1082-8.8228-15.3029-8.7982-31.9357,3.2688-44.7676,10.8815-22.9501,13.6154-48.2719,23.306-74.5112,28.225-21.5195,4.0341-43.8148,3.4805-65.1215-1.619-10.514-2.5164-20.844-6.147-30.2137-11.5973-9.6711-5.6257-17.7591-13.5715-25.0105-22.017-15.6317-18.206-26.6229-40.416-31.4084-63.9394-5.2644-25.8773-2.4332-53.0442,7.0337-77.6243,4.3915-11.4022,10.1231-22.3192,17.9928-31.7099,6.9928-8.3443,15.0242-15.7253,22.4284-23.6895,7.3516-7.9077,14.0867-16.5023,18.3274-26.5092,5.176-12.2138,6.7504-25.7724,6.5959-38.9453-.0795-6.7774-.5018-13.6484-1.4869-20.3579-.8011-5.4561-2.6885-10.689-3.883-16.0611-.5431-2.4426-.9923-4.9294-.9152-7.442,.0952-3.1021,.1864-7.3806,2.0892-9.9817,1.1267-1.5402,3.5324-2.9905,5.158-1.3284,1.6167,1.6531,.9279,4.5557,.2459,6.4757-2.5632,7.2165-11.0116,10.2674-17.7865,11.9351-7.5187,1.8507-15.2814,2.3738-22.9943,2.6747-27.4153,1.0696-54.7416-5.5096-79.6875-16.6542-11.6375-5.199-22.8261-11.4471-33.2341-18.8129-10.5559-7.4704-19.8227-16.1852-28.4475-25.7883-7.0895-7.8937-14.5206-15.4645-21.6482-23.3161-4.3608-4.8038-8.2993-9.9699-11.7779-15.4463-1.6474-2.5934-3.1923-5.2519-4.6296-7.9674-.8803-1.6633-1.6027-4.1637-3.1646-5.3294-1.2112-.9039-2.7177-1.5629-4.0264-2.3155l-8.8269-5.0761c-5.3929-3.1014-10.7859-6.2027-16.1788-9.3041-2.2811-1.3118-4.3787-2.9912-4.1366-5.9838,.342-4.2273,4.9289-5.8544,8.296-3.9434,4.9749,2.8234,9.8558,5.828,14.7795,8.7395,4.0747,2.4095,8.1495,4.819,12.2242,7.2285,2.8217,1.6685,5.3814-2.723,2.5651-4.3884h0Z"/><path d="M167.4401,276.2611c-5.9629,4.5967-11.9278,9.1907-17.8886,13.79-3.1955,2.4656-5.0498,6.2553-4.5413,10.3327,.5252,4.211,3.3012,7.6715,7.2577,9.1802,4.7641,1.8166,9.124-.6311,13.425-2.4161,4.2099-1.7472,8.4197-3.4944,12.6296-5.2416,1.2666-.5257,2.1709-1.6846,1.7748-3.1259-.3288-1.1966-1.8504-2.3042-3.1259-1.7748-3.2383,1.344-6.4766,2.688-9.7149,4.0319-2.1091,.8753-4.2181,1.7506-6.3272,2.6259-1.2313,.511-2.5419,1.1939-3.8628,1.4235-2.6341,.4578-5.5044-1.0079-6.6085-3.6366-.5899-1.4045-.5936-2.9392-.1227-4.3742,.2084-.6349,.5512-1.2462,.9658-1.7721,.2985-.3787,.6696-.6857,1.0194-1.0131,.0055-.0052-.33,.2525-.1842,.1331,2.7693-2.2676,5.682-4.3802,8.5165-6.5653,3.1174-2.4032,6.2348-4.8063,9.3522-7.2095,1.0851-.8365,1.6672-2.1849,.9116-3.4767-.6246-1.0678-2.3829-1.7548-3.4767-.9116h0Z"/><g><path d="M477.626,265.8324c-.3219,.4046-.651,.8035-.9874,1.1966-8.2179,9.6042-20.9194,18.7862-23.0607,32.0508-1.6608-4.3746-4.4948-8.2582-8.2184-11.1018-1.4267-1.0895-3.0603-2.1346-3.6838-3.818-1.4267-3.8515,.9326-9.5301,.2249-13.819-.5742-3.4798-3.2094-7.0735-6.7133-8.1077-6.6967-1.9766-9.6786,6.9511-10.566,12.0138,1.2341-7.0408,.299-14.4465-2.6464-20.9595-2.2121-4.8914-5.6618-9.3792-10.3772-11.9451-6.2992-3.4276-13.9273-3.0392-21.0437-2.1535-2.8599,.356-5.7534,.7778-8.6111,.4047-2.8577-.3732-5.7358-1.6635-7.3354-4.0609-3.3479-5.0177-.3367-12.9408,2.2698-17.7583,3.3801-6.2472,8.6003-11.6381,13.9199-16.2855,17.2841-15.1001,40.4317-20.5078,62.0281-11.72,16.7521,6.8166,30.5051,21.7188,33.9091,39.4814,2.4469,12.7688-1.0353,26.4343-9.1084,36.582Z"/><path d="M475.8292,264.0356c-8.7549,10.9049-22.209,19.6229-24.7016,34.3687h4.9007c-1.9585-5.0405-5.0777-9.3352-9.3862-12.6204-.7603-.5797-1.6783-1.1465-2.2544-1.9247-.5127-.6926-.6121-1.5765-.6346-2.421-.0661-2.4754,.4975-4.9243,.7256-7.3785,.4725-5.0835-1.4538-10.0491-5.7819-12.959-3.6902-2.481-8.4299-2.1402-11.519,1.098-2.8737,3.0124-4.2857,7.3545-5.0069,11.373,1.6336,.4504,3.2671,.9007,4.9007,1.3511,1.6157-9.5782-.1243-20.0336-5.8288-28.0498-2.718-3.8195-6.2025-6.9351-10.5554-8.7538-4.3997-1.8383-9.2567-2.2466-13.9818-2.0293-2.3796,.1094-4.7436,.3837-7.1061,.6781-2.4676,.3075-5.0607,.6773-7.5401,.2894-1.8195-.2846-3.74-1.0063-4.9668-2.4393-1.0815-1.2633-1.4261-2.9197-1.4251-4.5475,.0024-3.8456,1.5982-7.6819,3.404-11.0135,2.2362-4.1257,5.2148-7.7501,8.5033-11.0776,6.3156-6.3905,13.5907-11.7912,21.8808-15.3387,7.8052-3.34,16.3412-4.9161,24.821-4.4833,16.4863,.8414,32.4456,9.6562,41.9584,23.1574,4.5904,6.515,7.8284,14.1659,8.5496,22.1517,.7873,8.718-1.1077,17.5812-5.404,25.2096-1.0507,1.8656-2.2256,3.6768-3.5514,5.3594-.8486,1.0769-1.0509,2.5428,0,3.5937,.8819,.8819,2.7396,1.0839,3.5937,0,5.9758-7.5835,9.6117-16.6502,10.4504-26.2801,.7879-9.0473-1.2605-18.1056-5.3648-26.1669-7.9917-15.6965-23.6798-27.2661-40.8453-30.8834-18.6015-3.9199-37.5905,1.6712-52.2847,13.4067-7.3664,5.8831-14.3828,13.1287-18.1959,21.8676-1.8339,4.2029-3.1944,8.8538-2.2995,13.4609,.8991,4.6285,4.7826,7.849,9.2678,8.8169,5.1907,1.12,10.4968-.3163,15.7008-.6331,4.5861-.2791,9.5091-.1318,13.7163,1.9331,8.3765,4.1111,12.5331,14.2108,12.9938,23.0878,.1271,2.4485,.0171,4.9145-.3908,7.333-.228,1.3517,.3569,2.7363,1.7748,3.1259,1.2303,.3381,2.8822-.4169,3.1259-1.7748,.5494-3.0614,1.3566-5.9044,3.0802-8.3858,.2138-.3077,.7563-.9383,1.2816-1.3672,.0057-.0047,.1931-.1217,.521-.3213,.0503-.0306,.513-.2493,.2568-.1414-.2436,.1026,.3442-.1065,.4016-.1209,.5326-.1337,.8562-.1584,1.4554-.0172,.8622,.2032,1.6536,.5727,2.3552,1.1247,1.3564,1.0671,2.3472,2.6592,2.8034,4.3119,.5127,1.8575,.2205,3.8631-.0248,5.7434-.6056,4.6415-1.2921,9.4972,2.7687,12.811,1.9369,1.5805,3.8632,3.0064,5.4868,4.9385,1.549,1.8432,2.7991,4.0153,3.6701,6.2569,.4115,1.0591,1.25,1.8656,2.4503,1.8656,1.0363,0,2.2669-.7802,2.4503-1.8656,2.3244-13.7504,15.2195-21.9434,23.3946-32.1261,.8584-1.0692,1.0447-2.549,0-3.5937-.889-.889-2.73-1.0758-3.5937,0Z"/></g><path d="M375.6041,251.1079c.7181-.0809,1.4388-.0731,2.1553,.0203l-.4504-.0605c.7708,.1079,1.5199,.313,2.2372,.6154l-.4047-.1708c.0763,.0331,.1522,.0668,.2278,.1014,.4254,.1943,.8376,.2996,1.3054,.1708,.393-.1082,.8188-.412,1.0124-.7785,.2077-.3932,.3119-.8695,.1708-1.3054-.128-.3955-.3845-.8324-.7785-1.0124-1.7125-.7824-3.5904-1.1806-5.4754-.9684-.4632,.0522-.856,.1543-1.1979,.4962-.2938,.2938-.5151,.7759-.4962,1.1979,.0196,.4381,.1635,.8925,.4962,1.1979,.3096,.2842,.7608,.5454,1.1979,.4962h0Z"/><path d="M394.397,251.9459c.301-.1173,.6079-.2156,.9231-.2872,.1373-.0312,.2874-.0408,.4215-.0813-.396,.1196-.222,.027-.0778,.0125,.0712-.0072,.1426-.0132,.214-.0181,.3218-.022,.645-.0208,.9667,.0028,.0715,.0052,.1429,.0143,.2144,.019,.2171,.0143-.3871-.0656-.0768-.0116,.1593,.0277,.3179,.0563,.4756,.0925,.2973,.0684,.5902,.1559,.8762,.262,.0567,.021,.3557,.1404,.0972,.0348-.2402-.0982-.0055,.0011,.0432,.024,.1458,.0688,.2893,.1425,.4297,.2216,.1404,.079,.2778,.1631,.4122,.252,.0597,.0395,.1187,.08,.177,.1214,.0423,.0301,.2463,.1826,.0436,.028-.2175-.1659,.0335,.0317,.0786,.0705,.0543,.0467,.1078,.0944,.1605,.1428,.1321,.1216,.2573,.2498,.3793,.3815,.6038,.6517,1.793,.6566,2.3958,0,.6403-.6975,.6441-1.7006,0-2.3958-2.2191-2.3953-5.9947-3.331-9.0547-2.1384-.4241,.1653-.7746,.3721-1.0124,.7785-.2125,.3631-.3025,.8983-.1708,1.3054,.2588,.7999,1.1999,1.5277,2.0839,1.1832h0Z"/><path d="M389.6574,283.1023c.2454-.0229,.4991-.0411,.7324-.1261,.4065-.148,.6469-.2834,.9735-.5739,.3658-.3255,.5682-.7455,.738-1.1921,.131-.3446,.1703-.7292,.2002-1.0919,.0186-.2256,.0131-.4533-.011-.6783-.0729-.68-.19-1.3339-.5614-1.9255-.16-.2549-.3501-.5139-.5839-.7086-.3838-.3196-.6551-.4807-1.1288-.651-.5567-.2001-1.2052-.1656-1.772-.0379-.4339,.0978-.8717,.2954-1.2293,.5619-.4717,.3515-.9203,.7508-1.18,1.294-.1251,.2616-.2535,.5361-.2992,.8257-.0798,.5054-.0877,.7959,.0106,1.3084,.0601,.3133,.1992,.6265,.3712,.894,.1977,.3075,.4376,.6056,.7239,.8365,.3373,.2721,.6714,.5172,1.0625,.703,.5928,.2816,1.28,.5936,1.9533,.5617,.447-.0211,.8762-.1745,1.1979-.4962,.2938-.2938,.5151-.7759,.4962-1.1979-.0196-.4381-.1635-.8925-.4962-1.1979-.3224-.2959-.7472-.5175-1.1979-.4962-.0674,.0032-.1319,.0002-.1988-.0082l.4504,.0605c-.239-.0412-.4682-.1354-.691-.2288l.4047,.1708c-.3203-.1369-.6293-.3005-.9057-.5139l.3429,.2649c-.1493-.1178-.2863-.2489-.4029-.3995l.2649,.3429c-.079-.1049-.1463-.2167-.1984-.3374l.1708,.4047c-.0452-.1091-.0766-.2218-.0927-.3388l.0605,.4504c-.0135-.111-.0129-.2218,.0015-.3327l-.0605,.4504c.0175-.1219,.051-.2396,.098-.3533l-.1708,.4047c.057-.1331,.1309-.2568,.2182-.3721l-.2649,.3429c.1112-.1438,.2407-.2708,.3845-.3818l-.3429,.2649c.1466-.1112,.3051-.2041,.4741-.2771l-.4047,.1708c.1609-.0678,.3283-.1164,.5013-.1415l-.4504,.0605c.1436-.0193,.2877-.0218,.4316-.004l-.4504-.0605c.1237,.0169,.2435,.0486,.3588,.0967l-.4047-.1708c.1,.0434,.1934,.0979,.2805,.1635l-.3429-.2649c.0982,.0762,.1845,.1641,.261,.262l-.2649-.3429c.0952,.1256,.1711,.2625,.2328,.4074l-.1708-.4047c.0901,.2188,.1408,.45,.1734,.6838l-.0605-.4504c.0406,.3073,.0481,.6189,.009,.9268l.0605-.4504c-.0247,.1798-.0656,.3562-.1345,.5245l.1708-.4047c-.043,.1002-.095,.1944-.1608,.2814l.2649-.3429c-.0501,.0631-.1055,.1193-.1689,.1691l.3429-.2649c-.059,.0437-.1214,.0794-.1888,.1083l.4047-.1708c-.0734,.0289-.1484,.0481-.2264,.0596l.4504-.0605c-.0185,.0025-.0371,.0045-.0557,.0059-.2332-.0088-.4508,.0398-.6527,.1459-.21,.0683-.3918,.1851-.5452,.3503-.2938,.2938-.5151,.7759-.4962,1.1979,.0196,.4381,.1635,.8925,.4962,1.1979,.3133,.2876,.7566,.5374,1.1979,.4962Z"/><path d="M509.3082,697.1162c-.0776-.0933-.2074-.5578-.189-.741,.0639-.6349,.2536-1.0746,.6527-1.5734,.2411-.3013,.6739-.5964,1.2445-.7434,.6463-.1665,1.3029-.103,1.9412,.0566,3.765,.9411,5.4634,5.2329,6.887,8.4065,1.002,2.2339,5.0488,1.1855,4.7353-1.2826-.4181-3.2914,1.6583-6.8777,5.1389-7.4183,3.296-.5119,6.4115,2.0518,7.0747,5.1856,.2842,1.3432,1.8599,2.1227,3.1259,1.7748,1.3912-.3823,2.0599-1.7787,1.7748-3.1259-1.2233-5.7811-7.208-9.728-12.9847-8.793-5.5977,.906-9.9243,6.7675-9.2118,12.3767,1.5784-.4275,3.1569-.855,4.7353-1.2826-2.3689-5.2812-6.1272-11.4257-12.803-11.0622-5.7964,.3156-9.6486,7.0903-5.7154,11.8157,.8786,1.0555,2.6856,.9081,3.5937,0,1.0446-1.0446,.8807-2.5356,0-3.5937h0Z"/><path d="M96.0008,774.2368c.5037,3.0465,.504,7.0204-1.8025,9.3983-1.6725,1.7242-4.5657,2.338-6.1775,.779-1.65-1.5961-4.1995-.3707-4.338,1.7968-.1935,3.0291-2.4186,5.9239-5.3458,6.7999-2.8769,.861-6.4018-.1622-8.2375-2.6004-.8242-1.0946-2.1944-1.6617-3.4767-.9116-1.0785,.6308-1.742,2.3738-.9116,3.4767,3.1987,4.2486,8.7464,6.5013,13.977,4.936,5.1825-1.5509,8.7368-6.3766,9.0769-11.7006-1.446,.5989-2.892,1.1979-4.338,1.7968,3.608,3.49,9.3034,2.8044,12.8983-.3405,4.1491-3.6297,4.4093-9.7423,3.5761-14.7815-.2241-1.355-1.9022-2.1111-3.1259-1.7748-1.4382,.3952-1.9995,1.7669-1.7748,3.1259h0Z"/><path d="M911.1826,197.5855c4.1504-6.5219,8.3008-13.0439,12.4512-19.5658,.737-1.1581,.2409-2.8026-.9116-3.4767-1.2255-.7168-2.7379-.2494-3.4767,.9116-4.1504,6.5219-8.3008,13.0439-12.4512,19.5658-.737,1.1581-.2409,2.8026,.9116,3.4767,1.2255,.7168,2.7379,.2494,3.4767-.9116h0Z" style="fill:#6966ed;"/><path d="M931.8993,223.423c5.4714-1.9027,10.9831-2.6811,16.7648-2.3603,1.3717,.0761,2.5411-1.2224,2.5411-2.5411,0-1.4392-1.1653-2.4648-2.5411-2.5411-6.1212-.3396-12.3253,.5281-18.1159,2.5418-1.2957,.4506-2.1557,1.7401-1.7748,3.1259,.3458,1.2584,1.8237,2.2277,3.1259,1.7748h0Z" style="fill:#6966ed;"/><path d="M869.1417,163.7333c.8195,4.5071,1.6389,9.0141,2.4584,13.5212,.2383,1.3109,1.9006,2.1713,3.1259,1.7748,1.4057-.4549,2.0302-1.7213,1.7748-3.1259-.8195-4.5071-1.6389-9.0141-2.4584-13.5212-.2383-1.3109-1.9006-2.1713-3.1259-1.7748-1.4057,.4549-2.0302,1.7213-1.7748,3.1259h0Z" style="fill:#6966ed;"/><path d="M553.6625,137.1832c1.6676,2.4388,3.3352,4.8776,5.0028,7.3163,.3774,.5519,.8577,.9858,1.5187,1.1678,.6083,.1675,1.4182,.0919,1.9581-.2562,1.0898-.7026,1.7141-2.3032,.9116-3.4767-1.6676-2.4388-3.3352-4.8776-5.0028-7.3163-.3774-.5519-.8577-.9858-1.5187-1.1678-.6083-.1675-1.4182-.0919-1.9581,.2562-1.0898,.7026-1.7141,2.3032-.9116,3.4767h0Z" style="fill:#6966ed;"/><path d="M635.8942,128.6069c-2.0658,4.4992-4.1316,8.9983-6.1975,13.4975-.5535,1.2054-.3828,2.7928,.9116,3.4767,1.1181,.5907,2.8846,.378,3.4767-.9116,2.0658-4.4992,4.1316-8.9983,6.1975-13.4975,.5535-1.2054,.3828-2.7928-.9116-3.4767-1.1181-.5907-2.8846-.378-3.4767,.9116h0Z" style="fill:#6966ed;"/><path d="M660.1704,180.3493c4.7577,.3785,9.5864-.09,14.1967-1.32,1.2842-.3426,2.1951-1.8272,1.7748-3.1259-.4268-1.3189-1.7496-2.142-3.1259-1.7748-1.0783,.2877-2.166,.5355-3.2643,.7342-.2533,.0458-.5072,.089-.7614,.1298-.1695,.0272-.3391,.0533-.5089,.0782-.2824,.04-.3398,.0484-.1722,.0254,.1677-.0225,.11-.0157-.1729,.0204-.1704,.0205-.3409,.04-.5116,.0583-.256,.0275-.5122,.0525-.7687,.0749-2.2249,.1942-4.4597,.1943-6.6856,.0172-1.3284-.1057-2.5992,1.2443-2.5411,2.5411,.0657,1.4671,1.1182,2.4279,2.5411,2.5411h0Z" style="fill:#6966ed;"/><path d="M841.9028,766.2458c7.8654-2.1065,15.8765-3.6386,23.9729-4.5138,1.7225-.1862,2.7873-1.467,2.4503-3.2166-2.4933-12.9482,3.9743-26.6397,14.2651-34.494,5.1904-3.9615,11.2131-6.2983,17.704-6.8655,4.0545-.3543,8.167-1.6885,8.9946-6.2463,.3575-1.969,.1237-3.9389,.1876-5.9222,.0559-1.7364,.3028-3.4367,.7239-5.1222,1.9381-7.7575,7.2424-14.3799,14.4546-17.8475,1.2367-.5946,1.5645-2.3605,.9116-3.4767-.7393-1.264-2.2354-1.5085-3.4767-.9116-7.1069,3.4169-12.5225,9.6275-15.476,16.8798-1.4413,3.539-2.2158,7.3889-2.2331,11.2126-.0069,1.5201,.4888,3.7455-.3992,5.0977-.7479,1.1389-2.6511,1.1649-3.8661,1.2696-7.2519,.6246-14.0717,3.0521-19.9282,7.4252-5.7771,4.314-10.5363,9.9927-13.5805,16.5471-3.4666,7.4638-4.745,15.6898-3.1824,23.8051,.8168-1.0722,1.6336-2.1444,2.4503-3.2166-8.5511,.9244-17.0148,2.47-25.3239,4.6953-3.1561,.8453-1.8171,5.7492,1.3511,4.9007h0Z" style="fill:#6966ed;"/><path d="M435.6424,806.7791c13.7168,6.716,30.4645,6.1264,43.5886-1.7556,2.8008-1.6821,.2485-6.0782-2.5651-4.3884-11.5022,6.908-26.3754,7.6717-38.4584,1.7556-1.232-.6032-2.7484-.3336-3.4767,.9116-.6542,1.1184-.326,2.8708,.9116,3.4767h0Z" style="fill:#6966ed;"/><path d="M458.0326,835.9636c2.7369-.6842,5.4738-1.3685,8.2107-2.0527,1.29-.3225,2.1905-1.8415,1.7748-3.1259-.4323-1.3358-1.7435-2.1204-3.1259-1.7748-2.7369,.6842-5.4738,1.3685-8.2107,2.0527-1.29,.3225-2.1905,1.8415-1.7748,3.1259,.4323,1.3358,1.7435,2.1204,3.1259,1.7748h0Z" style="fill:#6966ed;"/></svg>