<?xml version="1.0" encoding="UTF-8"?><svg id="Layer_2" xmlns="http://www.w3.org/2000/svg" width="1000" height="1000" viewBox="0 0 1000 1000"><g><path d="M350.0835,507.5073l47.1209-161.3918c20.7852-71.1904-20.0763-145.7513-91.2667-166.5364h-.0003c-71.1903-20.7852-145.7511,20.0762-166.5363,91.2665l-47.121,161.3919c-3.9761,13.6185-18.2394,21.4352-31.8579,17.4591h0s-11.1236,38.099-11.1236,38.099l307.332,89.7305,11.1236-38.099-.2117-.0618c-13.6185-3.9761-21.4352-18.2394-17.4591-31.8579Z" style="fill:#f4d13b;"/><ellipse cx="203.0704" cy="532.6917" rx="29.1058" ry="160.1919" transform="translate(-365.1859 578.3288) rotate(-73.724)" style="fill:#f953b2;"/><path d="M165.0048,499.9064l3.1311-6.5456c-10.3264-2.4354-20.2705-4.5571-29.7133-6.3549l-.0715,.1495c-4.8794,10.2007-13.6111,17.9441-24.1788,21.9676-7.372,2.8067-13.8997,7.95-18.3634,15.0944-.2864,.4584-.5654,.9243-.8343,1.3992-10.1831,17.9695-3.871,40.7917,14.0984,50.9749,17.9697,10.183,40.792,3.8708,50.9751-14.0986,2.072-3.6563,3.458-7.5135,4.2042-11.4237,1.2043-6.3119,.7373-12.7627-1.2338-18.7338-3.5234-10.675-2.8645-22.288,1.9862-32.429Z" style="fill:#6966ed;"/><path d="M306.0195,152.7704h.7156c11.2032,0,20.2987,9.0956,20.2987,20.2987v42.1512h-41.313v-42.1512c0-11.2032,9.0956-20.2987,20.2987-20.2987Z" transform="translate(63.8462 -78.4928) rotate(16.276)" style="fill:#f4d13b;"/></g><g><path d="M297.0096,358.1846c-3.5306-.8801-8.737,7.8104-11.6288,19.4109s-2.3741,21.7179,1.1565,22.5981l143.0739,35.6663,10.4722-42.0089-143.0739-35.6663Z" style="fill:#6966ed;"/><ellipse cx="434.8473" cy="414.8554" rx="21.6473" ry="6.5883" transform="translate(-72.8715 736.4433) rotate(-76.0023)" style="fill:#f953b2;"/><rect x="429.5707" y="451.2488" width="355.3917" height="13.1766" rx="6.5883" ry="6.5883" transform="translate(128.776 -133.2925) rotate(13.9977)" style="fill:#6966ed;"/></g><path d="M769.108,255.755s.1137,.2325,.0553,.0997c-.0581-.132,.0356,.1067,.036,.1077,.0021,.0059,.0729,.2572,.0397,.0979-.0353-.1691,.0074,.1117,.0023,.1033-.0435-.0718,.0464-.2273-.0011-.0115-.0055,.0249-.0841,.2289-.0144,.0677,.0768-.1776-.2435,.3479-.0357,.0824-.0868,.111-.1911,.206-.2895,.3061-.1971,.2005,.1145-.0546-.1244,.1089-.2795,.1912-.5721,.3594-.8776,.5056-.0747,.0358-.3947,.1673-.1587,.0752-.136,.0531-.2719,.1063-.409,.1565-.3219,.1179-.6475,.2252-.9725,.3342-.6855,.2299-1.3641,.4758-2.0214,.7791-1.3974,.6448-2.7215,1.8884-2.641,3.5533,.0924,1.9106,1.8001,2.7511,3.4171,3.2384,1.6944,.5107,3.4707,.5455,5.2015,.2216,.8054-.1507,1.3364-1.166,1.0916-1.9225-.2787-.8611-1.0596-1.2531-1.9225-1.0916-.1051,.0207-.2106,.0394-.3165,.0562,.1504-.0171,.1296-.0148-.0624,.0069-.2136,.0195-.4267,.0367-.6411,.0436-.4287,.0139-.8573-.004-1.2837-.0488,.2675,.0281-.3219-.0545-.3786-.0657-.1576-.0312-.3145-.0666-.4702-.1062-.2077-.0527-.4135-.1127-.6169-.18-.1017-.0336-.2028-.0691-.3032-.1064-.1749-.0704-.1995-.0779-.0739-.0223-.179-.074-.3433-.1741-.5183-.2544-.1502-.0996-.157-.0978-.0205,.0055-.1238-.1282-.1303-.1262-.0192,.006,.1272,.3412,.0188-.2449,.0387,.1527,.0081-.1838,.0052-.1795-.0088,.0128,.0553-.1718,.0506-.1749-.0141-.0093,.0928-.1429,.0908-.1561-.0059-.0395,.0626-.0751,.1295-.1462,.2006-.2134,.1377-.1185,.1466-.1301,.0266-.035,.0808-.0571,.1636-.1113,.2483-.1625,.1674-.1021,.3417-.193,.5182-.2784,.0878-.0423,.1763-.0831,.2655-.1224-.1264,.0524-.1383,.0579-.0356,.0164,1.4498-.5302,3.0627-.9093,4.3415-1.807,.802-.563,1.4634-1.2478,1.8116-2.1773,.393-1.0488,.1275-2.0974-.3585-3.0615-.3687-.7316-1.4593-.9985-2.1383-.5607-.7476,.482-.9551,1.3558-.5607,2.1383h0Z"/><path d="M627.3802,484.1004c2.736-6.5233,5.472-13.0466,8.2079-19.57,.3901-.9301,.7802-1.8602,1.1703-2.7903,.4899-1.1681-.5279-2.5789-1.6373-2.8837-1.3522-.3716-2.392,.4648-2.8837,1.6373-2.736,6.5233-5.472,13.0466-8.2079,19.57-.3901,.9301-.7802,1.8602-1.1703,2.7903-.4899,1.1681,.5279,2.5789,1.6373,2.8837,1.3522,.3716,2.392-.4648,2.8837-1.6373h0Z"/><path d="M637.9842,489.157c2.736-6.5233,5.472-13.0466,8.2079-19.57,.3901-.9301,.7802-1.8602,1.1703-2.7903,.4899-1.1681-.5279-2.5789-1.6373-2.8837-1.3522-.3716-2.392,.4648-2.8837,1.6373-2.736,6.5233-5.472,13.0466-8.2079,19.57-.3901,.9301-.7802,1.8602-1.1703,2.7903-.4899,1.1681,.5279,2.5789,1.6373,2.8837,1.3522,.3716,2.392-.4648,2.8837-1.6373h0Z"/><path d="M648.3851,493.7368c2.736-6.5233,5.472-13.0466,8.2079-19.57,.3901-.9301,.7802-1.8602,1.1703-2.7903,.4899-1.1681-.5279-2.5789-1.6373-2.8837-1.3522-.3716-2.392,.4648-2.8837,1.6373-2.736,6.5233-5.472,13.0466-8.2079,19.57-.3901,.9301-.7802,1.8602-1.1703,2.7903-.4899,1.1681,.5279,2.5789,1.6373,2.8837,1.3522,.3716,2.392-.4648,2.8837-1.6373h0Z"/><g><path d="M773.4489,290.0618s8.6688,1.5916,16.6297-1.5104c-4.0936,5.2545-12.4406,8.999-15.119,8.703,4.2048-6.5954-1.4179-7.0246-1.5107-7.1926Z"/><path d="M772.8257,292.3223c5.8401,1.06,12.337,.6072,17.8761-1.5104l-2.2809-3.9182c-.9813,1.2412-2.3455,2.5463-3.429,3.3975-1.0835,.8512-2.695,1.8705-4.0878,2.6162-.6666,.3569-1.3477,.6791-2.0354,.9927-.2599,.1185,.3232-.1249-.0897,.0394-.18,.0716-.3594,.1441-.5405,.2128-.2848,.1079-.5718,.2103-.8612,.3052-.5507,.1806-1.1066,.3207-1.6727,.4419-.6014,.1288,.4288,.0063-.1291,.0162-.2074,.0037-.4085,.0134-.6159-.0056,.6747,1.1758,1.3495,2.3517,2.0242,3.5275,1.6108-2.5724,2.8758-6.0446,.6521-8.6567-.6531-.7672-1.4966-1.2364-2.4171-1.6047-.2365-.0946-.4754-.1741-.7201-.2445-.0801-.023-.1624-.0496-.2442-.0653-.0316-.006-.07-.0268-.1022-.0287,.1843,.0109,.7764,.3779,.9543,.5663-.8691-.921-2.4383-.877-3.3153,0-.9191,.9191-.8715,2.3917,0,3.3153,.4597,.4872,1.0743,.6086,1.6767,.7963,.1061,.0331,.2098,.0735,.3156,.1068,.4584,.1443-.4843-.2705-.1373-.0562,.113,.0698,.2388,.13,.3553,.1948,.0623,.0347,.1279,.1032,.1942,.13,.1194,.0484-.38-.4013-.2128-.1572,.0581,.0848,.4421,.493,.1531,.1266-.3533-.448,.131,.1957,.0923,.205-.065,.0158-.1621-.5836-.1119-.2507,.0089,.0592,.0436,.2274,.0757,.2846,.0732,.1303,.0123-.5534-.0243-.1835-.0085,.0865,.0024,.1877,.0058,.2749,.0019,.049-.0366,.5355,.0057,.1364,.0429-.4051-.0324,.127-.043,.1734-.0635,.2781-.1568,.5439-.2465,.8141-.1112,.3352,.1478-.3102-.0106,.0402-.0818,.1811-.1685,.3599-.2598,.5364-.2092,.4042-.4427,.7941-.6842,1.1797-1.0178,1.6255,.3473,3.3741,2.0242,3.5275,1.156,.1057,2.403-.2194,3.4987-.5667,1.5908-.5043,3.1386-1.1957,4.6145-1.9713,3.2363-1.7006,6.3833-3.9678,8.6635-6.8517,.6566-.8304,.9362-1.8669,.3666-2.8409-.4883-.8349-1.6907-1.4431-2.6474-1.0773-3.5648,1.3628-6.9353,1.8457-10.6769,1.8347-1.2399-.0037-2.4806-.066-3.7141-.1934-.2096-.0216-.4187-.0472-.628-.0711-.5965-.0683,.5961,.0962,.0246,.0027-.1296-.0212-.2596-.039-.3888-.0624-1.2444-.2259-2.5273,.34-2.8837,1.6373-.3124,1.137,.3851,2.6565,1.6373,2.8837Z"/></g><g><path d="M821.1951,279.6302c-1.5018,7.3008,10.0451-1.3004,11.0972-2.4688,4.9542-5.5017,9.2393-11.6002,12.5232-18.245,6.5385-13.2304,8.9428-28.5905,4.2758-42.8195-3.9571-12.0647-13.1497-22.4633-24.9301-27.2002-11.5207-4.6324-24.6731-3.7432-36.5177-.0161-8.5071,2.6769-16.6838,6.8531-23.025,13.1242s-10.7191,14.7832-10.9489,23.6986c-.0893,3.4654,.4992,7.0914,2.5496,9.8865,3.3683,4.5918,9.6905,5.7901,15.385,5.8484,7.4449,.0762,17.4013-2.1728,24.5288,.9663,6.3954,2.8167,6.1776,10.2352,5.0601,16.1302-1.4603-8.4022,8.5595-18.5873,15.6824-10.08,1.2656,1.5116,1.9056,3.4591,2.2128,5.4065,.4827,3.06,.1849,6.29-1.1742,9.0738-1.3591,2.7838-3.8396,5.0728-6.8289,5.8855,1.0319,2.6213,2.0638,5.2426,3.0957,7.864,.6295,1.5992,1.3469,3.3069,2.8077,4.2123,1.4608,.9054,3.8602,.4167,4.2065-1.2666Z"/><path d="M818.9346,279.007c-.3109,1.6361-.3832,3.4689,.8691,4.7586,1.0977,1.1305,2.687,1.2549,4.1504,.9619,2.6502-.5306,5.1774-2.2281,7.3371-3.783,2.9388-2.1157,5.0898-4.8452,7.2945-7.7112,3.4259-4.4535,6.4297-9.2316,8.8256-14.3182,4.6845-9.9451,7.2516-21.0765,6.2347-32.0937-.9462-10.2508-4.8571-19.9157-11.5644-27.7496-6.5132-7.6072-15.4745-12.9128-25.3312-14.7627-10.9899-2.0625-22.4672-.4163-32.9018,3.3862-10.0126,3.6487-19.3209,9.4624-25.6075,18.2213-2.9738,4.1432-5.2048,8.9493-6.2301,13.9563-1.0611,5.1815-1.2091,11.1338,1.5077,15.8597,5.197,9.0401,17.2682,8.2789,26.1698,7.6367,4.8896-.3528,10.0764-.7852,14.7844,.8831,3.6424,1.2907,4.9212,4.5569,4.9822,8.1592,.0314,1.8517-.1844,3.6827-.5225,5.4999h4.5211c-.6216-3.9439,2.3024-9.086,6.1436-10.1445,.9393-.2588,1.6206-.2707,2.6056,.0516,1.0877,.356,2.1269,1.2111,2.8903,2.1491,1.9813,2.4345,2.2456,6.4091,1.5901,9.3654-.7331,3.3065-2.8773,6.2454-6.2212,7.2268-1.1194,.3285-2.1093,1.6849-1.6373,2.8837,.9105,2.3129,1.821,4.6259,2.7315,6.9388,.7429,1.8871,1.4223,3.8276,2.8106,5.3545,2.5739,2.8309,7.9309,2.6109,9.0889-1.4837,.8226-2.9084-3.6999-4.1498-4.5211-1.2464,.0687-.2429,.2518-.0137-.048-.0332,.2312,.0151-.6975-.0404-.4631,.0369-.8782-.2897-1.3843-1.5474-1.7185-2.3043-1.2286-2.7823-2.245-5.6786-3.3592-8.509l-1.6373,2.8837c9.1386-2.6821,12.5621-14.6652,8.0257-22.5997-1.8495-3.2349-5.4853-5.7912-9.319-5.5626-3.4444,.2053-6.418,2.2205-8.4853,4.8926-2.5158,3.2519-3.6385,7.2789-2.9973,11.3466,.3575,2.2678,4.1103,2.2075,4.5211,0,.7057-3.7924,1.1496-7.8863-.0135-11.6397-1.3216-4.265-4.58-6.9183-8.7928-8.1312-8.9984-2.5906-18.3091,.7774-27.3973-.5958-4.0631-.6139-8.2034-2.2243-10.0677-6.1535-1.9307-4.0691-1.329-9.2758-.1829-13.4784,2.5376-9.305,9.2474-16.7961,17.3385-21.776,8.4371-5.1928,18.4869-8.3791,28.358-9.1284,9.7939-.7434,19.6114,1.1324,27.8261,6.688,7.0386,4.7603,12.606,11.9046,15.6231,19.8406,3.5857,9.4317,3.8322,19.7877,1.4957,29.5484-2.4084,10.0607-7.364,19.4192-13.8369,27.4543-1.1181,1.388-2.2319,2.9103-3.5717,4.0944-.1469,.1298-.3017,.2499-.4522,.3753-.4358,.363,.1145-.0777-.1696,.1346-.4767,.3561-.958,.7053-1.4492,1.0411-1.1084,.7578-2.256,1.4716-3.4605,2.0674-.2547,.126-.5112,.2501-.7732,.3601,.4478-.1878-.3277,.1084-.4539,.1482-.2259,.0712-.4574,.1153-.6837,.1819-.5497,.1616,.4375-.106-.284,.0012,.0695-.0103,.4503,.1462,.4077,.1113,.0302,.0247,.4116,.4174,.2056,.1482,.0277,.0362,.3088,.4972,.1619,.1714,.438,.9718,.0813,.154,.1016,.1664,.1588,.0972,.0043,.4908,.0247,.1334,.0092-.1619,.0036-.3249,.014-.4873,.0263-.41-.1125,.5925,.0345-.1808,.2361-1.2426-.3471-2.5292-1.6373-2.8837-1.1452-.3147-2.6462,.3872-2.8837,1.6373Z"/></g><path d="M506.9886,412.9576c-2.1377,6.1246-4.2754,12.2493-6.4132,18.3739-.3027,.8672-.6054,1.7344-.9081,2.6017-.4172,1.1954,.475,2.5644,1.6373,2.8837,1.2917,.3549,2.465-.4376,2.8837-1.6373,2.1377-6.1246,4.2754-12.2493,6.4132-18.3739,.3027-.8672,.6054-1.7344,.9081-2.6017,.4172-1.1954-.475-2.5644-1.6373-2.8837-1.2917-.3549-2.465,.4376-2.8837,1.6373h0Z"/><path d="M517.3093,416.0149c-2.1377,6.1246-4.2754,12.2493-6.4132,18.3739-.3027,.8672-.6054,1.7344-.9081,2.6017-.4172,1.1954,.475,2.5644,1.6373,2.8837,1.2917,.3549,2.465-.4376,2.8837-1.6373,2.1377-6.1246,4.2754-12.2493,6.4132-18.3739,.3027-.8672,.6054-1.7344,.9081-2.6017,.4172-1.1954-.475-2.5644-1.6373-2.8837-1.2917-.3549-2.465,.4376-2.8837,1.6373h0Z"/><path d="M529.2171,417.064c-2.2663,6.493-4.5326,12.986-6.7989,19.479-.3209,.9194-.6418,1.8388-.9627,2.7582-.4172,1.1954,.475,2.5644,1.6373,2.8837,1.2917,.3549,2.465-.4376,2.8837-1.6373,2.2663-6.493,4.5326-12.986,6.7989-19.479,.3209-.9194,.6418-1.8388,.9627-2.7582,.4172-1.1954-.475-2.5644-1.6373-2.8837-1.2917-.3549-2.465,.4376-2.8837,1.6373h0Z"/><path d="M490.721,437.4759c2.1298-5.8271,4.2595-11.6542,6.3893-17.4812l3.5782-9.7901c.2295-.628,.4001-1.3462,.7094-1.9408,2.0195-3.8832,7.4061-1.7811,6.2043,2.4563-.7033,2.4799,3.1679,4.2831,4.2848,1.8064,1.8677-4.1415,7.6734-2.4914,6.3705,2.088-.7056,2.4802,3.1682,4.2823,4.2848,1.8064,1.8677-4.1415,7.6734-2.4914,6.3705,2.088-.7057,2.4804,3.1662,4.2814,4.2848,1.8064,2.0229-4.476,7.5292-2.1826,6.2469,2.4264-.3521,1.2654-.917,2.5088-1.3675,3.7414-1.8354,5.0217-3.6708,10.0433-5.5062,15.065-1.5629,4.2761-3.0538,8.5869-4.6912,12.8351-1.7798,4.6177-5.7434,6.4438-10.4317,4.8246-9.3551-3.231-18.657-6.6248-27.9837-9.9366-3.2073-1.1389-7.7826-1.9985-9.7402-5.0604-2.3874-3.7343-.2066-7.7874,1.1324-11.4508,3.4588-9.4633,6.9176-18.9266,10.3763-28.3899,.6596-1.8047-1.2843-3.2089-2.8837-2.8837-3.4589,.7033-7.5497,2.2948-11.092,2.0941-2.3396-.1325-4.2419-1.8914-4.395-4.2311-.1879-2.8713,1.9473-4.1263,4.2133-5.2224,3.9042-1.8885,7.6745-4.0319,11.4515-6.1591,7.6287-4.2964,16.0765-9.3289,25.0303-9.6924,10.5941-.4301,21.1813-1.0288,31.7565-1.7931,41.535-3.0019,82.8999-8.5279,123.772-16.5028,17.8999-3.4926,36.2659-7.0101,51.0591-18.3851,12.2415-9.413,22.1688-23.1888,36.9295-28.9135,6.3975-2.4812,15.0799-2.9729,18.6659-9.8345,1.6306-3.1201,3.8045-10.6654,1.2479-13.7323-1.4249-1.7094-4.647-1.627-6.6341-2.5419-2.3566-1.0851-4.4012-2.7057-6.0878-4.6681-3.4477-4.0116-5.2308-9.3061-6.0194-14.4664-1.6135-10.5584,.5703-23.507,8.0633-31.5518,10.825-11.6222,31.6043-14.4313,44.3774-4.3931,7.6013,5.9738,8.2703,15.5469,7.9109,24.5118-.3056,7.6243-.6663,15.2453-.8085,22.8761-.1145,6.1419,.3191,12.7324,3.9407,17.9403,4.6549,6.6937,12.9798,9.3776,20.2575,12.1813,8.652,3.3331,17.2927,6.509,25.1519,11.5183,6.8528,4.368,13.0418,9.733,18.4076,15.8336,10.4423,11.8721,17.6861,26.7299,19.8699,42.4403,2.1576,15.5219-.7279,32.1093-9.4693,45.2639-7.8675,11.8395-20.1499,19.9411-33.2205,25.0558-34.3569,13.4443-71.2736,9.6376-107.1736,7.2351-19.7376-1.3209-39.6271-1.7974-59.1537,1.9028-7.354,1.3936-14.7612,3.3513-21.4057,6.8823-7.0611,3.7525-11.6413,9.3211-14.6237,16.6902-1.5555,3.8436-2.6649,7.8448-4.1382,11.7175-.7471,1.9638-1.8733,4.1258-4.3662,3.8962-2.6013-.2396-3.4052-2.9071-2.7189-5.0164,.8108-2.4915-3.1206-4.2181-4.2848-1.8064-2.097,4.3443-8.0755,2.1218-6.5503-2.5532,.8128-2.4913-3.1209-4.2176-4.2848-1.8064-2.097,4.3443-8.0755,2.1218-6.5503-2.5532,.8129-2.4917-3.1192-4.2165-4.2848-1.8064-2.211,4.5716-7.9607,1.8874-6.4762-2.7374,.1891-.5892,.4685-1.1643,.6993-1.7379l4.1561-10.3293c3.8754-9.6317,7.7507-19.2633,11.6261-28.895,.967-2.4034,1.934-4.8067,2.901-7.2101,.7384-1.8351-1.3408-3.1462-2.8837-2.8837-4.6658,.7936-13.0033,4.1034-15.6886-1.4159l.2363,1.8064c.0857-.5476,.2936-1.0763,.4864-1.5922-.1042,.2788-.0314,.0245,.204-.4383,.1767-.3475,.3526-.6936,.5455-1.0327,.417-.7329,1.0632-1.6924,1.454-2.2008,3.9744-5.1703,10.415-8.8974,16.5019-11.4815,13.2727-5.6349,28.0583-7.6784,42.3302-8.6888,21.3935-1.5146,42.9039-1.2306,64.327-2.1595,20.2773-.8792,40.427-2.7815,60.3681-6.6371,12.9265-2.4993,31.3429-6.8052,34.6272-21.8275,.982-4.4917,1.2288-10.9731-2.145-14.6305-3.7142-4.0264-8.4624-.6449-11.0289,2.8266-5.2033,7.038-3.0175,16.4071,.4965,23.6761,4.117,8.5163,10.1549,16.2589,15.7458,23.8462,10.6763,14.4885,22.0117,28.9556,27.7575,46.2548,6.5796,19.8096,7.0247,41.7827,4.2319,62.3142-2.7637,20.3177-9.0415,40.124-16.4061,59.2048-7.3357,19.0058-16.1938,37.4218-26.1979,55.1634-4.995,8.8582-10.286,17.5498-15.8616,26.0545-2.6853,4.096-5.4255,8.1599-8.2566,12.1567-2.2643,3.1966-5.9379,8.2497-10.5522,6.5599-5.838-2.1379,1.0099-8.003,3.598-9.5925,4.4548-2.736,9.1601-5.1339,13.7683-7.5994,9.0546-4.8447,18.2232-9.4763,27.4962-13.8886,18.8798-8.9834,38.1912-17.0471,57.8518-24.1611,9.6565-3.4941,19.3955-6.7603,29.2064-9.794,4.5206-1.3979,10.6777-4.2875,14.8231-.6716,3.3512,2.9231,5.559,7.7951,7.7105,11.6119,9.7652,17.3232,16.3649,36.3733,19.534,56.0013,1.0447,6.4701,2.1767,13.2458,2.2711,19.8174,.0685,4.7731-.8095,9.9296-6.3695,10.6843-8.8204,1.1972-17.0574-4.7918-25.5293-6.1482-8.5185-1.3639-16.8155,1.0796-24.3566,4.9534-8.3625,4.2956-15.7736,10.1584-23.6847,15.1873-7.9442,5.05-16.3197,9.439-24.9932,13.0975-17.6344,7.4384-36.6333,12.0115-55.7768,12.8073-18.1702,.7554-37.6361-1.4275-54.014-9.813-36.9323-18.9095-40.4881-66.5955-34.2018-102.9341,2.0718-11.9763,5.3505-23.6169,9.5651-35.001,3.6506-9.8608,7.7435-21.1667,14.9843-29.0334,1.9243-2.0906,4.779-4.71,7.7152-2.978,3.3629,1.9838,4.1932,6.7263,3.6488,10.2769-.7168,4.6748-3.6726,8.7479-6.4234,12.4516-11.5817,15.594-22.0581,31.8109-30.8586,49.1493-17.9208,35.3066-29.3715,73.7897-33.6254,113.1544-1.145,10.5954-1.7657,21.2464-1.8761,31.9027-.1107,10.6775,1.0543,21.244-.4094,31.8794-.6703,4.8702-1.8475,9.8238-4.7713,13.8727-3.1544,4.3681-7.7976,6.0606-13.0221,6.4641-2.4113,.1862-5.2074,.3981-7.4413-.7352-.9978-.5062-1.9755-1.3242-2.3641-2.4-.3922-1.0857,.1049-3.605,1.8574-3.0725,2.5325,.7696,.3765,4.548-.5706,5.4545-1.6095,1.5404-3.9121,2.5208-5.9431,3.3668-15.3714,6.4026-33.6149,5.1678-49.4799,1.4319-7.9225-1.8656-15.7562-4.4833-22.9937-8.2363-6.937-3.5971-15.9338-10.6857-12.3577-19.5673,1.6096-3.9976,4.7516-7.2281,7.4043-10.5462,2.4859-3.1095,4.4449-6.2684,5.9856-9.9475,3.6962-8.8264,5.5259-18.2614,7.1867-27.6424,3.2251-18.2173,6.6333-36.4058,10.4442-54.5106,7.5599-35.9152,16.816-71.6314,30.5241-105.7387,13.719-34.1346,32.2023-66.514,56.5834-94.1829,11.6361-13.2052,23.2658-27.2521,26.6794-45.0236,.5663-2.9482-3.9516-4.2111-4.5211-1.2464-3.983,20.7353-19.3292,35.156-32.1519,50.8167-12.5283,15.3011-23.4769,31.8465-32.8712,49.2427-18.8538,34.9133-31.4831,72.8287-41.0678,111.2251-4.8383,19.3823-8.9231,38.9444-12.6892,58.5606-1.8924,9.8567-3.7013,19.7279-5.451,29.6108-1.8021,10.1791-3.6031,21.007-8.4226,30.2748-3.8312,7.3673-11.9661,12.6545-13.0363,21.3799-1.085,8.8458,6.0602,15.8765,13.044,20.0419,14.9042,8.8894,33.8583,12.9163,51.0552,13.1193,8.6878,.1025,17.622-.8929,25.8083-3.9268,6.0911-2.2574,16.8293-8.0576,11.279-16.0599-2.0627-2.974-6.0372-3.4765-8.7806-1.1192-2.9428,2.5286-3.0863,6.7464-.9095,9.8033,2.6445,3.7137,7.3222,4.5602,11.597,4.4155,4.9045-.166,9.9751-1.0579,14.0021-4.027,8.1394-6.0012,9.7289-16.5557,10.625-25.9325,.527-5.514,.2517-10.9935,.0131-16.5141-.2539-5.8755-.183-11.7607,.0032-17.6375,.7304-23.0452,3.9202-45.9723,9.5635-68.329,10.3143-40.862,28.5695-79.6605,53.7882-113.4469,5.3113-7.1157,11.6239-15.3693,8.71-24.8074-1.515-4.9071-6.0635-9.5795-11.5777-8.3338-4.3123,.9742-7.4961,4.7778-9.9726,8.1772-3.5422,4.8622-6.2238,10.3564-8.6499,15.8406-13.1616,29.7526-20.1309,63.2891-15.6668,95.7401,2.6069,18.9507,10.0283,38.1954,24.9455,50.8506,14.7574,12.5195,34.286,17.3417,53.2046,18.6983,20.225,1.4503,40.7427-1.5897,59.9683-7.9038,9.6172-3.1585,18.9822-7.1496,27.9163-11.9091,8.9661-4.7766,17.128-10.6628,25.6081-16.2127,8.2243-5.3824,17.4849-10.6823,27.6526-10.1756,9.733,.485,18.1748,7.0775,28.098,6.6048,14.6076-.6959,12.2236-16.8494,10.9138-27.0584-2.6365-20.5497-7.9759-40.2974-17.2341-58.9013-2.3368-4.6956-4.8926-9.2822-7.659-13.7383-2.2483-3.6215-4.7-7.5132-8.9296-8.9833-4.5113-1.568-9.3269,.124-13.6699,1.454-5.455,1.6707-10.8879,3.4139-16.2969,5.2278-21.1068,7.078-41.8507,15.2416-62.1322,24.4201-10.2221,4.626-20.3254,9.5141-30.2959,14.6602-4.9007,2.5294-9.7694,5.1208-14.6043,7.7739-4.3028,2.3611-9.1914,4.517-12.6127,8.1465-2.5963,2.7542-4.3735,6.6815-2.5208,10.3514,1.6103,3.1897,5.1822,4.6303,8.6223,4.4241,4.2245-.2532,7.5208-3.1335,10.0376-6.303,3.198-4.0274,5.9983-8.424,8.8419-12.7047,12.1391-18.2739,22.9827-37.426,32.3268-57.2764,18.5329-39.3708,34.0345-83.6954,28.8177-127.8168-1.2449-10.529-3.4958-20.912-7.6473-30.6959-3.7725-8.8908-8.8462-17.1095-14.384-24.9976-5.6566-8.0574-11.7315-15.8116-17.3715-23.8812-5.559-7.9537-13.5838-17.9408-12.3726-28.2865,.2748-2.347,1.1633-4.4328,2.7038-6.229,.4927-.5745,1.6831-2.1102,2.6024-2.0084,1.5163,.1679,1.9073,3.6622,2.0195,4.7459,.7674,7.4163-2.7989,13.2025-9.0278,16.9521-7.586,4.5664-16.6006,6.3276-25.1993,7.9128-11.0742,2.0416-22.1967,3.575-33.4174,4.5422-23.3483,2.0126-46.7993,2.0811-70.207,2.8308-18.0818,.5792-36.5147,1.5519-53.8796,7.0803-8.5253,2.7142-17.2983,6.598-23.6576,13.0884-2.3669,2.4157-5.085,5.7535-5.7447,9.2077-.8165,4.2752,4.927,7.4773,8.5153,7.6018,4.1283,.1433,8.5962-1.255,12.6454-1.9437-.9612-.9612-1.9225-1.9225-2.8837-2.8837-3.1926,7.9346-6.3851,15.8692-9.5777,23.8038-3.2468,8.0694-7.0506,16.1098-9.803,24.3639-1.3269,3.9792,.2656,8.5274,4.1381,10.3916,4.1342,1.9902,8.966-.026,10.9058-4.037-1.4283-.6021-2.8565-1.2043-4.2848-1.8064-3.1513,9.659,10.6859,15.3517,15.1198,6.166-1.4283-.6021-2.8565-1.2043-4.2848-1.8064-3.1513,9.659,10.6859,15.3517,15.1198,6.166-1.4283-.6021-2.8565-1.2043-4.2848-1.8064-2.3987,7.371,5.7114,13.924,12.2985,9.4452,3.2281-2.1949,4.1233-6.5636,5.2935-10.0411,1.5012-4.4608,2.9259-9.0185,5.4797-13.0137,4.5931-7.1856,13.2433-10.5707,21.1159-12.7623,8.897-2.4767,18.1539-3.7352,27.3524-4.3443,21.7879-1.4426,43.559,1.055,65.2828,2.4108,19.915,1.2429,39.782,1.1643,59.4279-2.6864,14.7634-2.8936,29.6331-7.7476,42.0386-16.472,12.2875-8.6414,21.2527-20.8959,25.2374-35.4329,8.9883-32.7911-6.2819-67.5793-32.6918-87.6512-7.2049-5.4758-15.139-9.4937-23.5334-12.8122-4.9032-1.9383-9.8854-3.6835-14.7351-5.7562-3.9615-1.6932-8.1044-3.4951-10.8928-6.9213-4.4628-5.4835-3.9618-13.1908-3.7091-19.8216,.3254-8.538,1.0894-17.2739,.7338-25.8064-.3551-8.5217-3.0454-16.5667-10.0225-21.8953-6.6642-5.0896-15.4164-7.2801-23.7221-6.8393-14.4829,.7687-27.717,8.9533-33.1693,22.553-4.3498,10.8495-4.6871,24.1811,.1331,34.9323,2.2173,4.9457,5.8161,9.4037,10.6606,11.9704,1.1321,.5998,2.3294,1.1033,3.5452,1.5061,.6787,.2248,1.3688,.4141,2.0675,.5663,.1543,.0336,.7926,.2498,.9289,.178,.5526-.2914-.5322-.5405-.5128-.5607-.2346,.2431-.1933,3.3635-.2795,3.8249-.2566,1.3729-.5387,2.8256-1.0534,4.1281-1.4129,3.5753-5.4492,5.1112-8.8783,6.1243-3.9037,1.1534-7.7036,2.1736-11.37,3.9967-7.2564,3.6082-13.4383,9.0625-19.3353,14.5359-6.2953,5.8432-12.4164,12.0288-19.6953,16.6691-8.3762,5.3399-17.8979,8.3669-27.499,10.6453-21.0474,4.9947-42.576,8.4509-63.9639,11.6151-22.3915,3.3127-44.8946,5.8744-67.4567,7.6925-10.9731,.8842-21.9605,1.5908-32.9567,2.1165-5.2576,.2513-10.316,.1639-15.3804,1.7302-4.2877,1.3261-8.4137,3.1526-12.399,5.2061-3.8997,2.0094-7.6791,4.2397-11.5196,6.3576-3.6019,1.9863-8.61,3.4344-11.2518,6.6876-5.0698,6.2431,.0719,15.4425,7.9104,14.9982,3.8231-.2167,7.7478-1.4804,11.4909-2.2415-.9612-.9612-1.9225-1.9225-2.8837-2.8837-3.5334,9.6675-7.0669,19.3351-10.6003,29.0026-1.8152,4.9663-3.5234,9.8335-.2153,14.7721,2.6996,4.0302,7.3585,5.1315,11.6529,6.6564,9.7826,3.4737,19.5083,7.3251,29.4101,10.4431,7.0196,2.2104,13.0194-1.8829,15.4417-8.3683,1.9122-5.1196,3.7526-10.2673,5.6287-15.4002,1.9528-5.3429,4.1591-10.6594,5.8783-16.0831,1.0706-3.3777,.3396-7.0969-2.5299-9.3822-4.1247-3.285-10.1283-1.4626-12.2287,3.1848,1.4283,.6021,2.8565,1.2043,4.2848,1.8064,2.7071-9.5156-10.8221-14.8323-14.9401-5.7009,1.4283,.6021,2.8565,1.2043,4.2848,1.8064,2.7071-9.5156-10.8221-14.8323-14.9401-5.7009,1.4283,.6021,2.8565,1.2043,4.2848,1.8064,2.1222-7.4831-6.4802-13.9153-12.7291-8.6025-2.5409,2.1603-3.4015,6.0725-4.5079,9.0997-2.8954,7.922-5.7909,15.8439-8.6863,23.7659-1.0374,2.8384,3.492,4.0621,4.5211,1.2464h0Z"/><path d="M537.6618,434.4095c16.5616,4.9358,34.0612,6.8037,51.2895,5.411,4.9501-.4001,9.8804-1.0664,14.7628-1.9732,1.2455-.2314,1.9523-1.7376,1.6373-2.8837-.3593-1.3076-1.6346-1.8694-2.8837-1.6373-16.3665,3.04-33.3398,3.0265-49.6991-.063-4.676-.8831-9.3002-2.0158-13.8603-3.3748-2.8977-.8636-4.1358,3.66-1.2464,4.5211h0Z"/><path d="M316.204,341.1241c-14.3745,.2875-28.442-5.7967-38.1105-16.4303-1.5134-1.6644-3.7812-.1882-4.0019,1.6577-.9095,7.6071-5.8878,14.1522-11.6875,18.8471-6.7628,5.4744-15.0979,8.7217-23.1001,11.9017-2.1059,.8368-2.3324,3.7613,0,4.5211,5.9896,1.9512,10.6073,7.2133,11.8584,13.3736,1.3076,6.4381-1.5428,13.1935-6.5783,17.2404-2.0595,1.6552,.6566,5.1995,2.8409,3.6819,.2781-.1932-.5638,.1816-.2218,.0784,.0352-.0106-.6007,.0466-.361,.0515,.2698,.0055,.0985,.0827-.0126-.0251-.1511-.1467-.1004-.0344,.1575,.0496,.1766,.0576,.3531,.114,.5291,.1739,.4056,.1381-.3025-.1593,.1085,.0528,.2107,.1088,.4244,.2111,.6331,.3239,.4324,.2335,.8541,.4865,1.2697,.7486,1.9406,1.2236,3.5461,2.48,5.2632,3.8912,3.4096,2.8023,6.8301,5.8098,9.338,9.4719,2.0095,2.9344,3.1907,6.1662,3.3361,9.7328,.0657,1.6132,2.0038,3.1356,3.5275,2.0242,4.0052-2.9214,9.003-3.9066,13.7892-2.5441,2.9071,.8276,4.1482-3.6951,1.2464-4.5211-5.8854-1.6753-12.4426-.6006-17.402,3.0168l3.5275,2.0242c-.3071-7.5341-4.3209-13.5722-9.6278-18.6608-3.2931-3.1577-6.9529-6.2089-10.8338-8.61-1.7564-1.0867-4.61-2.7328-6.6331-1.3272,.947,1.2273,1.8939,2.4546,2.8409,3.6819,6.3731-5.1219,9.4057-13.8178,7.7841-21.8022-1.5783-7.7713-7.6618-14.2144-15.1331-16.6483v4.5211c13.1952-5.2436,27.4966-11.2094,34.7118-24.2992,1.8877-3.4247,3.0545-7.094,3.518-10.9707-1.334,.5526-2.668,1.1051-4.0019,1.6577,10.456,11.4997,25.8918,18.1142,41.4259,17.8035,3.0131-.0603,3.0233-4.749,0-4.6886h0Z" style="fill:#fff;"/><path d="M347.1058,349.5105c3.9955-3.7498,7.991-7.4996,11.9866-11.2494,.8962-.8411,.9128-2.4774,0-3.3153-.9603-.8815-2.3592-.8973-3.3153,0-3.9955,3.7498-7.991,7.4996-11.9866,11.2494-.8962,.8411-.9128,2.4774,0,3.3153,.9603,.8815,2.3592,.8973,3.3153,0h0Z" style="fill:#fff;"/><path d="M355.5928,364.0831c.4639-.227,.9308-.4475,1.4024-.658,.074-.033,.88-.3752,.4566-.2006,.2046-.0844,.4097-.1676,.6155-.2489,.9606-.3793,1.9357-.7221,2.9223-1.0275,1.9745-.6112,3.9926-1.0662,6.0358-1.3764,1.2164-.1847,1.9953-1.7777,1.6373-2.8837-.429-1.3257-1.5802-1.8352-2.8837-1.6373-4.3719,.6638-8.5832,2.0415-12.5525,3.984-1.1042,.5403-1.4921,2.1975-.841,3.2074,.7296,1.1317,2.0264,1.4189,3.2074,.841h0Z" style="fill:#fff;"/><path d="M330.3289,330.5785v8.9944c0,1.2262,1.0783,2.401,2.3443,2.3443,1.2701-.0569,2.3443-1.03,2.3443-2.3443v-8.9944c0-1.2262-1.0783-2.401-2.3443-2.3443-1.2701,.0569-2.3443,1.03-2.3443,2.3443h0Z" style="fill:#fff;"/><path d="M289.9617,447.3794l2.9981-8.9944c.3881-1.1643-.4479-2.6128-1.6373-2.8837-1.2939-.2947-2.4682,.3908-2.8837,1.6373-.9994,2.9981-1.9988,5.9963-2.9981,8.9944-.3881,1.1643,.4479,2.6128,1.6373,2.8837,1.2939,.2947,2.4682-.3908,2.8837-1.6373h0Z" style="fill:#fff;"/><path d="M320.845,440.5961c-.3197-.3552-.6325-.7164-.935-1.0864-.0756-.0925-.1499-.1861-.2251-.2788-.3679-.4536,.1853,.2519-.0188-.0203-.1433-.1912-.2871-.3819-.4272-.5755-.5775-.7986-1.114-1.6269-1.6067-2.4804-.4778-.8276-.9146-1.679-1.308-2.55-.0492-.1089-.0969-.2184-.1455-.3275-.1127-.2536-.0509-.0924,.0258,.0654-.1166-.2397-.203-.5-.2981-.7492-.1812-.4744-.3482-.9538-.5052-1.4367-.3786-1.1642-1.6407-2.0396-2.8837-1.6373-1.1635,.3765-2.0434,1.635-1.6373,2.8837,1.3889,4.2715,3.6456,8.1702,6.6496,11.5083,.8227,.9142,2.4896,.8994,3.3153,0,.8963-.9764,.8775-2.3402,0-3.3153h0Z" style="fill:#fff;"/><path d="M120.0704,256.8597c-4.8706-4.4016-8.2228-10.3988-9.1136-16.9369-.9119-6.6929,.9198-13.6094,4.8559-19.071,1.2198-1.6925,4.2241-5.4563,6.6154-4.4108,.1839,.0804,.4657,.3862,.6319,.6499,.1621,.2572,.2968,.8117,.2924,.9223-.0026,.0668-.0037,.0835-.0144,.1477,.0502-.3012,.1134,.0294-.0271-.0072-.1166-.0303-.5266-.0809-.7602-.2148-1.0779-.6185-1.2906-2.1965-1.4116-3.3144-.2143-1.9791-.2625-4.0209-.0617-6.0029,.3195-3.1542,1.6798-6.1404,3.6365-8.6149,5.0476-6.3831,13.0126-9.2534,20.409-11.9208,1.1904-.4293,1.9914-1.5953,1.6373-2.8837-.316-1.1498-1.687-2.0689-2.8837-1.6373-8.4978,3.0646-17.3437,6.4308-23.0303,13.8365-2.7848,3.6266-4.321,7.8231-4.5429,12.3945-.1978,4.075-.1307,10.0655,4.0317,12.2715,3.9357,2.0858,8.4762-.7769,7.5703-5.3043-.8134-4.0653-5.0286-6.0272-8.7972-4.6521-4.1362,1.5092-7.1416,5.5569-9.1825,9.2914-2.1559,3.9448-3.4207,8.303-3.781,12.7794-.7818,9.7128,3.4269,19.5014,10.6104,25.9933,2.2338,2.0187,5.5597-1.287,3.3153-3.3153h0Z" style="fill:#6966ed;"/><path d="M94.1836,273.756c3.2939,4.0664,7.6234,7.3458,12.4353,9.4036,.604,.2583,1.1441,.4187,1.8064,.2363,.5438-.1497,1.1331-.5702,1.401-1.0773,.532-1.0069,.3629-2.6926-.841-3.2074-2.298-.9828-4.4502-2.2369-6.4581-3.7232-.1834-.1357-.1622-.1243,.006,.0079-.1289-.1013-.2574-.2028-.385-.3057-.2296-.1852-.4567-.3735-.6809-.5652-.4734-.4046-.9345-.8236-1.3826-1.256-.9204-.8882-1.7808-1.8345-2.5858-2.8282-.7753-.9571-2.52-.8664-3.3153,0-.933,1.0164-.827,2.2943,0,3.3153h0Z" style="fill:#6966ed;"/><path d="M414.0645,314.8131c-1.0464,15.9008-2.1882,32.5349-10.0821,46.7603-1.4653,2.6406,2.5825,5.0081,4.0484,2.3664,8.3138-14.9819,9.6196-32.3716,10.7222-49.1267,.1982-3.0124-4.4911-3.0003-4.6886,0h0Z" style="fill:#6966ed;"/><path d="M426.5677,287.8082c6.641,10.2846,9.0666,23.0236,6.4811,35.0113-.6345,2.942,3.8842,4.1991,4.5211,1.2464,2.844-13.186,.375-27.2744-6.9537-38.6241-1.6313-2.5263-5.6917-.1784-4.0484,2.3664h0Z" style="fill:#6966ed;"/><path d="M36.4446,524.5645c-6.6182,17.5538-7.356,37.2161-2.3629,55.2809,1.4169,5.1262,3.3259,10.1093,5.6352,14.8988,.5498,1.1403,2.1768,1.4438,3.2074,.841,1.1652-.6815,1.3929-2.0629,.841-3.2074-7.6821-15.9319-10.0948-34.4151-6.9065-51.806,.9229-5.0342,2.3014-9.9723,4.1068-14.7609,.4467-1.1849-.4964-2.5702-1.6373-2.8837-1.3162-.3616-2.4354,.4481-2.8837,1.6373h0Z" style="fill:#6966ed;"/><path d="M358.0167,605.5389c.8334,8.3962,.8334,16.846,0,25.2422-.1252,1.2617,1.1671,2.3443,2.3443,2.3443,1.3719,0,2.2187-1.079,2.3443-2.3443,.8334-8.3962,.8334-16.846,0-25.2422-.1251-1.2598-.9879-2.3443-2.3443-2.3443-1.1707,0-2.4701,1.0767-2.3443,2.3443h0Z" style="fill:#6966ed;"/><path d="M23.3423,609.6006c1.202,1.202,2.404,2.404,3.606,3.606,.4251,.4251,1.0566,.6866,1.6577,.6866,.575,0,1.2618-.2554,1.6577-.6866,.4101-.4468,.7146-1.0333,.6866-1.6577-.0279-.6218-.238-1.209-.6866-1.6577-1.202-1.202-2.404-2.404-3.606-3.606-.4251-.4251-1.0566-.6866-1.6577-.6866-.575,0-1.2618,.2554-1.6577,.6866-.4101,.4468-.7146,1.0333-.6866,1.6577,.0279,.6218,.238,1.209,.6866,1.6577h0Z" style="fill:#6966ed;"/><path d="M777.1976,274.4154c3.6429-.4496,6.8555-2.3451,8.9511-5.3733,.4666-.6742,.1466-1.7646-.5607-2.1383-.7969-.421-1.6404-.1588-2.1383,.5607-.0557,.0805-.1117,.1606-.1693,.2398-.0225,.0309-.18,.2415-.0541,.0764,.1385-.1816-.0679,.0822-.0969,.1173-.0499,.0603-.1004,.12-.1515,.1791-.2431,.281-.5011,.5489-.7722,.8029-.1284,.1204-.2598,.2376-.3939,.3516-.0745,.0633-.1521,.1231-.2262,.1868-.1668,.1434,.2165-.1573,.0384-.0281-.3014,.2186-.6046,.4317-.9234,.6247-.3013,.1823-.6114,.3504-.9288,.5029-.0705,.0339-.1414,.0671-.2126,.0995-.0122,.0056-.3574,.1459-.1364,.0613,.2228-.0853-.1299,.048-.1402,.0519-.0731,.0277-.1466,.0547-.2203,.0808-.3502,.1241-.7068,.2301-1.0679,.317-.1711,.0412-.3432,.0783-.5161,.1107-.0769,.0144-.154,.028-.2311,.0407-.0715,.0117-.4769,.0625-.0495,.0097-.8084,.0998-1.6039,.6473-1.5629,1.5629,.0341,.7609,.6938,1.6701,1.5629,1.5629h0Z"/></svg>