<?xml version="1.0" encoding="UTF-8"?><svg id="Layer_2" xmlns="http://www.w3.org/2000/svg" width="1000" height="1000" viewBox="0 0 1000 1000"><g><rect x="81.5563" y="127.5006" width="594.3962" height="468.0802" rx="34.5606" ry="34.5606" style="fill:#f953b2;"/><rect x="135.9341" y="219.5623" width="397.0233" height="312.6513" rx="34.5606" ry="34.5606" style="fill:#fff;"/><path d="M675.9525,167.5594v-36.78c0-16.6753-13.518-30.1933-30.1933-30.1933H111.7496c-16.6753,0-30.1933,13.518-30.1933,30.1933v36.78H675.9525Z" style="fill:#6966ed;"/><path d="M291.6064,453.1802l109.2914-79.6592c10.7034-7.8014,10.7034-23.7679,0-31.5694l-109.2914-79.6592c-12.9082-9.4084-31.0375-.1884-31.0375,15.7847v159.3184c0,15.973,18.1294,25.1931,31.0375,15.7847Z" style="fill:#f4d13b;"/><path d="M705.9382,314.8503c.4059,1.0359,.7013,2.0164-.0363,2.9663-.7008,.9025-1.8346,1.4931-2.8745,1.9053-2.5794,1.0224-5.3852,1.2982-7.999,2.2152-2.7579,.9676-5.5907,2.736-5.7795,5.964-.195,3.3343,3.1389,4.967,5.761,6.0334,3.0686,1.248,6.4592,1.7311,9.7555,1.4275,1.0099-.093,1.8778-.7965,1.8778-1.8778,0-.9435-.8619-1.9713-1.8778-1.8778-3.3141,.3052-6.68-.2137-9.6652-1.7237-.9374-.4742-2.5845-1.0969-1.9406-2.4059,.6024-1.2246,2.2731-1.7413,3.4729-2.1192,3.1916-1.0054,6.6017-1.3235,9.557-3.0069,1.3147-.7489,2.5602-1.8102,3.2773-3.1631,.9046-1.7069,.7816-3.5778,.0928-5.3358-.3697-.9436-1.2587-1.6004-2.3099-1.3115-.8998,.2473-1.6835,1.3604-1.3115,2.3099h0Z"/><path d="M226.1935,673.5352c7.1876,.2246,14.3751,.4492,21.5627,.6738,11.4493,.3578,22.8986,.7155,34.3479,1.0733,2.6188,.0818,5.2376,.1637,7.8565,.2455,3.6261,.1133,3.6223-5.5201,0-5.6333-7.1876-.2246-14.3751-.4492-21.5627-.6738-11.4493-.3578-22.8986-.7155-34.3479-1.0733-2.6188-.0818-5.2376-.1637-7.8565-.2455-3.6261-.1133-3.6223,5.5201,0,5.6333h0Z"/><path d="M222.2568,702.0337c7.7381-.1526,15.4762-.3052,23.2142-.4578,12.3455-.2434,24.691-.4869,37.0365-.7303,2.8495-.0562,5.699-.1124,8.5485-.1686,3.6203-.0714,3.6324-5.7049,0-5.6333-7.7381,.1526-15.4762,.3052-23.2142,.4578-12.3455,.2434-24.691,.4869-37.0365,.7303-2.8495,.0562-5.699,.1124-8.5485,.1686-3.6203,.0714-3.6324,5.7049,0,5.6333h0Z"/><path d="M219.4767,742.7992c-.0736-6.665,5.1459-11.8852,11.7754-11.9947,3.53-.0583,7.0604-.1008,10.5906-.1511,12.3286-.1759,24.6573-.3519,36.9859-.5278,3.1892-.0455,6.3785-.091,9.5677-.1365,3.6218-.0517,3.6322-5.6851,0-5.6333-8.8509,.1263-17.7017,.2526-26.5526,.3789-10.197,.1455-20.395,.2619-30.5916,.4366-9.6373,.165-17.5163,7.875-17.4087,17.628,.04,3.6226,5.6734,3.632,5.6333,0h0Z"/><rect x="550.9951" y="219.5106" width="102.6506" height="70.462" rx="14.6928" ry="14.6928" style="fill:#f4d13b;"/><rect x="550.9951" y="322.2946" width="102.6506" height="70.462" rx="14.6928" ry="14.6928" style="fill:#f4d13b;"/><rect x="550.9951" y="425.0786" width="102.6506" height="70.462" rx="14.6928" ry="14.6928" style="fill:#f4d13b;"/><path d="M418.5695,402.8221c9.6926-1.851,20.0601-2.8766,29.3314,1.2511,1.1943,.5317,2.3589,1.1333,3.4906,1.7875,.1531,.0885,1.1739,.76,.697,.3275,.0125,.0114,.0216,.0265,.0339,.0381,.0668,.0635,.1214,.1439,.181,.2139,.1312,.1544,.5506,.7004,.1118,.1326-.4538-.5872,.1199,.1651,.2541,.35,.4616,.6357,.8997,1.2885,1.3244,1.9493,1.4716,2.2892,2.7838,4.6806,4.0167,7.1054,.9047,1.7793,1.7632,3.582,2.5872,5.4,.4912,1.0838,.9699,2.1733,1.4377,3.2675,.1544,.3611,.434,1.0378,.0987,.229,.1282,.3093,.2591,.6176,.3875,.9269,.2504,.6034,.4977,1.2082,.7421,1.8141,2.4252,6.0125,4.5741,12.1352,6.5497,18.3091,2.6777,8.368,5.034,16.8375,7.1793,25.3568,2.7831,11.0524,5.2077,22.1939,7.3885,33.3801,2.7418,14.0642,5.0956,28.2028,7.1774,42.3791,2.5404,17.3,4.6608,34.6602,6.4921,52.049,2.2215,21.0942,4.0115,42.233,5.4844,63.3922,.4036,5.7974,.7822,11.5965,1.1399,17.3969,.2221,3.6014,5.8569,3.6266,5.6333,0-1.3774-22.3385-3.0778-44.6583-5.2273-66.9362-1.8003-18.6579-3.9223-37.2845-6.4563-55.8574-2.052-15.0401-4.3863-30.044-7.121-44.9757-2.1994-12.0083-4.6562-23.9723-7.4908-35.8474-2.1786-9.1268-4.5785-18.2043-7.3142-27.1808-2.0416-6.6991-4.2679-13.346-6.7877-19.8813-1.8353-4.7598-3.8138-9.4745-6.0425-14.0647-1.3386-2.7569-2.7677-5.4765-4.3719-8.0891-.9099-1.4818-1.8811-2.9245-2.9658-4.2848-.1438-.1804-.2813-.378-.4453-.5412-.2882-.2869-.6657-.5032-1.0049-.7192-2.2617-1.4401-4.7615-2.5691-7.2693-3.5029-4.9943-1.8597-10.3261-2.5864-15.6391-2.4078-5.0691,.1704-10.1217,.8495-15.0998,1.8002-1.495,.2855-2.3471,2.0824-1.9672,3.4648,.4301,1.5652,1.9655,2.2536,3.4648,1.9672h0Z"/><path d="M366.2587,321.469c-6.8392,.9998-13.8667,2.636-20.7624,2.9788-7.8732,.3913-14.054-7.3664-11.6161-14.9578,1.482-4.615,5.445-7.3568,10.0989-8.0177,16.4393-2.3347,33.0285-3.8854,49.5188-5.8253,6.6002-.7764,13.2123-1.7588,19.8337-2.3332,2.3523-.2041,4.7297-.0892,7.0918-.0857,6.6197,.0098,13.2179-.3386,19.8403-.0375,17.8747,.8128,35.9104,4.5741,51.8795,12.8582,16.0048,8.3026,28.6279,21.146,39.3769,35.4272,11.5103,15.2927,20.4619,31.8835,28.8614,49.0448,8.7175,17.8109,16.5596,36.0403,23.6799,54.5457,14.0881,36.6144,25.9351,74.3513,35.4416,112.413,4.9846,19.957,9.0782,40.1889,11.2693,60.6565,1.0768,10.0589,1.7068,20.1691,1.7729,30.2865,.0315,4.8116-.0277,9.6358-.2986,14.4408-.1245,2.2093-.1686,4.858-1.4106,6.7918-1.9009,2.9598-4.745,2.3545-5.6441-.7483-1.1091-3.8275-.5649-8.4135-.5427-12.3519,.0291-5.1655,.1741-10.3301,.4224-15.4897,.4786-9.9443,1.3392-19.8685,2.4816-29.7578,2.285-19.7798,5.7292-39.411,9.6135-58.9336,3.9131-19.6673,8.305-39.2343,12.5576-58.8299,1.8551-8.5481,3.2094-17.352,6.0424-25.6468,2.3676-6.9322,5.8039-13.4904,10.0767-19.4381,8.448-11.7596,20.5121-21.032,34.0938-26.0715,6.755-2.5064,13.8578-4.059,21.0516-4.4966,4.8591-.2956,20.9167-.7369,19.3386,7.8799-.2487,1.3581-1.294,3.2791-2.8535,3.4289-2.9287,.2812-3.2399-3.8157-2.9329-5.7001,.6068-3.7238,1.7826-7.1581,1.8806-10.9907,.1491-5.8269-1.4555-11.604-4.8993-16.3348-8.4211-11.5682-23.2135-13.5449-33.5789-22.5647-25.6938-22.3583-19.1232-62.7536-2.9569-88.6987,4.5177-7.2503,10.3612-13.25,15.4965-20.009,5.3162-6.9971,9.8387-13.5487,17.8288-17.7158,15.4207-8.0423,36.1526-10.2212,52.5901-4.0985,16.9875,6.3276,26.3466,23.1152,29.7226,40.1032,3.8345,19.2948,1.001,39.1055,1.268,58.5903,.1229,8.9708,.3564,18.9381,3.5408,27.4421,2.6498,7.0762,8.2251,11.5651,14.9058,14.706,3.2041,1.5064,6.5298,2.7412,9.8582,3.9398,2.3792,.8568,5.0093,2.199,7.4978,2.5796,.1841,.0281,.3803-.0087,.566,.0135,.4604,.055,.9347,.0519,1.3975,.0904,.5224,.0435,2.5626,.3019,1.5366,.1568,2.103,.2975,4.187,.7041,6.2494,1.2121,15.983,3.9369,30.3895,13.3725,42.2801,25.2625,23.577,23.5757,37.2768,55.6357,46.1948,87.2615,7.3173,25.9491,11.6088,52.7021,14.1533,79.5153,1.596,16.8187,2.5049,33.6993,2.8971,50.5877,.2036,8.7672,.7655,17.7722,.0187,26.5149-.549,6.4267-1.207,12.8443-1.9873,19.2471-5.1525,42.2765-15.6126,85.033-36.9346,122.2467-16.0585,28.0273-38.5492,51.983-66.7076,68.0482-26.4969,15.1173-56.6082,22.7666-86.8805,25.1225-32.6704,2.5425-65.6156-.608-97.7238-6.7707-33.6765-6.4637-66.6761-16.2413-98.897-27.9098-30.7262-11.1272-60.7891-24.0387-90.2391-38.1896-24.531-11.7873-48.6488-24.438-72.3268-37.8559-15.1476-8.584-30.1326-17.4686-44.8472-26.7771-3.0737-1.9445-6.0766-4.0272-9.1839-5.9159-.2311-.1405-.4489-.3456-.694-.4601-.0333-.0156-.0595-.0474-.0932-.0622-1.4005-.6164-2.8852-.3167-4.3785-.2493-2.8532,.1287-5.7067,.2506-8.5605,.3654-16.8716,.6781-33.7511,1.0642-50.6342,1.2952-16.7703,.2294-33.5415,.3734-50.3105,.6927-7.7506,.1476-17.735,2.0533-21.9248-6.3933-3.7022-7.4636,1.5595-15.333,9.253-16.6548,3.1544-.542,2.3805-5.6044-.7488-5.5327-5.7537,.132-11.3099-2.4032-13.0664-8.3172-1.9721-6.6399,2.2546-13.0122,8.7274-14.7096,2.5122-.6588,2.8505-5.007,0-5.432-10.8921-1.6242-15.0677-16.1606-4.643-21.8355,4.0365-2.1973,9.1474-1.3788,13.5718-1.2365,10.3497,.3329,20.6994,.6658,31.0491,.9988,3.1207,.1004,3.9017-4.9045,.7488-5.5327-9.4644-1.8857-18.9287-3.7714-28.3931-5.6571-3.7169-.7406-7.468-1.3855-11.1642-2.2244-8.8749-2.0143-13.1034-12.8532-6.3151-19.7051,6.1557-6.2133,16.9298-1.9722,24.3008-.5035,12.1745,2.4257,24.3489,4.8514,36.5234,7.2772,8.3386,1.6614,16.6773,3.3229,25.0159,4.9843,1.8852,.3756,4.3088-1.2963,3.4648-3.4648-1.9252-4.9468-3.8505-9.8936-5.7757-14.8404-2.1991-5.6505-6.2309-12.8251-3.9067-18.8819,1.7723-4.6187,7.0984-7.6818,11.8919-7.8535,5.407-.1937,9.6578,2.9884,12.1727,7.5492,4.8752,8.8414,12.1413,15.7606,20.3258,21.5453,13.8636,9.7987,29.6993,16.3891,44.2919,24.9753,2.6704,1.5713,5.3587,3.112,8.055,4.6384,14.5409,8.2322,29.314,16.0585,44.2282,23.5914,23.3102,11.7736,47.0085,22.7809,71.0897,32.8865,27.6881,11.6193,55.9255,22.0481,84.7794,30.398,28.2604,8.1782,57.2965,14.5071,86.6992,16.543,25.361,1.7561,51.8516,.3214,75.7846-8.923,10.9354-4.2239,21.153-10.0295,30.1131-17.6143,11.8053-9.9933,20.0741-22.6975,27.2635-36.2766,20.525-38.7675,28.9115-82.9545,20.5572-126.2503-4.482-23.2277-13.3829-46.4703-26.8696-66.0248-.8029-1.1642-1.6292-2.3107-2.5005-3.4247-2.2313-2.8529-6.1925,1.1588-3.9833,3.9833-.7207-.9215-.0383-.0526,.2655,.3725,.5776,.8084,1.1546,1.6161,1.7138,2.4376,2.0614,3.0285,3.9788,6.1556,5.794,9.3371,6.171,10.8161,11.1335,22.3052,14.896,34.1726,12.2605,38.6713,10.6139,80.0936-3.6285,118.02-4.8636,12.9514-11.1085,25.366-18.3046,37.1736-3.3589,5.5114-7.2265,10.6603-11.656,15.3586-7.8833,8.3616-17.2978,15.0545-27.6378,20.0416-22.5335,10.8683-48.3473,13.3466-73.0512,12.4483-29.0364-1.0558-57.7878-6.8419-85.7484-14.4945-29.0925-7.9624-57.5575-18.1531-85.456-29.5859-24.6274-10.0923-48.8319-21.22-72.6397-33.1134-15.6765-7.8313-31.1954-15.9911-46.4749-24.5729-3.2966-1.8515-6.5858-3.718-9.8458-5.6335-11.7005-6.8747-24.0442-12.5656-35.7321-19.4561-8.897-5.2452-17.7495-11.3762-23.9405-19.7928-2.9471-4.0066-4.6719-8.7648-8.6617-11.9248-3.4792-2.7555-7.9426-4.2236-12.3852-3.9909-8.7794,.4599-17.0334,7.1699-17.6638,16.1927-.4427,6.3361,2.7436,12.5349,4.9909,18.3092,1.8392,4.7258,3.6785,9.4517,5.5177,14.1775l3.4648-3.4648c-21.0891-4.2019-42.1783-8.4039-63.2674-12.6058-9.337-1.8604-19.7442-5.5295-27.7117,1.9526-6.7522,6.3409-7.0257,17.2371-.9262,24.0857,3.7207,4.1777,8.6138,5.225,13.7788,6.2541,11.7212,2.3354,23.4424,4.6707,35.1636,7.0061,.2496-1.8442,.4992-3.6884,.7488-5.5327-9.6162-.3093-19.2323-.6186-28.8485-.928-3.3304-.1071-6.6867-.3502-10.0197-.3045-8.298,.1136-15.8538,6.0397-17.2328,14.3657-1.585,9.5698,5.0666,18.58,14.6255,20.0054v-5.432c-9.1083,2.3886-14.9824,11.3381-12.9107,20.6755,1.9576,8.8234,10.1743,13.6131,18.7473,13.4165-.2496-1.8442-.4992-3.6884-.7488-5.5327-15.2283,2.6164-19.6861,22.7915-6.7315,31.4188,7.2696,4.8413,17.5283,2.7496,25.7428,2.6062,9.2962-.1623,18.5931-.2796,27.89-.3889,17.426-.2048,34.8519-.4148,52.2717-.9465,4.3948-.1341,8.7891-.2861,13.1827-.4555,2.8055-.1082,5.6107-.2234,8.4157-.3454,.9157-.0398,2.0244,.0368,2.9033-.1286-6.3334,1.1917,3.9076-.0006,1.5415-.5156,.1687,.0367,.3149,.2528,.4754,.3161,3.0457,1.1999,6.0754,3.9539,8.8306,5.7007,6.3477,4.0244,12.7507,7.9617,19.1912,11.8356,20.7526,12.4827,41.9001,24.3142,63.3658,35.5253,28.7118,14.9955,58.0209,28.8584,87.9343,41.2915,33.1694,13.7864,67.1406,25.8169,101.9113,34.8977,34.003,8.8804,68.9852,15.0511,104.1789,15.9107,32.5168,.7942,65.6414-3.0982,96.0874-14.9898,30.6385-11.9669,57.2904-31.8747,77.4123-57.9052,25.4127-32.8749,39.8053-72.9925,47.9443-113.3874,2.5223-12.5186,4.4532-25.153,5.9406-37.8349,.8045-6.8589,1.7773-13.8377,1.9194-20.7441,.1996-9.7042-.0979-19.4544-.3998-29.1539-.9958-31.9948-3.8448-64.0564-10.0346-95.491-7.5832-38.5104-20.3206-78.0664-45.3378-109.0088-12.7604-15.7826-29.308-29.1841-48.7759-35.59-4.6509-1.5304-9.4748-2.6429-14.3576-3.0848-.7062-.0639-1.5295,.0206-2.2201-.1274-1.8133-.3884-4.1234-1.6997-6.0074-2.3783-4.223-1.5211-8.4736-3.0768-12.3473-5.3786-8.812-5.2362-10.3759-14.2118-11.254-23.7536-3.2488-35.3018,9.8236-81.4014-21.837-107.7154-13.7912-11.4622-32.9931-13.1471-50.0921-10.1584-8.6738,1.5161-17.5057,4.4634-24.9077,9.3237-7.1601,4.7014-11.3769,12.0319-16.6234,18.5638-5.5128,6.8634-11.269,13.1928-15.773,20.8287-4.4202,7.4938-7.9371,15.5867-10.2644,23.9747-4.3241,15.5854-5.2608,33.3975,.8155,48.6535,5.7753,14.5004,16.6153,24.2143,30.6141,30.537,6.1183,2.7634,12.5056,6.2395,16.6325,11.705,4.0859,5.4111,4.8242,12.1467,3.538,18.6637-.7645,3.8736-2.3125,7.2882-.7695,11.2139,1.1689,2.974,3.9539,5.5787,7.234,5.8784,6.3501,.5801,10.6371-6.8323,9.0518-12.4803-2.036-7.2536-10.6671-9.6978-17.2688-10.1005-7.7039-.4699-15.708,.5945-23.1485,2.5828-28.9182,7.7274-51.1247,31.6887-57.4792,60.7997-8.9479,40.9923-18.6696,82.0052-24.3593,123.6099-2.7902,20.4028-4.585,40.9718-4.4376,61.5786,.0423,5.9145-.0146,16.0451,8.1282,16.5928,9.4864,.6381,10.6037-10.6012,10.8567-17.381,1.5641-41.9118-7.1038-83.5042-18.2797-123.6727-11.0309-39.6473-23.8705-78.8841-39.9638-116.7828-8.0221-18.8916-16.8723-37.4402-26.7331-55.4436-8.889-16.2291-20.1702-31.9954-33.4601-44.9413-12.9798-12.6439-28.7663-21.5177-46.1857-26.4398-16.6533-4.7056-33.3879-5.2421-50.5536-5.0965-14.9457,.1267-29.6973,2.4585-44.5451,4.2052-9.4925,1.1167-18.9849,2.2334-28.4774,3.35-7.1797,.8446-14.2639,1.3681-18.9183,7.9012-8.5222,11.9621,1.6118,28.4891,16.0026,26.8922,6.9738-.7739,13.9228-2.0309,20.8661-3.0459,3.5738-.5224,2.0544-5.9513-1.4975-5.432h0Z"/><g><path d="M706.1557,382.3837s26.516,12.4257,56.9889-2.561c-3.9965,10.4907-31.4483,22.2674-31.4483,22.2674,0,0-3.6205-7.4934-9.8151-11.3835s-15.765-8.2597-15.7256-8.3229Z"/><path d="M704.7341,384.8158c3.6447,1.7014,7.6233,2.7948,11.5458,3.6141,9.3129,1.9452,18.8969,2.0884,28.2674,.4525,6.9634-1.2156,13.6726-3.5324,20.019-6.6276-1.3792-1.0603-2.7584-2.1206-4.1376-3.1809-.1282,.3262,.2228-.4079-.1023,.2041-.1419,.267-.2805,.5332-.4355,.7929-.1434,.2403-.2948,.4754-.4522,.7067-.081,.1191-.1667,.235-.2481,.3538-.3423,.4988,.0335-.0244-.0978,.1377-.8677,1.0714-1.8249,2.0611-2.84,2.9934-2.3758,2.1819-4.4646,3.652-7.3258,5.4982-4.8866,3.1529-10.0478,5.8892-15.3037,8.3716-1.1087,.5237-2.2216,1.0417-3.3483,1.5257,1.2846,.3368,2.5691,.6736,3.8537,1.0105-2.4314-4.9984-6.4031-9.6401-11.1183-12.5766-3.1936-1.9889-6.5472-3.7276-9.9077-5.4139-1.2506-.6275-2.507-1.2432-3.7657-1.8542-.414-.201-.8296-.3989-1.242-.6034-.5581-.2768-.5228-.5112,.0527,.1716-.981-1.1639-2.9721-1.0112-3.9833,0-1.1526,1.1526-.9834,2.8166,0,3.9833,.4557,.5407,1.3459,.8356,1.9588,1.1329,1.1868,.5757,2.3724,1.1537,3.5529,1.7421,3.2459,1.618,6.4736,3.29,9.586,5.1544,4.4568,2.6697,7.766,6.5092,10.0024,11.1068,.7215,1.4833,2.5466,1.572,3.8537,1.0105,3.335-1.4327,6.5978-3.058,9.804-4.756,5.9544-3.1535,11.8829-6.6687,16.9286-11.1716,2.5251-2.2535,4.7614-4.8464,6.0101-8.0231,.4015-1.0214-.1978-2.3542-1.0094-2.9606-.953-.7121-2.0713-.7357-3.1282-.2202-9.722,4.7416-20.4254,7.1748-31.2428,7.0024-6.8962-.1099-13.2539-1.1012-19.9471-3.3391-.8929-.2985-1.7729-.6274-2.6498-.9695-.8592-.3353,.5681,.2546-.0568-.0213-.0832-.0368-.1667-.073-.2492-.1115-1.3775-.643-3.0364-.3869-3.8537,1.0105-.7135,1.2199-.3742,3.2073,1.0105,3.8537Z"/></g><path d="M453.3423,307.6012c-3.8099,2.9881-7.6198,5.9763-11.4296,8.9644-2.1918,1.7191-4.3837,3.4382-6.5755,5.1573-2.3578,1.8492-4.4568,3.9179-5.8331,6.6366-5.0373,9.951-.0003,22.2298,10.6008,25.7186,3.4072,1.1213,8.134,1.4861,11.3929-.2646,2.0505-1.1015,4.0744-2.2557,6.1107-3.383,4.9314-2.7301,9.8628-5.4602,14.7942-8.1903-1.4127-.8107-2.8255-1.6214-4.2382-2.4321,.0677,4.3264,.4498,8.6662,.9606,12.9598,.9827,8.2595,2.4838,16.5736,5.7796,24.2547,1.6087,3.7491,3.7963,7.5255,7.0341,10.0999,1.1896,.9459,2.8218,1.1615,3.9833,0,.9813-.9813,1.1971-3.0315,0-3.9833-.6127-.4871-1.1872-1.0154-1.7217-1.5873-.252-.2697-.4905-.5496-.7294-.8308-.0671-.0789-.5244-.6768-.1199-.14-.1385-.1838-.274-.3698-.4069-.5577-1.034-1.4621-1.8976-3.0414-2.6508-4.6642-.6661-1.4353-1.2793-3.0606-1.9084-5.0238-.6066-1.8928-1.1231-3.8138-1.5757-5.749-.4522-1.9332-.8397-3.8812-1.1775-5.8376-.1677-.9712-.3229-1.9445-.467-2.9194-.0638-.4318-.1244-.864-.1849-1.2962-.1189-.8502,.0727,.5725-.0357-.2705-.0323-.2509-.0645-.5018-.0957-.7529-.3859-3.1038-.6716-6.2206-.8615-9.3425-.0882-1.451-.1666-2.9054-.1894-4.3592-.0339-2.1627-2.3588-3.4726-4.2382-2.4321-3.9492,2.1863-7.8983,4.3726-11.8475,6.559l-7.2996,4.0412c-.6432,.3561-1.281,.725-1.9308,1.0689-.3976,.2105-.0842-.0584,.0956-.0674-1.18,.0594-1.9797,.3649-3.2351,.3385-3.836-.0806-7.7641-2.0897-9.9737-5.3414-2.4117-3.5492-2.9918-8.0943-1.3159-12.1051,1.0467-2.505,2.8988-4.3051,4.9866-5.9426,1.9373-1.5195,3.8747-3.039,5.812-4.5584,4.1582-3.2614,8.3164-6.5227,12.4747-9.7841,1.198-.9396,.9846-2.9987,0-3.9833-1.1828-1.1828-2.7822-.942-3.9833,0h0Z"/><g><path d="M796.1468,307.8792c-.6325,2.9006-1.6511,5.675-3.5935,7.959-1.5771,1.8545-6.0333,3.2809-6.9259,5.2836-2.2166,4.9736,8.1779,16.1582,11.5371,19.4725,4.6592,4.6592,10.6308,8.2857,16.3283,11.4942,11.4167-22.0962,22.8248-43.927,24.9073-68.9428,1.675-20.1202-2.3089-43.356-17.0466-58.2199-9.2926-9.372-16.877-19.8512-28.1926-27.2286-11.1609-7.2765-24.0425-11.9603-37.3105-13.307-26.0417-2.6434-52.9298,7.3862-71.4134,25.9204-14.9709,15.0119-21.372,32.8882-11.3657,52.1467,7.9411,15.2837,26.3278,28.9046,44.2598,25.9941,4.0723-.6609,8.1425-2.1348,11.1166-4.994s4.6484-7.2892,3.4695-11.2427c3.0924,4.0001,4.1397,9.5163,8.004,12.7768,3.2156,2.7131,7.8929,3.2617,11.9374,2.1029,4.0445-1.1588,7.5126-3.83,10.3594-6.9277-2.1859,8.0892-1.4714,16.9303,1.9851,24.5635,1.5526-11.3706,9.7312-27.8878,24.4086-20.5447,3.9968,1.9996,6.6971,6.0719,7.7808,10.4076,1.0836,4.3353,.7061,8.9184-.246,13.2861Z"/><path d="M793.4308,307.1304c-.5276,2.3449-1.2598,4.859-2.8692,6.7161-.5591,.6451-.8182,.756-1.7281,1.3086-.9274,.5633-1.8888,1.0747-2.7859,1.6868-1.6657,1.1365-3.0712,2.5157-3.4144,4.5795-.2899,1.7432,.0374,3.4901,.6734,5.1238,1.4395,3.6979,3.8518,6.9211,6.3469,9.9692,2.0904,2.5537,4.3332,5.0277,6.7636,7.2639,4.6758,4.3021,10.1435,7.6331,15.6542,10.7422,1.2732,.7183,3.1454,.3603,3.8537-1.0105,7.3251-14.1764,14.751-28.4274,19.7371-43.6339,4.6315-14.1251,6.8476-29.0799,5.5352-43.9303-1.2168-13.7698-5.2912-27.4773-13.8857-38.4908-2.1556-2.7624-4.6636-5.1815-7.0563-7.7318-2.5457-2.7134-5.0175-5.4945-7.5327-8.2359-5.1596-5.6238-10.57-11.032-16.8784-15.3762-12.8686-8.862-28.4013-14.0313-43.9851-14.8439-14.4457-.7533-28.9336,2.2821-42.0918,8.202-13.2286,5.9516-25.3237,15.1-34.13,26.6707-4.1992,5.5173-7.5557,11.8346-9.1394,18.6184-1.5921,6.8201-1.3575,13.9617,.6647,20.6675,4.0443,13.4108,14.2776,25.1346,26.713,31.4741,6.1236,3.1217,12.9892,5.038,19.9038,4.7319,7.3425-.325,15.579-2.947,19.403-9.7279,1.7875-3.1696,2.4243-6.9048,1.451-10.4381l-5.1481,2.1704c2.108,2.7956,3.2407,6.1285,5.0229,9.1152,2.003,3.3567,4.8613,5.9414,8.6515,7.079,7.9638,2.3903,15.7488-1.97,21.0502-7.6723-1.5692-.9135-3.1385-1.827-4.7077-2.7404-2.3561,8.941-1.4815,18.3113,2.269,26.7339,.9378,2.106,4.8186,1.6732,5.1481-.6728,.2288-1.6289,.5604-3.2407,.9941-4.8275,.2292-.8384,.4857-1.6695,.7696-2.491,.1278-.3699,.2612-.738,.4002-1.1038,.0872-.2295,.1775-.4577,.2686-.6856,.0547-.1369,.1105-.2734,.1674-.4094-.0723,.1751-.0699,.1735,.007-.0049,1.4406-3.2452,3.039-5.8813,5.4927-8.0885,.7386-.6644,.5953-.5594,1.4448-1.1013,.3329-.2124,.6747-.41,1.0248-.5926,.1938-.1011,.3899-.1969,.5883-.2886-.4419,.2041,.1751-.0676,.2977-.1115,.5869-.2101,1.6746-.481,1.9401-.5203-.3378,.05,.2243-.0226,.2992-.028,.2293-.0166,.458-.0325,.688-.0386,.4733-.0125,.9463,.0049,1.418,.044,.0606,.005,.5444,.0641,.1286,.0055,.1991,.0281,.3986,.066,.5959,.1051,.4631,.0918,.9209,.2075,1.3734,.3416,1.0009,.2966,1.7882,.6131,2.7026,1.1054,1.7682,.9519,3.2053,2.3757,4.2668,4.0742,3.0436,4.8702,2.7983,10.8463,1.6435,16.2673-.3167,1.4865,.4399,3.0451,1.9672,3.4648,1.4022,.3853,3.1464-.4727,3.4648-1.9672,1.3282-6.2347,1.5575-12.7226-1.1488-18.6306-2.265-4.9447-6.6213-8.4937-11.8616-9.8767-4.1544-1.0963-8.5885-.5423-12.2318,1.782-3.4771,2.2183-6.1106,5.5973-8.0028,9.2202-2.0887,3.9993-3.5031,8.3912-4.1305,12.8584l5.1481-.6728c-3.1148-6.9948-3.6456-15.0143-1.7012-22.3931,.696-2.6412-2.7468-4.8495-4.7077-2.7404-4.0023,4.3049-9.8248,8.2108-15.9312,6.109-5.6271-1.9369-6.714-9.2046-9.946-13.4909-.8446-1.1202-2.1326-1.7611-3.5173-1.1524-1.2699,.5582-2.0116,1.9407-1.6308,3.3228,.7195,2.6119-.1095,5.4171-1.8456,7.5411-2.0387,2.4942-5.0825,3.8891-8.1379,4.6802-6.0892,1.5765-12.4316,.8277-18.2845-1.301-11.7242-4.264-21.5976-14.0898-26.661-25.3944-2.6159-5.8404-3.6979-12.277-2.9898-18.6396,.6666-5.9905,3.1912-11.8343,6.4565-16.9276,7.2349-11.285,18.3837-20.1803,30.1841-26.3175,11.739-6.1052,24.8999-9.5698,38.1402-9.8029,14.4006-.2535,28.656,3.4802,41.1741,10.586,6.2463,3.5456,11.7109,7.9522,16.7475,13.0577,4.9781,5.0461,9.5393,10.4828,14.4828,15.5618,4.4677,4.5902,8.0921,9.5785,10.8246,15.3958,2.6583,5.6593,4.358,11.7752,5.4182,17.9251,2.2755,13.1993,1.3776,26.9282-1.8353,39.8879-3.599,14.517-9.9222,28.1249-16.6581,41.4135-1.7007,3.3551-3.4297,6.6957-5.1564,10.0375,1.2846-.3368,2.5691-.6736,3.8537-1.0105-4.4614-2.517-8.9456-5.1353-12.8847-8.433-2.5966-2.1738-4.9429-4.6544-7.1524-7.2165-2.2321-2.5883-4.2368-5.1046-5.8307-8.3149-.0765-.1542-.4995-1.1285-.3081-.6443-.12-.3035-.2318-.6106-.3279-.9226-.101-.3279-.1722-.6591-.2516-.9924-.0984-.4131-.0094,.6761-.0029,.0154,.0016-.159,.0051-.3444-.0182-.4994-.032-.2136,.1182-.6419-.0475,.0855,.0262-.115,.0298-.2494,.0755-.3578,.0455-.1079,.0673-.232,.1095-.3415-.3416,.886-.0288,.0843,.008,.1153,.063,.0531-.2939,.3048,.0489,.0052-.0553,.0484,.6183-.5157,.3598-.319,.1502-.1143,.7976-.5196,1.14-.7275,2.0875-1.2673,4.0584-2.3573,5.5538-4.3467,1.7918-2.3837,2.8269-5.2467,3.4767-8.1343,.3337-1.4829-.4518-3.0484-1.9672-3.4648-1.4158-.389-3.1294,.4767-3.4648,1.9672Z"/></g><g><path d="M810.4969,219.0016c5.4945-11.3856,12.0227-22.438,20.8958-31.4428,14.226-14.4372,33.7552-20.2628,53.7615-18.3186,13.7207,1.3334,26.4822,8.9072,35.2337,19.5583,8.7515,10.6511,13.6443,24.1745,15.0401,37.889,1.168,11.4767,2.3716,25.0805,.66,36.4747-1.0833,7.212-4.1092,14.3894-9.692,19.0818-.99,.8321-2.1842,1.6173-3.4698,1.4766-2.8039-.3068-3.2573-4.3573-2.0796-6.9203,3.8896-8.4649,14.8103-10.4437,24.0851-11.3162,3.2418-.3049,6.5685-.6032,9.7081,.2601,3.173,.8725,5.9253,2.8788,8.2864,5.171,8.9124,8.6525,12.8492,21.6668,11.948,34.0557-1.0133,13.9306-10.2566,20.91-21.3842,27.5325-8.1597,4.8561-17.7442,6.7786-27.208,7.5521-23.6263,1.9311-50.0831-4.4404-63.4125-24.0433-6.2854-9.2438-8.8188-20.2758-9.7384-31.2697-.4731-5.6562,.0545-11.3513-.3516-16.9817-.2228-3.0893-2.6499-10.3625-.9122-12.8442,1.3248-1.892,4.078-2.6173,6.163-1.6237,2.5484,1.2145,3.5866,4.413,3.3099,7.2223-.5954,6.0467-6.1496,10.8432-12.1475,11.8135-5.9979,.9703-12.1576-1.2999-17.0778-4.8647-4.9203-3.5648-8.8075-8.3419-12.6344-13.0611"/><path d="M812.929,220.4232c4.5666-9.4391,9.7854-18.7108,16.6305-26.7047,6.2609-7.3115,13.8133-13.251,22.7053-17.0343,8.5834-3.652,17.9686-5.1918,27.2667-4.9689,9.4149,.2257,18.2486,2.6717,26.2134,7.7657,8.1226,5.1949,14.5587,12.5825,19.0747,21.0656,4.7458,8.9148,7.0612,18.6695,8.0445,28.6616,1.0448,10.6169,1.9458,21.4453,.6601,32.0818-.5578,4.6149-1.8565,9.1986-4.2495,13.2071-1.1674,1.9554-2.5798,3.7055-4.2714,5.2337-.4659,.4209-1.285,.9617-1.6476,1.2098-.3281,.2245-.0047-.2839-.0058,.0381l-.1058-.0656c-.1698-.1059-.1412-.0871,.0858,.0562l.1201,.1841-.1387-.2153c-.1325-.261-.1614-.3072-.0866-.1385,.0709,.1755,.0558,.1183-.0453-.1715-.1494-.5428-.1606-1.264-.0663-1.6978,.0408-.1879,.2918-1.0221,.1656-.7084,.2038-.5068,.4938-.9957,.7776-1.4604,.8272-1.3542,2.1543-2.7006,3.4032-3.5598,3.3213-2.2852,7.1568-3.3359,11.1783-4.0713,2.0096-.3675,3.7254-.5788,5.7894-.7811,2.6582-.2606,5.4494-.6142,8.1077-.1913,4.7014,.748,8.4238,4.3571,11.2956,7.9222,5.7313,7.115,8.3772,16.5142,8.3523,25.5539-.0115,4.1691-.6419,8.5347-2.394,12.1387-1.7152,3.5283-3.9843,6.2099-6.9324,8.8178-6.7079,5.9338-15.2478,10.5694-24.0811,12.7165-9.1243,2.2178-18.7787,2.703-28.1233,1.9648-16.4009-1.2955-33.852-7.3937-44.103-20.9354-6.0557-7.9997-9.0182-17.8826-10.2093-27.7402-.6939-5.7419-.4946-11.4421-.5925-17.2079-.0392-2.3063-.191-4.5647-.632-6.8299-.3236-1.6624-.8208-3.8952-.953-5.1863-.0838-.8177-.1039-1.6164-.0732-2.4365,.0167-.446-.106,.418-.0035,.0118,.0462-.1831,.0943-.3668,.1406-.5498-.1205,.4763,.0493-.0345,.2818-.2271,.9332-.7733,2.2369-.7268,3.1071,.2986,2.0802,2.4512,.5962,6.7686-1.5764,9.1214-6.7578,7.3182-17.6605,3.6855-24.3109-1.9956-3.8586-3.2962-7.0706-7.2563-10.2559-11.1836-.959-1.1823-2.9864-.997-3.9833,0-1.1688,1.1688-.9614,2.798,0,3.9833,7.1922,8.8676,15.6704,18.3403,27.9294,18.952,5.3003,.2645,10.6505-1.687,14.3643-5.5195,3.4176-3.5269,5.5169-8.9483,3.8587-13.7928-.8981-2.6238-2.7517-4.8669-5.4741-5.695-2.6158-.7957-5.6668-.02-7.6422,1.8478-3.3418,3.1598-1.936,8.4416-1.1412,12.3779,.19,.9412,.3705,1.8827,.5416,2.8274,.0245,.1355,.0563,.5693-.0023-.048,.0208,.2195,.0399,.4379,.0562,.6578,.0656,.8848,.097,1.7726,.12,2.6594,.0838,3.2368-.0351,6.4745,.016,9.7116,.0923,5.8453,.8482,11.758,2.1399,17.4585,2.3926,10.5585,7.3318,20.4785,15.2744,27.9496,6.9881,6.5733,15.6925,11.0644,24.8378,13.8102,9.3037,2.7934,19.1723,3.8605,28.8664,3.5641,11.3163-.3461,23.1667-2.1798,33.1107-7.889,7.7847-4.4695,15.9002-9.9967,20.0889-18.2102,4.6484-9.1149,4.1756-20.5673,1.2244-30.1428-1.5865-5.1477-4.043-9.9618-7.36-14.2057-3.3375-4.2702-7.7567-8.3545-13.1337-9.7375-3.0452-.7832-6.2018-.665-9.3037-.3888-2.5109,.2235-5.0198,.5043-7.5086,.9081-4.5172,.7328-9.1466,1.9524-13.0598,4.4056-3.8781,2.4312-7.4834,6.4203-7.8421,11.1736-.1812,2.4007,.599,5.0676,2.6492,6.4924,2.5076,1.7428,5.4634,.8888,7.7011-.858,9.05-7.0647,11.418-19.0522,11.8667-29.8816,.2451-5.9176-.0207-11.8482-.4709-17.7497-.4377-5.7386-.8855-11.53-1.9021-17.1994-1.9692-10.9819-6.2696-21.7567-13.0366-30.6754-6.55-8.6327-15.1619-15.4241-25.2481-19.4493-9.8538-3.9324-20.8886-4.4002-31.3145-2.9957-10.3505,1.3944-20.4124,5.0537-29.0114,11.0297-9.3417,6.4921-16.6453,15.4165-22.6025,25.0273-2.9537,4.7652-5.5748,9.7261-8.0155,14.7709-.6621,1.3686-.3741,3.0438,1.0105,3.8537,1.2347,.7222,3.1884,.3646,3.8537-1.0105h0Z"/></g><g><path d="M695.8386,201.8052c-10.1915,5.4936-18.8934,13.655-25.1926,23.3562-6.3961,9.8503-6.9888,21.7216-17.0586,28.6837-5.6987,3.94-12.2508,6.4825-18.0829,10.2221-5.7614,3.6942-10.9014,8.7386-13.3932,15.113s-1.9163,14.193,2.5672,19.3641c4.4834,5.1711,13.1232,6.6364,18.4044,2.2832,1.4568-1.2008,2.5975-2.7394,3.6142-4.3302,.3754-.5873,.7412-1.3438,.3841-1.9424-.337-.5649-1.1259-.638-1.7765-.5405-4.5972,.6885-6.8674,6.5363-5.4946,10.9774,1.3728,4.4411,5.1541,7.653,8.8398,10.4857,7.784,5.9825,18.0092,7.6951,27.6084,5.8609,.5776-.1104,1.1877-.2523,1.6019-.6697,.5094-.5132,.5896-1.2998,.6511-2.0203,1.5413-18.0793,9.4233-35.5555,21.9544-48.6782-2.8461-3.339-7.2676-4.8204-10.7981-7.4251-6.8228-5.0336-9.7135-13.6905-12.2209-21.7899"/><path d="M694.417,199.3731c-9.0101,4.893-16.8049,11.7331-23.0233,19.8656-2.8552,3.7341-5.2028,7.6734-7.0563,11.9931-1.7214,4.0118-3.1111,8.0524-5.1693,11.8845-2.0779,3.8689-4.7762,6.9188-8.5073,9.2946-4.7069,2.9971-9.8483,5.2175-14.6527,8.0439-8.3964,4.9396-16.35,12.6207-17.8546,22.6847-.7274,4.8657-.136,9.9142,2.292,14.2538,2.2629,4.0446,6.0981,7.0112,10.5736,8.2121,4.3059,1.1554,9.2588,.6941,12.9553-1.9364,2.1599-1.537,4.0681-3.7245,5.3382-6.0564,.7511-1.379,1.032-3.0579,.2005-4.4794-.7971-1.3629-2.3522-1.9894-3.8745-1.9686-4.6506,.0637-8.0729,4.4738-8.8078,8.7225-.876,5.0651,1.3724,9.6184,4.8139,13.2333,7.1079,7.4659,16.8415,11.6945,27.1421,11.733,2.6184,.0098,5.2446-.256,7.8197-.7248,1.3387-.2437,2.5499-.7003,3.4659-1.7462,1.0252-1.1705,1.1529-2.6618,1.2913-4.1449,.4619-4.9508,1.4374-9.8427,2.8463-14.6106,2.7755-9.3925,7.317-18.3613,13.3843-26.0634,1.5311-1.9437,3.1589-3.8079,4.8627-5.6017,1.0973-1.1552,1.0286-2.8147,0-3.9833-2.2259-2.5288-5.204-4.128-8.0846-5.7829-2.6405-1.517-4.9693-3.2484-6.8609-5.6661-3.741-4.7815-5.5785-10.8111-7.3492-16.5231-1.0701-3.4518-6.5097-1.9789-5.432,1.4975,1.9767,6.3763,4.1144,12.9298,8.233,18.2847,2.0914,2.7193,4.6101,4.9176,7.5546,6.6805,2.7813,1.6652,5.7779,3.0186,7.9557,5.4927v-3.9833c-10.6029,11.1627-18.0806,25.2703-21.262,40.3437-.3831,1.8151-.7015,3.6432-.9581,5.4805-.1488,1.066-.2877,2.1336-.4018,3.2039-.0437,.41-.0833,.8204-.1214,1.231-.009,.0965-.0979,.7562-.0703,.775-.0586-.0399,.1761-.3088,.2081-.3355,.1783-.1491,.5023-.1479,.1623-.1723-.2171-.0156-.5009,.113-.7215,.1548-.3998,.0757-.8015,.1441-1.2039,.2046-.8894,.1337-1.7872,.2175-2.6847,.2758-1.818,.1181-3.6446,.1079-5.4608-.0367-7.2093-.574-13.595-3.7258-18.8931-8.563-1.442-1.3165-2.7707-2.7356-3.732-4.4461-.8726-1.5526-1.1398-2.833-1.0896-4.3574,.0374-1.1369,.5108-2.5873,1.3485-3.6655-.0432,.0556-.178,.2205,.0284-.0112,.164-.184,.3355-.3609,.5177-.5271-.0082,.0075,.3604-.2936,.1696-.15-.1451,.1093,.4444-.265,.4452-.2654,.3306-.1908,.0631-.0818,.5551-.224,.8095-.2339,.1174,.0565-.2204-.347l-.7244-1.2429c-.2904-.7425,.3043-.6163-.0084-.3811-.2182,.1642-.4163,.6552-.5705,.8826-.3157,.4654-.6368,.9179-1.0022,1.3459-.8341,.9769-1.5697,1.6766-2.6282,2.2804-1.6375,.9341-3.4141,1.2358-5.408,1.1233-1.7063-.0963-3.6795-.711-5.2877-1.6618-1.6626-.983-3.0412-2.4089-4.0605-4.1822-2.251-3.9158-2.4217-8.7404-1.1752-13.0106,1.3366-4.5788,4.3733-8.4533,7.8911-11.5859,4.1082-3.6584,9.0535-6.1369,13.902-8.6508,4.7736-2.4751,9.7964-5.0252,13.4806-9.0412,6.4245-7.0032,8.064-16.5906,12.7937-24.5713,5.8811-9.9235,14.874-18.1319,24.9683-23.6136,3.1869-1.7306,.3465-6.5964-2.8432-4.8642h0Z"/></g><path d="M693.4503,298.4709c.2201,.0263,.4401,.053,.6599,.081,.2219,.0282,.2687,.0195,.0186,.001,.0989,.0073,.1989,.0274,.2971,.0415,.4728,.0677,.9445,.1429,1.4141,.23,.9077,.1684,1.8095,.3803,2.6856,.6734,.2089,.0699,.4162,.1446,.6216,.2244,.0424,.0165,.3421,.1401,.113,.0427-.2526-.1074,.1241,.058,.1733,.081,.3887,.182,.7675,.386,1.1295,.6167,.1057,.0673,.6739,.49,.313,.1977,.1653,.1338,.3276,.2698,.4831,.415,.1561,.1458,.3064,.2979,.4491,.4569,.064,.0713,.1254,.1447,.1877,.2175,.3146,.3674-.2255-.3153,.0586,.0824,.5695,.7973,1.663,1.2578,2.5691,.6736,.791-.51,1.2843-1.7143,.6736-2.5691-2.7554-3.8572-7.4362-4.6943-11.847-5.2212-.979-.117-1.9194,.9471-1.8778,1.8778,.05,1.1173,.8289,1.7525,1.8778,1.8778h0Z"/><path d="M724.0762,303.2545c4.4193-1.4648,9.1645-.6747,12.9462,2.1726,.8108,.6104,2.0992,.1298,2.5691-.6736,.5622-.9613,.1391-1.9572-.6736-2.5691-4.4412-3.3438-10.5734-4.2968-15.8401-2.5511-.9623,.319-1.5901,1.2961-1.3115,2.3099,.2587,.9413,1.3432,1.6319,2.3099,1.3115h0Z"/><path d="M716.2889,340.8553c-1.0074,1.435-2.8804,3.3248-1.6965,5.1755,.8741,1.3663,3.2948,1.5047,4.7475,1.4655,3.1511-.0852,6.4349-1.1161,9.2034-2.6002,1.4789-.7928,2.7049-1.9875,3.9595-3.0824,.5276-.4604,1.0571-.9034,1.6555-1.2695,.2676-.1637,.5384-.3193,.8331-.4266,.1305-.0475,.2981-.0599,.4203-.1217,.1078-.0545-.1763-.1516-.1433-.0397,.2046,.6917,.4841,1.1065,.3992,1.8836-.092,.8417-.4533,1.5985-.8958,2.3097-.946,1.5205-2.2758,2.9458-3.5792,4.168-.6632,.6218-1.3731,1.0805-2.2176,1.4156-1.1392,.452-1.9142,1.5244-1.5972,2.7897,.6408,2.5578,4.0646,2.5176,6.105,2.1845,1.0017-.1635,1.5596-1.4071,1.3115-2.3099-.2925-1.0643-1.3053-1.4755-2.3099-1.3115-.3766,.0615-.7693,.0675-1.1492,.0354-.1392-.0019-.2767-.0189-.4124-.051-.5185-.1888-.4986-.0748,.0596,.3422l-.1893,1.4469,.0977-.2173-.6736,.6736c.4824-.3549,1.2417-.5485,1.7994-.9014,.7017-.444,1.3565-.9851,1.9543-1.5596,1.1039-1.0607,2.1265-2.2437,3.0667-3.4507,1.9634-2.5206,3.2639-5.868,1.7026-8.9362-1.7301-3.4001-5.3291-2.1412-7.7114-.2857-1.9688,1.5335-3.5624,3.2403-5.9245,4.185-1.3921,.5568-2.8567,1.0024-4.3383,1.2425-1.1087,.1797-2.5402,.3153-3.6047-.1479l.6736,.6736-.1141-.1977,.2564,.9477c.0157,.2437-.2051,.2865,.0376,.0257,.2085-.2241,.3664-.5219,.5416-.7715,.325-.4629,.65-.9259,.975-1.3888,.583-.8305,.1502-2.0873-.6736-2.5691-.9377-.5485-1.9848-.1587-2.5691,.6736h0Z"/><g><path d="M723.9902,315.6507c1.1037,3.3269,6.4473,3.2493,7.0858-.3452,.2873-1.6182-.6413-3.2389-1.869-4.3316-3.191-2.8399-6.2799,1.4725-5.2169,4.6768Z"/><path d="M722.1796,316.1499c.6611,1.9243,2.2793,3.3807,4.3143,3.6978,2.1585,.3364,4.2775-.3664,5.5898-2.1617,.6513-.891,.9838-2.1087,.9153-3.2056-.0987-1.5791-.7847-2.9513-1.7928-4.1456-.8093-.9588-1.9625-1.8465-3.2276-2.0646-1.2042-.2076-2.4553-.0115-3.4557,.7284-2.157,1.5952-3.168,4.5695-2.3433,7.1512,.2985,.9342,1.3176,1.6326,2.3099,1.3115,.9361-.3029,1.6316-1.3079,1.3115-2.3099-.0588-.184-.1-.3691-.1419-.5574-.005-.0223-.0316-.1107-.022-.1307,.019-.0395,.0421,.4781,.0399,.2801-.0011-.1023-.0171-.2056-.0203-.3082-.006-.1918,.0048-.3815,.0172-.5727,.0253-.3906-.0763,.3934-.0161,.1064,.021-.1003,.0378-.2012,.0612-.301,.0431-.184,.0963-.3657,.1597-.5438,.0141-.0396,.0352-.081,.0453-.1218,.048-.1951-.1073,.2996-.1077,.249-.0006-.0743,.0941-.2043,.1279-.2707,.0828-.1626,.1748-.3207,.2763-.4724,.0223-.0334,.1063-.1961,.1437-.2025,.0204-.0035-.3339,.3951-.1403,.1886,.0368-.0393,.0707-.0815,.1073-.121,.1084-.1173,.2259-.2225,.3449-.3285,.2173-.1935-.4005,.2705-.1002,.0848,.076-.047,.1503-.0958,.2289-.1385,.0666-.0362,.1372-.0646,.2037-.1004-.5149,.2775-.3053,.124-.1313,.0723,.0723-.0215,.1455-.0369,.2186-.0546,.3497-.0845-.4925,.0184-.1234,.0209,.0771,.0005,.1545,.0002,.2316,.0006,.0165,0,.1067,.0178,.1173,.0083-.0035,.0031-.4484-.0825-.3015-.0397,.0916,.0267,.1884,.0385,.2806,.0652,.0831,.0241,.4207,.1573,.1015,.0227-.3182-.1342-.0082,.0043,.064,.0433,.0996,.0538,.1966,.1124,.2908,.1752,.0422,.0281,.0826,.0599,.1253,.0872,.1622,.1039-.1797-.1436-.1707-.1335,.0838,.0938,.1998,.1702,.2922,.2567,.1794,.1678,.3501,.3451,.5101,.5314,.0371,.0431,.0717,.0888,.1095,.1312,.1297,.146-.1183-.1542-.1184-.1554,.0115,.1033,.1964,.2783,.2574,.3749,.121,.1915,.2246,.3905,.326,.5927,.1429,.2849-.1385-.383,.0002,.0158,.0424,.1217,.08,.2452,.1113,.3702,.0198,.0791,.0942,.5252,.0487,.1814-.0434-.3275-.0025,.0531,0,.1321,.0035,.11,.002,.2198-.0048,.3297-.0261,.4228,.0791-.3167-.0013,.0034-.0375,.1492-.0763,.2952-.123,.4419-.1064,.3338,.1942-.3976,.0651-.1435-.0377,.0742-.0735,.1489-.1145,.2213-.0345,.0609-.071,.1205-.1096,.1789-.019,.0288-.0405,.0565-.0585,.0858-.1265,.2068,.1537-.226,.1691-.2162,.0031,.002-.2734,.295-.3007,.3203-.0358,.0332-.1254,.1418-.1776,.1531,.0637-.0138,.4301-.3021,.1647-.1355-.1326,.0832-.2658,.1605-.4042,.2338-.2903,.1538,.1507-.1081,.2043-.0802-.0213-.0111-.1611,.0607-.1886,.0701-.1487,.0508-.3007,.0923-.4544,.1248-.091,.0192-.4112,.0647-.0171,.0128,.3811-.0502,.1031-.0141,.0136-.0066-.1584,.0132-.3174,.0172-.4762,.0123-.0797-.0025-.1589-.009-.2384-.014-.0339-.0022-.068-.0091-.1019-.0103-.1964-.007,.4868,.0871,.2962,.0392-.1658-.0417-.3345-.0647-.4994-.1129-.0875-.0256-.173-.0562-.2592-.0856-.0321-.011-.0631-.0267-.0955-.0368-.1796-.056,.422,.205,.2605,.1086-.1461-.0873-.3044-.1526-.4488-.2449-.067-.0428-.1294-.0942-.197-.1356-.1155-.0707,.2525,.1794,.2446,.1887-.0011,.0013-.1229-.1053-.1303-.112-.1211-.1093-.2235-.2323-.3359-.3496-.1437-.1498,.2794,.3876,.1641,.2138-.0261-.0393-.0549-.077-.0811-.1163-.0464-.0696-.0904-.1409-.1315-.2138-.0382-.0678-.076-.2163-.1325-.2609-.0086-.0068,.1572,.424,.1167,.2765-.0164-.0596-.0447-.1202-.0648-.1786-.3185-.9269-1.3031-1.6373-2.3099-1.3115-.9188,.2973-1.6532,1.3152-1.3115,2.3099Z"/></g><g><path d="M689.9154,311.4661c1.1037,3.3269,6.4473,3.2493,7.0858-.3452,.2873-1.6182-.6413-3.2389-1.869-4.3316-3.191-2.8399-6.2799,1.4725-5.2169,4.6768Z"/><path d="M688.1048,311.9653c.6611,1.9243,2.2793,3.3807,4.3143,3.6978,2.1585,.3364,4.2775-.3664,5.5898-2.1617,.6513-.891,.9838-2.1087,.9153-3.2056-.0987-1.5791-.7847-2.9513-1.7928-4.1456-.8093-.9588-1.9625-1.8465-3.2276-2.0646-1.2042-.2076-2.4553-.0115-3.4557,.7284-2.157,1.5952-3.168,4.5695-2.3433,7.1512,.2985,.9342,1.3176,1.6326,2.3099,1.3115,.9361-.3029,1.6316-1.3079,1.3115-2.3099-.0588-.184-.1-.3691-.1419-.5574-.005-.0223-.0316-.1107-.022-.1307,.019-.0395,.0421,.4781,.0399,.2801-.0011-.1023-.0171-.2056-.0203-.3082-.006-.1918,.0048-.3815,.0172-.5727,.0253-.3906-.0763,.3934-.0161,.1064,.021-.1003,.0378-.2012,.0612-.301,.0431-.184,.0963-.3657,.1597-.5438,.0141-.0396,.0352-.081,.0453-.1218,.048-.1951-.1073,.2996-.1077,.249-.0006-.0743,.0941-.2043,.1279-.2707,.0828-.1626,.1748-.3207,.2763-.4724,.0223-.0334,.1063-.1961,.1437-.2025,.0204-.0035-.3339,.3951-.1403,.1886,.0368-.0393,.0707-.0815,.1073-.121,.1084-.1173,.2259-.2225,.3449-.3285,.2173-.1935-.4005,.2705-.1002,.0848,.076-.047,.1503-.0958,.2289-.1385,.0666-.0362,.1372-.0646,.2037-.1004-.5149,.2775-.3053,.124-.1313,.0723,.0723-.0215,.1455-.0369,.2186-.0546,.3497-.0845-.4925,.0184-.1234,.0209,.0771,.0005,.1545,.0002,.2316,.0006,.0165,0,.1067,.0178,.1173,.0083-.0035,.0031-.4484-.0825-.3015-.0397,.0916,.0267,.1884,.0385,.2806,.0652,.0831,.0241,.4207,.1573,.1015,.0227-.3182-.1342-.0082,.0043,.064,.0433,.0996,.0538,.1966,.1124,.2908,.1752,.0422,.0281,.0826,.0599,.1253,.0872,.1622,.1039-.1797-.1436-.1707-.1335,.0838,.0938,.1998,.1702,.2922,.2567,.1794,.1678,.3501,.3451,.5101,.5314,.0371,.0431,.0717,.0888,.1095,.1312,.1297,.146-.1183-.1542-.1184-.1554,.0115,.1033,.1964,.2783,.2574,.3749,.121,.1915,.2246,.3905,.326,.5927,.1429,.2849-.1385-.383,.0002,.0158,.0424,.1217,.08,.2452,.1113,.3702,.0198,.0791,.0942,.5252,.0487,.1814-.0434-.3275-.0025,.0531,0,.1321,.0035,.11,.002,.2198-.0048,.3297-.0261,.4228,.0791-.3167-.0013,.0034-.0375,.1492-.0763,.2952-.123,.4419-.1064,.3338,.1942-.3976,.0651-.1435-.0377,.0742-.0735,.1489-.1145,.2213-.0345,.0609-.071,.1205-.1096,.1789-.019,.0288-.0405,.0565-.0585,.0858-.1265,.2068,.1537-.226,.1691-.2162,.0031,.002-.2734,.295-.3007,.3203-.0358,.0332-.1254,.1418-.1776,.1531,.0637-.0138,.4301-.3021,.1647-.1355-.1326,.0832-.2658,.1605-.4042,.2338-.2903,.1538,.1507-.1081,.2043-.0802-.0213-.0111-.1611,.0607-.1886,.0701-.1487,.0508-.3007,.0923-.4544,.1248-.091,.0192-.4112,.0647-.0171,.0128,.3811-.0502,.1031-.0141,.0136-.0066-.1584,.0132-.3174,.0172-.4762,.0123-.0797-.0025-.1589-.009-.2384-.014-.0339-.0022-.068-.0091-.1019-.0103-.1964-.007,.4868,.0871,.2962,.0392-.1658-.0417-.3345-.0647-.4994-.1129-.0875-.0256-.173-.0562-.2592-.0856-.0321-.011-.0631-.0267-.0955-.0368-.1796-.056,.422,.205,.2605,.1086-.1461-.0873-.3044-.1526-.4488-.2449-.067-.0428-.1294-.0942-.197-.1356-.1155-.0707,.2525,.1794,.2446,.1887-.0011,.0013-.1229-.1053-.1303-.112-.1211-.1093-.2235-.2323-.3359-.3496-.1437-.1498,.2794,.3876,.1641,.2138-.0261-.0393-.0549-.077-.0811-.1163-.0464-.0696-.0904-.1409-.1315-.2138-.0382-.0678-.076-.2163-.1325-.2609-.0086-.0068,.1572,.424,.1167,.2765-.0164-.0596-.0447-.1202-.0648-.1786-.3185-.9269-1.3031-1.6373-2.3099-1.3115-.9188,.2973-1.6532,1.3152-1.3115,2.3099Z"/></g><g><path d="M728.1896,342.9929c2.3882,.3045,4.0384,3.2113,3.0759,5.418,2.2323-1.3429,4.0215-3.4093,5.0312-5.8108,.2687-.639,.4865-1.3342,.3685-2.0173s-.6675-1.3345-1.3603-1.3543c-.3492-.01-.6821,.1347-1.0013,.2766-1.4543,.6462-3.024,1.4014-3.7042,2.8401"/><path d="M727.6904,344.8036c.1528,.0223,.3034,.0497,.4525,.0905,.0476,.013,.2818,.1176,.3255,.1074-.272-.1191-.3175-.1359-.1364-.0506,.0678,.0342,.1345,.0704,.2,.1087,.0597,.0349,.237,.1939,.2871,.1859-.2265-.1808-.2631-.2082-.1097-.0824,.0582,.0497,.115,.1009,.1703,.1538,.0832,.0795,.1632,.1625,.2396,.2485,.0511,.0575,.1007,.1164,.1486,.1765-.1622-.2137-.2027-.2631-.1213-.1481,.0528,.1181,.1516,.2289,.2161,.3426,.0229,.0403,.1131,.2928,.1595,.3084-.11-.2728-.1282-.3158-.0546-.129,.0271,.072,.0522,.1447,.0754,.2181,.0346,.1096,.065,.221,.0905,.3331,.017,.0746,.0319,.1496,.0448,.225-.0372-.3106-.0452-.3636-.0243-.1588,.0035,.1145,.0136,.227,.0125,.3418-.0007,.0759-.0037,.1518-.0092,.2275-.0197,.2048-.0109,.1515,.0262-.1601-.0507,.0681-.0522,.2537-.0746,.3345-.0413,.1489-.095,.2924-.1542,.435-.2823,.6801,.1468,1.5673,.6729,1.9738,.5832,.4506,1.4388,.5412,2.0855,.1468,2.4016-1.4645,4.4314-3.6431,5.5895-6.219,.3919-.8717,.7094-1.7131,.767-2.6774,.0598-1.0018-.3112-1.9556-.9552-2.7089-.6571-.7686-1.7113-1.1718-2.7079-1.0379-.8207,.1103-1.5619,.4842-2.3038,.8395-1.455,.6969-2.8878,1.6858-3.6248,3.1689-.4366,.8785-.2642,2.0736,.6736,2.5691,.8493,.4487,2.1024,.2655,2.5691-.6736,.0807-.1623,.173-.3126,.2666-.4673,.2172-.3592-.2625,.2574,.0337-.0389,.1262-.1263,.245-.2568,.379-.3757l.1018-.0878c.1588-.1289,.1388-.1143-.0601,.0438,.154-.2113,.5835-.386,.8136-.5144,.2836-.1583,.5748-.3027,.8686-.441,.1252-.0589,.2511-.1164,.3771-.1733,.0833-.0376,.1667-.0749,.2502-.112-.2187,.088-.2288,.0939-.0304,.0177,.1376-.0392,.505-.0598,.084-.038-.1675,.0049-.3207-.0392-.4595-.1325,.1722,.1037,.1504,.0773-.0654-.0791,.2636,.2395-.1476-.3221,.0356,.023,.1794,.3379-.1196-.3628,.0254,.1005,.0261,.1247,.0188,.0849-.0219-.1195,.0031,.1056-.0002,.2109-.0098,.3161,.1467-.4322-.0468,.1096-.075,.205-.0536,.1811-.121,.356-.1873,.5327,.1509-.4021-.0055,.0071-.0471,.0969-.142,.3063-.2969,.6065-.4636,.9001s-.3457,.5802-.5359,.8591c-.0951,.1396-.1975,.2738-.2938,.4125-.0815,.1088-.0568,.078,.0739-.0926-.0597,.0758-.1203,.1508-.1818,.2252-.4301,.5205-.9021,1.0069-1.4105,1.4512-.1091,.0953-.2208,.1868-.3316,.28-.163,.1297-.15,.1213,.0388-.0254-.0769,.0583-.1544,.1156-.2326,.1721-.274,.1977-.5566,.382-.8451,.5579,.9195,.7069,1.8389,1.4137,2.7584,2.1206,1.2914-3.1111-1.0545-7.2424-4.3874-7.7279-.5202-.0758-.9741-.0874-1.4469,.1893-.3895,.2279-.761,.6746-.8629,1.1222-.2027,.8898,.272,2.1584,1.3115,2.3099h0Z"/></g><path d="M366.5547,321.4585c-6.3569,.9695-11.6803,5.7299-13.5467,11.8549-1.8782,6.1638,.0789,13.2637,4.9434,17.5161,2.8667,2.506,6.2843,3.8954,10.0567,4.2754l-1.4216-5.2487c-7.0325,3.426-10.731,11.406-9.0845,18.9988,1.608,7.4152,8.1698,12.5897,15.5868,13.1773-.4739-1.7496-.9477-3.4991-1.4216-5.2487-5.5751,4.0309-8.3607,10.6146-7.0637,17.4229,1.1365,5.966,5.7145,10.8552,11.4225,12.7484,3.0948,1.0265,6.1864,.8175,9.3376,.3764,2.6233-.3672,5.2466-.7344,7.8699-1.1016,7.7431-1.0839,15.4863-2.1678,23.2294-3.2517,5.553-.7773,11.7313-.9017,16.3627-4.4315,5.5539-4.233,8.0902-11.5822,6.0947-18.3265-2.0468-6.9173-8.2211-11.5953-15.3261-12.1582,.4739,1.7496,.9477,3.4991,1.4216,5.2487,5.9895-4.3303,8.9487-11.952,6.6263-19.1335-2.1551-6.6642-8.0342-11.1007-14.9229-11.7945l1.4216,5.2487c6.0274-2.9365,9.9644-9.5334,9.471-16.2586-.4754-6.4803-4.4617-12.1303-10.4671-14.6458-2.6848-1.1246-5.5577-1.4771-8.4421-1.1646-.8089,.0876-1.6199,.1593-2.4297,.239l-11.4213,1.1233c-2.9048,.2857-5.8095,.5714-8.7143,.8571-1.5138,.1489-2.8166,1.188-2.8166,2.8166,0,1.4077,1.2935,2.9664,2.8166,2.8166,5.8381-.5742,11.6763-1.1484,17.5144-1.7226,2.2464-.2209,4.5521-.5976,6.8122-.6347,4.7006-.0772,9.2919,2.8997,10.8645,7.4193,1.9798,5.6897-.6081,11.6484-6.0307,14.2902-1.1075,.5395-1.6061,2.0467-1.2944,3.1809,.3504,1.275,1.469,1.9423,2.716,2.0679,4.1861,.4216,8.1493,3.5241,9.4909,7.6588,1.4985,4.6183-.0346,9.8778-4.0375,12.7718-2.2884,1.6545-1.4603,5.0204,1.4216,5.2487,4.3277,.3429,8.4097,3.4288,9.7913,7.6903,1.4661,4.5224,.1026,9.22-3.4636,12.3148-1.9112,1.6586-4.3955,2.3674-7.053,2.7394-2.1641,.3029-4.3282,.6059-6.4923,.9088-11.3048,1.5824-22.5993,3.316-33.924,4.7487,.8498-.1075-.3532,.0155-.6687,.0284-.6839,.028-1.3792,.0173-2.0595-.0659-.9109-.1114-2.4769-.5682-3.3654-1.0094-2.3363-1.1601-4.0588-2.82-5.2658-5.1407-.2973-.5716-.4699-.9991-.6802-1.683-.0848-.2758-.162-.5534-.2298-.8338-.0443-.1831-.3096-1.6675-.1621-.6322-.1966-1.3801-.2157-2.8139,.0702-4.1624,.5846-2.7574,2.1173-5.2859,4.4191-6.9502,2.2884-1.6545,1.4604-5.0204-1.4216-5.2487-4.8788-.3865-9.0866-4.0861-10.1548-9.0416-.0262-.1215-.2326-1.2964-.0865-.3026-.0548-.3727-.0902-.7515-.1128-1.1275-.0442-.7353-.0405-1.4818,.0403-2.2146,.1154-1.0473,.5058-2.4027,.9734-3.3849,1.2071-2.5357,3.1627-4.3805,5.6814-5.6075,1.1075-.5395,1.6061-2.0467,1.2944-3.1809-.3504-1.275-1.469-1.9422-2.716-2.0679-2.6275-.2647-5.2574-1.6254-7.151-3.6715-.8414-.9093-1.6652-2.2098-2.111-3.3335-.3049-.7684-.4657-1.558-.665-2.3557-.2026-.8113,.0318,.5951-.0789-.484-.0416-.4057-.067-.8124-.0737-1.2202-.0965-5.8734,4.2036-10.6134,10.1237-11.5163,1.5051-.2296,2.3364-2.1216,1.9672-3.4648-.4421-1.6086-1.9552-2.1975-3.4648-1.9672h0Z"/><path d="M389.1262,351.5116c8.8865-1.0455,17.7729-2.0909,26.6594-3.1364,1.2762-.1501,2.5524-.3003,3.8286-.4504,1.5106-.1777,2.8166-1.1673,2.8166-2.8166,0-1.3844-1.2958-2.9956-2.8166-2.8166-8.8865,1.0455-17.7729,2.0909-26.6594,3.1364-1.2762,.1501-2.5524,.3003-3.8286,.4504-1.5106,.1777-2.8166,1.1673-2.8166,2.8166,0,1.3844,1.2958,2.9956,2.8166,2.8166h0Z"/><path d="M394.8592,379.5732c8.7688-1.7806,17.5376-3.5611,26.3064-5.3417,1.2593-.2557,2.5186-.5114,3.7779-.7671,1.4915-.3029,2.3505-2.0702,1.9672-3.4648-.4264-1.5516-1.969-2.271-3.4648-1.9672-8.7688,1.7806-17.5376,3.5611-26.3064,5.3417-1.2593,.2557-2.5186,.5114-3.7779,.7671-1.4915,.3029-2.3505,2.0702-1.9672,3.4648,.4264,1.5516,1.969,2.271,3.4648,1.9672h0Z"/><path d="M699.1686,509.2978c-10.9447,5.2007-19.4298,14.84-24.1553,25.906-4.7858,11.2073-6.1617,23.9371-2.9115,35.7678,1.7698,6.4422,5.0558,12.0364,8.8336,17.488,4.0377,5.8267,8.7163,11.9985,9.2064,19.3377,.2861,4.2842-.4861,8.5194-1.2112,12.7219-.7658,4.4382-1.552,8.8729-2.359,13.3038-1.614,8.8618-3.3099,17.7087-5.0879,26.539-3.556,17.6607-7.4398,35.2554-11.6487,52.772-.5357,2.2294-1.077,4.4574-1.6229,6.6843-.8629,3.5205,4.568,5.0225,5.432,1.4975,4.2498-17.3383,8.1861-34.753,11.7986-52.2352,1.8062-8.741,3.5318-17.4987,5.1769-26.2715,1.6341-8.7141,3.3939-17.4517,4.629-26.2329,.6216-4.4197,.8857-8.8433-.1101-13.2343-.8189-3.611-2.4482-7.0376-4.3373-10.2042-3.552-5.9539-8.1668-11.2599-11.0895-17.5863-4.7017-10.1772-4.7857-22.2525-1.4358-33.036,3.3155-10.6728,10.2708-20.4969,19.9058-26.3035,1.2417-.7483,2.521-1.4279,3.8303-2.0501,1.3739-.6528,1.7316-2.6207,1.0105-3.8537-.8223-1.4058-2.4747-1.6657-3.8537-1.0105h0Z"/><circle cx="120.0502" cy="137.2023" r="8.4499" style="fill:#fff;"/><circle cx="161.9868" cy="137.2023" r="8.4499" style="fill:#fff;"/><circle cx="203.9233" cy="137.2023" r="8.4499" style="fill:#fff;"/><path d="M153.2239,498.3816c22.4071-.0148,44.8142-.0286,67.2214-.0419,24.1455-.0144,48.2911-.0282,72.4366-.0419,24.6644-.014,49.3288-.0278,73.9932-.0417,24.2822-.0137,48.5645-.0276,72.8467-.0419,22.6808-.0134,45.3616-.0272,68.0424-.0419,2.6222-.0017,5.2443-.0034,7.8665-.0052,3.6246-.0024,3.6308-5.6357,0-5.6333-22.4071,.0148-44.8142,.0286-67.2214,.0419-24.1455,.0144-48.2911,.0282-72.4366,.0419-24.6644,.014-49.3288,.0278-73.9932,.0417-24.2822,.0137-48.5645,.0276-72.8467,.0419-22.6808,.0134-45.3616,.0272-68.0424,.0419-2.6222,.0017-5.2443,.0034-7.8665,.0052-3.6246,.0024-3.6308,5.6357,0,5.6333h0Z" style="fill:#6966ed;"/><path d="M153.2239,500.2594c27.4569-.0182,54.9137-.0408,82.3705-.0838,18.5409-.029,37.0817-.0623,55.6226-.0833,18.4719-.021,36.9437-.0352,55.4156-.0474,6.0411-.004,6.0514-9.3928,0-9.3888-27.4569,.0182-54.9137,.0408-82.3705,.0838-18.5409,.029-37.0817,.0623-55.6226,.0833-18.4719,.021-36.9437,.0352-55.4156,.0474-6.0411,.004-6.0514,9.3928,0,9.3888h0Z" style="fill:#f4d13b;"/><circle cx="350.0752" cy="494.9147" r="9.3888" style="fill:#f4d13b;"/></g><g><path d="M47.7261,639.1012c.4671-.3748,.9361-.7472,1.4081-1.1158,.118-.0922,.2362-.1841,.3545-.2758-.274,.2114-.2862,.2211-.0365,.029,.2382-.1814,.4759-.3636,.7147-.5441,.9556-.7221,1.9213-1.4308,2.8968-2.1257,1.9513-1.3899,3.9424-2.7226,5.9679-4.0019,1.2447-.7862,1.8544-2.5447,1.0105-3.8537-.8034-1.2462-2.5211-1.8522-3.8537-1.0105-4.3193,2.7281-8.4617,5.7179-12.4456,8.9151-1.1543,.9264-1.0375,3.0309,0,3.9833,1.2254,1.1249,2.7519,.9883,3.9833,0h0Z" style="fill:#6966ed;"/><path d="M89.578,664.3483c1.5384-5.3721,3.0769-10.7442,4.6153-16.1162,.4054-1.4157-.4945-3.1294-1.9672-3.4648-1.5014-.342-3.0306,.4511-3.4648,1.9672-1.5384,5.3721-3.0769,10.7442-4.6153,16.1162-.4054,1.4157,.4945,3.1294,1.9672,3.4648,1.5014,.342,3.0306-.4511,3.4648-1.9672h0Z" style="fill:#6966ed;"/><path d="M25,589.2794c5.3903,.0892,10.7714,.4446,16.1266,1.0652,1.469,.1702,2.8793-1.417,2.8166-2.8166-.0749-1.6715-1.2429-2.6343-2.8166-2.8166-5.3552-.6206-10.7363-.976-16.1266-1.0652-1.4739-.0244-2.884,1.313-2.8166,2.8166,.0693,1.5469,1.2373,2.7905,2.8166,2.8166h0Z" style="fill:#6966ed;"/></g></svg>