<?xml version="1.0" encoding="UTF-8"?><svg id="Layer_2" xmlns="http://www.w3.org/2000/svg" width="1000" height="1000" viewBox="0 0 1000 1000"><path d="M716.8066,525.5139l-.0013-.003c-1.3081-2.9081-4.006-4.9683-7.1643-5.408-10.3661-1.443-19.7841-8.0192-24.3945-18.2688-7.3043-16.2385,.2905-35.3926,16.9611-42.118,15.0722-6.0802,32.5485,.508,39.8514,15.0271,5.2895,10.5162,4.1359,22.4498-1.8265,31.5082-1.7841,2.7102-2.1222,6.1221-.7912,9.0811h0c2.1173,4.7071,7.6494,6.8064,12.3563,4.6892l44.1612-19.8642c10.5022-4.724,15.1863-17.0672,10.4623-27.5694l-19.8641-44.161c-2.1173-4.7071-.0179-10.2392,4.689-12.3564l.003-.0013c2.9081-1.3081,6.2938-1.0598,8.9485,.7065,8.7138,5.7978,20.1233,7.1253,30.373,2.5149,16.2385-7.3042,23.2634-26.6746,15.2516-42.7666-7.2433-14.5488-24.6907-21.2139-39.7875-15.1952-10.9347,4.3595-17.9886,14.0537-19.5368,24.7873-.4633,3.2115-2.4738,5.9886-5.433,7.3197h0c-4.7069,2.1173-10.239,.0179-12.3563-4.6892l-19.9262-44.2991c-4.724-10.5022-17.0672-15.1863-27.5694-10.4623l-44.1612,19.8642c-4.7069,2.1172-10.239,.0179-12.3563-4.6892h0c-1.331-2.959-.9929-6.3709,.7912-9.0811,5.9625-9.0584,7.1161-20.992,1.8265-31.5082-7.3029-14.5191-24.7793-21.1073-39.8514-15.0271-16.6706,6.7253-24.2654,25.8794-16.9611,42.118,4.6104,10.2496,14.0283,16.8258,24.3945,18.2688,3.1583,.4397,5.8562,2.5,7.1643,5.408l.0013,.003c2.1173,4.7071,.0179,10.2392-4.689,12.3564l-44.2991,19.9263c-10.5021,4.724-15.1864,17.0672-10.4623,27.5694l19.8641,44.161c2.1173,4.7071,.0179,10.2392-4.689,12.3564h0c-2.9592,1.3311-6.3709,.993-9.0812-.791-9.0583-5.9627-20.9918-7.1162-31.5081-1.8267-14.5192,7.3029-21.1074,24.7794-15.027,39.8514,6.7253,16.6707,25.8794,24.2654,42.1179,16.9612,10.2496-4.6104,16.8258-14.0282,18.2688-24.3945,.4397-3.1582,2.5001-5.8562,5.4081-7.1643l.003-.0013c4.707-2.1172,10.239-.0179,12.3564,4.6892l19.9262,44.2991c4.724,10.5022,17.0672,15.1863,27.5694,10.4623h0s44.2991-19.9263,44.2991-19.9263c4.7069-2.1172,6.8063-7.6493,4.689-12.3564Z" style="fill:#f4d13b;"/><path d="M875.8994,438.7406c.0804,.3581,.1463,.7036,.0381,1.0519-.0176,.0566-.0473,.1315-.0873,.1804-.0451,.0551-.2603,.291-.3887,.3962-.5172,.4236-1.454,.7014-2.247,.8636-2.0134,.4118-4.1002,.2902-6.1135,.746-2.1699,.4913-4.2353,1.8884-4.3949,4.2939-.1532,2.3083,2.1317,3.8528,3.907,4.8423,2.0931,1.1666,4.4076,1.805,6.7944,1.9492,.9257,.0559,1.7153-.8284,1.7153-1.7153,0-.9752-.7869-1.6593-1.7153-1.7153-2.1937-.1325-4.3544-.9083-6.1942-2.1862-.3348-.2326-.72-.6088-.9728-.7984-.1861-.1396-.1353-.2716-.0765-.3769,.3975-.7123,1.3747-.9053,2.3037-1.0779,2.3563-.4376,4.8147-.2071,7.0955-1.0605,1.235-.4621,2.357-1.1525,3.1204-2.252,.8432-1.2144,.8357-2.6636,.5239-4.0527-.203-.9042-1.2476-1.4351-2.1101-1.1981-.9304,.2557-1.4017,1.2032-1.1981,2.1101h0Z"/><path d="M758.8585,404.0262c0,9.2257,.0007,18.4515,0,27.6772l.3513-1.2987c-3.1662,6.307-6.298,12.6312-9.3827,18.9785-1.116,2.2964-2.1343,4.6546-3.3815,6.8835-1.7135,3.0623-3.33,6.1801-4.9067,9.3146-7.2915,14.4965-13.6348,29.5035-18.9846,44.8218-7.3387,21.0135-12.7982,42.8051-14.9136,64.9972-1.9781,20.7509-.7222,42.0816,5.348,62.104,5.3781,17.7398,14.8282,34.7648,29.6652,46.2747,7.6197,5.911,16.383,10.1846,25.7247,12.59,11.1489,2.8707,23.0521,3.794,34.5354,3.6779,23.0222-.2327,45.9913-5.7641,66.3762-16.5232,21.5943-11.3974,38.7281-29.0174,54.0712-47.7223,7.8279-9.5431,15.4436-19.4434,22.2547-29.7444,1.0325-1.5615,1.9945-3.1738,2.9559-4.7794,5.6306-9.4035,10.7076-19.16,15.1426-29.1828,5.9477-13.4415,10.9941-27.5394,12.9973-42.1602,1.8231-13.3065,1.1409-28.0454-7.0418-39.2968-1.9997-2.7497-4.3067-5.2344-6.9657-7.3576-3.5323-2.8206-7.7934-4.5107-11.2896-7.4212-2.6996-2.2473-4.6384-4.4176-6.0251-7.5853,.1974,.4508-.151-.3994-.1849-.4926-.121-.3328-.2318-.6691-.3335-1.0083-.2136-.7125-.3844-1.4373-.5168-2.1691-.1327-.7332-.1273-.649-.2074-1.6675-.0604-.7678-.0866-1.5381-.0885-2.3082-.0181-7.1285,1.5778-14.1878,1.9049-21.305,.3471-7.5528,.1046-15.6549-3.3257-22.5455-5.804-11.6588-18.469-19.3286-30.5854-22.9143-12.3268-3.6479-27.0118-3.6195-37.4413,4.8075-5.3857,4.3517-8.7457,10.7527-10.1961,17.451-1.1337,5.2354-2.8106,10.3547-3.9754,15.5941-1.0433,4.6932-1.8785,9.4294-2.4539,14.2032-1.3903,11.5366-1.4965,25.3611,5.6989,35.2054,4.8411,6.6233,12.1338,10.0172,20.1653,10.8321,5.6497,.5733,11.4845-.116,16.9688-1.5314,.8823-.2277,1.7679-.4674,2.6282-.7698,3.1037-1.0909,1.7678-6.0645-1.368-4.9622-.9061,.3185-1.8397,.569-2.7696,.8061-1.043,.2659-2.0946,.4985-3.1519,.6998-.6163,.1173-1.2346,.2239-1.8547,.3195-.2692,.0415-1.4623,.1941-.4223,.0664-.3652,.0448-.7299,.0925-1.0956,.1327-3.1324,.3447-6.276,.3715-9.4103,.0414-.2059-.0217-.9524-.1326-.0649-.0026-.1818-.0266-.3642-.0501-.5456-.0796-.4563-.0744-.9118-.1507-1.3653-.2411-.8242-.1644-1.6418-.3622-2.4488-.597-.8196-.2384-1.6125-.5352-2.4131-.8281-.6661-.2438,.4671,.2293-.1768-.0724-.1734-.0812-.3497-.1562-.5232-.2375-.4145-.1942-.8235-.4002-1.226-.6182-.7968-.4315-1.5683-.9097-2.3074-1.4339-.1625-.1152-.3206-.2364-.4826-.3522-.2702-.193,.4247,.3644-.1321-.1076-.3697-.3133-.7412-.622-1.0966-.9519-.6952-.6452-1.3482-1.3357-1.9556-2.0641-.1004-.1204-.6838-.8734-.2101-.2465-.1337-.1769-.2667-.3544-.3964-.5343-.3154-.4377-.6156-.8864-.9012-1.3442-1.4356-2.3005-1.9322-3.5065-2.673-5.7859-.4108-1.2639-.7474-2.5512-1.0233-3.8509-.324-1.5266-.519-2.8314-.6384-3.911-.8206-7.4203-.1924-14.9833,1.0273-22.3229,.825-4.9646,1.9226-9.8822,3.1915-14.7514,.7077-2.7157,1.6691-5.414,2.2061-8.1647,.3557-1.8223,.8403-3.6212,1.4786-5.3654,2.0208-5.5221,5.8478-10.051,11.0595-12.8402,.6402-.3426,1.2944-.6586,1.959-.9509,.0703-.0309,.4548-.1883,.0564-.0248,.1499-.0616,.3005-.1233,.4521-.1805,.381-.1435,.7613-.2876,1.1464-.4199,1.4431-.4957,2.9221-.8837,4.4197-1.175,1.6574-.3224,2.4014-.4135,4.2185-.5278,1.5569-.0979,3.1192-.1069,4.6775-.0386,12.1909,.5345,25.2294,5.962,33.8552,14.8088,2.1833,2.2392,3.5661,3.9889,5.1123,6.7976,.7998,1.4528,1.0782,2.0723,1.5361,3.3734,.4508,1.281,.7951,2.5996,1.0164,3.9397,1.3496,8.1726,.5664,16.5276-.4298,24.6871-.7587,6.2143-1.7319,12.8807,.5071,18.9161,2.8635,7.7187,9.8652,12.6877,16.8901,16.39,2.679,1.4119,5.2028,4.0401,7.2596,6.5554,.486,.5943,.6267,.7804,1.1701,1.5575,.4442,.6352,.8669,1.2855,1.2676,1.949,.8202,1.3581,1.5468,2.7709,2.1843,4.2235-.0101-.0231,.1499,.3511,.285,.6934,.1264,.3202,.2485,.6422,.3665,.9656,.2964,.8124,.5661,1.6345,.8109,2.4639,.4465,1.5127,.8083,3.0501,1.0953,4.6008,.5384,2.9086,.7977,6.1333,.8131,9.4673,.0657,14.2449-4.0609,28.4373-9.2185,41.8508-4.3656,11.3535-9.8855,22.633-15.9995,33.4147-4.7459,8.3691-10.1319,16.0893-15.8713,23.8411-7.6317,10.3076-15.7296,20.2815-24.4721,29.6705-8.0987,8.6974-16.6547,17.0327-26.4385,23.8297-18.4878,12.8439-40.248,20.7732-62.6021,23.2645-11.5689,1.2893-23.2848,1.1997-34.8377-.2153-9.9905-1.2237-19.749-3.5424-28.6244-8.4188-15.9653-8.772-27.0205-24.0437-33.5108-40.796-7.2154-18.6239-9.6136-38.9076-8.7822-58.7775,.9342-22.3266,5.8218-44.3842,12.6305-65.6124,5.242-16.3435,11.6848-32.3104,19.1823-47.7487,1.9715-4.0596,4.013-8.0877,6.1723-12.0511,2.9592-5.4316,5.5087-11.0781,8.2459-16.6252,1.5186-3.0776,3.0471-6.1502,4.5844-9.2185,.3462-.6909,.8226-1.3992,1.0282-2.1472,.2473-.8999,.092-2.0636,.0921-2.9904,0-1.6337,.0001-3.2674,.0002-4.9012,0-6.8232-.0003-13.6464-.0003-20.4696,0-3.3112-5.146-3.3167-5.146,0h0Z"/><path d="M771.8766,394.6595v24.9849c0,3.3112,5.146,3.3167,5.146,0v-24.9849c0-3.3112-5.146-3.3167-5.146,0h0Z"/><path d="M784.8947,394.7883v24.9849c0,3.3112,5.146,3.3167,5.146,0,0-7.2964,0-14.5928,0-21.8892v-3.0957c0-3.3112-5.146-3.3167-5.146,0h0Z"/><path d="M797.9128,394.9171v24.9849c0,3.3112,5.146,3.3167,5.146,0v-24.9849c0-3.3112-5.146-3.3167-5.146,0h0Z"/><g><path d="M886.0006,489.5269c-6.4847,.3871-16.1787-.8396-19.7001-.8807,0,0,22.6408,22.0539,42.6376,4.9977,4.117-4.7051,9.4103-11.7628,9.4103-11.7628,0,0-12.6451,6.4696-32.3478,7.6458Z"/><path d="M886.0006,486.9539c-6.601,.3635-13.1193-.7701-19.7001-.8807-2.2183-.0373-3.4094,2.8481-1.8194,4.3924,4.291,4.1675,9.7025,7.4243,15.2139,9.6627,4.4907,1.8238,9.4436,2.849,14.3008,2.4924,6.0124-.4414,11.9267-2.8667,16.4458-6.8913,1.2985-1.1564,2.3657-2.666,3.4623-4.0141,1.0122-1.2444,2.0099-2.5006,2.9981-3.764,1.2359-1.5801,2.464-3.1671,3.6682-4.7715,.674-.8981,.338-2.3777-.4023-3.118-.8381-.8381-2.0935-.9246-3.118-.4023-.2009,.1024-.4055,.198-.6098,.2933-.2122,.099-.4257,.1954-.6397,.2905-.1543,.0686-.3096,.135-.4641,.2032-.6391,.2822,.3916-.152-.0641,.0282-2.1105,.8346-4.2264,1.6273-6.3935,2.3072-7.4228,2.3289-15.1173,3.6908-22.878,4.1721-1.3872,.086-2.573,1.121-2.573,2.573,0,1.3263,1.1789,2.6595,2.573,2.573,8.2071-.509,16.3936-1.8923,24.246-4.3559,3.1832-.9987,6.4205-2.1222,9.4005-3.6412-1.1735-1.1735-2.3469-2.3469-3.5204-3.5204-2.4137,3.2161-4.8885,6.3717-7.5739,9.5673-3.3094,3.9383-8.3971,6.5118-13.3046,7.2008-8.2922,1.1643-16.206-2.3607-22.9127-7.1056-.3492-.2471-.6954-.4985-1.0384-.7542-.1235-.0921-.2461-.1854-.3694-.2778-.3767-.2825,.3989,.3233-.1647-.1276-.4834-.3867-.9654-.7741-1.436-1.1764-.4104-.3508-.8196-.7059-1.2071-1.0822l-1.8194,4.3924c6.5809,.1107,13.099,1.2443,19.7001,.8807,3.2934-.1814,3.3145-5.3286,0-5.146Z"/></g><g><path d="M867.3739,388.4836c-1.683,3.74-2.5018,7.7706-2.0388,11.8801,1.6657,14.7853,18.0782,27.2699,32.4283,22.4091,0,6.4696,4.9992,13.5273,13.8213,7.3518,8.8221-6.1755,5.5874,24.4079,0,30.5834,5.5873,.8822,10.6622-26.8445,18.5263-23.8199,15.2919,5.8815,4.8856,22.2883-1.3729,26.817,2.9629,3.8221,17.717,8.5133,17.4916-.0499,1.6457,1.0846,3.9347,.6971,5.5488-.434,6.1836-4.3335,11.4353-13.126,13.2654-20.2817,5.9571-23.292-1.4296-50.0435-19.9535-65.369-18.5243-15.3257-47.6834-17.101-66.7602-2.4687-4.5781,3.5115-8.6083,8.1638-10.9563,13.3818Z"/><path d="M865.1522,387.1849c-2.0924,4.754-2.9834,9.695-2.1632,14.8596,.5942,3.741,2.118,7.3819,4.1968,10.5382,4.2224,6.4114,10.8926,11.4729,18.4424,13.1791,4.2396,.9581,8.6793,.8553,12.8192-.508-1.0857-.827-2.1714-1.6541-3.257-2.4811,.0573,5.0565,2.6721,10.9745,8.1161,12.0923,3.2464,.6665,6.4911-.4729,9.1902-2.2548,.3485-.2301,.7068-.4461,1.055-.6744,.5299-.3474-.5035,.1059,.2396-.074,.6168-.1493-.6845,.0149,.078,.0238-.7691-.009-.5441-.0991-.2889-.0187,.3864,.1218-.6742-.351-.161-.0594,.4656,.2646-.4435-.4887,.0411,.0681,.2805,.3223-.2475-.573-.1186-.1583,.0325,.1046,.1447,.2145,.1953,.3139,.0566,.1111,.1117,.2454,.1807,.3484,.2688,.4016-.1582-.5881-.041-.0989,.0833,.3475,.2323,.6855,.322,1.034,.0856,.3328,.1558,.6695,.2168,1.0077,.0325,.1803,.0578,.3616,.0885,.5421-.1211-.7128-.0076-.0631,.006,.0752,.0884,.9044,.1486,1.8077,.1655,2.7165,.0368,1.9842-.0777,3.9711-.2824,5.9443-.1311,1.2634-.1468,1.3823-.3321,2.5603-.1685,1.0709-.3643,2.1375-.5897,3.1979-.4454,2.095-.9953,4.1782-1.7464,6.1858-.0714,.1908-.1466,.38-.22,.57-.1634,.4229,.185-.3757-.1194,.2828-.1768,.3825-.3547,.7635-.5541,1.135-.1797,.3349-.3819,.6528-.5792,.977-.0773,.1271-.1766,.2401-.2552,.3659,.4084-.6534,.1106-.1473-.0315,.0133-1.5915,1.7992-.3796,4.1099,1.8194,4.3924,3.6996,.4753,6.0698-4.3337,7.4044-7.0052,2.0497-4.1028,3.6782-8.4138,5.9205-12.4211,.5149-.9202,1.0693-1.8141,1.6795-2.6742,.1453-.2048,.3418-.4327,.0596-.0879,.1537-.1877,.3065-.3754,.4683-.5563,.2822-.3155,.5948-.5909,.8961-.8859,.3838-.3757-.2997,.1281,.0287-.0221,.1245-.057,.2566-.1576,.3715-.2338,.2633-.1746,.668-.1654,.0139-.0376,.1434-.028,.3833-.0867,.5117-.1493,.3418-.1668-.641,.0589-.0986,.0243,.3056-.0195,.5478,.1694-.0882-.0493,.4028,.1385,.8016,.2284,1.1973,.4059,1.3351,.5988,2.4317,1.268,3.3549,2.1653,.2198,.2136,.426,.4386,.6291,.6681,.0841,.0951,.1682,.1933,.245,.2945-.0731-.0962-.2183-.3224,.041,.0831,.1533,.2397,.3057,.4773,.4427,.7272,.0576,.1052,.1103,.2128,.1673,.3182,.2237,.4141-.0272-.1169,.0751,.1433,.818,2.0796,.7141,3.8274,.1836,5.8914-.1665,.6479-.3706,1.2858-.6044,1.9125-.2286,.6127-.2725,.719-.6511,1.4893-.6155,1.2522-1.3342,2.4536-2.1321,3.5979-.1881,.2698-.3818,.5355-.5778,.7996-.0436,.0587-.3,.3859-.0407,.0559-.0983,.1251-.1972,.2502-.2988,.3726-.3921,.4724-.7907,.9383-1.2105,1.3864-.4107,.4384-.8367,.8628-1.2813,1.2667-.1929,.1753-.3903,.3448-.5889,.5136-.0714,.0607-.1449,.1188-.2172,.1783-.4868,.4008,.4412-.3265-.0457,.0309-1.4377,1.0554-1.6348,2.6543-.5207,4.0411,1.2062,1.5016,3.072,2.5459,4.7993,3.3328,2.3383,1.0652,4.7567,1.7947,7.3126,2.0871,2.1903,.2505,4.6179,.0965,6.5541-1.0617,2.2213-1.3288,3.2422-3.7012,3.218-6.2275l-3.8717,2.2217c6.768,3.9926,13.5152-4.7211,16.7907-9.6076,3.7746-5.631,5.9798-11.9257,7.025-18.593,2.0442-13.0395,.4144-26.4668-4.7499-38.6173-5.0275-11.8287-13.586-22.2213-24.7758-28.6809-11.131-6.4257-24.5142-9.0921-37.2556-7.4166-13.3486,1.7554-26.4572,8.2219-34.1832,19.5577-1.0084,1.4795-1.8837,3.0387-2.6302,4.6656-.5791,1.2622-.3589,2.7705,.9231,3.5204,1.108,.6481,2.9381,.3459,3.5204-.9231,5.1959-11.3245,16.7726-18.3837,28.6097-20.9847,11.1048-2.4401,23.1968-1.1345,33.5608,3.5376,21.9903,9.9133,33.7594,34.0322,32.6505,57.5121-.3001,6.3543-1.3745,12.9274-4.183,18.6862-1.5116,3.0995-3.3698,6.0751-5.6585,8.6623-1.076,1.2164-2.2401,2.396-3.5272,3.3913-1.0024,.7752-2.2902,1.5717-3.5195,.8465-1.6712-.9859-3.8903,.2718-3.8717,2.2217,.0023,.2389,.0004,.4766-.0178,.7149,.0455-.5974-.0304,.0728-.0435,.1678-.0181,.1315-.2676,.7164,.0049,.1259-.0785,.1701-.1715,.3229-.2634,.4854-.2562,.4529,.2631-.4272-.038,.0371-.0915,.1411-.5668,.4345-.0127,.0579-.1231,.0837-.245,.1705-.3772,.2396-.0732,.0383-.6377,.2871-.2721,.1462,.3714-.1431-.2451,.0664-.3222,.085-.1925,.0465-.386,.0879-.5787,.1329-.3067,.0716,.4784-.0314-.0292,.009-.2133,.017-.4261,.0342-.64,.0415-.4474,.0153-.8958,.0017-1.3421-.0314-.2316-.0172-.4636-.0399-.6941-.0687,.5711,.0714-.2045-.0397-.2565-.05-.92-.1822-1.8255-.3977-2.7187-.686-.4245-.137-.8437-.288-1.2602-.4479-.1139-.0437-.6794-.2874-.2658-.1051-.2128-.0938-.4244-.1905-.634-.2913-.776-.373-1.5055-.8067-2.227-1.2744-.1306-.0846-.5869-.465-.0819-.0456-.1337-.1111-.2683-.2206-.3964-.3384-.228-.2098-.4385-.4324-.6325-.674-.1736,1.347-.3472,2.6941-.5207,4.0411,7.8121-5.7347,15.4951-19.8717,6.7106-27.9973-1.2367-1.1439-2.6715-2.0827-4.2006-2.7845-1.2094-.5551-2.4119-1.1-3.7721-1.0577-2.0997,.0653-3.9338,1.2867-5.2964,2.8102-3.1971,3.5745-5.0187,8.2735-6.9683,12.5862-1.0467,2.3155-2.0748,4.6718-3.4086,6.8406-.2553,.4151-.5359,.8087-.813,1.2088,.1337-.1931,.2067-.2137-.123,.1248-.1273,.1307-.2565,.2613-.3822,.3935-.359,.3776-.1308,.2001-.0054,.0252-.0866,.1209-.3589,.1312-.4314,.2463,.1168-.1853,.6663-.2225,.1338-.1049,.8142-.1798,.4333-.0407,.1044-.0829,.6065,1.4641,1.2129,2.9283,1.8194,4.3924,2.3462-2.6525,3.4745-6.3073,4.3336-9.6747,1.0714-4.1997,1.7054-8.5705,1.8608-12.9021,.1217-3.3941,.1046-7.3359-1.5561-10.4043-.7163-1.3235-1.8975-2.3797-3.3877-2.7039-2.0664-.4495-3.6586,.6685-5.3254,1.6865-1.2801,.7818-2.7118,1.4029-4.0717,1.4013-.9759-.0011-1.8796-.3557-2.4761-.893-1.7056-1.5362-2.4185-3.9247-2.4451-6.2645-.0181-1.6-1.6395-3.0138-3.257-2.4811-12.1653,4.0062-25.6043-5.4621-28.6861-17.4845-1.1111-4.3347-.6174-8.8904,1.2023-13.0249,.5594-1.2709,.3719-2.7629-.9231-3.5204-1.0929-.6392-2.9577-.3554-3.5204,.9231Z"/></g><path d="M886.4365,432.4378c.2724-.124-.2968,.1097-.0972,.0397,.0609-.0214,.1208-.0457,.1819-.0669,.1371-.0476,.2761-.0896,.4166-.1261,.1404-.0364,.2823-.0668,.4251-.092,.2852-.0503-.0048,.0106-.1211,.0123,.0636-.0009,.129-.0138,.1926-.019,.2897-.0237,.5813-.0256,.8713-.0066,.0806,.0053,.1611,.0161,.2417,.0208,.2054,.0121-.4618-.0783-.1192-.0165,.1436,.0259,.2865,.0518,.4286,.0853,.2855,.0673,.557,.1645,.8335,.2601,.2025,.07-.3335-.155-.1416-.0602,.0724,.0357,.1468,.0674,.2191,.1035,.13,.0649,.2575,.1346,.3823,.2089,.1247,.0742,.2467,.1528,.3654,.2364,.0526,.0371,.1029,.078,.1562,.1139-.3864-.2609-.175-.134-.0838-.0558,.2336,.2004,.4464,.4207,.6438,.6566,.578,.691,1.8372,.6413,2.4259,0,.6746-.7348,.6166-1.6888,0-2.4259-.9944-1.1887-2.4744-2.0366-3.9834-2.3672-1.7063-.3738-3.3846-.1848-4.9691,.5364-.8193,.3729-1.0821,1.623-.6154,2.3469,.5454,.8459,1.4704,1.0143,2.3469,.6154h0Z"/><path d="M866.5221,427.5338c.0776-.0397,.1559-.077,.2357-.1123l-.4098,.1729c.302-.1266,.6134-.2114,.9373-.2591l-.456,.0613c.3684-.0478,.7366-.0455,1.1047,.0039l-.456-.0613c.346,.0521,.6803,.1442,1.0038,.2777l-.4098-.1729c.3004,.1298,.5804,.2912,.8415,.4887l-.3472-.2682c.1888,.1482,.3613,.311,.5193,.4918,.2777,.3177,.8029,.5024,1.2129,.5024,.4207,0,.9233-.1869,1.2129-.5024,.3001-.3269,.5229-.7561,.5024-1.2129-.0211-.472-.1903-.8559-.5024-1.2129-.7412-.8479-1.8535-1.4697-2.9604-1.6729-1.3043-.2395-2.5736-.0939-3.7605,.514-.8002,.4098-1.0981,1.5982-.6154,2.3469,.5264,.8164,1.4911,1.0537,2.3469,.6154h0Z"/><g><path d="M867.2199,435.1298c-.6349,1.1041-1.7547,1.7077-2.987,1.5117-.2328-.037-.4684-.0922-.6669-.2194-.2438-.1562-.4107-.4079-.5381-.6679-.515-1.0507-.4606-2.3603,.1397-3.3647,.8159-1.3652,2.9769-1.3909,3.9256-.1255,.6074,.8101,.6314,1.988,.1266,2.8658Z"/><path d="M865.7387,434.264c-.0781,.133-.1625,.2602-.2552,.3836l.2682-.3472c-.1695,.2169-.3598,.4106-.5762,.5809l.3472-.2682c-.1963,.1481-.405,.2709-.6306,.369l.4098-.1729c-.2275,.093-.4606,.1563-.7039,.1912l.456-.0613c-.253,.0305-.5036,.0285-.7564-.0033l.456,.0613c-.1864-.0276-.3675-.0654-.5441-.1325l.4098,.1729c-.0862-.038-.1648-.0809-.2425-.1342l.3472,.2682c-.0887-.0693-.165-.1449-.2372-.231l.2682,.3472c-.1392-.1815-.2431-.381-.3326-.5909l.1729,.4098c-.1139-.2837-.1907-.5753-.2337-.8779l.0613,.456c-.04-.3272-.0388-.6523,.0031-.9793l-.0613,.456c.0447-.3024,.1227-.5938,.2369-.8774l-.1729,.4098c.0994-.2331,.2166-.4569,.3716-.658l-.2682,.3472c.11-.1353,.2325-.2548,.3702-.3619l-.3472,.2682c.1522-.1125,.3138-.2043,.4877-.2789l-.4098,.1729c.2083-.0841,.4227-.1395,.6453-.1695l-.456,.0613c.2249-.0257,.4483-.0245,.673,.0031l-.456-.0613c.2246,.0321,.4409,.0896,.6512,.1747l-.4098-.1729c.1928,.0828,.3718,.1859,.5391,.3128l-.3472-.2682c.1389,.1106,.263,.2333,.3748,.3713l-.2682-.3472c.1321,.1718,.2378,.3561,.3227,.5554l-.1729-.4098c.081,.205,.1359,.4142,.168,.6323l-.0613-.456c.0296,.2422,.0297,.4817,.0012,.724l.0613-.456c-.0343,.242-.0956,.4739-.1867,.7007l.1729-.4098c-.0437,.1015-.092,.1995-.1458,.296-.2196,.3937-.2936,.8837-.1729,1.3218,.1096,.3979,.4172,.8291,.7883,1.0251,.8085,.4272,1.88,.2216,2.3469-.6154,.9132-1.6369,.756-3.7741-.5678-5.1477-1.0458-1.0851-2.7611-1.4916-4.1949-1.0511-.782,.2402-1.4658,.6861-1.9661,1.3336-.5935,.7682-.8665,1.6565-.9812,2.6096-.1011,.8403,.0557,1.7083,.3828,2.4833,.4264,1.0103,1.1718,1.8404,2.2983,2.054,.5552,.1053,1.0556,.1363,1.61,.0618,.5287-.071,.9638-.2131,1.4524-.4444,.8242-.3901,1.5102-1.1223,1.9665-1.8992,.4548-.7743,.2024-1.9149-.6154-2.3469-.8237-.4352-1.8614-.2112-2.3469,.6154Z"/></g><g><path d="M886.9421,439.2249c-.435,.7566-1.2024,1.1702-2.0469,1.0359-.1595-.0254-.321-.0632-.457-.1504-.167-.1071-.2814-.2795-.3687-.4577-.3529-.72-.3156-1.6174,.0957-2.3057,.5591-.9355,2.04-.9531,2.6901-.086,.4162,.5552,.4327,1.3623,.0868,1.9638Z"/><path d="M885.461,438.3591c-.0535,.0912-.1114,.1783-.1748,.2628l.2682-.3472c-.1162,.1486-.2466,.2813-.3948,.398l.3472-.2682c-.1345,.1015-.2775,.1856-.4321,.2528l.4098-.1729c-.1559,.0637-.3157,.1071-.4824,.131l.456-.0613c-.1734,.0209-.3451,.0195-.5184-.0023l.456,.0613c-.1278-.0189-.2518-.0448-.3728-.0908l.4098,.1729c-.059-.026-.113-.0554-.1662-.092l.3472,.2682c-.0608-.0475-.1131-.0993-.1625-.1583l.2682,.3472c-.0954-.1244-.1666-.261-.2279-.4049l.1729,.4098c-.0781-.1944-.1307-.3942-.1601-.6016l.0613,.456c-.0274-.2242-.0266-.447,.0021-.6711l-.0613,.456c.0306-.2072,.0841-.4069,.1623-.6013l-.1729,.4098c.0681-.1597,.1484-.3131,.2546-.4509l-.2682,.3472c.0754-.0927,.1593-.1746,.2537-.248l-.3472,.2682c.1043-.0771,.2151-.14,.3342-.1911l-.4098,.1729c.1428-.0576,.2897-.0956,.4422-.1162l-.456,.0613c.1541-.0176,.3072-.0168,.4612,.0021l-.456-.0613c.1539,.022,.3021,.0614,.4463,.1197l-.4098-.1729c.1321,.0568,.2548,.1274,.3694,.2144l-.3472-.2682c.0952,.0758,.1802,.1599,.2568,.2544l-.2682-.3472c.0906,.1177,.1629,.244,.2211,.3806l-.1729-.4098c.0555,.1405,.0931,.2839,.1151,.4333l-.0613-.456c.0203,.166,.0204,.3301,.0008,.4961l.0613-.456c-.0235,.1658-.0655,.3247-.1279,.4802l.1729-.4098c-.03,.0696-.063,.1367-.0999,.2028-.2196,.3937-.2936,.8837-.1729,1.3218,.1096,.3979,.4172,.8291,.7883,1.0251,.3981,.2103,.8804,.3158,1.3218,.1729,.4207-.1362,.8047-.3931,1.0251-.7883,.7455-1.3363,.6044-3.0633-.4735-4.1817-.151-.1566-.335-.2836-.5079-.4126-.067-.05-.1356-.0968-.2089-.1371-.2608-.1434-.5498-.2691-.8413-.3377-.3-.0707-.623-.1189-.9332-.1081-.3002,.0104-.6188,.0474-.9086,.1364-.6522,.2004-1.2112,.5682-1.6277,1.1074-.2601,.3367-.4117,.6534-.5706,1.0565-.1344,.3409-.1743,.6957-.2177,1.0588-.0355,.2978-.0083,.5787,.0316,.8752,.0504,.3748,.1301,.6859,.2772,1.0345,.1655,.3922,.3453,.7344,.659,1.0414,.1292,.1265,.2847,.2415,.4333,.3421,.0466,.0315,.0931,.0581,.1441,.0822,.2194,.1037,.448,.2088,.6884,.2544,.466,.0884,.8576,.1139,1.3186,.052,.4452-.0598,.7792-.1713,1.196-.3686,.6419-.3039,1.1863-.8908,1.5412-1.4951,.2252-.3834,.2909-.8934,.1729-1.3218-.1096-.3979-.4172-.8291-.7883-1.0251-.3981-.2103-.8804-.3158-1.3218-.1729-.4262,.1379-.7941,.395-1.0251,.7883Z"/></g><path d="M886.0006,486.9539c-3.0038-.2569-6.0225-.3002-8.9866-.8914-3.0368-.6058-6.0719-1.0661-9.1746-.7548-5.6751,.5694-11.1129,2.7528-15.9193,5.7722-8.8579,5.5645-16.0274,13.5582-22.3868,21.7558-6.302,8.1237-11.9843,16.7283-18.6081,24.6013-7.0119,8.3342-15.2892,15.4468-24.2483,21.6154-18.6749,12.8581-40.0736,21.6105-62.1031,26.7605-22.8547,5.3429-47.1077,6.2668-69.4872-1.6632-17.0242-6.0324-31.9032-17.4339-39.8302-33.9259-1.0067-2.0945-1.8707-4.2429-2.6373-6.4362l-.2594,1.9827c2.7748-5.9607,5.5496-11.9214,8.3244-17.8821,1.0063-2.1617,2.1235-4.3026,3.0079-6.5189,2.7594-6.9146-5.2081-13.5375-11.4874-9.4971-1.6266,1.0466-2.8658,2.8076-4.1266,4.2404-1.1507,1.3076-2.3013,2.6152-3.452,3.9227l4.3924,1.8194c0-5.8714,0-11.7429,0-17.6143,0-3.8745,0-7.749,0-11.6235,0-2.2335,.2472-4.7544-.4459-6.9065-2.5001-7.7629-13.1849-8.784-17.042-1.5688h4.4435c-3.5655-6.6483-13.6297-6.575-16.675,.5214h4.4435c-3.1006-7.2252-13.8053-7.225-16.9058,0h4.4435c-2.0811-4.8383-8.0535-6.905-12.7058-4.4763-3.252,1.6977-4.9788,5.1277-5.0129,8.707-.0436,4.5698,0,9.1421,0,13.7121,0,7.3056,.0288,14.612-.005,21.9175-.0132,2.8521,.1162,5.7048,.3126,8.5495,.4179,6.0526,1.1741,12.0872,2.2003,18.066,1.3626,7.9387,3.2484,15.7911,5.6855,23.4691,2.884,9.0859,6.5395,17.9561,11.0246,26.3708,4.9903,9.3624,11.0663,18.1622,18.1486,26.0665,7.7426,8.6413,16.7588,16.152,26.6283,22.2503,11.4903,7.0999,24.1575,12.2635,37.2108,15.6744,15.9753,4.1744,32.5795,5.8141,49.0652,5.7531,4.6204-.0171,9.2388-.173,13.8514-.4394,3.292-.1901,3.3139-5.3374,0-5.146-16.8495,.9732-33.8773,.4504-50.4952-2.6609-13.3205-2.4939-26.3707-6.5984-38.429-12.7748-10.3505-5.3016-19.6139-11.8305-27.9285-19.8114-7.6505-7.3434-13.8159-15.1057-19.3272-24.0466-5.0388-8.1744-9.0776-16.6697-12.2516-25.2284-2.8886-7.7891-5.1712-15.8006-6.8941-23.9263-.7287-3.4367-1.3569-6.8947-1.8843-10.368-.1218-.8024-.2373-1.6057-.3492-2.4095-.0254-.1825-.0499-.365-.0747-.5476,.0638,.4692,.043,.329-.0005-.0115-.0485-.3793-.098-.7584-.1452-1.1379-.1767-1.4212-.3362-2.8445-.4777-4.2697-.3835-3.8623-.6496-7.7421-.7137-11.6237-.051-3.0893-.0052-6.1827-.0052-9.2719,0-6.2186,0-12.4372,0-18.6559v-7.2712c0-1.1586-.1519-2.4937,.135-3.6288,.4177-1.6527,1.8284-3.0376,3.5621-3.2213,2.109-.2236,3.6519,1.1742,4.4321,2.9882,.7247,1.6849,3.7195,1.687,4.4435,0,1.6544-3.8551,6.3616-3.8619,8.0189,0,.7235,1.686,3.7199,1.686,4.4435,0,1.5054-3.5079,5.8965-4.0486,7.7881-.5214,.8973,1.6732,3.5471,1.6768,4.4435,0,2.1643-4.0486,7.8064-2.5811,7.8984,1.9611,.0386,1.9051,0,3.815,0,5.7204,0,7.2027,0,14.4054,0,21.6081,0,1.942,0,3.884,0,5.826,0,2.1235,2.8834,3.5341,4.3924,1.8194,1.9982-2.2707,3.935-4.6156,6.0035-6.8221,.5785-.617,1.1814-1.0466,2.0629-1.0766,.5542-.0189,1.085,.1155,1.5516,.4152,.6485,.4165,.865,.7167,1.0312,1.222,.4525,1.3757,.1748,1.7603-.3418,2.8698-3.0755,6.6066-6.151,13.2133-9.2265,19.8199-.4402,.9455-.8913,1.8868-1.3208,2.8373-1.0119,2.2391,.5394,4.7616,1.4336,6.8695,2.3745,5.5971,5.4927,10.7783,9.281,15.5313,7.505,9.4161,17.6532,16.527,28.6587,21.2769,28.9096,12.4772,61.4473,9.7392,90.9494,.8281,14.1628-4.2779,27.9455-10.0462,40.7392-17.4964,12.4883-7.2723,24.4172-16.177,33.954-27.0962,8.9893-10.2924,16.1216-22.0345,25.0217-32.3954,8.6757-10.0998,21.495-22.3949,36.057-19.7404,3.9704,.7238,7.8641,1.0395,11.8809,1.3831,3.2993,.2822,3.2805-4.8655,0-5.146h0Z"/><path d="M607.1296,519.3735c-8.9786-1.8552-19.327-.4981-27.3044,4.0034-3.8699,2.1837-7.0956,5.1808-9.7575,8.7183-.8362,1.1112-.178,2.8763,.9231,3.5204,1.3169,.7703,2.6822,.1908,3.5204-.9231,3.8763-5.1513,9.4699-8.3388,15.5335-9.825,2.7797-.6813,4.6344-.9131,7.4893-1.0191,2.0033-.0744,4.0131-.0178,6.0085,.1764,.4019,.0391,.8037,.104,1.206,.1356-.0438-.0034-.6323-.0948-.0919-.0108,.1186,.0184,.2374,.0353,.356,.0542,.2502,.0399,.5008,.0805,.7491,.1318,1.3596,.2809,2.7801-.396,3.1651-1.7971,.3501-1.2743-.4299-2.8826-1.7971-3.1651h0Z"/><path d="M566.4189,484.4114c0,7.2952,0,14.5904,0,21.8857v3.0952c0,3.3112,5.146,3.3167,5.146,0v-24.9809c0-3.3112-5.146-3.3167-5.146,0h0Z"/><path d="M578.4197,484.4114v24.9809c0,3.3112,5.146,3.3167,5.146,0v-24.9809c0-3.3112-5.146-3.3167-5.146,0h0Z"/><path d="M591.3436,484.4114v24.9809c0,3.3112,5.146,3.3167,5.146,0v-24.9809c0-3.3112-5.146-3.3167-5.146,0h0Z"/><path d="M179.1362,385.5029v-.0033c0-3.1887-1.6153-6.1744-4.3152-7.871-8.8618-5.5684-14.7532-15.4292-14.7532-26.668,0-17.8057,14.7838-32.1584,32.746-31.4532,16.2399,.6379,29.4754,13.8154,30.1795,30.0524,.51,11.7605-5.4375,22.1705-14.5911,27.9857-2.7388,1.7398-4.4468,4.7127-4.4468,7.9573h0c0,5.1614,4.184,9.3453,9.3452,9.3453h48.4231c11.5158,0,20.851-9.3353,20.851-20.851v-48.4229c0-5.1614,4.184-9.3453,9.3452-9.3453h.0033c3.1888,0,6.1746,1.6153,7.8711,4.3152,5.5685,8.8621,15.4292,14.7532,26.668,14.7532,17.8056,0,32.1583-14.7837,31.453-32.746-.6376-16.2397-13.8152-29.4754-30.0523-30.1795-11.7606-.5099-22.1705,5.4375-27.9856,14.5913-1.7399,2.7388-4.7127,4.4467-7.9575,4.4467h0c-5.1612,0-9.3452-4.1839-9.3452-9.3453v-48.5743c0-11.5158-9.3353-20.851-20.851-20.851h-48.4231c-5.1612,0-9.3452-4.1839-9.3452-9.3453h0c0-3.2446,1.708-6.2175,4.4468-7.9573,9.1536-5.8152,15.1011-16.2252,14.5911-27.9857-.7041-16.237-13.9397-29.4146-30.1795-30.0524-17.9623-.7053-32.746,13.6475-32.746,31.4532,0,11.2388,5.8913,21.0996,14.7532,26.668,2.7,1.6966,4.3152,4.6823,4.3152,7.871v.0033c0,5.1614-4.184,9.3453-9.3452,9.3453h-48.5744c-11.5157,0-20.8511,9.3353-20.8511,20.851v48.4229c0,5.1614-4.184,9.3453-9.3452,9.3453h0c-3.2448,0-6.2175-1.7079-7.9575-4.4467-5.8151-9.1538-16.225-15.1011-27.9856-14.5913-16.2371,.7041-29.4147,13.9398-30.0523,30.1795-.7053,17.9623,13.6474,32.746,31.453,32.746,11.2388,0,21.0995-5.8912,26.668-14.7532,1.6965-2.6998,4.6823-4.3152,7.8711-4.3152h.0033c5.1612,0,9.3452,4.1839,9.3452,9.3453v48.5743c0,11.5158,9.3353,20.851,20.851,20.851h48.5744c5.1612,0,9.3452-4.1839,9.3452-9.3453Z" style="fill:#f4d13b;"/><path d="M272.8363,498.5709h-.0033c-3.1887-.0091-6.1791,1.5978-7.8833,4.2928-5.5935,8.8462-15.471,14.7094-26.7098,14.6775-17.8055-.0505-32.1162-14.8749-31.3599-32.8352,.6837-16.2378,13.8988-29.4361,30.1379-30.0941,11.762-.4765,22.155,5.5004,27.944,14.6706,1.7321,2.7438,4.7001,4.46,7.9449,4.4693,5.1612,.0146,9.357-4.1574,9.3717-9.3188l.1374-48.4228c.0327-11.5157-9.2761-20.8774-20.7918-20.9101l-48.4229-.1374c-5.1612-.0146-9.3333-4.2104-9.3186-9.3718,.0092-3.2446,1.7256-6.2126,4.4694-7.9446,9.1701-5.7892,15.1471-16.1823,14.6705-27.9442-.658-16.239-13.8561-29.454-30.0941-30.1379-17.9602-.7562-32.7846,13.5545-32.8352,31.3601-.0319,11.2388,5.8314,21.1163,14.6774,26.7098,2.6951,1.7043,4.3019,4.6945,4.2929,7.8832v.0033c-.0147,5.1614-4.2105,9.3334-9.3717,9.3188l-48.5742-.1379c-11.5157-.0327-20.8775,9.2761-20.9102,20.7918l-.1472,51.8591c1.3209,3.5418,4.7193,6.0737,8.7226,6.085h0c3.2448,.0092,6.2224-1.6902,7.9701-4.4241,5.841-9.1372,16.2677-15.055,28.0269-14.5118,16.235,.7501,29.375,14.0232,29.9665,30.2647,.6543,17.9643-13.7403,32.7072-31.5458,32.6566-11.2388-.0319-21.0827-5.951-26.6261-14.8289-1.6889-2.7046-4.6701-4.3284-7.8588-4.3375h-.0033c-4.0033-.0114-7.416,2.5011-8.757,6.0354l-.1468,51.7078c-.0327,11.5157,9.2761,20.8774,20.7918,20.9101l48.4229,.1374c5.1612,.0146,9.3333,4.2104,9.3186,9.3718-.0092,3.2446-1.7256,6.2126-4.4694,7.9446-9.1701,5.7892-15.1471,16.1823-14.6705,27.9442,.658,16.239,13.8561,29.454,30.0941,30.1379,17.9602,.7562,32.7846-13.5545,32.8352-31.3601,.0319-11.2388-5.8314-21.1163-14.6774-26.7098-2.6951-1.7043-4.3019-4.6945-4.2929-7.8832v-.0033c.0147-5.1614,4.2105-9.3334,9.3717-9.3188l48.5742,.1379c11.5157,.0327,20.8774-9.2761,20.9101-20.7918l.1379-48.5741c.0146-5.1614-4.1574-9.3572-9.3186-9.3718Z" style="fill:#f953b2;"/><path d="M539.8514,302.1027c-.6375-16.2398-13.8152-29.4755-30.0521-30.1795-11.7607-.5098-22.1705,5.4375-27.9856,14.5913-1.74,2.739-4.7128,4.4466-7.9576,4.4466-5.1613,0-9.3451-4.1838-9.3451-9.3451v-48.5744c0-11.5157-9.3353-20.8511-20.8511-20.8511h-48.4232c-5.1613,0-9.3451-4.1838-9.3451-9.3454,0-3.2445,1.7079-6.2173,4.4469-7.9571,9.1534-5.8154,15.1011-16.2254,14.591-27.9859-.704-16.2369-13.9397-29.4146-30.1795-30.0524-17.9623-.7052-32.7461,13.6474-32.7461,31.4533,0,11.2386,5.8914,21.0995,14.7534,26.6679,2.7,1.6967,4.3152,4.6824,4.3152,7.871v.0032c0,5.1616-4.1841,9.3454-9.3454,9.3454h-48.5741c-11.5157,0-20.8513,9.3353-20.8513,20.8511v49.9894c.7881,4.3634,4.5975,7.6756,9.1879,7.6756,3.2448,0,6.2176-1.7079,7.9574-4.4466,5.8151-9.1537,16.2251-15.1011,27.9856-14.5913,16.2372,.704,29.4149,13.9397,30.0524,30.1795,.7055,17.9623-13.6474,32.7461-31.453,32.7461-11.2386,0-21.0995-5.8914-26.6679-14.7534-1.6967-2.6997-4.6824-4.3152-7.8713-4.3152h-.0032c-4.5903,0-8.3998,3.3125-9.1879,7.6756v50.3475c0,11.5157,9.3356,20.8508,20.8511,20.8508h48.5744c5.1613,0,9.3454-4.1838,9.3454-9.3451v-.0034c0-3.1886-1.6152-6.1743-4.3152-7.871-8.8619-5.5684-14.7534-15.429-14.7534-26.6679,0-17.8057,14.7838-32.1585,32.7461-31.4533,16.2398,.6381,29.4755,13.8155,30.1795,30.0524,.5101,11.7607-5.4375,22.1705-14.591,27.9859-2.739,1.7397-4.4469,4.7126-4.4469,7.9574,0,5.1613,4.1838,9.3451,9.3451,9.3451h48.4232c11.5157,0,20.8511-9.335,20.8511-20.8508v-48.423c0-5.1616,4.1838-9.3454,9.3451-9.3454h.0032c3.1889,0,6.1746,1.6152,7.8713,4.3149,5.5684,8.8622,15.429,14.7534,26.6679,14.7534,17.8057,0,32.1585-14.7838,31.453-32.7461Z" style="fill:#6966ed;"/><path d="M878.5083,461.9098c2.451-1.5132,5.5293-2.7033,8.2653-2.7365,.5492-.0067,1.1227,.049,1.4992,.232,.0867,.0426,.1707,.0897,.2521,.1414,.1009,.0696,.1094,.0681,.0254-.0045l-.1782-.957c.2219-.3406,.2592-.4327,.1119-.2764-.2737,.1577-.5522,.4507-.7902,.6614-1.192,1.0558-2.1157,2.4672-2.4946,4.0206-.2194,.8994,.2864,1.8596,1.1981,2.1101,.8752,.2405,1.8897-.2944,2.1101-1.1981,.1165-.4777,.2002-.7027,.3895-1.0392,.1783-.3167,.3567-.5729,.527-.7691,.5902-.68,1.4421-1.1393,1.9307-1.9011,1.565-2.4403-1.4263-4.1173-3.465-4.3772-1.888-.2407-3.8814,.1757-5.6906,.7082-1.9007,.5595-3.7369,1.3825-5.4223,2.423-.7876,.4862-1.0911,1.5337-.6154,2.3469,.4601,.7867,1.5555,1.1039,2.3469,.6154h0Z"/><path d="M883.4979,460.7712c.1355,.0434,.2686,.0918,.4005,.1456l-.4098-.1729c.3942,.1678,.7607,.3829,1.1002,.6443l-.3472-.2682c.3167,.2514,.5996,.5363,.8474,.8559l-.2682-.3472c.0427,.0569,.0844,.1142,.1253,.1724,.3564,.5066,.8368,.8496,1.4812,.8496,.5546,0,1.2404-.3155,1.4812-.8496,.1018-.2259,.2275-.4344,.3783-.6309l-.2682,.3472c.1551-.1931,.3278-.3652,.5212-.52l-.3472,.2682c.2146-.1642,.4436-.2996,.6915-.4072l-.4098,.1729c.1458-.0594,.2929-.1077,.4456-.1461,.8705-.2189,1.4789-1.2422,1.1981-2.1101-.2915-.9007-1.1773-1.4326-2.1101-1.1981-1.29,.3243-2.5102,1.2691-3.0617,2.4925h2.9623c-.873-1.2409-2.0473-2.1415-3.4985-2.6064-.8549-.2739-1.9102,.3205-2.1101,1.1981-.2136,.9379,.2827,1.8168,1.1981,2.1101h0Z"/><path d="M389.6632,716.4649c-3.4956-9.5566-7.2188-19.511-6.8738-29.849,.2671-8.0058,3.4776-16.7492,10.2954-21.4417,7.8238-5.3849,18.1545-3.8157,26.3425-.1344,8.596,3.8647,15.8544,10.1123,23.7093,15.2072,31.086,20.163,69.5974,14.9531,104.7071,15.1391,21.0379,.1114,42.0948,1.227,63.1389,1.5189,21.6813,.3007,43.3709,.5734,65.0274,1.7268,9.9592,.5304,20.4398,.625,29.9143,4.0985,7.1784,2.6317,12.9136,7.6056,18.0625,13.121,9.2492,9.9076,17.2054,22.4678,30.2169,27.8158,6.125,2.5175,14.8517,3.9197,19.8943-1.5206,3.9789-4.2927,2.5884-12.8886-3.7237-13.9903-4.3495-.7591-9.6567,2.1256-13.7706,3.2933-4.9161,1.3954-9.8817,2.6149-14.882,3.6691-9.8631,2.0796-19.8486,3.4963-29.8828,4.4306-19.9038,1.8532-39.912,1.9084-59.8822,2.244-21.6558,.3639-43.2916,.94-64.9538,.8277-21.9339-.1137-43.8457-.7571-65.7642-1.5333-21.3369-.7556-42.6679,.4973-63.9994,.8365-20.2063,.3213-40.6169-.1416-60.5069-4.049-8.6421-1.6978-17.2813-4.0629-25.2184-7.9425-7.3744-3.6047-13.3206-8.4865-18.7911-14.5385-5.111-5.6543-9.9598-11.6503-16.021-16.338-2.6429-2.044-5.489-3.7869-8.6577-4.8888-4.3144-1.5003-8.7492-1.0671-13.184-.4325-8.7513,1.2522-15.7327,4.3285-19.2575,12.8872-2.6268,6.3783-3.2841,13.691-4.0118,20.5042-1.5565,14.5719-1.6521,29.7346,1.7578,44.0647,1.5522,6.5229,3.9513,13.0574,7.787,18.6021,4.0636,5.8739,10.4573,11.9924,18.1493,11.4562,6.403-.4464,12.2018-6.9326,9.8069-13.4118-.4325-1.17-1.2604-1.7677-2.4811-1.889-13.3587-1.3276-22.3727,11.2057-24.221,23.0692-1.6762,10.7591-1.4093,23.129,3.3068,33.1366,6.3323,13.437,24.3539,14.2756,37.1547,16.1953,17.8355,2.6747,35.8026,4.3801,53.8028,5.4441,37.0111,2.1878,74.134,1.8644,111.1933,1.9318,37.5639,.0684,75.1309,.0226,112.6894-.6864,37.3179-.7045,74.6309-2.0638,111.8708-4.6179,26.7489-1.8345,53.5952-3.9673,80.1668-7.6443,22.9206-3.1718,45.9676-7.8131,67.3304-16.9433,19.3066-8.2515,37.8579-21.1024,47.028-40.6157,6.7774-14.422,10.1847-30.959,13.0875-46.5381,3.2656-17.5258,5.1823-35.2696,6.8558-53.0073,1.6655-17.6533,3.0897-35.3399,5.4306-52.9212,.9768-7.3362,2.0808-14.6539,2.9512-22.0044,2.1603-18.2429,3.5796-37.1997,.0577-55.3657-3.0838-15.9061-11.7272-31.3793-29.0272-34.2059-10.7338-1.7538-22.3905,.383-30.6803,7.7189-8.0979,7.166-12.1034,17.7509-16.901,27.1527-6.7135,13.1563-15.8502,25.2917-26.9348,35.0787-11.9506,10.5518-27.6579,19.3749-43.7489,20.9768-7.0817,.705-14.9355,.0282-20.7769-4.4583-4.2488-3.2633-6.8052-8.1497-8.2482-13.2153-3.9583-13.8955-1.5459-29.4886,1.2908-43.3553,6.4082-31.3251,18.3539-61.6616,31.5052-90.7154,2.381-5.26,4.8727-10.464,7.3812-15.6635,3.6218-7.5071,7.2437-15.0142,10.8655-22.5213,1.0067-2.0866,2.0768-4.1548,3.0246-6.2691,2.4696-5.5092-.3218-12.1021-6.492-13.3268-8.6934-1.7254-12.0535,8.6253-15.2916,14.5989l4.7947,1.2987c0-9.2131,0-18.4262,0-27.6394,0-3.8351,.5651-8.1098-1.84-11.3889-5.3025-7.2294-15.7561-2.8923-16.3242,5.3717h5.146c-.3306-4.9148-3.9081-9.0821-9.0821-9.0821s-8.7514,4.1667-9.0821,9.0821h5.146c-.3306-4.9148-3.9081-9.0821-9.0821-9.0821s-8.7514,4.1667-9.0821,9.0821h5.146c-.5854-8.7015-9.3407-10.2284-16.4203-8.5993-6.9638,1.6024-10.3722,6.9444-13.7946,12.5738-1.6118,2.6511-3.2235,5.3023-4.8353,7.9534-1.0295,1.6935-2.3285,3.4465-2.8722,5.376-2.4693,8.762,8.2698,15.7098,15.1982,9.7905,2.0148-1.7213,3.4034-4.3829,4.8691-6.5555,1.4952-2.2163,2.9905-4.4327,4.4857-6.649,1.8571-2.7528-2.5992-5.3311-4.4435-2.5973-2.4299,3.6018-4.6896,7.4095-7.3268,10.8604-2.4841,3.2506-8.1632,2.2147-7.9954-2.4124,.0666-1.8356,1.6103-3.7055,2.5283-5.2154,2.5076-4.1246,4.8965-8.3539,7.5359-12.3955,2.4804-3.7982,6.1689-5.9006,10.7106-6.0657,3.0826-.112,6.9401-.1375,7.2142,3.936,.2225,3.3075,4.9231,3.3136,5.146,0,.3404-5.0596,7.5311-5.0689,7.8721,0,.2225,3.3075,4.9231,3.3136,5.146,0,.3404-5.0596,7.5311-5.0689,7.8721,0,.2226,3.3088,4.9183,3.3121,5.146,0,.3073-4.4698,6.5664-5.3495,7.7444-.8701,.2123,.8074,.1277,1.7474,.1277,2.5745,0,3.7729,0,7.5458,0,11.3187,0,6.8779,0,13.7557,0,20.6336,0,2.4976,3.5609,3.5748,4.7947,1.2987,1.5775-2.9102,3.155-5.8204,4.7325-8.7306,.9337-1.7225,1.9273-3.3616,4.1515-3.4707,3.2396-.1589,4.9956,3.0386,3.9576,5.8489-2.3694,6.4148-6.08,12.6022-9.0497,18.7576-3.0125,6.2441-6.0774,12.4668-9.0191,18.745-12.2204,26.081-23.1001,53.0791-30.8112,80.8532-4.2377,15.2634-7.793,31.2123-7.7383,47.1334,.0393,11.444,2.1717,24.6778,11.5987,32.3262,16.7966,13.6274,42.9904,3.2174,58.8072-6.6864,12.6584-7.9261,23.1562-18.7782,31.7255-30.941,6.8676-9.7475,11.2069-20.6035,17.1692-30.8406,5.853-10.0494,14.1692-16.3763,26.0876-16.9505,7.8667-.379,15.8124,1.4413,21.676,6.9583,11.9987,11.2892,13.1818,30.998,13.2059,46.3826,.026,16.6682-2.2339,33.1834-4.5233,49.657-4.45,32.0206-5.6911,64.409-10.5873,96.3722-2.6673,17.4128-6.4461,34.7034-12.2007,51.3729-3.3382,9.6698-9.0063,18.182-16.3896,25.2395-15.73,15.0359-37.1574,23.0555-57.8643,28.4458-21.1162,5.4969-42.8183,8.3094-64.4949,10.4761-32.2785,3.2264-64.6342,5.5284-97.039,7.0134-72.3812,3.3171-144.8814,3.0246-217.3197,2.7541-35.6421-.1331-71.3605-.6202-106.8304-4.4457-9.0417-.9752-18.0585-2.1725-27.0334-3.6424-7.4549-1.2209-15.9479-2.021-22.3963-6.3037-9.0099-5.984-9.2883-20.7902-8.7237-30.3942,.2847-4.8432,.9257-9.9945,3.1986-14.3517,3.243-6.2171,9.3382-10.9794,16.596-10.2581-.827-.6297-1.6541-1.2593-2.4811-1.889,1.4754,3.9915-2.5772,7.1912-6.3404,6.9197-4.1557-.2998-7.6782-3.4321-10.2776-6.4306-4.2676-4.9229-6.8514-11.1561-8.562-17.3755-3.7562-13.656-3.7648-28.3087-2.4965-42.321,.5925-6.5461,1.2253-13.4555,3.2675-19.7315,1.3844-4.2544,3.8124-7.9186,8.0805-9.6742,4.1339-1.7003,9.5417-2.4758,13.9783-2.354,7.6028,.2088,13.6339,5.9778,18.5941,11.1533,4.9683,5.1839,9.3706,10.9486,14.6944,15.7855,11.9174,10.8276,28.3616,15.6235,43.8821,18.3241,18.8169,3.2742,37.9489,3.8572,57.0085,3.5883,20.4866-.289,40.9676-1.4856,61.4607-.9719,20.8105,.5217,41.5953,1.4029,62.4159,1.5973,20.7882,.1942,41.5602-.0987,62.342-.5837,19.1187-.4462,38.2601-.3521,57.3564-1.5018,18.892-1.1374,37.7523-3.5861,56.0444-8.5531,2.4111-.6547,4.811-1.3508,7.198-2.0888,1.6345-.5053,5.5945-2.5843,7.2307-1.6301,1.2157,.709,1.4167,2.5588,1.093,3.793-.5079,1.9367-2.375,2.8876-4.1948,3.3238-6.5538,1.5708-13.9955-2.5203-18.9339-6.4636-10.5555-8.4286-17.4331-20.5561-27.9839-29.012-13.9464-11.1773-32.1598-10.9731-49.1756-11.7733-20.7962-.978-41.617-1.2105-62.4312-1.5027-20.0042-.2809-40.0153-1.341-60.0136-1.4799-33.6527-.2338-71.1276,5.2591-101.1984-13.5226-14.1791-8.8561-28.0318-22.4212-46.2112-19.8891-16.015,2.2306-23.9815,18.2456-23.283,33.1536,.4528,9.6658,3.7348,18.8486,7.0268,27.8483,1.1284,3.085,6.1036,1.7523,4.9622-1.368h0Z"/><path d="M360.9628,566.186v-.0034c0-3.1886-1.6154-6.1743-4.3152-7.8709-8.8621-5.5685-14.7533-15.4292-14.7533-26.668,0-17.8056,14.7837-32.1585,32.746-31.4533,16.2399,.6379,29.4755,13.8155,30.1796,30.0526,.5098,11.7603-5.4375,22.1705-14.5913,27.9855-2.7389,1.7399-4.4467,4.7127-4.4467,7.9575,0,5.1614,4.1839,9.3453,9.3451,9.3453h48.423c11.5158,0,20.851-9.3353,20.851-20.851v-48.423c0-5.1614,4.1839-9.3453,9.3453-9.3453h.0031c3.1889,0,6.1746,1.6154,7.8712,4.3152,5.5685,8.8621,15.4292,14.7533,26.668,14.7533,17.8056,0,32.1585-14.7837,31.453-32.746-.6374-16.2397-13.8152-29.4755-30.0523-30.1796-11.7606-.5098-22.1705,5.4375-27.9855,14.5913-1.7399,2.7389-4.7127,4.4467-7.9575,4.4467-5.1614,0-9.3453-4.1839-9.3453-9.3453v-48.5744c0-11.5158-9.3353-20.8508-20.851-20.8508h-48.423c-5.1611,0-9.3451-4.1839-9.3451-9.3453,0-3.2447,1.7078-6.2176,4.4467-7.9575,9.1538-5.8153,15.1011-16.2251,14.5913-27.9858-.7041-16.2369-13.9397-29.4144-30.1796-30.0523-17.9623-.7052-32.746,13.6474-32.746,31.4533,0,11.2388,5.8912,21.0995,14.7533,26.668,2.6998,1.6966,4.3152,4.6823,4.3152,7.8709v.0034c0,5.1614-4.1839,9.3453-9.3453,9.3453h-48.5742c-11.5158,0-20.851,9.335-20.851,20.8508v48.423c0,5.1614-4.1841,9.3453-9.3453,9.3453-3.2447,0-6.2176-1.7078-7.9575-4.4467-5.815-9.1538-16.225-15.1011-27.9855-14.5913-16.2371,.7041-29.4148,13.94-30.0523,30.1796-.7054,17.9623,13.6474,32.746,31.453,32.746,11.2387,0,21.0995-5.8912,26.668-14.7533,1.6965-2.6998,4.6823-4.3152,7.8711-4.3152h.0032c5.1613,0,9.3453,4.1839,9.3453,9.3453v48.5744c0,11.5158,9.3353,20.851,20.8509,20.851h48.5744c5.1614,0,9.3453-4.1839,9.3453-9.3453Z" style="fill:none; stroke:#000; stroke-dasharray:0 0 11.3423 11.3423; stroke-linecap:round; stroke-miterlimit:10; stroke-width:4.0025px;"/><path d="M415.7139,448.3433c12.9331-15.7009,32.0926-24.4994,51.3474-29.7224,4.5258-1.2276,9.1024-2.2657,13.7091-3.1407,2.154-.4091,4.3148-.7825,6.4808-1.1219,2.2686-.3555,4.0032-.5978,5.9182-.8374,6.2267-.7789,12.4882-1.2994,18.7591-1.5402,4.2488-.1631,8.4876-.164,12.7165,.3753,8.4578,1.0788,16.661,3.801,24.5605,6.9222,1.2928,.5108,2.8251-.5597,3.1651-1.7971,.4016-1.4616-.4995-2.6524-1.7971-3.1651-11.9307-4.714-24.2028-7.9301-37.1093-7.5344-5.9792,.1833-11.9515,.629-17.8947,1.3064-19.1104,2.1781-38.2819,6.56-55.5792,15.179-10.5487,5.2563-20.3878,12.2992-27.9151,21.4374-.8828,1.0718-1.0492,2.5896,0,3.6388,.9101,.9101,2.751,1.0778,3.6388,0h0Z" style="fill:#f953b2;"/><path d="M411.5298,432.7627c-.2994,2.7792-.5725,5.5612-.816,8.3459-.1242,1.4203-.2535,2.8416-.3503,4.2641-.1011,1.485,.1454,2.9187,1.1518,4.0718,1.7252,1.9766,4.6105,1.9794,7.0082,2.2651,2.8797,.3431,5.7595,.6861,8.6392,1.0292,1.3821,.1646,2.573-1.3004,2.573-2.573,0-1.5276-1.1869-2.4079-2.573-2.573-2.4766-.295-4.9532-.5901-7.4297-.8851-.6335-.0755-1.2671-.1509-1.9006-.2264-.288-.0343-.5759-.0686-.8639-.1029-.194-.0231-.7829-.1122-.298-.0318-.4326-.0718-.856-.157-1.273-.295-.176-.0621-.148-.0495,.0842,.0376l-.1956-.1095c.1904,.1702,.2195,.1929,.0873,.0681-.1278-.1294-.1078-.0976,.0598,.0956,.0104,.0862,.029,.5125,.0481,.1837,.0131-.2253-.0033-.4555,.0089-.6825,.0326-.6029,.092-1.2056,.1405-1.8073,.0963-1.1941,.1978-2.3878,.3047-3.581,.2239-2.5001,.4718-4.9979,.7406-7.4935,.1491-1.3837-1.2893-2.573-2.573-2.573-1.515,0-2.4235,1.1853-2.573,2.573h0Z" style="fill:#f953b2;"/><path d="M311.8777,616.6418c.8-1.5999,1.5999-3.1999,2.3999-4.7998,.3109-.6218,.4486-1.2957,.2594-1.9827-.1644-.5968-.6258-1.2436-1.1825-1.5377-.5971-.3155-1.3206-.4736-1.9827-.2594-.6141,.1987-1.2393,.5856-1.5377,1.1825-.8,1.5999-1.5999,3.1999-2.3999,4.7998-.3109,.6218-.4486,1.2957-.2594,1.9827,.1644,.5968,.6258,1.2436,1.1825,1.5377,.5971,.3155,1.3206,.4736,1.9827,.2594,.6141-.1987,1.2393-.5856,1.5377-1.1825h0Z" style="fill:#6966ed;"/><path d="M290.4378,607.8124c3.1714-2.4371,6.3427-4.8741,9.5141-7.3112,.556-.4272,.9882-.8323,1.1825-1.5377,.1696-.6159,.093-1.436-.2594-1.9827-.3542-.5494-.8816-1.033-1.5377-1.1825-.6254-.1424-1.4483-.1512-1.9827,.2594-3.1714,2.4371-6.3427,4.8741-9.5141,7.3112-.556,.4272-.9882,.8323-1.1825,1.5377-.1696,.6159-.093,1.436,.2594,1.9827,.3542,.5494,.8816,1.033,1.5377,1.1825,.6254,.1424,1.4483,.1512,1.9827-.2594h0Z" style="fill:#6966ed;"/><path d="M328.9534,609.9497c.76,2.8508,1.766,5.6117,2.9386,8.3174,.2386,.5507,.9875,1.0309,1.5377,1.1825,.6159,.1696,1.436,.093,1.9827-.2594,.5494-.3542,1.033-.8816,1.1825-1.5377l.0919-.684c-.0014-.4645-.1185-.8973-.3513-1.2987-.0773-.1783-.1538-.357-.2297-.5359l.2594,.6146c-.9801-2.3303-1.7983-4.7241-2.4495-7.1669-.3467-1.3004-1.8503-2.2226-3.1651-1.7971-1.3356,.4322-2.1686,1.7715-1.7971,3.1651h0Z" style="fill:#6966ed;"/></svg>