<?xml version="1.0" encoding="UTF-8"?><svg id="Layer_2" xmlns="http://www.w3.org/2000/svg" width="1000" height="1000" viewBox="0 0 1000 1000"><path d="M278.0602,298.183l-30.1863,80.4969c-.9906,2.6415-1.498,5.4397-1.498,8.2609h0c0,12.9936,10.5334,23.527,23.527,23.527h76.5534c6.4333,0,11.6485-5.2152,11.6485-11.6485v-8.3874c0-6.4333-5.2152-11.6485-11.6485-11.6485h0c-7.066,0-12.5047-6.2403-11.5392-13.2401l9.2911-67.3604" style="fill:#f953b2;"/><path d="M456.6482,330.6614H129.7721c-7.0263,0-12.8557-5.4347-13.3476-12.4438l-14.7773-210.5763c-.5431-7.7396,5.589-14.3171,13.3476-14.3171H439.993l16.6552,237.3371Z" style="fill:#6966ed;"/><polygon points="477.4673 330.6614 138.1168 330.6614 121.4616 93.3243 460.812 93.3243 477.4673 330.6614" style="fill:#f953b2;"/><polygon points="454.9133 310.5363 157.1522 310.5363 143.3216 113.4494 441.0826 113.4494 454.9133 310.5363" style="fill:#fff;"/><polygon points="373.372 282.7776 177.4068 282.7776 168.3044 153.0689 364.2697 153.0689 373.372 282.7776" style="fill:#f4d13b;"/><path d="M519.7995,173.8246h-100.437c-15.669,0-28.6689-12.996-29.7657-29.7568l-3.256-49.754c-1.2112-18.5077,12.4637-34.2366,29.7657-34.2366h100.437c15.669,0,28.6689,12.996,29.7657,29.7568l3.256,49.754c1.2112,18.5077-12.4637,34.2366-29.7657,34.2366Z" style="fill:#6966ed;"/><path d="M538.2683,463.3738H203.5504c-.9299,0-1.8423-.2534-2.639-.733l-84.7248-50.9994c-4.4432-2.6745-2.5471-9.5012,2.639-9.5012H453.5434c.9299,0,1.8423,.2534,2.639,.733l84.7248,50.9994c4.4432,2.6745,2.5471,9.5012-2.639,9.5012Z" style="fill:#f4d13b;"/><path d="M958.3283,311.8826c14.8332,45.6524,19.7433,94.4274,14.8305,142.1534-3.954,38.4109-6.7555,74.7557-33.7823,104.2037-46.3382,50.4895-121.9482,54.0231-184.7265,44.697-22.0456-3.275-45.3021-8.5804-60.9124-24.488-15.6105-15.9078-18.7907-45.6785-.9143-58.9893,15.7064-11.6951,38.691-5.7888,56.3936-14.1603,12.6154-5.9658,21.0068-18.6667,25.0086-32.0355,9.8939-33.0534,5.9251-67.1051,6.7593-100.9638,.9013-36.5811,10.9715-75.9949,39.9928-98.283,15.8014-12.1353,35.6451-17.8859,55.3758-20.6521,13.8574-1.9428,28.4662-2.4454,41.3437,3.0295,21.7781,9.2589,33.3186,32.9819,40.6314,55.4885Z" style="fill:#f4d13b;"/><path d="M271.1685,451.6644h150.1683c4.0188,0,4.0255-6.2457,0-6.2457h-150.1683c-4.0188,0-4.0255,6.2457,0,6.2457h0Z" style="fill:#fff;"/><g><path d="M813.7659,102.2844c3.8005,3.9416,8.3847,7.3701,14.1434,10.0717,9.4227,4.4206,19.9293,5.9015,29.7845,9.2488,19.8013,6.7254,36.2508,29.6048,35.7291,50.8398-.2659,10.8232-5.7566,21.8014-15.2412,27.022-8.6356,4.7533-19.2364,4.2918-28.8257,2.0084-2.7389-.6522-5.7458-1.679-7.0077-4.1958-1.2619-2.5168,1.0749-6.4334,3.6878-5.385,4.178,6.4806,1.8042,15.3133-2.6297,21.6216-5.8971,8.39-14.5167,19.717-23.1335,25.2387-21.2537,13.6195-59.8281,15.7477-78.9091-2.3709-6.0016-5.6989-10.003-13.8052-9.5997-22.0716,.1632-3.346,1.0947-6.7696,3.2944-9.2962,2.1997-2.5266,5.8381-3.9561,9.0253-2.9246,.4602,.1489,.9476,.3868,1.127,.8361,.1742,.4364,.0005,.9306-.2124,1.3495-4.3335,8.5268-15.3157,3.2626-20.3934-.9918-6.2704-5.2536-10.5564-12.9189-11.7982-20.9987-1.601-10.4172,1.4753-21.1549,7.2683-29.8331,4.6379-6.9478,9.1729-16.3481,19.1494-15.1299,1.841,.2248,3.752,.9031,4.8439,2.4022s.9621,3.9522-.6305,4.9028c-1.8071,1.0786-4.0885-.2502-5.5971-1.7176-8.0452-7.8251-9.1695-17.625-6.3095-28.0504,1.9752-7.2002,.0165-14.8348-7.7368-17.9521-9.8266-3.9509-18.4975,3.3925-18.8458,13.0982-.2086,5.8138-.1034,11.6389,.3151,17.4414-3.4201-1.003-5.4456-4.4711-6.807-7.765-2.7926-6.7566-1.8207-18.13-6.224-23.8434-5.3844-6.9865-18.4617-3.0418-26.0094-3.8904-4.8875-.5496-10.1069-1.8798-13.1797-5.7201-3.0368-3.7954-3.2246-9.1465-2.4079-13.9382,2.5426-14.9186,14.5186-24.33,27.3392-31.0436,17.3231-9.0713,36.2937-16.0296,55.848-15.9306,21.8197,.1105,43.1394,10.0021,54.144,29.3281,9.3244,16.378,13.3717,34.7514,25.7989,47.6398Z"/><path d="M811.5577,104.4926c4.6782,4.813,10.2659,8.6395,16.4247,11.3002,6.643,2.8698,13.6585,4.5271,20.628,6.3825,6.0834,1.6196,11.4017,3.2345,16.6623,6.4994,4.7394,2.9415,8.834,6.6445,12.5141,11.001,7.0076,8.2958,12.0116,19.2509,12.4848,29.9608,.4823,10.9163-4.3375,22.3926-14.4111,27.5285-6.2743,3.1988-13.8386,3.3761-20.6686,2.2954-3.0574-.4838-6.8392-.8948-9.2178-2.616-.2348-.1699-.7252-.6365-.9293-1.1413,.2589,.6401,.0597-.5812,.0776,.1822-.0044-.1876,.1647-.9098,.0029-.3333,.0272-.0968,.384-.8863,.0927-.3518,.0886-.1706,.1877-.3349,.2973-.4929-.2003,.2595-.1815,.2588,.0562-.0022l-.2128,.1539c.3143-.1752,.2979-.1829-.0493-.0229,.8621,.1759-1.0309-.2441-.1034,.0695l-1.8663-1.4351c1.5826,2.5355,2.0249,5.4503,1.6293,8.2787-.4763,3.4055-1.853,6.5376-3.7163,9.3888-3.8111,5.8316-8.2441,11.433-12.9924,16.5246-4.4109,4.7298-9.0497,8.4993-14.8444,11.3731-.607,.301-1.219,.5917-1.8355,.8728-.2874,.131-.576,.259-.8649,.3868-.145,.0641-.2906,.1271-.4364,.1897,.3074-.1319-.0023,.0016-.135,.0565-1.3454,.5561-2.7089,1.0683-4.086,1.5403-2.7845,.9545-5.6253,1.7439-8.499,2.3804-11.3605,2.5165-23.8463,2.6984-35.1403-.3257-5.5482-1.4856-10.1294-3.4072-14.9233-6.7459-1.1955-.8326-1.6715-1.1963-2.8992-2.2784-1.2513-1.1028-2.4269-2.2898-3.5041-3.5636-2.0984-2.4814-3.8228-5.4354-4.8792-8.4807-1.8203-5.2474-2.7295-14.1095,2.8688-17.3713,1.1054-.644,2.4949-.9659,3.4569-.7831,.1572,.0299,.3806,.141,.537,.137,1.0034-.0259-1.3081-1.9324-.7738-2.3496-.2124,.1658-.419,.748-.5761,.9937-.0835,.1306-.1711,.2627-.2658,.3855,.0402-.0521,.2493-.3038,.0187-.0479-.2561,.2843-.5233,.5467-.8106,.8-.2686,.2369,.0481-.04,.0913-.069-.1113,.0748-.2208,.1535-.3369,.2206-.2305,.1331-.4605,.2593-.6974,.3807-.4136,.212,.4627-.1467,.0189-.0147-.1252,.0372-.2478,.0849-.3733,.1221-.295,.0876-.594,.1493-.8953,.2099-.3598,.0724,.1344-.0151,.1737-.0185-.1782,.0157-.3557,.0316-.5343,.0403-.271,.0133-.5429,.0151-.8141,.0078-.2763-.0075-.5505-.0336-.8261-.0519-.6089-.0406-.1329-.018-.0044,.004-.1868-.0319-.3736-.0637-.5595-.1006-.6155-.1224-1.2233-.2831-1.8217-.4716-.2806-.0884-.5591-.1831-.8356-.2834-.1388-.0504-.276-.1055-.4152-.155-.5288-.1881,.0967,.0543-.2121-.0807-1.1581-.5063-2.2766-1.1027-3.3521-1.7662-.5077-.3132-1.0058-.6421-1.4926-.9869-.2135-.1513-.4235-.3071-.6338-.4629,.5549,.4112-.1967-.1637-.3348-.279-1.3684-1.1425-2.6382-2.405-3.8024-3.7546-4.3432-5.0348-6.9974-11.5645-7.4252-18.2107-.4712-7.3185,1.3385-14.6383,4.7892-21.0834,1.4927-2.7881,3.3029-5.4094,5.0206-8.0626,.7818-1.2076,1.5843-2.4001,2.4364-3.5594,.1541-.2096,.4559-.6005,.8807-1.1028,.4669-.5521,.954-1.088,1.4672-1.5975,1.8557-1.8424,3.5043-2.9355,6.1823-3.3265-.4735,.0691,.3134-.0154,.4512-.0227,.3349-.0178,.671-.0217,1.0063-.0141,.8936,.0201,1.167,.0356,2.0458,.2756,.578,.1578,1.0534,.354,1.3827,.6352,.1376,.1175,.265,.2546,.3833,.3913-.0685-.0791-.1349-.1864-.0147,.0519,.0647,.1284,.0222,.13,.0372,.2218,.0131,.0804,.0174,.0564,.0315,.1399-.0341-.2021,.051,.0629-.0961,.1644-.0365,.0252,.2665-.28,.2726-.291,.1178-.2098,.3653,.1326-.1097-.0417,.2521,.0925-.4462-.2416-.5038-.2737-1.3167-.7339-2.4366-2.1123-3.4082-3.3193-1.9867-2.4681-3.2641-5.1751-4-8.2077-.7026-2.8952-.7767-6.0381-.3778-9.2497,.3691-2.9719,1.57-6.3738,1.8429-9.5928,.5494-6.4805-2.3639-12.9178-8.117-16.164-6.0446-3.4106-13.3624-3.107-18.8254,1.2333-2.5129,1.9964-4.287,4.7445-5.4056,7.7282-1.2893,3.439-1.2114,7.1904-1.2327,10.8087-.0248,4.2023,.1203,8.4029,.4164,12.5947,1.3177-1.0038,2.6354-2.0075,3.953-3.0113-.3486-.112-.6487-.2404-1.1446-.5617-.2794-.1811-.5518-.4235-.9589-.8531-.6667-.7037-1.219-1.5841-1.7665-2.6144-.9484-1.7846-1.5479-3.6523-1.9986-5.8156-.9601-4.6081-1.177-9.3585-2.4086-13.9125-1.1604-4.2906-3.4042-8.3737-7.5809-10.3358-4.1503-1.9497-8.8509-2.0059-13.3466-1.7836-3.9285,.1942-8.241,.6935-11.9164,.0935-4.4656-.729-9.1192-2.2712-10.7923-6.631-1.7255-4.4962-.7246-9.7965,.8604-14.2859,1.4033-3.9748,3.9795-7.9268,6.8852-11.0631,6.7967-7.336,15.8322-12.0739,24.9127-16.363,10.6316-5.0219,21.8579-8.9825,33.4962-10.8464,19.6036-3.1396,40.6736,.8994,55.3229,14.6064,15.4795,14.4838,18.4249,37.2743,30.7079,54.1581,1.5976,2.196,3.3145,4.3013,5.1919,6.2643,2.7836,2.9106,7.1959-1.5101,4.4164-4.4164-15.3875-16.0897-17.6573-40.316-32.4409-56.8828-14.2142-15.9286-36.2771-22.4403-57.1254-20.7063-12.5902,1.0472-24.7146,4.6419-36.3067,9.5563-10.172,4.3124-20.4787,9.3159-28.8723,16.6206-7.873,6.8516-13.4552,16.2199-14.086,26.7918-.3572,5.9875,1.4937,11.89,6.4653,15.5308,4.1012,3.0033,9.772,4.139,14.7751,4.2092,4.3822,.0615,8.7429-.6121,13.1284-.4571,2.1885,.0774,3.3023,.201,5.5195,.9789,1.2401,.4351,2.496,1.4956,3.327,2.9303,.6286,1.0854,.6923,1.2986,1.0581,2.4175,.3509,1.0733,.6217,2.1719,.8523,3.2767,.5126,2.456,.8212,4.9489,1.1797,7.4304,.6894,4.772,1.6749,9.6309,4.5155,13.6518,1.6553,2.3431,3.7047,4.1461,6.47,5.0347,1.8391,.591,4.0932-1.0266,3.953-3.0113-.2391-3.3855-.3817-6.7767-.4125-10.1707-.0147-1.6159-.0051-3.2321,.0286-4.8477,.0272-1.3047,.0637-3.1678,.2186-3.9927,.1035-.551,.2313-1.0969,.3899-1.6347,.0937-.3178,.1988-.6315,.3107-.9434,.211-.5883,.1082-.3026,.051-.1662,.2286-.5452,.5088-1.073,.8076-1.5825,.1348-.2298,.2747-.4562,.4217-.6784,.0215-.0325,.5586-.7875,.2558-.3936,.6267-.8151,1.3858-1.5811,2.1991-2.21-.4573,.3536,.3647-.2345,.3706-.2384,.2157-.1413,.4357-.2753,.6594-.4035,.2241-.1284,.4528-.246,.6819-.365,.6089-.3162-.201,.0348,.3917-.1809,3.8311-1.3939,8.4398-.5389,11.4693,2.4692,1.3989,1.389,2.128,2.7749,2.6117,4.8654,.3416,1.4764,.3188,4.1646-.0063,5.7425-.5744,2.7879-1.319,5.4691-1.6413,8.3124-.3123,2.7545-.2412,5.4905,.153,8.2321,.7935,5.5182,3.3742,10.5752,7.1303,14.6687,2.0454,2.2291,4.7463,4.4369,7.9664,4.1792,3.4003-.2721,5.7175-3.3232,5.4233-6.6581-.5911-6.7001-8.6959-8.2059-14.0833-6.9124-4.7679,1.1447-8.304,4.6703-11.1547,8.4602-1.3415,1.7834-2.5371,3.6688-3.7384,5.5478-1.4138,2.2115-2.8882,4.3749-4.1077,6.7041-5.5848,10.6677-7.5134,23.7059-3.0188,35.1193,3.6891,9.3678,11.1459,17.9952,21.0843,20.8706,4.3851,1.2687,9.4002,.9511,12.7515-2.472,2.1714-2.218,4.199-6.0308,1.3607-8.5806-2.3217-2.0857-6.4018-1.8476-9.1129-.7829-6.1417,2.412-8.8971,8.65-9.2067,14.9065-.2897,5.8555,1.5011,11.7788,4.5002,16.7723,5.196,8.6514,13.8795,14.402,23.2404,17.7189,9.0371,3.2022,18.9061,4.1929,28.4441,3.6596,9.7257-.5438,19.3469-2.6363,28.313-6.4602,4.2916-1.8302,8.3609-4.081,12.0444-6.9541,4.5221-3.5272,8.4316-7.7901,12.0622-12.2108,3.5592-4.3338,7.2693-8.8655,10.1212-13.709,2.9699-5.044,4.6163-10.9974,3.6559-16.8393-.4426-2.6918-1.7021-6.8926-4.6919-7.5545-3.1556-.6986-5.8509,1.5185-6.9471,4.3219-1.0856,2.7764-.2866,5.7148,1.7541,7.8199,1.9417,2.0028,4.7409,2.9717,7.388,3.6098,11.4843,2.7684,24.7796,2.954,34.5991-4.5392,8.7574-6.6827,13.4453-17.6532,13.4328-28.5538-.012-10.4693-3.7361-20.8399-9.4253-29.5401-5.7065-8.7267-13.6009-16.3911-23.0425-20.9628-10.9799-5.3165-23.563-6.0559-34.6045-11.2309-5.0729-2.3776-9.6076-5.5672-13.5113-9.5834-2.8065-2.8874-7.2207,1.5313-4.4164,4.4164Z"/></g><path d="M379.3807,409.1941c-1.4775,.3641-2.4167,.447-3.6972-.0715-.5049-.2044-1.4067-.9996-1.8726-1.7469-1.4803-2.3746-2.0704-5.4844-2.2268-8.3857-.3936-7.3001,1.9228-14.1026,5.0039-21.035,3.6356-8.1801,8.8874-15.5103,16.5584-20.3283,9.589-6.0227,21.3383-8.425,32.5146-8.9822,12.1038-.6035,24.2021,.8422,36.1481,2.6573,12.8452,1.9518,25.672,4.0397,38.4918,6.1511,13.4067,2.2081,26.8052,4.4661,40.2133,6.6663,12.7709,2.0956,25.6628,3.7804,38.3152,6.5273,8.369,1.8169,17.2797,3.9616,24.7522,8.2968,4.4969,2.6089,9.2339,5.676,13.0197,8.7522,1.1402,.9265,2.2532,1.8906,3.2986,2.9235,.4201,.415,.8304,.84,1.2226,1.2816,.1837,.2068,.3625,.4174,.5393,.6301,.305,.3671-.2761-.382-.0026-.0113,.0991,.1343,.2006,.2679,.2919,.4077,.2544,.3891,.4834,.782,.7091,1.1879,.349,.6275-.1236-.3917,.0387,.1043,.0453,.1384,.292,.8312,.1112,.3045-.1886-.5493-.0515,.1129-.0202,.1861,.0766,.1788-.0038-.8208-.0184-.1042,.0051-.2526,.1302-.6551,.0245-.149,.1407-.6741,.4018-.097-.048-.0203-.0744,.0127,.5278-.2131-.1357,.0556-.2294,.0929-.6306,.3066-.1458,.1058-.4869,.2017-1.2157,.52-1.7443,.5075-1.0178-.024-1.777-1.8106-2.1224-2.8236-.7302-2.1419-.7573-4.2984-.8274-6.5386-.0875-2.7942-.1526-5.589-.1936-8.3842-.3293-22.4785,.8518-45.0675,4.7467-67.2334,3.84-21.8536,10.2719-43.3477,20.2802-63.1963,10.0466-19.9245,23.4125-38.8723,41.2219-52.5858,8.7083-6.7055,18.6664-12.5227,29.2224-15.7478,5.1384-1.5699,10.3887-2.0418,15.7335-1.5729,4.9196,.4316,9.738,1.6228,14.5807,2.5385,5.2916,1.0007,10.6321,1.6911,16.0259,1.6279,4.0162-.047,4.027-6.2929,0-6.2457-11.1947,.1311-21.7764-3.8459-32.893-4.3161-12.1006-.5118-23.7114,4.4697-34.0032,10.4131-21.0176,12.1374-37.0658,30.9827-49.2617,51.7001-12.1602,20.6569-20.3276,43.504-25.2354,66.9208-4.9471,23.6046-6.7702,47.7975-6.7135,71.8852,.014,5.934-.1797,12.0371,.4158,17.9455,.4498,4.4621,2.2654,10.3258,7.1832,11.6227,3.1086,.8198,7.4755-.6685,9.2569-3.4347,1.48-2.2982,.9043-5.0835-.4084-7.3041-3.1065-5.2549-8.9787-9.0777-13.9273-12.4001-4.5606-3.0619-9.0853-5.7067-14.1997-7.73-12.4011-4.9059-25.6527-7.0537-38.7582-9.1344-14.2808-2.2673-28.544-4.6416-42.8074-7.0155-14.22-2.3667-28.4436-4.7078-42.6841-6.9484-12.8171-2.0166-25.6617-4.2425-38.6487-4.7721-12.8531-.5242-26.0338,.7208-38.049,5.5649-9.7799,3.9429-17.8447,10.3159-23.4708,19.2879-2.6595,4.2411-4.6954,8.8619-6.4133,13.5547-1.4278,3.9001-2.7447,7.8105-3.233,11.9462-.7686,6.5094-.3431,15.5113,4.887,20.2481,2.9719,2.6916,6.8142,3.1761,10.6145,2.2396,3.9006-.9613,2.2485-6.9859-1.6604-6.0226h0Z"/><path d="M385.7346,387.804c-2.8569,8.9335-5.7137,17.867-8.5706,26.8005-1.8893,5.9078-3.7785,11.8156-5.6678,17.7234-1.0538,3.2954-2.7802,7.0811-2.7275,10.5981,.0872,5.8108,4.4391,11.0365,10.2202,11.9507,6.1662,.9751,11.7148-2.5954,13.803-8.3849-2.0075-.5535-4.0151-1.1069-6.0226-1.6604-1.7886,5.908,1.0238,12.4316,6.7295,14.9317,5.9682,2.6151,13.0614,.104,15.9953-5.7412-1.9026-.8021-3.8052-1.6042-5.7078-2.4063-1.3068,6.5791,2.5396,13.5568,9.4149,14.8757,6.3184,1.212,12.1365-2.3488,14.2797-8.3302,2.1803-6.0847,4.116-12.2685,6.1719-18.3963,.827-2.4649,1.654-4.9299,2.4809-7.3948-2.0075-.5535-4.0151-1.1069-6.0226-1.6604-1.8328,5.7358-3.6656,11.4715-5.4985,17.2073-.868,2.7163-1.7899,5.4217-2.6056,8.1542-1.3771,4.6127,1.094,9.1979,4.4933,12.2485,4.5924,4.1213,11.3018,6.1515,16.8428,2.5347,2.617-1.7082,4.4301-4.2394,5.2969-7.233,.4949-1.7092,.8558-3.4506,1.4613-5.1277,.7326-2.0293,1.7838-3.8194,3.2418-5.2402,1.0807-1.0531,2.5971-1.9258,3.9509-2.3456,3.5882-1.1128,7.5734-.6166,11.4151,.3594,9.6832,2.4599,18.4544,7.6268,27.4852,11.8248,14.1014,6.5551,28.5599,12.3598,43.2891,17.3475,14.9216,5.0529,30.1653,9.5177,45.6706,12.3812,7.9163,1.462,15.9377,2.4943,23.9857,2.8106,3.8093,.1497,7.6263,.138,11.4333-.0667,3.505-.1885,7.7798-.6673,10.7252-1.1046,2.9042-.4311,5.7514-1.0286,8.5843-1.8154,6.7761-1.882,13.3588-4.5422,19.6204-7.734,9.0113-4.5934,17.3821-10.459,24.8664-17.2574,9.5569-8.681,17.6273-19.0047,24.0424-30.1957,8.2969-14.4739,13.9101-30.4219,17.4197-46.6987,4.7344-21.9573,5.8807-44.6049,4.9057-67.0023-.2835-6.5135-.7545-13.017-1.3723-19.507-.1598-1.679-1.3209-3.1229-3.1229-3.1229-1.565,0-3.2836,1.4338-3.1229,3.1229,2.2212,23.3333,2.612,47.0771-.7195,70.3294-1.3354,9.3202-3.2549,18.5648-5.9028,27.6029-2.2779,7.7752-5.0253,15.2148-8.3513,22.2735-3.0165,6.4019-6.5076,12.583-10.4967,18.4301-3.5474,5.1997-6.8899,9.3961-11.4129,14.1866-3.8046,4.0295-7.8986,7.7858-12.2492,11.219-.2656,.2096-.5322,.418-.7997,.6253,.5495-.4258-.0483,.0356-.2553,.1919-.5284,.399-1.0585,.7956-1.5931,1.1864-.985,.72-1.9818,1.4239-2.99,2.1111-1.9703,1.343-3.9838,2.6226-6.0368,3.8354-3.5929,2.1226-7.3066,4.0413-11.1199,5.7365-.3981,.177-.7978,.35-1.1974,.5235-.4174,.1812-.5283,.2224,.0092-.0014-.2425,.101-.4846,.2029-.7275,.303-.7963,.3281-1.5966,.6464-2.4008,.9546-1.5039,.5763-3.0213,1.1173-4.5513,1.6201-3.6548,1.201-7.3846,2.2039-11.1796,2.8481-.6825,.1159-.7725,.1116,.161-.0119-6.7073,.8878-13.3743,1.3973-20.1469,1.2362-15.5523-.3698-30.873-3.5673-45.8355-7.6441-14.756-4.0205-29.2917-8.8625-43.5203-14.4695-12.3704-4.8748-24.2716-10.6332-36.2906-16.2867-7.8525-3.6936-16.908-7.7613-25.8102-6.9151-4.3679,.4152-8.5481,2.1162-11.4959,5.4629-3.0416,3.4531-4.3132,7.6582-5.4927,12.0016-.5597,2.0612-1.7501,3.7717-3.8222,4.5549-2.3483,.8876-4.6501,.0716-6.648-1.2332-2.4883-1.6251-5.0853-4.4608-4.1065-7.524,2.1016-6.5771,4.2033-13.1541,6.3049-19.7312,.564-1.7651,1.1281-3.5302,1.6921-5.2954,1.2292-3.8468-4.7509-5.4508-6.0226-1.6604-1.6481,4.9124-3.2962,9.8248-4.9443,14.7372-.9892,2.9483-1.9783,5.8966-2.9675,8.8449-.7048,2.1007-1.2635,4.1051-3.3097,5.3518-4.4188,2.6925-10.0872-1.3011-9.0809-6.3676,.6485-3.2652-4.0238-5.7614-5.7078-2.4063-1.5178,3.0238-4.9512,4.7141-8.1887,3.1753-2.9047-1.3807-4.0194-4.5839-3.1205-7.5531,1.1784-3.8925-4.676-5.3938-6.0226-1.6604-1.2013,3.3307-5.1542,4.9566-8.3459,3.3977-2.9025-1.4177-3.9394-4.602-3.0373-7.5722,.8534-2.8098,1.7899-5.597,2.6843-8.3939,3.5917-11.2314,7.1834-22.4629,10.7751-33.6943,.9705-3.0348,1.941-6.0696,2.9115-9.1043,1.2272-3.8374-4.8011-5.4802-6.0226-1.6604h0Z"/><path d="M410.0361,453.2211c2.7984-8.0933,5.5968-16.1867,8.3952-24.28,.397-1.1483,.7941-2.2966,1.1911-3.4449,.5511-1.5939-.6294-3.4151-2.1811-3.8415-1.7169-.4718-3.2883,.5814-3.8415,2.1811-2.7984,8.0933-5.5968,16.1867-8.3952,24.28-.397,1.1483-.7941,2.2966-1.1911,3.4449-.5511,1.5939,.6294,3.4151,2.1811,3.8415,1.7169,.4718,3.2883-.5814,3.8415-2.1811h0Z"/><path d="M392.4844,447.6717c2.7984-8.0933,5.5968-16.1867,8.3952-24.28,.397-1.1483,.7941-2.2966,1.1911-3.4449,.5511-1.5939-.6294-3.4151-2.1811-3.8415-1.7169-.4718-3.2883,.5814-3.8415,2.1811-2.7984,8.0933-5.5968,16.1867-8.3952,24.28-.397,1.1483-.7941,2.2966-1.1911,3.4449-.5511,1.5939,.6294,3.4151,2.1811,3.8415,1.7169,.4718,3.2883-.5814,3.8415-2.1811h0Z"/><path d="M614.2892,334.1698c-6.6455-3.5244-13.291-7.0487-19.9365-10.5731-6.4743-3.4336-12.8987-6.9995-19.5043-10.1767-7.5678-3.64-15.4862-6.4162-23.6631-8.3279-16.102-3.7646-34.8115-5.2933-50.0953,2.2498-8.625,4.2567-14.8028,11.77-17.7006,20.8987-1.2189,3.84,4.809,5.4835,6.0226,1.6604,.3192-1.0057,.6714-2.0004,1.0766-2.9749-.2297,.5525,.0094-.0159,.0723-.1515,.0969-.2088,.1903-.4192,.2889-.6272,.2331-.4918,.4785-.9778,.7364-1.457,.4606-.856,.9609-1.6907,1.5007-2.4991,.2403-.3599,.4884-.7147,.7441-1.0639,.0621-.0847,.5917-.7639,.1338-.1873,.1589-.2001,.3187-.3995,.4819-.5962,1.1789-1.4202,2.492-2.7277,3.9128-3.9057,.1922-.1594,.3874-.3147,.5822-.4709-.0857,.0687-.5064,.3684-.0388,.0318,.3715-.2675,.7377-.541,1.1154-.7999,.7915-.5425,1.6071-1.0498,2.4423-1.5223,.7317-.4139,1.4784-.8012,2.2371-1.1629,.4589-.2187,.9225-.4269,1.3892-.6283-.6619,.2857,.6963-.2712,.9162-.3542,1.7892-.675,3.6241-1.2266,5.4831-1.6734,.8633-.2075,1.7321-.3923,2.6047-.5563,.4407-.0828,.8823-.1603,1.3248-.2327,.2669-.0437,.534-.0854,.8014-.1254,.1788-.0267,.3578-.0527,.5369-.0778-.3363,.044-.3884,.051-.1562,.0209,1.9603-.2509,3.9307-.4133,5.9052-.4958,4.1424-.173,8.2964-.007,12.4204,.4065,1.0386,.1041,2.075,.2263,3.1102,.3594-.6489-.0835,.6614,.0937,.8584,.1225,.5608,.0822,1.1211,.1687,1.6806,.2595,2.0314,.3294,4.0537,.7141,6.0648,1.1504,3.8382,.8326,7.6373,1.8506,11.3754,3.0559,1.7243,.556,3.4358,1.1524,5.1303,1.7938,.7282,.2757,1.4533,.5597,2.1748,.8527,.2391,.0971,1.2443,.5187,.5066,.2048,.5555,.2363,1.1087,.4775,1.6599,.7238,7.1652,3.2022,14.0346,7.0651,20.9635,10.7398,7.2297,3.8342,14.4594,7.6684,21.6891,11.5026,1.4896,.79,3.3969,.377,4.2727-1.1203,.8262-1.4126,.3748-3.4797-1.1203-4.2727h0Z"/><path d="M824.2536,493.3588c-6.1719,18.3721-19.9059,33.1389-36.0117,43.4725-18.5324,11.8905-39.9219,17.5925-61.3969,21.4227-11.5843,2.0661-23.2487,3.635-34.8666,5.493-5.2371,.8375-10.0726,1.613-15.2525,2.1529-6.5137,.6789-13.0873,1.0708-19.6362,.7937-5.4773-.2317-11.6391-.7899-16.4361-3.5079-1.8514-1.049-3.2143-2.1886-4.0375-4.1565-.2293-.5481-.2603-1.8986-.4349-2.6673,.0518,.2282-.2297,.466-.441,.4966,.3718-.0538,.8535-.1614,1.565-.0873,6.5788,.6849,12.7414,5.513,15.324,11.4462,1.8688,4.2933,2.4381,9.0541,3.1739,13.6342,.9281,5.7768,1.9748,11.5346,3.1366,17.269,2.3188,11.445,5.0885,22.7966,8.2511,34.0373,12.8767,45.7664,32.1242,89.5879,54.3747,131.5207,5.7741,10.8818,11.7121,21.6753,17.6159,32.4869,5.5103,10.091,10.8992,20.1856,17.0596,29.9008,5.7214,9.0229,11.6512,17.9576,16.4511,27.5207,4.4724,8.9104,8.6473,19.2196,8.0311,29.3752-.5928,9.7692-6.1717,18.4537-12.4643,25.6087-7.1254,8.1019-15.396,15.2628-24.0917,21.6258-17.7939,13.0204-37.6037,22.9461-57.5116,32.2733-10.7959,5.0581-28.8769,11.6441-38.111,.0989-2.2458-2.8078-3.3997-6.364-3.9525-9.8733-.8973-5.6964-.6577-11.6836-.3443-17.4197,.6704-12.2704,2.6644-24.4722,2.4434-36.7865-.3822-21.2946-8.0149-41.3869-17.7906-60.0347-9.9504-18.9813-21.6527-36.9811-31.7151-55.9109-11.5723-21.7703-22.6113-43.8238-33.1019-66.1355-10.3775-22.0711-20.4966-44.3476-29.3516-67.0794-15.7383-40.4019-28.2767-86.9548-15.613-129.9531,2.9062-9.8675,7.2293-19.1869,12.92-27.7574,2.2297-3.358-3.1774-6.4892-5.393-3.1523-25.6449,38.6225-21.3206,88.4384-8.859,130.8824,7.1126,24.2253,17.1152,47.5048,27.3455,70.5463,10.4398,23.5133,21.4825,46.759,33.113,69.7067,5.815,11.4733,11.7662,22.8798,17.8846,34.1944,5.1831,9.5849,10.8495,18.8942,16.3802,28.2795,11.0393,18.7332,21.869,38.1622,26.1397,59.7172,2.3684,11.9537,1.9309,23.9456,.8234,36.0165-1.1179,12.1853-3.0359,25.0086-.795,37.1751,1.3594,7.3807,5.5856,14.1684,12.5186,17.4316,6.7476,3.176,14.435,3.1083,21.618,1.6636,9.159-1.8422,17.561-6.4236,25.9014-10.4463,10.3662-4.9998,20.6168-10.2631,30.5112-16.1495,9.8181-5.8409,19.2668-12.3248,28.0332-19.6601,8.2721-6.9217,16.3134-14.6474,22.254-23.7139,5.8079-8.8641,8.6368-19.06,6.9518-29.6144-1.7206-10.7774-6.4485-20.9492-11.7607-30.3881-5.4876-9.7505-11.8536-18.9645-17.6382-28.5348-6.3509-10.5072-11.9263-21.5169-17.8119-32.2898-24.1791-44.257-46.3626-89.4632-61.5405-137.687-3.6793-11.6901-6.9546-23.5089-9.7571-35.4401-2.776-11.8183-4.7792-23.7234-6.8872-35.6687-1.5667-8.8781-5.2907-17.3667-13.6774-21.7084-4.5112-2.3354-15.0885-6.5549-17.2127,.9921-1.6121,5.7274,2.9257,11.4399,7.6452,13.9875,5.6692,3.0602,12.43,3.8549,18.7667,4.1591,12.5825,.604,25.0869-1.2423,37.4731-3.2157,24.05-3.8317,48.5631-6.4914,71.5771-14.8963,19.2593-7.0336,37.4942-18.2627,50.4993-34.339,6.171-7.6283,11.0054-16.1343,14.1338-25.4468,1.2829-3.8187-4.7472-5.457-6.0226-1.6604h0Z"/><path d="M505.4173,659.7978c-18.1665,22.0365-31.3756,47.6267-48.4112,70.4912-8.3582,11.218-17.7998,22.1995-29.3609,30.2342-13.9359,9.6852-30.3779,14.7111-46.148,20.5068-7.7147,2.8352-15.4821,5.8092-22.753,9.6695-6.1692,3.2754-11.6693,7.9482-13.2043,15.0716-2.9261,13.5793,6.1181,26.7355,15.6368,35.4116,9.9535,9.0724,21.7967,15.6526,32.5573,23.6614,13.4828,10.0349,27.1815,19.8191,42.5431,26.8119,14.7808,6.7284,32.6453,13.1517,48.5448,6.4856,12.7613-5.3503,21.4371-16.4859,29.0734-27.562,20.1926-29.288,42.815-56.74,66.0566-83.6509,47.8547-55.4098,98.7404-108.8349,156.8958-153.5918,13.8424-10.6532,28.1907-20.6946,43.2819-29.5073,15.293-8.9306,31.5776-15.3612,47.4119-23.1688,22.8893-11.2863,41.0445-29.2717,53.0215-51.7744,23.4168-43.9962,24.8185-97.6892,19.7002-146.1838-.6269-5.94-1.378-11.8671-2.233-17.7784-.7623-5.2704-.7695-12.3952-4.1381-16.7314-3.6065-4.6426-12.0676-4.6175-13.0663,2.1854-.5286,3.6007,1.5582,7.1507,2.8993,10.3568,2.0041,4.7911,4.0082,9.5822,6.0123,14.3733,2.4879,5.9476,4.6084,15.9302,11.2578,18.6947,6.4622,2.6867,12.7704-2.5092,16.4185-7.3932,8.3191-11.1377,13.0576-25.0436,15.3161-38.6403,4.6921-28.2475,.0732-57.9906-9.3434-84.8161-9.4649-26.9632-24.935-51.9706-46.0998-71.3169-10.57-9.6618-22.5025-17.9036-35.4813-23.9858-6.4929-3.0428-13.2215-5.6046-20.1238-7.5533-6.1729-1.7427-12.45-3.2102-18.308-5.8928-12.3767-5.6677-18.5183-15.9046-19.3823-29.387-.5554-8.6673,.2502-17.3498-1.5885-25.9109-1.4162-6.594-4.1114-12.9869-7.7211-18.6789-14.9809-23.6234-43.0776-33.7485-69.8393-26.544-12.5687,3.3836-24.4676,10.1698-33.3148,19.7758-10.281,11.1628-14.4711,24.6769-15.3401,39.6244-.4624,7.9543-.2752,15.9434-1.0673,23.8787-.2843,2.8487-1.5619,6.4415,.2337,9.0429,1.7888,2.5916,4.6486,1.7151,7.1016,2.9102l-1.4351-1.8663c4.0582,10.3353,8.7743,21.0456,17.9675,27.8462,9.687,7.1659,22.2296,10.0601,34.1064,8.5396,3.9322-.5034,3.9825-6.7556,0-6.2457-16.5563,2.1196-32.2778-4.7233-40.4678-19.4655-1.7766-3.198-3.2617-6.5497-4.6345-9.9374-1.3307-3.2837-2.2009-4.7145-5.8206-5.3567-.5202-.0923-1.445-.0566-1.8603-.2835,.672,.3671-.1792,2.4987,.5255-.8434,.3448-1.6352,.4443-3.3847,.5995-5.0475,.3802-4.0731,.5015-8.1663,.6131-12.2537,.4228-15.4778,1.3017-30.5458,11.3254-43.1436,8.1941-10.2983,19.9674-17.4892,32.576-21.0034,26.8012-7.4697,55.2778,4.5764,67.0059,30.2766,3.1081,6.8108,4.372,14.0159,4.5492,21.4645,.1949,8.1912-.2314,16.4693,1.9859,24.452,3.0201,10.873,10.5818,18.8788,20.7294,23.5494,11.6218,5.3492,24.4536,7.194,36.164,12.4098,12.8037,5.7027,24.65,13.4697,35.1033,22.7964,20.9047,18.6517,36.3523,42.9162,45.6783,69.2539,9.2889,26.2328,14.2085,55.5867,9.3348,83.253-1.1787,6.6908-2.9578,13.301-5.4855,19.6121-2.4827,6.1988-5.8225,13.5043-10.6791,18.2136-3.5037,3.3974-7.3208,4.3254-9.8241-.4559-2.1173-4.0443-3.6242-8.5339-5.3859-12.7455-1.6877-4.0346-3.3753-8.0692-5.063-12.1038-.8169-1.953-1.7555-3.9075-2.4519-5.9071-.3351-.9622-1.7651-3.911,1.1063-2.2662,.8768,.5023,1.2664,2.707,1.4618,3.5756,2.462,10.9444,3.4296,22.4916,4.4441,33.6443,1.0962,12.0511,1.6841,24.1529,1.6493,36.2549-.0696,24.2216-2.5506,48.6414-9.5019,71.9151-6.686,22.3854-17.8671,43.6536-35.0934,59.7195-10.0371,9.3609-21.7117,16.0946-34.1647,21.7309-15.6182,7.069-31.0004,14.0731-45.676,23.0042-28.7149,17.475-55.0436,38.984-80.1981,61.1935-26.4349,23.34-51.3733,48.336-75.3513,74.1797-23.9331,25.7952-47.1914,52.325-69.367,79.6489-10.8477,13.3661-21.7978,26.839-31.6432,40.9689-7.6763,11.0169-14.7195,23.5346-26.0969,31.2148-15.0148,10.1357-32.4135,5.1369-47.792-1.569-14.7628-6.4374-28.1363-15.5026-41.0161-25.0768-10.6996-7.9536-22.4233-14.7062-32.5788-23.3604-5.0031-4.2635-9.6381-9.0665-12.8106-14.8722-3.6195-6.6238-5.9684-16.0828-.4897-22.384,4.9042-5.6405,13.6793-8.5567,20.4109-11.2464,7.7547-3.0985,15.6704-5.7669,23.4996-8.6663,14.0048-5.1865,27.6399-11.2128,39.2111-20.8281,20.8824-17.3525,35.104-41.7693,49.6203-64.31,7.094-11.0154,14.2525-22.0579,22.5976-32.1808,2.5378-3.0784-1.8566-7.5215-4.4164-4.4164h0Z"/><path d="M696.3607,105.7567c.149-.0816,.3026-.1523,.4537-.2293,.2269-.1156-.4266,.1605-.1857,.0784,.071-.0242,.1405-.0534,.2113-.0782,.3191-.1116,.6467-.1976,.9792-.2585,.0779-.0143,.3592-.0537,.0016-.0071-.3918,.051-.0033,.0032,.0593-.0025,.1499-.0136,.3004-.0222,.4508-.026,.1042-.0026,.9709-.0514,1.0154,.0475-.0026-.0058-.5333-.0859-.2177-.0263,.0741,.014,.1485,.0261,.2224,.0409,.1662,.0332,.3312,.0728,.4946,.118,.1632,.0452,.3249,.096,.4845,.153,.0696,.0248,.14,.0607,.2113,.0793-.0595-.0156-.4398-.2013-.1858-.078,.3054,.1482,.6035,.3009,.8878,.4875,.0628,.0412,.1238,.0851,.1862,.1268,.231,.1546-.1064-.0757-.1507-.1228,.1259,.1337,.2909,.2442,.4259,.3709,.7943,.7457,2.1673,.8464,2.9443,0,.7431-.8095,.8481-2.148,0-2.9443-2.776-2.6063-7.0481-3.1555-10.3898-1.3247-.9561,.5238-1.3445,1.9215-.7469,2.8484,.6249,.9693,1.8257,1.3072,2.8484,.7469h0Z"/><g><path d="M671.9869,121.3255c-2.0792,2.5104,1.783,4.9814,3.2124,2.3482,1.2345-2.274-1.3997-4.5369-3.2124-2.3482Z"/><path d="M670.5148,119.8534c-.2714,.332-.5598,.6751-.738,1.0706-.1146,.2545-.2363,.5132-.3161,.7819-.082,.2763-.1091,.5864-.1411,.8643-.0438,.3797,.0194,.7707,.0903,1.1422,.0673,.3529,.2262,.699,.3906,1.0128,.3321,.6341,.8887,1.1618,1.4875,1.5412,.6206,.3933,1.3552,.583,2.0832,.6159,.0928,.0042,.1853,.0009,.2778-.0076,.2701-.0248,.5504-.0536,.8153-.1202,.3582-.0902,.7177-.241,1.0297-.4399,.6941-.4425,1.2921-1.0823,1.624-1.8409,.1181-.27,.2473-.5432,.3245-.8294,.0816-.3023,.1187-.6357,.1456-.9401,.0371-.4193-.0248-.857-.1171-1.2636-.0272-.1197-.0657-.2353-.1114-.3491-.1056-.2633-.2069-.54-.3561-.7842-.1438-.2354-.3236-.4529-.4993-.6642-.0774-.0931-.1631-.1793-.2562-.2568-.4929-.4104-.8944-.6606-1.5083-.8676-.3968-.1338-.8503-.1974-1.268-.1563-.6566,.0646-1.1812,.1902-1.7681,.5116-.444,.2431-.8619,.5907-1.1887,.9794-.203,.1886-.3465,.4119-.4305,.67-.1303,.2481-.1901,.5155-.1793,.8021,0,.5106,.2268,1.1206,.6098,1.4721,.3968,.3642,.9177,.6346,1.4721,.6098,.5241-.0235,1.1209-.1921,1.4721-.6098,.1452-.1727,.3036-.3301,.4823-.4683l-.4214,.3255c.1453-.1082,.2988-.2003,.4648-.2731l-.4973,.2099c.1506-.0626,.3052-.107,.4665-.1313l-.5535,.0744c.1516-.0197,.3022-.0209,.4539-.003l-.5535-.0744c.1585,.0219,.3105,.0636,.4584,.1247l-.4973-.2099c.1465,.0639,.2822,.1443,.4094,.241l-.4214-.3255c.1368,.1079,.2574,.2304,.3641,.368l-.3255-.4214c.1073,.1434,.1952,.2967,.2655,.4613l-.2099-.4973c.0701,.1724,.118,.3497,.1449,.5339l-.0744-.5535c.0251,.1955,.0254,.3899,.0025,.5857l.0744-.5535c-.0307,.2276-.0917,.4462-.1791,.6584l.2099-.4973c-.0936,.217-.2102,.4216-.3536,.6096l.3255-.4214c-.1151,.1462-.2442,.2777-.3912,.3919l.4214-.3255c-.1269,.0952-.262,.1742-.4078,.2369l.4973-.2099c-.1484,.0608-.3015,.1021-.4603,.1247l.5535-.0744c-.1654,.0208-.3307,.0205-.4961,.0007l.5535,.0744c-.194-.0261-.3814-.0782-.5618-.1541l.4973,.2099c-.1708-.0746-.3304-.1685-.4787-.2815l.4214,.3255c-.1466-.1149-.2776-.2456-.3917-.3929l.3255,.4214c-.1003-.1334-.184-.2764-.2499-.4298l.2099,.4973c-.0608-.1479-.1031-.3005-.1265-.4588l.0744,.5535c-.0218-.1666-.0217-.3326-.0011-.4993l-.0744,.5535c.0256-.1822,.0748-.3575,.1438-.528l-.2099,.4973c.0931-.2201,.2158-.4229,.3595-.6135l-.3255,.4214c.0269-.0348,.0543-.0691,.0821-.1031,.203-.1886,.3465-.4119,.4305-.67,.1303-.2481,.1901-.5155,.1793-.8021,0-.5106-.2268-1.1206-.6098-1.4721-.3968-.3642-.9177-.6346-1.4721-.6098-.5194,.0233-1.1286,.1896-1.4721,.6098Z"/></g><path d="M690.3905,154.3065c-.2686,.1104-.5399,.2083-.8221,.2782-.1395,.0345-.283,.0679-.4256,.0869,.2891-.0387-.0968-.0093-.2035-.0072-.1453,.0028-.2892-.0037-.4343-.0091-.3513-.0131,.2528,.0575-.093-.0049-.3223-.0582-.6319-.1534-.9391-.2659,.3062,1.1599,.6125,2.3198,.9187,3.4797,3.7108-3.2106,6.0344-8.7947,3.2318-13.3557-1.3413-2.1829-4.1173-3.8489-6.5888-2.3836-1.5911,.9433-2.1978,2.711-3.0166,4.2539-.0885,.1668-.1825,.3294-.2833,.4891-.0406,.0643-.0858,.1255-.1304,.187,.1693-.2335-.0316,.0277-.1106,.1193-.3899,.4516-.8187,.8677-1.2812,1.2446-.2607,.2125,.2238-.1558-.052,.0364-.1358,.0946-.2709,.19-.4101,.2796-.2504,.1611-.5082,.3103-.7726,.4473-.1175,.0609-.2369,.1176-.356,.1751-.199,.096,.2077-.0619-.1427,.0595-.3146,.109-.6264,.2115-.9487,.2963-1.0532,.277-1.7976,1.4996-1.4541,2.561,.3507,1.0836,1.4323,1.751,2.561,1.4541,2.0107-.5289,3.8672-1.6216,5.3291-3.0987,.631-.6376,1.2253-1.3542,1.6471-2.149,.3168-.597,.5771-1.2223,.8955-1.8186,.1486-.2783,.3386-.5332,.488-.8087-.2322,.4281-.066,.0799,.064-.0538,.0604-.0621,.1322-.1158,.1898-.1797,.179-.1985-.3153,.266-.1145,.1007,.3832-.3156-.2768,.1772,.0186-.0097,.0694-.0439,.1938-.1512-.0212-.0027l-.146,.0239c.165,.0077,.1823,.0035,.0521-.0127-.2392-.1552,.5543,.2863,.1379,.0427,.0844,.0494,.1675,.0988,.2503,.1505,.2665,.1665-.1856-.182,.0443,.0367,.1667,.1586,.3339,.3202,.4749,.5031-.2093-.2715,.139,.253,.1848,.3336,.0474,.0835,.3049,.6503,.1812,.3311,.0982,.2534,.1785,.5152,.2436,.7789,.0489,.1984,.0917,.4004,.1203,.6027-.0503-.3546,.0049,.2666,.0077,.3685,.0065,.2414-.0054,.4811-.0141,.7222-.0004,.0116-.0249,.352-.0044,.1343,.0221-.235-.0491,.2862-.059,.3348-.0548,.2687-.1236,.5348-.206,.7964-.0308,.0978-.0638,.1948-.098,.2914-.0206,.0583-.1901,.473-.0556,.1675-.206,.4681-.4577,.9171-.7361,1.3457-.0746,.1148-.1513,.2281-.2302,.34-.0203,.0288-.2468,.3338-.1441,.2019,.1346-.1729-.1323,.157-.1604,.1902-.0889,.105-.1794,.2083-.2717,.3103-.3925,.4337-.8155,.8355-1.2577,1.2181-.5499,.4758-.7216,1.3495-.5354,2.0256,.205,.7446,.7556,1.1983,1.4541,1.4541,1.6225,.5942,3.5302,.5798,5.1314-.078,1.0035-.4122,1.8294-1.4012,1.4541-2.561-.3129-.967-1.4823-1.8972-2.561-1.4541h0Z"/><path d="M684.6313,149.5614c.1296-.0401,.2575-.0697,.3916-.0905l-.5535,.0744c.1999-.0212,.3932-.0191,.593,.0046l-.5535-.0744c.235,.0378,.4545,.1015,.6748,.1912l-.4973-.2099c.1899,.0851,.3638,.1862,.5392,.2974,.326,.2066-.3746-.3363-.0932-.0706,.076,.0718,.1528,.1404,.2251,.2161,.1315,.1377,.225,.3936-.0584-.1052,.0526,.0926,.1249,.1772,.1811,.2682,.1239,.2009,.2277,.4119,.3226,.6278l-.2099-.4973c.3661,.8849,.5104,1.8299,.6437,2.7723,.0442,.3124,.3178,.7011,.5354,.9187,.3256,.3256,.7444,.512,1.1954,.5726,.7531,.1012,1.7335-.2474,2.0744-.9939,.7812-1.7106,.9862-3.5478,.5203-5.3825-.2022-.7964-.5404-1.5956-.989-2.2851-.5631-.8655-1.2259-1.5167-2.0431-2.1316-.4028-.3031-1.1423-.3371-1.6042-.2099-.4829,.133-1.0063,.5064-1.2442,.9568-.2553,.4832-.3832,1.0685-.2099,1.6042,.1776,.5487,.4993,.8999,.9568,1.2442-.6022-.4531,.0143,.0298,.1573,.1725,.0899,.0897,.1764,.1827,.2597,.2786,.0416,.0479,.0823,.0966,.1222,.146-.2164-.2851-.2765-.3627-.1801-.2329,.2685,.3801,.4969,.7723,.6811,1.2004l-.2099-.4973c.2074,.5039,.3485,1.0258,.4238,1.5655l-.0744-.5535c.0627,.5079,.065,1.0147,.0026,1.5227l.0744-.5535c-.0666,.4751-.188,.9324-.3706,1.3762l.2099-.4973c-.0249,.0588-.0508,.1171-.0779,.175,1.2684,.1658,2.5368,.3315,3.8052,.4973-.242-1.7122-.6419-3.3512-1.7785-4.7087-1.1641-1.3904-3.1825-2.1508-4.9488-1.6036-1.0389,.3219-1.808,1.4674-1.4541,2.561,.3384,1.0456,1.4469,1.7992,2.561,1.4541h0Z"/><path d="M435.6675,771.9068c-.0219,3.5533-.0628,7.4713-1.8172,10.6507-.6328,1.1469-1.5287,2.2767-2.3979,2.9338-1.2324,.9317-2.2477,1.2458-3.4493,1.2628-.1641-.0014-.3278-.0105-.4912-.0272,.2872,.0385,.2394,.023-.1434-.0465-.3171-.0921-.6384-.1608-.9468-.2838,.43,.1716-.3625-.1971-.4435-.2439-.1889-.109-.3727-.2259-.5515-.3507,.199,.1626,.1569,.1227-.1262-.1197-.2327-.2141-.4724-.4431-.6593-.6983,.2901,.3961-.1635-.3388-.2058-.4242,.2002,.4044-.1738-.587-.1955-.7461,.0676,.4971,.0344-.3103,.0463-.4059-.0799,.6424,.0952-.1723,.1511-.3088-.2976,.7265,.5494-.7158,.0936-.138,.1833-.2325,.4043-.4428,.6254-.638-.4132,.3646,.298-.1769,.3343-.2032,.3314-.1628,.3476-.1843,.0487-.0644,.1349-.0534,.2723-.0991,.4121-.1374,.137-.043,.2761-.0781,.4172-.1053-.3627,.0377-.359,.0447,.011,.021,.3251,.0187,.3717,.014,.1397-.0142-.2304-.0382-.1867-.0232,.131,.045,.343,.1122,.3545,.1153,.0346,.0093,.1709,.0963,.333,.2057,.4863,.3282l-1.4351-1.8663c.1118,.6301,.026-.0276,.0883,.5558,.0369,.3449,.0583,.6921,.071,1.0388,.0253,.6904,.0004,1.3783-.0525,2.0668-.0542,.7049-.4399,2.4111-.8254,3.5299-.7644,2.2187-2.3126,4.6338-4.0139,6.4043-1.7376,1.8082-3.9775,3.4048-6.0464,4.2556-1.2654,.5204-2.6157,.8986-3.9692,1.1003-.219,.0351-.2263,.0357-.0218,.0017-.1712,.0188-.3426,.0342-.5144,.046-.3443,.0261-.6889,.0416-1.0342,.0464-.347,.0048-.6934-.0014-1.04-.0186-.1228-.0061-1.0962-.0909-.7363-.0417-1.6688-.2281-3.3529,.4029-3.8415,2.1811-.4003,1.457,.4992,3.6116,2.1811,3.8415,6.7309,.9201,13.1234-1.2858,18.1785-5.7829,4.7276-4.2057,7.8917-10.3912,7.9898-16.767,.0294-1.9068,.0427-4.4413-1.5097-5.7406-1.2301-1.0295-2.9423-1.5514-4.5402-1.4529-3.462,.2135-6.53,2.5803-7.6846,5.8382-1.132,3.194,.3048,6.8854,2.8386,8.9745,2.7209,2.2434,6.3333,3.1597,9.7652,2.1823,3.7474-1.0673,6.886-4.0553,8.5563-7.5282,1.9786-4.114,2.3107-8.6598,2.3384-13.1603,.0248-4.0197-6.2209-4.0243-6.2457,0h0Z"/><path d="M649.7034,843.9832c5.0491,.4606,9.697,4.932,10.8097,10.1587-.0041-.0195,.1695,.9713,.1129,.5401,.0452,.3445,.0656,.6942,.0784,1.0414,.0149,.405,.0065,.8081-.0116,1.2127-.0077,.1646-.0207,.3288-.0389,.4927,.0371-.2796,.0231-.2259-.0419,.1612-.3405,1.4184-.4948,2.1114-1.4599,2.8746,.3883-.3071-.3332,.162-.4043,.1899,.2102-.099,.2108-.114,.0018-.0449-.2534,.0617-.2069,.0603,.1397-.004-.3683-.0144-.353-.0089,.046,.0166l-.2528-.0778c.3362,.1442,.3451,.1318,.0267-.0372,.2625,.229,.2597,.2248-.0084-.0124-.1262-.1369-.4916-.7331-.1981-.2018-.0724-.1112-.1373-.2265-.1947-.3459-.1036-.2057-.08-.1557,.0708,.1501,.0971-.7095-.0988,.5219-.0181-.1301-.0676,.5464-.2089,.753-.6333,1.078l-1.5762,.4264c-.3712-.0401,.7272,.1333,.8597,.1643,.3839,.0897,.7626,.1983,1.1365,.323,.7747,.2583,.8923,.3231,1.6974,.7846,1.4119,.8096,2.242,1.5335,3.4023,2.8562,1.8655,2.1267,3.1493,4.9664,3.7459,7.9787,.6353,3.2073,.1323,7.4002-.8684,10.9353-1.1685,4.1278-3.0274,7.9857-5.0324,11.7631-.7905,1.4893-.3767,3.3971,1.1203,4.2727,1.413,.8265,3.4792,.3745,4.2727-1.1203,3.905-7.357,7.5062-15.5126,6.9808-24.0369-.4267-6.9222-3.8683-13.7598-9.7524-17.6036-1.4288-.9334-3.0616-1.6629-4.7136-2.0938-.8541-.2228-1.7979-.4225-2.6769-.4503-1.3403-.0424-2.3913,.7116-3.1717,1.7404-2.2913,3.0207-.4329,7.375,2.6376,9.0513,3.5505,1.9383,7.525-.0131,9.4766-3.2473,1.8777-3.1118,2.017-7.0123,1.2317-10.4763-1.786-7.8778-8.8305-13.8484-16.7939-14.5749-1.6819-.1534-3.1229,1.5451-3.1229,3.1229,0,1.8168,1.4362,2.969,3.1229,3.1229h0Z"/><path d="M871.4274,894.6898h-.1857c-11.2774,0-20.4195-9.1421-20.4195-20.4195v-284.4118h-23.2479v284.4118c0,11.2774-9.1421,20.4195-20.4195,20.4195h0l-32.1364,20.9868h128.5454l-32.1364-20.9868Z" style="fill:#f4d13b;"/><circle cx="786.9771" cy="943.4354" r="18.7371" style="fill:#f953b2;"/><circle cx="884.8266" cy="943.4354" r="18.7371" style="fill:#f953b2;"/><path d="M666.3997,108.0998c.6212-.4236,1.2726-.7981,1.9559-1.1124,.091-.0418,.1824-.0826,.2743-.1224-.2671,.1117-.294,.1243-.0808,.0379,.1882-.0687,.3743-.1424,.5639-.2073,.3554-.1217,.7158-.2283,1.0801-.3199s.7322-.1682,1.1029-.2291c.0988-.0162,.1978-.0314,.297-.0454-.3054,.0403-.3408,.0466-.1063,.0188,.1747-.014,.3487-.0337,.5237-.0455,.7756-.0523,1.5516-.0322,2.3244,.0498,1.0866,.1154,2.1286-1.0399,2.0819-2.0819-.0549-1.2265-.9178-1.9583-2.0819-2.0819-3.4796-.3694-7.1479,.5741-10.0366,2.5439-.8981,.6124-1.3854,1.858-.7469,2.8484,.5763,.8939,1.8862,1.4031,2.8484,.7469h0Z"/><path d="M216.3452,441.1765h14.7785c1.6335,0,3.1984-1.4364,3.1229-3.1229-.0758-1.692-1.3721-3.1229-3.1229-3.1229-4.9262,0-9.8523,0-14.7785,0-1.6335,0-3.1984,1.4364-3.1229,3.1229,.0758,1.692,1.3721,3.1229,3.1229,3.1229h0Z" style="fill:#fff;"/><path d="M230.6469,422.5842h15.2552c1.6335,0,3.1984-1.4364,3.1229-3.1229-.0758-1.692-1.3721-3.1229-3.1229-3.1229h-15.2552c-1.6335,0-3.1984,1.4364-3.1229,3.1229,.0758,1.692,1.3721,3.1229,3.1229,3.1229h0Z" style="fill:#fff;"/><path d="M309.3065,428.7816h14.7785c1.6335,0,3.1984-1.4364,3.1229-3.1229-.0758-1.692-1.3721-3.1229-3.1229-3.1229h-14.7785c-1.6335,0-3.1984,1.4364-3.1229,3.1229,.0758,1.692,1.3721,3.1229,3.1229,3.1229h0Z" style="fill:#fff;"/><path d="M431.8247,418.7704h4.2905c.8007,0,1.6419-.3484,2.2082-.9147,.3045-.2829,.5198-.6179,.6457-1.005,.1955-.3722,.2852-.7732,.269-1.2032-.0362-.8076-.3015-1.6453-.9147-2.2082-.611-.5609-1.3621-.9147-2.2082-.9147h-4.2905c-.8007,0-1.6419,.3484-2.2082,.9147-.3045,.2829-.5198,.6179-.6457,1.005-.1955,.3722-.2852,.7732-.269,1.2032,.0362,.8076,.3015,1.6453,.9147,2.2082,.611,.5609,1.3621,.9147,2.2082,.9147h0Z" style="fill:#fff;"/><path d="M466.1489,435.9325h15.7319c1.6335,0,3.1984-1.4364,3.1229-3.1229-.0758-1.692-1.3721-3.1229-3.1229-3.1229h-15.7319c-1.6335,0-3.1984,1.4364-3.1229,3.1229,.0758,1.692,1.3721,3.1229,3.1229,3.1229h0Z" style="fill:#fff;"/><path d="M206.1257,190.8268h107.0495c4.9488,0,9.9243,.1504,14.8715,0,.0723-.0022,.145,0,.2173,0,4.0188,0,4.0255-6.2457,0-6.2457h-107.0495c-4.9488,0-9.9243-.1504-14.8715,0-.0723,.0022-.145,0-.2173,0-4.0188,0-4.0255,6.2457,0,6.2457h0Z" style="fill:#fff;"/><path d="M187.3886,212.6868h126.5871c5.8275,0,11.6825,.1656,17.5083,0,.0832-.0024,.1667,0,.25,0,4.0188,0,4.0255-6.2457,0-6.2457h-126.5871c-5.8275,0-11.6825-.1656-17.5083,0-.0832,.0024-.1667,0-.25,0-4.0188,0-4.0255,6.2457,0,6.2457h0Z" style="fill:#fff;"/><path d="M190.1644,234.8938h126.5871c5.8275,0,11.6825,.1656,17.5083,0,.0832-.0024,.1667,0,.25,0,4.0188,0,4.0255-6.2457,0-6.2457h-126.5871c-5.8275,0-11.6825-.1656-17.5083,0-.0832,.0024-.1667,0-.25,0-4.0188,0-4.0255,6.2457,0,6.2457h0Z" style="fill:#fff;"/><path d="M190.1644,256.4068h88.8099c4.1005,0,8.2286,.1395,12.3274,0,.0605-.0021,.1214,0,.182,0,4.0188,0,4.0255-6.2457,0-6.2457h-88.8099c-4.1005,0-8.2286-.1395-12.3274,0-.0605,.0021-.1214,0-.182,0-4.0188,0-4.0255,6.2457,0,6.2457h0Z" style="fill:#fff;"/><path d="M438.8781,120.0588c6.7599,5.3732,13.5197,10.7464,20.2796,16.1197,.9479,.7535,1.8958,1.5069,2.8437,2.2604,2.1442,1.7044,4.4618,3.1787,7.3606,3.0489,2.6889-.1204,5.4898-1.0027,7.3606-3.0489,4.2806-4.6819,8.5612-9.3638,12.8417-14.0457,6.8147-7.4536,13.6294-14.9071,20.4441-22.3607,1.5534-1.699,3.1067-3.398,4.6601-5.097,1.853-2.0267,3.0489-4.5676,3.0489-7.3606,0-2.5531-1.134-5.6028-3.0489-7.3606-1.9838-1.8211-4.5883-3.1731-7.3606-3.0489-2.6889,.1204-5.4898,1.0027-7.3606,3.0489-4.2806,4.6819-8.5612,9.3638-12.8417,14.0457-6.8147,7.4536-13.6294,14.9071-20.4441,22.3607-1.5534,1.699-3.1067,3.398-4.6601,5.097h14.7213c-6.7599-5.3732-13.5197-10.7464-20.2796-16.1197-.9479-.7535-1.8958-1.5069-2.8437-2.2604-2.2452-1.7847-4.3725-3.0489-7.3606-3.0489-2.5531,0-5.6028,1.134-7.3606,3.0489-1.8211,1.9838-3.1731,4.5883-3.0489,7.3606,.1153,2.5741,.9365,5.6816,3.0489,7.3606h0Z" style="fill:#f4d13b;"/><path d="M516.3295,488.1922H44.9445c-6.3654,0-12.7444-.1211-19.109,0-.2783,.0053-.5571,0-.8354,0-4.0188,0-4.0255,6.2457,0,6.2457H496.385c6.3654,0,12.7444,.1211,19.109,0,.2783-.0053,.5571,0,.8354,0,4.0188,0,4.0255-6.2457,0-6.2457h0Z" style="fill:#6966ed;"/><path d="M56.454,320.5434c2.7538-2.2031,5.5077-4.4061,8.2615-6.6092,.5843-.4674,.9147-1.4957,.9147-2.2082,0-.7659-.3402-1.6809-.9147-2.2082-.5951-.5463-1.3765-.9519-2.2082-.9147l-.8302,.1116c-.529,.1484-.9884,.4161-1.378,.8031-2.7538,2.2031-5.5077,4.4061-8.2615,6.6092-.5843,.4674-.9147,1.4957-.9147,2.2082,0,.7659,.3402,1.6809,.9147,2.2082,.5951,.5463,1.3765,.9519,2.2082,.9147l.8302-.1116c.529-.1484,.9884-.4161,1.378-.8031h0Z" style="fill:#f953b2;"/><path d="M84.5432,361.851c2.2031-2.7538,4.4061-5.5077,6.6092-8.2615,.5365-.6706,.9147-1.3144,.9147-2.2082,0-.7659-.3402-1.6809-.9147-2.2082-.5951-.5463-1.3765-.9519-2.2082-.9147-.7738,.0347-1.7018,.2817-2.2082,.9147-2.2031,2.7538-4.4061,5.5077-6.6092,8.2615-.5365,.6706-.9147,1.3144-.9147,2.2082,0,.7659,.3402,1.6809,.9147,2.2082,.5951,.5463,1.3765,.9519,2.2082,.9147,.7738-.0347,1.7018-.2817,2.2082-.9147h0Z" style="fill:#f953b2;"/><path d="M139.9839,369.5567v-8.2615c0-1.6335-1.4364-3.1984-3.1229-3.1229-1.692,.0758-3.1229,1.3721-3.1229,3.1229v8.2615c0,1.6335,1.4364,3.1984,3.1229,3.1229,1.692-.0758,3.1229-1.3721,3.1229-3.1229h0Z" style="fill:#f953b2;"/><path d="M566.4393,140.7681c2.1299,13.3212-2.819,27.674-12.7041,37.1369h4.4164c-1.445-1.4201-2.0472-3.3674-1.7013-5.1002l-2.1811,2.1811c-.2402,.0354,.7426-.0053,.9143-.0012-.0201-.0005,.5439,.0331,.2707,.0041-.3118-.033,.3743,.0674,.432,.0798,.9915,.2131,1.3838,.3743,2.1425,.8069,1.2638,.7205,2.4709,1.8639,3.2516,3.037,2.1351,3.2084,2.3574,7.322,1.6045,11.2539-.7738,4.0412-2.2564,8.2808-3.8846,11.7752-1.477,3.17-3.3204,6.3256-5.5116,8.7417-1.3924,1.5353-2.6038,2.6027-4.2138,3.5745-.7245,.4373-1.7064,.927-2.1439,1.0888-.9776,.3614-1.9782,.6225-3.0034,.8072-1.6609,.2993-2.599,2.321-2.1811,3.8415,.4806,1.7488,2.1758,2.4813,3.8415,2.1811,8.8406-1.5929,14.9039-9.2107,18.5277-16.9172,4.0901-8.6982,8.2766-20.8702,2.2571-29.6501-3.2118-4.6847-8.2354-7.4904-13.9639-6.6457-.9838,.1451-1.9916,1.2318-2.1811,2.1811-.814,4.0781,.3126,8.2336,3.3075,11.177,1.2222,1.2012,3.187,1.1769,4.4164,0,11.5384-11.0455,16.8215-27.5082,14.3103-43.2136-.2665-1.6668-2.3439-2.5927-3.8415-2.1811-1.7742,.4876-2.4484,2.1698-2.1811,3.8415h0Z" style="fill:#f953b2;"/></svg>